<?xml version="1.0" encoding="utf-8"?>
<!-- Generator: Adobe Illustrator 24.3.0, SVG Export Plug-In . SVG Version: 6.00 Build 0)  -->
<svg version="1.1" id="レイヤー_1" xmlns="http://www.w3.org/2000/svg" xmlns:xlink="http://www.w3.org/1999/xlink" x="0px"
	 y="0px" viewBox="0 0 85.5 44.3" style="enable-background:new 0 0 85.5 44.3;" xml:space="preserve">
<style type="text/css">
	.st0{fill:#F39802;}
	.st1{fill:#F3A524;}
	.st2{fill:#FFFFFF;}
</style>
<path class="st0" d="M85.5,18.7C85.5,8.4,66.4,0,42.8,0S0,8.4,0,18.7c0,9,14.5,16.5,33.8,18.3c4.8,0.8,7.1,3.9,9,7.3
	c1.9-3.3,4.2-6.5,9-7.3C71,35.2,85.5,27.7,85.5,18.7z"/>
<g>
	<path class="st1" d="M35,1.4L8.2,28.2c0.5,0.3,1,0.7,1.5,1L37.5,1.3C36.6,1.3,35.8,1.4,35,1.4z"/>
	<path class="st1" d="M21.1,3.8L2.7,22.1c0.2,0.6,0.5,1.1,0.9,1.6L24.2,2.9C23.2,3.2,22.2,3.5,21.1,3.8z"/>
	<path class="st1" d="M28.4,2.3L5.1,25.5C5.5,26,6,26.4,6.4,26.8L31.2,1.9C30.3,2,29.4,2.1,28.4,2.3z"/>
	<path class="st1" d="M12,7.2l-9.6,9.6c-0.2,0.7-0.3,1.4-0.3,2c0,0.2,0,0.4,0,0.6l14.1-14C14.6,6.1,13.2,6.6,12,7.2z"/>
	<path class="st1" d="M80.8,12.7L58.2,35.3c1.1-0.2,2-0.4,2.9-0.6l20.6-20.6C81.6,13.6,81.2,13.2,80.8,12.7z"/>
	<path class="st1" d="M74.4,7.7L41.2,40.9c0.4,0.5,0.7,1,1,1.5L75.8,8.6C75.5,8.3,75,8,74.4,7.7z"/>
	<path class="st1" d="M66.3,4.4L34.4,36.3c0.7,0.1,1.4,0.3,1.9,0.5L68.1,5C67.5,4.8,66.9,4.6,66.3,4.4z"/>
	<path class="st1" d="M57.1,2.3L24.4,34.7c0.7,0.2,1.4,0.3,2,0.4L59,2.6C58.4,2.4,57.8,2.3,57.1,2.3z"/>
	<path class="st1" d="M46.6,1.2L15.7,32.1c0.6,0.2,1.2,0.5,1.8,0.7L48.9,1.3C48.1,1.3,47.4,1.2,46.6,1.2z"/>
	<path class="st1" d="M77.9,9.9L51.6,36.3c1-0.1,1.8-0.2,2.6-0.3l24.9-24.9C78.9,10.7,78.4,10.3,77.9,9.9z"/>
	<path class="st1" d="M70.5,5.9l-32.1,32c0.5,0.3,0.9,0.7,1.4,1.1L72.2,6.6C71.6,6.4,71.1,6.2,70.5,5.9z"/>
	<path class="st1" d="M61.9,3.1L29.3,35.7c0.7,0.1,1.5,0.2,2.1,0.3L63.7,3.6C63,3.4,62.5,3.2,61.9,3.1z"/>
	<path class="st1" d="M52,1.6l-32,32c0.6,0.2,1.3,0.4,1.9,0.5L54.2,1.8C53.5,1.8,52.7,1.7,52,1.6z"/>
	<path class="st1" d="M42.8,1.1c-0.6,0-1.2,0-1.8,0L11.7,30.4c0.5,0.3,1.1,0.6,1.7,0.8l30-30.1C43.2,1.1,43,1.1,42.8,1.1z"/>
	<path class="st1" d="M82.9,16.3L65.7,33.5c1.3-0.4,2.4-0.8,3.6-1.3l14.1-14.1C83.3,17.6,83.2,16.9,82.9,16.3z"/>
	<g>
		<path class="st1" d="M82.6,22.3l-6.9,6.9C79.1,27.2,81.5,24.9,82.6,22.3z"/>
	</g>
</g>
<g>
	<path class="st2" d="M22.1,20.7v0.3c0.5,0.3,2.1,1.5,2.5,1.8l-1.2,1.5c-0.3-0.3-0.8-0.9-1.3-1.3v3.6h-2v-3.3
		c-0.6,0.9-1.4,1.7-2.1,2.2c-0.3-0.4-0.9-1.1-1.3-1.4c1.1-0.7,2.3-2,3.1-3.2h-2.6V19h3v-1.2h-3.2V16h1.7c-0.1-0.6-0.3-1.4-0.6-2
		l1.1-0.3h-1.9v-1.7h2.8v-1.8l2.4,0.1c0,0.2-0.1,0.3-0.4,0.3v1.3h2.8v1.7h-1.7l1.4,0.4c-0.1,0.1-0.2,0.2-0.4,0.2
		c-0.2,0.5-0.5,1.2-0.8,1.7h1.9v1.7h-2.8c-0.1,0.1-0.2,0.1-0.4,0.2V19h2.9v1.7H22.1z M21.6,16c0.3-0.6,0.6-1.5,0.7-2.3h-2.6
		c0.3,0.7,0.6,1.6,0.7,2.2l-0.1,0L21.6,16L21.6,16z M32.9,16v1.9h-1.6v8.5h-2v-8.5h-1.7c0,2.5-0.4,6.2-2.7,8.5
		c-0.3-0.4-1-1.1-1.4-1.4c2-2.1,2.2-4.9,2.2-7.2v-5.9l1.1,0.3c1.6-0.5,3.2-1.2,4.1-1.9l1.9,1.5c-0.1,0.1-0.3,0.1-0.5,0.1
		c-1.2,0.6-3,1.3-4.7,1.8V16H32.9z"/>
	<path class="st2" d="M49.1,11.8c-0.1,0.1-0.3,0.1-0.5,0.1c-0.5,0.4-1.3,1.1-2,1.5c0.2,0.3,0.5,0.6,0.8,0.9c0.7-0.6,1.4-1.3,1.9-1.8
		l1.7,1.3c-0.1,0.1-0.3,0.1-0.5,0.1c-0.5,0.4-1.2,1.1-1.9,1.5c0.8,0.6,1.6,1.1,2.6,1.5c-0.5,0.4-1.1,1.2-1.4,1.7
		c-1.4-0.7-2.6-1.6-3.7-2.8v0.9h-6.3v-0.8c-1.1,1.1-2.3,2.1-3.6,2.7c-0.3-0.4-0.8-1.1-1.2-1.4c0.9-0.4,1.8-1,2.5-1.7
		c-0.5-0.5-1.2-1-1.8-1.4l1.1-1.1c0.6,0.3,1.4,0.9,1.9,1.3c0.5-0.5,0.9-1.1,1.2-1.7h-3.7V11H41l0.3-0.1l1.4,0.7
		c-0.1,0.1-0.2,0.2-0.3,0.3c-0.4,1.2-1.1,2.3-1.9,3.3h4.9c-1-1.2-1.7-2.6-2.3-4.2l1.8-0.5c0.2,0.6,0.5,1.2,0.9,1.8
		c0.6-0.5,1.2-1.1,1.6-1.6L49.1,11.8z M46.4,22.4l1.1,0.3c0,0.1-0.2,0.2-0.4,0.2c-0.2,0.4-0.5,1-0.8,1.4h4.3V26H35.7v-1.7h4.1
		c-0.2-0.6-0.5-1.2-0.9-1.8l0.7-0.2h-1.5v-4.8H48v4.8H46.4z M40.2,19.2v1.5h5.7v-1.5H40.2z M44.2,24.3c0.3-0.6,0.6-1.3,0.9-2h-4.2
		c0.4,0.6,0.8,1.4,0.9,2H44.2z"/>
	<path class="st2" d="M69.1,18.9h-6.9c-0.2,0.3-0.3,0.6-0.5,0.8h5.6l0.4,0l1.1,0.2c0,0.2-0.1,0.3-0.1,0.5c-0.2,3.4-0.5,4.8-1,5.3
		c-0.5,0.5-1,0.6-2.2,0.6c-0.2,0-0.5,0-0.7,0c0-0.5-0.2-1.1-0.4-1.5c-0.4,0.7-0.9,1.3-1.4,1.7c-0.4-0.4-1-0.9-1.5-1.2
		c1.2-0.8,2.2-2.4,2.8-4h-1c-0.9,1.7-2.4,3.5-3.9,4.5c-0.3-0.4-0.9-0.9-1.3-1.2c1.2-0.7,2.5-1.9,3.4-3.2h-1.1
		c-0.6,0.7-1.4,1.4-2.1,1.9c-0.3-0.3-0.9-0.9-1.3-1.2c0.1-0.1,0.2-0.1,0.3-0.2v0c-1.3,0.6-2.5,1.1-3.4,1.5c0,0.2-0.1,0.3-0.3,0.3
		l-0.8-2.2c0.6-0.2,1.3-0.5,2.1-0.7v-4.9h-1.8v-1.9h1.8v-3.6l2.3,0.1c0,0.2-0.1,0.3-0.4,0.3v3.1h1.6v1.9H57V20l1.4-0.6
		c0,0,0,0.1,0.3,1.4c0.6-0.6,1.1-1.2,1.5-1.9h-2v-1.7h10.9V18.9z M67.9,10.7v5.8h-8.1v-5.8H67.9z M66,13v-0.8h-4.4V13H66z M66,15.1
		v-0.8h-4.4v0.8H66z M66,21.4c-0.4,1.1-0.9,2.3-1.5,3.3c0.5,0.1,1,0.1,1.2,0.1s0.4,0,0.5-0.2c0.2-0.3,0.5-1.1,0.6-3.2H66z"/>
</g>
</svg>
