<?xml version="1.0" encoding="utf-8"?>
<!-- Generator: Adobe Illustrator 24.3.0, SVG Export Plug-In . SVG Version: 6.00 Build 0)  -->
<svg version="1.1" id="レイヤー_1" xmlns="http://www.w3.org/2000/svg" xmlns:xlink="http://www.w3.org/1999/xlink" x="0px"
	 y="0px" viewBox="0 0 77 28" style="enable-background:new 0 0 77 28;" xml:space="preserve">
<style type="text/css">
	.st0{fill:#F39802;}
	.st1{fill:none;}
	.st2{fill:#F3A524;}
	.st3{fill:#FFFFFF;}
</style>
<g>
	<path class="st0" d="M73.9,0H6.8C5.1,0,3.7,1.4,3.7,3v7.7L0,14.1l3.7,3.3V25c0,1.7,1.4,3,3.1,3H74c1.7,0,3.1-1.4,3.1-3V3
		C77,1.4,75.6,0,73.9,0z"/>
	<g>
		<polygon class="st1" points="14.9,0 0.3,14.4 2.4,16.2 18.8,0 		"/>
		<polygon class="st1" points="54.5,0 26.1,28 30,28 58.3,0 		"/>
		<polygon class="st1" points="47.9,0 19.6,28 23.4,28 51.7,0 		"/>
		<polygon class="st1" points="8.3,0 3.7,4.6 3.7,8.4 12.2,0 		"/>
		<path class="st1" d="M34.7,0L6.5,27.8c-0.7-0.2-1.3-0.5-1.9-0.9L31.9,0h-3.7L3.7,24.2V25c0,1.7,1.4,3,3.1,3h3.5L38.5,0H34.7z"/>
		<polygon class="st1" points="21.5,0 3.7,17.7 3.7,21.5 25.4,0 		"/>
		<polygon class="st1" points="61.1,0 32.8,28 36.6,28 64.9,0 		"/>
		<polygon class="st1" points="41.2,0 12.9,28 16.9,28 45.2,0 		"/>
		<polygon class="st1" points="77,3.7 52.5,28 56.4,28 77,7.5 		"/>
		<path class="st1" d="M74.2,0L45.9,28h3.8L76.5,1.5C76,0.7,75.2,0.1,74.2,0z"/>
		<polygon class="st1" points="77,10.3 59.1,28 62.9,28 77,14 		"/>
		<path class="st1" d="M72.2,28H74c1.7,0,3.1-1.4,3.1-3v-1.7L72.2,28z"/>
		<polygon class="st1" points="77,16.7 65.6,28 69.4,28 77,20.5 		"/>
		<path class="st1" d="M6.2,0.1C5.3,0.2,4.5,0.8,4.1,1.6l0.9-1C5.4,0.4,5.8,0.2,6.2,0.1z"/>
		<polygon class="st1" points="67.6,0 39.3,28 43.1,28 71.3,0 		"/>
		<polygon class="st2" points="25.4,0 3.7,21.5 3.7,24.2 28.2,0 		"/>
		<polygon class="st2" points="12.2,0 3.7,8.4 3.7,10.8 0,14.1 0.3,14.4 14.9,0 		"/>
		<polygon class="st2" points="18.8,0 2.4,16.2 3.7,17.4 3.7,17.7 21.5,0 		"/>
		<path class="st2" d="M6.8,0C6.6,0,6.4,0,6.2,0.1C5.8,0.2,5.4,0.4,5,0.6l-0.9,1C3.8,2,3.7,2.5,3.7,3v1.5L8.3,0H6.8z"/>
		<polygon class="st2" points="77,14 62.9,28 65.6,28 77,16.7 		"/>
		<path class="st2" d="M77,3c0-0.6-0.2-1.1-0.5-1.6L49.7,28h2.7L77,3.7V3z"/>
		<polygon class="st2" points="64.9,0 36.6,28 39.3,28 67.6,0 		"/>
		<polygon class="st2" points="51.7,0 23.4,28 26.1,28 54.5,0 		"/>
		<polygon class="st2" points="38.5,0 10.2,28 12.9,28 41.2,0 		"/>
		<polygon class="st2" points="77,7.5 56.4,28 59.1,28 77,10.3 		"/>
		<path class="st2" d="M73.9,0h-2.6L43.1,28h2.8L74.2,0C74.1,0,74,0,73.9,0z"/>
		<polygon class="st2" points="58.3,0 30,28 32.8,28 61.1,0 		"/>
		<polygon class="st2" points="45.2,0 16.9,28 19.6,28 47.9,0 		"/>
		<path class="st2" d="M6.5,27.8L34.7,0H32L4.7,27C5.2,27.3,5.9,27.6,6.5,27.8z"/>
		<polygon class="st2" points="77,20.5 69.4,28 72.2,28 77,23.2 		"/>
	</g>
	<g>
		<path class="st3" d="M20,16.1v0.3c0.5,0.3,2.1,1.5,2.5,1.8l-1.2,1.5c-0.3-0.3-0.8-0.9-1.3-1.3v3.5h-2v-3.2
			c-0.6,0.9-1.4,1.7-2.1,2.2c-0.3-0.4-0.9-1.1-1.3-1.4c1.1-0.7,2.3-2,3-3.1h-2.5v-1.9h2.9v-1.2H15v-1.8h1.7c-0.1-0.6-0.3-1.4-0.6-2
			l1.1-0.3h-1.9V7.6h2.7V5.9l2.4,0.1c0,0.2-0.1,0.3-0.4,0.3v1.3h2.7v1.7h-1.7l1.4,0.4c-0.1,0.1-0.2,0.2-0.4,0.2
			c-0.2,0.5-0.5,1.2-0.8,1.7h1.9v1.7h-2.7c-0.1,0.1-0.2,0.1-0.4,0.2v1.2h2.8v1.7H20z M19.6,11.5c0.3-0.6,0.6-1.5,0.7-2.3h-2.5
			c0.3,0.7,0.6,1.6,0.7,2.2h-0.1L19.6,11.5L19.6,11.5z M30.6,11.5v1.9h-1.6v8.3h-2v-8.3h-1.7c0,2.5-0.4,6.1-2.6,8.3
			c-0.3-0.4-1-1.1-1.4-1.4c2-2.1,2.2-4.8,2.2-7.1V7.5l1.1,0.3c1.6-0.5,3.1-1.2,4-1.9l1.9,1.5c-0.1,0.1-0.3,0.1-0.5,0.1
			c-1.2,0.6-2.9,1.3-4.6,1.8v2.3H30.6z"/>
		<path class="st3" d="M46.5,7.4c-0.1,0.1-0.3,0.1-0.5,0.1c-0.5,0.4-1.3,1.1-2,1.5c0.2,0.3,0.5,0.6,0.8,0.9c0.7-0.6,1.4-1.3,1.9-1.8
			l1.7,1.3c-0.1,0.1-0.3,0.1-0.5,0.1c-0.5,0.4-1.2,1.1-1.9,1.5c0.8,0.6,1.6,1.1,2.5,1.5c-0.5,0.4-1.1,1.2-1.4,1.7
			c-1.4-0.7-2.5-1.6-3.6-2.7v0.9h-6.2v-0.8c-1.1,1.1-2.3,2.1-3.5,2.6c-0.3-0.4-0.8-1.1-1.2-1.4c0.9-0.4,1.8-1,2.5-1.7
			c-0.5-0.5-1.2-1-1.8-1.4l1.1-1.1c0.6,0.3,1.4,0.9,1.9,1.3c0.5-0.5,0.9-1.1,1.2-1.7h-3.6V6.6h4.7l0.3-0.1l1.4,0.7
			c-0.1,0.1-0.2,0.2-0.3,0.3c-0.4,1.2-1.1,2.3-1.9,3.2h4.8c-1-1.2-1.7-2.5-2.3-4.1l1.8-0.5c0.2,0.6,0.5,1.2,0.9,1.8
			c0.6-0.5,1.2-1.1,1.6-1.6L46.5,7.4z M43.9,17.8l1.1,0.3c0,0.1-0.2,0.2-0.4,0.2c-0.2,0.4-0.5,1-0.8,1.4H48v1.7H33.4v-1.7h4
			c-0.2-0.6-0.5-1.2-0.9-1.8l0.7-0.2h-1.5V13h9.7v4.7L43.9,17.8L43.9,17.8z M37.8,14.7v1.5h5.6v-1.5H37.8z M41.7,19.7
			c0.3-0.6,0.6-1.3,0.9-2h-4.1c0.4,0.6,0.8,1.4,0.9,2H41.7z"/>
		<path class="st3" d="M66.1,14.4h-6.8c-0.2,0.3-0.3,0.6-0.5,0.8h5.5h0.4l1.1,0.2c0,0.2-0.1,0.3-0.1,0.5c-0.2,3.3-0.5,4.7-1,5.2
			s-1,0.6-2.2,0.6c-0.2,0-0.5,0-0.7,0c0-0.5-0.2-1.1-0.4-1.5c-0.4,0.7-0.9,1.3-1.4,1.7c-0.4-0.4-1-0.9-1.5-1.2
			c1.2-0.8,2.2-2.4,2.7-3.9h-1c-0.9,1.7-2.4,3.4-3.8,4.4c-0.3-0.4-0.9-0.9-1.3-1.2c1.2-0.7,2.5-1.9,3.3-3.1h-1.1
			c-0.6,0.7-1.4,1.4-2.1,1.9c-0.3-0.3-0.9-0.9-1.3-1.2c0.1-0.1,0.2-0.1,0.3-0.2l0,0c-1.3,0.6-2.5,1.1-3.3,1.5c0,0.2-0.1,0.3-0.3,0.3
			l-0.8-2.2c0.6-0.2,1.3-0.5,2.1-0.7v-4.8h-1.8V9.6h1.8V6l2.3,0.1c0,0.2-0.1,0.3-0.4,0.3v3h1.6v1.9h-1.4v4.1l1.4-0.6
			c0,0,0,0.1,0.3,1.4c0.6-0.6,1.1-1.2,1.5-1.9h-2v-1.7h10.7V14.4z M65,6.3V12H57V6.3H65z M63.1,8.6V7.8h-4.3v0.8H63.1z M63.1,10.7
			V9.9h-4.3v0.8H63.1z M63.1,16.8c-0.4,1.1-0.9,2.3-1.5,3.2c0.5,0.1,1,0.1,1.2,0.1c0.2,0,0.4,0,0.5-0.2c0.2-0.3,0.5-1.1,0.6-3.1
			C63.9,16.8,63.1,16.8,63.1,16.8z"/>
	</g>
</g>
</svg>
