<svg id="レイヤー_1" data-name="レイヤー 1" xmlns="http://www.w3.org/2000/svg" width="72.99mm" height="7.1mm" viewBox="0 0 206.9 20.11"><defs><style>.cls-1{fill:#008cd6;}.cls-2{fill:#fff;}.cls-3{fill:#36318f;}.cls-4{fill:#312c88;}</style></defs><rect class="cls-1" x="15.05" y="0.34" width="1.92" height="19.45"/><polygon class="cls-1" points="45.65 0.34 43.73 0.34 43.73 19.8 53.95 19.8 53.95 17.95 45.65 17.95 45.65 0.34"/><polygon class="cls-1" points="103.73 2.19 103.73 0.34 93.52 0.34 93.52 19.8 103.73 19.8 103.73 17.95 95.44 17.95 95.44 10.92 103.73 10.92 103.73 9.07 95.44 9.07 95.44 2.19 103.73 2.19"/><path class="cls-1" d="M9.15,9.35a5.1,5.1,0,0,0-3.28-9H0V19.79H6.55A5.54,5.54,0,0,0,9.15,9.35ZM5.87,8.7H1.92V2.19h4a3.26,3.26,0,0,1,0,6.51Zm.68,1.85a3.7,3.7,0,1,1,0,7.4H1.92v-7.4Z"/><path class="cls-1" d="M87.62,9.35a5.1,5.1,0,0,0-3.28-9H78.47V19.79H85a5.54,5.54,0,0,0,2.6-10.44ZM84.34,8.7h-4V2.19h4a3.26,3.26,0,0,1,0,6.51ZM85,10.55A3.7,3.7,0,1,1,85,18H80.39v-7.4Z"/><path class="cls-1" d="M75,10.06A10.06,10.06,0,1,1,65,0,10.05,10.05,0,0,1,75,10.06"/><path class="cls-2" d="M70.41,4.3a2,2,0,1,1-2-2,2,2,0,0,1,2,2"/><path class="cls-3" d="M69.46,4.3a1.07,1.07,0,1,1-1.07-1.07A1.07,1.07,0,0,1,69.46,4.3"/><path class="cls-2" d="M63.41,4.3a2,2,0,1,1-2-2,2,2,0,0,1,2,2"/><path class="cls-3" d="M62.45,4.3a1.07,1.07,0,0,1-2.13,0,1.07,1.07,0,1,1,2.13,0"/><path class="cls-1" d="M30.09,10.67v1.85h8.06a8.19,8.19,0,1,1-.82-6.72h2.12a10,10,0,1,0,.93,4.87Z"/><path class="cls-4" d="M118.72,2.93a12.42,12.42,0,0,0,3.17,3.38,20.48,20.48,0,0,0,5.2,3,3.91,3.91,0,0,0-.73,1.2,25.41,25.41,0,0,1-5.25-3.28,15.71,15.71,0,0,1-3-3.22,17,17,0,0,1-2.83,3.09,20.86,20.86,0,0,1-5.1,3.32,3.72,3.72,0,0,0-.79-1.08,20,20,0,0,0,5-3.07,14.06,14.06,0,0,0,3-3.36Zm-6.38,10.53a15.59,15.59,0,0,0-2.15.11V12.21a15.59,15.59,0,0,0,2.15.11H124a15.31,15.31,0,0,0,2.15-.11v1.36a15.68,15.68,0,0,0-2.15-.11h-6.77a28.88,28.88,0,0,1-2.36,4.45c2.61-.17,4.57-.36,7.36-.7a32.59,32.59,0,0,0-2.3-2.34l1-.6a40.7,40.7,0,0,1,4.56,5l-1,.77c-.73-1-1-1.36-1.37-1.85-3.36.45-6.21.76-9.15,1a23.7,23.7,0,0,0-3.19.34l-.22-1.43a8.13,8.13,0,0,0,1,.05c.3,0,.3,0,2-.11a28.68,28.68,0,0,0,2.39-4.54Zm1.21-4.7a9.66,9.66,0,0,0,1.49.07h6.09a11.17,11.17,0,0,0,1.59-.07V10a13.12,13.12,0,0,0-1.59-.07H115a12.14,12.14,0,0,0-1.47.07Z"/><path class="cls-4" d="M134.26,17.59a12.43,12.43,0,0,1-2.72,1.54,20.92,20.92,0,0,1-2.89,1,3.88,3.88,0,0,0-.84-1.09,11.71,11.71,0,0,0,5.45-2.17Zm-4.59-7.13c0-1,0-1.55-.07-2.06a19.82,19.82,0,0,0,2.13.08h9.43a20.18,20.18,0,0,0,2.13-.08,17,17,0,0,0-.08,2.06v4.39l0,1v.32c0,.13,0,.28.06.64-.59,0-1.13-.07-2.13-.07h-9.43c-1,0-1.53,0-2.13.07a14.91,14.91,0,0,0,.07-2ZM142.54,6a8.76,8.76,0,0,0,.07,1.32c-.57,0-1.26-.06-2.13-.06h-8c-.87,0-1.55,0-2.12.06A9.18,9.18,0,0,0,130.39,6V4.82a10.34,10.34,0,0,0-.08-1.36,15,15,0,0,0,2.15.09h8a15,15,0,0,0,2.15-.09,9.33,9.33,0,0,0-.07,1.36Zm-11.7,4.9H142V9.48h-11.2Zm0,2.41H142V11.85h-11.2Zm0,2.46H142V14.27h-11.2Zm.74-11.23V6.31h9.75V4.55Zm7.86,12.26a14.16,14.16,0,0,0,5.62,2.25,4,4,0,0,0-.81,1.05,15.41,15.41,0,0,1-5.71-2.56Z"/><path class="cls-4" d="M157.12,7.44V5.61a11.94,11.94,0,0,0-.06-1.91h1.47a12.24,12.24,0,0,0-.08,1.76v2h1.63a14.24,14.24,0,0,0,2.2-.11V8.76a16.51,16.51,0,0,0-2.18-.09h-1.66c0,3.82-.23,5-.93,6.39a8,8,0,0,1-3.07,3.11,13.16,13.16,0,0,1-2.19,1,3.54,3.54,0,0,0-.85-1.19A8.38,8.38,0,0,0,155,16.1c1.32-1.19,1.85-2.44,2-4.72,0-.6.06-1.19.08-2.71h-5.74v3.15a9.67,9.67,0,0,0,.08,1.52h-1.53a10.06,10.06,0,0,0,.08-1.58V8.67H148.4a16.76,16.76,0,0,0-2.19.09V7.33a14.39,14.39,0,0,0,2.21.11H150V5.27a10.22,10.22,0,0,0-.08-1.58h1.53a7.6,7.6,0,0,0-.08,1.52V7.44Z"/><path class="cls-4" d="M169,10.14a2.46,2.46,0,0,0-.11.32l-.11.37-.1.42a16.76,16.76,0,0,1-3.3,6.51,4.25,4.25,0,0,0-1.24-.82,12,12,0,0,0,2.77-4.63,9.65,9.65,0,0,0,.66-2.57Zm2.64-4.62a8.2,8.2,0,0,0-.11-1.93h1.55a10.22,10.22,0,0,0-.1,2V6.78h4.76a12.82,12.82,0,0,0,2.2-.11V8.1A14.16,14.16,0,0,0,177.75,8H173V17.4a10.8,10.8,0,0,0,.1,2h-1.55a10.24,10.24,0,0,0,.11-2V8H167a14.31,14.31,0,0,0-2.17.09V6.67a12.76,12.76,0,0,0,2.19.11h4.6Zm5.3,4.24a14.69,14.69,0,0,0,.7,2.13,16.64,16.64,0,0,0,2.93,5.05,4.21,4.21,0,0,0-1.19.89,22.44,22.44,0,0,1-3.28-6.49,11.55,11.55,0,0,0-.48-1.22Zm4.21-5.58A2.14,2.14,0,1,1,179,2.05,2.11,2.11,0,0,1,181.13,4.18Zm-3.49,0A1.35,1.35,0,1,0,179,2.84,1.35,1.35,0,0,0,177.64,4.18Z"/><path class="cls-4" d="M181.88,10.51a7.09,7.09,0,0,0,1.75.12h8.22a7.9,7.9,0,0,0,1.71-.1v1.53a11.34,11.34,0,0,0-1.72-.08h-8.21a10.88,10.88,0,0,0-1.75.08Z"/><path class="cls-4" d="M197,19.11a11.7,11.7,0,0,0,.11-2V5.42A10.74,10.74,0,0,0,197,3.5h1.62a12.59,12.59,0,0,0-.09,2V9a46,46,0,0,1,8.39,4l-.81,1.39a38.34,38.34,0,0,0-7-3.73,2.26,2.26,0,0,1-.59-.32h0a6.33,6.33,0,0,1,.08,1.12v5.67a13.63,13.63,0,0,0,.09,2Z"/></svg>