<svg xmlns="http://www.w3.org/2000/svg" viewBox="0 0 168 21" width="168" height="21"><defs><style>.cls-1{opacity:0;}.cls-2{opacity:0.7;}.cls-3{fill:#008cd7;}.cls-4{fill:#fff;}.cls-5{fill:#35318f;}</style></defs><g id="showtalk-widget-banner-minimized-icon_画像" data-name="showtalk-widget-banner-minimized-icon 画像"><rect class="cls-3" x="15.13" y="0.76" width="1.93" height="19.5"/><polygon class="cls-3" points="45.81 0.76 43.88 0.76 43.88 20.26 54.12 20.26 54.12 18.41 45.81 18.41 45.81 0.76"/><polygon class="cls-3" points="104.04 2.61 104.04 0.76 93.8 0.76 93.8 20.26 104.04 20.26 104.04 18.41 95.72 18.41 95.72 11.37 104.04 11.37 104.04 9.51 95.72 9.51 95.72 2.61 104.04 2.61"/><path class="cls-3" d="M9.21,9.8a5.12,5.12,0,0,0-3.29-9H0v19.5H6.61A5.55,5.55,0,0,0,9.21,9.8ZM5.92,9.14H2V2.61h4a3.27,3.27,0,0,1,0,6.53ZM6.61,11a3.71,3.71,0,0,1,0,7.41H2V11Z"/><path class="cls-3" d="M87.88,9.8a5.12,5.12,0,0,0-3.29-9H78.71v19.5h6.57A5.55,5.55,0,0,0,87.88,9.8Zm-3.29-.66h-4V2.61h4a3.27,3.27,0,1,1,0,6.53ZM85.28,11a3.71,3.71,0,0,1,0,7.41H80.64V11Z"/><path class="cls-3" d="M75.25,10.5A10.08,10.08,0,1,1,65.17.42,10.08,10.08,0,0,1,75.25,10.5"/><path class="cls-4" d="M70.63,4.72a2,2,0,1,1-2-2,2,2,0,0,1,2,2"/><path class="cls-5" d="M69.67,4.72a1.07,1.07,0,1,1-1.06-1.06,1.06,1.06,0,0,1,1.06,1.06"/><path class="cls-4" d="M63.61,4.72a2,2,0,1,1-2-2,2,2,0,0,1,2,2"/><path class="cls-5" d="M62.65,4.72a1.07,1.07,0,1,1-1.07-1.06,1.07,1.07,0,0,1,1.07,1.06"/><path class="cls-3" d="M30.21,11.12V13h8.08a8.23,8.23,0,1,1-.83-6.74h2.13a10.08,10.08,0,1,0,.93,4.89Z"/><path class="cls-5" d="M120.76,10.21h-3.12a9.47,9.47,0,0,1-1.69,6,9.43,9.43,0,0,1-4.62,3.06l-.57-1.07a7.94,7.94,0,0,0,4.08-2.89,9.47,9.47,0,0,0,1.3-5.12H111V9.05h7.8V2.26h1.53V9.05h7.92v1.16h-6v6.6a1.22,1.22,0,0,0,.1.49.77.77,0,0,0,.31.31,2.34,2.34,0,0,0,.94.14h.78a4.21,4.21,0,0,0,1.77-.21.93.93,0,0,0,.4-.57,17.4,17.4,0,0,0,.16-2.33l1.28.14v2.53a1.47,1.47,0,0,1-.32,1,1.71,1.71,0,0,1-.84.56,10.92,10.92,0,0,1-2.36.16L123.14,19a11.52,11.52,0,0,1-1.28-.1,1.33,1.33,0,0,1-.52-.26,1.45,1.45,0,0,1-.43-.55,1.86,1.86,0,0,1-.15-.77Zm-6.2-2.07a43,43,0,0,0-2-4.38L114,3.23c.48,1.06,1.17,2.5,2.05,4.34Zm9.71,0L123,7.75c.26-.42.67-1.16,1.24-2.23s.92-1.82,1.09-2.23l1.52.47c-.22.47-.65,1.26-1.3,2.37A18.42,18.42,0,0,1,124.27,8.18Z"/><path class="cls-5" d="M145.54,18.08H132v1h-1.4v-16H147V19h-1.44ZM132,16.94h13.54V4.21H132Zm2.88-2.76V6.93h7.58v7.25ZM141,8h-4.67v5H141Z"/><path class="cls-5" d="M150.06,17.8,149,17.54a24.13,24.13,0,0,0,.92-4.67l1.27.09c-.11.79-.28,1.69-.51,2.68A16.81,16.81,0,0,1,150.06,17.8Zm2.12,1.5V11.37l-2.86.23-.18-1.18,1,0q.72-.88,1.71-2.25c-.31-.31-1.2-1.18-2.66-2.59l.83-.84.35.34a18.21,18.21,0,0,0,1.76-3l1.27.45a35.1,35.1,0,0,1-2.21,3.34l1.35,1.35a26.9,26.9,0,0,0,1.94-3.13l1.29.54a54.54,54.54,0,0,1-4.21,5.74c1.35-.05,2.44-.12,3.28-.18l-.43-1.42,1.14-.31c.37,1.13.67,2.16.93,3.08l-1.17.31c0-.12-.08-.35-.18-.7-.49.06-1,.11-1.61.15v8ZM155,16.13q-.24-1.2-.51-3.24l1.11-.17c.13.82.3,1.9.53,3.23Zm1.09,2.66-.71-.83a8.38,8.38,0,0,0,2.44-2.49,7.27,7.27,0,0,0,1.09-2.75h-2.09v-1h3.31l.31.3A9,9,0,0,1,159,15.92,8.13,8.13,0,0,1,156.06,18.79Zm5,.39h-1.92L159,17.94h1.42c.48,0,.71-.21.71-.63V10.15h-3.86V3.41h3.32l.54-1.61,1.44.29-.65,1.32h4.62v6.74H162.6v1a10.54,10.54,0,0,0,1.18,2.31,21.45,21.45,0,0,0,2.84-2.29l1,.85a24.48,24.48,0,0,1-3.23,2.31A16.08,16.08,0,0,0,168,17.78l-.92,1a14.26,14.26,0,0,1-4.44-5.33V17.8a1.25,1.25,0,0,1-.45,1A1.58,1.58,0,0,1,161.06,19.18ZM158.59,6.31h6.57V4.48h-6.57Zm6.57,1h-6.57v1.8h6.57Z"/></g></svg>