<svg xmlns="http://www.w3.org/2000/svg" viewBox="0 0 179 21" width="179" height="21"><defs><style>.cls-1{opacity:0;}.cls-2{opacity:0.7;}.cls-3{fill:#35318f;}.cls-4{fill:#008cd7;}.cls-5{fill:#fff;}</style></defs><g id="showtalk-widget-banner-minimized-icon_画像" data-name="showtalk-widget-banner-minimized-icon 画像"><rect class="cls-3" x="158.15" y="8.96" width="1.49" height="11.36"/><rect class="cls-3" x="158.15" y="4.84" width="1.49" height="2.33"/><rect class="cls-3" x="162.86" y="4.84" width="1.49" height="15.48"/><path class="cls-3" d="M134.89,8.71a5.93,5.93,0,1,0,5.93,5.93A5.94,5.94,0,0,0,134.89,8.71Zm4.48,5.93a4.48,4.48,0,1,1-4.48-4.48A4.49,4.49,0,0,1,139.37,14.64Z"/><path class="cls-3" d="M149.51,8.71a5.89,5.89,0,0,0-4.48,2V4.84h-1.49V20.32H145v-1.8a5.93,5.93,0,1,0,4.48-9.81ZM154,14.64a4.48,4.48,0,0,1-9,0v0a4.48,4.48,0,0,1,9,0Z"/><path class="cls-3" d="M124.94,20.32h1.49V13.19A4.49,4.49,0,0,0,122,8.71a4.43,4.43,0,0,0-3.74,2,4.43,4.43,0,0,0-3.73-2,4.5,4.5,0,0,0-3,1.15V9H110V20.32h1.49V13.19a3,3,0,0,1,6,0v7.13H119V13.19a3,3,0,1,1,6,0Z"/><path class="cls-3" d="M176.89,16.83a4.46,4.46,0,0,1-8.33-1.67h10.35a4.41,4.41,0,0,0,0-.52,6,6,0,1,0-.43,2.19ZM173,10.16a4.49,4.49,0,0,1,4.37,3.51h-8.74A4.48,4.48,0,0,1,173,10.16Z"/><rect class="cls-4" x="15.13" y="0.77" width="1.92" height="19.48"/><polygon class="cls-4" points="45.78 0.77 43.85 0.77 43.85 20.25 54.08 20.25 54.08 18.4 45.78 18.4 45.78 0.77"/><polygon class="cls-4" points="103.94 2.62 103.94 0.77 93.72 0.77 93.72 20.25 103.94 20.25 103.94 18.4 95.64 18.4 95.64 11.36 103.94 11.36 103.94 9.51 95.64 9.51 95.64 2.62 103.94 2.62"/><path class="cls-4" d="M9.22,9.8a5.11,5.11,0,0,0-3.28-9H.06V20.25H6.62A5.54,5.54,0,0,0,9.22,9.8ZM5.94,9.15H2V2.62h4a3.27,3.27,0,0,1,0,6.53ZM6.62,11a3.7,3.7,0,1,1,0,7.4H2V11Z"/><path class="cls-4" d="M87.8,9.8a5.11,5.11,0,0,0-3.28-9H78.64V20.25H85.2A5.54,5.54,0,0,0,87.8,9.8Zm-3.28-.65h-4V2.62h4a3.27,3.27,0,0,1,0,6.53ZM85.2,11a3.7,3.7,0,1,1,0,7.4H80.57V11Z"/><path class="cls-4" d="M75.19,10.5A10.07,10.07,0,1,1,65.12.43,10.07,10.07,0,0,1,75.19,10.5"/><path class="cls-5" d="M70.57,4.73a2,2,0,1,1-2-2,2,2,0,0,1,2,2"/><path class="cls-3" d="M69.62,4.73a1.07,1.07,0,1,1-1.07-1.07,1.07,1.07,0,0,1,1.07,1.07"/><path class="cls-5" d="M63.56,4.73a2,2,0,1,1-2-2,2,2,0,0,1,2,2"/><path class="cls-3" d="M62.6,4.73a1.07,1.07,0,1,1-1.06-1.07A1.06,1.06,0,0,1,62.6,4.73"/><path class="cls-4" d="M30.2,11.11V13h8.07a8.22,8.22,0,1,1-.83-6.73h2.13a10.07,10.07,0,1,0,.93,4.87Z"/></g></svg>