<svg xmlns="http://www.w3.org/2000/svg" viewBox="0 0 213 21" width="213" height="21"><defs><style>.cls-1{opacity:0;}.cls-2{opacity:0.7;}.cls-3{fill:#008cd7;}.cls-4{fill:#fff;}.cls-5{fill:#35318f;}</style></defs><g id="showtalk-widget-banner-minimized-icon_画像" data-name="showtalk-widget-banner-minimized-icon 画像"><rect class="cls-3" x="15.71" y="0.76" width="1.93" height="19.5"/><polygon class="cls-3" points="46.39 0.76 44.46 0.76 44.46 20.26 54.7 20.26 54.7 18.41 46.39 18.41 46.39 0.76"/><polygon class="cls-3" points="104.62 2.61 104.62 0.76 94.38 0.76 94.38 20.26 104.62 20.26 104.62 18.41 96.31 18.41 96.31 11.37 104.62 11.37 104.62 9.51 96.31 9.51 96.31 2.61 104.62 2.61"/><path class="cls-3" d="M9.79,9.8A5.12,5.12,0,0,0,6.5.76H.62v19.5H7.19A5.55,5.55,0,0,0,9.79,9.8ZM6.5,9.14H2.55V2.61h4a3.27,3.27,0,1,1,0,6.53ZM7.19,11a3.71,3.71,0,0,1,0,7.41H2.55V11Z"/><path class="cls-3" d="M88.46,9.8a5.12,5.12,0,0,0-3.29-9H79.29v19.5h6.57A5.55,5.55,0,0,0,88.46,9.8Zm-3.29-.66h-4V2.61h4a3.27,3.27,0,1,1,0,6.53ZM85.86,11a3.71,3.71,0,0,1,0,7.41H81.22V11Z"/><path class="cls-3" d="M75.83,10.5A10.08,10.08,0,1,1,65.75.42,10.08,10.08,0,0,1,75.83,10.5"/><path class="cls-4" d="M71.21,4.72a2,2,0,1,1-2-2,2,2,0,0,1,2,2"/><path class="cls-5" d="M70.26,4.72a1.07,1.07,0,1,1-1.07-1.06,1.07,1.07,0,0,1,1.07,1.06"/><path class="cls-4" d="M64.19,4.72a2,2,0,1,1-2-2,2,2,0,0,1,2,2"/><path class="cls-5" d="M63.23,4.72a1.07,1.07,0,1,1-1.07-1.06,1.07,1.07,0,0,1,1.07,1.06"/><path class="cls-3" d="M30.79,11.12V13h8.08A8.23,8.23,0,1,1,38,6.23h2.13a10.08,10.08,0,1,0,.93,4.89Z"/><path class="cls-5" d="M130.21,5.21,126,20.26h-1.66l-3.44-12.5-3.41,12.5h-1.61l-4.27-15h1.91l3.3,12.08,3.27-12.08h1.75L125.1,17.4l3.29-12.19Z"/><path class="cls-5" d="M134.48,6.72h-2V4.89h2Zm-.11,13.54h-1.75V9h1.75Z"/><path class="cls-5" d="M151,20.26h-1.86V7.34l-4.34,8.83h-1l-4.35-8.83V20.26h-1.72v-15h2.37l4.27,8.66,4.25-8.66H151Z"/><path class="cls-5" d="M164.62,20.26,163.07,16h-6.53L155,20.26H153.1l5.57-15H161l5.57,15.05Zm-2.11-5.84L159.8,7l-2.69,7.42Z"/><path class="cls-5" d="M180.69,5.21l-5.23,7.44,5.22,7.61h-2.17L174.33,14l-4.28,6.3h-2l5.28-7.52-5.16-7.53h2.16l4.12,6.22,4.23-6.22Z"/><path class="cls-5" d="M198,20.26H188V18.32q1.6-1.38,3.59-3.21a20.87,20.87,0,0,0,3-3.22,4.84,4.84,0,0,0,1-2.77,2.39,2.39,0,0,0-.81-1.92,3.3,3.3,0,0,0-2.21-.69,7.24,7.24,0,0,0-4,1.3h-.1V5.86a9.64,9.64,0,0,1,4.18-1A5.39,5.39,0,0,1,196.1,6a3.72,3.72,0,0,1,1.31,3,5.73,5.73,0,0,1-.33,1.94A6.21,6.21,0,0,1,196,12.77a22.48,22.48,0,0,1-1.69,1.87q-1,1-4.55,4H198Z"/><path class="cls-5" d="M212.21,14.42H206.7v5.5h-1.54v-5.5h-5.5V12.94h5.5V7.44h1.54v5.5h5.51Z"/></g></svg>