<svg xmlns="http://www.w3.org/2000/svg" viewBox="0 0 105.34 21" width="105.34" height="21"><defs><style>.cls-1{opacity:0;}.cls-2{opacity:0.7;}.cls-3{fill:#008cd7;}.cls-4{fill:#fff;}.cls-5{fill:#35318f;}</style></defs><g id="showtalk-widget-banner-minimized-icon_画像" data-name="showtalk-widget-banner-minimized-icon 画像"><rect class="cls-3" x="15.71" y="0.76" width="1.93" height="19.5"/><polygon class="cls-3" points="46.39 0.76 44.46 0.76 44.46 20.26 54.7 20.26 54.7 18.41 46.39 18.41 46.39 0.76"/><polygon class="cls-3" points="104.62 2.61 104.62 0.76 94.38 0.76 94.38 20.26 104.62 20.26 104.62 18.41 96.31 18.41 96.31 11.37 104.62 11.37 104.62 9.51 96.31 9.51 96.31 2.61 104.62 2.61"/><path class="cls-3" d="M9.79,9.8A5.12,5.12,0,0,0,6.5.76H.62v19.5H7.19A5.55,5.55,0,0,0,9.79,9.8ZM6.5,9.14H2.55V2.61h4a3.27,3.27,0,1,1,0,6.53ZM7.19,11a3.71,3.71,0,0,1,0,7.41H2.55V11Z"/><path class="cls-3" d="M88.46,9.8a5.12,5.12,0,0,0-3.29-9H79.29v19.5h6.57A5.55,5.55,0,0,0,88.46,9.8Zm-3.29-.66h-4V2.61h4a3.27,3.27,0,1,1,0,6.53ZM85.86,11a3.71,3.71,0,0,1,0,7.41H81.22V11Z"/><path class="cls-3" d="M75.83,10.5A10.08,10.08,0,1,1,65.75.42,10.08,10.08,0,0,1,75.83,10.5"/><path class="cls-4" d="M71.21,4.72a2,2,0,1,1-2-2,2,2,0,0,1,2,2"/><path class="cls-5" d="M70.26,4.72a1.07,1.07,0,1,1-1.07-1.06,1.07,1.07,0,0,1,1.07,1.06"/><path class="cls-4" d="M64.19,4.72a2,2,0,1,1-2-2,2,2,0,0,1,2,2"/><path class="cls-5" d="M63.23,4.72a1.07,1.07,0,1,1-1.07-1.06,1.07,1.07,0,0,1,1.07,1.06"/><path class="cls-3" d="M30.79,11.12V13h8.08A8.23,8.23,0,1,1,38,6.23h2.13a10.08,10.08,0,1,0,.93,4.89Z"/></g></svg>