<svg xmlns="http://www.w3.org/2000/svg" viewBox="0 0 9.28 15.47"><defs><style>.a{fill:#3176d5;}</style></defs><title> menu-icon</title><path class="a" d="M9.28,7.71a.64.64,0,0,0-.64-.64c-2,0-3.13-4.83-3.36-6.52v0a.62.62,0,0,0,0-.12A.62.62,0,0,0,5.17.29L5.09.19,5,.12,4.88.06,4.77,0H4.51L4.4.06,4.28.12,4.2.19l-.09.1a.62.62,0,0,0-.05.1A.62.62,0,0,0,4,.51v0C3.77,2.24,2.64,7.07.64,7.07A.64.64,0,0,0,0,7.71v0a.64.64,0,0,0,.64.64c2,0,3.13,4.83,3.36,6.52v0a.61.61,0,0,0,0,.1.62.62,0,0,0,.06.12l.06.08.1.09.09.05.13,0,.06,0h.18l.06,0,.13,0L5,15.34l.1-.09.06-.08a.63.63,0,0,0,.06-.12.62.62,0,0,0,0-.1v0C5.51,13.22,6.64,8.4,8.64,8.4a.64.64,0,0,0,.64-.64v0ZM4.64,11.87A8.52,8.52,0,0,0,2.32,7.73,8.52,8.52,0,0,0,4.64,3.6,8.52,8.52,0,0,0,7,7.73,8.52,8.52,0,0,0,4.64,11.87Z"/></svg>