<?xml version="1.0" encoding="utf-8"?>
<!-- Generator: Adobe Illustrator 22.0.0, SVG Export Plug-In . SVG Version: 6.00 Build 0)  -->
<svg version="1.1" xmlns="http://www.w3.org/2000/svg" xmlns:xlink="http://www.w3.org/1999/xlink" x="0px"
	 y="0px" viewBox="0 0 6.9 11.7" style="enable-background:new 0 0 6.9 11.7;" xml:space="preserve">
<style type="text/css">
	.st0{fill:#FFFFFF; opacity: 0;}
</style>
<g>
	<path class="st0" d="M5.8,0H1.2C0.5,0,0,0.5,0,1.2v9.4c0,0.6,0.5,1.2,1.2,1.2h4.6c0.6,0,1.2-0.5,1.2-1.2V1.2C6.9,0.5,6.4,0,5.8,0z
		 M3.5,10.9c-0.3,0-0.5-0.2-0.5-0.5C3,10.2,3.2,10,3.5,10c0.3,0,0.5,0.2,0.5,0.5C3.9,10.7,3.7,10.9,3.5,10.9z M6,9.4H0.9V1.1H6V9.4z
		"/>
</g>
</svg>
