<?xml version="1.0" encoding="utf-8"?>
<!-- Generator: Adobe Illustrator 22.0.0, SVG Export Plug-In . SVG Version: 6.00 Build 0)  -->
<svg version="1.1" xmlns="http://www.w3.org/2000/svg" xmlns:xlink="http://www.w3.org/1999/xlink" x="0px"
	 y="0px" viewBox="0 0 15.3 11.7" style="enable-background:new 0 0 15.3 11.7;" xml:space="preserve">
<style type="text/css">
	.st0{fill:#FFFFFF;}
</style>
<path class="st0" d="M6.6,0H0.3C0.1,0,0,0.1,0,0.3v11.1c0,0.2,0.1,0.3,0.3,0.3h6.3c0.2,0,0.3-0.1,0.3-0.3V0.3C6.9,0.1,6.8,0,6.6,0z
	 M5.7,9H1.2V1.2h4.5V9z M4.7,10.6H2.2V10h2.6V10.6z M14.7,1.4h-3.5L10,2.7v2.3c0,0.3,0.3,0.6,0.6,0.6h4.1c0.3,0,0.6-0.3,0.6-0.6V2
	C15.3,1.7,15,1.4,14.7,1.4z M8.9,2.1v2.7L7.7,3.5L8.9,2.1z"/>
</svg>
