<svg xmlns="http://www.w3.org/2000/svg" viewBox="0 0 16 11.39"><defs><style>.cls-1{opacity:0;}.cls-2{opacity:0.7;}.cls-3{fill:#1aa3eb;}</style></defs><g id="showtalk-widget-banner-minimized-icon_画像" data-name="showtalk-widget-banner-minimized-icon 画像"><path class="cls-3" d="M16,3.78a.66.66,0,0,0-.12-.38L13.42.28A.66.66,0,0,0,12.89,0a.87.87,0,0,0-.58.25L11.63,1a.53.53,0,0,1-.31.1c-.1,0-.23,0-.4,0S10.26,1,9.76,1a3.82,3.82,0,0,0-1.32.2,2.25,2.25,0,0,0-.3.16l-.07,0-.16-.05A3.8,3.8,0,0,0,6.56,1c-.52,0-1,.06-1.19.07h0c-.18,0-.32,0-.42,0a.69.69,0,0,1-.2,0A.82.82,0,0,1,4.49.91L4.4.85,4,.4A1,1,0,0,0,3.26.11.78.78,0,0,0,2.6.42L.16,3.54A.78.78,0,0,0,0,4a.9.9,0,0,0,.28.64h0L4.62,8.82h0A.8.8,0,0,0,4.81,9l.48.49,0,0,0,0,1.6,1.59a1.05,1.05,0,0,0,.75.31,1,1,0,0,0,.93-.58,1.16,1.16,0,0,0,.42.08,1.1,1.1,0,0,0,.8-.34h0l0,0a1.21,1.21,0,0,0,.26-.43,1.34,1.34,0,0,0,.39.07,1.15,1.15,0,0,0,.81-.33h0l0,0a1.06,1.06,0,0,0,.29-.5h.14A1.12,1.12,0,0,0,12.59,9h0l0,0A1.15,1.15,0,0,0,13,8.13a1.12,1.12,0,0,0-.31-.78l3.11-3A.71.71,0,0,0,16,3.78ZM6.72,5.28l0,0,.54-.51h0l.92-.88L8.34,4a.34.34,0,0,0,.09.18l.34.33.05.07.09.07h0l1.22,1.22,0,0,1.64,1.64.15.16.14.13h0v0a.39.39,0,0,1,.1.25.39.39,0,0,1-.11.27h0l0,0h0a.38.38,0,0,1-.26.11.4.4,0,0,1-.27-.11h0l-.13-.13-.15-.16L10,6.91a.37.37,0,0,0-.53.53l1.23,1.24.15.15L11,9V9a.43.43,0,0,1-.1.23h0l0,0a.35.35,0,0,1-.27.11h0a.38.38,0,0,1-.24-.11h0l-.16-.16-.85-.85h0L8.86,7.9a.37.37,0,1,0-.53.53l.4.4L8.88,9,9,9.14l.2.19h0l.11.1h0l.07.1a.32.32,0,0,1,0,.16v0a.54.54,0,0,1-.11.23h0l0,0a.38.38,0,0,1-.27.11A.38.38,0,0,1,8.76,10l-.31-.3h0l-.14-.14h0l-.14-.14h0l-.76-.76-.06,0a.39.39,0,0,0-.23-.07.38.38,0,0,0-.35.35.43.43,0,0,0,.06.22l0,0,0,0,.75.75.15.16.16.15,0,0,0,.1a.22.22,0,0,1-.07.17.3.3,0,0,1-.21.09.31.31,0,0,1-.22-.09l-.07-.07-.21-.22-.72-.71-.21-.22-.39-.39,0,0,0,0-.47-.47-.1-.07-.09-.07h0L.8,4.12.75,4h0L3.19.88h0l.07,0,.16.07L4,1.49l.13.08a1.45,1.45,0,0,0,.36.23A1.26,1.26,0,0,0,5,1.89l.45,0h0c.27,0,.69-.07,1.16-.07a3.25,3.25,0,0,1,.77.09l.15,0-.85.8h0L5.39,3.88h0a.9.9,0,0,0-.24.42h0a1.26,1.26,0,0,0,0,.28.91.91,0,0,0,.06.32h0a.89.89,0,0,0,.22.35.88.88,0,0,0,.31.18,1,1,0,0,0,.42.06A1.16,1.16,0,0,0,6.72,5.28Z"/><polygon class="cls-3" points="12.63 8.94 12.63 8.94 12.63 8.94 12.63 8.94"/><polygon class="cls-3" points="11.38 9.79 11.37 9.79 11.37 9.79 11.38 9.79"/><polygon class="cls-3" points="9.88 10.52 9.88 10.52 9.88 10.52 9.88 10.52"/></g></svg>