<svg xmlns="http://www.w3.org/2000/svg" viewBox="0 0 17.59 17.37"><defs><style>.a{fill:#3176d5;}</style></defs><title> menu-icon</title><path class="a" d="M8.79,17.37A8.75,8.75,0,0,1,0,8.69,8.75,8.75,0,0,1,8.79,0a8.75,8.75,0,0,1,8.79,8.69A8.75,8.75,0,0,1,8.79,17.37Zm0-15.78a7.16,7.16,0,0,0-7.21,7.1,7.16,7.16,0,0,0,7.21,7.1A7.16,7.16,0,0,0,16,8.69,7.16,7.16,0,0,0,8.79,1.59Z"/><path class="a" d="M12.37,8.27,6.86,5.13a.42.42,0,0,0-.63.36v6.27a.42.42,0,0,0,.63.36L12.37,9A.42.42,0,0,0,12.37,8.27Z"/></svg>