<svg xmlns="http://www.w3.org/2000/svg" viewBox="0 0 15.29 11.69"><defs><style>.a{fill:#ffffff;}</style></defs><title> menu-icon</title><path class="a" d="M7.58,2.83a1,1,0,0,0-1.73,0L2.56,8.52l0,.08H.64a.64.64,0,0,0-.56,1l1,1.8a.64.64,0,0,0,1.11,0l.82-1.42a1,1,0,0,0,.37.08H10a1,1,0,0,0,.87-1.5Z"/><path class="a" d="M10.29,3a.6.6,0,0,0,.51-.28L11.92.92a.6.6,0,0,0-1-.65L9.78,2a.6.6,0,0,0,.51.92Z"/><path class="a" d="M14,2.94a.6.6,0,0,0-.92-.51L11.34,3.55a.6.6,0,1,0,.64,1l1.76-1.12A.6.6,0,0,0,14,2.94Z"/><path class="a" d="M15.28,5.67a.6.6,0,0,0-.67-.52l-2.07.27A.6.6,0,0,0,12,6a.53.53,0,0,0,0,.08.6.6,0,0,0,.59.52h.08l2.07-.27a.6.6,0,0,0,.52-.59A.61.61,0,0,0,15.28,5.67Z"/></svg>