<svg id="design" xmlns="http://www.w3.org/2000/svg" viewBox="0 0 334 88">
  <defs>
    <style>
      .cls-1 {
        fill: #313131;
      }

      .cls-2 {
        fill: #fff;
      }

      .cls-3 {
        fill: none;
      }
    </style>
  </defs>
  <g>
    <path class="cls-1" d="M88.5,88H2.5a2.006,2.006,0,0,1-2-2V65a2.006,2.006,0,0,1,2-2h86a2.006,2.006,0,0,1,2,2V86A2.006,2.006,0,0,1,88.5,88Z"/>
    <g>
      <path class="cls-2" d="M16.5,74.5v-.9h4.6V71.5H17.8a16.512,16.512,0,0,1-2.6,3.2A5.531,5.531,0,0,0,14,73.3a9.481,9.481,0,0,0,3.1-4,8.4,8.4,0,0,0,.4-1.2l1.9.4a2.567,2.567,0,0,0-.2.5l-.5,1h7.5a6.66,6.66,0,0,0,1.6-.1v1.7a7.589,7.589,0,0,0-1.6-.1H22.9v2.1h2.6a7.115,7.115,0,0,0,1.6-.1v1.7c-.5,0-.9-.1-1.6-.1H22.9v2.6h3.6a8.622,8.622,0,0,0,1.7-.1v1.8a9.15,9.15,0,0,0-1.7-.1H22.8v2a8.116,8.116,0,0,0,.1,1.7h-2a8.116,8.116,0,0,0,.1-1.7v-2H15.6a8.622,8.622,0,0,0-1.7.1V77.6a8.622,8.622,0,0,0,1.7.1h.9Zm4.6,3.2V75.1H18.2v2.6Z"/>
      <path class="cls-2" d="M36.1,70a8.116,8.116,0,0,0-.1-1.7h2a8.116,8.116,0,0,0-.1,1.7v1h4.4a6.622,6.622,0,0,0,1.5-.1c0,.4-.1.8-.1,1.4v4.9a7.589,7.589,0,0,0,.1,1.6H41.9v-1h-4V81a10.933,10.933,0,0,0,.1,2H36a11.518,11.518,0,0,0,.1-2V77.8H32.3v1H30.5a7.589,7.589,0,0,0,.1-1.6V72.3a6.15,6.15,0,0,0-.1-1.4c.5,0,.8.1,1.4.1h4.2Zm-3.8,2.6v3.5h3.8V72.6Zm9.6,3.5V72.6h-4v3.5Z"/>
      <path class="cls-2" d="M48.2,71.9c-.4.4-.7.6-1.3,1.1a6.788,6.788,0,0,0-1.2-1.2,9.6,9.6,0,0,0,3-3.1c.1-.3.3-.5.3-.8l1.9.4-.3.6c-.2.3-.3.5-.5.8h7.8a10.365,10.365,0,0,0,2-.1v1.8c-.5,0-.8-.1-1.6-.1v2.1h.6a7.115,7.115,0,0,0,1.6-.1v1.8a8.116,8.116,0,0,0-1.7-.1h-.6v2.1h.3A5.758,5.758,0,0,0,60,77v1.8a6.181,6.181,0,0,0-1.5-.1H47.7a5.721,5.721,0,0,0-1.4.1V77a6.66,6.66,0,0,0,1.6.1h.4V75h-.8a7.589,7.589,0,0,0-1.6.1V73.3a7.115,7.115,0,0,0,1.6.1h.7Zm-2.3,10a7.912,7.912,0,0,0,2-3l1.5.7A11.511,11.511,0,0,1,47.3,83Zm3.9-8.5h1.3V71.3H49.8Zm0,3.7h1.3V75H49.8Zm.7,5.8v-.7c0-.6-.1-2-.2-2.8l1.6-.2a15.038,15.038,0,0,1,.4,3.5Zm3.3-9.5V71.3H52.5v2.1Zm0,3.7V75H52.5v2.1Zm.4,5.8a12.092,12.092,0,0,0-.8-3.4l1.6-.4a20.246,20.246,0,0,1,.9,3.3Zm2.4-9.5V71.3H55.2v2.1Zm0,3.7V75H55.2v2.1Zm2.2,5.8a18.623,18.623,0,0,0-1.9-3.3l1.4-.7A21.123,21.123,0,0,1,60.4,82Z"/>
      <path class="cls-2" d="M65.1,81.1a11.483,11.483,0,0,0,.1,1.9H63.3a10.889,10.889,0,0,0,.1-1.9V74.8a7.487,7.487,0,0,1-1.3,1.8,11.764,11.764,0,0,0-.7-2,15.072,15.072,0,0,0,2.5-3.7,9.025,9.025,0,0,0,.9-2.8l1.8.5a5.638,5.638,0,0,0-.4,1.2,15.634,15.634,0,0,1-1.1,2.6v6.8a15.146,15.146,0,0,0,4.3-6.1H67.6a9.15,9.15,0,0,0-1.7.1V71.3c.5,0,1.1.1,1.7.1H70V69.9a9.151,9.151,0,0,0-.1-1.6h1.9a8.083,8.083,0,0,0-.1,1.6v1.5h3a10.283,10.283,0,0,0,1.8-.1v1.9a9.722,9.722,0,0,0-1.8-.1H72.2A12.168,12.168,0,0,0,74,76.3a13.286,13.286,0,0,0,2.9,2.9,10.382,10.382,0,0,0-1.2,1.7,12.642,12.642,0,0,1-2-2.1,15.257,15.257,0,0,1-2.1-3.7v6.1a10.283,10.283,0,0,0,.1,1.8H69.8a10.283,10.283,0,0,0,.1-1.8V75.3a15.025,15.025,0,0,1-3.8,5.6,6.472,6.472,0,0,0-1-1.5Z"/>
    </g>
  </g>
  <g>
    <path class="cls-1" d="M12.9.3A11.937,11.937,0,0,0,4.4,3.6C1.9,5.8.5,9.1.5,13.2h0V32.4q0,6.15,3.9,9.6a12.2,12.2,0,0,0,8.5,3.4A12.5,12.5,0,0,0,21.6,42c2.4-2.2,3.7-5.5,3.8-9.6V13.3c-.1-4.1-1.3-7.4-3.8-9.6A12.5,12.5,0,0,0,12.9.3Zm5.5,13.4V32.1c-.1,4.1-1.9,6.1-5.4,6.2-3.6,0-5.3-2.1-5.4-6.2V13.7C7.7,9.6,9.4,7.6,13,7.5,16.5,7.6,18.3,9.6,18.4,13.7Z"/>
    <path class="cls-1" d="M43.1.7h-6a.367.367,0,0,0-.3.1l-6,4.5a.52.52,0,0,0-.2.4v6.6c0,.2.1.4.3.4a.446.446,0,0,0,.5,0l5.2-3.9V44.7a.472.472,0,0,0,.5.5h6a.472.472,0,0,0,.5-.5V1.2A.472.472,0,0,0,43.1.7Z"/>
    <path class="cls-1" d="M77.8,13.2A12.92,12.92,0,0,0,74.2,4,12.271,12.271,0,0,0,65,.3,11.347,11.347,0,0,0,56.5,4a14.174,14.174,0,0,0-3.7,9.3.6.6,0,0,0,.1.4.52.52,0,0,0,.4.2h6a.458.458,0,0,0,.5-.4A7.216,7.216,0,0,1,61.7,9a5.2,5.2,0,0,1,3.8-1.5,5.131,5.131,0,0,1,4,1.7,6.085,6.085,0,0,1,1.4,4,11.019,11.019,0,0,1-.2,1.8,6.912,6.912,0,0,1-1.2,2.2L52.9,38.5a.367.367,0,0,0-.1.3v5.8a.472.472,0,0,0,.5.5h24a.472.472,0,0,0,.5-.5V38.4a.472.472,0,0,0-.5-.5h-15L75.2,21.2A13.209,13.209,0,0,0,77.8,13.2Z"/>
    <path class="cls-1" d="M94.9.3a11.937,11.937,0,0,0-8.5,3.3c-2.5,2.2-3.9,5.5-3.9,9.6h0V32.4q0,6.15,3.9,9.6a12.2,12.2,0,0,0,8.5,3.4,12.5,12.5,0,0,0,8.7-3.4c2.4-2.2,3.7-5.5,3.8-9.6V13.3c-.1-4.1-1.3-7.4-3.8-9.6A12.5,12.5,0,0,0,94.9.3Zm5.4,13.4V32.1c-.1,4.1-1.9,6.1-5.4,6.2-3.6,0-5.3-2.1-5.4-6.2V13.7c.1-4.1,1.8-6.1,5.4-6.2C98.4,7.6,100.2,9.6,100.3,13.7Z"/>
    <path class="cls-1" d="M130.9,21.1H113.2a.472.472,0,0,0-.5.5v6.2a.472.472,0,0,0,.5.5h17.7a.472.472,0,0,0,.5-.5V21.6A.472.472,0,0,0,130.9,21.1Z"/>
    <path class="cls-1" d="M218.7,22a10.594,10.594,0,0,0-2.6-4.3,10.832,10.832,0,0,0-3.3-2.4,11.791,11.791,0,0,0-4.6-.9,10.347,10.347,0,0,0-6.2,1.9V7.9h16.3a.472.472,0,0,0,.5-.5V1.2a.472.472,0,0,0-.5-.5H195.9a.472.472,0,0,0-.5.5V24.7a.472.472,0,0,0,.5.5h5.7c.2,0,.4-.1.4-.3a7.339,7.339,0,0,1,2.2-2.6,5.3,5.3,0,0,1,2.8-.7,7.948,7.948,0,0,1,2.9.5,4.2,4.2,0,0,1,1.7,1.5,12.256,12.256,0,0,1,1.1,5.8c0,1,0,2-.1,3.1a13.565,13.565,0,0,1-.6,2.9,4.26,4.26,0,0,1-1.5,2,6.056,6.056,0,0,1-3.2.8c-3.1,0-4.9-1.6-5.6-4.7,0-.2-.3-.4-.5-.4h-6a.758.758,0,0,0-.4.2.6.6,0,0,0-.1.4c.6,4.1,2.2,7.1,4.7,9a13.373,13.373,0,0,0,8.1,2.7,10.582,10.582,0,0,0,5.7-1.6,11.89,11.89,0,0,0,3.7-3.2,10.4,10.4,0,0,0,2.1-4.2,27.894,27.894,0,0,0,.6-6.6c0-1.8-.1-3.4-.2-4.7A23.763,23.763,0,0,0,218.7,22Z"/>
    <path class="cls-1" d="M242.4,21.1H224.7a.472.472,0,0,0-.5.5v6.2a.472.472,0,0,0,.5.5h17.7a.472.472,0,0,0,.5-.5V21.6A.472.472,0,0,0,242.4,21.1Z"/>
    <path class="cls-1" d="M262.1.3a11.937,11.937,0,0,0-8.5,3.3c-2.5,2.2-3.9,5.5-3.9,9.6h0v4c0,4.3,1,7.5,3,9.5a9.757,9.757,0,0,0,7.3,3.1,25.992,25.992,0,0,0,7.5-1.2V32c-.1,4.1-1.9,6.1-5.4,6.2a4.832,4.832,0,0,1-5-3.3.55.55,0,0,0-.5-.3h-6.2a.52.52,0,0,0-.4.2.6.6,0,0,0-.1.4,11.9,11.9,0,0,0,4.4,7.5,12.326,12.326,0,0,0,7.8,2.7,12.5,12.5,0,0,0,8.7-3.4c2.4-2.2,3.7-5.5,3.8-9.6V13.3c-.1-4.1-1.3-7.4-3.8-9.6A12.5,12.5,0,0,0,262.1.3Zm-5.4,16.9V13.7c.1-4.1,1.8-6.1,5.4-6.2,3.6.1,5.3,2.1,5.5,6.2v3.5c-.1,4.1-1.9,6.1-5.4,6.2C258.6,23.3,256.8,21.3,256.7,17.2Z"/>
    <path class="cls-1" d="M147.9.3a11.937,11.937,0,0,0-8.5,3.3c-2.5,2.2-3.9,5.5-3.9,9.6h0v4c0,4.3,1,7.5,3,9.5a9.757,9.757,0,0,0,7.3,3.1,25.992,25.992,0,0,0,7.5-1.2V32c-.1,4.1-1.9,6.1-5.4,6.2a4.832,4.832,0,0,1-5-3.3.55.55,0,0,0-.5-.3h-6.2a.758.758,0,0,0-.4.2.6.6,0,0,0-.1.4,11.9,11.9,0,0,0,4.4,7.5,12.326,12.326,0,0,0,7.8,2.7,12.5,12.5,0,0,0,8.7-3.4c2.4-2.2,3.7-5.5,3.8-9.6V13.3c-.1-4.1-1.3-7.4-3.8-9.6A12.5,12.5,0,0,0,147.9.3Zm-5.4,16.9V13.7c.1-4.1,1.8-6.1,5.4-6.2,3.6.1,5.3,2.1,5.5,6.2v3.5c-.1,4.1-1.9,6.1-5.4,6.2C144.3,23.3,142.6,21.3,142.5,17.2Z"/>
    <path class="cls-1" d="M294,15.9a25.992,25.992,0,0,0-7.5,1.2V13.7c.1-4.1,1.8-6.1,5.4-6.2a5.036,5.036,0,0,1,5.1,3.3.55.55,0,0,0,.5.3h6.2a.758.758,0,0,0,.4-.2.6.6,0,0,0,.1-.4,12.558,12.558,0,0,0-4.3-7.7A12.916,12.916,0,0,0,292,.2a11.937,11.937,0,0,0-8.5,3.3,12.487,12.487,0,0,0-3.9,9.6h0V32.3q0,6.15,3.9,9.6a12.2,12.2,0,0,0,8.5,3.4,12.5,12.5,0,0,0,8.7-3.4c2.4-2.2,3.7-5.5,3.8-9.6v-4c0-4.3-.9-7.5-2.9-9.6A11.686,11.686,0,0,0,294,15.9Zm-7.5,16.2V28.6c.1-4.1,1.8-6.1,5.4-6.2,3.6.1,5.3,2.1,5.5,6.2v3.5c-.1,4.1-1.9,6.1-5.4,6.2C288.3,38.2,286.6,36.2,286.5,32.1Z"/>
    <path class="cls-1" d="M332.9,37.9H317.8l12.9-16.7a12.508,12.508,0,0,0,2.6-7.9,12.92,12.92,0,0,0-3.6-9.2A12.271,12.271,0,0,0,320.5.4,11.347,11.347,0,0,0,312,4.1a14.174,14.174,0,0,0-3.7,9.3.6.6,0,0,0,.1.4.52.52,0,0,0,.4.2h6a.458.458,0,0,0,.5-.4,6.4,6.4,0,0,1,1.9-4.3A5.2,5.2,0,0,1,321,7.8a5.131,5.131,0,0,1,4,1.7,6.085,6.085,0,0,1,1.4,4,11.019,11.019,0,0,1-.2,1.8,6.912,6.912,0,0,1-1.2,2.2L308.5,38.7a.367.367,0,0,0-.1.3v5.8a.472.472,0,0,0,.5.5h24a.472.472,0,0,0,.5-.5V38.6C333.4,38.1,333.2,37.9,332.9,37.9Z"/>
    <path class="cls-1" d="M186.2,22a15.889,15.889,0,0,0,2.8-3.6,10.521,10.521,0,0,0,1.2-5.2,12.744,12.744,0,0,0-3.6-9.3,12.133,12.133,0,0,0-9-3.7,11.909,11.909,0,0,0-8.9,3.7,13.056,13.056,0,0,0-3.7,9.4,10.143,10.143,0,0,0,1.3,5.1,15.938,15.938,0,0,0,2.7,3.7,12.04,12.04,0,0,0-4.9,9.9h0a13.319,13.319,0,0,0,13.4,13.6,13.129,13.129,0,0,0,9.5-3.8,12.731,12.731,0,0,0,3.9-9.8A11.432,11.432,0,0,0,186.2,22Zm-4.7-4.6a5.606,5.606,0,0,1-3.9,1.5,5.367,5.367,0,0,1-3.8-1.5,5.494,5.494,0,0,1-1.7-4.3,5.215,5.215,0,0,1,1.7-4.3,5.441,5.441,0,0,1,3.8-1.4,6.01,6.01,0,0,1,3.9,1.4,5.859,5.859,0,0,1,1.7,4.3A5.859,5.859,0,0,1,181.5,17.4Zm-8.3,9.8a6.039,6.039,0,0,1,4.4-1.8,6.105,6.105,0,0,1,4.5,1.8,6.518,6.518,0,0,1,0,9.2,5.826,5.826,0,0,1-4.5,1.9,5.762,5.762,0,0,1-4.4-1.9,5.894,5.894,0,0,1-1.9-4.6A5.58,5.58,0,0,1,173.2,27.2Z"/>
  </g>
  <rect class="cls-3" width="334" height="88"/>
  <path class="cls-1" d="M106.7,69.6a11.275,11.275,0,0,0-.8-2.4h2a79.368,79.368,0,0,0,8.9-.5,29.514,29.514,0,0,0,3.9-.8l1.6,2.3a6.374,6.374,0,0,1-.9.2c-.8.2-1.2.2-2.2.4l1.8.5c-.8,1.5-.8,1.5-1.1,2H121a10.982,10.982,0,0,0,2.1-.1c0,.5-.1,1-.1,1.8v1.5a8.083,8.083,0,0,0,.1,1.6h-2.6V73.7H108v1.1a11.518,11.518,0,0,0,2,.1h7.5a7.628,7.628,0,0,0,1.7-.1l1.5,1.8a12.5,12.5,0,0,0-.9,1,14.237,14.237,0,0,1-3.2,3,24.655,24.655,0,0,0,6.9,1.4,11.065,11.065,0,0,0-1.2,2.7,20.777,20.777,0,0,1-8.2-2.5,25.805,25.805,0,0,1-7.7,2.5,8.421,8.421,0,0,0-1.3-2.5,25.536,25.536,0,0,0,6.6-1.6,12.171,12.171,0,0,1-2.6-2.5l2.2-1a17.782,17.782,0,0,0,2.8,2.3,9.734,9.734,0,0,0,2.7-2.3H110a14.769,14.769,0,0,0-2.1.1V76.1h-2.5a8.083,8.083,0,0,0,.1-1.6V73a12.134,12.134,0,0,0-.1-1.8,12.167,12.167,0,0,0,2.1.1h1.2a9.819,9.819,0,0,0-.8-1.8h-1.2Zm3.9-.1c.3.7.6,1.3.8,1.9h1.9a15.872,15.872,0,0,0-.7-2h-.1Zm6.5,1.9a11.176,11.176,0,0,0,1.1-2.5,5.384,5.384,0,0,0-1.1.1c-1,.1-1.7.2-2,.2.3.8.4,1.2.7,2.2Z"/>
  <path class="cls-1" d="M130.1,82.2a18.483,18.483,0,0,0,.1,2.4h-2.8a16.987,16.987,0,0,0,.1-2.4V74.5a17.344,17.344,0,0,1-1.5,2,10.468,10.468,0,0,0-1.2-2.9,15.984,15.984,0,0,0,3.6-5.3,7.181,7.181,0,0,0,.8-2.5l2.7.7c-.1.3-.3.7-.5,1.2-.2.6-.8,1.8-1.3,2.9Zm10.9-.4c0,1.1-.2,1.8-.7,2.1s-1.1.4-2.9.4a14.084,14.084,0,0,1-2-.1,8.981,8.981,0,0,0-.7-2.7c1.1.1,1.7.2,2.4.2,1.1,0,1.3-.1,1.3-.5V72.6h-5a20.083,20.083,0,0,0-2.5.1V70.1a16.987,16.987,0,0,0,2.4.1h5.1V68.7a18.521,18.521,0,0,0-.1-2.5h2.9a19.29,19.29,0,0,0-.1,2.5v1.5h.4a9.765,9.765,0,0,0,1.9-.1v2.6a10.317,10.317,0,0,0-1.9-.1H141Zm-7.2-8.1a21.345,21.345,0,0,1,2.9,4.7l-2.3,1.5a20.2,20.2,0,0,0-2.8-5Z"/>
  <path class="cls-1" d="M145.7,69.2a13.423,13.423,0,0,0-.1-2.1,7.628,7.628,0,0,0,1.7.1h2.9a7.628,7.628,0,0,0,1.7-.1V82.8h-2.4v-1H148v1.7h-2.5a17.042,17.042,0,0,0,.1-2.5V69.2Zm2.4,4h1.5V69.4h-1.5Zm0,6.3h1.5v-4h-1.5Zm6.5-1.5a16.2,16.2,0,0,0-2.2.1V75.6a12.22,12.22,0,0,0,2.2.1H159V74.3h-4.4a14.79,14.79,0,0,0-2.2.1V71.9a14.172,14.172,0,0,0,2.3.1h1.8V70.4H155c-1.2,0-2,.1-2.2.1V68a12.785,12.785,0,0,0,2.1.1h1.5v-.5a7.083,7.083,0,0,0-.1-1.5H159a5.721,5.721,0,0,0-.1,1.4V68h1.9a12.167,12.167,0,0,0,2.1-.1v2.5a12.167,12.167,0,0,0-2.1-.1h-1.9V72h2.4a12.836,12.836,0,0,0,2.2-.1v2.5a10.933,10.933,0,0,0-2-.1h-.2v1.4a10.982,10.982,0,0,0,2.1-.1v2.5a11.567,11.567,0,0,0-2.1-.1v4.2c0,1.1-.2,1.6-.8,1.9a5.565,5.565,0,0,1-2.7.5h-1.4a6.134,6.134,0,0,0-.6-2.5,15.156,15.156,0,0,0,2.3.2c.6,0,.7-.1.7-.5V78h-4a14.128,14.128,0,0,1,2.5,2.9l-2.1,1.6a14.306,14.306,0,0,0-2.5-3.3l2-1.3h-.1V78Z"/>
  <path class="cls-1" d="M168.3,82.1a17.832,17.832,0,0,0,.1,2.6h-2.8a17.1,17.1,0,0,0,.1-2.6V68.9a14.837,14.837,0,0,0-.1-2.3,11.518,11.518,0,0,0,2,.1h3.8a9.812,9.812,0,0,0,2-.1c0,.6-.1,1-.1,1.8v5.2H168v8.5Zm0-12.7h2.9v-.8h-2.9Zm0,2.4h2.9V71h-2.9Zm10.1,9.1V82c.5,0,.8.1,1,.1.7,0,.8-.1.8-.5v-8h-5.5V68.4a10.283,10.283,0,0,0-.1-1.8,11.567,11.567,0,0,0,2.1.1h4.1a10.933,10.933,0,0,0,2-.1,14.119,14.119,0,0,0-.1,2.2V81.9c0,1.3-.3,1.9-1,2.3a6.241,6.241,0,0,1-2.4.3h-1.4a7.814,7.814,0,0,0-.4-1.9h-5.1v1H170a13.423,13.423,0,0,0,.1-2.1V76.4a8.622,8.622,0,0,0-.1-1.7c.6,0,1,.1,1.8.1h4.8a9.722,9.722,0,0,0,1.8-.1c0,.5-.1,1-.1,1.7l.1,4.5Zm-6-3.2h3.7v-1h-3.7Zm0,2.8h3.7v-1h-3.7Zm4.8-11.1h3.2v-.8h-3.2Zm0,2.4h3.2V71h-3.2Z"/>
  <path class="cls-1" d="M194.4,79.3a4.609,4.609,0,0,0,.5,1,2.865,2.865,0,0,0,2.1.8,2.906,2.906,0,0,0,2.8-1.6,8.032,8.032,0,0,0,.8-3.2c-.5.5-.7.8-1.2,1a6.641,6.641,0,0,1-3,.7c-3.5,0-5.7-2.1-5.7-5.4,0-3.4,2.6-5.7,6.4-5.7a6.213,6.213,0,0,1,5.2,2.6,10.243,10.243,0,0,1,1.3,5.4c0,3.2-.8,5.9-2.2,7.3a6.109,6.109,0,0,1-4.5,1.7,6.391,6.391,0,0,1-4.2-1.3,4.954,4.954,0,0,1-1.7-2.4Zm5.7-6.9a2.893,2.893,0,0,0-3.1-2.9,2.809,2.809,0,0,0-3,2.9,2.68,2.68,0,0,0,2.9,2.9A2.924,2.924,0,0,0,200.1,72.4Z"/>
  <path class="cls-1" d="M211.2,72.6h-3.5V69.1h3.5Zm-3.4,8.3V77.4h3.5v3.5Z"/>
  <path class="cls-1" d="M217.3,82a5.957,5.957,0,0,1-1.4-2.1,13.886,13.886,0,0,1-.8-4.6,12.115,12.115,0,0,1,1.2-5.5,6.138,6.138,0,0,1,5.5-3,6.273,6.273,0,0,1,4.5,1.7,5.957,5.957,0,0,1,1.4,2.1,13.886,13.886,0,0,1,.8,4.6,12.115,12.115,0,0,1-1.2,5.5,6.059,6.059,0,0,1-5.5,2.9A5.817,5.817,0,0,1,217.3,82Zm1.2-6.8c0,3.8,1.1,5.8,3.3,5.8a2.792,2.792,0,0,0,2-.8,7.447,7.447,0,0,0,1.3-4.8q0-5.7-3.3-5.7C219.7,69.6,218.5,71.7,218.5,75.2Z"/>
  <path class="cls-1" d="M232.1,82a5.957,5.957,0,0,1-1.4-2.1,13.886,13.886,0,0,1-.8-4.6,12.115,12.115,0,0,1,1.2-5.5,6.138,6.138,0,0,1,5.5-3,6.273,6.273,0,0,1,4.5,1.7,5.957,5.957,0,0,1,1.4,2.1,13.886,13.886,0,0,1,.8,4.6,12.115,12.115,0,0,1-1.2,5.5,6.059,6.059,0,0,1-5.5,2.9A5.817,5.817,0,0,1,232.1,82Zm1.2-6.8c0,3.8,1.1,5.8,3.3,5.8a2.792,2.792,0,0,0,2-.8,7.447,7.447,0,0,0,1.3-4.8q0-5.7-3.3-5.7C234.5,69.6,233.3,71.7,233.3,75.2Z"/>
  <path class="cls-1" d="M245.7,75.4a10.244,10.244,0,0,1,1.9-1.8,5.973,5.973,0,0,1,6.2-.6,9.073,9.073,0,0,1,1.8,1,6.944,6.944,0,0,0,3.4,1.3c1.1,0,2.3-.7,3.4-2.2l1.9,2a8.191,8.191,0,0,1-2.9,2.6,5.954,5.954,0,0,1-2.7.6,4.918,4.918,0,0,1-2.1-.4,17.55,17.55,0,0,1-2.3-1.2c-1.8-1.1-2.4-1.3-3.3-1.3a4.013,4.013,0,0,0-3.3,1.8Z"/>
  <path class="cls-1" d="M269.7,83.4a18.7,18.7,0,0,0-2.8.1,8.5,8.5,0,0,1,.5-2.5,9.734,9.734,0,0,1,2.8-4.2,20.746,20.746,0,0,1,3.4-2.5c1.8-1.2,2.3-1.8,2.3-2.8,0-1.1-1-1.9-2.4-1.9a2.712,2.712,0,0,0-2.3,1.1,3.522,3.522,0,0,0-.5,1.8l-3.5-.4a7.131,7.131,0,0,1,1.4-3.4,6.468,6.468,0,0,1,4.9-1.9c3.7,0,6,1.8,6,4.6a4.688,4.688,0,0,1-1.8,3.6,23.591,23.591,0,0,1-3,2.2c-.8.6-1.7,1.4-2.2,1.8a2.9,2.9,0,0,0-.9,1.5h5.1a13.28,13.28,0,0,0,3.1-.2v3.2c-1.1-.1-1.9-.1-3.2-.1Z"/>
  <path class="cls-1" d="M301.4,72.6h-3.5V69.1h3.5Zm-3.5,8.3V77.4h3.5v3.5Z"/>
  <path class="cls-1" d="M307.4,82a5.957,5.957,0,0,1-1.4-2.1,13.886,13.886,0,0,1-.8-4.6,12.115,12.115,0,0,1,1.2-5.5,6.138,6.138,0,0,1,5.5-3,6.273,6.273,0,0,1,4.5,1.7,5.957,5.957,0,0,1,1.4,2.1,13.886,13.886,0,0,1,.8,4.6,12.115,12.115,0,0,1-1.2,5.5,6.059,6.059,0,0,1-5.5,2.9A5.817,5.817,0,0,1,307.4,82Zm1.2-6.8c0,3.8,1.1,5.8,3.3,5.8a2.792,2.792,0,0,0,2-.8,7.447,7.447,0,0,0,1.3-4.8q0-5.7-3.3-5.7C309.8,69.6,308.6,71.7,308.6,75.2Z"/>
  <path class="cls-1" d="M283.5,82a5.957,5.957,0,0,1-1.4-2.1,13.886,13.886,0,0,1-.8-4.6,12.115,12.115,0,0,1,1.2-5.5,6.138,6.138,0,0,1,5.5-3,6.273,6.273,0,0,1,4.5,1.7,5.957,5.957,0,0,1,1.4,2.1,13.886,13.886,0,0,1,.8,4.6,12.115,12.115,0,0,1-1.2,5.5,6.059,6.059,0,0,1-5.5,2.9A5.817,5.817,0,0,1,283.5,82Zm1.2-6.8c0,3.8,1.1,5.8,3.3,5.8a2.792,2.792,0,0,0,2-.8,7.447,7.447,0,0,0,1.3-4.8q0-5.7-3.3-5.7C285.9,69.6,284.7,71.7,284.7,75.2Z"/>
  <path class="cls-1" d="M322.2,82a5.957,5.957,0,0,1-1.4-2.1,13.886,13.886,0,0,1-.8-4.6,12.115,12.115,0,0,1,1.2-5.5,6.138,6.138,0,0,1,5.5-3,6.273,6.273,0,0,1,4.5,1.7,5.957,5.957,0,0,1,1.4,2.1,13.886,13.886,0,0,1,.8,4.6,12.115,12.115,0,0,1-1.2,5.5,6.059,6.059,0,0,1-5.5,2.9A5.817,5.817,0,0,1,322.2,82Zm1.2-6.8c0,3.8,1.1,5.8,3.3,5.8a2.792,2.792,0,0,0,2-.8,7.447,7.447,0,0,0,1.3-4.8q0-5.7-3.3-5.7C324.7,69.6,323.4,71.7,323.4,75.2Z"/>
</svg>
