<?xml version="1.0" encoding="utf-8"?>
<!-- Generator: Adobe Illustrator 25.3.1, SVG Export Plug-In . SVG Version: 6.00 Build 0)  -->
<svg version="1.1" id="レイヤー_1" xmlns="http://www.w3.org/2000/svg" xmlns:xlink="http://www.w3.org/1999/xlink" x="0px"
	 y="0px" width="210px" height="36px" viewBox="0 0 210 36" style="enable-background:new 0 0 210 36;" xml:space="preserve">
<style type="text/css">
	.st0{fill:#FF871D;}
	.st1{fill:#3277D5;}
	.st2{fill-rule:evenodd;clip-rule:evenodd;fill:#3277D5;}
</style>
<path class="st0" d="M29.2,18.5c-0.7-0.7-1.3-1.5-1.6-2.4c-0.6-1.8-1-3.7-1-5.6c-0.1-2.3,0.4-4.6,1.5-6.7c1.3-2.1,3.7-3.4,6.2-3.3
	c1.9-0.1,3.7,0.7,5.1,2C40,3.2,40.5,4,40.9,5c0.6,1.8,1,3.7,0.9,5.6c0.1,2.5-0.5,5-1.8,7.2c-1.4,1.9-3.6,3-5.9,2.9
	C32.3,20.6,30.5,19.9,29.2,18.5z M36.8,16.7c1.1-1.1,1.7-3.4,1.7-6.2s-0.6-5-1.7-6.2c-0.7-0.7-1.7-1-2.6-1c-1-0.1-2.1,0.4-2.7,1.2
	c-1,1.3-1.5,3.2-1.5,5.9c-0.1,2,0.3,4,1.2,5.8c1.3,1.7,3.7,2.1,5.4,0.8C36.7,16.9,36.8,16.8,36.8,16.7L36.8,16.7z"/>
<path class="st0" d="M48,20.1c0.2-1,0.2-2.1,0.2-3.1V3.6H47c-0.8,0-1.7,0.1-2.5,0.2V0.7c0.8,0.1,1.6,0.2,2.4,0.2h2.2
	c0.8,0,1.7,0,2.5-0.1c-0.1,1.3-0.2,2.7-0.2,4V17c0,1.1,0,2.1,0.2,3.1H48z"/>
<path class="st0" d="M59.6,20.1c-1,0-2.1,0-3.1,0.1c0.1-1.1,0.3-2.1,0.6-3.1c0.7-1.8,1.8-3.5,3.3-4.8c1.3-1.1,2.6-2,4-2.9
	c2.2-1.4,2.9-2.2,2.9-3.5c0-1.7-1.3-2.7-3.3-2.7c-1.2-0.1-2.4,0.4-3.1,1.4C60.4,5.3,60.2,6,60,6.8l-3.5-0.4c0.2-1.4,0.7-2.8,1.7-3.9
	c1.4-1.5,3.5-2.3,5.5-2.2c4.2,0,6.8,2,6.8,5.3c0,1.5-0.6,2.9-1.7,3.9c-1.3,1.1-2.6,2.1-4.1,3c-1,0.7-2,1.5-2.9,2.4
	c-0.6,0.6-1.1,1.4-1.4,2.2h6.8c1.2,0,2.4,0,3.5-0.2v3.3c-1-0.1-2-0.1-3.6-0.1L59.6,20.1z"/>
<path class="st0" d="M75.4,18.5c-0.7-0.7-1.3-1.5-1.6-2.4c-0.6-1.8-1-3.7-0.9-5.6c-0.1-2.3,0.4-4.6,1.5-6.7c1.3-2.2,3.7-3.5,6.2-3.4
	c1.9-0.1,3.7,0.7,5.1,2c0.7,0.7,1.3,1.5,1.6,2.4c0.6,1.8,1,3.7,0.9,5.6c0.1,2.5-0.5,5-1.8,7.2c-1.4,1.9-3.6,3-5.9,2.9
	C78.7,20.6,76.8,19.9,75.4,18.5z M83.2,16.7c1.1-1.1,1.7-3.4,1.7-6.2s-0.6-5-1.7-6.2c-0.7-0.7-1.7-1.1-2.6-1c-1-0.1-2.1,0.4-2.7,1.2
	c-1.1,1.3-1.6,3.2-1.6,5.9c-0.1,2,0.3,4,1.2,5.8c1.3,1.7,3.7,2.1,5.4,0.8C82.9,16.9,83.1,16.8,83.2,16.7L83.2,16.7z"/>
<path class="st0" d="M104.1,15.5c0.2,0.5,0.4,0.9,0.8,1.3c1.6,1.3,3.9,1.3,5.5,0c1.2-1.2,1.8-2.9,1.9-5.8c-0.3,0.5-0.8,1-1.3,1.4
	c-1.2,0.8-2.5,1.2-3.9,1.1c-4,0-6.6-2.5-6.6-6.4c-0.1-2.3,1.1-4.5,3.1-5.7c1.3-0.7,2.7-1.1,4.2-1.1c3-0.1,5.7,1.9,6.7,4.8
	c0.5,1.6,0.7,3.3,0.7,5c0,3.6-1,6.9-2.6,8.4c-1.4,1.3-3.2,2-5.2,1.8c-1.7,0.1-3.3-0.4-4.7-1.4c-0.9-0.7-1.6-1.6-2-2.7L104.1,15.5z
	 M111.5,7c0-2.2-1.8-4-4-4s-4,1.8-4,4c-0.1,2,1.3,3.7,3.3,3.9c0.2,0,0.3,0,0.5,0C109.5,11,111.4,9.3,111.5,7L111.5,7z"/>
<path class="st0" d="M120.9,15.5c0.2,0.5,0.4,0.9,0.8,1.3c1.6,1.3,3.9,1.3,5.5,0c1.2-1.2,1.8-2.9,1.9-5.8c-0.3,0.5-0.8,1-1.3,1.4
	c-1.2,0.8-2.5,1.2-3.9,1.1c-4,0-6.6-2.5-6.6-6.4c-0.1-2.3,1.1-4.5,3.1-5.7c1.3-0.7,2.7-1.1,4.2-1.1c3,0,5.7,1.9,6.6,4.8
	c0.5,1.6,0.7,3.3,0.7,5c0,3.6-1,6.9-2.6,8.4c-1.4,1.3-3.2,2-5.1,1.8c-1.7,0.1-3.3-0.4-4.7-1.4c-0.9-0.7-1.6-1.6-2-2.7L120.9,15.5z
	 M128.4,7c0-2.2-1.8-4-4-4s-4,1.8-4,4c-0.1,2,1.3,3.7,3.3,3.9c0.2,0,0.3,0,0.5,0C126.4,11,128.2,9.3,128.4,7L128.4,7z"/>
<path class="st0" d="M145.6,5.6c-0.6-1.8-1.5-2.5-3.3-2.5c-1.7,0-3.2,1-3.8,2.5c-0.6,1.3-1,2.8-1,4.3c1.2-1.7,3.1-2.6,5.2-2.4
	c2.3-0.1,4.4,1,5.6,2.9c0.6,1.1,0.9,2.4,0.9,3.6c0,3.8-2.9,6.5-7,6.5c-1.8,0.1-3.5-0.5-4.9-1.6c-1.8-1.5-2.8-4.4-2.8-8.1
	c-0.1-2.6,0.6-5.2,2-7.5c1.3-1.9,3.6-3,5.9-2.9c1.9-0.1,3.7,0.6,5,1.8c0.7,0.7,1.2,1.5,1.5,2.5L145.6,5.6z M138.1,14
	c0.1,2.3,2.1,4,4.3,3.8c1.2-0.1,2.3-0.7,3.1-1.7c0.4-0.7,0.6-1.4,0.6-2.2c0.2-1.9-1.2-3.6-3.2-3.8c-0.2,0-0.4,0-0.7,0
	c-2.2-0.1-4,1.5-4.1,3.7C138.1,13.9,138.1,14,138.1,14z"/>
<path class="st0" d="M151.8,9.9c0.7,0.1,2.3,0.1,2.3,0.1h3.4c0.8,0,1.5,0,2.3-0.1v2.8c-0.8-0.1-2.3-0.1-2.3-0.1h-3.4
	c-0.8,0-1.5,0-2.3,0.1V9.9z"/>
<path class="st0" d="M90.7,9.9C91.4,10,93,10,93,10h3.4c0.8,0,1.5,0,2.3-0.1v2.8c-0.8-0.1-2.3-0.1-2.3-0.1H93c-0.8,0-1.5,0-2.3,0.1
	V9.9z"/>
<path class="st0" d="M165.1,15.5c0.2,0.5,0.4,0.9,0.8,1.3c0.7,0.7,1.8,1.1,2.8,1c1,0.1,2-0.3,2.7-1c1.2-1.2,1.8-2.9,1.9-5.8
	c-0.3,0.5-0.8,1-1.3,1.4c-1.2,0.8-2.5,1.2-3.9,1.1c-4,0-6.6-2.5-6.6-6.4c-0.1-2.3,1.1-4.5,3.1-5.7c1.3-0.7,2.8-1.1,4.2-1.1
	c3-0.1,5.7,1.9,6.6,4.8c0.5,1.6,0.7,3.3,0.7,5c0,3.6-1,6.9-2.6,8.4c-1.4,1.3-3.3,2-5.2,1.8c-1.7,0.1-3.3-0.4-4.7-1.4
	c-0.9-0.7-1.6-1.6-2-2.7L165.1,15.5z M172.6,7c0-2.2-1.8-4-4-4s-4,1.8-4,4c-0.1,2,1.3,3.7,3.3,3.9c0.2,0,0.3,0,0.5,0
	C170.7,11,172.4,9.3,172.6,7L172.6,7L172.6,7z"/>
<path class="st0" d="M189.7,5.6c-0.6-1.8-1.5-2.5-3.2-2.5s-3.2,1-3.8,2.5c-0.6,1.3-1,2.8-1,4.3c1.3-1.8,2.7-2.4,5.2-2.4
	c2.3-0.1,4.4,1,5.6,2.9c0.6,1.1,0.9,2.4,0.9,3.6c0,3.8-2.9,6.5-7,6.5c-1.8,0.1-3.5-0.5-4.9-1.6c-1.8-1.5-2.8-4.4-2.8-8.1
	c-0.1-2.6,0.6-5.2,2-7.5c1.3-1.9,3.6-3,5.9-2.9c1.8-0.1,3.7,0.6,5,1.8c0.7,0.7,1.2,1.5,1.5,2.5L189.7,5.6z M182.1,14
	c0.2,2.3,2.1,4,4.4,3.8c1.2-0.1,2.3-0.7,3-1.7c0.4-0.7,0.6-1.4,0.6-2.2c0.2-1.9-1.2-3.6-3.1-3.8c-0.2,0-0.4,0-0.7,0
	c-2.2-0.1-4,1.5-4.1,3.7C182.1,13.9,182.1,14,182.1,14z"/>
<path class="st0" d="M198.4,20.1c-1,0-2.1,0-3.1,0.1c0.1-1.1,0.3-2.1,0.6-3.1c0.7-1.8,1.8-3.5,3.3-4.8c1.3-1.1,2.6-2,4-2.9
	c2.2-1.5,2.9-2.3,2.9-3.6c0-1.7-1.3-2.7-3.3-2.7c-1.2-0.1-2.4,0.4-3.1,1.4c-0.4,0.7-0.7,1.4-0.8,2.2l-3.5-0.4
	c0.2-1.4,0.7-2.8,1.7-3.9c1.4-1.5,3.5-2.3,5.5-2.2c4.2,0,6.9,2,6.9,5.3c0,1.5-0.6,2.9-1.7,3.9c-1.3,1.1-2.6,2.1-4.1,3
	c-1,0.7-2,1.5-2.9,2.4c-0.6,0.6-1.1,1.4-1.4,2.2h6.8c1.2,0,2.4,0,3.5-0.2v3.4c-1.1-0.1-2.1-0.1-3.6-0.1L198.4,20.1z"/>
<g>
	<path class="st1" d="M35.4,31.2c-0.2,0.1-0.2,0.2-0.4,0.4c-0.8,1-1.4,1.5-2.3,2.1c1.2,0.7,2.5,1.1,4.4,1.4
		c-0.2,0.2-0.3,0.4-0.4,0.7c-2-0.4-3.3-0.8-4.6-1.7c-1.4,0.8-2.7,1.3-4.5,1.7c-0.1-0.3-0.2-0.4-0.4-0.7c1.7-0.3,3-0.7,4.3-1.4
		c-0.9-0.7-1.2-1.1-2-2.4c-0.4,0-0.6,0-0.8,0.1v-0.8c0.2,0.1,0.6,0.1,1.1,0.1H34c0.5,0,0.7,0,1-0.1L35.4,31.2z M29.6,28.8
		c-0.2-0.5-0.3-1-0.6-1.5c-0.2,0-0.4,0-1,0c-0.1-0.3-0.1-0.4-0.3-0.7c2,0,3.5-0.1,5.2-0.3c1.4-0.2,2.3-0.4,2.9-0.6l0.5,0.7
		c-0.1,0-0.1,0-0.4,0.1c-1,0.2-2.4,0.5-3.8,0.6c0.3,0.6,0.4,1,0.6,1.7H34c0.4-0.7,0.7-1.3,0.9-2l0.7,0.3c-0.4,0.8-0.6,1.3-0.9,1.7
		h0.9c0.6,0,1,0,1.3,0c0,0.3,0,0.5,0,0.8v0.7c0,0.3,0,0.5,0.1,0.7h-0.8v-1.6h-8V31h-0.8c0,0,0.1-0.4,0.1-0.8v-0.7c0-0.3,0-0.5,0-0.8
		c0.3,0,0.7,0.1,1.4,0.1C28.9,28.8,29.6,28.8,29.6,28.8z M32,28.8c-0.1-0.6-0.4-1.1-0.6-1.6c-0.6,0-0.9,0.1-1.7,0.1
		c0.2,0.5,0.4,1,0.6,1.5H32z M30.3,31.3c0.6,0.9,1,1.4,1.9,2c0.9-0.6,1.5-1.1,2.2-2H30.3z"/>
	<path class="st1" d="M40.7,34.5c0,0.5,0,0.9,0.1,1.3h-0.9C40,35.6,40,35,40,34.5v-3.7c0-0.5,0-0.8,0-1.3c-0.5,0.8-0.7,1.1-1.2,1.7
		c0,0-0.3-0.4-0.6-0.7c1-1,1.6-2,2.2-3.4c0.3-0.7,0.4-1.1,0.5-1.4l0.8,0.3c-0.1,0.1-0.7,1.9-1,2.5V34.5z M46.7,34.6
		c0,0.7-0.2,0.9-1.2,0.9c-0.4,0-1,0-1.4-0.1c0-0.3-0.1-0.3-0.2-0.6c0.7,0.1,1,0.1,1.5,0.1s0.6-0.1,0.6-0.3V29h-3.5
		c-0.5,0-0.9,0-1.2,0.1v-0.9c0.1,0.1,0.7,0.1,1.2,0.1H46V27c0-0.5,0-1-0.1-1.3h0.9c0,0.2-0.1,0.8-0.1,1.3v1.3h0.5
		c0.4,0,0.8,0,1.1-0.1V29c-0.3,0-0.7,0-1.1,0h-0.5L46.7,34.6L46.7,34.6z M42.5,30.1c0.8,0.9,1.2,1.5,1.9,2.5l-0.6,0.5
		c-0.6-1.1-1.1-1.8-1.8-2.6L42.5,30.1z"/>
	<path class="st1" d="M49.9,27.5c0-0.5,0-0.8,0-1.1c0.2,0,0.2,0,1,0h0.8c0.6,0,0.8,0,1,0c0,0.3,0,0.4,0,1.1v6.1c0,0.5,0,0.8,0,1.1
		H52v-0.6h-1.5V35h-0.7c0,0,0.1-0.7,0.1-1.2C49.9,33.8,49.9,27.5,49.9,27.5z M50.5,29.8H52V27h-1.5V29.8z M50.5,33.5H52v-3h-1.5
		V33.5z M54.4,27.9c-0.4,0-0.8,0-1.1,0.1v-0.8c0,0,0.6,0.1,1.1,0.1h1.2v-0.4c0-0.3,0-0.6-0.1-0.9h0.8c0,0.3-0.1,0.5-0.1,0.9v0.4h1.6
		c0.5,0,0.8,0,1.1-0.1V28c-0.3,0-0.6-0.1-1.1-0.1h-1.6v1.3h2c0.5,0,0.8,0,1.1-0.1v0.8c-0.3,0-0.6-0.1-1.1-0.1h-0.4V31h0.3
		c0.5,0,0.8,0,1.1-0.1v0.8c-0.3,0-0.6-0.1-1.1-0.1h-0.3v3.1c0,0.7-0.2,0.9-1.3,0.9c-0.2,0-0.4,0-1,0c0-0.3-0.1-0.5-0.2-0.7
		c0.4,0.1,0.9,0.1,1.3,0.1s0.5,0,0.5-0.3v-3.1H54c-0.4,0-0.8,0-1.1,0.1V31c0.3,0,0.6,0,1.1,0h3.1v-1.2H54c-0.5,0-0.8,0-1.1,0.1v-0.8
		c0,0,0.6,0.1,1.1,0.1h1.5v-1.3L54.4,27.9L54.4,27.9z M55.3,34.4c-0.6-0.8-0.9-1.2-1.5-1.9l0.5-0.4c0.6,0.6,1,1,1.6,1.8L55.3,34.4z"
		/>
	<path class="st1" d="M61.8,34.6c0,0.6,0,1,0.1,1.2H61c0.1-0.1,0.1-0.9,0.1-1.2v-7.2c0-0.5,0-0.9,0-1.2c0.3,0,0.6,0,1.2,0h1.6
		c0.6,0,0.8,0,1.1,0c0,0.3,0,0.6,0,1.1v1.4c0,0.4,0,0.8,0,1c-0.3,0-0.7,0-1.1,0h-2.1L61.8,34.6L61.8,34.6z M61.7,27.7h2.7v-0.9h-2.7
		V27.7z M61.7,29.1h2.7v-0.9h-2.7V29.1z M67.6,33.3c0,0.4,0,0.7,0,1c-0.3,0-0.8,0-1.2,0H64v0.6h-0.7c0,0,0.1-0.5,0.1-0.9v-2.5
		c0-0.4,0-0.7,0-1c0.3,0,0.6,0,1.1,0h2c0.5,0,0.8,0,1.1,0c0,0.3,0,0.6,0,1V33.3L67.6,33.3z M64,32.1h3v-1h-3V32.1z M64,33.7h3v-1.1
		h-3V33.7z M69.9,34.7c0,0.7-0.2,0.9-1.1,0.9c-0.2,0-0.8,0-1.1,0c0-0.3-0.1-0.5-0.2-0.7c0.5,0.1,1,0.1,1.2,0.1
		c0.5,0,0.5-0.1,0.5-0.3v-5H67c-0.5,0-0.8,0-1.1,0c0-0.3,0-0.7,0-1.1v-1.4c0-0.4,0-0.6,0-1c0.3,0,0.6,0,1.1,0h1.8c0.6,0,0.8,0,1.2,0
		c0,0-0.1,0.5-0.1,1V34.7z M66.5,27.7h2.7v-0.9h-2.7V27.7z M66.5,29.2h2.7v-1h-2.7V29.2z"/>
	<path class="st1" d="M75.5,33.2c0.1,0.4,0.6,1.1,2,1.1c0.8,0,1.4-0.2,1.9-1c0.2-0.4,0.4-0.8,0.5-1.4c0.1-0.5,0.1-0.8,0.1-1.4
		c-0.2,0.3-0.5,0.6-0.5,0.6c-0.6,0.6-1.2,0.8-2.1,0.8s-1.6-0.3-2.1-0.8s-0.8-1.3-0.8-2.1c0-1.9,1.2-3.1,3.2-3.1c1.3,0,2.4,0.7,2.8,2
		c0.2,0.6,0.3,1.4,0.3,2.4c0,1.6-0.3,3-1,3.8c-0.6,0.7-1.4,1-2.4,1c-0.8,0-1.5-0.2-2-0.6c-0.3-0.3-0.6-0.6-0.8-1.2L75.5,33.2z
		 M79.7,28.9c0-1.3-0.9-2.2-2.2-2.2c-0.8,0-1.5,0.4-1.9,1c-0.2,0.3-0.3,0.8-0.3,1.2c0,1.3,0.8,2.1,2.1,2.1
		C78.8,31.1,79.7,30.2,79.7,28.9z"/>
	<path class="st1" d="M83.6,28.9h-1.1v-1.1h1.1V28.9z M82.6,33.8v-1.1h1.1v1.1H82.6z"/>
	<path class="st1" d="M125.1,28.9H124v-1.1h1.1V28.9z M124,33.8v-1.1h1.1v1.1H124z"/>
	<path class="st1" d="M86.4,34.5c-0.3-0.3-0.6-0.7-0.7-1.1c-0.3-0.8-0.4-1.7-0.4-2.7c0-1.2,0.3-2.5,0.7-3.2c0.6-0.9,1.5-1.4,2.6-1.4
		c0.9,0,1.6,0.3,2.1,0.8c0.3,0.3,0.6,0.7,0.7,1.1c0.3,0.8,0.4,1.7,0.4,2.7c0,1.4-0.3,2.7-0.8,3.4c-0.6,0.8-1.4,1.2-2.5,1.2
		C87.7,35.3,87,35.1,86.4,34.5z M86.6,28.3c-0.2,0.7-0.4,1.5-0.4,2.4c0,1.1,0.2,2.2,0.5,2.8c0.4,0.7,1,1,1.8,1
		c0.6,0,1.1-0.2,1.4-0.5c0.3-0.3,0.9-0.8,0.9-3.3c0-1-0.2-2.2-0.5-2.7c-0.4-0.7-1-1.1-1.8-1.1C87.9,26.9,87,27.3,86.6,28.3z"/>
	<path class="st1" d="M93.9,34.5c-0.3-0.3-0.6-0.7-0.7-1.1c-0.3-0.8-0.4-1.7-0.4-2.7c0-1.2,0.3-2.5,0.7-3.2c0.6-0.9,1.5-1.4,2.6-1.4
		c0.9,0,1.6,0.3,2.1,0.8c0.3,0.3,0.6,0.7,0.7,1.1c0.3,0.8,0.4,1.7,0.4,2.7c0,1.4-0.3,2.7-0.8,3.4c-0.6,0.8-1.4,1.2-2.5,1.2
		C95.2,35.3,94.5,35.1,93.9,34.5z M94.1,28.3c-0.2,0.7-0.4,1.5-0.4,2.4c0,1.1,0.2,2.2,0.5,2.8c0.4,0.7,1,1,1.8,1
		c0.6,0,1.1-0.2,1.4-0.5c0.3-0.3,0.9-0.8,0.9-3.3c0-1-0.2-2.2-0.5-2.7c-0.4-0.7-1-1.1-1.8-1.1C95.4,26.9,94.5,27.3,94.1,28.3z"/>
	<path class="st1" d="M116.9,34.5c-0.3-0.3-0.6-0.7-0.7-1.1c-0.3-0.8-0.4-1.7-0.4-2.7c0-1.2,0.3-2.5,0.7-3.2
		c0.6-0.9,1.5-1.4,2.6-1.4c0.9,0,1.6,0.3,2.1,0.8c0.3,0.3,0.6,0.7,0.7,1.1c0.3,0.8,0.4,1.7,0.4,2.7c0,1.4-0.3,2.7-0.8,3.4
		c-0.6,0.8-1.4,1.2-2.5,1.2C118.2,35.3,117.5,35.1,116.9,34.5z M117.1,28.3c-0.2,0.7-0.4,1.5-0.4,2.4c0,1.1,0.2,2.2,0.5,2.8
		c0.4,0.7,1,1,1.8,1c0.6,0,1.1-0.2,1.4-0.5c0.3-0.3,0.9-0.8,0.9-3.3c0-1-0.2-2.2-0.5-2.7c-0.4-0.7-1-1.1-1.8-1.1
		C118.4,26.9,117.5,27.3,117.1,28.3z"/>
	<path class="st1" d="M128.3,34.5c-0.3-0.3-0.6-0.7-0.7-1.1c-0.3-0.8-0.4-1.7-0.4-2.7c0-1.2,0.3-2.5,0.7-3.2
		c0.6-0.9,1.5-1.4,2.6-1.4c0.9,0,1.6,0.3,2.1,0.8c0.3,0.3,0.6,0.7,0.7,1.1c0.3,0.8,0.4,1.7,0.4,2.7c0,1.4-0.3,2.7-0.8,3.4
		c-0.6,0.8-1.4,1.2-2.5,1.2C129.6,35.3,128.9,35.1,128.3,34.5z M128.5,28.3c-0.2,0.7-0.4,1.5-0.4,2.4c0,1.1,0.2,2.2,0.5,2.8
		c0.4,0.7,1,1,1.8,1c0.6,0,1.1-0.2,1.4-0.5c0.3-0.3,0.9-0.8,0.9-3.3c0-1-0.2-2.2-0.5-2.7c-0.4-0.7-1-1.1-1.8-1.1
		C129.8,26.9,128.9,27.3,128.5,28.3z"/>
	<path class="st1" d="M135.8,34.5c-0.3-0.3-0.6-0.7-0.7-1.1c-0.3-0.8-0.4-1.7-0.4-2.7c0-1.2,0.3-2.5,0.7-3.2
		c0.6-0.9,1.5-1.4,2.6-1.4c0.9,0,1.6,0.3,2.1,0.8c0.3,0.3,0.6,0.7,0.7,1.1c0.3,0.8,0.4,1.7,0.4,2.7c0,1.4-0.3,2.7-0.8,3.4
		c-0.6,0.8-1.4,1.2-2.5,1.2C137.1,35.3,136.4,35.1,135.8,34.5z M136,28.3c-0.2,0.7-0.4,1.5-0.4,2.4c0,1.1,0.2,2.2,0.5,2.8
		c0.4,0.7,1,1,1.8,1c0.6,0,1.1-0.2,1.4-0.5c0.3-0.3,0.9-0.8,0.9-3.3c0-1-0.2-2.2-0.5-2.7c-0.4-0.7-1-1.1-1.8-1.1
		C137.3,26.9,136.4,27.3,136,28.3z"/>
	<path class="st1" d="M105.9,30.7v0.8h-4.1v-0.8H105.9z"/>
	<path class="st1" d="M108.2,35.3c0,0-0.1-0.6,0.3-1.5c0.3-0.7,0.8-1.4,1.5-2c0.4-0.3,0.4-0.4,1.8-1.3c1.2-0.8,1.5-1.3,1.5-2
		c0-0.9-0.7-1.5-1.9-1.5c-0.8,0-1.3,0.3-1.7,0.8c-0.2,0.3-0.3,0.6-0.4,1.2l-1-0.2c0.2-0.8,0.3-1.2,0.7-1.7c0.5-0.6,1.3-0.9,2.3-0.9
		c1.8,0,2.9,0.9,2.9,2.3c0,0.6-0.2,1.2-0.7,1.7c-0.3,0.4-0.7,0.6-2,1.5c-0.9,0.6-1.3,0.9-1.7,1.4c-0.4,0.5-0.5,0.8-0.7,1.4h3.7
		c0.6,0,1,0,1.4-0.1v1c0,0-0.9-0.1-1.4-0.1C112.8,35.3,108.2,35.3,108.2,35.3z"/>
	<path class="st1" d="M150.5,30.2c0-0.2,0-0.4,0-0.7c0.2,0,0.5,0,0.8,0h2.4v-1.8h-2.4c-0.6,0.9-1.1,1.6-1.8,2.3
		c-0.2-0.3-0.5-0.4-0.7-0.5c1.1-0.9,1.7-1.7,2.2-3c0.1-0.3,0.2-0.6,0.3-0.8l0.8,0.2c0,0.1-0.1,0.2-0.1,0.3l-0.4,0.9h5.5
		c0.5,0,0.7,0,1-0.1v0.8c-0.3,0-0.5-0.1-1-0.1h-2.5v1.8h2c0.5,0,0.7,0,1-0.1v0.8c-0.3,0-0.6,0-1,0h-2v2.1h2.8c0.5,0,0.8,0,1.1-0.1
		v0.9c-0.3,0-0.7-0.1-1.1-0.1h-2.8v1.9c0,0.5,0,0.7,0.1,1h-1.1c0.1-0.3,0.1-0.5,0.1-1V33h-3.8c-0.5,0-0.8,0-1.1,0.1v-0.9
		c0.3,0,0.6,0.1,1.1,0.1h0.8v-2.1H150.5z M153.7,32.3v-2.1h-2.3v2.1H153.7z"/>
	<path class="st1" d="M163.5,26.9c0-0.5,0-0.8-0.1-1.2h0.9c-0.1,0.3-0.1,0.7-0.1,1.1v1h3.3c0.4,0,0.6,0,0.8,0c0,0.3-0.1,0.5-0.1,0.9
		v3c0,0.4,0,0.7,0.1,1h-0.8V32h-3.3v2.6c0,0.6,0,0.9,0.1,1.3h-0.9c0.1-0.4,0.1-0.7,0.1-1.3V32h-3.1v0.8h-0.8c0-0.3,0.1-0.6,0.1-1v-3
		c0-0.3,0-0.6-0.1-0.9c0.3,0,0.5,0,0.8,0h3.1V26.9z M160.4,28.5v2.8h3.1v-2.8H160.4z M167.5,31.3v-2.8h-3.3v2.8H167.5z"/>
	<path class="st1" d="M171.6,27.8c-0.4,0.5-0.7,0.8-1.2,1.2c-0.2-0.2-0.3-0.3-0.5-0.5c1.1-0.9,1.7-1.5,2.2-2.5
		c0.1-0.2,0.2-0.4,0.2-0.6l0.8,0.2c-0.1,0.1-0.1,0.1-0.2,0.3c-0.3,0.5-0.4,0.6-0.6,1h5.7c0.7,0,1.1,0,1.4-0.1v0.7
		c-0.4,0-0.8,0-1.2,0v2h0.6c0.5,0,0.8,0,1.1-0.1v0.8c-0.3,0-0.6-0.1-1.1-0.1h-0.6V32h0.4c0.5,0,0.8,0,1.1-0.1v0.8
		c-0.3,0-0.6-0.1-1.1-0.1h-7.2c-0.4,0-0.7,0-1,0.1v-0.8c0.3,0,0.6,0.1,1.1,0.1h0.1v-1.9H171c-0.5,0-0.7,0-1.1,0.1v-0.8
		c0.3,0,0.6,0.1,1.1,0.1h0.6V27.8z M170,35.2c0.7-0.6,1-1.1,1.4-2.1l0.6,0.3c-0.4,1-0.8,1.5-1.4,2.2L170,35.2z M172.2,29.5h1.3v-2
		h-1.3V29.5z M172.2,32h1.3v-1.8h-1.3V32z M173.3,35.7c0-0.8-0.1-1.6-0.3-2.3l0.6-0.1c0.2,0.8,0.3,1.4,0.3,2.3L173.3,35.7z
		 M175.5,29.5v-2h-1.3v2H175.5z M175.5,32v-1.8h-1.3V32H175.5z M175.8,35.7c-0.2-1.1-0.3-1.4-0.6-2.2l0.6-0.2
		c0.3,0.7,0.4,1.1,0.7,2.2L175.8,35.7z M177.5,29.5v-2h-1.4v2H177.5z M177.5,32v-1.8h-1.4V32H177.5z M179,35.7
		c-0.4-0.9-0.7-1.4-1.4-2.2l0.6-0.3c0.6,0.8,1,1.3,1.4,2.1L179,35.7z"/>
	<path class="st1" d="M182.1,30.9c0-0.5,0-0.8,0-1.4c-0.4,0.7-0.7,1.1-1.2,1.7c-0.2-0.3-0.2-0.4-0.5-0.6c0.9-0.9,1.5-1.9,2-3
		c0.3-0.7,0.5-1.3,0.6-1.9l0.8,0.2c-0.1,0.4-0.3,0.7-0.4,1.1c-0.2,0.4-0.4,1-0.7,1.5v6c0,0.5,0,0.9,0.1,1.3H182
		c0-0.4,0.1-0.8,0.1-1.3V30.9L182.1,30.9z M183.6,29v-0.9c0,0,0.7,0.1,1.1,0.1h1.9V27c0-0.4,0-0.7-0.1-1.1h0.9c0,0-0.1,0.7-0.1,1.1
		v1.2h2.5c0.5,0,0.8,0,1.1-0.1V29c-0.3,0-0.7-0.1-1.1-0.1h-2.2c1.1,2.2,2.1,3.4,3.5,4.5c-0.2,0.2-0.4,0.3-0.6,0.6
		c-0.6-0.5-2.6-2.7-3.2-4.1c0,0.4,0,0.4,0,0.9v3.9c0,0.4,0,0.8,0.1,1.1h-0.9c0.1-0.4,0.1-0.8,0.1-1.1v-3.9c0-0.4,0-0.5,0-0.9
		c-0.4,1-2.3,3.4-3.1,4c-0.2-0.3-0.3-0.4-0.5-0.6c0.9-0.7,2.8-2.9,3.4-4.4h-1.7l0,0C184.7,28.9,183.9,28.9,183.6,29z"/>
	<path class="st1" d="M191.4,35.9c0.9-0.9,1.3-1.4,1.7-2.3s0.6-1.8,0.6-2.8s-0.2-1.9-0.6-2.8c-0.4-0.9-0.8-1.4-1.7-2.3h1
		c0.8,1,1.2,1.5,1.5,2.4c0.4,0.9,0.5,1.8,0.5,2.7c0,1-0.2,1.8-0.5,2.7c-0.4,0.9-0.7,1.4-1.5,2.4C192.4,35.9,191.4,35.9,191.4,35.9z"
		/>
	<path class="st1" d="M146.5,35.9c-0.8-1-1.1-1.5-1.5-2.4c-0.3-0.9-0.5-1.7-0.5-2.7c0-0.9,0.1-1.8,0.5-2.7c0.3-0.9,0.7-1.4,1.5-2.4
		h1c-0.9,0.9-1.3,1.4-1.7,2.3s-0.6,1.8-0.6,2.8s0.2,1.9,0.6,2.8s0.8,1.4,1.7,2.3C147.5,35.9,146.5,35.9,146.5,35.9z"/>
</g>
<path class="st2" d="M2.5,0.7c0.9-0.9,2.4-0.9,3.3,0C5.9,0.8,5.9,0.8,6,0.9L8.4,4C8.8,4.6,9,5.3,8.8,6L8.1,9C8,9.3,8.1,9.6,8.3,9.9
	l3.3,3.3c0.2,0.2,0.6,0.3,0.9,0.2l2.9-0.7c0.7-0.2,1.4,0,2,0.4l3.1,2.4c1.1,0.9,1.2,2.5,0.2,3.5l-1.4,1.4c-1,1-2.5,1.4-3.8,0.9
	c-3.6-1.3-6.8-3.3-9.4-6c-2.6-2.6-4.7-5.8-5.9-9.4c-0.5-1.4,0-2.9,0.9-3.8L2.5,0.7z"/>
<g>
	<path class="st0" d="M26.8,23.2V22h183.1v1.2H26.8z"/>
</g>
</svg>
