<svg xmlns="http://www.w3.org/2000/svg" viewBox="0 0 14.01 11.85"><defs><style>.a{fill:#3176d5;}</style></defs><title> menu-icon</title><path class="a" d="M.6,3.49a.6.6,0,0,1-.54-.86A4.6,4.6,0,0,1,6.19.44a.6.6,0,0,1-.51,1.08A3.4,3.4,0,0,0,1.14,3.14.6.6,0,0,1,.6,3.49Z"/><path class="a" d="M2.41,4.34a.6.6,0,0,1-.54-.86A2.6,2.6,0,0,1,5.33,2.25a.6.6,0,0,1-.51,1.08A1.4,1.4,0,0,0,2.95,4,.6.6,0,0,1,2.41,4.34Z"/><path class="a" d="M13.56,5.19H4.46A.45.45,0,0,0,4,5.64V11.4a.45.45,0,0,0,.45.45h9.1A.45.45,0,0,0,14,11.4V5.64A.45.45,0,0,0,13.56,5.19Zm-1.05,5.17h-2v-2h2Z"/></svg>