<?xml version="1.0" encoding="utf-8"?>
<svg version="1.1" xmlns="http://www.w3.org/2000/svg" xmlns:xlink="http://www.w3.org/1999/xlink" x="0px"
	 y="0px" viewBox="0 0 16.1 25.9" style="enable-background:new 0 0 16.1 25.9;" xml:space="preserve">
<style type="text/css">
	.st0{fill:#7AC943;}
	.st1{fill:#3176D5;}
</style>
<g>
	<g>
		<path class="st0" d="M0,22.8c0-1.8,1.3-3,3-3c1.8,0,3,1.3,3,3c0,1.7-1.2,3-3,3C1.2,25.9,0,24.5,0,22.8z M5,17.9H1L0.1,0H6L5,17.9z
			"/>
	</g>
	<g>
		<path class="st1" d="M10.1,22.8c0-1.8,1.3-3,3-3c1.8,0,3,1.3,3,3c0,1.7-1.2,3-3,3C11.3,25.9,10.1,24.5,10.1,22.8z M15.1,17.9h-4
			L10.2,0h5.9L15.1,17.9z"/>
	</g>
</g>
</svg>
