<?xml version="1.0" encoding="utf-8"?>
<svg version="1.1" xmlns="http://www.w3.org/2000/svg" xmlns:xlink="http://www.w3.org/1999/xlink" x="0px"
	 y="0px" viewBox="0 0 40 40" style="enable-background:new 0 0 40 40;" xml:space="preserve">
<style type="text/css">
	.st0{fill:#FFFFFF;}
	.st1{fill:#7ECA49;}
	.st2{fill:#48A208;stroke:#FFFFFF;stroke-width:0.25;stroke-miterlimit:10;}
</style>
<g>
	<g>
		<path class="st0" d="M5.3,39C2.9,39,1,37.1,1,34.7V5.3C1,2.9,2.9,1,5.3,1h29.5C37.1,1,39,2.9,39,5.3v29.5c0,2.4-1.9,4.3-4.3,4.3
			H5.3z"/>
		<path class="st1" d="M34.7,2C36.5,2,38,3.5,38,5.3v29.5c0,1.8-1.5,3.3-3.3,3.3H5.3C3.5,38,2,36.5,2,34.7V5.3C2,3.5,3.5,2,5.3,2
			H34.7 M34.7,0H5.3C2.4,0,0,2.4,0,5.3v29.5C0,37.6,2.4,40,5.3,40h29.5c2.9,0,5.3-2.4,5.3-5.3V5.3C40,2.4,37.6,0,34.7,0L34.7,0z"/>
	</g>
</g>
<g>
	<path class="st2" d="M18,10.5h3.7l6.5,17.2H24l-1.4-3.9h-5.5l-1.3,3.9h-4.2L18,10.5z M21.9,21.1L19.9,15l-2.1,6.1H21.9z"/>
</g>
</svg>
