<?xml version="1.0" encoding="utf-8"?>
<svg version="1.1" xmlns="http://www.w3.org/2000/svg" xmlns:xlink="http://www.w3.org/1999/xlink" x="0px"
	 y="0px" viewBox="0 0 40 40" style="enable-background:new 0 0 40 40;" xml:space="preserve">
<style type="text/css">
	.st0{fill:#7ECA49;}
	.st1{fill:#FFFFFF;stroke:#7ECA49;stroke-width:0.25;stroke-miterlimit:10;}
</style>
<g>
	<path class="st0" d="M34.7,40H5.3C2.4,40,0,37.6,0,34.7V5.3C0,2.4,2.4,0,5.3,0h29.5C37.6,0,40,2.4,40,5.3v29.5
		C40,37.6,37.6,40,34.7,40z"/>
</g>
<g>
	<path class="st1" d="M24.5,27.1c-0.7,0.4-1.4,0.7-2.1,0.9c-0.8,0.2-1.6,0.3-2.5,0.3c-1.3,0-2.5-0.3-3.6-0.8s-2-1.2-2.8-2
		c-0.8-0.8-1.4-1.8-1.8-2.8c-0.4-1.1-0.6-2.1-0.6-3.3c0-1.2,0.2-2.3,0.7-3.3c0.5-1.1,1.1-2,1.9-2.8c0.8-0.8,1.7-1.5,2.8-1.9
		s2.3-0.7,3.6-0.7c1.3,0,2.5,0.3,3.6,0.8c1.1,0.5,2,1.2,2.8,2c0.8,0.8,1.4,1.8,1.8,2.8c0.4,1.1,0.6,2.1,0.6,3.2
		c0,1.1-0.2,2.2-0.6,3.2s-1,1.9-1.7,2.7l2.5,2.7h-3.3L24.5,27.1z M19.9,25.4c0.5,0,0.9-0.1,1.4-0.2c0.4-0.1,0.8-0.2,1.2-0.4l-2.9-3
		H23l1.3,1.3c0.4-0.5,0.6-1.1,0.8-1.7c0.2-0.6,0.3-1.2,0.3-1.9c0-0.7-0.1-1.5-0.4-2.2c-0.3-0.7-0.6-1.3-1.1-1.9
		c-0.5-0.5-1.1-1-1.8-1.3c-0.7-0.3-1.5-0.5-2.3-0.5c-0.9,0-1.7,0.2-2.4,0.5c-0.7,0.3-1.3,0.8-1.8,1.3c-0.5,0.6-0.8,1.2-1.1,1.9
		c-0.2,0.7-0.4,1.4-0.4,2.1c0,0.7,0.1,1.5,0.4,2.2c0.3,0.7,0.6,1.3,1.1,1.9c0.5,0.5,1.1,1,1.8,1.3C18.2,25.2,19,25.4,19.9,25.4z"/>
</g>
</svg>
