<?xml version="1.0" encoding="utf-8"?>
<svg version="1.1" xmlns="http://www.w3.org/2000/svg" xmlns:xlink="http://www.w3.org/1999/xlink" x="0px"
	 y="0px" viewBox="0 0 18.3 23" style="enable-background:new 0 0 18.3 23;" xml:space="preserve">
<style type="text/css">
	.st0{fill:#FFFFFF;}
</style>
<g>
	<path class="st0" d="M9.1,1.5c4.2,0,7.6,3.3,7.6,7.3s-3.4,7.3-7.6,7.3s-7.6-3.3-7.6-7.3S4.9,1.5,9.1,1.5 M9.1,0C4.1,0,0,3.9,0,8.8
		s4.1,8.8,9.1,8.8s9.1-3.9,9.1-8.8S14.2,0,9.1,0L9.1,0z"/>
	<g>
		<polygon class="st0" points="7.6,6.6 9.2,3.7 10.8,6.6 14,7.2 11.8,9.7 12.2,12.9 9.2,11.5 6.2,12.9 6.6,9.7 4.4,7.2"/>
	</g>
	<g>
		<polygon class="st0" points="17.3,21.2 14,20.3 12.2,23 10.2,17 14.5,15.4"/>
	</g>
	<g>
		<polygon class="st0" points="1.4,21.2 4.7,20.3 6.5,23 8.5,17 4.2,15.4"/>
	</g>
</g>
</svg>
