<?xml version="1.0" encoding="utf-8"?>
<svg version="1.1" xmlns="http://www.w3.org/2000/svg" xmlns:xlink="http://www.w3.org/1999/xlink" x="0px"
	 y="0px" viewBox="0 0 35.6 39.6" style="enable-background:new 0 0 35.6 39.6;" xml:space="preserve">
<style type="text/css">
	.st0{fill:#7AC943;}
	.st1{fill:#FFFFFF;}
	.st2{fill:#3176D5;}
</style>
<g>
	<g>
		<path class="st0" d="M23.7,18c6.5,0,11.8,4.7,11.8,10.5c0,2.3-0.9,4.5-2.3,6.2c-0.1,0.2-0.2,0.4-0.1,0.6l1.4,3.9
			c0.1,0.3-0.2,0.6-0.5,0.5l-4-2c-0.2-0.1-0.4-0.1-0.5,0c-1.7,0.9-3.7,1.3-5.8,1.3c-6.5,0-11.8-4.7-11.8-10.5S17.2,18,23.7,18z"/>
		<g>
			<path class="st1" d="M25.9,28.6c-1.1,1-1.3,2.2-1.3,2.2h-1.8l0,0c0,0,0.1-2,1.5-3.1c0.8-0.6,0.9-1.2,0.9-1.8
				c0-0.9-0.5-1.7-1.5-1.7c-1.5,0-1.5,1.4-1.5,1.9h-2.2c0-0.6,0.1-1.4,0.6-2.3c0.8-1.4,2.3-1.6,3.1-1.6c2,0,3.7,1.2,3.7,3.4
				C27.4,26.7,27.2,27.5,25.9,28.6z M22.8,33.8v-1.9h2v1.9H22.8z"/>
		</g>
	</g>
	<g>
		<g>
			<path class="st2" d="M22.9,17c1.3-1.7,2-3.8,2-6c0-6.1-5.6-11-12.5-11C5.6,0,0,4.9,0,11c0,2.4,0.9,4.7,2.4,6.5
				c0.1,0.2,0.2,0.4,0.1,0.6l-1.5,4.1c-0.1,0.3,0.2,0.6,0.5,0.5l4.2-2.1c0.2-0.1,0.4-0.1,0.6,0c1.8,0.9,3.9,1.4,6.1,1.4
				c0.2,0,0.4,0,0.7,0C15.3,19.2,18.8,17.3,22.9,17z"/>
		</g>
		<g>
			<g>
				<path class="st1" d="M14.4,11.5c-1.1,1-1.3,2.2-1.3,2.2h-1.8l0,0c0,0,0.1-2,1.5-3.1c0.8-0.6,0.9-1.2,0.9-1.8
					c0-0.9-0.5-1.7-1.5-1.7c-1.5,0-1.5,1.4-1.5,1.9H8.6c0-0.6,0.1-1.4,0.6-2.3c0.8-1.4,2.3-1.6,3.1-1.6c2,0,3.7,1.2,3.7,3.4
					C15.9,9.6,15.7,10.4,14.4,11.5z M11.3,16.7v-1.9h2v1.9H11.3z"/>
			</g>
		</g>
	</g>
</g>
</svg>
