<?xml version="1.0" encoding="utf-8"?>
<svg xmlns="http://www.w3.org/2000/svg" xmlns:xlink="http://www.w3.org/1999/xlink" x="0px"
	 y="0px" viewBox="0 0 24 24" style="enable-background:new 0 0 24 24;" xml:space="preserve">
<style type="text/css">
	.st0{fill:#7ECA49;}
</style>
<path class="st0" d="M21.4,12.9c-0.6-0.4-0.6-1.2,0-1.6l2.4-1.8c0.4-0.3,0.5-0.8,0.3-1.2l-0.8-2c-0.4-0.5-0.8-0.7-1.3-0.7l-3,0.5
	c-0.7,0.1-1.3-0.5-1.2-1.2l0.5-3c0.1-0.5-0.2-0.9-0.6-1.1l-2-0.8c-0.4-0.2-0.9,0-1.2,0.3l-1.8,2.4c-0.4,0.6-1.2,0.6-1.6,0L9.4,0.4
	C9.1,0,8.6-0.1,8.2,0.1l-2,0.8C5.8,1.1,5.6,1.5,5.6,2l0.5,3c0.1,0.7-0.5,1.3-1.2,1.2L2,5.6c-0.5,0-0.9,0.2-1.1,0.7l-0.8,2
	c-0.2,0.4,0,0.9,0.3,1.2l2.4,1.8c0.6,0.4,0.6,1.2,0,1.6l-2.4,1.8C0,15-0.1,15.5,0.1,15.9l0.8,2c0.2,0.4,0.6,0.7,1.1,0.6L5,18
	c0.7-0.1,1.3,0.5,1.2,1.2l-0.5,3c-0.1,0.5,0.2,0.9,0.6,1.1l2,0.8c0.4,0.2,0.9,0,1.2-0.3l1.8-2.4c0.4-0.6,1.2-0.6,1.6,0l1.8,2.4
	c0.3,0.4,0.8,0.5,1.2,0.3l2-0.8c0.4-0.2,0.7-0.6,0.6-1.1l-0.5-3c-0.1-0.7,0.5-1.3,1.2-1.2l3,0.5c0.5,0.1,0.9-0.2,1.1-0.6l0.8-2
	c0.2-0.4,0-0.9-0.3-1.2L21.4,12.9z M12,16.8c-2.7,0-4.8-2.1-4.8-4.8c0-2.7,2.1-4.8,4.8-4.8s4.8,2.1,4.8,4.8
	C16.8,14.7,14.7,16.8,12,16.8z"/>
</svg>
