<?xml version="1.0" encoding="utf-8"?>
<!-- Generator: Adobe Illustrator 25.2.1, SVG Export Plug-In . SVG Version: 6.00 Build 0)  -->
<svg version="1.1" id="レイヤー_1" xmlns="http://www.w3.org/2000/svg" xmlns:xlink="http://www.w3.org/1999/xlink" x="0px"
	 y="0px" width="36.2px" height="20.8px" viewBox="0 0 36.2 20.8" style="enable-background:new 0 0 36.2 20.8;"
	 xml:space="preserve">
<style type="text/css">
	.st0{fill:#00AAE7;}
	.st1{fill:#35318F;}
</style>
<rect x="6.2" y="1.7" class="st0" width="23.8" height="16"/>
<path class="st1" d="M34.9,18.2h-3.1V0.5c0-0.3-0.2-0.5-0.5-0.5H5C4.7,0,4.5,0.2,4.5,0.5v17.7H1.3c-0.7,0-1.3,0.6-1.3,1.3
	c0,0.7,0.6,1.3,1.3,1.3c0,0,0,0,0,0h33.6c0.7,0,1.3-0.6,1.3-1.3C36.2,18.8,35.6,18.2,34.9,18.2z M30,17.7H6.2v-16H30L30,17.7z"/>
</svg>
