<?xml version="1.0" encoding="utf-8"?>
<!-- Generator: Adobe Illustrator 27.6.1, SVG Export Plug-In . SVG Version: 6.00 Build 0)  -->
<svg version="1.1" id="レイヤー_1" xmlns="http://www.w3.org/2000/svg" xmlns:xlink="http://www.w3.org/1999/xlink" x="0px"
	 y="0px" width="74px" height="68px" viewBox="0 0 74 68" style="enable-background:new 0 0 74 68;" xml:space="preserve">
<style type="text/css">
	.st0{fill:#B3B3B3;}
	.st1{fill:#808080;}
	.st2{fill:#999999;}
	.st3{enable-background:new    ;}
	.st4{fill:#FFFFFF;}
</style>
<rect x="0.5" y="27.8" class="st0" width="74" height="40"/>
<polygon class="st1" points="0.5,27.8 74.5,27.8 37.5,56.8 "/>
<polygon class="st2" points="74,29 0,29 37,0 "/>
<g class="st3">
	<path class="st4" d="M31.3,15.5c0.2,1.1,0.4,2.2,0.8,3.9l2.3,10.4c0.1,0.5,0.2,0.8,0.4,1.2c0.3,0.6,0.9,0.7,1.5,0.4
		c0.7-0.4,1.5-1.3,2-2.4c1.2-2.5,1-5.9-0.6-8.9c-3.1-5.9-9.5-7.5-16-4c-7.8,4.1-10.7,12.4-6.9,19.8c1.7,3.3,4.4,5.6,7.6,6.6
		C26,43.5,29.8,43,33.6,41c2-1.1,4-2.5,5.4-4c1.1-1.1,1.7-2,2.8-4l3.7,1.9c-1.4,2.2-2.1,3.2-3.5,4.6c-2,1.9-4.3,3.7-6.7,5
		c-4.9,2.6-10,3.2-14.4,1.8c-4.2-1.3-7.7-4.4-10-8.7C7.9,32,8,25.8,11.2,20.5c2-3.3,4.8-5.9,8.8-8c8.5-4.5,17.3-2.2,21.4,5.4
		c2.3,4.4,2.4,9.4,0,13.3c-1,1.7-2.5,3.2-4,4c-1.4,0.7-2.8,0.8-3.7,0.2c-0.4-0.3-0.7-0.6-1-1.2c-0.2,1.3-0.4,1.9-0.9,2.6
		c-0.6,1-1.7,2-2.8,2.6c-3.5,1.9-7.1,0.4-9.4-3.9c-1.7-3.3-2.2-6.9-1.4-10.2c0.7-2.9,2.2-4.9,4.8-6.2c1-0.5,2.2-0.8,3.2-0.6
		c0.6,0.1,1,0.3,1.7,0.9l-0.4-1.8L31.3,15.5z M30,31c0.1-2.5-0.5-5.2-1.6-7.4c-1-1.8-2.2-2.4-3.6-1.6c-2,1-2.8,3.3-2.5,6.7
		c0.2,1.7,0.7,3.6,1.5,5c1.1,2,2.5,2.7,3.9,2C29,35,29.9,33.2,30,31z"/>
</g>
<polygon class="st0" points="37,57 0,28 0,68 74,68 74,28 "/>
<g class="st3">
	<path class="st4" d="M42.9,64.2l-8.9-6.4l4.9-6.7l8.9,6.4L42.9,64.2z M71.3,25.7l-21,26.7l-7.2-5.3L62,18.9L71.3,25.7z"/>
</g>
</svg>
