<?xml version="1.0" encoding="utf-8"?>
<!-- Generator: Adobe Illustrator 25.4.1, SVG Export Plug-In . SVG Version: 6.00 Build 0)  -->
<svg version="1.1" id="レイヤー_1" xmlns="http://www.w3.org/2000/svg" xmlns:xlink="http://www.w3.org/1999/xlink" x="0px"
	 y="0px" width="551px" height="266px" viewBox="0 0 551 266" style="enable-background:new 0 0 551 266;" xml:space="preserve">
<style type="text/css">
	.st0{fill:#BFE9BF;}
	.st1{fill:#00A600;}
	.st2{fill:#FFFFFF;}
	.st3{fill:#FFFFFF;stroke:#002A00;stroke-width:1.5016;stroke-linecap:round;stroke-linejoin:round;stroke-miterlimit:10;}
	.st4{fill:none;stroke:#002A00;stroke-width:1.5016;stroke-linecap:round;stroke-linejoin:round;stroke-miterlimit:10;}
	.st5{fill:#002A00;}
	.st6{fill:#FFFFFF;stroke:#FFFFFF;stroke-width:0.2002;stroke-miterlimit:10;}
	.st7{fill:none;stroke:#002A00;stroke-width:4;stroke-miterlimit:10;}
	.st8{fill:#BFE9BF;stroke:#002A00;stroke-width:1.5016;stroke-linecap:round;stroke-linejoin:round;stroke-miterlimit:10;}
	.st9{fill:none;stroke:#FFFFFF;stroke-width:1.5016;stroke-linecap:round;stroke-linejoin:round;stroke-miterlimit:10;}
	.st10{fill:none;}
</style>
<g>
	<path class="st0" d="M348,152.6h-92.9c-2.1,0-3.8-1.7-3.8-3.8V5.3c0-2.1,1.7-3.8,3.8-3.8H348c2.1,0,3.8,1.7,3.8,3.8v143.5
		C351.8,150.9,350.1,152.6,348,152.6z"/>
	<g>
		<path d="M287.5,126.3v2.1c0,2.2-0.1,3.4-0.5,4.5c-0.4,1.2-1.3,2.4-2.5,3.1l-0.9-1c2.1-1.5,2.6-2.7,2.6-6.5v-2.2H287.5z M290.5,126
			v8.3c1.6-0.8,3-2.6,3.5-4.6l1,1c-0.8,2.5-2.6,4.5-5,5.4l-0.9-0.7V126H290.5z"/>
		<path d="M308.1,130.2v1.3h-10.3v-1.3H308.1z"/>
		<path d="M320.1,127.6c-1.1,4.9-3.4,7.5-7.8,8.8l-0.7-1.2c1.9-0.5,3.6-1.4,4.7-2.5c-0.9-0.8-1.9-1.6-3-2.2l0.8-1
			c1,0.5,2.1,1.3,3.1,2.1c0.7-1.1,1.3-2.5,1.4-3.5h-4.1c-0.9,1.5-2.1,2.6-3.3,3.4l-0.9-0.9c1.8-1.1,3.5-3.1,4-5l1.3,0.3
			c-0.1,0.4-0.3,0.7-0.4,1h4.2L320.1,127.6z"/>
	</g>
	<g>
		<path d="M448.6,135c4.3-1.5,6.6-4.3,7.4-9l1.4,0.3c-1.1,5.3-3.4,8.1-8,9.9L448.6,135z"/>
		<path d="M471,130.2v1.3h-10.3v-1.3H471z"/>
		<path d="M477,125.7v3.4c2.2,0.7,4.4,1.5,5.8,2.2l-0.7,1.3c-1.3-0.7-3.3-1.5-5.1-2.1v6h-1.4v-10.7H477z"/>
		<path d="M485.4,135c1.4-2,2.5-5.6,2.8-8.5l1.3,0.3c-0.6,4.1-1.6,7.3-3,9.2L485.4,135z M494.7,136c-1.3-2.1-2.6-5.8-3.3-9.3
			l1.3-0.4c0.6,3.1,1.8,6.5,3.2,8.8L494.7,136z M496.6,126.7c0,0.8-0.7,1.5-1.5,1.5c-0.8,0-1.5-0.7-1.5-1.5s0.7-1.5,1.5-1.5
			C495.9,125.3,496.6,125.9,496.6,126.7z M494.4,126.7c0,0.4,0.3,0.8,0.8,0.8c0.4,0,0.8-0.3,0.8-0.8c0-0.4-0.3-0.8-0.8-0.8
			C494.7,126,494.4,126.3,494.4,126.7z"/>
		<path d="M500.2,131.2c-0.5-1.4-1-2.7-1.9-4.4l1.2-0.6c0.7,1.2,1.4,2.8,2,4.4L500.2,131.2z M500.3,135.1c4.1-1.3,5.7-3.7,6.2-9.1
			l1.3,0.3c-0.6,5.7-2.4,8.3-6.7,10L500.3,135.1z"/>
		<path d="M520,126.7v8.9h-8.8v-1.2h7.4V128h-7.2v-1.2H520z"/>
		<path d="M527.6,128.9c-1.2-0.5-2.6-1-3.9-1.3l0.4-1.3c1.5,0.3,2.9,0.8,3.9,1.3L527.6,128.9z M523.9,134.7c5.1-0.3,7.4-2.3,8.3-7.2
			l1.1,0.8c-1,5.1-3.5,7.2-9.1,7.8L523.9,134.7z"/>
	</g>
	<g>
		<path d="M233.9,23.7c-4.4,0-8-3.6-8-8s3.6-8,8-8s8,3.6,8,8C241.9,20.1,238.3,23.7,233.9,23.7z M226.5,15.7c0,4.1,3.3,7.4,7.4,7.4
			s7.4-3.3,7.4-7.4s-3.3-7.4-7.4-7.4C229.8,8.2,226.5,11.6,226.5,15.7z M230.8,20v-1l1.1-0.9c2.4-2.2,3.2-3,3.2-4.1
			c0-0.8-0.4-1.5-1.7-1.5c-0.8,0-1.5,0.4-2,0.8l-0.4-1.2c0.7-0.5,1.7-0.9,2.7-0.9c2.1,0,3,1.4,3,2.6c0,1.6-1.1,2.6-3,4.2l-0.7,0.6v0
			h4V20H230.8z"/>
	</g>
	<g>
		<path class="st1" d="M429.9,72.6c0.2-0.2,0.3-0.2,0.4-0.2s0.3,0.1,0.4,0.2l4.2,4.2c0.4,0.4,0.4,0.5,0,0.9l-4.3,4.3
			c-0.5,0.4-0.7,0.2-0.8,0.2c-1.2-1.1-1.9-2.9-1.9-4.9C428,75.4,428.7,73.6,429.9,72.6L429.9,72.6z"/>
		<path class="st1" d="M412.8,55.8c0.1-0.1,0.3-0.1,0.4-0.1c0.2,0,0.4,0.1,0.5,0.2l3.9,3.9c0.1,0.1,0.2,0.2,0.2,0.3
			c0,0.1-0.1,0.2-0.2,0.3c-4.7,4.4-7.3,10.7-7.1,17.2c-0.1,6.5,2,11.7,6.8,16.9c0.3,0.3,0.3,0.9,0,1.2l-3.6,3.6
			c-0.2,0.2-0.3,0.2-0.6,0.2c-0.2,0-0.4-0.1-0.6-0.3C400.6,86.4,400.7,67.7,412.8,55.8z"/>
		<path class="st1" d="M421.4,64.5c0.1-0.1,0.3-0.1,0.5-0.1c0.2,0,0.3,0,0.5,0.2l3.9,3.9c0.1,0.1,0.2,0.2,0.2,0.3
			c0,0.1-0.1,0.2-0.2,0.3c-3.9,3.9-5,12.3-0.4,16.9c0.1,0.2,0.2,0.4,0.2,0.6c0,0.2-0.1,0.4-0.2,0.6l-3.6,3.6c-0.3,0.3-0.9,0.3-1.2,0
			c-3.3-3.3-5.1-8-5-13.1C416.1,72.6,418.1,67.8,421.4,64.5z"/>
	</g>
	<g>
		<path class="st1" d="M351.9,54.8c-0.2,0.2-0.3,0.2-0.4,0.2c-0.1,0-0.3-0.1-0.4-0.2l-4.2-4.2c-0.4-0.4-0.4-0.5,0-0.9l4.3-4.3
			c0.5-0.4,0.7-0.2,0.8-0.2c1.2,1.1,1.9,2.9,1.9,4.9C353.8,52,353.1,53.8,351.9,54.8L351.9,54.8z"/>
		<path class="st1" d="M369.1,71.6c-0.1,0.1-0.3,0.1-0.4,0.1c-0.2,0-0.4-0.1-0.5-0.2l-3.9-3.9c-0.1-0.1-0.2-0.2-0.2-0.3
			c0-0.1,0.1-0.2,0.2-0.3c4.7-4.4,7.3-10.7,7.1-17.2c0.1-6.5-2-11.7-6.8-16.9c-0.3-0.3-0.3-0.9,0-1.2l3.6-3.6
			c0.2-0.2,0.3-0.2,0.6-0.2c0.2,0,0.4,0.1,0.6,0.3C381.3,41,381.1,59.7,369.1,71.6z"/>
		<path class="st1" d="M360.4,62.9c-0.1,0.1-0.3,0.1-0.5,0.1c-0.2,0-0.3,0-0.5-0.2l-3.9-3.9c-0.1-0.1-0.2-0.2-0.2-0.3
			c0-0.1,0.1-0.2,0.2-0.3c3.9-3.9,5-12.3,0.4-16.9c-0.1-0.2-0.2-0.4-0.2-0.6c0-0.2,0.1-0.4,0.2-0.6l3.6-3.6c0.3-0.3,0.9-0.3,1.2,0
			c3.3,3.3,5.1,8,5,13.1C365.7,54.8,363.8,59.6,360.4,62.9z"/>
	</g>
	<g>
		<path class="st2" d="M286.1,106.7c0,0,0.1,0.1,0.1,0.1c1.7,3,10.5,0.7,10.5,0.7l0,0l30.2-5c2.1-0.3,3.4-2.6,2.5-4.6l-3.9-8.6
			c-0.2-0.4-0.2-0.8,0-1.1c0.5-0.7,1.2-2.4,1.2-5.3c0-1.1,0-27.4,0-36.9V32.5c0-1,0-1.3,0-1.3c0,0,0,0,0,0c0,0,0-0.3,0-1.4
			c0-6.7-3-9.7-6.7-10.1c-3.4-0.3-33.6-2.8-39.6-3.3c-0.6,0-1.2,0.3-1.4,0.9l-0.4,2.1c-0.2,0.6,0,1.2,0.5,1.5
			c1.1,0.8,4.6,2.6,4.6,6.2v62.9c0,0.4-0.1,0.7-0.4,1l-8.5,7.3c-0.6,0.6-0.8,1.2-0.8,2.1c0,2,0.4,6.8,2.4,6.5l7.8-2.8L286.1,106.7z"
			/>
		<g>
			<path class="st1" d="M279.4,20c-0.6,0-1.2,0.3-1.4,0.9l-1.2,5.7c-0.2,0.6,0,1.2,0.5,1.5c1.1,0.8,1.7,1.5,1.7,5.1v50.4
				c0,3.6-1.8,5.4-2.9,6.2c-0.5,0.4-0.8,1-0.6,2l0.8,6c0.2,0.6,0.8,1,1.4,0.9l9-6.5v-65L279.4,20z"/>
		</g>
		<g>
			<g>
				<path class="st3" d="M326.6,32.5c0-2.8,0,0.2,0-2.8c0-6.7-3-9.7-6.7-10.1c-3.4-0.3-33.6-2.8-39.6-3.3c-0.6,0-1.2,0.3-1.4,0.9
					l-0.4,2.1c-0.2,0.6,0,1.2,0.5,1.5c1.1,0.8,4.6,2.6,4.6,6.2v62.9c0,0.4-0.1,0.7-0.4,1l-8.5,7.3c-0.6,0.6-0.8,1.2-0.8,2.1
					c0,2,0.4,6.8,2.4,6.5l7.8-2.8"/>
				<path class="st3" d="M287.5,98.7l3.3,6.6c0.9,1.7,3,2.8,4.8,2.5l31.2-5.2c2.1-0.3,3.4-2.6,2.5-4.6l-3.9-8.6
					c-0.2-0.4-0.2-0.8,0-1.1c0.5-0.7,1.2-2.4,1.2-5.3c0-1.1,0-24.3,0-33.7"/>
			</g>
			<g>
				<line class="st4" x1="300.2" y1="92.6" x2="324.8" y2="89.1"/>
				<path class="st4" d="M281.9,16.6c2.2,0.2,9.3,2.9,9.3,8.1V94l3.9-0.6"/>
			</g>
			<path class="st4" d="M296.7,107.6c0,0-8.8,2.2-10.5-0.7c-1.4-2.4-3.6-6.2-3.6-6.2l-7.6,5.1"/>
		</g>
		<g>
			<line class="st4" x1="287.3" y1="42.6" x2="287.3" y2="51.5"/>
			<line class="st4" x1="287.3" y1="55.9" x2="287.3" y2="64.9"/>
			<line class="st4" x1="287.3" y1="29.3" x2="287.3" y2="38.2"/>
			<line class="st4" x1="287.3" y1="69.3" x2="287.3" y2="78.2"/>
		</g>
		<line class="st3" x1="326.6" y1="38.6" x2="326.6" y2="43.1"/>
	</g>
	<g>
		<path class="st1" d="M304,153l7.1,24.4c0.2,0.9,1,1.4,1.9,1.4h231.2c2.2,0,4,1.8,4,4v76.6c0,2.2-1.8,4-4,4H6.6c-2.2,0-4-1.8-4-4
			v-76.6c0-2.2,1.8-4,4-4h288.6c0.9,0,1.7-0.6,1.9-1.5L304,153 M304,148.1c-0.3,0-0.7,0.2-0.8,0.5l-7.9,28.2H6.6c-3.3,0-6,2.7-6,6
			v76.6c0,3.3,2.7,6,6,6h537.6c3.3,0,6-2.7,6-6v-76.6c0-3.3-2.7-6-6-6H313l-8.2-28.2C304.6,148.3,304.3,148.1,304,148.1L304,148.1z"
			/>
	</g>
	<g>
		<path class="st1" d="M82.4,207.4c0,5-4.2,9.1-9.1,9.1c-5,0-9.1-4.2-9.1-9.2c0-5,4.2-9.1,9.2-9.1C78.2,198.2,82.4,202.4,82.4,207.4
			z M65.2,207.4c0,4.4,3.7,8.1,8.1,8.1c4.4,0,8.1-3.7,8.1-8.1c0-4.4-3.7-8.1-8.1-8.1C68.9,199.3,65.2,203,65.2,207.4z M72.1,204.1
			c-0.9,0.3-2.2,0.6-3,0.7l-0.6-2.4c1.5-0.3,3.3-0.9,4.2-1.4h2.5v12.8h-3.2V204.1z"/>
		<path class="st1" d="M87.3,202.3c0.2-1.1,0.4-2.1,0.6-3.5l3.2,0.3c-0.2,1.1-0.2,1.4-0.5,2.8l-0.1,0.3h1c2.9,0,4,1.2,4,4.4
			c0,2.1-0.5,5.6-1.1,7c-0.5,1.3-1.3,1.8-2.6,1.8c-1,0-1.8-0.2-3.3-0.8l0.2-2.9c0.9,0.4,2.1,0.8,2.5,0.8c0.2,0,0.3-0.1,0.4-0.4
			c0.5-1.5,0.9-4,0.9-5.8c0-1.1-0.2-1.4-1.2-1.4h-1.4c-0.8,3.6-2.4,7.9-3.8,10.5l-2.9-1.7c1.4-2.4,2.7-5.5,3.6-8.8h-3.1v-2.8H87.3z
			 M97.5,202.6c-0.4-1-1-2.2-2-3.5l1.5-0.6c0.8,1.1,1.5,2.2,2,3.4L97.5,202.6z M98.6,211c-0.6-2.5-1.6-5.2-2.7-7.1l2.8-1.1
			c1.2,1.8,2.2,4.2,3,7.1L98.6,211z M100.3,202.1c-0.5-1.2-1.2-2.5-1.9-3.5l1.5-0.6c0.8,0.9,1.4,2,1.9,3.3L100.3,202.1z"/>
		<path class="st1" d="M102.3,201.9c2.5-0.6,4.8-1.4,7.2-2.5l2.1,2.5c-1.8,1.4-2.8,2.4-3.7,3.7c-0.8,1.3-1.3,2.6-1.3,3.9
			c0,1,0.2,1.7,0.5,2.2c0.6,0.9,1.5,1.3,2.7,1.3c1.1,0,2-0.4,2.7-1.3c0.7-0.8,1-2,1-4c0-2.3-0.3-4.5-1-6.8l2.7-1
			c1.2,2.8,2.9,5.3,4.8,7.1l-1.7,2.7c-1-1-2-2.7-2.6-4.2c0.4,1.5,0.6,2.6,0.6,3.8c0,4.4-2.2,6.7-6.6,6.7c-2.2,0-4-0.8-4.9-2.1
			c-0.8-1.1-1.2-2.5-1.2-4c0-2.5,1.3-5.1,3.5-7c-1.3,0.9-2.7,1.5-4.2,1.9L102.3,201.9z"/>
		<path class="st1" d="M125.6,202.3c0.2-1.1,0.4-2.1,0.6-3.5l3.2,0.3c-0.2,1.1-0.2,1.4-0.5,2.8l-0.1,0.3h1c2.9,0,4,1.2,4,4.4
			c0,2.1-0.5,5.6-1.1,7c-0.5,1.3-1.3,1.8-2.6,1.8c-1,0-1.8-0.2-3.3-0.8l0.2-2.9c0.9,0.4,2.1,0.8,2.5,0.8c0.2,0,0.3-0.1,0.4-0.4
			c0.5-1.5,0.9-4,0.9-5.8c0-1.1-0.2-1.4-1.2-1.4h-1.4c-0.8,3.6-2.4,7.9-3.8,10.5l-2.9-1.7c1.4-2.4,2.7-5.5,3.6-8.8h-3.1v-2.8H125.6z
			 M136.4,209.7c-0.7-2.8-1.9-6-3.2-8.1l2.8-1.3c1.4,2.2,2.7,5.2,3.5,8.1L136.4,209.7z"/>
		<path class="st1" d="M149,206.8c-1.2,2.4-2.6,3.8-3.9,3.8c-0.8,0-1.4-0.5-1.9-1.5c-0.4-0.8-0.6-2.3-0.6-3.9c0-1.6,0.3-4,0.7-6
			l3,0.5c-0.5,2-0.7,3.5-0.7,4.9c0,1.6,0.1,2.3,0.2,2.3c0.2,0,0.8-1.1,1.4-2.3L149,206.8z M146.4,213.4c2-0.5,3.3-1.2,4.4-2.3
			c1.1-1.1,1.6-2.8,1.6-5.3c0-1.8-0.2-4.4-0.5-6.5l3.2-0.3c0.3,2.3,0.5,4.9,0.5,6.9c0,3.5-0.8,5.8-2.5,7.4c-1.1,1.1-3,2-5.1,2.6
			L146.4,213.4z"/>
		<path class="st1" d="M166.7,200.6h-5.4v-1.9h13.8v1.9h-5.5v0.5h7.5v4.1h-3v-2.4h-4.5v3.7h-3v-3.7h-4.4v2.4h-2.9v-4.1h7.3V200.6z
			 M177.4,213.3c-0.1,1.4-0.2,1.8-0.5,2.2c-0.5,0.7-1.7,0.9-5.2,0.9c-2.5,0-3.5-0.1-4.1-0.4c-0.6-0.3-0.9-0.7-0.9-1.3v-1.4h-2.8v1.1
			h-3v-7.6h14.9v6L177.4,213.3z M166.1,203.3v1.2h-3v-1.2H166.1z M166.1,205v1.3h-3V205H166.1z M163.8,208.6v0.7h2.8v-0.7H163.8z
			 M163.8,210.8v0.7h2.8v-0.7H163.8z M169.7,209.3h3v-0.7h-3V209.3z M169.7,211.5h3v-0.7h-3V211.5z M169.7,213.3v0.2
			c0,0.3,0.1,0.4,0.2,0.5c0.2,0.1,1.2,0.1,2.1,0.1c0.9,0,1.9-0.1,2.2-0.2c0.3-0.1,0.3-0.1,0.4-0.6H169.7z M173.5,203.3v1.2h-3.1
			v-1.2H173.5z M173.5,205v1.3h-3.1V205H173.5z"/>
		<path class="st1" d="M189.6,201.6c-1.2,0.1-1.7,0.1-2.8,0.2l-0.9-2.3c3-0.1,6-0.5,8.2-1.1l1.6,2.3c-0.8,0.2-2,0.5-3,0.6
			c-0.2,0-0.2,0-0.3,0v2.2h3.8v2.7h-3.8v2.1h3v8.1h-2.8v-0.8h-3.4v0.8h-2.8v-8.1h3v-2.1h-3.7v-2.5h-7.6v-2.3h7.7v2h3.6V201.6z
			 M185.5,215.8h-4.2v0.7h-2.6v-6.6h6.8V215.8z M185.1,198.8v2.2h-6v-2.2H185.1z M184.9,204.4v2.1H179v-2.1H184.9z M184.9,207.1v2.1
			H179v-2.1H184.9z M181.2,213.5h1.7V212h-1.7V213.5z M189.4,213h3.4v-2.1h-3.4V213z"/>
		<path class="st1" d="M206.8,201.2v1h4.1v-3.8h3v3.8h1.6v2.9h-1.6v8.9c0,1.8-0.6,2.4-2.3,2.4c-0.8,0-1.9,0-2.8-0.1l-0.6-2.8
			c0.7,0.1,1.7,0.2,2.2,0.2c0.4,0,0.5-0.1,0.5-0.5V205h-4.2v-1h-1c-0.1,1.6-0.5,3.6-1.1,5.4c0.9,1.1,1.8,2.3,2.4,3.1l-2.1,2.5
			l-0.8-1.2c-0.4-0.6-0.5-0.8-1-1.4c-1.1,1.7-2.5,3.2-3.9,4.1l-1.9-2.4c1.5-0.9,3-2.5,4-4.2c-1.1-1.4-2.2-2.6-3.2-3.6l2-2
			c0.5,0.6,0.8,0.9,1.1,1.1c0.1,0.1,0.3,0.3,0.6,0.7c0.2,0.2,0.5,0.5,0.7,0.8l0.1,0.1l0,0c0.2-0.9,0.4-1.9,0.5-2.8h-5.6v-2.8h3.3
			v-2.8h3v2.8H206.8z M207.9,211.9c-0.5-1.9-1.1-3.8-1.9-5.2l2.5-1.3c0.8,1.6,1.6,3.6,1.9,5.2L207.9,211.9z"/>
		<path class="st1" d="M226.6,203.1c1.4,0.6,2.8,1.4,4.2,2.3l-2.1,2.3c-0.6-0.4-1.2-0.9-1.7-1.2v6.4c0,0.3,0.1,0.4,0.6,0.4
			c0.5,0,0.7-0.1,0.8-0.2s0.1-0.9,0.1-1.9l0-0.5l2.2,0.7c-0.6-1.2-1-2-1.6-2.9l2.3-1.5c1.3,1.9,2.6,4.1,3.2,5.7l-2.4,2
			c-0.3-0.7-0.5-1.1-0.9-2.2c-0.1,1.8-0.2,2.6-0.7,3.1c-0.5,0.5-1.6,0.7-3.4,0.7c-2.6,0-3.3-0.4-3.3-2.3v-7.6h3l-0.2-0.1l-0.1,0
			c-0.8-0.5-1.9-1.1-2.8-1.6l1.6-1.6h-5.2v2.8c0,4.4-0.6,7.6-1.8,10.5l-2.5-2.5c0.8-1.7,1.2-4.6,1.2-8v-5.6h6.7v-1.9h3.3v1.9h6.9
			v2.8H226.6z M219.6,213.3c0.6-1.4,1.2-3.9,1.3-6.1l2.8,0.6c-0.2,3.4-0.8,5.8-1.6,7.3L219.6,213.3z"/>
		<path class="st1" d="M252.6,210.9c-0.7,0.9-1.2,1.4-2,2.1c0.3,0.3,0.6,0.5,0.7,0.5c0.2,0,0.4-0.5,0.4-1.3l1.9,1.3
			c-0.1,0.6-0.2,1.2-0.4,1.8c-0.3,0.8-0.7,1.2-1.3,1.2c-0.9,0-2.2-0.7-3.2-1.8c-1,0.7-2,1.3-3.2,1.8l-1.5-2.1c1.1-0.4,2.2-1,3.2-1.6
			c-0.4-0.8-0.7-1.8-0.9-2.9h-1.6l0,0.3c0,0.1,0,0.1,0,0.2c0.9,0.6,1.3,1.1,2,1.8l-1.6,1.6c-0.2-0.3-0.6-0.8-0.9-1.2
			c-0.5,1.6-1.3,2.8-2.4,3.9l-1.7-1.9c1.2-1.1,2-2.8,2.2-4.8h-0.9v-1.9l-0.9,1.7c-0.3-0.4-0.4-0.7-0.7-1v7.8h-2.5v-7.1
			c-0.4,1.4-0.8,2.5-1.2,3.3l-1.1-3.2c0.8-1.3,1.6-3.1,2-4.9h-1.7v-2.7h2v-3.6h2.5v3.6h1.2l0.9-0.7c0.5-0.9,0.8-1.7,1.2-2.9l1.9,0.8
			c-0.5,0.9-0.9,1.8-1.6,2.7c0.2,0.2,0.3,0.3,0.4,0.5c0.4-0.6,0.6-1,1-1.8l1.1,0.7l0-3h2.4l0,3.1l0.6-0.5c0.4-0.7,0.8-1.7,1.2-2.6
			l1.9,0.8c-0.4,0.8-1,1.7-1.5,2.5c0,0,0.1,0.1,0.2,0.2c0.1,0.1,0.1,0.2,0.2,0.3c0.2-0.3,0.7-1,1-1.7l1.6,1
			c-0.6,0.9-1.3,1.9-2.2,2.9c0.1,0,0.2,0,0.4-0.1l1.2-0.7c0.4,0.8,0.7,1.6,0.9,2.5l-1.8,0.6c-0.1-0.4-0.1-0.5-0.1-0.7
			c-1,0.2-2.2,0.4-3.4,0.6l0,0.5c0,0.2,0,0.2,0,0.4h1c-0.1-0.3-0.2-0.4-0.3-0.6l2-0.3c0.2,0.4,0.4,0.6,0.5,0.9h1.7v2.3h-2.4
			L252.6,210.9z M244.4,207.1l-0.1-0.6c-0.9,0.2-2,0.3-2.9,0.4l-0.5-2c0.3,0,0.9,0,1,0c0.1-0.1,0.2-0.2,0.2-0.2
			c0.2-0.2,0.3-0.4,0.5-0.6c-0.4-0.5-1.1-1.4-1.5-1.8v2.4h-1.3v1.4l0.4,0.4c0.4,0.3,0.9,0.7,1.2,1.1h4.7l0-0.3l0-0.3l0-0.2v-0.1
			L244.4,207.1z M245.9,202.1c-0.7,1.1-1,1.6-1.9,2.6h0.1l1.3-0.7c0.3,0.7,0.6,1.6,0.7,2.4c-0.1-1.4-0.1-1.4-0.1-2.8L245.9,202.1z
			 M248.3,203.6c0,0.2,0,0.5,0,0.8v0.2c0.2,0,0.3,0,0.6,0l0.1-0.1c0.2-0.2,0.4-0.5,0.6-0.8c-0.5-0.6-0.8-1-1.4-1.5L248.3,203.6z
			 M248.7,209.8c0.1,0.5,0.3,1,0.5,1.4c0.7-0.7,0.8-0.8,1.2-1.4H248.7z"/>
		<path class="st1" d="M266.4,209.5c-0.7-0.6-1.2-1-1.7-1.6H262c-0.6,0.6-1.3,1.1-1.9,1.6h2.6v6.8h-2.6v-0.6h-1.7v0.7h-2.6v-4.3
			l-0.2,0.1l-0.3,0.2l-1.4-2.5c1.2-0.4,2.5-1,3.6-1.7h-3.2v-2.6h6.4c0.2-0.3,0.4-0.5,0.7-0.8h-5.9v-5.8h7.2v5.2l1.4,0.2v-5.4h7.3
			v5.8h-6.4l-0.2,0.3c-0.1,0.2-0.1,0.2-0.4,0.5h8.1v2.6h-3.6c1.3,0.7,2.6,1.1,4,1.4l-1.3,2.7l-0.5-0.2v4.4h-2.7v-0.7h-1.7v0.7h-2.6
			v-6.9H266.4z M258.1,202.6h1.8v-1.5h-1.8V202.6z M258.4,213.4h1.7v-1.7h-1.7V213.4z M266.4,213.4h1.7v-1.7h-1.7V213.4z
			 M266.6,202.6h1.9v-1.5h-1.9V202.6z"/>
		<path class="st1" d="M278.2,209.5c1.4-0.7,2.6-1.4,3.7-2.1l0.8,2.6c-1.9,1.5-4.8,3.1-8.4,4.7l-1.3-3.1c1-0.3,1.5-0.5,2.1-0.8
			l-0.3-11.2h3.1L278.2,209.5z M289.7,216.2c-0.9-1.3-2-2.4-3.3-3.5c-1.3,1.5-3.2,2.6-5.9,3.6l-1.7-2.8c2.8-0.6,5.2-2.4,6.2-4.5
			c0.8-1.7,1.2-4,1.2-7.8V199h3.3v1.9c0,4.6-0.4,7.1-1.5,9.4c1.4,0.9,2.7,1.9,3.7,3L289.7,216.2z M282.6,206.6
			c-0.9-1.7-2.4-3.8-3.6-5.1l2.4-1.7c1.4,1.4,2.9,3.4,3.8,5L282.6,206.6z"/>
		<path class="st1" d="M302.3,201.4c-0.1,0.8-0.1,0.8-0.2,1.7c0.6,0.6,0.9,0.9,1.4,1.4v-6.1h3v8.3c1.2,0.8,2.7,1.4,4.1,2l-1.3,3
			c-1.1-0.5-1.8-0.9-2.8-1.5v6.3h-3V208c-0.6-0.5-1.4-1.2-2-1.8c-0.5,2-1.2,3.7-2.1,5.1c-1.3,2-3.3,3.9-5.2,4.9l-2-2.4
			c2.1-1.1,3.9-2.9,5.1-4.8c-0.2-0.1-0.3-0.2-0.5-0.4c-0.5-0.4-0.8-0.7-1.4-1.1l-0.4-0.3c-0.5,0.7-0.8,1.1-1.3,1.8l-1.7-2.6
			c1.6-1.9,3-5.2,3.5-8.2l2.9,0.6c-0.2,0.9-0.3,1.1-0.4,1.4h2.9L302.3,201.4z M296.5,205c0.7,0.4,1.3,0.8,2,1.3
			c0.3-1.1,0.6-2.1,0.7-3.2H297c-0.2,0.6-0.4,1.1-0.7,1.7L296.5,205z"/>
		<path class="st1" d="M313,200.5c5.8-0.1,11.1-0.2,14.8-0.4l0.2,2.9c-2.7,0.2-3.7,0.4-4.8,0.9c-2.3,1-3.7,2.9-3.7,5.1
			c0,1,0.3,1.7,1,2.3c0.8,0.6,2.6,1.1,4.9,1.4l-0.7,3.1c-3.2-0.3-5.3-1.1-6.6-2.3c-1.2-1.2-1.8-2.6-1.8-4.5c0-1.4,0.6-2.8,1.6-4
			c0.7-0.9,1.4-1.4,2.5-1.8l-0.7,0c-3.3,0.2-5.3,0.3-7.6,0.4l-0.2-3.1L313,200.5z M325.6,209.1c-0.4-1-1.1-2.2-2-3.5l1.5-0.6
			c0.8,1.1,1.4,2.1,2,3.4L325.6,209.1z M328.1,208.1c-0.4-1.2-1.1-2.4-1.9-3.5l1.5-0.6c0.7,0.9,1.4,1.9,2,3.3L328.1,208.1z"/>
		<path class="st1" d="M339,199l-0.4,2.2h4.8v2.8h-5.3l-0.3,1.9h4.4v2.8h-4.8c-0.2,1-0.2,1.5-0.2,2c0,1.5,1,2.2,3,2.2
			c2.3,0,3.5-0.8,3.5-2.3c0-0.9-0.2-1.8-0.5-2.9l2.9-0.2c0.5,1.1,0.8,2.2,0.8,3.1c0,1.6-0.7,3.1-1.8,3.9c-1.2,0.9-3,1.4-4.9,1.4
			c-2.1,0-3.9-0.6-5-1.7c-0.8-0.8-1.2-1.9-1.2-3.4c0-0.6,0.1-1.3,0.2-2.2h-3.1v-2.8h3.6l0.3-1.9h-3.8v-2.8h4.3l0.4-2.4L339,199z"/>
		<path class="st1" d="M353.8,216.4c-1.3-2.1-2.8-4.2-4-5.5l2.3-2c1.4,1.5,3.1,3.6,4.2,5.3L353.8,216.4z"/>
		<path class="st1" d="M82.4,237.5c0,5-4.2,9.1-9.1,9.1c-5,0-9.1-4.2-9.1-9.2c0-5,4.2-9.1,9.2-9.1C78.2,228.3,82.4,232.5,82.4,237.5
			z M65.2,237.5c0,4.4,3.7,8.1,8.1,8.1c4.4,0,8.1-3.7,8.1-8.1c0-4.4-3.7-8.1-8.1-8.1C68.9,229.4,65.2,233.1,65.2,237.5z M68.3,241.2
			c0.4-1.4,1.9-3,3.9-4.1l0.3-0.2c2.1-1.2,2.5-1.6,2.5-2.4c0-0.8-0.7-1.4-1.7-1.4c-1.1,0-2.1,0.5-3.2,1.6l-2-1.7
			c1.3-1.5,3.2-2.3,5.2-2.3c2.7,0,4.8,1.7,4.8,3.9c0,1.1-0.3,1.9-1,2.6c-0.4,0.4-1,0.8-2.5,1.6l-0.3,0.2l-0.9,0.5
			c-1.2,0.6-1.7,1-2,1.6h6.7v2.7h-9.9V241.2z"/>
		<path class="st1" d="M84.8,245.9c-0.3-2.5-0.4-4.2-0.4-6.7c0-3.6,0.2-6.7,0.8-10.1l3,0.3c-0.5,3.1-0.7,5.7-0.7,9
			c0,2.6,0.1,4.7,0.5,7.2L84.8,245.9z M100.4,244.9c-1.3,0.2-3.1,0.3-4.7,0.3c-2,0-3.6-0.3-4.6-0.8c-1.3-0.7-2-1.9-2-3.4
			c0-1.2,0.4-2.3,1.1-3.2l2.6,1.1c-0.4,0.6-0.6,1.1-0.6,1.7c0,0.5,0.2,0.9,0.5,1c0.7,0.3,1.8,0.5,3.3,0.5c1.2,0,3.1-0.1,4.1-0.3
			L100.4,244.9z M99.6,230.6v3h-9.2v-3H99.6z"/>
		<path class="st1" d="M118.7,240.6c-0.3,0.9-0.7,1.6-1.2,2.3c0.7,0.3,1.9,0.8,3.1,1.3l-1.6,2.5c-1.5-0.7-2.2-1.1-3.8-1.8
			c-1.7,0.9-4,1.6-6,1.8l-1.2-2.4c1.2,0,2.4-0.2,3.9-0.6c-0.9-0.3-1.5-0.5-2.1-0.7c-0.3-0.1-0.3-0.1-0.7-0.2l0.3-0.5
			c0.4-0.7,0.7-1.1,0.9-1.6h-1.7V239c-0.4,0.2-0.8,0.3-1.4,0.5v5c0,1.3-0.7,2-2,2c-0.6,0-1.4,0-1.9-0.1l-0.5-2.9
			c0.4,0.1,0.8,0.2,1.2,0.2c0.3,0,0.4-0.1,0.4-0.4v-3c-0.1,0-0.3,0.1-0.4,0.1l-0.2,0c-0.2,0.1-0.5,0.1-1,0.2l-0.6-3
			c0.7-0.1,1.5-0.2,2.2-0.3v-3h-2v-2.8h2v-3.1h2.8v3.1h1.6v2.6h2.1c-0.2-0.6-0.4-0.9-0.6-1.4h-1.1v-2.6h3.8v-1.7h3v1.7h3.9v2.6h-1.2
			c-0.1,0.3-0.4,1-0.6,1.4h2.1v2.7h-4.8c-0.2,0.5-0.4,0.9-0.6,1.3h5.5v2.5H118.7z M107.1,234.3v2.4c0.7-0.2,1.1-0.3,1.6-0.4v-2
			H107.1z M108.9,238h2.7c0.4-0.8,0.4-0.8,0.6-1.3h-3.4L108.9,238z M113.5,240.6c-0.1,0.2-0.3,0.5-0.4,0.8c0.6,0.2,1.1,0.3,1.8,0.6
			c0.4-0.4,0.6-0.9,0.9-1.3H113.5z M113,232.7c0.2,0.5,0.4,1,0.5,1.4h1.5c0.2-0.5,0.4-0.9,0.6-1.4H113z"/>
		<path class="st1" d="M122.1,236.3c0.4-0.4,0.6-0.6,1-1c-0.7-1.1-1.4-2-2.1-2.7l1.4-2.1l0.3,0.3l0.1,0.1c0.6-0.8,1.2-1.9,1.6-2.7
			l2.3,1.3c-0.6,0.9-1.5,2.1-2.3,3.2c0.2,0.3,0.2,0.3,0.4,0.5c0.8-0.9,1.4-1.9,2.1-2.9l2,1.3c-1,1.5-2.3,3-3.7,4.5
			c0.6,0,1.2-0.1,1.7-0.1c-0.1-0.3-0.2-0.7-0.3-1.1l1.7-0.8c0.3,1,0.6,2,0.7,3.2v-1.4h10.2v3.8h-2.5v3.5c0,0.4,0.1,0.4,0.4,0.4
			c0.6,0,0.6-0.2,0.6-1.9v-0.1l2,0.7c0,1.5-0.1,2.5-0.3,3c-0.3,0.7-0.8,0.8-2.6,0.8c-2.1,0-2.5-0.3-2.5-1.8V239h2.4v-0.8h-5.2v1h2.1
			c0.1,4.7-1,6.5-4.2,7.4l-1.6-2.2c2.5-0.7,3.3-1.8,3.3-4.7h-2v-1.5l-1.6,1c0-0.4,0-0.6-0.1-0.7l-0.4,0.1l-0.1,0l-0.4,0.1v8h-2.5
			v-7.7l-0.7,0.1c-0.6,0.1-0.9,0.1-1.6,0.1l-0.4-2.7L122.1,236.3z M121,244.4c0.2-1.3,0.4-3,0.4-4.7l2.1,0.2c0,2.1-0.2,4.1-0.4,5.5
			L121,244.4z M127.1,243.6c-0.1-1.4-0.3-2.5-0.5-3.6l1.9-0.6c0.4,1.5,0.6,2.6,0.7,3.5L127.1,243.6z M132.6,228.4h2.7v1.5h4v2.4h-4
			v0.7h3.3v2.3h-9.3v-2.3h3.2v-0.7h-3.6v-2.4h3.6V228.4z"/>
		<path class="st1" d="M157.6,241c-0.7,0.9-1.2,1.4-2,2.1c0.3,0.3,0.6,0.5,0.7,0.5c0.2,0,0.4-0.5,0.4-1.3l1.9,1.3
			c-0.1,0.6-0.2,1.2-0.4,1.8c-0.3,0.8-0.7,1.2-1.3,1.2c-0.9,0-2.2-0.7-3.2-1.8c-1,0.7-2,1.3-3.2,1.8l-1.5-2.1c1.1-0.4,2.2-1,3.2-1.6
			c-0.4-0.8-0.7-1.8-0.9-2.9h-1.6l0,0.3c0,0.1,0,0.1,0,0.2c0.9,0.6,1.3,1.1,2,1.8l-1.6,1.6c-0.2-0.3-0.6-0.8-0.9-1.2
			c-0.5,1.6-1.3,2.8-2.4,3.9l-1.7-1.9c1.2-1.1,2-2.8,2.2-4.8h-0.9V238l-0.9,1.7c-0.3-0.4-0.4-0.7-0.7-1v7.8h-2.5v-7.1
			c-0.4,1.4-0.8,2.5-1.2,3.3l-1.1-3.2c0.8-1.3,1.6-3.1,2-4.9h-1.7V232h2v-3.6h2.5v3.6h1.2l0.9-0.7c0.5-0.9,0.8-1.7,1.2-2.9l1.9,0.8
			c-0.5,0.9-0.9,1.8-1.6,2.7c0.2,0.2,0.3,0.3,0.4,0.5c0.4-0.6,0.6-1,1-1.8l1.1,0.7l0-3h2.4l0,3.1l0.6-0.5c0.4-0.7,0.8-1.7,1.2-2.6
			l1.9,0.8c-0.4,0.8-1,1.7-1.5,2.5c0,0,0.1,0.1,0.2,0.2c0.1,0.1,0.1,0.2,0.2,0.3c0.2-0.3,0.7-1,1-1.7l1.6,1
			c-0.6,0.9-1.3,1.9-2.2,2.9c0.1,0,0.2,0,0.4-0.1l1.2-0.7c0.4,0.8,0.7,1.6,0.9,2.5l-1.8,0.6c-0.1-0.4-0.1-0.5-0.1-0.7
			c-1,0.2-2.2,0.4-3.4,0.6l0,0.5c0,0.2,0,0.2,0,0.4h1c-0.1-0.3-0.2-0.4-0.3-0.6l2-0.3c0.2,0.4,0.4,0.6,0.5,0.9h1.7v2.3h-2.4
			L157.6,241z M149.4,237.2l-0.1-0.6c-0.9,0.2-2,0.3-2.9,0.4l-0.5-2c0.3,0,0.9,0,1,0c0.1-0.1,0.2-0.2,0.2-0.2
			c0.2-0.2,0.3-0.4,0.5-0.6c-0.4-0.5-1.1-1.4-1.5-1.8v2.4h-1.3v1.4l0.4,0.4c0.4,0.3,0.9,0.7,1.2,1.1h4.7l0-0.3l0-0.3l0-0.2v-0.1
			L149.4,237.2z M150.9,232.2c-0.7,1.1-1,1.6-1.9,2.6h0.1l1.3-0.7c0.3,0.7,0.6,1.6,0.7,2.4c-0.1-1.4-0.1-1.4-0.1-2.8L150.9,232.2z
			 M153.3,233.7c0,0.2,0,0.5,0,0.8v0.2c0.2,0,0.3,0,0.6,0l0.1-0.1c0.2-0.2,0.4-0.5,0.6-0.8c-0.5-0.6-0.8-1-1.4-1.5L153.3,233.7z
			 M153.7,239.9c0.1,0.5,0.3,1,0.5,1.4c0.7-0.7,0.8-0.8,1.2-1.4H153.7z"/>
		<path class="st1" d="M171.4,239.6c-0.7-0.6-1.2-1-1.7-1.6H167c-0.6,0.6-1.3,1.1-1.9,1.6h2.6v6.8h-2.6v-0.6h-1.7v0.7h-2.6v-4.3
			l-0.2,0.1l-0.3,0.2l-1.4-2.5c1.2-0.4,2.5-1,3.6-1.7h-3.2v-2.6h6.4c0.2-0.3,0.4-0.5,0.7-0.8h-5.9v-5.8h7.2v5.2l1.4,0.2v-5.4h7.3
			v5.8h-6.4l-0.2,0.3c-0.1,0.2-0.1,0.2-0.4,0.5h8.1v2.6h-3.6c1.3,0.7,2.6,1.1,4,1.4l-1.3,2.7l-0.5-0.2v4.4h-2.7v-0.7h-1.7v0.7h-2.6
			v-6.9H171.4z M163.1,232.6h1.8v-1.5h-1.8V232.6z M163.4,243.5h1.7v-1.7h-1.7V243.5z M171.4,243.5h1.7v-1.7h-1.7V243.5z
			 M171.6,232.6h1.9v-1.5h-1.9V232.6z"/>
		<path class="st1" d="M185.5,246.5c-2.6-1.9-4.3-5.6-4.3-9.1c0-3.4,1.8-7.1,4.3-9h2.4c-2.8,3.2-3.9,5.9-3.9,9.1
			c0,3.2,1.2,5.9,3.9,9H185.5z"/>
		<path class="st1" d="M205.3,234.3h2.4v2.7h-2.4v1.8h1.8v2.6h-16.9v-2.6h2.2V237h-2.8v-2.7h2.8v-1.8c-0.4,0.4-0.7,0.6-0.9,0.8
			l-1.9-1.9c1.2-0.8,2.3-1.8,3-3.1l3.2,0.4c-0.3,0.5-0.5,0.8-0.8,1.2h11.8v2.6h-1.4V234.3z M189.6,245.1c0.8-1,1.4-2,2.1-3.5
			l2.7,0.9c-0.5,1.7-1.1,2.9-2,4.2L189.6,245.1z M195.5,246.5c-0.2-1.7-0.4-3-0.7-4.2l2.9-0.4c0.4,1.1,0.7,2.5,0.9,4.2L195.5,246.5z
			 M194.9,232.6v1.7h1v-1.7H194.9z M194.9,237v1.8h1V237H194.9z M198.3,232.6v1.7h1v-1.7H198.3z M198.3,237v1.8h1V237H198.3z
			 M199.8,246.3c-0.4-1.8-0.7-3.1-1.1-4.1l2.8-0.4c0.6,1.2,1,2.4,1.3,4L199.8,246.3z M201.7,232.6v1.7h1.1v-1.7H201.7z M201.7,237
			v1.8h1.1V237H201.7z M204.7,246.3c-0.3-1-0.9-2.5-1.8-4l2.7-0.8c0.7,0.9,1.4,2,2,3.5L204.7,246.3z"/>
		<path class="st1" d="M208.2,244.4c0.4-1.6,0.6-3.2,0.6-4.7l2.1,0.3c-0.1,2.6-0.3,4.1-0.6,5.4L208.2,244.4z M222.7,244.5
			c0,1.4-0.5,1.9-1.9,1.9c-0.7,0-1.3,0-1.9-0.1l-0.3-2.2c-0.4,0.7-1,1.3-1.7,2l-2-2c1.5-0.9,2.4-2,2.8-3.4H216v-1.8l-1.1,0.5
			c0-0.3-0.1-0.6-0.1-0.9c-0.1,0-0.2,0-0.3,0c-0.1,0-0.3,0.1-0.6,0.1v1.6l1.6-0.6c0.3,1,0.6,2.1,0.8,3.3l-1.8,0.6
			c-0.1-1.2-0.3-2.3-0.6-3.1v6.2h-2.7v-7.7c-1.4,0.1-1.7,0.2-2.5,0.2l-0.5-2.7h0.5h0.4h0.3c0.2-0.2,0.2-0.2,0.4-0.4
			c0.2-0.2,0.5-0.5,0.7-0.7c-0.8-1.1-1.5-1.9-2.2-2.6l1.5-2.1l0.5,0.5c0.6-0.9,1.2-1.8,1.6-2.7l2.4,1.3c-1,1.4-1.6,2.1-2.5,3l0.1,0
			l0,0.1c0.1,0.2,0.2,0.2,0.4,0.4c0.6-0.7,1.4-1.8,2-2.6l2.1,1.6c-1,1.2-2.3,2.5-4,4.1c0.4,0,0.9,0,1.8-0.1
			c-0.1-0.4-0.2-0.7-0.3-1.1l1.9-0.7c0.3,0.9,0.6,1.9,0.8,2.9v-7.4h2.8c0.2-0.5,0.3-1.1,0.3-1.6l2.9,0.3c-0.1,0.4-0.3,0.8-0.5,1.2h4
			v7.6h-0.9l1.8,1.7c-0.7,0.7-1.4,1.3-2.2,1.8c0.6,0.7,1.3,1.3,2.2,1.8l-1.4,2.9c-1.2-1.2-2.1-2.6-3-4.4V244.5z M216.9,237.8
			c0.1,0.3,0.1,0.3,0.1,0.5h2.2l0.9,1.1c-0.2,1.8-0.7,3.2-1.4,4.4c0.5,0.1,0.8,0.1,1,0.1c0.3,0,0.4-0.1,0.4-0.5v-5.9h-3.4
			L216.9,237.8z M219.4,232.7h4.2v-0.8h-4.2V232.7z M219.4,235.4h4.2v-0.9h-4.2V235.4z M222.7,237.5c0.3,0.7,0.5,1.2,0.9,1.8
			c0.5-0.5,0.9-1,1.5-1.8H222.7z"/>
		<path class="st1" d="M233.4,229.7v12.4h7v3.1h-10.6v-15.4H233.4z"/>
		<path class="st1" d="M251.4,229.7l6,15.5h-3.8l-1.3-3.7h-5.6l-1.3,3.7h-3.8l6-15.5H251.4z M250.1,235c-0.2-0.6-0.5-1.6-0.6-2.3
			h-0.1c-0.1,0.7-0.4,1.6-0.6,2.3l-1.3,3.7h3.8L250.1,235z"/>
		<path class="st1" d="M263.6,229.7l3.8,6.9c0.7,1.3,1.2,2.4,1.7,3.6h0.1c-0.1-1.2-0.2-3.5-0.2-5v-5.5h3.4v15.4h-3.6l-4.6-7.9
			c-0.6-1.1-1.4-2.7-1.8-3.8h-0.1c0.2,1.7,0.2,3.7,0.2,5.4v6.3h-3.4v-15.4H263.6z"/>
		<path class="st1" d="M280.8,246.5h-3.1v-7.9c-0.4,0.5-0.5,0.6-1,1.2l-1.4-3.4c1.6-2,3-4.7,4-8l3.1,0.7c-0.5,1.7-1.1,3-1.7,4.5
			V246.5z M293.5,232.3v2.9h-2.3v8.8c0,2-0.5,2.4-2.7,2.4c-0.9,0-2,0-3.5-0.2l-0.6-3.1c1.2,0.2,2.2,0.2,3.2,0.2
			c0.4,0,0.5-0.1,0.5-0.5v-7.7h-6.5v-2.9h6.5v-3.6h3.2v3.6H293.5z M284.4,241.8c-0.6-1.6-1.4-3.1-2.4-4.4l2.7-1.5
			c1,1.2,1.9,2.7,2.5,4.3L284.4,241.8z"/>
		<path class="st1" d="M300.9,230.6c-0.2-0.6-0.4-1.1-0.5-1.7l3.1-0.2c0.1,0.4,0.4,1.3,0.6,1.8h6.2v2.7H305c0.2,0.6,0.5,1.2,0.8,1.8
			h5.6v2.7h-4.2c0.5,0.8,1.1,1.8,1.5,2.4l-3.2,0.8c-0.6-0.9-1.3-2.2-1.8-3.2h-8.2v-2.7h7l-0.1-0.1l-0.2-0.5
			c-0.3-0.9-0.4-0.9-0.5-1.2h-5.9v-2.7H300.9z M308.7,245.7c-1.4,0.1-2.5,0.1-3.6,0.1c-2.3,0-4-0.2-5.2-0.6
			c-2.1-0.7-3.4-2.1-3.4-3.9c0-0.9,0.3-1.7,0.9-2.3l2.5,1.4c-0.2,0.3-0.3,0.6-0.3,0.9c0,1.1,1.6,1.6,5.1,1.6c1.1,0,2.2,0,3.8-0.2
			L308.7,245.7z"/>
		<path class="st1" d="M314.4,246.5c2.8-3.2,3.9-5.9,3.9-9s-1.2-5.8-3.9-9h2.4c2.6,2,4.3,5.6,4.3,9s-1.8,7.1-4.3,9H314.4z"/>
		<path class="st1" d="M331.4,230.8l0.1-0.1c0.6-1,0.8-1.4,1.1-1.8l3.1,0.4c-0.1,0.1-0.1,0.2-0.2,0.3l-0.4,0.6l-0.3,0.5l-0.1,0.1
			h5.7v2.7h-7.5c-0.6,0.7-1,1.3-1.5,1.8c1.1-0.6,1.8-0.8,2.6-0.8c1.3,0,2.2,0.6,2.8,1.7c1.8-0.6,2.6-0.8,4.2-1.3l1.2,2.6
			c-1.9,0.5-3.7,1-4.9,1.4c0.1,1,0.1,1.4,0.1,2.7l-3,0.2v-0.1c0-0.9,0-1.1,0-1.7c-1.9,0.8-2.9,1.4-2.9,2.1s1,0.8,4.1,0.8
			c1.7,0,3.2-0.1,5.2-0.3l0.3,2.9c-2.1,0.2-3.7,0.2-5.7,0.2c-2.4,0-4.1-0.2-5.2-0.6c-1.3-0.5-1.9-1.4-1.9-2.8c0-2.1,1.7-3.6,5.7-5
			c-0.2-0.3-0.4-0.5-0.8-0.5c-1.2,0-3.2,1.1-5.6,3.1l-1.7-2.1c1.4-1.2,2.6-2.6,3.9-4.4h-3.1v-2.7H331.4z"/>
		<path class="st1" d="M349.2,246.5h-3.1v-7.9c-0.4,0.5-0.5,0.6-1,1.2l-1.4-3.4c1.6-2,3-4.7,4-8l3.1,0.7c-0.5,1.7-1.1,3-1.7,4.5
			V246.5z M362,232.3v2.9h-2.3v8.8c0,2-0.5,2.4-2.7,2.4c-0.9,0-2,0-3.5-0.2l-0.6-3.1c1.2,0.2,2.2,0.2,3.2,0.2c0.4,0,0.5-0.1,0.5-0.5
			v-7.7h-6.5v-2.9h6.5v-3.6h3.2v3.6H362z M352.8,241.8c-0.6-1.6-1.4-3.1-2.4-4.4l2.7-1.5c1,1.2,1.9,2.7,2.5,4.3L352.8,241.8z"/>
		<path class="st1" d="M364.8,245.6c-0.3-2.5-0.4-4.7-0.4-7.6c0-2.9,0.2-5.8,0.5-9l3,0.2c-0.3,3.6-0.4,5.7-0.4,8.7
			c0,2.9,0.1,4.8,0.4,7.3L364.8,245.6z M377.4,228.9v3.8h3.2v2.9h-3.2v1c0,3.4-0.3,5-1.2,6.5c-0.9,1.5-2.2,2.5-4.1,3.2l-2-2.3
			c3.3-1.6,4.1-3,4.1-7.3v-1.1h-5.2v-2.9h5.2v-3.8H377.4z"/>
		<path class="st1" d="M388.7,228.8v4.2c2.2-2.1,3.4-2.7,5.1-2.7c1,0,1.8,0.3,2.4,0.8c0.7,0.6,1.2,1.8,1.2,3c0,0.7-0.3,2.8-0.7,4.8
			c-0.2,0.7-0.2,1.8-0.2,2.4c0,0.2,0.1,0.3,0.2,0.3c0.4,0,1.5-1.2,2.2-2.6l1.2,3.1c-1,1.8-2.3,2.8-3.9,2.8c-0.9,0-1.6-0.3-2.1-1
			c-0.4-0.6-0.6-1.2-0.6-2.4c0-0.8,0.1-1.7,0.3-3.2c0.4-2.8,0.5-3.7,0.5-4.3c0-0.7-0.2-1-0.6-1c-0.9,0-2.9,1.8-4.9,4.4v8.5h-3.2v-5
			c-0.5,0.7-1.3,1.7-2.1,2.9l-1.4-3.3c1.3-1.3,2.3-2.6,3.5-4.3v-1.5h-3v-2.9h3v-2.9H388.7z"/>
		<path class="st1" d="M402.2,245.8c-0.2-2.3-0.3-4.3-0.3-6.6c0-3.6,0.2-6.9,0.7-10.1l3,0.4c-0.5,2.8-0.7,5.4-0.7,8.9
			c0,2.3,0.1,4.1,0.3,6.9L402.2,245.8z M414.2,229.2l0.2,3.3h4v2.7h-3.8l0.2,4.2c1.4,0.6,2.9,1.5,4.3,2.7l-1.5,2.8
			c-1-0.8-1.7-1.4-2.8-2.2c-0.5,2-1.7,2.9-4.1,2.9c-2.9,0-4.6-1.3-4.6-3.6c0-2.1,1.9-3.6,4.7-3.6c0.3,0,0.5,0,0.9,0.1l-0.2-3.4h-4.9
			v-2.7h4.6l-0.2-3.3H414.2z M411.9,241.3c-0.5-0.2-0.8-0.2-1.3-0.2c-1,0-1.6,0.4-1.6,1c0,0.5,0.7,1,1.6,1c0.8,0,1.3-0.5,1.3-1.2
			V241.3z M415.6,231.9c-0.4-1.4-0.9-2.5-1.3-3.2l1.5-0.5c0.6,1,1.1,2.2,1.3,3.1L415.6,231.9z M418,231.7c-0.3-1.2-0.8-2.4-1.3-3.2
			l1.5-0.4c0.6,0.9,1,1.9,1.3,3L418,231.7z"/>
		<path class="st1" d="M439,237.4c0,4.8-3.3,8.1-7.9,8.1s-7.9-3.4-7.9-8.1c0-4.8,3.2-8.1,7.9-8.1S439,232.6,439,237.4z M426.9,237.4
			c0,3,1.7,5.1,4.2,5.1s4.2-2.1,4.2-5.1c0-3.1-1.7-5.2-4.2-5.2S426.9,234.3,426.9,237.4z"/>
		<path class="st1" d="M445.2,229.7v6.7l5.2-6.7h4.5l-6,6.7l6.5,8.7H451l-4.4-6.6l-1.4,1.5v5.1h-3.5v-15.4H445.2z"/>
		<path class="st1" d="M464.2,229.2l-0.6,11.4h-2.7l-0.6-11.4H464.2z M464.1,242.1v3.6h-3.6v-3.6H464.1z"/>
	</g>
	<g>
		<path class="st4" d="M1.4,41v-6.6c0-2.1,1.7-3.8,3.8-3.8h44.5c2.1,0,3.8,1.7,3.8,3.8v65.6c0,2.1-1.7,3.8-3.8,3.8H5.2
			c-2.1,0-3.8-1.7-3.8-3.8V46.9"/>
		
			<rect x="4.1" y="52.5" transform="matrix(-1.836970e-16 1 -1 -1.836970e-16 94.5838 39.7265)" class="st1" width="46.6" height="29.4"/>
		<polygon class="st5" points="34.1,68.4 30.3,68.4 30.3,66.8 23.9,66.8 23.9,68.4 20.1,68.4 20.1,78.8 23.2,78.8 23.2,83 30.9,83 
			30.9,78.8 34.1,78.8 		"/>
		<g>
			<path class="st6" d="M23.2,60.9h-3.9v-5.6h1.2v4.7h2.7V60.9z"/>
			<path class="st6" d="M29.4,60.9h-1.3l-0.4-1.2h-2.2l-0.4,1.2h-1.2l2.1-5.6h1.4L29.4,60.9z M27.4,58.8l-0.8-2.3l-0.8,2.3H27.4z"/>
			<path class="st6" d="M35.1,60.9h-1.2l-2.5-4.1v4.1h-1.1v-5.6h1.5l2.2,3.6v-3.6h1.1V60.9z"/>
		</g>
	</g>
	<g>
		<path d="M18.9,129.7v1.2h-3.5v4.1c0,0.4,0.1,0.4,1.1,0.4c0.7,0,1-0.1,1.1-0.4c0.1-0.2,0.1-0.7,0.1-1.4l1.3,0.4
			c-0.1,1.3-0.2,1.9-0.4,2.2c-0.3,0.4-0.9,0.5-2.3,0.5c-1.8,0-2.3-0.2-2.3-1.1v-4.6h-1.8c0,3.8-1,5.2-4,5.9l-0.7-1.1
			c1.5-0.2,2.5-0.9,2.9-1.7c0.3-0.6,0.4-1.5,0.4-3.1H7.9v-1.2h4.8v-4.3H14v4.3H18.9z M10,129.3c-0.5-1.1-1-2-1.5-2.7l1.2-0.6
			c0.6,0.7,1.1,1.6,1.5,2.6L10,129.3z M15.3,128.9c0.6-0.9,1.2-1.9,1.6-3l1.3,0.6c-0.6,1.1-1.2,2.1-1.8,2.9L15.3,128.9z"/>
		<path d="M30.9,136.7h-1.3V136h-7.5v0.8h-1.3V126h10.1V136.7z M22.1,134.8h7.5v-7.6h-7.5V134.8z M28.3,133.3h-4.9v-4.6h4.9V133.3z
			 M24.6,132.2h2.5v-2.5h-2.5V132.2z"/>
		<path d="M32.6,130.7c0.2,0,0.3,0,0.4,0c0.1,0,0.2,0,0.5,0c0.2-0.3,0.4-0.5,0.7-0.9c-0.4-0.7-1-1.4-1.6-2l0.7-0.9l0.3,0.3
			c0.4-0.6,0.8-1.3,1-1.9l1,0.5c-0.4,0.7-0.8,1.3-1.5,2.2c0.3,0.3,0.4,0.5,0.6,0.9c0.6-0.8,0.9-1.3,1-1.5c0.1-0.2,0.2-0.4,0.5-0.7
			l0.9,0.6c-0.7,1.1-1.7,2.3-2.6,3.3c0.4,0,1.3-0.1,1.6-0.1c-0.1-0.2-0.2-0.6-0.3-0.8l0.8-0.4c0.3,0.6,0.6,1.4,0.8,2.2l-0.9,0.5
			c-0.1-0.4-0.1-0.5-0.2-0.6c-0.2,0-0.3,0.1-0.7,0.1l-0.2,0v5.4h-1.1v-5.2c-0.6,0.1-1.2,0.1-1.7,0.2L32.6,130.7z M32.6,135.4
			c0.3-0.9,0.4-2,0.5-3.1l1,0.1c0,1.5-0.2,2.6-0.5,3.5L32.6,135.4z M36.3,134.8c-0.1-0.9-0.3-1.7-0.4-2.3l0.9-0.3
			c0.2,0.6,0.4,1.3,0.5,2.2L36.3,134.8z M39.4,131.8l0.6,0.6c-0.4,1.8-1.1,3-2.5,4l-0.8-0.8c1.1-0.7,1.7-1.5,2.1-2.7h-1.4v-1.1H39.4
			z M41.2,135.7c0,0.7-0.3,1-1.1,1c-0.3,0-0.8,0-1.1-0.1l-0.2-1.1c0.4,0.1,0.7,0.1,1,0.1c0.2,0,0.3-0.1,0.3-0.3V131h-2.4v-4.7h2.1
			c0.1-0.3,0.2-0.6,0.3-1l1.3,0.2c-0.1,0.3-0.2,0.5-0.3,0.8h2.6v4.7h-2.4v0.1c0.2,0.6,0.3,1,0.6,1.5c0.5-0.5,1.1-1.1,1.5-1.5
			l0.9,0.8c-0.5,0.5-1.2,1.1-1.8,1.5c0.5,0.6,1.1,1.3,1.9,1.8l-0.7,1.1c-1-0.7-1.8-1.8-2.3-3V135.7z M38.9,128.2h3.5v-0.9h-3.5
			V128.2z M38.9,130h3.5v-0.9h-3.5V130z"/>
	</g>
	<g>
		<path d="M102.6,136.7h-1.3V136h-7.5v0.8h-1.3V126h10.1V136.7z M93.8,134.8h7.5v-7.6h-7.5V134.8z M100,133.3h-4.9v-4.6h4.9V133.3z
			 M96.3,132.2h2.5v-2.5h-2.5V132.2z"/>
		<path d="M104.3,130.7c0.2,0,0.3,0,0.4,0c0.1,0,0.2,0,0.5,0c0.2-0.3,0.4-0.5,0.7-0.9c-0.4-0.7-1-1.4-1.6-2l0.7-0.9l0.3,0.3
			c0.4-0.6,0.8-1.3,1-1.9l1,0.5c-0.4,0.7-0.8,1.3-1.5,2.2c0.3,0.3,0.4,0.5,0.6,0.9c0.6-0.8,0.9-1.3,1-1.5c0.1-0.2,0.2-0.4,0.5-0.7
			l0.9,0.6c-0.7,1.1-1.7,2.3-2.6,3.3c0.4,0,1.3-0.1,1.6-0.1c-0.1-0.2-0.2-0.6-0.3-0.8l0.8-0.4c0.3,0.6,0.6,1.4,0.8,2.2l-0.9,0.5
			c-0.1-0.4-0.1-0.5-0.2-0.6c-0.2,0-0.3,0.1-0.7,0.1l-0.2,0v5.4h-1.1v-5.2c-0.6,0.1-1.2,0.1-1.7,0.2L104.3,130.7z M104.3,135.4
			c0.3-0.9,0.4-2,0.5-3.1l1,0.1c0,1.5-0.2,2.6-0.5,3.5L104.3,135.4z M107.9,134.8c-0.1-0.9-0.3-1.7-0.4-2.3l0.9-0.3
			c0.2,0.6,0.4,1.3,0.5,2.2L107.9,134.8z M111.1,131.8l0.6,0.6c-0.4,1.8-1.1,3-2.5,4l-0.8-0.8c1.1-0.7,1.7-1.5,2.1-2.7H109v-1.1
			H111.1z M112.9,135.7c0,0.7-0.3,1-1.1,1c-0.3,0-0.8,0-1.1-0.1l-0.2-1.1c0.4,0.1,0.7,0.1,1,0.1c0.2,0,0.3-0.1,0.3-0.3V131h-2.4
			v-4.7h2.1c0.1-0.3,0.2-0.6,0.3-1l1.3,0.2c-0.1,0.3-0.2,0.5-0.3,0.8h2.6v4.7h-2.4v0.1c0.2,0.6,0.3,1,0.6,1.5
			c0.5-0.5,1.1-1.1,1.5-1.5l0.9,0.8c-0.5,0.5-1.2,1.1-1.8,1.5c0.5,0.6,1.1,1.3,1.9,1.8l-0.7,1.1c-1-0.7-1.8-1.8-2.3-3V135.7z
			 M110.6,128.2h3.5v-0.9h-3.5V128.2z M110.6,130h3.5v-0.9h-3.5V130z"/>
		<path d="M116.7,130.7c0.3,0,0.3,0,0.5,0c0.1,0,0.2,0,0.5,0c0.3-0.3,0.4-0.4,0.8-0.9c-0.5-0.8-1.1-1.4-1.7-2l0.7-0.9
			c0.2,0.2,0.2,0.2,0.3,0.3c0.4-0.6,0.8-1.3,1.1-2l1.1,0.6c-0.4,0.7-0.9,1.4-1.5,2.2c0.3,0.3,0.4,0.5,0.7,0.9
			c0.4-0.6,1.1-1.5,1.6-2.2l0.9,0.7c-0.8,1.1-1.8,2.3-2.7,3.3c0.5,0,1-0.1,1.6-0.1c-0.1-0.3-0.3-0.6-0.4-0.9l0.9-0.3
			c0.4,0.6,0.6,1.3,0.9,2.2l-0.9,0.5l-0.1-0.6c-0.2,0-0.5,0.1-0.9,0.1v5.3h-1.2v-5.2c-0.4,0-1.3,0.1-1.8,0.2L116.7,130.7z
			 M116.8,135.4c0.3-0.7,0.4-1.6,0.5-3.1l1.1,0.1c-0.1,1.4-0.2,2.5-0.5,3.4L116.8,135.4z M120.8,135.2c-0.2-1.3-0.4-2-0.6-2.6
			l0.9-0.3c0.3,0.7,0.6,1.6,0.7,2.5L120.8,135.2z M127.7,126.8c-0.5,1.2-1.1,2.2-1.9,3.3c0.7,0.6,1.6,1.1,2.7,1.6l-0.6,1.2
			c-1.1-0.5-2.1-1.2-2.9-1.9c-0.8,0.8-1.8,1.5-2.9,2.1l-0.8-1c1.1-0.5,2.2-1.2,2.9-1.9c-0.4-0.4-0.7-0.9-0.9-1.3
			c-0.3,0.4-0.7,0.8-1.1,1.2l-0.7-0.9c1.1-1,1.8-2.3,2.2-3.7l1.2,0.2c-0.2,0.4-0.2,0.6-0.3,0.8h2.5L127.7,126.8z M126.6,136.9
			c-1.1-0.6-2.4-1.3-4.2-1.9l0.6-1c1.4,0.4,3.1,1.1,4.3,1.9L126.6,136.9z M126.1,134.3c-0.8-0.6-1.6-1-2.7-1.5l0.7-0.9
			c0.9,0.4,1.8,0.9,2.6,1.4L126.1,134.3z M124.1,127.4c-0.1,0.2-0.1,0.2-0.2,0.4c0.3,0.5,0.6,1,1,1.5c0.6-0.6,1-1.3,1.2-1.9H124.1z"
			/>
		<path d="M129.1,134.8c0.7-0.2,1.5-0.5,2.2-0.8c0.3-1.7,0.5-3.6,0.5-5.2l1.2,0.2c-0.2,1.8-0.4,3-0.7,4.5l0.2-0.1l0.6-0.3l0.2,1
			c-1.2,0.6-2.5,1.3-3.7,1.8L129.1,134.8z M133.3,127.3v1.1h-4.1v-1.1h1.5v-1.9h1.2v1.9H133.3z M129.8,132.9
			c-0.2-1.9-0.3-2.8-0.4-3.6l1.1-0.3c0.2,1.7,0.4,3.1,0.4,4.3l-1,0.3L129.8,132.9z M140.2,131.6v4.1c0,0.8-0.2,1-0.9,1
			c-0.2,0-0.4,0-0.7,0l-0.2-1.2c0.2,0,0.3,0.1,0.5,0.1c0.2,0,0.2,0,0.2-0.3v-2.7h-0.9v3.9h-0.9v-3.9h-0.8v3.9h-1v-3.9h-0.8v4.2h-1.1
			v-5.2h2c0.1-0.3,0.2-0.7,0.3-1h-2.6v-1.1h7.4v1.1h-3.6c-0.1,0.4-0.2,0.6-0.3,1H140.2z M138.9,127.6V126h1.1v2.6h-6.3V126h1.1v1.6
			h1.4v-2.2h1.2v2.2H138.9z"/>
		<path d="M148.6,132.5c0.3,0.5,0.7,1.1,1.2,1.5c0.6-0.4,1.1-0.9,1.5-1.4l1.1,0.6c-0.5,0.4-1.1,0.9-1.8,1.4c0.7,0.4,1.6,0.7,2.7,1
			l-0.8,1.1c-2.4-0.6-4.4-2.2-5-4c-0.4,0.4-0.9,0.8-1.5,1.1v1.6c0.8-0.1,1.9-0.4,2.9-0.6l0,1c-1.4,0.4-3.3,0.9-5.4,1.1l-0.4-1.1
			c0.4,0,0.6-0.1,0.9-0.1c0.1,0,0.3,0,0.8-0.1v-1.2c-0.8,0.3-1.6,0.6-2.5,0.8l-0.6-0.9c2-0.4,3.4-1,4.4-1.7h-4.2v-1h5v-0.7h1.3v0.7
			h5.1v1H148.6z M144.4,129.3c-0.7,0.5-1.5,0.9-2.1,1.2l-0.6-1c0.8-0.3,1.8-0.8,2.7-1.3v-2.8h1.2v5.5h-1.2V129.3z M143.5,128.1
			c-0.4-0.6-0.9-1.2-1.4-1.7l0.8-0.7c0.6,0.6,1.1,1.1,1.4,1.6L143.5,128.1z M148.8,125.4h1.3v1.4h2.9v1H150v1.6h2.5v1h-6.1v-1h2.4
			v-1.6H146v-1h2.8V125.4z"/>
		<path d="M160.8,128.2c0,0.2-0.1,0.4-0.1,0.6h4.9v0.9h-5.1l0,0l0,0.1c0,0,0,0.1,0,0.1c0,0.1,0,0.2-0.1,0.3h3.7v4.7h-6.7v-4.7h1.7
			c0.1-0.2,0.1-0.4,0.1-0.5h-5v-0.9h5.2c0-0.1,0-0.1,0-0.2c0,0,0-0.2,0.1-0.4h-4.2v-2.5h9.6v2.5H160.8z M165.6,135.4v1h-9.3v0.5H155
			v-6.2h1.3v4.8H165.6z M156.4,127.4h1.6v-0.9h-1.6V127.4z M158.6,131.5h4.1V131h-4.1V131.5z M158.6,132.7h4.1v-0.5h-4.1V132.7z
			 M158.6,134h4.1v-0.6h-4.1V134z M159.2,127.4h1.6v-0.9h-1.6V127.4z M163.6,126.5h-1.7v0.9h1.7V126.5z"/>
		<path d="M170.4,136.8c-0.8-0.7-1.3-1.4-1.8-2.4c-0.5-1.1-0.8-2.3-0.8-3.3c0-2,1.1-4.4,2.6-5.7h1.1c-1.8,2-2.5,3.7-2.5,5.7
			c0,2,0.7,3.7,2.5,5.7H170.4z"/>
		<path d="M182.9,131.1c0,3-1.9,5.1-4.7,5.1c-2.8,0-4.7-2.1-4.7-5.1c0-3,2-5.1,4.7-5.1C181,126,182.9,128.1,182.9,131.1z
			 M175.1,131.1c0,2.2,1.2,3.7,3.1,3.7s3.1-1.5,3.1-3.7c0-2.2-1.3-3.8-3.1-3.8C176.3,127.3,175.1,128.9,175.1,131.1z"/>
		<path d="M187.1,126.2l3.1,5.1l0.1,0.1c0.5,0.8,0.8,1.5,1.1,2.1h0c0-0.8-0.1-2.3-0.1-3.2v-4.1h1.5v9.7h-1.5l-3.7-6
			c-0.5-0.8-0.9-1.7-1.2-2.2h-0.1c0.1,0.8,0.1,2.1,0.1,3.4v4.7h-1.5v-9.7H187.1z"/>
		<path d="M197.2,126.2v6.1c0,0.7,0.1,1.2,0.4,1.6c0.4,0.6,1.1,0.9,1.9,0.9c0.8,0,1.5-0.3,1.9-0.9c0.3-0.4,0.5-0.9,0.5-1.6v-6.1h1.5
			v6.4c0,0.9-0.2,1.6-0.7,2.2c-0.8,0.9-1.9,1.4-3.3,1.4c-1.4,0-2.5-0.5-3.3-1.5c-0.4-0.5-0.6-1.3-0.6-2.1v-6.4H197.2z"/>
		<path d="M204.8,136.8c1.7-2,2.5-3.7,2.5-5.7s-0.7-3.7-2.5-5.7h1.1c0.8,0.7,1.3,1.4,1.8,2.4c0.5,1.1,0.8,2.3,0.8,3.3
			c0,2-1.1,4.4-2.6,5.7H204.8z"/>
	</g>
	<g>
		<path d="M121.7,23.7c-4.4,0-8-3.6-8-8s3.6-8,8-8s8,3.6,8,8C129.7,20.1,126.1,23.7,121.7,23.7z M114.3,15.7c0,4.1,3.3,7.4,7.4,7.4
			s7.4-3.3,7.4-7.4s-3.3-7.4-7.4-7.4C117.6,8.2,114.3,11.6,114.3,15.7z M121.1,12.7L121.1,12.7l-1.6,0.8l-0.3-1.2l2-1h1.4v8.8h-1.6
			V12.7z"/>
	</g>
	<line class="st7" x1="26.4" y1="73.6" x2="288.1" y2="73.6"/>
	<g>
		<polygon class="st2" points="178.9,104 178.9,108 122.4,108 122.4,104 129.9,90.6 171.3,90.6 		"/>
		<polyline class="st3" points="122.4,104 129.9,90.6 171.3,90.6 178.9,104 		"/>
		<polyline class="st3" points="136.2,104 122.4,104 122.4,108 178.9,108 178.9,104 143.6,104 		"/>
		<path class="st2" d="M167.1,97.5V27c0-3.1-2.5-5.7-5.7-5.7h-21.6c-3.1,0-5.7,2.6-5.7,5.7v70.5H167.1z"/>
		<path class="st3" d="M167.1,39.1V27c0-3.1-2.5-5.7-5.7-5.7h-21.6c-3.1,0-5.7,2.6-5.7,5.7v70.5"/>
		<line class="st3" x1="167.1" y1="97.5" x2="167.1" y2="45.2"/>
		
			<rect x="119.3" y="51.9" transform="matrix(6.123234e-17 -1 1 6.123234e-17 88.2436 212.9839)" class="st1" width="62.7" height="20.9"/>
		<g>
			<rect x="145.8" y="37.7" class="st2" width="3" height="3"/>
			<rect x="145.8" y="44" class="st2" width="3" height="3"/>
			<rect x="145.8" y="50.3" class="st2" width="3" height="3"/>
			<rect x="145.8" y="56.7" class="st2" width="3" height="3"/>
			<rect x="145.8" y="63" class="st2" width="3" height="3"/>
			<rect x="145.8" y="69.3" class="st2" width="3" height="3"/>
			<rect x="145.8" y="75.6" class="st2" width="3" height="3"/>
			<rect x="145.8" y="81.9" class="st2" width="3" height="3"/>
		</g>
		<g>
			<rect x="152.3" y="37.7" class="st2" width="3" height="3"/>
			<rect x="152.3" y="44" class="st2" width="3" height="3"/>
			<rect x="152.3" y="50.3" class="st2" width="3" height="3"/>
			<rect x="152.3" y="56.7" class="st2" width="3" height="3"/>
			<rect x="152.3" y="63" class="st2" width="3" height="3"/>
			<rect x="152.3" y="69.3" class="st2" width="3" height="3"/>
			<rect x="152.3" y="75.6" class="st2" width="3" height="3"/>
			<rect x="152.3" y="81.9" class="st2" width="3" height="3"/>
		</g>
	</g>
	<g>
		<path class="st4" d="M501.9,25.9h-53.8c-2.1,0-3.8,1.7-3.8,3.8v58.4h95.2V29.7c0-2.1-1.7-3.8-3.8-3.8h-14.2"/>
		<g>
			<path class="st8" d="M468,81h61.2c1,0,1.9-0.9,1.9-1.9V36.6c0-2-1.6-3.5-3.5-3.5h-71.4c-2,0-3.5,1.6-3.5,3.5v42.4
				c0,1,0.8,1.9,1.9,1.9h3.7"/>
		</g>
		<polygon class="st3" points="549.6,104 434.2,104 444.3,88.1 539.5,88.1 		"/>
		<polyline class="st4" points="535.6,91.7 539.1,97.4 444.7,97.4 448.1,91.9 		"/>
		<rect x="434.2" y="104" class="st3" width="115.4" height="4"/>
		<line class="st4" x1="500.8" y1="97.5" x2="501.6" y2="101"/>
		<line class="st4" x1="482.4" y1="97.5" x2="481.6" y2="101.1"/>
		<g>
			<ellipse class="st1" cx="492.1" cy="56.6" rx="13.3" ry="13.3"/>
			<polyline class="st9" points="485.9,56.4 490.6,61.8 498.3,52.4 			"/>
		</g>
		<line class="st4" x1="508.6" y1="25.9" x2="514.5" y2="25.9"/>
	</g>
</g>
<rect x="0.5" y="0.5" class="st10" width="550" height="265"/>
</svg>
