<?xml version="1.0" encoding="utf-8"?>
<!-- Generator: Adobe Illustrator 25.4.1, SVG Export Plug-In . SVG Version: 6.00 Build 0)  -->
<svg version="1.1" id="レイヤー_1" xmlns="http://www.w3.org/2000/svg" xmlns:xlink="http://www.w3.org/1999/xlink" x="0px"
	 y="0px" width="56.3px" height="124.3px" viewBox="0 0 56.3 124.3" style="enable-background:new 0 0 56.3 124.3;"
	 xml:space="preserve">
<style type="text/css">
	.st0{fill:#FFFFFF;}
	.st1{fill:#00A600;}
	.st2{fill:#FFFFFF;stroke:#002A00;stroke-width:1.4466;stroke-linecap:round;stroke-linejoin:round;stroke-miterlimit:10;}
	.st3{fill:none;stroke:#002A00;stroke-width:1.4466;stroke-linecap:round;stroke-linejoin:round;stroke-miterlimit:10;}
	.st4{fill:none;}
</style>
<g>
	<g>
		<g>
			<path class="st0" d="M13.1,121.5c0,0,0.1,0.1,0.1,0.1c1.6,2.8,10.1,0.7,10.1,0.7l0,0l29.1-4.8c2.1-0.3,3.2-2.5,2.4-4.4l-3.8-8.2
				c-0.2-0.3-0.2-0.8,0-1.1c0.4-0.6,1.2-2.3,1.2-5.1c0-1,0-26.4,0-35.5v-13c0-1,0-1.2,0-1.3c0,0,0,0,0,0c0,0,0-0.3,0-1.4
				c0-6.5-2.9-9.4-6.5-9.7c-3.2-0.3-32.4-2.7-38.2-3.2c-0.6,0-1.1,0.3-1.3,0.9l-0.4,2c-0.2,0.5,0,1.1,0.5,1.5c1.1,0.8,4.4,2.5,4.4,6
				v60.6c0,0.4-0.1,0.7-0.4,0.9l-8.2,7c-0.6,0.6-0.7,1.1-0.7,2c0,1.9,0.4,6.5,2.3,6.2l7.5-2.7L13.1,121.5z"/>
			<g>
				<path class="st1" d="M6.6,38.1c-0.6,0-1.1,0.3-1.3,0.9l-1.2,5.5c-0.2,0.5,0,1.1,0.5,1.5c1.1,0.8,1.7,1.4,1.7,4.9v48.5
					c0,3.5-1.7,5.2-2.8,6c-0.5,0.3-0.8,1-0.6,2l0.8,5.8c0.2,0.6,0.7,0.9,1.3,0.9l8.7-6.3V44.9L6.6,38.1z"/>
			</g>
			<g>
				<g>
					<path class="st2" d="M52.1,50.1c0-2.7,0,0.2,0-2.7c0-6.5-2.9-9.4-6.5-9.7c-3.2-0.3-32.4-2.7-38.2-3.2c-0.6,0-1.1,0.3-1.3,0.9
						l-0.4,2c-0.2,0.5,0,1.1,0.5,1.5c1.1,0.8,4.4,2.5,4.4,6v60.6c0,0.4-0.1,0.7-0.4,0.9l-8.2,7c-0.6,0.6-0.7,1.1-0.7,2
						c0,1.9,0.4,6.5,2.3,6.2l7.5-2.7"/>
					<path class="st2" d="M14.4,113.8l3.2,6.3c0.9,1.6,2.9,2.7,4.7,2.4l30.1-5c2.1-0.3,3.2-2.5,2.4-4.4l-3.8-8.2
						c-0.2-0.3-0.2-0.8,0-1.1c0.4-0.6,1.2-2.3,1.2-5.1c0-1,0-23.4,0-32.5"/>
				</g>
				<g>
					<line class="st3" x1="26.7" y1="107.9" x2="50.4" y2="104.5"/>
					<path class="st3" d="M9,34.7c2.1,0.2,8.9,2.8,8.9,7.8v66.7l3.7-0.6"/>
				</g>
				<path class="st3" d="M23.3,122.3c0,0-8.5,2.2-10.1-0.7c-1.3-2.3-3.5-5.9-3.5-5.9l-7.4,4.9"/>
			</g>
			<g>
				<line class="st3" x1="14.2" y1="59.8" x2="14.2" y2="68.4"/>
				<line class="st3" x1="14.2" y1="72.6" x2="14.2" y2="81.2"/>
				<line class="st3" x1="14.2" y1="46.9" x2="14.2" y2="55.5"/>
				<line class="st3" x1="14.2" y1="85.4" x2="14.2" y2="94"/>
			</g>
			<line class="st2" x1="52.1" y1="55.9" x2="52.1" y2="60.2"/>
		</g>
	</g>
	<g>
		<path class="st1" d="M34.3,22.2c0.1,0.1,0.2,0.3,0.2,0.4c0,0.1-0.1,0.2-0.2,0.4l-3.5,3.5c-0.3,0.3-0.4,0.3-0.7,0l-3.6-3.6
			c-0.3-0.4-0.2-0.6-0.1-0.6c0.9-1,2.4-1.5,4-1.5C32,20.7,33.4,21.3,34.3,22.2L34.3,22.2z"/>
		<path class="st1" d="M48.1,8.1c0.1,0.1,0.1,0.2,0.1,0.3c0,0.1,0,0.3-0.1,0.4l-3.2,3.2c-0.1,0.1-0.2,0.1-0.3,0.1
			c0,0-0.2-0.1-0.2-0.1c-3.7-3.9-8.8-6-14.1-5.9c-5.3-0.1-9.6,1.7-13.9,5.6c-0.3,0.3-0.7,0.3-1,0l-3-3c-0.1-0.1-0.2-0.3-0.2-0.5
			c0-0.2,0.1-0.3,0.2-0.5C23-1.9,38.3-1.8,48.1,8.1z"/>
		<path class="st1" d="M41,15.2c0.1,0.1,0.1,0.2,0.1,0.4c0,0.1,0,0.3-0.1,0.4l-3.2,3.2c-0.1,0.1-0.2,0.1-0.3,0.1
			c0,0-0.2-0.1-0.2-0.1c-3.2-3.2-10.1-4.1-13.9-0.4c-0.1,0.1-0.3,0.2-0.5,0.2c-0.2,0-0.4-0.1-0.5-0.2l-3-3c-0.3-0.3-0.3-0.7,0-1
			c2.7-2.7,6.6-4.2,10.8-4.1C34.3,10.9,38.2,12.5,41,15.2z"/>
	</g>
</g>
<rect x="0.1" y="0.1" class="st4" width="56" height="124"/>
</svg>
