<?xml version="1.0" encoding="UTF-8"?><svg id="_イヤー_1" xmlns="http://www.w3.org/2000/svg" width="185" height="90.24" viewBox="0 0 185 90.24"><defs><style>.cls-1{fill:#fff;}.cls-2{fill:#f39800;}.cls-3{fill:#b9b9b9;}</style></defs><path class="cls-2" d="M5.1,62.79c0-.26-.02-.48-.07-.74h1.75c-.05,.25-.07,.46-.07,.73v.22h2.59c.67,0,1.17-.02,1.57-.07v1.51c-.37-.04-.71-.05-1.3-.05h-.5c-.19,.46-.36,.8-.52,1.1h1.55c.7,0,1.03-.01,1.37-.06v1.51c-.4-.05-.68-.06-1.38-.06H1.92c-.68,0-.97,.01-1.36,.06v-1.51c.36,.05,.71,.06,1.42,.06h1.33c-.16-.42-.3-.76-.5-1.1h-.44c-.56,0-.88,.01-1.26,.05v-1.51c.38,.05,.85,.07,1.49,.07h2.51v-.2Zm3.84,4.65c.54,0,.79-.01,1.18-.04-.05,.41-.06,.71-.06,1.14v3.47c0,.53,.02,.89,.07,1.25h-1.61v-.48H3.5v.48H1.89c.05-.4,.07-.74,.07-1.25v-3.47c0-.42-.01-.76-.06-1.14,.38,.02,.64,.04,1.16,.04h5.88Zm-5.44,2.03h5.03v-.72H3.5v.72Zm0,2h5.03v-.75H3.5v.75Zm3.39-5.98c.19-.35,.37-.74,.49-1.1h-2.84c.2,.42,.35,.76,.48,1.1h1.87Z"/><path class="cls-2" d="M14.98,70.25c-.23,1.37-.61,2.19-1.45,3.11-.41-.44-.86-.83-1.37-1.16,1.02-.88,1.4-2.08,1.4-4.34,0-.59-.01-.82-.05-1.17,.37,.04,.56,.05,1.27,.05h6.38c.75,0,.95-.01,1.29-.05-.04,.34-.05,.61-.05,1.16v1.73c0,.61,.01,.92,.06,1.31h-1.63v-.62h-5.86Zm2.09-7.23c0-.47-.02-.67-.07-.95h1.74c-.05,.25-.06,.47-.06,.95h3.2c.67,0,1.16-.02,1.49-.07v1.44c-.41-.05-.79-.06-1.44-.06h-3.25v.61h2.78c.62,0,.98-.01,1.26-.06v1.39c-.4-.04-.76-.05-1.29-.05h-6.91c-.54,0-.85,.01-1.26,.05v-1.39c.26,.05,.64,.06,1.25,.06h2.57v-.61h-2.96c-.66,0-1.09,.02-1.45,.06v-1.44c.32,.05,.82,.07,1.49,.07h2.93Zm.1,5.89v-.88h-2.04c0,.4,0,.55-.02,.88h2.06Zm3.69,0v-.88h-2.15v.88h2.15Z"/><path class="cls-2" d="M24.4,66.55c.31,.05,.52,.06,.95,.06h.97c.37,0,.64-.01,.91-.05-.04,.35-.05,.66-.05,1.33v2.63c.2,.36,.5,.61,.86,.76,.48,.18,1.75,.3,3.19,.3s2.6-.08,4.47-.3c-.18,.55-.3,1.04-.38,1.68-1.39,.06-2.63,.08-4.1,.08-3.03,0-3.84-.2-4.79-1.22-.6,.59-.68,.66-1.51,1.27l-.74-1.58c.44-.19,.97-.55,1.52-1.03v-2.4h-.56c-.26,0-.44,.01-.74,.06v-1.58Zm1.06-4.35c.98,.84,1.5,1.37,2.16,2.17l-1.19,1.2c-.73-.98-1.25-1.54-2.12-2.28l1.15-1.09Zm4.47,2.46c-.38-.25-.58-.37-.85-.52l.82-.46h-.92c-.59,0-.91,.01-1.27,.06v-1.45c.41,.05,.83,.07,1.51,.07h3.73c.82,0,1.22-.02,1.44-.07l.74,.84c-.17,.11-.18,.12-.59,.47-.43,.37-.97,.78-1.38,1.06h.76c.59,0,.86-.01,1.19-.05-.04,.32-.05,.68-.05,1.33v3.87c0,1.06-.3,1.32-1.52,1.32-.12,0-.31,0-.58-.01-.05-.52-.12-.8-.28-1.2,.29,.05,.48,.07,.67,.07,.2,0,.23-.04,.23-.3v-.36h-1.45v.42c0,.7,.01,.96,.06,1.34h-1.55c.05-.35,.07-.72,.07-1.34v-.42h-1.33v.5c0,.74,.01,1.04,.07,1.32h-1.6c.04-.35,.06-.72,.06-1.32v-3.83c0-.65-.01-.97-.06-1.4,.37,.04,.73,.05,1.36,.05h.72Zm-.55,1.17v.65h1.33v-.65h-1.33Zm0,2.4h1.33v-.65h-1.33v.65Zm1.12-4.54c.31,.22,.55,.4,1.03,.77,.41-.28,.62-.44,1.01-.77h-2.04Zm1.63,2.79h1.45v-.65h-1.45v.65Zm1.45,1.1h-1.45v.65h1.45v-.65Z"/><path class="cls-2" d="M36.51,64.03c.3,.05,.52,.06,.97,.06h2.48c.49,0,.71-.01,.97-.05v1.38c-.28-.04-.38-.04-.92-.04h-2.53c-.43,0-.66,.01-.97,.05v-1.4Zm1.83,9.21h-1.48c.05-.36,.06-.68,.06-1.13v-1.94c0-.37-.01-.6-.05-.92,.3,.02,.53,.04,.91,.04h2.23c.44,0,.58,0,.77-.04-.02,.23-.02,.4-.02,.83v2.1c0,.48,.01,.64,.04,.91h-1.4v-.37h-1.05v.53Zm-1.46-10.88c.32,.04,.53,.05,1.04,.05h1.77c.5,0,.72-.01,1.04-.05v1.28c-.3-.02-.55-.04-1.04-.04h-1.77c-.46,0-.76,.01-1.04,.04v-1.28Zm.04,3.49c.23,.02,.38,.04,.76,.04h2.33c.37,0,.54-.01,.73-.04v1.26c-.24-.02-.4-.04-.73-.04h-2.33c-.37,0-.5,0-.76,.04v-1.26Zm0,1.69c.26,.04,.37,.04,.76,.04h2.33c.38,0,.52,0,.73-.04v1.26c-.25-.04-.36-.04-.76-.04h-2.31c-.37,0-.5,0-.74,.04v-1.26Zm1.39,3.95h1.09v-1.03h-1.09v1.03Zm5.08-7.3c-.74,.1-.95,.12-2,.22-.11-.5-.23-.84-.5-1.4,2.21-.07,4.62-.52,5.62-1.03l.85,1.38c-.13,.04-.17,.05-.35,.1-.52,.14-1.44,.36-2.12,.49v1.51h1.21c.59,0,.98-.02,1.37-.07v1.55c-.41-.05-.82-.07-1.37-.07h-1.21v1.36h1.28c.41,0,.67-.01,.89-.04-.02,.25-.04,.59-.04,1.01v2.72c0,.49,.02,1,.06,1.32h-1.6v-.52h-2.61v.52h-1.56c.04-.3,.05-.68,.05-1.26v-2.88c0-.37-.01-.56-.04-.91,.26,.02,.53,.04,.89,.04h1.17v-1.36h-.96c-.59,0-.97,.02-1.37,.07v-1.55c.38,.05,.79,.07,1.38,.07h.95v-1.26Zm-.52,7.12h2.61v-1.73h-2.61v1.73Z"/><path class="cls-2" d="M50.44,69.37c.05,.49,.12,.72,.32,.97,.32,.42,.89,.65,1.6,.65,1.04,0,1.7-.48,1.7-1.25,0-.37-.16-.67-.47-.86-.37-.24-.74-.36-2.05-.66-1.02-.24-1.42-.4-1.87-.72-.67-.5-1.03-1.24-1.03-2.12,0-1.76,1.4-2.88,3.62-2.88,1.43,0,2.51,.43,3.13,1.25,.3,.41,.46,.76,.61,1.46l-2.11,.23c-.06-.37-.14-.55-.31-.77-.28-.32-.75-.5-1.33-.5-.94,0-1.56,.46-1.56,1.14,0,.32,.14,.59,.41,.78,.26,.17,.5,.25,1.13,.4,1.31,.28,1.88,.43,2.36,.65,.49,.22,.94,.59,1.21,1.04,.24,.4,.36,.88,.36,1.45,0,1.96-1.37,3.07-3.77,3.07-1.55,0-2.71-.43-3.35-1.24-.4-.49-.56-.95-.7-1.88l2.09-.2Z"/><path class="cls-2" d="M60.2,62.72c-.07,.48-.1,.85-.1,1.66v6.44c0,.77,.02,1.19,.1,1.66h-2.21c.07-.47,.1-.91,.1-1.66v-6.44c0-.83-.02-1.14-.1-1.66h2.21Z"/><path class="cls-2" d="M67.11,72.48c-.06-.41-.23-.97-.52-1.69l-1.46-3.73c-.14-.37-.31-.92-.56-1.82,.07,1.16,.1,1.64,.1,1.94v3.49c0,.84,.02,1.33,.1,1.81h-2c.07-.5,.1-1,.1-1.81v-6.12c0-.76-.02-1.32-.1-1.82h2.66c.07,.44,.22,.95,.44,1.55l2.13,5.59,2.12-5.59c.24-.61,.37-1.09,.44-1.55h2.66c-.07,.58-.1,1.02-.1,1.82v6.12c0,.9,.02,1.36,.1,1.81h-2c.07-.54,.1-.97,.1-1.81v-3.53c0-.29,.02-.77,.1-1.91q-.06,.23-.19,.76c-.06,.2-.26,.85-.33,1.03l-1.51,3.78c-.24,.62-.46,1.29-.52,1.68h-1.75Z"/><path class="cls-2" d="M20.12,79.55c-.12,.2-.16,.26-.31,.61-.11,.22-.14,.3-.26,.52l3.17-.02c.42-.01,.62-.04,.9-.16l.94,.92c-.17,.19-.18,.22-.38,.82-.79,2.31-1.71,3.93-2.99,5.25-1.06,1.09-2.36,1.98-4.07,2.76-.41-.72-.61-.97-1.19-1.51,1-.4,1.58-.68,2.29-1.12,.8-.52,1.29-.91,1.89-1.56-.82-.68-1.45-1.12-2.35-1.61l1.09-1.28c1.05,.59,1.62,.96,2.3,1.49,.52-.79,.88-1.56,1.17-2.5l-3.51,.04c-.73,1.2-1.57,2.18-2.77,3.21-.49-.55-.73-.73-1.45-1.14,1.37-1.07,2.25-2.08,3-3.44,.35-.64,.58-1.19,.7-1.68l1.83,.4Z"/><path class="cls-2" d="M36.62,80.52c-.25,.22-.28,.24-.46,.43-.91,.95-1.82,1.74-2.81,2.45v4.73c0,.96,.01,1.37,.06,1.78h-1.98c.06-.46,.07-.76,.07-1.74v-3.65c-1.25,.74-1.93,1.06-4.1,1.86-.32-.74-.47-.98-.97-1.63,2.42-.67,4.43-1.66,6.32-3.12,1.06-.82,1.86-1.62,2.22-2.22l1.64,1.12Z"/><path class="cls-2" d="M46.4,80.41c.14,0,.29,0,.52-.02,.05-.7,.62-1.24,1.32-1.24,.74,0,1.33,.6,1.33,1.33s-.59,1.33-1.32,1.33h-.05l-.05,.17c-.5,2.01-1.27,3.57-2.38,4.86-1.1,1.29-2.46,2.23-4.52,3.15-.4-.77-.59-1.03-1.27-1.71,1.04-.32,1.7-.64,2.58-1.19,1.85-1.18,3.02-2.82,3.57-5h-5.25c-.98,0-1.37,.01-1.86,.07v-1.83c.52,.07,.89,.08,1.88,.08h5.49Zm1.25,.07c0,.32,.26,.59,.59,.59s.59-.26,.59-.59-.26-.59-.59-.59-.59,.26-.59,.59Z"/><path class="cls-2" d="M52.31,81.34c0-.74-.02-1.12-.11-1.66,.48,.02,.78,.04,1.64,.04h2.34c1.48,0,2.57,.36,3.35,1.12,.88,.85,1.33,2.1,1.33,3.67s-.48,2.95-1.4,3.85c-.79,.75-1.85,1.12-3.26,1.12h-2.35c-.82,0-1.14,.01-1.63,.04,.07-.52,.1-.89,.1-1.66v-6.51Zm3.73,6.39c.89,0,1.49-.22,1.94-.7,.54-.56,.83-1.43,.83-2.5s-.25-1.88-.77-2.41c-.46-.47-1.06-.67-2.01-.67h-1.74v6.27h1.75Z"/><path class="cls-2" d="M114.91,62.79c0-.26-.02-.48-.07-.74h1.75c-.05,.25-.07,.46-.07,.73v.22h2.59c.67,0,1.17-.02,1.57-.07v1.51c-.37-.04-.71-.05-1.3-.05h-.5c-.19,.46-.36,.8-.52,1.1h1.55c.7,0,1.03-.01,1.37-.06v1.51c-.4-.05-.68-.06-1.38-.06h-8.17c-.68,0-.97,.01-1.36,.06v-1.51c.36,.05,.71,.06,1.42,.06h1.33c-.16-.42-.3-.76-.5-1.1h-.44c-.56,0-.88,.01-1.26,.05v-1.51c.38,.05,.85,.07,1.49,.07h2.51v-.2Zm3.84,4.65c.54,0,.79-.01,1.18-.04-.05,.41-.06,.71-.06,1.14v3.47c0,.53,.02,.89,.07,1.25h-1.61v-.48h-5.03v.48h-1.61c.05-.4,.07-.74,.07-1.25v-3.47c0-.42-.01-.76-.06-1.14,.38,.02,.64,.04,1.16,.04h5.88Zm-5.44,2.03h5.03v-.72h-5.03v.72Zm0,2h5.03v-.75h-5.03v.75Zm3.39-5.98c.19-.35,.37-.74,.49-1.1h-2.84c.2,.42,.35,.76,.48,1.1h1.87Z"/><path class="cls-2" d="M124.79,70.25c-.23,1.37-.61,2.19-1.45,3.11-.41-.44-.86-.83-1.37-1.16,1.02-.88,1.4-2.08,1.4-4.34,0-.59-.01-.82-.05-1.17,.37,.04,.56,.05,1.27,.05h6.38c.75,0,.95-.01,1.29-.05-.04,.34-.05,.61-.05,1.16v1.73c0,.61,.01,.92,.06,1.31h-1.63v-.62h-5.86Zm2.09-7.23c0-.47-.02-.67-.07-.95h1.74c-.05,.25-.06,.47-.06,.95h3.2c.67,0,1.16-.02,1.49-.07v1.44c-.41-.05-.79-.06-1.44-.06h-3.25v.61h2.78c.62,0,.98-.01,1.26-.06v1.39c-.4-.04-.76-.05-1.29-.05h-6.91c-.54,0-.85,.01-1.26,.05v-1.39c.26,.05,.64,.06,1.25,.06h2.57v-.61h-2.96c-.66,0-1.09,.02-1.45,.06v-1.44c.32,.05,.82,.07,1.49,.07h2.93Zm.1,5.89v-.88h-2.04c0,.4,0,.55-.02,.88h2.06Zm3.69,0v-.88h-2.15v.88h2.15Z"/><path class="cls-2" d="M134.21,66.55c.31,.05,.52,.06,.95,.06h.97c.37,0,.64-.01,.91-.05-.04,.35-.05,.66-.05,1.33v2.63c.2,.36,.5,.61,.86,.76,.48,.18,1.75,.3,3.19,.3s2.6-.08,4.47-.3c-.18,.55-.3,1.04-.38,1.68-1.39,.06-2.63,.08-4.1,.08-3.03,0-3.84-.2-4.79-1.22-.6,.59-.68,.66-1.51,1.27l-.74-1.58c.44-.19,.97-.55,1.52-1.03v-2.4h-.56c-.26,0-.44,.01-.74,.06v-1.58Zm1.06-4.35c.98,.84,1.5,1.37,2.16,2.17l-1.19,1.2c-.73-.98-1.25-1.54-2.12-2.28l1.15-1.09Zm4.47,2.46c-.38-.25-.58-.37-.85-.52l.82-.46h-.92c-.59,0-.91,.01-1.27,.06v-1.45c.41,.05,.83,.07,1.51,.07h3.73c.82,0,1.22-.02,1.44-.07l.74,.84c-.17,.11-.18,.12-.59,.47-.43,.37-.97,.78-1.38,1.06h.76c.59,0,.86-.01,1.19-.05-.04,.32-.05,.68-.05,1.33v3.87c0,1.06-.3,1.32-1.52,1.32-.12,0-.31,0-.58-.01-.05-.52-.12-.8-.28-1.2,.29,.05,.48,.07,.67,.07,.2,0,.23-.04,.23-.3v-.36h-1.45v.42c0,.7,.01,.96,.06,1.34h-1.55c.05-.35,.07-.72,.07-1.34v-.42h-1.33v.5c0,.74,.01,1.04,.07,1.32h-1.6c.04-.35,.06-.72,.06-1.32v-3.83c0-.65-.01-.97-.06-1.4,.37,.04,.73,.05,1.36,.05h.72Zm-.55,1.17v.65h1.33v-.65h-1.33Zm0,2.4h1.33v-.65h-1.33v.65Zm1.12-4.54c.31,.22,.55,.4,1.03,.77,.41-.28,.62-.44,1.01-.77h-2.04Zm1.63,2.79h1.45v-.65h-1.45v.65Zm1.45,1.1h-1.45v.65h1.45v-.65Z"/><path class="cls-2" d="M146.32,64.03c.3,.05,.52,.06,.97,.06h2.48c.49,0,.71-.01,.97-.05v1.38c-.28-.04-.38-.04-.92-.04h-2.53c-.43,0-.66,.01-.97,.05v-1.4Zm1.83,9.21h-1.48c.05-.36,.06-.68,.06-1.13v-1.94c0-.37-.01-.6-.05-.92,.3,.02,.53,.04,.91,.04h2.23c.44,0,.58,0,.77-.04-.02,.23-.02,.4-.02,.83v2.1c0,.48,.01,.64,.04,.91h-1.4v-.37h-1.05v.53Zm-1.46-10.88c.32,.04,.53,.05,1.04,.05h1.77c.5,0,.72-.01,1.04-.05v1.28c-.3-.02-.55-.04-1.04-.04h-1.77c-.46,0-.76,.01-1.04,.04v-1.28Zm.04,3.49c.23,.02,.38,.04,.76,.04h2.33c.37,0,.54-.01,.73-.04v1.26c-.24-.02-.4-.04-.73-.04h-2.33c-.37,0-.5,0-.76,.04v-1.26Zm0,1.69c.26,.04,.37,.04,.76,.04h2.33c.38,0,.52,0,.73-.04v1.26c-.25-.04-.36-.04-.76-.04h-2.31c-.37,0-.5,0-.74,.04v-1.26Zm1.39,3.95h1.09v-1.03h-1.09v1.03Zm5.08-7.3c-.74,.1-.95,.12-2,.22-.11-.5-.23-.84-.5-1.4,2.21-.07,4.62-.52,5.62-1.03l.85,1.38c-.13,.04-.17,.05-.35,.1-.52,.14-1.44,.36-2.12,.49v1.51h1.21c.59,0,.98-.02,1.37-.07v1.55c-.41-.05-.82-.07-1.37-.07h-1.21v1.36h1.28c.41,0,.67-.01,.89-.04-.02,.25-.04,.59-.04,1.01v2.72c0,.49,.02,1,.06,1.32h-1.6v-.52h-2.61v.52h-1.56c.04-.3,.05-.68,.05-1.26v-2.88c0-.37-.01-.56-.04-.91,.26,.02,.53,.04,.89,.04h1.17v-1.36h-.96c-.59,0-.97,.02-1.37,.07v-1.55c.38,.05,.79,.07,1.38,.07h.95v-1.26Zm-.52,7.12h2.61v-1.73h-2.61v1.73Z"/><path class="cls-2" d="M160.25,69.37c.05,.49,.12,.72,.32,.97,.32,.42,.89,.65,1.6,.65,1.04,0,1.7-.48,1.7-1.25,0-.37-.16-.67-.47-.86-.37-.24-.74-.36-2.05-.66-1.02-.24-1.42-.4-1.87-.72-.67-.5-1.03-1.24-1.03-2.12,0-1.76,1.4-2.88,3.62-2.88,1.43,0,2.51,.43,3.13,1.25,.3,.41,.46,.76,.61,1.46l-2.11,.23c-.06-.37-.14-.55-.31-.77-.28-.32-.75-.5-1.33-.5-.94,0-1.56,.46-1.56,1.14,0,.32,.14,.59,.41,.78,.26,.17,.5,.25,1.13,.4,1.31,.28,1.88,.43,2.36,.65,.49,.22,.94,.59,1.21,1.04,.24,.4,.36,.88,.36,1.45,0,1.96-1.37,3.07-3.77,3.07-1.55,0-2.71-.43-3.35-1.24-.4-.49-.56-.95-.7-1.88l2.09-.2Z"/><path class="cls-2" d="M170,62.72c-.07,.48-.1,.85-.1,1.66v6.44c0,.77,.02,1.19,.1,1.66h-2.21c.07-.47,.1-.91,.1-1.66v-6.44c0-.83-.02-1.14-.1-1.66h2.21Z"/><path class="cls-2" d="M176.92,72.48c-.06-.41-.23-.97-.52-1.69l-1.46-3.73c-.14-.37-.31-.92-.56-1.82,.07,1.16,.1,1.64,.1,1.94v3.49c0,.84,.02,1.33,.1,1.81h-2c.07-.5,.1-1,.1-1.81v-6.12c0-.76-.02-1.32-.1-1.82h2.66c.07,.44,.22,.95,.44,1.55l2.13,5.59,2.12-5.59c.24-.61,.37-1.09,.44-1.55h2.66c-.07,.58-.1,1.02-.1,1.82v6.12c0,.9,.02,1.36,.1,1.81h-2c.07-.54,.1-.97,.1-1.81v-3.53c0-.29,.02-.77,.1-1.91q-.06,.23-.19,.76c-.06,.2-.26,.85-.33,1.03l-1.51,3.78c-.24,.62-.46,1.29-.52,1.68h-1.75Z"/><path class="cls-2" d="M129.89,79.55c-.12,.2-.16,.26-.31,.61-.11,.22-.14,.3-.26,.52l3.17-.02c.42-.01,.62-.04,.9-.16l.94,.92c-.17,.19-.18,.22-.38,.82-.79,2.31-1.71,3.93-2.99,5.25-1.06,1.09-2.36,1.98-4.07,2.76-.41-.72-.61-.97-1.19-1.51,1-.4,1.58-.68,2.29-1.12,.8-.52,1.29-.91,1.89-1.56-.82-.68-1.45-1.12-2.35-1.61l1.09-1.28c1.05,.59,1.62,.96,2.3,1.49,.52-.79,.88-1.56,1.17-2.5l-3.51,.04c-.73,1.2-1.57,2.18-2.77,3.21-.49-.55-.73-.73-1.45-1.14,1.37-1.07,2.25-2.08,3-3.44,.35-.64,.58-1.19,.7-1.68l1.83,.4Z"/><path class="cls-2" d="M146.38,80.52c-.25,.22-.28,.24-.46,.43-.91,.95-1.82,1.74-2.81,2.45v4.73c0,.96,.01,1.37,.06,1.78h-1.98c.06-.46,.07-.76,.07-1.74v-3.65c-1.25,.74-1.93,1.06-4.1,1.86-.32-.74-.47-.98-.97-1.63,2.42-.67,4.43-1.66,6.32-3.12,1.06-.82,1.86-1.62,2.22-2.22l1.64,1.12Z"/><path class="cls-2" d="M156.17,80.41c.14,0,.29,0,.52-.02,.05-.7,.62-1.24,1.32-1.24,.74,0,1.33,.6,1.33,1.33s-.59,1.33-1.32,1.33h-.05l-.05,.17c-.5,2.01-1.27,3.57-2.38,4.86-1.1,1.29-2.46,2.23-4.52,3.15-.4-.77-.59-1.03-1.27-1.71,1.04-.32,1.7-.64,2.58-1.19,1.85-1.18,3.02-2.82,3.57-5h-5.25c-.98,0-1.37,.01-1.86,.07v-1.83c.52,.07,.89,.08,1.88,.08h5.49Zm1.25,.07c0,.32,.26,.59,.59,.59s.59-.26,.59-.59-.26-.59-.59-.59-.59,.26-.59,.59Z"/><path class="cls-2" d="M168.72,89.48c-.08-.49-.19-.91-.31-1.27l-.41-1.16h-3.62l-.41,1.16c-.19,.54-.26,.86-.32,1.27h-2.37c.19-.36,.36-.76,.61-1.44l2.61-7.06c.22-.6,.31-.91,.38-1.25h2.58c.07,.31,.14,.56,.41,1.25l2.64,7.06c.23,.61,.44,1.14,.59,1.44h-2.38Zm-2.36-7.52c-.04-.11-.08-.23-.18-.55-.07,.25-.08,.31-.17,.55l-1.13,3.39h2.61l-1.14-3.39Z"/><g><path class="cls-2" d="M53.4,11.34L43.06,1c-.64-.64-1.51-1-2.42-1H23.07c-1.26,0-2.28,1.02-2.28,2.28V47.85c0,1.26,1.02,2.28,2.28,2.28h29.05c1.26,0,2.28-1.02,2.28-2.28V13.76c0-.91-.36-1.78-1-2.42Z"/><path class="cls-1" d="M31.49,21.38c0-1.12-.04-1.68-.16-2.49,.72,.04,1.17,.05,2.47,.05h3.51c2.22,0,3.86,.54,5.03,1.68,1.32,1.28,2,3.15,2,5.51s-.72,4.43-2.11,5.78c-1.19,1.14-2.78,1.68-4.9,1.68h-3.53c-1.23,0-1.71,.02-2.45,.05,.11-.78,.14-1.33,.14-2.49v-9.79Zm5.6,9.61c1.33,0,2.23-.32,2.92-1.04,.81-.85,1.24-2.14,1.24-3.75s-.38-2.83-1.15-3.62c-.68-.7-1.59-1.01-3.03-1.01h-2.61v9.42h2.63Z"/><path class="cls-2" d="M163.21,11.34l-10.34-10.34c-.64-.64-1.51-1-2.42-1h-17.57c-1.26,0-2.28,1.02-2.28,2.28V47.85c0,1.26,1.02,2.28,2.28,2.28h29.05c1.26,0,2.28-1.02,2.28-2.28V13.76c0-.91-.36-1.78-1-2.42Z"/><path class="cls-1" d="M151.21,33.6c-.13-.74-.29-1.37-.47-1.91l-.61-1.75h-5.44l-.61,1.75c-.29,.81-.4,1.3-.49,1.91h-3.57c.29-.54,.54-1.14,.92-2.16l3.93-10.61c.32-.9,.47-1.37,.58-1.87h3.88c.11,.47,.22,.85,.61,1.87l3.96,10.61c.34,.92,.67,1.71,.88,2.16h-3.57Zm-3.55-11.3c-.05-.16-.13-.34-.27-.83-.11,.38-.13,.47-.25,.83l-1.69,5.1h3.93l-1.71-5.1Z"/><rect class="cls-3" x="78.3" y="20.9" width="27.28" height="8.17"/><polygon class="cls-3" points="110.32 25.06 101.2 14.88 101.2 35.24 110.32 25.06"/></g></svg>