<?xml version="1.0" encoding="UTF-8"?><svg id="_イヤー_1" xmlns="http://www.w3.org/2000/svg" width="37.55" height="37.55" viewBox="0 0 37.55 37.55"><defs><style>.cls-1{fill:#fff;}.cls-2{fill:#8fc31f;}</style></defs><circle class="cls-1" cx="18.78" cy="18.78" r="18.78"/><g><g id="_ス_1537"><path class="cls-2" d="M13.04,15.68c.06,0,.12,.02,.18,.02h14.07l-1.86,5.22H15.53c-.17,0-.33,.03-.49,.07-.18,.05-.35,.11-.51,.19l-1.49-5.51m-1.8-6.51h-3.31c-.12,0-.23,.1-.24,.22,0,0,0,.02,0,.03v1.91c0,.13,.09,.24,.22,.25h1.54c.22,.02,.41,.15,.5,.35l4.28,15.81c.04,.11,.14,.18,.25,.2h10.64c.13,0,.23-.1,.24-.22,0,0,0-.02,0-.03l-.05-1.91c0-.13-.09-.24-.22-.25h-8.69c-.22-.02-.41-.15-.5-.35l-.6-1.86c-.04-.17,.06-.35,.23-.39,.02,0,.04,0,.07,0h10.53c.42,0,.8-.26,.96-.65l2.67-7.5c.21-.32,.12-.74-.19-.95-.11-.07-.24-.11-.38-.11-.03,0-.06,0-.08,0H13.38c-.22-.02-.41-.15-.5-.35-.05-.15-1.16-3.83-1.16-3.83-.06-.21-.26-.35-.48-.35h0Z"/></g><g id="_円形_463"><path class="cls-2" d="M25.12,27.55s.07,.03,.07,.06-.03,.07-.07,.07-.07-.03-.07-.07,.03-.06,.07-.06m0-2c-1.14,0-2.07,.92-2.07,2.06s.92,2.07,2.07,2.07,2.07-.92,2.07-2.07-.92-2.06-2.07-2.06h0Z"/></g><g id="_円形_464"><path class="cls-2" d="M14.34,27.55s.07,.03,.07,.06-.03,.07-.07,.07-.07-.03-.07-.07,.03-.06,.07-.06m0-2c-1.14,0-2.07,.92-2.07,2.06s.92,2.07,2.07,2.07,2.07-.92,2.07-2.07-.92-2.06-2.07-2.06h0Z"/></g></g></svg>