<?xml version="1.0" encoding="utf-8"?>
<!-- Generator: Adobe Illustrator 25.3.1, SVG Export Plug-In . SVG Version: 6.00 Build 0)  -->
<svg version="1.1" id="レイヤー_1" xmlns="http://www.w3.org/2000/svg" xmlns:xlink="http://www.w3.org/1999/xlink" x="0px"
	 y="0px" width="60px" height="60px" viewBox="0 0 60 60" style="enable-background:new 0 0 60 60;" xml:space="preserve">
<style type="text/css">
	.st0{fill:#1BBC6B;}
	.st1{fill:#F3F3F3;}
	.st2{fill:#68E8B3;}
	.st3{fill:#FFFFFF;}
	.st4{fill:none;}
</style>
<g>
	<g>
		<g>
			<path class="st0" d="M13.6,3.7v17.2c0,1.9,1.5,3.4,3.4,3.4h30.6l7,7.5c0.9,0.9,2.4,0.2,2.4-1l-1.4-6.5h0.8c1.9,0,3.4-1.5,3.4-3.4
				V3.7c0-1.9-1.5-3.4-3.4-3.4H17C15.1,0.3,13.6,1.8,13.6,3.7z"/>
			<g>
				<path class="st1" d="M26.6,9.1c1.5,0,2.7,1.2,2.7,2.7s-1.2,2.7-2.7,2.7s-2.7-1.2-2.7-2.7S25.1,9.1,26.6,9.1z"/>
				<path class="st1" d="M36.7,14.5c-1.5,0-2.7-1.2-2.7-2.7s1.2-2.7,2.7-2.7s2.7,1.2,2.7,2.7S38.2,14.5,36.7,14.5z"/>
				<path class="st1" d="M46.8,14.5c-1.5,0-2.7-1.2-2.7-2.7s1.2-2.7,2.7-2.7s2.7,1.2,2.7,2.7S48.3,14.5,46.8,14.5z"/>
			</g>
		</g>
	</g>
</g>
<g>
	<g>
		<path class="st2" d="M43.3,28H3.8c-1.9,0-3.4,1.5-3.4,3.4v17.2c0,1.9,1.5,3.4,3.4,3.4h3.6L6,58.5c0,1.2,1.5,1.9,2.4,1l7-7.5h27.9
			c1.9,0,3.4-1.5,3.4-3.4V31.4C46.6,29.5,45.1,28,43.3,28z"/>
	</g>
	<g>
		<path class="st3" d="M13.5,36.7c1.5,0,2.7,1.2,2.7,2.7c0,1.5-1.2,2.7-2.7,2.7s-2.7-1.2-2.7-2.7C10.7,38,11.9,36.7,13.5,36.7z"/>
		<path class="st3" d="M23.5,42.2c-1.5,0-2.7-1.2-2.7-2.7c0-1.5,1.2-2.7,2.7-2.7s2.7,1.2,2.7,2.7C26.3,41,25,42.2,23.5,42.2z"/>
		<path class="st3" d="M33.6,42.2c-1.5,0-2.7-1.2-2.7-2.7c0-1.5,1.2-2.7,2.7-2.7s2.7,1.2,2.7,2.7C36.3,41,35.1,42.2,33.6,42.2z"/>
	</g>
</g>
<rect y="0" class="st4" width="60" height="60"/>
</svg>
