<?xml version="1.0" encoding="utf-8"?>
<!-- Generator: Adobe Illustrator 25.3.1, SVG Export Plug-In . SVG Version: 6.00 Build 0)  -->
<svg version="1.1" id="レイヤー_1" xmlns="http://www.w3.org/2000/svg" xmlns:xlink="http://www.w3.org/1999/xlink" x="0px"
	 y="0px" width="60px" height="60px" viewBox="0 0 60 60" style="enable-background:new 0 0 60 60;" xml:space="preserve">
<style type="text/css">
	.st0{fill:#008BD5;}
	.st1{fill:#FFFFFF;}
	.st2{fill:#35318E;}
	.st3{fill:#F85858;}
	.st4{fill:none;}
</style>
<g>
	<g>
		<g>
			<path class="st0" d="M3,26c-2.5,15.2,7.8,29.5,23,32c15.2,2.5,29.5-7.8,32-23s-7.8-29.5-23-32C19.9,0.6,5.5,10.8,3,26"/>
		</g>
		<g>
			<path class="st1" d="M20.8,20.5c-0.5,3.1,1.7,5.7,4.7,5.8c3.1,0.2,6-2.2,6.4-5.3c0.5-3.1-1.7-5.7-4.8-5.8
				C24.1,15,21.3,17.4,20.8,20.5"/>
			<path class="st1" d="M8.2,18.1c-1.2,3-0.6,5.6,1.3,5.7c1.9,0.1,4.4-2.3,5.5-5.3c1.2-3,0.6-5.6-1.3-5.7
				C11.9,12.7,9.4,15.1,8.2,18.1"/>
			<path class="st2" d="M25.5,22c0.1,1.6,1.5,2.7,3.1,2.3c1.6-0.4,2.8-2.1,2.6-3.7c-0.1-1.6-1.5-2.7-3.1-2.3
				C26.6,18.7,25.4,20.4,25.5,22"/>
			<path class="st2" d="M11.1,19c-0.6,1.6-0.4,2.9,0.6,3c1,0,2.3-1.2,2.9-2.8c0.6-1.6,0.4-2.9-0.6-3C13.1,16.1,11.8,17.4,11.1,19"/>
		</g>
	</g>
	<ellipse transform="matrix(0.1008 -0.9949 0.9949 0.1008 -2.3161 60.3563)" class="st3" cx="32.2" cy="31.5" rx="3.8" ry="5.8"/>
	<ellipse transform="matrix(0.4468 -0.8946 0.8946 0.4468 -21.6431 19.1493)" class="st3" cx="4.7" cy="27.1" rx="3.9" ry="3"/>
</g>
<rect class="st4" width="60" height="60"/>
</svg>
