<?xml version="1.0" encoding="utf-8"?>
<!-- Generator: Adobe Illustrator 25.3.1, SVG Export Plug-In . SVG Version: 6.00 Build 0)  -->
<svg version="1.1" id="レイヤー_1" xmlns="http://www.w3.org/2000/svg" xmlns:xlink="http://www.w3.org/1999/xlink" x="0px"
	 y="0px" width="60px" height="60px" viewBox="0 0 60 60" style="enable-background:new 0 0 60 60;" xml:space="preserve">
<style type="text/css">
	.st0{fill:#3FA7F3;}
	.st1{fill:#FFFFFF;}
	.st2{fill:none;}
</style>
<g>
	<path class="st0" d="M30.2,6.5c19.1,0,30,10.2,30,22.7c0,5.6-2.6,10.8-7.4,15l1.6,6c0.1,0.4,0.4,1.5-0.6,2.1
		c-0.8,0.5-2.3,0.1-2.5-0.1l-8.1-2.4c0,0-4.4,2.2-12.9,2.2c-19.1,0-30-10.2-30-22.7S11,6.5,30.2,6.5z"/>
	<g>
		<path class="st1" d="M29.4,36.3c-1.7,0-3.1,1.3-3.1,3c0,1.7,1.4,3.1,3.1,3.1c1.7,0,3.1-1.3,3.1-3.1C32.5,37.7,31.1,36.3,29.4,36.3
			z"/>
		<path class="st1" d="M30.1,16.6c-3.8,0-7.9,2.1-8.2,7.9c0,0.2,0.1,0.3,0.2,0.4c0.1,0.1,0.3,0.2,0.5,0.2l3.9,0
			c0.3,0,0.6-0.2,0.6-0.6c0.1-0.7,0.4-2.8,2.7-2.8c1.5,0,2.5,1.2,2.5,2.3c0,0.8-0.5,1.2-1.6,2.2c-0.4,0.3-0.8,0.7-1.4,1.2
			c-2.5,2.3-2.6,5-2.6,5.9c0,0.2,0.1,0.3,0.2,0.4C27,34,27.1,34,27.3,34l4.2,0c0,0,0,0,0,0c0.3,0,0.6-0.2,0.6-0.5
			c0.1-0.8,0.7-3.1,2.3-4.3c2.3-2.1,3.1-3.3,3.1-6.1C37.6,19.4,34.4,16.6,30.1,16.6z"/>
	</g>
</g>
<rect y="0" class="st2" width="60" height="60"/>
</svg>
