<?xml version="1.0" encoding="utf-8"?>
<!-- Generator: Adobe Illustrator 25.3.1, SVG Export Plug-In . SVG Version: 6.00 Build 0)  -->
<svg version="1.1" id="レイヤー_1" xmlns="http://www.w3.org/2000/svg" xmlns:xlink="http://www.w3.org/1999/xlink" x="0px"
	 y="0px" width="60px" height="60px" viewBox="0 0 60 60" style="enable-background:new 0 0 60 60;" xml:space="preserve">
<style type="text/css">
	.st0{fill:none;}
	.st1{fill:#BBCAD2;}
	.st2{fill:#1BBC6B;}
	.st3{fill:#68605C;}
	.st4{fill:#FFDBC2;}
	.st5{fill:#575766;}
	.st6{fill:#D8A684;}
	.st7{fill:#1FC97C;}
	.st8{fill:#FFFFFF;}
	.st9{fill:#E2EAF2;}
</style>
<rect class="st0" width="60" height="60"/>
<g>
	<path class="st1" d="M49.5,8.2h9.6c0.4,0,0.8-0.3,0.8-0.8V0.8c0-0.4-0.3-0.8-0.8-0.8h-9.6c-0.4,0-1,0.3-1,0.8v6.6
		C48.5,7.9,49,8.2,49.5,8.2z"/>
	<path class="st1" d="M40.5,32.7h13.2c0.4,0,0.8-0.3,0.8-0.8v-7.5c0-0.4-0.3-0.8-0.8-0.8H40.5c-0.4,0-0.8,0.3-0.8,0.8v7.5
		C39.8,32.4,40.1,32.7,40.5,32.7z"/>
	<path class="st1" d="M32.4,36.1h5c0.4,0,0.8-0.3,0.8-0.8v-8.1c0-0.4-0.3-0.8-0.8-0.8h-5c-0.4,0-0.8,0.3-0.8,0.8v8.1
		C31.6,35.7,32,36.1,32.4,36.1z"/>
	<path class="st1" d="M40.5,36.1h5.2c0.4,0,0.8-0.3,0.8-0.8V24.4c0-0.4-0.3-0.8-0.8-0.8h-5.2c-0.4,0-0.8,0.3-0.8,0.8v10.9
		C39.8,35.7,40.1,36.1,40.5,36.1z"/>
	<path class="st1" d="M49.5,11.5h3.9c0.4,0,0.8-0.3,0.8-0.8V4.5c0-0.4-0.3-0.8-0.8-0.8h-3.9c-0.4,0-1,0.3-1,0.8v6.2
		C48.5,11.1,49,11.5,49.5,11.5z"/>
	<g>
		<path class="st1" d="M57.7,10.6h-1.5c-0.4,0-0.7,0.3-0.7,0.7v1.9c0,0.4-0.3,0.7-0.7,0.7h-5.7c-0.4,0-0.7,0.3-0.7,0.7v17.4
			c0,0.4,0.3,0.8,0.8,0.8h8.5c0.4,0,0.8-0.3,0.8-0.8V11.3C58.5,10.9,58.2,10.6,57.7,10.6z"/>
	</g>
</g>
<g>
	<g>
		<circle class="st2" cx="29.1" cy="33.1" r="6.2"/>
		<g>
			<path class="st3" d="M3.5,35.5C1,25.5,5.1,13.1,17.3,12.8c15.1-0.3,17.1,14.6,16.5,20.1c-0.7,6.3-4.5,14.6-15.5,14.6
				C14.4,47.5,4.3,38.6,3.5,35.5z"/>
			<path class="st3" d="M4.1,34.9c0.8,4.3,3.2,6.3,2.3,8.5c-0.6,1.4-2.7,0.4-2.4,1.1c1.2,3.2,11.3,4.5,14.7,2.8c6.2-3.2,4.7-2,4.7-2
				s0.1-12.5-6.5-15.8S2.6,27.3,4.1,34.9z"/>
			<g>
				<g>
					<g>
						<g>
							<path class="st4" d="M9.2,32.3C9,25.4,14.4,19.8,20.5,20c6.1,0.1,10.9,5.9,10.7,12.9c-0.1,3.8-2.3,9.3-5.4,11.5
								c-1.8,0.9-1.7,5.1-1.7,5.1l-4,0.4l-4,0c0,0,1.1-3.5,0.1-5C12.7,43,9.3,38.6,9.2,32.3z"/>
							<g>
								<circle class="st5" cx="27" cy="31.9" r="1.1"/>
								<circle class="st5" cx="18.9" cy="33" r="1.1"/>
							</g>
							
								<ellipse transform="matrix(0.9951 -9.877649e-02 9.877649e-02 0.9951 -3.3735 2.5311)" class="st6" cx="23.9" cy="35.3" rx="0.8" ry="1"/>
							<path class="st5" d="M20.7,38.6c-0.3,0.4,0.7,1.7,2.4,1.5c1.8-0.2,2.5-1.9,2.4-2c-0.1-0.1-0.8,0.5-2,0.6
								C22.1,39,20.7,38.6,20.7,38.6z"/>
							<g>
								
									<ellipse transform="matrix(0.9783 -0.2072 0.2072 0.9783 -7.1017 2.5748)" class="st4" cx="8.7" cy="35.2" rx="3.3" ry="4"/>
							</g>
						</g>
						<path class="st4" d="M16.2,49.9c0,0,3.2-1.1,4-0.9c0.7-0.2,4-1.2,4,0.6c0,2,4.1,2.5,4.1,2.5H12.1C12.1,52,15.5,51,16.2,49.9z"
							/>
					</g>
					<path class="st3" d="M28.7,23.3c-0.2,0.3,1.5,2.6,1.3,3.4c-2.1-0.1-5.3-5.3-5.3-5.3s-10.6,7-15.5,6.3c-2.5-0.4,4.4-8.4,8.8-9.5
						C22.5,17.1,27.8,19.7,28.7,23.3z"/>
				</g>
			</g>
			<ellipse class="st2" cx="5.4" cy="34.6" rx="5.2" ry="5.6"/>
			<path class="st7" d="M6,33.9l-2.7-0.1c0.6-9.9,2.2-18.5,14.5-20.4c3.4-0.5,7.7,0.9,10.1,2.8c5.2,4,5.6,11.1,5.7,11.4l-0.1-0.3
				c0-0.1-1.4-7-5.9-10.4c-1.9-1.5-5.7-2.2-8.5-1.7C8.5,16.9,6.6,24.3,6,33.9z"/>
			<ellipse class="st8" cx="4.2" cy="33.5" rx="2.5" ry="2.7"/>
		</g>
		<g>
			<path class="st2" d="M10.9,42.8c-2.6,0-5.5-0.3-6.7-3.2c0,0,0-0.2,0.5-0.3c0.5-0.1,0.7,0.1,0.7,0.1c2.2,3.5,10.1,1.5,10.2,1.5
				L16,42C15.9,42.1,13.5,42.8,10.9,42.8z"/>
			<path class="st2" d="M17.5,42.5l-3.2,0.7c-0.9,0.2-1.9-0.3-2.1-1.2l0,0c-0.2-0.9,0.3-1.7,1.3-2l3.2-0.7c0.9-0.2,1.9,0.3,2.1,1.2
				v0C19,41.4,18.4,42.3,17.5,42.5z"/>
		</g>
	</g>
	<g>
		<path class="st9" d="M34,55.3c-1.7-2.4-4.7-3.6-7.3-3.6H11.5c-2.6,0-5.4,0.5-8.4,3.8c-0.5,0.5-2.2,3.4-2.9,4.5h35.5
			C35.5,58.4,34.5,56,34,55.3z"/>
	</g>
	<g>
		<path class="st4" d="M31.5,51.6c0.1-3.4,0.9-6.9,1.1-8.3c0.2-1.7,3.2-2.4,3-0.1c-0.2,2.3-0.7,7-0.7,7L31.5,51.6z"/>
		<g>
			<path class="st4" d="M32.7,47.9c1.9-4.2,8.5-8,9.6-5.3c0.3,0.8,0.2,3.3-2.2,5.9c-1.3,1.5-6.6,8.3-6.6,8.3l-4.8-3.5
				C28.7,53.3,31.8,49.7,32.7,47.9z"/>
		</g>
	</g>
</g>
</svg>
