<?xml version="1.0" encoding="utf-8"?>
<!-- Generator: Adobe Illustrator 25.3.1, SVG Export Plug-In . SVG Version: 6.00 Build 0)  -->
<svg version="1.1" id="レイヤー_1" xmlns="http://www.w3.org/2000/svg" xmlns:xlink="http://www.w3.org/1999/xlink" x="0px"
	 y="0px" width="290px" height="182px" viewBox="0 0 290 182" style="enable-background:new 0 0 290 182;" xml:space="preserve">
<style type="text/css">
	.st0{fill:none;}
	.st1{fill:none;stroke:#68E8B3;stroke-width:3.9368;stroke-linecap:round;stroke-linejoin:round;stroke-miterlimit:10;}
	.st2{fill:#FFDBC2;}
	.st3{fill:#4EDDBB;}
	.st4{fill:#3176D5;}
	.st5{fill:#37377C;}
	.st6{fill:#D8A684;}
	.st7{fill:#3FE1A5;}
	.st8{fill:#68E8B3;}
	.st9{fill:#C1F272;}
	.st10{fill:#3FE1A5;stroke:#FFFFFF;stroke-width:0.3749;stroke-miterlimit:10;}
	.st11{fill:#CACACA;}
</style>
<rect class="st0" width="290" height="182"/>
<g>
	<g>
		<g>
			<g>
				<path class="st1" d="M87.4,33.4c17.9-3.5,27.1,7.6,26.3,23.2"/>
				<path class="st1" d="M79.3,31.5C65.3,18.3,42.1,26,40,41.2"/>
				<path class="st1" d="M32.5,45.7c-18.1,9.1-9.7,29.5-3.9,32.3"/>
				<path class="st1" d="M30.5,86.7c1.4,22.1,27.5,32.7,47.5,17.9"/>
				<path class="st1" d="M113.1,87.4c-1,11.1-10.9,19.1-25.4,16"/>
			</g>
		</g>
		<g>
			<g>
				<g>
					<g>
						<g>
							<g>
								<g>
									<g>
										<g>
											<path class="st2" d="M155.3,109.4c0-4.2-7.5-2.6-9.2-2.1c-1.7-0.4-9.2-2-9.2,2.1c0,4.7-9.6,5.5-9.6,5.5L146,123l19.2-8.1
												C165.2,114.9,155.3,114.1,155.3,109.4z"/>
											<path class="st3" d="M174.6,181.3l6.3-18.6l15.1-25.5c-1.2-9.3-19-23.6-30.3-23.1l-22.6,7.7l-19.4-8.4
												c-12.5,3.3-25.3,19.6-25.3,26.9l20.3,40.9H174.6z"/>
											<g>
												<g>
													<g>
														<g>
															<g>
																<path class="st4" d="M183.2,79.4c8.1-16.4,6-41.1-20.3-46.3c-26.9-5.3-36,18.2-36.9,27.8c-1,11.1,4.5,23,24.1,26.9
																	S180.8,84.3,183.2,79.4z"/>
																<path class="st2" d="M178.4,76.1c3.2-15.9-5.6-31-19.5-33.8c-13.9-2.8-27.8,7.9-30.9,23.8
																	c-1.7,8.7,0.1,17.3,4.5,23.6c6,10.7,4.4,18.8,4.4,18.8l8.6,1.5l9.1,1.9c0,0,1.1-8,10.7-15.6
																	C171.7,92,176.7,84.8,178.4,76.1z"/>
															</g>
														</g>
														<path class="st4" d="M136,48c0,0,6.9,2.7,14.4,4.9l-1.7-6.4c0,0,11.9,6,19.2,9.3l-0.9-7.1c0,0,7.1,9.1,11.9,12.4
															c4.8,3.3-4.2-16.9-13.6-21.6C156,34.7,139.9,40.5,136,48z"/>
														<path class="st4" d="M161.5,35.7c0,0-5-2.8-1.8-9.8c2.8-6.1,10.7-7.1,18-4.7c0.9,0.3,1,1.5,0.1,2
															c-0.8,0.4-2.4,0.7-2.8,2c-0.8,2.8,3.7,4.1,0.7,9.8C172.8,40.2,164,38.5,161.5,35.7z"/>
													</g>
												</g>
												<g>
													
														<ellipse transform="matrix(1.494576e-02 -0.9999 0.9999 1.494576e-02 58.8843 192.2334)" class="st2" cx="127" cy="66.2" rx="8.4" ry="6.9"/>
													
														<ellipse transform="matrix(0.4163 -0.9092 0.9092 0.4163 29.0691 210.4245)" class="st2" cx="178.4" cy="82.6" rx="9.4" ry="7.6"/>
												</g>
											</g>
										</g>
									</g>
									<g>
										<g>
											<circle class="st5" cx="142.6" cy="72.6" r="2.4"/>
											<circle class="st5" cx="162.2" cy="77.6" r="2.4"/>
										</g>
										
											<ellipse transform="matrix(0.195 -0.9808 0.9808 0.195 43.2296 210.5627)" class="st6" cx="149.9" cy="78.9" rx="2.4" ry="1.8"/>
									</g>
								</g>
							</g>
						</g>
					</g>
					<path class="st5" d="M148.9,85.8c-1.5-0.3-2.2,4.8-0.3,4.8S150.4,86.1,148.9,85.8z"/>
				</g>
			</g>
		</g>
		<g>
			<g>
				<path class="st1" d="M275.8,79.9c3.4-23-25.2-38.3-42.1-27.1"/>
				<path class="st1" d="M245.5,130.7c28.7,1.2,42.3-20.3,31.7-40.8"/>
				<path class="st1" d="M225.4,55.5c-16.8-1.9-27.1,10.9-27.1,22.5"/>
				<path class="st1" d="M195.9,97.4c-8.9,24.4,24.5,40.3,38.7,34.1"/>
			</g>
			<g>
				<path class="st7" d="M254.3,103.9c0.6,0.3,1,0.7,1,1.2c0.1,0.8-0.5,1.5-1.2,1.6c-0.3,0-0.5,0-1-0.2c-0.7-0.3-1.3-0.3-2.1-0.2
					c-1.9,0.2-3,1.8-2.8,3.9c0.2,2,1.7,3.2,3.6,3c0.9-0.1,1.5-0.4,2.1-0.9c0.3-0.3,0.6-0.4,0.9-0.4c0.8-0.1,1.5,0.6,1.6,1.4
					c0.1,0.5-0.1,0.9-0.6,1.3c-0.9,0.8-2.3,1.3-3.9,1.5c-3.9,0.4-6.9-1.9-7.4-5.5c-0.4-3.6,2.2-6.6,6.1-7
					C252.3,103.3,253.2,103.4,254.3,103.9z"/>
				<path class="st8" d="M216.2,96.6c0.1,0.8-0.6,1.5-1.6,1.6c-1,0.1-1.8-0.4-1.9-1.2l-1.6-13.7c-0.1-0.8,0.6-1.5,1.6-1.6
					c1-0.1,1.8,0.4,1.9,1.2l0.1,0.7c0.6-1.4,1.9-2.3,3.5-2.5c3.1-0.4,5.7,1.9,6.1,5.5c0.4,3.7-1.4,6.3-4.8,6.7
					c-1.3,0.2-2.8-0.3-3.8-1.2L216.2,96.6z M215.3,89.1c0.7,1.1,1.8,1.7,2.9,1.6c1.7-0.2,2.5-1.6,2.3-3.7c-0.2-2.1-1.5-3.3-3.1-3.1
					c-1.1,0.1-2,1-2.5,2.5L215.3,89.1z"/>
			</g>
			<g>
				<path class="st7" d="M231.9,80.3c0,0.4,0.2,0.6,0.6,0.6l5.3-0.1c0.9,0,1.4,0.4,1.5,1.4c0,1-0.5,1.4-1.4,1.5l-6.5,0.1
					c-1.8,0-2.6-0.6-2.6-2.6l-0.2-11.6c0-0.5,0.1-1.5,1.5-1.6c1.2,0,1.6,0.5,1.7,1.5L231.9,80.3z"/>
				<path class="st9" d="M231.2,109.5c1.3,0.4,1.1,1.4,1,1.9c-0.2,0.6-0.7,1.4-1.9,0.9l-5.8-2l-1.1,3.2c-0.1,0.4,0,0.7,0.4,0.9
					l6.2,2.1c0.9,0.3,1.3,0.9,1,2c-0.4,1-1,1.3-2,1l-7.5-2.5c-1.8-0.6-2.5-1.6-1.8-3.7l3.6-10.4c0.7-2.1,1.8-2.5,3.7-1.9l7.1,2.4
					c0.7,0.3,1.4,0.8,1,2c-0.3,0.8-0.8,1.4-2,1l-5.8-2c-0.4-0.1-0.7,0-0.8,0.4l-0.9,2.8L231.2,109.5z"/>
				<path class="st9" d="M250.6,77.7c0.5-1.9,1.5-2,2.7-1.8l5.5,0.9c0.3,0,1.5,0.2,1.3,1.7c-0.2,1.5-1.4,1.3-1.8,1.2l-4.5-0.7
					c-0.4-0.1-0.7,0.1-0.8,0.5l-0.7,2.7c0.5-0.2,1.2-0.6,2.7-0.3c2.9,0.5,4.8,3,4.3,6.4c-0.6,4.1-3.6,5.7-6.6,5.2
					c-4.3-0.7-5-4.2-4.9-5.1c0.2-1.1,1.1-1.3,1.7-1.2c0.4,0.1,1.3,0.2,1.5,1.3c0.1,0.7,0.3,1.8,2,2.1c2.1,0.3,2.8-1.5,2.9-2.7
					c0.3-1.6-0.3-3-2-3.2c-1.2-0.2-1.6,0.2-2.2,0.6c-0.1,0.1-0.6,0.5-1.4,0.3c-0.9-0.1-1.6-0.6-1.3-1.7L250.6,77.7z"/>
			</g>
		</g>
	</g>
	<g>
		<path class="st10" d="M51.3,58.1l-6-2l1.8-3.2l4.7,4.1l-1.3-6.2h3.7l-1.2,6.2l4.7-4.2l1.8,3.2l-6,2l6,2l-1.8,3.2l-4.7-4.1l1.3,6.2
			h-3.7l1.2-6.2l-4.7,4.2l-1.8-3.2L51.3,58.1z"/>
		<path class="st10" d="M69,58.1l-6-2l1.8-3.2l4.7,4.1l-1.3-6.2H72l-1.2,6.2l4.7-4.2l1.8,3.2l-6,2l6,2l-1.8,3.2l-4.7-4.1l1.3,6.2
			h-3.7l1.2-6.2l-4.7,4.2L63,60.1L69,58.1z"/>
		<path class="st10" d="M86.6,58.1l-6-2l1.8-3.2l4.7,4.1L86,50.9h3.7l-1.2,6.2l4.7-4.2l1.8,3.2l-6,2l6,2l-1.8,3.2l-4.7-4.1l1.3,6.2
			H86l1.2-6.2l-4.7,4.2l-1.8-3.2L86.6,58.1z"/>
		<path class="st10" d="M51.3,79.6l-6-2l1.8-3.2l4.7,4.1l-1.3-6.2h3.7l-1.2,6.2l4.7-4.2l1.8,3.2l-6,2l6,2l-1.8,3.2l-4.7-4.1l1.3,6.2
			h-3.7l1.2-6.2l-4.7,4.2l-1.8-3.2L51.3,79.6z"/>
		<path class="st10" d="M69,79.6l-6-2l1.8-3.2l4.7,4.1l-1.3-6.2H72l-1.2,6.2l4.7-4.2l1.8,3.2l-6,2l6,2l-1.8,3.2l-4.7-4.1l1.3,6.2
			h-3.7l1.2-6.2l-4.7,4.2L63,81.6L69,79.6z"/>
		<path class="st10" d="M86.6,79.6l-6-2l1.8-3.2l4.7,4.1L86,72.4h3.7l-1.2,6.2l4.7-4.2l1.8,3.2l-6,2l6,2l-1.8,3.2l-4.7-4.1l1.3,6.2
			H86l1.2-6.2l-4.7,4.2l-1.8-3.2L86.6,79.6z"/>
	</g>
	<g>
		<path class="st2" d="M187.5,157l-24.3,13.5l0.1,11.5h11.2c0,0,11.9-5.5,18.9-9.2c7.1-3.7,10.1-4.9,8.4-13.1L187.5,157z"/>
		<polygon class="st2" points="201.9,159.7 194.5,137.6 177,145 184.8,165.8 		"/>
	</g>
	<path class="st2" d="M160.6,168.3c-7.1,0-10.6,2-10.6,7.4c0,5.3,4.6,6.3,11.6,6.3c7.1,0,11.5,0.6,11.1-6.3
		C172.5,170.3,167.7,168.3,160.6,168.3z"/>
	<g>
		<g>
			<path class="st11" d="M163.3,182h-36.4c-1.7,0-3.1-1.4-3.1-3.1v-2.3c0-1.7,1.4-3.1,3.1-3.1h36.4c1.7,0,3.1,1.4,3.1,3.1v2.3
				C166.3,180.6,165,182,163.3,182z"/>
		</g>
		<g>
			<path class="st11" d="M147.3,181.9H80.4c-1.5,0-2.7-1.1-2.9-2.6l-7.2-49.3c-0.2-1.3,0.8-2.4,2.1-2.4h69.7c1.3,0,2.5,1.1,2.7,2.4
				l5.3,48.7C150.4,180.4,149.1,181.9,147.3,181.9z"/>
		</g>
	</g>
</g>
</svg>
