<?xml version="1.0" encoding="utf-8"?>
<!-- Generator: Adobe Illustrator 25.3.1, SVG Export Plug-In . SVG Version: 6.00 Build 0)  -->
<svg version="1.1" id="レイヤー_1" xmlns="http://www.w3.org/2000/svg" xmlns:xlink="http://www.w3.org/1999/xlink" x="0px"
	 y="0px" width="290px" height="182px" viewBox="0 0 290 182" style="enable-background:new 0 0 290 182;" xml:space="preserve">
<style type="text/css">
	.st0{fill:none;}
	.st1{fill:#FFDDC6;}
	.st2{fill:#4EDDBB;}
	.st3{fill:none;stroke:#E4E4E4;stroke-width:3.2595;stroke-miterlimit:10;}
	.st4{fill:#CACACA;}
	.st5{fill:#FFFFFF;}
	.st6{fill:#EF6AAC;}
	.st7{fill:#979797;}
	.st8{fill:#3176D5;}
	.st9{fill:#FFDBC2;}
	.st10{fill:#37377C;}
	.st11{fill:#D8A684;}
	.st12{fill:#F2C0CC;}
	.st13{fill:#76CCEC;}
	.st14{fill:#68E8B3;}
</style>
<rect class="st0" width="290" height="182"/>
<g>
	<g>
		<path class="st1" d="M113.7,165.9l-4.6,16.1H86.3c0,0,11.3-16.8,14.2-21L113.7,165.9z"/>
	</g>
	<g>
		<path class="st2" d="M103.5,152c8-9.9,12.9-9.6,19.6-9.6h41.4c6.7,0,13,2.2,16.2,10.9c2.3,6.3,9.6,21,11.3,28.6h-84.5l-19-6.3
			C91.2,168.4,99.7,156.8,103.5,152z"/>
	</g>
	<g>
		<g>
			<g>
				<path class="st3" d="M53.7,77.8h16.6c3,0,5.4,2.4,5.4,5.4v72.8c0,3-2.4,5.4-5.4,5.4H53.1"/>
				<line class="st3" x1="53.7" y1="118.9" x2="75.8" y2="118.9"/>
			</g>
			<g>
				<g>
					<path class="st4" d="M55.1,70.5l-16,0v-4.3c0-2.5,2.3-4.6,5.2-4.6c2.8,0,5,1.9,5.2,4.4c0,0.1,0.1,0.2,0.3,0.2h3.5
						c0.1,0,0.3-0.1,0.3-0.3c-0.2-4.6-4.2-8.4-9.2-8.4c-5.1,0-9.2,3.9-9.2,8.6v4.3l-1.2,0c-1.5,0-2.7,1.1-2.8,2.6v14.9
						c0.1,1.5,1.3,2.6,2.8,2.6h21.2c1.5,0,2.7-1.1,2.8-2.6V73.1C57.8,71.6,56.6,70.5,55.1,70.5z"/>
					<path class="st5" d="M45.9,81.2c-0.2,0.1-0.3,0.3-0.3,0.5v3.2c0,0.3-0.3,0.6-0.6,0.6h-1.4c-0.3,0-0.6-0.3-0.6-0.6v-3.2
						c0-0.2-0.1-0.4-0.3-0.5c-1.1-0.6-1.8-1.9-1.6-3.3c0.2-1.3,1.2-2.3,2.5-2.6c2.1-0.4,3.9,1.1,3.9,3.1
						C47.5,79.7,46.9,80.7,45.9,81.2z"/>
				</g>
			</g>
			<g>
				<g>
					<path class="st4" d="M55.1,109.5l-16,0v-4.3c0-2.5,2.3-4.6,5.2-4.6c2.8,0,5,1.9,5.2,4.4c0,0.1,0.1,0.2,0.3,0.2h3.5
						c0.1,0,0.3-0.1,0.3-0.3c-0.2-4.6-4.2-8.4-9.2-8.4c-5.1,0-9.2,3.9-9.2,8.6v4.3l-1.2,0c-1.5,0-2.7,1.1-2.8,2.6v14.9
						c0.1,1.5,1.3,2.6,2.8,2.6h21.2c1.5,0,2.7-1.1,2.8-2.6v-14.9C57.8,110.6,56.6,109.5,55.1,109.5z"/>
					<path class="st5" d="M45.9,120.2c-0.2,0.1-0.3,0.3-0.3,0.5v3.2c0,0.3-0.3,0.6-0.6,0.6h-1.4c-0.3,0-0.6-0.3-0.6-0.6v-3.2
						c0-0.2-0.1-0.4-0.3-0.5c-1.1-0.6-1.8-1.9-1.6-3.3c0.2-1.3,1.2-2.3,2.5-2.6c2.1-0.4,3.9,1.1,3.9,3.1
						C47.5,118.6,46.9,119.6,45.9,120.2z"/>
				</g>
			</g>
			<g>
				<g>
					<path class="st4" d="M55.1,149.4l-16,0v-4.3c0-2.5,2.3-4.6,5.2-4.6c2.8,0,5,1.9,5.2,4.4c0,0.1,0.1,0.2,0.3,0.2h3.5
						c0.1,0,0.3-0.1,0.3-0.3c-0.2-4.6-4.2-8.4-9.2-8.4c-5.1,0-9.2,3.9-9.2,8.6v4.3l-1.2,0c-1.5,0-2.7,1.1-2.8,2.6v14.9
						c0.1,1.5,1.3,2.6,2.8,2.6h21.2c1.5,0,2.7-1.1,2.8-2.6V152C57.8,150.5,56.6,149.4,55.1,149.4z"/>
					<path class="st5" d="M45.9,160.1c-0.2,0.1-0.3,0.3-0.3,0.5v3.2c0,0.3-0.3,0.6-0.6,0.6h-1.4c-0.3,0-0.6-0.3-0.6-0.6v-3.2
						c0-0.2-0.1-0.4-0.3-0.5c-1.1-0.6-1.8-1.9-1.6-3.3c0.2-1.3,1.2-2.3,2.5-2.6c2.1-0.4,3.9,1.1,3.9,3.1
						C47.5,158.6,46.9,159.6,45.9,160.1z"/>
				</g>
			</g>
			<g>
				<path class="st6" d="M206.1,38.6c6.8,0,12.3,5.5,12.3,12.3s-5.5,12.3-12.3,12.3c-6.8,0-12.3-5.5-12.3-12.3
					S199.3,38.6,206.1,38.6 M206.1,28c-12.7,0-22.9,10.3-22.9,22.9c0,12.7,10.3,22.9,22.9,22.9c12.7,0,22.9-10.3,22.9-22.9
					C229,38.2,218.8,28,206.1,28L206.1,28z"/>
			</g>
			<g>
				<path class="st7" d="M71.1,71.6c-0.5,0-1-0.2-1.3-0.6l-5.9-5.9c-0.7-0.7-0.7-1.9,0-2.7l11.9-11.9c0.2-0.2,0.2-0.6,0-0.8
					L63.8,37.7c-0.4-0.4-0.6-0.8-0.6-1.3c0-0.5,0.2-1,0.6-1.3l5.9-5.9c0.4-0.4,0.8-0.6,1.3-0.6s1,0.2,1.3,0.6l12.1,12.1
					c0.1,0.1,0.3,0.2,0.4,0.2s0.3-0.1,0.4-0.2l11.9-11.9c0.4-0.4,0.8-0.6,1.3-0.6c0.5,0,1,0.2,1.3,0.6l5.9,5.9
					c0.7,0.7,0.7,1.9,0,2.7L93.7,49.8c-0.1,0.1-0.3,0.2-0.3,0.4c0,0.1,0.1,0.3,0.3,0.5l11.7,11.7c0.4,0.4,0.6,0.8,0.6,1.3
					c0,0.5-0.2,1-0.6,1.3l-5.9,5.9c-0.4,0.4-0.8,0.6-1.3,0.6s-1-0.2-1.3-0.6L85.2,59.2c-0.1-0.1-0.3-0.2-0.4-0.2s-0.3,0.1-0.4,0.2
					L72.5,71.1C72.1,71.4,71.6,71.6,71.1,71.6z"/>
				<path class="st5" d="M70.9,29.2c0.3,0,0.7,0.1,1,0.4L84,41.7c0.2,0.2,0.5,0.3,0.8,0.3s0.6-0.1,0.8-0.3l11.9-11.9
					c0.3-0.3,0.6-0.4,1-0.4s0.7,0.1,1,0.4l5.9,5.9c0.5,0.5,0.5,1.4,0,1.9L93.3,49.4c-0.7,0.6-0.4,1.2,0,1.6L105,62.7
					c0.5,0.5,0.5,1.4,0,1.9l-5.9,5.9c-0.3,0.3-0.6,0.4-1,0.4c-0.3,0-0.7-0.1-1-0.4L85.6,58.8c-0.2-0.2-0.5-0.3-0.8-0.3
					s-0.6,0.1-0.8,0.3L72.1,70.7c-0.3,0.3-0.6,0.4-1,0.4c-0.3,0-0.7-0.1-1-0.4l-5.9-5.9c-0.5-0.5-0.5-1.4,0-1.9L76.2,51
					c0.4-0.4,0.4-1.2,0-1.6L64.1,37.4c-0.5-0.5-0.5-1.4,0-1.9l5.9-5.9C70.3,29.3,70.6,29.2,70.9,29.2 M70.9,28.1
					c-0.6,0-1.3,0.3-1.7,0.7l-5.9,5.9c-0.9,0.9-0.9,2.5,0,3.4l12.1,12.1c0,0,0,0.1,0,0.1L63.6,62.2c-0.5,0.5-0.7,1.1-0.7,1.7
					c0,0.6,0.3,1.3,0.7,1.7l5.9,5.9c0.5,0.5,1.1,0.7,1.7,0.7s1.3-0.3,1.7-0.7l11.9-11.9h0.1l11.7,11.7c0.5,0.5,1.1,0.7,1.7,0.7
					s1.3-0.3,1.7-0.7l5.9-5.9c0.5-0.5,0.7-1.1,0.7-1.7s-0.3-1.3-0.7-1.7L94.1,50.3c0,0,0,0,0,0l0,0L106,38.3
					c0.5-0.5,0.7-1.1,0.7-1.7c0-0.6-0.3-1.3-0.7-1.7l-5.9-5.9c-0.5-0.5-1.1-0.7-1.7-0.7c-0.6,0-1.3,0.3-1.7,0.7L84.8,40.9L84,41.7
					l0.8-0.8L72.7,28.9C72.2,28.4,71.6,28.1,70.9,28.1L70.9,28.1z"/>
			</g>
			<path class="st4" d="M76.8,92.6c-7.8,0-12.4,7.5-12.4,11.5c0,3.1,1.3,4.2,7.2,6.5v26.2c0,0.5,0.3,1,0.7,1.2l3.8,2.1
				c0.3,0.2,0.8,0.2,1.1,0L81,138c0.5-0.2,0.7-0.7,0.7-1.2v-6.3c0-0.4-0.3-0.6-0.6-0.6h-2c-0.4,0-0.6-0.3-0.6-0.6v-2.2
				c0-0.4,0.3-0.6,0.6-0.6h2c0.4,0,0.6-0.3,0.6-0.6v-3.4c0-0.4-0.3-0.6-0.6-0.6h-2c-0.4,0-0.6-0.3-0.6-0.6v-2.2
				c0-0.4,0.3-0.6,0.6-0.6h2c0.4,0,0.6-0.3,0.6-0.6v-6.9c6-2.4,7.3-3.5,7.3-6.6C89.1,100.1,84.6,92.6,76.8,92.6z"/>
			<g>
				<g>
					<g>
						<g>
							<path class="st8" d="M149.9,55.5c0,0,5.4-4.3,0.3-12.1c-4.5-6.8-13.7-6.8-22-2.6c-1.8,0.9-1.3,2.4-0.2,2.7
								c1,0.3,3,0.4,3.7,1.9c1.5,3.2-3.7,5.7,1,11.8C137.1,63,147.3,59.3,149.9,55.5z"/>
							<path class="st8" d="M114.6,97.2c-3.9-19.8,7.7-45.4,32.1-44.5c30.3,1.2,33.2,29.8,31.4,40.3c-2.1,12.2-11.4,23.3-33.5,21.8
								C122.5,113.3,115.8,103.1,114.6,97.2z"/>
							<path class="st9" d="M117.8,92.2c2-17.8,16.2-30.9,31.8-29.1s26.7,17.6,24.7,35.4c-1.1,9.8-8,23.4-16.4,28.2
								c-4.8,1.8-6.2,16.7-6.2,16.7l-9.9,4.6l-10.9-7.5c0,0,5.8-9.3,2.7-14.9C124.4,119.7,116.7,102,117.8,92.2z"/>
							<path class="st8" d="M169.8,73.7c0,0-7.9,2-16.5,3.3l2.7-6.8c0,0-13.8,4.9-22.3,7.6l2-7.7c0,0-9.1,9-14.7,11.9
								c-5.7,3,6.9-18,17.9-21.9C149.8,56.3,166.6,64.8,169.8,73.7z"/>
						</g>
						<g>
							
								<ellipse transform="matrix(0.9729 -0.2311 0.2311 0.9729 -19.7026 29.2913)" class="st9" cx="115.2" cy="98.8" rx="7.5" ry="9.3"/>
							
								<ellipse transform="matrix(0.2311 -0.9729 0.9729 0.2311 33.0609 247.5123)" class="st9" cx="173.1" cy="102.8" rx="9.3" ry="7.5"/>
						</g>
					</g>
					<g>
						<path class="st1" d="M191,144.8c-12.4-2.1-3.1-32.2,14.5-17.8C215,134.8,206.3,147.4,191,144.8z"/>
						<path class="st1" d="M190.3,126.9c0,0,16.6-0.9,13.6,8c-2,5.9-7.5,47.1-7.5,47.1h-16.9C179.5,182,188.5,130.4,190.3,126.9z"/>
						<path class="st1" d="M196.7,141.4c0,0,4.4-26.2,2.1-30.6c-2.3-4.3-6-3.2-7.3,0.7c-1.3,3.9-4.8,29.1-4.8,29.1L196.7,141.4z"/>
					</g>
					<g>
						<g>
							<g>
								<g>
									<circle class="st10" cx="141.2" cy="94.8" r="2.7"/>
									<circle class="st10" cx="161.1" cy="96.6" r="2.7"/>
								</g>
								
									<ellipse transform="matrix(6.659392e-02 -0.9978 0.9978 6.659392e-02 38.5675 246.0424)" class="st11" cx="150.8" cy="102.4" rx="2.5" ry="1.9"/>
								<path class="st10" d="M146.4,116.3c-2.3-0.9-4-6.5-3.9-7.7s1.8,0.3,4.9,0.8c3.2,0.5,6.7-0.7,6.6,0.5
									S149.3,117.5,146.4,116.3z"/>
							</g>
							<path class="st9" d="M152.8,136.3c1.3-4.1-8.5-2.5-10.2-2c-1.8-0.4-8.1-1.2-9.9,2.7c-2,4.4-9.6,5.2-9.6,5.2l22.6,5l16.3-5
								C162,142.2,151.3,140.9,152.8,136.3z"/>
						</g>
					</g>
				</g>
				<g>
					<path class="st2" d="M173.5,153.6c0-6.3-6.5-11.4-12.8-11.4l-14.9,4.1l-22.6-4.1c-6.3,0-11.4,5.1-11.4,11.4l-2.6,28.3h60.5
						L173.5,153.6z"/>
				</g>
			</g>
		</g>
		<g>
			<line class="st3" x1="248.8" y1="72.9" x2="265.8" y2="72.9"/>
			<line class="st3" x1="248.8" y1="117.6" x2="265.8" y2="117.6"/>
			<line class="st3" x1="248.8" y1="161" x2="265.8" y2="161"/>
			<g>
				<g>
					<path class="st12" d="M251.9,66.2l-16,0v-4.3c0-2.5,2.3-4.6,5.2-4.6c2.8,0,5,1.9,5.2,4.4c0,0.1,0.1,0.2,0.3,0.2h3.5
						c0.1,0,0.3-0.1,0.3-0.3c-0.2-4.6-4.2-8.4-9.2-8.4c-5.1,0-9.2,3.9-9.2,8.6v4.3l-1.2,0c-1.5,0-2.7,1.1-2.8,2.6v14.9
						c0.1,1.5,1.3,2.6,2.8,2.6h21.2c1.5,0,2.7-1.1,2.8-2.6V68.8C254.5,67.3,253.3,66.2,251.9,66.2z"/>
					<path class="st5" d="M242.7,76.9c-0.2,0.1-0.3,0.3-0.3,0.5v3.2c0,0.3-0.3,0.6-0.6,0.6h-1.4c-0.3,0-0.6-0.3-0.6-0.6v-3.2
						c0-0.2-0.1-0.4-0.3-0.5c-1.1-0.6-1.8-1.9-1.6-3.3c0.2-1.3,1.2-2.3,2.5-2.6c2.1-0.4,3.9,1.1,3.9,3.1
						C244.2,75.3,243.6,76.3,242.7,76.9z"/>
				</g>
			</g>
			<g>
				<g>
					<path class="st13" d="M251.9,110l-16,0v-4.3c0-2.5,2.3-4.6,5.2-4.6c2.8,0,5,1.9,5.2,4.4c0,0.1,0.1,0.2,0.3,0.2h3.5
						c0.1,0,0.3-0.1,0.3-0.3c-0.2-4.6-4.2-8.4-9.2-8.4c-5.1,0-9.2,3.9-9.2,8.6v4.3l-1.2,0c-1.5,0-2.7,1.1-2.8,2.6v14.9
						c0.1,1.5,1.3,2.6,2.8,2.6h21.2c1.5,0,2.7-1.1,2.8-2.6v-14.9C254.5,111.1,253.3,110,251.9,110z"/>
					<path class="st5" d="M242.7,120.7c-0.2,0.1-0.3,0.3-0.3,0.5v3.2c0,0.3-0.3,0.6-0.6,0.6h-1.4c-0.3,0-0.6-0.3-0.6-0.6v-3.2
						c0-0.2-0.1-0.4-0.3-0.5c-1.1-0.6-1.8-1.9-1.6-3.3c0.2-1.3,1.2-2.3,2.5-2.6c2.1-0.4,3.9,1.1,3.9,3.1
						C244.2,119.2,243.6,120.2,242.7,120.7z"/>
				</g>
			</g>
			<g>
				<g>
					<path class="st14" d="M251.9,153.9l-16,0v-4.3c0-2.5,2.3-4.6,5.2-4.6c2.8,0,5,1.9,5.2,4.4c0,0.1,0.1,0.2,0.3,0.2h3.5
						c0.1,0,0.3-0.1,0.3-0.3c-0.2-4.6-4.2-8.4-9.2-8.4c-5.1,0-9.2,3.9-9.2,8.6v4.3l-1.2,0c-1.5,0-2.7,1.1-2.8,2.6v14.9
						c0.1,1.5,1.3,2.6,2.8,2.6h21.2c1.5,0,2.7-1.1,2.8-2.6v-14.9C254.5,155,253.3,153.9,251.9,153.9z"/>
					<path class="st5" d="M242.7,164.6c-0.2,0.1-0.3,0.3-0.3,0.5v3.2c0,0.3-0.3,0.6-0.6,0.6h-1.4c-0.3,0-0.6-0.3-0.6-0.6v-3.2
						c0-0.2-0.1-0.4-0.3-0.5c-1.1-0.6-1.8-1.9-1.6-3.3c0.2-1.3,1.2-2.3,2.5-2.6c2.1-0.4,3.9,1.1,3.9,3.1
						C244.2,163,243.6,164,242.7,164.6z"/>
				</g>
			</g>
			<path class="st12" d="M266.8,39.7c-6.2,0-9.9,6-9.9,9.2c0,2.5,1.1,3.3,5.8,5.2v21c0,0.4,0.2,0.8,0.6,0.9l3,1.7
				c0.3,0.1,0.6,0.1,0.9,0l3-1.7c0.4-0.2,0.6-0.5,0.6-0.9v-5c0-0.3-0.2-0.5-0.5-0.5h-1.6c-0.3,0-0.5-0.2-0.5-0.5v-1.8
				c0-0.3,0.2-0.5,0.5-0.5h1.6c0.3,0,0.5-0.2,0.5-0.5v-2.7c0-0.3-0.2-0.5-0.5-0.5h-1.6c-0.3,0-0.5-0.2-0.5-0.5v-1.8
				c0-0.3,0.2-0.5,0.5-0.5h1.6c0.3,0,0.5-0.2,0.5-0.5v-5.5c4.8-1.9,5.8-2.8,5.8-5.3C276.7,45.6,273.1,39.7,266.8,39.7z M267,46.8
				c-0.9,0-1.7-0.8-1.7-1.7s0.8-1.7,1.7-1.7c0.9,0,1.7,0.8,1.7,1.7S268,46.8,267,46.8z"/>
			<path class="st13" d="M266.8,84.3c-6.2,0-9.9,6-9.9,9.2c0,2.5,1.1,3.3,5.8,5.2v21c0,0.4,0.2,0.8,0.6,0.9l3,1.7
				c0.3,0.1,0.6,0.1,0.9,0l3-1.7c0.4-0.2,0.6-0.5,0.6-0.9v-5c0-0.3-0.2-0.5-0.5-0.5h-1.6c-0.3,0-0.5-0.2-0.5-0.5v-1.8
				c0-0.3,0.2-0.5,0.5-0.5h1.6c0.3,0,0.5-0.2,0.5-0.5v-2.7c0-0.3-0.2-0.5-0.5-0.5h-1.6c-0.3,0-0.5-0.2-0.5-0.5v-1.8
				c0-0.3,0.2-0.5,0.5-0.5h1.6c0.3,0,0.5-0.2,0.5-0.5v-5.5c4.8-1.9,5.8-2.8,5.8-5.3C276.7,90.3,273.1,84.3,266.8,84.3z M267,91.4
				c-0.9,0-1.7-0.8-1.7-1.7c0-0.9,0.8-1.7,1.7-1.7c0.9,0,1.7,0.8,1.7,1.7C268.7,90.7,268,91.4,267,91.4z"/>
			<path class="st14" d="M266.8,128.9c-6.2,0-9.9,6-9.9,9.2c0,2.5,1.1,3.3,5.8,5.2v21c0,0.4,0.2,0.8,0.6,0.9l3,1.7
				c0.3,0.1,0.6,0.1,0.9,0l3-1.7c0.4-0.2,0.6-0.5,0.6-0.9v-5c0-0.3-0.2-0.5-0.5-0.5h-1.6c-0.3,0-0.5-0.2-0.5-0.5v-1.8
				c0-0.3,0.2-0.5,0.5-0.5h1.6c0.3,0,0.5-0.2,0.5-0.5v-2.7c0-0.3-0.2-0.5-0.5-0.5h-1.6c-0.3,0-0.5-0.2-0.5-0.5V150
				c0-0.3,0.2-0.5,0.5-0.5h1.6c0.3,0,0.5-0.2,0.5-0.5v-5.5c4.8-1.9,5.8-2.8,5.8-5.3C276.7,134.9,273.1,128.9,266.8,128.9z
				 M267,136.1c-0.9,0-1.7-0.8-1.7-1.7s0.8-1.7,1.7-1.7c0.9,0,1.7,0.8,1.7,1.7S268,136.1,267,136.1z"/>
		</g>
	</g>
</g>
<path class="st5" d="M74.3,97.9c-1.5,0-2.7-1.2-2.7-2.7s1.2-2.7,2.7-2.7s2.7,1.2,2.7,2.7S75.8,97.9,74.3,97.9z"/>
</svg>
