<?xml version="1.0" encoding="utf-8"?>
<!-- Generator: Adobe Illustrator 25.3.1, SVG Export Plug-In . SVG Version: 6.00 Build 0)  -->
<svg version="1.1" id="レイヤー_1" xmlns="http://www.w3.org/2000/svg" xmlns:xlink="http://www.w3.org/1999/xlink" x="0px"
	 y="0px" width="290px" height="182px" viewBox="0 0 290 182" style="enable-background:new 0 0 290 182;" xml:space="preserve">
<style type="text/css">
	.st0{fill:none;}
	.st1{fill:#FFDDC6;}
	.st2{fill:#F9EFBD;}
	.st3{fill:#9EDAED;}
	.st4{fill:#8F8FDB;}
	.st5{fill:#3176D5;}
	.st6{fill:#4EDDBB;}
	.st7{fill:#FFDBC2;}
	.st8{fill:#37377C;}
	.st9{fill:#D8A684;}
	.st10{fill:#E4E4E4;}
	.st11{fill:#FFFFFF;}
	.st12{fill:#9E9EE8;}
	.st13{fill:#CACACA;}
</style>
<rect class="st0" width="290" height="182"/>
<g>
	<g>
		<g>
			<path class="st1" d="M73.9,166.8L69.5,182H48c0,0,10.7-15.9,13.4-19.9L73.9,166.8z"/>
		</g>
		<g>
			<path class="st1" d="M154.5,150.8c-0.8-8.8,0.2-18.9-0.2-22.2c-0.4-3.3,7.5-6.4,7.7-0.5c0.3,5.8,0.7,17.9,0.7,17.9L154.5,150.8z"
				/>
			<g>
				<g>
					<g>
						<g>
							<g>
								<rect x="147.8" y="22.9" class="st2" width="104.8" height="112.7"/>
							</g>
						</g>
						<g>
							<rect x="147.8" y="22.9" class="st3" width="104.8" height="3.1"/>
						</g>
						<g>
							<rect x="147.8" y="132.5" class="st3" width="104.8" height="3.1"/>
						</g>
						<g>
							<g>
								<path class="st4" d="M162.7,49.2c-1,0-1.4-0.4-1.4-1.5v-5.5c0-1.2,0.5-1.5,1.4-1.5h2.5c1.8,0,2.7,1.1,2.7,2.2
									c0,0.3,0,1.2-1.1,1.7c0.8,0.3,1.3,1,1.3,2.1c0,1.4-1,2.5-2.7,2.5H162.7z M163.2,44h1.8c0.8,0,0.9-0.6,0.9-0.9
									c0-0.7-0.6-0.8-0.9-0.8h-1.5c-0.2,0-0.3,0.1-0.3,0.3V44z M163.2,45.6v1.5c0,0.2,0.1,0.3,0.3,0.3h1.5c0.3,0,1.2-0.1,1.2-0.9
									c0-0.7-0.6-0.9-1.2-0.9H163.2z"/>
								<path class="st4" d="M171.4,48.5c0,0.4-0.1,0.9-0.9,0.9c-0.7,0-1-0.3-1-0.9v-7.2c0-0.4,0.1-0.9,0.9-0.9c0.7,0,1,0.3,1,0.9
									V48.5z"/>
								<path class="st4" d="M177.8,46.1c-0.6,0-0.8-0.4-0.8-0.8c0-0.6,0.3-0.8,0.8-0.8h1.2c1,0,1.4,0.4,1.4,1.5v2.6
									c0,0.1-0.1,0.8-0.8,0.8c-0.2,0-0.8,0-0.8-0.8v-0.2c-0.6,0.6-1.2,1-2.2,1c-2.2,0-3.9-1.7-3.9-4.5c0-2.6,1.5-4.5,4-4.5
									c2.2,0,3.5,1.6,3.5,2.7c0,0.2-0.1,0.9-0.9,0.9c-0.7,0-0.8-0.3-0.9-0.6c-0.3-0.9-1-1.2-1.8-1.2c-1.7,0-2,1.6-2,2.8
									c0,2.2,1.2,2.7,1.9,2.7c1.2,0,1.7-1.1,1.7-1.4c0-0.1-0.1-0.2-0.2-0.2H177.8z"/>
								<path class="st4" d="M183.9,47.1c0,0.2,0.1,0.3,0.3,0.3h2.9c0.3,0,0.8,0,0.8,0.8c0,0.8-0.5,0.9-0.8,0.9h-3.7
									c-1,0-1.4-0.4-1.4-1.5v-6.3c0-0.4,0.1-0.9,0.9-0.9c0.7,0,1,0.3,1,0.9V47.1z"/>
								<path class="st4" d="M196.1,44.9c0,3.5-2.2,4.5-4,4.5c-2.2,0-4-1.5-4-4.4c0-3.7,2.4-4.6,4-4.6
									C194.1,40.4,196.1,41.6,196.1,44.9z M190.1,44.9c0,0.5,0,2.8,2,2.8c2,0,2-2.3,2-2.8c0-0.5,0-2.7-2-2.7
									C190.1,42.2,190.1,44.4,190.1,44.9z"/>
								<path class="st4" d="M198.3,49.2c-1,0-1.4-0.4-1.4-1.5v-5.5c0-1.2,0.5-1.5,1.4-1.5h2.5c1.8,0,2.7,1.1,2.7,2.2
									c0,0.3,0,1.2-1.1,1.7c0.8,0.3,1.3,1,1.3,2.1c0,1.4-1,2.5-2.7,2.5H198.3z M198.7,44h1.8c0.8,0,0.9-0.6,0.9-0.9
									c0-0.7-0.6-0.8-0.9-0.8H199c-0.2,0-0.3,0.1-0.3,0.3V44z M198.7,45.6v1.5c0,0.2,0.1,0.3,0.3,0.3h1.5c0.3,0,1.2-0.1,1.2-0.9
									c0-0.7-0.6-0.9-1.2-0.9H198.7z"/>
								<path class="st4" d="M209.8,44c0.4,0,0.8,0.1,0.8,0.8c0,0.4-0.1,0.9-0.8,0.9h-3v1.5c0,0.2,0.1,0.3,0.3,0.3h3.3
									c0.3,0,0.8,0.1,0.8,0.8c0,0.8-0.5,0.9-0.8,0.9h-4c-1,0-1.4-0.4-1.4-1.5v-5.5c0-1.2,0.5-1.5,1.4-1.5h3.8c0.2,0,0.8,0,0.8,0.9
									c0,0.6-0.3,0.9-0.8,0.9h-3c-0.2,0-0.3,0.1-0.3,0.3V44H209.8z"/>
								<path class="st4" d="M214.9,43.6c-0.3,0-0.6-0.1-0.7-0.5c-0.1,0.1-0.2,0.2-0.5,0.3c-0.3,0.2-0.5,0.2-0.7,0.2
									c-0.5,0-0.8-0.5-0.8-1c0-0.5,0.3-0.7,0.5-0.8c0.9-0.4,1.7-0.8,2.8-1.9c0.3-0.3,0.6-0.6,1.2-0.6c0.6,0,0.8,0.2,1.4,0.8
									c1,1,1.9,1.4,2.6,1.7c0.3,0.1,0.5,0.3,0.5,0.8c0,0.5-0.3,1-0.8,1c-0.2,0-0.5-0.1-1.2-0.6c-0.1,0.5-0.5,0.5-0.7,0.5H214.9z
									 M219.2,45.8c0.2,0.2,0.8,0.9,1,1.2c0.7,0.9,0.7,1.1,0.7,1.3c0,0.6-0.6,0.9-1,0.9c-0.3,0-0.3-0.1-0.7-0.6
									c-0.8,0.1-1.4,0.2-2.6,0.3c-0.9,0.1-3.2,0.2-3.3,0.2c-0.2,0-0.8,0-0.8-0.9c0-0.2,0-0.7,0.4-0.8c0.1,0,0.6-0.1,0.9-0.1
									c0.3-0.8,0.5-1.3,0.6-1.6h-1.2c-0.5,0-0.8-0.2-0.8-0.9c0-0.8,0.6-0.8,0.8-0.8h7c0.5,0,0.8,0.2,0.8,0.9
									c0,0.8-0.6,0.8-0.8,0.8H219.2z M216.2,45.8c-0.3,0.7-0.4,1-0.6,1.6c1.2,0,1.3,0,2.7-0.1c-0.4-0.5-0.5-0.6-0.5-0.8
									c0-0.2,0.1-0.4,0.3-0.6H216.2z M217.9,42.1c-0.2-0.2-0.5-0.4-0.9-0.9c-0.1-0.2-0.2-0.2-0.3-0.2c-0.1,0-0.1,0.1-0.3,0.2
									c-0.4,0.4-0.7,0.7-0.9,0.9H217.9z"/>
								<path class="st4" d="M225.4,47.5c0.2,0.3,0.2,0.6,0.2,0.6c0,0.4-0.2,0.5-1.3,0.9c-0.6,0.2-1.5,0.4-1.7,0.4
									c-0.5,0-0.7-0.6-0.7-0.9c0-0.5,0.3-0.6,0.6-0.6c1-0.2,1.2-0.2,1.5-0.3h-0.4c-0.7,0-1.2-0.3-1.2-1.3v-2.3
									c0-1,0.4-1.3,1.2-1.3h5.3c0.7,0,1.2,0.3,1.2,1.3v2.3c0,1-0.4,1.3-1.2,1.3h-0.4c0.4,0.1,1.1,0.3,1.5,0.4
									c0.3,0.1,0.6,0.1,0.6,0.6c0,0.3-0.1,0.9-0.7,0.9c-0.2,0-1.1-0.2-2-0.5c-0.7-0.2-0.9-0.3-0.9-0.8c0-0.2,0.1-0.4,0.2-0.6
									H225.4z M229.9,41.2c0,1-0.2,1.2-1.1,1.2H224c-1,0-1.1-0.2-1.1-1.2v-0.2c0-1,0.2-1.2,1.1-1.2h4.8c0.9,0,1.1,0.2,1.1,1.2
									V41.2z M228.6,44v-0.2c0-0.1,0-0.2-0.1-0.2h-4.3c-0.1,0-0.1,0.1-0.1,0.2V44H228.6z M224.1,44.9v0.3h4.6v-0.3H224.1z
									 M224.1,46.1v0.2c0,0.1,0,0.2,0.1,0.2h4.3c0.1,0,0.1-0.1,0.1-0.2v-0.2H224.1z M228.2,41.3c0.1,0,0.1-0.1,0.1-0.2
									c0-0.1,0-0.2-0.1-0.2h-3.7c-0.1,0-0.1,0.1-0.1,0.2c0,0.1,0,0.2,0.1,0.2H228.2z"/>
								<path class="st4" d="M234.8,41.2c0.1,0,0.6,0,0.6,0.6c0,0.5-0.2,0.7-0.6,0.7h-2.6c-0.1,0-0.6,0-0.6-0.7
									c0-0.6,0.5-0.7,0.6-0.7H234.8z M235.6,43.1c0-0.4,0.1-0.8,0.7-0.8c0.5,0,0.8,0.1,0.8,0.8v4.3h0.4v-6.1H236
									c-0.2,0-0.8,0-0.8-0.8c0-0.6,0.2-0.9,0.8-0.9h3.6c0.4,0,0.7,0.1,0.7,0.7c0,0.6-0.1,0.9-0.7,0.9H239v2h0.5
									c0.2,0,0.8,0,0.8,0.7c0,0.6-0.2,0.8-0.8,0.8H239v2.5h0.8c0.3,0,0.8,0.1,0.8,0.8c0,0.6-0.2,0.9-0.8,0.9h-4.1
									c-0.3,0-0.6,0-0.6-0.6c-0.1,0.7-0.5,0.7-1.1,0.7h-1c-0.9,0-1.1-0.2-1.1-1.2v-0.7c0-1.1,0.2-1.2,1.1-1.2h1
									c1,0,1.1,0.2,1.1,1.2v0.7c0.1-0.4,0.3-0.4,0.5-0.4V43.1z M234.5,39.7c0.2,0,0.6,0,0.6,0.6c0,0.6-0.4,0.6-0.6,0.6h-2.1
									c-0.2,0-0.6,0-0.6-0.6c0-0.6,0.4-0.6,0.6-0.6H234.5z M234.5,42.8c0.2,0,0.6,0,0.6,0.6c0,0.4-0.1,0.7-0.6,0.7h-2.1
									c-0.2,0-0.6,0-0.6-0.6c0-0.4,0.1-0.7,0.6-0.7H234.5z M234.5,44.4c0.2,0,0.6,0,0.6,0.6c0,0.6-0.4,0.6-0.6,0.6h-2
									c-0.2,0-0.6,0-0.6-0.6c0-0.6,0.4-0.6,0.6-0.6H234.5z M233.8,47.4c0-0.1,0-0.2-0.1-0.2h-0.3c-0.1,0-0.1,0.1-0.1,0.2v0.4
									c0,0.1,0,0.2,0.1,0.2h0.3c0.1,0,0.1-0.1,0.1-0.2V47.4z"/>
							</g>
						</g>
					</g>
				</g>
			</g>
			<g>
				<path class="st5" d="M109.4,52.4c0,0,5.6-3.9,1-11.9c-4-7-13.1-7.6-21.5-4c-1.8,0.8-1.4,2.2-0.4,2.7c1,0.4,3,0.6,3.5,2.1
					c1.2,3.2-4,5.3,0.3,11.7C96.4,58.9,106.7,56,109.4,52.4z"/>
				<g>
					<g>
						<g>
							<path class="st6" d="M65.8,152.2c8-9.9,12.8-9.5,19.5-9.5h41.1c6.6,0,12.9,2.2,16.1,10.9c2.3,6.3,5.6,20.9,7.3,28.4h-80
								l-18.9-6.3C53.5,168.5,61.9,156.9,65.8,152.2z"/>
						</g>
						<g>
							<g>
								<path class="st1" d="M159.1,134.6c3.4-11.3,19.8-13.4,20.3-8.9c0.2,2.3,0.7,7.9-4.4,15.3c-2.9,4.2-14.4,41-14.4,41h-17.8
									C142.8,182,157.6,139.4,159.1,134.6z"/>
							</g>
							<g>
								<g>
									<g>
										<path class="st5" d="M74.8,95.2c-4.7-19.4,5.7-45.1,29.8-45.2c29.9-0.1,34,28,32.7,38.4c-1.6,12.1-10.3,23.5-32.1,22.9
											S76.2,101.1,74.8,95.2z"/>
										<path class="st7" d="M77.8,92.1c0.4-17.7,13.3-31.7,28.8-31.3s27.7,15,27.3,32.7c-0.2,9.7-5.9,23.7-13.8,29.1
											c-4.5,2.2-4.3,12.9-4.3,12.9l-10.1,1.1l-10.1,0.1c0,0,3.1-9.3,0.5-13.1C88.3,121.6,77.6,101.9,77.8,92.1z"/>
										<g>
											<circle class="st8" cx="123.2" cy="91.1" r="2.7"/>
											<circle class="st8" cx="102.6" cy="93.7" r="2.7"/>
										</g>
										
											<ellipse transform="matrix(0.9951 -9.877649e-02 9.877649e-02 0.9951 -9.2935 11.8596)" class="st9" cx="115.1" cy="99.8" rx="2" ry="2.7"/>
										<path class="st8" d="M112.4,112c3.7,0.1,6.5-2.5,6.5-3.8c0-1.3-2.7,1.5-6.6,1.4c-3.4-0.1-5-2.2-5.5-1.5
											C106,109.2,108.9,111.9,112.4,112z"/>
										<g>
											
												<ellipse transform="matrix(0.2548 -0.967 0.967 0.2548 5.3807 201.6937)" class="st7" cx="133.5" cy="97.4" rx="10.2" ry="8.3"/>
											
												<ellipse transform="matrix(0.9783 -0.2072 0.2072 0.9783 -18.4076 17.6882)" class="st7" cx="75.2" cy="96.7" rx="8.3" ry="10.2"/>
										</g>
									</g>
									<path class="st7" d="M95.7,136.7c0,0,8.2-2.8,10.1-2.3c1.9-0.5,10.1-3.1,10.1,1.4c0,5.1,10.4,6.9,10.4,6.9l-20.5,7.7
										l-20.5-7.7C85.2,142.7,93.8,139.4,95.7,136.7z"/>
								</g>
								<path class="st5" d="M129.7,72.4c0,0-8,1.2-16.5,1.7l3.3-6.5c0,0-14.1,3.6-22.7,5.4l2.7-7.4c0,0-9.8,7.9-15.6,10.3
									c-5.9,2.4,8.5-17,19.6-19.8C111.6,53.4,127.4,63.4,129.7,72.4z"/>
							</g>
						</g>
					</g>
				</g>
			</g>
			<path class="st10" d="M146.9,170.2c-2.4,10.2-2.7,5.5-2.7,5.5s0.1-0.5,0.1-1.2c0.2-1.5,0.4-1.3,0.2-6.1c-0.1-4-0.8-9.3-0.8-9.3
				s0.9,3.8,1.7,6.3C146,167.2,146.9,170.2,146.9,170.2z"/>
		</g>
	</g>
	<g>
		<g>
			<path class="st11" d="M239.1,86.6h-77.7c-1.5,0-2.7-1.2-2.7-2.7V62.5c0-1.5,1.2-2.7,2.7-2.7h77.7c1.5,0,2.7,1.2,2.7,2.7v21.4
				C241.8,85.4,240.6,86.6,239.1,86.6z"/>
		</g>
		<g>
			<g>
				<path class="st12" d="M240.2,59.8h-79.9c-0.9,0-1.6,0.7-1.6,1.6V64h83.1v-2.6C241.8,60.5,241.1,59.8,240.2,59.8z"/>
			</g>
		</g>
		<g>
			<g>
				<g>
					<path class="st11" d="M174.7,61.4v0.9h-13.2v-0.9H174.7z"/>
				</g>
			</g>
		</g>
		<rect x="184.8" y="69.3" class="st13" width="48.3" height="3.6"/>
		<rect x="184.8" y="76.6" class="st13" width="48.3" height="3.6"/>
		<rect x="166.1" y="69.3" class="st13" width="16.5" height="3.6"/>
		<rect x="166.1" y="76.6" class="st13" width="16.5" height="3.6"/>
		<g>
			<path class="st11" d="M239.1,117.7h-77.7c-1.5,0-2.7-1.2-2.7-2.7V93.6c0-1.5,1.2-2.7,2.7-2.7h77.7c1.5,0,2.7,1.2,2.7,2.7V115
				C241.8,116.5,240.6,117.7,239.1,117.7z"/>
		</g>
		<g>
			<g>
				<path class="st12" d="M240.2,90.9h-79.9c-0.9,0-1.6,0.7-1.6,1.6v2.6h83.1v-2.6C241.8,91.6,241.1,90.9,240.2,90.9z"/>
			</g>
		</g>
		<g>
			<g>
				<g>
					<path class="st11" d="M174.7,92.5v0.9h-13.2v-0.9H174.7z"/>
				</g>
			</g>
		</g>
		<rect x="184.8" y="100.4" class="st13" width="48.3" height="3.6"/>
		<rect x="184.8" y="107.7" class="st13" width="48.3" height="3.6"/>
		<rect x="166.1" y="100.4" class="st13" width="16.5" height="3.6"/>
		<rect x="166.1" y="107.7" class="st13" width="16.5" height="3.6"/>
	</g>
</g>
</svg>
