<?xml version="1.0" encoding="utf-8"?>
<!-- Generator: Adobe Illustrator 25.3.1, SVG Export Plug-In . SVG Version: 6.00 Build 0)  -->
<svg version="1.1" id="レイヤー_1" xmlns="http://www.w3.org/2000/svg" xmlns:xlink="http://www.w3.org/1999/xlink" x="0px"
	 y="0px" width="640px" height="170px" viewBox="0 0 640 170" style="enable-background:new 0 0 640 170;" xml:space="preserve">
<style type="text/css">
	.st0{fill:#F5F5F5;}
	.st1{fill:#FFDBC2;}
	.st2{fill:#3B3B6D;}
	.st3{fill:#37377C;}
	.st4{fill:#D8A684;}
	.st5{opacity:0.3;fill:#3176D5;}
	.st6{fill:#F25A6C;}
	.st7{fill:#FCD5BB;}
	.st8{fill:#375EA3;}
	.st9{fill:none;stroke:#F2F2F2;stroke-width:0.9355;stroke-miterlimit:10;}
	.st10{fill:#1FC97C;}
	.st11{fill:#FFFFFF;}
	.st12{fill:#B1B1B1;}
	.st13{fill:#FFE0CA;}
	.st14{fill:#E5B89A;}
	.st15{fill:#877F67;}
	.st16{fill:#ECEBED;}
	.st17{fill:#CACACA;}
	.st18{fill:#7F7762;}
	.st19{fill:#FFDDC6;}
	.st20{fill:#E2E2E2;}
	.st21{fill:#E87FAF;}
	.st22{fill:#1B1987;}
	.st23{fill:none;stroke:#B5C6BD;stroke-width:3.0089;stroke-linecap:round;stroke-linejoin:round;stroke-miterlimit:10;}
	.st24{fill:#517ABA;}
	.st25{fill:#3176D2;}
	.st26{fill:#F7BAC9;}
	.st27{fill:#C1F272;}
	.st28{fill:#E4E4E4;}
	.st29{fill:#808080;}
	.st30{fill:#528FC1;}
	.st31{opacity:0.6;}
	.st32{fill:#BCBCBC;}
	.st33{fill:none;}
</style>
<g>
	<g>
		<g>
			<g>
				<g>
					<g>
						<path class="st0" d="M410.1,163.6c4.5-1-3.1-3.3,1.4-4.3c-2.6-7.4-5.2-13.4-7.1-17.7c-6.3-13.9-9.1-16.2-12-17
							c-3.8-1.1-7.6,0.7-10,2c-2.4-0.6-5.7-1.2-9.7-1.1c-5.7,0.3-10.2,2-12.8,3.2c-1.5-1.5-3-3-4.5-4.6c-5,7.1-10,14.2-14.9,21.3
							c-0.3,2.9-3.6,21.5-3.8,24.4l72.2-0.2C409.1,168.3,410,165.1,410.1,163.6z"/>
					</g>
					<g>
						<g>
							<g>
								<g>
									
										<ellipse transform="matrix(0.2327 -0.9726 0.9726 0.2327 210.6278 450.6639)" class="st1" cx="390.9" cy="91.9" rx="8.4" ry="6.8"/>
									<path class="st2" d="M382.2,63.6c1.4,11.9,2.3,24.7,2.3,38.4c0,3.4-0.8,5.9-0.9,9.2c2.9-1.6,6.7-5.2,9.1-8.3
										c0,0,2.3-3.2,4.7-8.5c5.5-12.6-0.2-30.7-0.7-32.4"/>
									<path class="st1" d="M348.4,86.3c0.1-14.5,10.3-26.1,23-26.1c12.6,0.1,22.8,11.8,22.8,26.3c0,8-3.2,15.1-8.1,19.8
										c-7.1,8.3-6.8,12.3-6.8,12.3s3.5,4.6,7.2,4.5c0,0-6.4,5.2-15.1,5.5c-7.7,0.3-13.2-3.1-14.9-4.2c-3.6-2.3-6-5-7.3-6.8
										c4.5,0.7,7.9-0.2,9.7-0.8c1.9-0.7,3.3-1.2,3.7-2.3c0.8-2.4-3.4-5.3-6.3-8.3C350.1,99.6,348.4,90.7,348.4,86.3z"/>
									<g>
										<g>
											
												<ellipse transform="matrix(7.714929e-03 -1 1 7.714929e-03 290.9312 479.5668)" class="st3" cx="387.1" cy="93.2" rx="2.2" ry="2.2"/>
											
												<ellipse transform="matrix(7.714935e-03 -1 1 7.714935e-03 277.1131 462.5443)" class="st3" cx="371.6" cy="91.6" rx="2.2" ry="2.2"/>
										</g>
										
											<ellipse transform="matrix(5.713443e-02 -0.9984 0.9984 5.713443e-02 262.8177 470.4772)" class="st4" cx="380.5" cy="96.1" rx="2.2" ry="1.6"/>
									</g>
									<path class="st3" d="M376.2,105.9c-2.3-0.7-3-5.2-3.1-5.8c-0.2-1.1,1.7,0.7,4.1,1.2c2.4,0.5,4.4-0.7,4.2,0.1
										C381.2,102.6,378,106.4,376.2,105.9z"/>
									<g>
										
											<ellipse transform="matrix(7.714937e-03 -1 1 7.714937e-03 257.1558 441.7613)" class="st5" cx="351.2" cy="91.3" rx="1.5" ry="1.5"/>
									</g>
									<path class="st2" d="M366.8,64.3c0,0.8,0.3,7.9,6.3,12.1c4.5,3.2,9.1,4,10.3,3.9c-0.7-0.6-1.6-3-2.3-4.9
										c-0.6-1.4-0.7-2.7-0.7-3.6c0.4,1,1.5,3.6,4.3,5.6c3,2.1,6.1,2.1,7.1,2.1c-1-1.4-2.1-3.1-3.2-5.1c-1.3-2.5-2.2-4.9-2.9-7
										c0.8,0.9,1.7,2,2.7,3.3c0.7,1,1.8,2.5,2.8,4.8c0.4,0.8,0.8,2,1.3,3.5c1.8,5.5,1.9,10.1,1.9,13.8c0,3.7-2.4,8.4-3.6,14.2
										c2.4-2.3,9-6.8,11.5-14.3c2.4-7.3,1.6-13.4,1.3-16.1c-1.1-8.3-4.7-14.1-6.1-16.2c-1.2-1.8-11.3-17-24.8-15.6
										c-3.4,0.3-6.1,1.6-7.8,2.7c-0.5-0.2-1.3-0.5-2.2-0.6c-7.3-1.1-13.8,6.8-16.5,10c-6.3,7.6-7.8,15.6-8.2,17.7
										c-0.5,3.3-1.8,11.3,2.3,19.2c1.8,3.5,4,5.7,5,6.8c4.4,4.4,9.1,6.5,11.9,7.4c-1-1.6-2-3.3-3-4.9c0.6,0.8,1.4,1.4,3.6,2.3
										c1.8,0.8,2.4,1,3.3,1c-1.2-1.8-5-8.9-5.4-17.7c-0.5-3.5,0-6.8,0.2-10.7c1.6-0.7,4.1-2.2,6.4-4.7
										C365.3,69.9,366.4,66.1,366.8,64.3z"/>
									<g>
										<path class="st1" d="M350.4,100.2c-3.6,0.9-7.4-2.1-8.5-6.6c-1-4.5,1.1-8.8,4.7-9.7L350.4,100.2z"/>
									</g>
									<g>
										<path class="st6" d="M359.4,131c-1.4,2.2,5.7,7.5,8.2,8.8c2.3,1.2,9.8,1.7,11.4,1.2c6.7-2.3,9.1-4.9,12.7-9.9
											c-2.8,0.6-5.5,1.5-7.8,3c-2.6,1.7-3.3,3.3-6.7,4.1c-1.5,0.4-6.2-1.9-7.6-2.4C367.7,135.1,360.8,128.8,359.4,131z"/>
									</g>
									<g>
										<g>
											<path class="st6" d="M378.2,133c0,0-10.3,3-10.2,22.1C368,155,384.6,149.9,378.2,133z"/>
											<path class="st6" d="M376.6,133.8c0,0-6,8.8,6,23.6C382.6,157.4,392.2,142.8,376.6,133.8z"/>
										</g>
									</g>
								</g>
							</g>
						</g>
					</g>
					<g>
						<g>
							<g>
								<path class="st7" d="M333.8,166.1c3.5,2.5,8.5-0.8,9.4-5l6.6-29.8l-15.9,1.7l-4.7,20.4C328.4,157.6,329.6,163.2,333.8,166.1
									z"/>
							</g>
						</g>
					</g>
					<path class="st0" d="M348.6,120.8c-4.6-2.6-11,0.7-12.7,5.9l-8.7,20.6l19.9,6l5.6-20.2C354.3,127.9,353.3,123.4,348.6,120.8z"
						/>
					<g>
						<g>
							<path class="st8" d="M361.3,115.3c1.8,1.4,3.8,2.5,8.8,7c3.7,3.3,3.2,3.7,6.8,6.6c0.8-3.1,1.6,0.3,2.3-2.9
								c0.7-3.2,1.6-3.5,2.1-6.7c4.5,0.4,8.2,1.3,12,4c2.2,1.5,3.7,3.9,5.1,6.1c-2.4,1.3-4.9,2.7-7.3,4c-4.5,2.4-9.1,4.4-13.7,6.4
								c-4-1.6-4.9-1.3-9.4-3.6c-7.1-3.6-12.5-7.6-12.5-7.6c-7.6-5.9-14.7-6-16.8-6.2c1.2-1.9,6.7-5.2,10.9-6.3
								C354.6,114.7,360.4,115,361.3,115.3z"/>
						</g>
						<path class="st9" d="M396.4,126.7c-2.5,1.6-5.4,3.3-8.6,5c-3.6,1.8-7,3.1-10.1,4.2"/>
						<path class="st9" d="M376.4,136.7c-4-1.2-8.9-2.9-14.1-7.4c-8.9-7.8-13.5-9.7-18.6-11.2"/>
					</g>
				</g>
				<g>
					<g>
						<path class="st10" d="M375,144.3l17.7,1.5c1.6,0.3,3-1.1,3.2-3.1l6.3-33c0.5-2.5,0-4.7-2.4-4.9l-16.9-1.5
							c-2.5-0.3-4.4,0.5-4.9,3.9l-5.5,32.8C372.3,142,373.4,144,375,144.3z"/>
						
							<ellipse transform="matrix(0.2321 -0.9727 0.9727 0.2321 195.7671 469.8566)" class="st11" cx="395.5" cy="110.9" rx="2.5" ry="2.2"/>
					</g>
				</g>
				<g>
					<path class="st7" d="M372.6,126c-1-0.5-2.3-0.1-2.8,0.9l-5.2,8.1l3.7,1.9l5.2-8.1C374,127.8,373.6,126.5,372.6,126z"/>
					<path class="st7" d="M384.7,129c-1.8-4.4-8.5-4.1-12.6-1.5l-38.7,25.9c0,0-4.7,5-2.4,9.6c3,6.1,10.5,3.3,10.5,3.3l38.6-25.3
						C384.2,138.4,386.5,133.5,384.7,129z"/>
				</g>
			</g>
			<g>
				<g>
					<path class="st12" d="M430.4,54.6c0,0-10-0.6-16.8,6.3c-4,4-4.5,10.7-3.1,13.5c0,0-3.8,0.7-4.8,6.6c-0.9,4.8,1.2,10.5,3.1,10.3
						c0,0-2.8,10.2,5.7,17.7c4.2,3.6,8.9,2.4,8.9,2.4s0.4,9.1,12.7,9.1C451.3,120.5,431.1,55.3,430.4,54.6z"/>
					<path class="st12" d="M462.1,68.4c0,0,0.5-0.5,1.3-1.2l-6.5-7.1c0,0,4.4-4.2,9-0.8c2,1.4,2.4,3.7,2.2,5.9
						c4.9,0.5,9.2,8.4,5.5,13.6c0,0,6.6,7.2,2.4,18c-4.3,11.2-11.5,9.7-12.1,8.7c0,0,3.2,5.5-1.9,9.2s-7.6-1.2-7.6-1.2
						s0.7,8.9-11.5,7.5C427.7,119.2,462.1,68.4,462.1,68.4z"/>
					<path class="st13" d="M467,88.4c0.8-14.1-8.1-31.4-20.2-32.1c-12.1-0.7-22.9,15.5-23.7,29.6c-0.4,7.8,2.1,14.9,6.6,19.9
						c6.4,8.6,5.3,20,5.3,20s-1.1,4.6-4.7,4.5c0,0,3.7,5.3,12.1,5.8c8.4,0.5,12.7-4.4,12.7-4.4c-3.6-0.3-4.1-5-4.1-5l-0.1-0.9
						c0.2-2.8,1.4-11.9,7.5-18.3C463.2,103,466.6,96.2,467,88.4z"/>
					<g>
						<g>
							
								<ellipse transform="matrix(0.9879 -0.1551 0.1551 0.9879 -8.7529 66.526)" class="st13" cx="422" cy="89.4" rx="6.5" ry="8.2"/>
							
								<ellipse transform="matrix(0.2656 -0.9641 0.9641 0.2656 252.7118 515.3965)" class="st13" cx="464.7" cy="91.8" rx="8.2" ry="6.5"/>
						</g>
					</g>
					<path class="st12" d="M472.1,69.6C475,82.4,467,84,467,84c-5.6-11-10.2-19.5-10.2-19.5c-13.6,9.9-37.9,14-37.9,14
						s-0.5-1.7,2.1-12.6c1.9-8.1,8.8-18.8,25.9-17.9S470.4,61.9,472.1,69.6z"/>
					<g>
						<g>
							<ellipse class="st3" cx="443" cy="90.6" rx="2.4" ry="2.4"/>
							<ellipse class="st3" cx="459" cy="92.7" rx="2.4" ry="2.4"/>
						</g>
						
							<ellipse transform="matrix(0.1763 -0.9843 0.9843 0.1763 277.4521 524.0291)" class="st4" cx="451.8" cy="96.2" rx="2.4" ry="1.8"/>
						<path class="st3" d="M447,107.9c-2.8-0.9-3.5-6-3.6-6.6c-0.2-1.2,2.6,0.5,5.5,1.2c2.9,0.7,4.9-0.2,4.6,0.6
							C453.2,104.3,449.1,108.6,447,107.9z"/>
					</g>
					<path class="st14" d="M441,95.9c-3.1,0.8-3.4,2.7-2.8,4.6c0.1,0.3,0.3,0.2,0.3,0c0.1-0.8-0.5-2.5,2.6-4.3
						C441.3,96.1,441.3,95.8,441,95.9z"/>
					<path class="st14" d="M456.8,98.4c2.5,2,1.8,3.9,0.5,5.4c-0.2,0.2-0.3,0.2-0.3-0.1c0.2-0.8,1.6-2.1-0.3-5.2
						C456.7,98.4,456.5,98.1,456.8,98.4z"/>
				</g>
				<g>
					<path class="st15" d="M478.6,169.8l-5.1-31.6c-0.6-4.4-4.5-9.6-9.7-11c-5.2-1.4-41.2,0-41.2,0c-4.4,0-10.1,4.4-11.7,8.4
						c-0.8,2-3.2,9.7-5.4,17c-2.2,7.2-2.8,17.2-2.8,17.2L478.6,169.8z"/>
					<g>
						<g>
							<path class="st16" d="M456,127.3l-4.5-5.6h-3.6l-13.7-1.9l-4.6,6.9c2.1,6.2,14.9,6.8,20,5.9C454.4,131.8,455.4,129,456,127.3
								z"/>
							<polygon class="st15" points="453.6,166.9 461.4,144 417.5,144 415.5,166.5 							"/>
							<ellipse class="st17" cx="448.4" cy="140.5" rx="1.6" ry="1.6"/>
							<ellipse class="st17" cx="448.9" cy="147.3" rx="1.6" ry="1.6"/>
						</g>
					</g>
					<g>
						<g>
							<path class="st1" d="M442,120.5c-1-0.3-2.2,0.2-2.5,1.3l-4.1,12.4l3.8,1.2l4.1-12.4C443.6,122,443,120.8,442,120.5z"/>
						</g>
					</g>
				</g>
				<g>
					<path class="st10" d="M447.5,137.8l17,1.5c1.5,0.3,2.8-1,3-3l6-31.6c0.4-2.4,0-4.5-2.3-4.7l-16.2-1.4c-2.4-0.2-4.2,0.5-4.7,3.8
						l-5.2,31.4C445,135.7,446.1,137.5,447.5,137.8z"/>
					
						<ellipse transform="matrix(0.2321 -0.9727 0.9727 0.2321 255.6836 535.7714)" class="st11" cx="467.2" cy="105.9" rx="2.4" ry="2.1"/>
				</g>
				<path class="st1" d="M440.5,122.7c5.5-3.5,8.8-4.8,12.5-1.8c1.2,1,1.6,6.6-5.1,13.6c-1.6,1.7-10.9,16.3-10.9,16.3l-11-4.5
					C426,146.3,435.5,125.9,440.5,122.7z"/>
				<g>
					<path class="st18" d="M443.4,143.1l-15.1-5.4c0,0-9.4,18-18,32.1h25.5L443.4,143.1z"/>
				</g>
				<path class="st19" d="M475.8,130.9c-3.8-5.2-6.5-7.7-11.1-6.2c-1.5,0.5-3.9,5.6-0.1,14.6c0.9,2.1,4.3,19.1,4.3,19.1l11.9-0.2
					C480.9,158.2,479.3,135.7,475.8,130.9z"/>
				<g>
					<path class="st18" d="M464.2,146.3l16.3-3.3c0,0,4.1,17.3,4.1,26.8H467L464.2,146.3z"/>
				</g>
			</g>
			<g>
				<g>
					<g>
						<g>
							<path class="st20" d="M485.1,129.5c-0.5-3-1.1-8.6-1.5-12.1c-0.1-1.1,1.1-1.9,2.1-1.2l9.3,6.9c0.7,0.5,0.7,1.6-0.1,2.1
								l-7.8,5.2C486.3,130.9,485.2,130.5,485.1,129.5z"/>
							<path class="st20" d="M505.7,123.5c2.4-1.7,7.2-4.8,10.2-6.7c1-0.6,2.2,0.2,2,1.3l-2,11.4c-0.2,0.9-1.2,1.4-1.9,0.9l-8.1-4.7
								C505,125.2,505,124.1,505.7,123.5z"/>
							<g>
								<path class="st20" d="M518.2,132.3c-1.9-6.9-9.7-10.5-15.2-11.4c-6.4-1.1-14.4,0.5-18.9,5.9c-2.4,2.9-3.1,6.1-3.2,6.8
									c-0.9,4.9,1.1,9.5,1.3,10c1,2.2,1.6,2.2,1.7,3.3c0.2,1.4-1.3,2.4-2.2,4.8c-2.9,7.8-3.1,14.8-2.5,18.2l36.8,0
									c2.6-4,1-16.8,0.4-18.2c-0.6-1.1-1.6-2.5-1.5-4.5c0-0.8,0.2-1.5,0.4-2c0.3-0.3,0.7-0.8,1.1-1.5
									C518.8,140,519,135.4,518.2,132.3z"/>
								<path class="st11" d="M497.8,139c-0.9,1-1.1,2-1.1,2c-0.1,0.7,0,1.3,0,1.5c0.3,1.5,1.6,2.4,2.2,2.8c1.3,0.9,2.5,1.1,3.7,1.2
									c0.6,0.1,1.5,0.2,2.7,0.1c0.8-0.1,1.7-0.2,2.7-0.7c0.4-0.2,1.3-0.8,1.9-1.9c0-0.1,0.7-1.3,0.4-2.6c-0.5-2.4-3.7-3.9-5.9-4.2
									C501.7,136.8,499,137.6,497.8,139z"/>
								<path class="st21" d="M504.2,140.5c-0.4,0.6-0.8,1.1-1.1,1.4c-0.3,0.3-0.6,0.6-1.1,0.8c-0.2,0.1-0.5,0.2-1,0.2
									c-1.2,0-1.9-0.7-2.1-0.6c-0.1,0.1,0.3,0.7,0.8,1c0.3,0.2,0.7,0.3,1,0.3c0.1,0,0.2,0,0.4,0c0.1,0,0.2,0,0.3,0
									c0.1,0,0.2,0,0.3,0c1.1,0,1.9-0.6,2.4-1c0.3,0.3,0.6,0.6,0.8,0.7c0.7,0.5,1.2,0.5,1.3,0.5c0.1,0,0.2,0,0.2,0
									c0.1,0,0.2,0,0.3,0c0,0,0,0,0.1,0c0,0,0.1,0,0.3-0.1c0.2-0.1,1.3-1,1.1-1.2c-0.1-0.2-0.7,0.4-1.7,0.3
									c-0.9-0.1-1.7-0.8-1.9-1.1c0,0,0,0,0,0C504.2,141.2,504.2,140.8,504.2,140.5z"/>
								<path class="st21" d="M502.1,139.5c0,0,0,0.1,0.2,0.3c0,0,0.8,1.2,1.5,1.4c0,0,0.1,0.1,0.3,0c0.1,0,0.2,0,0.3-0.1
									c0.6-0.3,1.2-1.2,1.2-1.2c0.2-0.3,0.2-0.4,0.2-0.4C505.5,138.9,502.2,138.9,502.1,139.5z"/>
								<ellipse class="st22" cx="507.9" cy="137.4" rx="1.1" ry="1.1"/>
								<ellipse class="st22" cx="500.1" cy="136.7" rx="1.1" ry="1.1"/>
							</g>
						</g>
						<path class="st11" d="M496.2,120.8c0.2,1.1,0.4,2.4,0.6,3.8c0.1,1.4,0.2,2.7,0.1,3.9c0.2,0,0.4-0.1,0.6-0.1
							c0.2,0,0.4-0.1,0.6-0.1c0-1.2-0.1-2.5-0.2-3.8c-0.1-1.4-0.3-2.7-0.5-3.8c-0.1,0-0.2,0-0.3,0c-0.1,0-0.2,0-0.3,0
							C496.6,120.7,496.4,120.7,496.2,120.8z"/>
						<path class="st11" d="M500.5,120.7c0.2,1.1,0.4,2.4,0.5,3.7c0.1,1.4,0.2,2.8,0.2,4c0.2,0,0.4-0.1,0.6-0.1
							c0.2,0,0.4-0.1,0.6-0.1c0-1.1,0-2.4-0.1-3.8c-0.1-1.3-0.3-2.6-0.5-3.7c-0.1,0-0.2,0-0.3,0c-0.1,0-0.2,0-0.3,0
							C500.8,120.6,500.6,120.6,500.5,120.7z"/>
						<path class="st11" d="M504.2,121.2c0.3,0.9,0.5,2.1,0.6,3.4c0.1,1.3,0.1,2.5,0,3.5c0.2,0,0.4-0.1,0.6-0.1
							c0.2,0,0.4-0.1,0.6-0.1c0-1,0-2-0.1-3.2c-0.1-1.2-0.3-2.2-0.5-3.1c-0.1,0-0.2-0.1-0.3-0.1c-0.1,0-0.2-0.1-0.3-0.1
							C504.6,121.2,504.4,121.2,504.2,121.2z"/>
						<path class="st11" d="M488.1,136.1c-1.1,0.2-2.3,0.4-3.7,0.4c-1.3,0.1-2.6,0.1-3.7,0c0,0.2-0.1,0.5,0,0.9
							c0,0.3,0.1,0.5,0.1,0.7c1.1,0,2.3-0.1,3.6-0.2c1.3-0.1,2.6-0.3,3.7-0.5c0-0.2,0-0.4,0-0.6
							C488.1,136.6,488.1,136.4,488.1,136.1z"/>
						<path class="st11" d="M487.7,139.8c-0.9,0.2-2,0.3-3,0.5c-1.2,0.1-2.3,0.2-3.4,0.2c0,0.2,0,0.3,0.1,0.5
							c0.1,0.3,0.1,0.5,0.2,0.7c1-0.1,2.1-0.1,3.1-0.3c1.1-0.1,2.1-0.3,3.1-0.4C487.7,140.8,487.7,140.6,487.7,139.8z"/>
						<path class="st11" d="M518.6,135.1c-0.7,0.2-1.5,0.3-2.4,0.4c-0.9,0.1-1.7,0.1-2.4,0.2c0,0.2,0,0.4,0,0.6c0,0.2,0,0.3,0,0.5
							c0.8,0,1.7,0,2.6-0.1c0.9-0.1,1.7-0.2,2.4-0.3c0-0.2,0-0.4,0-0.6C518.6,135.5,518.6,135.3,518.6,135.1z"/>
						<path class="st11" d="M518.4,138.4c-0.7,0.1-1.4,0.1-2.3,0.1c-0.7,0-1.4,0-2.1-0.1c0,0.2,0,0.3,0,0.5c0,0.2,0,0.3,0,0.5
							c0.6,0.1,1.3,0.2,2.2,0.2c0.7,0,1.4,0,1.9-0.1c0-0.1,0.1-0.3,0.1-0.5C518.3,138.9,518.4,138.7,518.4,138.4z"/>
					</g>
					<g>
						<g>
							<path class="st10" d="M519.7,139l-10-0.6c-1.5-0.1-3,1.1-3.2,2.6l-3.4,17.9c-0.3,1.5,0.7,2.8,2.2,2.9l10,0.6
								c1.5,0.1,3-1.1,3.2-2.6l3.4-17.9C522.2,140.4,521.2,139,519.7,139z"/>
							
								<ellipse transform="matrix(0.8774 -0.4797 0.4797 0.8774 -4.8611 266.1841)" class="st11" cx="518.5" cy="142.6" rx="1.2" ry="1.1"/>
						</g>
						<path class="st20" d="M509,147.3c0.4,0.3,1.9,1.3,2.1,2.8c0.2,1.3-0.8,2.3-1.9,3.4c-1.9,1.9-4.2,2.5-5.2,2.9
							c-0.6,0.2-1.9,0.6-3.8,0.5c-0.8-0.1-2-0.1-3.3-0.8c-0.2-0.1-3.3-1.7-3.4-3.8c-0.2-2.2,3-3.5,5.1-4.4
							C500.4,147,505.4,144.9,509,147.3z"/>
						<path class="st20" d="M515.8,147.1c-0.6,0.2-1.7,0.5-2.3,1.5c-0.9,1.5-0.2,3.2-0.1,3.5c0.3,0.7,0.9,1.3,2.2,2.4
							c0.5,0.5,0.9,0.8,1.5,1.1c0.3,0.2,0.7,0.4,1.3,0.6c1.5,0.5,1.8,0.4,3.2-0.1c0.1,0,1.5-1.8,2-3.6c0.8-3-1.4-4.2-1.7-4.4
							C521.5,147.8,518.5,146.4,515.8,147.1z"/>
					</g>
				</g>
			</g>
			<g>
				<g>
					<g>
						<path class="st23" d="M567.9,29.2c18.5-11.3,46.3,1,45.3,27.8"/>
						<path class="st23" d="M542.3,151.8c13.8,9.4,32.7,3.3,37.6-8.6"/>
						<path class="st23" d="M585.2,138.7c31.2,5.8,37.9-20,33.2-32.7c12.9-11.3,10.1-35-4.6-40.1"/>
						<path class="st23" d="M560.7,27.3c-18.1-18.8-47.7-10.8-51.5,9.8c-13.7,0.3-24.1,10.3-26.4,20.2"/>
					</g>
				</g>
				<g>
					<g>
						<path class="st23" d="M101.6,29.4c13.9-10.6,40.1-4.8,45.5,14.3"/>
						<path class="st23" d="M94.4,28.9c-17-15.2-47.8-2.4-49.8,18.6"/>
						<path class="st23" d="M41.1,52.3c-28.4,12.1-17.6,44.1-9.1,49"/>
						<path class="st23" d="M31.9,109.2c-6.7,20.3,11,41.3,37.5,33.7c6.1,18.6,34.3,22.3,49.6,11.6"/>
					</g>
				</g>
			</g>
			<g>
				<g>
					<g>
						<g>
							<path class="st8" d="M214.5,123.7c0.3-3.1,6.2-23.2,14.3-27.4c4.4-2.3,8.2-4.4,13.1-4.8c0,0,29.6-2.9,33.7-1.9
								c4.1,1,16.1,6.1,18.9,10.8c3.8,6.3-4.6,11.3-5.9,27.7c-0.4,4.7-1.3,32.8-1.6,39.9c0,1-0.9,1.8-1.9,1.8h-66.9L214.5,123.7z"/>
							<g>
								<g>
									<g>
										<g>
											<g>
												<path class="st1" d="M229.1,50.6c-2.4-35,4.4-27.7,24.2-29.1c14.4-1,26.8,9.1,27.9,25.6c0.6,9.1-4.9,19.5-8.2,23.5
													c-3.2,4-7.5,7.6-7.5,7.6s2.2,12.5,6,12.5c0,0-4,7-12.9,7.4c-8.9,0.4-13.4-6.2-13.4-6.2c3.8-0.3,2.7-8,2.7-8l-0.2-2.4
													c-0.3-3-3.2-4-7.9-9C233.9,67.3,229.7,59.7,229.1,50.6z"/>
												<g>
													<g>
														
															<ellipse transform="matrix(0.1629 -0.9866 0.9866 0.1629 181.9205 320.6683)" class="st1" cx="279.9" cy="53.1" rx="9.6" ry="7.7"/>
														
															<ellipse transform="matrix(0.9634 -0.268 0.268 0.9634 -7.4414 64.6903)" class="st1" cx="233.2" cy="59.6" rx="6.7" ry="8.5"/>
													</g>
												</g>
												<path class="st2" d="M227.2,52.1c0,0,2,2.9,2.1,2.7c0.2-0.4-1.4-9.2-0.9-9.2c14.1-0.5,18.9-15.9,34.4-17.2
													c0,0,5.5,10.1,16.1,18.3c0.6,0.5-0.7,2.9,0.8,3.9c0,0,11.8-20.3-4.8-30.1c0,0-0.3-11.7-15.9-10.4
													C227.4,12.8,217,35.7,227.2,52.1z"/>
											</g>
										</g>
									</g>
								</g>
							</g>
						</g>
						<g>
							<g>
								<ellipse class="st3" cx="256.1" cy="53.2" rx="2.5" ry="2.5"/>
								<ellipse class="st3" cx="241.1" cy="56.1" rx="2.5" ry="2.5"/>
							</g>
							<path class="st3" d="M253.3,71.4c2.7-0.5,3.9-5.4,3.8-6.4c-0.2-1-3,0.5-5.6,1c-2.7,0.5-4.8-0.2-4.7,0.8
								S250.6,71.9,253.3,71.4z"/>
						</g>
						<path class="st24" d="M242,91.5l5.7-3.1c0,0,0.5,4,7.7,4.2c7.3,0.2,12.6-6.7,12.6-6.7l7.4,3.6c0,0-6.2,10.3-21.4,9.9
							C242.5,99.1,242,91.5,242,91.5z"/>
					</g>
					<ellipse transform="matrix(0.9882 -0.153 0.153 0.9882 -6.2696 38.8008)" class="st4" cx="249" cy="60.1" rx="1.7" ry="2.3"/>
				</g>
			</g>
			<g>
				<g>
					<g>
						<g>
							<g>
								<g>
									<g>
										<g>
											<path class="st25" d="M159.6,75c-7.7-27.1,7.8-48.9,32.4-47.8c30.7,1.4,36.5,42.6,20.7,58.2
												c-15.1,14.9-35.5,4.8-35.5,4.8L159.6,75z"/>
										</g>
									</g>
								</g>
							</g>
						</g>
					</g>
				</g>
				<path class="st25" d="M157.8,65c-0.4-7.2,50.6-25,50.6-25c10.1,21.3-2,39.8,11.4,51.3c0,0-3,3.3-10.5,5.5c0.8,1,4.7,3.9,5.4,6.4
					C214.8,103.1,160,105.8,157.8,65z"/>
				<g>
					<g>
						<g>
							<g>
								<g>
									<g>
										<path class="st1" d="M197.3,96.4c-0.8-3.6-6.8-1.9-8.3-1.5c-1.5-0.3-8.3-1.4-8.1,2.3c0.2,4.2-9.8,5.2-9.8,5.2l15.3,7.6
											l23.8-8C210.2,102,198.2,100.5,197.3,96.4z"/>
										<path class="st26" d="M221.7,169.8l0.1-61.1c-3.6-3.8-8.5-8.8-11.8-8l-25,7.5l-14.9-7.5c-6.5,0-11.9,10.8-11.9,17.3
											l0.1,51.8H221.7z"/>
										<g>
											<g>
												<g>
													<path class="st26" d="M148.1,141.2c0.3-12.8-2-26.9,17-38.4c3-1.8-4.1,26.8-3.7,28.2c1.7,5.7,5.1,2.5,2.1,14.2
														c-0.2,0.9,4.2,9.3,4.1,10.2c-0.5,5.1,8.7,5.8,3.5,12.5C168.9,170.8,147.5,163.6,148.1,141.2z"/>
												</g>
											</g>
											<g>
												<g>
													<g>
														<g>
															<path class="st1" d="M209,59.5c-1.2-14.4-12.3-25.2-24.8-24.2c-12.6,1-21.3,13.7-20.1,28.1
																c0.6,7.9,4.1,15.7,8.9,20.1c4.8,4.4,6.3,4.6,7.1,6c1.8,3.2,0.9,7.7,0.9,7.7l8.2-0.7l8.2-0.1c0,0-1.4-4.2,0.6-8.6
																c0.6-1.5,2.3-3.7,4.6-6.8C206.9,75.8,209.6,67.4,209,59.5z"/>
														</g>
													</g>
												</g>
											</g>
											<g>
												
													<ellipse transform="matrix(0.9523 -0.3051 0.3051 0.9523 -13.6007 54.1357)" class="st1" cx="166.4" cy="70.6" rx="6.1" ry="7.5"/>
												
													<ellipse transform="matrix(0.1501 -0.9887 0.9887 0.1501 111.9886 262.0195)" class="st1" cx="208.4" cy="65.9" rx="8.3" ry="6.8"/>
											</g>
										</g>
									</g>
								</g>
								<g>
									<g>
										<ellipse class="st3" cx="174.1" cy="71.7" rx="2.2" ry="2.2"/>
										<ellipse class="st3" cx="190.2" cy="69.8" rx="2.2" ry="2.2"/>
									</g>
									
										<ellipse transform="matrix(0.987 -0.1606 0.1606 0.987 -9.3095 30.0564)" class="st4" cx="181.3" cy="72.6" rx="1.6" ry="2.1"/>
								</g>
							</g>
						</g>
					</g>
				</g>
				<path class="st25" d="M209.7,62.4c0,0-9.5-14.1-31.9-16.8c0,0,6.2,0.1,17.8,8.6c0,0-15.2-3.6-31.4-3.3c-7.8,0.1,0.8-18,17-19.2
					C202.4,30.1,212,46.3,209.7,62.4z"/>
				<path class="st3" d="M185.5,82.8c2.1-0.7,2.4-4.9,2.5-5.4c0.1-1.1-2,0.5-4.7,0.7c-1.9,0.2-3.5-0.2-3.2,0.7
					C180.4,79.8,183.6,83.4,185.5,82.8z"/>
			</g>
			<g>
				<g>
					<g>
						<path class="st27" d="M578.8,90.6c-0.2,0-0.3,0-0.5-0.1l-13.8-6.7v13.2c0,1.2,0.9,2.3,2,2.3h24.8c1.1,0,2-1,2-2.3V83.7
							l-13.8,6.7C579.2,90.5,579,90.6,578.8,90.6z"/>
						<path class="st27" d="M593.1,80.7v-2.4c0-1.2-0.9-2.3-2-2.3h-24.8c-1.1,0-2,1-2,2.3v2.4l14.4,7L593.1,80.7z"/>
					</g>
				</g>
			</g>
			<g>
				<path class="st28" d="M546.5,117.3h-24.3c-3.3,0-6.1-2.7-6.1-6.1V59c0-3.3,2.7-6.1,6.1-6.1h24.3c3.3,0,6.1,2.7,6.1,6.1v52.2
					C552.6,114.6,549.8,117.3,546.5,117.3z"/>
				<path class="st29" d="M544.9,51.4h-21.5c-5,0-9,4-9,9v50c0,5,4,9,9,9h21.5c5,0,9-4,9-9v-50C553.9,55.4,549.9,51.4,544.9,51.4z
					 M551.7,110.4c0,3.7-3,6.8-6.7,6.8h-21.5c-3.7,0-6.7-3-6.7-6.8v-50c0-3.7,3-6.8,6.7-6.8h3l1.5,2.1h12.7l1.5-2.1h3
					c3.7,0,6.7,3,6.7,6.8V110.4z"/>
				<rect x="520.8" y="60.5" class="st11" width="26.3" height="48.4"/>
				<g>
					<rect x="520.8" y="60.5" class="st30" width="26.3" height="3.7"/>
				</g>
				<g>
					<rect x="524.9" y="81.2" class="st28" width="18.2" height="2"/>
					<rect x="524.9" y="85.7" class="st28" width="18.2" height="2"/>
					<rect x="524.9" y="76.1" class="st28" width="18.2" height="2"/>
					<rect x="524.9" y="90.2" class="st28" width="18.2" height="2"/>
					<rect x="524.9" y="94.8" class="st28" width="11.7" height="2"/>
				</g>
			</g>
			<path class="st8" d="M290.2,96.6c6.4,2.6,22.6,20.2,24.7,35.3c1,6.8-36.4,37.1-36.4,37.1l-11.2-17c0,0,24-18.5,24.7-20.7
				c0.7-2.2-15-13-15-13L290.2,96.6z"/>
		</g>
		<g>
			<path class="st1" d="M279.5,165.8c0.3-5-4.1-8-9.9-8c-5.8,0-11.4,3-11.7,8c-0.1,1.9,0.5,3.2,1.6,3.9h17.8
				C278.6,169,279.4,167.8,279.5,165.8z"/>
		</g>
	</g>
	<path class="st1" d="M217.5,134.1l4,7.2c0.3,0.8,0,1.7-0.6,2.2c-4.6,3.5-12.1,8-17.6,11.2l-6.2-1.2c-1.8-0.3-3.4,0.9-3.7,2.7
		c-0.3,1.6,0.7,3.1,2.1,3.6c-2.7,2.1-1.2,1.5-1.7,3.8c-1.7,7.4,12.7,6.3,17,3.4c1.7-1.2,19.5-12.6,27.8-18.5c1.4-1,2-2.6,1.6-4.3
		l-4.9-16.3L217.5,134.1z"/>
	<g>
		<g>
			<path class="st28" d="M208.8,159.8h-7l-5.4-38.7c-0.1-1.3-1.3-2.3-2.6-2.3h-62.8c-1.3,0-2.2,1-2.1,2.3l8,46.2
				c0.2,1.4,1.4,2.5,2.8,2.5l69.2,0c1.6,0,3-1.3,3-3v-4C211.7,161.1,210.4,159.8,208.8,159.8z"/>
		</g>
	</g>
	<g>
		<path class="st26" d="M239.4,131.4c-10.3-18.5-15.9-27.9-26.7-30.2c-3.5-0.8-3.3,27-3.4,28.3c-0.6,5.4,0.2,1.5,6.1,11.5
			L239.4,131.4z"/>
	</g>
	<g>
		<g>
			<g>
				<g class="st31">
					<rect x="89.7" y="73.3" class="st32" width="53.8" height="36"/>
				</g>
				<g>
					<rect x="87.9" y="71.5" class="st11" width="53.8" height="36"/>
				</g>
			</g>
			<g>
				<rect x="87.9" y="71.5" class="st12" width="53.8" height="3.1"/>
			</g>
			<g>
				<rect x="96.8" y="80.9" class="st28" width="35.1" height="2.5"/>
			</g>
			<g>
				<rect x="96.8" y="86.2" class="st28" width="35.1" height="2.5"/>
			</g>
			<g>
				<rect x="96.8" y="91.4" class="st28" width="35.1" height="2.5"/>
			</g>
			<g>
				<rect x="96.8" y="96.7" class="st28" width="14.7" height="2.5"/>
			</g>
		</g>
	</g>
</g>
<g>
	<g>
		<path class="st27" d="M64.4,88.4c-0.2,0-0.4,0-0.5-0.1l-14.3-7V95c0,1.3,0.9,2.3,2,2.3h25.7c1.1,0,2-1.1,2-2.3V81.4l-14.3,7
			C64.8,88.4,64.6,88.4,64.4,88.4z"/>
		<path class="st27" d="M79.3,78.2v-2.5c0-1.3-0.9-2.3-2-2.3H51.5c-1.1,0-2,1.1-2,2.3v2.5l14.9,7.2L79.3,78.2z"/>
	</g>
</g>
<rect class="st33" width="640" height="170"/>
</svg>
