<?xml version="1.0" encoding="utf-8"?>
<!-- Generator: Adobe Illustrator 25.3.1, SVG Export Plug-In . SVG Version: 6.00 Build 0)  -->
<svg version="1.1" id="レイヤー_1" xmlns="http://www.w3.org/2000/svg" xmlns:xlink="http://www.w3.org/1999/xlink" x="0px"
	 y="0px" width="290px" height="176px" viewBox="0 0 290 176" style="enable-background:new 0 0 290 176;" xml:space="preserve">
<style type="text/css">
	.st0{fill:#517ABA;}
	.st1{fill:#FFFFFF;}
	.st2{fill:#4C5165;}
	.st3{fill:#E7E6EC;}
	.st4{fill:#E7E8E7;}
	.st5{opacity:0.4;}
	.st6{fill:#979797;}
	.st7{fill:#1FC97C;}
	.st8{fill:#19AF60;}
	.st9{fill:none;stroke:#517ABA;stroke-width:0.9667;stroke-miterlimit:10;}
	.st10{fill:#313131;}
	.st11{fill:none;}
</style>
<g>
	<g>
		<path class="st0" d="M35,18.5l1.2-1.7c0.6-0.8,1.8-0.6,2,0.4l0.4,2c0.2,0.8,1,1.1,1.7,0.7l1.7-1.1c0.8-0.5,1.9,0.2,1.7,1.1l-0.4,2
			c-0.1,0.8,0.5,1.4,1.3,1.3l2-0.4c1-0.2,1.7,0.9,1.1,1.7l-1.1,1.7c-0.4,0.7-0.1,1.5,0.7,1.7l2,0.4c1,0.2,1.2,1.5,0.4,2l-1.7,1.2
			c-0.6,0.4-0.6,1.4,0,1.8l1.7,1.2c0.8,0.6,0.6,1.8-0.4,2l-2,0.4c-0.8,0.2-1.1,1-0.7,1.7l1.1,1.7c0.5,0.8-0.2,1.9-1.1,1.7l-2-0.4
			c-0.8-0.1-1.4,0.5-1.3,1.3l0.4,2c0.2,1-0.9,1.7-1.7,1.1l-1.7-1.1c-0.7-0.4-1.5-0.1-1.7,0.7l-0.4,2c-0.2,1-1.5,1.2-2,0.4L35,46.7
			c-0.4-0.6-1.4-0.6-1.8,0L32,48.3c-0.6,0.8-1.8,0.6-2-0.4l-0.4-2c-0.2-0.8-1-1.1-1.7-0.7l-1.7,1.1c-0.8,0.5-1.9-0.2-1.7-1.1l0.4-2
			c0.1-0.8-0.5-1.4-1.3-1.3l-2,0.4c-1,0.2-1.7-0.9-1.1-1.7l1.1-1.7c0.4-0.7,0.1-1.5-0.7-1.7l-2-0.4c-1-0.2-1.2-1.5-0.4-2l1.7-1.2
			c0.6-0.4,0.6-1.4,0-1.8l-1.7-1.2c-0.8-0.6-0.6-1.8,0.4-2l2-0.4c0.8-0.2,1.1-1,0.7-1.7l-1.1-1.7c-0.5-0.8,0.2-1.9,1.1-1.7l2,0.4
			c0.8,0.1,1.4-0.5,1.3-1.3l-0.4-2c-0.2-1,0.9-1.7,1.7-1.1l1.7,1.1c0.7,0.4,1.5,0.1,1.7-0.7l0.4-2c0.2-1,1.5-1.2,2-0.4l1.2,1.7
			C33.6,19.2,34.5,19.2,35,18.5z"/>
		<g>
			<path class="st1" d="M32.7,30.9l-5.2-2.9c0,0-1,2,1.2,3.6S32.7,30.9,32.7,30.9z"/>
			<path class="st1" d="M37.7,32l5.8-1.3c0,0,0.4,2.2-2.2,3.1C38.8,34.6,37.7,32,37.7,32z"/>
		</g>
		<polygon class="st1" points="36,39.8 34.1,36.8 29.5,37.9 29.2,36.5 34.7,35.2 37.2,39 		"/>
	</g>
	<path class="st0" d="M11.2,84.5l1.2-1.5c0.3-0.4,1-0.3,1.1,0.3l0.4,1.8c0.1,0.4,0.5,0.6,0.9,0.4l1.7-0.8c0.5-0.2,1,0.2,0.9,0.7
		L17,87.3c-0.1,0.4,0.2,0.8,0.6,0.8l1.9,0c0.5,0,0.8,0.6,0.5,1l-1.2,1.5c-0.3,0.3-0.1,0.8,0.2,1l1.7,0.8c0.5,0.2,0.5,0.9,0,1.2
		L19,94.4c-0.4,0.2-0.5,0.7-0.2,1l1.2,1.5c0.3,0.4,0,1-0.5,1l-1.9,0c-0.4,0-0.7,0.4-0.6,0.8l0.4,1.8c0.1,0.5-0.4,0.9-0.9,0.7
		l-1.7-0.8c-0.4-0.2-0.8,0-0.9,0.4l-0.4,1.8c-0.1,0.5-0.8,0.7-1.1,0.3l-1.2-1.5c-0.3-0.3-0.7-0.3-1,0L9,102.9
		c-0.3,0.4-1,0.3-1.1-0.3l-0.4-1.8c-0.1-0.4-0.5-0.6-0.9-0.4l-1.7,0.8c-0.5,0.2-1-0.2-0.9-0.7l0.4-1.8c0.1-0.4-0.2-0.8-0.6-0.8
		l-1.9,0c-0.5,0-0.8-0.6-0.5-1l1.2-1.5c0.3-0.3,0.1-0.8-0.2-1l-1.7-0.8c-0.5-0.2-0.5-0.9,0-1.2l1.7-0.8c0.4-0.2,0.5-0.7,0.2-1
		l-1.2-1.5c-0.3-0.4,0-1,0.5-1l1.9,0c0.4,0,0.7-0.4,0.6-0.8l-0.4-1.8c-0.1-0.5,0.4-0.9,0.9-0.7l1.7,0.8c0.4,0.2,0.8,0,0.9-0.4
		l0.4-1.8C8,82.8,8.7,82.6,9,83l1.2,1.5C10.4,84.8,10.9,84.8,11.2,84.5z"/>
</g>
<g>
	<g>
		<g>
			<g>
				<path class="st2" d="M240.8,79.9v67.7H129.5V79.9c0-3.6,2.9-6.5,6.5-6.5h98.4C237.9,73.4,240.8,76.3,240.8,79.9z"/>
				<rect x="133.1" y="77" class="st1" width="103.9" height="67.1"/>
			</g>
			<polygon class="st3" points="240.8,147.6 129.5,147.6 117.7,168.3 252.6,168.3 			"/>
			<path class="st2" d="M246.2,173.6H124.1c-1.8,0-3.5-0.7-4.8-1.9l-1.6-3.4h134.9l-1.5,3.4C249.7,172.9,248,173.6,246.2,173.6z"/>
			<g>
				<rect x="148.9" y="100.1" class="st4" width="74.3" height="4"/>
				<rect x="148.9" y="107.6" class="st4" width="74.3" height="4"/>
				<rect x="148.9" y="115" class="st4" width="53.8" height="4"/>
				<rect x="148.9" y="126.9" class="st4" width="69.7" height="4"/>
			</g>
			<g>
				<circle class="st4" cx="150.4" cy="86" r="2.2"/>
				<circle class="st4" cx="158.3" cy="86" r="2.2"/>
				<circle class="st4" cx="166.1" cy="86" r="2.2"/>
			</g>
			<g>
				<g>
					<path class="st1" d="M183.7,87.1c-0.1,0-0.2,0-0.3,0l-19.6,2.1c-1.2,0.1-2.2,1.2-2.2,2.5c0,0.3-0.3,8.1,0.1,16.9
						c0.7,12.4,2.4,17.1,5.5,20.4c4.5,5.1,12,7.6,14.8,8.6c0.3,0.1,0.5,0.2,0.6,0.2c0.1,0.1,0.2,0.1,0.4,0.1
						c0.2,0.1,0.5,0.1,0.7,0.1c0.4,0,0.8-0.1,1.1-0.3c0.1,0,0.3-0.1,0.4-0.1c2.8-1,10.3-3.5,14.8-8.6c3-3.4,4.8-8,5.5-20.4
						c0.5-8.8,0.2-16.6,0.1-16.9c-0.1-1.3-1-2.3-2.2-2.5L184,87.1C183.9,87.1,183.8,87.1,183.7,87.1L183.7,87.1z"/>
				</g>
				<g class="st5">
					<path class="st6" d="M184.9,137.8c0.1,0,0.3-0.1,0.4-0.1c2.8-1,10.3-3.5,14.8-8.6c3-3.4,4.8-8,5.5-20.4
						c0.5-8.8,0.2-16.6,0.1-16.9c-0.1-1.3-1-2.3-2.2-2.5L184,87.1c-0.1,0-0.2,0-0.2,0l0,50.9c0,0,0,0,0,0
						C184.2,138.1,184.6,138,184.9,137.8z"/>
				</g>
				<path class="st7" d="M183.7,135.5c-1.6-0.6-10-3-14.7-8.2c-6.2-6.9-4.9-35.5-4.9-35.5l19.6-2.1L183.7,135.5z"/>
				<path class="st8" d="M183.7,135.5c1.6-0.6,10-3,14.7-8.2c6.2-6.9,4.9-35.5,4.9-35.5l-19.6-2.1L183.7,135.5z"/>
				<g>
					<path class="st1" d="M191.6,106.7l-1.2,0v-3.2c0-0.1,0-0.1,0-0.2c0,0,0,0,0,0c0-0.1,0-0.3,0-0.4c0,0,0,0,0-0.1
						c0-0.2-0.1-0.4-0.1-0.6c0,0,0,0,0-0.1c0-0.2-0.1-0.4-0.2-0.6c0,0,0,0,0,0c-0.1-0.2-0.1-0.4-0.2-0.6c0,0,0,0,0,0
						c-0.1-0.2-0.2-0.4-0.3-0.5c0,0,0,0,0,0c-0.1-0.2-0.2-0.4-0.3-0.5c0,0,0,0,0,0c-0.1-0.2-0.2-0.3-0.4-0.5c0,0,0,0,0,0
						c-0.1-0.2-0.3-0.3-0.4-0.5c0,0,0,0,0,0c-1.2-1.2-2.9-1.9-4.7-1.9c0,0,0,0,0,0c0,0,0,0,0,0v0c-3.7,0-6.7,2.9-6.7,6.5v3.2l-0.9,0
						c-1.1,0-1.9,0.8-2,1.9v11.2c0.1,1.1,1,1.9,2,1.9h15.4c1.1,0,1.9-0.8,2-1.9v-11.2C193.5,107.5,192.6,106.7,191.6,106.7z
						 M180,103.4c0-1.9,1.7-3.5,3.7-3.5c0.3,0,0.5,0,0.7,0.1c0,0,0,0,0.1,0c0.2,0,0.4,0.1,0.6,0.2c0,0,0.1,0,0.1,0.1
						c0.2,0.1,0.4,0.2,0.5,0.3c0,0,0.1,0.1,0.1,0.1c0.2,0.1,0.3,0.2,0.4,0.3c0,0,0.1,0.1,0.1,0.1c0.1,0.1,0.3,0.3,0.4,0.4
						c0,0,0.1,0.1,0.1,0.1c0.1,0.1,0.2,0.3,0.3,0.5c0,0.1,0,0.1,0.1,0.2c0.1,0.2,0.1,0.3,0.2,0.5c0,0.1,0,0.1,0,0.2
						c0,0.2,0.1,0.4,0.1,0.6v3.2l-7.5,0V103.4z"/>
					<path class="st7" d="M184.9,114.7c-0.1,0.1-0.2,0.2-0.2,0.4v2.4c0,0.2-0.2,0.5-0.4,0.5h-1c-0.2,0-0.4-0.2-0.4-0.5v-2.4
						c0-0.2-0.1-0.3-0.2-0.4c-0.8-0.5-1.3-1.4-1.1-2.5c0.2-0.9,0.9-1.7,1.8-1.9c1.5-0.3,2.8,0.9,2.8,2.4
						C186.1,113.5,185.6,114.3,184.9,114.7z"/>
				</g>
			</g>
			<g>
				<g>
					<polygon class="st2" points="149,159.4 143,159.4 144,157.7 150,157.7 					"/>
					<polygon class="st2" points="157,159.4 151,159.4 151.8,157.7 157.8,157.7 					"/>
					<polygon class="st2" points="164.9,159.4 158.9,159.4 159.6,157.7 165.6,157.7 					"/>
					<polygon class="st2" points="172.9,159.4 166.8,159.4 167.4,157.7 173.4,157.7 					"/>
					<polygon class="st2" points="180.8,159.4 174.8,159.4 175.1,157.7 181.2,157.7 					"/>
					<polygon class="st2" points="188.7,159.4 182.7,159.4 182.9,157.7 188.9,157.7 					"/>
					<polygon class="st2" points="196.7,159.4 190.7,159.4 190.7,157.7 196.7,157.7 					"/>
					<polygon class="st2" points="204.6,159.4 198.6,159.4 198.5,157.7 204.5,157.7 					"/>
					<polygon class="st2" points="212.6,159.4 206.6,159.4 206.3,157.7 212.3,157.7 					"/>
					<polygon class="st2" points="220.5,159.4 214.5,159.4 214.1,157.7 220.1,157.7 					"/>
					<polygon class="st2" points="222.5,159.4 228.5,159.4 227.9,157.7 221.9,157.7 					"/>
				</g>
				<g>
					<polygon class="st2" points="146.6,157.1 140.6,157.1 141.6,155.3 147.6,155.3 					"/>
					<polygon class="st2" points="154.4,157.1 148.3,157.1 149.2,155.3 155.2,155.3 					"/>
					<polygon class="st2" points="162.1,157.1 156.1,157.1 156.7,155.3 162.7,155.3 					"/>
					<polygon class="st2" points="169.8,157.1 163.8,157.1 164.3,155.3 170.3,155.3 					"/>
					<polygon class="st2" points="177.5,157.1 171.5,157.1 171.8,155.3 177.9,155.3 					"/>
					<polygon class="st2" points="185.2,157.1 179.2,157.1 179.4,155.3 185.4,155.3 					"/>
					<polygon class="st2" points="192.9,157.1 186.9,157.1 187,155.3 193,155.3 					"/>
					<polygon class="st2" points="200.6,157.1 194.6,157.1 194.5,155.3 200.5,155.3 					"/>
					<polygon class="st2" points="208.4,157.1 202.3,157.1 202.1,155.3 208.1,155.3 					"/>
					<polygon class="st2" points="216.1,157.1 210.1,157.1 209.6,155.3 215.6,155.3 					"/>
					<polygon class="st2" points="217.8,157.1 223.8,157.1 223.2,155.3 217.2,155.3 					"/>
				</g>
				<g>
					<polygon class="st2" points="145.9,154.8 139.9,154.8 140.7,153 146.7,153 					"/>
					<polygon class="st2" points="153.5,154.8 147.5,154.8 148.1,153 154.1,153 					"/>
					<polygon class="st2" points="161.1,154.8 155,154.8 155.5,153 161.5,153 					"/>
					<polygon class="st2" points="168.6,154.8 162.6,154.8 163,153 168.9,153 					"/>
					<polygon class="st2" points="176.2,154.8 170.1,154.8 170.4,153 176.4,153 					"/>
					<polygon class="st2" points="183.7,154.8 177.7,154.8 177.8,153 183.8,153 					"/>
					<polygon class="st2" points="191.3,154.8 185.3,154.8 185.2,153 191.2,153 					"/>
					<polygon class="st2" points="198.8,154.8 192.8,154.8 192.6,153 198.6,153 					"/>
					<polygon class="st2" points="206.4,154.8 200.4,154.8 200.1,153 206,153 					"/>
					<polygon class="st2" points="213.9,154.8 207.9,154.8 207.5,153 213.4,153 					"/>
					<polygon class="st2" points="215.5,154.8 221.5,154.8 220.8,153 214.9,153 					"/>
				</g>
				<g>
					<polygon class="st2" points="143.8,152.4 137.8,152.4 139,150.6 145,150.6 					"/>
					<polygon class="st2" points="151.6,152.4 145.6,152.4 146.6,150.6 152.6,150.6 					"/>
					<polygon class="st2" points="159.3,152.4 153.4,152.4 154.3,150.6 160.2,150.6 					"/>
					<polygon class="st2" points="167,152.4 161.2,152.4 161.9,150.6 167.7,150.6 					"/>
					<polygon class="st2" points="174.8,152.4 169,152.4 169.5,150.6 175.3,150.6 					"/>
					<polygon class="st2" points="182.5,152.4 176.8,152.4 177.1,150.6 182.9,150.6 					"/>
					<polygon class="st2" points="190.3,152.4 184.6,152.4 184.8,150.6 190.5,150.6 					"/>
					<polygon class="st2" points="198,152.4 192.4,152.4 192.4,150.6 198,150.6 					"/>
					<polygon class="st2" points="205.7,152.4 200.2,152.4 200,150.6 205.6,150.6 					"/>
					<polygon class="st2" points="213.5,152.4 208,152.4 207.7,150.6 213.2,150.6 					"/>
					<polygon class="st2" points="221.2,152.4 215.7,152.4 215.3,150.6 220.8,150.6 					"/>
					<polygon class="st2" points="229,152.4 223.5,152.4 222.9,150.6 228.4,150.6 					"/>
					<polygon class="st2" points="231.3,152.4 236.7,152.4 235.9,150.6 230.6,150.6 					"/>
				</g>
				<polygon class="st2" points="137.6,161.9 131.1,161.9 132.1,160.2 138.6,160.2 				"/>
				<g>
					<polygon class="st2" points="130.3,161.9 127.1,161.9 128.1,160.2 131.2,160.2 					"/>
					<polygon class="st2" points="141.8,159.3 128.4,159.3 129.4,157.6 142.8,157.6 					"/>
					<polygon class="st2" points="139,157.1 129.7,157.1 130.7,155.3 140,155.3 					"/>
					<polygon class="st2" points="138.3,154.8 131.1,154.8 132,153.1 139.3,153.1 					"/>
					<polygon class="st2" points="136.5,152.6 132.4,152.6 133.3,150.9 137.5,150.9 					"/>
				</g>
				<polygon class="st2" points="145.8,161.9 139.3,161.9 140.1,160.2 146.6,160.2 				"/>
				<polygon class="st2" points="154,161.9 147.5,161.9 148.2,160.2 154.7,160.2 				"/>
				<polygon class="st2" points="202.2,161.9 195.7,161.9 195.6,160.2 202.1,160.2 				"/>
				<polygon class="st2" points="210.3,161.9 203.8,161.9 203.6,160.2 210.1,160.2 				"/>
				<polygon class="st2" points="218.4,161.9 211.9,161.9 211.7,160.2 218.2,160.2 				"/>
				<polygon class="st2" points="226.4,161.9 219.9,161.9 219.5,160.2 226,160.2 				"/>
				<polygon class="st2" points="234.4,161.9 227.9,161.9 227.5,160.2 234,160.2 				"/>
				<polygon class="st2" points="240.6,161.9 236,161.9 235.6,160.2 239.9,160.2 				"/>
				<polygon class="st2" points="239.8,159.4 230,159.4 229.5,157.7 239,157.7 				"/>
				<polygon class="st2" points="238.5,157 228,157 227.1,154.8 223.7,154.8 223.1,153.1 236.8,153.1 				"/>
				<polygon class="st2" points="194.1,161.9 155.6,161.9 156.2,160.2 194,160.2 				"/>
			</g>
		</g>
	</g>
</g>
<g>
	<g>
		<path class="st0" d="M272.6,90.7l-1.2-1.7c-0.6-0.8-1.8-0.6-2,0.4l-0.4,2c-0.2,0.8-1,1.1-1.7,0.7l-1.7-1.1
			c-0.8-0.5-1.9,0.2-1.7,1.1l0.4,2c0.1,0.8-0.5,1.4-1.3,1.3l-2-0.4c-1-0.2-1.7,0.9-1.1,1.7l1.1,1.7c0.4,0.7,0.1,1.5-0.7,1.7l-2,0.4
			c-1,0.2-1.2,1.5-0.4,2l1.7,1.2c0.6,0.4,0.6,1.4,0,1.8l-1.7,1.2c-0.8,0.6-0.6,1.8,0.4,2l2,0.4c0.8,0.2,1.1,1,0.7,1.7l-1.1,1.7
			c-0.5,0.8,0.2,1.9,1.1,1.7l2-0.4c0.8-0.1,1.4,0.5,1.3,1.3l-0.4,2c-0.2,1,0.9,1.7,1.7,1.1l1.7-1.1c0.7-0.4,1.5-0.1,1.7,0.7l0.4,2
			c0.2,1,1.5,1.2,2,0.4l1.2-1.7c0.4-0.6,1.4-0.6,1.8,0l1.2,1.7c0.6,0.8,1.8,0.6,2-0.4l0.4-2c0.2-0.8,1-1.1,1.7-0.7l1.7,1.1
			c0.8,0.5,1.9-0.2,1.7-1.1l-0.4-2c-0.1-0.8,0.5-1.4,1.3-1.3l2,0.4c1,0.2,1.7-0.9,1.1-1.7l-1.1-1.7c-0.4-0.7-0.1-1.5,0.7-1.7l2-0.4
			c1-0.2,1.2-1.5,0.4-2l-1.7-1.2c-0.6-0.4-0.6-1.4,0-1.8l1.7-1.2c0.8-0.6,0.6-1.8-0.4-2l-2-0.4c-0.8-0.2-1.1-1-0.7-1.7l1.1-1.7
			c0.5-0.8-0.2-1.9-1.1-1.7l-2,0.4c-0.8,0.1-1.4-0.5-1.3-1.3l0.4-2c0.2-1-0.9-1.7-1.7-1.1l-1.7,1.1c-0.7,0.4-1.5,0.1-1.7-0.7l-0.4-2
			c-0.2-1-1.5-1.2-2-0.4l-1.2,1.7C274,91.4,273.1,91.4,272.6,90.7z"/>
		<g>
			<path class="st1" d="M275,103.1l5.2-2.9c0,0,1,2-1.2,3.6C276.7,105.2,275,103.1,275,103.1z"/>
			<path class="st1" d="M269.9,104.2l-5.8-1.3c0,0-0.4,2.2,2.2,3.1C268.8,106.8,269.9,104.2,269.9,104.2z"/>
		</g>
		<polygon class="st1" points="271.6,112 273.5,109 278.1,110.1 278.5,108.7 272.9,107.3 270.4,111.2 		"/>
	</g>
	<path class="st0" d="M259.7,29.4l1-1.6c0.3-0.5,1-0.4,1.2,0.1l0.7,1.7c0.1,0.4,0.6,0.5,1,0.3l1.6-1c0.4-0.3,1,0.1,1,0.6l-0.1,1.9
		c0,0.4,0.3,0.7,0.7,0.7l1.8-0.3c0.5-0.1,0.9,0.5,0.6,1l-0.9,1.6c-0.2,0.4,0,0.8,0.4,0.9l1.8,0.6c0.5,0.2,0.6,0.8,0.2,1.1l-1.5,1.1
		c-0.3,0.2-0.4,0.7-0.1,1l1.4,1.3c0.4,0.4,0.2,1-0.3,1.1l-1.8,0.3c-0.4,0.1-0.7,0.5-0.5,0.9l0.7,1.7c0.2,0.5-0.3,1-0.8,0.8l-1.8-0.5
		c-0.4-0.1-0.8,0.2-0.8,0.6l-0.2,1.9c0,0.5-0.7,0.8-1.1,0.4l-1.4-1.3c-0.3-0.3-0.8-0.2-1,0.1l-1,1.6c-0.3,0.5-1,0.4-1.2-0.1
		l-0.7-1.7c-0.1-0.4-0.6-0.5-1-0.3l-1.6,1c-0.4,0.3-1-0.1-1-0.6l0.1-1.9c0-0.4-0.3-0.7-0.7-0.7l-1.8,0.3c-0.5,0.1-0.9-0.5-0.6-1
		l0.9-1.6c0.2-0.4,0-0.8-0.4-0.9l-1.8-0.6c-0.5-0.2-0.6-0.8-0.2-1.1l1.5-1.1c0.3-0.2,0.4-0.7,0.1-1l-1.4-1.3c-0.4-0.4-0.2-1,0.3-1.1
		l1.8-0.3c0.4-0.1,0.7-0.5,0.5-0.9l-0.7-1.7c-0.2-0.5,0.3-1,0.8-0.8l1.8,0.5c0.4,0.1,0.8-0.2,0.8-0.6l0.2-1.9c0-0.5,0.7-0.8,1.1-0.4
		l1.4,1.3C259,29.8,259.5,29.7,259.7,29.4z"/>
</g>
<polyline class="st9" points="31.1,122.2 50.2,108.1 24.7,98.3 "/>
<line class="st9" x1="250.1" y1="43.9" x2="220.1" y2="64.8"/>
<g>
	<path class="st1" d="M115,148.3c0,5.4-2.5,7.9-7.9,7.9H65.9c-5.4,0-7.9-2.5-7.9-7.9V58.2c0-5.4,2.5-7.9,7.9-7.9h41.2
		c5.4,0,7.9,2.5,7.9,7.9V148.3z"/>
	<g>
		<g>
			<circle class="st4" cx="66.1" cy="69.7" r="1.7"/>
			<circle class="st4" cx="72.3" cy="69.7" r="1.7"/>
			<circle class="st4" cx="78.4" cy="69.7" r="1.7"/>
		</g>
	</g>
	<g>
		<polygon class="st10" points="100.6,52.7 72.5,52.7 69.4,48.1 103.7,48.1 		"/>
		<path class="st2" d="M107.1,47H65.9c-7.2,0-11.2,4-11.2,11.2v90.1c0,7.2,3.9,11.2,11.2,11.2h41.2c7.2,0,11.2-4,11.2-11.2V58.2
			C118.3,51,114.4,47,107.1,47z M115,148.3c0,5.4-2.5,7.9-7.9,7.9H65.9c-5.4,0-7.9-2.5-7.9-7.9V58.2c0-5.4,2.5-7.9,7.9-7.9h41.2
			c5.4,0,7.9,2.5,7.9,7.9V148.3z"/>
	</g>
	<g>
		<g>
			<rect x="65" y="76.5" class="st4" width="43.4" height="4"/>
			<rect x="65" y="84" class="st4" width="43.4" height="4"/>
		</g>
		<g>
			<rect x="65" y="91.9" class="st4" width="43.4" height="4"/>
			<rect x="65" y="99.3" class="st4" width="43.4" height="4"/>
		</g>
		<g>
			<rect x="65" y="114.7" class="st4" width="43.4" height="4"/>
		</g>
		<g>
			<rect x="65" y="122.6" class="st4" width="43.4" height="4"/>
			<rect x="65" y="132.9" class="st4" width="14.7" height="4"/>
		</g>
	</g>
	<g>
		<g>
			<path class="st1" d="M86.3,81.8c-0.1,0-0.2,0-0.3,0l-19.6,2.1c-1.2,0.1-2.2,1.2-2.2,2.5c0,0.3-0.3,8.1,0.1,16.9
				c0.7,12.4,2.4,17.1,5.5,20.4c4.5,5.1,12,7.6,14.8,8.6c0.3,0.1,0.5,0.2,0.6,0.2c0.1,0.1,0.2,0.1,0.4,0.1c0.2,0.1,0.5,0.1,0.7,0.1
				c0.4,0,0.8-0.1,1.1-0.3c0.1,0,0.3-0.1,0.4-0.1c2.8-1,10.3-3.5,14.8-8.6c3-3.4,4.8-8,5.5-20.4c0.5-8.8,0.2-16.6,0.1-16.9
				c-0.1-1.3-1-2.3-2.2-2.5l-19.6-2.1C86.5,81.8,86.4,81.8,86.3,81.8L86.3,81.8z"/>
		</g>
		<g class="st5">
			<path class="st6" d="M87.5,132.5c0.1,0,0.3-0.1,0.4-0.1c2.8-1,10.3-3.5,14.8-8.6c3-3.4,4.8-8,5.5-20.4c0.5-8.8,0.2-16.6,0.1-16.9
				c-0.1-1.3-1-2.3-2.2-2.5l-19.6-2.1c-0.1,0-0.2,0-0.2,0l0,50.9c0,0,0,0,0,0C86.7,132.8,87.1,132.7,87.5,132.5z"/>
		</g>
		<path class="st7" d="M86.3,130.2c-1.6-0.6-10-3-14.7-8.2c-6.2-6.9-4.9-35.5-4.9-35.5l19.6-2.1L86.3,130.2z"/>
		<path class="st8" d="M86.3,130.2c1.6-0.6,10-3,14.7-8.2c6.2-6.9,4.9-35.5,4.9-35.5l-19.6-2.1L86.3,130.2z"/>
		<g>
			<path class="st1" d="M94.2,101.3l-1.2,0v-3.2c0-0.1,0-0.1,0-0.2c0,0,0,0,0,0c0-0.1,0-0.3,0-0.4c0,0,0,0,0-0.1
				c0-0.2-0.1-0.4-0.1-0.6c0,0,0,0,0-0.1c0-0.2-0.1-0.4-0.2-0.6c0,0,0,0,0,0c-0.1-0.2-0.1-0.4-0.2-0.6c0,0,0,0,0,0
				c-0.1-0.2-0.2-0.4-0.3-0.5c0,0,0,0,0,0c-0.1-0.2-0.2-0.4-0.3-0.5c0,0,0,0,0,0c-0.1-0.2-0.2-0.3-0.4-0.5c0,0,0,0,0,0
				c-0.1-0.2-0.3-0.3-0.4-0.5c0,0,0,0,0,0c-1.2-1.2-2.9-1.9-4.7-1.9c0,0,0,0,0,0c0,0,0,0,0,0v0c-3.7,0-6.7,2.9-6.7,6.5v3.2l-0.9,0
				c-1.1,0-1.9,0.8-2,1.9v11.2c0.1,1.1,1,1.9,2,1.9h15.4c1.1,0,1.9-0.8,2-1.9v-11.2C96.1,102.2,95.2,101.3,94.2,101.3z M82.6,98.1
				c0-1.9,1.7-3.5,3.7-3.5c0.3,0,0.5,0,0.7,0.1c0,0,0,0,0.1,0c0.2,0,0.4,0.1,0.6,0.2c0,0,0.1,0,0.1,0.1c0.2,0.1,0.4,0.2,0.5,0.3
				c0,0,0.1,0.1,0.1,0.1c0.2,0.1,0.3,0.2,0.4,0.3c0,0,0.1,0.1,0.1,0.1c0.1,0.1,0.3,0.3,0.4,0.4c0,0,0.1,0.1,0.1,0.1
				c0.1,0.1,0.2,0.3,0.3,0.5c0,0.1,0,0.1,0.1,0.2c0.1,0.2,0.1,0.3,0.2,0.5c0,0.1,0,0.1,0,0.2c0,0.2,0.1,0.4,0.1,0.6v3.2l-7.5,0V98.1
				z"/>
			<path class="st7" d="M87.5,109.4c-0.1,0.1-0.2,0.2-0.2,0.4v2.4c0,0.2-0.2,0.5-0.4,0.5h-1c-0.2,0-0.4-0.2-0.4-0.5v-2.4
				c0-0.2-0.1-0.3-0.2-0.4c-0.8-0.5-1.3-1.4-1.1-2.5c0.2-0.9,0.9-1.7,1.8-1.9c1.5-0.3,2.8,0.9,2.8,2.4
				C88.6,108.2,88.2,109,87.5,109.4z"/>
		</g>
	</g>
</g>
<rect class="st11" width="290" height="176"/>
</svg>
