<?xml version="1.0" encoding="utf-8"?>
<!-- Generator: Adobe Illustrator 25.3.1, SVG Export Plug-In . SVG Version: 6.00 Build 0)  -->
<svg version="1.1" id="レイヤー_1" xmlns="http://www.w3.org/2000/svg" xmlns:xlink="http://www.w3.org/1999/xlink" x="0px"
	 y="0px" width="290px" height="174px" viewBox="0 0 290 174" style="enable-background:new 0 0 290 174;" xml:space="preserve">
<style type="text/css">
	.st0{fill:none;}
	.st1{fill:#E9FCB6;}
	.st2{fill:#3FE1A5;}
	.st3{fill:#3176D2;}
	.st4{fill:#F7BAC9;}
	.st5{fill:#FFDBC2;}
	.st6{fill:#37377C;}
	.st7{fill:#D8A684;}
	.st8{fill:#F4CAB3;}
	.st9{fill:#4056A8;}
	.st10{fill:#79D3C2;}
	.st11{enable-background:new    ;}
	.st12{fill:#1190A5;}
	.st13{opacity:0.2;}
	.st14{fill:#808080;}
	.st15{fill:#FFFFFF;}
	.st16{fill:none;stroke:#3FE1A5;stroke-width:4.6358;stroke-linecap:round;stroke-linejoin:round;stroke-miterlimit:10;}
</style>
<rect class="st0" width="290" height="174"/>
<g>
	<path class="st1" d="M40.3,57.5c-25.6,0-29.9,7.6-29.9,15.4v0.3v10.8v0.3c0,7.9,5.8,15.5,31.3,15.5c25.6,0,29.2-7.6,29.2-15.5v-0.3
		V73.2v-0.3C70.9,65.1,65.8,57.5,40.3,57.5z"/>
	<g>
		<g>
			<path class="st2" d="M249,81.7V85c0,0.3,0.2,0.5,0.5,0.5h6c0.1,0,0.2,0.1,0.1,0.2l-22.8,22.6c-0.2,0.2-0.2,0.5,0,0.8l2.3,2.3
				c0.2,0.2,0.6,0.2,0.8,0l22.8-22.6c0.1-0.1,0.2,0,0.2,0.1l0,5.9c0,0.3,0.2,0.5,0.5,0.5h3.3c0.3,0,0.5-0.2,0.5-0.5V81.7
				c0-0.3-0.2-0.5-0.5-0.5h-13.2C249.3,81.2,249,81.5,249,81.7z"/>
			<rect x="239.5" y="115.6" class="st2" width="9.3" height="18.3"/>
			<rect x="253.9" y="103.1" class="st2" width="9.3" height="30.9"/>
			<rect x="225" y="121.5" class="st2" width="9.3" height="12.5"/>
			<rect x="268.4" y="88.9" class="st2" width="9.3" height="45"/>
		</g>
	</g>
	<g>
		<g>
			<path class="st3" d="M134.5,33.6c-6.4-4-20.6-6.2-28.4-0.6c-13.6,0-24.1,20.8-24.1,34.9c0,18.1,7.8,29.7,17,33.5
				c1.7,0.7,0.9-0.7,0.6-1c-0.7-1-1.2-2.7-0.4-4c1.6,6.3,7.3,8.9,7.3,8.9c-1.1-8-1.9-12.9-1.1-18c3.7,3.6,8.8,7.3,14.7,8.4
				c-1.9,3.8-4.2,6.2-7.8,10.7c0,0,2.9,0.4,10.2-8.4c1,0.9,1.4,2.6-0.9,5.2c-0.9,1.1,0.6,1.2,2.5,0.5c7.8-2.8,22.6-5.7,26.8-32.1
				C152.2,55.9,151,43.9,134.5,33.6z"/>
			<g>
				<path class="st4" d="M154.4,169.6l-9.8-46.6c-2.4-8.6-8.9-13.8-15.3-13.8H89.9c-6.4,0-11.6,5.2-11.6,11.6l1.2,48.8H154.4z"/>
				<g>
					<path class="st4" d="M81.7,108c-5,0-8.7,4.2-9.8,9.1c0,0-9.2,26-8.3,31.3c0.6,3.3,14.7,7.1,14.7,7.1l15-38.4
						C93.3,112.1,89.9,108,81.7,108z"/>
				</g>
				<g>
					<path class="st5" d="M144.7,75.3c4-15.2-3.5-30.3-16.8-33.9s-27.3,5.9-31.4,21.1c-2.2,8.3,0.4,23.1,5.3,27.6
						c5.1,10.8-2.3,16.6-2.3,16.6l8.4,2.3l8.8-0.3c0,0,1.7-7.1,8.1-10.1C134.5,96.4,142.5,83.7,144.7,75.3z"/>
					<g>
						<circle class="st6" cx="116.6" cy="74" r="2.4"/>
						<circle class="st6" cx="136.1" cy="79.7" r="2.4"/>
					</g>
					
						<ellipse transform="matrix(0.3345 -0.9424 0.9424 0.3345 7.2935 174.6766)" class="st7" cx="127.3" cy="82.2" rx="2.4" ry="1.8"/>
					<path class="st6" d="M122.2,91.3c-2.7-0.7-2.5-3.5-2.4-3.9c0.1-0.3,0.4-0.4,0.7-0.4c0.3,0,1.5,0.7,3.2,1.3
						c1.2,0.4,1.9,0.3,2.6,0.3c0.9,0,1.2,0.7,0.8,1.1C126.3,90.5,124.4,91.9,122.2,91.3z"/>
					<g>
						
							<ellipse transform="matrix(0.9969 -7.840454e-02 7.840454e-02 0.9969 -5.261 7.7693)" class="st5" cx="96.3" cy="70.9" rx="7.4" ry="9.1"/>
					</g>
				</g>
				<path class="st5" d="M128.8,109.2c0,0-11.7,1.6-11.3-3c0.4-4-7-3.1-8.7-2.9c-1.6-0.6-5.4-2.5-6.2-0.9
					c-1.4,3.2-12.8,6.7-12.8,6.7h20H128.8z"/>
			</g>
			<path class="st3" d="M96.8,61.9c0,0,0.7,0.5,0.9,1.3c0.4,1.3,5.3-1.7,16.3-18c0,0,12.1,20.1,32.9,26.4c0,0,3.8-6.4-0.6-18.6
				c-7.9-22.2-36.2-28.7-33.6-11.2c0,0,0.8-2.4-3.3-1.8C105.3,40.6,87.5,53.5,96.8,61.9z"/>
			<path class="st4" d="M106,138.2l-6.2,28c0,0-12.9,5.2-29.4,2.5c-15.3-2.5-5.9-33.5,0.7-37.1C88.1,122.3,106,138.2,106,138.2z"/>
		</g>
		<g>
			<g>
				<path class="st8" d="M159.5,152c1.4-3.7,2.4-8.2-1.5-10l-1.9-0.9c-3.9-1.8-7.7-1.1-8.8,2.5c-1.5,4.7-2.4,13-2.2,15.7
					c0.5,5.8,3.8,8.3,4.8,8.6l5.2-2.5L159.5,152z"/>
			</g>
			<g>
				<g>
					<path class="st5" d="M194.9,167.2l2.5,1.6c3.7,1.8,10.7,0.1,12.5-3.6l4.7-14.3c1.8-3.7,0.3-8.2-3.4-10l-1.8-0.9
						c-3.7-1.8-8.2-0.3-10,3.4l-6.2,13.9C191.4,160.9,191.2,165.4,194.9,167.2z"/>
				</g>
				<ellipse transform="matrix(0.9734 -0.2289 0.2289 0.9734 -16.8151 40.4696)" class="st5" cx="166" cy="92.7" rx="6.1" ry="7"/>
				<path class="st9" d="M204,64.1c0,0,20.9,3.3,15.9,22.7c-7,27.3-28,28.2-28,28.2L204,64.1z"/>
				<g>
					<path class="st5" d="M212.6,90.1c1.4-15.7-8.7-29.4-22.5-30.6c-13.8-1.2-24.8,4.5-27,24.8c-0.9,8.6,1.6,18.2,6.5,23.9
						c7,9.8,6.2,11.7,6.2,11.7s-1.6,4.6-5.6,4.2c0,0,3.7,6.2,13.3,7.5c9.5,1.3,14.8-3.8,14.8-3.8c-4-0.7-4.3-5.5-4.3-5.5l-0.1-1
						c0.5-3.1,1.1-3.3,8.2-10.3C207.8,106.2,211.8,98.7,212.6,90.1z"/>
					<g>
						<g>
							<circle class="st6" cx="172.3" cy="91" r="2.4"/>
							<circle class="st6" cx="188.6" cy="93.3" r="2.4"/>
						</g>
						
							<ellipse transform="matrix(2.508528e-02 -0.9997 0.9997 2.508528e-02 75.8556 271.9054)" class="st7" cx="177.3" cy="97.1" rx="2.4" ry="1.8"/>
						<g>
							
								<ellipse transform="matrix(0.3137 -0.9495 0.9495 0.3137 46.1523 266.8582)" class="st5" cx="207.7" cy="101.5" rx="9.1" ry="7.4"/>
						</g>
					</g>
					<path class="st10" d="M214.8,153.4c0,0,1.9-5.2-2.7-18.2c-1.4-4-6.6-10.6-18.3-12.9c0,0-2.9,1.9-14.1,0.7
						c-6.3-0.7-5.5-3.4-5.5-3.4c-5.2,0-20.4,4-24.3,12.2c-3.1,6.5-3.9,12.1-3.9,12.1l6.1,1.7l1.7,23.9h47l-1.5-21.1L214.8,153.4z"/>
					<path class="st9" d="M162.7,85c0,0,4.1-13,9.1-16.8c0,0,10.9,4.1,19.8,10.8l-1.8-7.3c0,0,19.2,12,18.3,27c0,0,12.8-7,11.3-23.3
						c0,0,3.2-8.7,0.3-14.9c-4.3-9.1-12.2-6.5-12.2-6.5s4.1,1.9,2.9,4c-1.5,2.6-9.4-7.6-25.6-5.3C166.7,55.2,158.7,75,162.7,85z"/>
				</g>
				<path class="st5" d="M178.5,126.6c0.9,0,1.9,0.4,2.6,1.8l5.7,13.5l-8.3-4.4l-2-8.5C176.4,127.9,177.5,126.6,178.5,126.6z"/>
			</g>
			<path class="st6" d="M179.5,108.6c2.5,0,3.8-3.8,4-4.2c0.2-0.3,0.1-0.6-0.3-0.7c-0.9-0.1-3.2,0.4-4.8,0.2
				c-2.3-0.4-3.6-1.9-3.7-0.9S177.6,108.6,179.5,108.6z"/>
		</g>
		<g>
			<path class="st5" d="M164.2,142.7c0.9-5.2,1.5-7.5-0.7-8.7l-3.3-1.8c-4.2-1.9-6.6,1.4-7.6,5c0,0-5.3,16.6-5.9,21.3
				c-0.6,4.7,0.3,7.9,2.7,9.2c2.4,1.3,8.5,2.3,10.5-3.9C161.3,159.8,163.3,147.8,164.2,142.7z"/>
		</g>
		<g class="st11">
			<path class="st12" d="M143.9,99.7l4.2,37.4c0.4,2.5,2.7,4.8,5.2,5.1l21.2,2.2c2.5,0.3,4.3-1.5,4.1-4l-3.5-37.4
				c-0.3-2.8-2.6-5.4-5.3-5.7l-22-2.2C145.2,94.8,143.4,96.9,143.9,99.7z"/>
		</g>
		<g class="st13">
			<path class="st14" d="M175.1,103.1c-0.3-2.8-2.6-5.4-5.3-5.7l-22-2.2c-1.4-0.2-2.6,0.4-3.3,1.4c0.2,0,0.4,0,0.5,0l22,2.2
				c2.6,0.3,5,2.9,5.3,5.7l3.5,37.4c0.1,1-0.3,2.4-2,2.5c3.1,0.6,5-1.3,4.8-3.9L175.1,103.1z"/>
		</g>
		<path class="st5" d="M203.5,168.6l-0.2-3.9c4.1-2.2-0.8-7.6-3-11.7l-14.9-17c-2.2-4.1-8.3-6-12.6-3.9c-3.5,1.8-3.9,6.9-1.7,11
			l20,21.3C194.3,168.5,199.4,170.8,203.5,168.6z"/>
		
			<ellipse transform="matrix(0.9565 -0.2918 0.2918 0.9565 -24.0896 48.3502)" class="st15" cx="150" cy="104.9" rx="2.5" ry="3.2"/>
		<g>
			<path class="st5" d="M145.6,126.8c1.2,1.2,1.2,3.1,0,4.2l-10.1,10.5l-4.2-4.2l10.1-10.5C142.6,125.7,144.5,125.7,145.6,126.8z"/>
		</g>
		<path class="st5" d="M157.2,136.4c2.7,7.8-6.5,10.7-12.5,12.5l-53.9,16.3l6.4-20.5l47.2-13.8C149.5,129,155.4,131.2,157.2,136.4z"
			/>
	</g>
	<polyline class="st16" points="70.9,72.2 60.3,97.2 51.8,54.4 41.2,85 35.1,76.3 28.8,91.5 19.5,69.2 11.5,97.6 	"/>
</g>
</svg>
