<?xml version="1.0" encoding="utf-8"?>
<!-- Generator: Adobe Illustrator 25.4.1, SVG Export Plug-In . SVG Version: 6.00 Build 0)  -->
<svg version="1.1" id="レイヤー_1" xmlns="http://www.w3.org/2000/svg" xmlns:xlink="http://www.w3.org/1999/xlink" x="0px"
	 y="0px" width="320px" height="170px" viewBox="0 0 320 170" style="enable-background:new 0 0 320 170;" xml:space="preserve">
<style type="text/css">
	.st0{fill:#F5F5F5;}
	.st1{fill:#FFDBC2;}
	.st2{fill:#3B3B6D;}
	.st3{fill:#37377C;}
	.st4{fill:#D8A684;}
	.st5{opacity:0.3;fill:#3176D5;enable-background:new    ;}
	.st6{fill:#F25A6C;}
	.st7{fill:#FCD5BB;}
	.st8{fill:#375EA3;}
	.st9{fill:none;stroke:#F2F2F2;stroke-width:0.9355;stroke-miterlimit:10;}
	.st10{fill:#1FC97C;}
	.st11{fill:#FFFFFF;}
	.st12{fill:#B1B1B1;}
	.st13{fill:#FFE0CA;}
	.st14{fill:#E5B89A;}
	.st15{fill:#877F67;}
	.st16{fill:#ECEBED;}
	.st17{fill:#CACACA;}
	.st18{fill:#7F7762;}
	.st19{fill:#FFDDC6;}
	.st20{fill:#E2E2E2;}
	.st21{fill:#E87FAF;}
	.st22{fill:#1B1987;}
	.st23{fill:none;stroke:#B5C6BD;stroke-width:3.0089;stroke-linecap:round;stroke-linejoin:round;stroke-miterlimit:10;}
	.st24{fill:#C1F272;}
	.st25{fill:#E4E4E4;}
	.st26{fill:#808080;}
	.st27{fill:#528FC1;}
	.st28{fill:none;}
</style>
<g>
	<g>
		<g>
			<g>
				<g>
					<g>
						<path class="st0" d="M90.1,163.6c4.5-1-3.1-3.3,1.4-4.3c-2.6-7.4-5.2-13.4-7.1-17.7c-6.3-13.9-9.1-16.2-12-17
							c-3.8-1.1-7.6,0.7-10,2c-2.4-0.6-5.7-1.2-9.7-1.1c-5.7,0.3-10.2,2-12.8,3.2c-1.5-1.5-3-3-4.5-4.6c-5,7.1-10,14.2-14.9,21.3
							c-0.3,2.9-3.6,21.5-3.8,24.4l72.2-0.2C89.1,168.3,90,165.1,90.1,163.6z"/>
					</g>
					<g>
						<g>
							<g>
								<g>
									
										<ellipse transform="matrix(0.2327 -0.9726 0.9726 0.2327 -34.8805 139.5091)" class="st1" cx="71" cy="91.9" rx="8.4" ry="6.8"/>
									<path class="st2" d="M62.2,63.6c1.4,11.9,2.3,24.7,2.3,38.4c0,3.4-0.8,5.9-0.9,9.2c2.9-1.6,6.7-5.2,9.1-8.3
										c0,0,2.3-3.2,4.7-8.5c5.5-12.6-0.2-30.7-0.7-32.4"/>
									<path class="st1" d="M28.4,86.3c0.1-14.5,10.3-26.1,23-26.1C64,60.3,74.2,72,74.2,86.5c0,8-3.2,15.1-8.1,19.8
										c-7.1,8.3-6.8,12.3-6.8,12.3s3.5,4.6,7.2,4.5c0,0-6.4,5.2-15.1,5.5c-7.7,0.3-13.2-3.1-14.9-4.2c-3.6-2.3-6-5-7.3-6.8
										c4.5,0.7,7.9-0.2,9.7-0.8c1.9-0.7,3.3-1.2,3.7-2.3c0.8-2.4-3.4-5.3-6.3-8.3C30.1,99.6,28.4,90.7,28.4,86.3z"/>
									<g>
										<g>
											
												<ellipse transform="matrix(7.714721e-03 -1 1 7.714721e-03 -26.5832 159.5826)" class="st3" cx="67.1" cy="93.2" rx="2.2" ry="2.2"/>
											
												<ellipse transform="matrix(7.714691e-03 -1 1 7.714691e-03 -40.4662 142.5224)" class="st3" cx="51.6" cy="91.7" rx="2.2" ry="2.2"/>
										</g>
										
											<ellipse transform="matrix(5.713252e-02 -0.9984 0.9984 5.713252e-02 -38.8728 150.9923)" class="st4" cx="60.5" cy="96.1" rx="2.2" ry="1.6"/>
									</g>
									<path class="st3" d="M56.2,105.9c-2.3-0.7-3-5.2-3.1-5.8c-0.2-1.1,1.7,0.7,4.1,1.2s4.4-0.7,4.2,0.1
										C61.2,102.6,58,106.4,56.2,105.9z"/>
									<g>
										<ellipse class="st5" cx="31.2" cy="91.3" rx="1.5" ry="1.5"/>
									</g>
									<path class="st2" d="M46.8,64.3c0,0.8,0.3,7.9,6.3,12.1c4.5,3.2,9.1,4,10.3,3.9c-0.7-0.6-1.6-3-2.3-4.9
										c-0.6-1.4-0.7-2.7-0.7-3.6c0.4,1,1.5,3.6,4.3,5.6c3,2.1,6.1,2.1,7.1,2.1c-1-1.4-2.1-3.1-3.2-5.1c-1.3-2.5-2.2-4.9-2.9-7
										c0.8,0.9,1.7,2,2.7,3.3c0.7,1,1.8,2.5,2.8,4.8c0.4,0.8,0.8,2,1.3,3.5c1.8,5.5,1.9,10.1,1.9,13.8c0,3.7-2.4,8.4-3.6,14.2
										c2.4-2.3,9-6.8,11.5-14.3c2.4-7.3,1.6-13.4,1.3-16.1c-1.1-8.3-4.7-14.1-6.1-16.2c-1.2-1.8-11.3-17-24.8-15.6
										c-3.4,0.3-6.1,1.6-7.8,2.7c-0.5-0.2-1.3-0.5-2.2-0.6c-7.3-1.1-13.8,6.8-16.5,10c-6.3,7.6-7.8,15.6-8.2,17.7
										c-0.5,3.3-1.8,11.3,2.3,19.2c1.8,3.5,4,5.7,5,6.8c4.4,4.4,9.1,6.5,11.9,7.4c-1-1.6-2-3.3-3-4.9c0.6,0.8,1.4,1.4,3.6,2.3
										c1.8,0.8,2.4,1,3.3,1c-1.2-1.8-5-8.9-5.4-17.7c-0.5-3.5,0-6.8,0.2-10.7c1.6-0.7,4.1-2.2,6.4-4.7
										C45.3,69.9,46.4,66.1,46.8,64.3z"/>
									<g>
										<path class="st1" d="M30.4,100.2c-3.6,0.9-7.4-2.1-8.5-6.6c-1-4.5,1.1-8.8,4.7-9.7L30.4,100.2z"/>
									</g>
									<g>
										<path class="st6" d="M39.4,131c-1.4,2.2,5.7,7.5,8.2,8.8c2.3,1.2,9.8,1.7,11.4,1.2c6.7-2.3,9.1-4.9,12.7-9.9
											c-2.8,0.6-5.5,1.5-7.8,3c-2.6,1.7-3.3,3.3-6.7,4.1c-1.5,0.4-6.2-1.9-7.6-2.4C47.7,135.1,40.8,128.8,39.4,131z"/>
									</g>
									<g>
										<g>
											<path class="st6" d="M58.2,133c0,0-10.3,3-10.2,22.1C48,155,64.6,149.9,58.2,133z"/>
											<path class="st6" d="M56.6,133.8c0,0-6,8.8,6,23.6C62.6,157.4,72.2,142.8,56.6,133.8z"/>
										</g>
									</g>
								</g>
							</g>
						</g>
					</g>
					<g>
						<g>
							<g>
								<path class="st7" d="M13.8,166.1c3.5,2.5,8.5-0.8,9.4-5l6.6-29.8L13.9,133l-4.7,20.4C8.4,157.6,9.6,163.2,13.8,166.1z"/>
							</g>
						</g>
					</g>
					<path class="st0" d="M28.6,120.8c-4.6-2.6-11,0.7-12.7,5.9l-8.7,20.6l19.9,6l5.6-20.2C34.3,127.9,33.3,123.4,28.6,120.8z"/>
					<g>
						<g>
							<path class="st8" d="M41.3,115.3c1.8,1.4,3.8,2.5,8.8,7c3.7,3.3,3.2,3.7,6.8,6.6c0.8-3.1,1.6,0.3,2.3-2.9
								c0.7-3.2,1.6-3.5,2.1-6.7c4.5,0.4,8.2,1.3,12,4c2.2,1.5,3.7,3.9,5.1,6.1c-2.4,1.3-4.9,2.7-7.3,4c-4.5,2.4-9.1,4.4-13.7,6.4
								c-4-1.6-4.9-1.3-9.4-3.6c-7.1-3.6-12.5-7.6-12.5-7.6c-7.6-5.9-14.7-6-16.8-6.2c1.2-1.9,6.7-5.2,10.9-6.3
								C34.6,114.7,40.4,115,41.3,115.3z"/>
						</g>
						<path class="st9" d="M76.4,126.7c-2.5,1.6-5.4,3.3-8.6,5c-3.6,1.8-7,3.1-10.1,4.2"/>
						<path class="st9" d="M56.4,136.7c-4-1.2-8.9-2.9-14.1-7.4c-8.9-7.8-13.5-9.7-18.6-11.2"/>
					</g>
				</g>
				<g>
					<g>
						<path class="st10" d="M55,144.3l17.7,1.5c1.6,0.3,3-1.1,3.2-3.1l6.3-33c0.5-2.5,0-4.7-2.4-4.9l-16.9-1.5
							c-2.5-0.3-4.4,0.5-4.9,3.9L52.5,140C52.3,142,53.4,144,55,144.3z"/>
						
							<ellipse transform="matrix(0.2321 -0.9727 0.9727 0.2321 -49.9387 158.5306)" class="st11" cx="75.4" cy="110.9" rx="2.5" ry="2.2"/>
					</g>
				</g>
				<g>
					<path class="st7" d="M52.6,126c-1-0.5-2.3-0.1-2.8,0.9l-5.2,8.1l3.7,1.9l5.2-8.1C54,127.8,53.6,126.5,52.6,126z"/>
					<path class="st7" d="M64.7,129c-1.8-4.4-8.5-4.1-12.6-1.5l-38.7,25.9c0,0-4.7,5-2.4,9.6c3,6.1,10.5,3.3,10.5,3.3L60.1,141
						C64.2,138.4,66.5,133.5,64.7,129z"/>
				</g>
			</g>
			<g>
				<g>
					<path class="st12" d="M110.4,54.6c0,0-10-0.6-16.8,6.3c-4,4-4.5,10.7-3.1,13.5c0,0-3.8,0.7-4.8,6.6c-0.9,4.8,1.2,10.5,3.1,10.3
						c0,0-2.8,10.2,5.7,17.7c4.2,3.6,8.9,2.4,8.9,2.4s0.4,9.1,12.7,9.1C131.3,120.5,111.1,55.3,110.4,54.6z"/>
					<path class="st12" d="M142.1,68.4c0,0,0.5-0.5,1.3-1.2l-6.5-7.1c0,0,4.4-4.2,9-0.8c2,1.4,2.4,3.7,2.2,5.9
						c4.9,0.5,9.2,8.4,5.5,13.6c0,0,6.6,7.2,2.4,18c-4.3,11.2-11.5,9.7-12.1,8.7c0,0,3.2,5.5-1.9,9.2s-7.6-1.2-7.6-1.2
						s0.7,8.9-11.5,7.5C107.7,119.2,142.1,68.4,142.1,68.4z"/>
					<path class="st13" d="M147,88.4c0.8-14.1-8.1-31.4-20.2-32.1c-12.1-0.7-22.9,15.5-23.7,29.6c-0.4,7.8,2.1,14.9,6.6,19.9
						c6.4,8.6,5.3,20,5.3,20s-1.1,4.6-4.7,4.5c0,0,3.7,5.3,12.1,5.8s12.7-4.4,12.7-4.4c-3.6-0.3-4.1-5-4.1-5l-0.1-0.9
						c0.2-2.8,1.4-11.9,7.5-18.3C143.2,103,146.6,96.2,147,88.4z"/>
					<g>
						<g>
							
								<ellipse transform="matrix(0.9879 -0.1551 0.1551 0.9879 -12.6303 16.903)" class="st13" cx="102" cy="89.4" rx="6.5" ry="8.2"/>
							
								<ellipse transform="matrix(0.2656 -0.9641 0.9641 0.2656 17.759 206.8356)" class="st13" cx="144.6" cy="91.8" rx="8.2" ry="6.5"/>
						</g>
					</g>
					<path class="st12" d="M152.1,69.6C155,82.4,147,84,147,84c-5.6-11-10.2-19.5-10.2-19.5c-13.6,9.9-37.9,14-37.9,14
						s-0.5-1.7,2.1-12.6c1.9-8.1,8.8-18.8,25.9-17.9S150.4,61.9,152.1,69.6z"/>
					<g>
						<g>
							<ellipse class="st3" cx="123" cy="90.6" rx="2.4" ry="2.4"/>
							<ellipse class="st3" cx="139" cy="92.7" rx="2.4" ry="2.4"/>
						</g>
						
							<ellipse transform="matrix(0.1763 -0.9843 0.9843 0.1763 13.7837 209.0368)" class="st4" cx="131.8" cy="96.3" rx="2.4" ry="1.8"/>
						<path class="st3" d="M127,107.9c-2.8-0.9-3.5-6-3.6-6.6c-0.2-1.2,2.6,0.5,5.5,1.2s4.9-0.2,4.6,0.6
							C133.2,104.3,129.1,108.6,127,107.9z"/>
					</g>
					<path class="st14" d="M121,95.9c-3.1,0.8-3.4,2.7-2.8,4.6c0.1,0.3,0.3,0.2,0.3,0c0.1-0.8-0.5-2.5,2.6-4.3
						C121.3,96.1,121.3,95.8,121,95.9z"/>
					<path class="st14" d="M136.8,98.4c2.5,2,1.8,3.9,0.5,5.4c-0.2,0.2-0.3,0.2-0.3-0.1c0.2-0.8,1.6-2.1-0.3-5.2
						C136.7,98.4,136.5,98.1,136.8,98.4z"/>
				</g>
				<g>
					<path class="st15" d="M158.6,169.8l-5.1-31.6c-0.6-4.4-4.5-9.6-9.7-11c-5.2-1.4-41.2,0-41.2,0c-4.4,0-10.1,4.4-11.7,8.4
						c-0.8,2-3.2,9.7-5.4,17c-2.2,7.2-2.8,17.2-2.8,17.2L158.6,169.8z"/>
					<g>
						<g>
							<path class="st16" d="M136,127.3l-4.5-5.6h-3.6l-13.7-1.9l-4.6,6.9c2.1,6.2,14.9,6.8,20,5.9C134.4,131.8,135.4,129,136,127.3
								z"/>
							<polygon class="st15" points="133.6,166.9 141.4,144 97.5,144 95.5,166.5 							"/>
							<ellipse class="st17" cx="128.4" cy="140.5" rx="1.6" ry="1.6"/>
							<ellipse class="st17" cx="128.9" cy="147.3" rx="1.6" ry="1.6"/>
						</g>
					</g>
					<g>
						<g>
							<path class="st1" d="M122,120.5c-1-0.3-2.2,0.2-2.5,1.3l-4.1,12.4l3.8,1.2l4.1-12.4C123.6,122,123,120.8,122,120.5z"/>
						</g>
					</g>
				</g>
				<g>
					<path class="st10" d="M127.5,137.8l17,1.5c1.5,0.3,2.8-1,3-3l6-31.6c0.4-2.4,0-4.5-2.3-4.7L135,98.6c-2.4-0.2-4.2,0.5-4.7,3.8
						l-5.2,31.4C125,135.7,126.1,137.5,127.5,137.8z"/>
					
						<ellipse transform="matrix(0.2321 -0.9727 0.9727 0.2321 9.9678 224.4368)" class="st11" cx="147.1" cy="105.9" rx="2.4" ry="2.1"/>
				</g>
				<path class="st1" d="M120.5,122.7c5.5-3.5,8.8-4.8,12.5-1.8c1.2,1,1.6,6.6-5.1,13.6c-1.6,1.7-10.9,16.3-10.9,16.3l-11-4.5
					C106,146.3,115.5,125.9,120.5,122.7z"/>
				<g>
					<path class="st18" d="M123.4,143.1l-15.1-5.4c0,0-9.4,18-18,32.1h25.5L123.4,143.1z"/>
				</g>
				<path class="st19" d="M155.8,130.9c-3.8-5.2-6.5-7.7-11.1-6.2c-1.5,0.5-3.9,5.6-0.1,14.6c0.9,2.1,4.3,19.1,4.3,19.1l11.9-0.2
					C160.9,158.2,159.3,135.7,155.8,130.9z"/>
				<g>
					<path class="st18" d="M144.2,146.3l16.3-3.3c0,0,4.1,17.3,4.1,26.8H147L144.2,146.3z"/>
				</g>
			</g>
			<g>
				<g>
					<g>
						<g>
							<path class="st20" d="M165.1,129.5c-0.5-3-1.1-8.6-1.5-12.1c-0.1-1.1,1.1-1.9,2.1-1.2l9.3,6.9c0.7,0.5,0.7,1.6-0.1,2.1
								l-7.8,5.2C166.3,130.9,165.2,130.5,165.1,129.5z"/>
							<path class="st20" d="M185.7,123.5c2.4-1.7,7.2-4.8,10.2-6.7c1-0.6,2.2,0.2,2,1.3l-2,11.4c-0.2,0.9-1.2,1.4-1.9,0.9l-8.1-4.7
								C185,125.2,185,124.1,185.7,123.5z"/>
							<g>
								<path class="st20" d="M198.2,132.3c-1.9-6.9-9.7-10.5-15.2-11.4c-6.4-1.1-14.4,0.5-18.9,5.9c-2.4,2.9-3.1,6.1-3.2,6.8
									c-0.9,4.9,1.1,9.5,1.3,10c1,2.2,1.6,2.2,1.7,3.3c0.2,1.4-1.3,2.4-2.2,4.8c-2.9,7.8-3.1,14.8-2.5,18.2H196
									c2.6-4,1-16.8,0.4-18.2c-0.6-1.1-1.6-2.5-1.5-4.5c0-0.8,0.2-1.5,0.4-2c0.3-0.3,0.7-0.8,1.1-1.5
									C198.8,140,199,135.4,198.2,132.3z"/>
								<path class="st11" d="M177.8,139c-0.9,1-1.1,2-1.1,2c-0.1,0.7,0,1.3,0,1.5c0.3,1.5,1.6,2.4,2.2,2.8c1.3,0.9,2.5,1.1,3.7,1.2
									c0.6,0.1,1.5,0.2,2.7,0.1c0.8-0.1,1.7-0.2,2.7-0.7c0.4-0.2,1.3-0.8,1.9-1.9c0-0.1,0.7-1.3,0.4-2.6c-0.5-2.4-3.7-3.9-5.9-4.2
									C181.7,136.8,179,137.6,177.8,139z"/>
								<path class="st21" d="M184.2,140.5c-0.4,0.6-0.8,1.1-1.1,1.4c-0.3,0.3-0.6,0.6-1.1,0.8c-0.2,0.1-0.5,0.2-1,0.2
									c-1.2,0-1.9-0.7-2.1-0.6c-0.1,0.1,0.3,0.7,0.8,1c0.3,0.2,0.7,0.3,1,0.3c0.1,0,0.2,0,0.4,0c0.1,0,0.2,0,0.3,0
									c0.1,0,0.2,0,0.3,0c1.1,0,1.9-0.6,2.4-1c0.3,0.3,0.6,0.6,0.8,0.7c0.7,0.5,1.2,0.5,1.3,0.5c0.1,0,0.2,0,0.2,0
									c0.1,0,0.2,0,0.3,0c0,0,0,0,0.1,0c0,0,0.1,0,0.3-0.1c0.2-0.1,1.3-1,1.1-1.2c-0.1-0.2-0.7,0.4-1.7,0.3
									c-0.9-0.1-1.7-0.8-1.9-1.1l0,0C184.2,141.2,184.2,140.8,184.2,140.5z"/>
								<path class="st21" d="M182.1,139.5c0,0,0,0.1,0.2,0.3c0,0,0.8,1.2,1.5,1.4c0,0,0.1,0.1,0.3,0c0.1,0,0.2,0,0.3-0.1
									c0.6-0.3,1.2-1.2,1.2-1.2c0.2-0.3,0.2-0.4,0.2-0.4C185.5,138.9,182.2,138.9,182.1,139.5z"/>
								<ellipse class="st22" cx="187.9" cy="137.4" rx="1.1" ry="1.1"/>
								<ellipse class="st22" cx="180.1" cy="136.7" rx="1.1" ry="1.1"/>
							</g>
						</g>
						<path class="st11" d="M176.2,120.8c0.2,1.1,0.4,2.4,0.6,3.8c0.1,1.4,0.2,2.7,0.1,3.9c0.2,0,0.4-0.1,0.6-0.1s0.4-0.1,0.6-0.1
							c0-1.2-0.1-2.5-0.2-3.8c-0.1-1.4-0.3-2.7-0.5-3.8c-0.1,0-0.2,0-0.3,0c-0.1,0-0.2,0-0.3,0C176.6,120.7,176.4,120.7,176.2,120.8
							z"/>
						<path class="st11" d="M180.5,120.7c0.2,1.1,0.4,2.4,0.5,3.7c0.1,1.4,0.2,2.8,0.2,4c0.2,0,0.4-0.1,0.6-0.1s0.4-0.1,0.6-0.1
							c0-1.1,0-2.4-0.1-3.8c-0.1-1.3-0.3-2.6-0.5-3.7c-0.1,0-0.2,0-0.3,0c-0.1,0-0.2,0-0.3,0C180.8,120.6,180.6,120.6,180.5,120.7z"
							/>
						<path class="st11" d="M184.2,121.2c0.3,0.9,0.5,2.1,0.6,3.4s0.1,2.5,0,3.5c0.2,0,0.4-0.1,0.6-0.1s0.4-0.1,0.6-0.1
							c0-1,0-2-0.1-3.2s-0.3-2.2-0.5-3.1c-0.1,0-0.2-0.1-0.3-0.1c-0.1,0-0.2-0.1-0.3-0.1C184.6,121.2,184.4,121.2,184.2,121.2z"/>
						<path class="st11" d="M168.1,136.1c-1.1,0.2-2.3,0.4-3.7,0.4c-1.3,0.1-2.6,0.1-3.7,0c0,0.2-0.1,0.5,0,0.9
							c0,0.3,0.1,0.5,0.1,0.7c1.1,0,2.3-0.1,3.6-0.2c1.3-0.1,2.6-0.3,3.7-0.5c0-0.2,0-0.4,0-0.6
							C168.1,136.6,168.1,136.4,168.1,136.1z"/>
						<path class="st11" d="M167.7,139.8c-0.9,0.2-2,0.3-3,0.5c-1.2,0.1-2.3,0.2-3.4,0.2c0,0.2,0,0.3,0.1,0.5
							c0.1,0.3,0.1,0.5,0.2,0.7c1-0.1,2.1-0.1,3.1-0.3c1.1-0.1,2.1-0.3,3.1-0.4C167.7,140.8,167.7,140.6,167.7,139.8z"/>
						<path class="st11" d="M198.6,135.1c-0.7,0.2-1.5,0.3-2.4,0.4c-0.9,0.1-1.7,0.1-2.4,0.2c0,0.2,0,0.4,0,0.6c0,0.2,0,0.3,0,0.5
							c0.8,0,1.7,0,2.6-0.1c0.9-0.1,1.7-0.2,2.4-0.3c0-0.2,0-0.4,0-0.6C198.6,135.5,198.6,135.3,198.6,135.1z"/>
						<path class="st11" d="M198.4,138.4c-0.7,0.1-1.4,0.1-2.3,0.1c-0.7,0-1.4,0-2.1-0.1c0,0.2,0,0.3,0,0.5s0,0.3,0,0.5
							c0.6,0.1,1.3,0.2,2.2,0.2c0.7,0,1.4,0,1.9-0.1c0-0.1,0.1-0.3,0.1-0.5C198.3,138.9,198.4,138.7,198.4,138.4z"/>
					</g>
					<g>
						<g>
							<path class="st10" d="M199.7,139l-10-0.6c-1.5-0.1-3,1.1-3.2,2.6l-3.4,17.9c-0.3,1.5,0.7,2.8,2.2,2.9l10,0.6
								c1.5,0.1,3-1.1,3.2-2.6l3.4-17.9C202.2,140.4,201.2,139,199.7,139z"/>
							
								<ellipse transform="matrix(0.8774 -0.4797 0.4797 0.8774 -44.0679 112.688)" class="st11" cx="198.5" cy="142.6" rx="1.2" ry="1.1"/>
						</g>
						<path class="st20" d="M189,147.3c0.4,0.3,1.9,1.3,2.1,2.8c0.2,1.3-0.8,2.3-1.9,3.4c-1.9,1.9-4.2,2.5-5.2,2.9
							c-0.6,0.2-1.9,0.6-3.8,0.5c-0.8-0.1-2-0.1-3.3-0.8c-0.2-0.1-3.3-1.7-3.4-3.8c-0.2-2.2,3-3.5,5.1-4.4
							C180.4,147,185.4,144.9,189,147.3z"/>
						<path class="st20" d="M195.8,147.1c-0.6,0.2-1.7,0.5-2.3,1.5c-0.9,1.5-0.2,3.2-0.1,3.5c0.3,0.7,0.9,1.3,2.2,2.4
							c0.5,0.5,0.9,0.8,1.5,1.1c0.3,0.2,0.7,0.4,1.3,0.6c1.5,0.5,1.8,0.4,3.2-0.1c0.1,0,1.5-1.8,2-3.6c0.8-3-1.4-4.2-1.7-4.4
							C201.5,147.8,198.5,146.4,195.8,147.1z"/>
					</g>
				</g>
			</g>
			<g>
				<g>
					<g>
						<path class="st23" d="M247.9,29.2c18.5-11.3,46.3,1,45.3,27.8"/>
						<path class="st23" d="M222.3,151.8c13.8,9.4,32.7,3.3,37.6-8.6"/>
						<path class="st23" d="M265.2,138.7c31.2,5.8,37.9-20,33.2-32.7c12.9-11.3,10.1-35-4.6-40.1"/>
						<path class="st23" d="M240.7,27.3c-18.1-18.8-47.7-10.8-51.5,9.8c-13.7,0.3-24.1,10.3-26.4,20.2"/>
					</g>
				</g>
			</g>
			<g>
				<g>
					<g>
						<path class="st24" d="M258.8,90.6c-0.2,0-0.3,0-0.5-0.1l-13.8-6.7V97c0,1.2,0.9,2.3,2,2.3h24.8c1.1,0,2-1,2-2.3V83.7
							l-13.8,6.7C259.2,90.5,259,90.6,258.8,90.6z"/>
						<path class="st24" d="M273.1,80.7v-2.4c0-1.2-0.9-2.3-2-2.3h-24.8c-1.1,0-2,1-2,2.3v2.4l14.4,7L273.1,80.7z"/>
					</g>
				</g>
			</g>
			<g>
				<path class="st25" d="M226.5,117.3h-24.3c-3.3,0-6.1-2.7-6.1-6.1V59c0-3.3,2.7-6.1,6.1-6.1h24.3c3.3,0,6.1,2.7,6.1,6.1v52.2
					C232.6,114.6,229.8,117.3,226.5,117.3z"/>
				<path class="st26" d="M224.9,51.4h-21.5c-5,0-9,4-9,9v50c0,5,4,9,9,9h21.5c5,0,9-4,9-9v-50C233.9,55.4,229.9,51.4,224.9,51.4z
					 M231.7,110.4c0,3.7-3,6.8-6.7,6.8h-21.5c-3.7,0-6.7-3-6.7-6.8v-50c0-3.7,3-6.8,6.7-6.8h3l1.5,2.1h12.7l1.5-2.1h3
					c3.7,0,6.7,3,6.7,6.8v50H231.7z"/>
				<rect x="200.8" y="60.5" class="st11" width="26.3" height="48.4"/>
				<g>
					<rect x="200.8" y="60.5" class="st27" width="26.3" height="3.7"/>
				</g>
				<g>
					<rect x="204.9" y="81.2" class="st25" width="18.2" height="2"/>
					<rect x="204.9" y="85.7" class="st25" width="18.2" height="2"/>
					<rect x="204.9" y="76.1" class="st25" width="18.2" height="2"/>
					<rect x="204.9" y="90.2" class="st25" width="18.2" height="2"/>
					<rect x="204.9" y="94.8" class="st25" width="11.7" height="2"/>
				</g>
			</g>
		</g>
	</g>
</g>
<rect class="st28" width="320" height="170"/>
</svg>
