<?xml version="1.0" encoding="utf-8"?>
<!-- Generator: Adobe Illustrator 25.4.1, SVG Export Plug-In . SVG Version: 6.00 Build 0)  -->
<svg version="1.1" id="レイヤー_1" xmlns="http://www.w3.org/2000/svg" xmlns:xlink="http://www.w3.org/1999/xlink" x="0px"
	 y="0px" width="290px" height="176px" viewBox="0 0 290 176" style="enable-background:new 0 0 290 176;" xml:space="preserve">
<style type="text/css">
	.st0{fill:#B8C0C9;}
	.st1{fill:#B78D7E;}
	.st2{fill:#A47C52;}
	.st3{fill:#0C2A5B;}
	.st4{fill:#37377C;}
	.st5{fill:#596E8E;}
	.st6{fill:#051E22;}
	.st7{fill:#B1B1B1;}
	.st8{fill:#4D5466;}
	.st9{fill:#93746A;}
	.st10{fill:#6C534B;}
	.st11{fill:#0A224C;}
	.st12{fill:#071936;}
	.st13{fill:#031214;}
	.st14{fill:#354154;}
	.st15{fill:#06142D;}
	.st16{fill:none;}
	.st17{fill:#FFFFFF;}
	.st18{fill:#ECF4FF;}
	.st19{fill:#313131;}
	.st20{fill:#666666;}
	.st21{fill:#76CCEC;}
	.st22{fill:none;stroke:#3176D5;stroke-width:2.0145;stroke-linecap:round;stroke-linejoin:round;stroke-miterlimit:10;}
	.st23{fill:#F3F3F3;}
	.st24{fill:#3176D5;}
	.st25{fill:#4C5165;}
</style>
<g>
	<g>
		<g>
			<g>
				<path class="st0" d="M21.3,102.1l1.9-5.6c1.1-3.4,1.5-7.1,1.1-10.7L23.5,80C22,67.5,30.1,56.1,42.1,53.7l5.7-1.1
					c3.5-0.7,6.8-2.2,9.6-4.4l4.6-3.6c9.7-7.5,23.5-6.1,31.5,3.4l3.8,4.5c2.3,2.7,5.2,4.9,8.5,6.3l5.3,2.3
					c11.3,4.9,16.9,17.8,13,29.6l-1.9,5.6c-1.1,3.4-1.5,7.1-1.1,10.7l0.7,5.9c1.5,12.4-6.6,23.9-18.6,26.3l-5.7,1.1
					c-3.5,0.7-6.9,2.5-8.9,4.7c0,0,1.9,2.3,11.2,6.3c1.1,0.5,0.5,2-0.8,2.2c-11,1.2-19.5-2.8-19.5-2.8c-9.3,4.6-20.7,2.5-27.7-5.8
					l-3.8-4.5c-2.3-2.7-5.2-4.9-8.5-6.3l-5.3-2.3C23,126.9,17.3,113.9,21.3,102.1z"/>
				<g>
					<g>
						<g>
							<g>
								<g>
									<g>
										<path class="st1" d="M88.8,82.9c1.1-9.9-5-18.7-13.7-19.7s-18.9,6-20,15.9C54.5,84.5,56,89.7,59,93.3
											c4.2,6.3,3.7,9.1,3.7,9.1l5.7,5.3l5.2-3.9c0,0,0.3-3,5.9-8.1C83.2,92.7,88.2,88.4,88.8,82.9z"/>
										
											<ellipse transform="matrix(0.9997 -2.401784e-02 2.401784e-02 0.9997 -2.0607 1.8263)" class="st2" cx="75" cy="86.7" rx="1.1" ry="1.5"/>
										<g>
											
												<ellipse transform="matrix(0.9929 -0.1188 0.1188 0.9929 -9.1238 6.9462)" class="st1" cx="53.7" cy="80" rx="4.7" ry="5.8"/>
										</g>
										<g>
											
												<ellipse transform="matrix(0.1685 -0.9857 0.9857 0.1685 -13.6497 155.2854)" class="st1" cx="85.2" cy="85.7" rx="5.8" ry="4.7"/>
										</g>
										<path class="st3" d="M84.4,133.2l3.7-19.6c0.1-7-10.5-9-10.5-9l-11.4-2.3c0,0-4.2-1.5-9.4-0.6c-4.6,0.8-9.1,2.7-10.1,7.3
											c-1.6,7.5-0.6,10.7-0.6,10.7s5.1,11.7,16.3,13.1C73.6,134.3,84.4,133.2,84.4,133.2z"/>
										<path class="st3" d="M76.4,107.7l-16.9,0.1l2.6-9c0,0,3.9,2.1,8.3,2.4c3.9,0.3,5-1,5-1L76.4,107.7z"/>
									</g>
									<path class="st4" d="M71.1,92.3c-1.9-0.8-2.7-2.7-2.4-3.4c0.3-0.7,1.1,1.3,3,2.4c1.6,0.9,3.1-0.2,3.2,0.3
										C75,92.3,72.9,93,71.1,92.3z"/>
									<path class="st5" d="M53.1,74.2l3.1,6.9c0.3-0.7,1.2-5.1,4.2-9.3l-4.9-5.7C53.5,70.5,53.1,74.2,53.1,74.2z"/>
									<path class="st6" d="M58,75.1c4.1-0.8,28,2.5,30.1,3.7s0.6,7.1-0.4,8.3c-1,1.2-2.5,2.5-5,1.9c-1.2-0.3-2.7-4.4-6.8-5
										c-2.5-0.4-6.2,2.1-9.6,1.9c-3.5-0.2-10.2-3.6-10.1-6.3C56.3,76.9,58,75.1,58,75.1z"/>
									<g>
										<path class="st7" d="M70.5,81.4L66.3,79c0,0-0.8,1.6,0.9,2.9S70.5,81.4,70.5,81.4z"/>
										<path class="st7" d="M80.1,82.3l4.6-1.1c0,0,0.3,1.8-1.7,2.5C80.9,84.3,80.1,82.3,80.1,82.3z"/>
									</g>
									<path class="st3" d="M85.6,108.5c5.1,3.2,6.7,13.9,6.7,13.9s4.5-0.9,5.8-1.2c1.3-0.3,0.8,11.2,0.8,11.2s-10.6,0.8-14.5,0.8
										s-7.3-21.6-6-23.3C79.7,108.2,85.6,108.5,85.6,108.5z"/>
									<g>
										<g>
											<path class="st3" d="M72.2,121.5c-1.7,0.4-5.3,1-12.1,1.9c-3.3,0.4-6.5-12.8-7.5-10.5c-0.4,1.1-6.8,2.8-6.6,5.8
												c0.6,10.2,3.3,16.1,8.4,15.9c11.3-0.4,20.9-4.3,20.9-4.3L72.2,121.5z"/>
										</g>
									</g>
									<path class="st8" d="M123.1,106.8l-27.6-0.4l-1.9,1c0,0-2.7,11.8-4.1,16.4c-1.4,4.6-2.8,8.6-2.8,8.6l-12.5,0.1
										c-0.6,0-1.2,0.5-1.3,1.1l-0.2,0.7c-0.2,0.9,0.5,1.7,1.3,1.7h40.6c0.5,0,1-0.3,1.3-0.8c1.1-2.5,4.5-10.4,6-15.6
										c1.3-4.5,2.1-8.9,2.5-11.1C124.6,107.6,124,106.8,123.1,106.8z"/>
								</g>
							</g>
							<path class="st1" d="M71.1,122.1c4.1-2.7,7.4-3.2,11.1-0.3s3.3,6.2,1.4,7.6c-1.8,1.5-4-0.4-4-0.4s-0.8,0.5-4.5,1.2
								S68.9,123.6,71.1,122.1z"/>
						</g>
					</g>
				</g>
				<path class="st3" d="M85.5,60.9c-3.9-4.1-11.4-8.6-13.5-9.7c-1.9-1-2.9-0.7-2.7-0.3l1,2.2l-5.5-1.2c-0.3-0.2-0.7,0-0.7,0.4
					l1.6,1.7c0,0.4-3.9,0.5-3.9,0.5c-1.7,0-2.5,0-2.5,0.3c-0.1,0.7,3,0.9,3.8,2c-1.7,0.1-6.3,0.9-7.4,1.2c-0.4,0.1-0.7,0.3-0.6,0.6
					c0.2,0.8,2.8,2.1,2.6,2.5c-0.3,0.4-3.6,0.6-4.6,0.7c-1.7,0.3-2,0.9-0.8,1.7s2.3,4.9,2.3,4.9l5.9,3.2c1.8-2.5,4.3-5,7.8-6.5
					l9.8,2.5l4.2-1c6.1,5.3,7.1,14.2,6.7,16.6C88.7,83.3,93.7,69.4,85.5,60.9z"/>
			</g>
		</g>
	</g>
	<g>
		<g>
			<g>
				<g>
					<path class="st9" d="M84.7,125.4c-0.8,2.9-4.3,1.5-4.9,1.2c-0.6-0.2-1.1-0.1-3.1,0.3c-1,0.2-1.9,0.2-2.6,0l0,0
						c-2-0.4-2.9-1.9-3-3.4c-0.1-0.6,0.1-1.2,0.2-1.5c0-0.1,0-0.1,0.1-0.2c-0.2,0.1-0.3,0.2-0.5,0.3c-2,1.5,0.5,9,4.1,8.2h0.1
						c0.1,0,0.1,0,0.2,0c3.5-0.7,4.2-1.1,4.2-1.1s2.2,1.8,4,0.4c0.1,0,0.1-0.1,0.2-0.1C84.7,128.4,85.2,127,84.7,125.4z"/>
				</g>
				<g>
					<path class="st10" d="M53.1,74.2C53.1,74.2,53,74.2,53.1,74.2c-2.7,0.3-4.4,3.1-4.1,6.3c0.5,3.1,2.8,5.3,5.3,5
						c0.4,0,0.7-0.2,1-0.3c0,0,0,0,0.1,0c0,0.1,0,0.2,0.1,0.3c0.6,2.9,1.9,5.5,3.6,7.6c1.6,2.4,2.5,4.3,3,5.7
						c0.2,0.1,2.2,1.1,4.9,1.8c0-0.1,0-0.2,0-0.3c-1.6-7.1-3.4-7-4.5-10.7c-0.5-1.4-0.8-3.2-0.8-5c-0.1-3,0.3-6.3,1.5-9.5
						c0.2-0.6,0.4-1.1,0.7-1.7c1.9-4,7.3-6,10.1-6.9l-5.7-1.4c-3.5,1.5-7,3.8-9.2,6.9L53.1,74.2z"/>
				</g>
				<g>
					<path class="st11" d="M75.3,130.2c-0.1,0-0.1,0-0.2,0H75c-3.6,0.8-6.1-6.7-4.1-8.2c0.2-0.1,0.3-0.2,0.5-0.3c0,0,0,0.1-0.1,0.2
						c0.2-0.1,0.4-0.3,0.6-0.4l0,0c-0.6,0.1-1.4,0.3-2.4,0.5c-2.3,0-2.4,1.2-3.5-2.7c-1.1-4.1-1.1-8.7-1-11.5
						c0.1-1.6,0.2-2.6,0.2-2.6c-0.2-0.3-0.3-0.6-0.5-0.8c-0.1-0.2-0.2-0.4-0.3-0.6c-0.4-0.2-0.8-0.4-1.1-0.6l-0.7-0.7
						c0,0,0-0.3,0-0.8c-0.4,0-0.9-0.1-1.4-0.1v-0.1h-0.1c-1.1-0.1-2.4,0-3.7,0.2c-0.2,0-0.4,0.1-0.7,0.1c-4.6,0.8-9.1,2.7-10.1,7.3
						c-1.4,6.6-0.8,9.9-0.6,10.6c0.7,9.7,3.4,15.2,8.3,15c4.1-0.1,7.9-0.7,11.1-1.4C71.3,131.9,75.3,130.3,75.3,130.2L75.3,130.2z"
						/>
				</g>
				<g>
					<path class="st12" d="M71.9,51.2c-0.9-0.5-1.6-0.7-2.1-0.7s-0.7,0.2-0.6,0.4l1,2.2l-5.4-1.2c-0.1-0.1-0.2-0.1-0.3-0.1
						c-0.2,0-0.4,0.2-0.4,0.5l1.6,1.7c0,0.4-3.9,0.5-3.9,0.5c-1.7,0-2.5,0-2.5,0.3c-0.1,0.7,3,0.9,3.8,2c-1.7,0.1-6.3,0.9-7.4,1.2
						c-0.4,0.1-0.7,0.3-0.6,0.6c0.2,0.8,2.8,2.1,2.6,2.5c-0.3,0.4-3.6,0.6-4.6,0.7c-1.7,0.3-2,0.9-0.8,1.7c1.1,0.7,2.2,4.4,2.3,4.8
						v0.1l4.1,2.2l1.3,0.7l0.5,0.3c1.8-2.5,4.3-5,7.8-6.5l5.7,1.4c1-0.3,1.7-0.4,1.7-0.4s1.2-0.9,2.5-2.2c1.5-1.5,3.3-3.7,3.8-6
						C78.1,54.8,73.4,52,71.9,51.2z"/>
				</g>
			</g>
		</g>
		<path class="st13" d="M63.2,75.1c-2-0.1-3.7-0.2-4.7-0.1c-0.2,0-0.3,0-0.5,0.1c0,0-0.4,0.4-0.8,1.2c-0.4,0.8-0.9,1.9-1,3.3
			c0,0.3,0.1,0.6,0.2,0.9c0.3,0.7,0.9,1.3,1.7,2c1,0.8,2.3,1.6,3.6,2.1C61.6,81.6,62,78.3,63.2,75.1z"/>
		<path class="st14" d="M54.6,68.4L54.6,68.4c-1.2,3.3-1.5,5.8-1.5,5.8l0,0l3.1,6.9c0-0.1,0.1-0.3,0.2-0.6c-0.1-0.3-0.2-0.6-0.2-0.9
			c0.1-1.4,0.5-2.5,1-3.3c0.4-0.8,0.8-1.2,0.8-1.2c0.1,0,0.3,0,0.5-0.1c0.5-1,1.3-2.3,2-3.4L54.6,68.4z"/>
		<path class="st15" d="M61.4,101.4L61.4,101.4L61.4,101.4c0.3,0.4,1.1,1.1,2.1,1.7c0.4,0.2,0.8,0.5,1.1,0.6
			c0.1,0.1,0.2,0.1,0.3,0.2c1.8,0.8,1.8,0.6,1.8,0.6c-0.7-1.1-0.8-1.7-0.6-2.2c0.2-0.7,0.9-1,0.9-1.6c-2.7-0.7-4.7-1.7-4.9-1.8
			L61.4,101.4z"/>
	</g>
</g>
<rect class="st16" width="290" height="176"/>
<g>
	<g>
		<path class="st17" d="M228,18h-72.8c-14.6,0-32.9,1.8-32.9,16.4V176h132.1V34.4C254.4,19.8,242.6,18,228,18z"/>
		<g>
			<g>
				<g>
					<path class="st18" d="M253.1,55.3H122.3V33.7c0-7.2,5.9-13.1,13.1-13.1H240c7.2,0,13.1,5.9,13.1,13.1V55.3z"/>
					<g>
						<polygon class="st19" points="217.3,27.9 158.7,27.9 152.3,18.3 223.7,18.3 						"/>
					</g>
					<g>
						<path class="st20" d="M160.7,47.9c0-0.1,0.1-0.2,0.2-0.2c0.1,0,0.2,0.1,0.2,0.2v1.4h1.4c0.1,0,0.2,0.1,0.2,0.2
							c0,0.1-0.1,0.2-0.2,0.2h-1.4v1.4c0,0.1-0.1,0.1-0.2,0.1c-0.1,0-0.2-0.1-0.2-0.1v-1.4h-1.4c-0.1,0-0.1-0.1-0.1-0.2
							c0-0.1,0.1-0.2,0.1-0.2h1.4V47.9z"/>
						<path class="st20" d="M166.5,49.3c0,1.3-0.6,2.1-1.5,2.1s-1.5-0.8-1.5-2.1s0.6-2.1,1.5-2.1C166,47.2,166.5,48,166.5,49.3z
							 M164,49.3c0,1.1,0.4,1.7,1,1.7s1-0.7,1-1.7c0-1.1-0.4-1.7-1-1.7S164,48.3,164,49.3z"/>
						<path class="st20" d="M176.3,49.3c0,1.3-0.6,2.1-1.5,2.1s-1.5-0.8-1.5-2.1s0.6-2.1,1.5-2.1S176.3,48,176.3,49.3z M173.8,49.3
							c0,1.1,0.4,1.7,1,1.7s1-0.7,1-1.7c0-1.1-0.4-1.7-1-1.7C174.1,47.6,173.8,48.3,173.8,49.3z"/>
						<path class="st20" d="M180.2,49.3c0,1.3-0.6,2.1-1.5,2.1s-1.5-0.8-1.5-2.1s0.6-2.1,1.5-2.1C179.6,47.2,180.2,48,180.2,49.3z
							 M177.7,49.3c0,1.1,0.4,1.7,1,1.7s1-0.7,1-1.7c0-1.1-0.4-1.7-1-1.7C178.1,47.6,177.7,48.3,177.7,49.3z"/>
						<path class="st20" d="M186,49.3c0,1.3-0.6,2.1-1.5,2.1s-1.5-0.8-1.5-2.1s0.6-2.1,1.5-2.1C185.5,47.2,186,48,186,49.3z
							 M183.5,49.3c0,1.1,0.4,1.7,1,1.7s1-0.7,1-1.7c0-1.1-0.4-1.7-1-1.7S183.5,48.3,183.5,49.3z"/>
						<path class="st20" d="M197.8,49.3c0,1.3-0.6,2.1-1.5,2.1s-1.5-0.8-1.5-2.1s0.6-2.1,1.5-2.1S197.8,48,197.8,49.3z M195.3,49.3
							c0,1.1,0.4,1.7,1,1.7s1-0.7,1-1.7c0-1.1-0.4-1.7-1-1.7S195.3,48.3,195.3,49.3z"/>
						<path class="st20" d="M203.6,49.3c0,1.3-0.6,2.1-1.5,2.1s-1.5-0.8-1.5-2.1s0.6-2.1,1.5-2.1S203.6,48,203.6,49.3z M201.1,49.3
							c0,1.1,0.4,1.7,1,1.7s1-0.7,1-1.7c0-1.1-0.4-1.7-1-1.7S201.1,48.3,201.1,49.3z"/>
						<path class="st20" d="M207.5,49.3c0,1.3-0.6,2.1-1.5,2.1s-1.5-0.8-1.5-2.1s0.6-2.1,1.5-2.1C207,47.2,207.5,48,207.5,49.3z
							 M205,49.3c0,1.1,0.4,1.7,1,1.7s1-0.7,1-1.7c0-1.1-0.4-1.7-1-1.7S205,48.3,205,49.3z"/>
						<path class="st20" d="M211.4,49.3c0,1.3-0.6,2.1-1.5,2.1s-1.5-0.8-1.5-2.1s0.6-2.1,1.5-2.1C210.9,47.2,211.4,48,211.4,49.3z
							 M208.9,49.3c0,1.1,0.4,1.7,1,1.7s1-0.7,1-1.7c0-1.1-0.4-1.7-1-1.7S208.9,48.3,208.9,49.3z"/>
						<path class="st20" d="M215.4,49.3c0,1.3-0.6,2.1-1.5,2.1s-1.5-0.8-1.5-2.1s0.6-2.1,1.5-2.1C214.8,47.2,215.4,48,215.4,49.3z
							 M212.9,49.3c0,1.1,0.4,1.7,1,1.7s1-0.7,1-1.7c0-1.1-0.4-1.7-1-1.7C213.2,47.6,212.9,48.3,212.9,49.3z"/>
					</g>
					<g>
						<ellipse class="st21" cx="186.9" cy="37.7" rx="6" ry="6"/>
						<g>
							<path class="st17" d="M190.6,40.7c-0.8-1.2-2.2-2-3.7-2s-2.9,0.8-3.7,2c0,0-0.7-0.8-0.6-0.9c1-1.3,2.7-2.1,4.3-2.1
								s3.3,0.9,4.3,2.1C191.3,40,190.6,40.7,190.6,40.7z"/>
						</g>
						<g>
							<path class="st17" d="M186.9,35c0.5,0,1,0.4,1,1s-0.4,1-1,1s-1-0.4-1-1S186.4,35,186.9,35 M186.9,33.9c-1.2,0-2.1,1-2.1,2.1
								s1,2.1,2.1,2.1s2.1-1,2.1-2.1S188.1,33.9,186.9,33.9L186.9,33.9z"/>
						</g>
					</g>
					<polyline class="st22" points="133.9,45.6 131,42.7 133.9,39.9 					"/>
					<path class="st23" d="M235.4,66.6H141c-4.4,0-8,3.6-8,8.1v79.1c-0.5,2.7-3.2,6.5-4.8,7.6c-0.8,0.6-0.3,1.2,0.7,1.2
						c1.7,0,4.1-0.7,6-1.7c1.5,1.8,3.7,2.9,6.1,2.9h94.3c4.4,0,8-3.6,8-8.1v-81C243.4,70.2,239.8,66.6,235.4,66.6z"/>
					<g>
						<path class="st24" d="M141.9,146.5c0,0.2-0.1,0.3-0.3,0.3s-0.3-0.1-0.3-0.3v-6.2c0-0.2,0.1-0.3,0.3-0.3s0.3,0.1,0.3,0.3v2.7
							c0.4-0.6,0.9-0.9,1.5-0.9c0.9,0,1.4,0.6,1.4,1.7v2.7c0,0.2-0.1,0.3-0.3,0.3s-0.3-0.1-0.3-0.3V144c0-0.8-0.3-1.2-0.9-1.2
							c-0.5,0-1.1,0.4-1.4,1.1V146.5z"/>
						<path class="st24" d="M146.6,141.1c0-0.2,0.1-0.3,0.3-0.3s0.3,0.1,0.3,0.3v1.1h1.1c0.1,0,0.2,0.1,0.2,0.3s-0.1,0.3-0.2,0.3
							h-1.1v2.8c0,0.6,0.2,0.7,0.4,0.7c0.2,0,0.7-0.2,0.7-0.2c0.1,0,0.2,0,0.3,0.2c0,0.2-0.1,0.3-0.1,0.3c-0.2,0.1-0.5,0.2-0.8,0.2
							c-0.6,0-1-0.4-1-1.2v-2.8h-0.7c-0.1,0-0.2-0.1-0.2-0.3s0.1-0.3,0.2-0.3h0.7V141.1L146.6,141.1z"/>
						<path class="st24" d="M153.5,148.2c0,0.2-0.1,0.3-0.3,0.3s-0.3-0.1-0.3-0.3v-5.8c0-0.2,0.1-0.3,0.3-0.3s0.3,0.1,0.3,0.3v0.5
							c0.3-0.5,0.8-0.8,1.3-0.8c1.1,0,1.9,1,1.9,2.4s-0.8,2.4-1.9,2.4c-0.5,0-1.1-0.3-1.3-0.9V148.2z M153.5,145.2
							c0.3,0.7,0.7,1.1,1.3,1.1c0.8,0,1.3-0.7,1.3-1.8s-0.5-1.8-1.3-1.8c-0.5,0-1,0.3-1.3,0.9V145.2z"/>
						<path class="st24" d="M159,142.8c0,0.3-0.2,0.6-0.5,0.6s-0.5-0.3-0.5-0.6s0.2-0.6,0.5-0.6C158.7,142.2,159,142.5,159,142.8z
							 M159,146.2c0,0.3-0.2,0.6-0.5,0.6s-0.5-0.3-0.5-0.6s0.2-0.6,0.5-0.6C158.7,145.6,159,145.8,159,146.2z"/>
						<path class="st24" d="M160.5,148.3c0,0.1-0.1,0.2-0.2,0.2c-0.1,0-0.2-0.1-0.2-0.2v-0.1l2.5-7.8c0-0.1,0.1-0.2,0.2-0.2
							c0.1,0,0.2,0.1,0.2,0.2c0,0,0,0,0,0.1L160.5,148.3z"/>
						<path class="st24" d="M162.7,148.3c0,0.1-0.1,0.2-0.2,0.2c-0.1,0-0.2-0.1-0.2-0.2v-0.1l2.5-7.8c0-0.1,0.1-0.2,0.2-0.2
							c0.1,0,0.2,0.1,0.2,0.2c0,0,0,0,0,0.1L162.7,148.3z"/>
						<path class="st24" d="M166.4,142.6c0-0.1-0.1-0.1-0.1-0.2c0-0.2,0.2-0.3,0.3-0.3s0.2,0.1,0.2,0.2l1.1,1.7l1.1-1.7
							c0.1-0.1,0.2-0.2,0.2-0.2c0.2,0,0.3,0.2,0.3,0.3s0,0.1-0.1,0.2l-1.2,1.7l1.3,1.9c0.1,0.1,0.1,0.2,0.1,0.2
							c0,0.2-0.1,0.3-0.3,0.3c-0.1,0-0.2-0.1-0.3-0.2l-1.2-1.8l-1.2,1.8c-0.1,0.1-0.2,0.2-0.3,0.2c-0.2,0-0.3-0.2-0.3-0.3
							s0-0.2,0.1-0.2l1.3-1.9L166.4,142.6z"/>
						<path class="st24" d="M170.6,142.6c0-0.1-0.1-0.1-0.1-0.2c0-0.2,0.2-0.3,0.3-0.3s0.2,0.1,0.2,0.2l1.1,1.7l1.1-1.7
							c0.1-0.1,0.2-0.2,0.2-0.2c0.2,0,0.3,0.2,0.3,0.3s0,0.1-0.1,0.2l-1.2,1.7l1.3,1.9c0.1,0.1,0.1,0.2,0.1,0.2
							c0,0.2-0.1,0.3-0.3,0.3c-0.1,0-0.2-0.1-0.3-0.2l-1.2-1.8l-1.2,1.8c-0.1,0.1-0.2,0.2-0.3,0.2c-0.2,0-0.3-0.2-0.3-0.3
							s0-0.2,0.1-0.2l1.3-1.9L170.6,142.6z"/>
						<path class="st24" d="M174.9,142.6c0-0.1-0.1-0.1-0.1-0.2c0-0.2,0.2-0.3,0.3-0.3s0.2,0.1,0.2,0.2l1.1,1.7l1.1-1.7
							c0.1-0.1,0.2-0.2,0.2-0.2c0.2,0,0.3,0.2,0.3,0.3s0,0.1-0.1,0.2l-1.2,1.7l1.3,1.9c0.1,0.1,0.1,0.2,0.1,0.2
							c0,0.2-0.1,0.3-0.3,0.3c-0.1,0-0.2-0.1-0.3-0.2l-1.2-1.8l-1.2,1.8c-0.1,0.1-0.2,0.2-0.3,0.2c-0.2,0-0.3-0.2-0.3-0.3
							s0-0.2,0.1-0.2l1.3-1.9L174.9,142.6z"/>
						<path class="st24" d="M179,142.6c0-0.1,0-0.1,0-0.2c0-0.2,0.2-0.3,0.3-0.3s0.3,0.1,0.3,0.3l0.9,2.7c0.1,0.4,0.2,0.5,0.3,1v0.1
							l0,0c0.1-0.2,0.2-0.7,0.3-1l0.9-2.8c0.1-0.2,0.2-0.3,0.3-0.3c0.2,0,0.3,0.1,0.3,0.3c0,0.1,0,0.1,0,0.2l-1.8,4.9
							c-0.3,0.7-0.6,0.9-1.4,0.9h-0.2c-0.1,0-0.2-0.1-0.2-0.3s0.1-0.3,0.2-0.3h0.2c0.5,0,0.7-0.1,0.8-0.5l0.2-0.6L179,142.6z"/>
						<path class="st24" d="M183.4,142.6c0-0.1,0-0.1,0-0.2c0-0.2,0.2-0.3,0.3-0.3s0.3,0.1,0.3,0.3l0.9,2.7c0.1,0.4,0.2,0.5,0.3,1
							v0.1l0,0c0.1-0.2,0.2-0.7,0.3-1l0.9-2.8c0.1-0.2,0.2-0.3,0.3-0.3c0.2,0,0.3,0.1,0.3,0.3c0,0.1,0,0.1,0,0.2l-1.8,4.9
							c-0.3,0.7-0.6,0.9-1.4,0.9h-0.2c-0.1,0-0.2-0.1-0.2-0.3s0.1-0.3,0.2-0.3h0.2c0.5,0,0.7-0.1,0.8-0.5l0.2-0.6L183.4,142.6z"/>
						<path class="st24" d="M187.8,142.6c0-0.1,0-0.1,0-0.2c0-0.2,0.2-0.3,0.3-0.3s0.3,0.1,0.3,0.3l0.9,2.7c0.1,0.4,0.2,0.5,0.3,1
							v0.1l0,0c0.1-0.2,0.2-0.7,0.3-1l0.9-2.8c0.1-0.2,0.2-0.3,0.3-0.3c0.2,0,0.3,0.1,0.3,0.3c0,0.1,0,0.1,0,0.2l-1.8,4.9
							c-0.3,0.7-0.6,0.9-1.4,0.9H188c-0.1,0-0.2-0.1-0.2-0.3s0.1-0.3,0.2-0.3h0.2c0.5,0,0.7-0.1,0.8-0.5l0.2-0.6L187.8,142.6z"/>
						<path class="st24" d="M192.4,142.8c-0.1,0-0.2-0.1-0.2-0.3s0.1-0.3,0.2-0.3h2.5c0.2,0,0.3,0.1,0.3,0.3c0,0.1,0,0.2-0.1,0.3
							l-1.6,2.4c-0.2,0.3-0.3,0.4-0.6,0.8v0.1l0,0h2.4c0.1,0,0.2,0.1,0.2,0.3s-0.1,0.3-0.2,0.3h-2.9c-0.2,0-0.3-0.1-0.3-0.3
							c0-0.1,0-0.2,0.1-0.3l1.7-2.4c0.2-0.2,0.4-0.6,0.6-0.9l0,0L192.4,142.8L192.4,142.8z"/>
						<path class="st24" d="M196.5,142.8c-0.1,0-0.2-0.1-0.2-0.3s0.1-0.3,0.2-0.3h2.5c0.2,0,0.3,0.1,0.3,0.3c0,0.1,0,0.2-0.1,0.3
							l-1.6,2.4c-0.2,0.3-0.3,0.4-0.6,0.8v0.1l0,0h2.4c0.1,0,0.2,0.1,0.2,0.3s-0.1,0.3-0.2,0.3h-2.9c-0.2,0-0.3-0.1-0.3-0.3
							c0-0.1,0-0.2,0.1-0.3l1.7-2.4c0.2-0.2,0.4-0.6,0.6-0.9l0,0L196.5,142.8L196.5,142.8z"/>
						<path class="st24" d="M200.5,142.8c-0.1,0-0.2-0.1-0.2-0.3s0.1-0.3,0.2-0.3h2.5c0.2,0,0.3,0.1,0.3,0.3c0,0.1,0,0.2-0.1,0.3
							l-1.6,2.4c-0.2,0.3-0.3,0.4-0.6,0.8v0.1l0,0h2.4c0.1,0,0.2,0.1,0.2,0.3s-0.1,0.3-0.2,0.3h-2.9c-0.2,0-0.3-0.1-0.3-0.3
							c0-0.1,0-0.2,0.1-0.3l1.7-2.4c0.2-0.2,0.4-0.6,0.6-0.9l0,0L200.5,142.8L200.5,142.8z"/>
						<path class="st24" d="M205.5,146.2c0,0.3-0.2,0.6-0.5,0.6s-0.5-0.3-0.5-0.6s0.2-0.5,0.5-0.5S205.5,145.9,205.5,146.2z"/>
						<path class="st24" d="M213.1,143.6c0,2-1.5,3.7-3.3,3.7s-3.3-1.7-3.3-3.7s1.5-3.7,3.3-3.7
							C211.6,139.9,213.1,141.6,213.1,143.6z M206.8,143.6c0,1.8,1.4,3.3,3,3.3s3-1.5,3-3.3s-1.4-3.3-3-3.3S206.8,141.8,206.8,143.6
							z"/>
						<path class="st24" d="M220.1,143.6c0,2-1.5,3.7-3.3,3.7s-3.3-1.7-3.3-3.7s1.5-3.7,3.3-3.7
							C218.6,139.9,220.1,141.6,220.1,143.6z M213.8,143.6c0,1.8,1.4,3.3,3,3.3s3-1.5,3-3.3s-1.4-3.3-3-3.3S213.8,141.8,213.8,143.6
							z"/>
						<path class="st24" d="M227.2,143.6c0,2-1.5,3.7-3.3,3.7s-3.3-1.7-3.3-3.7s1.5-3.7,3.3-3.7
							C225.7,139.9,227.2,141.6,227.2,143.6z M220.9,143.6c0,1.8,1.4,3.3,3,3.3s3-1.5,3-3.3s-1.4-3.3-3-3.3S220.9,141.8,220.9,143.6
							z"/>
						<path class="st24" d="M234.2,143.6c0,2-1.5,3.7-3.3,3.7s-3.3-1.7-3.3-3.7s1.5-3.7,3.3-3.7
							C232.7,139.9,234.2,141.6,234.2,143.6z M227.9,143.6c0,1.8,1.4,3.3,3,3.3s3-1.5,3-3.3s-1.4-3.3-3-3.3S227.9,141.8,227.9,143.6
							z"/>
						<path class="st24" d="M140.6,147.5v-0.4h93.6v0.4H140.6z"/>
					</g>
				</g>
			</g>
		</g>
		<path class="st25" d="M258,39.4c0-15.1-8.2-23.4-23.3-23.4h-93.5c-15.1,0-23.3,8.3-23.3,23.4V176h6.8V39.4
			c0-11.3,5.2-16.6,16.4-16.6h93.5c11.3,0,16.4,5.2,16.4,16.6V176h6.8V39.4H258z"/>
	</g>
	<g>
		<path class="st20" d="M142.2,81.9h0.9v6h-0.9V81.9z M148,81.8h0.8v3.9c0,1.3-0.1,2.3-0.3,2.9c-0.2,0.7-0.5,1.2-0.8,1.6
			c-0.6,0.7-1.6,1.2-3,1.6l-0.5-0.8c1.6-0.4,2.6-0.9,3-1.8c0.3-0.5,0.6-1.2,0.6-2c0-0.4,0-0.9,0-1.5v-3.9H148z"/>
		<path class="st20" d="M154.8,84.7c-1.1-0.5-2.2-0.9-3.4-1.2l0.3-0.9c1.4,0.4,2.5,0.7,3.4,1.2L154.8,84.7z M151.5,90.5
			c1.5-0.1,2.7-0.4,3.5-0.7c2.2-0.9,3.6-2.8,4.2-5.9l0.8,0.6c-0.3,1.7-0.9,3-1.6,4c-0.8,1.1-1.9,1.9-3.3,2.3c-0.8,0.3-2,0.5-3.4,0.7
			L151.5,90.5z"/>
		<path class="st20" d="M168.9,83.3l0.7,0.6c-0.4,2.3-1.2,4.1-2.3,5.4c-1,1.1-2.5,2-4.4,2.6l-0.5-0.8c1.9-0.5,3.3-1.4,4.3-2.5
			c0.9-1.1,1.6-2.6,1.9-4.4h-4c-0.7,1.2-1.6,2.1-2.6,2.9l-0.6-0.7c0.7-0.5,1.3-1.1,1.8-1.7c0.6-0.8,1.1-1.7,1.5-2.8l0.9,0.3
			c-0.2,0.4-0.3,0.8-0.5,1.2L168.9,83.3L168.9,83.3z"/>
		<path class="st20" d="M173.4,83.3h2.4v-2h0.9v2h3.8v0.8h-3.8v2.3h4.7v0.8h-3.5v3.7c0,0.2,0.1,0.4,0.2,0.4c0.1,0,0.4,0.1,0.9,0.1
			s0.9,0,1-0.1c0.2,0,0.3-0.2,0.4-0.5c0.1-0.2,0.1-0.7,0.1-1.3l0.9,0.3c0,1.1-0.2,1.8-0.4,2c-0.1,0.1-0.4,0.2-0.7,0.3
			c-0.3,0-0.8,0.1-1.3,0.1c-0.7,0-1.2-0.1-1.4-0.2c-0.3-0.1-0.5-0.4-0.5-0.8v-4h-2v0.1c0,1.6-0.4,2.7-1,3.5s-1.5,1.3-2.7,1.6
			l-0.5-0.7c1.4-0.4,2.3-1,2.8-1.8c0.3-0.5,0.5-1.4,0.5-2.6H171v-0.8h4.9v-2.3h-2.7c-0.3,0.7-0.6,1.3-1,1.8l-0.7-0.6
			c0.7-1,1.2-2.2,1.6-3.6l0.8,0.2C173.7,82.4,173.5,82.9,173.4,83.3z"/>
		<path class="st20" d="M188,90.8c0.9-0.2,1.6-0.6,2.1-1.1c0.7-0.7,1.1-1.6,1.1-2.9c0-0.8-0.2-1.6-0.6-2.2c-0.5-0.9-1.4-1.4-2.6-1.6
			c-0.3,2.5-0.8,4.5-1.5,6.1c-0.3,0.7-0.6,1.1-1,1.4c-0.3,0.3-0.7,0.5-1,0.5c-0.5,0-0.9-0.2-1.3-0.7c-0.2-0.3-0.4-0.6-0.5-1
			c-0.2-0.5-0.3-1.1-0.3-1.8c0-1.1,0.3-2.1,0.9-3c0.6-0.9,1.3-1.5,2.3-1.9c0.6-0.3,1.3-0.4,2-0.4c1.1,0,2.1,0.3,2.9,0.9
			c0.7,0.5,1.2,1.2,1.5,2c0.2,0.5,0.3,1.1,0.3,1.6c0,2.5-1.2,4.1-3.7,4.8L188,90.8z M187.2,83c-0.9,0.1-1.5,0.4-2.1,0.9
			c-0.9,0.7-1.5,1.7-1.7,2.8c-0.1,0.3-0.1,0.6-0.1,0.9c0,0.9,0.2,1.6,0.6,2.1c0.2,0.3,0.4,0.4,0.7,0.4s0.4-0.2,0.7-0.6
			c0.4-0.7,0.7-1.6,1.1-2.8C186.7,85.7,187,84.4,187.2,83z"/>
		<path class="st20" d="M198.2,84v-1.3h-4.9V82H204v0.8h-4.9V84h2.6v6h-6v-6H198.2z M194.6,91h8.1v-6.6h0.8v8.1h-0.8v-0.7h-8.1v0.7
			h-0.8v-8.1h0.8V91z M198.2,84.8h-1.7v1.8h1.7V84.8z M198.2,87.3h-1.7v2h1.7V87.3z M199,84.8v1.8h1.8v-1.8H199z M199,87.3v2h1.8v-2
			H199z"/>
		<path class="st20" d="M209.8,84.5h4.9v7.9h-0.9v-0.7h-7.4v0.7h-0.9v-7.9h3.3c0.3-0.7,0.4-1.3,0.6-1.7h-4.7V82h10.7v0.8h-5.1
			C210.2,83.4,210,83.9,209.8,84.5z M208.3,85.2h-1.8v5.7h1.8V85.2z M209.1,85.2v1.4h2.1v-1.4H209.1z M209.1,87.4v1.4h2.1v-1.4
			H209.1z M209.1,89.5V91h2.1v-1.5H209.1z M212,85.2v5.7h1.8v-5.7H212z"/>
		<path class="st20" d="M216.3,82.9c3.2,0,6.2-0.1,9.2-0.3l0.1,0.8c-1.2,0-2.2,0.3-3,0.6c-0.9,0.4-1.6,1.1-2,1.9
			c-0.3,0.6-0.5,1.2-0.5,1.9c0,0.9,0.3,1.5,1,2c0.6,0.4,1.5,0.7,2.8,0.9l-0.2,0.9c-1.7-0.2-2.8-0.7-3.5-1.3c-0.7-0.6-1-1.5-1-2.5
			c0-0.5,0.1-1,0.3-1.6c0.5-1.2,1.5-2.2,2.9-2.8h-0.5c-1.5,0.1-3.2,0.1-5,0.2h-0.5L216.3,82.9z M224.1,87.4c-0.2-0.6-0.6-1.2-1-1.9
			l0.7-0.3c0.4,0.6,0.8,1.2,1,1.9L224.1,87.4z M225.5,86.8c-0.2-0.7-0.6-1.3-1-1.9l0.7-0.3c0.4,0.5,0.7,1.2,1,1.8L225.5,86.8z"/>
		<path class="st20" d="M141.6,107.7c0.6-0.9,1.2-2.2,1.6-3.6c0.4-1.5,0.7-2.9,0.9-4.4l0.9,0.2c-0.5,3.8-1.4,6.7-2.6,8.5
			L141.6,107.7z M150.1,108.4c-0.5-0.9-1-1.9-1.4-3.2c-0.6-1.7-1.1-3.5-1.5-5.4l0.9-0.3c0.3,1.8,0.8,3.6,1.5,5.4
			c0.4,1.1,0.9,2,1.3,2.8L150.1,108.4z M150.4,98.5c0.3,0,0.5,0.1,0.7,0.2c0.4,0.3,0.6,0.6,0.6,1.1c0,0.4-0.1,0.7-0.4,1
			c-0.3,0.3-0.6,0.4-0.9,0.4c-0.2,0-0.4,0-0.6-0.1c-0.2-0.1-0.4-0.3-0.5-0.5s-0.2-0.5-0.2-0.8c0-0.2,0.1-0.4,0.2-0.6
			c0.1-0.2,0.3-0.4,0.4-0.5C149.9,98.6,150.1,98.5,150.4,98.5z M150.4,99.1c-0.1,0-0.3,0-0.4,0.1c-0.2,0.1-0.4,0.4-0.4,0.7
			c0,0.2,0.1,0.4,0.2,0.5c0.1,0.2,0.3,0.3,0.6,0.3c0.1,0,0.2,0,0.3-0.1c0.3-0.1,0.4-0.4,0.4-0.7c0-0.2-0.1-0.4-0.2-0.6
			C150.7,99.2,150.6,99.1,150.4,99.1z"/>
		<path class="st20" d="M153.4,99.7h6.4l0.6,0.5c-0.6,1.5-1.3,2.8-2.2,4.1c1.2,1,2.4,2.1,3.5,3.4l-0.7,0.8c-1-1.2-2.1-2.4-3.3-3.5
			c-1.2,1.5-2.7,2.7-4.5,3.5l-0.5-0.8c1.8-0.7,3.2-1.9,4.4-3.3c1-1.3,1.7-2.6,2.2-3.8h-5.9V99.7z"/>
		<path class="st20" d="M163.7,99.7h8.4c0,2.1-0.2,3.7-0.5,4.8c-0.4,1.3-1,2.2-1.9,2.9c-0.9,0.7-1.9,1.1-3,1.4l-0.5-0.8
			c1.3-0.3,2.4-0.8,3.2-1.5c0.7-0.6,1.1-1.4,1.4-2.5c0.2-0.9,0.3-2,0.4-3.4h-6.5v3.1h-0.9L163.7,99.7L163.7,99.7z"/>
		<path class="st20" d="M173.8,103.2h9.5v0.9h-9.5V103.2z"/>
		<path class="st20" d="M185.8,98.8h0.9v3.3c2.3,0.7,4.1,1.5,5.4,2.1l-0.5,0.9c-1.5-0.8-3.1-1.5-4.9-2.1v5.8h-0.9V98.8z
			 M190.5,101.7c-0.2-0.6-0.6-1.3-1-1.9l0.7-0.3c0.4,0.6,0.8,1.2,1,1.9L190.5,101.7z M191.9,101.3c-0.3-0.7-0.6-1.3-1-1.9l0.7-0.2
			c0.4,0.5,0.7,1.1,1,1.9L191.9,101.3z"/>
		<path class="st20" d="M194.8,100.1h2.9c0.3-0.5,0.5-0.9,0.8-1.3l0.9,0.1c-0.2,0.3-0.4,0.6-0.6,1.1l-0.1,0.1h4v0.8h-4.6
			c-0.5,0.8-1.1,1.5-1.5,2c0.7-0.5,1.4-0.7,2-0.7c0.9,0,1.5,0.5,1.7,1.5c1-0.3,2-0.7,3-1l0.3,0.8c-1.4,0.4-2.5,0.7-3.2,1
			c0.1,0.6,0.1,1.2,0.1,2l-0.9,0.1v-0.2c0-0.7,0-1.2,0-1.6c-1,0.4-1.7,0.7-2.1,1.1c-0.4,0.3-0.6,0.6-0.6,0.9c0,0.4,0.2,0.6,0.7,0.8
			c0.4,0.1,1.1,0.2,2.2,0.2c1,0,2-0.1,3.1-0.2l0.1,0.9c-1.1,0.1-2.1,0.1-3.2,0.1c-1.3,0-2.2-0.1-2.7-0.3c-0.7-0.3-1-0.7-1-1.4
			c0-0.8,0.5-1.4,1.5-2.1c0.5-0.3,1.1-0.6,2-0.9c-0.1-0.4-0.2-0.6-0.4-0.8c-0.2-0.2-0.4-0.3-0.7-0.3c-0.4,0-0.9,0.2-1.6,0.5
			c-0.6,0.4-1.3,0.8-2,1.5l-0.5-0.6c0.8-0.8,1.5-1.6,2-2.3c0.1-0.2,0.4-0.6,0.7-1.1l0.1-0.1h-2.4V100.1z"/>
		<path class="st20" d="M147.1,115.9v0.7c0,2.3,0.4,4.1,1.3,5.5c0.8,1.3,2,2.4,3.5,3.3l-0.6,0.8c-1.6-0.9-2.8-2.1-3.7-3.8
			c-0.4-0.7-0.7-1.6-0.9-2.6c-0.2,1.2-0.6,2.2-1.1,3.1c-0.8,1.4-2,2.5-3.6,3.3l-0.6-0.8c2-0.9,3.3-2.3,4-4.2
			c0.5-1.2,0.8-2.7,0.9-4.5h-2.9v-0.9L147.1,115.9L147.1,115.9z"/>
		<g>
			<path class="st20" d="M157.9,117.8l0.1-2.5h-0.9l-0.1,2.5h-4v0.9h4c-0.1,1.3-0.4,2.4-0.8,3.3c-0.7,1.5-1.8,2.7-3.4,3.6l0.6,0.7
				c1.5-0.9,2.5-1.9,3.2-3.1c0.7-1.2,1.1-2.7,1.3-4.5h3.7c0,0-0.2,4-0.3,5.1c-0.1,0.6-0.1,1-0.2,1.1c-0.1,0.3-0.4,0.4-0.8,0.4
				c-0.6,0-1.3-0.1-2.1-0.2l0.2,0.9c0.6,0.1,1.2,0.1,1.9,0.1c0.4,0,0.7,0,0.9-0.1c0.4-0.1,0.7-0.5,0.8-1c0.2-1,0.3-3.4,0.4-7.2
				H157.9z"/>
		</g>
		<path class="st20" d="M164.9,116.1h0.9v6.6c0,1.5,0.8,2.3,2.4,2.3c0.7,0,1.3-0.2,1.8-0.7c0.7-0.6,1.3-1.7,1.8-3.4l0.8,0.5
			c-0.4,1.3-0.8,2.3-1.3,3c-0.8,1-1.8,1.5-3.1,1.5s-2.2-0.4-2.7-1.3c-0.3-0.5-0.5-1.2-0.5-2L164.9,116.1L164.9,116.1z"/>
		<path class="st20" d="M173.8,116.8c3.2,0,6.2-0.1,9.2-0.3l0.1,1c-1.3,0-2.3,0.3-3.1,0.6c-0.9,0.5-1.6,1.1-2,2
			c-0.3,0.6-0.4,1.2-0.4,1.8c0,1,0.4,1.7,1.2,2.1c0.6,0.4,1.5,0.6,2.7,0.8l-0.2,0.9c-1.6-0.2-2.7-0.6-3.4-1.2
			c-0.8-0.6-1.2-1.5-1.2-2.7c0-1,0.4-2,1.1-2.9c0.5-0.6,1.2-1.1,2.1-1.5h-0.5c-2,0.1-3.9,0.2-5.5,0.2L173.8,116.8z"/>
		<path class="st20" d="M192,126c-1.6-1.3-3.7-2.7-6.3-4.3c-0.5-0.3-0.7-0.6-0.7-0.9c0-0.2,0.1-0.5,0.4-0.7c0.1-0.1,0.3-0.2,0.6-0.4
			c1-0.6,2.3-1.4,4-2.5c0.6-0.4,1.2-0.9,1.8-1.3l0.5,0.7c-0.6,0.4-1.3,1-2.1,1.5c-1.4,1-2.6,1.7-3.5,2.2c-0.3,0.2-0.5,0.3-0.5,0.4
			s5.9,4.2,6.4,4.5L192,126z"/>
		<path class="st20" d="M194.5,117.6h2.6c0.1-0.7,0.3-1.3,0.4-1.8l0.9,0.1v0.1c-0.1,0.7-0.3,1.3-0.3,1.6h3.2v0.8h-3.4
			c-0.7,3-1.5,5.5-2.4,7.6l-0.9-0.3c1-2.2,1.7-4.6,2.4-7.2h-2.4v-0.9H194.5z M203.9,125.6c-0.5,0.1-1.2,0.1-1.9,0.1
			c-1.1,0-2-0.1-2.6-0.3c-0.7-0.2-1-0.7-1-1.4c0-0.5,0.1-0.8,0.4-1.1l0.7,0.5c-0.1,0.2-0.2,0.3-0.2,0.6c0,0.4,0.2,0.6,0.5,0.7
			c0.5,0.1,1.1,0.2,1.9,0.2c0.7,0,1.4-0.1,2.1-0.2L203.9,125.6z M199,120.2c1.3-0.2,2.7-0.3,4-0.3c0.1,0,0.3,0,0.5,0l0.1,0.9
			c-0.3,0-0.5,0-0.6,0c-1.3,0-2.6,0.1-3.8,0.2L199,120.2z M202.5,118c-0.2-0.6-0.6-1.3-1-1.9l0.7-0.3c0.4,0.7,0.8,1.3,1,1.9
			L202.5,118z M203.9,117.6c-0.3-0.7-0.6-1.3-1-1.9l0.7-0.3c0.4,0.6,0.7,1.2,1,1.8L203.9,117.6z"/>
		<path class="st20" d="M205.6,117.8h4.5c-0.2-0.6-0.5-1.3-0.7-2l0.9-0.1c0.2,0.7,0.4,1.4,0.7,2.1h4v0.8h-3.7
			c0.5,1.2,1.1,2.2,1.7,3.2l-0.8,0.4c-0.6-1-1.3-2.2-1.8-3.7h-4.8L205.6,117.8L205.6,117.8z M213.3,125.8c-0.7,0-1.3,0.1-1.8,0.1
			c-1.5,0-2.6-0.1-3.3-0.4c-1.2-0.4-1.8-1.2-1.8-2.3c0-0.6,0.2-1.1,0.5-1.6l0.7,0.4c-0.2,0.3-0.4,0.7-0.4,1.2c0,0.7,0.4,1.2,1.3,1.5
			c0.6,0.2,1.6,0.3,2.9,0.3c0.5,0,1.1,0,1.7-0.1L213.3,125.8z"/>
		<path class="st20" d="M221.5,122.8c-0.3,0.9-0.7,1.6-1.1,2.2c-0.3,0.4-0.7,0.7-1,0.7c-0.5,0-1-0.4-1.4-1.3
			c-0.3-0.7-0.5-1.5-0.7-2.3c-0.1-1-0.2-2.1-0.2-3.4c0-0.7,0-1.3,0.1-2l0.9,0.1c0,0.6-0.1,1.2-0.1,1.8c0,1.8,0.1,3.1,0.3,4
			c0.2,0.7,0.3,1.3,0.6,1.6c0.2,0.3,0.3,0.4,0.5,0.4s0.3-0.1,0.5-0.4c0.3-0.4,0.6-1.1,0.9-1.9L221.5,122.8z M225.3,123.9
			c-0.2-1.5-0.4-2.8-0.7-3.8s-0.6-2-1.1-3l0.8-0.2c0.5,1.1,0.9,2.2,1.2,3.2c0.3,0.9,0.5,2.1,0.6,3.6L225.3,123.9z"/>
		<path class="st20" d="M229.7,122.7c1.6,0,1.7,1.4,1.7,1.7c0,0.4-0.2,1.7-1.7,1.7c-1.4,0-1.7-1.3-1.7-1.7
			C228,124,228.2,122.7,229.7,122.7z M229.7,123.4c-0.6,0-1,0.3-1,1.1c0,0.6,0.6,1,1,1c0.2,0,1-0.1,1-1
			C230.7,123.9,230.3,123.4,229.7,123.4z"/>
	</g>
</g>
<path class="st24" d="M150,141.1c0-0.2,0.1-0.3,0.3-0.3s0.3,0.1,0.3,0.3v1.1h1.1c0.1,0,0.2,0.1,0.2,0.3s-0.1,0.3-0.2,0.3h-1.1v2.8
	c0,0.6,0.2,0.7,0.4,0.7c0.2,0,0.7-0.2,0.7-0.2c0.1,0,0.2,0,0.3,0.2c0,0.2-0.1,0.3-0.1,0.3c-0.2,0.1-0.5,0.2-0.8,0.2
	c-0.6,0-1-0.4-1-1.2v-2.8h-0.7c-0.1,0-0.2-0.1-0.2-0.3s0.1-0.3,0.2-0.3h0.7V141.1L150,141.1z"/>
<path class="st20" d="M170.4,49.3c0,1.3-0.6,2.1-1.5,2.1s-1.5-0.8-1.5-2.1s0.6-2.1,1.5-2.1C169.9,47.2,170.4,48,170.4,49.3z
	 M167.9,49.3c0,1.1,0.4,1.7,1,1.7s1-0.7,1-1.7c0-1.1-0.4-1.7-1-1.7S167.9,48.3,167.9,49.3z"/>
<path class="st20" d="M190,49.3c0,1.3-0.6,2.1-1.5,2.1s-1.5-0.8-1.5-2.1s0.6-2.1,1.5-2.1C189.5,47.2,190,48,190,49.3z M187.5,49.3
	c0,1.1,0.4,1.7,1,1.7s1-0.7,1-1.7c0-1.1-0.4-1.7-1-1.7S187.5,48.3,187.5,49.3z"/>
<path class="st20" d="M193.9,49.3c0,1.3-0.6,2.1-1.5,2.1s-1.5-0.8-1.5-2.1s0.6-2.1,1.5-2.1C193.4,47.2,193.9,48,193.9,49.3z
	 M191.4,49.3c0,1.1,0.4,1.7,1,1.7s1-0.7,1-1.7c0-1.1-0.4-1.7-1-1.7S191.4,48.3,191.4,49.3z"/>
</svg>
