<?xml version="1.0" encoding="utf-8"?>
<!-- Generator: Adobe Illustrator 25.3.1, SVG Export Plug-In . SVG Version: 6.00 Build 0)  -->
<svg version="1.1" id="レイヤー_1" xmlns="http://www.w3.org/2000/svg" xmlns:xlink="http://www.w3.org/1999/xlink" x="0px"
	 y="0px" width="60px" height="60px" viewBox="0 0 60 60" style="enable-background:new 0 0 60 60;" xml:space="preserve">
<style type="text/css">
	.st0{fill:#00AAE7;}
	.st1{fill:#44D9FC;}
	.st2{fill:#FFFFFF;}
	.st3{fill:#FF9FC6;}
	.st4{fill:#3FE1A5;}
	.st5{fill:#B2E879;}
	.st6{fill:none;}
</style>
<g>
	<path class="st0" d="M26.3,39.9c-1.2-4.4-3-7-8.4-7.7c3-1.3,5.2-4.3,5.2-7.8c0-4.7-3.8-8.5-8.5-8.5s-8.5,3.8-8.5,8.5
		c0,3.5,2.2,6.6,5.2,7.8C6,32.9,4.3,35.5,3,39.9c-0.7,2.5-0.4,10.5-0.4,10.5c0,0.6,0.3,1.1,0.7,1.1H26c0.4,0,0.7-0.5,0.7-1.1
		C26.7,50.4,27,42.4,26.3,39.9z"/>
	<path class="st1" d="M57.2,41.3c-1.1-3.7-2.6-5.9-7.2-6.5c3-1.2,5.1-4.1,5.1-7.5c0-4.5-3.6-8.1-8.1-8.1c-4.5,0-8.1,3.6-8.1,8.1
		c0,3.4,2.1,6.3,5.1,7.5c-4.6,0.6-6.1,2.8-7.2,6.4c-0.6,2.1-0.4,9.3-0.4,9.3c0,0.5,0.3,0.9,0.6,0.9h19.8c0.4,0,0.7-0.4,0.6-0.9
		C57.5,50.6,57.8,43.4,57.2,41.3z"/>
	<g>
		<path class="st2" d="M33.7,50.8c0-0.9,0.1-4.8-0.4-6.6c-0.5-2-1.3-4-3.2-5.3c0.8-1.2,1.2-2.5,1.2-4c0-4-3.3-7.3-7.3-7.3
			s-7.3,3.3-7.3,7.3c0,1.3,0.4,2.6,1,3.7c-2.2,1.3-3.1,3.4-3.6,5.6c-0.5,1.9-0.4,5.7-0.4,6.6c0,0.3,0,0.5,0.1,0.8h19.7
			C33.7,51.3,33.7,51.1,33.7,50.8z"/>
	</g>
	<g>
		<path class="st2" d="M45.7,50.7c0-0.8,0.2-5.3-0.4-7.4c-0.7-2.5-1.7-5-4.3-6.4c0.8-1.2,1.2-2.6,1.2-4.1c0-4.3-3.5-7.7-7.7-7.7
			c-4.3,0-7.7,3.5-7.7,7.7c0,1.5,0.4,2.9,1.2,4.1c-2.6,1.4-3.6,3.9-4.3,6.4c-0.6,2.1-0.4,6.7-0.4,7.4c0,0.3,0.1,0.6,0.1,0.9h22.2
			C45.6,51.3,45.7,51,45.7,50.7z"/>
	</g>
	<g>
		<path class="st3" d="M34,6.9c-1.6,0.6-2.4,1.5-2.8,2.2c-0.2,0.3-0.6,0.3-0.8,0c-0.4-0.7-1.2-1.5-2.8-2.2c-3.1-1.3-8.5,2-5.9,7.6
			c1.4,3,8.7,8.5,9.1,8.8c0.5-0.3,7.7-5.7,9.1-8.8C42.6,8.9,37.1,5.6,34,6.9z"/>
		<path class="st4" d="M43.4,43.7c-0.9-3.4-2.2-5.4-6.2-6c1.8-1,3-2.8,3-5c0-3.2-2.6-5.7-5.7-5.7c-3.2,0-5.7,2.6-5.7,5.7
			c0,2.2,1.2,4,3,5c-3.9,0.6-5.2,2.6-6.1,6c-0.5,2-0.3,6.9-0.3,6.9c0,0.5,0.2,0.9,0.6,0.9h17.3c0.3,0,0.6-0.4,0.6-0.9
			C43.7,50.6,43.9,45.7,43.4,43.7z"/>
		<path class="st5" d="M31.4,44.7c-0.8-2.8-1.8-4.5-4.9-5.1c1.7-0.9,2.8-2.6,2.8-4.7c0-2.9-2.4-5.3-5.3-5.3c-2.9,0-5.3,2.4-5.3,5.3
			c0,2,1.1,3.7,2.7,4.6c-3.4,0.5-4.6,2.3-5.4,5.2c-0.5,1.7-0.3,6.1-0.3,6.1c0,0.4,0.2,0.8,0.5,0.8h14.9c0.3,0,0.5-0.3,0.5-0.8
			C31.7,50.8,31.9,46.4,31.4,44.7z"/>
	</g>
</g>
<rect class="st6" width="60" height="60"/>
</svg>
