<?xml version="1.0" encoding="utf-8"?>
<!-- Generator: Adobe Illustrator 25.3.1, SVG Export Plug-In . SVG Version: 6.00 Build 0)  -->
<svg version="1.1" id="レイヤー_1" xmlns="http://www.w3.org/2000/svg" xmlns:xlink="http://www.w3.org/1999/xlink" x="0px"
	 y="0px" width="60px" height="60px" viewBox="0 0 60 60" style="enable-background:new 0 0 60 60;" xml:space="preserve">
<style type="text/css">
	.st0{clip-path:url(#SVGID_2_);}
	.st1{fill:#FFEBDE;}
	.st2{fill:#254735;}
	.st3{opacity:0.55;}
	.st4{fill:#B1A99A;}
	.st5{fill:#C29F56;}
	.st6{fill:#254735;stroke:#254735;stroke-width:0.403;}
	.st7{fill:none;stroke:#000000;stroke-width:2.184527e-02;}
	.st8{opacity:0.62;}
	.st9{fill:#7C6A2B;}
	.st10{fill:#BFFDFF;}
	.st11{opacity:0.7;fill:#0844B6;}
	.st12{fill:#88A2BB;}
	.st13{fill:#0865B6;}
	.st14{fill:#FFFFFF;}
	.st15{fill:#254735;stroke:#254735;stroke-width:0.6046;}
	.st16{opacity:0.5;}
	.st17{fill:#FF839F;}
	.st18{fill:#FF6F9F;}
	.st19{fill:#254735;stroke:#254735;stroke-width:0.2202;}
	.st20{fill:#294F3A;}
	.st21{fill:#25FFDF;}
	.st22{fill:#B1B1B1;}
	.st23{fill:none;stroke:#294F3A;stroke-width:1.1289;stroke-linecap:round;stroke-linejoin:round;}
	.st24{opacity:0.55;fill:#B1A99A;}
</style>
<g>
	<g>
		<defs>
			<rect id="SVGID_1_" y="0" width="60" height="60"/>
		</defs>
		<clipPath id="SVGID_2_">
			<use xlink:href="#SVGID_1_"  style="overflow:visible;"/>
		</clipPath>
		<g class="st0">
			<g>
				<g>
					<g>
						<g>
							<g>
								<g>
									<g>
										<path class="st1" d="M38.6,35.5c0,0-5.7,11.4-5.5,19.4c0.3,8,3.6,11.4,3.6,11.4s-7.3,2.4-12.6,1.1
											c-5.3-1.3-8.8-6.5-8.8-6.5s8.1,1.2,10.6-7.9c2.4-9.1,1.1-18,1.1-18L38.6,35.5z"/>
									</g>
									<path class="st2" d="M37.6,65.4c0,0-2.2-4.6-3.2-9.4c-0.8-3.6-0.9-10.1,3.6-19c0.3-0.5,0.5-0.8,0.7-1
										c0-0.1,0.1-0.1,0.1-0.1c0,0,0,0,0-0.1c0,0,0-0.1,0.1-0.1c0-0.2,0-0.3,0-0.3c-0.4,0.2-0.7,0.4-1.1,0.7c0,0,0,0,0,0l1.1-0.7
										c0,0-0.3,0-0.8,0c-0.1,0-0.3,0-0.5,0c0,0,0,0,0-0.1c0,0,0,0,0,0l0,0c0,0,0,0,0,0.1c0,0,0,0,0,0c-0.5,0-1-0.1-1.7-0.1
										c-0.9-0.1-2.1-0.2-3.4-0.3c-1.3-0.1-2.8-0.2-4.5-0.4c-0.2,0-0.4,0-0.5,0l-1.1-0.1c0,0,0.6,5.7,0.3,9.8
										c-0.2,2.8-0.6,6.1-0.9,8.5c-0.3,2.5-1.6,4-2.8,5.3c-0.6,0.7-1.3,1.2-2.1,1.6c-0.4,0.2-0.8,0.4-1.2,0.5
										c-0.4,0.2-0.8,0.3-1.3,0.4c-0.4,0.1-0.8,0.2-1.3,0.2c-0.2,0-1.2,0-1.2,0c-0.2,0-0.3,0-0.5-0.1l-0.5-0.1
										c0,0,1.8,4.1,5.8,6.4c4.1,2.3,7.9,2.2,9.5,2.1c1.4-0.1,2.8-0.4,3.9-0.7c0.6-0.1,1.1-0.3,1.6-0.4c0.5-0.2,0.9-0.3,1.4-0.5
										L37.6,65.4z M29.6,66.6c-1.2,0-2.4,0-3.6-0.1c-0.3,0-0.6-0.1-0.8-0.1c-0.3-0.1-0.5-0.1-0.8-0.2c-0.3-0.1-0.5-0.1-0.8-0.2
										c-0.3-0.1-0.5-0.2-0.7-0.3c-1.6-0.6-3.1-1.6-4.3-2.7c-0.6-0.5-1.1-1-1.5-1.4c0.3,0,0.7-0.1,1-0.2c0.8-0.2,1.4-0.4,2-0.7
										c1.1-0.5,1.7-1,2.2-1.4c0.5-0.4,1.4-1.2,2.2-2.4c0.4-0.6,0.8-1.3,1.2-2.1c0.2-0.4,0.3-0.8,0.5-1.2c0.1-0.4,0.3-0.9,0.4-1.3
										c1-3.5,1.6-7.8,1.5-11.5c0-0.9,0-1.8,0-2.7c0-0.7,0-1.5-0.1-2.2c1.3,0,2.6,0,3.7,0c2.2,0,3.7,0,4.7,0c0.3,0,0.6,0,0.8,0
										c-0.1,0.1-0.1,0.2-0.2,0.4c-0.5,0.8-1.1,2-1.7,3.3c-1.2,2.6-2.4,6-2.6,8.5c0,0.6-0.1,1.3-0.1,1.9c0,0.3,0,0.6,0,1
										c0,0.3,0,0.6,0,1c0,0.6,0,1.3,0.1,1.9c0,0.3,0.1,0.6,0.1,0.9c0,0.3,0.1,0.6,0.1,0.9c0.4,2.4,1,4.6,1.4,6.4
										c0.1,0.6,0.3,1.2,0.6,2c0.1,0.4,0.3,0.8,0.5,1.2c0.1,0.2,0.2,0.3,0.3,0.5C33.9,66.2,31.7,66.5,29.6,66.6z"/>
								</g>
								<g class="st3">
									<path class="st4" d="M33.2,44.2c0,0,0.9-0.5,0.9-0.4c-0.5,0.8-0.7,4.9-1.2,7.8c-0.5,3.3,1.5,6.1,1.5,6.1s-0.9,1-3.5,0.8
										c0,0-0.6-0.7,0.3-6.9c0.6-4.1,0.9-5.8,0.9-5.8s-4.3-1.9-5.2-2.9l0.1-0.7L33.2,44.2z"/>
								</g>
							</g>
						</g>
						<g>
							<g>
								<g>
									<g>
										<path class="st5" d="M45.6,19.5c0,0,7.9-4.2,12.4,8.3c4.6,12.4-8.3,17.7-12.1,16.7c-3.8-1-6-3.2-6-3.2L45.6,19.5z"/>
										<path d="M45.5,19.4c0,0,0.4-0.1,0.8-0.2c0.6-0.1,1.4-0.3,2.8-0.2c0.7,0.1,1.6,0.1,2.5,0.6c0.5,0.1,0.9,0.5,1.4,0.7
											c0.4,0.3,0.9,0.6,1.3,1c0.4,0.4,0.7,0.7,1.1,1c0.3,0.4,0.6,0.7,0.8,1c0.2,0.3,0.4,0.5,0.5,0.7c0.1,0.2,0.2,0.3,0.2,0.3
											s0.4,0.4,0.9,1.3c0.5,0.9,1.3,2.2,1.7,4.2c0.4,1.9,0.3,4.2-0.4,5.9c-0.6,1.8-1.6,3-2.2,3.7c-1.1,1.4-2.3,2.3-4.3,3.9
											c-1,0.8-2.3,1.5-3.8,1.9c-0.7,0.2-1.5,0.3-2.4,0.2c-0.2,0-0.4-0.1-0.7-0.1c-0.2-0.1-0.4-0.1-0.6-0.2
											c-0.4-0.1-0.7-0.3-1.1-0.5c-2.8-1.4-4.3-3.1-4.3-3.1l0.5-0.5c0,0,0.1,0.2,0.5,0.6c0.4,0.4,1,0.9,1.9,1.5
											c0.6,0.3,1.2,0.7,2,1c0.4,0.1,0.8,0.3,1.2,0.4c0.4,0.1,0.8,0.1,1.2,0.1c1.7-0.2,3.6-0.8,5.2-1.6c1.5-0.8,2.7-1.7,3.1-2.2
											c0.4-0.5,1.2-1.3,1.8-2.5c0.6-1.2,1.1-2.8,1.1-4.3c0-0.8,0-1.6-0.1-2.4c-0.1-0.8-0.2-1.7-0.4-2.5
											c-0.4-1.6-0.9-3.1-1.2-3.9c-0.2-0.4-0.4-0.9-0.7-1.3c-0.3-0.4-0.7-0.9-1.1-1.3c-0.2-0.2-0.4-0.4-0.7-0.6
											c-0.2-0.2-0.5-0.3-0.7-0.5c-0.5-0.3-1.1-0.5-1.5-0.7c-0.3-0.1-0.6-0.1-0.8-0.2C50.6,20,50.3,20,50,19.9
											c-0.6-0.1-1.3-0.2-1.9-0.2c-1.3,0-2.2,0.4-2.2,0.3L45.5,19.4z"/>
									</g>
									<path class="st2" d="M45.5,19.4c0,0,0.4-0.1,0.8-0.2c0.6-0.1,1.4-0.3,2.8-0.2c0.7,0.1,1.6,0.1,2.5,0.6
										c0.5,0.1,0.9,0.5,1.4,0.7c0.4,0.3,0.9,0.6,1.3,1c0.4,0.4,0.7,0.7,1.1,1c0.3,0.4,0.6,0.7,0.8,1c0.2,0.3,0.4,0.5,0.5,0.7
										c0.1,0.2,0.2,0.3,0.2,0.3s0.4,0.4,0.9,1.3c0.5,0.9,1.3,2.2,1.7,4.2c0.4,1.9,0.3,4.2-0.4,5.9c-0.6,1.8-1.6,3-2.2,3.7
										c-1.1,1.4-2.3,2.3-4.3,3.9c-1,0.8-2.3,1.5-3.8,1.9c-0.7,0.2-1.5,0.3-2.4,0.2c-0.2,0-0.4-0.1-0.7-0.1
										c-0.2-0.1-0.4-0.1-0.6-0.2c-0.4-0.1-0.7-0.3-1.1-0.5c-2.8-1.4-4.3-3.1-4.3-3.1l0.5-0.5c0,0,0.1,0.2,0.5,0.6
										c0.4,0.4,1,0.9,1.9,1.5c0.6,0.3,1.2,0.7,2,1c0.4,0.1,0.8,0.3,1.2,0.4c0.4,0.1,0.8,0.1,1.2,0.1c1.7-0.2,3.6-0.8,5.2-1.6
										c1.5-0.8,2.7-1.7,3.1-2.2c0.4-0.5,1.2-1.3,1.8-2.5c0.6-1.2,1.1-2.8,1.1-4.3c0-0.8,0-1.6-0.1-2.4c-0.1-0.8-0.2-1.7-0.4-2.5
										c-0.4-1.6-0.9-3.1-1.2-3.9c-0.2-0.4-0.4-0.9-0.7-1.3c-0.3-0.4-0.7-0.9-1.1-1.3c-0.2-0.2-0.4-0.4-0.7-0.6
										c-0.2-0.2-0.5-0.3-0.7-0.5c-0.5-0.3-1.1-0.5-1.5-0.7c-0.3-0.1-0.6-0.1-0.8-0.2C50.6,20,50.3,20,50,19.9
										c-0.6-0.1-1.3-0.2-1.9-0.2c-1.3,0-2.2,0.4-2.2,0.3L45.5,19.4z"/>
									<g>
										<path class="st5" d="M18.9,15.9c0,0-5.8-3.3-10.7,1.6C3.8,21.9-1.4,32.7,8.6,39c10,6.3,12.5-1.2,12.5-1.2L18.9,15.9z"/>
										<path class="st2" d="M18.7,16.2c0,0-0.2-0.2-0.7-0.4c-0.5-0.2-1.4-0.6-2.9-0.7c-0.7,0-1.7,0-2.8,0.3
											c-1.1,0.3-2.1,0.8-3,1.5c-0.8,0.7-1.5,1.4-1.9,2c-0.2,0.3-0.4,0.5-0.5,0.7c-0.1,0.2-0.2,0.3-0.2,0.3s-0.1,0.1-0.2,0.4
											c-0.1,0.2-0.3,0.6-0.5,1c-0.5,0.9-1.1,2.3-1.7,4c-0.6,1.8-1,3.8-1,5.6c0,0.4,0,0.9,0.1,1.3c0.1,0.4,0.2,0.8,0.3,1.2
											C4,34,4.3,34.5,4.5,34.9c0.6,0.7,1,1.5,1.7,2.1c0.6,0.7,1.5,1.3,2.7,1.8c0.6,0.2,1.2,0.5,1.9,0.8c0.7,0.2,1.3,0.5,2.1,0.6
											c1.4,0.4,2.8,0.6,4.2,0.4c0.2,0,0.3-0.1,0.5-0.1c0.2,0,0.3-0.1,0.5-0.2c0.3-0.1,0.6-0.3,0.8-0.4c0.5-0.3,0.9-0.7,1.2-1.1
											c0.3-0.3,0.5-0.7,0.6-0.9c0.1-0.2,0.2-0.3,0.2-0.3l0.7,0.2c0,0,0,0.1-0.1,0.2c-0.1,0.1-0.2,0.3-0.4,0.6
											c-0.4,0.5-0.9,1.3-2,2c-0.6,0.4-1.4,0.7-2.3,0.9c-0.9,0.1-1.8,0.2-2.7,0.1c-2-0.2-4-1.2-5.6-2.2c-0.8-0.5-1.5-1.1-2-1.5
											c-0.5-0.5-0.9-0.9-1.2-1.1c-0.5-0.5-1.4-1.5-2.1-2.9c-0.7-1.4-1.2-3.3-1.2-5.1c0-1.8,0.6-3.9,1.5-5.6
											c0.9-1.7,3.1-4.8,4.7-6.4c0.9-0.9,2.1-1.5,3.3-2c1.2-0.6,3.2-0.7,4.8-0.3c0.8,0.2,1.4,0.4,1.9,0.6
											c0.2,0.1,0.4,0.2,0.5,0.2c0.1,0.1,0.2,0.1,0.2,0.1L18.7,16.2z"/>
									</g>
									<g>
										<path class="st1" d="M35.5,6.3c6.7,1.1,12.7,14,9.2,26c-3.5,12-7.3,13.3-15.9,12.2c-4.7-0.6-13.6-8.1-13.8-17.7
											C14.8,17.2,23.3,4.2,35.5,6.3z"/>
									</g>
									<g>
										<path class="st5" d="M24.5,9.9c0,0-0.7,7.5,5.5,11c6.2,3.5,15.6,0.4,15.6,0.4S43,9.3,36.5,7.4C30,5.5,25,8.5,25,8.5
											L24.5,9.9z"/>
									</g>
									<path class="st2" d="M27.4,7.4c0,0-0.1,0.1-0.2,0.4c-0.1,0.3-0.2,0.8-0.2,1.5c0,0.7,0.3,2,0.7,3.1c0.4,1,0.9,1.8,0.9,1.8
										s0.1,0.1,0.1,0.2c0.1,0.1,0.2,0.3,0.4,0.5c0.3,0.4,0.8,0.9,1.4,1.6c0.6,0.6,1.3,1.3,2.1,1.8c0.4,0.3,0.8,0.5,1.1,0.6
										c0.4,0.2,0.7,0.3,0.9,0.3c0.9,0.2,1.7,0.5,3.1,0.3c1.4-0.2,3-0.5,4.6-0.2c1.6,0.3,2.8,0.4,2.8,0.4l0.1,0.8
										c0,0-0.6-0.1-1.8-0.2c-0.7,0-1.6-0.1-2.6,0c-2,0.2-4.5-0.3-5.2-0.4c-0.7,0-2.6-0.2-4.4-0.9c-0.2-0.1-0.4-0.2-0.7-0.4
										c-0.1-0.1-0.2-0.1-0.3-0.2c-0.1-0.1-0.2-0.2-0.3-0.3c-0.2-0.2-0.4-0.4-0.6-0.6c-0.1-0.2-0.3-0.4-0.4-0.6
										c-0.5-0.9-1-1.4-1.1-1.9c-0.5-1.4-0.9-2.4-1.5-3.7c-0.3-0.6-0.2-1.7-0.1-2.5c0-0.4,0.1-0.7,0.2-1c0.1-0.2,0.1-0.4,0.1-0.4
										L27.4,7.4z"/>
									<path class="st2" d="M30,7.1c0,0-0.2,0.4,0.1,1.5c0.2,0.5,0.6,1.5,1.1,2.2c0.5,0.7,0.9,1.3,0.9,1.3s0.2,0.1,0.5,0.4
										c0.3,0.3,0.7,0.8,1.1,1.3c0.4,0.6,0.8,1.2,1.3,1.7c0.5,0.5,1.1,0.9,1.5,0.9c0.7,0.2,1.3,0.5,2.4,0.3
										c1.1-0.2,2.3-0.5,3.6-0.1c1.2,0.3,2.1,0.5,2.1,0.5l0,0.8c0,0-0.5-0.2-1.4-0.3c-0.6-0.1-1.3-0.1-2-0.1
										c-1.5,0.2-3.5-0.4-4-0.5c-0.3,0-0.8-0.1-1.4-0.2c-0.6-0.1-1.4-0.3-2-0.8c-0.7-0.4-1.2-1.2-1.5-1.9
										c-0.3-0.7-0.4-1.4-0.5-1.8c-0.1-0.8-1-1.6-1.7-2.4c-0.4-0.4-0.6-1.1-0.7-1.7c-0.1-0.6-0.1-1.1-0.1-1.1L30,7.1z"/>
									<path d="M34.3,7.1c0,0-0.3,0.3-0.2,1c0.1,0.4,0.4,1,0.7,1.4c0.3,0.5,0.6,0.8,0.6,0.8s0.2,0.1,0.4,0.2
										c0.2,0.2,0.5,0.4,0.7,0.8c0.2,0.4,0.4,0.8,0.7,1.2c0.3,0.4,0.6,0.7,0.8,0.7c0.5,0.1,0.8,0.4,1.5,0.2
										c0.7-0.2,1.5-0.5,2.3-0.1c0.7,0.3,1.3,0.5,1.3,0.5l0.1,0.8c0,0-0.1,0-0.2-0.1c-0.2-0.1-0.4-0.1-0.7-0.2
										c-0.4-0.1-0.8-0.1-1.3-0.1c-1,0.2-2.2-0.4-2.6-0.4c-0.2,0-0.5,0-0.9-0.1c-0.4-0.1-0.9-0.2-1.4-0.5c-0.4-0.3-0.8-0.8-1-1.3
										c-0.2-0.5-0.2-1-0.2-1.2c0-0.5-0.7-1-1.3-1.5c-0.3-0.3-0.4-0.8-0.4-1.2c0-0.2,0-0.4,0.1-0.5c0-0.1,0.1-0.2,0.1-0.2
										L34.3,7.1z"/>
									<path class="st2" d="M46.3,19.7c0,0,0.1,0.6,1.1,1.9c0.5,0.7,1.4,1.8,2.2,2.8c0.8,1,1.3,1.9,1.3,1.9s0.2,0.3,0.6,0.8
										c0.3,0.6,0.8,1.4,0.9,2.7c0,0.3,0.1,0.6,0,1c0,0.3-0.1,0.7-0.1,0.9c-0.1,0.6-0.3,1.1-0.4,1.7c-0.3,1.1-0.7,1.9-0.8,2.5
										c-0.1,0.5-0.3,1-0.4,1.5c-0.2,0.5-0.5,1-0.8,1.8c-0.3,0.7-0.7,1.5-1.2,2.3c-0.6,0.7-1.3,1.4-2.2,1.8
										c-0.9,0.4-1.8,0.5-2.3,0.6c-0.6,0-0.9,0-0.9,0l0-0.8c0,0,0.1,0,0.4,0.1c0.2,0,0.3,0,0.6,0c0.2,0,0.5-0.1,0.8-0.2
										c0.7-0.2,1.6-0.7,2.3-1.5c0.7-0.8,1.5-1.7,2.1-2.6c0.3-0.4,0.6-0.8,0.8-1.2c0-0.1,0.1-0.2,0.1-0.2c0,0,0.1-0.1,0.1-0.2
										c0-0.1,0.1-0.3,0.1-0.3c0.2-0.7,0.4-2.8,0.4-4.7c0-0.2,0-0.5,0-0.8c0-0.3,0-0.5,0-0.7c0-0.2,0-0.5,0-0.7
										c0-0.3,0-0.5-0.1-0.8c-0.1-1-0.3-1.9-0.4-2.5c-0.2-1.1-1.4-2.3-2.5-3.2c-0.6-0.5-1.1-1.3-1.5-2c-0.4-0.7-0.7-1.3-0.7-1.3
										L46.3,19.7z"/>
									<path class="st2" d="M52.1,28.9c0,0-0.1,0.1-0.2,0.2c-0.1,0.1-0.2,0.4-0.2,0.7c0,0.3,0,0.9,0,1.5c0,0.5-0.1,1-0.1,1
										s0,0.2,0,0.5c0,0.3-0.2,0.7-0.5,1.1c-0.4,0.4-1,0.7-1.5,0.8c-0.5,0.1-0.9,0.1-1.1,0.2c-0.4,0.2-0.8,0.1-1.3,0.6
										c-0.5,0.5-1.3,1-2.2,0.7c-0.4-0.2-0.8-0.4-1-0.7c-0.2-0.3-0.1-0.5-0.1-0.6l0.8,0.1c0-0.1,0-0.1-0.1-0.1
										c-0.1,0-0.1,0.2,0.1,0.3c0.2,0.1,0.7,0.2,1,0c0.8-0.3,2-0.4,2.2-0.6c0.3-0.2,1-0.6,1.4-1.2c0.2-0.3,0.6-0.5,0.9-0.7
										c0.3-0.2,0.7-0.5,0.9-0.6c0.4-0.3,0.2-1.1-0.1-1.7c-0.1-0.3-0.1-0.7,0-1c0.1-0.3,0.2-0.6,0.2-0.5L52.1,28.9z"/>
									<path class="st2" d="M15.9,20c0,0,0,0,0-0.1c0-0.1-0.1-0.2-0.2-0.4c-0.2-0.3-0.7-0.9-1.6-1.2c-0.5-0.1-1.2-0.1-1.9,0.1
										c-0.7,0.2-1.4,0.7-1.9,1.1c-0.3,0.2-0.5,0.5-0.7,0.7C9.3,20.5,9.1,20.8,9,21c-0.3,0.4-0.4,0.6-0.4,0.6s-0.1,0.4-0.5,1
										c-0.3,0.6-0.7,1.5-1.2,2.7c-0.5,1.2-1,2.4-1.2,3.6c-0.3,1.2-0.2,2.3,0.1,2.9c0.5,1.2,0.8,2.2,2.2,3.4
										c1.4,1.2,3.1,2.4,4.6,3.7c0.8,0.7,1.5,1.2,2.1,1.5c0.6,0.3,0.9,0.5,0.9,0.5l-0.3,0.7c0,0-0.2-0.1-0.5-0.3
										c-0.2-0.1-0.4-0.2-0.7-0.4c-0.3-0.2-0.6-0.3-0.9-0.6c-0.8-0.5-1.8-1.2-2.8-1.9c-1.1-0.7-2.1-1.8-2.9-2.9
										c-0.8-1-1.2-2-1.5-2.4c-0.2-0.4-0.7-1.1-1-2.2c-0.3-1.1-0.4-2.4-0.3-3.6c0.1-1.2,0.7-2.6,1.4-3.7c0.7-1.1,1.5-1.9,2-2.3
										c0.5-0.4,1-1,1.6-1.7c0.6-0.7,1.3-1.3,2.1-1.8c0.4-0.2,1-0.4,1.7-0.4c0.7,0,1.4,0.2,1.9,0.5c0.5,0.3,0.9,0.7,1.1,1
										c0.2,0.3,0.3,0.5,0.3,0.6L15.9,20z"/>
									<path class="st2" d="M14.9,24.7c0,0,0-0.1-0.1-0.3c-0.1-0.2-0.4-0.4-1-0.4c-0.5-0.1-1.4,0.2-2,0.7
										c-0.3,0.2-0.5,0.5-0.7,0.7c-0.2,0.2-0.3,0.3-0.3,0.3s-0.1,0.2-0.3,0.5c-0.2,0.3-0.5,0.7-1,1.1c-0.5,0.4-1,0.8-1.4,1.2
										c-0.4,0.4-0.8,1-0.8,1.3c-0.1,0.6-0.3,1.2,0.2,2c0.5,0.8,1.2,1.6,1.4,2.7c0.2,1.1,0.5,1.8,0.5,1.8l-0.7,0.4
										c0,0-0.1-0.4-0.3-1.2c-0.2-0.5-0.4-1-0.7-1.6c-0.4-0.6-0.6-1.3-0.7-2c-0.1-0.7-0.1-1.3-0.1-1.5c0-0.5,0-1.9,0.6-3.1
										c0.3-0.6,0.9-1.1,1.5-1.4c0.6-0.3,1.2-0.5,1.5-0.6c0.7-0.2,1.1-1.1,2.1-1.8c0.5-0.3,1.3-0.3,1.9-0.1c0.6,0.2,0.9,0.6,1,0.7
										L14.9,24.7z"/>
									<path class="st2" d="M15.3,30.3c0,0,0-0.1-0.2-0.2c-0.2-0.1-0.6-0.2-1.1-0.1c-0.6,0.1-1.5,0.6-1.9,1.3
										c-0.2,0.3-0.4,0.7-0.5,0.9c-0.1,0.2-0.1,0.4-0.1,0.4s0,0.2,0,0.6c-0.1,0.6-0.1,1-0.2,1.5c-0.1,0.6-0.2,1.1,0.1,1.8
										c0.2,0.6,0.6,1.2,0.8,1.4c0.6,0.4,1,0.9,2,0.9c0.5,0,1-0.1,1.5-0.2c0.2-0.1,0.4-0.1,0.7-0.2c0.3-0.1,0.5-0.1,0.8-0.1
										c0.6,0,1.1-0.2,1.4-0.3c0.3-0.1,0.5-0.2,0.5-0.2l0.5,0.6c0,0-0.5,0.2-1.4,0.5c-0.5,0.2-1.2,0.3-1.8,0.6
										c-0.8,0.3-1.7,0.1-2.4-0.2c-0.7-0.3-1.2-0.6-1.4-0.7c-0.5-0.2-1.8-0.8-2.6-2.3c-0.4-0.8-0.3-1.7,0-2.4
										c0.3-0.7,0.8-1.2,1-1.5c0.5-0.5,0.7-1.6,1.6-2.5c0.4-0.4,1.2-0.7,1.9-0.6c0.7,0.1,1.1,0.3,1.2,0.3L15.3,30.3z"/>
									<path class="st6" d="M29.9,24.7c0.1,1.1-0.1,2.3-0.2,3.4c0,0.3,0.5,0.4,0.5,0c0.2-1.2,0.3-2.4,0.2-3.6
										c0-0.1-0.2-0.2-0.3-0.2C29.9,24.4,29.9,24.5,29.9,24.7L29.9,24.7z"/>
									<g>
										<g>
											<g>
												<g>
													<g>
														<path class="st7" d="M44.5,17.1"/>
													</g>
												</g>
												<g>
													<g>
														<path class="st7" d="M29.8,6.9"/>
													</g>
												</g>
												<path d="M34.3,6.8c0,0-0.3,0.3-0.2,1c0.1,0.4,0.4,1,0.7,1.4c0.3,0.5,0.6,0.8,0.6,0.8s0.2,0.1,0.4,0.2
													c0.2,0.2,0.5,0.4,0.7,0.8c0.2,0.4,0.4,0.8,0.7,1.2c0.3,0.4,0.6,0.7,0.8,0.7c0.5,0.1,0.8,0.4,1.5,0.2
													c0.7-0.2,1.5-0.5,2.3-0.1c0.7,0.3,1.3,0.5,1.3,0.5l0.1,0.8c0,0-0.1,0-0.2-0.1c-0.2-0.1-0.4-0.1-0.7-0.2
													c-0.4-0.1-0.8-0.1-1.3-0.1c-1,0.2-2.2-0.4-2.6-0.4c-0.2,0-0.5,0-0.9-0.1c-0.4-0.1-0.9-0.2-1.4-0.5
													c-0.4-0.3-0.8-0.8-1-1.3c-0.2-0.5-0.2-1-0.2-1.2c0-0.5-0.7-1-1.3-1.5c-0.3-0.3-0.4-0.8-0.4-1.2c0-0.2,0-0.4,0.1-0.5
													c0-0.1,0.1-0.2,0.1-0.2L34.3,6.8z"/>
											</g>
										</g>
									</g>
									<g>
										<path class="st2" d="M45.6,19.6c0,0,4.2-3.2,10.1,2.5c4.8,4.6,4.2,7,4,10.9c-0.2,4-3.8,10.9-11.1,11.9l0.1-0.8
											c0,0,8.9-3,9.6-11.4C58.8,24.3,52,18.3,45.6,19.6z"/>
									</g>
									<g class="st3">
										<path class="st4" d="M45.5,21.7c0,0,0.4,7.2-1.1,13.2c-2.3,9.3-8.6,10.5-14.7,9.3c0,0,6,0.3,9.6-4.9
											c1.7-2.4,3.4-5.3,3.7-9.7c0.3-4.3-0.1-3.7-0.2-4.3c0,0-6.6-0.2-10.8-2c-4.8-2.1-5.7-4.2-6.3-6.9c0,0,1.5,4.3,7.8,5.6
											C39.9,23.2,45.5,21.7,45.5,21.7z"/>
									</g>
									<path class="st2" d="M35.5,6.4c0,0,0.1,0.1,0.4,0.2c0.1,0.1,0.3,0.1,0.5,0.2c0.1,0,0.2,0.1,0.4,0.1C36.9,6.9,37,7,37.1,7.1
										c1.1,0.6,2.9,1.8,4.7,4.3c0.5,0.6,0.9,1.4,1.5,2.3c0.2,0.5,0.5,0.9,0.7,1.4c0.2,0.5,0.4,1,0.7,1.6c0.8,2.2,1.4,4.7,1.6,7
										c0.3,2.4,0,4.5-0.2,6.1c-0.2,0.8-0.3,1.4-0.4,1.9c-0.1,0.4-0.2,0.7-0.2,0.7s-0.1,0.3-0.2,0.9c-0.2,0.6-0.3,1.5-0.7,2.6
										c-0.4,1.1-0.9,2.5-1.8,4c-0.8,1.5-3.7,6.3-11.2,5.8c-6.3-0.8-9.1-3.6-10.3-4.8c-1.1-1.2-2-2.3-2.6-3.1
										c-1.2-1.6-2.1-3.3-2.8-5.2c-0.7-1.9-1.2-4.1-1.2-7c0-2.9,0.8-6.1,2.3-9.1c1.5-3,3.8-5.9,6.8-7.7c3.6-2.4,6-2.5,8.2-2.5
										c1.1,0,1.9,0.1,2.5,0.2C35.2,6.3,35.5,6.4,35.5,6.4l-0.1,0.8c0,0-0.1,0-0.4-0.1c-0.3-0.1-0.7-0.2-1.3-0.2
										c-1.2-0.1-3.1-0.2-5.5,0.6c-1.4,0.5-2.9,1.2-4.4,2.3c-1.4,1.1-3.1,2.7-4.2,4.3c-2.7,4.5-4.4,10-3.5,14.8
										c1.3,7.1,6.3,11.8,8.5,13.3c2.9,2,11.9,3.7,16.2-1.8c6.7-8.9,4.2-20.2,3.2-22.6c-0.5-1.2-1-2.6-1.8-4
										c-0.8-1.4-1.5-2.6-2.5-3.7c-1-1.1-2.1-1.8-3-2.2c-0.2-0.1-0.4-0.2-0.6-0.2c-0.2-0.1-0.3-0.1-0.4-0.1
										c-0.2-0.1-0.4-0.1-0.4-0.1L35.5,6.4z"/>
									<path class="st2" d="M25.2,8.5c0,0-0.1,0.3-0.2,1c-0.1,0.7-0.2,1.8,0,3.5c0.1,0.8,0.4,2,0.9,3.1c0.5,1.2,1.3,2.3,2.2,3.2
										c0.5,0.4,0.9,0.8,1.4,1c0.2,0.1,0.5,0.3,0.7,0.4c0.2,0.1,0.4,0.2,0.6,0.3c0.2,0.1,0.4,0.1,0.5,0.2c0.2,0,0.3,0.1,0.4,0.1
										c0.2,0.1,0.3,0.1,0.3,0.1s2.5,0.6,6.9,0.3c2.1-0.1,4.5-0.4,6.5-0.8l-0.3,0.5c-0.3-2.2-0.8-4.2-1.2-5.2
										c-0.4-1-0.8-1.9-1.3-2.9c-0.5-1-1.2-2-2.3-3c-1.1-1-2.5-1.9-4.1-2.3c-1.7-0.4-3.4-0.5-5.2-0.6c-1.7,0-3.2,0.3-4.3,0.6
										c-0.5,0.1-0.9,0.3-1.2,0.4c-0.3,0.1-0.4,0.2-0.4,0.2l0.1-0.2C25.2,8.5,25.2,8.5,25.2,8.5c0,0-0.6-0.2-0.6-0.1l0.2-0.2
										c0,0,0.5-0.3,1.2-0.6c0.6-0.2,1.3-0.5,2.7-0.8c1.6-0.3,3.7-0.4,5.8-0.2C35.6,6.8,36.8,7,38,7.6c0.5,0.3,1.1,0.6,1.5,1
										c0.2,0.2,0.5,0.4,0.7,0.6c0.2,0.2,0.4,0.4,0.6,0.6c1.5,1.7,2.2,3.4,2.6,4.1c0.6,1.1,1.9,3.7,2.9,7.3l0.1,0.5l-0.6,0.2
										c-0.4,0.1-1.2,0.4-2,0.6c-2,0.5-4.4,0.7-6.5,0.6c-4.7-0.3-7.9-0.9-10.6-4.3c-1.9-2.3-2.8-5.2-2.9-7.2c-0.1-1.1,0-2.6,0-2.6
										L25.2,8.5z"/>
									<g class="st8">
										<path class="st9" d="M45.7,19.3c0,0,4.5-0.3,6.9,1.4c2.4,1.7,5.7,5.5,5.9,10.1c0.2,4.8-2.5,9.1-5.5,10.8
											c0,0-2.8,3.5-8.7,2.5c-3-0.5-3.1-2.3-3.1-2.3s9.1,5.1,14.1-7.7C58.2,26.4,51.9,19.8,45.7,19.3z"/>
									</g>
									<path class="st2" d="M46,19.3c0,0,0.1,0.1,0.4,0.3c0.3,0.2,0.8,0.5,1.5,0.9c0.8,0.4,2.1,1,3.3,1.6c1.1,0.6,2,1.3,2,1.3
										s0.1,0,0.2,0.1c0.1,0.1,0.4,0.2,0.6,0.4c0.3,0.2,0.6,0.5,0.9,0.9c0.2,0.2,0.3,0.4,0.5,0.6c0.1,0.2,0.3,0.5,0.5,0.8
										c0.2,0.3,0.3,0.6,0.4,0.9c0.1,0.3,0.2,0.6,0.3,0.9c0,0.3,0.1,0.6,0.1,1c0,0.2,0,0.3,0,0.5l0,0.5c-0.1,1.2-0.3,2.1-0.4,2.7
										c-0.1,1.1-0.4,2-0.5,3.6c-0.1,1.6-0.6,3.6-1.8,5.1c-0.6,0.7-1.2,1.3-1.7,1.7c-0.4,0.4-0.7,0.6-0.7,0.6L51.1,43
										c0,0,0.1-0.1,0.4-0.3c0.3-0.2,0.6-0.5,1.1-1.1c0.5-0.6,1.1-1.5,1.5-2.4c0.4-1,0.8-2.2,1.2-3.2c0.3-1,0.5-1.9,0.5-2.3
										c0-0.8,0.2-3-0.4-4.7c-0.2-0.9-0.7-1.9-1.1-2.9c-0.2-0.5-0.5-0.9-0.7-1.3c-0.2-0.4-0.4-0.7-0.6-0.9c-0.6-1-2.3-1.6-3.7-2
										c-0.7-0.2-1.6-0.7-2.3-1.1c-0.6-0.3-1.3-0.8-1.3-0.8L46,19.3z"/>
									<g class="st8">
										<path class="st9" d="M17.6,15.5c0,0-2.4,4.4-2.7,8.9c-0.3,4.5,1.1,9.4,4,13.3l1.1,1.5l-1.5,1.2c0,0-3.9-4-5.1-8.6
											C12,26.9,13,18.1,17,15.1L17.6,15.5z"/>
									</g>
									<g>
										<g>
											<path d="M34.6,6.7c0,0-0.3,0.3-0.2,1c0.1,0.4,0.4,1,0.7,1.4c0.3,0.5,0.6,0.8,0.6,0.8s0.2,0.1,0.4,0.2
												c0.2,0.2,0.5,0.4,0.7,0.8c0.2,0.4,0.4,0.8,0.7,1.2c0.3,0.4,0.6,0.7,0.8,0.7c0.5,0.1,0.8,0.4,1.5,0.2
												c0.7-0.2,1.5-0.5,2.3-0.1c0.7,0.3,1.3,0.5,1.3,0.5l0.1,0.8c0,0-0.1,0-0.2-0.1c-0.2-0.1-0.4-0.1-0.7-0.2
												c-0.4-0.1-0.8-0.1-1.3-0.1c-1,0.2-2.2-0.4-2.6-0.4c-0.2,0-0.5,0-0.9-0.1c-0.4-0.1-0.9-0.2-1.4-0.5
												c-0.4-0.3-0.8-0.8-1-1.3c-0.2-0.5-0.2-1-0.2-1.2c0-0.5-0.7-1-1.3-1.5c-0.3-0.3-0.4-0.8-0.4-1.2c0-0.2,0-0.4,0.1-0.5
												c0-0.1,0.1-0.2,0.1-0.2L34.6,6.7z"/>
										</g>
									</g>
									<g>
										<path class="st10" d="M39.8,17.4c3,1.5,5.6,2,5.6,2l4.1-6.2L33.1,0.8l-4.9,5.9c0,0,2.5,5.3,7.3,8.4
											C36.9,16.1,38.4,16.9,39.8,17.4"/>
									</g>
									<g>
										<path d="M32.7,0.6C32.7,0.6,32.7,0.6,32.7,0.6C32.8,0.6,32.8,0.6,32.7,0.6L32.7,0.6z"/>
										<path class="st2" d="M49.8,13c-0.2-0.4-1.2-1.3-1.9-1.9c-1.6-1.5-6-4.9-9.2-7.1c-2.2-1.5-4.7-3.2-5.5-3.5
											c-0.2-0.1-0.4-0.1-0.5,0c-0.1,0.1-5.2,6.2-5.2,6.2s2.5,4.2,4,5.7c1.4,1.4,5.3,4.4,7,5.1c0.6,0.2,0.9,0.5,0.9,0.5l0,0
											c0,0,3.2,1.6,6.1,2c0,0,1.3-1.7,1.6-2.3c0.8-1.5,2.6-4.3,2.6-4.4C49.9,13.2,49.9,13.1,49.8,13z M45.1,19.1
											c0,0-0.6,0-1.3-0.2c-5.5-1.8-7.7-3.8-9-4.9C31.7,11.4,28.6,7,28.6,7c1.5-2,4.1-5.1,4.7-5.8c0,0,4.9,4.5,8.1,6.9
											c3.6,2.7,7.3,5,7.3,5L45.1,19.1z"/>
									</g>
									<path class="st11" d="M42.2,10.3c0,0,3,2.1,4.6,2.7c0,0-1.9,5.5-5.1,3.6C38.6,14.8,42.2,10.3,42.2,10.3z"/>
									<g>
										<path class="st12" d="M46.7,11.6c0,0,2.2,1.4,2.6,1.6l-4,6.3c0,0-2.7-0.5-3.9-1.1C41.4,18.3,45.4,14.7,46.7,11.6z"/>
									</g>
									<path class="st13" d="M42.1,10.2c0,0,3,2.1,4.6,2.7c0,0-1.9,5.5-5.1,3.6C38.5,14.7,42.1,10.2,42.1,10.2z"/>
									<g>
										<g>
											<g>
												<g>
													<path class="st14" d="M44.7,13.8c-0.1,0.1-0.2,0.2-0.3,0.3c-0.1,0.1-0.3,0.1-0.5,0.1l0,0c0.1,0.1,0.1,0.1,0.2,0.2
														c0,0.1,0.1,0.2,0.1,0.2c0,0.1,0,0.2,0,0.3c0,0.1,0,0.2-0.1,0.3c0,0.1-0.1,0.2-0.2,0.2c-0.1,0.1-0.2,0.1-0.3,0.2
														c-0.1,0-0.2,0.1-0.4,0.1c-0.1,0-0.3,0-0.5,0c0,0-0.1,0-0.1,0c-0.1,0-0.1,0-0.2-0.1c-0.1,0-0.1-0.1-0.2-0.1
														c-0.1,0-0.1-0.1-0.2-0.1l-0.9-0.5l1.7-3.1l1.1,0.6c0.2,0.1,0.4,0.3,0.5,0.4c0.1,0.1,0.2,0.2,0.2,0.3
														c0,0.1,0.1,0.2,0.1,0.3c0,0.1,0,0.2,0,0.3C44.8,13.6,44.7,13.7,44.7,13.8z M42.5,13.8L42,14.7l0.4,0.2
														c0.1,0.1,0.2,0.1,0.3,0.1c0.1,0,0.1,0.1,0.2,0.1c0.1,0,0.2,0,0.2,0c0.1,0,0.1,0,0.2,0c0.1,0,0.1,0,0.1-0.1
														c0,0,0.1-0.1,0.1-0.1c0-0.1,0.1-0.2,0.1-0.3c0-0.1-0.1-0.2-0.1-0.3c0,0-0.1-0.1-0.1-0.1c-0.1,0-0.1-0.1-0.2-0.1
														L42.5,13.8z M43.3,13.6c0.2,0.1,0.3,0.1,0.4,0.1c0.1,0,0.2,0,0.3,0c0.1,0,0.1-0.1,0.2-0.2c0-0.1,0.1-0.2,0.1-0.3
														c0-0.1-0.1-0.2-0.1-0.3c0,0-0.1-0.1-0.1-0.1c-0.1,0-0.1-0.1-0.2-0.1l-0.5-0.3l-0.4,0.8L43.3,13.6z"/>
												</g>
											</g>
										</g>
									</g>
									<path class="st15" d="M22.4,22.2c1.2-0.3,3.1,0.1,4,0.9c0.1,0.1,0.3-0.1,0.1-0.2c-1-0.9-3-1.2-4.2-0.9
										C22.2,22,22.2,22.2,22.4,22.2L22.4,22.2z"/>
									<path class="st15" d="M39.9,23.4c-1.2-0.4-3.1-0.4-4.2,0.3c-0.1,0.1,0,0.3,0.2,0.2c1-0.7,2.9-0.7,4-0.3
										C40,23.7,40.1,23.5,39.9,23.4L39.9,23.4z"/>
									<g class="st16">
										<path class="st17" d="M26.1,30.3c-0.1,1.1-1.9,1.8-3.9,1.6c-2-0.2-3.6-1.3-3.4-2.4c0.1-1.1,1.9-1.8,3.9-1.6
											C24.7,28.1,26.3,29.2,26.1,30.3z"/>
									</g>
									<g class="st16">
										<path class="st18" d="M24.9,30.1c-0.1,0.7-1.2,1.2-2.6,1C21,31,20,30.3,20.1,29.6c0.1-0.7,1.2-1.2,2.6-1
											C23.9,28.7,24.9,29.4,24.9,30.1z"/>
									</g>
									<g class="st16">
										<path class="st17" d="M42.8,31.3c-0.1,1.1-1.9,1.8-3.9,1.6c-2-0.2-3.6-1.3-3.5-2.4c0.1-1.1,1.9-1.8,3.9-1.6
											C41.4,29.1,43,30.1,42.8,31.3z"/>
									</g>
									<g class="st16">
										<path class="st18" d="M41.6,31.1c-0.1,0.7-1.2,1.2-2.6,1.1c-1.3-0.2-2.4-0.9-2.3-1.6c0.1-0.7,1.2-1.2,2.6-1
											C40.6,29.7,41.6,30.4,41.6,31.1z"/>
									</g>
								</g>
								<path d="M29.1,44.4"/>
							</g>
							<g>
								<path class="st19" d="M36.3,27.7C36.3,27.7,36.3,27.8,36.3,27.7C36.3,27.7,36.3,27.7,36.3,27.7c0.1-0.2,0.2-0.3,0.3-0.4
									c0.2-0.2,0.5-0.5,0.8-0.6c0.9-0.4,1.8,0.2,2.3,0.9c0.2,0.2,0.3,0.4,0.4,0.7c0.2,0.4,0.8,0.1,0.7-0.3
									c-0.3-0.8-0.9-1.5-1.6-1.8c-1-0.5-2.2-0.2-3,0.6c-0.2,0.2-0.4,0.4-0.5,0.7c-0.1,0.2,0,0.4,0.2,0.5
									C36,28,36.2,27.9,36.3,27.7L36.3,27.7z"/>
								<path class="st19" d="M25.7,26.6c-0.2-0.7-0.6-1.4-1.2-1.8c-1-0.6-2.3-0.3-3.2,0.4c-0.2,0.2-0.5,0.4-0.6,0.6
									c-0.3,0.4,0.3,0.8,0.6,0.4c0,0,0.1-0.1,0.1-0.1c0,0,0.1-0.1,0.1-0.1c0,0,0,0,0,0c0,0,0.1-0.1,0.1-0.1c0.3-0.3,0.6-0.5,1-0.6
									c0.9-0.3,1.8,0.1,2.2,0.8c0.1,0.1,0.1,0.3,0.2,0.5c0,0,0,0.1,0,0.1c0,0.1,0-0.1,0,0c0,0,0,0,0,0.1
									C25.1,27.1,25.8,27,25.7,26.6L25.7,26.6z"/>
							</g>
							<g>
								<g>
									<path class="st2" d="M25.8,34.2c2.5,2.3,7.5,3,9.4-0.4c0.3-0.6-0.6-1.1-0.9-0.5c-1.6,2.7-5.8,2-7.8,0.2
										C26,33,25.3,33.8,25.8,34.2L25.8,34.2z"/>
								</g>
							</g>
						</g>
					</g>
				</g>
			</g>
			<g>
				<g>
					<g>
						<g>
							<g>
								<path class="st10" d="M24.3,53.2L20,73.9c0,0-1.9-7.5-3.3-10c-1.4-2.6-2-3.6-2-3.6s1.4-3.1,2.7-3.4
									C18.7,56.7,24.3,53.2,24.3,53.2z"/>
							</g>
							<g>
								<path class="st10" d="M45.8,76.3l-1.5-20.1c0-1.7-2.4-4.1-4.5-4.1l-17-0.2l-5.1,4.8l-1,19.5L45.8,76.3z"/>
							</g>
							<g>
								<g>
									<g>
										<g>
											<path class="st20" d="M16.5,76.4c0,0,0.4-2.1,0.7-7.6c0.2-2.7,0.2-7.3,0.3-11.4l0-0.1l0-0.1c2.1-2.4,4-4.6,4.9-5.6
												l0.1-0.1l0.2,0c0.6,0,0.9-0.1,0.9-0.1s4.4-0.6,12.2-0.7c1,0,1.9,0,2.9,0c0.5,0,0.9,0,1.6,0.1c0.6,0.1,1.2,0.4,1.7,0.7
												c1,0.6,1.7,1.4,2.3,2.4c0.3,0.5,0.5,1,0.5,1.6c0,0.6,0,1,0,1.4c0,3.6,0,6.8,0.2,8.6c0.3,3.4,0.3,6.2,0.9,10.8l0,0.2
												l-0.2,0c-0.3,0-0.6,0-1,0.1c-5.1,0.4-11.9,0.7-17.9,0.3C20.9,76.6,16.5,76.4,16.5,76.4l0.7-0.6c0,0,2,0.1,6.5,0.2
												c2.7,0.1,6.1,0.1,9.6,0c4.1-0.2,8.8-0.1,12.6-0.1l-0.5,0.5c-0.2-3.2-0.3-5.7-0.5-6.9c-0.1-1.3-0.4-3.7-0.7-6.7
												c-0.1-1.5-0.3-3.1-0.5-4.7c-0.1-0.8-0.2-1.6-0.2-2.4c-0.1-0.6-0.5-1.2-1-1.7c-0.5-0.5-1.1-1-1.8-1.3
												c-0.3-0.1-0.6-0.2-1-0.2c-0.5,0-0.9,0-1.4,0c-1.8,0-3.7-0.1-5.5-0.1c-3.6-0.1-6.7-0.3-8.6-0.4c-0.5,0-1,0-1.5,0l0,0
												c-1.5,1.5-3.2,3.5-4.9,5.6l0.1-0.2c0.1,1.6,0.1,3.3,0.2,4.9c0.1,2.3-0.2,5.6-0.5,8.4c-0.3,2.7-0.6,5.1-0.6,5.1L16.5,76.4
												z"/>
										</g>
									</g>
								</g>
							</g>
							<g>
								<path class="st10" d="M24.3,53.2L20,73.9c0,0-1.9-7.5-3.3-10c-1.4-2.6-2-3.6-2-3.6s1.4-3.1,2.7-3.4
									C18.7,56.7,24.3,53.2,24.3,53.2z"/>
							</g>
							<g>
								<g>
									<g>
										<g>
											<path class="st20" d="M24.4,53.1c0,0-0.4,1.2-1,3.8c-0.3,1.3-0.7,3.5-0.9,5.5c-0.3,2-0.4,3.7-0.4,3.7s0,0.5,0,1.5
												c-0.1,1-0.2,2.5-0.7,4.5c-0.2,0.7-0.4,1.4-0.6,2.2l-1.8,0c-0.5-3.1-0.8-6.2-1.3-7.6c-0.3-0.8-0.5-1.6-0.9-2.4
												c-0.4-0.8-1-1.6-1.7-2.6c-0.3-0.3-0.5-0.7-0.8-1l-0.1-0.1l0.1-0.3c0.4-1.1,0.8-2.2,1.8-3.3c0.3-0.3,0.6-0.5,1.1-0.7
												c0.2-0.1,0.4-0.2,0.7-0.3c0.5-0.2,1.1-0.5,1.7-0.7c1.4-0.5,2.5-1.1,3.4-1.5c0.4-0.2,0.8-0.4,1-0.5
												c0.1-0.1,0.2-0.1,0.3-0.1C24.1,53.1,24.3,53,24.4,53.1C24.4,53,24.4,53.1,24.4,53.1c-0.2,0.3-0.4,0.5-0.5,0.8
												c0,0,0.1,0.2,0.5,0.1c0.1,0,0.2-0.1,0.2-0.1l0,0c0,0-0.1,0-0.1,0c-0.1,0.1-0.3,0.1-0.6,0.2c-0.5,0.2-1.3,0.6-2.3,1.1
												c-0.6,0.3-1.3,0.7-2,1c-0.7,0.4-1.4,0.8-2.3,1.1c-0.4,0.2-0.9,0.8-1.3,1.4c-0.4,0.6-0.7,1.2-1,1.8l0-0.5
												c1.1,2,2,3.8,2.4,4.5c0.6,1.2,1.9,4.4,2.9,7.5c0.2,0.5,0.3,1,0.4,1.6l-1.7,0c0.6-2.7,1.8-5.8,2.4-7.4
												c0.6-1.8,0.6-4.3,0.8-6.1c0.1-1,0.5-2.5,0.9-3.9c0.4-1.2,0.7-2.6,0.7-2.6L24.4,53.1z"/>
										</g>
									</g>
								</g>
							</g>
							<g>
								<path class="st21" d="M28.6,51.7l6.7,0.3c0,0-0.2,1.6-0.3,4.9c-0.2,5.6,0.2,13.4-2.6,16c-4.5,4-14.5,1.7-14.5,1.7l0.6-17.7
									c0.3-2.9,3.5-4.6,4.8-5.2L28.6,51.7"/>
							</g>
							<g>
								<path class="st20" d="M15,60.3l4.5,10.6l0.2-1.9c0,0-3.7-8.4-4.2-8.9C14.9,59.5,15,60.3,15,60.3z"/>
							</g>
							<path class="st22" d="M23.2,52c0,0-3.3,1.1-4,4.7c-0.7,3.6-0.9,14.5-0.4,17.4l2.2,0.7c0,0-0.6-1.2-0.7-5.9
								C20.3,64.3,19.3,55.7,23.2,52z"/>
							<g>
								<g>
									<g>
										<g>
											<path class="st20" d="M35.8,51.9c0,0-0.1,0.3-0.1,1.2c-0.1,0.9-0.1,2.2-0.2,4.3c0,2.1,0,5.7-0.5,8.8
												c-0.1,0.8-0.2,1.5-0.4,2.2c-0.2,0.7-0.3,1.3-0.5,1.8c-0.3,1-0.7,1.6-0.7,1.6s-0.1,0.2-0.3,0.6c-0.1,0.2-0.3,0.4-0.5,0.7
												c-0.1,0.1-0.2,0.3-0.3,0.4c-0.1,0.1-0.3,0.3-0.4,0.4c-0.6,0.6-1.5,1.1-2.6,1.6c-1.1,0.4-2.5,0.7-4,0.8
												c-2.3,0.1-4.7-0.3-6.9-0.9l-0.6-0.2l0-0.5c0.2-3.5,0.6-6.6,0.6-8.3c0-2.7,0.2-4.9-0.3-8.7c0-0.3-0.1-0.7-0.1-1l0,0
												c0-1.2,0.6-2.6,1.5-3.6c0.9-1,2.1-1.8,3.3-2.4l0.1-0.1l0.2,0c1.5,0,3,0,4.5,0.1c4.5,0.4,7.8,0.6,7.8,0.6l0,0.9
												c0,0-1.6-0.2-5-0.3c-2-0.1-4.6-0.1-7.1,0c-0.1,0-0.2,0-0.2,0l0.1,0c-1,0.5-2.1,1.2-2.9,2c-0.8,0.8-1.4,1.8-1.6,2.9l0-0.1
												c0,3.1,0,5.7,0,6.8c0.1,1.8,0.3,6.5,0.5,11.1l-0.6-0.8c0.2,0,0.5,0.1,0.9,0.1c2.3,0.4,5.1,0.7,7.6,0.3
												c2.5-0.3,4.6-1.4,5.4-2.5c0.9-1,1.4-2.7,1.7-4.5c0.3-1.8,0.2-3.6,0.2-5.4c-0.1-1.8,0.1-4.3,0.2-6.4
												c0.1-1.9,0.2-3.7,0.2-3.7L35.8,51.9z"/>
										</g>
									</g>
								</g>
							</g>
							<g>
								<path class="st20" d="M23.5,51.9c0,0-3.5,1.3-4.3,3c-0.8,1.7-1.1,4.8-1.1,4.8l-0.6,9.2l-0.1,5.4l0.5,0.5l1.2,0.2
									c0,0-0.5-6.2-0.3-8.9c0.2-2.7,0.3-5.7,0.4-6.5s0.5-3.7,1.3-4.8C21.3,53.5,23.5,51.9,23.5,51.9z"/>
							</g>
							<path class="st12" d="M17.1,57.9l-1.9,2.2l2.6,4.7l0.3-3.7C18,61.1,16.6,62.1,17.1,57.9z"/>
						</g>
						<g>
							<g>
								<path class="st10" d="M43.6,54.1L42,54.4l-1.1,2.3l0.6,6.5l1.8,7.1c0,0,2.9-2,4.5-4.4c1.6-2.4,3.1-4.1,3.1-4.1
									s-1.1-3.9-2.7-5.1C46.5,55.6,43.6,54.1,43.6,54.1z"/>
							</g>
							<g>
								<g>
									<g>
										<g>
											<path class="st20" d="M44.7,74.5c0,0,0.1-0.2,0.4-0.7c0.2-0.5,0.5-1.4,0.9-2.7c0.4-1.3,0.8-3.7,1.9-5.5
												c1-1.8,2-3.3,2-3.3s0.1-0.3,0.5-0.9l-0.2,0.6c-0.2-0.5-0.4-1.1-0.6-1.7c-0.3-0.7-0.6-1.6-1-2.4c-0.3-0.4-0.3-0.5-0.8-0.9
												c-0.4-0.3-0.9-0.6-1.3-0.9c-0.9-0.6-1.8-1.2-2.6-1.7l0.1,0c-0.5-0.2-1.1,0.1-1.5,0.4c-0.4,0.4-0.7,0.8-0.8,1.1
												c-0.1,0.3-0.2,0.6-0.3,0.9l0,0c0,1.4,0,2.7,0.5,4.7c0.2,1,0.5,2.1,0.7,3.2c0.2,1.1,0.5,2.3,0.7,3.3l0-0.1
												c0.2,0.5,0.4,1,0.5,1.6c0.8,2.8,1.5,4.9,1.5,4.9l-0.9,0.4c0,0-0.2-1-1-3.2c-0.4-1-0.8-2.1-1.3-3.3l0,0l0,0
												c-0.1-0.4-0.2-0.8-0.3-1.2c-0.9-3.6-0.8-8.2-0.9-9.5c0-0.2,0-0.3-0.1-0.9l0,0l0-0.1c0.1-0.3,0.2-0.9,0.5-1.6
												c0.2-0.4,0.5-0.8,0.9-1.1c0.4-0.4,1.1-0.7,1.9-0.7l0,0l0.2,0c0.5,0.1,1.6,0.6,2.6,1c0.7,0.3,1.4,0.7,2,1.1
												c0.3,0.2,0.8,0.6,1.1,1c0.3,0.4,0.5,0.8,0.6,1.2c0.6,1.6,0.6,3.1,0.6,4.1l0,0.1l0,0c-0.2,0.2-0.4,0.4-0.6,0.5
												c-0.7,0.6-1.3,1.5-1.8,2.6c-0.3,0.5-0.5,1.1-0.7,1.6c-0.2,0.6-0.3,1.1-0.4,1.7c-0.2,1.1-0.7,2.7-1.1,4
												c-0.4,1.1-0.8,2.3-0.8,2.3L44.7,74.5z"/>
										</g>
									</g>
								</g>
							</g>
							<path class="st12" d="M50.6,61.9c0,0-0.4,0.7-1,1.3c-0.6,0.7-4.2,6.8-4.9,11.4c0,0-1.9-4.7-0.5-7.5c1.4-2.9,3.1-4.6,3.4-5.2
								c0,0,1.5-1.8,2.8-1.5C51,60.6,50.6,61.9,50.6,61.9z"/>
							<g>
								<g>
									<g>
										<g>
											<path class="st20" d="M44,72.5c0,0,0-0.2,0-0.5c0-0.4,0-0.9-0.1-1.7c-0.1-0.8-0.2-2.3,0-3.6c0.1-1.3,0.7-2.3,0.7-2.3
												s0.1-0.4,0.4-0.9c0.3-0.6,0.7-1.4,1.6-2.3c0.4-0.4,1-0.9,1.6-1.1c0.3-0.1,0.7-0.2,1.1-0.2c0.2,0,0.4,0,0.5,0.1
												c0.2,0,0.3,0.1,0.4,0.2c0.3,0.1,0.6,0.3,0.8,0.6c0.2,0.3,0.2,0.6,0.2,0.9c-0.1,0.2-0.3,0.4-0.4,0.5
												c-0.1,0.1-0.2,0.3-0.3,0.4c-0.7,0.9-1.3,1.5-1.9,2.9c-0.6,1.4-1.2,3.2-2,4.7c-0.4,0.8-0.7,1.5-0.9,2
												c-0.1,0.6-0.2,0.9-0.2,0.9l-0.7-0.1c0,0,0.1-0.2,0.2-0.5c0.1-0.3,0.3-0.8,0.5-1.5c0.3-0.9,0.5-1.3,1.1-2.7
												c0.8-2.1,2.6-4.4,3.1-5c0.1-0.2,0.3-0.4,0.4-0.7c0.2-0.3,0.5-0.7,0.6-0.9c0.1-0.3,0-0.3-0.3-0.4
												c-0.2-0.1-0.4-0.1-0.6-0.1c-0.2,0-0.3,0-0.5,0.1c-0.7,0.2-1.5,1-2.3,1.7c-0.7,0.7-1.4,1.4-1.8,1.8
												c-0.4,0.4-0.7,1.1-0.7,1.8c-0.1,0.7,0,1.5,0.1,2.2c0.1,0.7,0.1,1.7,0.1,2.5c0,0.6,0,1.4,0,1.4L44,72.5z"/>
										</g>
									</g>
								</g>
							</g>
						</g>
					</g>
				</g>
				<g>
					<g>
						<path d="M28.9,44.3"/>
					</g>
				</g>
			</g>
			<g>
				<g>
					<path class="st1" d="M21.4,93.6c-2.3,3.4-4.3-1.2-4.3-1.2l-3.8-40.9c0,0-13.8-16.6-12.4-17.3c0.9-0.5,13,12.3,13,12.3
						s-2.4-0.4-3.3-1.6c0,0,0.3-6,1.7-6.4c1.4-0.5,1.7,7,2.7,8c1,1.1,0.9,3.2,0.9,4.5l4,33.2L21.4,93.6z"/>
				</g>
				<line class="st23" x1="15.8" y1="51.2" x2="20.2" y2="84.9"/>
				<path class="st23" d="M19.8,84.7l1.6,9c0,0-3.6,3.6-4.4-1.3l-3.8-40.9c0,0-13.8-16.6-12.4-17.3c0.9-0.5,8,8.2,9.5,10.2
					c0,0,0.4-6.4,1.1-7c0.7-0.5,2.1,6.7,3.2,8.3c1.1,1.6,1.3,2.5,1.3,5.3"/>
				<path class="st20" d="M20.4,85.8c-0.3,0-0.6-0.4-1-0.3c-3.2-22.4-3.7-28.9-3.9-30.7c-0.3-3.1,0.4-3.7,0.4-3.7L20.4,85.8z"/>
				<path class="st24" d="M13.6,52.1L17.2,92c0,0,0,2.8,1.8,3c1.8,0.2,3-2.9,3.6-4.6c0,0-2.4,3.5-3.3,2.9c-1-0.6-0.9-1.5-1.4-5.2
					C17.4,84.5,13.6,52.1,13.6,52.1z"/>
			</g>
		</g>
	</g>
</g>
</svg>
