<?xml version="1.0" encoding="utf-8"?>
<!-- Generator: Adobe Illustrator 25.3.1, SVG Export Plug-In . SVG Version: 6.00 Build 0)  -->
<svg version="1.1" id="レイヤー_1" xmlns="http://www.w3.org/2000/svg" xmlns:xlink="http://www.w3.org/1999/xlink" x="0px"
	 y="0px" width="60px" height="60px" viewBox="0 0 60 60" style="enable-background:new 0 0 60 60;" xml:space="preserve">
<style type="text/css">
	.st0{fill:#FFFFFF;}
	.st1{fill:none;}
	.st2{fill:#7D7D7D;stroke:#7D7D7D;stroke-width:1.2229;stroke-miterlimit:10;}
	.st3{fill:#CACACA;}
	.st4{fill:#F4B489;}
</style>
<g>
	<g>
		<path class="st0" d="M34.7,4.6H11.3c-5.4,0-9.8,4.4-9.8,9.8v36.9h43V14.3C44.5,8.9,40.1,4.6,34.7,4.6z"/>
		<g>
			<path class="st1" d="M34.7,7H11.3c-4,0-7.3,3.3-7.3,7.3v36.9h38.1V14.3C42.1,10.3,38.8,7,34.7,7z"/>
			<path class="st2" d="M44.5,14.3c0-5.4-4.4-9.8-9.8-9.8H11.3c-5.4,0-9.8,4.4-9.8,9.8v36.9h2.4V14.3c0-4,3.3-7.3,7.3-7.3h23.4
				c4,0,7.3,3.3,7.3,7.3v36.9h2.4V14.3z"/>
		</g>
	</g>
	<polygon class="st2" points="29.9,9.3 16.1,9.3 13.8,5.9 32.2,5.9 	"/>
	<g>
		<rect x="12.1" y="18.9" class="st3" width="21.5" height="3.7"/>
		<rect x="12.1" y="25.7" class="st3" width="21.5" height="3.7"/>
		<rect x="12.1" y="32.6" class="st3" width="21.5" height="3.7"/>
	</g>
	<path class="st4" d="M28.1,58.6c0,0-3.8-8.5-4.7-10.7c-2.5-5.9,4.2-8.1,5.9-3.9c1,2.6,1.8,4.1,1.8,4.1s0.6,1.4,0.6-1.1
		c0-4,0-11.7,0-13.4c0-4.6,6.3-5.2,6.3-0.4c0,3.1,0,11.4,0,11.4s2.4-2,6.4-2c8.8,0,10.4,4.3,10.4,8.3s-0.6,7.7-0.6,7.7H28.1z"/>
</g>
<rect y="0" class="st1" width="60" height="60"/>
</svg>
