<?xml version="1.0" encoding="utf-8"?>
<!-- Generator: Adobe Illustrator 25.3.1, SVG Export Plug-In . SVG Version: 6.00 Build 0)  -->
<svg version="1.1" id="レイヤー_1" xmlns="http://www.w3.org/2000/svg" xmlns:xlink="http://www.w3.org/1999/xlink" x="0px"
	 y="0px" width="60px" height="60px" viewBox="0 0 60 60" style="enable-background:new 0 0 60 60;" xml:space="preserve">
<style type="text/css">
	.st0{fill:#7D7D7D;stroke:#7D7D7D;stroke-width:0.2087;stroke-miterlimit:10;}
	.st1{fill:#7D7D7D;stroke:#7D7D7D;stroke-width:0.3997;stroke-miterlimit:10;}
	.st2{fill:#FFFFFF;}
	.st3{fill:#CACACA;}
	.st4{fill:none;}
</style>
<g>
	<g>
		<polygon class="st0" points="38.9,53.8 35.4,53.8 35.1,46.8 25.2,46.8 25,53.8 21.3,53.8 20.8,56.1 39.5,56.1 		"/>
		<path class="st1" d="M55.5,48.9h-51c-2.4,0-4.3-1.9-4.3-4.3V15.8c0-2.4,1.9-4.3,4.3-4.3h51c2.4,0,4.3,1.9,4.3,4.3v28.9
			C59.8,47,57.9,48.9,55.5,48.9z"/>
		<path class="st2" d="M4.1,45.8c-0.4,0-0.7-0.3-0.7-0.7V15.3c0-0.4,0.3-0.7,0.7-0.7h51.7c0.4,0,0.7,0.3,0.7,0.7v29.8
			c0,0.4-0.3,0.7-0.7,0.7H4.1z"/>
	</g>
	<g>
		<rect x="13.7" y="22" class="st3" width="32.4" height="3.3"/>
		<rect x="13.7" y="28.8" class="st3" width="32.4" height="3.3"/>
		<rect x="13.7" y="35.6" class="st3" width="32.4" height="3.3"/>
	</g>
</g>
<rect class="st4" width="60" height="60"/>
</svg>
