<?xml version="1.0" encoding="utf-8"?>
<!-- Generator: Adobe Illustrator 27.6.1, SVG Export Plug-In . SVG Version: 6.00 Build 0)  -->
<svg version="1.1" id="レイヤー_1" xmlns="http://www.w3.org/2000/svg" xmlns:xlink="http://www.w3.org/1999/xlink" x="0px"
	 y="0px" width="262px" height="141px" viewBox="0 0 262 141" style="enable-background:new 0 0 262 141;" xml:space="preserve">
<style type="text/css">
	.st0{fill:#58CDE0;}
	.st1{fill:#35318F;}
	.st2{fill:#FFE2CC;}
	.st3{fill:#3A3A3A;}
	.st4{fill:#8FC31F;}
	.st5{fill:none;stroke:#E36552;stroke-width:14;stroke-miterlimit:10;}
	.st6{enable-background:new    ;}
</style>
<g>
	<path class="st0" d="M48.2,85.6h37.9c5.2,0,9.4,4.2,9.4,9.4v39l0,0H38.8l0,0V95C38.8,89.8,43,85.6,48.2,85.6z"/>
	<path class="st0" d="M25.1,116.5l15.2-26.3c1.9-3.3,6.1-4.4,9.5-2.5l0.9,0.5c3.3,1.9,4.4,6.1,2.5,9.5L38,123.9
		c-1.9,3.3-6.1,4.4-9.5,2.5l-0.9-0.5C24.3,124,23.2,119.8,25.1,116.5z"/>
	<path class="st1" d="M103.3,42.9c0-8.8-2.5-17.2-10.3-22.1c0.2,0,0.3,0,0.5,0c4.3,0.3,6.7,0.3,6.7,0.3c-0.3-2.8-2.7-4.8-5.5-4.6
		c-0.1,0-0.2,0-0.3,0c-1.9,0.1-3.7,0.6-5.3,1.5c-8.1-8.1-17.4-8-22.5-8c-7.2,0.1-14.2,2.4-20.1,6.6c-7.2,2.7-15.9,2.6-15.3,4.5
		c0.3,0.9,3.2,2.7,6.7,4.1c-3.3,4.6-5.4,9.8-6.2,15.4c-0.5,2-2.6,9.1-5.6,10.7c0.1,0.8,0.7,1.5,1.4,1.8c1,0.6,2.5,1.1,4.6-0.8
		c2.5,11.3,13.5,21.7,18.2,24.7s16.3-0.2,16.3-0.2s12.7,0.7,18.2-0.8s15.5-11.4,17.6-23.4l0,0c2,1.6,3.4,1.2,4.4,0.6
		c0.7-0.3,1.3-1,1.4-1.8C106,50.1,104.2,45.8,103.3,42.9z"/>
	<ellipse class="st2" cx="67.2" cy="50.8" rx="32.4" ry="37.5"/>
	<circle class="st2" cx="35.3" cy="59.7" r="8.1"/>
	<circle class="st2" cx="99.1" cy="59.7" r="8.1"/>
	<circle class="st3" cx="57.2" cy="55.9" r="3.2"/>
	<circle class="st3" cx="76.9" cy="55.9" r="3.2"/>
	<path class="st1" d="M39.7,57.2c0,0-2.7-16,19.7-28.3c0,0-5.2,11.5-3.7,12.6c0,0,9.1,0.3,16.9-11.6c0,0-3.8,9-2.7,11.2
		c5.7-1.6,10.3-5.9,12.4-11.4c0,0,5.2,12.9,13.1,19.2c0,0,2,4.9,0.3,8.1c0,0,5.5-4.5,5.5-9.7s-0.6-18.2-7.8-24.4S73.3,7.4,61,11.6
		s-24.4,13-27,27S39.7,57.2,39.7,57.2z"/>
	<path class="st3" d="M67.2,67.5c-1.8,0-5,2.4-5,5.3c0,0,5-2.7,10.1,0C72.3,69.8,69.1,67.5,67.2,67.5z"/>
	<path class="st2" d="M19.6,100c-3.8-2.9-7-6.5-9.4-10.6c-1.9-3.1-2.5-7.4,1.4-9.2c2.2-0.8,4.6-0.9,6.8-0.2c1.4,0.3,2.7,0.9,3.7,1.8
		c0.6,0.7,1.1,1.5,1.5,2.4c0.9,1.8,1.5,3.8,1.8,5.8c0.2,2-0.1,4.8-1.5,6.3s-4.1,1.7-5.8,3"/>
	<path class="st0" d="M12.5,97.8l14.9-6.6l0,0l11.1,25.1c1.6,3.6,0,7.9-3.6,9.5c0,0,0,0,0,0l-1.8,0.8c-3.6,1.6-7.9,0-9.5-3.7l0,0
		L12.5,97.8L12.5,97.8z"/>
	<path class="st2" d="M19.6,87.5c-1-2.2-0.7-4.5-0.4-6.8c0-0.9,0.7-1.7,1.6-1.8c1.2-0.1,2.3,0.6,2.7,1.7c0.6,1.5,1,3.1,1,4.7
		c0.1,0.8-0.1,1.6-0.6,2.1c-0.8,0.7-2,1.1-3.1,0.8v-0.7"/>
	<path class="st0" d="M109.7,25.3c0,0-1.9-8,6.6-13s15.4,3.1,10,7.1c-1.6,1.2-7.9,1.4-10.8,2.2S109.7,25.3,109.7,25.3z"/>
	<path class="st0" d="M110,31.3c0,0,1.6-5.1,8-5.1s7.6,6.9,3.2,7.3c-1.3,0.1-4.9-1.9-6.8-2.4C113,31,111.5,31,110,31.3z"/>
	<path class="st0" d="M96.8,124.9L80.5,96.6c-1.6-2.8-0.7-6.3,2.1-7.9l2.9-1.7c2.8-1.6,6.3-0.7,7.9,2.1l16.3,28.2
		c1.6,2.8,0.7,6.3-2.1,7.9l-2.9,1.7C102,128.6,98.4,127.7,96.8,124.9z"/>
	
		<rect x="105.5" y="72.9" transform="matrix(0.8565 -0.5161 0.5161 0.8565 -23.6948 73.3214)" class="st4" width="29" height="12.8"/>
	<polygon class="st2" points="98,92.6 110.9,92.2 104.3,81.3 	"/>
	<polygon class="st1" points="98,92.6 103.3,92.4 100.6,88 	"/>
	<path class="st2" d="M128.4,94.9c0.6-0.9,1.1-1.9,1.2-3c0-0.9-0.3-1.9-0.7-2.7c-1.9-3.8-5.2-6.8-9.2-8.4c-1.1-0.5-2.3-0.7-3.4-0.6
		c-1.2,0.2-2.2,1-2.4,2.2l1,0.8c-2.2,1.3-2.9,4.2-1.6,6.4c0.5,0.9,1.4,1.6,2.3,2c-0.4,1.1-0.6,2.3-0.7,3.5c-0.3,3.3,0.1,9.1,4.6,9.2
		C123,104.3,126.8,97.4,128.4,94.9z"/>
	<path class="st0" d="M113.7,93.4l12.7,10.2l0,0L109.2,125c-2.5,3.1-7,3.6-10.1,1.1c0,0,0,0,0,0l-1.6-1.3c-3.1-2.5-3.6-7-1.1-10.1
		c0,0,0,0,0,0L113.7,93.4L113.7,93.4z"/>
	<g>
		<line class="st5" x1="205" y1="85" x2="163" y2="127"/>
		<line class="st5" x1="163" y1="85" x2="205" y2="127"/>
	</g>
	<g class="st6">
		<path d="M119.1,50.6c-0.7,0.4-1,0.5-1.7,0.9c-0.3-0.9-0.5-1.3-1.1-2.1c2.9-1,5.7-2.7,7.3-4.7h2.2c1,1.2,2.1,2.1,3.6,2.9
			c1.2,0.7,2.6,1.2,3.8,1.5c-0.5,0.8-0.7,1.3-1,2.3c-0.8-0.4-0.8-0.4-1.8-0.9v3.1c0,0.8,0,1.3,0.1,1.9h-2.4v-0.8h-6.9v0.8h-2.4
			c0.1-0.6,0.1-1.1,0.1-1.9V50.6z M123.4,40c0-0.5,0-0.8-0.1-1.2h2.6c-0.1,0.4-0.1,0.7-0.1,1.2h4.8c0.8,0,1.4,0,2.1-0.1
			c-0.1,0.5-0.1,0.9-0.1,1.4v1.4c0,0.5,0,0.9,0.1,1.4h-2.3v-2h-11.3v2h-2.3c0.1-0.5,0.1-0.8,0.1-1.4v-1.4c0-0.5,0-0.9-0.1-1.4
			c0.7,0.1,1.3,0.1,2.1,0.1H123.4z M123.7,43.2c-1,1.2-1.6,1.7-2.6,2.4c-0.9,0.6-1.4,1-2.7,1.6c-0.4-0.8-0.8-1.2-1.5-1.9
			c1.2-0.5,1.7-0.7,2.5-1.2c1-0.6,1.5-1,2.4-2L123.7,43.2z M121.3,52.7h6.9v-1.9h-6.9V52.7z M127.5,48.8c-1-0.7-1.7-1.3-2.7-2.4
			c-0.9,1-1.6,1.5-2.8,2.4H127.5z M127.6,42.1c1.8,1.7,2.5,2.1,5.1,3c-0.5,0.6-0.8,1.2-1.1,2c-2.8-1.1-3.9-1.9-5.9-4L127.6,42.1z"/>
		<path d="M134.6,44.2c0.6,0.1,1,0.1,1.9,0.1h12.7c1,0,1.4,0,1.9-0.1v1.8c-0.5-0.1-0.9-0.1-1.8-0.1h-12.8c-0.9,0-1.4,0-1.9,0.1V44.2
			z M138.1,51c-0.7,0-1.1,0-1.6,0.1c0.1-0.4,0.1-0.7,0.1-1.5v-1.8c0-0.6,0-1-0.1-1.4c0.4,0.1,0.8,0.1,1.7,0.1h9.4
			c0.8,0,1.2,0,1.7-0.1c-0.1,0.4-0.1,0.7-0.1,1.4v1.8c0,0.7,0,1.1,0.1,1.4c-0.5,0-1-0.1-1.6-0.1h-3.6v0.6h4.4c0.8,0,1.2,0,1.5-0.1
			V53c-0.4-0.1-0.9-0.1-1.6-0.1h-4.3v0.6h5c1.1,0,1.5,0,2.2-0.1v1.8c-0.7-0.1-1.2-0.1-2.2-0.1h-12.2c-0.9,0-1.5,0-2.1,0.1v-1.8
			c0.7,0.1,1.1,0.1,2.1,0.1h4.9V53h-4.1c-0.7,0-1.2,0-1.6,0.1v-1.5c0.3,0.1,0.7,0.1,1.5,0.1h4.2V51H138.1z M137.9,43.7
			c-1,0-1.4,0-1.9,0.1c0.1-0.4,0.1-0.8,0.1-1.5v-1.6c0-0.7,0-1-0.1-1.5c0.6,0.1,1,0.1,2,0.1h9.6c0.9,0,1.4,0,1.9-0.1
			c-0.1,0.5-0.1,0.8-0.1,1.5v1.6c0,0.7,0,1.1,0.1,1.5c-0.5,0-0.9-0.1-1.9-0.1H137.9z M138.4,42.6h8.9v-0.5h-8.9V42.6z M138.4,41.1
			h8.9v-0.5h-8.9V41.1z M138.7,47.7v0.6h3v-0.6H138.7z M138.7,49.3v0.5h3v-0.5H138.7z M143.9,48.3h3v-0.6h-3V48.3z M143.9,49.8h3
			v-0.5h-3V49.8z"/>
		<path d="M152.8,39.6c0.6,0.1,1,0.1,2,0.1h2c1.1,0,1.3,0,2-0.1c-0.1,1-0.1,1.8-0.1,2.9v9.3c0,1,0,1.7,0.1,2.5h-3.3
			c0.1-0.7,0.1-1.5,0.1-2.5v-9.6h-0.8c-0.7,0-1.3,0-2,0.1V39.6z"/>
		<path d="M163.2,53.1c-0.6-0.6-1-1.2-1.2-1.9c-0.5-1.3-0.7-2.7-0.7-4.1c0-1.9,0.4-3.9,1.1-5c1-1.7,2.8-2.7,4.9-2.7
			c1.6,0,3,0.5,4.1,1.6c0.6,0.6,1,1.2,1.2,1.9c0.5,1.3,0.7,2.7,0.7,4.1c0,1.9-0.4,3.9-1.1,5c-1,1.7-2.8,2.6-4.9,2.6
			C165.6,54.7,164.2,54.1,163.2,53.1z M164.3,47c0,3.4,1,5.2,3,5.2c0.7,0,1.3-0.3,1.8-0.7c0.8-0.8,1.2-2.3,1.2-4.3
			c0-3.4-1-5.1-3-5.1C165.4,42,164.3,43.8,164.3,47z"/>
		<path d="M176.5,53.1c-0.6-0.6-1-1.2-1.2-1.9c-0.5-1.3-0.7-2.7-0.7-4.1c0-1.9,0.4-3.9,1.1-5c1-1.7,2.8-2.7,4.9-2.7
			c1.6,0,3,0.5,4.1,1.6c0.6,0.6,1,1.2,1.2,1.9c0.5,1.3,0.7,2.7,0.7,4.1c0,1.9-0.4,3.9-1.1,5c-1,1.7-2.8,2.6-4.9,2.6
			C178.9,54.7,177.5,54.1,176.5,53.1z M177.6,47c0,3.4,1,5.2,3,5.2c0.7,0,1.3-0.3,1.8-0.7c0.8-0.8,1.2-2.3,1.2-4.3
			c0-3.4-1-5.1-3-5.1C178.7,42,177.6,43.8,177.6,47z"/>
		<path d="M195,54.4c-0.1-0.6-0.3-1.5-0.8-2.5l-2.2-5.6c-0.2-0.6-0.5-1.4-0.8-2.7c0.1,1.7,0.1,2.5,0.1,2.9v5.2c0,1.3,0,2,0.1,2.7h-3
			c0.1-0.8,0.1-1.5,0.1-2.7v-9.2c0-1.1,0-2-0.1-2.7h4c0.1,0.7,0.3,1.4,0.7,2.3l3.2,8.4l3.2-8.4c0.4-0.9,0.6-1.6,0.7-2.3h4
			c-0.1,0.9-0.1,1.5-0.1,2.7v9.2c0,1.4,0,2,0.1,2.7h-3c0.1-0.8,0.1-1.5,0.1-2.7v-5.3c0-0.4,0-1.2,0.1-2.9c-0.1,0.3-0.1,0.3-0.3,1.1
			c-0.1,0.3-0.4,1.3-0.5,1.5l-2.3,5.7c-0.4,0.9-0.7,1.9-0.8,2.5H195z"/>
		<path d="M209,54.4c-1.2,0-1.7,0-2.5,0.1c0.1-0.8,0.1-1.3,0.1-2.5v-9.8c0-0.9,0-1.6-0.1-2.4c0.9,0.1,1.1,0.1,2.4,0.1h4.5
			c2.9,0,4.5,1.3,4.5,3.6c0,1.1-0.3,2-1,2.6c-0.4,0.3-0.7,0.5-1.3,0.8c0.8,0.2,1.3,0.4,1.7,0.8c0.8,0.7,1.1,1.6,1.1,2.8
			c0,2.6-1.7,4-4.8,4H209z M213.1,45.6c1.2,0,1.9-0.6,1.9-1.7c0-1.1-0.7-1.6-1.9-1.6h-3.4v3.3H213.1z M209.7,51.9h3.6
			c1.4,0,2.2-0.7,2.2-2c0-1.2-0.8-1.9-2.2-1.9h-3.5V51.9z"/>
		<path d="M233.4,54.4c-0.4-0.4-0.5-0.5-0.8-0.8c-1-0.9-2.2-1.6-3.2-2.1c0,0.1,0,0.2,0,0.3c0,2.1-1.4,3.1-4.2,3.1
			c-2.7,0-4.3-1.1-4.3-3c0-2,1.9-3.2,5.1-3.2c0.3,0,0.5,0,0.9,0l0-1.4c-0.5,0-1.2,0-1.6,0c-1.2,0-1.8,0-3.4-0.1c-0.3,0-0.4,0-0.7,0
			l0-2.3c0.8,0.2,2.5,0.3,4.2,0.3c0.4,0,1,0,1.5,0l0-1v-0.5c-0.5,0-0.7,0-1,0c-0.7,0-2.2-0.1-4.6-0.2c-0.2,0-0.4,0-0.5,0
			c-0.1,0-0.2,0-0.3,0l0-2.4c1,0.3,2.8,0.4,4.9,0.4c0.2,0,0.8,0,1.2,0c0-1.3,0-1.5-0.1-2.1h2.7c-0.1,0.5-0.1,0.6-0.1,2
			c2.4-0.1,3.9-0.3,5.2-0.6l0.1,2.4c-0.4,0-0.4,0-1.5,0.2c-1.4,0.2-2.5,0.3-3.8,0.3c0,0.7,0,1.2,0,1.5c2.1-0.1,3.6-0.3,4.7-0.6
			l0.1,2.4c-0.1,0-0.1,0-0.4,0c0,0-0.1,0-0.3,0c-0.3,0-0.3,0-1.3,0.1c-0.9,0.1-2,0.2-2.8,0.2c0,1,0.1,1.6,0.1,1.9
			c1.7,0.5,2.9,1.1,4.9,2.5c0.3,0.2,0.4,0.3,0.7,0.4L233.4,54.4z M225.6,50.7c-1.3,0-2,0.4-2,1c0,0.6,0.6,0.9,1.7,0.9
			c1.2,0,1.7-0.4,1.7-1.4c0-0.1,0-0.4,0-0.4C226.4,50.8,226.1,50.7,225.6,50.7z"/>
		<path d="M236.6,41.2c0.4,0,0.6,0,0.7,0c0.3,0,0.5,0,3-0.2c1.2-0.1,4.3-0.2,9.3-0.5c1.6-0.1,1.7-0.1,2-0.2l0.1,2.8
			c-0.2,0-0.3,0-0.4,0c-1.2,0-2.6,0.4-3.8,1.1c-2,1.2-3.3,2.8-3.3,4.5c0,1.3,0.8,2.3,2.3,2.7c0.8,0.2,2,0.4,2.7,0.4
			c0.1,0,0.2,0,0.5,0l-0.4,2.9c-0.2-0.1-0.3-0.1-0.6-0.1c-2-0.2-3.3-0.5-4.4-1.1c-1.9-1-2.8-2.5-2.8-4.6c0-2.4,1.3-4.4,3.8-5.9
			c-1.8,0.2-1.9,0.2-5.9,0.5c-1,0.1-2,0.2-2.6,0.3L236.6,41.2z M249.1,47.4c-0.5-1-0.9-1.7-1.5-2.5l1.5-0.7c0.6,0.8,1,1.4,1.5,2.4
			L249.1,47.4z M251.2,46.5c-0.5-1-0.8-1.6-1.5-2.4l1.5-0.6c0.7,0.8,0.9,1.2,1.5,2.3L251.2,46.5z"/>
	</g>
</g>
<g>
	<g>
		<path d="M152.3,63.9c-0.4,0.4-0.7,0.6-1.4,1.2c-0.5-0.6-0.9-1.1-1.5-1.6c1.6-1.1,2.6-2.1,3.3-3.2c0.2-0.3,0.3-0.6,0.4-0.8l2.5,0.4
			c-0.1,0.2-0.2,0.2-0.3,0.5c-0.2,0.3-0.3,0.5-0.6,0.9h8.6c1.1,0,1.7,0,2.3-0.1v2.3c-0.6-0.1-0.9-0.1-1.7-0.1v2.1h0.6
			c0.9,0,1.2,0,1.8-0.1v2.3c-0.5-0.1-0.9-0.1-1.8-0.1h-0.6v2.1h0.3c0.9,0,1.2,0,1.7-0.1v2.3c-0.5-0.1-0.9-0.1-1.7-0.1h-0.3
			c1,1.2,1.5,2.1,2.3,3.4l-2.1,1.3c-0.7-1.5-1.1-2.4-2.2-3.9l1.8-0.9h-12.1c-0.7,0-1.1,0-1.5,0.1v-2.3c0.5,0.1,0.9,0.1,1.8,0.1h0.4
			v-2.1h-0.7c-0.8,0-1.2,0-1.8,0.1v-2.3c0.5,0.1,0.9,0.1,1.8,0.1h0.8V63.9z M149.6,75.1c1.1-1.1,1.6-1.8,2.2-3.4l2,1
			c-0.8,1.8-1.2,2.6-2.3,3.9L149.6,75.1z M154.3,65.4h1.2v-2.1h-1.2V65.4z M154.3,69.6h1.2v-2.1h-1.2V69.6z M154.8,76.5
			c0-0.3,0-0.6,0-0.7c0-0.9-0.1-2.3-0.2-3.3l2.1-0.2c0.3,1.8,0.4,2.6,0.5,4.1L154.8,76.5z M157.4,65.4h1.1v-2.1h-1.1V65.4z
			 M157.4,69.6h1.1v-2.1h-1.1V69.6z M159,76.5c-0.3-1.8-0.4-2.3-0.8-3.9l2.1-0.5c0.5,1.5,0.8,2.3,1.1,3.8L159,76.5z M161.7,65.4
			v-2.1h-1.2v2.1H161.7z M161.7,69.6v-2.1h-1.2v2.1H161.7z"/>
		<path d="M174.7,71.3c-0.2,0.4-0.2,0.6-0.4,1.1c-0.9-1.1-1-1.2-1.5-2.1c0.1,1.1,0.1,1.2,0.1,1.7v2.8c0,0.8,0,1.3,0.1,1.8h-2.4
			c0.1-0.6,0.1-1.1,0.1-1.9v-2c0-0.7,0-1.3,0.1-1.8c-0.8,1.8-1.2,2.6-2.1,3.5c-0.3-0.9-0.6-1.6-1-2.3c1.2-1.1,2-2.5,2.8-4.3h-0.8
			c-0.8,0-1.2,0-1.7,0.1v-2.3c0.4,0.1,0.8,0.1,1.6,0.1h1.1v-4.3c0-0.8,0-1.2-0.1-1.7h2.4c-0.1,0.4-0.1,0.8-0.1,1.7v3
			c0.6-1.6,0.8-2.3,1.1-3.8l1.7,0.8c-0.5,1.9-0.8,2.8-1.4,3.9l-1.5-0.8v1.2h0.7c0.7,0,1,0,1.4-0.1v2.3c-0.4-0.1-0.8-0.1-1.4-0.1H173
			c0.5,0.8,1.2,1.5,2.3,2.4C175,70.7,174.9,70.8,174.7,71.3c0.4-0.1,1.1-0.2,1.7-0.3l3.9-0.8V62c0-1.1,0-1.6-0.1-2.2h2.6
			c-0.1,0.6-0.1,1.1-0.1,2.2v7.6c0.7-0.2,1-0.3,1.5-0.4l0.3,2.4c-0.5,0.1-0.9,0.1-1.8,0.3v2.5c0,1.1,0,1.6,0.1,2.2h-2.6
			c0.1-0.6,0.1-1.1,0.1-2.2v-1.9l-3.5,0.8c-0.8,0.2-1.4,0.3-1.7,0.4L174.7,71.3z M169.3,60.7c0.6,1.6,0.8,2.5,1.1,3.9l-1.7,0.8
			c-0.3-1.7-0.6-2.7-1.1-3.9L169.3,60.7z M176.6,65.4c1.4,1,2.1,1.6,3.1,2.6l-1.4,1.7c-1.2-1.3-1.9-1.9-3.1-2.8L176.6,65.4z
			 M177.1,60.9c1.5,1,2.1,1.5,3.1,2.6l-1.4,1.8c-1.3-1.3-1.5-1.5-3.1-2.7L177.1,60.9z"/>
		<path d="M185.6,64.5h0.1c0.5,0,2.7-0.2,3.6-0.3c0.3-1.9,0.5-3,0.5-3.6c0-0.1,0-0.1,0-0.3l2.8,0.3c-0.1,0.2-0.1,0.3-0.1,0.5
			c0,0.1-0.2,0.8-0.4,2.3c-0.1,0.4-0.1,0.4-0.1,0.6c0.4,0,0.7,0,1,0c1.3,0,2.2,0.3,2.8,1c0.6,0.7,0.8,1.6,0.8,3.3
			c0,3.2-0.5,5.7-1.5,6.7c-0.5,0.6-1.1,0.8-2.1,0.8c-0.8,0-1.5-0.1-2.8-0.5c0-0.4,0-0.5,0-0.8c0-0.6-0.1-1.1-0.2-1.9
			c0.9,0.4,2,0.7,2.6,0.7c0.5,0,0.7-0.3,0.9-1c0.3-0.9,0.5-2.7,0.5-4.1c0-0.9-0.1-1.3-0.5-1.6c-0.2-0.2-0.5-0.3-1.2-0.3
			c-0.3,0-0.5,0-0.9,0.1c-0.6,2.9-1.6,5.7-3.3,9.2c-0.2,0.3-0.2,0.4-0.3,0.6l-2.5-1.4c1.2-1.6,2.8-5.2,3.5-8.2
			c-1.3,0.2-2.5,0.4-3,0.5L185.6,64.5z M197.7,60.8c0.7,0.8,1.1,1.4,1.7,2.4l-1.6,0.8c-0.5-0.9-1.1-1.8-1.7-2.4L197.7,60.8z
			 M199.4,63.8c1.4,2,2.2,3.8,2.9,6.2l-2.5,1.2c-0.3-1.5-0.7-2.6-1.3-4.1c-0.5-1.2-0.8-1.6-1.3-2.3L199.4,63.8z M199.8,59.9
			c0.6,0.7,1.2,1.4,1.7,2.3l-1.5,0.8c-0.5-0.9-1-1.6-1.6-2.4L199.8,59.9z"/>
		<path d="M207.4,68.2c0,1-0.8,1.7-1.7,1.7c-1,0-1.7-0.8-1.7-1.7c0-1,0.8-1.7,1.7-1.7C206.6,66.4,207.4,67.2,207.4,68.2z
			 M213.4,68.2c0,1-0.8,1.7-1.7,1.7s-1.7-0.8-1.7-1.7c0-1,0.8-1.7,1.7-1.7S213.4,67.2,213.4,68.2z M219.4,68.2c0,1-0.8,1.7-1.7,1.7
			s-1.7-0.8-1.7-1.7c0-1,0.8-1.7,1.7-1.7C218.6,66.4,219.4,67.2,219.4,68.2z"/>
	</g>
</g>
</svg>
