<svg xmlns="http://www.w3.org/2000/svg" width="192" height="119" viewBox="0 0 192 119"><defs><style>.a{fill:#00aae7;}.b{fill:#35318f;}.c{fill:#f39800;}.d{fill:#fff;}</style></defs><rect class="a" x="27.39" y="8" width="137.05" height="97.88" rx="0.6"/><path class="b" d="M156.23,16.76v80.4H36V16.76H156.23M162.4,8H29.64A2.64,2.64,0,0,0,27,10.63h0V103.3a2.64,2.64,0,0,0,2.64,2.63H162.36A2.64,2.64,0,0,0,165,103.3V10.67A2.64,2.64,0,0,0,162.36,8Z"/><path class="b" d="M180.42,112H11.58a6.5,6.5,0,1,1,0-13H180.42a6.5,6.5,0,1,1,0,13Z"/><path class="c" d="M94.7,33A27.28,27.28,0,1,0,122,60.27h0A27.28,27.28,0,0,0,94.7,33Z"/><path class="b" d="M109,32h-.19a1.43,1.43,0,0,1-1.23-1.43.6.6,0,0,1,0-.19l.8-5.81a1.44,1.44,0,0,1,2.85.2.61.61,0,0,1,0,.19l-.8,5.81A1.43,1.43,0,0,1,109,32Z"/><path class="b" d="M114.45,34.75A1.43,1.43,0,0,1,113,33.29a1.4,1.4,0,0,1,.22-.75l3.21-4.93a1.45,1.45,0,1,1,2.43,1.57l0,0-3.2,4.92a1.45,1.45,0,0,1-1.2.61Z"/><path class="b" d="M119.19,38.65a1.44,1.44,0,0,1-.77-2.64l5-3.12a1.46,1.46,0,0,1,1.6,2.44l-5,3.1a1.42,1.42,0,0,1-.77.23Z"/><path class="d" d="M106.91,47h-6.19a.72.72,0,0,0-.64.4l-5.21,11h-.08L89.55,47.42a.71.71,0,0,0-.64-.4H82.72a.72.72,0,0,0-.72.72.68.68,0,0,0,.09.35l5.75,10.27H84.16a.72.72,0,0,0-.72.72h0v3a.72.72,0,0,0,.72.72H90l.85,1.74v1.31H84.16a.73.73,0,0,0-.72.73h0v3a.72.72,0,0,0,.72.72h6.73v4.81a.72.72,0,0,0,.72.72H98a.72.72,0,0,0,.72-.72h0V70.3h6.72a.73.73,0,0,0,.72-.73h0V66.5a.73.73,0,0,0-.72-.73H98.75V64.46l.85-1.74h5.87a.72.72,0,0,0,.72-.72h0V59a.72.72,0,0,0-.72-.72h-3.64l5.69-10.22a.71.71,0,0,0-.27-1,.67.67,0,0,0-.34-.09Z"/></svg>