<?xml version="1.0" encoding="utf-8"?>
<!-- Generator: Adobe Illustrator 27.6.1, SVG Export Plug-In . SVG Version: 6.00 Build 0)  -->
<svg version="1.1" id="_レイヤー_2" xmlns="http://www.w3.org/2000/svg" xmlns:xlink="http://www.w3.org/1999/xlink" x="0px"
	 y="0px" width="936px" height="264.6px" viewBox="0 0 936 264.6" style="enable-background:new 0 0 936 264.6;"
	 xml:space="preserve">
<style type="text/css">
	.st0{fill:#EEEEEE;}
	.st1{fill:#FFFFFF;}
	.st2{fill:#F2A638;}
	.st3{fill:#FFE2CC;}
	.st4{fill:#35318F;}
	.st5{fill:#3A3A3A;}
	.st6{fill:#00AAE7;}
	.st7{fill:#FFFFFF;stroke:#B3B3B3;stroke-width:2.1081;stroke-linecap:round;stroke-miterlimit:10;}
	.st8{fill:none;stroke:#E36552;stroke-width:10.5405;stroke-linecap:round;stroke-miterlimit:10;}
	.st9{fill:#999999;}
	.st10{fill:none;stroke:#35318F;stroke-width:4.2162;stroke-linecap:round;stroke-miterlimit:10;}
	.st11{fill:url(#SVGID_1_);}
	.st12{fill:url(#SVGID_00000183248978831610093140000004532641974592271746_);}
	.st13{fill:url(#SVGID_00000078008940204785689410000009199347157516660614_);}
	.st14{fill:url(#SVGID_00000018234383007059110950000000685677605998844304_);}
	.st15{fill:#66CCF1;}
	.st16{fill:#C1272D;}
	.st17{fill:#D3505A;}
	.st18{fill:none;stroke:#E6E6E6;stroke-width:4.2162;stroke-miterlimit:10;}
	.st19{fill:#666666;}
	.st20{fill:none;stroke:#666666;stroke-width:1.0541;stroke-miterlimit:10;}
	.st21{fill:#E6E6E6;}
	.st22{fill:#39B54A;}
	.st23{fill:#CCCCCC;}
	.st24{fill:#F2F2F2;}
	.st25{fill:#B3B3B3;}
	.st26{enable-background:new    ;}
	.st27{fill:none;stroke:#FFFFFF;stroke-width:6.3243;stroke-linecap:round;stroke-linejoin:round;}
</style>
<path class="st0" d="M21.1,0h893.8C926.6,0,936,9.4,936,21.1v222.4c0,11.6-9.4,21.1-21.1,21.1H21.1C9.4,264.6,0,255.1,0,243.5V21.1
	C0,9.4,9.4,0,21.1,0z"/>
<path class="st1" d="M99.6,154.9h167.6c20.1,0,36.4,16.3,36.4,36.4l0,0c0,20.1-16.3,36.4-36.4,36.4H99.6
	c-20.1,0-36.4-16.3-36.4-36.4l0,0C63.2,171.2,79.5,154.9,99.6,154.9z"/>
<g>
	<g>
		<g>
			<path class="st2" d="M495.4,238.2c0-0.1-1.4-27.8-3.9-60.6c-1.4-18.3-22.2-49.5-35.8-50.9c-31.4,0-56.7,16.8-67.5,33.4
				c-11.6,17.8-18.8,62.6-20.3,78.2H495.4z"/>
			<g>
				<path class="st3" d="M414.6,222.8c0.9-8.3,10.4-14.1,21.3-13c9.3,1,16.5,6.6,18,13.4c0.4,1.8-1.2,3.5-3,3.3
					C433,224.9,423.9,235.1,414.6,222.8L414.6,222.8z"/>
				<path class="st3" d="M432.8,213.2l0-0.2c-0.2-1.9,1.4-3.6,3.7-3.7l18-1.4c2.3-0.2,4.3,1.2,4.5,3.1l0,0.2
					c0.2,1.9-1.4,3.6-3.7,3.7l-18,1.4C435,216.5,433,215.1,432.8,213.2z"/>
			</g>
		</g>
		<g>
			<path class="st4" d="M370.9,110.6c5.1,23.7,18.8,34.1,27.7,35.9c9,1.8,39-7.6,39-7.6s24.9,3.8,29.3-4.1
				c10-0.6,22.9-24.1,21.7-42.9c-2.6-41-23.3-62.6-59.9-62.5c-11.1,0.7-31,4.5-37,21.2C370.5,58.9,366.7,92.6,370.9,110.6
				L370.9,110.6z"/>
			<path class="st4" d="M415.6,148.5c-1.8,7-3.4,16.5-5.6,17.4c-3.4,2.6-13.5-3.6-18.7-16.8c-9-25.6,5.1-29.1,9.9-21.8
				C411.1,140.8,417.2,138.9,415.6,148.5z"/>
			<g>
				<path class="st3" d="M385.5,94.9c2.1,33.4,26.5,59,54.5,57.2c28-1.7,46.3-30,44.2-63.4c-2.1-33.4-23.1-49.8-51.2-48
					C405.1,42.4,383.5,61.5,385.5,94.9z"/>
				<circle class="st3" cx="390.5" cy="115" r="13.1"/>
				<path class="st4" d="M419.9,39.4c-57.5,21.5-32.2,72.4-30.9,74.3c0.1,0.2,0.5,0.4,0.7,0.3c0.3-0.1,0.5-0.3,0.5-0.6
					c0.2-5.3,6.9-14.3,14.8-22.3c2.5-3.3-1.1-9.6,7.7-22.1c-2.1,8-2,18.5-0.9,17.9c3.1-1.5,4.1-2.6,7.7-3.8
					c1.9-0.7,13.2-23.9,14.2-22.9c-6.6,14.7-5.5,19.8-4.5,19.6c1.1-0.3,7.6-1.6,13.9-2c0.8-0.3,10.2-13.5,10.6-15.9
					c1.5,5.9-0.4,13.2-0.7,15.1c22.8-1.8,32.2,12.5,33.5,11.8C487.9,88,476.4,18.3,419.9,39.4L419.9,39.4z"/>
				<g>
					<circle class="st5" cx="457" cy="98.7" r="5.1"/>
					<circle class="st5" cx="427.6" cy="103" r="5.1"/>
				</g>
			</g>
		</g>
	</g>
	<path class="st5" d="M445.6,125.8c8.3-1,9-11.6,9-11.6s-5.8,2.8-10,3.3c-4.2,0.5-10.5-0.8-10.5-0.8S437.4,126.8,445.6,125.8
		L445.6,125.8z"/>
</g>
<g>
	<path class="st4" d="M208.4,125.9h-12.3V55.7c0-1.2-0.8-2-2-2H88.3c-1.2,0-2,0.8-2,2v70.2H73.6c-2.8,0-5.2,2.4-5.2,5.2
		c0,2.8,2.4,5.2,5.2,5.2h134.8c2.8,0,5.2-2.4,5.2-5.2C213.6,128.3,211.2,125.9,208.4,125.9L208.4,125.9z"/>
	<rect x="93.7" y="60.4" class="st6" width="94.6" height="62.7"/>
</g>
<path class="st7" d="M820.8,237l-71.1-27.1c-5.4-2.1-8.2-8.2-6.1-13.6l44-115.4c2.1-5.4,8.2-8.2,13.6-6.1l71.1,27.1
	c5.4,2.1,8.2,8.2,6.1,13.6l-44,115.4C832.3,236.3,826.2,239,820.8,237z"/>
<path class="st7" d="M814.7,233.5l-78.1-26.7c-5.5-1.9-8.4-7.9-6.6-13.4l43.1-126c1.9-5.5,7.9-8.4,13.4-6.6l78.1,26.7
	c5.5,1.9,8.4,7.9,6.6,13.4l-43.1,126C826.2,232.4,820.2,235.4,814.7,233.5z"/>
<path class="st7" d="M808.9,226l-84.6-24.2c-5.6-1.6-8.8-7.4-7.2-13L755.8,53c1.6-5.6,7.4-8.8,13-7.2l84.6,24.2
	c5.6,1.6,8.8,7.4,7.2,13l-38.8,135.8C820.3,224.3,814.5,227.6,808.9,226z"/>
<path class="st7" d="M799.8,216l-92-17.8c-5.7-1.1-9.5-6.6-8.3-12.3l28.4-147.1c1.1-5.7,6.6-9.5,12.3-8.3l92,17.8
	c5.7,1.1,9.5,6.6,8.3,12.3l-28.4,147.1C811.1,213.3,805.5,217.1,799.8,216z"/>
<circle class="st8" cx="767.9" cy="154.4" r="23.7"/>
<g>
	<g>
		<rect x="233" y="138" class="st9" width="4.2" height="5.1"/>
		<path class="st10" d="M277.9,123.6v27.1c0,11.4-12.7,11-12.7,0c0-9.9-6.6-10.2-11-10.2h-14.4"/>
		<rect x="235.5" y="137.2" class="st4" width="6.8" height="6.8"/>
		<g>
			<g>
				
					<radialGradient id="SVGID_1_" cx="233.5678" cy="222.6519" r="1.9498" gradientTransform="matrix(1 0 0 -1 0 348)" gradientUnits="userSpaceOnUse">
					<stop  offset="0" style="stop-color:#FFFFFF"/>
					<stop  offset="9.000000e-02" style="stop-color:#FFECD8"/>
					<stop  offset="0.21" style="stop-color:#FFD4A7"/>
					<stop  offset="0.33" style="stop-color:#FFC07D"/>
					<stop  offset="0.46" style="stop-color:#FFB05A"/>
					<stop  offset="0.59" style="stop-color:#FFA340"/>
					<stop  offset="0.72" style="stop-color:#FF9A2D"/>
					<stop  offset="0.86" style="stop-color:#FF9421"/>
					<stop  offset="1" style="stop-color:#FF931E"/>
				</radialGradient>
				<path class="st11" d="M235.3,127.5l-2.5-4.2l-1,4.3C233,127.4,234.1,127.4,235.3,127.5L235.3,127.5z"/>
				
					<radialGradient id="SVGID_00000022538521979935232140000018424943202615370909_" cx="242.9911" cy="220.5227" r="6.3054" gradientTransform="matrix(1 0 0 -1 0 348)" gradientUnits="userSpaceOnUse">
					<stop  offset="0" style="stop-color:#FFFFFF"/>
					<stop  offset="9.000000e-02" style="stop-color:#FFECD8"/>
					<stop  offset="0.21" style="stop-color:#FFD4A7"/>
					<stop  offset="0.33" style="stop-color:#FFC07D"/>
					<stop  offset="0.46" style="stop-color:#FFB05A"/>
					<stop  offset="0.59" style="stop-color:#FFA340"/>
					<stop  offset="0.72" style="stop-color:#FF9A2D"/>
					<stop  offset="0.86" style="stop-color:#FF9421"/>
					<stop  offset="1" style="stop-color:#FF931E"/>
				</radialGradient>
				<path style="fill:url(#SVGID_00000022538521979935232140000018424943202615370909_);" d="M243.1,129.1c2.2,0.8,4.3,1.9,6.2,3.1
					l1.3-4.7l-4.4,2.7l0.4-5.2l-3.8,3.6l-0.6-5.2l-3,4.3l-1.6-4.9l-2.1,4.7C237.9,127.6,240.5,128.1,243.1,129.1L243.1,129.1z"/>
			</g>
			<g>
				
					<radialGradient id="SVGID_00000032646473521198154320000014037235093298939064_" cx="233.5678" cy="192.2108" r="1.95" gradientTransform="matrix(1 0 0 -1 0 348)" gradientUnits="userSpaceOnUse">
					<stop  offset="0" style="stop-color:#FFFFFF"/>
					<stop  offset="9.000000e-02" style="stop-color:#FFECD8"/>
					<stop  offset="0.21" style="stop-color:#FFD4A7"/>
					<stop  offset="0.33" style="stop-color:#FFC07D"/>
					<stop  offset="0.46" style="stop-color:#FFB05A"/>
					<stop  offset="0.59" style="stop-color:#FFA340"/>
					<stop  offset="0.72" style="stop-color:#FF9A2D"/>
					<stop  offset="0.86" style="stop-color:#FF9421"/>
					<stop  offset="1" style="stop-color:#FF931E"/>
				</radialGradient>
				<path style="fill:url(#SVGID_00000032646473521198154320000014037235093298939064_);" d="M235.3,153.7l-2.5,4.2l-1-4.3
					C233,153.7,234.1,153.7,235.3,153.7L235.3,153.7z"/>
				
					<radialGradient id="SVGID_00000038414760386291346080000015842398753996981944_" cx="242.9911" cy="194.34" r="6.2975" gradientTransform="matrix(1 0 0 -1 0 348)" gradientUnits="userSpaceOnUse">
					<stop  offset="0" style="stop-color:#FFFFFF"/>
					<stop  offset="9.000000e-02" style="stop-color:#FFECD8"/>
					<stop  offset="0.21" style="stop-color:#FFD4A7"/>
					<stop  offset="0.33" style="stop-color:#FFC07D"/>
					<stop  offset="0.46" style="stop-color:#FFB05A"/>
					<stop  offset="0.59" style="stop-color:#FFA340"/>
					<stop  offset="0.72" style="stop-color:#FF9A2D"/>
					<stop  offset="0.86" style="stop-color:#FF9421"/>
					<stop  offset="1" style="stop-color:#FF931E"/>
				</radialGradient>
				<path style="fill:url(#SVGID_00000038414760386291346080000015842398753996981944_);" d="M243.1,152.1c2.2-0.8,4.3-1.9,6.2-3.1
					l1.3,4.7l-4.4-2.7l0.4,5.2l-3.8-3.6l-0.6,5.2l-3-4.3l-1.6,4.9l-2.1-4.7C237.9,153.5,240.5,153,243.1,152.1L243.1,152.1z"/>
			</g>
		</g>
		<g>
			<circle class="st15" cx="277.9" cy="74.5" r="53.4"/>
			<polygon class="st6" points="273.1,62.9 275.1,67.3 273.1,68.7 272.2,69.2 269.5,66.5 			"/>
			<polygon class="st6" points="272,70.4 270.9,75.5 267.5,77 265.3,74.5 268.7,73.1 270,69 			"/>
			<polygon class="st6" points="263.9,77 265.3,79.2 266.8,79 265.3,75.5 			"/>
			<polygon class="st6" points="255.3,94.1 257.3,94.1 255.3,102.2 250.9,99.8 			"/>
			<path class="st6" d="M241.9,96.6c1,3.9,4.9,5.4,4.9,5.4l7.8,2L241.9,96.6L241.9,96.6z"/>
			<polygon class="st6" points="258.5,86.8 259.5,87.8 257.3,91 			"/>
			<polygon class="st6" points="259.7,90 262.4,94.1 259.5,95.6 			"/>
			<polygon class="st6" points="268.7,99.8 273.1,100.3 277.9,102.2 272,103.9 			"/>
			<path class="st6" d="M268.7,106.4c-1.4,1,0,2.2,0,2.2h3.4v-2.2l7.5,6.4l-1.5,6.4l-6,2.2l-6.7-3.4l-7,0.7l-4.3-6.8l8.3-5.4
				L268.7,106.4L268.7,106.4z"/>
			<path class="st6" d="M285.4,36c-8.3-1.9-15.6-4.4-18.1-2.9c-1.6,1-10.1-3.9-10.3-4.4c-0.2-0.8-0.8-1.7-1.5-2.6
				c-18.3,8.5-31,27-31,48.5c0,3.2,0.3,6.3,0.8,9.3l8.2,10.4v-5.9l4.4-4.4l9.5,9.3l3.7-3.4l-3.7-6.8c0,0,4.2,1.5,6.1,1
				s3.9-3.4,4.4-5.9s-0.5-3.9,0.5-4.9c1-1,2.9,2.9,3.9,2.2s-0.5-6.1,2.4-8.5c2.9-2.4,6.4-6.8,6.8-8.8c0.5-2-4.9-1.5-4.4-3.2
				c0.5-1.8,10.3-5.7,12.7-5.6c3.7,0.2-1,9.3,0.5,9.5s4.4-6.8,10.5-10.3c3.6-2,8.1-5.1,8.1-6.1S293.7,37.9,285.4,36L285.4,36z"/>
			<path class="st6" d="M314,35.1l-5.6-0.9l-5.9,5.7l1.5,13.2c0,0,11.2-3.9,12.2-3.4s8.1,7.2,8.1,7.2l6,7.1
				C328,52.6,322.1,42.6,314,35.1z"/>
		</g>
	</g>
</g>
<g>
	<g>
		<path class="st16" d="M788.5,81.3c-2,11.6-23.2,17-23.2,17s-18.4-10.6-16-24c2.4-13.4,3.1-17.8,3.1-17.8l20.7-2.8l18.5,9.7
			C791.7,63.4,790.6,69.7,788.5,81.3z"/>
		<path class="st17" d="M765.3,98.3c0,0-18.4-10.6-16-24c2.4-13.4,3.1-17.8,3.1-17.8l20.7-2.8L765.3,98.3L765.3,98.3z"/>
		<path class="st18" d="M788.5,81.3c-2,11.6-23.2,17-23.2,17s-18.4-10.6-16-24c2.4-13.4,3.1-17.8,3.1-17.8l20.7-2.8l18.5,9.7
			C791.7,63.4,790.6,69.7,788.5,81.3z"/>
	</g>
	<g>
		<polygon class="st19" points="817.6,62.8 819.2,60.6 820.2,63.2 822.3,61.5 822.5,64.2 825.1,63.3 824.5,66 827.2,65.8 
			825.9,68.1 828.6,68.7 826.6,70.6 829,71.9 826.6,73.2 828.6,75.2 825.9,75.7 827.2,78.1 824.5,77.9 825.1,80.6 822.5,79.6 
			822.3,82.4 820.2,80.7 819.2,83.3 817.6,81.1 816,83.3 815,80.7 812.8,82.4 812.6,79.6 810.1,80.6 810.7,77.9 808,78.1 
			809.2,75.7 806.6,75.2 808.5,73.2 806.1,71.9 808.5,70.6 806.6,68.7 809.2,68.1 808,65.8 810.7,66 810.1,63.3 812.6,64.2 
			812.8,61.5 815,63.2 816,60.6 		"/>
		<g>
			<polygon class="st1" points="810.5,69.4 816.4,71.8 813.5,75.1 			"/>
			<polygon class="st1" points="824.6,69.4 818.8,71.8 821.7,75.1 			"/>
		</g>
		<polygon class="st1" points="817.4,74.9 815.6,78.1 819.2,78.1 		"/>
		
			<rect x="808.5" y="67.5" transform="matrix(0.7071 -0.7071 0.7071 0.7071 190.3914 595.0966)" class="st1" width="10" height="0.5"/>
		
			<rect x="824" y="65.3" transform="matrix(0.7071 -0.7071 0.7071 0.7071 191.7016 603.4681)" class="st1" width="0.5" height="10"/>
	</g>
	<g>
		<g>
			<polygon class="st19" points="809.9,95.1 812,96.8 809.5,97.7 811.1,99.9 808.4,100.1 809.4,102.6 806.7,102.1 806.9,104.8 
				804.5,103.5 803.9,106.1 802,104.2 800.7,106.6 799.4,104.2 797.5,106.1 796.9,103.5 794.5,104.8 794.7,102.1 792.1,102.6 
				793,100.1 790.3,99.9 791.9,97.7 789.4,96.8 791.6,95.1 789.4,93.5 791.9,92.6 790.3,90.4 793,90.2 792.1,87.6 794.7,88.2 
				794.5,85.5 796.9,86.8 797.5,84.2 799.4,86.1 800.7,83.7 802,86.1 803.9,84.2 804.5,86.8 806.9,85.5 806.7,88.2 809.4,87.6 
				808.4,90.2 811.1,90.4 809.5,92.6 812,93.5 			"/>
			<polygon class="st1" points="797.7,95 794.6,93.1 794.6,96.8 			"/>
		</g>
		<rect x="797.9" y="89.6" class="st1" width="5.3" height="1.1"/>
		<rect x="800" y="87.5" class="st1" width="1.1" height="5.3"/>
		<rect x="797.9" y="99.1" class="st1" width="5.3" height="1.1"/>
		<rect x="800" y="97" class="st1" width="1.1" height="5.3"/>
	</g>
	<path class="st20" d="M791.5,54.8c3.8,2.1,6.4,6.1,6.4,10.8c0,1.8-0.4,3.5-1.1,5"/>
	<path class="st20" d="M796.8,53.8c3.8,2.1,6.4,6.1,6.4,10.8c0,1.8-0.4,3.5-1.1,5"/>
</g>
<path class="st7" d="M636,46.3l90.9-22.8c5.6-1.4,11.4,2,12.8,7.7l36.4,145.3c1.4,5.6-2,11.4-7.7,12.8l-90.9,22.8
	c-5.6,1.4-11.4-2-12.8-7.7L628.4,59.1C626.9,53.5,630.4,47.7,636,46.3z"/>
<g>
	
		<rect x="652.3" y="54.8" transform="matrix(0.9659 -0.2588 0.2588 0.9659 1.5705 181.6828)" class="st21" width="76.9" height="60.1"/>
	
		<rect x="646.5" y="55.6" transform="matrix(0.9659 -0.2588 0.2588 0.9659 7.0381 179.4209)" class="st22" width="76.9" height="14.8"/>
	
		<rect x="658.2" y="78.7" transform="matrix(0.9659 -0.2588 0.2588 0.9659 -0.9707 178.4182)" class="st23" width="37.9" height="28.5"/>
	
		<rect x="659.6" y="108.7" transform="matrix(0.9659 -0.2588 0.2588 0.9659 -5.1623 184.4729)" class="st9" width="76.9" height="6.3"/>
	
		<rect x="697" y="69.5" transform="matrix(0.9659 -0.2588 0.2588 0.9659 4.5678 186.3969)" class="st23" width="26.4" height="12.6"/>
	
		<rect x="701.1" y="84.8" transform="matrix(0.9659 -0.2588 0.2588 0.9659 0.7549 187.9807)" class="st23" width="26.4" height="12.6"/>
</g>
<circle class="st8" cx="712" cy="154.4" r="23.7"/>
<path class="st7" d="M540.8,100.8l77.6-52.5c4.8-3.3,11.4-2,14.6,2.8l83.9,124.1c3.3,4.8,2,11.4-2.8,14.6l-77.6,52.5
	c-4.8,3.3-11.4,2-14.6-2.8l-83.9-124.1C534.7,110.6,536,104,540.8,100.8z"/>
<g>
	
		<rect x="567.1" y="93.8" transform="matrix(0.8192 -0.5736 0.5736 0.8192 43.709 368.4134)" class="st24" width="78" height="42.2"/>
	
		<rect x="602.5" y="82.6" transform="matrix(0.8192 -0.5736 0.5736 0.8192 53.011 375.5468)" class="st25" width="39" height="42.2"/>
	<polygon class="st23" points="600.6,107.1 650.1,109.8 586.2,154.5 	"/>
	<polygon class="st21" points="562,120 625.9,75.2 611.5,122.7 	"/>
</g>
<circle class="st8" cx="645.6" cy="177.6" r="23.7"/>
<g id="_素材">
	<g>
		<path class="st4" d="M500.5,40.4c-1.5,0.4-14.8,0.9-14.8,0.9s11.8-6.2,13.3-6.6s3,0.6,3.4,2.2C502.8,38.4,502,40,500.5,40.4
			L500.5,40.4z"/>
		<path class="st4" d="M495.9,27.3c-1.2,1.4-13.4,11.3-13.4,11.3s7.7-13.7,8.9-15.1c1.2-1.4,3.1-1.6,4.4-0.6S497,25.9,495.9,27.3z"
			/>
		<path class="st4" d="M483.9,21.1c-0.3,1.5-5.9,13.6-5.9,13.6s-0.2-13.4,0.1-14.9s1.9-2.4,3.5-2.1
			C483.1,18.2,484.2,19.6,483.9,21.1L483.9,21.1z"/>
	</g>
</g>
<g>
	<g>
		<g class="st26">
			<path class="st4" d="M152.8,170.2c-0.5,0.8-0.9,1.4-1.3,2.3c-0.9,1.9-1.9,3.9-2.4,4.9c2.4,0,3.2-0.1,4.5-0.2
				c-0.1,1-0.1,1.5-0.1,3c2-1.1,2.4-1.3,3.4-2.2c1.9-1.7,2.8-3.1,3.5-5.8h-1c-2.3,0-3.6,0.1-4.9,0.3v-7c1.9,0.2,3.4,0.3,6.1,0.3
				h14.5c2.2,0,3.6-0.1,5-0.2c-0.1,1.1-0.2,2.4-0.5,5.2c-0.5,6.9-1,9.8-2.1,11.2c-0.6,0.7-1.8,1.4-3,1.7c-0.7,0.2-2,0.2-3.6,0.2
				c-0.8,0-2-0.1-3.8-0.1c-0.2-2.5-0.6-4.2-1.3-6.1c-1.7,3.4-3.7,5.6-7,7.7l4.2,0.9c-0.2,1.5-0.3,1.7-0.5,2.9h2.5
				c0-1.9-0.1-2.9-0.3-4.2h7.3c-0.1,1.7-0.1,2.2-0.1,4.2h3.2c2.5,0,3.8-0.1,5-0.3v7c-1.3-0.2-2.8-0.2-5-0.2H172v4.3h3.8
				c2.6,0,3.8-0.1,5.5-0.3v7.2c-1.5-0.2-2.7-0.3-5.4-0.3H172v4.6c0,2.7,0.1,4.1,0.3,5.9h-7.7c0.2-1.8,0.3-3.2,0.3-5.9v-4.6H160
				c-2.6,0-3.6,0.1-5.3,0.3v-7.2c1.8,0.2,2.8,0.3,5.3,0.3h5.1v-4.3h-4c-0.5,1.5-0.7,2-1.4,4c-2.4-1.5-3.9-2.3-5.9-3
				c1.5-3.1,2.3-5.2,2.7-7.9c0.2-1.4,0.4-3,0.4-3.6c-0.9-1.5-1.9-2.9-3.3-4.3v29.8c0,2.7-0.6,4-2.3,5c-1.1,0.6-2.7,0.8-5.9,0.8
				c-0.8,0-0.8,0-3.3-0.1c-0.2-2.4-0.6-4.4-1.6-6.7c2.5,0.3,3.3,0.3,4.6,0.3c2.2,0,2.6-0.2,2.6-1.2v-5.6h-11
				c-0.6,6.3-1.4,9.2-3.4,13.5c-2.1-2.7-3.1-3.8-5.4-5.4c2.6-4.8,3.2-9.8,3.2-26.1c0-2.3,0-2.4-0.1-3.9c-1-1.2-1.5-1.6-3.4-3.1
				c4.1-3.8,7.1-9.3,8.1-15l7.2,1.3c-0.3,0.6-0.3,0.6-1.1,2.6h5.2c1.5,0,2.1-0.1,2.9-0.2L152.8,170.2z M142.4,177.4
				c0.7-1.3,1.1-2.2,1.8-4.1h-4.8c-0.9,1.8-1.4,2.8-2.2,4.1H142.4z M140,197.4v-4.2h-2.8l-0.1,4.2H140z M137.2,183.5v4h2.7v-4H137.2
				z M147.7,183.5h-2.8v4h2.8V183.5z M147.7,193.1h-2.8v4.2h2.8V193.1z M167.6,172.2c-0.6,2.7-0.9,3.6-1.6,5.1
				c1.4,0.2,2.6,0.3,3.7,0.3c1.3,0,1.9-0.3,2.1-0.9c0.1-0.3,0.2-1,0.3-2c0-0.1,0.1-0.7,0.2-1.5c0-0.2,0-0.6,0.1-1.1H167.6z"/>
			<path class="st4" d="M193.6,197.1c-0.5,8.9-0.8,11.4-2.4,17.2l-5.7-2.6c1.5-5.1,2.2-9.4,2.4-15.3L193.6,197.1z M185.9,187.8
				c0.9,0.2,1.5,0.2,2.8,0.2h1.9c1.1-1.3,1.5-1.9,2.6-3.4c-3-4-3.5-4.6-7.5-8.4l3.6-5.9c0.8,1,1.1,1.3,1.7,1.9
				c1.8-2.9,3.7-6.7,4.2-8.6l6.3,2.4c-0.3,0.5-0.6,0.9-1.1,2c-1.3,2.6-3.5,6.1-5.2,8.7c0.7,0.9,1,1.2,1.9,2.3
				c3.1-4.7,5.1-7.9,5.7-9.6l6.1,3.4c-0.5,0.6-0.9,1.2-1.9,2.8c-2.6,3.9-6.8,9.4-9.1,12.1c2.9-0.1,3.4-0.2,5.7-0.3
				c-0.4-1.2-0.6-1.8-1.5-3.8l4.7-1.8c1.5,3.4,2.9,7,4.4,11.7l-5.4,2.2c-0.2-1.1-0.3-1.5-0.5-2.5c-2.5,0.3-2.5,0.3-3.3,0.3v17.6
				c0,3,0.1,4.3,0.3,6.2h-7.4c0.3-1.8,0.3-3.2,0.3-6.2v-17c-2.6,0.2-2.6,0.2-6.5,0.4c-1,0.1-1.5,0.2-2.3,0.3L185.9,187.8z
				 M208.9,196.1c1.1,5,1.9,9.4,2.4,15l-6,1.1c-0.5-6.4-0.9-10.4-1.7-14.9L208.9,196.1z M218,179c-2.1,4-3,5.5-5.5,8.5
				c-1.3-2-2.7-3.4-5.3-5.4c2.6-3,4.7-6.5,6.2-10.3c1.1-3,1.9-5.7,2.3-7.8l7.5,1.3c-0.3,0.8-0.3,0.8-0.8,2.4
				c-0.3,0.9-0.9,2.8-1.4,4.2h12c2.3,0,3.4-0.1,4.6-0.2c-0.2,1.9-0.2,1.9-0.3,10.4c-0.1,6.8-0.6,16.8-1.2,21.4
				c-0.9,6.7-2,9.8-4,11.4c-1.4,1-3.9,1.5-7.9,1.5c-1.6,0-3.1-0.1-5-0.2c-0.3-3-0.7-4.7-1.9-7.5c2.7,0.4,5.6,0.7,7.3,0.7
				c2.6,0,3.2-0.7,3.9-4.2c0.9-5,1.5-14.6,1.5-26.4H218z M219.1,202.8c-2.3-7.5-3.4-10.1-6-14.7l6.3-3c3.2,5.5,4.6,8.7,6.5,14.5
				L219.1,202.8z"/>
		</g>
	</g>
	<g class="st26">
		<path class="st4" d="M537.7,81.1c-0.6,0.1-0.8,0.2-1.4,0.4c-1.5,0.6-3.1,1.4-4.2,2.2c0.1,0.1,0.3,0.1,0.3,0.2
			c2.2,1.3,2.4,3.3,0.7,6.4c-1.7,2.9-3.8,3.9-5.9,2.7c-2.2-1.2-2.3-4-0.3-7.4c0.2-0.3,0.3-0.5,0.6-0.9l-1.6-0.8
			c-0.3,0.5-0.7,1.3-0.9,1.7c-0.7,1.3-1.1,1.9-2.2,3.6c-0.2,0.3-0.3,0.4-0.5,0.8l-2.5-1.4c0.7-0.7,1.8-2.5,2.8-4.3
			c0.2-0.4,0.6-1.1,0.9-1.6l-1.1-0.6l-0.5-0.3c-0.3,0.5-0.4,0.7-0.6,1c-0.4,0.7-1.4,2.3-3,4.8c-0.2,0.2-0.2,0.4-0.3,0.5
			c0,0.1-0.1,0.2-0.2,0.3l-2.5-1.5c0.9-0.9,2.2-2.8,3.4-5c0.1-0.2,0.5-0.8,0.7-1.3c-1.4-0.8-1.6-0.9-2.3-1.2l1.7-2.9
			c0.5,0.4,0.6,0.5,2.1,1.4c1.3-2.7,2-4.4,2.4-5.9l2.6,1.4c-0.2,0.5-0.2,0.5-0.7,1.7c-0.7,1.6-1.2,2.9-1.9,4.2
			c0.8,0.4,1.3,0.7,1.6,0.9c1.2-2.3,1.8-4,2.2-5.4l2.6,1.4c-0.1,0.2-0.1,0.2-0.2,0.4c0,0-0.1,0.2-0.2,0.3c-0.1,0.3-0.1,0.3-0.7,1.5
			c-0.4,1-1,2.3-1.4,3.1c1.1,0.6,1.7,0.9,2,1.1c1.6-1.5,3-2.4,5.7-3.8c0.4-0.2,0.5-0.3,0.9-0.4L537.7,81.1z M529,87.3
			c-0.8,1.3-0.8,2.4-0.1,2.8c0.6,0.3,1.3-0.1,2-1.3c0.7-1.3,0.6-2-0.5-2.7c-0.2-0.1-0.4-0.2-0.4-0.2C529.5,86.4,529.3,86.7,529,87.3
			z"/>
	</g>
	<g class="st26">
		<path class="st4" d="M529.3,66.4c0.7-0.5,1.4-1.2,2.3-2.2l0.5-0.5c-0.7-0.9-1.7-2.1-2.1-2.5l-0.3-0.3l2.6-2.4
			c0.3,0.5,0.3,0.5,1.2,1.8c0.4,0.5,0.4,0.5,0.7,0.9c1-1.3,1.5-2.1,2.1-3.1l2.3,2c-0.3,0.3-0.3,0.3-0.7,1c-0.5,0.8-1.1,1.6-1.9,2.5
			c1.1,1.6,2,2.8,3.1,4.7c1.3,2.1,1.7,2.8,3.1,5.6c0.3,0.6,0.6,1.1,0.8,1.4l-3.3,1.6c-1.1-3-3.5-7.5-5.9-10.8l-0.4,0.5l-1.7,1.7
			l-0.3,0.3L529.3,66.4z M536.9,54.1c1.2,0.1,2.1,0.3,3.5,0.8l-0.8,2c-1.3-0.5-2.3-0.8-3.5-0.9L536.9,54.1z M538,51.5
			c1.1,0.1,2.2,0.3,3.3,0.7l-0.7,2c-1.3-0.5-2.3-0.7-3.4-0.8L538,51.5z M546.1,57.6c-0.8,0.7-1.3,1.1-2.1,2
			c-1.6,1.7-2.5,2.9-3.7,4.8l-2.3-1.8c1.8-2.8,2.5-3.7,4.3-5.6c0.4-0.4,0.4-0.5,1.4-1.5L546.1,57.6z M543.6,64c0.3,1.4,0.5,2,1,2.5
			c0.8,0.7,1.8,0.3,3.3-1.2c1.1-1.1,2.2-2.9,2.8-4.2l2.5,2.1c-0.2,0.3-0.3,0.5-0.7,0.9c-1.1,1.5-1.8,2.4-2.6,3.3
			c-1.4,1.5-2.6,2.3-3.8,2.7c-1.1,0.3-2.3,0-3.2-0.8c-0.9-0.8-1.4-1.9-1.8-4L543.6,64z"/>
	</g>
	<g class="st26">
		<path class="st4" d="M553.1,45.1c-0.8,0.5-1.2,0.8-1.8,1.3l-1.4-2c0.3,1,0.5,1.9,0.7,3.3l7.1,10.6c0.5,0.8,0.9,1.3,1.5,2l-2.5,1.7
			c-0.4-0.9-0.7-1.3-1.3-2.2l-3.4-5.1c-0.3-0.4-0.4-0.6-1.3-2c0.1,0.8,0,1.4,0,2.3c-1-0.9-1.6-1.5-2.7-2.1c0.3-1.9,0.1-4-0.4-6.3
			c-0.3-1.2-0.6-2.1-1-2.9l2.9-1.1c0.1,0.5,0.2,0.6,0.3,1c0,0.1,0.1,0.3,0.1,0.4c0.5-0.3,1.3-0.8,2-1.2l2.6-1.8
			c-0.7-1-0.8-1.2-1.3-1.6l2.4-1.6c0.3,0.5,0.5,0.9,1.1,1.8l2.9-2c0.9-0.6,1.5-1,2.1-1.6l1.6,2.3c-0.6,0.3-1.2,0.7-1.9,1.2l-3.3,2.2
			l0.7,1.1l2.7-1.8c0.8-0.6,1.2-0.8,1.7-1.2c0.3,0.5,0.6,1,1.1,1.8l1.7,2.5c0.6,0.9,0.9,1.3,1.2,1.7c-0.6,0.3-1,0.6-1.8,1.1l-3,2
			c0.5,1.2,0.7,2.2,0.8,3.3c2.4-0.4,4.4-1.2,7.7-3.3c0.1,1.1,0.4,2.1,0.7,3c-3.4,1.9-5.9,2.7-8.7,2.8c-0.4,1.6-1.1,2.9-2.5,4.8
			c-1.1-0.6-1.7-0.9-2.6-1.2c1.3-1.4,1.9-2.5,2.4-3.7c-0.8-0.1-1.2-0.2-2.4-0.6c-0.2-0.1-0.3-0.1-0.5-0.1l1.4-2.3l0.1,0.1
			c0.4,0.2,1.1,0.4,1.9,0.5c0-0.7-0.1-1-0.4-1.8l-2.7,1.8c-0.6,0.4-1,0.7-1.4,1c-0.3-0.6-0.6-1-1.1-1.7l-1.7-2.6
			c-0.6-0.8-0.8-1.2-1.2-1.6c0.6-0.3,0.9-0.5,1.8-1.1l2.8-1.9l-0.7-1.1L553.1,45.1z M556,47.8l1.1,1.7l2-1.4c-0.3-0.6-0.6-1-1-1.8
			L556,47.8z M560.3,44.8c0.5,0.7,0.7,1.2,1.1,1.7l2.2-1.4l-1.1-1.7L560.3,44.8z"/>
	</g>
	<g class="st26">
		<path class="st4" d="M569.5,37.3c0.6-0.2,0.9-0.3,1.2-0.4c2.1-0.8,4.2-1.8,7.4-3.4c0.9-0.5,1.3-0.7,1.6-1l2.4,1.5
			c-0.3,0.4-0.4,0.6-1.1,2.1c-0.8,1.6-0.8,1.7-1.5,3c-0.1,0.2-0.2,0.3-0.3,0.6c-0.2,0.4-0.3,0.5-0.4,0.8c0.4-0.3,0.6-0.5,1-0.6
			c0.9-0.3,1.6-0.2,2.3,0.3c0.4,0.3,0.4,0.4,1.1,1.7c0.6,1.3,1,1.5,2.2,1c1.4-0.5,2.7-1.4,3.7-2.4l1.5,2.9c-0.4,0.1-0.7,0.3-1.8,1
			c-1.2,0.7-1.9,1-3,1.4c-1.8,0.7-2.9,0.7-3.8,0c-0.5-0.4-0.7-0.7-1.3-2c-0.4-0.7-0.5-1-0.7-1.2c-0.2-0.2-0.6-0.2-1-0.1
			c-0.9,0.4-1.6,1.3-2.6,3.6c-0.6,1.4-1.2,2.9-1.6,4.1l-3.3-1.7c1-1.4,2.6-4.6,5-9.7c0.4-1,0.6-1.3,1-2.1c-0.9,0.6-1.8,1-4.4,2.3
			c-1,0.5-1.7,0.9-2.3,1.2L569.5,37.3z M570,30.8c2.7-0.3,5.6-1,9-2.3l0.6,2.9c-4.5,1.5-6.3,2-9.4,2.4L570,30.8z"/>
	</g>
	<g class="st26">
		<path class="st4" d="M591.9,24.4c0.8,0,1.6-0.1,2.9-0.3c1.9-0.3,4.6-0.8,6.6-1.3c0.8-0.2,1.1-0.3,1.4-0.5l1.9,2
			c-0.4,0.3-0.4,0.3-1.9,2.1c-2,2.4-2.6,3.1-4.1,4.6c1.2-0.6,2.3-0.9,3.5-1.1c1.9-0.3,3.5,0,4.8,0.8c1.2,0.7,1.9,1.8,2.2,3.4
			c0.3,2.1-0.4,4-2.2,5.4c-1.3,1.1-3.2,1.9-5.3,2.2c-1.9,0.3-3.6,0.2-4.6-0.4c-1-0.5-1.6-1.4-1.8-2.5c-0.3-1.9,1.2-3.6,3.5-3.9
			c1.6-0.2,3,0.2,4.1,1.2c0.5,0.5,0.8,0.9,1.3,1.7c1.5-0.9,2-1.8,1.7-3.2c-0.3-1.6-2-2.4-4.5-2c-3.2,0.5-6,2.2-8.3,5.1l-2.2-2.5
			c1.9-1.3,5.9-5.7,8.5-9.2c-1.8,0.4-2.1,0.5-5.3,1.2c-0.7,0.2-0.9,0.2-1.5,0.4L591.9,24.4z M599.2,37.4c-0.7,0.1-1,0.5-1,1
			c0.1,0.8,1,1.1,2.4,0.8c0.3-0.1,0.4-0.1,0.9-0.3C601.1,37.8,600.3,37.2,599.2,37.4z"/>
	</g>
	<g>
		<g class="st26">
			<path class="st4" d="M308.7,156.6v-1.3h-15.1v1.3h-3.5c0.1-0.8,0.2-1.9,0.2-3.4V137c0-1.2-0.1-2-0.1-3c0.9,0.1,1.7,0.1,3,0.1
				h16.1c1.2,0,2.1,0,3-0.1c-0.1,0.9-0.1,1.8-0.1,3v16.2c0,1.3,0.1,2.7,0.2,3.4H308.7z M293.6,152.3h15.1v-15.2h-15.1V152.3z
				 M304,139.5c1.1,0,1.7,0,2.4-0.1c-0.1,0.6-0.1,1.3-0.1,2v6.3c0,0.8,0,1.4,0.1,2c-0.7-0.1-1.4-0.1-2.4-0.1h-5.8
				c-1.1,0-1.7,0-2.4,0.1c0.1-0.7,0.1-1.3,0.1-2v-6.3c0-0.7,0-1.3-0.1-2c0.6,0.1,1.3,0.1,2.4,0.1H304z M299,146.9h4.2v-4.6H299
				V146.9z"/>
			<path class="st4" d="M314.8,143.6c0.5,0.1,0.7,0.1,1.3,0.1c0.2,0,0.2,0,0.7,0c0.6-0.7,0.7-0.9,1.2-1.6c-1.2-1.6-2-2.5-3.3-3.7
				l1.5-2.6l0.8,0.9c0.8-1.4,1.5-2.9,1.7-3.9l2.9,1c-0.2,0.3-0.3,0.5-0.6,1.1c-0.6,1.2-1.4,2.7-2.3,3.9c0.3,0.4,0.3,0.4,0.8,1
				c1.1-1.7,1.9-3.3,2.3-4.2l2.5,1.4c-0.2,0.3-0.2,0.3-1,1.6c-1.1,1.7-2.4,3.6-3.5,5c1.2-0.1,1.6-0.1,2.4-0.2c-0.3-1-0.3-1.1-0.7-2
				l2-0.7c0.6,1.7,0.9,2.5,1.2,3.8c0.1-0.6,0.1-1.5,0.1-2.3v-4.9c0-0.9,0-1.8-0.1-2.5c0.7,0.1,1.2,0.1,2.5,0.1h1.4
				c0.4-1,0.5-1.4,0.7-2.2l3.4,0.4c-0.3,0.8-0.4,1-0.7,1.7h2.6c1.3,0,1.8,0,2.5-0.1c-0.1,0.8-0.1,1.4-0.1,2.6v4.8
				c0,1.2,0,1.8,0.1,2.5c-0.7-0.1-1.6-0.1-2.4-0.1h-2.2c0.4,1.2,0.7,1.8,1.2,2.7c1-0.8,1.5-1.3,2.5-2.6l2.1,1.9
				c-1.2,1.2-2.2,2.2-3.1,2.9c1.2,1.5,2.2,2.4,3.6,3.3c-0.8,0.9-1.2,1.6-1.9,3c-2.3-1.9-3.2-3.2-4.6-6.2c0.1,1.4,0.2,2.3,0.2,2.7
				v1.5c0,1.7-0.9,2.4-3.3,2.4c-0.5,0-1.3,0-1.8-0.1c-0.1-1.2-0.3-2-0.6-2.7c-0.6,0.7-0.8,0.9-2.2,2.3c-0.6-0.9-1.1-1.5-2-2.4
				c1.2-0.9,1.7-1.3,2.3-2c0.6-0.8,1.1-1.6,1.5-2.7h-1c-0.6,0-0.9,0-1.3,0.1v-2.6l-0.9,0.4l-0.2-0.7c-0.3,0-0.3,0-0.8,0.1
				c-0.1,0-0.3,0-0.9,0.1v7.8c0,1.4,0,1.9,0.2,2.7h-3.1c0.1-0.9,0.2-1.6,0.2-2.7v-7.6c-1,0.1-1.2,0.1-1.9,0.1
				c-0.7,0.1-0.9,0.1-1.5,0.2L314.8,143.6z M317.8,147.6c-0.2,4.3-0.4,5.8-0.9,7.9l-2.2-1.3c0.6-1.8,0.7-3.1,0.9-6.8L317.8,147.6z
				 M323.5,147.2c0.4,2,0.4,2,0.7,4.9l-2,0.5c0-1.6-0.2-3.1-0.5-5L323.5,147.2z M324.6,146c0.3,0,0.3,0,0.8,0h2c0.6,0,0.9,0,1.1-0.1
				l0.9,1.2v-2.5h-2.1c-0.8,0-1.6,0-2.4,0.1c0.1,0.5,0.1,0.5,0.3,1L324.6,146z M329.4,147.7c-0.2,0.6-0.2,0.6-0.5,1.4
				c-0.6,1.9-1.2,3.1-2,4.3c0.7,0.1,1.2,0.2,1.7,0.2c0.6,0,0.8-0.1,0.8-0.6V147.7z M327.9,138.5h6.1v-1.2h-6.1V138.5z M327.9,142.2
				h6.1v-1.3h-6.1V142.2z"/>
		</g>
	</g>
	<g class="st26">
		<path class="st1" d="M235.4,68.1h5.7c1.1,0,2,0,2.5,0.1c0.6,0.1,1.1,0.3,1.5,0.6c0.4,0.3,0.8,0.7,1.1,1.2c0.3,0.5,0.4,1.1,0.4,1.7
			c0,0.7-0.2,1.3-0.5,1.8c-0.4,0.6-0.9,1-1.5,1.3c0.9,0.3,1.5,0.7,2,1.3c0.5,0.6,0.7,1.3,0.7,2.2c0,0.7-0.2,1.3-0.5,1.9
			c-0.3,0.6-0.7,1.1-1.2,1.5c-0.5,0.4-1.2,0.6-1.9,0.7c-0.5,0.1-1.6,0.1-3.5,0.1h-4.9V68.1z M238.2,70.5v3.3h1.9c1.1,0,1.8,0,2.1,0
			c0.5-0.1,0.9-0.2,1.2-0.5c0.3-0.3,0.4-0.7,0.4-1.1c0-0.4-0.1-0.8-0.4-1.1c-0.2-0.3-0.6-0.4-1.1-0.5c-0.3,0-1.1,0-2.5,0H238.2z
			 M238.2,76.2V80h2.7c1,0,1.7,0,2-0.1c0.4-0.1,0.8-0.3,1.1-0.6c0.3-0.3,0.4-0.7,0.4-1.2c0-0.4-0.1-0.8-0.3-1.1s-0.5-0.5-0.9-0.7
			c-0.4-0.1-1.3-0.2-2.6-0.2H238.2z"/>
		<path class="st1" d="M249.7,82.4V68.1h2.9v14.3H249.7z"/>
		<path class="st1" d="M262,77.2v-2.4h6.2v5.7c-0.6,0.6-1.5,1.1-2.6,1.5c-1.2,0.4-2.3,0.7-3.5,0.7c-1.5,0-2.8-0.3-3.9-0.9
			c-1.1-0.6-2-1.5-2.5-2.7c-0.6-1.2-0.8-2.4-0.8-3.8c0-1.5,0.3-2.8,0.9-4c0.6-1.2,1.5-2.1,2.7-2.7c0.9-0.5,2.1-0.7,3.4-0.7
			c1.8,0,3.2,0.4,4.2,1.1c1,0.7,1.6,1.8,1.9,3.1l-2.9,0.5c-0.2-0.7-0.6-1.3-1.1-1.7c-0.6-0.4-1.3-0.6-2.1-0.6c-1.3,0-2.3,0.4-3,1.2
			s-1.1,2-1.1,3.6c0,1.7,0.4,3,1.1,3.8c0.8,0.9,1.7,1.3,3,1.3c0.6,0,1.2-0.1,1.8-0.4c0.6-0.2,1.1-0.5,1.6-0.9v-1.8H262z"/>
		<path class="st1" d="M271,82.4V68.2h2.9V80h7.2v2.4H271z"/>
		<path class="st1" d="M282.6,75.3c0-1.5,0.2-2.7,0.7-3.7c0.3-0.7,0.8-1.4,1.3-2s1.2-1,1.9-1.3c0.9-0.4,1.9-0.6,3.1-0.6
			c2.1,0,3.8,0.7,5.1,2c1.3,1.3,1.9,3.1,1.9,5.5c0,2.3-0.6,4.1-1.9,5.4c-1.3,1.3-2.9,2-5,2c-2.1,0-3.8-0.7-5.1-2
			C283.2,79.4,282.6,77.6,282.6,75.3z M285.6,75.2c0,1.6,0.4,2.9,1.1,3.7c0.7,0.8,1.7,1.3,2.9,1.3c1.2,0,2.1-0.4,2.8-1.2
			c0.7-0.8,1.1-2.1,1.1-3.7c0-1.6-0.4-2.9-1.1-3.7c-0.7-0.8-1.7-1.2-2.9-1.2c-1.2,0-2.2,0.4-2.9,1.2
			C285.9,72.4,285.6,73.6,285.6,75.2z"/>
		<path class="st1" d="M298.8,68.1h5.7c1.1,0,2,0,2.5,0.1c0.6,0.1,1.1,0.3,1.5,0.6c0.4,0.3,0.8,0.7,1.1,1.2c0.3,0.5,0.4,1.1,0.4,1.7
			c0,0.7-0.2,1.3-0.5,1.8c-0.4,0.6-0.9,1-1.5,1.3c0.9,0.3,1.5,0.7,2,1.3c0.5,0.6,0.7,1.3,0.7,2.2c0,0.7-0.2,1.3-0.5,1.9
			c-0.3,0.6-0.7,1.1-1.2,1.5c-0.5,0.4-1.2,0.6-1.9,0.7c-0.5,0.1-1.6,0.1-3.5,0.1h-4.9V68.1z M301.7,70.5v3.3h1.9c1.1,0,1.8,0,2.1,0
			c0.5-0.1,0.9-0.2,1.2-0.5c0.3-0.3,0.4-0.7,0.4-1.1c0-0.4-0.1-0.8-0.4-1.1c-0.2-0.3-0.6-0.4-1.1-0.5c-0.3,0-1.1,0-2.5,0H301.7z
			 M301.7,76.2V80h2.7c1,0,1.7,0,2-0.1c0.4-0.1,0.8-0.3,1.1-0.6c0.3-0.3,0.4-0.7,0.4-1.2c0-0.4-0.1-0.8-0.3-1.1s-0.5-0.5-0.9-0.7
			c-0.4-0.1-1.3-0.2-2.6-0.2H301.7z"/>
		<path class="st1" d="M313.2,82.4V68.1h10.6v2.4h-7.7v3.2h7.2v2.4h-7.2V80h8v2.4H313.2z"/>
	</g>
</g>
<g>
	<g class="st26">
		<path class="st27" d="M542.4,204.5c0.3,0.4,0.5,0.6,1.2,1.3c2.4,2.3,3.4,3.5,4.4,4.9c2.2-1.2,3.3-1.7,5.9-2.7l1.5,3.2
			c-1.8,0.5-3.3,1.1-5.6,2.3c1.8,2.9,2.8,6.1,3.4,10.2c-1.3,0.2-1.8,0.4-3.3,1.1c-0.2-2.7-0.6-4.4-1.4-6.5c-0.4-1.2-0.9-2.2-1.5-3.2
			c-2.5,1.5-4,2.5-5.6,3.8l-1.2-2.9c1.7-1.3,2.5-1.8,5.1-3.5c-1.4-1.9-3.8-4.3-5.1-5.1L542.4,204.5z"/>
	</g>
	<g class="st26">
		<path class="st27" d="M551.1,200.4c0.6-0.7,1.1-1.4,2.2-3.2l5.7-9c1.1-1.8,1.5-2.5,1.9-3.3l2.9,1.9c-0.5,0.7-1.3,1.8-2.2,3.2
			l-5.7,9c-1,1.5-1.6,2.6-2,3.3L551.1,200.4z"/>
	</g>
	<g class="st26">
		<path class="st27" d="M562.5,172.8c0.4,0.5,0.4,0.5,3.4,3.4c3.2,3,4.5,4.8,5.5,7.2c0.7,1.6,1,2.9,1.1,4.8
			c-1.6-0.1-2.2-0.1-3.5,0.3c0-2.2-0.4-3.7-1.5-5.6c-0.7-1.3-1.5-2.2-3.1-3.8c-0.7-0.7-1.8-1.7-2.6-2.5c-0.9-0.8-1.2-1-1.6-1.4
			L562.5,172.8z M566.1,168.2c0.6,0.7,0.7,0.9,1.8,1.8l8.3,7.5c0.3-1.5,0.4-2.5,0.2-3.7c-0.2-1.4-0.7-2.6-1.5-3.9
			c1.4,0.1,1.9,0.1,3.3-0.2c1,2.1,1.5,4,1.5,6c0,1.6-0.3,2.8-1.1,5c-0.2,0.5-0.3,0.7-0.3,1l-2.3,0.1c-0.3-0.5-0.6-0.8-1.4-1.5
			l-8.8-7.9l-0.4-0.4c-0.7-0.6-1.1-0.9-1.5-1.2L566.1,168.2z"/>
	</g>
	<g class="st26">
		<path class="st27" d="M584.4,162.7c1,1.2,0.9,3-0.3,4c-1.2,1-3,0.9-4-0.3c-1-1.2-0.9-3,0.3-4C581.6,161.4,583.4,161.5,584.4,162.7
			z"/>
	</g>
	<g class="st26">
		<path class="st27" d="M589.2,149.6c-0.4-0.7-0.7-1-1-1.5c0.4,1.5,0.6,2.2,0.8,3.6l6.9,10.3c0.5,0.8,0.8,1.2,1.4,2l-2.4,1.6
			c-0.4-0.8-0.7-1.3-1.2-2.1l-3.3-4.9c-0.3-0.4-0.6-1-1.2-1.9c0,0.2,0,0.4,0,0.5c0,0.8,0,1-0.1,1.7c-0.9-0.9-1.6-1.4-2.6-2.1
			c0.3-1.8,0.2-3.6-0.3-5.9c-0.3-1.3-0.6-2-1-2.8l2.8-0.7l0,0c0.6-0.3,1.1-0.6,1.9-1.2l6.6-4.4c1.3-0.8,1.7-1.2,2.2-1.6
			c0.3,0.6,0.7,1.2,1.4,2.3l7.3,11c0.8,1.2,1.2,1.7,1.7,2.3l-2.2,1.5l-0.5-0.7l-6.8,4.5l0.5,0.7l-2.2,1.4c-0.3-0.6-0.7-1.2-1.4-2.3
			L589.2,149.6z M598.5,159.1l6.8-4.5l-7.2-10.8l-6.8,4.5L598.5,159.1z M599.3,149.9c0.4-0.3,0.8-0.5,1.1-0.8
			c0.2,0.3,0.3,0.5,0.7,1.2l2,3c0.5,0.7,0.6,0.9,0.8,1.1l-0.2,0.1c-0.1,0.1-0.5,0.3-1,0.6L600,157c-0.4,0.3-0.8,0.5-1.1,0.8
			c-0.2-0.3-0.3-0.5-0.7-1.1l-2-3.1c-0.4-0.6-0.6-0.8-0.8-1.1c0.4-0.2,0.7-0.4,1.2-0.7l0.4-0.3l-0.9-1.3L595,151
			c-0.4,0.2-0.6,0.4-0.9,0.7l-1.4-2.1c0.3-0.1,0.6-0.3,1-0.5l1.1-0.7l-0.2-0.3c-0.3-0.4-0.5-0.7-0.7-0.9l2.1-1.4
			c0.1,0.3,0.3,0.6,0.6,1l0.2,0.3l1.1-0.7c0.4-0.3,0.7-0.5,0.9-0.7l1.4,2.1c-0.3,0.2-0.6,0.3-1,0.6l-1.1,0.7l0.9,1.3L599.3,149.9z
			 M599.4,154.8l1.5-1l-1.1-1.6l-1.5,1L599.4,154.8z"/>
	</g>
	<g class="st26">
		<path class="st27" d="M613.3,131.8c0.1,0.4,0.4,1.1,0.7,1.7c1.8,3.4,3.5,5.4,6.3,6.9c1.6,0.9,2.8,1.4,4.8,1.7
			c1.5,0.3,2.1,0.4,3.4,0.3c-0.3,1.3-0.4,1.9-0.4,3.4c-2.9-0.3-4.8-0.8-6.8-1.7c-1.9-0.9-3.3-1.9-5.1-3.6c0.7,2.8,0.7,4.6,0,7.1
			c-0.5,2.1-1.2,3.7-2.4,5.7c-1-0.7-1.7-1.1-2.9-1.5c1.1-1.5,1.7-2.7,2.2-4.4c0.8-2.3,0.9-4.7,0.3-7.1c-0.4-1.6-1.2-3.7-2.1-5.5
			c-0.4-0.7-0.6-1-0.9-1.5L613.3,131.8z"/>
	</g>
	<g class="st26">
		<path class="st27" d="M631.5,126.3c-0.4-1-0.7-1.6-1-2.2l3.2-1.3c0.2,0.7,0.4,1.4,0.8,2.3l0.3,0.8l4-1.6c1.6-0.6,1.9-0.8,2.8-1.3
			l1.2,2.9c-0.8,0.2-1.2,0.4-2.9,1l-4.1,1.7l3.6,8.9c0.4,1,0.9,2,1.2,2.6l-3.1,1.3c-0.2-0.8-0.5-1.5-1-2.7l-3.6-8.9l-3.9,1.6
			c-1.6,0.6-1.9,0.8-2.8,1.2l-1.1-2.8c0.9-0.2,1.3-0.4,2.9-1l3.9-1.6L631.5,126.3z M632,132.2c0,0.3,0,0.3,0.3,1.6
			c0.2,1.2,0.3,2.9,0.3,4.3c0,1.4-0.1,2.3-0.5,3.8c-1.5-0.3-2-0.4-3.3-0.3c0.6-2.3,0.8-4,0.6-6.4c-0.1-1-0.2-1.7-0.4-2.4L632,132.2z
			 M640.6,127.9c0.4,0.6,0.8,1.1,1.5,1.9c1.8,2,3.1,3.1,4.8,4.2c-1.1,1.3-1.3,1.6-2,2.7c-2.6-2-4-3.4-6.3-6.4
			c-0.2-0.2-0.2-0.3-0.5-0.5L640.6,127.9z"/>
	</g>
	<g class="st26">
		<path class="st27" d="M646.7,125.7c0.9-0.2,1.7-0.3,3.7-1l10.2-3.1c2-0.6,2.8-0.9,3.6-1.3l1,3.3c-0.8,0.2-2.2,0.6-3.7,1l-10.2,3.1
			c-1.8,0.5-2.9,0.9-3.7,1.2L646.7,125.7z"/>
	</g>
	<g class="st26">
		<path class="st27" d="M675.5,110.9c-0.1,0.5-0.1,0.7-0.2,1.6c-0.4,4.8-0.9,9-1.5,12.4c4.1-1.3,6-1.9,7.7-2.6
			c-0.3-0.4-0.6-0.8-1.2-1.5c-1.3-1.5-1.7-2.1-2.6-2.9l2.6-1.7c2.6,2.5,5.1,5.5,7,8.6l-2.7,2.2c-0.4-0.8-0.4-0.8-1.4-2.2
			c-3,1.3-5.4,2.1-11.9,4.2c-1.2,0.4-1.4,0.5-1.9,0.7l-1.2-3.2c0.3,0,0.3,0,0.6-0.1c0.4-0.1,0.8-0.2,1.7-0.4c0.6-3.4,1-7,1.3-10.9
			c0.1-2.1,0.2-3,0-4L675.5,110.9z"/>
	</g>
	<g class="st26">
		<path class="st27" d="M687.9,118.2c0.3-0.3,0.5-0.4,0.7-0.8c0.5-0.7,2.2-3.3,3.2-5c0.6-1.1,1-1.6,1.4-1.9c0.4-0.3,0.9-0.5,1.5-0.6
			c1.1-0.2,1.7,0.1,3.6,1.8c2.4,2.1,4.7,3.8,7.5,5.7c1.3,0.9,1.7,1.1,2.3,1.5l-1.1,3.6c-3.5-2.5-5.6-4.1-10.9-8.6
			c-0.4-0.3-0.6-0.4-0.9-0.4c-0.3,0-0.3,0.1-1,1.3c-0.8,1.4-1.8,3.1-3.1,5.2c-0.3,0.4-0.4,0.6-0.6,1L687.9,118.2z M705.2,109.3
			c0.2,1.3-0.7,2.5-2,2.6c-1.3,0.2-2.5-0.7-2.6-2c-0.2-1.3,0.7-2.5,2-2.6C703.9,107.2,705,108,705.2,109.3z M701.9,109.8
			c0.1,0.6,0.6,1,1.2,0.9c0.5-0.1,0.9-0.6,0.9-1.2s-0.6-1-1.1-0.9C702.2,108.7,701.8,109.2,701.9,109.8z"/>
	</g>
	<g class="st26">
		<path class="st27" d="M709.9,112.4c1,0.1,1.7,0.1,3.9,0l10.7-0.6c2.1-0.1,2.9-0.2,3.8-0.4l0.2,3.5c-0.8,0-2.2,0-3.9,0.1l-10.6,0.6
			c-1.8,0.1-3,0.2-3.8,0.3L709.9,112.4z"/>
	</g>
	<g class="st26">
		<path class="st27" d="M733,109.5c2.3,1,3.8,1.8,5.7,3.1l-1.6,2.8c-1.7-1.3-3.5-2.4-5.8-3.3L733,109.5z M731.6,118.8
			c1.9,0,4.1-0.4,6.3-1.2c2.6-0.9,4.4-2.3,6.1-4.4c1.2-1.5,1.8-2.7,2.5-4.6c1.1,1.3,1.5,1.6,2.6,2.3c-1.2,2.5-2,3.9-3.4,5.3
			c-2.9,3.2-6.4,4.9-11.9,5.7c-0.7,0.1-1.1,0.2-1.5,0.3L731.6,118.8z M734.7,104.4c2.3,0.9,4,1.8,5.7,2.9l-1.7,2.7
			c-2.1-1.4-3.8-2.4-5.7-3.1L734.7,104.4z M746,105c0.8,1,1.2,1.7,1.7,2.9l-1.8,0.8c-0.5-1.2-0.8-1.8-1.7-3L746,105z M748.5,104
			c0.7,0.9,1.3,1.8,1.7,2.8l-1.8,0.8c-0.4-1-0.8-1.7-1.6-2.9L748.5,104z"/>
	</g>
	<g class="st26">
		<path class="st27" d="M762.8,113.3c-0.2,1.6-1.6,2.7-3.1,2.5s-2.7-1.6-2.5-3.1c0.2-1.6,1.6-2.7,3.1-2.5S763,111.7,762.8,113.3z"/>
	</g>
	<g class="st26">
		<path class="st27" d="M779.2,110.6c0.2-1.2,0.3-1.7,0.3-2.4l3.4,0.7c-0.2,0.6-0.4,1.2-0.6,2.3l-0.4,2l7.6,0.6c1,0.1,1.1,0.1,1.6,0
			l1.5,2c-0.3,0.3-0.4,0.3-0.8,0.9c-0.9,1.2-1.8,2.2-2.9,3.1c-0.9,0.8-1.7,1.3-3.5,2.1c-0.8-1.3-1.1-1.6-2.1-2.5
			c1.1-0.3,1.8-0.7,2.7-1.3c0.8-0.5,1.3-0.9,2-1.8l-6.6-0.5l-0.9,4.5c-0.2,1.3-0.2,1.3-0.2,1.7c0,0.5,0.2,0.8,0.8,1
			c0.5,0.2,1.1,0.3,1.8,0.5c1,0.2,2.6,0.4,3.7,0.5c1.2,0.1,1.8,0.1,2.9,0l-0.5,3.3c-0.5-0.1-0.5-0.1-2.3-0.3
			c-1.7-0.2-3.2-0.4-4.4-0.6c-1.7-0.3-3-0.7-3.7-1.1c-0.8-0.4-1.4-1.4-1.5-2.3c-0.1-0.7,0-1,0.3-2.8l0.9-4.6l-1.4-0.1
			c-1.8-0.1-1.9-0.1-2.8-0.1l0.3-3.1c0.3,0.1,0.5,0.1,0.6,0.1c0.4,0.1,1.1,0.2,2.1,0.3l1.8,0.2L779.2,110.6z"/>
	</g>
	<g class="st26">
		<path class="st27" d="M802.7,116.1c0.2-1.8,0.2-1.8,0.2-2.5l3.3,0.4c-0.2,0.7-0.3,1.3-0.4,2.4l-0.1,1.3l3.7,0.5
			c1.4,0.2,1.9,0.2,2.7,0.2l-0.4,3.1c-0.9-0.2-0.9-0.2-2.6-0.4l-3.7-0.5l-0.3,3.1l4.2,0.6c1.4,0.2,2,0.2,2.9,0.2l-0.4,3.1
			c-0.7-0.2-0.7-0.2-2.8-0.4l-4.3-0.6l-0.3,3.2c-0.2,1.7-0.2,2.1-0.2,3l-3.4-0.4c0.2-0.6,0.3-1.6,0.5-2.9l0.4-3.3l-4.6-0.6
			c-1.3-0.2-1.8-0.2-2.7-0.2l0.4-3.1c0.8,0.2,1.4,0.3,2.8,0.5l4.4,0.6l0.4-3.1l-3.3-0.5c-1.5-0.2-1.7-0.2-2.9-0.3l0.4-3.1
			c0.9,0.2,1.3,0.3,2.8,0.5l3.3,0.5L802.7,116.1z"/>
	</g>
	<g class="st26">
		<path class="st27" d="M825.6,137.4c1.2,0.5,1.7,0.7,2.3,0.8l-1.1,2.6c-0.5-0.3-1.3-0.6-2.3-1l-9.4-3.9c-1-0.4-1.7-0.7-2.3-0.9
			l1.1-2.6c0.7,0.4,1,0.6,2.2,1.1l5.2,2.2c1.3-2,2.4-3.8,3.4-5.7l-4.2-1.8c-1.2-0.5-1.5-0.6-2.2-0.8l1.1-2.6
			c0.7,0.4,1.1,0.6,2.2,1.1l4.7,2c0.6,0.3,0.9,0.3,1.4,0.3l0.8,1.6c-0.4,0.4-0.5,0.5-0.9,1.2c-1.1,2-2.2,3.8-3.5,5.8L825.6,137.4z"
			/>
	</g>
	<g class="st26">
		<path class="st27" d="M852.4,134.7c-0.4,0.6-0.7,1-1.5,2.4l-1.1,1.9c-1.7,3-2.4,4.1-3.4,5.1c-1.6,1.7-3.7,2.5-6.4,2.5
			c-1.4,0-2.6-0.2-4.5-0.6c0.2-1.4,0.2-2-0.1-3.5c1.8,0.6,2.9,0.8,4.2,0.8c2.2,0.1,3.6-0.5,4.9-2.1c0.5-0.7,1.5-2.1,2.5-3.9l1-1.7
			c0.8-1.4,1-1.7,1.3-2.5L852.4,134.7z M844,130c-0.4,0.6-0.8,1.2-1.5,2.4l-2,3.6c-0.6,1.1-1.1,2.1-1.3,2.6l-3-1.7
			c0.5-0.6,0.9-1.3,1.6-2.5l2-3.6c0.8-1.4,1-1.8,1.3-2.5L844,130z"/>
	</g>
	<g class="st26">
		<path class="st27" d="M863.1,152.5c-1.6,1.9-3.1,3-4.8,3.6c-2,0.7-3.9,0.7-6.7-0.1c0.3-1.4,0.3-2,0-3.5c2.6,0.9,4.5,1,6.2,0.2
			c0.9-0.4,1.8-1.2,2.7-2.2l-3.7-2.8c-1.1-0.9-1.7-1.3-2.5-1.7l1.8-2.4c0.7,0.7,1.2,1.1,2.3,2l9.5,7.2c1.2,0.9,1.7,1.3,2.6,1.8
			l-1.8,2.4c-0.7-0.7-1-0.9-2.4-1.9L863.1,152.5z M861,140.5c0.7,0.7,1.1,1,2.3,2l6.1,4.6c1.3,1,1.8,1.3,2.6,1.8l-1.8,2.4
			c-0.6-0.5-0.9-0.8-2.4-1.9l-6.1-4.7c-1.1-0.8-1.8-1.3-2.4-1.7L861,140.5z"/>
	</g>
	<g class="st26">
		<path class="st27" d="M883.6,166c-0.4,0-0.4,0-1,0c-1.6,0-3.5-0.1-5.2-0.5l-5,4.7c-0.8,0.8-1.3,1.3-1.7,1.8l-2.2-2.3
			c0.6-0.5,1-0.8,1.9-1.6l3.7-3.5c-1.7-0.4-3-1-5.8-2.4c0.5-1.2,0.6-1.7,0.8-2.9c2.9,1.7,5.8,2.9,8.8,3.4c2.2,0.4,4.2,0.5,5.3,0.2
			L883.6,166z"/>
	</g>
	<g class="st26">
		<path class="st27" d="M880.6,178.1c-0.8,0.6-1.1,1.1-1.3,1.7c-0.3,0.9-0.1,1.7,0.4,2.6c0.8,1.2,1.9,1.7,3.2,1.4l0.9,3.1
			c-1.1,0.1-1.7,0.1-2.4,0c-1.5-0.3-2.9-1.4-3.9-3c-1-1.6-1.4-3.2-1-4.8c0.4-1.6,1.5-3.2,3.2-4.3c3.4-2.1,7-1.4,9,1.8
			c1.5,2.3,1.4,4.7-0.2,6.8c-0.7,0.9-1.2,1.3-2.5,2.2c-0.1,0-0.1,0.1-0.4,0.3L880.6,178.1z M885.8,181.8c0.5-0.5,0.7-0.8,0.9-1.3
			c0.3-0.8,0.2-1.6-0.4-2.5c-0.8-1.3-2.1-1.7-3.7-1.2L885.8,181.8z"/>
	</g>
	<g class="st26">
		<path class="st27" d="M898.4,187.4c-0.8,0.3-1.6,0.6-2.5,1.1l-0.5,0.2l0.4,0.7c0.4,0.9,0.7,1.3,1,1.8l-2.6,1.3
			c-0.2-0.7-0.4-1-0.8-1.8L893,190l-5.3,2.7c-0.9,0.4-1,0.9-0.6,1.8c0.3,0.5,0.5,0.8,1.1,1.2l-2.3,1.5c-0.6-0.6-1.1-1.2-1.6-2.2
			c-1.2-2.4-0.9-3.8,1.2-4.9l6.1-3.1l-0.4-0.7c-0.4-0.7-0.6-1.1-1-1.6l2.7-1.3c0.2,0.6,0.4,1,0.7,1.8l0.4,0.7l0.5-0.2
			c0.9-0.5,1.5-0.8,2.4-1.4L898.4,187.4z"/>
	</g>
	<g class="st26">
		<path class="st27" d="M896.9,203.3c0.5-0.4,0.7-0.6,1-1c0.4-0.7,0.4-1.4,0.1-2.2c-0.7-1.8-2.5-2.3-4.8-1.4s-3.3,2.6-2.6,4.4
			c0.3,0.9,1,1.5,1.8,1.7c0.3,0.1,0.6,0.1,1.1,0l0.6,3.2c-0.9,0.1-1.4,0-2.1-0.1c-1.8-0.4-3.2-1.8-4-3.9c-0.7-1.7-0.7-3.5-0.1-4.9
			c0.7-1.5,2.1-2.8,4-3.5c1.9-0.7,3.8-0.8,5.3-0.1c1.4,0.6,2.6,1.9,3.2,3.6c0.8,2.1,0.7,4.1-0.5,5.6c-0.3,0.5-0.6,0.8-1.2,1.3
			L896.9,203.3z"/>
	</g>
	<g class="st26">
		<path class="st27" d="M896.9,212.8l-3.5,1l-1-3.5l3.5-1L896.9,212.8z"/>
	</g>
	<g class="st26">
		<path class="st4" d="M542.4,204.5c0.3,0.4,0.5,0.6,1.2,1.3c2.4,2.3,3.4,3.5,4.4,4.9c2.2-1.2,3.3-1.7,5.9-2.7l1.5,3.2
			c-1.8,0.5-3.3,1.1-5.6,2.3c1.8,2.9,2.8,6.1,3.4,10.2c-1.3,0.2-1.8,0.4-3.3,1.1c-0.2-2.7-0.6-4.4-1.4-6.5c-0.4-1.2-0.9-2.2-1.5-3.2
			c-2.5,1.5-4,2.5-5.6,3.8l-1.2-2.9c1.7-1.3,2.5-1.8,5.1-3.5c-1.4-1.9-3.8-4.3-5.1-5.1L542.4,204.5z"/>
	</g>
	<g class="st26">
		<path class="st4" d="M551.1,200.4c0.6-0.7,1.1-1.4,2.2-3.2l5.7-9c1.1-1.8,1.5-2.5,1.9-3.3l2.9,1.9c-0.5,0.7-1.3,1.8-2.2,3.2
			l-5.7,9c-1,1.5-1.6,2.6-2,3.3L551.1,200.4z"/>
	</g>
	<g class="st26">
		<path class="st4" d="M562.5,172.8c0.4,0.5,0.4,0.5,3.4,3.4c3.2,3,4.5,4.8,5.5,7.2c0.7,1.6,1,2.9,1.1,4.8c-1.6-0.1-2.2-0.1-3.5,0.3
			c0-2.2-0.4-3.7-1.5-5.6c-0.7-1.3-1.5-2.2-3.1-3.8c-0.7-0.7-1.8-1.7-2.6-2.5c-0.9-0.8-1.2-1-1.6-1.4L562.5,172.8z M566.1,168.2
			c0.6,0.7,0.7,0.9,1.8,1.8l8.3,7.5c0.3-1.5,0.4-2.5,0.2-3.7c-0.2-1.4-0.7-2.6-1.5-3.9c1.4,0.1,1.9,0.1,3.3-0.2c1,2.1,1.5,4,1.5,6
			c0,1.6-0.3,2.8-1.1,5c-0.2,0.5-0.3,0.7-0.3,1l-2.3,0.1c-0.3-0.5-0.6-0.8-1.4-1.5l-8.8-7.9l-0.4-0.4c-0.7-0.6-1.1-0.9-1.5-1.2
			L566.1,168.2z"/>
	</g>
	<g class="st26">
		<path class="st4" d="M584.4,162.7c1,1.2,0.9,3-0.3,4c-1.2,1-3,0.9-4-0.3c-1-1.2-0.9-3,0.3-4C581.6,161.4,583.4,161.5,584.4,162.7z
			"/>
	</g>
	<g class="st26">
		<path class="st4" d="M589.2,149.6c-0.4-0.7-0.7-1-1-1.5c0.4,1.5,0.6,2.2,0.8,3.6l6.9,10.3c0.5,0.8,0.8,1.2,1.4,2l-2.4,1.6
			c-0.4-0.8-0.7-1.3-1.2-2.1l-3.3-4.9c-0.3-0.4-0.6-1-1.2-1.9c0,0.2,0,0.4,0,0.5c0,0.8,0,1-0.1,1.7c-0.9-0.9-1.6-1.4-2.6-2.1
			c0.3-1.8,0.2-3.6-0.3-5.9c-0.3-1.3-0.6-2-1-2.8l2.8-0.7l0,0c0.6-0.3,1.1-0.6,1.9-1.2l6.6-4.4c1.3-0.8,1.7-1.2,2.2-1.6
			c0.3,0.6,0.7,1.2,1.4,2.3l7.3,11c0.8,1.2,1.2,1.7,1.7,2.3l-2.2,1.5l-0.5-0.7l-6.8,4.5l0.5,0.7l-2.2,1.4c-0.3-0.6-0.7-1.2-1.4-2.3
			L589.2,149.6z M598.5,159.1l6.8-4.5l-7.2-10.8l-6.8,4.5L598.5,159.1z M599.3,149.9c0.4-0.3,0.8-0.5,1.1-0.8
			c0.2,0.3,0.3,0.5,0.7,1.2l2,3c0.5,0.7,0.6,0.9,0.8,1.1l-0.2,0.1c-0.1,0.1-0.5,0.3-1,0.6L600,157c-0.4,0.3-0.8,0.5-1.1,0.8
			c-0.2-0.3-0.3-0.5-0.7-1.1l-2-3.1c-0.4-0.6-0.6-0.8-0.8-1.1c0.4-0.2,0.7-0.4,1.2-0.7l0.4-0.3l-0.9-1.3L595,151
			c-0.4,0.2-0.6,0.4-0.9,0.7l-1.4-2.1c0.3-0.1,0.6-0.3,1-0.5l1.1-0.7l-0.2-0.3c-0.3-0.4-0.5-0.7-0.7-0.9l2.1-1.4
			c0.1,0.3,0.3,0.6,0.6,1l0.2,0.3l1.1-0.7c0.4-0.3,0.7-0.5,0.9-0.7l1.4,2.1c-0.3,0.2-0.6,0.3-1,0.6l-1.1,0.7l0.9,1.3L599.3,149.9z
			 M599.4,154.8l1.5-1l-1.1-1.6l-1.5,1L599.4,154.8z"/>
	</g>
	<g class="st26">
		<path class="st4" d="M613.3,131.8c0.1,0.4,0.4,1.1,0.7,1.7c1.8,3.4,3.5,5.4,6.3,6.9c1.6,0.9,2.8,1.4,4.8,1.7
			c1.5,0.3,2.1,0.4,3.4,0.3c-0.3,1.3-0.4,1.9-0.4,3.4c-2.9-0.3-4.8-0.8-6.8-1.7c-1.9-0.9-3.3-1.9-5.1-3.6c0.7,2.8,0.7,4.6,0,7.1
			c-0.5,2.1-1.2,3.7-2.4,5.7c-1-0.7-1.7-1.1-2.9-1.5c1.1-1.5,1.7-2.7,2.2-4.4c0.8-2.3,0.9-4.7,0.3-7.1c-0.4-1.6-1.2-3.7-2.1-5.5
			c-0.4-0.7-0.6-1-0.9-1.5L613.3,131.8z"/>
	</g>
	<g class="st26">
		<path class="st4" d="M631.5,126.3c-0.4-1-0.7-1.6-1-2.2l3.2-1.3c0.2,0.7,0.4,1.4,0.8,2.3l0.3,0.8l4-1.6c1.6-0.6,1.9-0.8,2.8-1.3
			l1.2,2.9c-0.8,0.2-1.2,0.4-2.9,1l-4.1,1.7l3.6,8.9c0.4,1,0.9,2,1.2,2.6l-3.1,1.3c-0.2-0.8-0.5-1.5-1-2.7l-3.6-8.9l-3.9,1.6
			c-1.6,0.6-1.9,0.8-2.8,1.2l-1.1-2.8c0.9-0.2,1.3-0.4,2.9-1l3.9-1.6L631.5,126.3z M632,132.2c0,0.3,0,0.3,0.3,1.6
			c0.2,1.2,0.3,2.9,0.3,4.3c0,1.4-0.1,2.3-0.5,3.8c-1.5-0.3-2-0.4-3.3-0.3c0.6-2.3,0.8-4,0.6-6.4c-0.1-1-0.2-1.7-0.4-2.4L632,132.2z
			 M640.6,127.9c0.4,0.6,0.8,1.1,1.5,1.9c1.8,2,3.1,3.1,4.8,4.2c-1.1,1.3-1.3,1.6-2,2.7c-2.6-2-4-3.4-6.3-6.4
			c-0.2-0.2-0.2-0.3-0.5-0.5L640.6,127.9z"/>
	</g>
	<g class="st26">
		<path class="st4" d="M646.7,125.7c0.9-0.2,1.7-0.3,3.7-1l10.2-3.1c2-0.6,2.8-0.9,3.6-1.3l1,3.3c-0.8,0.2-2.2,0.6-3.7,1l-10.2,3.1
			c-1.8,0.5-2.9,0.9-3.7,1.2L646.7,125.7z"/>
	</g>
	<g class="st26">
		<path class="st4" d="M675.5,110.9c-0.1,0.5-0.1,0.7-0.2,1.6c-0.4,4.8-0.9,9-1.5,12.4c4.1-1.3,6-1.9,7.7-2.6
			c-0.3-0.4-0.6-0.8-1.2-1.5c-1.3-1.5-1.7-2.1-2.6-2.9l2.6-1.7c2.6,2.5,5.1,5.5,7,8.6l-2.7,2.2c-0.4-0.8-0.4-0.8-1.4-2.2
			c-3,1.3-5.4,2.1-11.9,4.2c-1.2,0.4-1.4,0.5-1.9,0.7l-1.2-3.2c0.3,0,0.3,0,0.6-0.1c0.4-0.1,0.8-0.2,1.7-0.4c0.6-3.4,1-7,1.3-10.9
			c0.1-2.1,0.2-3,0-4L675.5,110.9z"/>
	</g>
	<g class="st26">
		<path class="st4" d="M687.9,118.2c0.3-0.3,0.5-0.4,0.7-0.8c0.5-0.7,2.2-3.3,3.2-5c0.6-1.1,1-1.6,1.4-1.9c0.4-0.3,0.9-0.5,1.5-0.6
			c1.1-0.2,1.7,0.1,3.6,1.8c2.4,2.1,4.7,3.8,7.5,5.7c1.3,0.9,1.7,1.1,2.3,1.5l-1.1,3.6c-3.5-2.5-5.6-4.1-10.9-8.6
			c-0.4-0.3-0.6-0.4-0.9-0.4c-0.3,0-0.3,0.1-1,1.3c-0.8,1.4-1.8,3.1-3.1,5.2c-0.3,0.4-0.4,0.6-0.6,1L687.9,118.2z M705.2,109.3
			c0.2,1.3-0.7,2.5-2,2.6c-1.3,0.2-2.5-0.7-2.6-2c-0.2-1.3,0.7-2.5,2-2.6C703.9,107.2,705,108,705.2,109.3z M701.9,109.8
			c0.1,0.6,0.6,1,1.2,0.9c0.5-0.1,0.9-0.6,0.9-1.2s-0.6-1-1.1-0.9C702.2,108.7,701.8,109.2,701.9,109.8z"/>
	</g>
	<g class="st26">
		<path class="st4" d="M709.9,112.4c1,0.1,1.7,0.1,3.9,0l10.7-0.6c2.1-0.1,2.9-0.2,3.8-0.4l0.2,3.5c-0.8,0-2.2,0-3.9,0.1l-10.6,0.6
			c-1.8,0.1-3,0.2-3.8,0.3L709.9,112.4z"/>
	</g>
	<g class="st26">
		<path class="st4" d="M733,109.5c2.3,1,3.8,1.8,5.7,3.1l-1.6,2.8c-1.7-1.3-3.5-2.4-5.8-3.3L733,109.5z M731.6,118.8
			c1.9,0,4.1-0.4,6.3-1.2c2.6-0.9,4.4-2.3,6.1-4.4c1.2-1.5,1.8-2.7,2.5-4.6c1.1,1.3,1.5,1.6,2.6,2.3c-1.2,2.5-2,3.9-3.4,5.3
			c-2.9,3.2-6.4,4.9-11.9,5.7c-0.7,0.1-1.1,0.2-1.5,0.3L731.6,118.8z M734.7,104.4c2.3,0.9,4,1.8,5.7,2.9l-1.7,2.7
			c-2.1-1.4-3.8-2.4-5.7-3.1L734.7,104.4z M746,105c0.8,1,1.2,1.7,1.7,2.9l-1.8,0.8c-0.5-1.2-0.8-1.8-1.7-3L746,105z M748.5,104
			c0.7,0.9,1.3,1.8,1.7,2.8l-1.8,0.8c-0.4-1-0.8-1.7-1.6-2.9L748.5,104z"/>
	</g>
	<g class="st26">
		<path class="st4" d="M762.8,113.3c-0.2,1.6-1.6,2.7-3.1,2.5s-2.7-1.6-2.5-3.1c0.2-1.6,1.6-2.7,3.1-2.5S763,111.7,762.8,113.3z"/>
	</g>
	<g class="st26">
		<path class="st4" d="M779.2,110.6c0.2-1.2,0.3-1.7,0.3-2.4l3.4,0.7c-0.2,0.6-0.4,1.2-0.6,2.3l-0.4,2l7.6,0.6c1,0.1,1.1,0.1,1.6,0
			l1.5,2c-0.3,0.3-0.4,0.3-0.8,0.9c-0.9,1.2-1.8,2.2-2.9,3.1c-0.9,0.8-1.7,1.3-3.5,2.1c-0.8-1.3-1.1-1.6-2.1-2.5
			c1.1-0.3,1.8-0.7,2.7-1.3c0.8-0.5,1.3-0.9,2-1.8l-6.6-0.5l-0.9,4.5c-0.2,1.3-0.2,1.3-0.2,1.7c0,0.5,0.2,0.8,0.8,1
			c0.5,0.2,1.1,0.3,1.8,0.5c1,0.2,2.6,0.4,3.7,0.5c1.2,0.1,1.8,0.1,2.9,0l-0.5,3.3c-0.5-0.1-0.5-0.1-2.3-0.3
			c-1.7-0.2-3.2-0.4-4.4-0.6c-1.7-0.3-3-0.7-3.7-1.1c-0.8-0.4-1.4-1.4-1.5-2.3c-0.1-0.7,0-1,0.3-2.8l0.9-4.6l-1.4-0.1
			c-1.8-0.1-1.9-0.1-2.8-0.1l0.3-3.1c0.3,0.1,0.5,0.1,0.6,0.1c0.4,0.1,1.1,0.2,2.1,0.3l1.8,0.2L779.2,110.6z"/>
	</g>
	<g class="st26">
		<path class="st4" d="M802.7,116.1c0.2-1.8,0.2-1.8,0.2-2.5l3.3,0.4c-0.2,0.7-0.3,1.3-0.4,2.4l-0.1,1.3l3.7,0.5
			c1.4,0.2,1.9,0.2,2.7,0.2l-0.4,3.1c-0.9-0.2-0.9-0.2-2.6-0.4l-3.7-0.5l-0.3,3.1l4.2,0.6c1.4,0.2,2,0.2,2.9,0.2l-0.4,3.1
			c-0.7-0.2-0.7-0.2-2.8-0.4l-4.3-0.6l-0.3,3.2c-0.2,1.7-0.2,2.1-0.2,3l-3.4-0.4c0.2-0.6,0.3-1.6,0.5-2.9l0.4-3.3l-4.6-0.6
			c-1.3-0.2-1.8-0.2-2.7-0.2l0.4-3.1c0.8,0.2,1.4,0.3,2.8,0.5l4.4,0.6l0.4-3.1l-3.3-0.5c-1.5-0.2-1.7-0.2-2.9-0.3l0.4-3.1
			c0.9,0.2,1.3,0.3,2.8,0.5l3.3,0.5L802.7,116.1z"/>
	</g>
	<g class="st26">
		<path class="st4" d="M825.6,137.4c1.2,0.5,1.7,0.7,2.3,0.8l-1.1,2.6c-0.5-0.3-1.3-0.6-2.3-1l-9.4-3.9c-1-0.4-1.7-0.7-2.3-0.9
			l1.1-2.6c0.7,0.4,1,0.6,2.2,1.1l5.2,2.2c1.3-2,2.4-3.8,3.4-5.7l-4.2-1.8c-1.2-0.5-1.5-0.6-2.2-0.8l1.1-2.6
			c0.7,0.4,1.1,0.6,2.2,1.1l4.7,2c0.6,0.3,0.9,0.3,1.4,0.3l0.8,1.6c-0.4,0.4-0.5,0.5-0.9,1.2c-1.1,2-2.2,3.8-3.5,5.8L825.6,137.4z"
			/>
	</g>
	<g class="st26">
		<path class="st4" d="M852.4,134.7c-0.4,0.6-0.7,1-1.5,2.4l-1.1,1.9c-1.7,3-2.4,4.1-3.4,5.1c-1.6,1.7-3.7,2.5-6.4,2.5
			c-1.4,0-2.6-0.2-4.5-0.6c0.2-1.4,0.2-2-0.1-3.5c1.8,0.6,2.9,0.8,4.2,0.8c2.2,0.1,3.6-0.5,4.9-2.1c0.5-0.7,1.5-2.1,2.5-3.9l1-1.7
			c0.8-1.4,1-1.7,1.3-2.5L852.4,134.7z M844,130c-0.4,0.6-0.8,1.2-1.5,2.4l-2,3.6c-0.6,1.1-1.1,2.1-1.3,2.6l-3-1.7
			c0.5-0.6,0.9-1.3,1.6-2.5l2-3.6c0.8-1.4,1-1.8,1.3-2.5L844,130z"/>
	</g>
	<g class="st26">
		<path class="st4" d="M863.1,152.5c-1.6,1.9-3.1,3-4.8,3.6c-2,0.7-3.9,0.7-6.7-0.1c0.3-1.4,0.3-2,0-3.5c2.6,0.9,4.5,1,6.2,0.2
			c0.9-0.4,1.8-1.2,2.7-2.2l-3.7-2.8c-1.1-0.9-1.7-1.3-2.5-1.7l1.8-2.4c0.7,0.7,1.2,1.1,2.3,2l9.5,7.2c1.2,0.9,1.7,1.3,2.6,1.8
			l-1.8,2.4c-0.7-0.7-1-0.9-2.4-1.9L863.1,152.5z M861,140.5c0.7,0.7,1.1,1,2.3,2l6.1,4.6c1.3,1,1.8,1.3,2.6,1.8l-1.8,2.4
			c-0.6-0.5-0.9-0.8-2.4-1.9l-6.1-4.7c-1.1-0.8-1.8-1.3-2.4-1.7L861,140.5z"/>
	</g>
	<g class="st26">
		<path class="st4" d="M883.6,166c-0.4,0-0.4,0-1,0c-1.6,0-3.5-0.1-5.2-0.5l-5,4.7c-0.8,0.8-1.3,1.3-1.7,1.8l-2.2-2.3
			c0.6-0.5,1-0.8,1.9-1.6l3.7-3.5c-1.7-0.4-3-1-5.8-2.4c0.5-1.2,0.6-1.7,0.8-2.9c2.9,1.7,5.8,2.9,8.8,3.4c2.2,0.4,4.2,0.5,5.3,0.2
			L883.6,166z"/>
	</g>
	<g class="st26">
		<path class="st4" d="M880.6,178.1c-0.8,0.6-1.1,1.1-1.3,1.7c-0.3,0.9-0.1,1.7,0.4,2.6c0.8,1.2,1.9,1.7,3.2,1.4l0.9,3.1
			c-1.1,0.1-1.7,0.1-2.4,0c-1.5-0.3-2.9-1.4-3.9-3c-1-1.6-1.4-3.2-1-4.8c0.4-1.6,1.5-3.2,3.2-4.3c3.4-2.1,7-1.4,9,1.8
			c1.5,2.3,1.4,4.7-0.2,6.8c-0.7,0.9-1.2,1.3-2.5,2.2c-0.1,0-0.1,0.1-0.4,0.3L880.6,178.1z M885.8,181.8c0.5-0.5,0.7-0.8,0.9-1.3
			c0.3-0.8,0.2-1.6-0.4-2.5c-0.8-1.3-2.1-1.7-3.7-1.2L885.8,181.8z"/>
	</g>
	<g class="st26">
		<path class="st4" d="M898.4,187.4c-0.8,0.3-1.6,0.6-2.5,1.1l-0.5,0.2l0.4,0.7c0.4,0.9,0.7,1.3,1,1.8l-2.6,1.3
			c-0.2-0.7-0.4-1-0.8-1.8L893,190l-5.3,2.7c-0.9,0.4-1,0.9-0.6,1.8c0.3,0.5,0.5,0.8,1.1,1.2l-2.3,1.5c-0.6-0.6-1.1-1.2-1.6-2.2
			c-1.2-2.4-0.9-3.8,1.2-4.9l6.1-3.1l-0.4-0.7c-0.4-0.7-0.6-1.1-1-1.6l2.7-1.3c0.2,0.6,0.4,1,0.7,1.8l0.4,0.7l0.5-0.2
			c0.9-0.5,1.5-0.8,2.4-1.4L898.4,187.4z"/>
	</g>
	<g class="st26">
		<path class="st4" d="M896.9,203.3c0.5-0.4,0.7-0.6,1-1c0.4-0.7,0.4-1.4,0.1-2.2c-0.7-1.8-2.5-2.3-4.8-1.4
			c-2.3,0.9-3.3,2.6-2.6,4.4c0.3,0.9,1,1.5,1.8,1.7c0.3,0.1,0.6,0.1,1.1,0l0.6,3.2c-0.9,0.1-1.4,0-2.1-0.1c-1.8-0.4-3.2-1.8-4-3.9
			c-0.7-1.7-0.7-3.5-0.1-4.9c0.7-1.5,2.1-2.8,4-3.5c1.9-0.7,3.8-0.8,5.3-0.1c1.4,0.6,2.6,1.9,3.2,3.6c0.8,2.1,0.7,4.1-0.5,5.6
			c-0.3,0.5-0.6,0.8-1.2,1.3L896.9,203.3z"/>
	</g>
	<g class="st26">
		<path class="st4" d="M896.9,212.8l-3.5,1l-1-3.5l3.5-1L896.9,212.8z"/>
	</g>
</g>
</svg>
