<?xml version="1.0" encoding="utf-8"?>
<!-- Generator: Adobe Illustrator 27.6.1, SVG Export Plug-In . SVG Version: 6.00 Build 0)  -->
<svg version="1.1" id="_レイヤー_2" xmlns="http://www.w3.org/2000/svg" xmlns:xlink="http://www.w3.org/1999/xlink" x="0px"
	 y="0px" width="569px" height="409px" viewBox="0 0 569 409" style="enable-background:new 0 0 569 409;" xml:space="preserve">
<style type="text/css">
	.st0{fill:#EEEEEE;}
	.st1{fill:#F2A638;}
	.st2{fill:#FFE2CC;}
	.st3{fill:#35318F;}
	.st4{fill:#3A3A3A;}
	.st5{fill:#FFFFFF;}
	.st6{fill:#00AAE7;}
	.st7{fill:#999999;}
	.st8{fill:none;stroke:#35318F;stroke-width:4;stroke-linecap:round;stroke-miterlimit:10;}
	.st9{fill:url(#SVGID_1_);}
	.st10{fill:url(#SVGID_00000150824302392550349640000013094479343224293045_);}
	.st11{fill:url(#SVGID_00000145740587108698950020000017907900740340338616_);}
	.st12{fill:url(#SVGID_00000130618675207292427160000009776962382945086377_);}
	.st13{fill:#66CCF1;}
	.st14{fill:#FFFFFF;stroke:#B3B3B3;stroke-width:2;stroke-linecap:round;stroke-miterlimit:10;}
	.st15{fill:none;stroke:#E36552;stroke-width:10;stroke-linecap:round;stroke-miterlimit:10;}
	.st16{fill:#C1272D;}
	.st17{fill:#D3505A;}
	.st18{fill:none;stroke:#E6E6E6;stroke-width:4;stroke-miterlimit:10;}
	.st19{fill:#666666;}
	.st20{fill:none;stroke:#666666;stroke-miterlimit:10;}
	.st21{fill:#E6E6E6;}
	.st22{fill:#39B54A;}
	.st23{fill:#CCCCCC;}
	.st24{fill:#F2F2F2;}
	.st25{fill:#B3B3B3;}
	.st26{enable-background:new    ;}
	.st27{fill:none;stroke:#FFFFFF;stroke-width:6.2427;stroke-linecap:round;stroke-linejoin:round;}
</style>
<path class="st0" d="M20,0h529c11,0,20,9,20,20v369c0,11-9,20-20,20H20c-11,0-20-9-20-20V20C0,9,9,0,20,0z"/>
<g>
	<g>
		<g>
			<path class="st1" d="M184,370c0,0-1.4-26.4-3.7-57.5c-1.3-17.3-21.1-47-34-48.3c-29.8,0-53.8,16-64,31.6
				c-11,16.9-17.8,59.4-19.2,74.2H184z"/>
			<g>
				<path class="st2" d="M107.3,355.3c0.8-7.9,9.9-13.4,20.2-12.3c8.8,0.9,15.7,6.3,17.1,12.7c0.4,1.7-1.1,3.3-2.9,3.1
					C124.8,357.4,116.1,367,107.3,355.3L107.3,355.3z"/>
				<path class="st2" d="M124.6,346.3v-0.2c-0.2-1.8,1.4-3.4,3.5-3.5l17.1-1.4c2.1-0.2,4.1,1.1,4.2,2.9v0.2c0.2,1.8-1.4,3.4-3.5,3.5
					l-17.1,1.4C126.7,349.4,124.8,348.1,124.6,346.3z"/>
			</g>
		</g>
		<g>
			<path class="st3" d="M65.9,249c4.8,22.5,17.8,32.3,26.3,34.1c8.5,1.7,37-7.2,37-7.2s23.6,3.6,27.8-3.9
				c9.5-0.6,21.7-22.9,20.6-40.7c-2.4-38.9-22.1-59.4-56.8-59.2c-10.5,0.7-29.4,4.3-35.1,20.1C65.5,199.9,61.9,231.8,65.9,249
				L65.9,249z"/>
			<path class="st3" d="M108.2,284.9c-1.7,6.7-3.2,15.6-5.3,16.5c-3.2,2.4-12.8-3.4-17.8-16c-8.6-24.3,4.8-27.6,9.4-20.6
				C104,277.6,109.8,275.8,108.2,284.9L108.2,284.9z"/>
			<g>
				<path class="st2" d="M79.8,234c2,31.6,25.1,55.9,51.7,54.3c26.6-1.7,43.9-28.5,42-60.1c-2-31.6-21.9-47.2-48.6-45.6
					S77.8,202.4,79.8,234L79.8,234z"/>
				<circle class="st2" cx="84.5" cy="253.1" r="12.5"/>
				<path class="st3" d="M112.4,181.4c-54.6,20.4-30.5,68.6-29.3,70.5c0.1,0.2,0.4,0.3,0.7,0.2c0.3-0.1,0.5-0.3,0.5-0.6
					c0.2-5,6.5-13.6,14.1-21.2c2.4-3.1-1.1-9.1,7.3-20.9c-2,7.6-1.9,17.5-0.9,17c2.9-1.4,3.9-2.5,7.3-3.6
					c1.8-0.6,12.5-22.6,13.5-21.7c-6.3,14-5.2,18.8-4.3,18.6c1-0.2,7.2-1.6,13.2-1.9c0.8-0.3,9.7-12.8,10-15.1
					c1.4,5.6-0.4,12.5-0.6,14.3c21.7-1.7,30.5,11.9,31.8,11.2C176.9,227.5,165.9,161.3,112.4,181.4L112.4,181.4z"/>
				<g>
					<circle class="st4" cx="147.6" cy="237.7" r="4.9"/>
					<circle class="st4" cx="119.6" cy="241.7" r="4.9"/>
				</g>
			</g>
		</g>
	</g>
	<path class="st4" d="M136.8,263.4c7.8-1,8.6-11,8.6-11s-5.5,2.7-9.5,3.1c-4,0.5-10-0.8-10-0.8S129,264.3,136.8,263.4L136.8,263.4z"
		/>
</g>
<path class="st5" d="M156.5,61h299c19.1,0,34.5,15.4,34.5,34.5l0,0c0,19.1-15.4,34.5-34.5,34.5h-299c-19.1,0-34.5-15.4-34.5-34.5
	l0,0C122,76.4,137.4,61,156.5,61z"/>
<g>
	<path class="st3" d="M216.2,127.5h-13.9V48.2c0-1.3-0.9-2.2-2.2-2.2H80.4c-1.3,0-2.2,0.9-2.2,2.2v79.4H63.8c-3.2,0-5.8,2.7-5.8,5.8
		s2.7,5.8,5.8,5.8h152.4c3.1,0,5.9-2.7,5.9-5.8S219.4,127.6,216.2,127.5L216.2,127.5z"/>
	<rect x="86.5" y="53.4" class="st6" width="106.9" height="70.9"/>
</g>
<g>
	<g>
		<rect x="413.1" y="147.7" class="st7" width="4.6" height="5.5"/>
		<path class="st8" d="M461.4,132.2v29.1c0,12.3-13.7,11.9-13.7,0c0-10.7-7.1-10.9-11.8-10.9h-15.5"/>
		<rect x="415.8" y="146.8" class="st3" width="7.3" height="7.3"/>
		<g>
			<g>
				
					<radialGradient id="SVGID_1_" cx="413.73" cy="1398.55" r="2.1015" gradientTransform="matrix(1 0 0 1 0 -1264.46)" gradientUnits="userSpaceOnUse">
					<stop  offset="0" style="stop-color:#FFFFFF"/>
					<stop  offset="9.000000e-02" style="stop-color:#FFECD8"/>
					<stop  offset="0.21" style="stop-color:#FFD4A7"/>
					<stop  offset="0.33" style="stop-color:#FFC07D"/>
					<stop  offset="0.46" style="stop-color:#FFB05A"/>
					<stop  offset="0.59" style="stop-color:#FFA340"/>
					<stop  offset="0.72" style="stop-color:#FF9A2D"/>
					<stop  offset="0.86" style="stop-color:#FF9421"/>
					<stop  offset="1" style="stop-color:#FF931E"/>
				</radialGradient>
				<path class="st9" d="M415.6,136.4l-2.7-4.6l-1,4.6C413.1,136.3,414.3,136.3,415.6,136.4z"/>
				
					<radialGradient id="SVGID_00000137125658414940133870000006120654991980359327_" cx="423.855" cy="1400.8401" r="6.7818" gradientTransform="matrix(1 0 0 1 0 -1264.46)" gradientUnits="userSpaceOnUse">
					<stop  offset="0" style="stop-color:#FFFFFF"/>
					<stop  offset="9.000000e-02" style="stop-color:#FFECD8"/>
					<stop  offset="0.21" style="stop-color:#FFD4A7"/>
					<stop  offset="0.33" style="stop-color:#FFC07D"/>
					<stop  offset="0.46" style="stop-color:#FFB05A"/>
					<stop  offset="0.59" style="stop-color:#FFA340"/>
					<stop  offset="0.72" style="stop-color:#FF9A2D"/>
					<stop  offset="0.86" style="stop-color:#FF9421"/>
					<stop  offset="1" style="stop-color:#FF931E"/>
				</radialGradient>
				<path style="fill:url(#SVGID_00000137125658414940133870000006120654991980359327_);" d="M423.9,138.1c2.4,0.9,4.6,2,6.6,3.4
					l1.4-5.1l-4.7,2.9l0.5-5.6l-4.1,3.8l-0.7-5.6l-3.2,4.6l-1.8-5.2l-2.2,5.1C418.4,136.5,421.2,137.1,423.9,138.1L423.9,138.1z"/>
			</g>
			<g>
				
					<radialGradient id="SVGID_00000169556356592782700300000011175425957722761350_" cx="413.73" cy="1431.29" r="2.1015" gradientTransform="matrix(1 0 0 1 0 -1264.46)" gradientUnits="userSpaceOnUse">
					<stop  offset="0" style="stop-color:#FFFFFF"/>
					<stop  offset="9.000000e-02" style="stop-color:#FFECD8"/>
					<stop  offset="0.21" style="stop-color:#FFD4A7"/>
					<stop  offset="0.33" style="stop-color:#FFC07D"/>
					<stop  offset="0.46" style="stop-color:#FFB05A"/>
					<stop  offset="0.59" style="stop-color:#FFA340"/>
					<stop  offset="0.72" style="stop-color:#FF9A2D"/>
					<stop  offset="0.86" style="stop-color:#FF9421"/>
					<stop  offset="1" style="stop-color:#FF931E"/>
				</radialGradient>
				<path style="fill:url(#SVGID_00000169556356592782700300000011175425957722761350_);" d="M415.6,164.6l-2.7,4.6l-1-4.6
					C413.1,164.6,414.3,164.6,415.6,164.6z"/>
				
					<radialGradient id="SVGID_00000152959536907759394910000015067846085396721849_" cx="423.85" cy="1429" r="6.7848" gradientTransform="matrix(1 0 0 1 0 -1264.46)" gradientUnits="userSpaceOnUse">
					<stop  offset="0" style="stop-color:#FFFFFF"/>
					<stop  offset="9.000000e-02" style="stop-color:#FFECD8"/>
					<stop  offset="0.21" style="stop-color:#FFD4A7"/>
					<stop  offset="0.33" style="stop-color:#FFC07D"/>
					<stop  offset="0.46" style="stop-color:#FFB05A"/>
					<stop  offset="0.59" style="stop-color:#FFA340"/>
					<stop  offset="0.72" style="stop-color:#FF9A2D"/>
					<stop  offset="0.86" style="stop-color:#FF9421"/>
					<stop  offset="1" style="stop-color:#FF931E"/>
				</radialGradient>
				<path style="fill:url(#SVGID_00000152959536907759394910000015067846085396721849_);" d="M423.9,162.8c2.4-0.9,4.6-2,6.6-3.4
					l1.4,5.1l-4.7-2.9l0.5,5.6l-4.1-3.8L423,169l-3.2-4.6l-1.8,5.2l-2.2-5.1C418.4,164.4,421.2,163.8,423.9,162.8L423.9,162.8z"/>
			</g>
		</g>
		<g>
			<circle class="st13" cx="461.4" cy="79.4" r="57.4"/>
			<polygon class="st6" points="456.3,66.9 458.4,71.7 456.3,73.2 455.2,73.8 452.3,70.9 			"/>
			<polygon class="st6" points="455.1,75.1 453.9,80.5 450.2,82.2 447.9,79.4 451.5,77.9 452.9,73.5 			"/>
			<polygon class="st6" points="446.3,82.2 447.9,84.5 449.4,84.3 447.9,80.5 			"/>
			<polygon class="st6" points="437.1,100.5 439.2,100.5 437.1,109.2 432.4,106.6 			"/>
			<path class="st6" d="M422.6,103.2c1,4.2,5.2,5.8,5.2,5.8l8.4,2.1L422.6,103.2z"/>
			<polygon class="st6" points="440.5,92.7 441.6,93.7 439.2,97.1 			"/>
			<polygon class="st6" points="441.8,96.1 444.7,100.5 441.6,102.1 			"/>
			<polygon class="st6" points="451.5,106.6 456.3,107.1 461.4,109.2 455.1,111.1 			"/>
			<path class="st6" d="M451.5,113.7c-1.5,1.1,0,2.4,0,2.4h3.6v-2.4l8,6.8l-1.6,6.8l-6.4,2.4l-7.2-3.7l-7.5,0.8l-4.6-7.4l8.9-5.8
				L451.5,113.7L451.5,113.7z"/>
			<path class="st6" d="M469.4,38c-8.9-2.1-16.8-4.7-19.4-3.2c-1.7,1-10.9-4.2-11-4.7c-0.2-0.9-0.8-1.9-1.6-2.8
				c-19.6,9.1-33.3,29-33.3,52.1c0,3.4,0.3,6.8,0.9,10l8.9,11.1v-6.3l4.7-4.7l10.2,10l3.9-3.7l-3.9-7.4c0,0,4.5,1.6,6.6,1.1
				s4.2-3.7,4.7-6.3s-0.5-4.2,0.5-5.2s3.1,3.2,4.2,2.4s-0.5-6.6,2.6-9.2s6.8-7.4,7.4-9.5s-5.2-1.6-4.7-3.5s11-6.1,13.7-6
				c3.9,0.3-1,10,0.5,10.2s4.7-7.4,11.3-11c3.9-2.2,8.7-5.5,8.7-6.6S478.4,40.1,469.4,38L469.4,38z"/>
			<path class="st6" d="M500.2,37.1l-6.1-1l-6.3,6.1l1.6,14.2c0,0,12.1-4.2,13.1-3.7s8.7,7.8,8.7,7.8l6.5,7.6
				C515.2,55.9,509,45.1,500.2,37.1L500.2,37.1z"/>
		</g>
	</g>
</g>
<path class="st14" d="M464.7,377.8l-67.4-25.7c-5.2-2-7.7-7.7-5.8-12.9l41.8-109.5c2-5.2,7.7-7.7,12.9-5.8l67.4,25.7
	c5.2,2,7.7,7.7,5.8,12.9L477.6,372C475.6,377.2,469.8,379.8,464.7,377.8z"/>
<path class="st14" d="M458.9,374.5l-74.1-25.3c-5.2-1.8-8-7.5-6.2-12.7L419.5,217c1.8-5.2,7.5-8,12.7-6.2l74.1,25.3
	c5.2,1.8,8,7.5,6.2,12.7l-40.9,119.5C469.8,373.5,464.1,376.3,458.9,374.5z"/>
<path class="st14" d="M453.4,367.4l-80.3-22.9c-5.3-1.5-8.4-7.1-6.9-12.4L403,203.2c1.5-5.3,7.1-8.4,12.4-6.9l80.3,22.9
	c5.3,1.5,8.4,7.1,6.9,12.4l-36.8,128.8C464.2,365.8,458.7,368.9,453.4,367.4z"/>
<path class="st14" d="M444.8,357.9L357.5,341c-5.4-1-9-6.3-7.9-11.7l27-139.5c1-5.4,6.3-9,11.7-7.9l87.3,16.9c5.4,1,9,6.3,7.9,11.7
	l-27,139.5C455.5,355.4,450.2,358.9,444.8,357.9z"/>
<circle class="st15" cx="414.5" cy="299.5" r="22.5"/>
<g>
	<g>
		<path class="st16" d="M434.1,230.1c-1.9,11-22,16.2-22,16.2s-17.4-10-15.2-22.7s3-16.9,3-16.9l19.6-2.6l17.6,9.2
			C437.1,213.2,436,219.1,434.1,230.1z"/>
		<path class="st17" d="M412.1,246.3c0,0-17.4-10-15.2-22.7s3-16.9,3-16.9l19.6-2.6L412.1,246.3L412.1,246.3z"/>
		<path class="st18" d="M434.1,230.1c-1.9,11-22,16.2-22,16.2s-17.4-10-15.2-22.7s3-16.9,3-16.9l19.6-2.6l17.6,9.2
			C437.1,213.2,436,219.1,434.1,230.1z"/>
	</g>
	<g>
		<polygon class="st19" points="461.6,212.6 463.2,210.5 464.1,212.9 466.2,211.4 466.4,213.9 468.8,213.1 468.2,215.6 470.8,215.4 
			469.5,217.6 472.1,218.2 470.2,220 472.5,221.2 470.2,222.5 472.1,224.3 469.5,224.9 470.8,227.1 468.2,226.9 468.8,229.5 
			466.4,228.6 466.2,231.1 464.1,229.6 463.2,232 461.6,229.9 460.1,232 459.2,229.6 457.1,231.1 457,228.6 454.5,229.5 
			455.1,226.9 452.5,227.1 453.8,224.9 451.2,224.3 453,222.5 450.8,221.2 453,220 451.2,218.2 453.8,217.6 452.5,215.4 
			455.1,215.6 454.5,213.1 457,213.9 457.1,211.4 459.2,212.9 460.1,210.5 		"/>
		<g>
			<polygon class="st5" points="455,218.9 460.5,221.1 457.7,224.3 			"/>
			<polygon class="st5" points="468.3,218.9 462.8,221.1 465.6,224.3 			"/>
		</g>
		<polygon class="st5" points="461.5,224.1 459.7,227.1 463.2,227.1 		"/>
		
			<rect x="453.1" y="217" transform="matrix(0.7071 -0.7071 0.7071 0.7071 -19.5111 387.3669)" class="st5" width="9.5" height="0.5"/>
		
			<rect x="467.8" y="215" transform="matrix(0.7071 -0.7071 0.7071 0.7071 -18.2822 395.3222)" class="st5" width="0.5" height="9.5"/>
	</g>
	<g>
		<g>
			<polygon class="st19" points="454.3,243.2 456.4,244.8 454,245.7 455.5,247.8 453,247.9 453.9,250.4 451.3,249.8 451.5,252.4 
				449.3,251.1 448.7,253.7 446.9,251.9 445.6,254.1 444.4,251.9 442.6,253.7 442,251.1 439.8,252.4 440,249.8 437.5,250.4 
				438.3,247.9 435.8,247.8 437.3,245.7 434.9,244.8 437,243.2 434.9,241.7 437.3,240.8 435.8,238.7 438.3,238.6 437.5,236.1 
				440,236.7 439.8,234.1 442,235.4 442.6,232.8 444.4,234.7 445.6,232.4 446.9,234.7 448.7,232.8 449.3,235.4 451.5,234.1 
				451.3,236.7 453.9,236.1 453,238.6 455.5,238.7 454,240.8 456.4,241.7 			"/>
			<polygon class="st5" points="442.8,243.1 439.8,241.3 439.8,244.8 			"/>
		</g>
		<rect x="443" y="238" class="st5" width="5" height="1"/>
		<rect x="445" y="236" class="st5" width="1" height="5"/>
		<rect x="443" y="247" class="st5" width="5" height="1"/>
		<rect x="445" y="245" class="st5" width="1" height="5"/>
	</g>
	<path class="st20" d="M436.9,205c3.6,2,6.1,5.8,6.1,10.2c0,1.7-0.4,3.3-1,4.8"/>
	<path class="st20" d="M441.9,204c3.6,2,6.1,5.8,6.1,10.2c0,1.7-0.4,3.3-1,4.8"/>
</g>
<path class="st14" d="M289.4,197l86.2-21.6c5.4-1.3,10.8,1.9,12.1,7.3l34.5,137.9c1.3,5.4-1.9,10.8-7.3,12.1l-86.2,21.6
	c-5.4,1.3-10.8-1.9-12.1-7.3l-34.5-137.9C280.8,203.7,284.1,198.3,289.4,197z"/>
<g>
	<rect x="304.9" y="205" transform="matrix(0.9659 -0.2588 0.2588 0.9659 -48.7985 96.3073)" class="st21" width="73" height="57"/>
	
		<rect x="299.3" y="205.7" transform="matrix(0.9659 -0.2588 0.2588 0.9659 -43.6095 94.1484)" class="st22" width="73" height="14"/>
	
		<rect x="310.4" y="227.6" transform="matrix(0.9659 -0.2588 0.2588 0.9659 -51.2105 93.2018)" class="st23" width="36" height="27"/>
	<rect x="311.7" y="256.1" transform="matrix(0.9659 -0.2588 0.2588 0.9659 -55.196 98.9407)" class="st7" width="73" height="6"/>
	
		<rect x="347.3" y="219" transform="matrix(0.9659 -0.2588 0.2588 0.9659 -45.9719 100.7841)" class="st23" width="25" height="12"/>
	
		<rect x="351.2" y="233.4" transform="matrix(0.9659 -0.2588 0.2588 0.9659 -49.5666 102.2779)" class="st23" width="25" height="12"/>
</g>
<circle class="st15" cx="361.5" cy="299.5" r="22.5"/>
<path class="st14" d="M199.1,248.6l73.6-49.8c4.6-3.1,10.8-1.9,13.9,2.7l79.6,117.7c3.1,4.6,1.9,10.8-2.7,13.9l-73.6,49.8
	c-4.6,3.1-10.8,1.9-13.9-2.7l-79.6-117.7C193.3,257.9,194.5,251.7,199.1,248.6z"/>
<g>
	<rect x="224" y="242" transform="matrix(0.8192 -0.5736 0.5736 0.8192 -103.0751 197.0923)" class="st24" width="74" height="40"/>
	
		<rect x="257.7" y="231.4" transform="matrix(0.8192 -0.5736 0.5736 0.8192 -94.2302 203.8875)" class="st25" width="37" height="40"/>
	<polygon class="st23" points="255.8,254.6 302.8,257.2 242.2,299.6 	"/>
	<polygon class="st21" points="219.2,266.8 279.8,224.4 266.2,269.4 	"/>
</g>
<circle class="st15" cx="298.5" cy="321.5" r="22.5"/>
<g id="_素材">
	<g>
		<path class="st3" d="M203.8,194.3c-1.4,0.4-14.1,0.8-14.1,0.8s11.2-5.9,12.6-6.2s2.9,0.6,3.2,2.1S205.2,194,203.8,194.3z"/>
		<path class="st3" d="M199.4,181.9c-1.1,1.3-12.7,10.7-12.7,10.7s7.3-13,8.4-14.3s3-1.6,4.1-0.6S200.6,180.6,199.4,181.9
			L199.4,181.9z"/>
		<path class="st3" d="M188.1,176.1c-0.3,1.4-5.6,12.9-5.6,12.9s-0.2-12.7,0.1-14.1s1.8-2.3,3.3-2S188.4,174.6,188.1,176.1
			L188.1,176.1z"/>
	</g>
</g>
<g>
	<g>
		<g class="st26">
			<path class="st3" d="M498.3,169.5V168H481v1.5h-4c0.1-1,0.2-2.2,0.2-3.9v-18.5c0-1.4-0.1-2.3-0.1-3.5c1,0.1,2,0.1,3.4,0.1h18.4
				c1.4,0,2.4,0,3.4-0.1c-0.1,1-0.1,2-0.1,3.5v18.6c0,1.5,0.1,3,0.2,3.9H498.3z M481,164.6h17.3v-17.4H481V164.6z M492.9,150
				c1.2,0,1.9,0,2.7-0.1c-0.1,0.7-0.1,1.5-0.1,2.3v7.3c0,0.9,0,1.6,0.1,2.3c-0.8-0.1-1.6-0.1-2.7-0.1h-6.7c-1.3,0-1.9,0-2.7,0.1
				c0.1-0.8,0.1-1.5,0.1-2.3v-7.3c0-0.8,0-1.5-0.1-2.3c0.7,0.1,1.5,0.1,2.7,0.1H492.9z M487.2,158.4h4.8v-5.2h-4.8V158.4z"/>
			<path class="st3" d="M505.2,154.7c0.6,0.1,0.8,0.1,1.5,0.1c0.2,0,0.3,0,0.8,0c0.6-0.8,0.8-1,1.3-1.8c-1.4-1.8-2.3-2.8-3.8-4.3
				l1.7-3l1,1c1-1.6,1.7-3.4,2-4.5l3.3,1.2c-0.2,0.3-0.3,0.5-0.6,1.2c-0.7,1.4-1.6,3.1-2.6,4.5c0.4,0.5,0.4,0.5,0.9,1.2
				c1.3-2,2.2-3.8,2.6-4.8l2.9,1.6c-0.2,0.3-0.2,0.3-1.2,1.9c-1.2,2-2.8,4.1-4,5.8c1.3-0.1,1.8-0.1,2.7-0.2
				c-0.3-1.1-0.4-1.3-0.8-2.3l2.3-0.8c0.7,2,1,2.9,1.4,4.3c0.1-0.6,0.1-1.7,0.1-2.6v-5.6c0-1,0-2.1-0.1-2.9c0.8,0.1,1.4,0.1,2.8,0.1
				h1.6c0.4-1.2,0.6-1.6,0.8-2.5l3.9,0.5c-0.3,0.9-0.4,1.2-0.8,2h3c1.5,0,2.1,0,2.8-0.1c-0.1,0.9-0.1,1.6-0.1,3v5.5
				c0,1.4,0,2.1,0.1,2.8c-0.8-0.1-1.9-0.1-2.8-0.1h-2.6c0.5,1.4,0.8,2.1,1.4,3.1c1.1-0.9,1.7-1.5,2.9-2.9l2.4,2.1
				c-1.4,1.4-2.5,2.5-3.6,3.3c1.4,1.7,2.5,2.7,4.1,3.7c-0.9,1.1-1.4,1.8-2.2,3.5c-2.6-2.2-3.7-3.7-5.3-7.1c0.1,1.6,0.2,2.6,0.2,3.1
				v1.8c0,2-1.1,2.8-3.7,2.8c-0.6,0-1.5,0-2-0.1c-0.1-1.4-0.4-2.3-0.7-3.1c-0.7,0.8-0.9,1-2.5,2.7c-0.6-1-1.2-1.7-2.3-2.8
				c1.4-1,2-1.5,2.6-2.3c0.7-0.9,1.3-1.9,1.7-3.1h-1.2c-0.7,0-1.1,0-1.5,0.1v-3l-1,0.4l-0.2-0.8c-0.3,0-0.3,0-0.9,0.1
				c-0.1,0-0.3,0-1,0.1v9c0,1.6,0,2.2,0.2,3.1h-3.6c0.1-1,0.2-1.8,0.2-3.1v-8.7c-1.2,0.1-1.4,0.1-2.2,0.1c-0.8,0.1-1.1,0.1-1.7,0.2
				L505.2,154.7z M508.7,159.2c-0.2,4.9-0.4,6.7-1.1,9l-2.6-1.5c0.7-2.1,0.8-3.5,1-7.8L508.7,159.2z M515.2,158.7
				c0.5,2.3,0.5,2.3,0.8,5.6l-2.3,0.6c0-1.8-0.2-3.5-0.6-5.7L515.2,158.7z M516.5,157.4c0.3,0,0.4,0,1,0h2.3c0.6,0,1,0,1.3-0.1
				l1,1.4v-2.9h-2.4c-0.9,0-1.8,0-2.8,0.1c0.1,0.6,0.1,0.6,0.3,1.2L516.5,157.4z M522,159.3c-0.2,0.7-0.2,0.7-0.5,1.6
				c-0.7,2.2-1.3,3.5-2.3,4.9c0.8,0.1,1.4,0.2,2,0.2c0.7,0,0.9-0.1,0.9-0.7V159.3z M520.3,148.8h7v-1.4h-7V148.8z M520.3,153h7v-1.5
				h-7V153z"/>
		</g>
	</g>
</g>
<g>
	<g class="st26">
		<path class="st3" d="M273.9,75.7c-0.5,0.8-0.9,1.4-1.3,2.3c-0.9,1.9-1.9,3.9-2.4,4.9c2.4,0,3.2-0.1,4.5-0.2c-0.1,1-0.1,1.5-0.1,3
			c2-1.1,2.4-1.3,3.4-2.2c1.9-1.7,2.8-3.1,3.5-5.8h-1c-2.3,0-3.6,0.1-4.9,0.3v-7c1.9,0.2,3.4,0.3,6.1,0.3h14.5c2.2,0,3.6-0.1,5-0.2
			c-0.1,1.1-0.2,2.4-0.5,5.2c-0.5,6.9-1,9.8-2.1,11.2c-0.6,0.7-1.8,1.4-3,1.7c-0.7,0.2-2,0.2-3.6,0.2c-0.8,0-2-0.1-3.8-0.1
			c-0.2-2.5-0.6-4.2-1.3-6.1c-1.7,3.4-3.7,5.6-7,7.7l4.2,0.9c-0.2,1.5-0.3,1.7-0.5,2.9h2.5c0-1.9-0.1-2.9-0.3-4.2h7.3
			c-0.1,1.7-0.1,2.2-0.1,4.2h3.2c2.5,0,3.8-0.1,5-0.3v7c-1.3-0.2-2.8-0.2-5-0.2h-3.2v4.3h3.8c2.6,0,3.8-0.1,5.5-0.3v7.2
			c-1.5-0.2-2.7-0.3-5.4-0.3h-3.9v4.6c0,2.7,0.1,4.1,0.3,5.9h-7.7c0.2-1.8,0.3-3.2,0.3-5.9V112H281c-2.6,0-3.6,0.1-5.3,0.3v-7.2
			c1.8,0.2,2.8,0.3,5.3,0.3h5.1v-4.3h-4c-0.5,1.5-0.7,2-1.4,4c-2.4-1.5-3.9-2.3-5.9-3c1.5-3.1,2.3-5.2,2.7-7.9
			c0.2-1.4,0.4-3,0.4-3.6c-0.9-1.5-1.9-2.9-3.3-4.3v29.8c0,2.7-0.6,4-2.3,5c-1.1,0.6-2.7,0.8-5.9,0.8c-0.8,0-0.8,0-3.3-0.1
			c-0.2-2.4-0.6-4.4-1.6-6.7c2.5,0.3,3.3,0.3,4.6,0.3c2.2,0,2.6-0.2,2.6-1.2v-5.6h-11c-0.6,6.3-1.4,9.2-3.4,13.5
			c-2.1-2.7-3.1-3.8-5.4-5.4c2.6-4.8,3.2-9.8,3.2-26.1c0-2.3,0-2.4-0.1-3.9c-1-1.2-1.5-1.6-3.4-3.1c4.1-3.8,7.1-9.3,8.1-15l7.2,1.3
			c-0.3,0.6-0.3,0.6-1.1,2.6h5.2c1.5,0,2.1-0.1,2.9-0.2L273.9,75.7z M263.4,82.9c0.7-1.3,1.1-2.2,1.8-4.1h-4.8
			c-0.9,1.8-1.4,2.8-2.2,4.1H263.4z M261,102.8v-4.2h-2.8l-0.1,4.2H261z M258.3,89v4h2.7v-4H258.3z M268.7,89h-2.8v4h2.8V89z
			 M268.7,98.6h-2.8v4.2h2.8V98.6z M288.7,77.6c-0.6,2.7-0.9,3.6-1.6,5.1c1.4,0.2,2.6,0.3,3.7,0.3c1.3,0,1.9-0.3,2.1-0.9
			c0.1-0.3,0.2-1,0.3-2c0-0.1,0.1-0.7,0.2-1.5c0-0.2,0-0.6,0.1-1.1H288.7z"/>
		<path class="st3" d="M314.6,102.5c-0.5,8.9-0.8,11.4-2.4,17.2l-5.7-2.6c1.5-5.1,2.2-9.4,2.4-15.3L314.6,102.5z M307,93.2
			c0.9,0.2,1.5,0.2,2.8,0.2h1.9c1.1-1.3,1.5-1.9,2.6-3.4c-3-4-3.5-4.6-7.5-8.4l3.6-5.9c0.8,1,1.1,1.3,1.7,1.9
			c1.8-2.9,3.7-6.7,4.2-8.6l6.3,2.4c-0.3,0.5-0.6,0.9-1.1,2c-1.3,2.6-3.5,6.1-5.2,8.7c0.7,0.9,1,1.2,1.9,2.3
			c3.1-4.7,5.1-7.9,5.7-9.6l6.1,3.4c-0.5,0.6-0.9,1.2-1.9,2.8c-2.6,3.9-6.8,9.4-9.1,12.1c2.9-0.1,3.4-0.2,5.7-0.3
			c-0.4-1.2-0.6-1.8-1.5-3.8l4.7-1.8c1.5,3.4,2.9,7,4.4,11.7l-5.4,2.2c-0.2-1.1-0.3-1.5-0.5-2.5c-2.5,0.3-2.5,0.3-3.3,0.3v17.6
			c0,3,0.1,4.3,0.3,6.2h-7.4c0.3-1.8,0.3-3.2,0.3-6.2v-17c-2.6,0.2-2.6,0.2-6.5,0.4c-1,0.1-1.5,0.2-2.3,0.3L307,93.2z M329.9,101.5
			c1.1,5,1.9,9.4,2.4,15l-6,1.1c-0.5-6.4-0.9-10.4-1.7-14.9L329.9,101.5z M339,84.4c-2.1,4-3,5.5-5.5,8.5c-1.3-2-2.7-3.4-5.3-5.4
			c2.6-3,4.7-6.5,6.2-10.3c1.1-3,1.9-5.7,2.3-7.8l7.5,1.3c-0.3,0.8-0.3,0.8-0.8,2.4c-0.3,0.9-0.9,2.8-1.4,4.2h12
			c2.3,0,3.4-0.1,4.6-0.2c-0.2,1.9-0.2,1.9-0.3,10.4c-0.1,6.8-0.6,16.8-1.2,21.4c-0.9,6.7-2,9.8-4,11.4c-1.4,1-3.9,1.5-7.9,1.5
			c-1.6,0-3.1-0.1-5-0.2c-0.3-3-0.7-4.7-1.9-7.5c2.7,0.4,5.6,0.7,7.3,0.7c2.6,0,3.2-0.7,3.9-4.2c0.9-5,1.5-14.6,1.5-26.4H339z
			 M340.2,108.3c-2.3-7.5-3.4-10.1-6-14.7l6.3-3c3.2,5.5,4.6,8.7,6.5,14.5L340.2,108.3z"/>
	</g>
</g>
<g class="st26">
	<path class="st5" d="M417.7,73.6h5.7c1.1,0,2,0,2.5,0.1c0.6,0.1,1.1,0.3,1.5,0.6c0.4,0.3,0.8,0.7,1.1,1.2c0.3,0.5,0.4,1.1,0.4,1.7
		c0,0.7-0.2,1.3-0.5,1.8c-0.4,0.6-0.9,1-1.5,1.3c0.9,0.3,1.5,0.7,2,1.3s0.7,1.3,0.7,2.2c0,0.7-0.2,1.3-0.5,1.9
		c-0.3,0.6-0.7,1.1-1.2,1.5c-0.5,0.4-1.2,0.6-1.9,0.7c-0.5,0.1-1.6,0.1-3.5,0.1h-4.9V73.6z M420.6,75.9v3.3h1.9c1.1,0,1.8,0,2.1,0
		c0.5-0.1,0.9-0.2,1.2-0.5c0.3-0.3,0.4-0.7,0.4-1.1c0-0.4-0.1-0.8-0.4-1.1c-0.2-0.3-0.6-0.4-1.1-0.5c-0.3,0-1.1,0-2.5,0H420.6z
		 M420.6,81.6v3.8h2.7c1,0,1.7,0,2-0.1c0.4-0.1,0.8-0.3,1.1-0.6c0.3-0.3,0.4-0.7,0.4-1.2c0-0.4-0.1-0.8-0.3-1.1
		c-0.2-0.3-0.5-0.5-0.9-0.7c-0.4-0.1-1.2-0.2-2.6-0.2H420.6z"/>
	<path class="st5" d="M432.1,87.9V73.6h2.9v14.3H432.1z"/>
	<path class="st5" d="M444.4,82.6v-2.4h6.2v5.7c-0.6,0.6-1.5,1.1-2.6,1.5c-1.2,0.4-2.3,0.7-3.5,0.7c-1.5,0-2.8-0.3-3.9-0.9
		c-1.1-0.6-2-1.5-2.5-2.7c-0.6-1.2-0.8-2.4-0.8-3.8c0-1.5,0.3-2.8,0.9-4c0.6-1.2,1.5-2.1,2.7-2.7c0.9-0.5,2.1-0.7,3.4-0.7
		c1.8,0,3.2,0.4,4.2,1.1c1,0.7,1.6,1.8,1.9,3.1l-2.9,0.5c-0.2-0.7-0.6-1.3-1.1-1.7c-0.6-0.4-1.3-0.6-2.1-0.6c-1.3,0-2.3,0.4-3,1.2
		c-0.7,0.8-1.1,2-1.1,3.6c0,1.7,0.4,3,1.1,3.8c0.8,0.9,1.7,1.3,3,1.3c0.6,0,1.2-0.1,1.8-0.4c0.6-0.2,1.1-0.5,1.6-0.9v-1.8H444.4z"/>
	<path class="st5" d="M453.4,87.9V73.7h2.9v11.8h7.2v2.4H453.4z"/>
	<path class="st5" d="M464.9,80.8c0-1.5,0.2-2.7,0.7-3.7c0.3-0.7,0.8-1.4,1.3-2c0.6-0.6,1.2-1,1.9-1.3c0.9-0.4,1.9-0.6,3.1-0.6
		c2.1,0,3.8,0.7,5.1,2c1.3,1.3,1.9,3.1,1.9,5.5c0,2.3-0.6,4.1-1.9,5.4c-1.3,1.3-2.9,2-5,2c-2.1,0-3.8-0.7-5.1-2
		C465.6,84.9,464.9,83.1,464.9,80.8z M467.9,80.7c0,1.6,0.4,2.9,1.1,3.7c0.8,0.8,1.7,1.3,2.9,1.3s2.1-0.4,2.8-1.2
		c0.7-0.8,1.1-2.1,1.1-3.7c0-1.6-0.4-2.9-1.1-3.7c-0.7-0.8-1.7-1.2-2.9-1.2s-2.2,0.4-2.9,1.2C468.3,77.8,467.9,79.1,467.9,80.7z"/>
	<path class="st5" d="M481.1,73.6h5.7c1.1,0,2,0,2.5,0.1c0.6,0.1,1.1,0.3,1.5,0.6c0.4,0.3,0.8,0.7,1.1,1.2c0.3,0.5,0.4,1.1,0.4,1.7
		c0,0.7-0.2,1.3-0.5,1.8c-0.4,0.6-0.9,1-1.5,1.3c0.9,0.3,1.5,0.7,2,1.3c0.5,0.6,0.7,1.3,0.7,2.2c0,0.7-0.2,1.3-0.5,1.9
		c-0.3,0.6-0.7,1.1-1.2,1.5s-1.2,0.6-1.9,0.7c-0.5,0.1-1.6,0.1-3.5,0.1h-4.9V73.6z M484,75.9v3.3h1.9c1.1,0,1.8,0,2.1,0
		c0.5-0.1,0.9-0.2,1.2-0.5c0.3-0.3,0.4-0.7,0.4-1.1c0-0.4-0.1-0.8-0.4-1.1c-0.2-0.3-0.6-0.4-1.1-0.5c-0.3,0-1.1,0-2.5,0H484z
		 M484,81.6v3.8h2.7c1,0,1.7,0,2-0.1c0.4-0.1,0.8-0.3,1.1-0.6c0.3-0.3,0.4-0.7,0.4-1.2c0-0.4-0.1-0.8-0.3-1.1
		c-0.2-0.3-0.5-0.5-0.9-0.7c-0.4-0.1-1.3-0.2-2.6-0.2H484z"/>
	<path class="st5" d="M495.6,87.9V73.6h10.6V76h-7.7v3.2h7.2v2.4h-7.2v3.9h8v2.4H495.6z"/>
</g>
<g>
	<g class="st26">
		<path class="st3" d="M242.1,201.5c-0.7,0-0.8,0-1.5,0.1c-1.7,0.2-3.4,0.6-4.7,1.2c0.1,0.1,0.2,0.2,0.3,0.2
			c1.9,1.8,1.6,3.9-0.9,6.5c-2.4,2.5-4.7,2.9-6.4,1.3c-1.8-1.7-1.3-4.5,1.5-7.4c0.3-0.3,0.5-0.5,0.8-0.8l-1.3-1.2
			c-0.4,0.5-1,1.1-1.3,1.5c-1,1.1-1.5,1.6-3,3c-0.2,0.2-0.4,0.4-0.6,0.6l-2.1-2c0.8-0.6,2.4-2,3.9-3.5c0.3-0.3,0.9-0.9,1.3-1.4
			l-1-0.9l-0.4-0.4c-0.4,0.4-0.6,0.6-0.8,0.9c-0.6,0.6-2,2-4.1,4c-0.2,0.2-0.3,0.3-0.4,0.4c0,0-0.1,0.1-0.2,0.3l-2.1-2.1
			c1.1-0.7,2.8-2.2,4.6-4.1c0.2-0.2,0.7-0.7,1-1.2c-1.2-1.2-1.4-1.3-2-1.7l2.3-2.5c0.4,0.5,0.5,0.7,1.7,1.9c2-2.3,3.1-3.8,3.9-5.2
			l2.2,2c-0.4,0.4-0.4,0.4-1.1,1.5c-1,1.4-1.9,2.5-2.9,3.7c0.7,0.6,1.1,1,1.4,1.3c1.7-2,2.8-3.5,3.5-4.8l2.2,2
			c-0.1,0.1-0.1,0.1-0.3,0.4c0,0-0.1,0.1-0.2,0.3c-0.2,0.3-0.2,0.3-1,1.3c-0.7,0.9-1.6,2-2.2,2.7c0.9,0.8,1.5,1.3,1.7,1.6
			c1.9-1.1,3.6-1.7,6.5-2.3c0.4-0.1,0.6-0.1,1-0.2L242.1,201.5z M232.1,205.5c-1.1,1.1-1.4,2.2-0.8,2.7c0.5,0.5,1.4,0.2,2.3-0.8
			c1.1-1.1,1.1-1.8,0.2-2.7c-0.1-0.1-0.3-0.3-0.3-0.3C232.8,204.8,232.5,205.1,232.1,205.5z"/>
	</g>
	<g class="st26">
		<path class="st3" d="M237.4,185c0.8-0.3,1.7-0.8,2.8-1.6l0.6-0.4c-0.4-1.1-1.2-2.5-1.5-3l-0.2-0.3l3.1-1.7
			c0.1,0.5,0.1,0.5,0.8,2.1c0.3,0.6,0.3,0.6,0.4,1c1.3-1,2-1.7,2.8-2.6l1.8,2.5c-0.3,0.3-0.3,0.3-0.9,0.8c-0.7,0.7-1.5,1.3-2.5,2
			c0.8,1.8,1.3,3.2,1.9,5.4c0.8,2.4,1,3.2,1.7,6.2c0.2,0.7,0.3,1.2,0.4,1.6l-3.6,0.8c-0.3-3.2-1.6-8.3-3.2-12.1l-0.5,0.3l-2,1.3
			l-0.4,0.2L237.4,185z M248,174.7c1.2,0.4,2,0.8,3.2,1.6l-1.3,1.8c-1.2-0.8-2.1-1.3-3.2-1.7L248,174.7z M256.2,180.4
			c-1,0.5-1.5,0.8-2.5,1.4c-2,1.3-3.1,2.2-4.8,3.8l-1.8-2.4c2.5-2.3,3.4-3,5.6-4.5c0.5-0.3,0.5-0.4,1.8-1.1L256.2,180.4z
			 M249.7,172.5c1.1,0.3,2.1,0.8,3.1,1.5l-1.2,1.8c-1.2-0.8-2.1-1.2-3.1-1.7L249.7,172.5z M252.2,186.2c-0.1,1.5,0,2.1,0.4,2.7
			c0.6,0.9,1.7,0.8,3.6-0.4c1.3-0.9,2.9-2.4,3.8-3.5l2,2.7c-0.3,0.3-0.5,0.4-0.9,0.8c-1.4,1.2-2.3,1.9-3.4,2.6
			c-1.7,1.1-3.1,1.7-4.4,1.7c-1.2,0.1-2.3-0.5-3-1.5c-0.7-1-0.9-2.2-0.8-4.4L252.2,186.2z"/>
	</g>
	<g class="st26">
		<path class="st3" d="M265.2,170.5c-0.9,0.3-1.3,0.5-2,0.8l-0.8-2.3c0,1.1,0,1.9-0.1,3.4l4.4,12c0.3,0.9,0.6,1.5,1,2.3l-2.9,1
			c-0.2-0.9-0.4-1.4-0.8-2.5l-2.1-5.8c-0.2-0.4-0.2-0.7-0.8-2.2c-0.1,0.8-0.3,1.4-0.6,2.3c-0.7-1.1-1.2-1.8-2.1-2.7
			c0.7-1.8,1.1-3.8,1.1-6.2c0-1.2-0.1-2.1-0.3-3.1l3-0.4c0,0.5,0,0.6,0,1.1c0,0.1,0,0.3,0,0.4c0.6-0.1,1.5-0.4,2.3-0.7l3-1.1
			c-0.4-1.1-0.5-1.3-0.8-1.9l2.7-1c0.1,0.6,0.3,1,0.6,2l3.3-1.2c1-0.4,1.7-0.7,2.5-1l1,2.6c-0.6,0.2-1.3,0.4-2.2,0.7l-3.7,1.3
			l0.5,1.2l3-1.1c0.9-0.3,1.4-0.5,1.9-0.8c0.1,0.6,0.3,1.1,0.6,2l1,2.8c0.4,1,0.5,1.4,0.8,1.9c-0.6,0.2-1.1,0.3-2,0.7l-3.4,1.2
			c0.2,1.3,0.2,2.3,0,3.4c2.4,0.2,4.6-0.1,8.2-1.3c-0.1,1.1-0.1,2.1,0,3.1c-3.8,1-6.4,1.2-9.1,0.6c-0.8,1.5-1.8,2.6-3.6,4
			c-0.9-0.8-1.5-1.3-2.3-1.8c1.6-1.1,2.5-2,3.2-3c-0.7-0.3-1.1-0.5-2.2-1.2c-0.2-0.1-0.3-0.2-0.5-0.3l1.9-1.9l0.1,0.1
			c0.3,0.3,0.9,0.6,1.7,0.9c0.1-0.7,0.1-1,0.1-1.9l-3,1.1c-0.6,0.2-1.1,0.4-1.6,0.7c-0.1-0.6-0.3-1.1-0.6-1.9l-1.1-2.9
			c-0.3-1-0.5-1.3-0.8-1.9c0.6-0.2,1-0.3,2-0.6l3.1-1.1l-0.5-1.2L265.2,170.5z M267.4,173.8l0.7,1.9l2.3-0.8c-0.2-0.6-0.3-1.2-0.6-2
			L267.4,173.8z M272.3,172c0.3,0.8,0.4,1.4,0.6,1.9l2.4-0.9l-0.7-1.9L272.3,172z"/>
	</g>
	<g class="st26">
		<path class="st3" d="M283.1,166.8c0.6,0,0.9-0.1,1.3-0.1c2.2-0.3,4.5-0.7,8-1.5c1-0.2,1.4-0.4,1.8-0.6l2,2
			c-0.4,0.3-0.5,0.5-1.6,1.8c-1.2,1.4-1.2,1.4-2.2,2.5c-0.1,0.1-0.3,0.3-0.4,0.5c-0.3,0.3-0.4,0.4-0.6,0.6c0.5-0.2,0.7-0.3,1.1-0.4
			c0.9-0.1,1.7,0.2,2.1,0.9c0.3,0.4,0.3,0.5,0.6,1.9c0.3,1.5,0.6,1.7,1.9,1.5c1.4-0.2,3-0.7,4.2-1.4l0.8,3.2c-0.4,0-0.7,0.1-1.9,0.5
			c-1.3,0.4-2.1,0.5-3.2,0.7c-1.9,0.2-3,0-3.7-0.9c-0.4-0.5-0.5-0.9-0.8-2.2c-0.2-0.8-0.3-1.1-0.4-1.3c-0.2-0.2-0.5-0.4-0.9-0.3
			c-1,0.1-1.9,0.9-3.4,2.8c-1,1.2-1.9,2.5-2.5,3.6l-2.8-2.4c1.3-1.1,3.6-3.8,7.2-8.2c0.7-0.8,0.9-1.1,1.5-1.8c-1,0.3-2,0.6-4.8,1.2
			c-1.1,0.2-1.9,0.4-2.5,0.6L283.1,166.8z M285.1,160.7c2.7,0.4,5.6,0.4,9.3-0.1l-0.1,3c-4.7,0.4-6.6,0.4-9.7,0L285.1,160.7z"/>
	</g>
	<g class="st26">
		<path class="st3" d="M307.9,159.8c0.8,0.2,1.5,0.3,2.9,0.4c1.9,0.2,4.6,0.3,6.7,0.3c0.9,0,1.1,0,1.5-0.2l1.4,2.4
			c-0.5,0.2-0.5,0.2-2.4,1.6c-2.5,1.9-3.2,2.4-5.1,3.5c1.3-0.3,2.4-0.3,3.7-0.2c1.9,0.2,3.4,0.8,4.5,1.9c1,1,1.4,2.3,1.3,3.8
			c-0.2,2.1-1.4,3.8-3.4,4.8c-1.6,0.7-3.5,1-5.7,0.9c-1.9-0.2-3.5-0.7-4.4-1.5c-0.8-0.7-1.2-1.7-1.1-2.8c0.2-1.9,2-3.2,4.3-3
			c1.6,0.1,2.9,0.9,3.7,2.1c0.4,0.6,0.6,1.1,0.9,2c1.6-0.5,2.3-1.3,2.4-2.7c0.1-1.6-1.4-2.8-3.9-3c-3.2-0.3-6.4,0.7-9.3,2.9l-1.5-3
			c2.2-0.8,7.1-4.1,10.5-6.9c-1.8,0-2.2,0-5.5-0.1c-0.7,0-0.9,0-1.6,0L307.9,159.8z M311.9,174.1c-0.7-0.1-1.1,0.3-1.2,0.8
			c-0.1,0.8,0.7,1.3,2.2,1.4c0.3,0,0.4,0,0.9,0C313.6,174.9,312.9,174.2,311.9,174.1z"/>
	</g>
</g>
<g>
	<g class="st26">
		<path class="st27" d="M196.1,349.2c0.3,0.4,0.5,0.6,1.2,1.4c2.2,2.4,3.2,3.6,4.2,5c2.2-1.1,3.3-1.6,5.8-2.6l1.4,3.2
			c-1.7,0.5-3.2,1-5.5,2.1c1.6,2.9,2.6,6.1,3,10.3c-1.3,0.2-1.8,0.3-3.2,1c-0.2-2.7-0.5-4.5-1.2-6.6c-0.4-1.2-0.8-2.2-1.4-3.3
			c-2.5,1.5-3.9,2.4-5.5,3.6l-1.1-2.9c1.7-1.2,2.5-1.8,5-3.4c-1.3-2-3.6-4.4-4.9-5.3L196.1,349.2z"/>
	</g>
	<g class="st26">
		<path class="st27" d="M204.7,345.3c0.6-0.7,1.1-1.3,2.2-3.1l5.8-8.8c1.2-1.8,1.6-2.4,2-3.3l2.8,1.9c-0.5,0.7-1.3,1.8-2.2,3.2
			l-5.8,8.8c-1,1.5-1.6,2.5-2,3.3L204.7,345.3z"/>
	</g>
	<g class="st26">
		<path class="st27" d="M216.6,318.1c0.4,0.5,0.4,0.5,3.2,3.5c3,3.1,4.3,4.9,5.2,7.3c0.6,1.6,0.8,2.9,0.9,4.9
			c-1.6-0.1-2.1-0.1-3.5,0.2c0.1-2.2-0.3-3.8-1.3-5.6c-0.7-1.3-1.4-2.3-2.9-3.9c-0.7-0.7-1.7-1.8-2.5-2.5c-0.8-0.8-1.1-1.1-1.6-1.4
			L216.6,318.1z M220.2,313.7c0.5,0.7,0.7,0.9,1.7,1.9l7.9,7.8c0.4-1.4,0.4-2.4,0.3-3.7c-0.2-1.4-0.6-2.6-1.4-3.9
			c1.4,0.1,1.8,0.1,3.3-0.1c1,2.1,1.4,4.1,1.3,6.1c-0.1,1.6-0.4,2.8-1.2,4.9c-0.2,0.5-0.3,0.7-0.4,1l-2.2,0
			c-0.3-0.5-0.6-0.8-1.3-1.5l-8.3-8.2l-0.4-0.4c-0.7-0.6-1-1-1.4-1.3L220.2,313.7z"/>
	</g>
	<g class="st26">
		<path class="st27" d="M238.2,308.7c1,1.2,0.8,3-0.4,4c-1.2,1-2.9,0.8-3.9-0.4c-1-1.2-0.8-3,0.4-4
			C235.5,307.3,237.3,307.5,238.2,308.7z"/>
	</g>
	<g class="st26">
		<path class="st27" d="M243.3,295.7c-0.4-0.7-0.6-1-1-1.5c0.4,1.5,0.5,2.2,0.7,3.6l6.4,10.5c0.5,0.8,0.8,1.2,1.4,2l-2.4,1.5
			c-0.4-0.8-0.7-1.3-1.2-2.1l-3-5c-0.2-0.4-0.6-1-1.1-1.9c0,0.2,0,0.4,0,0.5c0,0.8,0,1-0.1,1.7c-0.9-0.9-1.5-1.4-2.5-2.2
			c0.4-1.8,0.3-3.6-0.1-5.9c-0.3-1.3-0.5-2.1-0.8-2.8l2.8-0.6l0,0c0.6-0.3,1.1-0.6,1.9-1.1l6.6-4.2c1.3-0.8,1.7-1.1,2.2-1.5
			c0.3,0.6,0.6,1.2,1.3,2.4l6.8,11.2c0.8,1.3,1.1,1.7,1.6,2.4l-2.2,1.4l-0.4-0.7l-6.7,4.3l0.4,0.7l-2.2,1.4
			c-0.3-0.7-0.6-1.3-1.2-2.3L243.3,295.7z M252.1,305.5l6.7-4.3l-6.7-11l-6.7,4.3L252.1,305.5z M253.1,296.4
			c0.4-0.3,0.8-0.5,1.1-0.8c0.1,0.3,0.3,0.5,0.7,1.2l1.9,3.1c0.4,0.7,0.6,0.9,0.8,1.1l-0.2,0.1c-0.1,0.1-0.5,0.3-1,0.6l-2.8,1.8
			c-0.4,0.3-0.8,0.5-1.1,0.8c-0.1-0.3-0.3-0.5-0.7-1.2l-1.9-3.1c-0.4-0.7-0.5-0.9-0.7-1.1c0.4-0.2,0.7-0.4,1.1-0.7l0.4-0.3l-0.8-1.3
			l-1.1,0.7c-0.3,0.2-0.6,0.4-0.9,0.7l-1.3-2.1c0.3-0.1,0.6-0.3,1-0.5l1.1-0.7l-0.2-0.3c-0.3-0.4-0.4-0.7-0.7-0.9l2.1-1.3
			c0.1,0.3,0.3,0.6,0.5,1l0.2,0.3l1.1-0.7c0.4-0.3,0.7-0.4,0.9-0.7l1.3,2.1c-0.3,0.2-0.6,0.3-1,0.5l-1.1,0.7l0.8,1.3L253.1,296.4z
			 M253.1,301.2l1.5-1l-1-1.6l-1.5,1L253.1,301.2z"/>
	</g>
	<g class="st26">
		<path class="st27" d="M267.2,278.7c0.1,0.4,0.4,1.1,0.7,1.7c1.6,3.5,3.3,5.5,5.9,7.1c1.5,1,2.7,1.5,4.6,1.9c1.4,0.3,2,0.4,3.3,0.4
			c-0.4,1.3-0.4,1.9-0.4,3.4c-2.8-0.4-4.6-0.9-6.6-1.9c-1.8-0.9-3.2-2-4.8-3.7c0.6,2.9,0.5,4.6-0.2,7.1c-0.6,2.1-1.3,3.6-2.6,5.6
			c-1-0.8-1.7-1.1-2.7-1.5c1.1-1.4,1.7-2.6,2.3-4.4c0.8-2.3,1-4.7,0.5-7.1c-0.3-1.6-1.1-3.7-1.9-5.6c-0.3-0.7-0.5-1.1-0.8-1.5
			L267.2,278.7z"/>
	</g>
	<g class="st26">
		<path class="st27" d="M285.1,273.7c-0.3-1-0.6-1.6-0.9-2.2l3.1-1.2c0.2,0.7,0.4,1.4,0.7,2.3l0.3,0.8l4-1.5
			c1.6-0.6,1.9-0.8,2.8-1.2l1,2.9c-0.8,0.2-1.2,0.3-2.8,0.9l-4,1.5l3.3,9c0.4,1,0.8,2,1.1,2.7l-3.1,1.2c-0.2-0.8-0.4-1.5-0.9-2.8
			l-3.3-9l-3.8,1.5c-1.5,0.6-1.9,0.7-2.7,1.2l-1-2.9c0.9-0.2,1.3-0.3,2.8-0.9l3.8-1.5L285.1,273.7z M285.5,279.6
			c0,0.3,0,0.3,0.2,1.6c0.2,1.2,0.2,2.9,0.1,4.3c-0.1,1.4-0.2,2.3-0.6,3.7c-1.4-0.4-1.9-0.4-3.2-0.4c0.7-2.3,0.9-4,0.7-6.4
			c-0.1-1-0.2-1.7-0.4-2.4L285.5,279.6z M294,275.6c0.4,0.6,0.7,1.1,1.4,2c1.7,2.1,2.9,3.2,4.5,4.3c-1.1,1.3-1.3,1.6-2.1,2.6
			c-2.5-2.1-3.7-3.5-5.9-6.6c-0.1-0.2-0.2-0.3-0.4-0.6L294,275.6z"/>
	</g>
	<g class="st26">
		<path class="st27" d="M299.9,273.5c0.9-0.1,1.6-0.3,3.7-0.9l10-2.8c2-0.6,2.7-0.8,3.6-1.2l0.9,3.3c-0.8,0.2-2.1,0.5-3.7,0.9
			l-10,2.8c-1.7,0.5-2.8,0.8-3.6,1.1L299.9,273.5z"/>
	</g>
	<g class="st26">
		<path class="st27" d="M328.4,259.6c-0.1,0.5-0.2,0.7-0.3,1.6c-0.5,4.8-1.1,9-1.8,12.4c4-1.1,5.9-1.7,7.5-2.4
			c-0.3-0.4-0.6-0.8-1.1-1.6c-1.2-1.6-1.6-2.1-2.5-3l2.5-1.6c2.5,2.6,4.8,5.7,6.6,8.8l-2.7,2.1c-0.4-0.8-0.4-0.8-1.3-2.3
			c-3,1.2-5.3,2-11.7,3.9c-1.1,0.3-1.4,0.4-1.9,0.6l-1-3.3c0.3,0,0.3,0,0.5-0.1c0.4-0.1,0.8-0.2,1.7-0.4c0.7-3.4,1.2-6.9,1.6-10.9
			c0.2-2.1,0.2-3,0.2-4L328.4,259.6z"/>
	</g>
	<g class="st26">
		<path class="st27" d="M340.3,267.3c0.3-0.3,0.5-0.4,0.7-0.8c0.5-0.7,2.2-3.2,3.2-4.9c0.6-1,1-1.6,1.4-1.9c0.4-0.3,0.9-0.5,1.4-0.6
			c1.1-0.1,1.7,0.2,3.5,1.9c2.3,2.2,4.4,3.9,7.1,5.9c1.2,0.9,1.6,1.2,2.2,1.5l-1.2,3.6c-3.4-2.6-5.3-4.2-10.4-8.9
			c-0.4-0.3-0.6-0.4-0.8-0.4c-0.3,0-0.3,0.1-1,1.3c-0.8,1.4-1.8,3-3.2,5.1c-0.3,0.4-0.4,0.6-0.6,1L340.3,267.3z M357.5,259
			c0.1,1.3-0.8,2.4-2,2.6c-1.2,0.1-2.4-0.8-2.5-2.1s0.8-2.4,2-2.6C356.2,256.7,357.3,257.7,357.5,259z M354.2,259.3
			c0.1,0.6,0.6,1,1.1,0.9c0.5-0.1,0.9-0.6,0.9-1.1c-0.1-0.6-0.6-1-1.1-0.9C354.6,258.2,354.1,258.7,354.2,259.3z"/>
	</g>
	<g class="st26">
		<path class="st27" d="M362,262.1c0.9,0.1,1.7,0.1,3.8,0.1l10.4-0.3c2.1-0.1,2.8-0.1,3.8-0.2l0.1,3.5c-0.8,0-2.2,0-3.8,0l-10.4,0.3
			c-1.8,0-3,0.1-3.8,0.2L362,262.1z"/>
	</g>
	<g class="st26">
		<path class="st27" d="M384.5,260c2.2,1,3.7,1.9,5.4,3.2l-1.7,2.7c-1.6-1.4-3.4-2.5-5.5-3.5L384.5,260z M382.9,269.2
			c1.8,0.1,4-0.3,6.2-1c2.6-0.9,4.4-2.1,6.1-4.3c1.2-1.5,1.8-2.7,2.6-4.5c1.1,1.3,1.4,1.6,2.4,2.4c-1.2,2.4-2.1,3.8-3.4,5.2
			c-2.9,3.1-6.4,4.7-11.7,5.4c-0.6,0.1-1,0.2-1.5,0.3L382.9,269.2z M386.3,254.9c2.2,1,3.8,1.9,5.5,3.1l-1.7,2.7
			c-2-1.5-3.6-2.5-5.5-3.3L386.3,254.9z M397.3,255.8c0.7,1,1.1,1.7,1.5,2.9l-1.8,0.8c-0.4-1.2-0.8-1.8-1.5-3L397.3,255.8z
			 M399.7,254.9c0.7,0.9,1.2,1.9,1.6,2.8l-1.8,0.8c-0.4-1-0.8-1.8-1.5-2.9L399.7,254.9z"/>
	</g>
	<g class="st26">
		<path class="st27" d="M413.4,264.6c-0.2,1.6-1.6,2.6-3.1,2.4c-1.5-0.2-2.6-1.6-2.4-3.2s1.6-2.6,3.1-2.4
			C412.6,261.6,413.6,263,413.4,264.6z"/>
	</g>
	<g class="st26">
		<path class="st27" d="M429.5,262.5c0.3-1.2,0.3-1.6,0.4-2.4l3.3,0.8c-0.2,0.6-0.4,1.1-0.7,2.3l-0.4,2l7.3,0.8
			c0.9,0.1,1.1,0.1,1.6,0l1.4,2c-0.3,0.3-0.4,0.3-0.8,0.9c-0.9,1.2-1.9,2.2-2.9,3c-0.9,0.7-1.7,1.2-3.4,2c-0.7-1.3-1-1.7-1.9-2.6
			c1-0.3,1.8-0.6,2.7-1.2c0.8-0.5,1.3-0.9,2-1.7l-6.4-0.7l-1,4.5c-0.3,1.3-0.3,1.3-0.3,1.7c0,0.5,0.2,0.8,0.7,1.1
			c0.4,0.2,1.1,0.4,1.7,0.5c0.9,0.2,2.5,0.5,3.6,0.6c1.1,0.1,1.8,0.1,2.8,0l-0.6,3.3c-0.4-0.1-0.4-0.1-2.3-0.3
			c-1.7-0.2-3.1-0.5-4.2-0.7c-1.7-0.4-2.9-0.8-3.6-1.2c-0.8-0.5-1.3-1.4-1.4-2.3c0-0.7,0-1,0.4-2.8l1-4.6l-1.4-0.1
			c-1.7-0.2-1.8-0.2-2.7-0.2l0.4-3.1c0.3,0.1,0.5,0.1,0.6,0.2c0.4,0.1,1.1,0.2,2.1,0.3l1.7,0.2L429.5,262.5z"/>
	</g>
	<g class="st26">
		<path class="st27" d="M452.2,268.6c0.2-1.8,0.2-1.8,0.2-2.5l3.2,0.5c-0.2,0.6-0.3,1.3-0.5,2.4l-0.1,1.3l3.6,0.6
			c1.3,0.2,1.8,0.3,2.7,0.3l-0.5,3c-0.9-0.2-0.9-0.2-2.6-0.5l-3.6-0.6l-0.4,3.1l4.1,0.7c1.4,0.2,1.9,0.3,2.8,0.3l-0.4,3
			c-0.7-0.2-0.7-0.2-2.7-0.5l-4.2-0.7l-0.4,3.2c-0.2,1.7-0.3,2.1-0.3,3l-3.3-0.5c0.2-0.6,0.4-1.6,0.5-2.9l0.4-3.2l-4.4-0.8
			c-1.3-0.2-1.7-0.3-2.6-0.3l0.5-3.1c0.8,0.3,1.3,0.4,2.7,0.6l4.3,0.7l0.4-3.1l-3.2-0.6c-1.4-0.2-1.7-0.3-2.8-0.4l0.5-3.1
			c0.9,0.3,1.2,0.4,2.7,0.6l3.2,0.6L452.2,268.6z"/>
	</g>
	<g class="st26">
		<path class="st27" d="M473.8,290.7c1.1,0.5,1.6,0.7,2.2,0.9l-1.1,2.5c-0.5-0.3-1.2-0.7-2.2-1.1l-9-4.2c-1-0.5-1.7-0.8-2.2-1
			l1.1-2.5c0.6,0.4,1,0.6,2.2,1.1l5,2.3c1.4-2,2.5-3.7,3.5-5.6l-4-1.9c-1.1-0.5-1.5-0.7-2.2-0.9l1.1-2.5c0.7,0.4,1,0.6,2.2,1.1
			l4.5,2.1c0.6,0.3,0.8,0.3,1.3,0.4l0.7,1.6c-0.4,0.4-0.5,0.5-0.9,1.1c-1.2,1.9-2.3,3.7-3.6,5.7L473.8,290.7z"/>
	</g>
	<g class="st26">
		<path class="st27" d="M500,288.8c-0.5,0.6-0.7,1-1.5,2.3l-1.1,1.9c-1.8,3-2.5,4.1-3.4,5c-1.6,1.6-3.7,2.4-6.3,2.3
			c-1.3,0-2.5-0.2-4.4-0.8c0.3-1.4,0.3-2,0-3.5c1.7,0.6,2.8,0.9,4.1,1c2.1,0.1,3.5-0.4,4.8-1.9c0.5-0.6,1.5-2.1,2.5-3.9l1-1.7
			c0.8-1.4,1-1.7,1.3-2.5L500,288.8z M492,283.8c-0.4,0.6-0.8,1.2-1.6,2.4l-2.1,3.5c-0.7,1.1-1.1,2-1.4,2.5l-2.9-1.8
			c0.5-0.6,0.9-1.3,1.6-2.5l2.1-3.5c0.8-1.4,1-1.8,1.4-2.5L492,283.8z"/>
	</g>
	<g class="st26">
		<path class="st27" d="M509.9,306.8c-1.7,1.8-3.1,2.9-4.8,3.4c-1.9,0.7-3.8,0.6-6.6-0.3c0.3-1.4,0.3-2,0.1-3.5c2.5,1,4.3,1.1,6,0.4
			c0.9-0.4,1.8-1.1,2.7-2.1l-3.5-2.9c-1.1-0.9-1.6-1.3-2.3-1.8l1.9-2.4c0.7,0.7,1.1,1.1,2.2,2l9,7.5c1.1,0.9,1.6,1.3,2.5,1.8
			l-1.8,2.3c-0.7-0.7-0.9-0.9-2.2-2L509.9,306.8z M508.3,294.8c0.7,0.7,1.1,1.1,2.2,2l5.8,4.8c1.2,1,1.7,1.4,2.5,1.8l-1.8,2.3
			c-0.5-0.6-0.8-0.8-2.3-2l-5.8-4.8c-1.1-0.9-1.7-1.4-2.3-1.8L508.3,294.8z"/>
	</g>
	<g class="st26">
		<path class="st27" d="M529.5,321c-0.3,0-0.3,0-1-0.1c-1.6,0-3.4-0.2-5-0.6l-5,4.6c-0.8,0.8-1.3,1.2-1.7,1.7l-2.1-2.4
			c0.6-0.4,1-0.7,1.9-1.5l3.7-3.4c-1.6-0.5-2.9-1.1-5.6-2.5c0.5-1.2,0.6-1.6,0.9-2.9c2.7,1.8,5.5,3,8.5,3.7c2.1,0.5,4.1,0.6,5.2,0.4
			L529.5,321z"/>
	</g>
	<g class="st26">
		<path class="st27" d="M526.2,332.9c-0.8,0.6-1.1,1-1.4,1.7c-0.3,0.8-0.2,1.7,0.3,2.6c0.7,1.3,1.8,1.8,3.1,1.5l0.8,3.1
			c-1.1,0.1-1.6,0.1-2.4-0.1c-1.5-0.4-2.8-1.5-3.7-3.1c-0.9-1.6-1.2-3.3-0.9-4.8c0.4-1.6,1.6-3.1,3.3-4.2c3.4-2,6.8-1.2,8.7,2
			c1.4,2.4,1.2,4.8-0.4,6.8c-0.7,0.9-1.2,1.3-2.5,2.2c-0.1,0-0.1,0.1-0.4,0.3L526.2,332.9z M531.2,336.8c0.5-0.5,0.7-0.8,0.9-1.3
			c0.3-0.8,0.2-1.6-0.3-2.5c-0.8-1.3-2-1.8-3.6-1.3L531.2,336.8z"/>
	</g>
	<g class="st26">
		<path class="st27" d="M543.3,342.8c-0.8,0.2-1.6,0.6-2.5,1l-0.5,0.2l0.3,0.7c0.4,0.9,0.6,1.3,1,1.9l-2.6,1.3
			c-0.2-0.7-0.3-1-0.7-1.9l-0.4-0.8l-5.2,2.5c-0.9,0.4-1,0.9-0.6,1.8c0.2,0.5,0.5,0.9,1,1.2l-2.3,1.5c-0.6-0.6-1-1.3-1.5-2.3
			c-1.1-2.5-0.8-3.8,1.3-4.8l6-2.9l-0.3-0.7c-0.3-0.7-0.5-1.1-0.9-1.6l2.6-1.3c0.2,0.6,0.3,1,0.7,1.8l0.3,0.7l0.5-0.2
			c0.9-0.4,1.5-0.8,2.3-1.3L543.3,342.8z"/>
	</g>
	<g class="st26">
		<path class="st27" d="M541.4,358.7c0.5-0.4,0.7-0.6,1-1c0.4-0.7,0.4-1.4,0.2-2.2c-0.6-1.8-2.4-2.4-4.7-1.5s-3.3,2.5-2.7,4.3
			c0.3,0.9,0.9,1.5,1.7,1.7c0.3,0.1,0.6,0.1,1.1,0l0.5,3.2c-0.9,0-1.4,0-2.1-0.2c-1.7-0.5-3-1.9-3.8-4c-0.6-1.8-0.6-3.5,0-4.9
			c0.7-1.5,2.2-2.7,4-3.4c1.8-0.7,3.7-0.6,5.2,0.1c1.4,0.7,2.4,1.9,3.1,3.7c0.7,2.1,0.5,4.1-0.6,5.6c-0.3,0.5-0.7,0.8-1.2,1.2
			L541.4,358.7z"/>
	</g>
	<g class="st26">
		<path class="st27" d="M541.1,368.1l-3.4,0.9l-0.9-3.5l3.4-0.9L541.1,368.1z"/>
	</g>
	<g class="st26">
		<path class="st3" d="M196.1,349.2c0.3,0.4,0.5,0.6,1.2,1.4c2.2,2.4,3.2,3.6,4.2,5c2.2-1.1,3.3-1.6,5.8-2.6l1.4,3.2
			c-1.7,0.5-3.2,1-5.5,2.1c1.6,2.9,2.6,6.1,3,10.3c-1.3,0.2-1.8,0.3-3.2,1c-0.2-2.7-0.5-4.5-1.2-6.6c-0.4-1.2-0.8-2.2-1.4-3.3
			c-2.5,1.5-3.9,2.4-5.5,3.6l-1.1-2.9c1.7-1.2,2.5-1.8,5-3.4c-1.3-2-3.6-4.4-4.9-5.3L196.1,349.2z"/>
	</g>
	<g class="st26">
		<path class="st3" d="M204.7,345.3c0.6-0.7,1.1-1.3,2.2-3.1l5.8-8.8c1.2-1.8,1.6-2.4,2-3.3l2.8,1.9c-0.5,0.7-1.3,1.8-2.2,3.2
			l-5.8,8.8c-1,1.5-1.6,2.5-2,3.3L204.7,345.3z"/>
	</g>
	<g class="st26">
		<path class="st3" d="M216.6,318.1c0.4,0.5,0.4,0.5,3.2,3.5c3,3.1,4.3,4.9,5.2,7.3c0.6,1.6,0.8,2.9,0.9,4.9
			c-1.6-0.1-2.1-0.1-3.5,0.2c0.1-2.2-0.3-3.8-1.3-5.6c-0.7-1.3-1.4-2.3-2.9-3.9c-0.7-0.7-1.7-1.8-2.5-2.5c-0.8-0.8-1.1-1.1-1.6-1.4
			L216.6,318.1z M220.2,313.7c0.5,0.7,0.7,0.9,1.7,1.9l7.9,7.8c0.4-1.4,0.4-2.4,0.3-3.7c-0.2-1.4-0.6-2.6-1.4-3.9
			c1.4,0.1,1.8,0.1,3.3-0.1c1,2.1,1.4,4.1,1.3,6.1c-0.1,1.6-0.4,2.8-1.2,4.9c-0.2,0.5-0.3,0.7-0.4,1l-2.2,0
			c-0.3-0.5-0.6-0.8-1.3-1.5l-8.3-8.2l-0.4-0.4c-0.7-0.6-1-1-1.4-1.3L220.2,313.7z"/>
	</g>
	<g class="st26">
		<path class="st3" d="M238.2,308.7c1,1.2,0.8,3-0.4,4c-1.2,1-2.9,0.8-3.9-0.4c-1-1.2-0.8-3,0.4-4
			C235.5,307.3,237.3,307.5,238.2,308.7z"/>
	</g>
	<g class="st26">
		<path class="st3" d="M243.3,295.7c-0.4-0.7-0.6-1-1-1.5c0.4,1.5,0.5,2.2,0.7,3.6l6.4,10.5c0.5,0.8,0.8,1.2,1.4,2l-2.4,1.5
			c-0.4-0.8-0.7-1.3-1.2-2.1l-3-5c-0.2-0.4-0.6-1-1.1-1.9c0,0.2,0,0.4,0,0.5c0,0.8,0,1-0.1,1.7c-0.9-0.9-1.5-1.4-2.5-2.2
			c0.4-1.8,0.3-3.6-0.1-5.9c-0.3-1.3-0.5-2.1-0.8-2.8l2.8-0.6l0,0c0.6-0.3,1.1-0.6,1.9-1.1l6.6-4.2c1.3-0.8,1.7-1.1,2.2-1.5
			c0.3,0.6,0.6,1.2,1.3,2.4l6.8,11.2c0.8,1.3,1.1,1.7,1.6,2.4l-2.2,1.4l-0.4-0.7l-6.7,4.3l0.4,0.7l-2.2,1.4
			c-0.3-0.7-0.6-1.3-1.2-2.3L243.3,295.7z M252.1,305.5l6.7-4.3l-6.7-11l-6.7,4.3L252.1,305.5z M253.1,296.4
			c0.4-0.3,0.8-0.5,1.1-0.8c0.1,0.3,0.3,0.5,0.7,1.2l1.9,3.1c0.4,0.7,0.6,0.9,0.8,1.1l-0.2,0.1c-0.1,0.1-0.5,0.3-1,0.6l-2.8,1.8
			c-0.4,0.3-0.8,0.5-1.1,0.8c-0.1-0.3-0.3-0.5-0.7-1.2l-1.9-3.1c-0.4-0.7-0.5-0.9-0.7-1.1c0.4-0.2,0.7-0.4,1.1-0.7l0.4-0.3l-0.8-1.3
			l-1.1,0.7c-0.3,0.2-0.6,0.4-0.9,0.7l-1.3-2.1c0.3-0.1,0.6-0.3,1-0.5l1.1-0.7l-0.2-0.3c-0.3-0.4-0.4-0.7-0.7-0.9l2.1-1.3
			c0.1,0.3,0.3,0.6,0.5,1l0.2,0.3l1.1-0.7c0.4-0.3,0.7-0.4,0.9-0.7l1.3,2.1c-0.3,0.2-0.6,0.3-1,0.5l-1.1,0.7l0.8,1.3L253.1,296.4z
			 M253.1,301.2l1.5-1l-1-1.6l-1.5,1L253.1,301.2z"/>
	</g>
	<g class="st26">
		<path class="st3" d="M267.2,278.7c0.1,0.4,0.4,1.1,0.7,1.7c1.6,3.5,3.3,5.5,5.9,7.1c1.5,1,2.7,1.5,4.6,1.9c1.4,0.3,2,0.4,3.3,0.4
			c-0.4,1.3-0.4,1.9-0.4,3.4c-2.8-0.4-4.6-0.9-6.6-1.9c-1.8-0.9-3.2-2-4.8-3.7c0.6,2.9,0.5,4.6-0.2,7.1c-0.6,2.1-1.3,3.6-2.6,5.6
			c-1-0.8-1.7-1.1-2.7-1.5c1.1-1.4,1.7-2.6,2.3-4.4c0.8-2.3,1-4.7,0.5-7.1c-0.3-1.6-1.1-3.7-1.9-5.6c-0.3-0.7-0.5-1.1-0.8-1.5
			L267.2,278.7z"/>
	</g>
	<g class="st26">
		<path class="st3" d="M285.1,273.7c-0.3-1-0.6-1.6-0.9-2.2l3.1-1.2c0.2,0.7,0.4,1.4,0.7,2.3l0.3,0.8l4-1.5c1.6-0.6,1.9-0.8,2.8-1.2
			l1,2.9c-0.8,0.2-1.2,0.3-2.8,0.9l-4,1.5l3.3,9c0.4,1,0.8,2,1.1,2.7l-3.1,1.2c-0.2-0.8-0.4-1.5-0.9-2.8l-3.3-9l-3.8,1.5
			c-1.5,0.6-1.9,0.7-2.7,1.2l-1-2.9c0.9-0.2,1.3-0.3,2.8-0.9l3.8-1.5L285.1,273.7z M285.5,279.6c0,0.3,0,0.3,0.2,1.6
			c0.2,1.2,0.2,2.9,0.1,4.3c-0.1,1.4-0.2,2.3-0.6,3.7c-1.4-0.4-1.9-0.4-3.2-0.4c0.7-2.3,0.9-4,0.7-6.4c-0.1-1-0.2-1.7-0.4-2.4
			L285.5,279.6z M294,275.6c0.4,0.6,0.7,1.1,1.4,2c1.7,2.1,2.9,3.2,4.5,4.3c-1.1,1.3-1.3,1.6-2.1,2.6c-2.5-2.1-3.7-3.5-5.9-6.6
			c-0.1-0.2-0.2-0.3-0.4-0.6L294,275.6z"/>
	</g>
	<g class="st26">
		<path class="st3" d="M299.9,273.5c0.9-0.1,1.6-0.3,3.7-0.9l10-2.8c2-0.6,2.7-0.8,3.6-1.2l0.9,3.3c-0.8,0.2-2.1,0.5-3.7,0.9
			l-10,2.8c-1.7,0.5-2.8,0.8-3.6,1.1L299.9,273.5z"/>
	</g>
	<g class="st26">
		<path class="st3" d="M328.4,259.6c-0.1,0.5-0.2,0.7-0.3,1.6c-0.5,4.8-1.1,9-1.8,12.4c4-1.1,5.9-1.7,7.5-2.4
			c-0.3-0.4-0.6-0.8-1.1-1.6c-1.2-1.6-1.6-2.1-2.5-3l2.5-1.6c2.5,2.6,4.8,5.7,6.6,8.8l-2.7,2.1c-0.4-0.8-0.4-0.8-1.3-2.3
			c-3,1.2-5.3,2-11.7,3.9c-1.1,0.3-1.4,0.4-1.9,0.6l-1-3.3c0.3,0,0.3,0,0.5-0.1c0.4-0.1,0.8-0.2,1.7-0.4c0.7-3.4,1.2-6.9,1.6-10.9
			c0.2-2.1,0.2-3,0.2-4L328.4,259.6z"/>
	</g>
	<g class="st26">
		<path class="st3" d="M340.3,267.3c0.3-0.3,0.5-0.4,0.7-0.8c0.5-0.7,2.2-3.2,3.2-4.9c0.6-1,1-1.6,1.4-1.9c0.4-0.3,0.9-0.5,1.4-0.6
			c1.1-0.1,1.7,0.2,3.5,1.9c2.3,2.2,4.4,3.9,7.1,5.9c1.2,0.9,1.6,1.2,2.2,1.5l-1.2,3.6c-3.4-2.6-5.3-4.2-10.4-8.9
			c-0.4-0.3-0.6-0.4-0.8-0.4c-0.3,0-0.3,0.1-1,1.3c-0.8,1.4-1.8,3-3.2,5.1c-0.3,0.4-0.4,0.6-0.6,1L340.3,267.3z M357.5,259
			c0.1,1.3-0.8,2.4-2,2.6c-1.2,0.1-2.4-0.8-2.5-2.1s0.8-2.4,2-2.6C356.2,256.7,357.3,257.7,357.5,259z M354.2,259.3
			c0.1,0.6,0.6,1,1.1,0.9c0.5-0.1,0.9-0.6,0.9-1.1c-0.1-0.6-0.6-1-1.1-0.9C354.6,258.2,354.1,258.7,354.2,259.3z"/>
	</g>
	<g class="st26">
		<path class="st3" d="M362,262.1c0.9,0.1,1.7,0.1,3.8,0.1l10.4-0.3c2.1-0.1,2.8-0.1,3.8-0.2l0.1,3.5c-0.8,0-2.2,0-3.8,0l-10.4,0.3
			c-1.8,0-3,0.1-3.8,0.2L362,262.1z"/>
	</g>
	<g class="st26">
		<path class="st3" d="M384.5,260c2.2,1,3.7,1.9,5.4,3.2l-1.7,2.7c-1.6-1.4-3.4-2.5-5.5-3.5L384.5,260z M382.9,269.2
			c1.8,0.1,4-0.3,6.2-1c2.6-0.9,4.4-2.1,6.1-4.3c1.2-1.5,1.8-2.7,2.6-4.5c1.1,1.3,1.4,1.6,2.4,2.4c-1.2,2.4-2.1,3.8-3.4,5.2
			c-2.9,3.1-6.4,4.7-11.7,5.4c-0.6,0.1-1,0.2-1.5,0.3L382.9,269.2z M386.3,254.9c2.2,1,3.8,1.9,5.5,3.1l-1.7,2.7
			c-2-1.5-3.6-2.5-5.5-3.3L386.3,254.9z M397.3,255.8c0.7,1,1.1,1.7,1.5,2.9l-1.8,0.8c-0.4-1.2-0.8-1.8-1.5-3L397.3,255.8z
			 M399.7,254.9c0.7,0.9,1.2,1.9,1.6,2.8l-1.8,0.8c-0.4-1-0.8-1.8-1.5-2.9L399.7,254.9z"/>
	</g>
	<g class="st26">
		<path class="st3" d="M413.4,264.6c-0.2,1.6-1.6,2.6-3.1,2.4c-1.5-0.2-2.6-1.6-2.4-3.2s1.6-2.6,3.1-2.4
			C412.6,261.6,413.6,263,413.4,264.6z"/>
	</g>
	<g class="st26">
		<path class="st3" d="M429.5,262.5c0.3-1.2,0.3-1.6,0.4-2.4l3.3,0.8c-0.2,0.6-0.4,1.1-0.7,2.3l-0.4,2l7.3,0.8
			c0.9,0.1,1.1,0.1,1.6,0l1.4,2c-0.3,0.3-0.4,0.3-0.8,0.9c-0.9,1.2-1.9,2.2-2.9,3c-0.9,0.7-1.7,1.2-3.4,2c-0.7-1.3-1-1.7-1.9-2.6
			c1-0.3,1.8-0.6,2.7-1.2c0.8-0.5,1.3-0.9,2-1.7l-6.4-0.7l-1,4.5c-0.3,1.3-0.3,1.3-0.3,1.7c0,0.5,0.2,0.8,0.7,1.1
			c0.4,0.2,1.1,0.4,1.7,0.5c0.9,0.2,2.5,0.5,3.6,0.6c1.1,0.1,1.8,0.1,2.8,0l-0.6,3.3c-0.4-0.1-0.4-0.1-2.3-0.3
			c-1.7-0.2-3.1-0.5-4.2-0.7c-1.7-0.4-2.9-0.8-3.6-1.2c-0.8-0.5-1.3-1.4-1.4-2.3c0-0.7,0-1,0.4-2.8l1-4.6l-1.4-0.1
			c-1.7-0.2-1.8-0.2-2.7-0.2l0.4-3.1c0.3,0.1,0.5,0.1,0.6,0.2c0.4,0.1,1.1,0.2,2.1,0.3l1.7,0.2L429.5,262.5z"/>
	</g>
	<g class="st26">
		<path class="st3" d="M452.2,268.6c0.2-1.8,0.2-1.8,0.2-2.5l3.2,0.5c-0.2,0.6-0.3,1.3-0.5,2.4l-0.1,1.3l3.6,0.6
			c1.3,0.2,1.8,0.3,2.7,0.3l-0.5,3c-0.9-0.2-0.9-0.2-2.6-0.5l-3.6-0.6l-0.4,3.1l4.1,0.7c1.4,0.2,1.9,0.3,2.8,0.3l-0.4,3
			c-0.7-0.2-0.7-0.2-2.7-0.5l-4.2-0.7l-0.4,3.2c-0.2,1.7-0.3,2.1-0.3,3l-3.3-0.5c0.2-0.6,0.4-1.6,0.5-2.9l0.4-3.2l-4.4-0.8
			c-1.3-0.2-1.7-0.3-2.6-0.3l0.5-3.1c0.8,0.3,1.3,0.4,2.7,0.6l4.3,0.7l0.4-3.1l-3.2-0.6c-1.4-0.2-1.7-0.3-2.8-0.4l0.5-3.1
			c0.9,0.3,1.2,0.4,2.7,0.6l3.2,0.6L452.2,268.6z"/>
	</g>
	<g class="st26">
		<path class="st3" d="M473.8,290.7c1.1,0.5,1.6,0.7,2.2,0.9l-1.1,2.5c-0.5-0.3-1.2-0.7-2.2-1.1l-9-4.2c-1-0.5-1.7-0.8-2.2-1
			l1.1-2.5c0.6,0.4,1,0.6,2.2,1.1l5,2.3c1.4-2,2.5-3.7,3.5-5.6l-4-1.9c-1.1-0.5-1.5-0.7-2.2-0.9l1.1-2.5c0.7,0.4,1,0.6,2.2,1.1
			l4.5,2.1c0.6,0.3,0.8,0.3,1.3,0.4l0.7,1.6c-0.4,0.4-0.5,0.5-0.9,1.1c-1.2,1.9-2.3,3.7-3.6,5.7L473.8,290.7z"/>
	</g>
	<g class="st26">
		<path class="st3" d="M500,288.8c-0.5,0.6-0.7,1-1.5,2.3l-1.1,1.9c-1.8,3-2.5,4.1-3.4,5c-1.6,1.6-3.7,2.4-6.3,2.3
			c-1.3,0-2.5-0.2-4.4-0.8c0.3-1.4,0.3-2,0-3.5c1.7,0.6,2.8,0.9,4.1,1c2.1,0.1,3.5-0.4,4.8-1.9c0.5-0.6,1.5-2.1,2.5-3.9l1-1.7
			c0.8-1.4,1-1.7,1.3-2.5L500,288.8z M492,283.8c-0.4,0.6-0.8,1.2-1.6,2.4l-2.1,3.5c-0.7,1.1-1.1,2-1.4,2.5l-2.9-1.8
			c0.5-0.6,0.9-1.3,1.6-2.5l2.1-3.5c0.8-1.4,1-1.8,1.4-2.5L492,283.8z"/>
	</g>
	<g class="st26">
		<path class="st3" d="M509.9,306.8c-1.7,1.8-3.1,2.9-4.8,3.4c-1.9,0.7-3.8,0.6-6.6-0.3c0.3-1.4,0.3-2,0.1-3.5c2.5,1,4.3,1.1,6,0.4
			c0.9-0.4,1.8-1.1,2.7-2.1l-3.5-2.9c-1.1-0.9-1.6-1.3-2.3-1.8l1.9-2.4c0.7,0.7,1.1,1.1,2.2,2l9,7.5c1.1,0.9,1.6,1.3,2.5,1.8
			l-1.8,2.3c-0.7-0.7-0.9-0.9-2.2-2L509.9,306.8z M508.3,294.8c0.7,0.7,1.1,1.1,2.2,2l5.8,4.8c1.2,1,1.7,1.4,2.5,1.8l-1.8,2.3
			c-0.5-0.6-0.8-0.8-2.3-2l-5.8-4.8c-1.1-0.9-1.7-1.4-2.3-1.8L508.3,294.8z"/>
	</g>
	<g class="st26">
		<path class="st3" d="M529.5,321c-0.3,0-0.3,0-1-0.1c-1.6,0-3.4-0.2-5-0.6l-5,4.6c-0.8,0.8-1.3,1.2-1.7,1.7l-2.1-2.4
			c0.6-0.4,1-0.7,1.9-1.5l3.7-3.4c-1.6-0.5-2.9-1.1-5.6-2.5c0.5-1.2,0.6-1.6,0.9-2.9c2.7,1.8,5.5,3,8.5,3.7c2.1,0.5,4.1,0.6,5.2,0.4
			L529.5,321z"/>
	</g>
	<g class="st26">
		<path class="st3" d="M526.2,332.9c-0.8,0.6-1.1,1-1.4,1.7c-0.3,0.8-0.2,1.7,0.3,2.6c0.7,1.3,1.8,1.8,3.1,1.5l0.8,3.1
			c-1.1,0.1-1.6,0.1-2.4-0.1c-1.5-0.4-2.8-1.5-3.7-3.1c-0.9-1.6-1.2-3.3-0.9-4.8c0.4-1.6,1.6-3.1,3.3-4.2c3.4-2,6.8-1.2,8.7,2
			c1.4,2.4,1.2,4.8-0.4,6.8c-0.7,0.9-1.2,1.3-2.5,2.2c-0.1,0-0.1,0.1-0.4,0.3L526.2,332.9z M531.2,336.8c0.5-0.5,0.7-0.8,0.9-1.3
			c0.3-0.8,0.2-1.6-0.3-2.5c-0.8-1.3-2-1.8-3.6-1.3L531.2,336.8z"/>
	</g>
	<g class="st26">
		<path class="st3" d="M543.3,342.8c-0.8,0.2-1.6,0.6-2.5,1l-0.5,0.2l0.3,0.7c0.4,0.9,0.6,1.3,1,1.9l-2.6,1.3
			c-0.2-0.7-0.3-1-0.7-1.9l-0.4-0.8l-5.2,2.5c-0.9,0.4-1,0.9-0.6,1.8c0.2,0.5,0.5,0.9,1,1.2l-2.3,1.5c-0.6-0.6-1-1.3-1.5-2.3
			c-1.1-2.5-0.8-3.8,1.3-4.8l6-2.9l-0.3-0.7c-0.3-0.7-0.5-1.1-0.9-1.6l2.6-1.3c0.2,0.6,0.3,1,0.7,1.8l0.3,0.7l0.5-0.2
			c0.9-0.4,1.5-0.8,2.3-1.3L543.3,342.8z"/>
	</g>
	<g class="st26">
		<path class="st3" d="M541.4,358.7c0.5-0.4,0.7-0.6,1-1c0.4-0.7,0.4-1.4,0.2-2.2c-0.6-1.8-2.4-2.4-4.7-1.5
			c-2.3,0.8-3.3,2.5-2.7,4.3c0.3,0.9,0.9,1.5,1.7,1.7c0.3,0.1,0.6,0.1,1.1,0l0.5,3.2c-0.9,0-1.4,0-2.1-0.2c-1.7-0.5-3-1.9-3.8-4
			c-0.6-1.8-0.6-3.5,0-4.9c0.7-1.5,2.2-2.7,4-3.4c1.8-0.7,3.7-0.6,5.2,0.1c1.4,0.7,2.4,1.9,3.1,3.7c0.7,2.1,0.5,4.1-0.6,5.6
			c-0.3,0.5-0.7,0.8-1.2,1.2L541.4,358.7z"/>
	</g>
	<g class="st26">
		<path class="st3" d="M541.1,368.1l-3.4,0.9l-0.9-3.5l3.4-0.9L541.1,368.1z"/>
	</g>
</g>
</svg>
