<svg id="レイヤー_1" data-name="レイヤー 1" xmlns="http://www.w3.org/2000/svg" width="36.82" height="52.46" viewBox="0 0 36.82 52.46"><defs><style>.cls-1{fill:gray;}.cls-2{fill:#fff;}</style></defs><path id="パス_1472" data-name="パス 1472" class="cls-1" d="M0,2.38v47.7a2.45,2.45,0,0,0,2.5,2.38H34.32a2.45,2.45,0,0,0,2.5-2.38V14.43a3.23,3.23,0,0,0-1.13-2.51L24.34,1.07A3.72,3.72,0,0,0,21.72,0H2.5A2.45,2.45,0,0,0,0,2.38Z"/><path class="cls-2" d="M22.22,36.11a13.34,13.34,0,0,0-.47-1.91l-.61-1.75H15.69l-.61,1.75a9,9,0,0,0-.49,1.91H11A17.07,17.07,0,0,0,12,34l3.92-10.62a13.55,13.55,0,0,0,.58-1.87h3.88a10.93,10.93,0,0,0,.61,1.87L24.9,34c.35.92.67,1.71.89,2.16Zm-3.55-11.3c-.06-.16-.13-.34-.27-.83-.11.38-.13.47-.26.83l-1.69,5.1h3.93Z"/></svg>