<svg id="レイヤー_1" data-name="レイヤー 1" xmlns="http://www.w3.org/2000/svg" width="36.82" height="52.46" viewBox="0 0 36.82 52.46"><defs><style>.cls-1{fill:gray;}.cls-2{fill:#fff;}</style></defs><path id="パス_1472" data-name="パス 1472" class="cls-1" d="M0,2.38v47.7a2.45,2.45,0,0,0,2.5,2.38H34.32a2.45,2.45,0,0,0,2.5-2.38V14.43a3.23,3.23,0,0,0-1.13-2.51L24.34,1.07A3.72,3.72,0,0,0,21.72,0H2.5A2.45,2.45,0,0,0,0,2.38Z"/><path class="cls-2" d="M12.3,23.89a14.77,14.77,0,0,0-.16-2.49c.72,0,1.17.06,2.46.06h3.52a6.9,6.9,0,0,1,5,1.67,7.45,7.45,0,0,1,2,5.52A7.75,7.75,0,0,1,23,34.43a6.71,6.71,0,0,1-4.9,1.68H14.6c-1.22,0-1.71,0-2.45,0a15.33,15.33,0,0,0,.15-2.48Zm5.6,9.61a3.7,3.7,0,0,0,2.92-1,5.31,5.31,0,0,0,1.24-3.75,4.94,4.94,0,0,0-1.15-3.62,3.87,3.87,0,0,0-3-1H15.27V33.5Z"/></svg>