<?xml version="1.0" encoding="UTF-8"?><svg id="_イヤー_1" xmlns="http://www.w3.org/2000/svg" width="36.82" height="52.46" viewBox="0 0 36.82 52.46"><defs><style>.cls-1{fill:#fff;}.cls-2{fill:gray;}</style></defs><path id="_ス_1472" class="cls-2" d="M0,2.38V50.08c.04,1.35,1.15,2.41,2.5,2.38h31.82c1.35,.03,2.46-1.03,2.5-2.38V14.43c.02-.96-.4-1.88-1.13-2.51L24.34,1.07C23.64,.38,22.7,0,21.72,0H2.5C1.15-.03,.04,1.04,0,2.38Z"/><path class="cls-1" d="M23.81,36.38c-.38,0-.77-.15-1.06-.44l-10.8-10.8c-.59-.59-.59-1.54,0-2.12,.59-.59,1.54-.59,2.12,0l10.8,10.8c.59,.59,.59,1.54,0,2.12-.29,.29-.68,.44-1.06,.44Z"/><path class="cls-1" d="M13.01,36.38c-.38,0-.77-.15-1.06-.44-.59-.59-.59-1.54,0-2.12l10.8-10.8c.59-.59,1.54-.59,2.12,0,.59,.59,.59,1.54,0,2.12l-10.8,10.8c-.29,.29-.68,.44-1.06,.44Z"/></svg>