<svg id="レイヤー_1" data-name="レイヤー 1" xmlns="http://www.w3.org/2000/svg" width="46.66" height="60.44" viewBox="0 0 46.66 60.44"><defs><style>.cls-1,.cls-4,.cls-5{fill:none;stroke:#b9b9b9;stroke-linecap:round;stroke-miterlimit:10;}.cls-1,.cls-5{stroke-width:1.69px;}.cls-1{stroke-dasharray:3.33 4.44;}.cls-2{fill:gray;}.cls-3{fill:#fff;}.cls-4{stroke-width:1.86px;}</style></defs><g id="パス_1472" data-name="パス 1472"><path class="cls-1" d="M.84,3.51V56.92a2.89,2.89,0,0,0,3.05,2.67H42.76a2.89,2.89,0,0,0,3.05-2.67V17a3.44,3.44,0,0,0-1.37-2.8L30.57,2.05A4.72,4.72,0,0,0,27.37.84H3.89A2.9,2.9,0,0,0,.84,3.51Z"/></g><path id="パス_1472-2" data-name="パス 1472" class="cls-2" d="M.17,22.39V58.56A1.82,1.82,0,0,0,2,60.37H25a1.81,1.81,0,0,0,1.81-1.81v-27a2.5,2.5,0,0,0-.81-1.9l-8.23-8.23a2.62,2.62,0,0,0-1.9-.81H2A1.82,1.82,0,0,0,.17,22.39Z"/><rect class="cls-3" x="5.39" y="39.54" width="16.25" height="16.25"/><line class="cls-4" x1="24.89" y1="23.64" x2="36.64" y2="11.89"/><polyline class="cls-5" points="36.94 14.42 36.91 11.62 34.11 11.59"/><polyline class="cls-5" points="24.47 21.23 24.5 24.03 27.3 24.06"/></svg>