<svg id="レイヤー_1" data-name="レイヤー 1" xmlns="http://www.w3.org/2000/svg" width="170.12" height="52.31" viewBox="0 0 170.12 52.31"><defs><style>.cls-1{fill:gray;}.cls-2{fill:#fff;}</style></defs><path id="パス_4677" data-name="パス 4677" class="cls-1" d="M36.78,41l-7.51-4A1.94,1.94,0,0,0,27,37.3l-3.52,3.39a2.14,2.14,0,0,1-2.41.24,20.76,20.76,0,0,1-6.95-4.37A19.65,19.65,0,0,1,10,29.73a2.13,2.13,0,0,1,.23-2.41l3.4-3.52a2,2,0,0,0,.32-2.27l-4-7.5A2,2,0,0,0,8,13a10.14,10.14,0,0,0-6.25,2.91c-2.73,2.77-3.52,11,6.76,24.57C15.71,50,31.32,51.33,34.9,49.12c2.49-1.54,2.79-4.65,2.91-6.26A1.94,1.94,0,0,0,36.78,41Z"/><g id="グループ_2374" data-name="グループ 2374"><g id="グループ_2371" data-name="グループ 2371"><path id="パス_4717" data-name="パス 4717" class="cls-1" d="M24.13,26.81l5.45-.4a.93.93,0,0,0,.86-1,1.42,1.42,0,0,0,0-.2,10.72,10.72,0,0,0-5.67-5.83.92.92,0,0,0-1.18.59.65.65,0,0,0,0,.19L23,25.66A1.27,1.27,0,0,0,24.13,26.81Z"/></g><g id="グループ_2372" data-name="グループ 2372"><path id="パス_4718" data-name="パス 4718" class="cls-1" d="M30.78,18.94a12.11,12.11,0,0,1,3.39,6.55.64.64,0,0,0,.71.54l4.72-.34a1,1,0,0,0,.87-1,17.26,17.26,0,0,0-4.92-10.45A17.86,17.86,0,0,0,25.36,9.34a.94.94,0,0,0-1,.84L24,14.89a.64.64,0,0,0,.52.7A12.53,12.53,0,0,1,30.78,18.94Z"/></g><g id="グループ_2373" data-name="グループ 2373"><path id="パス_4719" data-name="パス 4719" class="cls-1" d="M38.24,11.64a19.44,19.44,0,0,1,5.48,13.07.65.65,0,0,0,.67.63h0L49,25a1,1,0,0,0,.87-.92C49.8,21.41,49,13,43,7S28.74.1,26.07,0a.94.94,0,0,0-.93.85L24.76,5.4a.64.64,0,0,0,.56.72h.06A19.57,19.57,0,0,1,38.24,11.64Z"/></g></g><circle id="楕円形_460" data-name="楕円形 460" class="cls-1" cx="147.39" cy="29.58" r="22.73"/><path id="パス_1482" data-name="パス 1482" class="cls-2" d="M128.85,31.35h5.29a.29.29,0,0,1,.33.25.11.11,0,0,1,0,.08,59.6,59.6,0,0,0,.78,6c0,.11-.11.33-.23.33a18.25,18.25,0,0,0-3.31,1.65c-.11.11-.33,0-.44-.11a17.22,17.22,0,0,1-2.75-7.72C128.4,31.57,128.63,31.35,128.85,31.35Zm-.33-4a15.67,15.67,0,0,1,2.76-7.73c.11-.11.33-.22.45-.11A30.08,30.08,0,0,0,135,21.2c.11.11.22.22.22.33a37.28,37.28,0,0,0-.78,5.95.29.29,0,0,1-.25.33.11.11,0,0,1-.08,0h-5.3C128.63,27.82,128.4,27.6,128.52,27.38Zm38,4.41a15.68,15.68,0,0,1-2.77,7.72c-.11.11-.33.22-.44.11A29.16,29.16,0,0,0,160,38c-.11-.12-.22-.23-.22-.34a38.45,38.45,0,0,0,.77-6,.29.29,0,0,1,.25-.33.11.11,0,0,1,.08,0h5.3C166.36,31.35,166.48,31.57,166.48,31.79Zm-.34-4h-5.29a.29.29,0,0,1-.33-.25.11.11,0,0,1,0-.08q-.24-3-.77-6c0-.11.11-.33.22-.33a18.25,18.25,0,0,0,3.31-1.65c.11-.11.33,0,.44.11a17.11,17.11,0,0,1,2.76,7.72c0,.23-.12.45-.34.45Zm-28-14.23a28.43,28.43,0,0,0-1.66,3.64c-.11.22-.22.22-.44.22a13.92,13.92,0,0,1-1.88-.88c-.22-.11-.22-.33-.11-.55a17.88,17.88,0,0,1,3.65-2.76c.33-.22.55,0,.44.33Zm22.62,2.87c-.55.33-1.21.55-1.88.88-.22.11-.33,0-.44-.22a23.9,23.9,0,0,0-1.55-3.42c-.22-.33.23-.67.45-.44a20.8,20.8,0,0,1,3.42,2.64c.22.23.22.45,0,.56Zm-26.82,26,2-1c.22-.11.33,0,.44.22a19.15,19.15,0,0,0,1.76,3.75c.11.33-.11.67-.44.44a16.63,16.63,0,0,1-3.75-3,.22.22,0,0,1-.15-.28A.22.22,0,0,1,133.92,42.49ZM157,45.58a40,40,0,0,0,1.76-3.75c.11-.22.22-.22.44-.22l2,1c.22.11.22.33.11.55a16.63,16.63,0,0,1-3.75,3c-.43,0-.76-.33-.54-.55Zm-7.73-18.1V23.4a.29.29,0,0,1,.25-.33h.08a37.06,37.06,0,0,0,6.29-.88.63.63,0,0,1,.44.22,36.21,36.21,0,0,1,.66,5.08.29.29,0,0,1-.25.33h-7a.48.48,0,0,1-.44-.33Zm0-8.38V11.37c0-.22.22-.44.44-.33,2.1,1.11,4,3.65,5.3,7.18.11.22,0,.44-.22.44a39.36,39.36,0,0,1-5.19.77.5.5,0,0,1-.33-.33Zm-3.53-7.73V19.1a.35.35,0,0,1-.33.33,27.56,27.56,0,0,1-5.19-.77c-.22,0-.33-.23-.22-.45,1.33-3.42,3.2-6.07,5.3-7.17.11-.11.44.11.44.33Zm3.86,28a27.56,27.56,0,0,1,5.19.77c.22,0,.33.22.22.44-1.32,3.43-3.2,6.07-5.3,7.18-.22.11-.44-.11-.44-.33V39.73a.52.52,0,0,1,.33-.33Zm-4.41,8.39c-2.1-1.11-4-3.65-5.3-7.18-.11-.22,0-.44.22-.44a39.61,39.61,0,0,1,5.19-.77.29.29,0,0,1,.33.25v7.81c.11.33-.22.44-.44.33Zm.55-24.5v4.08a.29.29,0,0,1-.25.33.11.11,0,0,1-.08,0h-7a.35.35,0,0,1-.33-.33,36.07,36.07,0,0,1,.66-5.07c0-.22.22-.33.44-.22a37,37,0,0,0,6.29.87c0,.12.22.23.22.34Zm3.86,8.05h7a.36.36,0,0,1,.33.33,37.56,37.56,0,0,1-.67,5.08c0,.22-.22.33-.44.22a37.83,37.83,0,0,0-6.28-.88.29.29,0,0,1-.33-.25V31.68c.1-.11.32-.33.43-.33ZM145.4,36.2a36.81,36.81,0,0,0-6.28.88.59.59,0,0,1-.45-.22,36.21,36.21,0,0,1-.66-5.08.29.29,0,0,1,.25-.33h7a.29.29,0,0,1,.33.25.11.11,0,0,1,0,.08v4.08c.11.12-.11.34-.22.34Z"/><g id="グループ_1216" data-name="グループ 1216"><g id="グループ_1215" data-name="グループ 1215"><path id="パス_1462" data-name="パス 1462" class="cls-1" d="M107.6,43.14H64.72a3.4,3.4,0,0,1-3.38-3.39V12.45a3.4,3.4,0,0,1,3.38-3.39H107.6A3.33,3.33,0,0,1,111,12.33V39.75A3.4,3.4,0,0,1,107.6,43.14Z"/></g></g><path id="パス_1479" data-name="パス 1479" class="cls-1" d="M70.25,41.22v7.33a1.39,1.39,0,0,0,2.37,1l7.56-7.1a1.46,1.46,0,0,0,0-2.05,1.44,1.44,0,0,0-.94-.43l-7.56-.23a1.43,1.43,0,0,0-1.47,1.38Z"/><circle id="楕円形_452" data-name="楕円形 452" class="cls-2" cx="76.68" cy="26.1" r="2.48"/><circle id="楕円形_453" data-name="楕円形 453" class="cls-2" cx="86.16" cy="26.1" r="2.48"/><circle id="楕円形_454" data-name="楕円形 454" class="cls-2" cx="95.75" cy="26.1" r="2.48"/></svg>