<svg id="レイヤー_1" data-name="レイヤー 1" xmlns="http://www.w3.org/2000/svg" viewBox="0 0 938.66 376.96"><defs><style>.cls-1,.cls-14,.cls-16,.cls-17,.cls-4,.cls-5{fill:#fff;}.cls-1,.cls-5{stroke:#ccc;stroke-opacity:0.5;}.cls-1,.cls-14,.cls-16,.cls-17,.cls-5,.cls-6,.cls-8{stroke-miterlimit:10;}.cls-1{stroke-width:1.98px;}.cls-2{fill:#313131;}.cls-3{fill:#47a209;}.cls-5{stroke-width:1.95px;}.cls-6,.cls-8{fill:none;stroke-width:8.77px;}.cls-17,.cls-6{stroke:#f39800;}.cls-7{fill:#f39800;}.cls-14,.cls-8{stroke:#90c21e;}.cls-9{fill:#90c21e;}.cls-10{fill:#b5b5b5;}.cls-11{fill:#ffe2cc;}.cls-12{fill:#35318f;}.cls-13{fill:#3a3a3a;}.cls-14,.cls-16,.cls-17{stroke-width:2.74px;}.cls-15{fill:#1eb4c2;}.cls-16{stroke:#1eb4c2;}</style></defs><rect class="cls-1" x="38.12" y="1.08" width="899.55" height="69.11" rx="13.66"/><path class="cls-2" d="M104.83,43.42c-1,0-1.52,0-2.24,0a12.79,12.79,0,0,0,.16-2.37V31.58a17.92,17.92,0,0,0-.14-2.15c.73,0,1,0,2.21,0H109c2.72,0,4.25,1.23,4.25,3.42a3.12,3.12,0,0,1-1,2.47,2.92,2.92,0,0,1-1.38.74,3.25,3.25,0,0,1,1.77.8,3.48,3.48,0,0,1,1.09,2.69c0,2.45-1.63,3.84-4.54,3.84Zm3.88-8.24a1.86,1.86,0,0,0,2.12-1.92,1.77,1.77,0,0,0-.46-1.29,2.48,2.48,0,0,0-1.68-.55h-3.63v3.76Zm-3.65,6.25h3.77c1.56,0,2.44-.77,2.44-2.19a1.91,1.91,0,0,0-.56-1.52,2.86,2.86,0,0,0-1.92-.6h-3.73Z"/><path class="cls-2" d="M118.32,29.46a13.67,13.67,0,0,0-.14,2.26v9.43a13.89,13.89,0,0,0,.14,2.27h-2.66a13.89,13.89,0,0,0,.14-2.27V31.72a13.67,13.67,0,0,0-.14-2.26Z"/><path class="cls-2" d="M132.1,39.82a15.14,15.14,0,0,0,.12,2.28,11.32,11.32,0,0,1-2.8,1.21,10.42,10.42,0,0,1-2.58.33,6.15,6.15,0,0,1-5-2,8.24,8.24,0,0,1-1.65-5.33c0-2.79,1-4.93,2.81-6.16a6.72,6.72,0,0,1,3.89-1,5.69,5.69,0,0,1,4,1.51,4.85,4.85,0,0,1,1.3,2.08l-2.4.65c-.58-1.59-1.42-2.15-3.23-2.15A3.7,3.7,0,0,0,124,32.26a5.49,5.49,0,0,0-1.3,4,6.2,6.2,0,0,0,1.19,4.11,3.68,3.68,0,0,0,3,1.2,5.21,5.21,0,0,0,3-.78V37.93h-.94a10.36,10.36,0,0,0-1.79.1V35.77a12.62,12.62,0,0,0,2.1.11h.91c.81,0,1.32,0,2.07-.07A15.87,15.87,0,0,0,132.1,38Z"/><path class="cls-2" d="M144.33,43.54a16.73,16.73,0,0,0-2.49-.12h-5.19c-1,0-1.59,0-2.23,0a13.32,13.32,0,0,0,.15-2.32v-9.1a16.27,16.27,0,0,0-.15-2.59h2.65a16.68,16.68,0,0,0-.14,2.58v9.25h4.91a18.26,18.26,0,0,0,2.49-.12Z"/><path class="cls-2" d="M156.08,30.93a7.56,7.56,0,0,1,2,5.47c0,4.44-2.58,7.31-6.56,7.31s-6.54-2.85-6.54-7.31a7.54,7.54,0,0,1,2-5.47,6.84,6.84,0,0,1,9.14,0Zm-.49,5.47a5.62,5.62,0,0,0-1.39-4.08,3.78,3.78,0,0,0-2.7-1.07c-2.52,0-4.12,2-4.12,5.17a5.81,5.81,0,0,0,1.42,4.14,3.8,3.8,0,0,0,2.72,1.07C154,41.63,155.59,39.63,155.59,36.4Z"/><path class="cls-2" d="M162.19,43.42c-1,0-1.52,0-2.24,0a12.79,12.79,0,0,0,.16-2.37V31.58a17.92,17.92,0,0,0-.14-2.15c.73,0,1,0,2.21,0h4.13c2.72,0,4.25,1.23,4.25,3.42a3.12,3.12,0,0,1-1,2.47,2.92,2.92,0,0,1-1.38.74,3.25,3.25,0,0,1,1.77.8,3.48,3.48,0,0,1,1.09,2.69c0,2.45-1.63,3.84-4.54,3.84Zm3.88-8.24a1.86,1.86,0,0,0,2.12-1.92,1.77,1.77,0,0,0-.46-1.29,2.48,2.48,0,0,0-1.68-.55h-3.63v3.76Zm-3.65,6.25h3.77c1.56,0,2.44-.77,2.44-2.19a1.91,1.91,0,0,0-.56-1.52,2.86,2.86,0,0,0-1.92-.6h-3.73Z"/><path class="cls-2" d="M183,43.54a14.94,14.94,0,0,0-2.27-.12h-5.47c-1.05,0-1.52,0-2.22,0a14.82,14.82,0,0,0,.14-2.32V31.67a16.23,16.23,0,0,0-.14-2.26c.7,0,1.16.05,2.22.05h5.3a18.25,18.25,0,0,0,2.26-.12v2.31a15.39,15.39,0,0,0-2.26-.12h-5v3.61h4.26A17.85,17.85,0,0,0,182,35v2.29a14.38,14.38,0,0,0-2.28-.12h-4.28v4.14h5.26a18.4,18.4,0,0,0,2.25-.12Z"/><path class="cls-2" d="M192.9,39.12c-1,2.26-2.12,3.3-3.56,3.3-2,0-3.43-2-3.43-4.86a7.5,7.5,0,0,1,1.93-5.1,7.88,7.88,0,0,1,6-2.46c4.2,0,6.94,2.56,6.94,6.51a6.76,6.76,0,0,1-4.26,6.54,11.55,11.55,0,0,1-2.75.73,5.66,5.66,0,0,0-1.07-2.05,9.44,9.44,0,0,0,3.49-1,4.91,4.91,0,0,0,2.43-4.38,4.35,4.35,0,0,0-2.15-3.9,3.92,3.92,0,0,0-1.77-.52A25.46,25.46,0,0,1,192.9,39.12Zm-2.58-6.28a5.89,5.89,0,0,0-2.38,4.74c0,1.43.61,2.57,1.39,2.57.57,0,1.17-.73,1.8-2.24A22.9,22.9,0,0,0,192.59,32,4.59,4.59,0,0,0,190.32,32.84Z"/><path class="cls-2" d="M204.72,30.3a9.91,9.91,0,0,0-.11-1.79h2.06a9.87,9.87,0,0,0-.11,1.77v1.46H207a5.45,5.45,0,0,0,1-.07v1.82c-.37,0-.58-.05-1-.05h-.49v2.45c.32-.15.51-.24,1.05-.52l.14,1.75c-.51.28-.7.37-1.19.6v5.13a1.59,1.59,0,0,1-.51,1.35,4,4,0,0,1-2,.35l-.83,0a5.58,5.58,0,0,0-.43-1.81,7.8,7.8,0,0,0,1.33.13c.45,0,.56-.11.56-.53V38.47c-.37.12-.79.28-1.11.37a4.93,4.93,0,0,0-.73.28l-.37-2a11.1,11.1,0,0,0,2.21-.55V33.44H204a11.1,11.1,0,0,0-1.28.07V31.65a7.58,7.58,0,0,0,1.3.09h.7Zm12.52,14.55a26.45,26.45,0,0,0-3.74-2,12.9,12.9,0,0,1-5.76,1.87A5.63,5.63,0,0,0,207,43a11.68,11.68,0,0,0,4.61-1,28.3,28.3,0,0,0-3.09-1.07,12.8,12.8,0,0,0,1.55-1.87h-.51a10.64,10.64,0,0,0-1.68.09V37.3a10.61,10.61,0,0,0,1.7.09h1.56a9.93,9.93,0,0,0,.63-1.36h-2.3a8.88,8.88,0,0,0-1.51.09V34.26a6.87,6.87,0,0,0,1.41.09h1.19a7,7,0,0,0-.81-1.93l1.46-.56h-1a9.93,9.93,0,0,0-1.77.09V30.09a13.57,13.57,0,0,0,2,.09h1.82v-.39a9.46,9.46,0,0,0-.08-1.24h2.05a7.35,7.35,0,0,0-.09,1.23v.4h2.35a12.75,12.75,0,0,0,2-.09V32a10,10,0,0,0-1.77-.09h-1.56l1.63.42a8.68,8.68,0,0,1-1.07,2.07H217a10.8,10.8,0,0,0,1.79-.09v1.86A11.11,11.11,0,0,0,217,36h-4.86l1.44.44c-.09.18-.09.18-.28.51a2.77,2.77,0,0,1-.23.41h4a10.13,10.13,0,0,0,1.72-.09v1.86a10.83,10.83,0,0,0-1.71-.09h-.54A7.06,7.06,0,0,1,215,41.61a33.1,33.1,0,0,1,3.48,1.67Zm-3.4-10.5a6.85,6.85,0,0,0,1.1-2.49H211.4a8.87,8.87,0,0,1,.81,2l-1.44.54Zm-1.77,4.72c-.29.38-.42.58-.9,1.17l2.12.72a5,5,0,0,0,1.37-1.89Z"/><path class="cls-2" d="M222.4,38.49a22.6,22.6,0,0,1-.7,5.33l-1.51-.76a15.19,15.19,0,0,0,.68-4.8Zm-2.16-2.6a3.89,3.89,0,0,0,.72,0h.63c.51-.68.51-.68.91-1.26A20,20,0,0,0,220.21,32l.87-1.53.67.72A12.84,12.84,0,0,0,223,28.36l1.68.64a5.66,5.66,0,0,0-.37.65,23.16,23.16,0,0,1-1.56,2.72c.34.4.42.51.69.82A13.61,13.61,0,0,0,225,30.28l1.58.86a11.78,11.78,0,0,0-.84,1.34c-.56.89-1.65,2.45-2.35,3.38,1,0,1.28-.09,1.81-.14a13.5,13.5,0,0,0-.51-1.35l1.19-.42a17,17,0,0,1,1,2.93v-.42a7.48,7.48,0,0,0-.07-1.27,12.78,12.78,0,0,0,1.58.06h6.06a10.4,10.4,0,0,0,1.69-.09,10.45,10.45,0,0,0-.06,1.24v1.05a6.9,6.9,0,0,0,.08,1.25h-1.83V36.77h-5.82V38.7h-1.7a7,7,0,0,0,.07-1.14l-1.14.4c-.05-.36-.09-.51-.14-.75l-1,.12v5.54a11.17,11.17,0,0,0,.1,1.84H222.8a10.79,10.79,0,0,0,.1-1.84v-5.4l-.68.05a6.54,6.54,0,0,0-.68.06,7.64,7.64,0,0,0-1.11.1Zm6.08,2.28a32.82,32.82,0,0,1,.57,3.84l-1.42.42a21.62,21.62,0,0,0-.48-3.92Zm4.58-.57c0,.33,0,.33-.09,1.26a6.3,6.3,0,0,1-1.19,3.68,6.78,6.78,0,0,1-2.82,2.05A3.93,3.93,0,0,0,225.61,43a5.06,5.06,0,0,0,2.55-1.51A4.61,4.61,0,0,0,229,38.4a6.87,6.87,0,0,0,0-.8Zm-2.23-6.11a13,13,0,0,0-1.91.09V29.83a14.23,14.23,0,0,0,2,.1h1.63v-.17a7.16,7.16,0,0,0-.11-1.32h2a7,7,0,0,0-.1,1.34v.15h2.13a14.13,14.13,0,0,0,1.95-.1v1.75a12.59,12.59,0,0,0-1.89-.09h-2.19v1.25h1.78a12.17,12.17,0,0,0,1.79-.09v1.7a14.88,14.88,0,0,0-1.77-.09h-5.12a11.78,11.78,0,0,0-1.77.09v-1.7a12.17,12.17,0,0,0,1.79.09h1.49V31.49Zm4.88,6.11a6.05,6.05,0,0,0-.11,1.24v3.42c0,.3.11.37.53.37a.93.93,0,0,0,.66-.18,5,5,0,0,0,.3-2.28,5.14,5.14,0,0,0,1.67.62,8.44,8.44,0,0,1-.44,2.63c-.32.68-.88.91-2.31.91-1.7,0-2.16-.3-2.16-1.46v-4a6,6,0,0,0-.09-1.24Z"/><path class="cls-2" d="M247.74,32.41l0-.79v-.57a11,11,0,0,0-.09-1.94h2.26a6.67,6.67,0,0,0-.07,1.17c0,1.07,0,1.07,0,2.13H251a11.77,11.77,0,0,0,2.27-.13v2.14a17.61,17.61,0,0,0-2.24-.09h-1.17a21.19,21.19,0,0,1-.13,2.9,7,7,0,0,1-2.52,5,9.94,9.94,0,0,1-3.42,1.84,5.14,5.14,0,0,0-1.32-1.86,8.21,8.21,0,0,0,3.35-1.66,5.48,5.48,0,0,0,1.86-4.21c0-.41,0-.83.07-2h-4.54V37a11.37,11.37,0,0,0,.07,1.48H241a12.1,12.1,0,0,0,.07-1.51v-2.6H240a17.71,17.71,0,0,0-2.24.09V32.28a11.83,11.83,0,0,0,2.28.13h1V30.65a9.39,9.39,0,0,0-.09-1.56h2.3a8.84,8.84,0,0,0-.07,1.51v1.81Z"/><path class="cls-2" d="M254.82,35.26a16.37,16.37,0,0,0,2.84.13H267a16.37,16.37,0,0,0,2.84-.13V37.7a18.64,18.64,0,0,0-2.85-.09h-9.31a18.73,18.73,0,0,0-2.86.09Z"/><path class="cls-2" d="M275.36,34.81c2.65-.49,6.52-2.05,7.66-3.12l1.4,2-1.58.75a29.5,29.5,0,0,1-7.48,2.42v2.32a.94.94,0,0,0,0,.22c0,1,.07,1.42.32,1.67s1.29.46,3,.46a32.2,32.2,0,0,0,4.07-.29,9.85,9.85,0,0,0,2-.42l.1,2.34c-.36,0-.45,0-2.31.19-1,.1-3.24.21-4.31.21-2.21,0-3.42-.23-4.1-.76a2.34,2.34,0,0,1-.86-1.78,11.71,11.71,0,0,1-.06-1.62V31.25a9.15,9.15,0,0,0-.07-1.61h2.35a8.8,8.8,0,0,0-.09,1.63Zm8.33-6a11.23,11.23,0,0,1,1.75,2.67l-1.26.57a11.36,11.36,0,0,0-1.74-2.68ZM286.32,31a12.84,12.84,0,0,0-1.69-2.61l1.21-.57a10.41,10.41,0,0,1,1.72,2.55Z"/><path class="cls-2" d="M301.55,43.78a33.68,33.68,0,0,0-5.39-5.2,20.71,20.71,0,0,1-6.67,5.06,7.35,7.35,0,0,0-1.42-1.94,14.65,14.65,0,0,0,3.5-1.93,16.87,16.87,0,0,0,5.89-7.14l.19-.45-5.8.1a15.68,15.68,0,0,0-1.91.14l-.07-2.24a7.57,7.57,0,0,0,1.54.1h.42L298,30.2a3.77,3.77,0,0,0,1.56-.2l1.15,1.2a3.38,3.38,0,0,0-.56.94A22.86,22.86,0,0,1,297.43,37a27.64,27.64,0,0,1,3.24,2.54c.44.39.44.39,2.56,2.44Z"/><path class="cls-2" d="M310.21,44.77a14.23,14.23,0,0,1-1.91-3.46,12.89,12.89,0,0,1-.93-4.84,12.47,12.47,0,0,1,.89-4.68,14.12,14.12,0,0,1,1.93-3.45h2.46a13.5,13.5,0,0,0-2.23,3.49,11.54,11.54,0,0,0-.91,4.64,11.93,11.93,0,0,0,.93,4.81,13.64,13.64,0,0,0,2.22,3.49Z"/><path class="cls-2" d="M316.77,36.93a17.27,17.27,0,0,0-2.21.09V34.89a11.42,11.42,0,0,0,2.24.13H320V32h-2.14a16.38,16.38,0,0,0-2.23.09V30a11.67,11.67,0,0,0,2.26.12h8a11.79,11.79,0,0,0,2.28-.12v2.12A16.54,16.54,0,0,0,325.9,32h-3.77v3H327a11.54,11.54,0,0,0,2.24-.13V37a17.27,17.27,0,0,0-2.21-.09h-4.91v2.8c0,1.06.09,1.32.48,1.49a4.46,4.46,0,0,0,1.8.23c.63,0,1.7-.05,2.62-.14a8,8,0,0,0,1.63-.3l0,2.23a1.79,1.79,0,0,0-.3,0c-.16,0-.16,0-1.42.11-.77.05-1.95.1-2.79.1-3.42,0-4.22-.58-4.22-3V36.93Z"/><path class="cls-2" d="M337.45,30.51a1.64,1.64,0,0,0-.09.35l0,.3-.08.51-.06.42c-.73,5-2.1,8.49-4.45,11.19a7.42,7.42,0,0,0-2-1.51A11.84,11.84,0,0,0,333.24,38a21.39,21.39,0,0,0,1.65-6,13.61,13.61,0,0,0,.15-1.7v-.25Zm5-.44a21.3,21.3,0,0,0,.73,4,17,17,0,0,0,3.91,7.57,7.39,7.39,0,0,0-1.93,1.61,23.18,23.18,0,0,1-4.64-11.53,7.76,7.76,0,0,0-.25-1.27ZM343.92,29a10.7,10.7,0,0,1,1.45,2.82l-1.33.42a11.23,11.23,0,0,0-1.44-2.85Zm2.42,2.54a12.6,12.6,0,0,0-1.41-2.77l1.3-.36a10.24,10.24,0,0,1,1.44,2.71Z"/><path class="cls-2" d="M361.65,30.37A6.4,6.4,0,0,0,361,31a31.5,31.5,0,0,1-4.14,3.61v7.48a13.18,13.18,0,0,0,.09,2H354.5a10.68,10.68,0,0,0,.1-1.89V36a27.85,27.85,0,0,1-6.26,2.84,6.69,6.69,0,0,0-1.17-2,25.78,25.78,0,0,0,9.2-4.56A14,14,0,0,0,359.63,29Z"/><path class="cls-2" d="M367.85,29.62a37.17,37.17,0,0,0-.18,3.93c-.12,3.41-.51,5.39-1.42,7.2A11.18,11.18,0,0,1,363.83,44a6.32,6.32,0,0,0-1.77-1.7,7.25,7.25,0,0,0,1.81-2c1.26-2,1.66-4.28,1.66-9.19a8.76,8.76,0,0,0-.07-1.59Zm4.64-.21a9.5,9.5,0,0,0-.12,1.66l-.09,10a7,7,0,0,0,2.68-2,8.49,8.49,0,0,0,1.72-3.21,7.38,7.38,0,0,0,1.65,1.65,10.78,10.78,0,0,1-2.79,4.08,11.6,11.6,0,0,1-3.73,2.11c-.39.14-.53.21-.76.31l-1.12-1.19a8.11,8.11,0,0,0,.16-1.86l.09-9.89v-.52a8,8,0,0,0-.07-1.16Z"/><path class="cls-2" d="M381.88,30.3a9.91,9.91,0,0,0-.11-1.79h2.05a10,10,0,0,0-.1,1.77v1.46h.47a5.26,5.26,0,0,0,1-.07v1.82c-.37,0-.58-.05-1-.05h-.49v2.45c.31-.15.51-.24,1-.52l.14,1.75c-.51.28-.7.37-1.19.6v5.13a1.62,1.62,0,0,1-.51,1.35,4,4,0,0,1-2,.35l-.82,0a5.59,5.59,0,0,0-.44-1.81,7.89,7.89,0,0,0,1.33.13c.46,0,.57-.11.57-.53V38.47c-.37.12-.79.28-1.11.37a5.16,5.16,0,0,0-.74.28l-.36-2a11.1,11.1,0,0,0,2.21-.55V33.44h-.72a11.1,11.1,0,0,0-1.28.07V31.65a7.54,7.54,0,0,0,1.29.09h.71Zm12.51,14.55a26.34,26.34,0,0,0-3.73-2,12.94,12.94,0,0,1-5.77,1.87,5.16,5.16,0,0,0-.74-1.68,11.73,11.73,0,0,0,4.62-1,29.86,29.86,0,0,0-3.09-1.07,12.8,12.8,0,0,0,1.54-1.87h-.51a10.72,10.72,0,0,0-1.68.09V37.3a10.77,10.77,0,0,0,1.7.09h1.56a8.85,8.85,0,0,0,.63-1.36h-2.29a8.88,8.88,0,0,0-1.51.09V34.26a6.76,6.76,0,0,0,1.4.09h1.19a6.65,6.65,0,0,0-.8-1.93l1.45-.56h-1a10.14,10.14,0,0,0-1.78.09V30.09a13.82,13.82,0,0,0,2,.09h1.82v-.39a9.37,9.37,0,0,0-.09-1.24h2a7.33,7.33,0,0,0-.08,1.23v.4h2.34a13,13,0,0,0,2-.09V32a10.15,10.15,0,0,0-1.77-.09h-1.56l1.63.42a9.06,9.06,0,0,1-1.07,2.07h1.38a10.65,10.65,0,0,0,1.79-.09v1.86a11,11,0,0,0-1.79-.09h-4.85l1.43.44a3.22,3.22,0,0,1-.28.51,1.9,1.9,0,0,1-.22.41h4A10,10,0,0,0,396,37.3v1.86a10.69,10.69,0,0,0-1.7-.09h-.54a7.2,7.2,0,0,1-1.58,2.54,33,33,0,0,1,3.47,1.67ZM391,34.35a6.85,6.85,0,0,0,1.11-2.49h-3.54a9.4,9.4,0,0,1,.8,2l-1.44.54Zm-1.77,4.72c-.28.38-.42.58-.89,1.17l2.12.72a5,5,0,0,0,1.37-1.89Z"/><path class="cls-2" d="M399.55,38.49a22.09,22.09,0,0,1-.7,5.33l-1.51-.76a15.13,15.13,0,0,0,.69-4.8Zm-2.15-2.6a3.72,3.72,0,0,0,.71,0h.64c.5-.68.5-.68.91-1.26a20.16,20.16,0,0,0-2.3-2.65l.88-1.53.66.72a12,12,0,0,0,1.28-2.85l1.69.64a3.68,3.68,0,0,0-.37.65,23.16,23.16,0,0,1-1.56,2.72l.68.82a13.82,13.82,0,0,0,1.58-2.91l1.58.86a11.78,11.78,0,0,0-.84,1.34c-.56.89-1.65,2.45-2.35,3.38,1,0,1.28-.09,1.8-.14a9.89,9.89,0,0,0-.51-1.35l1.2-.42a17,17,0,0,1,1,2.93v-.42a7.48,7.48,0,0,0-.07-1.27,12.7,12.7,0,0,0,1.57.06h6.07a10.18,10.18,0,0,0,1.68-.09c0,.38-.05.68-.05,1.24v1.05a8.18,8.18,0,0,0,.07,1.25h-1.82V36.77h-5.82V38.7H404a7,7,0,0,0,.07-1.14l-1.14.4c-.06-.36-.09-.51-.14-.75l-1.06.12v5.54a10,10,0,0,0,.11,1.84H400a11.93,11.93,0,0,0,.1-1.84v-5.4l-.68.05q-.53,0-.69.06a7.45,7.45,0,0,0-1.1.1Zm6.08,2.28A30.85,30.85,0,0,1,404,42l-1.42.42a20.83,20.83,0,0,0-.47-3.92Zm4.58-.57c0,.33,0,.33-.09,1.26a6.44,6.44,0,0,1-1.19,3.68A6.76,6.76,0,0,1,404,44.59,3.93,3.93,0,0,0,402.76,43a5.1,5.1,0,0,0,2.56-1.51,4.61,4.61,0,0,0,.88-3.07,6.87,6.87,0,0,0-.05-.8Zm-2.23-6.11a12.9,12.9,0,0,0-1.91.09V29.83a14.17,14.17,0,0,0,1.94.1h1.63v-.17a7.24,7.24,0,0,0-.1-1.32h2a6.86,6.86,0,0,0-.11,1.34v.15h2.14a14.33,14.33,0,0,0,1.95-.1v1.75a12.83,12.83,0,0,0-1.9-.09H409.3v1.25h1.79a12.34,12.34,0,0,0,1.79-.09v1.7a15,15,0,0,0-1.77-.09H406a11.62,11.62,0,0,0-1.77.09v-1.7a11.93,11.93,0,0,0,1.78.09h1.49V31.49Zm4.87,6.11a6.14,6.14,0,0,0-.1,1.24v3.42c0,.3.1.37.52.37a1,1,0,0,0,.67-.18,5.21,5.21,0,0,0,.3-2.28,5.09,5.09,0,0,0,1.66.62,8.24,8.24,0,0,1-.43,2.63c-.32.68-.88.91-2.32.91-1.7,0-2.16-.3-2.16-1.46v-4a6.09,6.09,0,0,0-.08-1.24Z"/><path class="cls-2" d="M415.83,30.6a21,21,0,0,0,4.07.23,7,7,0,0,0,.7-2.18l2.3.25a10.5,10.5,0,0,0-.7,1.58c-.09.19-.13.24-.16.31.14,0,.14,0,1.1-.07a23.69,23.69,0,0,0,4.6-.59l.12,2c-.49,0-.49,0-1.39.13-1.28.16-3.5.3-5.27.36A8.92,8.92,0,0,1,419.58,35l0,0,.35-.26a4.25,4.25,0,0,1,2.47-.79,2.31,2.31,0,0,1,2.51,1.86c1.35-.49,2.24-.81,2.68-.95a5.67,5.67,0,0,0,1.3-.52l.82,2a14.59,14.59,0,0,0-1.94.48c-.25.07-1.12.36-2.63.89v.19c0,.46,0,.46,0,.7v.71c0,.29,0,.45,0,.57a8.14,8.14,0,0,0,0,.93l-2,.06a14.17,14.17,0,0,0,.1-2V38.4a10.64,10.64,0,0,0-1.68.91,1.86,1.86,0,0,0-.91,1.44c0,.91.84,1.28,3,1.28a15,15,0,0,0,5.15-.74l.18,2.27a4.41,4.41,0,0,0-.81.07,32.16,32.16,0,0,1-4.48.31,7.59,7.59,0,0,1-3.91-.73,2.55,2.55,0,0,1-1.28-2.27,2.77,2.77,0,0,1,.77-1.94A8.57,8.57,0,0,1,423,36.53a1,1,0,0,0-1.07-1,5.9,5.9,0,0,0-3.6,1.81A7.84,7.84,0,0,0,416.85,39l-1.6-1.58a10.28,10.28,0,0,0,1.58-1.56,22.78,22.78,0,0,0,2.1-3,.7.7,0,0,1,.14-.22h-.29l-2.21,0-.49,0a1.63,1.63,0,0,0-.28,0Z"/><path class="cls-2" d="M436,32.93a25.12,25.12,0,0,1-4,2.26,5.33,5.33,0,0,0-1.15-1.73,19.82,19.82,0,0,0,4.43-2.32,12.38,12.38,0,0,0,2.84-2.64h2a12.48,12.48,0,0,0,3.27,2.85,16.94,16.94,0,0,0,4.26,2,7.74,7.74,0,0,0-1.13,1.79,19.41,19.41,0,0,1-4-2.18v1a12.47,12.47,0,0,0-1.47-.07h-3.65A13.26,13.26,0,0,0,436,34Zm8,5.49a10.19,10.19,0,0,0,1.38-.07,12.27,12.27,0,0,0-.07,1.44v3.35a9.78,9.78,0,0,0,.09,1.49h-2v-.71h-8.13v.71h-2a10.44,10.44,0,0,0,.1-1.53V39.72a10.76,10.76,0,0,0-.08-1.37,12,12,0,0,0,1.43.07h5l2.21-1.89H435a11.64,11.64,0,0,0-1.68.08V34.82a7.2,7.2,0,0,0,1.35.09h7.77a10.74,10.74,0,0,0,1.54-.07l1.09,1a8.91,8.91,0,0,1-.67.63l-2.08,2Zm-8.75,3.8h8.13V40.08h-8.13Zm6-9.85h.54a17.54,17.54,0,0,1-2.53-2.3,15.41,15.41,0,0,1-2.42,2.28c.29,0,.41,0,.65,0Z"/><path class="cls-2" d="M457.57,32.55a2.26,2.26,0,0,0-.52.07,22.23,22.23,0,0,1-2.62.33c0,1.21,0,1.3,0,1.86a2.28,2.28,0,0,1,.84,1.94,3.39,3.39,0,0,1-.41,1.67,8.08,8.08,0,0,1-.59,1,3.1,3.1,0,0,0-.63,1.6c0,.68.84,1,2.86,1a12.53,12.53,0,0,0,2.89-.33c.94-.23,1.33-.67,1.33-1.51a5.92,5.92,0,0,0-.39-2,9.82,9.82,0,0,0-.43-1.22,8,8,0,0,0,2.35.56,5.4,5.4,0,0,1,.15.59l.2.69a6.6,6.6,0,0,1,.24,1.75,2.63,2.63,0,0,1-1.37,2.58,7,7,0,0,1-2.71.72,22,22,0,0,1-2.53.15,8.6,8.6,0,0,1-3.57-.57,2,2,0,0,1-1.16-1.9,2.7,2.7,0,0,1,.51-1.56h0a.89.89,0,0,1-.52.16,2.17,2.17,0,0,1-1.78-1,3.35,3.35,0,0,1-.42-1.64,3,3,0,0,1,3-3.06h.19c0-.12,0-.4,0-.78V33h-1.14c-.48,0-.84,0-1.35,0a3.21,3.21,0,0,0-.39,0,1.69,1.69,0,0,0-.28,0l0-1.93a9.49,9.49,0,0,0,2.42.19h.75a1.79,1.79,0,0,1,0-.37v-.65a6.66,6.66,0,0,0-.09-1.33l2.23,0a5.37,5.37,0,0,0-.16,1.21,3.68,3.68,0,0,0,0,.59c0,.16,0,.22,0,.43a14.33,14.33,0,0,0,3-.53Zm-5.26,3.33a1.34,1.34,0,0,0-1.21,1.4c0,.68.37,1.12.95,1.12A1.36,1.36,0,0,0,453.29,37c0-.69-.28-1-.91-1.06Zm8-5.68a18.33,18.33,0,0,1,4,4l-1.68,1.35a15.87,15.87,0,0,0-3.89-4.1Z"/><path class="cls-2" d="M465.87,44.77a13.64,13.64,0,0,0,2.22-3.49,11.7,11.7,0,0,0,.93-4.81,11.4,11.4,0,0,0-.89-4.64,14.45,14.45,0,0,0-2.24-3.49h2.47a13.94,13.94,0,0,1,1.91,3.45,12.51,12.51,0,0,1,.89,4.68,13.24,13.24,0,0,1-.91,4.84,14.94,14.94,0,0,1-1.91,3.46Z"/><path class="cls-2" d="M476.09,30.6a21,21,0,0,0,4.07.23,7,7,0,0,0,.7-2.18l2.3.25a10.91,10.91,0,0,0-.71,1.58c-.08.19-.12.24-.15.31.14,0,.14,0,1.1-.07a23.45,23.45,0,0,0,4.59-.59l.13,2c-.49,0-.49,0-1.39.13-1.28.16-3.5.3-5.27.36A8.92,8.92,0,0,1,479.84,35l0,0,.35-.26a4.25,4.25,0,0,1,2.47-.79,2.31,2.31,0,0,1,2.51,1.86c1.35-.49,2.24-.81,2.68-.95a5.67,5.67,0,0,0,1.3-.52l.82,2a14.59,14.59,0,0,0-1.94.48c-.25.07-1.12.36-2.63.89v.19c0,.46,0,.46,0,.7v.71c0,.29,0,.45,0,.57a8.14,8.14,0,0,0,.05.93l-2,.06a14.17,14.17,0,0,0,.1-2V38.4a10.64,10.64,0,0,0-1.68.91,1.83,1.83,0,0,0-.91,1.44c0,.91.84,1.28,3,1.28a15,15,0,0,0,5.15-.74l.18,2.27a4.41,4.41,0,0,0-.81.07,32.16,32.16,0,0,1-4.48.31,7.65,7.65,0,0,1-3.92-.73,2.56,2.56,0,0,1-1.27-2.27,2.77,2.77,0,0,1,.77-1.94,8.57,8.57,0,0,1,3.77-2.47,1,1,0,0,0-1.07-1,5.9,5.9,0,0,0-3.6,1.81A7.84,7.84,0,0,0,477.11,39l-1.6-1.58a10.28,10.28,0,0,0,1.58-1.56,22.78,22.78,0,0,0,2.1-3,.7.7,0,0,1,.14-.22H479l-2.21,0-.49,0a1.63,1.63,0,0,0-.28,0Z"/><path class="cls-2" d="M496,37.21c-1.11.93-1.6,1.67-1.6,2.42,0,1.14,1.28,1.63,4.24,1.63a18.34,18.34,0,0,0,5.51-.75l.19,2.4c-.31,0-.37,0-.77.07a28.84,28.84,0,0,1-4.73.4,12.45,12.45,0,0,1-4.39-.58,3,3,0,0,1-2.24-2.93c0-1.35.68-2.5,2.26-3.82ZM493.37,30a22.73,22.73,0,0,0,5.26.44,22.17,22.17,0,0,0,4.63-.33l.07,2A32.64,32.64,0,0,0,498.65,35l-1.53-1.21c1.11-.7,1.3-.82,1.74-1.07l.45-.28a3.33,3.33,0,0,0,.39-.21,18,18,0,0,1-2.63.14,28.36,28.36,0,0,1-3.21-.21l-.4,0s-.12,0-.25,0Zm9.26,3.9a11.55,11.55,0,0,1,1.84,2.57l-1.23.65a11.86,11.86,0,0,0-1.84-2.61ZM505.35,36a13.33,13.33,0,0,0-1.79-2.55l1.17-.61a10.35,10.35,0,0,1,1.83,2.47Z"/><path class="cls-2" d="M511.43,31.42c-1.14.23-1.51.28-2.56.44a6.86,6.86,0,0,0-.65-1.68c2.9-.3,5.67-1,6.75-1.68l1.14,1.61c-1.26.44-2.07.68-2.84.89v2.26h1.41a8.74,8.74,0,0,0,1.47-.08v1.91a9.18,9.18,0,0,0-1.51-.09h-1.28a10.33,10.33,0,0,0,2.81,3.28,7.68,7.68,0,0,0-.93,1.72,9.68,9.68,0,0,1-2-2.81c0,.6.08,1.32.08,2.21v3.05a14.21,14.21,0,0,0,.11,2.23h-2.09a15.11,15.11,0,0,0,.12-2.23V39.52c0-.7,0-1.5.09-2.1a13,13,0,0,1-1.19,2.47,11.37,11.37,0,0,1-1.53,1.93,9.36,9.36,0,0,0-1-1.84,10.38,10.38,0,0,0,1.91-2.35A21,21,0,0,0,511.08,35h-1.26a10.42,10.42,0,0,0-1.61.11v-2a8,8,0,0,0,1.64.1h1.58Zm7.72-1.64A12.82,12.82,0,0,0,519,31.9v6.62a14.56,14.56,0,0,0,.09,2.09h-2.07a13.4,13.4,0,0,0,.09-2V31.9a13.26,13.26,0,0,0-.11-2.12Zm4.17-1.06a18.15,18.15,0,0,0-.12,2.39V42.38c0,.93-.23,1.44-.79,1.74a5.33,5.33,0,0,1-2.44.3c-.44,0-.7,0-1.3,0a8.1,8.1,0,0,0-.59-2,20.63,20.63,0,0,0,2.31.16c.77,0,.89-.07.89-.52v-11c0-.88,0-1.61-.1-2.39Z"/><path class="cls-2" d="M528.42,39.14a11.68,11.68,0,0,1-1.79,5.54,10.29,10.29,0,0,0-1.7-1.39,7.94,7.94,0,0,0,1.28-3,16.87,16.87,0,0,0,.35-2.68c.09-1.47.16-4,.16-6a23.68,23.68,0,0,0-.09-2.55,18.81,18.81,0,0,0,2,.07h9.84a17.45,17.45,0,0,0,2-.07c0,.6-.07,1-.07,2V42.57c0,1.46-.53,1.83-2.52,1.83-.55,0-1.44,0-2-.07a6.85,6.85,0,0,0-.49-1.83c.88.09,1.65.14,2.21.14.72,0,.88-.07.88-.43V39.14h-4.21V42a15.37,15.37,0,0,0,.09,2.09h-2.07a14.75,14.75,0,0,0,.1-2.07V39.14Zm4-4.14h-3.87c0,.51,0,.86,0,1.1,0,.83,0,.95,0,1.3h3.91Zm0-4h-3.82v1.8l0,.49h3.84Zm6.09,2.29V31h-4.21v2.29Zm0,4.12V35h-4.21v2.4Z"/><path class="cls-2" d="M542.62,31l.67,0c.31,0,.31,0,2.89-.18,1.28-.07,4.28-.23,9-.46a9.32,9.32,0,0,0,1.8-.14l.13,2.23-.37,0a7.79,7.79,0,0,0-3.47.95c-2.23,1.16-3.54,2.91-3.54,4.68A3,3,0,0,0,552,40.91a10.75,10.75,0,0,0,2.61.45H555l-.31,2.38c-.23,0-.27,0-.6-.1a10.71,10.71,0,0,1-4.1-1.16,4.68,4.68,0,0,1-2.51-4.23,6.15,6.15,0,0,1,1.66-4.12,7.81,7.81,0,0,1,2.44-1.77c-1.42.21-2.5.32-5.91.56a24.19,24.19,0,0,0-2.91.35Zm12.08,3.36a11.3,11.3,0,0,1,1.84,2.58l-1.23.65A11.54,11.54,0,0,0,553.47,35Zm2.72,2.13a13.33,13.33,0,0,0-1.79-2.55l1.17-.61a10.35,10.35,0,0,1,1.83,2.47Z"/><path class="cls-2" d="M569.41,35.39c0,.07,0,.21,0,.42a5.37,5.37,0,0,1,.56,2.47A5.62,5.62,0,0,1,567.37,43a12,12,0,0,1-3.17,1.44,5.82,5.82,0,0,0-1.24-2,8.37,8.37,0,0,0,3-1,3.69,3.69,0,0,0,2-2.56,2.89,2.89,0,0,1-2.58,1.25,3.27,3.27,0,0,1-2-.63,2.74,2.74,0,0,1-1.21-2.37A3.22,3.22,0,0,1,565.64,34a2.94,2.94,0,0,1,1.82.52.59.59,0,0,1,0-.21s0-1,0-1.49c-2.51.07-4.16.13-4.93.18-2.65.19-2.65.19-3.12.26l-.07-2.08c.39,0,.54,0,.86,0s.72,0,3-.09L565.9,31l1.49-.05a10.46,10.46,0,0,0-.1-2.12l2.2,0a16.66,16.66,0,0,0-.08,2.09c3.05,0,4.42,0,5.06-.13l0,2c-.65,0-1.49-.09-2.94-.09-.42,0-.74,0-2.12,0v1.14Zm-3.58.17A1.54,1.54,0,0,0,564.2,37a1.38,1.38,0,0,0,1.49,1.39,1.6,1.6,0,0,0,1.72-1.58C567.41,36,566.8,35.56,565.83,35.56Z"/><path class="cls-2" d="M582.87,29.06a5.25,5.25,0,0,0-.14.54c0,.23-.05.32-.1.6s-.06.36-.3,1.68c-.07.38-.07.42-.12.65.51,0,.75-.05,1.08-.05a3.42,3.42,0,0,1,2.6.92c.6.67.82,1.51.82,3.11,0,3-.51,5.42-1.35,6.38a2.2,2.2,0,0,1-1.94.79,8.43,8.43,0,0,1-2.7-.51c0-.35,0-.6,0-.77a6.5,6.5,0,0,0-.17-1.49,7.18,7.18,0,0,0,2.56.68c.5,0,.79-.33,1.05-1.19a15.65,15.65,0,0,0,.45-4c0-1.61-.4-2.08-1.78-2.08a9.15,9.15,0,0,0-1,0c-.53,2.14-.69,2.66-1.07,3.8a37.55,37.55,0,0,1-2.1,4.93l-.27.53c0,.1,0,.12-.14.29l-2-1.12a19.12,19.12,0,0,0,1.82-3.29,29.18,29.18,0,0,0,1.7-5c-.89.11-2.56.41-3.14.57L576.4,33c.65,0,2.77-.21,3.74-.35a27.78,27.78,0,0,0,.45-3.55v-.33Zm5.81,2.24a17.13,17.13,0,0,1,3.61,6.84l-2,1a15.78,15.78,0,0,0-1.4-4,11.09,11.09,0,0,0-2-3Z"/><path class="cls-2" d="M597.7,39.66a5.1,5.1,0,0,0,.06-.73l0-.34a3.55,3.55,0,0,1,.72-2.28A6,6,0,0,1,600.11,35c1.14-.75,1.54-1.3,1.54-2.1,0-1.07-.93-1.74-2.42-1.74a2.45,2.45,0,0,0-2.1,1,2.52,2.52,0,0,0-.42,1.33l-2.6-.31a4.41,4.41,0,0,1,1.39-2.65,5.63,5.63,0,0,1,3.87-1.23,5.47,5.47,0,0,1,3.52,1.05,3,3,0,0,1,1.25,2.46,3.3,3.3,0,0,1-.61,2.07,7.25,7.25,0,0,1-2.16,1.8c-1.09.74-1.37,1.16-1.37,2.09,0,.28,0,.56,0,.89Zm2.44,1.46v2.4H597.6v-2.4Z"/><circle class="cls-3" cx="40.73" cy="35.64" r="35.64"/><path class="cls-4" d="M15.94,40.67a10.92,10.92,0,0,0,.12-1.83v-7.7a12.14,12.14,0,0,0-.12-1.83c.62,0,1.06,0,1.81,0h3a4,4,0,0,1,3,1,3.34,3.34,0,0,1,.88,2.45,3.61,3.61,0,0,1-.95,2.61,4,4,0,0,1-3,1H17.93v2.37a10.87,10.87,0,0,0,.12,1.85Zm4.71-5.86a1.79,1.79,0,0,0,2-2,1.9,1.9,0,0,0-.47-1.36A1.93,1.93,0,0,0,20.65,31H17.93v3.82Z"/><path class="cls-4" d="M25.37,36.6a4,4,0,0,1,4.24-4.34,4,4,0,0,1,4.21,4.31,4,4,0,0,1-4.2,4.37A4,4,0,0,1,25.37,36.6Zm1.83,0c0,1.75.91,2.83,2.39,2.83S32,38.37,32,36.63s-.87-2.89-2.37-2.89S27.2,34.83,27.2,36.6Z"/><path class="cls-4" d="M37.24,29.35v1.81H35.15V29.35Zm0,3.16a11.51,11.51,0,0,0-.1,1.86v4.44a12.87,12.87,0,0,0,.1,1.86H35.15a12.19,12.19,0,0,0,.11-1.85V34.36a11.13,11.13,0,0,0-.11-1.85Z"/><path class="cls-4" d="M38.92,40.67A11.18,11.18,0,0,0,39,38.82V34.36a11,11,0,0,0-.12-1.85h1.94v.75a5.23,5.23,0,0,1,0,.61,3.25,3.25,0,0,1,2.9-1.51,2.83,2.83,0,0,1,2.42,1.06,3.18,3.18,0,0,1,.48,2v3.41a12,12,0,0,0,.11,1.85H44.68a15.3,15.3,0,0,0,.1-1.85V35.66a2.36,2.36,0,0,0-.24-1.25,1.35,1.35,0,0,0-1.2-.58c-1,0-1.86.71-2.48,2.12v2.87A12,12,0,0,0,41,40.67Z"/><path class="cls-4" d="M51.4,30.32c0,.49-.09,1.11-.09,1.75v.44h.59a8.28,8.28,0,0,0,1.44-.09V34.1A7.88,7.88,0,0,0,52,34h-.64v4.41c0,.7.25,1,.93,1a1.91,1.91,0,0,0,1-.32l.26,1.51a4.41,4.41,0,0,1-1.78.3c-1.63,0-2.29-.58-2.29-2.08V34h-.54a7.3,7.3,0,0,0-1.27.09V32.42a6.71,6.71,0,0,0,1.29.09h.52v-.44a15.46,15.46,0,0,0-.1-1.75Z"/><path class="cls-4" d="M59.79,40.69a14.14,14.14,0,0,0,.12-2.08V29.79h-.76a12.94,12.94,0,0,0-1.65.1v-2a8.81,8.81,0,0,0,1.6.1h1.47a12.15,12.15,0,0,0,1.63-.08,25.64,25.64,0,0,0-.13,2.64v8.1a14.1,14.1,0,0,0,.13,2.08Z"/><rect class="cls-5" x="379.49" y="148.08" width="558.19" height="69.11" rx="10.76"/><circle class="cls-3" cx="384.33" cy="182.63" r="35.64"/><path class="cls-4" d="M359.62,187.74a12.14,12.14,0,0,0,.11-1.83v-7.69a13.68,13.68,0,0,0-.11-1.84c.61,0,1.05,0,1.81,0h3a4.06,4.06,0,0,1,3,1,3.34,3.34,0,0,1,.88,2.45,3.69,3.69,0,0,1-.95,2.62,4.07,4.07,0,0,1-3,1h-2.72v2.37a12.16,12.16,0,0,0,.11,1.85Zm4.71-5.86a1.78,1.78,0,0,0,2-1.94,2,2,0,0,0-.47-1.37,2,2,0,0,0-1.55-.51h-2.72v3.82Z"/><path class="cls-4" d="M369,183.68A4.23,4.23,0,1,1,373.3,188,4,4,0,0,1,369,183.68Zm1.84,0c0,1.75.91,2.83,2.39,2.83s2.39-1.07,2.39-2.81-.87-2.88-2.38-2.88S370.88,181.9,370.88,183.68Z"/><path class="cls-4" d="M380.92,176.42v1.81h-2.09v-1.81Zm0,3.16a13,13,0,0,0-.1,1.86v4.44a14.37,14.37,0,0,0,.1,1.86h-2.07a13.53,13.53,0,0,0,.11-1.85v-4.46a12.42,12.42,0,0,0-.11-1.85Z"/><path class="cls-4" d="M382.6,187.74a12.51,12.51,0,0,0,.11-1.85v-4.46a12.42,12.42,0,0,0-.11-1.85h1.93v.75a5.38,5.38,0,0,1,0,.62,3.25,3.25,0,0,1,2.9-1.51,2.8,2.8,0,0,1,2.42,1.05,3.17,3.17,0,0,1,.49,2v3.41a10.71,10.71,0,0,0,.11,1.85h-2.06a15.3,15.3,0,0,0,.1-1.85v-3.15a2.23,2.23,0,0,0-.25-1.25,1.33,1.33,0,0,0-1.19-.59c-1,0-1.86.71-2.49,2.12v2.87a12,12,0,0,0,.12,1.85Z"/><path class="cls-4" d="M395.08,177.39c-.05.5-.1,1.11-.1,1.75v.44h.6a7.4,7.4,0,0,0,1.44-.09v1.68a8.06,8.06,0,0,0-1.4-.08H395v4.41c0,.69.26.95.94.95a1.89,1.89,0,0,0,1-.31l.25,1.5a4.36,4.36,0,0,1-1.77.3c-1.64,0-2.29-.58-2.29-2.07v-4.78h-.54a7.34,7.34,0,0,0-1.27.08v-1.68a5.84,5.84,0,0,0,1.28.09h.53v-.44a15.6,15.6,0,0,0-.1-1.75Z"/><path class="cls-4" d="M401.64,187.76a13.46,13.46,0,0,0-2.07.09,8.13,8.13,0,0,1,.42-2,7.84,7.84,0,0,1,2.19-3.14,21.24,21.24,0,0,1,2.64-1.94c1.47-1,1.92-1.54,1.92-2.35,0-1.09-.85-1.76-2.21-1.76a2.27,2.27,0,0,0-2,.94A3.19,3.19,0,0,0,402,179l-2.28-.27a4.81,4.81,0,0,1,1.1-2.56,4.66,4.66,0,0,1,3.67-1.42c2.8,0,4.53,1.34,4.53,3.53a3.28,3.28,0,0,1-1.14,2.57,21,21,0,0,1-2.69,2,14.65,14.65,0,0,0-1.9,1.6,4,4,0,0,0-.92,1.45h4.49a16.75,16.75,0,0,0,2.33-.13v2.11c-.75-.06-1.39-.1-2.41-.1Z"/><path class="cls-2" d="M445.2,191.35c-1,0-1.52,0-2.24.06a12.92,12.92,0,0,0,.15-2.37v-9.52a16.33,16.33,0,0,0-.14-2.16c.74,0,1,0,2.21,0h4.14c2.72,0,4.24,1.23,4.24,3.42a3.11,3.11,0,0,1-1,2.47,2.92,2.92,0,0,1-1.38.74,3.21,3.21,0,0,1,1.77.8,3.47,3.47,0,0,1,1.08,2.68c0,2.46-1.63,3.84-4.54,3.84Zm3.88-8.24a1.86,1.86,0,0,0,2.12-1.91,1.77,1.77,0,0,0-.46-1.29,2.43,2.43,0,0,0-1.68-.55h-3.63v3.75Zm-3.65,6.26h3.77c1.56,0,2.43-.77,2.43-2.19a1.87,1.87,0,0,0-.56-1.52,2.82,2.82,0,0,0-1.91-.6h-3.73Z"/><path class="cls-2" d="M458.69,177.4a13.59,13.59,0,0,0-.14,2.26v9.43a13.67,13.67,0,0,0,.14,2.26H456a13.67,13.67,0,0,0,.14-2.26v-9.43a13.59,13.59,0,0,0-.14-2.26Z"/><path class="cls-2" d="M472.47,187.76a15.22,15.22,0,0,0,.12,2.28,11.48,11.48,0,0,1-2.8,1.21,10.42,10.42,0,0,1-2.58.33,6.14,6.14,0,0,1-5-2,8.26,8.26,0,0,1-1.65-5.33c0-2.79,1-4.93,2.81-6.16a6.62,6.62,0,0,1,3.89-1,5.7,5.7,0,0,1,4,1.51,5,5,0,0,1,1.3,2.08l-2.4.65c-.58-1.59-1.42-2.16-3.23-2.16a3.71,3.71,0,0,0-2.66,1.07,5.49,5.49,0,0,0-1.3,4,6.17,6.17,0,0,0,1.19,4.1,3.68,3.68,0,0,0,3.05,1.21,5.16,5.16,0,0,0,3-.79v-2.85h-.95a9.37,9.37,0,0,0-1.78.1v-2.26a12.62,12.62,0,0,0,2.1.11h.91c.81,0,1.32,0,2.07-.07a14.32,14.32,0,0,0-.12,2.17Z"/><path class="cls-2" d="M484.7,191.48a16.49,16.49,0,0,0-2.49-.13H477c-1,0-1.6,0-2.23.06a13.47,13.47,0,0,0,.14-2.32V180a16.39,16.39,0,0,0-.14-2.59h2.65a16.68,16.68,0,0,0-.14,2.58v9.25h4.91a18.26,18.26,0,0,0,2.49-.12Z"/><path class="cls-2" d="M496.45,178.87a7.6,7.6,0,0,1,2,5.47c0,4.44-2.58,7.31-6.56,7.31s-6.54-2.86-6.54-7.31a7.49,7.49,0,0,1,2-5.47,6.09,6.09,0,0,1,4.52-1.75A6.18,6.18,0,0,1,496.45,178.87Zm-.5,5.47a5.66,5.66,0,0,0-1.38-4.08,3.74,3.74,0,0,0-2.7-1.07c-2.53,0-4.12,2-4.12,5.17a5.81,5.81,0,0,0,1.42,4.14,3.8,3.8,0,0,0,2.72,1.07C494.39,189.57,496,187.57,496,184.34Z"/><path class="cls-2" d="M502.56,191.35c-1,0-1.53,0-2.24.06a12.92,12.92,0,0,0,.15-2.37v-9.52a16.33,16.33,0,0,0-.14-2.16c.74,0,1,0,2.21,0h4.14c2.72,0,4.24,1.23,4.24,3.42a3.11,3.11,0,0,1-1,2.47,2.92,2.92,0,0,1-1.38.74,3.21,3.21,0,0,1,1.77.8,3.47,3.47,0,0,1,1.08,2.68c0,2.46-1.63,3.84-4.54,3.84Zm3.88-8.24a1.86,1.86,0,0,0,2.12-1.91,1.77,1.77,0,0,0-.46-1.29,2.43,2.43,0,0,0-1.68-.55h-3.63v3.75Zm-3.65,6.26h3.77c1.56,0,2.44-.77,2.44-2.19a1.88,1.88,0,0,0-.57-1.52,2.82,2.82,0,0,0-1.91-.6h-3.73Z"/><path class="cls-2" d="M523.34,191.48a14.55,14.55,0,0,0-2.26-.13h-5.47c-1.05,0-1.52,0-2.22.06a14.82,14.82,0,0,0,.14-2.32v-9.48a16.23,16.23,0,0,0-.14-2.26c.7,0,1.15.05,2.22.05h5.3a20.56,20.56,0,0,0,2.26-.12v2.31a15.47,15.47,0,0,0-2.26-.12h-5v3.61h4.26a19.89,19.89,0,0,0,2.28-.12v2.29a14.38,14.38,0,0,0-2.28-.12h-4.28v4.14h5.26a16.19,16.19,0,0,0,2.24-.13Z"/><path class="cls-2" d="M527,185.25c.76-.52,1.51-1.38,3.82-4.29a5.71,5.71,0,0,1,1.09-1.11,2.39,2.39,0,0,1,1.4-.52,2.47,2.47,0,0,1,1.58.66,11.93,11.93,0,0,1,1.18,1.27,54.92,54.92,0,0,0,5.24,5.36,10.77,10.77,0,0,0,1.91,1.47l-1.07,2.49a4.07,4.07,0,0,0-.51-.51c-.91-.8-2.3-2.12-3.58-3.4s-1.36-1.42-3.24-3.56c-1.09-1.24-1.19-1.33-1.53-1.33s-.45.16-1,.95A48.23,48.23,0,0,1,528.8,187a3,3,0,0,0-.37.47Z"/><path class="cls-2" d="M546.68,185.55v-9.27h5.25v1.91h-3.16v7.36Z"/><path class="cls-2" d="M560.24,178a8.52,8.52,0,0,0-.11-1.55h2.23a8.61,8.61,0,0,0-.09,1.55v.68H567a17.27,17.27,0,0,0,2.14-.1v2a16.81,16.81,0,0,0-2.12-.1h-4.72v2.24h2.35a7.76,7.76,0,0,0,1.49-.08l1.16,1.17c-.19.23-.47.63-.82,1.14a16.57,16.57,0,0,1-3.27,3.58,18,18,0,0,0,6.3,2,7.15,7.15,0,0,0-1,2,19.25,19.25,0,0,1-7-2.84,19.36,19.36,0,0,1-7.13,2.77,8.23,8.23,0,0,0-1-1.88,19,19,0,0,0,6.51-2.07,12.07,12.07,0,0,1-3.33-4.14c-.83,0-1.14.06-1.65.11v-1.91a16.6,16.6,0,0,0,2.12.1h3.21v-2.24h-4.45a17.09,17.09,0,0,0-2.13.1v-2a17.6,17.6,0,0,0,2.14.1h4.44Zm-1.56,6.41a9.28,9.28,0,0,0,2.87,3.07,10.13,10.13,0,0,0,2.86-3.07Z"/><path class="cls-2" d="M576.19,179.75a10.52,10.52,0,0,0,1.28-.07v1.82a11.6,11.6,0,0,0-1.28-.07h-.83v2.72c.63-.19.93-.3,2-.67l0,1.7c-.44.16-1.12.41-2.07.72v4.95c0,1.28-.58,1.66-2.44,1.66-.36,0-.78,0-1.38,0a6.28,6.28,0,0,0-.4-1.89,13.09,13.09,0,0,0,1.82.14c.42,0,.53-.11.53-.51v-3.69c-.32.11-.53.16-1.25.37a7.35,7.35,0,0,0-1,.3l-.36-2a14.21,14.21,0,0,0,2.56-.53v-3.24h-1a11.77,11.77,0,0,0-1.35.09v-1.88a8.42,8.42,0,0,0,1.36.11h1v-1.44a10.18,10.18,0,0,0-.11-1.79h2.09a12.07,12.07,0,0,0-.11,1.77v1.46Zm8.88,12.67c-.19-.77-.24-1-.42-1.63-2.36.48-3.89.74-6.36,1.07a18.27,18.27,0,0,0-1.89.32L576,190a1.47,1.47,0,0,0,.28,0l1-.07c1.5-4.56,2.82-10.57,2.89-13.29l2.24.35c-.09.4-.17.82-.94,4.59-.51,2.49-1.48,6.3-2.11,8.17,2.35-.26,2.91-.35,4.72-.68a33.74,33.74,0,0,0-2-4.84l1.7-.7a50.76,50.76,0,0,1,3.19,8.05Z"/><path class="cls-2" d="M595.27,177.91a6.94,6.94,0,0,0-.12-1.46h2.26a8,8,0,0,0-.1,1.46V179h4.82a14.35,14.35,0,0,0,2.21-.13V181a15.93,15.93,0,0,0-2.14-.1h-6.42c-.08,1.31-.08,1.37-.14,1.89h4.86a11.19,11.19,0,0,0,1.8-.08.72.72,0,0,1,0,.17,12,12,0,0,0-.07,1.23,34.3,34.3,0,0,1-.6,6.15c-.4,1.67-1,2.11-2.73,2.11-.62,0-1,0-2.37-.13a5.67,5.67,0,0,0-.51-2,16.43,16.43,0,0,0,2.63.23c.77,0,1-.2,1.18-1.4a26,26,0,0,0,.38-4.41h-4.84c-.73,3.53-2.31,5.77-5.63,8a4.74,4.74,0,0,0-1.42-1.67,11.25,11.25,0,0,0,3.14-2.59c1.51-1.81,2.11-3.84,2.19-7.42h-2.87a19.1,19.1,0,0,0-2.19.1v-2.12a15.05,15.05,0,0,0,2.19.13h4.5Z"/><path class="cls-2" d="M606.56,180.78a22.2,22.2,0,0,1,3.14,2.14l-1.1,1.6a18,18,0,0,0-3.12-2.34Zm3.13,6c-.62,1.61-1,2.54-1.71,4-.31.64-.31.64-.54,1.19a3.11,3.11,0,0,1-.21.44l-1.68-1.48a21,21,0,0,0,2.57-5.26Zm-2.27-10.28a19.1,19.1,0,0,1,3,2.25l-1.19,1.52a19.07,19.07,0,0,0-3-2.42Zm2.23,13.5c.28,0,.42,0,.6,0s.7,0,1.29-.05a26.21,26.21,0,0,0,2.18-4.84h-1.9a15.16,15.16,0,0,0-1.89.11v-2a13.73,13.73,0,0,0,1.91.11h2.74v-2.63h-2.11a17.17,17.17,0,0,0-1.84.09v-1.93a12.8,12.8,0,0,0,1.86.1h2.09v-.77a9.11,9.11,0,0,0-.11-1.84h2.12a11,11,0,0,0-.1,1.84V179h2.8a12.76,12.76,0,0,0,1.79-.1v1.93a10.71,10.71,0,0,0-1.77-.09h-2.82v2.63h3.36a14,14,0,0,0,1.85-.11v2a13.83,13.83,0,0,0-1.83-.11h-4.12c-.1.32-.1.32-.35,1a35.56,35.56,0,0,1-1.54,3.41l-.16.33a41.21,41.21,0,0,0,4.66-.58,22.55,22.55,0,0,0-1.71-2.49l1.56-.81a38.94,38.94,0,0,1,3.54,5.4l-1.72,1c-.4-.81-.53-1.07-.81-1.61a59.77,59.77,0,0,1-6.34.91A27.43,27.43,0,0,0,610,192Z"/><path class="cls-2" d="M624.07,178.54a21,21,0,0,0,4.07.23,7.08,7.08,0,0,0,.7-2.18l2.3.25a10.5,10.5,0,0,0-.7,1.58c-.09.19-.13.24-.16.31.14,0,.14,0,1.1-.07a22.77,22.77,0,0,0,4.6-.6l.12,2-1.39.14c-1.28.16-3.5.3-5.27.35a9,9,0,0,1-1.62,2.34l0,0,.35-.26a4.25,4.25,0,0,1,2.47-.79,2.31,2.31,0,0,1,2.51,1.86c1.35-.49,2.24-.81,2.68-.95a5.67,5.67,0,0,0,1.3-.52l.82,2a15.89,15.89,0,0,0-1.94.47c-.25.07-1.12.37-2.63.9v.19c0,.46,0,.46,0,.7v.7c0,.3,0,.46,0,.58a8.28,8.28,0,0,0,.05.93l-2,0a13.92,13.92,0,0,0,.1-2v-.42a10.64,10.64,0,0,0-1.68.91,1.86,1.86,0,0,0-.91,1.44c0,.91.84,1.28,3,1.28a15,15,0,0,0,5.15-.74l.18,2.26a5.52,5.52,0,0,0-.81.07,30.62,30.62,0,0,1-4.48.32,7.47,7.47,0,0,1-3.91-.74,2.52,2.52,0,0,1-1.28-2.26,2.77,2.77,0,0,1,.77-1.94,8.58,8.58,0,0,1,3.77-2.48,1,1,0,0,0-1.07-.94,5.93,5.93,0,0,0-3.6,1.8,8.13,8.13,0,0,0-1.52,1.6l-1.6-1.58a10.28,10.28,0,0,0,1.58-1.56,23.46,23.46,0,0,0,2.1-3,.92.92,0,0,1,.14-.23l-.29,0-2.21,0-.49,0a1.63,1.63,0,0,0-.28,0Z"/><path class="cls-2" d="M655.42,179.61a2.12,2.12,0,0,0-.32.37,19.31,19.31,0,0,1-1.54,1.63,17.83,17.83,0,0,0,2.67,1.24,5.82,5.82,0,0,0-.92,1.75,16.81,16.81,0,0,1-4.24-2.54v1a6,6,0,0,0-1.17-.07H646a5.85,5.85,0,0,0-1.1.07V182a19,19,0,0,1-4.37,2.71,5.71,5.71,0,0,0-.94-1.66,14.68,14.68,0,0,0,3.29-1.74,15.12,15.12,0,0,0-2.35-2.05l1.3-1.16a22.2,22.2,0,0,1,2.45,2.14,8.84,8.84,0,0,0,1.67-1.77h-2.32a8.07,8.07,0,0,0-1.06.07v-1.77a7.72,7.72,0,0,0,1.45.09h3.3a10,10,0,0,0,1.5-.07,4.41,4.41,0,0,0,1.18,2,9.47,9.47,0,0,0,1.47-1.89l1.46,1a18.74,18.74,0,0,1-1.81,2,11.85,11.85,0,0,0,1.09.87,9.84,9.84,0,0,0,1.73-2.06Zm-10.7,10.83A6.73,6.73,0,0,0,644,189l1.54-.56h-1.88c-.58,0-.94,0-1.26,0a10.52,10.52,0,0,0,.07-1.28V185a9.07,9.07,0,0,0-.07-1.19,9.62,9.62,0,0,0,1.38.07h8.28a8.93,8.93,0,0,0,1.37-.07,6.93,6.93,0,0,0-.07,1.18v2.22a7.64,7.64,0,0,0,.07,1.28c-.34,0-.69,0-1.26,0h-1.71l1.46.53c-.28.52-.68,1.28-.81,1.45h3a10.06,10.06,0,0,0,1.72-.09v1.9a12.8,12.8,0,0,0-1.82-.09H641.88a12.89,12.89,0,0,0-1.82.09v-1.9a9.87,9.87,0,0,0,1.7.09Zm-.43-3.56h7.22v-1.42h-7.22Zm5.62-5.41h.44a15.51,15.51,0,0,1-2.42-2.76,14,14,0,0,1-2.42,2.76h4.4Zm-.68,9a10,10,0,0,0,.89-2h-4.38a14.56,14.56,0,0,1,.88,2Z"/><path class="cls-2" d="M659.8,182.27a9,9,0,0,0-1,.06v-.93c-.33.29-.44.38-.81.68a5.17,5.17,0,0,0-.8-1.67,8.06,8.06,0,0,0,3-3.78h1.93a6.9,6.9,0,0,0,2.56,2.94,6.36,6.36,0,0,0-1.07,1.56l-.14-.12v1.32a5.44,5.44,0,0,0-1-.06h-.5v1.18h.7a8.38,8.38,0,0,0,1.24-.07v-1.46a11.23,11.23,0,0,0,1.68.11H670c0-.53,0-.7.07-1h-3.47a12.77,12.77,0,0,0-1.6.07v-1.67a9.11,9.11,0,0,0,1.6.09h3.54c0-.44,0-.49,0-1h-3.92a12.45,12.45,0,0,0-1.67.07v-1.69a11.82,11.82,0,0,0,1.75.09h4.12a13.68,13.68,0,0,0,1.62-.07,17,17,0,0,0-.11,1.7c-.05.91-.14,2.46-.21,3.37h.11a10.76,10.76,0,0,0,1.68-.11v1.74a13.32,13.32,0,0,0-1.67-.09h-2.35a8.25,8.25,0,0,0,.85,2.59,8.4,8.4,0,0,0,1.7-2.1l1.44,1a20.16,20.16,0,0,1-2.34,2.49,8.63,8.63,0,0,0,2.7,2.52,7.47,7.47,0,0,0-1,1.72,10.78,10.78,0,0,1-2.14-2.26,9.7,9.7,0,0,1-1.33-2.72c0,.35.07,1,.1,1.95V191c0,1.18-.5,1.6-1.92,1.6-.39,0-.86,0-1.55-.07a4.92,4.92,0,0,0-.4-1.77A7,7,0,0,0,667,191c.65,0,.77-.07.77-.45v-1.67a15.31,15.31,0,0,1-1.25,1l-1.49,1-.57.4-.57-1.25v.71a39.65,39.65,0,0,1-4.69,1.24,10.21,10.21,0,0,0-1.39.32l-.26-1.93a13,13,0,0,0,2.73-.37v-4.91h-.91a15,15,0,0,0-1.72.09v-1.79a15.5,15.5,0,0,0,1.74.09h.89v-1.18Zm-1.36,7.26a17.86,17.86,0,0,0-.74-3.42l1.37-.42a18.9,18.9,0,0,1,.77,3.4Zm1.4-8.84h3.26a10.52,10.52,0,0,1-1.86-2.47,10.38,10.38,0,0,1-1.75,2.48Zm5.71,2.88a13.12,13.12,0,0,0-1.56.07v1.51a7.06,7.06,0,0,0-1.36-.09h-.7v4.56c.66-.16,1-.26,1.91-.54v.36a18.65,18.65,0,0,0,3.89-2.54v-3.33Zm-3.41,4.89a13.9,13.9,0,0,0,.7-2.86l1.33.44a17.14,17.14,0,0,1-.84,2.81Zm3.56-4.4a11.6,11.6,0,0,1,1.52,2.61l-1.35.9a11.83,11.83,0,0,0-1.54-2.79Z"/><path class="cls-2" d="M680.09,183.41v9.28h-5.24v-1.91H678v-7.37Z"/><path class="cls-2" d="M684.92,178.54a20.82,20.82,0,0,0,4.06.23,6.81,6.81,0,0,0,.7-2.18l2.3.25a10.5,10.5,0,0,0-.7,1.58c-.09.19-.12.24-.16.31.14,0,.14,0,1.11-.07a22.65,22.65,0,0,0,4.59-.6l.12,2-1.38.14c-1.28.16-3.51.3-5.28.35a9.22,9.22,0,0,1-1.61,2.34l0,0,.34-.26a4.26,4.26,0,0,1,2.48-.79,2.3,2.3,0,0,1,2.5,1.86c1.35-.49,2.25-.81,2.69-.95a5.72,5.72,0,0,0,1.29-.52l.83,2a15.94,15.94,0,0,0-2,.47c-.24.07-1.12.37-2.63.9v.19c0,.46,0,.46,0,.7v.7c0,.3,0,.46,0,.58a8.28,8.28,0,0,0,0,.93l-2,0a13.56,13.56,0,0,0,.11-2v-.42a10.86,10.86,0,0,0-1.69.91,1.86,1.86,0,0,0-.91,1.44c0,.91.84,1.28,3,1.28a15.09,15.09,0,0,0,5.16-.74l.17,2.26a5.51,5.51,0,0,0-.8.07,30.77,30.77,0,0,1-4.49.32,7.47,7.47,0,0,1-3.91-.74,2.52,2.52,0,0,1-1.28-2.26,2.77,2.77,0,0,1,.77-1.94,8.58,8.58,0,0,1,3.77-2.48,1,1,0,0,0-1.07-.94,5.91,5.91,0,0,0-3.59,1.8,8.22,8.22,0,0,0-1.53,1.6l-1.59-1.58a10.76,10.76,0,0,0,1.57-1.56,22.64,22.64,0,0,0,2.11-3,.92.92,0,0,1,.14-.23l-.3,0-2.21,0-.49,0a1.69,1.69,0,0,0-.28,0Z"/><path class="cls-2" d="M704.68,177.17a15.44,15.44,0,0,0-.21,2.37c-.07,1.63-.18,5.19-.18,6.43,0,1.67.11,2.3.46,2.82a2.76,2.76,0,0,0,2.35.92,4.51,4.51,0,0,0,4.24-3,11.89,11.89,0,0,0,.81-3,7.37,7.37,0,0,0,2.12,1.35,10.72,10.72,0,0,1-2.09,4.47,6.63,6.63,0,0,1-5.26,2.23,5.74,5.74,0,0,1-3.07-.77c-1.21-.81-1.71-2.16-1.71-4.51,0-.91,0-2.66.14-7.06,0-.53,0-.9,0-1.14a7.62,7.62,0,0,0-.07-1.19Z"/><path class="cls-2" d="M715,179l.66,0c.32,0,.32,0,2.9-.18,1-.05,3.89-.21,8.75-.44a10.79,10.79,0,0,0,2-.17l.12,2.24-.36,0a7.83,7.83,0,0,0-3.48,1c-2.22,1.16-3.54,2.91-3.54,4.68a3,3,0,0,0,2.34,2.86,10.73,10.73,0,0,0,2.61.46l.35,0-.32,2.38a3.58,3.58,0,0,0-.59-.1,10.59,10.59,0,0,1-4.11-1.16,4.69,4.69,0,0,1-2.5-4.23,6.15,6.15,0,0,1,1.66-4.13,7.8,7.8,0,0,1,2.44-1.76c-1.42.21-2.11.27-5.91.55a23.91,23.91,0,0,0-2.91.35Z"/><path class="cls-2" d="M734.32,178.26a19.88,19.88,0,0,0-.14,2.66,33.24,33.24,0,0,0,.33,4.7c.3,1.82.86,2.95,1.42,2.95.26,0,.51-.27.72-.76a13.22,13.22,0,0,0,.93-3.17,8.5,8.5,0,0,0,1.75,1.59c-.91,3.42-1.93,4.84-3.42,4.84-1.17,0-2.12-.86-2.82-2.54s-1-4.29-1.11-9.15a6.4,6.4,0,0,0-.07-1.12Zm8.29.79a17.44,17.44,0,0,1,3.94,9.43l-2.17.82a17.62,17.62,0,0,0-1.12-5.06,15.46,15.46,0,0,0-2.49-4.32Z"/><path class="cls-2" d="M761.14,191.34a11.85,11.85,0,0,0-3.24-2.41,6.86,6.86,0,0,0-.95-.43v.19a2.74,2.74,0,0,1-1,2.37,4.7,4.7,0,0,1-2.89.75c-2.56,0-4-1-4-2.73,0-1.92,1.73-3,4.68-3a9.52,9.52,0,0,1,1.17.07,3,3,0,0,0,0-.42v-.38c0-.25,0-.25,0-.95l-1.75,0c-1.07,0-1.72,0-3.18-.12-.22,0-.4,0-.66,0l0-1.89a22.22,22.22,0,0,0,4.09.3l1.43,0c0-.15,0-.75,0-1.75l-1.11,0c-.86,0-3.12-.09-4.29-.18l-.39,0h-.28l0-1.94a22.82,22.82,0,0,0,4.71.37l1.32,0a12.72,12.72,0,0,0-.09-2.21h2.23a10.21,10.21,0,0,0-.12,2.14,24.16,24.16,0,0,0,5.05-.66l.08,1.94a11.92,11.92,0,0,0-1.38.16c-1.54.21-2.23.26-3.77.35,0,.44,0,.65,0,1.74.88-.06.88-.06,2.49-.23a12.94,12.94,0,0,0,2.18-.39l0,1.93c-.3,0-.74.07-1.14.12s-1,.13-2.37.25l-1.19.07c0,1.7,0,1.7.07,2.12a15.8,15.8,0,0,1,4.8,2.47c.3.2.39.26.64.41Zm-7.66-3.56c-1.42,0-2.28.45-2.28,1.21s.76,1,2,1a1.83,1.83,0,0,0,1.53-.56,2.24,2.24,0,0,0,.21-1.12v-.42A5.83,5.83,0,0,0,753.48,187.78Z"/><path class="cls-2" d="M774.46,183.32c0,.07,0,.21,0,.43a5.25,5.25,0,0,1,.56,2.47,5.61,5.61,0,0,1-2.61,4.73,12.19,12.19,0,0,1-3.17,1.44,5.68,5.68,0,0,0-1.25-2,8.23,8.23,0,0,0,3-1,3.68,3.68,0,0,0,2-2.56,2.89,2.89,0,0,1-2.58,1.25,3.2,3.2,0,0,1-2-.64,2.72,2.72,0,0,1-1.22-2.36,3.23,3.23,0,0,1,3.5-3.19,3,3,0,0,1,1.82.52.59.59,0,0,1,0-.21s0-1,0-1.49c-2.5.07-4.15.13-4.92.18-2.65.19-2.65.19-3.12.26l-.08-2.09a6.79,6.79,0,0,0,.86,0c.44,0,.72,0,3-.09l2.76-.07,1.49-.05a9.24,9.24,0,0,0-.11-2.12l2.21,0a14,14,0,0,0-.09,2.09c3.06,0,4.42-.06,5.07-.13l0,2c-.65,0-1.49-.09-2.95-.09-.42,0-.73,0-2.12,0v1.14Zm-3.57.18a1.53,1.53,0,0,0-1.63,1.4,1.38,1.38,0,0,0,1.49,1.39,1.59,1.59,0,0,0,1.71-1.58C772.46,184,771.85,183.5,770.89,183.5Z"/><path class="cls-2" d="M787.93,177a3.53,3.53,0,0,0-.14.54c0,.23,0,.31-.11.6s0,.36-.29,1.68c-.07.38-.07.42-.13.65.51,0,.76-.06,1.09-.06a3.42,3.42,0,0,1,2.6.93,4.3,4.3,0,0,1,.82,3.11c0,3-.51,5.41-1.35,6.38a2.22,2.22,0,0,1-1.95.79,8.52,8.52,0,0,1-2.7-.51c0-.35,0-.6,0-.77a6.6,6.6,0,0,0-.18-1.49,7.29,7.29,0,0,0,2.56.68c.51,0,.79-.33,1-1.19a15.16,15.16,0,0,0,.46-4c0-1.61-.4-2.08-1.79-2.08a9.38,9.38,0,0,0-1,.05,35.19,35.19,0,0,1-3.17,8.73c-.09.17-.09.17-.26.52a3.27,3.27,0,0,1-.14.3l-2-1.12a18.83,18.83,0,0,0,1.83-3.3,29.6,29.6,0,0,0,1.7-5c-.9.11-2.56.41-3.14.56l-.21-2.07c.65,0,2.77-.21,3.74-.35a27.49,27.49,0,0,0,.45-3.54v-.33Zm5.8,2.24a17,17,0,0,1,3.62,6.84l-2,1a16.08,16.08,0,0,0-1.41-4,11.41,11.41,0,0,0-2-3Z"/><path class="cls-2" d="M802.76,187.6a7.25,7.25,0,0,0,0-.73l0-.34a3.48,3.48,0,0,1,.73-2.28,5.74,5.74,0,0,1,1.64-1.31c1.14-.76,1.54-1.3,1.54-2.1,0-1.08-.92-1.74-2.41-1.74a2.46,2.46,0,0,0-2.11,1,2.58,2.58,0,0,0-.42,1.33l-2.59-.31a4.45,4.45,0,0,1,1.38-2.65,5.68,5.68,0,0,1,3.88-1.23,5.49,5.49,0,0,1,3.52,1,3,3,0,0,1,1.25,2.46,3.31,3.31,0,0,1-.62,2.07,7,7,0,0,1-2.15,1.8c-1.09.74-1.37,1.16-1.37,2.09a7.13,7.13,0,0,0,.05.89Zm2.44,1.46v2.4h-2.54v-2.4Z"/><line class="cls-6" x1="182.92" y1="78.61" x2="182.92" y2="270.4"/><polygon class="cls-7" points="198.89 268.26 166.94 268.26 182.91 284.23 198.89 268.26"/><line class="cls-8" x1="492.3" y1="76.1" x2="492.3" y2="126.28"/><polygon class="cls-9" points="508.28 124.13 476.32 124.13 492.3 140.11 508.28 124.13"/><path class="cls-7" d="M212.61,163.47a11,11,0,0,0-.58,2,36.53,36.53,0,0,0-.95,7.7l1.53.52a18,18,0,0,0-.84,6.06c0,.09,0,.35.06.79l-3.35.14c0-.36,0-.36-.16-1.57a38.59,38.59,0,0,1-.44-6,39.39,39.39,0,0,1,.8-8,12.38,12.38,0,0,0,.24-1.72v-.1Zm.71,3.23A17.67,17.67,0,0,0,217,167c.42,0,.76,0,1.43,0v-2.58a5.32,5.32,0,0,0-.1-1.11l3.44,0a23,23,0,0,0-.16,3.47,19.72,19.72,0,0,0,3.16-.61l.12,3.15a5.42,5.42,0,0,0-.74.12c-.61.14-1.51.26-2.5.38,0,1.55,0,1.94.18,4.23a16.12,16.12,0,0,1,3.2,1.8,2,2,0,0,0,.37.24l-1.25,3.38a10,10,0,0,0-2.36-1.89v.16c0,1.69-1.73,2.82-4.27,2.82-2.92,0-4.64-1.39-4.64-3.69a3.5,3.5,0,0,1,1.5-2.92,5.25,5.25,0,0,1,3.06-.82,5.69,5.69,0,0,1,1.15.12c0-.55,0-.65-.06-1.59,0-.67,0-.95,0-1.64-.45,0-.73,0-1.13,0-.59,0-1.74,0-3.41-.1l-.46,0h-.24Zm5.36,9.45a3.13,3.13,0,0,0-1.21-.24c-.91,0-1.47.36-1.47.92s.52.85,1.31.85c1,0,1.39-.36,1.39-1.15Z"/><path class="cls-7" d="M232.45,164.38a24.49,24.49,0,0,0-.22,3.59c0,4.45.64,7.8,1.47,7.8.22,0,.44-.25.64-.77a20,20,0,0,0,1-3.43,12.71,12.71,0,0,0,2.76,2.5,16.62,16.62,0,0,1-1.51,3.83,3.49,3.49,0,0,1-3,2,3.41,3.41,0,0,1-2.84-1.7c-1-1.47-1.56-3.46-1.82-6.61-.1-1.39-.18-3.06-.22-5.82a13.82,13.82,0,0,0-.08-1.41Zm9.15.71a21,21,0,0,1,4.59,11.56L242.64,178a19.8,19.8,0,0,0-4-11.48Z"/><path class="cls-9" d="M519.91,96.35a24.49,24.49,0,0,0-.22,3.59c0,4.45.64,7.8,1.47,7.8.22,0,.44-.26.64-.77a21,21,0,0,0,1-3.44,12.23,12.23,0,0,0,2.76,2.5,16.89,16.89,0,0,1-1.51,3.84,3.5,3.5,0,0,1-3,2,3.4,3.4,0,0,1-2.84-1.71c-1-1.46-1.57-3.45-1.82-6.61-.1-1.39-.18-3-.22-5.81a13.65,13.65,0,0,0-.08-1.41Zm9.15.71a21,21,0,0,1,4.59,11.56l-3.56,1.31A19.66,19.66,0,0,0,526,98.45Z"/><path class="cls-9" d="M539.83,96.35a26.21,26.21,0,0,0-.21,3.59c0,4.45.63,7.8,1.46,7.8.22,0,.44-.26.64-.77a20.07,20.07,0,0,0,1-3.44,12.45,12.45,0,0,0,2.76,2.5,16.44,16.44,0,0,1-1.51,3.84,3.47,3.47,0,0,1-3,2,3.37,3.37,0,0,1-2.84-1.71c-1-1.46-1.57-3.45-1.83-6.61-.1-1.39-.18-3-.22-5.81a13.65,13.65,0,0,0-.08-1.41Zm9.16.71a21,21,0,0,1,4.58,11.56L550,109.93a19.8,19.8,0,0,0-4-11.48Z"/><path class="cls-9" d="M557.54,100.1c.55,0,.77.06,1.19.06a69.39,69.39,0,0,0,7.46-.46,7.76,7.76,0,0,0,1.85-.32l1.78,2.31a10.92,10.92,0,0,0-1.64,1.35c-.8.71-2.7,2.36-3.14,2.7a2.09,2.09,0,0,1,.79-.14,2,2,0,0,1,1.67.77c.34.5.4.72.5,2.15.08,1,.34,1.29,1.11,1.29a11,11,0,0,0,4.11-.82l.34,3.46a16.39,16.39,0,0,0-1.87.2,18.51,18.51,0,0,1-3,.25c-1.76,0-2.76-.37-3.33-1.27a3.57,3.57,0,0,1-.46-2c0-.78-.1-1.07-.26-1.27a.86.86,0,0,0-.67-.26c-.82,0-1.67.58-3.24,2.14-1,1-1.88,2-2.6,2.84l-2.56-2.94a65,65,0,0,0,6.83-5.79c.89-.84,1.15-1.07,1.83-1.67-1.1.18-2.17.3-4.83.54-.71.06-1.11.12-1.67.19Zm2.58-5.36a32.38,32.38,0,0,0,8.65,1l-.49,3.1a43.1,43.1,0,0,1-9.1-1Z"/><line class="cls-6" x1="492.3" y1="223.75" x2="492.3" y2="273.93"/><polygon class="cls-7" points="508.28 271.79 476.32 271.79 492.3 287.76 508.28 271.79"/><path class="cls-7" d="M521,243.09a11,11,0,0,0-.58,2,36,36,0,0,0-1,7.71l1.53.51a18,18,0,0,0-.84,6.06c0,.1,0,.35.06.79l-3.35.14c0-.36,0-.36-.16-1.57a38.55,38.55,0,0,1-.44-6,39.26,39.26,0,0,1,.8-8,13.58,13.58,0,0,0,.23-1.73v-.1Zm.71,3.23a17.53,17.53,0,0,0,3.71.32c.42,0,.76,0,1.43,0V244a5.39,5.39,0,0,0-.1-1.11l3.44,0a23,23,0,0,0-.16,3.47,18.33,18.33,0,0,0,3.15-.61l.12,3.15a5.59,5.59,0,0,0-.73.12c-.62.14-1.51.26-2.5.38,0,1.55,0,2,.18,4.23a15.32,15.32,0,0,1,3.19,1.81l.38.23-1.25,3.38a10.18,10.18,0,0,0-2.36-1.89v.16c0,1.69-1.73,2.82-4.27,2.82-2.92,0-4.65-1.39-4.65-3.69a3.51,3.51,0,0,1,1.51-2.92,5.25,5.25,0,0,1,3.06-.81,5.74,5.74,0,0,1,1.15.11c0-.55,0-.65-.06-1.58,0-.68,0-1,0-1.65-.46,0-.73,0-1.13,0-.6,0-1.75,0-3.41-.1l-.46,0h-.24Zm5.36,9.45a3.17,3.17,0,0,0-1.21-.24c-.91,0-1.47.36-1.47.92s.52.85,1.31.85c1,0,1.39-.36,1.39-1.15Z"/><path class="cls-7" d="M540,244a24.49,24.49,0,0,0-.22,3.59c0,4.45.64,7.81,1.47,7.81q.33,0,.63-.78a20,20,0,0,0,1-3.43,12.4,12.4,0,0,0,2.75,2.5,16.63,16.63,0,0,1-1.5,3.83,3.5,3.5,0,0,1-3,2,3.39,3.39,0,0,1-2.84-1.7c-1-1.47-1.57-3.46-1.83-6.61-.1-1.39-.17-3.06-.22-5.82a11.63,11.63,0,0,0-.07-1.41Zm9.15.72a21,21,0,0,1,4.59,11.55l-3.56,1.31a19.8,19.8,0,0,0-4.05-11.48Z"/><line class="cls-8" x1="813.34" y1="223.75" x2="813.34" y2="273.93"/><polygon class="cls-9" points="829.32 271.79 797.36 271.79 813.34 287.76 829.32 271.79"/><path class="cls-9" d="M841,244a24.49,24.49,0,0,0-.22,3.59c0,4.45.64,7.81,1.47,7.81.22,0,.44-.26.64-.78a20.89,20.89,0,0,0,1-3.43,12.47,12.47,0,0,0,2.76,2.5,17.08,17.08,0,0,1-1.51,3.83,3.5,3.5,0,0,1-3,2,3.41,3.41,0,0,1-2.84-1.7c-1-1.47-1.57-3.46-1.82-6.61-.1-1.39-.18-3.06-.22-5.82a13.82,13.82,0,0,0-.08-1.41Zm9.15.72a21,21,0,0,1,4.59,11.55l-3.56,1.31a19.66,19.66,0,0,0-4-11.48Z"/><path class="cls-9" d="M860.87,244a26,26,0,0,0-.22,3.59c0,4.45.64,7.81,1.47,7.81.22,0,.44-.26.64-.78a20,20,0,0,0,1-3.43,12.47,12.47,0,0,0,2.76,2.5,16.62,16.62,0,0,1-1.51,3.83,3.47,3.47,0,0,1-3,2,3.38,3.38,0,0,1-2.84-1.7c-1-1.47-1.57-3.46-1.83-6.61-.1-1.39-.18-3.06-.22-5.82a13.82,13.82,0,0,0-.08-1.41Zm9.16.72a20.92,20.92,0,0,1,4.58,11.55l-3.55,1.31a19.8,19.8,0,0,0-4-11.48Z"/><path class="cls-9" d="M878.58,247.75c.55,0,.77.06,1.19.06a71.75,71.75,0,0,0,7.46-.45,7.76,7.76,0,0,0,1.85-.32l1.78,2.3a11.65,11.65,0,0,0-1.64,1.35c-.8.72-2.7,2.36-3.14,2.7a2.09,2.09,0,0,1,.79-.14,1.93,1.93,0,0,1,1.67.78c.34.49.4.71.5,2.14.08,1,.34,1.29,1.11,1.29a11.18,11.18,0,0,0,4.11-.81l.34,3.45a16.39,16.39,0,0,0-1.87.2,17.57,17.57,0,0,1-3,.26c-1.76,0-2.76-.38-3.33-1.27a3.64,3.64,0,0,1-.46-2.05c0-.77-.1-1.07-.26-1.27a.86.86,0,0,0-.67-.26c-.82,0-1.67.58-3.24,2.15a35.66,35.66,0,0,0-2.6,2.84l-2.56-2.94a65.6,65.6,0,0,0,6.83-5.8c.89-.83,1.15-1.07,1.83-1.67-1.1.18-2.17.3-4.83.54-.71.06-1.11.12-1.67.2Zm2.58-5.36a31.93,31.93,0,0,0,8.65,1l-.49,3.09a43.1,43.1,0,0,1-9.1-1Z"/><rect class="cls-9" x="385.37" y="295.93" width="215.27" height="75.8" rx="7.93"/><path class="cls-4" d="M426.31,318.67a9.49,9.49,0,0,0-1.21.19c-.85.13-1.31.2-2.09.29V321a11.53,11.53,0,0,1,3-.36,6.4,6.4,0,0,1,3.61.92,4.08,4.08,0,0,1,1.72,3.37,3.94,3.94,0,0,1-4.05,4.07c-2.06,0-3.2-1.36-3.2-3.81a2.71,2.71,0,0,1,0-.36,8.62,8.62,0,0,0,2.25-.92,5,5,0,0,0-.09.94c0,1.22.34,1.75,1.12,1.75a1.53,1.53,0,0,0,1.48-1.67c0-1.34-1.1-2.19-2.89-2.19a9.37,9.37,0,0,0-2.94.46v3.19c0,1.28,0,1.64-.29,2a1.85,1.85,0,0,1-1.57.7,5.72,5.72,0,0,1-3-1,2.86,2.86,0,0,1-1.43-2.35,3.84,3.84,0,0,1,1.52-2.69,9.52,9.52,0,0,1,2.5-1.46v-2.33l-1.53,0-1.07,0h-.72V317a11.51,11.51,0,0,0,2.14.15h.83a1.43,1.43,0,0,0,.34,0v-.85a12.51,12.51,0,0,0-.1-2.11h2.52a11.33,11.33,0,0,0-.1,2V317a18.33,18.33,0,0,0,3.2-.62Zm-5.58,5.27c-1,.51-1.74,1.23-1.74,1.79q0,.36.48.66a1.91,1.91,0,0,0,.94.33c.25,0,.32-.14.32-.7Zm9.48-3.59a15.23,15.23,0,0,0-3.39-3.82l1.87-1.33a14.42,14.42,0,0,1,3.41,3.66Z"/><path class="cls-4" d="M439.61,315.32a6.34,6.34,0,0,0-.1-1.5h2.59a7.86,7.86,0,0,0-.09,1.5v.53h4.32a17.37,17.37,0,0,0,2.22-.11V318a18,18,0,0,0-2.2-.1H442v1.94h2.28a7,7,0,0,0,1.43-.09l1.33,1.33c-.22.25-.48.61-.89,1.19a15.39,15.39,0,0,1-3.06,3.33,16.21,16.21,0,0,0,5.82,1.69,11.15,11.15,0,0,0-1.06,2.38,20.25,20.25,0,0,1-3.92-1.14,20.71,20.71,0,0,1-2.9-1.46,19.79,19.79,0,0,1-2.6,1.31,23,23,0,0,1-4.32,1.24,10.79,10.79,0,0,0-1.07-2.19,18.64,18.64,0,0,0,6.09-1.74,13.71,13.71,0,0,1-2.72-3.22l1.7-.66h-1.48a18.47,18.47,0,0,0-2.1.1v-2.18a17.65,17.65,0,0,0,2.16.11h2.91v-1.94h-4.08a18.11,18.11,0,0,0-2.18.1v-2.25a17.57,17.57,0,0,0,2.2.11h4.06Zm-1.08,6.48a8.58,8.58,0,0,0,2.62,2.65,10.49,10.49,0,0,0,2.58-2.65Z"/><path class="cls-4" d="M455.46,317a8.86,8.86,0,0,0,1.19-.07V319a10.08,10.08,0,0,0-1.19-.06h-.75v2.29c.82-.22,1-.27,1.88-.54l0,1.95c-.92.31-1,.34-1.91.62v4.54c0,1.38-.64,1.82-2.58,1.82-.36,0-.8,0-1.31-.05a7.92,7.92,0,0,0-.48-2.18,13.21,13.21,0,0,0,1.72.14c.39,0,.48-.1.48-.53v-3.11l-1,.27s-.38.1-1,.25l-.38-2.28a15.22,15.22,0,0,0,2.37-.37v-2.82h-.9a10.6,10.6,0,0,0-1.28.08v-2.13a11,11,0,0,0,1.29.09h.89v-1.29a10.21,10.21,0,0,0-.1-1.74h2.38a8.9,8.9,0,0,0-.11,1.72V317Zm8.24,12.54c-.19-.82-.26-1.07-.38-1.52-2.33.5-3.77.73-6.15,1.06-.77.1-1.14.17-1.52.25l-.41-2.45a.9.9,0,0,0,.21,0,7.92,7.92,0,0,0,1-.07,64,64,0,0,0,2.72-12.74l2.57.41c-.07.29-.07.29-1,4.61-.51,2.4-1.29,5.53-1.91,7.52,1.6-.17,2.16-.26,3.92-.58a30.91,30.91,0,0,0-1.82-4.59l2-.74a51,51,0,0,1,3,8Z"/><path class="cls-4" d="M469.45,315.51a20,20,0,0,0-.16,2.8c0,4.07.63,7.08,1.5,7.08.22,0,.43-.24.61-.7a14.25,14.25,0,0,0,.91-3,8.06,8.06,0,0,0,2,1.84c-.9,3.34-2,4.85-3.57,4.85-1.24,0-2.25-.9-3-2.67s-.94-3.9-1-9.05a6.73,6.73,0,0,0-.07-1.14Zm7.94.68a17.4,17.4,0,0,1,3.88,9.51l-2.57.95a17.66,17.66,0,0,0-1-5.09,15,15,0,0,0-2.46-4.35Z"/><path class="cls-4" d="M488.5,315.23a6.88,6.88,0,0,0-.12-1.38H491a8.33,8.33,0,0,0-.1,1.38v.92h4.43a15.09,15.09,0,0,0,2.24-.12v2.38a18.73,18.73,0,0,0-2.16-.1h-6.14c-.05.77-.09,1.14-.12,1.64H494a14.57,14.57,0,0,0,1.77-.07l0,.34c-.07.53-.12,1.22-.15,2a23.5,23.5,0,0,1-.65,5.43c-.41,1.4-1.09,1.82-2.86,1.82-.48,0-.88,0-2.23-.1a6.91,6.91,0,0,0-.58-2.33,15.88,15.88,0,0,0,2.5.22c.8,0,1-.22,1.19-1.33a24.62,24.62,0,0,0,.31-3.89h-4.44a11.89,11.89,0,0,1-1.46,3.72,12.25,12.25,0,0,1-3.95,3.9,6.4,6.4,0,0,0-1.62-1.92A9.92,9.92,0,0,0,485,325a8.86,8.86,0,0,0,1.71-4.67,17.32,17.32,0,0,0,.12-2h-2.46c-.85,0-1.59,0-2.23.1V316a15.91,15.91,0,0,0,2.23.12h4.15Z"/><path class="cls-4" d="M499.73,318.07a21.54,21.54,0,0,1,3.1,2.08L501.55,322a19,19,0,0,0-3.09-2.26Zm3,6a41.9,41.9,0,0,1-1.57,3.93c-.17.39-.3.66-.34.76-.27.62-.29.63-.39.86l-2-1.71a19.36,19.36,0,0,0,2.42-5.13Zm-2.3-10.16a19.25,19.25,0,0,1,3,2.16l-1.39,1.77a18.29,18.29,0,0,0-3-2.36Zm2.15,13c.27,0,.4,0,.57,0l1.16,0a22.41,22.41,0,0,0,1.92-4.31H504.8a18.45,18.45,0,0,0-1.92.1v-2.29a14.36,14.36,0,0,0,1.94.1h2.42v-2.23H505.4c-.7,0-1.29,0-1.87.09V316.1a13,13,0,0,0,1.89.1h1.82v-.52a11.44,11.44,0,0,0-.09-1.84h2.42a11.52,11.52,0,0,0-.09,1.84v.52H512a13.58,13.58,0,0,0,1.83-.1v2.25a12.2,12.2,0,0,0-1.82-.09h-2.5v2.23h3a14.92,14.92,0,0,0,1.88-.1v2.29a16.47,16.47,0,0,0-1.87-.1h-3.84a30.32,30.32,0,0,1-1.82,4.14c2.7-.26,2.7-.26,3.91-.46a21.78,21.78,0,0,0-1.46-2.18l1.85-.95a37.48,37.48,0,0,1,3.34,5.2l-2,1.21c-.34-.73-.44-1-.71-1.5a57.72,57.72,0,0,1-5.92.85,27.77,27.77,0,0,0-2.78.36Z"/><path class="cls-4" d="M520.28,322.46c-1,.84-1.53,1.55-1.53,2.22,0,1,1.17,1.42,3.83,1.42a18.31,18.31,0,0,0,5.53-.74l.18,2.79a11.51,11.51,0,0,0-1.53.15,27.31,27.31,0,0,1-3.84.27,13,13,0,0,1-4.48-.56,3,3,0,0,1-2.28-3c0-1.4.7-2.59,2.32-3.88Zm-3-7.33a25.58,25.58,0,0,0,5.49.43,23.12,23.12,0,0,0,4.46-.31l.09,2.25a31.17,31.17,0,0,0-4.65,2.91l-1.73-1.3c.59-.39,1.75-1.1,2.24-1.39a16.07,16.07,0,0,1-1.94.1,34.49,34.49,0,0,1-3.52-.2,2.53,2.53,0,0,0-.6-.06Zm8.88,3.76a8.5,8.5,0,0,1,1.51,2.14l-1.39.82a9.41,9.41,0,0,0-1.52-2.18Zm1.87-1a9.74,9.74,0,0,1,1.51,2.06l-1.36.8a10.32,10.32,0,0,0-1.48-2.11Z"/><path class="cls-4" d="M546.74,316.9l-.33.39a14.69,14.69,0,0,1-1.34,1.47,14.16,14.16,0,0,0,2.29,1,8.1,8.1,0,0,0-1,2.08,16.16,16.16,0,0,1-1.63-.78,9.41,9.41,0,0,0,0,1.05v2.28c0,.6,0,.92,0,1.26-.24,0-.24,0-1.16,0h-2.21l1.77.52-.37.72a4.63,4.63,0,0,1-.24.44h2.74a10.21,10.21,0,0,0,1.66-.09v2.17a12,12,0,0,0-1.82-.09H533.33a12.62,12.62,0,0,0-1.82.09v-2.17a10.35,10.35,0,0,0,1.67.09H536a6.35,6.35,0,0,0-.68-1.17l1.67-.51h-2.11c-.54,0-.92,0-1.17,0,0-.46,0-.71,0-1.26v-2.26c0-.41,0-.65,0-1-.53.29-.8.43-1.6.79a7.09,7.09,0,0,0-1-2,13.67,13.67,0,0,0,2.86-1.37,13.81,13.81,0,0,0-2.23-2l1.57-1.29c.46.36.61.48.87.7v-1.92a9.34,9.34,0,0,0,1.48.08h3.21a9.08,9.08,0,0,0,1.43-.07,3.71,3.71,0,0,0,1,1.72,7.77,7.77,0,0,0,1.29-1.67l1.71,1.06a17.13,17.13,0,0,1-1.65,1.87c.32.27.42.34.85.65a8.48,8.48,0,0,0,1.53-1.86Zm-10.45,2.54a18.26,18.26,0,0,1-2.35,1.58c.43,0,.61,0,1.09,0h8.46c.52,0,.78,0,1.14-.05a1.17,1.17,0,0,1-.24-.14,11.16,11.16,0,0,1-2.06-1.37v.85a6.89,6.89,0,0,0-1.05,0h-4a6.64,6.64,0,0,0-1,0ZM535.13,316a8.85,8.85,0,0,0-.93,0c.59.53,1,.89,1.44,1.35A7.23,7.23,0,0,0,537,316Zm.72,7.9h6.72V322.8h-6.72Zm5.34-5.33a13.17,13.17,0,0,1-1.92-2.16,14.38,14.38,0,0,1-1.93,2.16Zm-.9,8.78a10.82,10.82,0,0,0,.75-1.68h-3.68a9.3,9.3,0,0,1,.82,1.68Z"/><path class="cls-4" d="M550.61,319.61a7.92,7.92,0,0,0-1,.05v-.79a6.37,6.37,0,0,1-.74.62,6.28,6.28,0,0,0-.86-2A7.48,7.48,0,0,0,551,314h2.17a6.26,6.26,0,0,0,2.49,2.7,8.82,8.82,0,0,0-1.23,1.84l0-.05v1.16a5.34,5.34,0,0,0-1-.05h-.44v.93h.68a11.1,11.1,0,0,0,1.11-.05V319.2a14.36,14.36,0,0,0,1.63.08h4.1l0-.75h-3.19a12.69,12.69,0,0,0-1.59.07v-1.85a8.94,8.94,0,0,0,1.59.08h3.28c0-.07,0-.07,0-.13s0-.29,0-.53H557a13,13,0,0,0-1.6.07v-2a11.71,11.71,0,0,0,1.72.09h4.17a12.18,12.18,0,0,0,1.55-.07c0,.34,0,.34-.17,2.82,0,.41,0,1.14-.1,2.18a10.4,10.4,0,0,0,1.61-.08v2a14,14,0,0,0-1.65-.09h-2a9.13,9.13,0,0,0,.64,2,6.6,6.6,0,0,0,1.55-1.8l1.52,1.17a15.6,15.6,0,0,1-2.15,2.21,7.85,7.85,0,0,0,2.42,2.25,9.32,9.32,0,0,0-1.17,2,9.61,9.61,0,0,1-3.08-4.42c0,.42.08,1,.11,1.77V328c0,1.27-.49,1.68-2,1.68-.36,0-.79,0-1.47-.05a5.94,5.94,0,0,0-.47-2c-.31.22-.48.34-.94.63l-.83-1.94a16.62,16.62,0,0,0,3.74-2.3v-2.89h-2a11.89,11.89,0,0,0-1.51.07v1.27a8.42,8.42,0,0,0-1.25-.06h-.66v4.22c.75-.17.92-.21,1.6-.41l0,1.89a33.12,33.12,0,0,1-4.34,1,14.6,14.6,0,0,0-1.5.31l-.29-2.2A17.32,17.32,0,0,0,551,327V322.4h-.76a10.65,10.65,0,0,0-1.69.1v-2.06a11.14,11.14,0,0,0,1.7.1H551v-.93Zm-1.43,7a17.66,17.66,0,0,0-.7-3.25l1.46-.47a16.78,16.78,0,0,1,.75,3.23Zm4.22-8.78h.23a9.25,9.25,0,0,1-1.51-2,9.13,9.13,0,0,1-1.45,2Zm-.34,7.69a11.69,11.69,0,0,0,.64-2.67l1.41.46a13,13,0,0,1-.79,2.66Zm3.42-4.2a11.68,11.68,0,0,1,1.65,2.3l-1.53,1.12a9.19,9.19,0,0,0-1.62-2.43Zm1.85,4.75a19.89,19.89,0,0,1-1.92,1.51,7.24,7.24,0,0,0,1.22.14c.58,0,.7-.07.7-.43Z"/><path class="cls-4" d="M572.78,324.51c-.95,2.16-2.07,3.16-3.54,3.16-2.11,0-3.6-2.06-3.6-5a7.36,7.36,0,0,1,1.9-5.05,7.91,7.91,0,0,1,6-2.45c4.27,0,7,2.55,7,6.54a6.67,6.67,0,0,1-4.28,6.56,11.4,11.4,0,0,1-2.7.7,7.17,7.17,0,0,0-1.26-2.42,8.51,8.51,0,0,0,3.37-.81,4.68,4.68,0,0,0,2.35-4.19,4.14,4.14,0,0,0-1.82-3.55,3.35,3.35,0,0,0-1.59-.55A23.91,23.91,0,0,1,572.78,324.51Zm-2.7-6.16A5.54,5.54,0,0,0,568,322.7c0,1.28.54,2.32,1.2,2.32.5,0,1-.67,1.57-2a21.6,21.6,0,0,0,1.36-5.47A3.78,3.78,0,0,0,570.08,318.35Z"/><path class="cls-4" d="M449.66,352.9c-1,0-1.43,0-2.06,0a13.45,13.45,0,0,0,.12-2.12v-8.18a14.58,14.58,0,0,0-.12-2c.75,0,.92,0,2,0h3.75c2.39,0,3.75,1.09,3.75,3a2.7,2.7,0,0,1-.86,2.15,3,3,0,0,1-1.13.64,3.21,3.21,0,0,1,1.46.7,3,3,0,0,1,.95,2.35c0,2.17-1.43,3.38-4,3.38Zm3.41-7.38a1.39,1.39,0,0,0,1.58-1.42c0-.89-.56-1.37-1.6-1.37h-2.86v2.79Zm-2.88,5.28h3a1.57,1.57,0,0,0,1.8-1.64c0-1-.66-1.61-1.83-1.61h-3Z"/><path class="cls-4" d="M461.93,340.65a12.5,12.5,0,0,0-.12,2.08v8.09a12.81,12.81,0,0,0,.12,2.08h-2.77a13.05,13.05,0,0,0,.12-2.08v-8.09a12.66,12.66,0,0,0-.12-2.08Z"/><path class="cls-4" d="M471,348.26a10.1,10.1,0,0,0-1.52.07v-2.27a12.52,12.52,0,0,0,1.88.09h1a18.17,18.17,0,0,0,1.87-.08,12.79,12.79,0,0,0-.11,2v1.64a13.39,13.39,0,0,0,.11,2.08,8.36,8.36,0,0,1-2.44,1.09,9.94,9.94,0,0,1-2.41.31,5.73,5.73,0,0,1-4.52-1.81,7.33,7.33,0,0,1-1.44-4.65,6.06,6.06,0,0,1,2.89-5.6,6.19,6.19,0,0,1,3.11-.71,5.18,5.18,0,0,1,3.74,1.4,4.62,4.62,0,0,1,1.1,1.85l-2.55.64a2.14,2.14,0,0,0-.9-1.31,2.72,2.72,0,0,0-1.63-.41,3,3,0,0,0-2.12.84,4.69,4.69,0,0,0-1,3.32,5,5,0,0,0,1,3.34,3,3,0,0,0,2.41.93,4.45,4.45,0,0,0,2.36-.61v-2.11Z"/><path class="cls-4" d="M478.1,352.9c-.94,0-1.5,0-2.05,0a12.79,12.79,0,0,0,.12-2.09V343a16.48,16.48,0,0,0-.12-2.32h2.74a14.19,14.19,0,0,0-.12,2.29v7.73h4a16.6,16.6,0,0,0,2.23-.11V353a19.37,19.37,0,0,0-2.23-.1Z"/><path class="cls-4" d="M495.43,342a6.59,6.59,0,0,1,1.73,4.78c0,3.88-2.32,6.43-5.84,6.43s-5.84-2.52-5.84-6.42,2.29-6.35,5.84-6.35A5.52,5.52,0,0,1,495.43,342Zm-.86,4.79a4.6,4.6,0,0,0-1.11-3.34,3,3,0,0,0-2.14-.85c-2,0-3.27,1.62-3.27,4.16s1.27,4.26,3.28,4.26S494.57,349.37,494.57,346.75Z"/><path class="cls-4" d="M500.79,352.9c-1,0-1.43,0-2.06,0a13.45,13.45,0,0,0,.12-2.12v-8.18a14.58,14.58,0,0,0-.12-2c.75,0,.92,0,2,0h3.75c2.39,0,3.75,1.09,3.75,3a2.7,2.7,0,0,1-.86,2.15,3.14,3.14,0,0,1-1.13.64,3.21,3.21,0,0,1,1.46.7,3,3,0,0,1,.95,2.35c0,2.17-1.43,3.38-4,3.38Zm3.4-7.38a1.4,1.4,0,0,0,1.59-1.42c0-.89-.56-1.37-1.6-1.37h-2.86v2.79Zm-2.87,5.28h3c1.15,0,1.81-.6,1.81-1.64s-.66-1.61-1.84-1.61h-3Z"/><path class="cls-4" d="M519.26,353a15.87,15.87,0,0,0-2.09-.1h-4.82c-1,0-1.45,0-2.07,0a13,13,0,0,0,.12-2.09v-8.18a14.29,14.29,0,0,0-.12-2.06c.62,0,1,0,2.05,0H517a20.19,20.19,0,0,0,2.09-.1v2.38a14.92,14.92,0,0,0-2.09-.11h-4.11v2.7h3.43a17,17,0,0,0,2.11-.11v2.35a15,15,0,0,0-2.11-.11h-3.45v3.06h4.31a17.29,17.29,0,0,0,2.08-.1Z"/><path class="cls-4" d="M524.49,345a15.82,15.82,0,0,1-2.28,1.18,6.35,6.35,0,0,0-1-1.87,12.8,12.8,0,0,0,3.63-1.9,9.14,9.14,0,0,0,2.45-2.48h2.1a8.92,8.92,0,0,0,2.54,2.42,14.51,14.51,0,0,0,3.74,1.86,8.44,8.44,0,0,0-.94,2,14.11,14.11,0,0,1-2.41-1.23v1a13.75,13.75,0,0,0-1.4-.06h-5.1c-.47,0-.92,0-1.34.06Zm-.79,3.81a14.4,14.4,0,0,0-1.79.09v-2c.51.05,1.12.08,1.79.08h9.45a17.77,17.77,0,0,0,1.79-.08v2a14.63,14.63,0,0,0-1.79-.09h-5.09a18.48,18.48,0,0,1-1.45,2.67c3-.15,3-.15,4.31-.3-.48-.54-.72-.81-1.45-1.57l1.81-.75a32,32,0,0,1,3.42,4L532.94,354l-.8-1.23c-1.45.2-1.48.2-2.31.28s-5.15.46-5.72.49-1.31.12-1.66.18l-.25-2.15c.45,0,.67,0,1,0h1.07a19.32,19.32,0,0,0,1.48-2.78Zm7.35-4.65a11.82,11.82,0,0,1-2.66-2.5,11.68,11.68,0,0,1-2.65,2.5Z"/><path class="cls-4" d="M539.06,351.22c-.74,0-1.16,0-1.68.06a14,14,0,0,0,.07-1.58v-3.87a13.27,13.27,0,0,0-.07-1.61,15.81,15.81,0,0,0,1.68.06h8.22a16.28,16.28,0,0,0,1.67-.06,10.58,10.58,0,0,0-.06,1.61v3.87a10.9,10.9,0,0,0,.06,1.58c-.48,0-1-.06-1.67-.06h-1.13a12.76,12.76,0,0,0,4.25,1.1,7.88,7.88,0,0,0-1.06,1.72,12.58,12.58,0,0,1-5.21-2l.92-.85h-3.82l1,.89A14.12,14.12,0,0,1,537,354a6.2,6.2,0,0,0-1-1.74,12.51,12.51,0,0,0,4.21-1.07Zm9.29-8.61c0,.42,0,.78,0,1.13-.45,0-1,0-1.59,0h-7.22q-.95,0-1.62,0c0-.35.06-.72.06-1.13v-1.27a9.2,9.2,0,0,0-.08-1.17,16.41,16.41,0,0,0,1.72.06h7.06a16,16,0,0,0,1.69-.06,8.54,8.54,0,0,0-.06,1.17Zm-9,3.66H547v-.59h-7.62Zm0,1.75H547v-.59h-7.62Zm0,1.79H547v-.63h-7.62Zm.65-8.15v.71h6.34v-.71Z"/><path class="cls-10" d="M363.62,350.23a20.22,20.22,0,0,0,8.71,2.27,1,1,0,0,1,.53.14.85.85,0,0,1,.27.48c.62,2,.35,3.92.41,6a21,21,0,0,1,0,4.41q-.48,2.79-1.11,5.55a4,4,0,0,1-1.55,2.75,2.77,2.77,0,0,1-2.84-.33,11.51,11.51,0,0,1-2.1-2.14,53,53,0,0,0-4.88-4.71c-1.45-1.31-2.95-2.55-4.41-3.85q-1.12-1-2.19-2a17.09,17.09,0,0,1-1.64-2.21,10.86,10.86,0,0,1-2-6.29c0-1.07.1-1.44,1.08-1.86s1.94-1.24,3-1.67a19.21,19.21,0,0,1,3.3-1.2c.78-.15.71.29,1.18,1A11,11,0,0,0,360.6,348,13.9,13.9,0,0,0,363.62,350.23Z"/><rect class="cls-9" x="350.74" y="313.14" width="9.01" height="42.18" transform="translate(-74.37 103.28) rotate(-14.99)"/><path class="cls-11" d="M348.71,342.46a6.39,6.39,0,0,1-.15-2.3,5,5,0,0,1,3-3.23,6.6,6.6,0,0,1,5.18-.58c1.67.65,2.86,2.66,2.13,4.3-.2.44-.51.82-.7,1.26-.59,1.36.06,3-.6,4.37a4.82,4.82,0,0,1-2.08,1.83C350.44,351,349.55,346.78,348.71,342.46Z"/><path class="cls-12" d="M408.61,329.36a20.85,20.85,0,0,0-.52-5.05,18.21,18.21,0,0,0-2-5.06,9.72,9.72,0,0,0-4.15-3.93,4.32,4.32,0,0,0-1.52-.31,10.47,10.47,0,0,0-.92-1c-3.94-3.9-9.22-5.42-14.69-5.42a22.58,22.58,0,0,0-15,6,20.52,20.52,0,0,0-1.65,1.71,22.84,22.84,0,0,0-1.91,2.57,14,14,0,0,0-1.25,2.31,22.59,22.59,0,0,0-1.73,5c-1.47,9.64.81,22.11,9.36,26.91,4.08,2.29,12.4,4.23,12.4,4.23a103,103,0,0,0,10.53-3.15C405.75,350,408.58,337.61,408.61,329.36Z"/><path class="cls-10" d="M393.57,352.56H376.9a12.82,12.82,0,0,0-12.79,12.78V377h42.24V365.34A12.82,12.82,0,0,0,393.57,352.56Z"/><path class="cls-4" d="M376.54,353.86c-1.57.64-2,2.9-1,4.32a5.48,5.48,0,0,0,4.36,2.2c2.49.17,5.46-1.2,5.63-3.69l-9.37-2.22"/><path class="cls-4" d="M393.93,353.86c1.57.64,1.95,2.9,1,4.32a5.5,5.5,0,0,1-4.36,2.2c-2.49.17-5.46-1.2-5.63-3.69l9.37-2.22"/><path class="cls-12" d="M400.93,346.17c6.26-.48,7.26,7.94,4.88,11.92-1.12,1.84-2.28,2.31-4,3.37-.77.47-2.24.64-2.67,1.5a2.15,2.15,0,0,0-.16,1.93c.34.71-.35.67-1.14.36-1.15-.46-2.64-1.55-2.69-2.91,0-.94.57-1.36,1-2.11,1.16-2.08-1.46-4.44-1.41-6.63.07-2.69,3-4.32,5-5.46C401.07,347.38,402.5,346.76,400.93,346.17Z"/><ellipse class="cls-11" cx="385.23" cy="334.12" rx="20.26" ry="23.43"/><circle class="cls-11" cx="405.16" cy="339.68" r="5.08"/><path class="cls-12" d="M365,336.14c.53-1.18,3.29-2.78,4.34-3.43,1.8-1.11,7.59-2.78,9.67-3.16a34.24,34.24,0,0,1,11.79-.47c6.61.92,10,2.42,14.83,7,.15-2.42,1.19-4.71.68-7.11a41,41,0,0,0-1.24-5.46,10.67,10.67,0,0,0-2.6-4.39c-3.67-3.61-7.94-8.52-13.33-9-3.74-.31-7.64-.37-11.19.92-3.23,1.17-5.76,5.16-8.21,7.59-2.9,2.88-4.83,5.65-5.46,9.64C364,329.77,364,335,365,336.14Z"/><path class="cls-11" d="M374.32,331.79a52.9,52.9,0,0,1,3.55-7.22,62.69,62.69,0,0,0-1.05,7Z"/><path class="cls-11" d="M387.07,332.05a52.9,52.9,0,0,1,3.55-7.22,62.69,62.69,0,0,0-1.05,7Z"/><path class="cls-11" d="M379.93,331.57a71.3,71.3,0,0,1,4.76-9.7,84.53,84.53,0,0,0-1.41,9.35Z"/><circle class="cls-11" cx="365.29" cy="339.68" r="5.08"/><circle class="cls-13" cx="378.98" cy="337.05" r="2.02"/><circle class="cls-13" cx="391.28" cy="337.05" r="2.02"/><path class="cls-13" d="M385.19,346.83a4.17,4.17,0,0,0,3-1.23.75.75,0,0,0-1.06-1.06,2.69,2.69,0,0,1-3.8,0,.75.75,0,0,0-1.06,1.06A4.17,4.17,0,0,0,385.19,346.83Z"/><rect class="cls-14" x="317.31" y="289.31" width="57.04" height="40.11" transform="translate(-68.26 100) rotate(-14.99)"/><path class="cls-9" d="M343.9,321.91c-1.59.42-2.38.66-3.49,1a20.7,20.7,0,0,0-.75-3.78l-4-14.92a27,27,0,0,0-1.12-3.33c1.17-.25,1.61-.37,3.48-.87l6.48-1.73c4.26-1.15,7.17.14,8.09,3.57a5.08,5.08,0,0,1-.5,4.29,4.86,4.86,0,0,1-1.86,1.74,5.13,5.13,0,0,1,3.11.52,5.57,5.57,0,0,1,2.83,3.75c1,3.85-.94,6.7-5.5,7.93Zm2.62-14.55c2.09-.56,3-2,2.52-3.89a2.86,2.86,0,0,0-1.26-1.84,4,4,0,0,0-2.86-.15L339.23,303l1.57,5.88Zm-3.09,11.34,5.91-1.58c2.45-.65,3.5-2.23,2.9-4.46a3,3,0,0,0-1.52-2.15,4.59,4.59,0,0,0-3.25-.14l-5.85,1.57Z"/><rect class="cls-15" x="712.27" y="295.93" width="225.4" height="75.8" rx="8.12"/><path class="cls-4" d="M776.13,326.56c-1,0-1.43,0-2.06.05a13.45,13.45,0,0,0,.12-2.12v-8.18a14.49,14.49,0,0,0-.12-2c.75,0,.92,0,2,0h3.75c2.39,0,3.75,1.08,3.75,3a2.7,2.7,0,0,1-.86,2.15,2.84,2.84,0,0,1-1.13.63,3.22,3.22,0,0,1,1.46.71,3,3,0,0,1,.95,2.35c0,2.17-1.43,3.37-4,3.37Zm3.41-7.38a1.39,1.39,0,0,0,1.58-1.41c0-.89-.56-1.37-1.6-1.37h-2.86v2.78Zm-2.88,5.29h3a1.57,1.57,0,0,0,1.8-1.64c0-1-.66-1.61-1.83-1.61h-3Z"/><path class="cls-4" d="M788.4,314.32a12.5,12.5,0,0,0-.12,2.08v8.09a12.6,12.6,0,0,0,.12,2.07h-2.77a12.84,12.84,0,0,0,.12-2.07V316.4a12.66,12.66,0,0,0-.12-2.08Z"/><path class="cls-4" d="M797.51,321.93A10.33,10.33,0,0,0,796,322v-2.27a12.76,12.76,0,0,0,1.89.09h1a18.17,18.17,0,0,0,1.87-.08,12.71,12.71,0,0,0-.11,2v1.64a13.39,13.39,0,0,0,.11,2.08,8.16,8.16,0,0,1-2.44,1.08,9.47,9.47,0,0,1-2.41.32,5.73,5.73,0,0,1-4.52-1.81,7.35,7.35,0,0,1-1.44-4.65,6.06,6.06,0,0,1,2.89-5.6,6.21,6.21,0,0,1,3.12-.71,5.18,5.18,0,0,1,3.73,1.4,4.62,4.62,0,0,1,1.1,1.85l-2.55.63a2.2,2.2,0,0,0-.9-1.31,2.79,2.79,0,0,0-1.63-.4,3,3,0,0,0-2.12.84,4.66,4.66,0,0,0-1,3.31,5,5,0,0,0,1,3.35,3,3,0,0,0,2.41.93,4.37,4.37,0,0,0,2.36-.62v-2.1Z"/><path class="cls-4" d="M804.56,326.56c-.93,0-1.49,0-2,.05a12.79,12.79,0,0,0,.12-2.09v-7.88a16.48,16.48,0,0,0-.12-2.32h2.74a14.12,14.12,0,0,0-.12,2.29v7.73h4a16.6,16.6,0,0,0,2.23-.11v2.44a19,19,0,0,0-2.23-.11Z"/><path class="cls-4" d="M821.9,315.63a6.58,6.58,0,0,1,1.73,4.77c0,3.89-2.32,6.44-5.84,6.44s-5.84-2.52-5.84-6.42,2.28-6.36,5.84-6.36A5.52,5.52,0,0,1,821.9,315.63Zm-.86,4.79a4.6,4.6,0,0,0-1.11-3.34,3,3,0,0,0-2.14-.85c-2,0-3.27,1.62-3.27,4.16s1.26,4.26,3.28,4.26S821,323,821,320.42Z"/><path class="cls-4" d="M827.26,326.56c-1,0-1.43,0-2.06.05a13.45,13.45,0,0,0,.12-2.12v-8.18a14.49,14.49,0,0,0-.12-2c.75,0,.91,0,2,0H831c2.4,0,3.75,1.08,3.75,3a2.7,2.7,0,0,1-.85,2.15,3,3,0,0,1-1.13.63,3.22,3.22,0,0,1,1.46.71,3,3,0,0,1,.95,2.35c0,2.17-1.44,3.37-4,3.37Zm3.4-7.38c1,0,1.58-.54,1.58-1.41s-.55-1.37-1.59-1.37h-2.86v2.78Zm-2.87,5.29h3c1.15,0,1.81-.6,1.81-1.64s-.66-1.61-1.84-1.61h-3Z"/><path class="cls-4" d="M845.73,326.67a15.71,15.71,0,0,0-2.1-.11h-4.82c-1,0-1.44,0-2.06.05a13,13,0,0,0,.12-2.09v-8.18a14.29,14.29,0,0,0-.12-2.06c.62,0,1,0,2,0h4.67a20.33,20.33,0,0,0,2.09-.1v2.38a14.92,14.92,0,0,0-2.09-.11h-4.11v2.69h3.43a19.53,19.53,0,0,0,2.11-.1v2.35a15.05,15.05,0,0,0-2.11-.11h-3.45v3.06h4.31a17.41,17.41,0,0,0,2.08-.1Z"/><path class="cls-4" d="M851,318.67a15.71,15.71,0,0,1-2.27,1.18,6.46,6.46,0,0,0-1-1.87,12.8,12.8,0,0,0,3.63-1.9,9.43,9.43,0,0,0,2.45-2.48h2.09a9.09,9.09,0,0,0,2.55,2.42,14.15,14.15,0,0,0,3.74,1.85,8.69,8.69,0,0,0-.94,2,14.11,14.11,0,0,1-2.41-1.23v1a13.75,13.75,0,0,0-1.4-.06h-5.1q-.7,0-1.35.06Zm-.78,3.81a14.4,14.4,0,0,0-1.79.09v-2c.51.05,1.11.08,1.79.08h9.44a17.84,17.84,0,0,0,1.8-.08v2a14.69,14.69,0,0,0-1.8-.09h-5.08a18.48,18.48,0,0,1-1.45,2.67c3-.15,3-.15,4.31-.3-.49-.54-.73-.82-1.45-1.57l1.81-.75a32,32,0,0,1,3.42,4l-1.77,1.11c-.42-.66-.55-.85-.79-1.22-1.45.2-1.48.2-2.31.28s-5.15.46-5.72.49-1.31.12-1.66.18l-.25-2.15c.45,0,.67,0,1.05,0l1.07,0a18.72,18.72,0,0,0,1.48-2.77Zm7.35-4.65a11.82,11.82,0,0,1-2.66-2.5,11.75,11.75,0,0,1-2.66,2.5Z"/><path class="cls-4" d="M865.53,324.89c-.74,0-1.17,0-1.68.06,0-.39.06-.8.06-1.58V319.5a13.69,13.69,0,0,0-.06-1.61c.46,0,1,.06,1.68.06h8.22c.75,0,1.11,0,1.67-.06a10.58,10.58,0,0,0-.06,1.61v3.87a8.15,8.15,0,0,0,.06,1.58c-.48,0-.95-.06-1.67-.06h-1.13a12.76,12.76,0,0,0,4.25,1.1,7.51,7.51,0,0,0-1.06,1.72,12.58,12.58,0,0,1-5.21-2l.92-.85H867.7l1,.89a13.94,13.94,0,0,1-5.25,1.91,6.15,6.15,0,0,0-1-1.73,12.38,12.38,0,0,0,4.2-1.07Zm9.29-8.61c0,.42,0,.78,0,1.13q-.68,0-1.59,0h-7.22q-.94,0-1.62,0c0-.35.06-.73.06-1.13V315a9.2,9.2,0,0,0-.08-1.17c.54,0,.9.06,1.72.06h7.06c.78,0,1.15,0,1.69-.06a8.54,8.54,0,0,0-.06,1.17Zm-9,3.66h7.62v-.59h-7.62Zm0,1.74h7.62v-.58h-7.62Zm0,1.8h7.62v-.63h-7.62Zm.64-8.15V316h6.34v-.71Z"/><path class="cls-4" d="M742.31,353.74a14.15,14.15,0,0,1-1.85-3.14,13.66,13.66,0,0,1-1.09-5.33,13.47,13.47,0,0,1,.68-4.22,13.71,13.71,0,0,1,2.26-4.15l2.06,1.38a11.63,11.63,0,0,0-1.84,3.39,11.81,11.81,0,0,0-.56,3.7,11.13,11.13,0,0,0,.53,3.56,12,12,0,0,0,1.84,3.4Z"/><path class="cls-4" d="M758.91,341.1a11.43,11.43,0,0,0-1.21.19c-.85.14-1.31.2-2.09.29v1.85a11.46,11.46,0,0,1,3-.35,6.32,6.32,0,0,1,3.61.92,4.06,4.06,0,0,1,1.72,3.36,3.94,3.94,0,0,1-4,4.07c-2.06,0-3.2-1.36-3.2-3.81a2.79,2.79,0,0,1,0-.36,8.1,8.1,0,0,0,2.24-.92,4.94,4.94,0,0,0-.08.94c0,1.22.34,1.75,1.12,1.75a1.53,1.53,0,0,0,1.48-1.67c0-1.34-1.11-2.19-2.89-2.19a9.78,9.78,0,0,0-3,.46v3.2c0,1.27,0,1.63-.29,2a1.83,1.83,0,0,1-1.56.7,5.69,5.69,0,0,1-3-1,2.84,2.84,0,0,1-1.43-2.35,3.84,3.84,0,0,1,1.52-2.69,9.63,9.63,0,0,1,2.5-1.46V341.7l-1.53,0-1.08,0h-.29a3.84,3.84,0,0,0-.42,0l0-2.27a11.39,11.39,0,0,0,2.15.16l.83,0a1.43,1.43,0,0,0,.34,0v-.85a13.77,13.77,0,0,0-.1-2.11h2.52a11.25,11.25,0,0,0-.11,2v.83a18,18,0,0,0,3.2-.61Zm-5.58,5.28c-1,.51-1.74,1.22-1.74,1.78,0,.24.15.46.48.67a2,2,0,0,0,.93.32c.26,0,.33-.14.33-.7Zm9.47-3.59a14.87,14.87,0,0,0-3.38-3.83l1.87-1.33a14.72,14.72,0,0,1,3.4,3.66Z"/><path class="cls-4" d="M772.21,337.75a6.89,6.89,0,0,0-.1-1.49h2.58a8,8,0,0,0-.08,1.49v.53h4.32a17.57,17.57,0,0,0,2.21-.1v2.24a17.74,17.74,0,0,0-2.19-.1h-4.34v1.94h2.28a8.26,8.26,0,0,0,1.43-.08l1.32,1.32c-.22.26-.47.61-.88,1.19A15.92,15.92,0,0,1,775.7,348a16.15,16.15,0,0,0,5.82,1.68,11.15,11.15,0,0,0-1.06,2.38,19.69,19.69,0,0,1-3.93-1.14,21.16,21.16,0,0,1-2.89-1.46A19.24,19.24,0,0,1,771,350.8a21.62,21.62,0,0,1-4.32,1.24,11,11,0,0,0-1.07-2.19,18.56,18.56,0,0,0,6.09-1.74A13.44,13.44,0,0,1,769,344.9l1.7-.67h-1.48a18,18,0,0,0-2.09.11v-2.18a18,18,0,0,0,2.16.1h2.91v-1.94h-4.08a18.11,18.11,0,0,0-2.18.1v-2.24a17.85,17.85,0,0,0,2.19.1h4.07Zm-1.09,6.48a8.85,8.85,0,0,0,2.62,2.66,10.4,10.4,0,0,0,2.59-2.66Z"/><path class="cls-4" d="M788.06,339.4a7.54,7.54,0,0,0,1.19-.07v2.1a10.33,10.33,0,0,0-1.19-.07h-.75v2.3c.82-.23,1-.28,1.87-.55l0,2-1.91.61v4.54c0,1.38-.65,1.82-2.59,1.82-.35,0-.8,0-1.31-.05a7.9,7.9,0,0,0-.47-2.18,11.64,11.64,0,0,0,1.72.14c.39,0,.47-.1.47-.53v-3.11l-1,.27c-.05,0-.37.1-1,.26l-.37-2.28a15.42,15.42,0,0,0,2.36-.38v-2.82h-.9a10.86,10.86,0,0,0-1.28.08v-2.12a11.07,11.07,0,0,0,1.3.08h.88v-1.29a9.33,9.33,0,0,0-.1-1.74h2.38a10,10,0,0,0-.1,1.72v1.31Zm8.23,12.54c-.18-.82-.25-1.07-.37-1.51-2.33.49-3.78.73-6.16,1.05a13,13,0,0,0-1.51.26l-.41-2.45h.2a9.1,9.1,0,0,0,1-.06,63.52,63.52,0,0,0,2.72-12.75l2.57.41-1,4.61c-.51,2.4-1.29,5.53-1.9,7.52a38.21,38.21,0,0,0,3.91-.58,29.86,29.86,0,0,0-1.82-4.59l2-.73a50.55,50.55,0,0,1,3,8Z"/><path class="cls-4" d="M802,337.94a20.33,20.33,0,0,0-.15,2.81c0,4.06.63,7.07,1.5,7.07.22,0,.42-.23.61-.69a14,14,0,0,0,.9-3,8.5,8.5,0,0,0,2,1.84c-.9,3.33-2,4.84-3.58,4.84-1.24,0-2.24-.9-3-2.67s-.93-3.89-1-9.05a9.82,9.82,0,0,0-.07-1.14Zm8,.68a17.5,17.5,0,0,1,3.88,9.51l-2.57.95a17.22,17.22,0,0,0-1-5.08,15.21,15.21,0,0,0-2.45-4.36Z"/><path class="cls-4" d="M821.09,337.67a6.16,6.16,0,0,0-.12-1.38h2.59a7.36,7.36,0,0,0-.1,1.38v.92h4.42a16.76,16.76,0,0,0,2.25-.12v2.38a16.68,16.68,0,0,0-2.16-.1h-6.15c-.05.76-.08,1.14-.12,1.63h4.89a14.68,14.68,0,0,0,1.77-.07,3.19,3.19,0,0,0,0,.34c-.07.53-.12,1.23-.15,2a23.39,23.39,0,0,1-.65,5.42c-.41,1.4-1.09,1.82-2.86,1.82-.47,0-.88,0-2.22-.1a7,7,0,0,0-.58-2.33,15.68,15.68,0,0,0,2.5.22c.8,0,1-.22,1.19-1.32a26.08,26.08,0,0,0,.31-3.9h-4.45a11.8,11.8,0,0,1-1.46,3.73,12.23,12.23,0,0,1-4,3.89,6.37,6.37,0,0,0-1.61-1.92,9.76,9.76,0,0,0,3.18-2.74,8.91,8.91,0,0,0,1.72-4.66,20,20,0,0,0,.12-2h-2.47a21,21,0,0,0-2.23.1v-2.38a17.71,17.71,0,0,0,2.23.12h4.15Z"/><path class="cls-4" d="M832.33,340.51a21.1,21.1,0,0,1,3.09,2.07l-1.27,1.88a19.58,19.58,0,0,0-3.1-2.27Zm3,5.95a41.13,41.13,0,0,1-1.56,3.93c-.17.39-.31.67-.34.77-.28.61-.29.63-.4.85l-2-1.7a19.47,19.47,0,0,0,2.42-5.14Zm-2.3-10.15a19.14,19.14,0,0,1,3,2.16l-1.4,1.77a17.82,17.82,0,0,0-3-2.37Zm2.15,13h.58l1.15,0a23,23,0,0,0,1.93-4.3H837.4a16.11,16.11,0,0,0-1.93.1v-2.3a14.46,14.46,0,0,0,1.94.1h2.42V340.7H838c-.7,0-1.29,0-1.87.08v-2.25a12.82,12.82,0,0,0,1.89.11h1.82v-.53a11.44,11.44,0,0,0-.09-1.84h2.42a11.93,11.93,0,0,0-.08,1.84v.53h2.48a13.66,13.66,0,0,0,1.84-.11v2.25a12.56,12.56,0,0,0-1.82-.08h-2.5v2.22h3a15.09,15.09,0,0,0,1.89-.1v2.3a14.64,14.64,0,0,0-1.87-.1h-3.85a29,29,0,0,1-1.82,4.13,34.72,34.72,0,0,0,3.91-.46,20.18,20.18,0,0,0-1.46-2.18l1.86-.95a38.64,38.64,0,0,1,3.33,5.21l-2,1.2c-.34-.73-.45-1-.72-1.49-2.38.44-3.33.58-5.92.85a26.91,26.91,0,0,0-2.77.36Z"/><path class="cls-4" d="M863.74,339.33l-.33.4a15.92,15.92,0,0,1-1.34,1.46,13.88,13.88,0,0,0,2.3,1,7.72,7.72,0,0,0-1,2.07,16.16,16.16,0,0,1-1.63-.78,9.68,9.68,0,0,0,0,1.05v2.28c0,.6,0,.92,0,1.26l-1.16,0h-2.21l1.77.53-.37.71a3,3,0,0,1-.24.44h2.74a10.66,10.66,0,0,0,1.67-.08v2.16a12.27,12.27,0,0,0-1.83-.09H850.33a12.62,12.62,0,0,0-1.82.09v-2.16a10.58,10.58,0,0,0,1.67.08H853a6.35,6.35,0,0,0-.68-1.17l1.67-.51h-2.11c-.54,0-.92,0-1.17,0,0-.46,0-.71,0-1.26v-2.26c0-.41,0-.65,0-1-.53.29-.8.42-1.6.78a6.89,6.89,0,0,0-1-2,13.74,13.74,0,0,0,2.86-1.38,12.54,12.54,0,0,0-2.23-2l1.57-1.3c.46.36.61.48.87.7v-1.92a8.08,8.08,0,0,0,1.48.09h3.21a9.08,9.08,0,0,0,1.43-.07,3.85,3.85,0,0,0,1,1.72,8.5,8.5,0,0,0,1.3-1.67l1.7,1.05a15.31,15.31,0,0,1-1.65,1.87,7.47,7.47,0,0,0,.85.65A8.68,8.68,0,0,0,862,338.3Zm-10.45,2.54a17.28,17.28,0,0,1-2.35,1.58,9.57,9.57,0,0,0,1.09,0h8.46a8.9,8.9,0,0,0,1.14-.06l-.24-.13a10.7,10.7,0,0,1-2.06-1.38v.85a8.53,8.53,0,0,0-1.05,0h-4a8.52,8.52,0,0,0-1,0Zm-1.16-3.45a6.78,6.78,0,0,0-.93.05c.59.52,1,.88,1.44,1.34a7.84,7.84,0,0,0,1.37-1.39Zm.72,7.89h6.72v-1.07h-6.72Zm5.34-5.33a12.77,12.77,0,0,1-1.92-2.16,14.36,14.36,0,0,1-1.92,2.16Zm-.9,8.78a8.63,8.63,0,0,0,.75-1.68h-3.68a9.3,9.3,0,0,1,.82,1.68Z"/><path class="cls-4" d="M867.61,342c-.34,0-.6,0-1,0v-.78a7.76,7.76,0,0,1-.74.61,6.5,6.5,0,0,0-.85-2,7.47,7.47,0,0,0,2.89-3.49h2.17a6.34,6.34,0,0,0,2.49,2.71,8.88,8.88,0,0,0-1.23,1.83l0-.05v1.16a5.34,5.34,0,0,0-1,0h-.44V343h.68a8.73,8.73,0,0,0,1.11-.05v-1.29a14,14,0,0,0,1.63.09h4.1l0-.75h-3.2a11,11,0,0,0-1.59.07v-1.86a8.7,8.7,0,0,0,1.59.09h3.28c0-.07,0-.07,0-.14s0-.29,0-.53H874a13,13,0,0,0-1.6.07v-2a13.57,13.57,0,0,0,1.72.08h4.17a12.18,12.18,0,0,0,1.55-.07c0,.34,0,.34-.17,2.83,0,.41,0,1.14-.1,2.18a10.22,10.22,0,0,0,1.61-.09v2c-.49-.05-1.07-.09-1.65-.09h-2a9.13,9.13,0,0,0,.64,2,6.45,6.45,0,0,0,1.55-1.8l1.52,1.17a16.25,16.25,0,0,1-2.15,2.22,7.82,7.82,0,0,0,2.42,2.24,9.56,9.56,0,0,0-1.17,2,9.61,9.61,0,0,1-3.08-4.42c0,.43.08,1,.11,1.77v1.65c0,1.28-.49,1.68-2,1.68-.36,0-.79,0-1.47,0a5.94,5.94,0,0,0-.47-2c-.31.22-.48.34-.94.63l-.83-1.94a16.91,16.91,0,0,0,3.74-2.29v-2.9h-2a11.89,11.89,0,0,0-1.51.07v1.28a8.18,8.18,0,0,0-1.25-.07h-.66v4.22a16.2,16.2,0,0,0,1.6-.41l0,1.89a33,33,0,0,1-4.34,1c-1,.17-1,.17-1.5.3l-.29-2.19a20.57,20.57,0,0,0,2.57-.27v-4.58h-.76a10.65,10.65,0,0,0-1.69.1v-2.06a11.14,11.14,0,0,0,1.7.1H868V342Zm-1.43,7a17.66,17.66,0,0,0-.7-3.25l1.46-.48a16.78,16.78,0,0,1,.75,3.23Zm4.22-8.78h.24a8.82,8.82,0,0,1-1.52-2,9.72,9.72,0,0,1-1.44,2Zm-.34,7.69a11.69,11.69,0,0,0,.64-2.67l1.42.45a13.66,13.66,0,0,1-.8,2.66Zm3.42-4.21a12,12,0,0,1,1.65,2.3l-1.53,1.12a9.36,9.36,0,0,0-1.62-2.43Zm1.85,4.75a21.93,21.93,0,0,1-1.92,1.52,7,7,0,0,0,1.22.13c.58,0,.7-.07.7-.42Z"/><path class="cls-4" d="M889,336.73a4.79,4.79,0,0,0-.24.92c0,.15-.12.53-.24,1.12a3.41,3.41,0,0,0-.1.43,12.44,12.44,0,0,0,2.57-.44l0,2.34a4.88,4.88,0,0,0-.53.07c-.59.09-1.29.15-2.65.27a35,35,0,0,1-1.86,4.94c-.39.83-.54,1.14-1.19,2.36-.22.43-.22.43-.32.65l-2.33-1.29a22.86,22.86,0,0,0,3.2-6.59c-.52,0-.52,0-.92,0h-.21l-.76,0h-.65v-2.31a12.57,12.57,0,0,0,2.38.17l.75,0a13.62,13.62,0,0,0,.46-2.84Zm7.55,14a9.94,9.94,0,0,0-2.42-2,2.72,2.72,0,0,1-.57,1.82,4.05,4.05,0,0,1-3.15,1.15c-2.33,0-3.86-1.2-3.86-3a3,3,0,0,1,2.16-2.86,4.94,4.94,0,0,1,1.82-.26,8.3,8.3,0,0,1,1.24.1,15.05,15.05,0,0,1-.09-1.65,10.75,10.75,0,0,1,.14-1.88l2.37.11a5.11,5.11,0,0,0-.23,1.69,16.48,16.48,0,0,0,.16,2.3,11.61,11.61,0,0,1,2.57,1.48,8.09,8.09,0,0,1,.66.51l.29.22Zm-6.07-3.15c-.94,0-1.57.41-1.57,1s.53,1,1.43,1,1.51-.43,1.51-1.26a2.37,2.37,0,0,0,0-.47A3.57,3.57,0,0,0,890.46,347.62Zm6.17-4.75a22.24,22.24,0,0,0-5.07-2.41l1.21-2a27.54,27.54,0,0,1,5,2.28Z"/><path class="cls-4" d="M903.19,337c-.17,1-.37,5.55-.37,8.49,0,1.65.08,2.23.4,2.71a2.48,2.48,0,0,0,2.13.85,4.18,4.18,0,0,0,4-2.9,11.08,11.08,0,0,0,.71-3,9.3,9.3,0,0,0,2.48,1.55c-.68,2.43-1.2,3.59-2.09,4.58a6.69,6.69,0,0,1-5.21,2.18,6,6,0,0,1-3.14-.77,3.88,3.88,0,0,1-1.53-2.06,9.44,9.44,0,0,1-.26-2.43c0-.77,0-1.87.07-4.12s.07-3.38.07-3.89a10,10,0,0,0-.07-1.28Z"/><path class="cls-4" d="M919.32,336.9a13.93,13.93,0,0,1,2.26,4.15,13.51,13.51,0,0,1-.41,9.55,15.91,15.91,0,0,1-1.85,3.14l-2.05-1.41a11.68,11.68,0,0,0,1.86-3.4,11.09,11.09,0,0,0,.52-3.56,11.44,11.44,0,0,0-.56-3.7,11.56,11.56,0,0,0-1.83-3.39Z"/><path class="cls-10" d="M718,353.64H702.06a12.25,12.25,0,0,0-12.22,12.21V377h40.37V365.85A12.24,12.24,0,0,0,718,353.64Z"/><path class="cls-10" d="M689.37,351.41a19.35,19.35,0,0,0,8.32,2.17,1,1,0,0,1,.51.13.88.88,0,0,1,.26.46c.6,1.93.33,3.75.39,5.71a19.83,19.83,0,0,1,0,4.22c-.3,1.77-.66,3.54-1.06,5.3a3.79,3.79,0,0,1-1.48,2.63,2.71,2.71,0,0,1-2.72-.31,10.85,10.85,0,0,1-2-2.06,49.57,49.57,0,0,0-4.67-4.49c-1.38-1.25-2.82-2.45-4.21-3.69-.72-.63-1.42-1.27-2.09-1.94a15.49,15.49,0,0,1-1.57-2.12,10.45,10.45,0,0,1-2-6c0-1,.1-1.38,1-1.77S680,348.45,681,348a19.49,19.49,0,0,1,3.15-1.14c.75-.15.68.28,1.13.94a10.7,10.7,0,0,0,1.19,1.41A13.25,13.25,0,0,0,689.37,351.41Z"/><path class="cls-12" d="M689.22,340.77s3.11,4.76,2.36,7.47a7.38,7.38,0,0,1-5.77,5.52s12.7,3,17.71-2.5S689.22,340.77,689.22,340.77Z"/><path class="cls-12" d="M732.08,340.77s-3.11,4.76-2.36,7.47a7.37,7.37,0,0,0,5.77,5.52s-12.71,3-17.71-2.5S732.08,340.77,732.08,340.77Z"/><polygon class="cls-4" points="704.38 354.92 706.45 361.91 710.11 357.1 714.47 361.65 716.82 352.15 704.38 354.92"/><path class="cls-12" d="M733,333.87c0,7.34-5.54,14.35-8.83,15.24s-13.88-.24-13.88-.24-9.75,2.56-12.61.75-9.42-8.72-9.42-15.75c0-13.83,9.23-23.95,20.52-24.76,3.24-.24,7.8-.23,9.66,2.15C728.59,312.38,733,323.68,733,333.87Z"/><ellipse class="cls-11" cx="710.6" cy="333.23" rx="19.53" ry="22.58"/><circle class="cls-11" cx="691.38" cy="338.58" r="4.9"/><circle class="cls-11" cx="729.81" cy="338.58" r="4.9"/><path class="cls-12" d="M716.59,320.4c-4.67,11.42-16.23,13.62-26.46,13.26,0,0-1.27-10.12,5.86-17.94s17.48-6.44,21.16-5.06,11.27,7.24,13.34,13.91-.11,9.06-.11,9.06S719.4,333.27,716.59,320.4Z"/><g id="女子ol2"><circle class="cls-13" cx="704.57" cy="336.05" r="1.95"/><circle class="cls-13" cx="716.43" cy="336.05" r="1.95"/><path class="cls-13" d="M710.56,345.47a4,4,0,0,0,2.85-1.18.72.72,0,1,0-1-1,2.59,2.59,0,0,1-3.66,0,.72.72,0,0,0-1,0,.71.71,0,0,0,0,1A4,4,0,0,0,710.56,345.47Z"/></g><rect class="cls-15" x="675.69" y="314.81" width="9.01" height="42.18" transform="translate(-63.74 187.4) rotate(-14.99)"/><path class="cls-11" d="M675.12,344a5.85,5.85,0,0,1-.14-2.2,4.8,4.8,0,0,1,2.85-3.09,6.26,6.26,0,0,1,4.95-.55c1.6.61,2.74,2.54,2,4.1-.19.42-.49.79-.67,1.21-.57,1.3.06,2.91-.57,4.18a4.65,4.65,0,0,1-2,1.75C676.78,352.16,675.92,348.12,675.12,344Z"/><rect class="cls-16" x="642.27" y="290.99" width="57.04" height="40.11" transform="translate(-57.63 184.12) rotate(-14.99)"/><path class="cls-15" d="M683.12,312.83a10.82,10.82,0,0,1-.73,4.62c-1,2.34-3.41,4.12-6.7,5a9.79,9.79,0,0,1-7.78-.74,14.4,14.4,0,0,1-4.46-17.57,9.82,9.82,0,0,1,6.17-4.45,10,10,0,0,1,5.63-.1,8.7,8.7,0,0,1,3.71,2.22,9.83,9.83,0,0,1,1.42,1.89l-3.58,1.9a6,6,0,0,0-1.82-2.05,5.19,5.19,0,0,0-4.47-.63c-3.9,1.05-5.45,4.73-4.09,9.79s4.6,7.52,8.45,6.49a5.45,5.45,0,0,0,3.91-3.23,5.83,5.83,0,0,0,.23-2.77Z"/><rect class="cls-7" x="70.92" y="295.93" width="206.46" height="75.8" rx="7.77"/><path class="cls-4" d="M110.73,315.68a10.43,10.43,0,0,0-.1-1.74h2a9.39,9.39,0,0,0-.1,1.72v1.41H113a5.05,5.05,0,0,0,1-.07v1.77c-.36,0-.56,0-.94,0h-.47v2.38l1-.51.13,1.7a12.41,12.41,0,0,1-1.15.58v5a1.57,1.57,0,0,1-.5,1.31,3.87,3.87,0,0,1-1.9.34c-.24,0-.41,0-.8,0a5.23,5.23,0,0,0-.43-1.75,7.36,7.36,0,0,0,1.3.12c.44,0,.54-.1.54-.51V323.6c-.36.12-.76.28-1.07.36a6.16,6.16,0,0,0-.71.27l-.36-1.9a10.71,10.71,0,0,0,2.14-.53v-3.08H110a10.54,10.54,0,0,0-1.24.07V317a8.35,8.35,0,0,0,1.26.08h.68Zm12.15,14.12a25.4,25.4,0,0,0-3.62-2,12.56,12.56,0,0,1-5.6,1.82,5.08,5.08,0,0,0-.72-1.63,11.46,11.46,0,0,0,4.48-1,28.13,28.13,0,0,0-3-1,12.12,12.12,0,0,0,1.5-1.82h-.49a10.17,10.17,0,0,0-1.64.09v-1.81a10.15,10.15,0,0,0,1.65.09H117a9.28,9.28,0,0,0,.61-1.31h-2.23a9.71,9.71,0,0,0-1.46.08v-1.8a6.38,6.38,0,0,0,1.36.09h1.16a6.61,6.61,0,0,0-.79-1.88l1.42-.54h-1a10.84,10.84,0,0,0-1.72.08v-1.8a12.8,12.8,0,0,0,1.92.09H118v-.38a9.1,9.1,0,0,0-.08-1.21h2a7.08,7.08,0,0,0-.09,1.2v.39h2.28a12.16,12.16,0,0,0,1.91-.09v1.8a10.92,10.92,0,0,0-1.72-.08h-1.51l1.58.41a8.37,8.37,0,0,1-1,2h1.35a10,10,0,0,0,1.73-.09v1.8a11.94,11.94,0,0,0-1.73-.08H118l1.4.42-.27.5a2.84,2.84,0,0,1-.23.39h3.88a9.46,9.46,0,0,0,1.67-.09v1.81a10.07,10.07,0,0,0-1.65-.09h-.53a6.71,6.71,0,0,1-1.53,2.47,32.13,32.13,0,0,1,3.37,1.62Zm-3.3-10.19a6.62,6.62,0,0,0,1.07-2.42h-3.44a8.33,8.33,0,0,1,.79,1.89l-1.4.53Zm-1.72,4.57c-.27.38-.41.56-.87,1.14l2.06.7a4.72,4.72,0,0,0,1.33-1.84Z"/><path class="cls-4" d="M127.88,323.62a21.39,21.39,0,0,1-.68,5.17l-1.46-.73a14.77,14.77,0,0,0,.66-4.66Zm-2.09-2.52a3.61,3.61,0,0,0,.7,0h.61l.89-1.23a20.35,20.35,0,0,0-2.23-2.57l.85-1.48.64.7a12.43,12.43,0,0,0,1.25-2.77l1.63.63a4.16,4.16,0,0,0-.36.63,24.93,24.93,0,0,1-1.51,2.63l.66.8a13.37,13.37,0,0,0,1.53-2.82l1.53.83a11.93,11.93,0,0,0-.81,1.3c-.55.86-1.6,2.38-2.28,3.28,1-.05,1.24-.09,1.75-.14a13.46,13.46,0,0,0-.49-1.31l1.15-.41a16,16,0,0,1,1,2.85v-.41a6.14,6.14,0,0,0-.07-1.23,12.94,12.94,0,0,0,1.54.05h5.88a10.09,10.09,0,0,0,1.64-.08,9.9,9.9,0,0,0-.06,1.21v1a7.77,7.77,0,0,0,.07,1.21H139.5V322h-5.65v1.88H132.2a5.72,5.72,0,0,0,.07-1.11l-1.1.39c-.06-.36-.09-.49-.14-.73l-1,.12v5.37a10.65,10.65,0,0,0,.1,1.79h-1.84a10.18,10.18,0,0,0,.11-1.79v-5.24l-.67.05a6.25,6.25,0,0,0-.66.06,7.07,7.07,0,0,0-1.07.1Zm5.9,2.21a31,31,0,0,1,.55,3.73l-1.38.41a20.58,20.58,0,0,0-.46-3.81Zm4.44-.56c0,.33,0,.33-.08,1.23a6.17,6.17,0,0,1-1.16,3.57,6.44,6.44,0,0,1-2.74,2A3.84,3.84,0,0,0,131,328a5,5,0,0,0,2.48-1.47,4.46,4.46,0,0,0,.85-3,6.7,6.7,0,0,0-.05-.79ZM134,316.83a12.15,12.15,0,0,0-1.85.09v-1.7a15,15,0,0,0,1.89.1h1.58v-.17a6.78,6.78,0,0,0-.1-1.28h1.95a7.46,7.46,0,0,0-.1,1.3v.15h2.08a15.07,15.07,0,0,0,1.89-.1v1.7a12,12,0,0,0-1.84-.09h-2.13V318h1.74a13.34,13.34,0,0,0,1.73-.08v1.65a12.18,12.18,0,0,0-1.72-.09h-5a11,11,0,0,0-1.72.09V318a13.14,13.14,0,0,0,1.73.08h1.45v-1.21Zm4.73,5.92a6.77,6.77,0,0,0-.1,1.21v3.32c0,.29.1.36.51.36a1,1,0,0,0,.65-.17,5.19,5.19,0,0,0,.29-2.22,4.71,4.71,0,0,0,1.61.6,8.09,8.09,0,0,1-.42,2.55c-.31.67-.85.89-2.25.89-1.65,0-2.09-.29-2.09-1.42V324a6.62,6.62,0,0,0-.08-1.21Z"/><path class="cls-4" d="M146,327.36a19.12,19.12,0,0,0-2.09.07v-2.19a11.14,11.14,0,0,0,2.13.12h7.74v-7.42h-7.45a18.55,18.55,0,0,0-2.18.08v-2.21a11.61,11.61,0,0,0,2.2.12h8.18c.88,0,.88,0,1.48,0a10.53,10.53,0,0,0-.05,1.41v9.34a11.06,11.06,0,0,0,.08,1.75h-2.28v-1Z"/><path class="cls-4" d="M158.94,320.49a16.94,16.94,0,0,0,2.76.12h9.06a16.94,16.94,0,0,0,2.76-.12v2.37a17.65,17.65,0,0,0-2.77-.09h-9a17.65,17.65,0,0,0-2.77.09Z"/><path class="cls-4" d="M186.6,328.76a32.48,32.48,0,0,0-5.22-5.05,20.16,20.16,0,0,1-6.48,4.91,7.06,7.06,0,0,0-1.38-1.89,14.14,14.14,0,0,0,3.4-1.87,16.42,16.42,0,0,0,5.72-6.92l.18-.44-5.63.1a15,15,0,0,0-1.85.13l-.07-2.17a7.9,7.9,0,0,0,1.5.1h.41l6-.09a3.68,3.68,0,0,0,1.52-.18l1.12,1.15a3.28,3.28,0,0,0-.54.92,23,23,0,0,1-2.66,4.7,27,27,0,0,1,3.15,2.46c.43.38.43.38,2.48,2.37Z"/><path class="cls-4" d="M194.16,322.38c-1.07.9-1.55,1.62-1.55,2.35,0,1.1,1.25,1.58,4.12,1.58a17.61,17.61,0,0,0,5.34-.73l.19,2.33c-.31,0-.36,0-.75.07a28.09,28.09,0,0,1-4.59.39,12.23,12.23,0,0,1-4.25-.56,2.94,2.94,0,0,1-2.18-2.84c0-1.32.66-2.44,2.19-3.71Zm-2.58-7a22.69,22.69,0,0,0,5.1.42,21,21,0,0,0,4.49-.32l.07,1.92a30.3,30.3,0,0,0-4.54,2.81L195.22,319c1.07-.68,1.26-.8,1.68-1l.44-.28a1.77,1.77,0,0,0,.38-.2,18.38,18.38,0,0,1-2.55.14,26.8,26.8,0,0,1-3.12-.21l-.39,0-.24,0Zm9,3.77a11.15,11.15,0,0,1,1.79,2.5l-1.2.63a11.6,11.6,0,0,0-1.78-2.53Zm2.64,2.06a12.76,12.76,0,0,0-1.74-2.46l1.14-.6a9.75,9.75,0,0,1,1.77,2.4Z"/><path class="cls-4" d="M209.1,316.76c-1.11.23-1.46.28-2.48.43a7,7,0,0,0-.63-1.63,18.54,18.54,0,0,0,6.55-1.64l1.1,1.57c-1.22.42-2,.66-2.75.87v2.19h1.36a9.36,9.36,0,0,0,1.43-.08v1.85a8.87,8.87,0,0,0-1.47-.08H211a10.32,10.32,0,0,0,2.72,3.18,7.79,7.79,0,0,0-.9,1.66,9.32,9.32,0,0,1-2-2.72c0,.58.09,1.28.09,2.15v3a13.62,13.62,0,0,0,.1,2.16h-2a14.18,14.18,0,0,0,.12-2.16v-2.85c0-.68,0-1.46.09-2A12,12,0,0,1,208,325a11.56,11.56,0,0,1-1.48,1.87,8.76,8.76,0,0,0-.95-1.78,10.25,10.25,0,0,0,1.85-2.28,20.44,20.44,0,0,0,1.33-2.55h-1.23a10,10,0,0,0-1.56.1v-1.89a8.35,8.35,0,0,0,1.6.1h1.53Zm7.49-1.59a12.09,12.09,0,0,0-.11,2.05v6.43a13.76,13.76,0,0,0,.09,2h-2a12.55,12.55,0,0,0,.09-2v-6.47a12.45,12.45,0,0,0-.11-2.05Zm4-1a17,17,0,0,0-.12,2.32V327.4c0,.9-.22,1.39-.77,1.68a5.21,5.21,0,0,1-2.36.29c-.43,0-.68,0-1.26,0a7.51,7.51,0,0,0-.58-1.89,21.53,21.53,0,0,0,2.24.15c.75,0,.87-.07.87-.51V316.46c0-.85,0-1.57-.1-2.32Z"/><path class="cls-4" d="M225.59,324.25a11.45,11.45,0,0,1-1.74,5.38,10.21,10.21,0,0,0-1.65-1.35,7.78,7.78,0,0,0,1.24-2.87,17.18,17.18,0,0,0,.34-2.61c.09-1.42.16-3.84.16-5.85a22.36,22.36,0,0,0-.09-2.47,17.71,17.71,0,0,0,2,.07h9.54a16.59,16.59,0,0,0,2-.07c-.05.58-.07,1-.07,1.93v11.18c0,1.41-.51,1.76-2.45,1.76-.53,0-1.39,0-1.9-.06a7.11,7.11,0,0,0-.48-1.77c.85.08,1.6.13,2.14.13.7,0,.85-.06.85-.42v-3h-4.08V327a16.81,16.81,0,0,0,.08,2h-2a14,14,0,0,0,.1-2v-2.81Zm3.91-4h-3.76c0,.49,0,.83,0,1.07,0,.8,0,.92,0,1.26h3.79Zm0-3.9h-3.71v1.75l0,.48h3.73Zm5.9,2.23v-2.23h-4.08v2.23Zm0,4v-2.33h-4.08v2.33Z"/><path class="cls-4" d="M246.2,324.23c-1,2.2-2.06,3.2-3.46,3.2-1.94,0-3.33-2-3.33-4.71a7.3,7.3,0,0,1,1.87-5,7.62,7.62,0,0,1,5.85-2.38c4.08,0,6.74,2.48,6.74,6.31a6.54,6.54,0,0,1-4.14,6.34,10.85,10.85,0,0,1-2.67.72,5.47,5.47,0,0,0-1-2,9.13,9.13,0,0,0,3.38-.94,4.76,4.76,0,0,0,2.37-4.25,4.24,4.24,0,0,0-2.1-3.78,3.79,3.79,0,0,0-1.71-.51A24.84,24.84,0,0,1,246.2,324.23Zm-2.5-6.09a5.71,5.71,0,0,0-2.32,4.6c0,1.39.6,2.5,1.35,2.5.56,0,1.13-.72,1.75-2.18a22.53,22.53,0,0,0,1.41-5.75A4.28,4.28,0,0,0,243.7,318.14Z"/><path class="cls-4" d="M132.74,352.9c-1,0-1.43,0-2.06,0a13.45,13.45,0,0,0,.12-2.12v-8.18a14.58,14.58,0,0,0-.12-2c.76,0,.92,0,2,0h3.75c2.39,0,3.75,1.09,3.75,3a2.7,2.7,0,0,1-.86,2.15,3,3,0,0,1-1.13.64,3.16,3.16,0,0,1,1.46.7,3,3,0,0,1,1,2.35c0,2.17-1.43,3.38-4,3.38Zm3.41-7.38a1.39,1.39,0,0,0,1.58-1.42c0-.89-.56-1.37-1.6-1.37h-2.86v2.79Zm-2.88,5.28h3c1.14,0,1.81-.6,1.81-1.64s-.67-1.61-1.84-1.61h-3Z"/><path class="cls-4" d="M145,340.65a12.5,12.5,0,0,0-.12,2.08v8.09a12.81,12.81,0,0,0,.12,2.08h-2.77a13.05,13.05,0,0,0,.12-2.08v-8.09a12.66,12.66,0,0,0-.12-2.08Z"/><path class="cls-4" d="M154.12,348.26a10.1,10.1,0,0,0-1.52.07v-2.27a12.61,12.61,0,0,0,1.88.09h1a18,18,0,0,0,1.87-.08,14.49,14.49,0,0,0-.1,2v1.64a13.58,13.58,0,0,0,.1,2.08,8.36,8.36,0,0,1-2.44,1.09,9.94,9.94,0,0,1-2.41.31,5.73,5.73,0,0,1-4.52-1.81,7.39,7.39,0,0,1-1.44-4.65,6.06,6.06,0,0,1,2.89-5.6,6.21,6.21,0,0,1,3.12-.71,5.18,5.18,0,0,1,3.73,1.4,4.51,4.51,0,0,1,1.1,1.85l-2.54.64a2.15,2.15,0,0,0-.91-1.31,2.71,2.71,0,0,0-1.62-.41,3,3,0,0,0-2.13.84,4.69,4.69,0,0,0-1,3.32,5,5,0,0,0,1,3.34,3,3,0,0,0,2.41.93,4.48,4.48,0,0,0,2.37-.61v-2.11Z"/><path class="cls-4" d="M161.18,352.9c-.94,0-1.49,0-2.05,0a12.79,12.79,0,0,0,.12-2.09V343a16.48,16.48,0,0,0-.12-2.32h2.74a14.19,14.19,0,0,0-.12,2.29v7.73h4a16.6,16.6,0,0,0,2.23-.11V353a19.37,19.37,0,0,0-2.23-.1Z"/><path class="cls-4" d="M178.51,342a6.59,6.59,0,0,1,1.73,4.78c0,3.88-2.32,6.43-5.84,6.43s-5.84-2.52-5.84-6.42,2.29-6.35,5.84-6.35A5.52,5.52,0,0,1,178.51,342Zm-.86,4.79a4.6,4.6,0,0,0-1.11-3.34,3,3,0,0,0-2.14-.85c-2,0-3.27,1.62-3.27,4.16s1.27,4.26,3.29,4.26S177.65,349.37,177.65,346.75Z"/><path class="cls-4" d="M183.87,352.9c-1,0-1.43,0-2.06,0a13.45,13.45,0,0,0,.12-2.12v-8.18a14.58,14.58,0,0,0-.12-2c.75,0,.92,0,2.05,0h3.75c2.39,0,3.75,1.09,3.75,3a2.7,2.7,0,0,1-.86,2.15,3,3,0,0,1-1.13.64,3.21,3.21,0,0,1,1.46.7,3,3,0,0,1,.95,2.35c0,2.17-1.43,3.38-4,3.38Zm3.41-7.38a1.39,1.39,0,0,0,1.58-1.42c0-.89-.56-1.37-1.6-1.37H184.4v2.79Zm-2.88,5.28h3a1.57,1.57,0,0,0,1.8-1.64c0-1-.66-1.61-1.83-1.61h-3Z"/><path class="cls-4" d="M202.34,353a15.87,15.87,0,0,0-2.09-.1h-4.82c-1,0-1.45,0-2.06,0a13,13,0,0,0,.12-2.09v-8.18a14.29,14.29,0,0,0-.12-2.06c.61,0,1,0,2,0h4.67a20.39,20.39,0,0,0,2.1-.1v2.38a15.17,15.17,0,0,0-2.1-.11H196v2.7h3.43a16.94,16.94,0,0,0,2.11-.11v2.35a14.87,14.87,0,0,0-2.11-.11H196v3.06h4.3a17.18,17.18,0,0,0,2.08-.1Z"/><path class="cls-4" d="M207.27,345a15.82,15.82,0,0,1-2.28,1.18,6.35,6.35,0,0,0-1-1.87,12.8,12.8,0,0,0,3.63-1.9,9.14,9.14,0,0,0,2.45-2.48h2.1a9.05,9.05,0,0,0,2.54,2.42,14.51,14.51,0,0,0,3.74,1.86,8.85,8.85,0,0,0-.94,2,14.11,14.11,0,0,1-2.41-1.23v1a13.75,13.75,0,0,0-1.4-.06h-5.1c-.47,0-.92,0-1.34.06Zm-.79,3.81a14.4,14.4,0,0,0-1.79.09v-2c.51.05,1.12.08,1.79.08h9.45a17.77,17.77,0,0,0,1.79-.08v2a14.63,14.63,0,0,0-1.79-.09h-5.09a18.48,18.48,0,0,1-1.45,2.67c3-.15,3-.15,4.31-.3-.48-.54-.72-.81-1.45-1.57l1.81-.75a32,32,0,0,1,3.42,4L215.72,354l-.8-1.23c-1.45.2-1.48.2-2.31.28s-5.15.46-5.72.49-1.31.12-1.66.18l-.25-2.15c.45,0,.68,0,1.05,0h1.07a19.32,19.32,0,0,0,1.48-2.78Zm7.35-4.65a11.82,11.82,0,0,1-2.66-2.5,11.68,11.68,0,0,1-2.65,2.5Z"/><path class="cls-4" d="M221.84,351.22c-.74,0-1.16,0-1.67.06,0-.39.06-.79.06-1.58v-3.87c0-.8,0-1.13-.06-1.61a15.5,15.5,0,0,0,1.67.06h8.22a16.28,16.28,0,0,0,1.67-.06,10.58,10.58,0,0,0-.06,1.61v3.87a10.9,10.9,0,0,0,.06,1.58c-.48,0-.95-.06-1.67-.06h-1.13a12.76,12.76,0,0,0,4.25,1.1,7.88,7.88,0,0,0-1.06,1.72,12.58,12.58,0,0,1-5.21-2l.92-.85H224l1,.89a14.24,14.24,0,0,1-5.26,1.92,6.42,6.42,0,0,0-1-1.74,12.51,12.51,0,0,0,4.2-1.07Zm9.29-8.61c0,.42,0,.78,0,1.13-.45,0-1,0-1.59,0h-7.22q-.95,0-1.62,0c0-.35.06-.72.06-1.13v-1.27a9.2,9.2,0,0,0-.08-1.17,16.52,16.52,0,0,0,1.72.06h7.06a16,16,0,0,0,1.69-.06,8.54,8.54,0,0,0-.06,1.17Zm-9,3.66h7.62v-.59h-7.62Zm0,1.75h7.62v-.59h-7.62Zm0,1.79h7.62v-.63h-7.62Zm.65-8.15v.71h6.34v-.71Z"/><path class="cls-10" d="M54.41,350.19a20.26,20.26,0,0,0,8.72,2.27,1,1,0,0,1,.53.14.93.93,0,0,1,.28.48c.62,2,.34,3.93.41,6a20.41,20.41,0,0,1,0,4.42c-.31,1.86-.68,3.72-1.11,5.55a4,4,0,0,1-1.55,2.76,2.79,2.79,0,0,1-2.84-.32,11,11,0,0,1-2.1-2.16,53,53,0,0,0-4.89-4.7c-1.45-1.32-3-2.57-4.42-3.87-.75-.66-1.48-1.33-2.19-2a17.92,17.92,0,0,1-1.64-2.22,10.84,10.84,0,0,1-2.06-6.31c0-1.06.1-1.44,1.09-1.85s1.93-1.24,3-1.68a20.08,20.08,0,0,1,3.3-1.2c.79-.15.71.29,1.19,1a9.72,9.72,0,0,0,1.25,1.47A13.94,13.94,0,0,0,54.41,350.19Z"/><path class="cls-10" d="M84.41,352.52H67.71a12.84,12.84,0,0,0-12.8,12.8V377h42.3V365.32A12.84,12.84,0,0,0,84.41,352.52Z"/><path class="cls-12" d="M98.33,329.06c0-5.5-1.56-10.77-6.45-13.86h.31c2.7.17,4.21.18,4.21.18a3.19,3.19,0,0,0-3.66-2.85,7.68,7.68,0,0,0-3.3,1c-5.09-5.1-10.88-5-14.1-5a21.66,21.66,0,0,0-12.56,4.16c-4.48,1.66-10,1.66-9.6,2.82.16.55,2,1.71,4.22,2.57a21.61,21.61,0,0,0-3.86,9.64c-.33,1.26-1.62,5.67-3.48,6.69a1.59,1.59,0,0,0,.89,1.15c.65.35,1.54.66,2.88-.5,1.57,7.06,8.42,13.57,11.37,15.44s10.17-.15,10.17-.15,7.94.44,11.37-.48,9.72-7.15,11-14.66v0a2.17,2.17,0,0,0,2.74.39,1.62,1.62,0,0,0,.9-1.15C100,333.6,98.92,330.89,98.33,329.06Z"/><ellipse class="cls-11" cx="75.73" cy="334.06" rx="20.29" ry="23.47"/><circle class="cls-11" cx="55.75" cy="339.62" r="5.09"/><circle class="cls-11" cx="95.69" cy="339.62" r="5.09"/><circle class="cls-13" cx="69.46" cy="336.99" r="2.02"/><circle class="cls-13" cx="81.78" cy="336.99" r="2.02"/><path class="cls-13" d="M75.68,346.78a4.21,4.21,0,0,0,3-1.22.76.76,0,1,0-1.07-1.07,2.69,2.69,0,0,1-3.8,0,.75.75,0,0,0-1.06,0,.77.77,0,0,0,0,1.07A4.2,4.2,0,0,0,75.68,346.78Z"/><path class="cls-12" d="M58.53,338.05s-1.71-10,12.32-17.71c0,0-3.28,7.18-2.34,7.92,0,0,5.73.19,10.55-7.25,0,0-2.41,5.64-1.68,7a11.78,11.78,0,0,0,7.77-7.13s3.26,8.06,8.22,12c0,0,1.22,3.05.2,5.08,0,0,3.46-2.84,3.46-6.1s-.41-11.38-4.88-15.24-12.6-9.76-20.33-7.12S56.58,317.63,55,326.38,58.53,338.05,58.53,338.05Z"/><rect class="cls-7" x="39.31" y="310.64" width="9.01" height="42.18" transform="translate(-84.32 22.63) rotate(-14.99)"/><path class="cls-11" d="M39.48,342.41a6.39,6.39,0,0,1-.15-2.3,5,5,0,0,1,3-3.24,6.59,6.59,0,0,1,5.19-.58c1.67.65,2.86,2.67,2.13,4.3-.2.44-.51.82-.7,1.27-.59,1.36.06,3-.6,4.38a4.82,4.82,0,0,1-2.08,1.83C41.21,351,40.32,346.74,39.48,342.41Z"/><rect class="cls-17" x="5.89" y="286.81" width="57.04" height="40.11" transform="translate(-78.21 19.35) rotate(-14.99)"/><path class="cls-7" d="M44.41,316.21a19.16,19.16,0,0,0-1.54-2.68L41,310.82l-8.8,2.36-.3,3.29a14.25,14.25,0,0,0-.05,3.11l-4.51,1.21a30.8,30.8,0,0,0,.59-3.64l1.8-17.48a16.75,16.75,0,0,0,.14-3l4.78-1.28a18.43,18.43,0,0,0,1.68,2.52l10.35,14.23A28.82,28.82,0,0,0,48.92,315ZM34,300.58c-.19-.28-.36-.58-.91-1.41-.09,1.41-.09,1.41-.11,1.68l-.68,8.9,6.82-1.82Z"/></svg>