<svg id="レイヤー_1" data-name="レイヤー 1" xmlns="http://www.w3.org/2000/svg" viewBox="0 0 346.36 426.28"><defs><style>.cls-1{fill:#f39800;}.cls-14,.cls-15,.cls-16,.cls-2,.cls-7{fill:#fff;}.cls-3{fill:#90c21e;}.cls-4{fill:#1eb4c2;}.cls-5,.cls-6{fill:none;stroke-width:7px;}.cls-16,.cls-5{stroke:#f39800;}.cls-14,.cls-15,.cls-16,.cls-5,.cls-6,.cls-7{stroke-miterlimit:10;}.cls-14,.cls-6{stroke:#90c21e;}.cls-7{stroke:#ccc;stroke-opacity:0.5;stroke-width:2px;}.cls-8{fill:#313131;}.cls-9{fill:#47a209;}.cls-10{fill:#b5b5b5;}.cls-11{fill:#ffe2cc;}.cls-12{fill:#35318f;}.cls-13{fill:#3a3a3a;}.cls-14,.cls-15,.cls-16{stroke-width:1.8px;}.cls-15{stroke:#1eb4c2;}</style></defs><rect class="cls-1" x="2.3" y="351.15" width="106.31" height="75.13" rx="5.55"/><path class="cls-2" d="M37.22,378a18.74,18.74,0,0,0-2.37-1.27,8.59,8.59,0,0,1-3.9,1.2,4.83,4.83,0,0,0-.54-1.36A7.78,7.78,0,0,0,33.3,376c-.68-.28-1.06-.41-2-.72a6.86,6.86,0,0,0,1-1.2h-.2a8.44,8.44,0,0,0-1.15.06V373c-.46.21-.52.23-.72.31v3.25a1.23,1.23,0,0,1-.35,1,2.59,2.59,0,0,1-1.4.29l-.66,0a4.91,4.91,0,0,0-.34-1.43,6.54,6.54,0,0,0,.91.07c.28,0,.35-.07.35-.37v-2.27l-1.15.37-.27-1.56a7.42,7.42,0,0,0,1.42-.29v-1.92h-.42a8.12,8.12,0,0,0-.86,0v-1.49a4.76,4.76,0,0,0,.87.06h.41v-.9a6.64,6.64,0,0,0-.07-1.2h1.62a7.77,7.77,0,0,0-.06,1.2v.9h.29a4.8,4.8,0,0,0,.59,0v1.45c-.25,0-.36,0-.58,0h-.3v1.45l.78-.29v-.92a4.77,4.77,0,0,0,.89.05h.7a6.2,6.2,0,0,0-.43-1.42,5.59,5.59,0,0,0-.86.05v-1.44a11.93,11.93,0,0,0,1.41.06h1.11v-.22a7.18,7.18,0,0,0-.06-.8h1.63a5.67,5.67,0,0,0-.05.79v.23h1.39a10.88,10.88,0,0,0,1.39-.06v1.44a8,8,0,0,0-1.09-.05,9.42,9.42,0,0,1-.49,1.42h.61a8.73,8.73,0,0,0,1.23-.05v1.45a8.82,8.82,0,0,0-1.23-.05h-2l-.25.47-.15.26h2.49a10.71,10.71,0,0,0,1.17,0v1.46a8.3,8.3,0,0,0-1.16-.06h-.25a4.5,4.5,0,0,1-.93,1.6,17.63,17.63,0,0,1,2.16,1ZM31,372.72a9.34,9.34,0,0,0,1.06,0h1c.16-.32.22-.46.33-.73H32a6.52,6.52,0,0,0-1,.05Zm2.87,1.4c-.14.22-.23.32-.47.64.61.22.81.27,1.25.44a3.15,3.15,0,0,0,.77-1.08Zm1.28-3.44a8.24,8.24,0,0,0,.45-1.42h-2a9.79,9.79,0,0,1,.36,1.42Z"/><path class="cls-2" d="M40.73,373.69a16.14,16.14,0,0,1-.44,3.67l-1.08-.56a12.14,12.14,0,0,0,.42-3.24Zm-1.47-1.88a4.06,4.06,0,0,0,.54,0h.43l.16-.21c.08-.09.11-.15.35-.47a15.27,15.27,0,0,0-1.5-1.78l.67-1.24.39.42a8.05,8.05,0,0,0,.78-1.78l1.34.48a3.46,3.46,0,0,0-.26.48,18.45,18.45,0,0,1-1,1.78l.37.46a10.24,10.24,0,0,0,1.05-1.92l1.15.61v-1a9.84,9.84,0,0,0,1.37.07h1a4.47,4.47,0,0,0-.06-.9h1.6a3.53,3.53,0,0,0-.07.9h1.29a9.45,9.45,0,0,0,1.34-.07v1.37a8.36,8.36,0,0,0-1.31-.06H47.54v.69h1.07a8,8,0,0,0,1.23-.06V371a7.45,7.45,0,0,0-1.21-.06H45.16a7.81,7.81,0,0,0-1.23.06v-1.35a8.11,8.11,0,0,0,1.24.06h.9V369h-1a8.89,8.89,0,0,0-1.34.06v-.29a7.42,7.42,0,0,0-.5.79c-.37.58-1.14,1.68-1.55,2.22.54,0,.61,0,1.05-.07a6.75,6.75,0,0,0-.31-.87l1-.32a15.59,15.59,0,0,1,.59,2v-.24a8.3,8.3,0,0,0,0-.87c.22,0,.43,0,1,0h4.1a10.08,10.08,0,0,0,1.09,0,4.93,4.93,0,0,0,0,.87v.7a5.67,5.67,0,0,0,0,.91H48.68v-1.22H45.25v.46h1.28c0,.22,0,.22-.06.9a4.19,4.19,0,0,1-.8,2.48,4.65,4.65,0,0,1-1.82,1.33,4,4,0,0,0-.91-1.28,5.35,5.35,0,0,0,1.11-.52,2.36,2.36,0,0,0,1-2.15H43.91c0-.27,0-.38,0-.82l-.86.3-.08-.45-.64.07v3.65a7,7,0,0,0,.07,1.27H41a7.38,7.38,0,0,0,.07-1.27v-3.56l-.45,0-.44,0c-.4,0-.55,0-.73.07Zm4.27,1.7c.09.55.12.8.16,1.28.1.89.1.89.12,1.2l-1,.27a20.65,20.65,0,0,0-.25-2.54Zm4.87-.37a5.36,5.36,0,0,0-.06.77v2.2c0,.18,0,.21.29.21a.51.51,0,0,0,.37-.1,4.61,4.61,0,0,0,.15-1.48,3.93,3.93,0,0,0,1.26.47c-.16,2.32-.29,2.48-2,2.48-1.16,0-1.47-.22-1.47-1.05v-2.73a4.07,4.07,0,0,0-.06-.77Z"/><path class="cls-2" d="M53.62,376.44c-.87,0-1.17,0-1.79.06v-1.84a11,11,0,0,0,1.83.09h5v-4.88H53.82a15.94,15.94,0,0,0-1.83.06v-1.84a11.67,11.67,0,0,0,1.86.1H59c.64,0,1.16,0,1.48,0,0,.78,0,.78,0,1.29v6a11.26,11.26,0,0,0,.06,1.75H58.65v-.71Z"/><path class="cls-2" d="M62.5,371.36a15.17,15.17,0,0,0,2.17.09h6a15.75,15.75,0,0,0,2.16-.08v1.94c-.47,0-1.25-.06-2.17-.06h-6c-1,0-1.71,0-2.17.07Z"/><path class="cls-2" d="M81.89,377.48A21.59,21.59,0,0,0,78.38,374a13.89,13.89,0,0,1-4.41,3.3,5.36,5.36,0,0,0-1.14-1.57,11.56,11.56,0,0,0,5.72-4.86,13.19,13.19,0,0,0,.63-1.29l-3.45.06a10.66,10.66,0,0,0-1.66.1l0-1.79a8.73,8.73,0,0,0,1.44.07h.23l4-.07a1.73,1.73,0,0,0,1-.15l.91,1a2,2,0,0,0-.39.66,15.57,15.57,0,0,1-1.78,3.22,27.1,27.1,0,0,1,3.84,3.27Z"/><path class="cls-2" d="M36.59,388.87c-.72.58-1.06,1.08-1.06,1.54,0,.68.81,1,2.66,1a12.55,12.55,0,0,0,3.84-.52l.13,1.94a8.73,8.73,0,0,0-1.06.11,18.78,18.78,0,0,1-2.67.18,9.13,9.13,0,0,1-3.11-.38,2.12,2.12,0,0,1-1.59-2.06,3.44,3.44,0,0,1,1.61-2.7Zm-2.09-5.1a17.6,17.6,0,0,0,3.82.3,16.12,16.12,0,0,0,3.1-.21l.06,1.56a21.87,21.87,0,0,0-3.23,2l-1.21-.9c.42-.27,1.22-.77,1.56-1a10.27,10.27,0,0,1-1.35.07,22.79,22.79,0,0,1-2.44-.14,1.85,1.85,0,0,0-.42,0Zm6.17,2.62a5.55,5.55,0,0,1,1,1.49l-1,.56a6.47,6.47,0,0,0-1.06-1.51Zm1.3-.71A6.71,6.71,0,0,1,43,387.11l-1,.55a7.58,7.58,0,0,0-1-1.46Z"/><path class="cls-2" d="M46.4,385c-.75.13-.95.16-1.57.25a7.38,7.38,0,0,0-.49-1.38,18.15,18.15,0,0,0,2.95-.5,6.22,6.22,0,0,0,1.6-.57l.9,1.31c-.83.27-1.27.4-1.88.57v1.37h.84a5.5,5.5,0,0,0,1-.06v1.49a9.21,9.21,0,0,0-1,0H48a6.41,6.41,0,0,0,1.84,2,7.36,7.36,0,0,0-.71,1.4,5.87,5.87,0,0,1-1.24-1.64c0,.34,0,.73,0,1.24v1.85a10.42,10.42,0,0,0,.07,1.52H46.32a10.69,10.69,0,0,0,.08-1.52v-1.71c0-.39,0-.84,0-1.18a6.88,6.88,0,0,1-1.62,2.6,7.55,7.55,0,0,0-.76-1.51,6,6,0,0,0,1.17-1.4,9.46,9.46,0,0,0,.88-1.68h-.7a7.79,7.79,0,0,0-1.06.06V386a6.28,6.28,0,0,0,1.08.06h1Zm5.5-1.29a13.72,13.72,0,0,0-.06,1.48v4.42a11.75,11.75,0,0,0,.06,1.43H50.26a8.78,8.78,0,0,0,.06-1.39v-4.46a13.64,13.64,0,0,0-.07-1.48Zm2.76-.73a13.65,13.65,0,0,0-.07,1.66v7.52c0,.74-.21,1.16-.65,1.35a5.34,5.34,0,0,1-1.81.19l-.79,0a6.28,6.28,0,0,0-.49-1.56c.69.07,1.18.1,1.57.1s.64-.06.64-.36v-7.22c0-.56,0-1.08-.07-1.66Z"/><path class="cls-2" d="M62.2,392.06a12.81,12.81,0,0,0,.06,1.46H60.63a10,10,0,0,0,.07-1.45v-1.82H58.21a8.28,8.28,0,0,1-1.16,3.67,10.28,10.28,0,0,0-1.37-1.14c1-1.5,1.14-2.74,1.14-8a13.46,13.46,0,0,0-.06-1.56c.44,0,.75,0,1.39,0H64.9c.71,0,1,0,1.42,0a12.77,12.77,0,0,0,0,1.42v7.74c0,1-.4,1.34-1.81,1.34-.33,0-.92,0-1.29-.05a5,5,0,0,0-.4-1.45c.55,0,1,.08,1.41.08s.55-.05.55-.28v-1.78H62.2Zm-3.86-4.6c0,.51,0,.77,0,1.4h2.4v-1.4Zm2.36-2.73H58.36v1.35H60.7Zm4,1.35v-1.35H62.2v1.35Zm-2.53,2.78h2.53v-1.4H62.2Z"/><path class="cls-2" d="M72.64,390.29c-.66,1.5-1.44,2.2-2.46,2.2-1.47,0-2.51-1.43-2.51-3.47A5.09,5.09,0,0,1,69,385.51a5.47,5.47,0,0,1,4.16-1.7c3,0,4.86,1.77,4.86,4.54a4.63,4.63,0,0,1-3,4.56,8.07,8.07,0,0,1-1.88.49,4.8,4.8,0,0,0-.87-1.68,5.83,5.83,0,0,0,2.34-.57,3.23,3.23,0,0,0,1.63-2.91A2.86,2.86,0,0,0,75,385.77a2.32,2.32,0,0,0-1.09-.38A17,17,0,0,1,72.64,390.29ZM70.76,386a3.88,3.88,0,0,0-1.46,3c0,.88.38,1.6.84,1.6s.71-.46,1.09-1.42a15,15,0,0,0,1-3.8A2.6,2.6,0,0,0,70.76,386Z"/><path class="cls-2" d="M16.9,409.1c-.78,0-1.12,0-1.62,0a10.74,10.74,0,0,0,.09-1.67v-6.42a11.78,11.78,0,0,0-.09-1.6c.59,0,.72,0,1.61,0h2.94c1.88,0,3,.85,3,2.38a2.14,2.14,0,0,1-.68,1.69,2.24,2.24,0,0,1-.89.49,2.58,2.58,0,0,1,1.15.56,2.33,2.33,0,0,1,.75,1.84c0,1.71-1.13,2.65-3.15,2.65Zm2.67-5.79a1.09,1.09,0,0,0,1.24-1.11c0-.7-.43-1.08-1.25-1.08H17.31v2.19Zm-2.26,4.15h2.36a1.24,1.24,0,0,0,1.42-1.29c0-.81-.53-1.27-1.45-1.27H17.31Z"/><path class="cls-2" d="M26.55,399.49a9.75,9.75,0,0,0-.1,1.63v6.35a9.91,9.91,0,0,0,.1,1.63H24.37a10.15,10.15,0,0,0,.1-1.63v-6.35a9.91,9.91,0,0,0-.1-1.63Z"/><path class="cls-2" d="M33.72,405.46a7.4,7.4,0,0,0-1.19.06v-1.78a10.52,10.52,0,0,0,1.47.07h.78c.57,0,1,0,1.47-.06a10.41,10.41,0,0,0-.08,1.53v1.29a10.68,10.68,0,0,0,.08,1.63,6.41,6.41,0,0,1-1.91.86,7.85,7.85,0,0,1-1.9.24,4.5,4.5,0,0,1-3.54-1.41,5.75,5.75,0,0,1-1.14-3.66,4.77,4.77,0,0,1,2.27-4.4,4.85,4.85,0,0,1,2.45-.55,4.07,4.07,0,0,1,2.93,1.1,3.48,3.48,0,0,1,.86,1.45l-2,.5a1.72,1.72,0,0,0-.71-1,2.11,2.11,0,0,0-1.28-.32,2.35,2.35,0,0,0-1.67.66,3.67,3.67,0,0,0-.83,2.6,4,4,0,0,0,.79,2.63,2.4,2.4,0,0,0,1.89.73,3.46,3.46,0,0,0,1.85-.48v-1.66Z"/><path class="cls-2" d="M39.28,409.1c-.73,0-1.17,0-1.61,0a10.1,10.1,0,0,0,.1-1.65v-6.18a12.84,12.84,0,0,0-.1-1.82h2.16a10.61,10.61,0,0,0-.1,1.8v6.06H42.9a13.68,13.68,0,0,0,1.75-.08v1.92a14,14,0,0,0-1.75-.09Z"/><path class="cls-2" d="M52.91,400.52a5.15,5.15,0,0,1,1.36,3.75c0,3.05-1.82,5.05-4.59,5.05s-4.59-2-4.59-5,1.8-5,4.59-5A4.3,4.3,0,0,1,52.91,400.52Zm-.67,3.76a3.63,3.63,0,0,0-.88-2.63,2.33,2.33,0,0,0-1.68-.66c-1.57,0-2.56,1.27-2.56,3.26s1,3.35,2.58,3.35S52.24,406.34,52.24,404.28Z"/><path class="cls-2" d="M57.14,409.1c-.78,0-1.12,0-1.62,0a10.74,10.74,0,0,0,.09-1.67v-6.42a11.78,11.78,0,0,0-.09-1.6c.59,0,.72,0,1.61,0h2.94c1.88,0,3,.85,3,2.38a2.14,2.14,0,0,1-.68,1.69,2.26,2.26,0,0,1-.88.49,2.54,2.54,0,0,1,1.14.56,2.33,2.33,0,0,1,.75,1.84c0,1.71-1.13,2.65-3.15,2.65Zm2.67-5.79a1.09,1.09,0,0,0,1.24-1.11c0-.7-.43-1.08-1.25-1.08H57.55v2.19Zm-2.26,4.15h2.36c.9,0,1.42-.47,1.42-1.29s-.52-1.27-1.45-1.27H57.55Z"/><path class="cls-2" d="M71.66,409.19A11.29,11.29,0,0,0,70,409.1H66.23c-.8,0-1.13,0-1.62,0a10.26,10.26,0,0,0,.1-1.65v-6.42a11.44,11.44,0,0,0-.1-1.62c.49,0,.8,0,1.61,0h3.67a14.53,14.53,0,0,0,1.64-.08v1.87a12.08,12.08,0,0,0-1.64-.09H66.66v2.12h2.7a16.43,16.43,0,0,0,1.65-.08v1.84a12.29,12.29,0,0,0-1.65-.08H66.65v2.4H70a14.62,14.62,0,0,0,1.63-.08Z"/><path class="cls-2" d="M75.8,402.91a13.11,13.11,0,0,1-1.79.92,4.87,4.87,0,0,0-.78-1.47,9.78,9.78,0,0,0,2.85-1.49A7.14,7.14,0,0,0,78,398.92h1.64a7.31,7.31,0,0,0,2,1.91,11.32,11.32,0,0,0,2.94,1.45,6.8,6.8,0,0,0-.74,1.58,10.87,10.87,0,0,1-1.89-1v.8a8.75,8.75,0,0,0-1.1-.05h-4a8.91,8.91,0,0,0-1,.05Zm-.62,3a10.72,10.72,0,0,0-1.4.07V404.4c.4,0,.87.06,1.4.06H82.6c.57,0,1,0,1.41-.06V406a11,11,0,0,0-1.41-.07h-4A15,15,0,0,1,77.47,408c2.37-.12,2.37-.12,3.38-.23-.38-.43-.57-.64-1.14-1.23l1.42-.6a25.66,25.66,0,0,1,2.69,3.16l-1.39.88c-.33-.52-.43-.68-.62-1-1.14.15-1.16.15-1.81.21s-4,.37-4.5.39-1,.1-1.3.14l-.2-1.69a8.25,8.25,0,0,0,.83,0l.84,0a15.34,15.34,0,0,0,1.16-2.17ZM81,402.24a9,9,0,0,1-2.1-2,9,9,0,0,1-2.08,2Z"/><path class="cls-2" d="M87.26,407.79a12.11,12.11,0,0,0-1.31,0c0-.31,0-.63,0-1.24v-3c0-.63,0-.89,0-1.27a11.78,11.78,0,0,0,1.31,0h6.46a12.46,12.46,0,0,0,1.31,0,7.9,7.9,0,0,0,0,1.27v3a6.53,6.53,0,0,0,0,1.24,12.11,12.11,0,0,0-1.31,0h-.89a10.18,10.18,0,0,0,3.33.86,6.24,6.24,0,0,0-.82,1.35,9.68,9.68,0,0,1-4.1-1.55l.73-.66H89l.79.7a11.19,11.19,0,0,1-4.12,1.5,4.76,4.76,0,0,0-.81-1.36,9.78,9.78,0,0,0,3.3-.84Zm7.3-6.76c0,.33,0,.61,0,.88l-1.25,0H87.67l-1.27,0c0-.27,0-.56,0-.88v-1a7.22,7.22,0,0,0-.06-.92,12.58,12.58,0,0,0,1.35.05h5.55a12.2,12.2,0,0,0,1.32-.05,8.66,8.66,0,0,0,0,.92ZM87.5,403.9h6v-.46h-6Zm0,1.37h6v-.46h-6Zm0,1.41h6v-.5h-6Zm.5-6.4v.56h5v-.56Z"/><rect class="cls-3" x="119.93" y="351.15" width="106.31" height="75.13" rx="5.55"/><path class="cls-2" d="M145.86,371.75a6,6,0,0,0-.84.13c-.59.09-.91.14-1.45.2v1.29a7.94,7.94,0,0,1,2.08-.25,4.41,4.41,0,0,1,2.51.64,2.83,2.83,0,0,1,1.19,2.34,2.74,2.74,0,0,1-2.81,2.83c-1.43,0-2.23-.95-2.23-2.65a1.34,1.34,0,0,1,0-.25,5.8,5.8,0,0,0,1.56-.64,3.32,3.32,0,0,0-.06.65c0,.85.23,1.22.78,1.22a1.07,1.07,0,0,0,1-1.16c0-.93-.77-1.53-2-1.53a6.83,6.83,0,0,0-2,.32v2.23c0,.88,0,1.13-.2,1.37a1.27,1.27,0,0,1-1.09.48,4,4,0,0,1-2.1-.67,2,2,0,0,1-1-1.63,2.66,2.66,0,0,1,1.06-1.87,6.67,6.67,0,0,1,1.73-1v-1.62l-1.06,0-.75,0h-.49V370.6a7.86,7.86,0,0,0,1.49.11h.58a.66.66,0,0,0,.23,0v-.59a8.86,8.86,0,0,0-.07-1.46h1.75a8.13,8.13,0,0,0-.07,1.37v.58a12.3,12.3,0,0,0,2.22-.43ZM142,375.41c-.72.36-1.2.86-1.2,1.25a.56.56,0,0,0,.33.46,1.33,1.33,0,0,0,.65.22c.18,0,.22-.09.22-.48Zm6.59-2.49a10.51,10.51,0,0,0-2.35-2.66l1.3-.92a10,10,0,0,1,2.36,2.54Z"/><path class="cls-2" d="M155.14,369.42a4.54,4.54,0,0,0-.07-1h1.8a5.4,5.4,0,0,0-.06,1v.37h3a11.54,11.54,0,0,0,1.54-.08v1.57a11.74,11.74,0,0,0-1.52-.08h-3v1.35h1.58a4.93,4.93,0,0,0,1-.06l.92.93a10.17,10.17,0,0,0-.61.82,11.09,11.09,0,0,1-2.13,2.32,11.28,11.28,0,0,0,4,1.17,7.74,7.74,0,0,0-.73,1.66,14.08,14.08,0,0,1-2.73-.79,15.81,15.81,0,0,1-2-1,15.3,15.3,0,0,1-1.81.91,15.57,15.57,0,0,1-3,.86,7.59,7.59,0,0,0-.74-1.52,13,13,0,0,0,4.23-1.21,9.67,9.67,0,0,1-1.89-2.23l1.18-.47h-1a12.15,12.15,0,0,0-1.45.08v-1.52a12.13,12.13,0,0,0,1.5.07h2V371.2H152.3a12,12,0,0,0-1.51.08v-1.57a11.91,11.91,0,0,0,1.53.08h2.82Zm-.75,4.5a6.06,6.06,0,0,0,1.82,1.85,7.16,7.16,0,0,0,1.79-1.85Z"/><path class="cls-2" d="M166.19,370.57a7.26,7.26,0,0,0,.83-.05V372c-.33,0-.55,0-.83,0h-.52v1.59c.57-.15.7-.19,1.3-.38l0,1.36c-.64.22-.72.24-1.32.43v3.16c0,1-.45,1.26-1.8,1.26l-.91,0a5.69,5.69,0,0,0-.33-1.52,9.09,9.09,0,0,0,1.19.1c.28,0,.33-.07.33-.37v-2.16c-.28.07-.41.1-.7.19l-.68.17-.26-1.58a10,10,0,0,0,1.64-.26v-2h-.62a6.54,6.54,0,0,0-.89.06v-1.48a8.87,8.87,0,0,0,.9.06h.61v-.9a6.7,6.7,0,0,0-.07-1.21h1.66a6.46,6.46,0,0,0-.07,1.19v.92Zm5.72,8.71c-.13-.57-.18-.74-.26-1-1.62.34-2.62.51-4.28.73a10.21,10.21,0,0,0-1.05.18l-.28-1.7h.14a5.24,5.24,0,0,0,.67-.05,44,44,0,0,0,1.89-8.86l1.79.29c-.05.2-.05.2-.68,3.2-.35,1.67-.89,3.85-1.32,5.23,1.11-.12,1.5-.18,2.72-.4a20.92,20.92,0,0,0-1.27-3.2l1.41-.5a36.32,36.32,0,0,1,2.1,5.55Z"/><path class="cls-2" d="M176,369.55a13.86,13.86,0,0,0-.11,1.95c0,2.83.44,4.92,1,4.92.16,0,.3-.17.43-.49a10.68,10.68,0,0,0,.63-2.1,5.92,5.92,0,0,0,1.39,1.28c-.63,2.31-1.39,3.37-2.48,3.37-.87,0-1.56-.63-2.06-1.86s-.65-2.71-.72-6.29a5.11,5.11,0,0,0,0-.79Zm5.52.47a12.09,12.09,0,0,1,2.7,6.61l-1.79.66a11.63,11.63,0,0,0-.72-3.53,10.51,10.51,0,0,0-1.7-3Z"/><path class="cls-2" d="M189.23,369.36a4.48,4.48,0,0,0-.09-1h1.8a5,5,0,0,0-.07,1V370h3.07a12.56,12.56,0,0,0,1.56-.08v1.65a11.21,11.21,0,0,0-1.5-.07h-4.27c0,.53-.06.79-.08,1.14h3.4a11.32,11.32,0,0,0,1.23-.05.9.9,0,0,0,0,.23c-.05.37-.08.86-.1,1.41a16.81,16.81,0,0,1-.45,3.77c-.29,1-.76,1.27-2,1.27-.33,0-.62,0-1.55-.07a4.85,4.85,0,0,0-.4-1.62,10.31,10.31,0,0,0,1.74.15c.55,0,.69-.15.82-.92a17.44,17.44,0,0,0,.22-2.71h-3.09a8.1,8.1,0,0,1-1,2.59,8.43,8.43,0,0,1-2.74,2.71,4.68,4.68,0,0,0-1.12-1.34,6.83,6.83,0,0,0,2.21-1.9,6.16,6.16,0,0,0,1.19-3.24,12.73,12.73,0,0,0,.08-1.42h-1.71a14.21,14.21,0,0,0-1.55.07v-1.65a13.47,13.47,0,0,0,1.55.08h2.89Z"/><path class="cls-2" d="M197.07,371.33a14.51,14.51,0,0,1,2.15,1.45l-.89,1.3a12.64,12.64,0,0,0-2.15-1.57Zm2.12,4.14c-.5,1.38-.67,1.8-1.09,2.73-.12.28-.22.47-.24.54l-.27.59-1.37-1.18a13.67,13.67,0,0,0,1.68-3.58Zm-1.6-7.06a13.85,13.85,0,0,1,2.09,1.51l-1,1.23a11.62,11.62,0,0,0-2.08-1.65Zm1.49,9.06h.4l.81,0a16,16,0,0,0,1.33-3h-1a10.8,10.8,0,0,0-1.33.07v-1.6a9.64,9.64,0,0,0,1.34.07h1.68v-1.55H201c-.49,0-.9,0-1.3.06V370A8.81,8.81,0,0,0,201,370h1.26v-.36a7.85,7.85,0,0,0-.06-1.28h1.68a9.32,9.32,0,0,0-.06,1.28V370h1.73a9.37,9.37,0,0,0,1.28-.07v1.56a10.09,10.09,0,0,0-1.27-.06h-1.74V373h2.09a10.25,10.25,0,0,0,1.31-.07v1.6a10,10,0,0,0-1.3-.07h-2.67a20.12,20.12,0,0,1-1.27,2.87c1.88-.18,1.88-.18,2.72-.32a14.94,14.94,0,0,0-1-1.51l1.29-.66a26,26,0,0,1,2.32,3.62l-1.41.84c-.23-.51-.31-.67-.49-1.05a41.6,41.6,0,0,1-4.12.6c-1.26.13-1.5.16-1.93.24Z"/><path class="cls-2" d="M154,390.39c-.72.58-1.07,1.07-1.07,1.53,0,.69.82,1,2.67,1a12.86,12.86,0,0,0,3.84-.52l.13,1.94a10.42,10.42,0,0,0-1.07.1,18.8,18.8,0,0,1-2.67.19,9.08,9.08,0,0,1-3.11-.39,2.11,2.11,0,0,1-1.58-2.06,3.4,3.4,0,0,1,1.61-2.69Zm-2.09-5.1a17.76,17.76,0,0,0,3.82.29,15.93,15.93,0,0,0,3.09-.21l.06,1.56a22.41,22.41,0,0,0-3.23,2l-1.2-.89c.41-.28,1.22-.77,1.56-1a10.44,10.44,0,0,1-1.35.07,23.14,23.14,0,0,1-2.45-.14,1.82,1.82,0,0,0-.41,0ZM158,387.9a6.15,6.15,0,0,1,1.05,1.49l-1,.57a6.44,6.44,0,0,0-1.05-1.51Zm1.3-.71a6.58,6.58,0,0,1,1,1.43l-.94.56a8.48,8.48,0,0,0-1-1.47Z"/><path class="cls-2" d="M172.38,386.52l-.23.27a10.94,10.94,0,0,1-.93,1,10.11,10.11,0,0,0,1.6.72,5.78,5.78,0,0,0-.67,1.44,11.33,11.33,0,0,1-1.13-.54,6.62,6.62,0,0,0,0,.73v1.59c0,.41,0,.63,0,.87l-.81,0h-1.53l1.23.36-.26.5a3.32,3.32,0,0,1-.17.31h1.91a7,7,0,0,0,1.15-.06v1.5a8.25,8.25,0,0,0-1.26-.06h-8.22a8.8,8.8,0,0,0-1.27.06v-1.5a7.2,7.2,0,0,0,1.16.06h2a5.48,5.48,0,0,0-.48-.82l1.16-.35h-1.46l-.82,0c0-.32,0-.5,0-.87v-1.58c0-.28,0-.45,0-.69-.37.2-.56.29-1.11.54a5,5,0,0,0-.7-1.37,10,10,0,0,0,2-1,9.42,9.42,0,0,0-1.55-1.38l1.08-.9c.32.24.43.33.61.48v-1.33a6.92,6.92,0,0,0,1,.05h2.23a7.19,7.19,0,0,0,1,0,2.76,2.76,0,0,0,.71,1.19,5.47,5.47,0,0,0,.9-1.16l1.19.74a12.48,12.48,0,0,1-1.15,1.3,7.4,7.4,0,0,0,.59.45,5.85,5.85,0,0,0,1.06-1.29Zm-7.26,1.76a13,13,0,0,1-1.63,1.1c.29,0,.42,0,.75,0h5.88c.37,0,.54,0,.79,0a.91.91,0,0,1-.16-.1,7.25,7.25,0,0,1-1.43-.95v.59a4.47,4.47,0,0,0-.74,0h-2.8a4.24,4.24,0,0,0-.66,0Zm-.81-2.4a4.45,4.45,0,0,0-.65,0c.42.36.69.61,1,.93a5.41,5.41,0,0,0,.94-1Zm.5,5.49h4.67v-.75h-4.67Zm3.71-3.7a9,9,0,0,1-1.33-1.51,9.94,9.94,0,0,1-1.34,1.51Zm-.62,6.1a6.88,6.88,0,0,0,.52-1.17h-2.56a6.31,6.31,0,0,1,.57,1.17Z"/><path class="cls-2" d="M175.1,388.4c-.24,0-.41,0-.66,0v-.54c-.16.14-.25.22-.52.43a4.35,4.35,0,0,0-.59-1.39,5.2,5.2,0,0,0,2-2.42h1.51a4.35,4.35,0,0,0,1.73,1.88,5.59,5.59,0,0,0-.85,1.28l0,0v.8a4.24,4.24,0,0,0-.67,0h-.31v.65h.47a5.5,5.5,0,0,0,.77,0v-.9a8.9,8.9,0,0,0,1.14.06h2.85l0-.52h-2.22a9.51,9.51,0,0,0-1.1.05v-1.29a5.8,5.8,0,0,0,1.1.06H182c0-.05,0-.05,0-.09s0-.2,0-.37h-2.53a8,8,0,0,0-1.11.05v-1.37a9.73,9.73,0,0,0,1.19.05h2.9a10,10,0,0,0,1.08,0,16.71,16.71,0,0,0-.12,2c0,.28,0,.79-.07,1.51a7,7,0,0,0,1.12-.06v1.4c-.34,0-.74-.06-1.15-.06H182a5.88,5.88,0,0,0,.45,1.38,4.53,4.53,0,0,0,1.07-1.25l1.06.82a12.06,12.06,0,0,1-1.49,1.53,5.49,5.49,0,0,0,1.67,1.57,7,7,0,0,0-.81,1.41,6.68,6.68,0,0,1-2.14-3.07c0,.3.06.71.08,1.23v1.15c0,.88-.34,1.17-1.39,1.17-.25,0-.55,0-1,0a4.11,4.11,0,0,0-.33-1.38l-.65.44-.58-1.35a11.52,11.52,0,0,0,2.6-1.6v-2h-1.38a7.55,7.55,0,0,0-1.06.05v.89a4.94,4.94,0,0,0-.86-.05h-.46v2.93c.52-.12.64-.14,1.11-.28v1.31a22.24,22.24,0,0,1-3,.72c-.67.12-.67.12-1,.21l-.2-1.52a12.87,12.87,0,0,0,1.78-.19v-3.18h-.53a7.14,7.14,0,0,0-1.17.07V389a7.44,7.44,0,0,0,1.18.07h.52v-.65Zm-1,4.88a12.66,12.66,0,0,0-.49-2.26l1-.33a11.71,11.71,0,0,1,.52,2.25Zm2.93-6.1h.17a6.34,6.34,0,0,1-1.06-1.41,6.41,6.41,0,0,1-1,1.41Zm-.24,5.35a8,8,0,0,0,.45-1.86l1,.32a8.7,8.7,0,0,1-.55,1.84Zm2.38-2.92a7.46,7.46,0,0,1,1.15,1.59l-1.07.78a6.49,6.49,0,0,0-1.12-1.69Zm1.29,3.29a13.26,13.26,0,0,1-1.34,1.06,4.86,4.86,0,0,0,.85.09c.41,0,.49-.05.49-.29Z"/><path class="cls-2" d="M190.55,391.8c-.67,1.51-1.45,2.2-2.46,2.2-1.47,0-2.51-1.43-2.51-3.46A5.1,5.1,0,0,1,186.9,387a5.52,5.52,0,0,1,4.17-1.71c3,0,4.86,1.78,4.86,4.54a4.64,4.64,0,0,1-3,4.57,8.65,8.65,0,0,1-1.88.48,4.87,4.87,0,0,0-.88-1.67,6.13,6.13,0,0,0,2.34-.57,3.26,3.26,0,0,0,1.64-2.91,2.89,2.89,0,0,0-1.27-2.47,2.26,2.26,0,0,0-1.1-.38A16.91,16.91,0,0,1,190.55,391.8Zm-1.88-4.28a3.89,3.89,0,0,0-1.46,3c0,.89.38,1.61.84,1.61s.71-.46,1.09-1.42a15.41,15.41,0,0,0,1-3.81A2.68,2.68,0,0,0,188.67,387.52Z"/><path class="cls-2" d="M134.54,410.62c-.79,0-1.13,0-1.62,0A10.68,10.68,0,0,0,133,409v-6.42a11.6,11.6,0,0,0-.09-1.6c.59,0,.72,0,1.6,0h2.95c1.88,0,2.94.86,2.94,2.38a2.11,2.11,0,0,1-.67,1.69,2.31,2.31,0,0,1-.89.5,2.39,2.39,0,0,1,1.15.56,2.31,2.31,0,0,1,.74,1.84c0,1.7-1.12,2.65-3.14,2.65Zm2.67-5.8a1.08,1.08,0,0,0,1.24-1.11c0-.69-.44-1.07-1.25-1.07H135v2.18ZM135,409h2.35a1.24,1.24,0,0,0,1.42-1.29c0-.82-.52-1.27-1.44-1.27H135Z"/><path class="cls-2" d="M144.18,401a10.09,10.09,0,0,0-.09,1.64V409a10.18,10.18,0,0,0,.09,1.63H142a10.34,10.34,0,0,0,.09-1.63v-6.35A10.17,10.17,0,0,0,142,401Z"/><path class="cls-2" d="M151.36,407a7.54,7.54,0,0,0-1.2.06v-1.79a9.36,9.36,0,0,0,1.48.07h.78a13.55,13.55,0,0,0,1.47-.06,10.32,10.32,0,0,0-.09,1.54v1.29a10.5,10.5,0,0,0,.09,1.63,6.55,6.55,0,0,1-1.92.85,7.31,7.31,0,0,1-1.89.25,4.51,4.51,0,0,1-3.55-1.42,5.78,5.78,0,0,1-1.13-3.65,4.75,4.75,0,0,1,2.27-4.4,4.85,4.85,0,0,1,2.45-.56,4.07,4.07,0,0,1,2.93,1.1,3.63,3.63,0,0,1,.86,1.46l-2,.49a1.74,1.74,0,0,0-.71-1,2.17,2.17,0,0,0-1.27-.32,2.3,2.3,0,0,0-1.67.67,3.62,3.62,0,0,0-.83,2.6,3.94,3.94,0,0,0,.78,2.62,2.4,2.4,0,0,0,1.89.74,3.41,3.41,0,0,0,1.86-.49V407Z"/><path class="cls-2" d="M156.92,410.62c-.74,0-1.17,0-1.61,0a10.09,10.09,0,0,0,.09-1.64v-6.18a13.31,13.31,0,0,0-.09-1.83h2.15a12.06,12.06,0,0,0-.09,1.8v6.07h3.17a13.78,13.78,0,0,0,1.75-.08v1.91a14.7,14.7,0,0,0-1.75-.08Z"/><path class="cls-2" d="M170.55,402a5.16,5.16,0,0,1,1.36,3.75c0,3.05-1.82,5.05-4.59,5.05s-4.59-2-4.59-5,1.8-5,4.59-5A4.36,4.36,0,0,1,170.55,402Zm-.67,3.76a3.62,3.62,0,0,0-.88-2.62,2.31,2.31,0,0,0-1.68-.66c-1.57,0-2.57,1.26-2.57,3.26s1,3.35,2.58,3.35S169.88,407.85,169.88,405.79Z"/><path class="cls-2" d="M174.78,410.62c-.78,0-1.13,0-1.62,0a10.68,10.68,0,0,0,.09-1.66v-6.42a11.6,11.6,0,0,0-.09-1.6c.59,0,.72,0,1.6,0h3c1.88,0,2.94.86,2.94,2.38a2.11,2.11,0,0,1-.67,1.69,2.31,2.31,0,0,1-.89.5,2.39,2.39,0,0,1,1.15.56A2.32,2.32,0,0,1,181,408c0,1.7-1.13,2.65-3.15,2.65Zm2.67-5.8a1.08,1.08,0,0,0,1.24-1.11c0-.69-.44-1.07-1.25-1.07h-2.25v2.18ZM175.19,409h2.35a1.24,1.24,0,0,0,1.42-1.29c0-.82-.52-1.27-1.44-1.27h-2.33Z"/><path class="cls-2" d="M189.3,410.7a11.73,11.73,0,0,0-1.65-.08h-3.78c-.8,0-1.13,0-1.62,0a10.32,10.32,0,0,0,.09-1.64v-6.42a11.53,11.53,0,0,0-.09-1.62c.49,0,.79,0,1.61,0h3.66a14.71,14.71,0,0,0,1.65-.08v1.87a12.48,12.48,0,0,0-1.65-.08H184.3v2.11H187a14.21,14.21,0,0,0,1.66-.08v1.85a12.2,12.2,0,0,0-1.66-.09h-2.71v2.4h3.39a12.54,12.54,0,0,0,1.63-.08Z"/><path class="cls-2" d="M193.44,404.42a13.15,13.15,0,0,1-1.79.93,5.09,5.09,0,0,0-.78-1.47,10.43,10.43,0,0,0,2.85-1.49,7.58,7.58,0,0,0,1.93-1.95h1.64a7.14,7.14,0,0,0,2,1.9,11.3,11.3,0,0,0,2.93,1.46,7.18,7.18,0,0,0-.73,1.58,10.61,10.61,0,0,1-1.89-1v.8c-.33,0-.64,0-1.1,0h-4c-.37,0-.72,0-1.05,0Zm-.62,3a10.64,10.64,0,0,0-1.41.08v-1.58q.61.06,1.41.06h7.42a13.75,13.75,0,0,0,1.4-.06v1.58a10.58,10.58,0,0,0-1.4-.08h-4a13.66,13.66,0,0,1-1.14,2.1c2.38-.12,2.38-.12,3.39-.24-.38-.42-.57-.64-1.14-1.23l1.42-.59a24,24,0,0,1,2.68,3.16l-1.38.87c-.33-.52-.44-.67-.63-1-1.13.16-1.16.16-1.81.22l-4.49.39a11.42,11.42,0,0,0-1.3.14l-.2-1.69c.35,0,.53,0,.83,0h.84a14.37,14.37,0,0,0,1.15-2.18Zm5.77-3.65a9.37,9.37,0,0,1-2.09-2,9.2,9.2,0,0,1-2.08,2Z"/><path class="cls-2" d="M204.9,409.31c-.58,0-.91,0-1.32,0a11.54,11.54,0,0,0,0-1.24v-3a10.51,10.51,0,0,0,0-1.26c.36,0,.76.05,1.32.05h6.45c.59,0,.88,0,1.32-.05a7.75,7.75,0,0,0,0,1.26v3a6.35,6.35,0,0,0,0,1.24c-.38,0-.75,0-1.32,0h-.88a10.18,10.18,0,0,0,3.33.86,6.5,6.5,0,0,0-.83,1.35,10,10,0,0,1-4.09-1.55l.72-.66h-3l.79.69a11.17,11.17,0,0,1-4.13,1.51,4.52,4.52,0,0,0-.8-1.36,10,10,0,0,0,3.3-.84Zm7.29-6.77a8.09,8.09,0,0,0,0,.89l-1.26,0h-5.66l-1.28,0a8.08,8.08,0,0,0,.05-.89v-1a7,7,0,0,0-.06-.92c.43,0,.71,0,1.35,0h5.55c.61,0,.89,0,1.32,0a6.54,6.54,0,0,0-.05.92Zm-7.06,2.88h6V405h-6Zm0,1.37h6v-.46h-6Zm0,1.4h6v-.49h-6Zm.51-6.39v.55h5v-.55Z"/><rect class="cls-4" x="237.57" y="351.15" width="106.31" height="75.13" rx="5.55"/><path class="cls-2" d="M252.17,378.62c-.78,0-1.12,0-1.62,0a10.68,10.68,0,0,0,.09-1.66v-6.42a11.6,11.6,0,0,0-.09-1.6c.59,0,.72,0,1.61,0h2.94c1.88,0,3,.86,3,2.38a2.11,2.11,0,0,1-.68,1.69,2.26,2.26,0,0,1-.88.5,2.35,2.35,0,0,1,1.14.56,2.32,2.32,0,0,1,.75,1.84c0,1.7-1.13,2.65-3.15,2.65Zm2.67-5.8c.78,0,1.25-.42,1.25-1.11s-.44-1.07-1.26-1.07h-2.25v2.18ZM252.58,377h2.36a1.24,1.24,0,0,0,1.42-1.29c0-.82-.52-1.27-1.45-1.27h-2.33Z"/><path class="cls-2" d="M261.82,369a10.09,10.09,0,0,0-.09,1.64V377a10.18,10.18,0,0,0,.09,1.63h-2.18a10.15,10.15,0,0,0,.1-1.63v-6.35a10,10,0,0,0-.1-1.64Z"/><path class="cls-2" d="M269,375a7.4,7.4,0,0,0-1.19.06v-1.79a9.36,9.36,0,0,0,1.48.07h.78a13.36,13.36,0,0,0,1.46-.06,10.56,10.56,0,0,0-.08,1.54v1.29a10.68,10.68,0,0,0,.08,1.63,6.62,6.62,0,0,1-1.91.85,7.38,7.38,0,0,1-1.9.25,4.5,4.5,0,0,1-3.54-1.42,5.78,5.78,0,0,1-1.14-3.65,4.77,4.77,0,0,1,2.27-4.4,4.85,4.85,0,0,1,2.45-.56,4.07,4.07,0,0,1,2.93,1.1,3.53,3.53,0,0,1,.87,1.46l-2,.49a1.78,1.78,0,0,0-.71-1,2.19,2.19,0,0,0-1.28-.32,2.32,2.32,0,0,0-1.67.67,3.67,3.67,0,0,0-.82,2.6,3.94,3.94,0,0,0,.78,2.62,2.37,2.37,0,0,0,1.89.74,3.38,3.38,0,0,0,1.85-.49V375Z"/><path class="cls-2" d="M274.55,378.62c-.73,0-1.17,0-1.61,0A8.89,8.89,0,0,0,273,377v-6.18a11.71,11.71,0,0,0-.1-1.83h2.16a10.75,10.75,0,0,0-.1,1.8v6.07h3.17a13.68,13.68,0,0,0,1.75-.08v1.91a14.46,14.46,0,0,0-1.75-.08Z"/><path class="cls-2" d="M288.18,370a5.16,5.16,0,0,1,1.36,3.75c0,3.05-1.82,5.05-4.58,5.05s-4.59-2-4.59-5,1.79-5,4.59-5A4.33,4.33,0,0,1,288.18,370Zm-.67,3.76a3.62,3.62,0,0,0-.88-2.62,2.27,2.27,0,0,0-1.67-.66c-1.58,0-2.57,1.26-2.57,3.26s1,3.35,2.58,3.35S287.51,375.85,287.51,373.79Z"/><path class="cls-2" d="M292.41,378.62c-.78,0-1.12,0-1.62,0a10.48,10.48,0,0,0,.1-1.66v-6.42a11.54,11.54,0,0,0-.1-1.6c.59,0,.72,0,1.61,0h2.94c1.88,0,3,.86,3,2.38a2.11,2.11,0,0,1-.68,1.69,2.19,2.19,0,0,1-.88.5,2.43,2.43,0,0,1,1.15.56,2.34,2.34,0,0,1,.74,1.84c0,1.7-1.12,2.65-3.15,2.65Zm2.67-5.8c.78,0,1.25-.42,1.25-1.11s-.44-1.07-1.26-1.07h-2.24v2.18ZM292.83,377h2.35a1.24,1.24,0,0,0,1.42-1.29c0-.82-.52-1.27-1.44-1.27h-2.33Z"/><path class="cls-2" d="M306.93,378.7a11.49,11.49,0,0,0-1.64-.08H301.5c-.8,0-1.13,0-1.62,0A9.09,9.09,0,0,0,300,377v-6.42a10.13,10.13,0,0,0-.1-1.62c.49,0,.8,0,1.61,0h3.67a14.53,14.53,0,0,0,1.64-.08v1.87a12.32,12.32,0,0,0-1.64-.08h-3.23v2.11h2.7a13.92,13.92,0,0,0,1.65-.08v1.85a12,12,0,0,0-1.65-.09h-2.71v2.4h3.38a12.54,12.54,0,0,0,1.63-.08Z"/><path class="cls-2" d="M311.07,372.42a13.64,13.64,0,0,1-1.78.93,4.87,4.87,0,0,0-.79-1.47,10.15,10.15,0,0,0,2.85-1.49,7.42,7.42,0,0,0,1.93-1.95h1.65a7.1,7.1,0,0,0,2,1.9,11.51,11.51,0,0,0,2.94,1.46,6.8,6.8,0,0,0-.74,1.58,11,11,0,0,1-1.89-1v.8c-.33,0-.64,0-1.1,0h-4c-.36,0-.72,0-1.05,0Zm-.61,3a10.53,10.53,0,0,0-1.41.08v-1.58q.6.06,1.41.06h7.41a13.83,13.83,0,0,0,1.41-.06v1.58a10.75,10.75,0,0,0-1.41-.08h-4a14.53,14.53,0,0,1-1.13,2.1c2.38-.12,2.38-.12,3.38-.24-.38-.42-.57-.64-1.13-1.23l1.41-.59a25,25,0,0,1,2.69,3.16l-1.38.87-.63-1c-1.14.16-1.16.16-1.81.22l-4.49.39a11.65,11.65,0,0,0-1.31.14l-.2-1.69c.36,0,.54,0,.83,0h.84a15.43,15.43,0,0,0,1.16-2.18Zm5.77-3.65a9.21,9.21,0,0,1-2.1-2,9.2,9.2,0,0,1-2.08,2Z"/><path class="cls-2" d="M322.53,377.31c-.58,0-.91,0-1.31,0,0-.3,0-.62,0-1.24v-3c0-.62,0-.88,0-1.26.35,0,.75.05,1.31.05H329c.59,0,.87,0,1.31-.05a7.75,7.75,0,0,0-.05,1.26v3a6.35,6.35,0,0,0,.05,1.24c-.38,0-.74,0-1.31,0h-.89a10.17,10.17,0,0,0,3.34.86,5.74,5.74,0,0,0-.83,1.35,10,10,0,0,1-4.09-1.55l.72-.66h-3l.8.69a11.24,11.24,0,0,1-4.13,1.51,4.76,4.76,0,0,0-.81-1.36,10,10,0,0,0,3.3-.84Zm7.3-6.77c0,.33,0,.62,0,.89l-1.25,0h-5.67l-1.27,0c0-.27,0-.57,0-.89v-1c0-.36,0-.57,0-.92.42,0,.71,0,1.34,0h5.55c.62,0,.9,0,1.33,0a6.54,6.54,0,0,0-.05.92Zm-7.06,2.88h6V373h-6Zm0,1.37h6v-.46h-6Zm0,1.4h6v-.49h-6Zm.51-6.39v.55h5v-.55Z"/><path class="cls-2" d="M255.7,396.53a10.85,10.85,0,0,1-1.29-2.18,9.71,9.71,0,0,1-.75-3.7,9.24,9.24,0,0,1,.47-2.94,9.46,9.46,0,0,1,1.57-2.88l1.43,1a7.86,7.86,0,0,0-1.27,2.35,8.16,8.16,0,0,0-.39,2.58,8.05,8.05,0,0,0,.36,2.47,8.34,8.34,0,0,0,1.28,2.36Z"/><path class="cls-2" d="M267.27,387.75a6,6,0,0,0-.84.13c-.59.09-.91.14-1.45.2v1.29a7.94,7.94,0,0,1,2.08-.25,4.41,4.41,0,0,1,2.51.64,2.83,2.83,0,0,1,1.19,2.34,2.74,2.74,0,0,1-2.81,2.83c-1.43,0-2.23-.95-2.23-2.65a1.34,1.34,0,0,1,0-.25,5.8,5.8,0,0,0,1.56-.64,3.32,3.32,0,0,0-.06.65c0,.85.23,1.22.78,1.22a1.07,1.07,0,0,0,1-1.16c0-.93-.77-1.53-2-1.53a6.83,6.83,0,0,0-2.05.32v2.23c0,.88,0,1.13-.2,1.37a1.27,1.27,0,0,1-1.09.48,4,4,0,0,1-2.1-.67,2,2,0,0,1-1-1.63,2.66,2.66,0,0,1,1.06-1.87,6.67,6.67,0,0,1,1.73-1v-1.62l-1.06,0-.75,0h-.49V386.6a7.86,7.86,0,0,0,1.49.11h.58a.66.66,0,0,0,.23,0v-.59a8.86,8.86,0,0,0-.07-1.46h1.75A8.13,8.13,0,0,0,265,386v.58a12.3,12.3,0,0,0,2.22-.43Zm-3.88,3.66c-.72.36-1.2.86-1.2,1.25a.56.56,0,0,0,.33.46,1.33,1.33,0,0,0,.65.22c.18,0,.22-.09.22-.48Zm6.59-2.49a10.51,10.51,0,0,0-2.35-2.66l1.3-.92a10.19,10.19,0,0,1,2.36,2.54Z"/><path class="cls-2" d="M276.55,385.42a4.54,4.54,0,0,0-.07-1h1.8a5.4,5.4,0,0,0-.06,1v.37h3a11.54,11.54,0,0,0,1.54-.08v1.57a11.8,11.8,0,0,0-1.53-.08h-3v1.35h1.58a4.93,4.93,0,0,0,1-.06l.92.93c-.15.17-.33.42-.62.82a10.76,10.76,0,0,1-2.12,2.32,11.22,11.22,0,0,0,4,1.17,7.74,7.74,0,0,0-.73,1.66,14.08,14.08,0,0,1-2.73-.79,16.63,16.63,0,0,1-2-1,14.51,14.51,0,0,1-1.8.91,15.57,15.57,0,0,1-3,.86,7.59,7.59,0,0,0-.74-1.52,13.1,13.1,0,0,0,4.23-1.21,9.67,9.67,0,0,1-1.89-2.23l1.18-.47h-1A12.15,12.15,0,0,0,273,390v-1.52a12.13,12.13,0,0,0,1.5.07h2V387.2h-2.84a12,12,0,0,0-1.51.08v-1.57a11.91,11.91,0,0,0,1.53.08h2.82Zm-.76,4.5a6.19,6.19,0,0,0,1.83,1.85,7.16,7.16,0,0,0,1.79-1.85Z"/><path class="cls-2" d="M287.6,386.57a7.26,7.26,0,0,0,.83-.05V388c-.34,0-.55,0-.83,0h-.52v1.59c.56-.15.7-.19,1.3-.38l0,1.36c-.64.22-.72.24-1.32.43v3.16c0,1-.45,1.26-1.8,1.26l-.91,0a5.69,5.69,0,0,0-.33-1.52,9.09,9.09,0,0,0,1.19.1c.27,0,.33-.07.33-.37v-2.16l-.71.19-.67.17-.26-1.58a10.17,10.17,0,0,0,1.64-.26v-2h-.62a6.54,6.54,0,0,0-.89.06v-1.48a8.87,8.87,0,0,0,.9.06h.61v-.9a6.7,6.7,0,0,0-.07-1.21h1.66a6.46,6.46,0,0,0-.07,1.19v.92Zm5.72,8.71c-.13-.57-.18-.74-.26-1-1.62.34-2.62.51-4.28.73a10.21,10.21,0,0,0-1,.18l-.29-1.7h.15a5.24,5.24,0,0,0,.67-.05,44,44,0,0,0,1.89-8.86l1.79.29c-.05.2-.05.2-.68,3.2-.35,1.67-.89,3.85-1.32,5.23,1.11-.12,1.5-.18,2.72-.4a20.92,20.92,0,0,0-1.27-3.2l1.41-.5a35.29,35.29,0,0,1,2.09,5.55Z"/><path class="cls-2" d="M297.36,385.55a13.86,13.86,0,0,0-.11,1.95c0,2.83.44,4.92,1,4.92.16,0,.3-.17.43-.49a10,10,0,0,0,.62-2.1,6.18,6.18,0,0,0,1.4,1.28c-.63,2.31-1.4,3.37-2.48,3.37-.87,0-1.56-.63-2.06-1.86s-.65-2.71-.72-6.29a5.11,5.11,0,0,0-.05-.79Zm5.52.47a12.16,12.16,0,0,1,2.7,6.61l-1.79.66a12.26,12.26,0,0,0-.72-3.53,10.51,10.51,0,0,0-1.7-3Z"/><path class="cls-2" d="M310.63,385.36a4.53,4.53,0,0,0-.08-1h1.8a5,5,0,0,0-.07,1V386h3.07a12.56,12.56,0,0,0,1.56-.08v1.65a11.31,11.31,0,0,0-1.5-.07h-4.27c0,.53-.06.79-.08,1.14h3.4a11,11,0,0,0,1.22-.05c0,.08,0,.08,0,.23-.05.37-.08.86-.11,1.41a16.39,16.39,0,0,1-.44,3.77c-.29,1-.76,1.27-2,1.27-.33,0-.62,0-1.55-.07a4.85,4.85,0,0,0-.4-1.62,10.23,10.23,0,0,0,1.74.15c.55,0,.69-.15.82-.92a17.44,17.44,0,0,0,.22-2.71h-3.09a8.1,8.1,0,0,1-1,2.59,8.43,8.43,0,0,1-2.74,2.71,4.68,4.68,0,0,0-1.12-1.34,6.83,6.83,0,0,0,2.21-1.9,6.16,6.16,0,0,0,1.19-3.24,12.73,12.73,0,0,0,.08-1.42h-1.71a14.21,14.21,0,0,0-1.55.07v-1.65a13.47,13.47,0,0,0,1.55.08h2.88Z"/><path class="cls-2" d="M318.48,387.33a14.51,14.51,0,0,1,2.15,1.45l-.89,1.3a12.64,12.64,0,0,0-2.15-1.57Zm2.11,4.14a28.25,28.25,0,0,1-1.08,2.73c-.12.28-.22.47-.24.54l-.27.59-1.37-1.18a13.67,13.67,0,0,0,1.68-3.58ZM319,384.41a13.85,13.85,0,0,1,2.09,1.51l-1,1.23A11.62,11.62,0,0,0,318,385.5Zm1.49,9.06h.4l.8,0a15.37,15.37,0,0,0,1.34-3h-1a10.69,10.69,0,0,0-1.33.07v-1.6A9.55,9.55,0,0,0,322,389h1.68v-1.55h-1.27c-.49,0-.9,0-1.3.06V386a8.72,8.72,0,0,0,1.31.07h1.26v-.36a7.85,7.85,0,0,0-.06-1.28h1.68a9.32,9.32,0,0,0-.06,1.28V386H327a9.37,9.37,0,0,0,1.28-.07v1.56a10.09,10.09,0,0,0-1.27-.06h-1.74V389h2.09a10.25,10.25,0,0,0,1.31-.07v1.6a10,10,0,0,0-1.3-.07h-2.68a20.09,20.09,0,0,1-1.26,2.87c1.88-.18,1.88-.18,2.72-.32a14.94,14.94,0,0,0-1-1.51l1.29-.66a26,26,0,0,1,2.32,3.62l-1.41.84c-.23-.51-.31-.67-.5-1.05a41,41,0,0,1-4.11.6c-1.27.13-1.5.16-1.93.24Z"/><path class="cls-2" d="M275.24,402.52l-.22.27a12.91,12.91,0,0,1-.94,1,10.11,10.11,0,0,0,1.6.72A5.42,5.42,0,0,0,275,406a11.68,11.68,0,0,1-1.14-.54,6.62,6.62,0,0,0,0,.73v1.59c0,.41,0,.63,0,.87l-.8,0h-1.54l1.23.36-.26.5a1.94,1.94,0,0,1-.17.31h1.91a7.2,7.2,0,0,0,1.16-.06v1.5a8.47,8.47,0,0,0-1.27-.06h-8.22a8.65,8.65,0,0,0-1.26.06v-1.5a7.06,7.06,0,0,0,1.16.06h1.95a5.48,5.48,0,0,0-.48-.82l1.16-.35H267l-.82,0c0-.32,0-.5,0-.87v-1.58c0-.28,0-.45,0-.69-.37.2-.56.29-1.11.54a4.77,4.77,0,0,0-.7-1.37,9.7,9.7,0,0,0,2-1,9.42,9.42,0,0,0-1.55-1.38l1.09-.9c.32.24.42.33.6.48v-1.33a6.92,6.92,0,0,0,1,.05h2.23a7.47,7.47,0,0,0,1,0,2.57,2.57,0,0,0,.71,1.19,5.37,5.37,0,0,0,.89-1.16l1.19.74a12.48,12.48,0,0,1-1.15,1.3c.23.19.3.23.59.45a6.23,6.23,0,0,0,1.07-1.29ZM268,404.28a13,13,0,0,1-1.63,1.1c.29,0,.42,0,.75,0H273c.37,0,.55,0,.79,0a.91.91,0,0,1-.16-.1,7.25,7.25,0,0,1-1.43-.95v.59a4.47,4.47,0,0,0-.74,0h-2.8a4.24,4.24,0,0,0-.66,0Zm-.81-2.4a4.45,4.45,0,0,0-.65,0c.42.36.69.61,1,.93a5.46,5.46,0,0,0,1-1Zm.5,5.49h4.67v-.75h-4.67Zm3.71-3.7a9.49,9.49,0,0,1-1.33-1.51,9.94,9.94,0,0,1-1.34,1.51Zm-.62,6.1a6.88,6.88,0,0,0,.52-1.17h-2.56a5.74,5.74,0,0,1,.57,1.17Z"/><path class="cls-2" d="M278,404.4c-.23,0-.41,0-.66,0v-.54a6.59,6.59,0,0,1-.52.43,4.35,4.35,0,0,0-.59-1.39,5.14,5.14,0,0,0,2-2.42h1.51a4.35,4.35,0,0,0,1.73,1.88,5.59,5.59,0,0,0-.85,1.28l0,0v.8a4.24,4.24,0,0,0-.67,0h-.31v.65H280a5.5,5.5,0,0,0,.77,0v-.9a8.9,8.9,0,0,0,1.14.06h2.85l0-.52H282.6a9.51,9.51,0,0,0-1.1.05v-1.29a5.87,5.87,0,0,0,1.1.06h2.28c0-.05,0-.05,0-.09s0-.2,0-.37h-2.53a8,8,0,0,0-1.11.05v-1.37a9.81,9.81,0,0,0,1.2.05h2.89a9.87,9.87,0,0,0,1.08,0,16.71,16.71,0,0,0-.12,2c0,.28,0,.79-.07,1.51a7,7,0,0,0,1.12-.06v1.4c-.34,0-.74-.06-1.14-.06h-1.41a5.88,5.88,0,0,0,.45,1.38,4.53,4.53,0,0,0,1.07-1.25l1.06.82a12.06,12.06,0,0,1-1.49,1.53,5.41,5.41,0,0,0,1.68,1.57,6.58,6.58,0,0,0-.82,1.41,6.68,6.68,0,0,1-2.14-3.07c0,.3.06.71.08,1.23v1.15c0,.88-.34,1.17-1.39,1.17-.25,0-.55,0-1,0A4.11,4.11,0,0,0,282,410l-.65.44-.58-1.35a11.52,11.52,0,0,0,2.6-1.6v-2H282a7.55,7.55,0,0,0-1.06.05v.89a4.94,4.94,0,0,0-.86-.05h-.46v2.93c.52-.12.64-.14,1.11-.28v1.31a21.88,21.88,0,0,1-3,.72c-.66.12-.66.12-1,.21l-.2-1.52a12.87,12.87,0,0,0,1.78-.19v-3.18h-.53a7.14,7.14,0,0,0-1.17.07V405a7.6,7.6,0,0,0,1.18.07h.52v-.65Zm-1,4.88a11.84,11.84,0,0,0-.49-2.26l1-.33a11.71,11.71,0,0,1,.52,2.25Zm2.93-6.1h.17a6.34,6.34,0,0,1-1.06-1.41,6.41,6.41,0,0,1-1,1.41Zm-.23,5.35a8.42,8.42,0,0,0,.44-1.86l1,.32a9.35,9.35,0,0,1-.56,1.84Zm2.37-2.92a7.46,7.46,0,0,1,1.15,1.59l-1.07.78a6.49,6.49,0,0,0-1.12-1.69Zm1.29,3.29A13.26,13.26,0,0,1,282,410a4.87,4.87,0,0,0,.86.09c.4,0,.48-.05.48-.29Z"/><path class="cls-2" d="M292.85,400.71a3.31,3.31,0,0,0-.17.64c0,.1-.08.36-.16.78a2.25,2.25,0,0,0-.07.29,8.64,8.64,0,0,0,1.78-.3l0,1.63a2.11,2.11,0,0,0-.37.05c-.41.06-.9.1-1.85.19a23.72,23.72,0,0,1-1.28,3.42c-.28.58-.38.8-.83,1.65a3.84,3.84,0,0,0-.23.45l-1.62-.9a15.77,15.77,0,0,0,2.23-4.58h-.78l-.54,0h-.45v-1.61a9.11,9.11,0,0,0,1.66.12l.52,0a9.6,9.6,0,0,0,.32-2Zm5.25,9.76a7.07,7.07,0,0,0-1.68-1.39,1.91,1.91,0,0,1-.4,1.27,2.81,2.81,0,0,1-2.19.8c-1.62,0-2.69-.84-2.69-2.1a2.11,2.11,0,0,1,1.51-2,3.47,3.47,0,0,1,1.26-.18,5.87,5.87,0,0,1,.86.07c0-.47,0-.8,0-1.14a7.61,7.61,0,0,1,.09-1.32l1.64.09a3.55,3.55,0,0,0-.15,1.17,10.37,10.37,0,0,0,.11,1.59,8.07,8.07,0,0,1,1.78,1,5,5,0,0,1,.46.36l.2.15Zm-4.22-2.19c-.65,0-1.09.28-1.09.7s.36.68,1,.68,1.05-.29,1.05-.87a2.22,2.22,0,0,0,0-.34A2.49,2.49,0,0,0,293.88,408.28Zm4.29-3.3a15.18,15.18,0,0,0-3.53-1.68l.84-1.37a18.48,18.48,0,0,1,3.45,1.58Z"/><path class="cls-2" d="M302.77,400.91c-.12.7-.26,3.86-.26,5.9,0,1.15.06,1.55.28,1.88a1.7,1.7,0,0,0,1.48.59,2.9,2.9,0,0,0,2.75-2,7.58,7.58,0,0,0,.5-2.06,6.38,6.38,0,0,0,1.73,1.08,7.3,7.3,0,0,1-1.46,3.18,4.62,4.62,0,0,1-3.62,1.52,4,4,0,0,1-2.18-.54,2.71,2.71,0,0,1-1.07-1.43,7.11,7.11,0,0,1-.18-1.69c0-.53,0-1.3.05-2.86s0-2.35,0-2.71a6.19,6.19,0,0,0,0-.89Z"/><path class="cls-2" d="M314,400.83a9.46,9.46,0,0,1,1.57,2.88,9.16,9.16,0,0,1,.47,2.92,9.51,9.51,0,0,1-.75,3.72,11.35,11.35,0,0,1-1.29,2.18l-1.42-1a8.4,8.4,0,0,0,1.29-2.36,8,8,0,0,0,.36-2.47,7.68,7.68,0,0,0-1.66-4.93Z"/><line class="cls-5" x1="50.67" y1="91.81" x2="50.67" y2="275.98"/><polygon class="cls-1" points="63.42 274.27 37.91 274.27 50.67 287.02 63.42 274.27"/><line class="cls-6" x1="233.36" y1="91.81" x2="233.36" y2="136.47"/><polygon class="cls-3" points="246.12 134.76 220.6 134.76 233.36 147.52 246.12 134.76"/><path class="cls-1" d="M67.91,169.12a9.37,9.37,0,0,0-.44,1.52,27.56,27.56,0,0,0-.73,5.92l1.17.4a14,14,0,0,0-.64,4.66c0,.07,0,.27,0,.61l-2.58.11c0-.28,0-.28-.13-1.21a32,32,0,0,1,.28-10.8,9.78,9.78,0,0,0,.18-1.33v-.08Zm.55,2.49a13.17,13.17,0,0,0,2.86.25c.32,0,.58,0,1.1,0v-2a3.92,3.92,0,0,0-.08-.86H75a16.84,16.84,0,0,0-.13,2.67,15,15,0,0,0,2.43-.47l.09,2.42a3.73,3.73,0,0,0-.56.1c-.48.1-1.16.19-1.93.29,0,1.19,0,1.49.14,3.25a11.85,11.85,0,0,1,2.46,1.39,1.66,1.66,0,0,0,.29.18l-1,2.6A7.7,7.7,0,0,0,75,180v.12c0,1.3-1.33,2.17-3.28,2.17-2.25,0-3.58-1.07-3.58-2.84a2.72,2.72,0,0,1,1.16-2.25,4.07,4.07,0,0,1,2.36-.62,4.46,4.46,0,0,1,.88.09c0-.43,0-.51,0-1.22,0-.52,0-.74,0-1.27h-.88c-.45,0-1.34,0-2.62-.07l-.35,0h-.19Zm4.13,7.27a2.58,2.58,0,0,0-.93-.18c-.71,0-1.14.28-1.14.7s.4.66,1,.66,1.07-.28,1.07-.89Z"/><path class="cls-1" d="M83.18,169.83a20.18,20.18,0,0,0-.16,2.76c0,3.42.48,6,1.13,6,.16,0,.33-.19.48-.59a15.16,15.16,0,0,0,.8-2.64,9.7,9.7,0,0,0,2.12,1.92,13.05,13.05,0,0,1-1.16,2.95,2.68,2.68,0,0,1-2.32,1.56,2.61,2.61,0,0,1-2.18-1.32,10,10,0,0,1-1.41-5.08c-.08-1.07-.14-2.36-.17-4.48a8.43,8.43,0,0,0-.06-1.08Zm7,.55a16.09,16.09,0,0,1,3.52,8.89l-2.73,1a15.19,15.19,0,0,0-3.12-8.83Z"/><path class="cls-3" d="M249.84,110.62a18.59,18.59,0,0,0-.17,2.76c0,3.43.49,6,1.13,6,.17,0,.34-.2.49-.6a14.63,14.63,0,0,0,.79-2.64,9.74,9.74,0,0,0,2.13,1.92,12.87,12.87,0,0,1-1.16,3,2.69,2.69,0,0,1-2.33,1.56,2.62,2.62,0,0,1-2.18-1.31,10.09,10.09,0,0,1-1.41-5.09c-.07-1.07-.13-2.35-.16-4.48,0-.51,0-.67-.06-1.08Zm7,.55a16.13,16.13,0,0,1,3.53,8.89l-2.74,1a15.18,15.18,0,0,0-3.11-8.83Z"/><path class="cls-3" d="M265.2,110.62a18.59,18.59,0,0,0-.17,2.76c0,3.43.49,6,1.13,6,.17,0,.34-.2.49-.6a14.63,14.63,0,0,0,.79-2.64,9.74,9.74,0,0,0,2.13,1.92,12.87,12.87,0,0,1-1.16,3,2.69,2.69,0,0,1-2.33,1.56,2.62,2.62,0,0,1-2.18-1.31,10.09,10.09,0,0,1-1.41-5.09c-.07-1.07-.13-2.35-.16-4.48,0-.51,0-.67-.06-1.08Zm7,.55a16.2,16.2,0,0,1,3.53,8.89l-2.74,1a15.18,15.18,0,0,0-3.11-8.83Z"/><path class="cls-3" d="M278.85,113.51c.43,0,.59,0,.91,0a52.45,52.45,0,0,0,5.75-.35,6.67,6.67,0,0,0,1.42-.24l1.37,1.77a8.31,8.31,0,0,0-1.26,1c-.62.55-2.08,1.81-2.42,2.07a1.61,1.61,0,0,1,.61-.1,1.5,1.5,0,0,1,1.29.59c.26.39.3.55.38,1.65.06.77.26,1,.85,1a8.39,8.39,0,0,0,3.16-.63l.26,2.66a13,13,0,0,0-1.43.15,14,14,0,0,1-2.32.2c-1.36,0-2.13-.29-2.57-1a2.78,2.78,0,0,1-.35-1.57c0-.6-.08-.83-.2-1a.69.69,0,0,0-.52-.2c-.62,0-1.28.44-2.49,1.65a27.14,27.14,0,0,0-2,2.19l-2-2.27a49,49,0,0,0,5.25-4.46c.69-.64.89-.82,1.41-1.28-.84.14-1.66.23-3.71.41-.55,0-.86.1-1.28.16Zm2-4.13a24.69,24.69,0,0,0,6.66.74l-.38,2.38a32.68,32.68,0,0,1-7-.78Z"/><line class="cls-5" x1="169.19" y1="231.24" x2="169.19" y2="275.91"/><polygon class="cls-1" points="181.95 274.2 156.44 274.2 169.19 286.95 181.95 274.2"/><path class="cls-1" d="M185.48,249.35a8.7,8.7,0,0,0-.45,1.51,28.38,28.38,0,0,0-.73,5.93l1.18.39a13.79,13.79,0,0,0-.64,4.66c0,.08,0,.28,0,.61l-2.58.11c0-.27,0-.27-.12-1.21a29.17,29.17,0,0,1-.34-4.62,30.63,30.63,0,0,1,.61-6.17,10.68,10.68,0,0,0,.19-1.33v-.08Zm.55,2.49a13.77,13.77,0,0,0,2.85.24H190v-2a4.58,4.58,0,0,0-.07-.85l2.64,0a17.43,17.43,0,0,0-.12,2.67,13.83,13.83,0,0,0,2.42-.47l.1,2.43a3.53,3.53,0,0,0-.57.09c-.47.11-1.16.2-1.92.29,0,1.19,0,1.5.13,3.25a12.32,12.32,0,0,1,2.46,1.39,2.09,2.09,0,0,0,.29.19l-1,2.59a8,8,0,0,0-1.82-1.45v.13c0,1.29-1.33,2.16-3.28,2.16-2.25,0-3.57-1.07-3.57-2.84a2.68,2.68,0,0,1,1.16-2.24,4.06,4.06,0,0,1,2.35-.63,4.46,4.46,0,0,1,.88.09c0-.42,0-.5,0-1.22,0-.52,0-.73,0-1.27-.35,0-.57,0-.87,0-.46,0-1.35,0-2.63-.08H186Zm4.12,7.27a2.39,2.39,0,0,0-.93-.18c-.7,0-1.13.27-1.13.7s.4.65,1,.65,1.07-.27,1.07-.88Z"/><path class="cls-1" d="M200.19,250.05a18.64,18.64,0,0,0-.17,2.77c0,3.42.49,6,1.13,6,.17,0,.33-.2.49-.6a15.49,15.49,0,0,0,.79-2.64,9.68,9.68,0,0,0,2.12,1.92,12.43,12.43,0,0,1-1.16,2.95,2.68,2.68,0,0,1-2.32,1.56,2.61,2.61,0,0,1-2.18-1.31c-.8-1.13-1.21-2.66-1.41-5.09-.07-1.07-.14-2.35-.17-4.47a8.6,8.6,0,0,0-.06-1.09Zm7,.55a16.2,16.2,0,0,1,3.53,8.89l-2.74,1a15.25,15.25,0,0,0-3.11-8.83Z"/><line class="cls-6" x1="286.23" y1="231.24" x2="286.23" y2="275.91"/><polygon class="cls-3" points="298.99 274.2 273.48 274.2 286.23 286.95 298.99 274.2"/><path class="cls-3" d="M301.71,250.05a20.34,20.34,0,0,0-.16,2.77c0,3.42.48,6,1.13,6,.16,0,.33-.2.48-.6a14.66,14.66,0,0,0,.8-2.64,9.45,9.45,0,0,0,2.12,1.92,12.87,12.87,0,0,1-1.16,2.95A2.68,2.68,0,0,1,302.6,262a2.59,2.59,0,0,1-2.18-1.31c-.8-1.13-1.21-2.66-1.41-5.09-.08-1.07-.14-2.35-.17-4.47a8.6,8.6,0,0,0-.06-1.09Zm7,.55a16.06,16.06,0,0,1,3.53,8.89l-2.73,1a15.19,15.19,0,0,0-3.12-8.83Z"/><path class="cls-3" d="M317.07,250.05a20.34,20.34,0,0,0-.16,2.77c0,3.42.48,6,1.13,6,.16,0,.33-.2.48-.6a15.51,15.51,0,0,0,.8-2.64,9.45,9.45,0,0,0,2.12,1.92,12.87,12.87,0,0,1-1.16,2.95A2.69,2.69,0,0,1,318,262a2.62,2.62,0,0,1-2.19-1.31,10.1,10.1,0,0,1-1.4-5.09c-.08-1.07-.14-2.35-.17-4.47a8.6,8.6,0,0,0-.06-1.09Zm7,.55a16.13,16.13,0,0,1,3.53,8.89l-2.73,1a15.19,15.19,0,0,0-3.12-8.83Z"/><path class="cls-3" d="M330.72,252.94c.43,0,.6,0,.92,0a52.14,52.14,0,0,0,5.74-.35,6,6,0,0,0,1.42-.24l1.38,1.77a8.18,8.18,0,0,0-1.27,1c-.61.55-2.08,1.82-2.41,2.08a1.46,1.46,0,0,1,.61-.11,1.49,1.49,0,0,1,1.28.59c.26.39.31.55.38,1.65.06.77.26,1,.86,1a8.43,8.43,0,0,0,3.16-.63l.26,2.66a12.91,12.91,0,0,0-1.44.15,13.79,13.79,0,0,1-2.32.2c-1.36,0-2.12-.29-2.56-1a2.76,2.76,0,0,1-.36-1.57c0-.6-.07-.83-.19-1a.69.69,0,0,0-.52-.2c-.63,0-1.29.45-2.49,1.65a25.4,25.4,0,0,0-2,2.19l-2-2.26a52.82,52.82,0,0,0,5.25-4.46c.69-.65.89-.83,1.4-1.29-.84.14-1.66.23-3.71.42-.55,0-.85.09-1.28.15Zm2-4.13a24.69,24.69,0,0,0,6.66.74l-.38,2.38a32.87,32.87,0,0,1-7-.78Z"/><rect class="cls-7" x="1.35" y="13.46" width="344.01" height="73.56" rx="8.66"/><path class="cls-8" d="M22.89,48.28c-.83,0-1.25,0-1.84,0a10.27,10.27,0,0,0,.13-1.94V38.56a12.56,12.56,0,0,0-.12-1.78c.61,0,.84,0,1.82,0h3.4c2.23,0,3.48,1,3.48,2.81a2.55,2.55,0,0,1-.8,2,2.38,2.38,0,0,1-1.14.61,2.69,2.69,0,0,1,1.46.66,2.85,2.85,0,0,1,.89,2.2c0,2-1.34,3.16-3.73,3.16Zm3.19-6.77a1.53,1.53,0,0,0,1.74-1.57,1.49,1.49,0,0,0-.37-1.07,2.1,2.1,0,0,0-1.39-.44h-3v3.08Zm-3,5.14h3.1c1.28,0,2-.63,2-1.8a1.55,1.55,0,0,0-.46-1.25,2.34,2.34,0,0,0-1.57-.49H23.08Z"/><path class="cls-8" d="M34,36.81a11.63,11.63,0,0,0-.11,1.86v7.75A11.71,11.71,0,0,0,34,48.28H31.8a10.48,10.48,0,0,0,.12-1.86V38.67a10.41,10.41,0,0,0-.12-1.86Z"/><path class="cls-8" d="M45.33,45.33a11.44,11.44,0,0,0,.1,1.87,9.14,9.14,0,0,1-2.31,1,8.22,8.22,0,0,1-2.12.28,5.07,5.07,0,0,1-4.09-1.66,6.82,6.82,0,0,1-1.35-4.38,5.74,5.74,0,0,1,2.31-5,5.37,5.37,0,0,1,3.19-.85,4.73,4.73,0,0,1,3.32,1.23,4.07,4.07,0,0,1,1.06,1.72l-2,.53a2.37,2.37,0,0,0-2.65-1.77,3.06,3.06,0,0,0-2.19.88,4.5,4.5,0,0,0-1.07,3.28,5.06,5.06,0,0,0,1,3.37,3,3,0,0,0,2.51,1,4.32,4.32,0,0,0,2.45-.65V43.77h-.78a8,8,0,0,0-1.47.09V42a11,11,0,0,0,1.73.09h.75c.66,0,1.08,0,1.7-.06a12.32,12.32,0,0,0-.1,1.78Z"/><path class="cls-8" d="M55.39,48.38a14.26,14.26,0,0,0-2-.1H49.08c-.8,0-1.31,0-1.83,0a10.91,10.91,0,0,0,.12-1.9V39a13.56,13.56,0,0,0-.12-2.14h2.18a12.66,12.66,0,0,0-.12,2.12v7.61h4a15.43,15.43,0,0,0,2-.1Z"/><path class="cls-8" d="M65.06,38a6.23,6.23,0,0,1,1.61,4.5c0,3.64-2.11,6-5.38,6s-5.38-2.34-5.38-6A6.21,6.21,0,0,1,57.55,38a5.62,5.62,0,0,1,7.51,0Zm-.4,4.5a4.68,4.68,0,0,0-1.14-3.36,3.14,3.14,0,0,0-2.22-.88c-2.07,0-3.38,1.65-3.38,4.25a4.76,4.76,0,0,0,1.16,3.4,3.1,3.1,0,0,0,2.23.88C63.37,46.81,64.66,45.17,64.66,42.52Z"/><path class="cls-8" d="M70.1,48.28c-.83,0-1.25,0-1.84,0a10.27,10.27,0,0,0,.13-1.94V38.56a14.23,14.23,0,0,0-.12-1.78c.61,0,.84,0,1.82,0h3.4c2.23,0,3.48,1,3.48,2.81a2.59,2.59,0,0,1-.8,2,2.38,2.38,0,0,1-1.14.61,2.65,2.65,0,0,1,1.45.66,2.85,2.85,0,0,1,.9,2.2c0,2-1.34,3.16-3.74,3.16Zm3.18-6.77A1.53,1.53,0,0,0,75,39.94a1.49,1.49,0,0,0-.38-1.07,2.06,2.06,0,0,0-1.38-.44h-3v3.08Zm-3,5.14h3.09c1.29,0,2-.63,2-1.8a1.59,1.59,0,0,0-.46-1.25,2.34,2.34,0,0,0-1.57-.49H70.29Z"/><path class="cls-8" d="M87.19,48.38a12.71,12.71,0,0,0-1.86-.1H80.84c-.87,0-1.25,0-1.83,0a11.13,11.13,0,0,0,.12-1.9V38.63A12.29,12.29,0,0,0,79,36.77c.58,0,.95,0,1.83,0h4.35a15.94,15.94,0,0,0,1.86-.1v1.9a13.27,13.27,0,0,0-1.86-.1H81v3h3.5a15.3,15.3,0,0,0,1.87-.1v1.89a10.91,10.91,0,0,0-1.87-.1H81v3.4h4.32a12.45,12.45,0,0,0,1.84-.11Z"/><path class="cls-8" d="M95.66,44.75c-.82,1.86-1.74,2.71-2.92,2.71-1.64,0-2.82-1.67-2.82-4a6.18,6.18,0,0,1,1.58-4.19,6.46,6.46,0,0,1,5-2c3.45,0,5.7,2.1,5.7,5.34A5.56,5.56,0,0,1,98.66,48a9.16,9.16,0,0,1-2.26.6,4.65,4.65,0,0,0-.88-1.68,7.7,7.7,0,0,0,2.86-.8,4,4,0,0,0,2-3.6,3.56,3.56,0,0,0-1.77-3.19,3.22,3.22,0,0,0-1.46-.44A20.69,20.69,0,0,1,95.66,44.75Zm-2.12-5.16a4.85,4.85,0,0,0-2,3.89c0,1.18.5,2.12,1.13,2.12s1-.6,1.49-1.84a19.2,19.2,0,0,0,1.19-4.87A3.71,3.71,0,0,0,93.54,39.59Z"/><path class="cls-8" d="M105.39,37.51A7.56,7.56,0,0,0,105.3,36H107a8.34,8.34,0,0,0-.09,1.45v1.2h.39a4.47,4.47,0,0,0,.81-.06v1.5a6.84,6.84,0,0,0-.79-.05h-.41v2l.87-.43.11,1.44c-.42.23-.57.3-1,.49v4.22a1.34,1.34,0,0,1-.42,1.11,3.37,3.37,0,0,1-1.61.29l-.68,0a4.29,4.29,0,0,0-.36-1.49,5.88,5.88,0,0,0,1.1.1c.37,0,.46-.08.46-.43V44.22c-.3.1-.65.23-.91.3a4.55,4.55,0,0,0-.6.23l-.3-1.61a9,9,0,0,0,1.81-.45V40.08h-.59a9.37,9.37,0,0,0-1,.06V38.61a5.93,5.93,0,0,0,1.06.08h.58Zm10.28,12a22.13,22.13,0,0,0-3.06-1.66,10.75,10.75,0,0,1-4.74,1.55,4.43,4.43,0,0,0-.61-1.39,9.57,9.57,0,0,0,3.79-.83,21.79,21.79,0,0,0-2.53-.88,10.86,10.86,0,0,0,1.26-1.54h-.41a8.69,8.69,0,0,0-1.39.07V43.25a8.68,8.68,0,0,0,1.4.07h1.28a7.23,7.23,0,0,0,.52-1.1h-1.89a7.2,7.2,0,0,0-1.24.07V40.76a5.58,5.58,0,0,0,1.16.07h1a5.62,5.62,0,0,0-.67-1.58l1.2-.46h-.84a8,8,0,0,0-1.45.07V37.33a11,11,0,0,0,1.63.07h1.49v-.31a6.45,6.45,0,0,0-.07-1h1.69a5.67,5.67,0,0,0-.07,1v.33H115a10.36,10.36,0,0,0,1.61-.07v1.53a8.1,8.1,0,0,0-1.45-.07H113.9l1.34.34a6.91,6.91,0,0,1-.88,1.7h1.14a8.64,8.64,0,0,0,1.47-.07v1.53a8.86,8.86,0,0,0-1.47-.07h-4l1.18.36a4.64,4.64,0,0,1-.23.41,1.4,1.4,0,0,1-.18.33h3.28a8,8,0,0,0,1.41-.07v1.53a8.61,8.61,0,0,0-1.4-.07h-.44a5.94,5.94,0,0,1-1.3,2.09,27.16,27.16,0,0,1,2.85,1.36Zm-2.79-8.63a5.68,5.68,0,0,0,.91-2h-2.91a7.08,7.08,0,0,1,.66,1.6l-1.18.44Zm-1.45,3.88c-.23.31-.35.47-.74,1l1.74.59a4,4,0,0,0,1.13-1.55Z"/><path class="cls-8" d="M119.93,44.23a18.29,18.29,0,0,1-.58,4.38L118.12,48a12.73,12.73,0,0,0,.56-4Zm-1.77-2.13a3.39,3.39,0,0,0,.59,0h.52c.42-.56.42-.56.75-1a16.15,16.15,0,0,0-1.89-2.17l.72-1.26.55.59a10.65,10.65,0,0,0,1-2.34l1.38.53a3.06,3.06,0,0,0-.3.53,19.74,19.74,0,0,1-1.28,2.23c.27.34.34.42.56.68a12.08,12.08,0,0,0,1.3-2.39l1.29.71a11.11,11.11,0,0,0-.69,1.09c-.46.74-1.35,2-1.93,2.78.81,0,1-.07,1.48-.11a11.49,11.49,0,0,0-.41-1.11l1-.35a14.63,14.63,0,0,1,.82,2.41v-.35a6.21,6.21,0,0,0-.06-1,11.06,11.06,0,0,0,1.29,0h5a8,8,0,0,0,1.38-.08,9.91,9.91,0,0,0,0,1v.86a5.54,5.54,0,0,0,.06,1h-1.5V42.82H125V44.4h-1.4a5.68,5.68,0,0,0,.06-.93l-.94.33a4.56,4.56,0,0,0-.12-.62l-.86.1v4.55a8.79,8.79,0,0,0,.09,1.52h-1.56a9.39,9.39,0,0,0,.09-1.52V43.4l-.56,0c-.29,0-.48,0-.57,0a6.84,6.84,0,0,0-.9.09Zm5,1.87a27.92,27.92,0,0,1,.46,3.16l-1.17.34a17.5,17.5,0,0,0-.39-3.22Zm3.76-.47c0,.27,0,.27-.08,1a5.13,5.13,0,0,1-1,3,5.39,5.39,0,0,1-2.32,1.68,3.23,3.23,0,0,0-1-1.32,4.21,4.21,0,0,0,2.1-1.24,3.83,3.83,0,0,0,.72-2.52,4.68,4.68,0,0,0,0-.66Zm-1.83-5a10.38,10.38,0,0,0-1.57.07V37.12a12.94,12.94,0,0,0,1.6.08h1.34v-.14a5.59,5.59,0,0,0-.09-1.08H128a5.35,5.35,0,0,0-.09,1.09v.13h1.76a12.87,12.87,0,0,0,1.59-.08v1.44a10.08,10.08,0,0,0-1.55-.07h-1.8v1h1.47a11.4,11.4,0,0,0,1.47-.07v1.39a12.68,12.68,0,0,0-1.46-.07h-4.2a10.93,10.93,0,0,0-1.46.07V39.44a11.3,11.3,0,0,0,1.47.07h1.23v-1Zm4,5a4.88,4.88,0,0,0-.09,1v2.81c0,.24.09.3.44.3a.81.81,0,0,0,.54-.14,4.2,4.2,0,0,0,.25-1.88,4.23,4.23,0,0,0,1.37.51,7,7,0,0,1-.36,2.16c-.26.56-.72.75-1.9.75-1.4,0-1.78-.25-1.78-1.2V44.52a4.76,4.76,0,0,0-.07-1Z"/><path class="cls-8" d="M140.77,39.23V38.12a8.88,8.88,0,0,0-.07-1.59h1.86a4.66,4.66,0,0,0-.06,1c0,.88,0,.88,0,1.74h.92a9.9,9.9,0,0,0,1.87-.1v1.76a14.19,14.19,0,0,0-1.84-.07h-1a17.9,17.9,0,0,1-.1,2.37,5.78,5.78,0,0,1-2.07,4.14,8,8,0,0,1-2.81,1.51,4.41,4.41,0,0,0-1.08-1.53A6.63,6.63,0,0,0,139.17,46a4.5,4.5,0,0,0,1.53-3.46c0-.33,0-.68.05-1.67H137V43a9.46,9.46,0,0,0,.06,1.21h-1.87a10.44,10.44,0,0,0,0-1.24V40.82h-.87a14.46,14.46,0,0,0-1.85.07V39.13a10,10,0,0,0,1.88.1h.84V37.79a7.51,7.51,0,0,0-.07-1.28h1.89a7,7,0,0,0-.06,1.24v1.48Z"/><path class="cls-8" d="M146.6,41.58a13.88,13.88,0,0,0,2.34.1h7.68a13.81,13.81,0,0,0,2.33-.1v2a16.36,16.36,0,0,0-2.35-.07H149a16.36,16.36,0,0,0-2.35.07Z"/><path class="cls-8" d="M163.5,41.21c2.17-.41,5.36-1.69,6.29-2.57L171,40.27l-1.3.62a24.59,24.59,0,0,1-6.15,2v1.9a.68.68,0,0,0,0,.19c0,.83.06,1.16.26,1.36s1.07.38,2.47.38a28,28,0,0,0,3.34-.23,8.52,8.52,0,0,0,1.64-.35l.09,1.92c-.31,0-.38,0-1.9.16-.85.08-2.67.17-3.55.17-1.81,0-2.81-.19-3.37-.62a2,2,0,0,1-.7-1.47,9.89,9.89,0,0,1,0-1.32V38.28a7.27,7.27,0,0,0-.06-1.32h1.93a7.08,7.08,0,0,0-.07,1.34Zm6.84-4.93a8.94,8.94,0,0,1,1.44,2.19l-1,.48a9.11,9.11,0,0,0-1.42-2.21Zm2.16,1.83A10.94,10.94,0,0,0,171.12,36l1-.46a8,8,0,0,1,1.41,2.09Z"/><path class="cls-8" d="M185,48.58a28.11,28.11,0,0,0-4.43-4.28,17,17,0,0,1-5.48,4.17,5.94,5.94,0,0,0-1.17-1.6,11.6,11.6,0,0,0,2.88-1.59,13.88,13.88,0,0,0,4.84-5.86l.16-.37-4.77.08a12.6,12.6,0,0,0-1.57.12l-.06-1.85a5.8,5.8,0,0,0,1.27.09h.35l5.07-.07a3.22,3.22,0,0,0,1.28-.16l1,1a2.82,2.82,0,0,0-.46.78,18.86,18.86,0,0,1-2.25,4,22.59,22.59,0,0,1,2.67,2.09c.36.32.36.32,2.1,2Z"/><path class="cls-8" d="M192.15,49.39a12,12,0,0,1-1.57-2.84,10.53,10.53,0,0,1-.76-4,10.28,10.28,0,0,1,.73-3.85,11.77,11.77,0,0,1,1.59-2.84h2a11.15,11.15,0,0,0-1.83,2.87,9.34,9.34,0,0,0-.75,3.82,9.68,9.68,0,0,0,.76,3.94,11,11,0,0,0,1.83,2.87Z"/><path class="cls-8" d="M197.55,43a13.93,13.93,0,0,0-1.82.07V41.28a9.54,9.54,0,0,0,1.84.1h2.61V38.89h-1.76a13.3,13.3,0,0,0-1.83.07V37.22a10.57,10.57,0,0,0,1.86.1H205a10.49,10.49,0,0,0,1.87-.1V39a13.21,13.21,0,0,0-1.84-.07H202v2.49h4a9.6,9.6,0,0,0,1.84-.1V43A13.85,13.85,0,0,0,206,43h-4v2.3c0,.87.08,1.08.39,1.23a3.76,3.76,0,0,0,1.49.19c.51,0,1.39-.05,2.14-.12a7.07,7.07,0,0,0,1.34-.24l.05,1.83a1.29,1.29,0,0,0-.25,0c-.13,0-.13,0-1.17.09-.63,0-1.6.08-2.29.08-2.81,0-3.47-.47-3.47-2.5V43Z"/><path class="cls-8" d="M214.55,37.68a1.48,1.48,0,0,0-.07.29l0,.24-.07.42,0,.34c-.61,4.14-1.73,7-3.66,9.19A6.33,6.33,0,0,0,209,46.93a10,10,0,0,0,2.06-3.07,17.87,17.87,0,0,0,1.35-4.94,10,10,0,0,0,.13-1.4v-.2Zm4.09-.36a18.57,18.57,0,0,0,.61,3.31,13.82,13.82,0,0,0,3.21,6.22,5.85,5.85,0,0,0-1.58,1.33,19,19,0,0,1-3.82-9.48,7,7,0,0,0-.2-1Zm1.23-.87a8.6,8.6,0,0,1,1.19,2.32l-1.09.35a9.77,9.77,0,0,0-1.18-2.35Zm2,2.09a10.26,10.26,0,0,0-1.16-2.27l1.07-.31A8.59,8.59,0,0,1,223,38.2Z"/><path class="cls-8" d="M234.46,37.56a5.17,5.17,0,0,0-.53.51,26.32,26.32,0,0,1-3.4,3v6.16a10.45,10.45,0,0,0,.07,1.59h-2a8.07,8.07,0,0,0,.09-1.55V42.16a23.33,23.33,0,0,1-5.14,2.33,5.68,5.68,0,0,0-1-1.64,21,21,0,0,0,7.56-3.75,11.46,11.46,0,0,0,2.68-2.69Z"/><path class="cls-8" d="M239.58,36.94a29.32,29.32,0,0,0-.15,3.23,13.44,13.44,0,0,1-1.17,5.92,9.11,9.11,0,0,1-2,2.66,5.17,5.17,0,0,0-1.46-1.39,5.89,5.89,0,0,0,1.48-1.66c1-1.66,1.37-3.51,1.37-7.55a8.34,8.34,0,0,0,0-1.31Zm3.81-.17a8.66,8.66,0,0,0-.1,1.37l-.07,8.19a5.66,5.66,0,0,0,2.2-1.64,7.11,7.11,0,0,0,1.42-2.63,6.17,6.17,0,0,0,1.35,1.35,8.92,8.92,0,0,1-2.29,3.36,9.78,9.78,0,0,1-3.07,1.73c-.32.11-.43.17-.62.25l-.92-1a6.88,6.88,0,0,0,.13-1.53l.07-8.13v-.43a5.49,5.49,0,0,0-.06-.95Z"/><path class="cls-8" d="M251.12,37.51A8.45,8.45,0,0,0,251,36h1.69a7.45,7.45,0,0,0-.09,1.45v1.2H253a4.54,4.54,0,0,0,.81-.06v1.5a7,7,0,0,0-.8-.05h-.4v2c.26-.13.42-.2.86-.43l.12,1.44c-.42.23-.58.3-1,.49v4.22a1.34,1.34,0,0,1-.42,1.11,3.37,3.37,0,0,1-1.61.29l-.68,0a4.52,4.52,0,0,0-.36-1.49,5.88,5.88,0,0,0,1.1.1c.37,0,.46-.08.46-.43V44.22c-.3.1-.65.23-.91.3a4.55,4.55,0,0,0-.6.23l-.31-1.61a8.94,8.94,0,0,0,1.82-.45V40.08h-.59a9.24,9.24,0,0,0-1.05.06V38.61a5.86,5.86,0,0,0,1.06.08h.58Zm10.28,12a21.68,21.68,0,0,0-3.07-1.66,10.66,10.66,0,0,1-4.73,1.55A4.43,4.43,0,0,0,253,48a9.57,9.57,0,0,0,3.79-.83,22,22,0,0,0-2.54-.88,10.86,10.86,0,0,0,1.27-1.54h-.42a8.62,8.62,0,0,0-1.38.07V43.25a8.68,8.68,0,0,0,1.4.07h1.28a8.36,8.36,0,0,0,.52-1.1H255a7.14,7.14,0,0,0-1.24.07V40.76a5.53,5.53,0,0,0,1.15.07h1a5.32,5.32,0,0,0-.66-1.58l1.2-.46h-.84a8,8,0,0,0-1.45.07V37.33a10.9,10.9,0,0,0,1.63.07h1.49v-.31a7.91,7.91,0,0,0-.07-1h1.69a5.7,5.7,0,0,0-.08,1v.33h1.93a10.51,10.51,0,0,0,1.62-.07v1.53a8.16,8.16,0,0,0-1.46-.07h-1.28l1.34.34a6.91,6.91,0,0,1-.88,1.7h1.14a8.71,8.71,0,0,0,1.47-.07v1.53a8.86,8.86,0,0,0-1.47-.07h-4l1.18.36a4.64,4.64,0,0,1-.23.41,1.53,1.53,0,0,1-.19.33h3.29a8,8,0,0,0,1.41-.07v1.53a8.61,8.61,0,0,0-1.4-.07h-.44a5.94,5.94,0,0,1-1.3,2.09,28.15,28.15,0,0,1,2.85,1.36Zm-2.79-8.63a5.86,5.86,0,0,0,.91-2h-2.91a7.08,7.08,0,0,1,.66,1.6l-1.18.44Zm-1.46,3.88c-.23.31-.34.47-.73,1l1.74.59a4,4,0,0,0,1.13-1.55Z"/><path class="cls-8" d="M265.66,44.23a18.29,18.29,0,0,1-.58,4.38L263.84,48a12.15,12.15,0,0,0,.56-4Zm-1.77-2.13a3.39,3.39,0,0,0,.59,0H265c.41-.56.41-.56.74-1a16,16,0,0,0-1.88-2.17l.72-1.26.55.59a10.65,10.65,0,0,0,1.05-2.34l1.38.53a3.06,3.06,0,0,0-.3.53A18.24,18.24,0,0,1,266,39.2l.57.68a11.33,11.33,0,0,0,1.29-2.39l1.3.71a11.11,11.11,0,0,0-.69,1.09c-.46.74-1.36,2-1.93,2.78.8,0,1.05-.07,1.48-.11a9.57,9.57,0,0,0-.42-1.11l1-.35a13,13,0,0,1,.82,2.41v-.35a6.51,6.51,0,0,0-.05-1,10.93,10.93,0,0,0,1.29,0h5a8,8,0,0,0,1.38-.08,9.91,9.91,0,0,0,0,1v.86a6.85,6.85,0,0,0,.05,1H275.5V42.82h-4.79V44.4h-1.39a5.87,5.87,0,0,0,.05-.93l-.93.33c-.05-.3-.07-.42-.12-.62l-.86.1v4.55a9,9,0,0,0,.08,1.52H266a9.39,9.39,0,0,0,.09-1.52V43.4l-.57,0-.56,0a6.85,6.85,0,0,0-.91.09Zm5,1.87a25.82,25.82,0,0,1,.46,3.16l-1.16.34a18.41,18.41,0,0,0-.39-3.22Zm3.76-.47c0,.27,0,.27-.07,1a5.2,5.2,0,0,1-1,3,5.45,5.45,0,0,1-2.32,1.68,3.16,3.16,0,0,0-1-1.32,4.25,4.25,0,0,0,2.11-1.24,3.83,3.83,0,0,0,.72-2.52,4.65,4.65,0,0,0-.05-.66Zm-1.83-5a10.54,10.54,0,0,0-1.57.07V37.12a13.17,13.17,0,0,0,1.6.08h1.34v-.14A6.62,6.62,0,0,0,272.1,36h1.65a6.32,6.32,0,0,0-.08,1.09v.13h1.75a13.05,13.05,0,0,0,1.6-.08v1.44a10.16,10.16,0,0,0-1.55-.07h-1.8v1h1.47a11.23,11.23,0,0,0,1.46-.07v1.39a12.61,12.61,0,0,0-1.45-.07h-4.21a10.76,10.76,0,0,0-1.45.07V39.44a11.3,11.3,0,0,0,1.47.07h1.22v-1Zm4,5a4.88,4.88,0,0,0-.09,1v2.81c0,.24.09.3.43.3a.85.85,0,0,0,.55-.14,4.2,4.2,0,0,0,.25-1.88,4.14,4.14,0,0,0,1.37.51,6.64,6.64,0,0,1-.37,2.16c-.25.56-.72.75-1.9.75-1.39,0-1.77-.25-1.77-1.2V44.52a4.76,4.76,0,0,0-.07-1Z"/><path class="cls-8" d="M279.05,37.75a17.26,17.26,0,0,0,3.34.19,5.83,5.83,0,0,0,.58-1.79l1.88.2c-.08.15-.08.15-.57,1.3-.07.16-.1.2-.13.26a7.4,7.4,0,0,1,.91-.06,19.36,19.36,0,0,0,3.77-.49l.1,1.64c-.4,0-.4,0-1.14.12-1.05.13-2.88.24-4.33.29a7.38,7.38,0,0,1-1.33,1.91l0,0,.28-.21a3.46,3.46,0,0,1,2-.65A1.89,1.89,0,0,1,286.52,42c1.11-.4,1.85-.66,2.21-.77a4.22,4.22,0,0,0,1.06-.44l.68,1.66a12.91,12.91,0,0,0-1.6.39c-.2.06-.92.3-2.16.73v.16c0,.38,0,.38,0,.58v.57c0,.25,0,.38,0,.48,0,.32,0,.52,0,.76l-1.67,0a11,11,0,0,0,.09-1.67v-.35a8,8,0,0,0-1.38.75,1.49,1.49,0,0,0-.75,1.18c0,.75.69,1,2.43,1a12.52,12.52,0,0,0,4.24-.6l.14,1.86a4.56,4.56,0,0,0-.66.05,25.93,25.93,0,0,1-3.69.26,6.19,6.19,0,0,1-3.21-.6,2.1,2.1,0,0,1-1.05-1.86,2.3,2.3,0,0,1,.63-1.6,7.05,7.05,0,0,1,3.1-2,.79.79,0,0,0-.88-.78,4.9,4.9,0,0,0-2.95,1.48,6.56,6.56,0,0,0-1.26,1.32l-1.31-1.3a8.46,8.46,0,0,0,1.3-1.28,19.85,19.85,0,0,0,1.73-2.47,1.18,1.18,0,0,1,.11-.18h-.24l-1.82,0H279Z"/><path class="cls-8" d="M295.64,39.67a19.46,19.46,0,0,1-3.25,1.85,4.48,4.48,0,0,0-.95-1.42,16.74,16.74,0,0,0,3.64-1.9A10.38,10.38,0,0,0,297.42,36h1.68a10.41,10.41,0,0,0,2.68,2.35,14,14,0,0,0,3.5,1.67,6.72,6.72,0,0,0-.92,1.47,15,15,0,0,1-3.27-1.79v.84a10.49,10.49,0,0,0-1.21-.06h-3a11.44,11.44,0,0,0-1.24.06Zm6.54,4.5a8.77,8.77,0,0,0,1.14-.05,10.18,10.18,0,0,0-.06,1.18v2.75a7.57,7.57,0,0,0,.08,1.22h-1.66V48.7H295v.57h-1.65a8.07,8.07,0,0,0,.09-1.25V45.24a8.81,8.81,0,0,0-.07-1.12,10.38,10.38,0,0,0,1.18.05h4.09l1.82-1.55h-5.68a9.07,9.07,0,0,0-1.38.07V41.22a5.72,5.72,0,0,0,1.11.07h6.38a9.42,9.42,0,0,0,1.27,0l.89.82-.55.52-1.71,1.59ZM295,47.3h6.68V45.54H295Zm4.91-8.1h.45a14,14,0,0,1-2.08-1.88,12.76,12.76,0,0,1-2,1.87h3.62Z"/><path class="cls-8" d="M313.38,39.35a1.91,1.91,0,0,0-.43.06,17.21,17.21,0,0,1-2.15.27c0,1,0,1.07,0,1.53a1.85,1.85,0,0,1,.69,1.6,2.82,2.82,0,0,1-.33,1.36,8.08,8.08,0,0,1-.49.81,2.58,2.58,0,0,0-.52,1.31c0,.56.69.79,2.35.79a10.35,10.35,0,0,0,2.37-.27c.78-.19,1.1-.55,1.1-1.24a5.09,5.09,0,0,0-.32-1.66,6.13,6.13,0,0,0-.36-1,6.46,6.46,0,0,0,1.93.46,4.5,4.5,0,0,1,.13.49c0,.16,0,.16.16.56a5.22,5.22,0,0,1,.2,1.44A2.18,2.18,0,0,1,316.58,48a5.82,5.82,0,0,1-2.24.59,18.4,18.4,0,0,1-2.07.13,7,7,0,0,1-2.94-.48,1.6,1.6,0,0,1-.95-1.55,2.27,2.27,0,0,1,.42-1.29h0a.73.73,0,0,1-.43.13,1.8,1.8,0,0,1-1.46-.83,2.82,2.82,0,0,1-.34-1.36,2.49,2.49,0,0,1,2.49-2.5h.16c0-.1,0-.33,0-.65v-.45h-.93c-.39,0-.69,0-1.11,0h-.55V38.11a7.57,7.57,0,0,0,2,.16h.62a1.15,1.15,0,0,1,0-.3v-.54a5.14,5.14,0,0,0-.08-1.09H311a5.39,5.39,0,0,0-.13,1c0,.14,0,.14,0,.49a2.18,2.18,0,0,1,0,.34,11.56,11.56,0,0,0,2.47-.43Zm-4.32,2.74a1.11,1.11,0,0,0-1,1.15c0,.56.31.92.78.92a1.13,1.13,0,0,0,1-1.2c0-.56-.24-.83-.75-.86Zm6.58-4.67a15.37,15.37,0,0,1,3.29,3.25l-1.39,1.11a13,13,0,0,0-3.2-3.37Z"/><path class="cls-8" d="M320.2,49.39A11.32,11.32,0,0,0,322,46.52a9.82,9.82,0,0,0,.76-3.94,9.27,9.27,0,0,0-.74-3.82,11.52,11.52,0,0,0-1.84-2.87h2a11.44,11.44,0,0,1,1.57,2.84,10.1,10.1,0,0,1,.74,3.85,10.88,10.88,0,0,1-.75,4,12,12,0,0,1-1.57,2.84Z"/><path class="cls-8" d="M21.64,58.75a17.26,17.26,0,0,0,3.34.19,5.83,5.83,0,0,0,.58-1.79l1.89.2a10.89,10.89,0,0,0-.58,1.3c-.07.16-.1.2-.13.26a8,8,0,0,1,.91-.06,19.36,19.36,0,0,0,3.77-.49l.1,1.64c-.4,0-.4,0-1.14.12-1.05.13-2.88.24-4.33.29a7.38,7.38,0,0,1-1.33,1.91l0,0,.29-.21a3.42,3.42,0,0,1,2-.65A1.9,1.9,0,0,1,29.12,63c1.11-.4,1.84-.66,2.2-.77a4.38,4.38,0,0,0,1.07-.44l.67,1.66a12.91,12.91,0,0,0-1.6.39c-.2.06-.92.3-2.16.73v.16c0,.38,0,.38,0,.58v.57c0,.25,0,.38,0,.48a5.47,5.47,0,0,0,.05.76l-1.67.05a13,13,0,0,0,.08-1.67v-.35a8.41,8.41,0,0,0-1.38.75,1.52,1.52,0,0,0-.75,1.18c0,.75.69,1,2.43,1a12.52,12.52,0,0,0,4.24-.6l.14,1.86a4.56,4.56,0,0,0-.66,0,25.93,25.93,0,0,1-3.69.26,6.24,6.24,0,0,1-3.21-.6,2.1,2.1,0,0,1-1.05-1.86,2.3,2.3,0,0,1,.63-1.6,7.05,7.05,0,0,1,3.1-2,.79.79,0,0,0-.88-.78,4.92,4.92,0,0,0-2.95,1.48,6.21,6.21,0,0,0-1.25,1.32l-1.31-1.3a9,9,0,0,0,1.29-1.28,19.85,19.85,0,0,0,1.73-2.47.7.7,0,0,1,.12-.18h-.25l-1.81,0h-.64Z"/><path class="cls-8" d="M38.05,64.18c-.91.76-1.31,1.37-1.31,2,0,.93,1,1.34,3.49,1.34a14.82,14.82,0,0,0,4.52-.62l.16,2-.64.06a23.08,23.08,0,0,1-3.89.33,10.55,10.55,0,0,1-3.6-.47,2.49,2.49,0,0,1-1.84-2.41c0-1.11.56-2.06,1.86-3.14Zm-2.19-5.92a18.85,18.85,0,0,0,4.32.36A18.1,18.1,0,0,0,44,58.35L44,60a27.12,27.12,0,0,0-3.84,2.38l-1.25-1c.9-.58,1.06-.68,1.42-.88l.38-.23a2.47,2.47,0,0,0,.31-.18,14.69,14.69,0,0,1-2.16.12A22.78,22.78,0,0,1,36.27,60l-.34,0a1.54,1.54,0,0,0-.2,0Zm7.61,3.2A9.38,9.38,0,0,1,45,63.58l-1,.53A9.62,9.62,0,0,0,42.46,62ZM45.7,63.2a10.7,10.7,0,0,0-1.47-2.09l1-.5a8.31,8.31,0,0,1,1.49,2Z"/><path class="cls-8" d="M50.72,59.43c-.94.18-1.24.23-2.1.36a5.82,5.82,0,0,0-.54-1.39A15.44,15.44,0,0,0,53.63,57l.93,1.33c-1,.36-1.69.56-2.33.73v1.86h1.15a6.83,6.83,0,0,0,1.21-.07v1.57a7.27,7.27,0,0,0-1.24-.07H52.3a8.74,8.74,0,0,0,2.31,2.69,6.85,6.85,0,0,0-.77,1.41,7.94,7.94,0,0,1-1.68-2.3c0,.49.07,1.08.07,1.81v2.51a12.18,12.18,0,0,0,.09,1.83H50.6a11.64,11.64,0,0,0,.1-1.83V66.08c0-.57,0-1.24.08-1.73a10.73,10.73,0,0,1-1,2A10.22,10.22,0,0,1,48.54,68a7.19,7.19,0,0,0-.8-1.51,8.88,8.88,0,0,0,1.57-1.93,18.83,18.83,0,0,0,1.12-2.16h-1a8.33,8.33,0,0,0-1.32.08v-1.6a6.07,6.07,0,0,0,1.35.09h1.3Zm6.34-1.36A10.12,10.12,0,0,0,57,59.82v5.44A11.91,11.91,0,0,0,57,67h-1.7a11,11,0,0,0,.07-1.69V59.82a11.82,11.82,0,0,0-.08-1.75Zm3.42-.86a15.41,15.41,0,0,0-.1,2v9.26c0,.76-.18,1.18-.64,1.43a4.58,4.58,0,0,1-2,.24c-.36,0-.57,0-1.06,0a6.57,6.57,0,0,0-.49-1.6,17.05,17.05,0,0,0,1.9.13c.63,0,.73-.06.73-.43v-9c0-.72,0-1.33-.08-2Z"/><path class="cls-8" d="M64.69,65.77a9.75,9.75,0,0,1-1.46,4.55,8.56,8.56,0,0,0-1.4-1.14,6.51,6.51,0,0,0,1.05-2.44,14.47,14.47,0,0,0,.29-2.2c.07-1.21.13-3.26.13-5,0-1,0-1.5-.07-2.09.5,0,.87,0,1.65,0H73c.81,0,1.21,0,1.66,0,0,.49-.06.85-.06,1.62v9.47c0,1.19-.43,1.5-2.07,1.5-.45,0-1.18,0-1.62-.06a5.79,5.79,0,0,0-.4-1.5c.72.07,1.35.12,1.82.12s.72-.06.72-.36V65.77H69.55v2.36a12.34,12.34,0,0,0,.07,1.71h-1.7a11.38,11.38,0,0,0,.09-1.7V65.77ZM68,62.37H64.82c0,.41,0,.7,0,.9,0,.68,0,.78,0,1.07H68Zm0-3.3H64.87v1.48l0,.4H68ZM73,61V59.07H69.55V61Zm0,3.39v-2H69.55v2Z"/><path class="cls-8" d="M76.38,59.05l.55,0c.26,0,.26,0,2.37-.15l7.36-.37a7.46,7.46,0,0,0,1.49-.12l.1,1.83H88a6.48,6.48,0,0,0-2.86.78c-1.83.95-2.91,2.39-2.91,3.84a2.42,2.42,0,0,0,1.92,2.35,8.58,8.58,0,0,0,2.15.37h.28l-.25,2-.49-.09a8.56,8.56,0,0,1-3.37-1A3.84,3.84,0,0,1,80.36,65a5,5,0,0,1,1.36-3.38,6.33,6.33,0,0,1,2-1.46c-1.17.17-2.06.26-4.86.46a18.07,18.07,0,0,0-2.39.29Zm9.92,2.77a8.9,8.9,0,0,1,1.52,2.12l-1,.53a10,10,0,0,0-1.51-2.15Zm2.24,1.74a11.14,11.14,0,0,0-1.47-2.09l1-.5a8.35,8.35,0,0,1,1.5,2Z"/><path class="cls-8" d="M98.41,62.68c0,.06,0,.18,0,.35a4.33,4.33,0,0,1,.46,2A4.63,4.63,0,0,1,96.73,69a9.81,9.81,0,0,1-2.6,1.18,4.82,4.82,0,0,0-1-1.63,6.76,6.76,0,0,0,2.45-.83,3,3,0,0,0,1.67-2.11,2.34,2.34,0,0,1-2.11,1,2.64,2.64,0,0,1-1.67-.52,2.26,2.26,0,0,1-1-1.95,2.66,2.66,0,0,1,2.87-2.62,2.45,2.45,0,0,1,1.5.43.42.42,0,0,1,0-.17s0-.83,0-1.22c-2.06.05-3.42.1-4,.14-2.18.16-2.18.16-2.56.22l-.06-1.72a6,6,0,0,0,.7,0c.36,0,.59,0,2.45-.07l2.26-.06,1.23,0a8.16,8.16,0,0,0-.09-1.74l1.82,0A10.56,10.56,0,0,0,98.41,59c2.5,0,3.63,0,4.16-.1v1.66c-.53,0-1.22-.07-2.42-.07-.34,0-.6,0-1.74,0v2.17Zm-2.94.15A1.26,1.26,0,0,0,94.13,64a1.14,1.14,0,0,0,1.22,1.14,1.31,1.31,0,0,0,1.41-1.3C96.76,63.22,96.26,62.83,95.47,62.83Z"/><path class="cls-8" d="M109.49,57.48a2.67,2.67,0,0,0-.12.45c0,.19,0,.26-.09.49s0,.3-.24,1.38c-.06.32-.06.35-.1.53.42,0,.62,0,.89,0a2.79,2.79,0,0,1,2.13.76,3.5,3.5,0,0,1,.68,2.55c0,2.48-.42,4.46-1.11,5.25a1.83,1.83,0,0,1-1.6.65,7.12,7.12,0,0,1-2.22-.42c0-.29,0-.49,0-.64a5.67,5.67,0,0,0-.14-1.22,5.88,5.88,0,0,0,2.1.56c.42,0,.65-.27.87-1a12.84,12.84,0,0,0,.37-3.28c0-1.33-.33-1.72-1.47-1.72-.29,0-.5,0-.83.05-.44,1.75-.57,2.19-.88,3.12A32.89,32.89,0,0,1,106,69l-.22.43-.11.25L104,68.78a16.26,16.26,0,0,0,1.5-2.71A24.8,24.8,0,0,0,106.92,62c-.73.09-2.1.33-2.58.46l-.17-1.7c.53,0,2.28-.17,3.07-.29a21.53,21.53,0,0,0,.37-2.91v-.27Zm4.76,1.85a14,14,0,0,1,3,5.61l-1.64.84a13.07,13.07,0,0,0-1.15-3.27,9.13,9.13,0,0,0-1.66-2.46Z"/><path class="cls-8" d="M121.7,66.2a4.77,4.77,0,0,0,0-.61v-.27a2.83,2.83,0,0,1,.59-1.87,4.69,4.69,0,0,1,1.35-1.08c.94-.62,1.27-1.07,1.27-1.73,0-.88-.76-1.43-2-1.43a2,2,0,0,0-1.73.82,2,2,0,0,0-.34,1.1l-2.13-.26a3.66,3.66,0,0,1,1.13-2.18,4.69,4.69,0,0,1,3.19-1,4.47,4.47,0,0,1,2.89.87,2.46,2.46,0,0,1,1,2,2.65,2.65,0,0,1-.5,1.69,5.63,5.63,0,0,1-1.77,1.49c-.89.6-1.12,1-1.12,1.71a6.7,6.7,0,0,0,0,.74Zm2,1.19v2h-2.09v-2Z"/><rect class="cls-9" x="12.73" width="78.91" height="26.74" rx="13.37"/><path class="cls-2" d="M30.69,18.82a10.18,10.18,0,0,0,.1-1.57v-6.6a11.51,11.51,0,0,0-.1-1.57c.53,0,.9,0,1.55,0h2.55a3.5,3.5,0,0,1,2.6.86,2.85,2.85,0,0,1,.75,2.1,3.14,3.14,0,0,1-.81,2.24,3.46,3.46,0,0,1-2.6.88H32.4v2a9,9,0,0,0,.1,1.58Zm4-5a1.54,1.54,0,0,0,1.73-1.67,1.63,1.63,0,0,0-.4-1.17,1.66,1.66,0,0,0-1.33-.44H32.4V13.8Z"/><path class="cls-2" d="M38.78,15.33a3.43,3.43,0,0,1,3.63-3.71A3.4,3.4,0,0,1,46,15.31a3.62,3.62,0,1,1-7.24,0Zm1.57,0c0,1.5.78,2.43,2,2.43s2.05-.91,2.05-2.4-.75-2.48-2-2.48S40.35,13.81,40.35,15.33Z"/><path class="cls-2" d="M49,9.12v1.54H47.17V9.12Zm0,2.7a9.77,9.77,0,0,0-.09,1.6v3.8a10.81,10.81,0,0,0,.09,1.6H47.17a11.4,11.4,0,0,0,.09-1.58V13.41a10.58,10.58,0,0,0-.09-1.59Z"/><path class="cls-2" d="M50.4,18.82a10.41,10.41,0,0,0,.1-1.58V13.41a10.46,10.46,0,0,0-.1-1.59h1.66v.65A3.81,3.81,0,0,1,52,13a2.8,2.8,0,0,1,2.49-1.29,2.42,2.42,0,0,1,2.07.9A2.68,2.68,0,0,1,57,14.31v2.93a10,10,0,0,0,.09,1.58H55.34a13.14,13.14,0,0,0,.08-1.58V14.53a2,2,0,0,0-.21-1.07,1.13,1.13,0,0,0-1-.5c-.88,0-1.6.61-2.13,1.81v2.47a9.92,9.92,0,0,0,.1,1.58Z"/><path class="cls-2" d="M61.11,9.94a13.3,13.3,0,0,0-.09,1.5v.38h.51a7.14,7.14,0,0,0,1.23-.07v1.44a6.67,6.67,0,0,0-1.19-.08H61V16.9c0,.59.22.81.81.81a1.61,1.61,0,0,0,.89-.27l.21,1.3a3.89,3.89,0,0,1-1.52.25c-1.4,0-2-.5-2-1.78v-4.1H59a6.16,6.16,0,0,0-1.08.08V11.75a5.73,5.73,0,0,0,1.1.07h.45v-.38a13.75,13.75,0,0,0-.09-1.5Z"/><path class="cls-2" d="M68.29,18.84a11.7,11.7,0,0,0,.11-1.78V9.5h-.66a13.18,13.18,0,0,0-1.41.08V7.84a7.44,7.44,0,0,0,1.37.08H69a9.28,9.28,0,0,0,1.4-.07,21.24,21.24,0,0,0-.11,2.26v7a11.78,11.78,0,0,0,.11,1.78Z"/><rect class="cls-7" x="116.57" y="152.41" width="228.79" height="72.31" rx="6.83"/><path class="cls-8" d="M135.3,187.22c-.83,0-1.25,0-1.84.05a10.45,10.45,0,0,0,.13-2V177.5a12.41,12.41,0,0,0-.12-1.77c.61,0,.84,0,1.82,0h3.4c2.23,0,3.48,1,3.48,2.81a2.57,2.57,0,0,1-.8,2,2.46,2.46,0,0,1-1.14.6,2.66,2.66,0,0,1,1.45.67,2.83,2.83,0,0,1,.9,2.2c0,2-1.34,3.15-3.73,3.15Zm3.19-6.77a1.53,1.53,0,0,0,1.74-1.57,1.41,1.41,0,0,0-.38-1.06,2,2,0,0,0-1.38-.45h-3v3.08Zm-3,5.15h3.1c1.28,0,2-.64,2-1.8a1.56,1.56,0,0,0-.46-1.26,2.4,2.4,0,0,0-1.57-.49h-3.07Z"/><path class="cls-8" d="M146.4,175.76a10.49,10.49,0,0,0-.11,1.86v7.75a10.44,10.44,0,0,0,.11,1.85h-2.19a10.29,10.29,0,0,0,.12-1.85v-7.75a10.27,10.27,0,0,0-.12-1.86Z"/><path class="cls-8" d="M157.74,184.27a11.44,11.44,0,0,0,.1,1.87,9,9,0,0,1-2.31,1,8.67,8.67,0,0,1-2.12.27,5,5,0,0,1-4.09-1.66,6.73,6.73,0,0,1-1.35-4.37,5.79,5.79,0,0,1,2.3-5.06,5.5,5.5,0,0,1,3.2-.85,4.74,4.74,0,0,1,3.32,1.24,4.1,4.1,0,0,1,1.06,1.71l-2,.54a2.37,2.37,0,0,0-2.65-1.78,3.06,3.06,0,0,0-2.19.88,4.53,4.53,0,0,0-1.07,3.29,5.09,5.09,0,0,0,1,3.37,3,3,0,0,0,2.51,1,4.32,4.32,0,0,0,2.45-.65v-2.34h-.78a8.14,8.14,0,0,0-1.47.08v-1.86a9.86,9.86,0,0,0,1.73.09h.75c.66,0,1.08,0,1.7-.06a11.16,11.16,0,0,0-.1,1.79Z"/><path class="cls-8" d="M167.8,187.32a14.33,14.33,0,0,0-2.05-.1h-4.26c-.81,0-1.31,0-1.83.05a11.06,11.06,0,0,0,.12-1.9v-7.48a13.5,13.5,0,0,0-.12-2.13h2.18a12.59,12.59,0,0,0-.12,2.12v7.6h4a15.49,15.49,0,0,0,2.05-.1Z"/><path class="cls-8" d="M177.47,177a6.21,6.21,0,0,1,1.61,4.49c0,3.65-2.12,6-5.39,6s-5.37-2.35-5.37-6A6.18,6.18,0,0,1,170,177a5,5,0,0,1,3.72-1.44A5.06,5.06,0,0,1,177.47,177Zm-.4,4.49a4.66,4.66,0,0,0-1.14-3.35,3.1,3.1,0,0,0-2.22-.88c-2.08,0-3.39,1.64-3.39,4.25a4.76,4.76,0,0,0,1.17,3.4,3.12,3.12,0,0,0,2.23.87C175.78,185.75,177.07,184.11,177.07,181.46Z"/><path class="cls-8" d="M182.51,187.22c-.84,0-1.25,0-1.84.05a10.45,10.45,0,0,0,.13-2V177.5a14.07,14.07,0,0,0-.12-1.77c.61,0,.84,0,1.82,0h3.4c2.23,0,3.48,1,3.48,2.81a2.57,2.57,0,0,1-.81,2,2.37,2.37,0,0,1-1.13.6,2.66,2.66,0,0,1,1.45.67,2.82,2.82,0,0,1,.89,2.2c0,2-1.34,3.15-3.73,3.15Zm3.18-6.77a1.53,1.53,0,0,0,1.75-1.57,1.45,1.45,0,0,0-.38-1.06,2,2,0,0,0-1.38-.45h-3v3.08Zm-3,5.15h3.09c1.29,0,2-.64,2-1.8a1.6,1.6,0,0,0-.46-1.26,2.4,2.4,0,0,0-1.57-.49H182.7Z"/><path class="cls-8" d="M199.6,187.32a12.71,12.71,0,0,0-1.86-.1h-4.49c-.87,0-1.25,0-1.83.05a11.35,11.35,0,0,0,.11-1.9v-7.8a12.11,12.11,0,0,0-.11-1.85c.58,0,1,0,1.83,0h4.35a15.94,15.94,0,0,0,1.86-.1v1.9a13.27,13.27,0,0,0-1.86-.1h-4.15v3H197a13.45,13.45,0,0,0,1.87-.11v1.89a10.91,10.91,0,0,0-1.87-.1h-3.51v3.4h4.32a14.15,14.15,0,0,0,1.84-.1Z"/><path class="cls-8" d="M202.05,182.21c.62-.43,1.24-1.14,3.14-3.53a4.16,4.16,0,0,1,.9-.9,2,2,0,0,1,1.15-.44,2,2,0,0,1,1.29.55,8.33,8.33,0,0,1,1,1,45.67,45.67,0,0,0,4.31,4.4,8.62,8.62,0,0,0,1.57,1.21l-.88,2.05a4.14,4.14,0,0,0-.42-.42c-.75-.66-1.89-1.74-2.94-2.79s-1.12-1.17-2.66-2.93c-.9-1-1-1.09-1.26-1.09s-.37.13-.86.78a40.7,40.7,0,0,1-2.84,3.48,2.4,2.4,0,0,0-.3.39Z"/><path class="cls-8" d="M218.21,182.46v-7.62h4.31v1.57h-2.59v6.05Z"/><path class="cls-8" d="M229.35,176.23a6.81,6.81,0,0,0-.08-1.26h1.83a6.54,6.54,0,0,0-.08,1.26v.57h3.86a13.45,13.45,0,0,0,1.76-.09v1.64a13.11,13.11,0,0,0-1.74-.09H231v1.85H233a7,7,0,0,0,1.23-.07l.95,1c-.16.19-.39.52-.68.94a13.14,13.14,0,0,1-2.68,2.94,14.77,14.77,0,0,0,5.17,1.65,6,6,0,0,0-.77,1.67,15.54,15.54,0,0,1-5.79-2.33,16,16,0,0,1-5.87,2.28,6.63,6.63,0,0,0-.79-1.54,15.58,15.58,0,0,0,5.35-1.71,10,10,0,0,1-2.74-3.39,13.42,13.42,0,0,0-1.36.08V180a13.07,13.07,0,0,0,1.75.09h2.63v-1.85h-3.66a13.32,13.32,0,0,0-1.74.09v-1.64a13.66,13.66,0,0,0,1.76.09h3.64Zm-1.28,5.28a7.93,7.93,0,0,0,2.36,2.52,8.47,8.47,0,0,0,2.35-2.52Z"/><path class="cls-8" d="M242.47,177.69a8.5,8.5,0,0,0,1.05-.06v1.5a9.51,9.51,0,0,0-1.05-.06h-.67v2.23c.51-.15.76-.24,1.65-.54l.05,1.39c-.36.13-.93.34-1.7.59v4.07c0,1.05-.48,1.36-2,1.36-.3,0-.64,0-1.13,0a5.28,5.28,0,0,0-.34-1.55,11.23,11.23,0,0,0,1.5.11c.35,0,.43-.08.43-.42v-3l-1,.3a4.71,4.71,0,0,0-.78.25l-.3-1.63a12.62,12.62,0,0,0,2.1-.43v-2.67h-.82a10.18,10.18,0,0,0-1.11.07V177.6a6.81,6.81,0,0,0,1.13.09h.8v-1.18a8.87,8.87,0,0,0-.08-1.47h1.71a9.65,9.65,0,0,0-.08,1.45v1.2Zm7.31,10.41c-.16-.63-.21-.8-.35-1.34-1.94.39-3.2.61-5.23.88-.81.12-1.21.18-1.55.26l-.31-1.77h.23c.06,0,.35,0,.84,0a49.69,49.69,0,0,0,2.38-10.92l1.84.29-.78,3.77c-.42,2.05-1.21,5.17-1.73,6.71,1.93-.21,2.39-.29,3.88-.56a27.4,27.4,0,0,0-1.66-4l1.4-.57a41.57,41.57,0,0,1,2.62,6.61Z"/><path class="cls-8" d="M258.17,176.18a6,6,0,0,0-.1-1.2h1.86a6.23,6.23,0,0,0-.09,1.2v.87h4a11.19,11.19,0,0,0,1.82-.1v1.75a12.34,12.34,0,0,0-1.76-.09h-5.27c-.07,1.08-.07,1.12-.12,1.56h4a8.63,8.63,0,0,0,1.49-.08.28.28,0,0,1,0,.15c0,.21,0,.39-.05,1a29,29,0,0,1-.49,5.05c-.33,1.37-.81,1.73-2.25,1.73-.5,0-.84,0-1.95-.1a4.61,4.61,0,0,0-.41-1.67,13.64,13.64,0,0,0,2.16.19c.63,0,.78-.16,1-1.16a20.44,20.44,0,0,0,.32-3.61h-4a9.41,9.41,0,0,1-4.62,6.52,3.88,3.88,0,0,0-1.17-1.36A9.33,9.33,0,0,0,255,184.7c1.24-1.48,1.73-3.15,1.8-6.09h-2.36a15,15,0,0,0-1.8.09V177a11.77,11.77,0,0,0,1.8.1h3.7Z"/><path class="cls-8" d="M267.46,178.54A16.69,16.69,0,0,1,270,180.3l-.9,1.31a15.07,15.07,0,0,0-2.57-1.92Zm2.57,4.92c-.51,1.33-.82,2.09-1.4,3.29a9.52,9.52,0,0,0-.44,1,2,2,0,0,1-.18.36l-1.38-1.21a17.83,17.83,0,0,0,2.12-4.32ZM268.17,175a15.08,15.08,0,0,1,2.48,1.85l-1,1.25a14.81,14.81,0,0,0-2.48-2ZM270,186.11a4.82,4.82,0,0,0,.49,0l1.07,0a22.43,22.43,0,0,0,1.78-4h-1.55a12,12,0,0,0-1.56.09v-1.62a10.87,10.87,0,0,0,1.57.09h2.25v-2.16h-1.73c-.56,0-1.05,0-1.51.07V177a11.63,11.63,0,0,0,1.52.08h1.72v-.63a7.78,7.78,0,0,0-.09-1.51h1.74a8.58,8.58,0,0,0-.08,1.51v.63h2.3a11.89,11.89,0,0,0,1.47-.08v1.58a9.54,9.54,0,0,0-1.45-.07h-2.32v2.16h2.76a11.09,11.09,0,0,0,1.52-.09v1.62a11,11,0,0,0-1.5-.09H275a7.57,7.57,0,0,1-.29.79,27.58,27.58,0,0,1-1.26,2.8l-.13.27a36.31,36.31,0,0,0,3.83-.47,19.17,19.17,0,0,0-1.41-2.05l1.28-.66a30.93,30.93,0,0,1,2.91,4.43l-1.41.85c-.33-.66-.43-.88-.66-1.32a50.17,50.17,0,0,1-5.22.75c-1.57.16-1.87.2-2.33.29Z"/><path class="cls-8" d="M281.87,176.69a17.26,17.26,0,0,0,3.34.19,5.38,5.38,0,0,0,.57-1.78l1.89.2c-.08.14-.08.14-.58,1.29l-.12.26.9,0a20.44,20.44,0,0,0,3.78-.49l.1,1.64-1.14.11c-1.05.13-2.88.25-4.34.29a7.43,7.43,0,0,1-1.32,1.92v0l.29-.22a3.51,3.51,0,0,1,2-.65,1.89,1.89,0,0,1,2.06,1.53l2.21-.78a4.62,4.62,0,0,0,1.06-.43l.68,1.65a14.5,14.5,0,0,0-1.6.39l-2.16.74v.16c0,.37,0,.37,0,.57v.58c0,.24,0,.37,0,.47a5.88,5.88,0,0,0,0,.77l-1.67,0a10.92,10.92,0,0,0,.09-1.67v-.35a9.69,9.69,0,0,0-1.38.75,1.52,1.52,0,0,0-.75,1.18c0,.75.69,1.06,2.43,1.06a12.53,12.53,0,0,0,4.24-.61l.14,1.86a3.48,3.48,0,0,0-.66.06,25.93,25.93,0,0,1-3.69.26,6.17,6.17,0,0,1-3.21-.61,2.06,2.06,0,0,1-1.05-1.86,2.3,2.3,0,0,1,.63-1.6,7.14,7.14,0,0,1,3.1-2,.79.79,0,0,0-.88-.77,4.82,4.82,0,0,0-3,1.48,6.29,6.29,0,0,0-1.26,1.31l-1.31-1.3a8.44,8.44,0,0,0,1.3-1.28,19.09,19.09,0,0,0,1.73-2.46.48.48,0,0,1,.11-.19l-.24,0-1.82,0-.4,0a1.11,1.11,0,0,0-.23,0Z"/><path class="cls-8" d="M307.64,177.57a1.76,1.76,0,0,0-.26.31c-.35.41-.84.93-1.27,1.34a15.74,15.74,0,0,0,2.19,1,4.67,4.67,0,0,0-.75,1.44,13.93,13.93,0,0,1-3.48-2.09v.85a5.89,5.89,0,0,0-1-.06h-3.18a5.75,5.75,0,0,0-.91.06v-.94a15.78,15.78,0,0,1-3.59,2.24,4.49,4.49,0,0,0-.77-1.37,12.78,12.78,0,0,0,2.7-1.43,11.78,11.78,0,0,0-1.93-1.68l1.07-.95a17.91,17.91,0,0,1,2,1.75,8,8,0,0,0,1.37-1.45H298a5.65,5.65,0,0,0-.88.06v-1.46a6.45,6.45,0,0,0,1.2.07H301a9,9,0,0,0,1.24-.05,3.62,3.62,0,0,0,1,1.62,7.49,7.49,0,0,0,1.21-1.55l1.2.79a17.43,17.43,0,0,1-1.49,1.66,11.34,11.34,0,0,0,.9.72,7.93,7.93,0,0,0,1.42-1.7Zm-8.79,8.91a5.35,5.35,0,0,0-.59-1.17l1.27-.46H298a9.17,9.17,0,0,0-1,0,8.86,8.86,0,0,0,.06-1V182a7.7,7.7,0,0,0-.06-1,7.85,7.85,0,0,0,1.14.06h6.8A7.1,7.1,0,0,0,306,181a6.8,6.8,0,0,0-.06,1v1.83a7.43,7.43,0,0,0,.06,1,9.28,9.28,0,0,0-1,0h-1.39l1.19.43c-.23.43-.56,1.05-.66,1.2h2.46a8.68,8.68,0,0,0,1.41-.08V188a10.12,10.12,0,0,0-1.49-.07h-10a10.43,10.43,0,0,0-1.5.07V186.4a8.62,8.62,0,0,0,1.4.08Zm-.36-2.93h5.94v-1.17h-5.94Zm4.63-4.45h.36a12.44,12.44,0,0,1-2-2.26,11.68,11.68,0,0,1-2,2.26h3.62Zm-.57,7.38a8.92,8.92,0,0,0,.74-1.63h-3.6a11.86,11.86,0,0,1,.72,1.63Z"/><path class="cls-8" d="M311.26,179.76a8.08,8.08,0,0,0-.85.05V179c-.27.25-.36.32-.66.56a4.12,4.12,0,0,0-.67-1.36,6.77,6.77,0,0,0,2.5-3.12h1.58a5.66,5.66,0,0,0,2.1,2.42,5.45,5.45,0,0,0-.88,1.29l-.11-.1v1.08a4.42,4.42,0,0,0-.85-.05H313v1h.58a7,7,0,0,0,1-.06v-1.2a8.93,8.93,0,0,0,1.38.09h3.65c0-.43,0-.57.06-.82h-2.86a8.84,8.84,0,0,0-1.31.06v-1.37a7.29,7.29,0,0,0,1.31.07h2.91c0-.36,0-.4.05-.79h-3.23a10,10,0,0,0-1.37.06v-1.39a9.26,9.26,0,0,0,1.44.08H320a11.13,11.13,0,0,0,1.32-.06c0,.33,0,.33-.09,1.4,0,.74-.11,2-.17,2.76h.09a8.58,8.58,0,0,0,1.38-.09v1.43a13.1,13.1,0,0,0-1.37-.07h-1.93a7,7,0,0,0,.69,2.13,6.92,6.92,0,0,0,1.4-1.73l1.18.84a15.67,15.67,0,0,1-1.91,2,6.85,6.85,0,0,0,2.22,2.08,6.29,6.29,0,0,0-.87,1.41,9.12,9.12,0,0,1-1.76-1.86,8.26,8.26,0,0,1-1.09-2.23c0,.29.06.82.09,1.6V187c0,1-.42,1.31-1.59,1.31-.32,0-.7,0-1.27-.06a4,4,0,0,0-.33-1.45,5.69,5.69,0,0,0,1.13.14c.53,0,.63,0,.63-.37v-1.37c-.5.42-.59.5-1,.81l-1.23.85c-.23.15-.23.15-.47.33l-.46-1v.58a31.84,31.84,0,0,1-3.86,1,8.36,8.36,0,0,0-1.14.26l-.22-1.58a10.69,10.69,0,0,0,2.25-.3v-4h-.75a12.48,12.48,0,0,0-1.41.07v-1.46a13,13,0,0,0,1.42.07h.74v-1Zm-1.12,6a14.82,14.82,0,0,0-.61-2.81l1.12-.35a15.11,15.11,0,0,1,.64,2.8Zm1.15-7.26h2.14a4.28,4.28,0,0,0,.54,0,8.38,8.38,0,0,1-1.53-2,8.7,8.7,0,0,1-1.44,2.05Zm4.69,2.36a9,9,0,0,0-1.28.06v1.23a6.63,6.63,0,0,0-1.12-.07H313v3.75c.55-.13.81-.22,1.57-.45v.3a15.47,15.47,0,0,0,3.2-2.08v-2.74Zm-2.81,4a10.63,10.63,0,0,0,.58-2.35l1.1.36a13.48,13.48,0,0,1-.7,2.3Zm2.93-3.62a9.36,9.36,0,0,1,1.25,2.15l-1.11.73a10.25,10.25,0,0,0-1.26-2.29Z"/><path class="cls-8" d="M327.93,180.7v7.62h-4.31v-1.57h2.59V180.7Z"/><path class="cls-8" d="M134.05,197.69a17.26,17.26,0,0,0,3.34.19,5.71,5.71,0,0,0,.58-1.78l1.88.2a13.28,13.28,0,0,0-.57,1.29,1.91,1.91,0,0,1-.13.26l.91,0a20.18,20.18,0,0,0,3.77-.49l.1,1.64-1.14.11c-1,.13-2.88.25-4.33.29a7.44,7.44,0,0,1-1.33,1.92l0,0,.28-.22a3.54,3.54,0,0,1,2-.65,1.9,1.9,0,0,1,2.06,1.53l2.2-.78a4.58,4.58,0,0,0,1.07-.43l.67,1.65a15.07,15.07,0,0,0-1.6.39l-2.16.74v.16c0,.37,0,.37,0,.57v.58c0,.24,0,.37,0,.47a5.74,5.74,0,0,0,0,.77l-1.67,0a12.85,12.85,0,0,0,.08-1.67v-.35a10.31,10.31,0,0,0-1.38.75A1.52,1.52,0,0,0,138,206c0,.75.69,1.06,2.43,1.06a12.49,12.49,0,0,0,4.24-.61l.14,1.86a3.62,3.62,0,0,0-.66.06,25.93,25.93,0,0,1-3.69.26,6.22,6.22,0,0,1-3.21-.61,2.08,2.08,0,0,1-1-1.86,2.3,2.3,0,0,1,.63-1.6,7.14,7.14,0,0,1,3.1-2,.79.79,0,0,0-.88-.77,4.87,4.87,0,0,0-3,1.48,6,6,0,0,0-1.25,1.31l-1.32-1.3a8,8,0,0,0,1.3-1.28,19.09,19.09,0,0,0,1.73-2.46,1,1,0,0,1,.11-.19l-.24,0-1.81,0-.41,0a1.16,1.16,0,0,0-.23,0Z"/><path class="cls-8" d="M150.31,196.57a11.94,11.94,0,0,0-.17,2c-.06,1.34-.15,4.26-.15,5.28a4,4,0,0,0,.38,2.32,2.26,2.26,0,0,0,1.93.75,3.7,3.7,0,0,0,3.48-2.46,9.64,9.64,0,0,0,.67-2.42,6.2,6.2,0,0,0,1.74,1.11,8.86,8.86,0,0,1-1.72,3.67,5.46,5.46,0,0,1-4.32,1.83,4.66,4.66,0,0,1-2.52-.64c-1-.66-1.41-1.77-1.41-3.7,0-.75,0-2.19.12-5.8,0-.43,0-.74,0-.94a6.29,6.29,0,0,0-.06-1Z"/><path class="cls-8" d="M158.78,198h.55c.26,0,.26,0,2.38-.14.8,0,3.19-.17,7.18-.36a8.82,8.82,0,0,0,1.66-.14l.1,1.84h-.3a6.39,6.39,0,0,0-2.85.77c-1.83,1-2.91,2.39-2.91,3.85a2.42,2.42,0,0,0,1.91,2.35,9.06,9.06,0,0,0,2.15.37h.29l-.26,2a2.7,2.7,0,0,0-.49-.09,8.61,8.61,0,0,1-3.37-.95,3.84,3.84,0,0,1-2.06-3.47,5.05,5.05,0,0,1,1.37-3.4,6.14,6.14,0,0,1,2-1.44c-1.17.17-1.73.21-4.86.44-1,.08-1.83.18-2.39.29Z"/><path class="cls-8" d="M174.71,197.46a15.39,15.39,0,0,0-.12,2.19,28.1,28.1,0,0,0,.27,3.86c.25,1.5.71,2.42,1.17,2.42.22,0,.42-.21.59-.62a10.41,10.41,0,0,0,.77-2.6,7.1,7.1,0,0,0,1.44,1.31c-.75,2.81-1.59,4-2.81,4-1,0-1.75-.7-2.32-2.09s-.85-3.52-.91-7.51a5.44,5.44,0,0,0-.06-.93Zm6.81.65a14.43,14.43,0,0,1,3.24,7.75l-1.79.68a14.2,14.2,0,0,0-.92-4.16,12.77,12.77,0,0,0-2-3.55Z"/><path class="cls-8" d="M196.77,208.21a9.65,9.65,0,0,0-2.67-2,4.93,4.93,0,0,0-.77-.36V206a2.25,2.25,0,0,1-.81,1.95,3.84,3.84,0,0,1-2.38.62c-2.1,0-3.31-.82-3.31-2.25s1.43-2.49,3.85-2.49a6.43,6.43,0,0,1,1,.06c0-.18,0-.18,0-.35v-.32a7.07,7.07,0,0,1,0-.77l-1.44,0c-.88,0-1.41,0-2.61-.11H187l0-1.56a18,18,0,0,0,3.36.25l1.18,0c0-.13,0-.62,0-1.44h-.9c-.71,0-2.57-.07-3.53-.14h-.55l0-1.6a19.41,19.41,0,0,0,3.87.3c.23,0,.72,0,1.08,0a9.58,9.58,0,0,0-.07-1.81h1.83a8.68,8.68,0,0,0-.1,1.75,19.32,19.32,0,0,0,4.14-.54l.08,1.6a8.28,8.28,0,0,0-1.14.12,29.52,29.52,0,0,1-3.1.29c0,.36,0,.54,0,1.43.72,0,.72,0,2-.19a9.57,9.57,0,0,0,1.78-.32l.05,1.59c-.25,0-.61.06-.94.1s-.86.1-1.94.2l-1,.06.05,1.74a13.14,13.14,0,0,1,3.95,2,6.05,6.05,0,0,0,.52.33Zm-6.3-2.92c-1.16,0-1.87.37-1.87,1s.62.86,1.64.86a1.51,1.51,0,0,0,1.26-.46,1.87,1.87,0,0,0,.17-.92v-.34A4.64,4.64,0,0,0,190.47,205.29Z"/><path class="cls-8" d="M207.73,201.63c0,.05,0,.17,0,.34a4.51,4.51,0,0,1,.46,2,4.61,4.61,0,0,1-2.15,3.89,10,10,0,0,1-2.6,1.18,4.66,4.66,0,0,0-1-1.62,6.88,6.88,0,0,0,2.45-.84,3,3,0,0,0,1.67-2.1,2.37,2.37,0,0,1-2.12,1,2.66,2.66,0,0,1-1.67-.52,2.26,2.26,0,0,1-1-1.94,2.65,2.65,0,0,1,2.87-2.62,2.34,2.34,0,0,1,1.49.43.87.87,0,0,1,0-.18s0-.83,0-1.22c-2.06.06-3.42.1-4.05.14-2.18.16-2.18.16-2.57.22l-.05-1.71a5.87,5.87,0,0,0,.7,0c.36,0,.59,0,2.45-.08l2.26-.05,1.23-.05a8.16,8.16,0,0,0-.09-1.74h1.82a11.11,11.11,0,0,0-.08,1.71c2.51,0,3.63,0,4.17-.1v1.65c-.53,0-1.22-.07-2.42-.07-.34,0-.6,0-1.74,0v.94Zm-2.94.14a1.26,1.26,0,0,0-1.33,1.15,1.13,1.13,0,0,0,1.22,1.14,1.31,1.31,0,0,0,1.41-1.29C206.09,202.16,205.59,201.77,204.79,201.77Z"/><path class="cls-8" d="M218.81,196.43c0,.13-.08.29-.11.44s0,.26-.09.49,0,.31-.24,1.39c-.06.31-.06.34-.1.53.41,0,.62,0,.89,0a2.76,2.76,0,0,1,2.13.76,3.5,3.5,0,0,1,.68,2.55c0,2.48-.42,4.45-1.11,5.24a1.82,1.82,0,0,1-1.6.65A7.12,7.12,0,0,1,217,208c0-.29,0-.49,0-.63a5.75,5.75,0,0,0-.14-1.23,5.87,5.87,0,0,0,2.1.57c.42,0,.65-.28.86-1a12.81,12.81,0,0,0,.38-3.29c0-1.32-.33-1.71-1.47-1.71a8.39,8.39,0,0,0-.84,0c-.43,1.76-.56,2.19-.87,3.13a32.17,32.17,0,0,1-1.73,4l-.22.44a2.58,2.58,0,0,1-.12.24l-1.67-.92a15.2,15.2,0,0,0,1.5-2.71,24.55,24.55,0,0,0,1.4-4.07,24,24,0,0,0-2.58.46l-.17-1.7c.53,0,2.27-.18,3.07-.29a21.91,21.91,0,0,0,.37-2.91v-.27Zm4.77,1.84a14,14,0,0,1,3,5.62l-1.64.83a13.23,13.23,0,0,0-1.16-3.27A9.44,9.44,0,0,0,222.1,199Z"/><path class="cls-8" d="M231,205.14a4.83,4.83,0,0,0,0-.6l0-.28a2.91,2.91,0,0,1,.59-1.87,5,5,0,0,1,1.36-1.08c.93-.62,1.27-1.07,1.27-1.73,0-.88-.77-1.42-2-1.42a2,2,0,0,0-1.73.82,2.09,2.09,0,0,0-.35,1.09l-2.13-.26a3.61,3.61,0,0,1,1.14-2.17,4.61,4.61,0,0,1,3.18-1,4.55,4.55,0,0,1,2.9.86,2.48,2.48,0,0,1,1,2,2.74,2.74,0,0,1-.5,1.7,5.93,5.93,0,0,1-1.77,1.48c-.9.61-1.13.95-1.13,1.72a6.56,6.56,0,0,0,.05.73Zm2,1.2v2h-2.09v-2Z"/><rect class="cls-9" x="121.62" y="138.94" width="78.91" height="26.74" rx="13.37"/><path class="cls-2" d="M139.58,157.77a10.32,10.32,0,0,0,.1-1.58V149.6a11.55,11.55,0,0,0-.1-1.58c.52,0,.9,0,1.55,0h2.54a3.43,3.43,0,0,1,2.6.87A2.84,2.84,0,0,1,147,151a3.13,3.13,0,0,1-.82,2.25,3.49,3.49,0,0,1-2.6.87h-2.32v2a10.42,10.42,0,0,0,.09,1.59Zm4-5a1.54,1.54,0,0,0,1.74-1.67,1.63,1.63,0,0,0-.41-1.17,1.68,1.68,0,0,0-1.33-.44h-2.32v3.28Z"/><path class="cls-2" d="M147.66,154.28a3.63,3.63,0,1,1,3.65,3.72A3.44,3.44,0,0,1,147.66,154.28Zm1.58,0c0,1.5.78,2.42,2,2.42s2.05-.91,2.05-2.4-.74-2.47-2-2.47S149.24,152.75,149.24,154.28Z"/><path class="cls-2" d="M157.84,148.06v1.55h-1.79v-1.55Zm0,2.71a11.15,11.15,0,0,0-.08,1.59v3.81a12.64,12.64,0,0,0,.08,1.6h-1.78a10.13,10.13,0,0,0,.1-1.59v-3.83a9.18,9.18,0,0,0-.1-1.58Z"/><path class="cls-2" d="M159.29,157.77a10.75,10.75,0,0,0,.09-1.59v-3.83a10.44,10.44,0,0,0-.09-1.58h1.65v.64c0,.19,0,.22,0,.53a2.78,2.78,0,0,1,2.49-1.29,2.41,2.41,0,0,1,2.07.9,2.72,2.72,0,0,1,.41,1.7v2.93a10.11,10.11,0,0,0,.1,1.59h-1.77a13.24,13.24,0,0,0,.09-1.59v-2.71a2,2,0,0,0-.21-1.07,1.13,1.13,0,0,0-1-.5c-.88,0-1.6.61-2.14,1.82v2.46a11.4,11.4,0,0,0,.1,1.59Z"/><path class="cls-2" d="M170,148.89a13.32,13.32,0,0,0-.08,1.5v.38h.51a7,7,0,0,0,1.23-.08v1.44a6.78,6.78,0,0,0-1.19-.07h-.55v3.78c0,.6.22.81.8.81a1.66,1.66,0,0,0,.89-.26l.22,1.29a3.88,3.88,0,0,1-1.52.26c-1.41,0-2-.5-2-1.78v-4.1h-.46a6.19,6.19,0,0,0-1.08.07v-1.44a5.52,5.52,0,0,0,1.09.08h.45v-.38a13.73,13.73,0,0,0-.08-1.5Z"/><path class="cls-2" d="M175.61,157.78a13.41,13.41,0,0,0-1.77.07,6.75,6.75,0,0,1,.36-1.75,6.64,6.64,0,0,1,1.88-2.69,18.45,18.45,0,0,1,2.26-1.66c1.26-.87,1.65-1.32,1.65-2,0-.93-.73-1.51-1.9-1.51a2,2,0,0,0-1.74.81,2.68,2.68,0,0,0-.43,1.26l-2-.23a4.19,4.19,0,0,1,.95-2.2,4,4,0,0,1,3.14-1.22c2.4,0,3.88,1.16,3.88,3a2.78,2.78,0,0,1-1,2.19,16.09,16.09,0,0,1-2.31,1.69,12.28,12.28,0,0,0-1.63,1.37,3.38,3.38,0,0,0-.78,1.23h3.84a14.06,14.06,0,0,0,2-.11v1.82a20.2,20.2,0,0,0-2.07-.09Z"/><path class="cls-10" d="M157.42,340.84a14.72,14.72,0,0,0,6.36,1.66.7.7,0,0,1,.38.1.65.65,0,0,1,.2.35,15.2,15.2,0,0,1,.3,4.36,14.44,14.44,0,0,1,0,3.22q-.34,2-.81,4.05a2.89,2.89,0,0,1-1.13,2,2.05,2.05,0,0,1-2.07-.24,8.14,8.14,0,0,1-1.53-1.57,39.8,39.8,0,0,0-3.56-3.43c-1.06-1-2.16-1.87-3.22-2.81-.55-.49-1.08-1-1.6-1.49a12.81,12.81,0,0,1-1.2-1.62,8,8,0,0,1-1.5-4.59c0-.78.08-1,.8-1.35s1.41-.91,2.19-1.23a14.08,14.08,0,0,1,2.4-.87c.57-.11.52.21.87.72a7.61,7.61,0,0,0,.9,1.07A10.23,10.23,0,0,0,157.42,340.84Z"/><rect class="cls-3" x="148.02" y="313.77" width="6.57" height="30.79" transform="translate(-80 50.35) rotate(-14.99)"/><path class="cls-11" d="M146.54,335.17a4.33,4.33,0,0,1-.11-1.68,3.67,3.67,0,0,1,2.18-2.36,4.83,4.83,0,0,1,3.78-.42,2.51,2.51,0,0,1,1.55,3.14c-.14.32-.37.6-.51.92-.43,1,0,2.22-.43,3.19a3.67,3.67,0,0,1-1.52,1.34C147.8,341.41,147.15,338.33,146.54,335.17Z"/><path class="cls-12" d="M190.26,325.61a15.06,15.06,0,0,0-.38-3.69,13.15,13.15,0,0,0-1.43-3.69,7.16,7.16,0,0,0-3-2.87,3.19,3.19,0,0,0-1.11-.23,7.16,7.16,0,0,0-.67-.73,14.85,14.85,0,0,0-10.73-3.95A16.42,16.42,0,0,0,162,314.82a14.28,14.28,0,0,0-1.21,1.25,15.64,15.64,0,0,0-1.39,1.87,10.21,10.21,0,0,0-.91,1.69,16.7,16.7,0,0,0-1.27,3.68c-1.07,7,.59,16.14,6.83,19.64,3,1.68,9,3.09,9,3.09a76,76,0,0,0,7.69-2.3C188.17,340.65,190.24,331.63,190.26,325.61Z"/><path class="cls-10" d="M179.28,342.54H167.11a9.36,9.36,0,0,0-9.33,9.33v8.48h30.83v-8.48A9.36,9.36,0,0,0,179.28,342.54Z"/><path class="cls-2" d="M166.85,343.49a2.22,2.22,0,0,0-.76,3.16,4,4,0,0,0,3.19,1.6c1.81.12,4-.88,4.1-2.69l-6.84-1.63"/><path class="cls-2" d="M179.55,343.49a2.21,2.21,0,0,1,.75,3.16,4,4,0,0,1-3.18,1.6c-1.82.12-4-.88-4.11-2.69l6.84-1.63"/><path class="cls-12" d="M184.66,337.88c4.57-.35,5.3,5.79,3.55,8.7-.81,1.34-1.66,1.68-2.94,2.46-.56.34-1.63.46-2,1.09a1.6,1.6,0,0,0-.11,1.41c.25.52-.26.49-.83.26-.84-.33-1.93-1.12-2-2.12,0-.69.42-1,.72-1.54.86-1.52-1.06-3.24-1-4.84,0-2,2.16-3.15,3.65-4C184.75,338.76,185.8,338.31,184.66,337.88Z"/><ellipse class="cls-11" cx="173.2" cy="329.08" rx="14.79" ry="17.1"/><circle class="cls-11" cx="187.74" cy="333.14" r="3.71"/><path class="cls-12" d="M158.41,330.56c.39-.87,2.4-2,3.17-2.51a32,32,0,0,1,7.06-2.3,24.91,24.91,0,0,1,8.6-.35c4.83.68,7.31,1.77,10.83,5.1.11-1.77.87-3.44.5-5.19a30.17,30.17,0,0,0-.91-4,7.71,7.71,0,0,0-1.9-3.21c-2.67-2.64-5.79-6.22-9.73-6.56a19.37,19.37,0,0,0-8.16.67c-2.36.86-4.21,3.77-6,5.55a12.14,12.14,0,0,0-4,7C157.72,325.91,157.66,329.73,158.41,330.56Z"/><path class="cls-11" d="M165.23,327.38a38.33,38.33,0,0,1,2.59-5.27,45.48,45.48,0,0,0-.77,5.08Z"/><path class="cls-11" d="M174.54,327.57a38.33,38.33,0,0,1,2.59-5.27,45.87,45.87,0,0,0-.77,5.08Z"/><path class="cls-11" d="M169.32,327.22a52.76,52.76,0,0,1,3.48-7.08,61.59,61.59,0,0,0-1,6.82Z"/><circle class="cls-11" cx="158.64" cy="333.14" r="3.71"/><circle class="cls-13" cx="168.63" cy="331.22" r="1.47"/><circle class="cls-13" cx="177.61" cy="331.22" r="1.47"/><path class="cls-13" d="M173.17,338.36a3,3,0,0,0,2.15-.9.53.53,0,0,0,0-.77.55.55,0,0,0-.77,0,2,2,0,0,1-2.77,0,.55.55,0,0,0-.77,0,.54.54,0,0,0,0,.78A3,3,0,0,0,173.17,338.36Z"/><rect class="cls-14" x="123.62" y="296.38" width="41.63" height="29.28" transform="matrix(0.97, -0.26, 0.26, 0.97, -75.54, 47.95)"/><path class="cls-3" d="M143,320.17c-1.17.31-1.74.48-2.56.74a14.53,14.53,0,0,0-.54-2.75L137,307.26a20.77,20.77,0,0,0-.82-2.42c.85-.19,1.18-.27,2.54-.64l4.73-1.26c3.11-.84,5.23.1,5.91,2.61a3.76,3.76,0,0,1-.37,3.13,3.5,3.5,0,0,1-1.36,1.26,3.86,3.86,0,0,1,2.27.38,4.11,4.11,0,0,1,2.07,2.74c.75,2.81-.69,4.89-4,5.78Zm1.9-10.62a2.21,2.21,0,0,0,1.85-2.84,2.13,2.13,0,0,0-.92-1.34,3,3,0,0,0-2.1-.11l-4.15,1.11,1.15,4.3Zm-2.25,8.28,4.31-1.16c1.79-.47,2.55-1.63,2.12-3.25a2.25,2.25,0,0,0-1.11-1.57,3.36,3.36,0,0,0-2.37-.1l-4.27,1.14Z"/><path class="cls-10" d="M296.27,343.33H284.64a8.94,8.94,0,0,0-8.92,8.92v8.1h29.47v-8.1A8.94,8.94,0,0,0,296.27,343.33Z"/><path class="cls-10" d="M275.37,341.7a14.08,14.08,0,0,0,6.08,1.59.75.75,0,0,1,.37.09.61.61,0,0,1,.19.34,15.28,15.28,0,0,1,.29,4.16,15.09,15.09,0,0,1,0,3.08q-.33,1.95-.78,3.87a2.71,2.71,0,0,1-1.08,1.92,2,2,0,0,1-2-.22A8,8,0,0,1,277,355a37.73,37.73,0,0,0-3.41-3.28c-1-.92-2.06-1.79-3.07-2.69-.52-.46-1-.93-1.53-1.42a12.7,12.7,0,0,1-1.15-1.55,7.62,7.62,0,0,1-1.43-4.39c0-.74.07-1,.76-1.29s1.35-.87,2.09-1.17a13.2,13.2,0,0,1,2.3-.83c.55-.11.5.2.83.68a7.08,7.08,0,0,0,.87,1A9.56,9.56,0,0,0,275.37,341.7Z"/><path class="cls-12" d="M275.26,333.94s2.27,3.47,1.72,5.45a5.36,5.36,0,0,1-4.2,4s9.27,2.18,12.92-1.83S275.26,333.94,275.26,333.94Z"/><path class="cls-12" d="M306.55,333.94s-2.27,3.47-1.72,5.45a5.38,5.38,0,0,0,4.21,4s-9.28,2.18-12.93-1.83S306.55,333.94,306.55,333.94Z"/><polygon class="cls-2" points="286.33 344.27 287.84 349.37 290.51 345.86 293.7 349.18 295.41 342.24 286.33 344.27"/><path class="cls-12" d="M307.2,328.9c0,5.35-4,10.47-6.45,11.12s-10.13-.17-10.13-.17-7.11,1.87-9.2.54-6.88-6.36-6.88-11.49c0-10.09,6.74-17.48,15-18.08,2.37-.17,5.7-.16,7.05,1.58C304,313.21,307.2,321.46,307.2,328.9Z"/><ellipse class="cls-11" cx="290.87" cy="328.43" rx="14.26" ry="16.48"/><circle class="cls-11" cx="276.84" cy="332.34" r="3.58"/><circle class="cls-11" cx="304.89" cy="332.34" r="3.58"/><path class="cls-12" d="M295.25,319.07c-3.42,8.33-11.86,9.94-19.32,9.67a17.76,17.76,0,0,1,4.28-13.09c5.2-5.71,12.76-4.7,15.44-3.7s8.23,5.29,9.74,10.16-.08,6.61-.08,6.61S297.29,328.46,295.25,319.07Z"/><g id="女子ol2"><circle class="cls-13" cx="286.47" cy="330.49" r="1.42"/><circle class="cls-13" cx="295.12" cy="330.49" r="1.42"/><path class="cls-13" d="M290.84,337.37a3,3,0,0,0,2.08-.86.53.53,0,0,0,0-.75.51.51,0,0,0-.74,0,1.88,1.88,0,0,1-2.67,0,.54.54,0,0,0-.75,0,.53.53,0,0,0,0,.75A3,3,0,0,0,290.84,337.37Z"/></g><rect class="cls-4" x="265.39" y="314.99" width="6.57" height="30.79" transform="translate(-76.32 80.75) rotate(-14.99)"/><path class="cls-11" d="M265,336.28a4.13,4.13,0,0,1-.11-1.6,3.49,3.49,0,0,1,2.08-2.25,4.57,4.57,0,0,1,3.62-.41,2.41,2.41,0,0,1,1.48,3c-.14.31-.35.57-.49.88-.41,1,.05,2.12-.41,3.05a3.41,3.41,0,0,1-1.45,1.28C266.18,342.25,265.56,339.3,265,336.28Z"/><rect class="cls-15" x="241" y="297.6" width="41.63" height="29.28" transform="translate(-71.86 78.36) rotate(-14.99)"/><path class="cls-4" d="M270.82,313.55a7.71,7.71,0,0,1-.54,3.36,7.07,7.07,0,0,1-4.89,3.66,7.15,7.15,0,0,1-5.67-.55,10.5,10.5,0,0,1-3.26-12.82A7.23,7.23,0,0,1,261,304a7.39,7.39,0,0,1,4.11-.07,6.36,6.36,0,0,1,2.72,1.62,7.4,7.4,0,0,1,1,1.38l-2.61,1.39a4.37,4.37,0,0,0-1.33-1.5,3.77,3.77,0,0,0-3.26-.46c-2.85.77-4,3.45-3,7.15s3.36,5.48,6.17,4.73a4,4,0,0,0,2.85-2.36,4.13,4.13,0,0,0,.17-2Z"/><path class="cls-10" d="M39.59,340.81A14.8,14.8,0,0,0,46,342.47a.73.73,0,0,1,.39.1.65.65,0,0,1,.2.35,16,16,0,0,1,.3,4.37,15.84,15.84,0,0,1,0,3.23c-.23,1.35-.5,2.71-.81,4.05a2.91,2.91,0,0,1-1.13,2,2,2,0,0,1-2.08-.24,7.85,7.85,0,0,1-1.53-1.57,41.31,41.31,0,0,0-3.57-3.43c-1.06-1-2.16-1.88-3.23-2.82-.54-.49-1.08-1-1.6-1.49a12.74,12.74,0,0,1-1.19-1.62,7.93,7.93,0,0,1-1.51-4.6c0-.78.08-1.05.8-1.35s1.41-.91,2.19-1.23a14.49,14.49,0,0,1,2.41-.87c.57-.12.52.21.87.71a6.68,6.68,0,0,0,.91,1.08A9.94,9.94,0,0,0,39.59,340.81Z"/><path class="cls-10" d="M61.49,342.51H49.3A9.37,9.37,0,0,0,40,351.86v8.49H70.84v-8.49A9.38,9.38,0,0,0,61.49,342.51Z"/><path class="cls-12" d="M71.66,325.39c0-4-1.14-7.86-4.72-10.12h.24c2,.13,3.06.13,3.06.13a2.32,2.32,0,0,0-2.67-2.08,5.49,5.49,0,0,0-2.4.73c-3.72-3.73-7.94-3.68-10.3-3.68a15.8,15.8,0,0,0-9.17,3c-3.26,1.21-7.26,1.21-7,2.06.12.4,1.45,1.25,3.08,1.87a15.78,15.78,0,0,0-2.82,7c-.24.92-1.18,4.14-2.54,4.89a1.18,1.18,0,0,0,.65.83,1.63,1.63,0,0,0,2.1-.36c1.14,5.15,6.15,9.91,8.3,11.27s7.43-.11,7.43-.11,5.79.32,8.29-.35,7.1-5.22,8-10.7v0a1.59,1.59,0,0,0,2,.28,1.18,1.18,0,0,0,.65-.83C72.87,328.7,72.08,326.72,71.66,325.39Z"/><ellipse class="cls-11" cx="55.16" cy="329.04" rx="14.81" ry="17.13"/><circle class="cls-11" cx="40.58" cy="333.1" r="3.72"/><circle class="cls-11" cx="69.72" cy="333.1" r="3.72"/><circle class="cls-13" cx="50.58" cy="331.18" r="1.48"/><circle class="cls-13" cx="59.57" cy="331.18" r="1.48"/><path class="cls-13" d="M55.12,338.32a3,3,0,0,0,2.17-.89.55.55,0,1,0-.78-.78,2,2,0,0,1-2.77,0,.55.55,0,1,0-.78.78A3,3,0,0,0,55.12,338.32Z"/><path class="cls-12" d="M42.6,332s-1.25-7.29,9-12.92c0,0-2.39,5.23-1.7,5.77,0,0,4.18.14,7.7-5.29,0,0-1.76,4.12-1.23,5.13A8.58,8.58,0,0,0,62,319.43s2.38,5.89,6,8.75c0,0,.89,2.22.15,3.71,0,0,2.52-2.08,2.52-4.46s-.29-8.3-3.56-11.12-9.2-7.13-14.84-5.2S41.18,317.05,40,323.43,42.6,332,42.6,332Z"/><rect class="cls-1" x="28.58" y="311.94" width="6.57" height="30.79" transform="translate(-83.6 19.39) rotate(-14.99)"/><path class="cls-11" d="M28.7,335.13a4.33,4.33,0,0,1-.11-1.68,3.64,3.64,0,0,1,2.18-2.36,4.77,4.77,0,0,1,3.79-.42,2.51,2.51,0,0,1,1.55,3.14c-.14.32-.37.6-.51.92-.43,1,0,2.22-.43,3.2a3.58,3.58,0,0,1-1.52,1.33C30,341.39,29.31,338.29,28.7,335.13Z"/><rect class="cls-16" x="4.18" y="294.55" width="41.63" height="29.28" transform="translate(-79.13 16.99) rotate(-14.99)"/><path class="cls-1" d="M32.3,316a14.74,14.74,0,0,0-1.12-2l-1.39-2-6.42,1.72-.22,2.4a10.94,10.94,0,0,0,0,2.27l-3.28.88a23.84,23.84,0,0,0,.42-2.66l1.32-12.75a12.54,12.54,0,0,0,.1-2.2l3.49-.93a13.87,13.87,0,0,0,1.22,1.84L33.93,313a21.45,21.45,0,0,0,1.66,2.09ZM24.71,304.6c-.14-.2-.26-.42-.66-1-.07,1-.07,1-.08,1.23l-.5,6.5,5-1.34Z"/></svg>