<?xml version="1.0" encoding="utf-8"?>
<!-- Generator: Adobe Illustrator 27.7.0, SVG Export Plug-In . SVG Version: 6.00 Build 0)  -->
<svg version="1.1" id="レイヤー_1" xmlns="http://www.w3.org/2000/svg" xmlns:xlink="http://www.w3.org/1999/xlink" x="0px"
	 y="0px" width="40px" height="40px" viewBox="0 0 40 40" style="enable-background:new 0 0 40 40;" xml:space="preserve">
<style type="text/css">
	.st0{fill:#00AAE7;}
	.st1{fill:#35318F;}
	.st2{fill:#F39800;}
</style>
<g>
	<g>
		<path class="st0" d="M6.9,1.8h20.7c0.5,0,0.9,0.4,0.9,0.9v32.4c0,0.5-0.4,0.9-0.9,0.9H2.4c-0.5,0-0.9-0.4-0.9-0.9V7.2L6.9,1.8z"/>
		<path class="st1" d="M6.9,1.8v4.9c0,0.2-0.2,0.4-0.4,0.4H1.5L6.9,1.8z"/>
		<path class="st1" d="M23.1,11.7H6.9c-0.5,0-0.9-0.4-0.9-0.9s0.4-0.9,0.9-0.9h16.2c0.5,0,0.9,0.4,0.9,0.9S23.6,11.7,23.1,11.7z"/>
		<path class="st1" d="M23.1,17.1H6.9c-0.5,0-0.9-0.4-0.9-0.9s0.4-0.9,0.9-0.9h16.2c0.5,0,0.9,0.4,0.9,0.9S23.6,17.1,23.1,17.1z"/>
		<path class="st1" d="M15,22.5H6.9c-0.5,0-0.9-0.4-0.9-0.9s0.4-0.9,0.9-0.9H15c0.5,0,0.9,0.4,0.9,0.9S15.5,22.5,15,22.5z"/>
	</g>
	<ellipse class="st2" cx="28.7" cy="28.3" rx="9.8" ry="9.8"/>
</g>
<g>
	<path class="st1" d="M36.7,21.2L28,30.6l-4.1-4l-1.6,1.6l5,4.9c0.5,0.4,1.2,0.4,1.6,0l9.5-10.2L36.7,21.2z"/>
</g>
</svg>
