<svg xmlns="http://www.w3.org/2000/svg" viewBox="0 0 150 120.231" width="100" height="100"><defs><style>.cls-1{fill:#35318f;}.cls-2{fill:#00aae7;}.cls-3{fill:#fff;}</style></defs><g><g><rect class="cls-1" x="56.306" width="93.694" height="120.231" rx="10" ry="10"/><rect class="cls-2" x="63.347" y="8.175" width="79.613" height="102.162"/><circle class="cls-3" cx="103.427" cy="114.415" r="2.049"/><path class="cls-1" d="M38.551,38.425H7.84a7.827,7.827,0,0,0-7.8,7.8v5.831H46.349V46.224A7.8,7.8,0,0,0,38.551,38.425ZM27.26,46.609H19.076V43.858H27.26Z"/><polygon class="cls-2" points="0 110.687 0 110.687 0 110.687 46.349 110.687 46.349 52.069 0 52.069 0 110.687"/><path class="cls-1" d="M0,112.585a7.674,7.674,0,0,0,7.647,7.646H38.7a7.673,7.673,0,0,0,7.647-7.646v-1.9H0Zm23.175.838a2.05,2.05,0,1,1-2.05,2.05h0a2.049,2.049,0,0,1,2.036-2.063h.014Z"/></g></g></svg>