<?xml version="1.0" encoding="utf-8"?>
<svg version="1.1" xmlns="http://www.w3.org/2000/svg" xmlns:xlink="http://www.w3.org/1999/xlink" x="0px"
	 y="0px" viewBox="0 0 40 40" style="enable-background:new 0 0 40 40;" xml:space="preserve">
<style type="text/css">
	.st0{fill:#00AAE7;}
	.st1{fill:#F39800;}
	.st2{fill:#35318F;}
</style>
<path class="st0" d="M26.933,11.54l3.36,3.36c0.464,0.464,1.216,0.464,1.68,0l0.84-0.84c3.36,3.36,3.255,8.4,0,11.76l-0.84-0.84
	c-0.464-0.464-1.216-0.464-1.68,0l-3.36,3.36c-0.464,0.464-0.464,1.216,0,1.68l3.36,3.36c0.464,0.464,1.216,0.464,1.68,0l4.2-4.2
	c5.103-5.103,5.103-13.376,0-18.479l-4.2-4.2c-0.464-0.464-1.216-0.464-1.68,0l-3.36,3.36C26.469,10.324,26.469,11.076,26.933,11.54
	z"/>
<path class="st1" d="M25.935,19.053l-2.398-1.385c-0.784-5.772-5.72-10.225-11.708-10.225C5.296,7.443,0,12.739,0,19.272
	C0,25.805,5.296,31.1,11.829,31.1c5.988,0,10.923-4.453,11.708-10.225l2.398-1.385C26.103,19.393,26.103,19.15,25.935,19.053z"/>
<path class="st2" d="M14.606,14.613c-0.11-1.013-0.798-1.839-1.759-2.285c-0.245-0.114-0.523,0.089-0.493,0.358l0.175,1.611
	c0.03,0.274-0.169,0.521-0.443,0.551l-2.032,0.22c-0.274,0.03-0.521-0.169-0.551-0.443l-0.175-1.611
	c-0.029-0.268-0.344-0.407-0.559-0.244c-0.843,0.641-1.338,1.595-1.229,2.608c0.138,1.273,1.186,2.254,2.544,2.552l0.854,7.877
	c0.078,0.716,0.721,1.234,1.437,1.156c0.716-0.078,1.234-0.721,1.156-1.437l-0.854-7.88C13.935,17.063,14.743,15.883,14.606,14.613z
	"/>
</svg>
