<?xml version="1.0" encoding="utf-8"?>
<svg version="1.1" xmlns="http://www.w3.org/2000/svg" xmlns:xlink="http://www.w3.org/1999/xlink" x="0px"
	 y="0px" viewBox="0 0 40 40" style="enable-background:new 0 0 40 40;" xml:space="preserve">
<style type="text/css">
	.st0{fill:#00AAE7;}
	.st1{fill:#35318F;}
	.st2{fill:#F39800;}
</style>
<g>
	<path class="st0" d="M6.415,2.864h20.715c0.497,0,0.9,0.403,0.9,0.9v32.4c0,0.497-0.403,0.9-0.9,0.9h-25.2
		c-0.497,0-0.9-0.403-0.9-0.9v-27.9L6.415,2.864z"/>
	<path class="st1" d="M6.415,2.863v4.95c0,0.249-0.201,0.45-0.45,0.45H1.029L6.415,2.863z"/>
	<path class="st1" d="M22.629,12.717H6.43c-0.472,0-0.854-0.382-0.854-0.854s0.382-0.854,0.854-0.854h16.2
		c0.472,0,0.854,0.382,0.854,0.854S23.101,12.717,22.629,12.717z"/>
	<path class="st1" d="M22.629,18.118H6.43c-0.472,0-0.854-0.382-0.854-0.854S5.958,16.41,6.43,16.41h16.2
		c0.472,0,0.854,0.382,0.854,0.854S23.101,18.118,22.629,18.118z"/>
	<path class="st1" d="M14.529,23.518h-8.1c-0.472,0-0.854-0.382-0.854-0.854S5.958,21.81,6.43,21.81h8.1
		c0.472,0,0.854,0.382,0.854,0.854S15.001,23.518,14.529,23.518z"/>
	<g>
		<path class="st1" d="M19.789,28.431c-0.022-0.126-0.021-0.257,0.006-0.384s0.079-0.251,0.158-0.363l3.011-4.301l3.585-5.12
			l3.585-5.12l3.585-5.12c0.079-0.113,0.177-0.204,0.287-0.273c0.11-0.069,0.232-0.115,0.358-0.137s0.257-0.021,0.384,0.006
			S35,7.699,35.112,7.778l0.819,0.574l0.819,0.574l0.819,0.574l0.819,0.574c0.113,0.079,0.204,0.177,0.273,0.287
			c0.069,0.11,0.115,0.232,0.137,0.358s0.021,0.257-0.006,0.384s-0.079,0.251-0.158,0.363l-3.585,5.12l-3.585,5.12l-3.585,5.12
			l-3.011,4.301c-0.079,0.113-0.177,0.204-0.287,0.273c-0.11,0.069-0.232,0.115-0.358,0.137l-3.397,0.781
			c-0.289,0.066-0.572-0.132-0.608-0.426L19.789,28.431z"/>
		<path class="st2" d="M19.931,27.716c-0.066,0.103-0.111,0.217-0.135,0.331c-0.027,0.127-0.029,0.257-0.006,0.384l0.428,3.46
			c0.036,0.294,0.319,0.492,0.608,0.426l3.397-0.781c0.126-0.022,0.248-0.068,0.358-0.137c0.099-0.062,0.19-0.143,0.265-0.24
			L19.931,27.716z"/>
		
			<rect x="34.223" y="8.465" transform="matrix(0.5736 -0.8191 0.8191 0.5736 5.5207 33.5354)" class="st2" width="1.5" height="6"/>
		<path class="st1" d="M20.024,30.327l0.193,1.563c0.036,0.294,0.319,0.492,0.608,0.426l1.535-0.353L20.024,30.327z"/>
	</g>
</g>
</svg>
