<svg xmlns="http://www.w3.org/2000/svg" viewBox="0 0 40 40"><defs><style>.a{fill:#35318f;}.b{fill:#fff;}.c{fill:#00aae7;}.d{fill:#f39800;}</style></defs><path class="a" d="M34.54,16.32l-13-12.7a2.2,2.2,0,0,0-3.1,0l-6.11,6V5.08a.52.52,0,0,0-.52-.52H7.05a.52.52,0,0,0-.52.52V15.29l-1,1A1.68,1.68,0,0,0,5,17.54V35.29A1.74,1.74,0,0,0,6.73,37H33.27A1.74,1.74,0,0,0,35,35.29V17.54A1.72,1.72,0,0,0,34.54,16.32Z"/><path class="b" d="M21,16.94l2.51,2.51a.89.89,0,0,0,1.25,0l.63-.63a6.14,6.14,0,0,1,.15,8.68l-.15.14L24.72,27a.89.89,0,0,0-1.25,0L21,29.52a.91.91,0,0,0,0,1.26l2.51,2.5a.88.88,0,0,0,1.25,0l3.14-3.13a9.81,9.81,0,0,0,0-13.81l-3.14-3.13a.88.88,0,0,0-1.25,0L21,15.69A.89.89,0,0,0,21,16.94Z"/><path class="c" d="M14.49,21.45a.59.59,0,0,0,.32-.17L8,20.07a.57.57,0,0,0-.27,1.1h.07l4.16.73a.43.43,0,0,1,.21-.09Z"/><path class="c" d="M7.81,22.76a.57.57,0,0,0-.09,1.13h5.35l-1.18-1.13Z"/><path class="c" d="M13.64,24.44l-5.86,1a.57.57,0,0,0-.44.67.57.57,0,0,0,.54.44H8l5.66-1,.11-.73A.48.48,0,0,0,13.64,24.44Z"/><path class="d" d="M21,22.61a.54.54,0,0,0,0-.76.56.56,0,0,0-.34-.17l-2.36-.31a.52.52,0,0,1-.39-.28L16.88,19a.54.54,0,0,0-.72-.25.51.51,0,0,0-.25.25l-1,2.14a.59.59,0,0,1-.39.3l-2.36.39a.47.47,0,0,0-.22.09.54.54,0,0,0-.14.74.36.36,0,0,0,.08.09h0l1.18,1.13.52.48a.6.6,0,0,1,.16.48l-.12.73-.24,1.63a.55.55,0,0,0,.79.56l2.08-1.14a.55.55,0,0,1,.5,0l2.12,1.08a.54.54,0,0,0,.73-.22.57.57,0,0,0,.06-.36l-.44-2.33a.53.53,0,0,1,.15-.48Z"/></svg>