<svg xmlns="http://www.w3.org/2000/svg" viewBox="0 0 40.575 36.238"><defs><style>.cls-1{fill:#f39800;}.cls-2{fill:#35318f;}</style></defs><polygon class="cls-1" points="20.287 1.967 22.11 2.68 39.188 32.2 36.295 34.498 2.972 34.498 1.506 32.239 17.878 2.403 20.287 1.967"/><circle class="cls-2" cx="20.288" cy="28.541" r="2.409"/><path class="cls-2" d="M253.881,551.513l-16.192-28.046a4.1,4.1,0,0,0-7.095,0L214.4,551.512a4.1,4.1,0,0,0,3.547,6.144h32.386a4.1,4.1,0,0,0,3.547-6.143Zm-3.22,2a1.316,1.316,0,0,1-1.137.655H218.757a1.313,1.313,0,0,1-1.137-1.968L233,525.558a1.313,1.313,0,0,1,2.273,0L250.661,552.2A1.317,1.317,0,0,1,250.661,553.517Z" transform="translate(-213.853 -521.418)"/><path class="cls-2" d="M234.141,531.353a2.41,2.41,0,0,0-2.41,2.41l.926,10.9a1.484,1.484,0,0,0,2.969,0l.925-10.9A2.409,2.409,0,0,0,234.141,531.353Z" transform="translate(-213.853 -521.418)"/></svg>