<svg xmlns="http://www.w3.org/2000/svg" viewBox="0 0 40 40"><defs><style>.a{fill:#f39800;}.b{fill:#35318f;}.c{fill:#00aae7;}.d{fill:#fff;}</style></defs><path class="a" d="M20.13,14.89l.79-1.38a6.79,6.79,0,1,0-1.84,0l.79,1.38A.14.14,0,0,0,20.13,14.89Z"/><path class="b" d="M20.83,9l-.06-4,.9.61a.17.17,0,0,0,.24,0l.47-.69a.17.17,0,0,0,0-.24L19.83,3a.17.17,0,0,0-.26.14l.07,4.54a1.47,1.47,0,1,0-.55,2.83A1.79,1.79,0,0,0,20.83,9"/><path class="c" d="M33,19.19H7V36.67H33ZM20,32.85a4.76,4.76,0,1,1,4.76-4.76A4.77,4.77,0,0,1,20,32.85Z"/><path class="c" d="M20,24.27a3.81,3.81,0,1,0,3.81,3.81A3.82,3.82,0,0,0,20,24.27Zm1.7,4-2.62,1.57a.19.19,0,0,1-.29-.16V26.51a.19.19,0,0,1,.29-.16l2.62,1.57A.19.19,0,0,1,21.7,28.25Z"/><path class="c" d="M5.67,17.28a.57.57,0,0,0-.57.57A.57.57,0,0,1,5.67,17.28Z"/><path class="c" d="M34.33,17.28a.57.57,0,0,1,.41.17A.57.57,0,0,0,34.33,17.28Z"/><path class="b" d="M34.73,17.45a.57.57,0,0,1,.17.41A.57.57,0,0,0,34.73,17.45Z"/><path class="b" d="M38.34,37.14H34.9V17.85a.57.57,0,0,0-.57-.57H5.67a.57.57,0,0,0-.57.57V37.14H1.66a1.43,1.43,0,1,0,0,2.86H38.34a1.43,1.43,0,1,0,0-2.86ZM7,19.19H33V36.67H7Z"/><path class="d" d="M20,23.32a4.76,4.76,0,1,0,4.76,4.76A4.77,4.77,0,0,0,20,23.32Zm0,8.58a3.81,3.81,0,1,1,3.81-3.81A3.82,3.82,0,0,1,20,31.89Z"/><path class="d" d="M19.08,26.35a.19.19,0,0,0-.29.16v3.14a.19.19,0,0,0,.29.16l2.62-1.57a.19.19,0,0,0,0-.33Z"/></svg>