<?xml version="1.0" encoding="utf-8"?>
<!-- Generator: Adobe Illustrator 26.3.1, SVG Export Plug-In . SVG Version: 6.00 Build 0)  -->
<svg version="1.1" id="レイヤー_1" xmlns="http://www.w3.org/2000/svg" xmlns:xlink="http://www.w3.org/1999/xlink" x="0px"
	 y="0px" width="150px" height="106px" viewBox="0 0 150 106" style="enable-background:new 0 0 150 106;" xml:space="preserve">
<style type="text/css">
	.st0{fill:#F39800;}
	.st1{fill:none;}
	.st2{fill:#35318F;}
</style>
<g>
	<g>
		<path class="st0" d="M117.9,84.3l-2.7-9.8c-0.1-0.4-0.2-0.9-0.2-1.3V4.6c0-2.2-1.8-4-4-4H83.7c-2,0-4,0.8-5.5,2.2L58.1,21.6h34.8
			c1.1,0,2,0.9,2,2v67.6l4.7,7.6c1,1.6,0.7,3.7-0.8,4.8c-0.6,0.5-1.4,0.7-2.1,0.7c-1.2,0-2.3-0.6-3-1.7L88.4,94
			c-0.3-0.6-0.5-1.2-0.5-1.8V30.1c0-0.8-0.7-1.5-1.5-1.5H57v64l-5.4,11.7c-0.4,0.7,0.1,1.5,0.9,1.5h51.3c1.3,0,2.6-0.7,3.3-1.8
			l10.4-17.2C118,86,118.2,85.1,117.9,84.3z M108.4,42.4l-2.4,2.1c-0.6,0.6-1.4,0.8-2.2,0.8c-0.9,0-1.8-0.4-2.4-1.1
			c-1.2-1.3-1.1-3.4,0.3-4.6l2.4-2.1c1.3-1.2,3.4-1.1,4.6,0.3C109.9,39.1,109.8,41.2,108.4,42.4z M108.4,27.1l-2.4,2.1
			c-0.6,0.6-1.4,0.8-2.2,0.8c-0.9,0-1.8-0.4-2.4-1.1c-1.2-1.3-1.1-3.4,0.3-4.6l2.4-2.1c1.3-1.2,3.4-1.1,4.6,0.3
			C109.9,23.8,109.8,25.9,108.4,27.1z"/>
	</g>
	<g>
		<rect class="st1" width="150" height="106"/>
		<path class="st2" d="M112.7,101.4l34.1-24c0.7-0.4,0.7-1.3,0-1.7l-34.1-24c-0.9-0.5-2.1,0-2.1,0.8v47.9
			C110.6,101.4,111.9,101.8,112.7,101.4z"/>
		<g>
			<g>
				<rect x="54.1" y="66.8" class="st2" width="71.5" height="21.2"/>
			</g>
		</g>
	</g>
	<g>
		<path class="st2" d="M57,23.9c0-0.8,0.3-1.6,1-2.2l0.1-0.1l10.4-9.6H39.9C19.2,11.9,1.7,28.3,1.2,49c-0.5,21.4,16.8,39,38,39H57
			V66.8H39.7c-9,0-16.8-6.9-17.3-16c-0.5-9.7,7.2-17.7,16.8-17.7H57v-4.5l0-0.1l0,0V23.9z"/>
	</g>
</g>
</svg>
