<?xml version="1.0" encoding="utf-8"?>
<svg version="1.1" xmlns="http://www.w3.org/2000/svg" xmlns:xlink="http://www.w3.org/1999/xlink" x="0px"
	 y="0px" viewBox="0 0 40 40" style="enable-background:new 0 0 40 40;" xml:space="preserve">
<style type="text/css">
	.st0{fill:#35318F;}
	.st1{fill:#00AAE7;}
	.st2{fill:#F39800;}
</style>
<path class="st0" d="M35.519,9.032C35.437,8.95,35.324,8.9,35.2,8.9H4.82c-0.124,0-0.237,0.05-0.319,0.132
	C4.42,9.113,4.369,9.226,4.369,9.35v0v20.893c0,0.552,0.448,1,1,1h29.281c0.552,0,1-0.448,1-1V9.351v0
	C35.651,9.226,35.6,9.113,35.519,9.032z"/>
<rect x="6.369" y="13.436" class="st1" width="27.281" height="15.808"/>
<circle class="st2" cx="32.435" cy="11.086" r="1.1"/>
<circle class="st2" cx="29.06" cy="11.086" r="1.1"/>
<g>
	<path class="st0" d="M29.66,18.206H9.46c-0.472,0-0.854-0.382-0.854-0.854s0.382-0.854,0.854-0.854h20.2
		c0.472,0,0.854,0.382,0.854,0.854S30.132,18.206,29.66,18.206z"/>
	<path class="st0" d="M17.56,23.606h-8.1c-0.472,0-0.854-0.382-0.854-0.854s0.382-0.854,0.854-0.854h8.1
		c0.472,0,0.854,0.382,0.854,0.854S18.031,23.606,17.56,23.606z"/>
</g>
</svg>
