<svg xmlns="http://www.w3.org/2000/svg" viewBox="0 0 150 150"><defs><style>.cls-1{fill:none;}.cls-2{fill:#00aae7;}.cls-3{fill:#35318f;}.cls-4{fill:#f39800;}</style></defs><rect class="cls-1" width="150" height="150"/><path class="cls-2" d="M25.706,7.128h77.9a3.385,3.385,0,0,1,3.385,3.384V132.35a3.386,3.386,0,0,1-3.385,3.385H8.84a3.385,3.385,0,0,1-3.384-3.385V27.434Z"/><path class="cls-3" d="M25.706,7.128V25.742a1.689,1.689,0,0,1-1.692,1.692H5.4Z"/><path class="cls-3" d="M86.681,44.18H25.762a3.21,3.21,0,1,1,0-6.419H86.681a3.21,3.21,0,1,1,0,6.419Z"/><path class="cls-3" d="M86.681,64.49H25.762a3.212,3.212,0,0,1,0-6.423H86.681a3.212,3.212,0,1,1,0,6.423Z"/><path class="cls-3" d="M56.222,84.792H25.762a3.212,3.212,0,0,1,0-6.423h30.46a3.212,3.212,0,0,1,0,6.423Z"/><circle class="cls-3" cx="107.598" cy="106.918" r="36.954" transform="translate(-7.938 205.204) rotate(-85.206)"/><path class="cls-4" d="M107.2,86.674a9.587,9.587,0,0,0-9.136-2.643,1.157,1.157,0,0,0-.612,1.914l3.609,3.942a1.652,1.652,0,0,1-.1,2.33l-4.974,4.55a1.651,1.651,0,0,1-2.33-.1l-3.609-3.943a1.162,1.162,0,0,0-1.963.442A9.592,9.592,0,0,0,89.9,102.5c2.851,3.115,7.552,3.679,11.745,1.821l17.642,19.28a4.3,4.3,0,1,0,6.347-5.808L107.986,98.5C110.193,94.5,110.039,89.784,107.2,86.674Z"/></svg>