<svg xmlns="http://www.w3.org/2000/svg" viewBox="0 0 40 40"><defs><style>.a{fill:#00aae7;}.b{fill:#35318f;}</style></defs><rect class="a" x="9.98" y="16.2" width="23.81" height="16.01"/><path class="b" d="M38.69,32.65H35.54V15a.53.53,0,0,0-.53-.53H8.76a.53.53,0,0,0-.53.53V32.65H5.08a1.31,1.31,0,1,0,0,2.62H38.69a1.31,1.31,0,0,0,0-2.62Zm-4.9-.44H10v-16H33.79Z"/><path class="b" d="M.87,13.26H.75a.87.87,0,0,1-.75-1A8.73,8.73,0,0,1,9.85,4.81a.87.87,0,1,1-.24,1.73,7,7,0,0,0-7.87,6A.87.87,0,0,1,.87,13.26Z"/><path class="b" d="M3.47,13.62H3.35a.87.87,0,0,1-.75-1A6.12,6.12,0,0,1,9.49,7.41a.87.87,0,1,1-.24,1.73,4.37,4.37,0,0,0-4.92,3.73A.87.87,0,0,1,3.47,13.62Z"/><path class="b" d="M6.06,14H5.94a.87.87,0,0,1-.75-1,3.5,3.5,0,0,1,3.94-3,.87.87,0,1,1-.24,1.73,1.74,1.74,0,0,0-2,1.49A.87.87,0,0,1,6.06,14Z"/></svg>