<svg xmlns="http://www.w3.org/2000/svg" viewBox="0 0 40 40"><defs><style>.a{fill:#f39800;}.b{fill:#35318f;}.c{fill:#eee;}</style></defs><path class="a" d="M20,8.39c6.49,0,11.9,3.95,13.18,9.2a8.09,8.09,0,0,0,2.21,3.79,10.19,10.19,0,0,0,.41-2.83c0-5.68-4.71-10.47-11.17-12A3,3,0,1,0,20,2.72a3,3,0,1,0-4.62,3.78C8.91,8.08,4.2,12.88,4.2,18.56a10.19,10.19,0,0,0,.41,2.83,8.09,8.09,0,0,0,2.21-3.79C8.1,12.34,13.51,8.39,20,8.39Z"/><path class="b" d="M35.41,21.42l0,0a8.09,8.09,0,0,1-2.21-3.79C31.9,12.34,26.49,8.39,20,8.39S8.1,12.34,6.82,17.59a8.09,8.09,0,0,1-2.21,3.79l0,0a8.27,8.27,0,0,0-2.72,5.86C1.86,33.45,10,38.44,20,38.44s18.14-5,18.14-11.16A8.27,8.27,0,0,0,35.41,21.42Zm-9.66-3.48-2.58,4.62h1.64a.32.32,0,0,1,.32.32v1.36a.32.32,0,0,1-.32.32H22.16l-.38.78v.59h3a.32.32,0,0,1,.32.32v1.36a.32.32,0,0,1-.32.32h-3v2.18a.32.32,0,0,1-.32.32H18.55a.32.32,0,0,1-.32-.32V27.95h-3a.32.32,0,0,1-.32-.32V26.27a.32.32,0,0,1,.32-.32h3v-.59l-.38-.78H15.18a.32.32,0,0,1-.32-.32V22.88a.32.32,0,0,1,.32-.32h1.66l-2.6-4.62a.32.32,0,0,1,.28-.48h2.8a.32.32,0,0,1,.29.18L20,22.56h0l2.36-4.92a.32.32,0,0,1,.29-.18h2.8A.32.32,0,0,1,25.75,17.94Z"/><path class="c" d="M25.47,17.45h-2.8a.32.32,0,0,0-.29.18L20,22.56h0l-2.36-4.92a.32.32,0,0,0-.29-.18h-2.8a.32.32,0,0,0-.28.48l2.6,4.62H15.18a.32.32,0,0,0-.32.32v1.36a.32.32,0,0,0,.32.32h2.66l.38.78v.59h-3a.32.32,0,0,0-.32.32v1.36a.32.32,0,0,0,.32.32h3v2.18a.32.32,0,0,0,.32.32h2.91a.32.32,0,0,0,.32-.32V27.95h3a.32.32,0,0,0,.32-.32V26.27a.32.32,0,0,0-.32-.32h-3v-.59l.38-.78h2.66a.32.32,0,0,0,.32-.32V22.88a.32.32,0,0,0-.32-.32H23.17l2.58-4.62A.32.32,0,0,0,25.47,17.45Z"/></svg>