<svg xmlns="http://www.w3.org/2000/svg" viewBox="0 0 40 40"><defs><style>.a{fill:#00aae7;}.b{fill:#35318f;}.c{fill:#fff;}.d{fill:#f39800;}</style></defs><path class="a" d="M33,9.29H7V26.77H33Z"/><path class="a" d="M5.67,16.15a.58.58,0,0,0-.57.57A.58.58,0,0,1,5.67,16.15Z"/><path class="a" d="M34.33,16.15a.58.58,0,0,1,.41.17A.58.58,0,0,0,34.33,16.15Z"/><path class="b" d="M34.73,16.32a.58.58,0,0,1,.17.41A.58.58,0,0,0,34.73,16.32Z"/><path class="b" d="M30,33H24V30.1H34.91L34.89,8a.58.58,0,0,0-.57-.57H5.66A.57.57,0,0,0,5.09,8V30.1H16V33H10a1,1,0,0,0-1,1v2H31V34A1,1,0,0,0,30,33ZM7,9.29H33V26.77H7Z"/><circle class="c" cx="20" cy="18.12" r="6.5"/><path class="d" d="M20.81,20.38l-.06-4,.9.61a.16.16,0,0,0,.24,0l.47-.69a.16.16,0,0,0,0-.24l-2.55-1.68a.17.17,0,0,0-.26.14l.07,4.54a1.47,1.47,0,1,0-1.12,2.72,1.6,1.6,0,0,0,.57.11,1.79,1.79,0,0,0,1.74-1.51"/></svg>