<svg xmlns="http://www.w3.org/2000/svg" viewBox="0 0 40 40"><defs><style>.a{fill:#f39800;}.b{fill:#fff;}.c{fill:#35318f;}</style></defs><path class="a" d="M18.88,6a17,17,0,1,0,17,17A17,17,0,0,0,18.88,6Zm7.93,9.62L23.25,22h2.27a.45.45,0,0,1,.45.45v1.87a.45.45,0,0,1-.45.45H21.86l-.53,1.08v.82h4.19a.45.45,0,0,1,.45.45v1.87a.45.45,0,0,1-.45.45H21.33v3a.45.45,0,0,1-.45.45h-4a.45.45,0,0,1-.45-.45v-3H12.24a.45.45,0,0,1-.45-.45V27.07a.45.45,0,0,1,.45-.45h4.19v-.82l-.53-1.08H12.24a.45.45,0,0,1-.45-.45V22.41a.45.45,0,0,1,.45-.45h2.29L11,15.59a.45.45,0,0,1,.39-.67H15.2a.45.45,0,0,1,.4.25L18.85,22h.05l3.25-6.78a.45.45,0,0,1,.4-.25h3.86A.45.45,0,0,1,26.81,15.59Z"/><path class="b" d="M26.42,14.92H22.56a.45.45,0,0,0-.4.25L18.91,22h-.05L15.6,15.18a.45.45,0,0,0-.4-.25H11.34a.45.45,0,0,0-.39.67L14.53,22H12.24a.45.45,0,0,0-.45.45v1.87a.45.45,0,0,0,.45.45H15.9l.53,1.08v.82H12.24a.45.45,0,0,0-.45.45v1.87a.45.45,0,0,0,.45.45h4.19v3a.45.45,0,0,0,.45.45h4a.45.45,0,0,0,.45-.45v-3h4.19a.45.45,0,0,0,.45-.45V27.07a.45.45,0,0,0-.45-.45H21.33v-.82l.53-1.08h3.66a.45.45,0,0,0,.45-.45V22.41a.45.45,0,0,0-.45-.45H23.25l3.55-6.37A.45.45,0,0,0,26.42,14.92Z"/><path class="c" d="M27.77,5.41h-.12a.9.9,0,0,1-.77-.89.91.91,0,0,1,0-.12l.5-3.62a.9.9,0,0,1,1.78.12.91.91,0,0,1,0,.12l-.5,3.62A.9.9,0,0,1,27.77,5.41Z"/><path class="c" d="M31.19,7.1a.9.9,0,0,1-.75-1.38l2-3.07a.9.9,0,0,1,1.5,1l-2,3.07A.89.89,0,0,1,31.19,7.1Z"/><path class="c" d="M34.14,9.53a.9.9,0,0,1-.48-1.65l3.09-1.94a.9.9,0,0,1,1,1.52L34.62,9.39A.89.89,0,0,1,34.14,9.53Z"/></svg>