<svg xmlns="http://www.w3.org/2000/svg" viewBox="0 0 40 40"><defs><style>.a{fill:#f39800;}.b{fill:#35318f;}.c{fill:#00aae7;}</style></defs><path class="a" d="M39.6,16.77,36,13.13A1.36,1.36,0,1,0,34,15.06l1.31,1.31H25.19a1.36,1.36,0,1,0,0,2.73H35.35L34,20.4A1.36,1.36,0,1,0,36,22.33l3.63-3.63A1.36,1.36,0,0,0,39.6,16.77Z"/><path class="b" d="M20.76,3.19H1L18.13,7.74a1,1,0,0,1,1,1V32.26h1.68a1,1,0,0,0,1-1v-27A1,1,0,0,0,20.76,3.19Z"/><path class="c" d="M18.13,7.74,1,3.21H1a1,1,0,0,0-1,1V31.31a1,1,0,0,0,1,1l17.18,4.54a1,1,0,0,0,1-1V8.69A1,1,0,0,0,18.13,7.74ZM15.9,21.82A1.82,1.82,0,1,1,17.71,20,1.82,1.82,0,0,1,15.9,21.82Z"/><circle class="b" cx="15.9" cy="20" r="1.82"/></svg>