<?xml version="1.0" encoding="utf-8"?>
<!-- Generator: Adobe Illustrator 26.3.1, SVG Export Plug-In . SVG Version: 6.00 Build 0)  -->
<svg version="1.1" id="レイヤー_1" xmlns="http://www.w3.org/2000/svg" xmlns:xlink="http://www.w3.org/1999/xlink" x="0px"
	 y="0px" width="150px" height="128px" viewBox="0 0 150 128" style="enable-background:new 0 0 150 128;" xml:space="preserve">
<style type="text/css">
	.st0{fill:#F39800;}
	.st1{fill:#35318F;}
	.st2{fill:none;}
</style>
<polygon class="st0" points="110.8,29.2 110.8,49.5 110.5,49.6 106.6,46.7 102.9,51.9 102.6,52.1 98.5,49.1 94.8,54.5 94.6,54.5 
	90.5,51.5 86.8,56.8 86.7,56.9 86.7,35.7 63.6,42 63.6,113.2 130.3,94.6 130.3,23.9 "/>
<polygon class="st1" points="86.8,56.8 90.5,51.5 94.6,54.5 94.8,54.5 98.5,49.1 102.6,52.1 102.9,51.9 106.6,46.7 110.5,49.6 
	110.8,49.5 110.8,29.2 86.7,35.7 86.7,56.9 "/>
<polygon class="st0" points="1,24.7 1,95.5 56.1,113 56.1,41.9 "/>
<g>
	<g>
		<polygon class="st0" points="31.4,11.6 6.9,18.7 59.9,35.3 80.7,29.6 29.6,12.1 		"/>
		<polygon class="st0" points="124.3,17.7 68.5,0.8 52,5.6 104.8,23 		"/>
		<polygon class="st1" points="52,5.6 31.4,11.6 29.6,12.1 80.7,29.6 104.8,23 		"/>
	</g>
	<g>
		<path class="st1" d="M148.7,58.5l-23-18.2c-0.9-0.7-2.2-0.3-3.1,0.7L79.5,95.4l-1.5,15l14.3,11.4l13.3-5.7l43.1-54.4
			C149.5,60.6,149.5,59.2,148.7,58.5z"/>
		<g>
			<path class="st0" d="M79.3,127.3l13.1-5.5L78,110.4l-1.4,15C76.4,127,77.8,128,79.3,127.3z"/>
		</g>
	</g>
	<rect class="st2" width="150" height="128"/>
</g>
</svg>
