<svg xmlns="http://www.w3.org/2000/svg" viewBox="0 0 149.537 117.806"><defs><style>.cls-1{fill:#00aae7;}.cls-2{fill:#35318f;}</style></defs><title>big-icon-mail-address</title><path class="cls-1" d="M112.229,50.857H4.137A3.674,3.674,0,0,0,.463,54.531v75.15a3.674,3.674,0,0,0,3.674,3.674H112.229a3.674,3.674,0,0,0,3.674-3.674h0V54.572a3.674,3.674,0,0,0-3.633-3.715ZM107.9,78l-47.964,25.84a3.713,3.713,0,0,1-3.51,0L8.423,78a3.689,3.689,0,1,1,3.511-6.49l46.249,24.86,46.249-24.9a3.69,3.69,0,1,1,3.511,6.491Z" transform="translate(-0.463 -15.549)"/><path class="cls-2" d="M104.432,71.471l-46.249,24.9-46.249-24.9a3.69,3.69,0,1,0-3.511,6.491L56.428,103.8a3.713,3.713,0,0,0,3.51,0l48.005-25.839a3.69,3.69,0,1,0-3.511-6.491Z" transform="translate(-0.463 -15.549)"/><path class="cls-2" d="M110.989,35.64h-.451a3.644,3.644,0,0,1-2.891-3.792l1.877-13.593a3.38,3.38,0,0,1,6.684.9l-1.877,13.592A3.38,3.38,0,0,1,110.989,35.64Z" transform="translate(-0.463 -15.549)"/><path class="cls-2" d="M123.83,41.985a3.378,3.378,0,0,1-2.816-5.181l7.51-11.527a3.385,3.385,0,1,1,5.632,3.755l-7.51,11.527A3.341,3.341,0,0,1,123.83,41.985Z" transform="translate(-0.463 -15.549)"/><path class="cls-2" d="M134.907,51.109a3.379,3.379,0,0,1-1.8-6.195l11.6-7.284a3.416,3.416,0,0,1,3.755,5.707l-11.752,7.247A3.336,3.336,0,0,1,134.907,51.109Z" transform="translate(-0.463 -15.549)"/></svg>