<svg xmlns="http://www.w3.org/2000/svg" viewBox="0 0 145 108.613"><defs><style>.cls-1{fill:#35318f;}.cls-2{fill:#f39800;}</style></defs><circle class="cls-1" cx="15" cy="93.613" r="15"/><circle class="cls-1" cx="72.5" cy="93.613" r="15"/><circle class="cls-1" cx="130" cy="93.613" r="15"/><path class="cls-1" d="M48.084,93.275l-7.966-7.2a.5.5,0,0,0-.835.371v14.395a.5.5,0,0,0,.835.371l7.966-7.2A.5.5,0,0,0,48.084,93.275Z"/><path class="cls-1" d="M105.584,93.241l-7.966-7.2a.5.5,0,0,0-.835.371v14.395a.5.5,0,0,0,.835.371l7.966-7.2A.5.5,0,0,0,105.584,93.241Z"/><path class="cls-2" d="M130.032,0h0c-1.9,0-3.451,1.035-3.451,2.3V91.313c0,1.265,1.553,2.3,3.451,2.3h0c1.9,0,3.452-1.035,3.452-2.3V2.3C133.484,1.035,131.931,0,130.032,0Z"/><path class="cls-2" d="M86.532,4.523c12.241,7.9,24.482-7.9,36.723,0V30.871c-12.241-7.9-24.482,7.9-36.723,0Z"/></svg>