<svg xmlns="http://www.w3.org/2000/svg" viewBox="0 0 40 40"><defs><style>.a{fill:none;}.b{fill:#f39800;}.c{fill:#35318f;}</style></defs><path class="a" d="M25.83,9.23a4.26,4.26,0,0,0-4.26,4.26v.83h8.52v-.83A4.26,4.26,0,0,0,25.83,9.23Z"/><path class="b" d="M37.78,15.39a1.09,1.09,0,0,0-1.11-1.07H32.89v-.83a7.06,7.06,0,0,0-14.12,0v.83H15.33a1.09,1.09,0,0,0-1.11,1.07L12,32.5a1.09,1.09,0,0,0,1.11,1.07H38.89A1.09,1.09,0,0,0,40,32.5ZM26.88,25V28a.88.88,0,0,1-1.75,0V25a2.76,2.76,0,1,1,1.75,0Zm3.21-10.66H21.57v-.83a4.26,4.26,0,1,1,8.52,0Z"/><path class="c" d="M26,19.62A2.75,2.75,0,0,0,25.13,25V28a.88.88,0,0,0,1.75,0V25A2.75,2.75,0,0,0,26,19.62Z"/><path class="c" d="M13.08,11.94,10,10.3a.88.88,0,0,0-1.18.37L5.31,17.29a4.17,4.17,0,1,0,1.55.81L8.1,15.74,10.43,17a.87.87,0,0,0,1.18-.37.87.87,0,0,0-.37-1.18L8.92,14.19l1-1.93,2.32,1.23a.87.87,0,0,0,.82-1.55ZM6.33,22.44a2.43,2.43,0,0,1-2.15,1.3A2.4,2.4,0,0,1,3,23.46a2.43,2.43,0,0,1,1.14-4.58,2.4,2.4,0,0,1,1.13.28A2.43,2.43,0,0,1,6.33,22.44Z"/></svg>