<?xml version="1.0" encoding="utf-8"?>
<svg version="1.1" xmlns="http://www.w3.org/2000/svg" xmlns:xlink="http://www.w3.org/1999/xlink" x="0px"
	 y="0px" viewBox="0 0 40 40" style="enable-background:new 0 0 40 40;" xml:space="preserve">
<style type="text/css">
	.st0{fill:#F39800;}
	.st1{fill:#35318F;}
</style>
<g>
	<g>
		<path class="st0" d="M6.885,1.8H27.6c0.497,0,0.9,0.403,0.9,0.9v32.4c0,0.497-0.403,0.9-0.9,0.9H2.4c-0.497,0-0.9-0.403-0.9-0.9
			V7.2L6.885,1.8z"/>
		<path class="st1" d="M6.885,1.8v4.95c0,0.249-0.201,0.45-0.45,0.45h-4.95L6.885,1.8z"/>
		<path class="st1" d="M23.1,11.653H6.9c-0.472,0-0.854-0.382-0.854-0.854S6.428,9.946,6.9,9.946h16.2
			c0.472,0,0.854,0.382,0.854,0.854S23.572,11.653,23.1,11.653z"/>
		<path class="st1" d="M23.1,17.054H6.9c-0.472,0-0.854-0.382-0.854-0.854s0.382-0.854,0.854-0.854h16.2
			c0.472,0,0.854,0.382,0.854,0.854S23.572,17.054,23.1,17.054z"/>
		<path class="st1" d="M15,22.453H6.9c-0.472,0-0.854-0.382-0.854-0.854s0.382-0.854,0.854-0.854H15
			c0.472,0,0.854,0.382,0.854,0.854S15.472,22.453,15,22.453z"/>
	</g>
	<ellipse transform="matrix(0.0011 -1 1 0.0011 0.2929 56.9697)" class="st1" cx="28.664" cy="28.338" rx="9.827" ry="9.827"/>
	<path class="st0" d="M33.821,27.891c-0.011-0.187-0.101-0.364-0.244-0.488c-0.142-0.121-0.32-0.183-0.494-0.164l-2.169,0.133
		c-0.383,0.024-0.676,0.354-0.652,0.737c0.011,0.188,0.095,0.359,0.236,0.483c0.139,0.122,0.313,0.183,0.501,0.169l0.439-0.026
		c-0.496,0.524-1.383,1.52-2.354,2.877c0.023-0.846-0.038-1.68-0.184-2.482c-0.438-2.412-1.566-4.249-2.107-5.021l1.316,0.296
		c0.183,0.042,0.369,0.009,0.525-0.091c0.157-0.099,0.266-0.254,0.307-0.437c0.084-0.375-0.152-0.748-0.527-0.832l-2.975-0.669
		c-0.181-0.041-0.367-0.008-0.526,0.092c-0.157,0.099-0.266,0.254-0.307,0.436l-0.668,2.977c-0.084,0.375,0.152,0.748,0.526,0.832
		c0.049,0.011,0.101,0.017,0.153,0.017c0.323,0,0.609-0.229,0.68-0.544l0.303-1.35c0.422,0.596,1.524,2.316,1.929,4.544
		c0.495,2.723-0.285,5.029-0.293,5.052c-0.127,0.362,0.063,0.761,0.426,0.889c0.075,0.026,0.153,0.039,0.23,0.039
		c0.039,0,0.075-0.007,0.109-0.015l0.019-0.004c0.242-0.013,0.456-0.146,0.571-0.354c1.482-2.665,3.194-4.596,3.939-5.376
		l0.033,0.535c0.022,0.366,0.326,0.653,0.693,0.654l0.044-0.001c0.383-0.024,0.676-0.355,0.652-0.738L33.821,27.891z"/>
</g>
</svg>
