<svg xmlns="http://www.w3.org/2000/svg" viewBox="0 0 40 40"><defs><style>.a{fill:#00aae7;}.b{fill:#35318f;}</style></defs><path class="a" d="M7,27a1.25,1.25,0,0,1-.88-.37,15.65,15.65,0,0,1,0-22.13A1.25,1.25,0,0,1,7.9,6.23a13.15,13.15,0,0,0,0,18.6A1.25,1.25,0,0,1,7,27Z"/><path class="a" d="M10.41,23.57a1.25,1.25,0,0,1-.88-.37,10.86,10.86,0,0,1,0-15.34A1.25,1.25,0,0,1,11.3,9.63a8.36,8.36,0,0,0,0,11.81,1.25,1.25,0,0,1-.88,2.13Z"/><path class="a" d="M13.81,20.18a1.25,1.25,0,0,1-.88-.37,6.05,6.05,0,0,1,0-8.56A1.25,1.25,0,1,1,14.69,13a3.56,3.56,0,0,0,0,5,1.25,1.25,0,0,1-.88,2.13Z"/><path class="a" d="M33,27.36a1.25,1.25,0,0,1-.88-2.13,13.17,13.17,0,0,0,0-18.6,1.25,1.25,0,0,1,1.77-1.77,15.67,15.67,0,0,1,0,22.13A1.25,1.25,0,0,1,33,27.36Z"/><path class="a" d="M29.6,24a1.25,1.25,0,0,1-.88-2.13,8.36,8.36,0,0,0,0-11.81,1.25,1.25,0,0,1,1.77-1.77,10.86,10.86,0,0,1,0,15.34A1.25,1.25,0,0,1,29.6,24Z"/><path class="a" d="M26.2,20.58a1.25,1.25,0,0,1-.88-2.13,3.55,3.55,0,0,0,0-5,1.25,1.25,0,0,1,1.77-1.77,6.06,6.06,0,0,1,0,8.56A1.25,1.25,0,0,1,26.2,20.58Z"/><path class="b" d="M25.08,33.4H21.58s0,0,0-.06V18.84a3,3,0,1,0-3,0v14.5s0,0,0,.06H15.08a1.25,1.25,0,1,0,0,2.5h10a1.25,1.25,0,1,0,0-2.5Z"/></svg>