<?xml version="1.0" encoding="utf-8"?>
<svg version="1.1" xmlns="http://www.w3.org/2000/svg" xmlns:xlink="http://www.w3.org/1999/xlink" x="0px"
	 y="0px" viewBox="0 0 40 40" style="enable-background:new 0 0 40 40;" xml:space="preserve">
<style type="text/css">
	.st0{fill:#35318F;}
	.st1{fill:#00AAE7;}
	.st2{fill:#FFFFFF;}
	.st3{fill:#F39800;}
</style>
<g>
	<path class="st0" d="M34.903,29.963h-3.149V12.301c0-0.29-0.235-0.525-0.525-0.525H4.983c-0.29,0-0.525,0.235-0.525,0.525v17.663
		H1.309C0.586,29.963,0,30.549,0,31.272c0,0.723,0.586,1.309,1.309,1.309h33.594c0.723,0,1.309-0.586,1.309-1.309
		C36.212,30.549,35.626,29.963,34.903,29.963z"/>
	<rect x="6.203" y="13.521" class="st1" width="23.805" height="16.006"/>
	<path class="st2" d="M22.426,23.547l-3.281-5.682c-0.217-0.376-0.605-0.6-1.039-0.6s-0.822,0.224-1.039,0.6l-3.281,5.682
		c-0.217,0.376-0.217,0.825,0,1.2c0.217,0.376,0.605,0.6,1.039,0.6h6.561c0.434,0,0.822-0.224,1.039-0.6
		C22.643,24.372,22.643,23.923,22.426,23.547z"/>
	<path class="st0" d="M21.57,12.545c0-0.764,1.442-1.328,1.631-2.033c0.195-0.729-0.766-1.938-0.397-2.576
		c0.375-0.647,1.905-0.416,2.431-0.942c0.525-0.525,0.295-2.056,0.942-2.431c0.638-0.369,1.847,0.592,2.576,0.397
		c0.705-0.188,1.269-1.631,2.033-1.631c0.764,0,1.328,1.442,2.033,1.631c0.729,0.195,1.938-0.766,2.576-0.397
		c0.647,0.375,0.416,1.905,0.942,2.431c0.525,0.525,2.056,0.295,2.431,0.942c0.369,0.638-0.592,1.847-0.397,2.576
		C38.558,11.217,40,11.781,40,12.545c0,0.764-1.442,1.328-1.631,2.033c-0.195,0.729,0.766,1.938,0.397,2.576
		c-0.375,0.647-1.905,0.416-2.431,0.942c-0.525,0.525-0.295,2.056-0.942,2.431c-0.638,0.369-1.847-0.592-2.576-0.397
		c-0.705,0.188-1.269,1.631-2.033,1.631c-0.764,0-1.328-1.442-2.033-1.631c-0.729-0.195-1.938,0.766-2.576,0.397
		c-0.647-0.375-0.416-1.905-0.942-2.431c-0.525-0.525-2.056-0.295-2.431-0.942c-0.369-0.638,0.592-1.847,0.397-2.576
		C23.012,13.874,21.57,13.309,21.57,12.545z"/>
	<path class="st3" d="M29.518,11.547c0.084,0.031,0.13,0.131,0.091,0.212c-0.381,0.793-1.309,1.181-2.151,0.872
		c-0.843-0.309-1.299-1.206-1.077-2.057c0.023-0.087,0.122-0.133,0.206-0.103L29.518,11.547z"/>
	<path class="st3" d="M32.246,11.541c-0.086,0.032-0.133,0.134-0.093,0.216c0.389,0.81,1.337,1.207,2.198,0.891
		c0.861-0.316,1.327-1.232,1.1-2.101c-0.023-0.089-0.125-0.136-0.211-0.105L32.246,11.541z"/>
	<g>
		<path class="st3" d="M31.418,14.255v2.379c0.324-0.024,0.64-0.066,0.933-0.141v-2.239H31.418z"/>
		<path class="st3" d="M27.626,14.255c-0.193,0-0.36,0.109-0.341,0.233c0.103,0.695,0.673,1.296,1.494,1.691v-1.924H27.626z"/>
		<path class="st3" d="M34.692,14.488c0.018-0.124-0.148-0.233-0.341-0.233h-1.145v1.92C34.022,15.78,34.589,15.181,34.692,14.488z"
			/>
		<path class="st3" d="M29.632,14.255v2.24c0.293,0.074,0.609,0.116,0.933,0.14v-2.38H29.632z"/>
	</g>
	<path class="st3" d="M18.579,18.192c-0.198-0.343-0.747-0.343-0.945,0l-3.281,5.682c-0.098,0.17-0.098,0.375,0,0.545
		c0.099,0.17,0.275,0.273,0.473,0.273h6.561c0.197,0,0.374-0.102,0.473-0.273c0.098-0.17,0.098-0.375,0-0.545L18.579,18.192z"/>
	<g>
		<path class="st0" d="M18.106,22.78c-0.241,0-0.436-0.195-0.436-0.436v-2.255c0-0.241,0.195-0.436,0.436-0.436
			s0.436,0.195,0.436,0.436v2.255C18.542,22.585,18.347,22.78,18.106,22.78z"/>
		<circle class="st0" cx="18.106" cy="23.492" r="0.436"/>
	</g>
</g>
</svg>
