<svg xmlns="http://www.w3.org/2000/svg" viewBox="0 0 40 40"><defs><style>.a{fill:#35318f;}.b{fill:#f39800;}</style></defs><path class="a" d="M20.69,15.4a1.36,1.36,0,0,0,.79-.43L4.13,11.91a1.43,1.43,0,1,0-.5,2.81l10.56,1.86a1.34,1.34,0,0,1,.55-.23Z"/><path class="a" d="M3.71,18.75a1.43,1.43,0,1,0,0,2.85H17.08l-3-2.85Z"/><path class="a" d="M18.53,23,3.63,25.63a1.43,1.43,0,0,0,.25,2.83l.25,0,14.38-2.54.29-1.86A1.36,1.36,0,0,0,18.53,23Z"/><path class="b" d="M37.31,18.36A1.37,1.37,0,0,0,36.52,16l-6-.78a1.37,1.37,0,0,1-1-.73L26.75,9.15a1.37,1.37,0,0,0-2.46,0l-2.59,5.44a1.44,1.44,0,0,1-1,.76l-6,1a1.34,1.34,0,0,0-.55.23A1.36,1.36,0,0,0,14,18.7l.05,0,3,2.85,1.31,1.24a1.52,1.52,0,0,1,.41,1.21l-.29,1.86L17.87,30a1.37,1.37,0,0,0,2,1.41l5.29-2.88a1.37,1.37,0,0,1,1.27,0l5.38,2.73a1.37,1.37,0,0,0,2-1.47l-1.11-5.92a1.37,1.37,0,0,1,.38-1.22Z"/></svg>