<?xml version="1.0" encoding="utf-8"?>
<svg version="1.1" xmlns="http://www.w3.org/2000/svg" xmlns:xlink="http://www.w3.org/1999/xlink" x="0px"
	 y="0px" viewBox="0 0 40 40" style="enable-background:new 0 0 40 40;" xml:space="preserve">
<style type="text/css">
	.st0{fill:#35318F;}
	.st1{fill:#00AAE7;}
	.st2{fill:#F39800;}
</style>
<g>
	<path class="st0" d="M31.2,37.278H8.813c-0.485,0-0.878-0.393-0.878-0.878V3.478c0-0.485,0.393-0.878,0.878-0.878H31.2
		c0.485,0,0.878,0.393,0.878,0.878V36.4C32.078,36.885,31.685,37.278,31.2,37.278z"/>
	<g>
		<path class="st1" d="M15.086,8.231h-3.959c-0.219,0-0.397-0.178-0.397-0.397V6.508c0-0.219,0.178-0.397,0.397-0.397h3.959
			c0.219,0,0.397,0.178,0.397,0.397v1.326C15.482,8.053,15.305,8.231,15.086,8.231z"/>
		<path class="st1" d="M21.825,8.231h-3.959c-0.219,0-0.397-0.178-0.397-0.397V6.508c0-0.219,0.178-0.397,0.397-0.397h3.959
			c0.219,0,0.397,0.178,0.397,0.397v1.326C22.222,8.053,22.044,8.231,21.825,8.231z"/>
		<path class="st1" d="M28.886,8.231h-3.959c-0.219,0-0.397-0.178-0.397-0.397V6.508c0-0.219,0.178-0.397,0.397-0.397h3.959
			c0.219,0,0.397,0.178,0.397,0.397v1.326C29.283,8.053,29.106,8.231,28.886,8.231z"/>
		<path class="st1" d="M15.086,12.548h-3.959c-0.219,0-0.397-0.178-0.397-0.397v-1.326c0-0.219,0.178-0.397,0.397-0.397h3.959
			c0.219,0,0.397,0.178,0.397,0.397v1.326C15.482,12.371,15.305,12.548,15.086,12.548z"/>
		<path class="st1" d="M21.825,12.548h-3.959c-0.219,0-0.397-0.178-0.397-0.397v-1.326c0-0.219,0.178-0.397,0.397-0.397h3.959
			c0.219,0,0.397,0.178,0.397,0.397v1.326C22.222,12.371,22.044,12.548,21.825,12.548z"/>
		<path class="st1" d="M28.886,12.548h-3.959c-0.219,0-0.397-0.178-0.397-0.397v-1.326c0-0.219,0.178-0.397,0.397-0.397h3.959
			c0.219,0,0.397,0.178,0.397,0.397v1.326C29.283,12.371,29.106,12.548,28.886,12.548z"/>
		<path class="st1" d="M15.086,16.865h-3.959c-0.219,0-0.397-0.178-0.397-0.397v-1.326c0-0.219,0.178-0.397,0.397-0.397h3.959
			c0.219,0,0.397,0.178,0.397,0.397v1.326C15.482,16.688,15.305,16.865,15.086,16.865z"/>
		<path class="st1" d="M21.825,16.865h-3.959c-0.219,0-0.397-0.178-0.397-0.397v-1.326c0-0.219,0.178-0.397,0.397-0.397h3.959
			c0.219,0,0.397,0.178,0.397,0.397v1.326C22.222,16.688,22.044,16.865,21.825,16.865z"/>
		<path class="st1" d="M28.886,16.865h-3.959c-0.219,0-0.397-0.178-0.397-0.397v-1.326c0-0.219,0.178-0.397,0.397-0.397h3.959
			c0.219,0,0.397,0.178,0.397,0.397v1.326C29.283,16.688,29.106,16.865,28.886,16.865z"/>
		<path class="st1" d="M15.086,21.183h-3.959c-0.219,0-0.397-0.178-0.397-0.397V19.46c0-0.219,0.178-0.397,0.397-0.397h3.959
			c0.219,0,0.397,0.178,0.397,0.397v1.326C15.482,21.005,15.305,21.183,15.086,21.183z"/>
		<path class="st1" d="M21.825,21.183h-3.959c-0.219,0-0.397-0.178-0.397-0.397V19.46c0-0.219,0.178-0.397,0.397-0.397h3.959
			c0.219,0,0.397,0.178,0.397,0.397v1.326C22.222,21.005,22.044,21.183,21.825,21.183z"/>
		<path class="st1" d="M28.886,21.183h-3.959c-0.219,0-0.397-0.178-0.397-0.397V19.46c0-0.219,0.178-0.397,0.397-0.397h3.959
			c0.219,0,0.397,0.178,0.397,0.397v1.326C29.283,21.005,29.106,21.183,28.886,21.183z"/>
	</g>
	<path class="st2" d="M26.948,31.208v5.682c0,0.215-0.174,0.389-0.389,0.389H13.453c-0.215,0-0.389-0.174-0.389-0.389v-5.682
		c0-0.215,0.174-0.389,0.389-0.389h13.106C26.774,30.819,26.948,30.993,26.948,31.208z"/>
</g>
</svg>
