<svg xmlns="http://www.w3.org/2000/svg" viewBox="0 0 40 40"><defs><style>.a{fill:none;}.b{fill:#00aae7;}.c{fill:#35318f;}</style></defs><path class="a" d="M19.79,6.86a5.2,5.2,0,0,0-5.2,5.2v1H25v-1A5.2,5.2,0,0,0,19.79,6.86Z"/><path class="b" d="M34.38,14.37A1.33,1.33,0,0,0,33,13.06H28.41v-1a8.62,8.62,0,1,0-17.23,0v1H7a1.33,1.33,0,0,0-1.36,1.31L2.91,35.26a1.33,1.33,0,0,0,1.36,1.31H35.73a1.33,1.33,0,0,0,1.36-1.31ZM21.07,26.07v3.73a1.07,1.07,0,1,1-2.14,0V26.07a3.36,3.36,0,1,1,2.14,0Zm3.92-13H14.6v-1a5.2,5.2,0,1,1,10.4,0Z"/><path class="c" d="M20,19.53a3.36,3.36,0,0,0-1.07,6.54v3.73a1.07,1.07,0,1,0,2.14,0V26.07A3.36,3.36,0,0,0,20,19.53Z"/></svg>