<svg xmlns="http://www.w3.org/2000/svg" viewBox="0 0 40 40"><defs><style>.a{fill:#00aae7;}.b{fill:#35318f;}.c{fill:#f39800;}</style></defs><path class="a" d="M30,15.16l2.56,2.56a.91.91,0,0,0,1.28,0l.64-.64a6.26,6.26,0,0,1,0,9l-.64-.64a.91.91,0,0,0-1.28,0L30,28a.91.91,0,0,0,0,1.28l2.56,2.56a.91.91,0,0,0,1.28,0l3.2-3.2a10,10,0,0,0,0-14.09l-3.2-3.2a.91.91,0,0,0-1.28,0L30,13.88A.91.91,0,0,0,30,15.16Z"/><path class="b" d="M25.6,16.81,14.37,5.8a1.92,1.92,0,0,0-2.69,0L6.39,11V7.07a.45.45,0,0,0-.45-.45H1.78a.45.45,0,0,0-.45.45v8.85l-.9.88A1.5,1.5,0,0,0,0,17.87V33.25a1.5,1.5,0,0,0,1.5,1.5h23a1.5,1.5,0,0,0,1.5-1.5V17.87A1.5,1.5,0,0,0,25.6,16.81Zm-13.35,9H9.69a.5.5,0,0,1-.5-.5V22.77h3.06Zm0-4.6H9.19V18.67a.5.5,0,0,1,.5-.5h2.57Zm4.6,4.1a.5.5,0,0,1-.5.5H13.79V22.77h3.06Zm0-4.1H13.79V18.17h2.57a.5.5,0,0,1,.5.5Z"/><path class="c" d="M9.19,18.67v2.57h3.06V18.17H9.69A.5.5,0,0,0,9.19,18.67Z"/><path class="c" d="M9.19,25.33a.5.5,0,0,0,.5.5h2.57V22.77H9.19Z"/><path class="c" d="M16.35,18.17H13.79v3.06h3.06V18.67A.5.5,0,0,0,16.35,18.17Z"/><path class="c" d="M13.79,25.83h2.57a.5.5,0,0,0,.5-.5V22.77H13.79Z"/></svg>