<?xml version="1.0" encoding="UTF-8"?>
<svg xmlns="http://www.w3.org/2000/svg" viewBox="0 0 140.22 126.93">
  <defs>
    <style>
      .cls-1 {
        fill: #fff;
      }

      .cls-2 {
        fill: #433115;
      }

      .cls-3 {
        fill: #ed6b1b;
      }

      .cls-4 {
        opacity: .2;
      }

      .cls-4, .cls-5 {
        mix-blend-mode: multiply;
      }

      .cls-6 {
        isolation: isolate;
      }

      .cls-7 {
        fill: #e9b143;
        stroke: #e9b143;
        stroke-width: .58px;
      }

      .cls-7, .cls-8, .cls-9, .cls-10 {
        stroke-miterlimit: 10;
      }

      .cls-5 {
        opacity: .15;
      }

      .cls-11 {
        fill: #fcefbb;
      }

      .cls-8 {
        stroke-width: 1.86px;
      }

      .cls-8, .cls-9 {
        fill: none;
        stroke: #ecc451;
      }

      .cls-9 {
        stroke-width: 1.7px;
      }

      .cls-12 {
        fill: #f0b35a;
      }

      .cls-13, .cls-10 {
        fill: #d9ac3b;
      }

      .cls-14 {
        fill: #573b1a;
      }

      .cls-10 {
        stroke: #d9ac3b;
        stroke-width: .71px;
      }
    </style>
  </defs>
  <g class="cls-6">
    <g id="_レイヤー_1" data-name="レイヤー 1">
      <g>
        <path class="cls-3" d="m99.72,6.26s-2.97,7.38-8.79,13.45c0,0,6.62,7.45,8.79,13.45,1.97-5.92,8.79-13.45,8.79-13.45-5.74-6.23-8.79-13.45-8.79-13.45Z"/>
        <path class="cls-3" d="m4.67,98.68s-1.54,3.82-4.55,6.96c0,0,3.43,3.86,4.55,6.96,1.02-3.06,4.55-6.96,4.55-6.96-2.97-3.22-4.55-6.96-4.55-6.96Z"/>
        <path class="cls-12" d="m133.76,67.28s-2.18,5.43-6.46,9.89c0,0,4.87,5.48,6.46,9.89,1.45-4.35,6.46-9.89,6.46-9.89-4.22-4.58-6.46-9.89-6.46-9.89Z"/>
        <g>
          <g>
            <path class="cls-13" d="m56.14,90.24c-4.04-1.68-8.94-2.66-14.21-2.66s-10.17.98-14.21,2.66l-10.96,6.54v6.45h0c.36,8.23,11.49,14.83,25.16,14.83s24.8-6.6,25.16-14.83h0v-7.15l-10.96-5.84Z"/>
            <path class="cls-11" d="m42.01,81.91c-13.76,0-24.92,6.56-24.92,14.65s11.16,14.65,24.92,14.65,24.92-6.56,24.92-14.65-11.16-14.65-24.92-14.65Z"/>
            <ellipse class="cls-9" cx="41.97" cy="96.63" rx="23.67" ry="13.68"/>
            <path class="cls-7" d="m48.85,89.23c2.04,0,2.97-.02,4.49-.14,1.35,1.42,1.9,2.13,2.38,3.19.41.9.66,1.96.66,2.93,0,2.49-1.35,4.41-3.97,5.67-2.49,1.22-6.22,1.88-10.5,1.88-5.49,0-9.71-1.12-12.12-3.19-1.42-1.24-2.04-2.59-2.04-4.43s1.07-3.47,2.97-4.59c1.17-.7,2.14-1.06,4.11-1.48l1.28,2.73c-3.14.66-4.25,1.62-4.25,3.67,0,1.18.76,2.27,2.11,3.03,1.8,1,4.35,1.48,7.91,1.48s6.22-.46,8.08-1.36c1.62-.82,2.35-1.9,2.35-3.47,0-1.36-.45-2.37-1.55-3.39h-5.63v1.08c0,1.02.03,1.44.21,2.04h-4.46c.17-.72.21-1.16.21-2.39v-1.04c0-.92-.03-1.5-.14-2.35,1.28.1,2.35.14,4.28.14h3.63Z"/>
          </g>
          <g>
            <path class="cls-13" d="m56.14,80.54c-4.04-1.68-8.94-2.66-14.21-2.66s-10.17.98-14.21,2.66l-10.96,6.54v6.45h0c.36,8.23,11.49,14.83,25.16,14.83s24.8-6.6,25.16-14.83h0v-7.15l-10.96-5.84Z"/>
            <path class="cls-11" d="m42.01,72.21c-13.76,0-24.92,6.56-24.92,14.65s11.16,14.65,24.92,14.65,24.92-6.56,24.92-14.65-11.16-14.65-24.92-14.65Z"/>
            <ellipse class="cls-9" cx="41.97" cy="86.93" rx="23.67" ry="13.68"/>
            <path class="cls-7" d="m48.85,79.54c2.04,0,2.97-.02,4.49-.14,1.35,1.42,1.9,2.13,2.38,3.19.41.9.66,1.96.66,2.93,0,2.49-1.35,4.41-3.97,5.67-2.49,1.22-6.22,1.88-10.5,1.88-5.49,0-9.71-1.12-12.12-3.19-1.42-1.24-2.04-2.59-2.04-4.43s1.07-3.47,2.97-4.59c1.17-.7,2.14-1.06,4.11-1.48l1.28,2.73c-3.14.66-4.25,1.62-4.25,3.67,0,1.18.76,2.27,2.11,3.03,1.8,1,4.35,1.48,7.91,1.48s6.22-.46,8.08-1.36c1.62-.82,2.35-1.9,2.35-3.47,0-1.36-.45-2.37-1.55-3.39h-5.63v1.08c0,1.02.03,1.44.21,2.04h-4.46c.17-.72.21-1.16.21-2.39v-1.04c0-.92-.03-1.5-.14-2.35,1.28.1,2.35.14,4.28.14h3.63Z"/>
          </g>
          <g>
            <path class="cls-13" d="m56.14,70.85c-4.04-1.68-8.94-2.66-14.21-2.66s-10.17.98-14.21,2.66l-10.96,6.54v6.45h0c.36,8.23,11.49,14.83,25.16,14.83s24.8-6.6,25.16-14.83h0v-7.15l-10.96-5.84Z"/>
            <path class="cls-11" d="m42.01,62.52c-13.76,0-24.92,6.56-24.92,14.65s11.16,14.65,24.92,14.65,24.92-6.56,24.92-14.65-11.16-14.65-24.92-14.65Z"/>
            <ellipse class="cls-9" cx="41.97" cy="77.24" rx="23.67" ry="13.68"/>
            <path class="cls-7" d="m48.85,69.84c2.04,0,2.97-.02,4.49-.14,1.35,1.42,1.9,2.13,2.38,3.19.41.9.66,1.96.66,2.93,0,2.49-1.35,4.41-3.97,5.67-2.49,1.22-6.22,1.88-10.5,1.88-5.49,0-9.71-1.12-12.12-3.19-1.42-1.24-2.04-2.59-2.04-4.43s1.07-3.47,2.97-4.59c1.17-.7,2.14-1.06,4.11-1.48l1.28,2.73c-3.14.66-4.25,1.62-4.25,3.67,0,1.18.76,2.27,2.11,3.03,1.8,1,4.35,1.48,7.91,1.48s6.22-.46,8.08-1.36c1.62-.82,2.35-1.9,2.35-3.47,0-1.36-.45-2.37-1.55-3.39h-5.63v1.08c0,1.02.03,1.44.21,2.04h-4.46c.17-.72.21-1.16.21-2.39v-1.04c0-.92-.03-1.5-.14-2.35,1.28.1,2.35.14,4.28.14h3.63Z"/>
          </g>
          <g>
            <path class="cls-13" d="m56.14,61.16c-4.04-1.68-8.94-2.66-14.21-2.66s-10.17.98-14.21,2.66l-10.96,6.54v6.45h0c.36,8.23,11.49,14.83,25.16,14.83s24.8-6.6,25.16-14.83h0v-7.15l-10.96-5.84Z"/>
            <path class="cls-11" d="m42.01,52.83c-13.76,0-24.92,6.56-24.92,14.65s11.16,14.65,24.92,14.65,24.92-6.56,24.92-14.65-11.16-14.65-24.92-14.65Z"/>
            <ellipse class="cls-9" cx="41.97" cy="67.55" rx="23.67" ry="13.68"/>
            <path class="cls-7" d="m48.85,60.15c2.04,0,2.97-.02,4.49-.14,1.35,1.42,1.9,2.13,2.38,3.19.41.9.66,1.96.66,2.93,0,2.49-1.35,4.41-3.97,5.67-2.49,1.22-6.22,1.88-10.5,1.88-5.49,0-9.71-1.12-12.12-3.19-1.42-1.24-2.04-2.59-2.04-4.43s1.07-3.47,2.97-4.59c1.17-.7,2.14-1.06,4.11-1.48l1.28,2.73c-3.14.66-4.25,1.62-4.25,3.67,0,1.18.76,2.27,2.11,3.03,1.8,1,4.35,1.48,7.91,1.48s6.22-.46,8.08-1.36c1.62-.82,2.35-1.9,2.35-3.47,0-1.36-.45-2.37-1.55-3.39h-5.63v1.08c0,1.02.03,1.44.21,2.04h-4.46c.17-.72.21-1.16.21-2.39v-1.04c0-.92-.03-1.5-.14-2.35,1.28.1,2.35.14,4.28.14h3.63Z"/>
          </g>
          <g>
            <path class="cls-13" d="m56.14,51.46c-4.04-1.68-8.94-2.66-14.21-2.66s-10.17.98-14.21,2.66l-10.96,6.54v6.45h0c.36,8.23,11.49,14.83,25.16,14.83s24.8-6.6,25.16-14.83h0v-7.15l-10.96-5.84Z"/>
            <path class="cls-11" d="m42.01,43.13c-13.76,0-24.92,6.56-24.92,14.65s11.16,14.65,24.92,14.65,24.92-6.56,24.92-14.65-11.16-14.65-24.92-14.65Z"/>
            <ellipse class="cls-9" cx="41.97" cy="57.85" rx="23.67" ry="13.68"/>
            <path class="cls-7" d="m48.85,50.46c2.04,0,2.97-.02,4.49-.14,1.35,1.42,1.9,2.13,2.38,3.19.41.9.66,1.96.66,2.93,0,2.49-1.35,4.41-3.97,5.67-2.49,1.22-6.22,1.88-10.5,1.88-5.49,0-9.71-1.12-12.12-3.19-1.42-1.24-2.04-2.59-2.04-4.43s1.07-3.47,2.97-4.59c1.17-.7,2.14-1.06,4.11-1.48l1.28,2.73c-3.14.66-4.25,1.62-4.25,3.67,0,1.18.76,2.27,2.11,3.03,1.8,1,4.35,1.48,7.91,1.48s6.22-.46,8.08-1.36c1.62-.82,2.35-1.9,2.35-3.47,0-1.36-.45-2.37-1.55-3.39h-5.63v1.08c0,1.02.03,1.44.21,2.04h-4.46c.17-.72.21-1.16.21-2.39v-1.04c0-.92-.03-1.5-.14-2.35,1.28.1,2.35.14,4.28.14h3.63Z"/>
          </g>
          <g>
            <path class="cls-13" d="m56.14,41.77c-4.04-1.68-8.94-2.66-14.21-2.66s-10.17.98-14.21,2.66l-10.96,6.54v6.45h0c.36,8.23,11.49,14.83,25.16,14.83s24.8-6.6,25.16-14.83h0v-7.15l-10.96-5.84Z"/>
            <path class="cls-11" d="m42.01,33.44c-13.76,0-24.92,6.56-24.92,14.65s11.16,14.65,24.92,14.65,24.92-6.56,24.92-14.65-11.16-14.65-24.92-14.65Z"/>
            <ellipse class="cls-9" cx="41.97" cy="48.16" rx="23.67" ry="13.68"/>
            <path class="cls-7" d="m48.85,40.76c2.04,0,2.97-.02,4.49-.14,1.35,1.42,1.9,2.13,2.38,3.19.41.9.66,1.96.66,2.93,0,2.49-1.35,4.41-3.97,5.67-2.49,1.22-6.22,1.88-10.5,1.88-5.49,0-9.71-1.12-12.12-3.19-1.42-1.24-2.04-2.59-2.04-4.43s1.07-3.47,2.97-4.59c1.17-.7,2.14-1.06,4.11-1.48l1.28,2.73c-3.14.66-4.25,1.62-4.25,3.67,0,1.18.76,2.27,2.11,3.03,1.8,1,4.35,1.48,7.91,1.48s6.22-.46,8.08-1.36c1.62-.82,2.35-1.9,2.35-3.47,0-1.36-.45-2.37-1.55-3.39h-5.63v1.08c0,1.02.03,1.44.21,2.04h-4.46c.17-.72.21-1.16.21-2.39v-1.04c0-.92-.03-1.5-.14-2.35,1.28.1,2.35.14,4.28.14h3.63Z"/>
          </g>
          <g>
            <path class="cls-13" d="m56.14,32.07c-4.04-1.68-8.94-2.66-14.21-2.66s-10.17.98-14.21,2.66l-10.96,6.54v6.45h0c.36,8.23,11.49,14.83,25.16,14.83s24.8-6.6,25.16-14.83h0v-7.15l-10.96-5.84Z"/>
            <path class="cls-11" d="m42.01,23.74c-13.76,0-24.92,6.56-24.92,14.65s11.16,14.65,24.92,14.65,24.92-6.56,24.92-14.65-11.16-14.65-24.92-14.65Z"/>
            <ellipse class="cls-9" cx="41.97" cy="38.46" rx="23.67" ry="13.68"/>
            <path class="cls-7" d="m48.85,31.07c2.04,0,2.97-.02,4.49-.14,1.35,1.42,1.9,2.13,2.38,3.19.41.9.66,1.96.66,2.93,0,2.49-1.35,4.41-3.97,5.67-2.49,1.22-6.22,1.88-10.5,1.88-5.49,0-9.71-1.12-12.12-3.19-1.42-1.24-2.04-2.59-2.04-4.43s1.07-3.47,2.97-4.59c1.17-.7,2.14-1.06,4.11-1.48l1.28,2.73c-3.14.66-4.25,1.62-4.25,3.67,0,1.18.76,2.27,2.11,3.03,1.8,1,4.35,1.48,7.91,1.48s6.22-.46,8.08-1.36c1.62-.82,2.35-1.9,2.35-3.47,0-1.36-.45-2.37-1.55-3.39h-5.63v1.08c0,1.02.03,1.44.21,2.04h-4.46c.17-.72.21-1.16.21-2.39v-1.04c0-.92-.03-1.5-.14-2.35,1.28.1,2.35.14,4.28.14h3.63Z"/>
          </g>
          <g>
            <path class="cls-13" d="m56.14,22.38c-4.04-1.68-8.94-2.66-14.21-2.66s-10.17.98-14.21,2.66l-10.96,6.54v6.45h0c.36,8.23,11.49,14.83,25.16,14.83s24.8-6.6,25.16-14.83h0v-7.15l-10.96-5.84Z"/>
            <path class="cls-11" d="m42.01,14.05c-13.76,0-24.92,6.56-24.92,14.65s11.16,14.65,24.92,14.65,24.92-6.56,24.92-14.65-11.16-14.65-24.92-14.65Z"/>
            <ellipse class="cls-9" cx="41.97" cy="28.77" rx="23.67" ry="13.68"/>
            <path class="cls-7" d="m48.85,21.37c2.04,0,2.97-.02,4.49-.14,1.35,1.42,1.9,2.13,2.38,3.19.41.9.66,1.96.66,2.93,0,2.49-1.35,4.41-3.97,5.67-2.49,1.22-6.22,1.88-10.5,1.88-5.49,0-9.71-1.12-12.12-3.19-1.42-1.24-2.04-2.59-2.04-4.43s1.07-3.47,2.97-4.59c1.17-.7,2.14-1.06,4.11-1.48l1.28,2.73c-3.14.66-4.25,1.62-4.25,3.67,0,1.18.76,2.27,2.11,3.03,1.8,1,4.35,1.48,7.91,1.48s6.22-.46,8.08-1.36c1.62-.82,2.35-1.9,2.35-3.47,0-1.36-.45-2.37-1.55-3.39h-5.63v1.08c0,1.02.03,1.44.21,2.04h-4.46c.17-.72.21-1.16.21-2.39v-1.04c0-.92-.03-1.5-.14-2.35,1.28.1,2.35.14,4.28.14h3.63Z"/>
          </g>
        </g>
        <g>
          <g>
            <path class="cls-13" d="m107.8,90.24c-4.04-1.68-8.94-2.66-14.21-2.66s-10.17.98-14.21,2.66l-10.96,6.54v6.45h0c.36,8.23,11.49,14.83,25.16,14.83s24.8-6.6,25.16-14.83h0v-7.15l-10.96-5.84Z"/>
            <path class="cls-11" d="m93.67,81.91c-13.76,0-24.92,6.56-24.92,14.65s11.16,14.65,24.92,14.65,24.92-6.56,24.92-14.65-11.16-14.65-24.92-14.65Z"/>
            <ellipse class="cls-9" cx="93.62" cy="96.63" rx="23.67" ry="13.68"/>
            <path class="cls-7" d="m100.51,89.23c2.04,0,2.97-.02,4.49-.14,1.35,1.42,1.9,2.13,2.38,3.19.41.9.66,1.96.66,2.93,0,2.49-1.35,4.41-3.97,5.67-2.49,1.22-6.22,1.88-10.5,1.88-5.49,0-9.71-1.12-12.12-3.19-1.42-1.24-2.04-2.59-2.04-4.43s1.07-3.47,2.97-4.59c1.17-.7,2.14-1.06,4.11-1.48l1.28,2.73c-3.14.66-4.25,1.62-4.25,3.67,0,1.18.76,2.27,2.11,3.03,1.8,1,4.35,1.48,7.91,1.48s6.22-.46,8.08-1.36c1.62-.82,2.35-1.9,2.35-3.47,0-1.36-.45-2.37-1.55-3.39h-5.63v1.08c0,1.02.03,1.44.21,2.04h-4.46c.17-.72.21-1.16.21-2.39v-1.04c0-.92-.03-1.5-.14-2.35,1.28.1,2.35.14,4.28.14h3.63Z"/>
          </g>
          <g>
            <path class="cls-13" d="m107.8,81.34c-4.04-1.68-8.94-2.66-14.21-2.66s-10.17.98-14.21,2.66l-10.96,6.54v6.45h0c.36,8.23,11.49,14.83,25.16,14.83s24.8-6.6,25.16-14.83h0v-7.15l-10.96-5.84Z"/>
            <path class="cls-11" d="m93.67,72.21c-13.76,0-24.92,6.56-24.92,14.65s11.16,14.65,24.92,14.65,24.92-6.56,24.92-14.65-11.16-14.65-24.92-14.65Z"/>
            <ellipse class="cls-9" cx="93.62" cy="86.93" rx="23.67" ry="13.68"/>
            <path class="cls-7" d="m100.5,79.53c2.04,0,2.97-.02,4.49-.14,1.35,1.42,1.9,2.13,2.38,3.19.41.9.66,1.96.66,2.93,0,2.49-1.35,4.41-3.97,5.67-2.49,1.22-6.22,1.88-10.5,1.88-5.49,0-9.71-1.12-12.12-3.19-1.42-1.24-2.04-2.59-2.04-4.43s1.07-3.47,2.97-4.59c1.17-.7,2.14-1.06,4.11-1.48l1.28,2.73c-3.14.66-4.25,1.62-4.25,3.67,0,1.18.76,2.27,2.11,3.03,1.8,1,4.35,1.48,7.91,1.48s6.22-.46,8.08-1.36c1.62-.82,2.35-1.9,2.35-3.47,0-1.36-.45-2.37-1.55-3.39h-5.63v1.08c0,1.02.03,1.44.21,2.04h-4.46c.17-.72.21-1.16.21-2.39v-1.04c0-.92-.03-1.5-.14-2.35,1.28.1,2.35.14,4.28.14h3.63Z"/>
          </g>
          <g>
            <path class="cls-13" d="m107.8,70.85c-4.04-1.68-8.94-2.66-14.21-2.66s-10.17.98-14.21,2.66l-10.96,6.54v6.45h0c.36,8.23,11.49,14.83,25.16,14.83s24.8-6.6,25.16-14.83h0v-7.15l-10.96-5.84Z"/>
            <path class="cls-11" d="m93.67,62.52c-13.76,0-24.92,6.56-24.92,14.65s11.16,14.65,24.92,14.65,24.92-6.56,24.92-14.65-11.16-14.65-24.92-14.65Z"/>
            <ellipse class="cls-9" cx="93.62" cy="77.24" rx="23.67" ry="13.68"/>
            <path class="cls-7" d="m100.51,69.84c2.04,0,2.97-.02,4.49-.14,1.35,1.42,1.9,2.13,2.38,3.19.41.9.66,1.96.66,2.93,0,2.49-1.35,4.41-3.97,5.67-2.49,1.22-6.22,1.88-10.5,1.88-5.49,0-9.71-1.12-12.12-3.19-1.42-1.24-2.04-2.59-2.04-4.43s1.07-3.47,2.97-4.59c1.17-.7,2.14-1.06,4.11-1.48l1.28,2.73c-3.14.66-4.25,1.62-4.25,3.67,0,1.18.76,2.27,2.11,3.03,1.8,1,4.35,1.48,7.91,1.48s6.22-.46,8.08-1.36c1.62-.82,2.35-1.9,2.35-3.47,0-1.36-.45-2.37-1.55-3.39h-5.63v1.08c0,1.02.03,1.44.21,2.04h-4.46c.17-.72.21-1.16.21-2.39v-1.04c0-.92-.03-1.5-.14-2.35,1.28.1,2.35.14,4.28.14h3.63Z"/>
          </g>
          <g>
            <path class="cls-13" d="m107.8,61.16c-4.04-1.68-8.94-2.66-14.21-2.66s-10.17.98-14.21,2.66l-10.96,6.54v6.45h0c.36,8.23,11.49,14.83,25.16,14.83s24.8-6.6,25.16-14.83h0v-7.15l-10.96-5.84Z"/>
            <path class="cls-11" d="m93.67,52.83c-13.76,0-24.92,6.56-24.92,14.65s11.16,14.65,24.92,14.65,24.92-6.56,24.92-14.65-11.16-14.65-24.92-14.65Z"/>
            <ellipse class="cls-9" cx="93.62" cy="67.55" rx="23.67" ry="13.68"/>
            <path class="cls-7" d="m100.51,60.15c2.04,0,2.97-.02,4.49-.14,1.35,1.42,1.9,2.13,2.38,3.19.41.9.66,1.96.66,2.93,0,2.49-1.35,4.41-3.97,5.67-2.49,1.22-6.22,1.88-10.5,1.88-5.49,0-9.71-1.12-12.12-3.19-1.42-1.24-2.04-2.59-2.04-4.43s1.07-3.47,2.97-4.59c1.17-.7,2.14-1.06,4.11-1.48l1.28,2.73c-3.14.66-4.25,1.62-4.25,3.67,0,1.18.76,2.27,2.11,3.03,1.8,1,4.35,1.48,7.91,1.48s6.22-.46,8.08-1.36c1.62-.82,2.35-1.9,2.35-3.47,0-1.36-.45-2.37-1.55-3.39h-5.63v1.08c0,1.02.03,1.44.21,2.04h-4.46c.17-.72.21-1.16.21-2.39v-1.04c0-.92-.03-1.5-.14-2.35,1.28.1,2.35.14,4.28.14h3.63Z"/>
          </g>
          <g>
            <path class="cls-13" d="m107.8,51.46c-4.04-1.68-8.94-2.66-14.21-2.66s-10.17.98-14.21,2.66l-10.96,6.54v6.45h0c.36,8.23,11.49,14.83,25.16,14.83s24.8-6.6,25.16-14.83h0v-7.15l-10.96-5.84Z"/>
            <path class="cls-11" d="m93.67,43.13c-13.76,0-24.92,6.56-24.92,14.65s11.16,14.65,24.92,14.65,24.92-6.56,24.92-14.65-11.16-14.65-24.92-14.65Z"/>
            <ellipse class="cls-9" cx="93.62" cy="57.85" rx="23.67" ry="13.68"/>
            <path class="cls-7" d="m100.51,50.46c2.04,0,2.97-.02,4.49-.14,1.35,1.42,1.9,2.13,2.38,3.19.41.9.66,1.96.66,2.93,0,2.49-1.35,4.41-3.97,5.67-2.49,1.22-6.22,1.88-10.5,1.88-5.49,0-9.71-1.12-12.12-3.19-1.42-1.24-2.04-2.59-2.04-4.43s1.07-3.47,2.97-4.59c1.17-.7,2.14-1.06,4.11-1.48l1.28,2.73c-3.14.66-4.25,1.62-4.25,3.67,0,1.18.76,2.27,2.11,3.03,1.8,1,4.35,1.48,7.91,1.48s6.22-.46,8.08-1.36c1.62-.82,2.35-1.9,2.35-3.47,0-1.36-.45-2.37-1.55-3.39h-5.63v1.08c0,1.02.03,1.44.21,2.04h-4.46c.17-.72.21-1.16.21-2.39v-1.04c0-.92-.03-1.5-.14-2.35,1.28.1,2.35.14,4.28.14h3.63Z"/>
          </g>
        </g>
        <g class="cls-5">
          <path class="cls-14" d="m67.12,45.05v-5.73c.03-.29.04-.58.04-.88,0-.64-.07-1.27-.19-1.88.07-.4.12-.8.14-1.21h0v-5.65c-.5,5.52-5.68,10.16-13.25,12.56v73.97c7.7-2.51,12.99-7.38,13.24-13.01h0v-5.73c.03-.29.04-.58.04-.88,0-.64-.07-1.27-.19-1.88.07-.4.12-.8.14-1.21h0v-5.73c.03-.29.04-.58.04-.88,0-.64-.07-1.27-.19-1.88.07-.4.12-.8.14-1.21h0v-5.73c.03-.29.04-.58.04-.88,0-.64-.07-1.27-.19-1.88.07-.4.12-.8.14-1.21h0v-5.73c.03-.29.04-.58.04-.88,0-.64-.07-1.27-.19-1.88.07-.4.12-.8.14-1.21h0v-5.73c.03-.29.04-.58.04-.88,0-.64-.07-1.27-.19-1.88.07-.4.12-.8.14-1.21h0v-5.73c.03-.29.04-.58.04-.88,0-.64-.07-1.27-.19-1.88.07-.4.12-.8.14-1.21h0Z"/>
        </g>
        <g class="cls-5">
          <path class="cls-14" d="m118.77,74.05l-.04-5.46c.03-.29.04-.58.04-.88,0-.64-.03-1.51-.15-2.13.07-.4.13-.81.14-1.22h0l-.02-5.5c-.56,5.28-5.71,9.96-13.28,12.35v45.03c10.93-3.52,12.87-10.04,13.1-11.63.07-.4.16-1.07.18-1.48h0v-5.76c.02-.29.04-.3.04-.59,0-.6,0-1.13-.12-1.75.04-.38.05-.39.07-.8h0v-6.53c.02-.29.03-.36.04-.65.02-.62-.06-1.46-.18-2.08.07-.4.12-.82.13-1.22h0v-5.75c.03-.29.03-.33.04-.62.03-.66-.07-1.49-.19-2.11.07-.4.12-.81.14-1.22h0Z"/>
        </g>
        <g class="cls-4">
          <path class="cls-2" d="m68.12,119.36c-2.34,0-4.69-.35-6.99-1.04-3.49-1.06-6.62-2.85-9.28-5.3-5.3-4.34-8.36-10.78-8.36-17.65,0-11.77,8.83-21.54,20.53-22.72,2.95-.3,5.91-.03,8.74.8.65.14,1.26.3,1.84.47h0c6.03,1.83,11,5.86,14,11.34,3,5.49,3.65,11.78,1.85,17.71-1.8,5.93-5.84,10.8-11.38,13.7-3.42,1.79-7.17,2.7-10.95,2.7Z"/>
        </g>
        <g>
          <ellipse class="cls-13" cx="64.24" cy="96.28" rx="23.69" ry="24.11" transform="translate(-46.54 129.8) rotate(-73.12)"/>
          <path class="cls-11" d="m62.68,72.18c-12.82,0-23.21,10.39-23.21,23.21s10.39,23.21,23.21,23.21,23.21-10.39,23.21-23.21-10.39-23.21-23.21-23.21Z"/>
          <path class="cls-1" d="m71.85,101.11c0,1.79.03,2.61.21,3.94-2.15,1.18-3.25,1.67-4.86,2.09-1.37.36-2.97.58-4.46.58-3.79,0-6.71-1.18-8.62-3.49-1.85-2.18-2.85-5.46-2.85-9.22,0-4.82,1.7-8.53,4.86-10.65,1.88-1.24,3.94-1.79,6.74-1.79s5.28.94,6.98,2.61c1.06,1.03,1.61,1.88,2.25,3.61l-4.16,1.12c-1-2.76-2.46-3.73-5.58-3.73-1.79,0-3.46.67-4.61,1.85-1.52,1.58-2.25,3.82-2.25,6.95s.7,5.46,2.06,7.1c1.24,1.43,2.88,2.06,5.28,2.06,2.06,0,3.61-.39,5.16-1.37v-4.95h-1.64c-1.55,0-2.18.03-3.1.18v-3.91c1.09.15,1.76.18,3.64.18h1.58c1.4,0,2.28-.03,3.58-.12-.15,1.12-.21,2.06-.21,3.76v3.19Z"/>
          <circle class="cls-8" cx="62.63" cy="95.49" r="21.66"/>
          <path class="cls-10" d="m72.5,101.44c0,1.86.03,2.72.22,4.11-2.24,1.23-3.38,1.74-5.06,2.18-1.42.38-3.1.6-4.65.6-3.95,0-6.98-1.23-8.97-3.63-1.93-2.27-2.97-5.69-2.97-9.61,0-5.02,1.77-8.88,5.06-11.09,1.96-1.3,4.11-1.86,7.01-1.86s5.5.98,7.27,2.72c1.11,1.07,1.67,1.96,2.34,3.76l-4.33,1.17c-1.04-2.88-2.56-3.89-5.81-3.89-1.86,0-3.6.69-4.8,1.93-1.58,1.64-2.34,3.98-2.34,7.24s.73,5.69,2.15,7.39c1.29,1.48,3,2.15,5.5,2.15,2.15,0,3.76-.41,5.37-1.42v-5.15h-1.71c-1.61,0-2.27.03-3.22.19v-4.08c1.14.16,1.83.19,3.79.19h1.64c1.45,0,2.37-.03,3.73-.13-.16,1.17-.22,2.15-.22,3.92v3.32Z"/>
        </g>
      </g>
    </g>
  </g>
</svg>