<?xml version="1.0" encoding="utf-8"?>
<svg version="1.1" xmlns="http://www.w3.org/2000/svg" xmlns:xlink="http://www.w3.org/1999/xlink" x="0px"
	 y="0px" viewBox="0 0 12 15" style="enable-background:new 0 0 12 15;" xml:space="preserve">
<style type="text/css">
	.st0{fill:#FFFFFF;}
	.st1{fill:#666666;}
	.st2{fill:none;stroke:#666666;stroke-miterlimit:10;}
	.st3{fill:none;stroke:#666666;stroke-linecap:round;stroke-linejoin:round;stroke-miterlimit:10;}
</style>
<g>
	<path class="st0" d="M1,14.5c-0.3,0-0.5-0.2-0.5-0.5V1c0-0.3,0.2-0.5,0.5-0.5h5.6c0.1,0,0.3,0.1,0.4,0.1l4.4,4.5
		c0.1,0.1,0.1,0.2,0.1,0.4V14c0,0.3-0.2,0.5-0.5,0.5H1z"/>
	<path class="st1" d="M6.6,1L11,5.5V14H1V1H6.6L6.6,1 M6.6,0H1C0.4,0,0,0.4,0,1v13c0,0.6,0.4,1,1,1h10c0.6,0,1-0.4,1-1V5.5
		c0-0.3-0.1-0.5-0.3-0.7L7.3,0.3C7.1,0.1,6.8,0,6.6,0L6.6,0z"/>
</g>
<path class="st2" d="M6.6,0.4V4c0,0.6,0.4,1,1,1h3.5"/>
<line class="st3" x1="3" y1="6.5" x2="9" y2="6.5"/>
<line class="st3" x1="3" y1="8.5" x2="9" y2="8.5"/>
<line class="st3" x1="3" y1="10.5" x2="9" y2="10.5"/>
</svg>
