<?xml version="1.0" encoding="utf-8"?>
<svg version="1.1" xmlns="http://www.w3.org/2000/svg" xmlns:xlink="http://www.w3.org/1999/xlink" x="0px"
	 y="0px" viewBox="0 0 16 13" style="enable-background:new 0 0 16 13;" xml:space="preserve">
<style type="text/css">
	.st0{fill:#666666;}
</style>
<path class="st0" d="M14,0H5C3.9,0,3,0.9,3,2v1H2C0.9,3,0,3.9,0,5v6c0,1.1,0.9,2,2,2h9c1.1,0,2-0.9,2-2v-1h1c1.1,0,2-0.9,2-2V2
	C16,0.9,15.1,0,14,0z M12,11c0,0.6-0.4,1-1,1H2c-0.6,0-1-0.4-1-1V5c0-0.6,0.4-1,1-1h1v4c0,1.1,0.9,2,2,2h7V11z M15,8
	c0,0.6-0.4,1-1,1H5C4.4,9,4,8.6,4,8V2c0-0.6,0.4-1,1-1h9c0.6,0,1,0.4,1,1V8z"/>
</svg>
