<?xml version="1.0" encoding="utf-8"?>
<svg version="1.1" xmlns="http://www.w3.org/2000/svg" xmlns:xlink="http://www.w3.org/1999/xlink" x="0px"
	 y="0px" viewBox="0 0 16 12.9" style="enable-background:new 0 0 16 12.9;" xml:space="preserve">
<style type="text/css">
	.st0{fill:#666666;}
</style>
<path class="st0" d="M12,8.1v2.9c0,0.6-0.4,1-1,1H2c-0.6,0-1-0.4-1-1v-6c0-0.6,0.4-1,1-1h6v-1H2c-1.1,0-2,0.9-2,2v6c0,1.1,0.9,2,2,2
	h9c1.1,0,2-0.9,2-2V8.1H12z"/>
<path class="st0" d="M15.5,7.5C15.2,7.5,15,7.3,15,7V1H9C8.7,1,8.5,0.8,8.5,0.5S8.7,0,9,0h6.5C15.8,0,16,0.2,16,0.5V7
	C16,7.3,15.8,7.5,15.5,7.5z"/>
<path class="st0" d="M8.6,7.9c-0.1,0-0.3,0-0.4-0.1C8.1,7.5,8.1,7.2,8.3,7l6.3-6.3c0.2-0.2,0.5-0.2,0.7,0s0.2,0.5,0,0.7L9,7.7
	C8.9,7.8,8.8,7.9,8.6,7.9z"/>
</svg>
