<?xml version="1.0" encoding="utf-8"?>
<!-- Generator: Adobe Illustrator 27.2.0, SVG Export Plug-In . SVG Version: 6.00 Build 0)  -->
<svg version="1.1" id="レイヤー_1" xmlns="http://www.w3.org/2000/svg" xmlns:xlink="http://www.w3.org/1999/xlink" x="0px"
	 y="0px" width="100px" height="100px" viewBox="0 0 100 100" style="enable-background:new 0 0 100 100;" xml:space="preserve">
<style type="text/css">
	.st0{fill:none;}
	.st1{fill:#35318F;}
	.st2{fill:#F39800;}
	.st3{fill:#FFFFFF;}
</style>
<rect y="0" class="st0" width="99.9" height="100"/>
<g>
	<path class="st1" d="M50.4,100c5.2,0,9.4-4.2,9.4-9.4v-1.9H89c3.7,0,6.6-3.7,5.9-8.1c-1-6-12.3-6.1-12.5-9.8c0,0-3-13.6-5.5-25.8
		C73,26,64.7,17.8,50,17.8S26.6,25.9,23.1,45c-2.2,12.2-5.5,25.8-5.5,25.8c-0.2,3.7-11.5,3.8-12.5,9.8c-0.7,4.5,2.2,8.1,5.9,8.1
		h29.2v1.9c0,5.2,4.2,9.4,9.4,9.4L50.4,100L50.4,100z"/>
	<path class="st1" d="M50,0.4c-9.1,0-16.5,7.4-16.5,16.5c0,9.1,7.4,16.5,16.5,16.5S66.5,26.1,66.5,17S59.1,0.4,50,0.4z M50,24.5
		c-4.1,0-7.5-3.4-7.5-7.5s3.3-7.5,7.5-7.5s7.5,3.4,7.5,7.5S54.1,24.5,50,24.5z"/>
	<g>
		<ellipse class="st2" cx="78" cy="26.5" rx="21" ry="21"/>
		<g>
			<path class="st3" d="M80.7,37.4h-4.3c-0.4,0-0.7-0.3-0.7-0.7V21.9c0-0.5-0.4-0.8-0.9-0.7l-2,0.5c-0.5,0.1-0.9-0.2-0.9-0.7v-3.6
				c0-0.3,0.2-0.6,0.6-0.7l8.1-1.9c0.5-0.1,0.9,0.2,0.9,0.7v21.2C81.4,37.1,81.1,37.4,80.7,37.4z"/>
		</g>
	</g>
</g>
</svg>
