<svg xmlns="http://www.w3.org/2000/svg" viewBox="0 0 59.692 30.211"><defs><style>.cls-1{fill:none;stroke:#3176d5;stroke-linecap:round;stroke-linejoin:round;stroke-width:4.909px;}.cls-2{fill:#f39802;}</style></defs><g><g id="Layout"><line class="cls-1" x1="13.572" y1="10.814" x2="44.577" y2="10.814"/><line class="cls-1" x1="18.019" y1="2.455" x2="49.024" y2="2.455"/><line class="cls-1" x1="13.572" y1="27.457" x2="44.577" y2="27.457"/><line class="cls-1" x1="2.455" y1="19.097" x2="28.363" y2="19.097"/><path class="cls-2" d="M44.376,20.788c3.492.4,6.274,4.019,6.589,8.562.033.48.316.861.679.861h.13c.363,0,.646-.381.679-.861.315-4.543,3.1-8.159,6.589-8.562a.843.843,0,0,0,.65-.9v-.165a.843.843,0,0,0-.65-.9c-3.492-.4-6.274-4.019-6.589-8.562-.033-.48-.316-.861-.679-.861h-.13c-.363,0-.646.381-.679.861-.315,4.543-3.1,8.159-6.589,8.562a.843.843,0,0,0-.65.9v.165A.843.843,0,0,0,44.376,20.788Z"/></g></g></svg>