<svg xmlns="http://www.w3.org/2000/svg" viewBox="0 0 42.554 38.159"><defs><style>.cls-1{fill:#f39802;}.cls-2{fill:#3176d5;}</style></defs><g><g id="Layout"><polygon class="cls-1" points="10.107 16.943 10.107 12.899 4.279 12.899 4.279 16.943 4.907 16.943 4.907 25.676 4.279 25.676 4.279 29.72 10.107 29.72 10.107 25.676 9.464 25.676 9.464 16.943 10.107 16.943"/><polygon class="cls-1" points="24.528 16.943 24.528 12.899 18.7 12.899 18.7 16.943 19.328 16.943 19.328 25.676 18.7 25.676 18.7 29.72 24.528 29.72 24.528 25.676 23.885 25.676 23.885 16.943 24.528 16.943"/><polygon class="cls-1" points="38.948 16.943 38.948 12.899 33.121 12.899 33.121 16.943 33.749 16.943 33.749 25.676 33.121 25.676 33.121 29.72 38.948 29.72 38.948 25.676 38.306 25.676 38.306 16.943 38.948 16.943"/><path class="cls-2" d="M40.87,32.583v-.69a.807.807,0,0,0-.8-.818H2.478a.807.807,0,0,0-.8.818v.69a.807.807,0,0,1-.8.818H.8a.807.807,0,0,0-.8.818V37.34a.807.807,0,0,0,.8.818H41.759a.807.807,0,0,0,.8-.818V34.22a.807.807,0,0,0-.8-.818h-.093A.807.807,0,0,1,40.87,32.583Z"/><path class="cls-2" d="M41.536,7.631,21.514.048a.73.73,0,0,0-.514,0L.532,7.633a.817.817,0,0,0-.517.772V10.75a.8.8,0,0,0,.772.818H41.255a.8.8,0,0,0,.772-.818v-.9h.021V8.4A.817.817,0,0,0,41.536,7.631Z"/></g></g></svg>