<svg xmlns="http://www.w3.org/2000/svg" viewBox="0 0 39.438 39.438"><defs><style>.cls-1{fill:#3176d5;}.cls-2{fill:#fff;stroke:#fff;stroke-miterlimit:10;stroke-width:0.099px;}</style></defs><g><g id="Layout"><rect class="cls-1" width="39.438" height="39.438" rx="2.101" ry="2.101"/><path class="cls-2" d="M10.1,12.163a2.515,2.515,0,0,1-.437-1.257,2.616,2.616,0,0,1,2.6-2.35,2.391,2.391,0,0,1,1.967,1.257l5.192,7.979L24.61,9.813A2.273,2.273,0,0,1,26.6,8.556a2.631,2.631,0,0,1,2.568,2.322,2.585,2.585,0,0,1-.437,1.285L24.91,17.928h2.6a.991.991,0,0,1,1.038.984,1.021,1.021,0,0,1-1.038,1.038H23.571L21.959,22.41h5.547a1.011,1.011,0,1,1,0,2.022H21.8v5.356c0,.792-.136,2.241-2.35,2.241-1.694,0-2.4-.737-2.4-2.213V24.432H11.33a1.015,1.015,0,0,1-1.038-1.011A1,1,0,0,1,11.33,22.41h5.547l-1.612-2.459H11.33a1.014,1.014,0,0,1-1.038-1.011,1,1,0,0,1,1.038-1.011h2.6Z"/></g></g></svg>