<?xml version="1.0" encoding="utf-8"?>
<!-- Generator: Adobe Illustrator 27.1.1, SVG Export Plug-In . SVG Version: 6.00 Build 0)  -->
<svg version="1.1" id="レイヤー_1" xmlns="http://www.w3.org/2000/svg" xmlns:xlink="http://www.w3.org/1999/xlink" x="0px"
	 y="0px" width="100px" height="100px" viewBox="0 0 100 100" style="enable-background:new 0 0 100 100;" xml:space="preserve">
<style type="text/css">
	.st0{fill:#F39800;}
	.st1{fill:#35318F;}
</style>
<g>
	<g>
		<ellipse class="st0" cx="66.43" cy="49.44" rx="18.29" ry="18.39"/>
		<polygon class="st1" points="36.32,100 16.02,100 9.04,61.68 29.34,61.68 		"/>
		<path class="st0" d="M27.4,68.98H9.64C4.32,68.98,0,64.67,0,59.34V35.52c0-5.33,4.32-9.64,9.64-9.64H27.4
			c5.33,0,9.64,4.32,9.64,9.64v23.82C37.04,64.67,32.72,68.98,27.4,68.98z"/>
		<polygon class="st0" points="63.29,90.81 20.26,66.59 20.26,28.27 63.29,4.32 		"/>
		<path class="st1" d="M63.44,93.07h-0.56c-2.86,0-5.21-2.34-5.21-5.21V5.21c0-2.86,2.34-5.21,5.21-5.21l0.56,0
			c2.86,0,5.21,2.34,5.21,5.21v82.65C68.65,90.72,66.31,93.07,63.44,93.07z"/>
		<path class="st1" d="M74.9,26.27c-1.6,0-3.11-0.97-3.72-2.56c-0.8-2.07,0.23-4.39,2.28-5.19l7.83-3.05l-1.57-0.69
			c-1.44-0.63-2.37-2.05-2.39-3.62s0.88-3.01,2.3-3.68l14.69-6.92c2-0.94,4.37-0.08,5.31,1.93c0.94,2.01,0.08,4.39-1.92,5.33
			l-6.71,3.16l2.37,1.04c1.48,0.65,2.43,2.14,2.39,3.76c-0.03,1.62-1.04,3.07-2.55,3.65L76.34,26
			C75.86,26.18,75.38,26.27,74.9,26.27z"/>
	</g>
	<path class="st1" d="M96.01,99.21c-0.57,0-1.14-0.12-1.69-0.38l-14.69-6.92c-1.42-0.67-2.32-2.11-2.3-3.68
		c0.02-1.57,0.96-2.99,2.39-3.62l1.57-0.69l-7.83-3.05c-2.05-0.8-3.08-3.12-2.28-5.19c0.8-2.07,3.11-3.09,5.16-2.29l16.87,6.56
		c1.51,0.59,2.51,2.03,2.55,3.65c0.04,1.62-0.91,3.11-2.39,3.76l-2.37,1.04l6.71,3.16c1.99,0.94,2.85,3.33,1.92,5.33
		C98.94,98.35,97.51,99.21,96.01,99.21z"/>
</g>
</svg>
