<?xml version="1.0" encoding="utf-8"?>
<!-- Generator: Adobe Illustrator 27.1.1, SVG Export Plug-In . SVG Version: 6.00 Build 0)  -->
<svg version="1.1" id="レイヤー_1" xmlns="http://www.w3.org/2000/svg" xmlns:xlink="http://www.w3.org/1999/xlink" x="0px"
	 y="0px" width="100px" height="100px" viewBox="0 0 100 100" style="enable-background:new 0 0 100 100;" xml:space="preserve">
<style type="text/css">
	.st0{fill:#F39800;}
	.st1{fill:#FFFFFF;}
	.st2{fill:#35318F;}
</style>
<g>
	<g>
		<g>
			<path class="st0" d="M97.84,86.87H39.8c-0.57,0-1.12-0.23-1.53-0.64l-12.16-12.2c-0.41-0.41-0.63-0.96-0.63-1.54V2.17
				c0-1.2,0.97-2.17,2.16-2.17h70.19c1.2,0,2.16,0.97,2.16,2.17V84.7C100,85.9,99.03,86.87,97.84,86.87z"/>
		</g>
	</g>
	<g>
		<path class="st1" d="M78.48,8.14h-53v4.99h53c0.56,0,1.01,0.45,1.01,1.01v72.72h4.97V14.14C84.46,10.84,81.78,8.14,78.48,8.14z"/>
	</g>
	<g>
		<g>
			<path class="st0" d="M78.48,13.13H21.64L0,35.29v63.7C0,99.55,0.45,100,1.01,100h77.48c0.56,0,1.01-0.45,1.01-1.01V14.14
				C79.49,13.58,79.04,13.13,78.48,13.13z"/>
		</g>
	</g>
	<path class="st1" d="M58.83,63.07v-5.99c0-0.62-0.5-1.12-1.11-1.12h-6.06c-0.81,0-1.35-0.84-1.01-1.58l10.47-16.4
		c0.33-0.74-0.2-1.58-1.01-1.58h-9.27c-0.45,0-0.85,0.27-1.02,0.68l-7.71,12.26c-0.38,0.9-1.66,0.9-2.04,0l-7.71-12.26
		c-0.17-0.41-0.58-0.68-1.02-0.68H21.4c-0.8,0-1.34,0.83-1.02,1.56l10.2,16.43c0.32,0.74-0.22,1.56-1.02,1.56h-6.11
		c-0.61,0-1.11,0.5-1.11,1.12v5.99c0,0.62,0.5,1.12,1.11,1.12h12.49v3.7H23.45c-0.61,0-1.11,0.5-1.11,1.12v5.99
		c0,0.62,0.5,1.12,1.11,1.12h11.37c0.61,0,1.11,0.5,1.11,1.12v5.53c0,0.62,0.5,1.12,1.11,1.12h7.41c0.61,0,1.11-0.5,1.11-1.12v-5.53
		c0-0.62,0.5-1.12,1.11-1.12h11.04c0.61,0,1.11-0.5,1.11-1.12V69c0-0.62-0.5-1.12-1.11-1.12H45.57v-3.7h12.15
		C58.33,64.19,58.83,63.69,58.83,63.07z"/>
	<g>
		<path class="st2" d="M21.64,13.13v20.53c0,0.9-0.73,1.63-1.62,1.63H0L21.64,13.13z"/>
	</g>
</g>
</svg>
