<svg xmlns="http://www.w3.org/2000/svg" viewBox="0 0 15 15"><defs><style>.a{fill:#fff;}</style></defs><path d="M7.5.5a7,7,0,1,0,7,7A7,7,0,0,0,7.5.5ZM6,10.78H4.69v-5l-1.11,1-.76-.9.08-.06,2-1.63H6Zm5.51-1.23a2.08,2.08,0,0,1-.5.72,2.17,2.17,0,0,1-.75.46,2.72,2.72,0,0,1-.94.16,2.83,2.83,0,0,1-1-.15,2.19,2.19,0,0,1-.75-.45,2,2,0,0,1-.49-.72,2.48,2.48,0,0,1-.17-.95,2.52,2.52,0,0,1,.17-1,5.73,5.73,0,0,1,.44-.85L9.19,4.2h1.55L9.25,6.51h0a2,2,0,0,1,1.8.61,2.08,2.08,0,0,1,.42.68,2.29,2.29,0,0,1,.15.82A2.4,2.4,0,0,1,11.48,9.54Z"/><path d="M10.07,7.84a1.09,1.09,0,0,0-.34-.23,1.06,1.06,0,0,0-.42-.08,1,1,0,0,0-.42.08,1,1,0,0,0-.34.23,1.07,1.07,0,0,0,0,1.51,1,1,0,0,0,.34.23,1.07,1.07,0,0,0,1.17-.23A1.06,1.06,0,0,0,10.29,9a1.09,1.09,0,0,0,0-.83A1.06,1.06,0,0,0,10.07,7.84Z"/><polygon class="a" points="2.9 5.83 2.82 5.89 3.58 6.8 4.69 5.77 4.69 10.78 5.97 10.78 5.97 4.2 4.85 4.2 2.9 5.83"/><path class="a" d="M11.09,7.11a2,2,0,0,0-1.8-.61h0L10.74,4.2H9.19L7.53,6.82a5.73,5.73,0,0,0-.44.85,2.52,2.52,0,0,0-.17,1,2.48,2.48,0,0,0,.17.95,2,2,0,0,0,.49.72,2.19,2.19,0,0,0,.75.45,2.83,2.83,0,0,0,1,.15,2.72,2.72,0,0,0,.94-.16,2.17,2.17,0,0,0,.75-.46,2.08,2.08,0,0,0,.5-.72,2.4,2.4,0,0,0,.18-.94,2.29,2.29,0,0,0-.15-.82A2.08,2.08,0,0,0,11.09,7.11ZM10.29,9a1.06,1.06,0,0,1-.23.34,1.07,1.07,0,0,1-1.17.23,1,1,0,0,1-.34-.23,1.07,1.07,0,0,1,0-1.51,1,1,0,0,1,.34-.23,1,1,0,0,1,.42-.08,1.06,1.06,0,0,1,.42.08,1.09,1.09,0,0,1,.34.23,1.06,1.06,0,0,1,.23.34,1.09,1.09,0,0,1,0,.83Z"/></svg>