<svg xmlns="http://www.w3.org/2000/svg" viewBox="0 0 15 15"><defs><style>.a{fill:#fff;}</style></defs><path d="M7.34,6.77a.75.75,0,0,0,.3-.06.77.77,0,0,0,.25-.17.78.78,0,0,0,.17-.25A.79.79,0,0,0,8.11,6a.75.75,0,0,0-.77-.76.73.73,0,0,0-.57.22.78.78,0,0,0-.2.54.8.8,0,0,0,.21.57A.72.72,0,0,0,7.34,6.77Z"/><path d="M7.5.5a7,7,0,1,0,7,7A7,7,0,0,0,7.5.5ZM9.41,9.74a1.89,1.89,0,0,1-.48.63,2,2,0,0,1-.72.38,3.06,3.06,0,0,1-1.74,0,2,2,0,0,1-.71-.38,1.87,1.87,0,0,1-.48-.63,2,2,0,0,1-.18-.88,1.71,1.71,0,0,1,.77-1.45l.22-.12a1.26,1.26,0,0,1-.53-.48,1.78,1.78,0,0,1-.25-1,1.7,1.7,0,0,1,.16-.76,1.61,1.61,0,0,1,.45-.56,2,2,0,0,1,.65-.34,2.74,2.74,0,0,1,1.58,0,2,2,0,0,1,.65.34,1.62,1.62,0,0,1,.45.56,1.7,1.7,0,0,1,.16.76,1.79,1.79,0,0,1-.25,1,1.26,1.26,0,0,1-.53.48l.22.12a1.72,1.72,0,0,1,.77,1.45A2,2,0,0,1,9.41,9.74Z"/><path d="M8,8.09a.9.9,0,0,0-.31-.19,1.11,1.11,0,0,0-.38-.07A1.1,1.1,0,0,0,7,7.9a.89.89,0,0,0-.31.19.93.93,0,0,0-.21.29.85.85,0,0,0-.08.36.87.87,0,0,0,.27.67,1,1,0,0,0,.7.26A1,1,0,0,0,8,9.4a.87.87,0,0,0,.27-.67.84.84,0,0,0-.08-.36A.91.91,0,0,0,8,8.09Z"/><path class="a" d="M9.22,7.78a1.7,1.7,0,0,0-.4-.36L8.61,7.3a1.26,1.26,0,0,0,.53-.48,1.79,1.79,0,0,0,.25-1,1.7,1.7,0,0,0-.16-.76,1.62,1.62,0,0,0-.45-.56,2,2,0,0,0-.65-.34,2.74,2.74,0,0,0-1.58,0,2,2,0,0,0-.65.34,1.61,1.61,0,0,0-.45.56,1.7,1.7,0,0,0-.16.76,1.78,1.78,0,0,0,.25,1,1.26,1.26,0,0,0,.53.48l-.22.12a1.72,1.72,0,0,0-.77,1.45,2,2,0,0,0,.18.88,1.87,1.87,0,0,0,.48.63,2,2,0,0,0,.71.38,3.06,3.06,0,0,0,1.74,0,2,2,0,0,0,.72-.38,1.89,1.89,0,0,0,.48-.63,2,2,0,0,0,.18-.88,1.73,1.73,0,0,0-.37-1.08ZM6.77,5.43a.73.73,0,0,1,.57-.22A.75.75,0,0,1,8.11,6a.79.79,0,0,1-.06.31.78.78,0,0,1-.17.25.77.77,0,0,1-.25.17.75.75,0,0,1-.3.06.72.72,0,0,1-.56-.22A.8.8,0,0,1,6.57,6,.78.78,0,0,1,6.77,5.43ZM8,9.4a1,1,0,0,1-.7.26,1,1,0,0,1-.7-.26.87.87,0,0,1-.27-.67.85.85,0,0,1,.08-.36.93.93,0,0,1,.21-.29A.89.89,0,0,1,7,7.9a1.1,1.1,0,0,1,.38-.07,1.11,1.11,0,0,1,.38.07A.9.9,0,0,1,8,8.09a.91.91,0,0,1,.21.29.84.84,0,0,1,.08.36A.87.87,0,0,1,8,9.4Z"/></svg>