<svg xmlns="http://www.w3.org/2000/svg" viewBox="0 0 15 15"><defs><style>.a{fill:#fff;}</style></defs><path d="M8.12,7.84a1.06,1.06,0,0,0-1.73.34A1.06,1.06,0,0,0,7,9.58a1.1,1.1,0,0,0,.83,0A1.06,1.06,0,0,0,8.35,9a1.07,1.07,0,0,0-.23-1.17Z"/><path d="M7.5.5a7,7,0,1,0,7,7A7,7,0,0,0,7.5.5Zm2,9a2.11,2.11,0,0,1-.5.72,2.18,2.18,0,0,1-.75.46,2.72,2.72,0,0,1-.94.16,2.83,2.83,0,0,1-1-.15,2.19,2.19,0,0,1-.75-.45,2,2,0,0,1-.49-.72A2.48,2.48,0,0,1,5,8.61a2.51,2.51,0,0,1,.17-1,5.8,5.8,0,0,1,.44-.85L7.24,4.2H8.79L7.3,6.51h0a2,2,0,0,1,1.16.14,2,2,0,0,1,.64.46,2.12,2.12,0,0,1,.42.68,2.32,2.32,0,0,1,.15.82A2.4,2.4,0,0,1,9.53,9.54Z"/><path class="a" d="M9.15,7.11a2,2,0,0,0-.64-.46A2,2,0,0,0,7.35,6.5h0L8.79,4.2H7.24L5.58,6.82a5.8,5.8,0,0,0-.44.85,2.51,2.51,0,0,0-.17,1,2.48,2.48,0,0,0,.17.95,2,2,0,0,0,.49.72,2.19,2.19,0,0,0,.75.45,2.83,2.83,0,0,0,1,.15,2.72,2.72,0,0,0,.94-.16A2.18,2.18,0,0,0,9,10.27a2.11,2.11,0,0,0,.5-.72,2.4,2.4,0,0,0,.18-.94,2.32,2.32,0,0,0-.15-.82A2.12,2.12,0,0,0,9.15,7.11ZM8.35,9a1.06,1.06,0,0,1-.56.56,1.1,1.1,0,0,1-.83,0,1.07,1.07,0,0,1-.56-1.4,1.06,1.06,0,0,1,1-.65,1.06,1.06,0,0,1,.75.31A1.08,1.08,0,0,1,8.35,9Z"/></svg>