<svg xmlns="http://www.w3.org/2000/svg" viewBox="0 0 15 15"><defs><style>.a{fill:#fff;}</style></defs><path d="M7.5.5a7,7,0,1,0,7,7A7,7,0,0,0,7.5.5ZM6,10.78H4.68v-5l-1.11,1-.76-.9.08-.06,2-1.63H6ZM11.52,9.6v1.17H7.05V9.49L9.56,7.07l.22-.23A2.05,2.05,0,0,0,10,6.6a1.5,1.5,0,0,0,.15-.27.7.7,0,0,0,.05-.27.68.68,0,0,0-.07-.31.72.72,0,0,0-.18-.23.81.81,0,0,0-.26-.15,1,1,0,0,0-.32-.05.86.86,0,0,0-.6.21.89.89,0,0,0-.28.57v.09L7.13,6.09V6a2.15,2.15,0,0,1,.22-.82,1.85,1.85,0,0,1,.48-.59,2.08,2.08,0,0,1,.68-.36,3,3,0,0,1,1.67,0,2.06,2.06,0,0,1,.69.35,1.67,1.67,0,0,1,.47.6,2,2,0,0,1,.17.84,2,2,0,0,1-.29,1.09A4.19,4.19,0,0,1,10.5,8L8.72,9.6Z"/><polygon class="a" points="2.89 5.83 2.81 5.89 3.58 6.8 4.68 5.78 4.68 10.78 5.96 10.78 5.96 4.2 4.85 4.2 2.89 5.83"/><path class="a" d="M11.23,7.1A2,2,0,0,0,11.52,6a2,2,0,0,0-.17-.84,1.67,1.67,0,0,0-.47-.6,2.06,2.06,0,0,0-.69-.35,3,3,0,0,0-1.67,0,2.08,2.08,0,0,0-.68.36,1.85,1.85,0,0,0-.48.59A2.15,2.15,0,0,0,7.14,6v.1l1.33.11V6.1a.89.89,0,0,1,.28-.57.86.86,0,0,1,.6-.21,1,1,0,0,1,.32.05.81.81,0,0,1,.26.15.72.72,0,0,1,.18.23.68.68,0,0,1,.07.31.7.7,0,0,1-.05.27A1.5,1.5,0,0,1,10,6.6a2.05,2.05,0,0,1-.2.24l-.22.23L7.05,9.49v1.29h4.47V9.6H8.72L10.5,8A4.19,4.19,0,0,0,11.23,7.1Z"/></svg>