<svg xmlns="http://www.w3.org/2000/svg" viewBox="0 0 15 15"><defs><style>.a{fill:#fff;}</style></defs><path d="M7.5.5a7,7,0,1,0,7,7A7,7,0,0,0,7.5.5ZM9.57,9.6v1.17H5.11V9.49l2.5-2.42.22-.23A2.05,2.05,0,0,0,8,6.59a1.4,1.4,0,0,0,.15-.27.69.69,0,0,0,.05-.27.68.68,0,0,0-.07-.31A.72.72,0,0,0,8,5.52a.78.78,0,0,0-.26-.15,1,1,0,0,0-.32-.05.86.86,0,0,0-.6.21.89.89,0,0,0-.28.57v.09L5.19,6.08V6a2.15,2.15,0,0,1,.22-.82,1.86,1.86,0,0,1,.48-.59,2.06,2.06,0,0,1,.68-.36,3,3,0,0,1,1.67,0,2.06,2.06,0,0,1,.69.35,1.65,1.65,0,0,1,.47.6A2,2,0,0,1,9.57,6a2,2,0,0,1-.29,1.09,4.19,4.19,0,0,1-.72.85L6.78,9.6Z"/><path class="a" d="M9.28,7.09A2,2,0,0,0,9.57,6a2,2,0,0,0-.17-.84,1.65,1.65,0,0,0-.47-.6,2.06,2.06,0,0,0-.69-.35,3,3,0,0,0-1.67,0,2.06,2.06,0,0,0-.68.36,1.86,1.86,0,0,0-.48.59A2.15,2.15,0,0,0,5.2,6v.1l1.33.11V6.1a.89.89,0,0,1,.28-.57.86.86,0,0,1,.6-.21,1,1,0,0,1,.32.05A.78.78,0,0,1,8,5.52a.72.72,0,0,1,.18.23.68.68,0,0,1,.07.31.69.69,0,0,1-.05.27A1.4,1.4,0,0,1,8,6.59a2.05,2.05,0,0,1-.2.24l-.22.23L5.11,9.49v1.29H9.57V9.6H6.78L8.56,7.95A4.19,4.19,0,0,0,9.28,7.09Z"/></svg>