<svg xmlns="http://www.w3.org/2000/svg" viewBox="0 0 30 30"><defs><style>.cls-1{fill:#8fc31f;}.cls-2{fill:#fff;}</style></defs><rect class="cls-1" width="30" height="30" rx="5" ry="5"/><path class="cls-2" d="M16.51,18.66a2,2,0,0,1-.64.42,2.08,2.08,0,0,1-.82.14,2,2,0,0,1-1.23-.36,2.05,2.05,0,0,1-.72-.95v-.18l-2.68.73v.2A4,4,0,0,0,12,21a4.73,4.73,0,0,0,2.73.76,5.25,5.25,0,0,0,1.89-.32,4.43,4.43,0,0,0,1.55-.92,4.08,4.08,0,0,0,1-1.47,5.29,5.29,0,0,0,0-3.76,4.43,4.43,0,0,0-.89-1.37,4,4,0,0,0-1.42-.9,5.57,5.57,0,0,0-2.56-.28h-.42v-2h5.23V8.26H11.49l-.14,7.44.3-.14a5.81,5.81,0,0,1,1.23-.44,5.34,5.34,0,0,1,2.45,0,2.52,2.52,0,0,1,.88.4,2.08,2.08,0,0,1,.61.71,2.32,2.32,0,0,1,.22,1,2.25,2.25,0,0,1-.14.78A1.87,1.87,0,0,1,16.51,18.66Z"/></svg>