<svg xmlns="http://www.w3.org/2000/svg" viewBox="0 0 30 30"><defs><style>.cls-1{fill:#47a20a;}.cls-2{fill:#fff;}</style></defs><rect class="cls-1" width="30" height="30" rx="5" ry="5"/><path class="cls-2" d="M18.65,14.08a4,4,0,0,0-3.6-1.22h0l2.88-4.6h-3.1L11.51,13.5a10.89,10.89,0,0,0-.87,1.7,4.85,4.85,0,0,0-.34,2,4.77,4.77,0,0,0,.34,1.9,4,4,0,0,0,1,1.43,4.35,4.35,0,0,0,1.5.9,5.68,5.68,0,0,0,2,.3A5.24,5.24,0,0,0,17,21.41a4.13,4.13,0,0,0,1.36-1,4.2,4.2,0,0,0,1-1.43,5.07,5.07,0,0,0,.36-1.88,4.58,4.58,0,0,0-.3-1.64A4.33,4.33,0,0,0,18.65,14.08Zm-1.6,3.78A2.15,2.15,0,0,1,15.93,19a2.27,2.27,0,0,1-1.66,0,2.14,2.14,0,0,1,.88-4.1,2.12,2.12,0,0,1,1.5.62A2.16,2.16,0,0,1,17.05,17.86Z"/></svg>