<svg xmlns="http://www.w3.org/2000/svg" viewBox="0 0 15 15"><defs><style>.a{fill:#fff;}</style></defs><path d="M7.5.51a7,7,0,1,0,7,7A7,7,0,0,0,7.5.51ZM6.17,10.79H4.89v-5l-1.11,1L3,5.9l.08-.06,2-1.63H6.17Zm5.51-3.46a5.8,5.8,0,0,1-.44.85L9.59,10.79H8l1.5-2.31h0a2,2,0,0,1-1.8-.61,2.09,2.09,0,0,1-.42-.68,2.31,2.31,0,0,1-.15-.82,2.4,2.4,0,0,1,.18-.94,2.1,2.1,0,0,1,.5-.72,2.2,2.2,0,0,1,.75-.46,2.93,2.93,0,0,1,1.89,0,2.18,2.18,0,0,1,.75.45,2,2,0,0,1,.49.72,2.49,2.49,0,0,1,.17.95A2.52,2.52,0,0,1,11.68,7.33Z"/><path d="M10.21,5.64a1.06,1.06,0,0,0-.34-.23,1.09,1.09,0,0,0-.83,0,1.06,1.06,0,0,0-.34,1.73A1,1,0,0,0,9,7.37a1.1,1.1,0,0,0,.83,0,1.06,1.06,0,0,0,.56-.56,1.07,1.07,0,0,0-.23-1.17Z"/><polygon class="a" points="3.1 5.84 3.02 5.9 3.78 6.81 4.89 5.79 4.89 10.79 6.17 10.79 6.17 4.21 5.05 4.21 3.1 5.84"/><path class="a" d="M11.19,4.71a2.18,2.18,0,0,0-.75-.45,2.93,2.93,0,0,0-1.89,0,2.2,2.2,0,0,0-.75.46,2.1,2.1,0,0,0-.5.72,2.4,2.4,0,0,0-.18.94,2.31,2.31,0,0,0,.15.82,2.09,2.09,0,0,0,.42.68,2,2,0,0,0,1.8.61h0L8,10.79H9.59l1.66-2.61a5.8,5.8,0,0,0,.44-.85,2.52,2.52,0,0,0,.17-1,2.49,2.49,0,0,0-.17-.95A2,2,0,0,0,11.19,4.71Zm-.75,2.1a1.06,1.06,0,0,1-.56.56,1.1,1.1,0,0,1-.83,0,1,1,0,0,1-.34-.23,1.06,1.06,0,0,1-.23-.34A1.06,1.06,0,0,1,9,5.41a1.07,1.07,0,0,1,1.17.23,1.08,1.08,0,0,1,.23,1.17Z"/></svg>