<svg xmlns="http://www.w3.org/2000/svg" viewBox="0 0 30 30"><defs><style>.cls-1{fill:#3a3a3a;}.cls-2{fill:#fff;}</style></defs><rect class="cls-1" width="30" height="30" rx="5" ry="5"/><path class="cls-2" d="M18.89,14.31a4,4,0,0,0,.58-2.19,4,4,0,0,0-.34-1.68,3.35,3.35,0,0,0-.94-1.2,4.36,4.36,0,0,0-1.39-.71,6.11,6.11,0,0,0-3.34,0,4.21,4.21,0,0,0-1.37.73,3.67,3.67,0,0,0-1,1.18,4.25,4.25,0,0,0-.42,1.68v.2l2.67.22v-.22a1.8,1.8,0,0,1,.56-1.14,1.7,1.7,0,0,1,1.2-.42,2,2,0,0,1,.64.1,1.44,1.44,0,0,1,.54.3,1.34,1.34,0,0,1,.36.46,1.47,1.47,0,0,1,0,1.16,2.25,2.25,0,0,1-.4.52,3.72,3.72,0,0,1-.4.49l-.44.46-5,4.87V21.7h8.94V19.34H13.88L17.44,16A8.49,8.49,0,0,0,18.89,14.31Z"/></svg>