<svg xmlns="http://www.w3.org/2000/svg" viewBox="0 0 15 15"><defs><style>.a{fill:#fff;}</style></defs><path d="M10.23,6.09a1.51,1.51,0,0,0-.35-.56.89.89,0,0,0-1.16,0,1.51,1.51,0,0,0-.35.56,3.06,3.06,0,0,0-.16.72,6.53,6.53,0,0,0,0,.68,6.51,6.51,0,0,0,0,.68,3,3,0,0,0,.16.72,1.51,1.51,0,0,0,.35.56.89.89,0,0,0,1.16,0,1.51,1.51,0,0,0,.35-.56,3.12,3.12,0,0,0,.16-.72c0-.26,0-.49,0-.68s0-.42,0-.68A3.09,3.09,0,0,0,10.23,6.09Z"/><path d="M7.5.5a7,7,0,1,0,7,7A7,7,0,0,0,7.5.5ZM6,10.78H4.71v-5L3.6,6.8l-.76-.9.08-.06,2-1.63H6Zm5.6-2a3.62,3.62,0,0,1-.33.93,2.25,2.25,0,0,1-.47.61,2,2,0,0,1-.53.35,2.07,2.07,0,0,1-.52.16,3,3,0,0,1-.43,0,3,3,0,0,1-.43,0,2.05,2.05,0,0,1-.52-.16,2,2,0,0,1-.53-.35,2.25,2.25,0,0,1-.47-.61A3.64,3.64,0,0,1,7,8.8,6.08,6.08,0,0,1,6.9,7.49,6.08,6.08,0,0,1,7,6.18a3.66,3.66,0,0,1,.33-.93,2.25,2.25,0,0,1,.47-.61,2,2,0,0,1,1.05-.51,3,3,0,0,1,.43,0,3,3,0,0,1,.43,0,2,2,0,0,1,1.05.51,2.25,2.25,0,0,1,.47.61,3.65,3.65,0,0,1,.33.93,6,6,0,0,1,.12,1.31A6,6,0,0,1,11.59,8.8Z"/><polygon class="a" points="2.92 5.83 2.84 5.89 3.6 6.8 4.71 5.77 4.71 10.78 5.99 10.78 5.99 4.2 4.87 4.2 2.92 5.83"/><path class="a" d="M11.26,5.25a2.25,2.25,0,0,0-.47-.61,2,2,0,0,0-1.05-.51,3,3,0,0,0-.43,0,3,3,0,0,0-.43,0,2,2,0,0,0-1.05.51,2.25,2.25,0,0,0-.47.61A3.66,3.66,0,0,0,7,6.18,6.08,6.08,0,0,0,6.9,7.49,6.08,6.08,0,0,0,7,8.8a3.64,3.64,0,0,0,.33.93,2.25,2.25,0,0,0,.47.61,2,2,0,0,0,.53.35,2.05,2.05,0,0,0,.52.16,3,3,0,0,0,.43,0,3,3,0,0,0,.43,0,2.07,2.07,0,0,0,.52-.16,2,2,0,0,0,.53-.35,2.25,2.25,0,0,0,.47-.61,3.62,3.62,0,0,0,.33-.93,6,6,0,0,0,.12-1.31,6,6,0,0,0-.12-1.31A3.65,3.65,0,0,0,11.26,5.25Zm-.87,2.92a3.12,3.12,0,0,1-.16.72,1.51,1.51,0,0,1-.35.56.89.89,0,0,1-1.16,0,1.51,1.51,0,0,1-.35-.56,3,3,0,0,1-.16-.72,6.51,6.51,0,0,1,0-.68,6.53,6.53,0,0,1,0-.68,3.06,3.06,0,0,1,.16-.72,1.51,1.51,0,0,1,.35-.56.89.89,0,0,1,1.16,0,1.51,1.51,0,0,1,.35.56,3.09,3.09,0,0,1,.16.72c0,.26,0,.49,0,.68S10.42,7.91,10.39,8.17Z"/></svg>