<svg xmlns="http://www.w3.org/2000/svg" viewBox="0 0 15 15"><defs><style>.a{fill:#fff;}</style></defs><path d="M10.08,8.1a.9.9,0,0,0-.31-.19,1.11,1.11,0,0,0-.38-.07A1.1,1.1,0,0,0,9,7.91a.89.89,0,0,0-.31.19.93.93,0,0,0-.21.29.85.85,0,0,0-.08.36.87.87,0,0,0,.27.67,1.09,1.09,0,0,0,1.4,0,.87.87,0,0,0,.27-.67.84.84,0,0,0-.08-.36A.91.91,0,0,0,10.08,8.1Z"/><path d="M9.39,6.78a.75.75,0,0,0,.3-.06.77.77,0,0,0,.25-.17.78.78,0,0,0,.17-.25A.79.79,0,0,0,10.16,6a.75.75,0,0,0-.77-.76.73.73,0,0,0-.57.22.78.78,0,0,0-.2.54.8.8,0,0,0,.21.57A.72.72,0,0,0,9.39,6.78Z"/><path d="M7.5.51a7,7,0,1,0,7,7A7,7,0,0,0,7.5.51ZM6.07,10.79H4.79v-5l-1.11,1-.76-.9L3,5.84,5,4.21H6.07Zm5.39-1a1.89,1.89,0,0,1-.48.63,2,2,0,0,1-.72.38,3.06,3.06,0,0,1-1.74,0,2,2,0,0,1-.71-.38,1.87,1.87,0,0,1-.48-.63,2,2,0,0,1-.18-.88,1.71,1.71,0,0,1,.77-1.45l.22-.12a1.26,1.26,0,0,1-.53-.48,1.78,1.78,0,0,1-.25-1,1.7,1.7,0,0,1,.16-.76,1.61,1.61,0,0,1,.45-.56,2,2,0,0,1,.65-.34,2.74,2.74,0,0,1,1.58,0,2,2,0,0,1,.65.34,1.62,1.62,0,0,1,.45.56,1.7,1.7,0,0,1,.16.76,1.79,1.79,0,0,1-.25,1,1.27,1.27,0,0,1-.53.48l.22.12a1.72,1.72,0,0,1,.77,1.45A2,2,0,0,1,11.46,9.75Z"/><polygon class="a" points="3 5.84 2.92 5.9 3.68 6.81 4.79 5.79 4.79 10.79 6.07 10.79 6.07 4.21 4.95 4.21 3 5.84"/><path class="a" d="M11.27,7.79a1.7,1.7,0,0,0-.4-.36l-.22-.12a1.27,1.27,0,0,0,.53-.48,1.79,1.79,0,0,0,.25-1,1.7,1.7,0,0,0-.16-.76,1.62,1.62,0,0,0-.45-.56,2,2,0,0,0-.65-.34,2.74,2.74,0,0,0-1.58,0,2,2,0,0,0-.65.34,1.61,1.61,0,0,0-.45.56,1.7,1.7,0,0,0-.16.76,1.78,1.78,0,0,0,.25,1,1.26,1.26,0,0,0,.53.48l-.22.12a1.72,1.72,0,0,0-.77,1.45,2,2,0,0,0,.18.88,1.87,1.87,0,0,0,.48.63,2,2,0,0,0,.71.38,3.06,3.06,0,0,0,1.74,0,2,2,0,0,0,.72-.38,1.89,1.89,0,0,0,.48-.63,2,2,0,0,0,.18-.88,1.73,1.73,0,0,0-.37-1.08ZM8.82,5.44a.73.73,0,0,1,.57-.22.75.75,0,0,1,.77.76.79.79,0,0,1-.06.31.78.78,0,0,1-.17.25.77.77,0,0,1-.25.17.75.75,0,0,1-.3.06.72.72,0,0,1-.56-.22A.8.8,0,0,1,8.61,6,.78.78,0,0,1,8.82,5.44Zm1.27,4a1.09,1.09,0,0,1-1.4,0,.87.87,0,0,1-.27-.67.85.85,0,0,1,.08-.36A.93.93,0,0,1,8.7,8.1.89.89,0,0,1,9,7.91a1.1,1.1,0,0,1,.38-.07,1.11,1.11,0,0,1,.38.07.9.9,0,0,1,.31.19.91.91,0,0,1,.21.29.84.84,0,0,1,.08.36A.87.87,0,0,1,10.09,9.41Z"/></svg>