<svg xmlns="http://www.w3.org/2000/svg" viewBox="0 0 15 15"><style type="text/css">.st0{fill:#47A20A;}.st1{fill:#FFFFFF;}</style><path class="st0" d="M7.5,0.5c-3.866,0-7,3.134-7,7s3.134,7,7,7s7-3.134,7-7S11.366,0.5,7.5,0.5z M9.57,9.6v1.17H5.11V9.49l2.5-2.42l0.22-0.23C7.893,6.761,7.95,6.677,8,6.59c0.06-0.084,0.11-0.175,0.15-0.27C8.185,6.234,8.202,6.142,8.2,6.05c0.001-0.107-0.023-0.214-0.07-0.31C8.1,5.66,8.056,5.585,8,5.52C7.924,5.454,7.836,5.403,7.74,5.37C7.637,5.336,7.529,5.319,7.42,5.32c-0.219-0.009-0.434,0.066-0.6,0.21C6.66,5.679,6.56,5.882,6.54,6.1v0.09L5.19,6.08V6c0.018-0.285,0.093-0.564,0.22-0.82c0.118-0.228,0.281-0.428,0.48-0.59c0.202-0.162,0.433-0.284,0.68-0.36c0.545-0.158,1.125-0.158,1.67,0c0.25,0.072,0.484,0.191,0.69,0.35c0.201,0.161,0.362,0.366,0.47,0.6C9.514,5.438,9.572,5.718,9.57,6c0.01,0.384-0.091,0.762-0.29,1.09c-0.201,0.314-0.443,0.6-0.72,0.85L6.78,9.6H9.57z"/><path class="st1" d="M9.28,7.09C9.479,6.762,9.58,6.384,9.57,6C9.575,5.711,9.517,5.424,9.4,5.16c-0.108-0.234-0.269-0.439-0.47-0.6C8.724,4.401,8.49,4.282,8.24,4.21c-0.545-0.158-1.125-0.158-1.67,0C6.323,4.286,6.092,4.408,5.89,4.57C5.691,4.732,5.528,4.932,5.41,5.16C5.284,5.423,5.212,5.709,5.2,6v0.1l1.33,0.11V6.1c0.02-0.218,0.12-0.421,0.28-0.57c0.166-0.144,0.381-0.219,0.6-0.21c0.109-0.001,0.217,0.016,0.32,0.05C7.829,5.402,7.921,5.453,8,5.52c0.075,0.064,0.136,0.142,0.18,0.23c0.047,0.096,0.071,0.203,0.07,0.31C8.252,6.152,8.235,6.244,8.2,6.33C8.144,6.424,8.077,6.511,8,6.59C7.94,6.675,7.873,6.755,7.8,6.83L7.58,7.06L5.11,9.49v1.29h4.46V9.6H6.78l1.78-1.65C8.837,7.697,9.08,7.408,9.28,7.09z"/></svg>