<svg xmlns="http://www.w3.org/2000/svg" viewBox="0 0 15 15"><defs><style>.a{fill:#fff;}</style></defs><path d="M7.49.5a7,7,0,1,0,7,7A7,7,0,0,0,7.49.5ZM6.06,10.78H4.78v-5l-1.11,1-.76-.9L3,5.83l2-1.63H6.06Zm5.32-1a1.86,1.86,0,0,1-.5.62,2.18,2.18,0,0,1-.72.38,2.85,2.85,0,0,1-.84.13,3.24,3.24,0,0,1-.77-.09,2.22,2.22,0,0,1-.67-.28A1.89,1.89,0,0,1,7.36,10,2.18,2.18,0,0,1,7,9.32l0-.1,1.35-.36,0,.1a1.05,1.05,0,0,0,.32.56.92.92,0,0,0,.62.19,1.05,1.05,0,0,0,.37-.07A1,1,0,0,0,10,9.46a.84.84,0,0,0,.21-.28.86.86,0,0,0,.08-.37.73.73,0,0,0-.41-.71A1.36,1.36,0,0,0,9.46,8a3.42,3.42,0,0,0-.48,0H8.61V6.77H9l.44,0a1.09,1.09,0,0,0,.36-.11A.62.62,0,0,0,10,6.41.76.76,0,0,0,10.13,6a.68.68,0,0,0-.22-.53.82.82,0,0,0-.59-.21.87.87,0,0,0-.52.17,1,1,0,0,0-.34.47l0,.09L7.1,5.63l0-.1a2.07,2.07,0,0,1,.32-.64,1.82,1.82,0,0,1,.5-.45,2.17,2.17,0,0,1,.62-.26,3,3,0,0,1,1.51,0,2.13,2.13,0,0,1,.68.34,1.64,1.64,0,0,1,.65,1.35,1.63,1.63,0,0,1-.31,1,1.41,1.41,0,0,1-.56.46,1.35,1.35,0,0,1,.68.49,1.8,1.8,0,0,1,.33,1.08A1.9,1.9,0,0,1,11.38,9.76Z"/><polygon class="a" points="2.99 5.83 2.91 5.89 3.67 6.8 4.78 5.78 4.78 10.78 6.06 10.78 6.06 4.2 4.94 4.2 2.99 5.83"/><path class="a" d="M10.55,7.33a1.41,1.41,0,0,0,.56-.46,1.63,1.63,0,0,0,.31-1,1.64,1.64,0,0,0-.65-1.35,2.13,2.13,0,0,0-.68-.34,3,3,0,0,0-1.51,0,2.17,2.17,0,0,0-.62.26,1.82,1.82,0,0,0-.5.45,2.07,2.07,0,0,0-.32.64l0,.1L8.43,6l0-.09a1,1,0,0,1,.34-.47.87.87,0,0,1,.52-.17.82.82,0,0,1,.59.21.68.68,0,0,1,.22.53.76.76,0,0,1-.09.41.62.62,0,0,1-.25.23,1.09,1.09,0,0,1-.36.11L9,6.77H8.61V7.94H9a3.42,3.42,0,0,1,.48,0,1.36,1.36,0,0,1,.42.13.73.73,0,0,1,.41.71.86.86,0,0,1-.08.37.84.84,0,0,1-.21.28,1,1,0,0,1-.31.18,1.05,1.05,0,0,1-.37.07.92.92,0,0,1-.62-.19A1.05,1.05,0,0,1,8.38,9l0-.1L7,9.22l0,.1a2.18,2.18,0,0,0,.33.71,1.89,1.89,0,0,0,.52.49,2.22,2.22,0,0,0,.67.28,3.24,3.24,0,0,0,.77.09,2.85,2.85,0,0,0,.84-.13,2.18,2.18,0,0,0,.72-.38,1.86,1.86,0,0,0,.5-.62,1.9,1.9,0,0,0,.18-.85,1.8,1.8,0,0,0-.33-1.08A1.35,1.35,0,0,0,10.55,7.33Z"/></svg>