<svg xmlns="http://www.w3.org/2000/svg" viewBox="0 0 30 30"><defs><style>.cls-1{fill:#47a20a;}.cls-2{fill:#fff;}</style></defs><rect class="cls-1" width="30" height="30" rx="5" ry="5"/><path class="cls-2" d="M18.37,9.34A4.5,4.5,0,0,0,16.8,8.4a6,6,0,0,0-3.94,0,4.52,4.52,0,0,0-1.57,1,4.22,4.22,0,0,0-1,1.5,4.93,4.93,0,0,0-.23,2,4.8,4.8,0,0,0,.31,1.72A4.56,4.56,0,0,0,11.21,16,4.18,4.18,0,0,0,15,17.25h0L11.88,22h3.23l3.46-5.47a11.45,11.45,0,0,0,.92-1.77,5.36,5.36,0,0,0,.36-2.09,5.15,5.15,0,0,0-.36-2A4.06,4.06,0,0,0,18.37,9.34Zm-1.49,4.38a2,2,0,0,1-.48.71,2.17,2.17,0,0,1-.71.48,2.25,2.25,0,0,1-1.73,0,2.41,2.41,0,0,1-.71-.48,2.27,2.27,0,0,1-.46-2.38A2.26,2.26,0,0,1,14,10.86a2.28,2.28,0,0,1,1.74,0,2.41,2.41,0,0,1,.71.48A2.25,2.25,0,0,1,16.88,13.72Z"/></svg>