<svg xmlns="http://www.w3.org/2000/svg" viewBox="0 0 30 30"><defs><style>.cls-1{fill:#47a20a;}.cls-2{fill:#fff;}</style></defs><rect class="cls-1" width="30" height="30" rx="5" ry="5"/><path class="cls-2" d="M17.47,14.67a2.88,2.88,0,0,0,1.11-.91,3.27,3.27,0,0,0,.61-2A3.23,3.23,0,0,0,17.9,9.1a4.3,4.3,0,0,0-1.44-.63,5.87,5.87,0,0,0-3,0A4.21,4.21,0,0,0,12.24,9a3.88,3.88,0,0,0-1,.89,4.43,4.43,0,0,0-.63,1.27v.2l2.68.69v-.17a2,2,0,0,1,.67-.94,1.73,1.73,0,0,1,1-.33,1.66,1.66,0,0,1,1.17.41,1.34,1.34,0,0,1,.49,1,1.46,1.46,0,0,1-.19.82,1.28,1.28,0,0,1-.5.45,2,2,0,0,1-.71.22l-.78,0h-.85v2.32h.72a7.53,7.53,0,0,1,.95,0,2.68,2.68,0,0,1,.83.26,1.44,1.44,0,0,1,.81,1.4,1.7,1.7,0,0,1-.16.74,1.76,1.76,0,0,1-.31.61,2.14,2.14,0,0,1-.62.36,2.25,2.25,0,0,1-.73.14A1.88,1.88,0,0,1,13.88,19a2,2,0,0,1-.71-1v-.2l-2.66.63v.2A4.14,4.14,0,0,0,11.17,20a3.54,3.54,0,0,0,1,1,4.25,4.25,0,0,0,1.32.55,6.1,6.1,0,0,0,1.53.18,5.86,5.86,0,0,0,1.66-.25,4.28,4.28,0,0,0,1.43-.76,3.57,3.57,0,0,0,1.35-2.91,3.57,3.57,0,0,0-.66-2.14A2.61,2.61,0,0,0,17.47,14.67Z"/></svg>