<svg xmlns="http://www.w3.org/2000/svg" viewBox="0 0 15 15"><defs><style>.a{fill:#fff;}</style></defs><polygon points="9.53 8.31 9.53 6.16 8.19 8.31 9.53 8.31"/><path d="M7.49.5a7,7,0,1,0,7,7A7,7,0,0,0,7.49.5ZM6,10.78H4.68v-5l-1.11,1-.76-.9.08-.06,2-1.63H6Zm5.78-1.3h-.93v1.3H9.53V9.48H6.82V8.28L9.43,4.2h1.38v4.1h.93Z"/><polygon class="a" points="2.88 5.83 2.81 5.89 3.57 6.8 4.67 5.78 4.67 10.78 5.96 10.78 5.96 4.2 4.84 4.2 2.88 5.83"/><path class="a" d="M10.81,4.2H9.43L6.82,8.28v1.2H9.53v1.3h1.28V9.48h.93V8.31h-.93ZM9.53,8.31H8.19L9.53,6.16Z"/></svg>