<svg xmlns="http://www.w3.org/2000/svg" viewBox="0 0 15 15"><defs><style>.a{fill:#fff;}</style></defs><path d="M7.5.51a7,7,0,1,0,7,7A7,7,0,0,0,7.5.51Zm-.41,9.1v1.17H2.63V9.5l2.5-2.42.22-.23a2.05,2.05,0,0,0,.2-.24,1.4,1.4,0,0,0,.15-.27.69.69,0,0,0,.05-.27.68.68,0,0,0-.07-.31.72.72,0,0,0-.18-.23.78.78,0,0,0-.26-.15,1,1,0,0,0-.32-.05.86.86,0,0,0-.6.21A.89.89,0,0,0,4,6.11V6.2L2.71,6.1V6a2.15,2.15,0,0,1,.22-.82,1.86,1.86,0,0,1,.48-.59,2.06,2.06,0,0,1,.68-.36,3,3,0,0,1,1.67,0,2.06,2.06,0,0,1,.69.35,1.65,1.65,0,0,1,.47.6A2,2,0,0,1,7.09,6,2,2,0,0,1,6.8,7.11,4.19,4.19,0,0,1,6.08,8L4.29,9.61Zm5.2-.8a3.62,3.62,0,0,1-.33.93,2.25,2.25,0,0,1-.47.61,2,2,0,0,1-.53.35,2.07,2.07,0,0,1-.52.16,3,3,0,0,1-.43,0,3,3,0,0,1-.43,0,2.05,2.05,0,0,1-.52-.16,2,2,0,0,1-.53-.35,2.25,2.25,0,0,1-.47-.61,3.64,3.64,0,0,1-.33-.93A6.08,6.08,0,0,1,7.6,7.5a6.08,6.08,0,0,1,.12-1.31,3.66,3.66,0,0,1,.33-.93,2.25,2.25,0,0,1,.47-.61,2,2,0,0,1,1.05-.51,3,3,0,0,1,.43,0,3,3,0,0,1,.43,0,2,2,0,0,1,1.05.51,2.25,2.25,0,0,1,.47.61,3.65,3.65,0,0,1,.33.93,6,6,0,0,1,.12,1.31A6,6,0,0,1,12.29,8.81Z"/><path d="M10.93,6.1a1.51,1.51,0,0,0-.35-.56.89.89,0,0,0-1.16,0,1.51,1.51,0,0,0-.35.56,3.06,3.06,0,0,0-.16.72,6.53,6.53,0,0,0,0,.68,6.51,6.51,0,0,0,0,.68,3,3,0,0,0,.16.72,1.51,1.51,0,0,0,.35.56.89.89,0,0,0,1.16,0,1.51,1.51,0,0,0,.35-.56,3.12,3.12,0,0,0,.16-.72c0-.26,0-.49,0-.68s0-.42,0-.68A3.09,3.09,0,0,0,10.93,6.1Z"/><path class="a" d="M6.8,7.11A2,2,0,0,0,7.09,6a2,2,0,0,0-.17-.84,1.65,1.65,0,0,0-.47-.6,2.06,2.06,0,0,0-.69-.35,3,3,0,0,0-1.67,0,2.06,2.06,0,0,0-.68.36,1.86,1.86,0,0,0-.48.59A2.15,2.15,0,0,0,2.72,6v.1L4,6.2V6.11a.89.89,0,0,1,.28-.57.86.86,0,0,1,.6-.21,1,1,0,0,1,.32.05.78.78,0,0,1,.26.15.72.72,0,0,1,.18.23.68.68,0,0,1,.07.31.69.69,0,0,1-.05.27,1.4,1.4,0,0,1-.15.27,2.05,2.05,0,0,1-.2.24l-.22.23L2.63,9.5v1.29H7.09V9.61H4.29L6.08,8A4.19,4.19,0,0,0,6.8,7.11Z"/><path class="a" d="M12,5.26a2.25,2.25,0,0,0-.47-.61,2,2,0,0,0-1.05-.51,3,3,0,0,0-.43,0,3,3,0,0,0-.43,0,2,2,0,0,0-1.05.51,2.25,2.25,0,0,0-.47.61,3.66,3.66,0,0,0-.33.93A6.08,6.08,0,0,0,7.6,7.5a6.08,6.08,0,0,0,.12,1.31,3.64,3.64,0,0,0,.33.93,2.25,2.25,0,0,0,.47.61,2,2,0,0,0,.53.35,2.05,2.05,0,0,0,.52.16,3,3,0,0,0,.43,0,3,3,0,0,0,.43,0A2.07,2.07,0,0,0,11,10.7a2,2,0,0,0,.53-.35A2.25,2.25,0,0,0,12,9.74a3.62,3.62,0,0,0,.33-.93,6,6,0,0,0,.12-1.31,6,6,0,0,0-.12-1.31A3.65,3.65,0,0,0,12,5.26Zm-.87,2.92a3.12,3.12,0,0,1-.16.72,1.51,1.51,0,0,1-.35.56.89.89,0,0,1-1.16,0,1.51,1.51,0,0,1-.35-.56,3,3,0,0,1-.16-.72,6.51,6.51,0,0,1,0-.68,6.53,6.53,0,0,1,0-.68,3.06,3.06,0,0,1,.16-.72,1.51,1.51,0,0,1,.35-.56.89.89,0,0,1,1.16,0,1.51,1.51,0,0,1,.35.56,3.09,3.09,0,0,1,.16.72c0,.26,0,.49,0,.68S11.12,7.92,11.09,8.18Z"/></svg>