<svg xmlns="http://www.w3.org/2000/svg" viewBox="0 0 15 15"><style type="text/css">.st0{fill:#47A20A;}.st1{fill:#FFFFFF;}</style><path class="st0" d="M8.07,5.63C7.972,5.532,7.857,5.454,7.73,5.4c-0.266-0.109-0.564-0.109-0.83,0 C6.773,5.454,6.658,5.532,6.56,5.63C6.459,5.736,6.38,5.862,6.33,6C6.162,6.401,6.253,6.863,6.56,7.17 C6.657,7.268,6.773,7.346,6.9,7.4c0.266,0.108,0.564,0.108,0.83,0c0.127-0.054,0.242-0.132,0.34-0.23 c0.416-0.417,0.416-1.093,0-1.51V5.63z"/><path class="st0" d="M7.5,0.5c-3.866,0-7,3.134-7,7s3.134,7,7,7s7-3.134,7-7S11.366,0.5,7.5,0.5z M9.5,7.32 C9.377,7.615,9.23,7.899,9.06,8.17l-1.62,2.61H5.89l1.49-2.31l0,0c-0.664,0.113-1.341-0.116-1.8-0.61 C5.397,7.663,5.255,7.432,5.16,7.18C5.059,6.925,5.005,6.654,5,6.38C4.996,6.058,5.057,5.738,5.18,5.44 c0.114-0.273,0.284-0.518,0.5-0.72c0.216-0.203,0.471-0.359,0.75-0.46c0.613-0.209,1.277-0.209,1.89,0 C8.572,4.363,8.803,4.512,9,4.7c0.214,0.201,0.382,0.447,0.49,0.72c0.118,0.303,0.176,0.625,0.17,0.95 c0.018,0.322-0.026,0.645-0.13,0.95H9.5z"/><path class="st1" d="M9,4.7C8.783,4.501,8.528,4.348,8.25,4.25c-0.613-0.209-1.277-0.209-1.89,0C6.081,4.351,5.826,4.507,5.61,4.71 c-0.216,0.202-0.386,0.447-0.5,0.72C5.01,5.736,4.972,6.059,5,6.38C4.999,6.66,5.05,6.938,5.15,7.2 c0.095,0.252,0.237,0.483,0.42,0.68c0.459,0.494,1.136,0.723,1.8,0.61l0,0l-1.48,2.29h1.55L9.1,8.16 c0.17-0.271,0.317-0.555,0.44-0.85c0.124-0.318,0.182-0.659,0.17-1c0.006-0.325-0.052-0.647-0.17-0.95C9.41,5.104,9.225,4.879,9,4.7 z M8.29,6.8C8.236,6.927,8.158,7.043,8.06,7.14C7.962,7.238,7.847,7.316,7.72,7.37c-0.266,0.108-0.564,0.108-0.83,0 C6.763,7.316,6.647,7.238,6.55,7.14C6.261,6.835,6.175,6.39,6.33,6c0.054-0.127,0.132-0.243,0.23-0.34 C6.658,5.562,6.773,5.484,6.9,5.43c0.266-0.109,0.564-0.109,0.83,0c0.127,0.054,0.242,0.132,0.34,0.23 C8.359,5.965,8.445,6.41,8.29,6.8z"/></svg>
