<svg  xmlns="http://www.w3.org/2000/svg" viewBox="0 0 15 15"><style type="text/css">.st0{fill:#47A20A;}.st1{fill:#FFFFFF;}</style><path class="st0" d="M7.5,0.5c-3.866,0-7,3.134-7,7s3.134,7,7,7s7-3.134,7-7S11.366,0.5,7.5,0.5z M9.34,9.75c-0.12,0.24-0.291,0.452-0.5,0.62c-0.214,0.171-0.458,0.3-0.72,0.38c-0.272,0.085-0.555,0.129-0.84,0.13c-0.259,0.001-0.518-0.029-0.77-0.09c-0.237-0.056-0.464-0.151-0.67-0.28C5.635,10.375,5.459,10.202,5.32,10C5.174,9.791,5.065,9.557,5,9.31v-0.1l1.35-0.36v0.1c0.045,0.216,0.157,0.412,0.32,0.56C6.847,9.646,7.067,9.714,7.29,9.7c0.127-0.001,0.252-0.025,0.37-0.07C7.783,9.596,7.899,9.538,8,9.46c0.089-0.078,0.16-0.173,0.21-0.28c0.054-0.116,0.081-0.242,0.08-0.37C8.312,8.512,8.149,8.23,7.88,8.1C7.734,8.04,7.578,8.006,7.42,8C7.26,7.989,7.1,7.989,6.94,8H6.57V6.77H7h0.44C7.565,6.754,7.687,6.717,7.8,6.66C7.887,6.596,7.956,6.509,8,6.41C8.071,6.286,8.106,6.143,8.1,6c0.008-0.2-0.072-0.394-0.22-0.53C7.719,5.325,7.507,5.249,7.29,5.26C7.103,5.259,6.921,5.319,6.77,5.43C6.613,5.55,6.494,5.713,6.43,5.9L6.4,6L5.06,5.63v-0.1C5.129,5.3,5.237,5.083,5.38,4.89c0.137-0.18,0.307-0.332,0.5-0.45C6.072,4.322,6.281,4.234,6.5,4.18C6.994,4.06,7.51,4.066,8,4.2c0.245,0.072,0.476,0.187,0.68,0.34c0.422,0.319,0.664,0.822,0.65,1.35c0.009,0.358-0.1,0.71-0.31,1c-0.143,0.2-0.336,0.358-0.56,0.46c0.273,0.087,0.511,0.259,0.68,0.49C9.38,8.142,9.517,8.514,9.53,8.9C9.533,9.194,9.468,9.485,9.34,9.75z"/><path class="st1" d="M8.51,7.33c0.224-0.102,0.417-0.26,0.56-0.46c0.21-0.29,0.319-0.642,0.31-1c0.014-0.528-0.228-1.031-0.65-1.35C8.509,4.368,8.261,4.26,8,4.2c-0.495-0.129-1.015-0.129-1.51,0C6.271,4.254,6.062,4.342,5.87,4.46c-0.193,0.118-0.363,0.27-0.5,0.45C5.227,5.103,5.119,5.32,5.05,5.55v0.1L6.4,6V5.91c0.064-0.187,0.183-0.35,0.34-0.47c0.151-0.111,0.333-0.171,0.52-0.17c0.217-0.011,0.429,0.065,0.59,0.21C8.006,5.608,8.098,5.798,8.1,6C8.106,6.143,8.071,6.286,8,6.41C7.94,6.508,7.853,6.588,7.75,6.64C7.637,6.697,7.515,6.734,7.39,6.75L7,6.77H6.57v1.17h0.36c0.16-0.011,0.32-0.011,0.48,0c0.146,0.02,0.288,0.064,0.42,0.13C8.099,8.2,8.262,8.482,8.24,8.78c0.001,0.128-0.026,0.254-0.08,0.37C8.129,9.263,8.074,9.369,8,9.46C7.908,9.538,7.803,9.599,7.69,9.64C7.572,9.685,7.447,9.709,7.32,9.71C7.097,9.724,6.877,9.656,6.7,9.52C6.529,9.388,6.404,9.206,6.34,9V8.9L5,9.22v0.1c0.066,0.255,0.178,0.495,0.33,0.71c0.141,0.195,0.317,0.361,0.52,0.49c0.206,0.129,0.433,0.224,0.67,0.28c0.252,0.061,0.511,0.091,0.77,0.09c0.285-0.001,0.568-0.045,0.84-0.13c0.262-0.08,0.506-0.209,0.72-0.38c0.209-0.168,0.38-0.38,0.5-0.62c0.125-0.266,0.186-0.557,0.18-0.85C9.539,8.524,9.423,8.145,9.2,7.83C9.03,7.593,8.788,7.418,8.51,7.33z"/></svg>