<svg xmlns="http://www.w3.org/2000/svg" viewBox="0 0 15 15"><defs><style>.a{fill:#fff;}</style></defs><path d="M7.5,14.5a7,7,0,1,0-7-7A7,7,0,0,0,7.5,14.5Zm.65-6.35a1,1,0,0,0-.3-.35,1.28,1.28,0,0,0-.44-.2,2.64,2.64,0,0,0-1.22,0,2.79,2.79,0,0,0-.61.22l-.15.07L5.5,4.2H9.32V5.37H6.75l0,1,.21,0a2.78,2.78,0,0,1,1.27.14A2,2,0,0,1,8.91,7a2.09,2.09,0,0,1,.46.7,2.6,2.6,0,0,1,0,1.87,2.09,2.09,0,0,1-.51.73,2.27,2.27,0,0,1-.77.46,2.78,2.78,0,0,1-.94.16,2.38,2.38,0,0,1-1.36-.38A2,2,0,0,1,5,9.35l0-.1L6.27,8.9,6.3,9a1,1,0,0,0,.33.49,1,1,0,0,0,.61.18,1.1,1.1,0,0,0,.41-.07.93.93,0,0,0,.53-.52,1,1,0,0,0,.07-.39A1.13,1.13,0,0,0,8.15,8.14Z"/><path class="a" d="M8,9.37a1,1,0,0,1-.32.21,1.1,1.1,0,0,1-.41.07,1,1,0,0,1-.61-.18A1,1,0,0,1,6.3,9l0-.09-1.33.36,0,.1a2,2,0,0,0,.8,1.15,2.38,2.38,0,0,0,1.36.38,2.78,2.78,0,0,0,.94-.16,2.27,2.27,0,0,0,.77-.46,2.09,2.09,0,0,0,.51-.73,2.6,2.6,0,0,0,0-1.87A2.09,2.09,0,0,0,8.91,7a2,2,0,0,0-.71-.45,2.78,2.78,0,0,0-1.27-.14l-.21,0,0-1H9.32V4.2H5.5L5.43,7.9l.15-.07a2.79,2.79,0,0,1,.61-.22,2.64,2.64,0,0,1,1.22,0,1.28,1.28,0,0,1,.44.2,1,1,0,0,1,.3.35,1.13,1.13,0,0,1,.11.52,1,1,0,0,1-.07.39A1,1,0,0,1,8,9.37Z"/></svg>