<svg xmlns="http://www.w3.org/2000/svg" viewBox="0 0 15 15"><defs><style>.a{fill:#fff;}</style></defs><path d="M7.48.5a7,7,0,1,0,7,7A7,7,0,0,0,7.48.5ZM6,10.78H4.77v-5l-1.11,1-.76-.9L3,5.83l2-1.63H6Zm5.33-1.23a2.09,2.09,0,0,1-.51.73,2.27,2.27,0,0,1-.77.46,2.78,2.78,0,0,1-.94.16,2.38,2.38,0,0,1-1.36-.38A2,2,0,0,1,7,9.35l0-.1L8.3,8.9l0,.09a1,1,0,0,0,.33.49,1,1,0,0,0,.61.18,1.1,1.1,0,0,0,.41-.07.93.93,0,0,0,.53-.52,1,1,0,0,0,.07-.39,1.13,1.13,0,0,0-.11-.52,1,1,0,0,0-.3-.35,1.28,1.28,0,0,0-.44-.2,2.64,2.64,0,0,0-1.22,0,2.79,2.79,0,0,0-.61.22l-.15.07.07-3.7h3.83V5.38H8.78l0,1,.21,0a2.79,2.79,0,0,1,1.27.14,2,2,0,0,1,.71.45,2.09,2.09,0,0,1,.46.7,2.6,2.6,0,0,1,0,1.87Z"/><polygon class="a" points="2.98 5.83 2.9 5.89 3.66 6.8 4.77 5.77 4.77 10.78 6.05 10.78 6.05 4.2 4.93 4.2 2.98 5.83"/><path class="a" d="M10.94,7a2,2,0,0,0-.71-.45A2.79,2.79,0,0,0,9,6.38l-.21,0,0-1h2.57V4.2H7.53L7.46,7.9l.15-.07a2.79,2.79,0,0,1,.61-.22,2.64,2.64,0,0,1,1.22,0,1.28,1.28,0,0,1,.44.2,1,1,0,0,1,.3.35,1.13,1.13,0,0,1,.11.52,1,1,0,0,1-.07.39.93.93,0,0,1-.53.52,1.1,1.1,0,0,1-.41.07,1,1,0,0,1-.61-.18A1,1,0,0,1,8.33,9l0-.09L7,9.26l0,.1a2,2,0,0,0,.8,1.15,2.38,2.38,0,0,0,1.36.38,2.78,2.78,0,0,0,.94-.16,2.27,2.27,0,0,0,.77-.46,2.09,2.09,0,0,0,.51-.73,2.6,2.6,0,0,0,0-1.87A2.09,2.09,0,0,0,10.94,7Z"/></svg>