<svg xmlns="http://www.w3.org/2000/svg" viewBox="0 0 15 15"><style type="text/css">.st0{fill:#47A20A;}.st1{fill:#FFFFFF;}</style><path class="st0" d="M8.12,7.84C7.707,7.425,7.036,7.423,6.621,7.836C6.522,7.934,6.444,8.051,6.39,8.18 C6.166,8.721,6.422,9.341,6.963,9.565C6.975,9.57,6.987,9.575,7,9.58c0.266,0.108,0.564,0.108,0.83,0C8.071,9.46,8.257,9.252,8.35,9 c0.168-0.401,0.077-0.863-0.23-1.17L8.12,7.84z"/><path class="st0" d="M7.5,0.5c-3.866,0-7,3.134-7,7s3.134,7,7,7s7-3.134,7-7S11.366,0.5,7.5,0.5z M9.5,9.5 C9.386,9.772,9.215,10.018,9,10.22c-0.216,0.203-0.471,0.359-0.75,0.46c-0.301,0.108-0.62,0.162-0.94,0.16 c-0.34,0.01-0.678-0.04-1-0.15c-0.278-0.098-0.533-0.251-0.75-0.45c-0.214-0.201-0.382-0.447-0.49-0.72 C4.991,9.224,4.967,8.915,5,8.61c-0.012-0.341,0.046-0.682,0.17-1c0.123-0.295,0.27-0.579,0.44-0.85L7.24,4.2h1.55L7.3,6.51l0,0 c0.392-0.07,0.796-0.021,1.16,0.14C8.702,6.759,8.919,6.916,9.1,7.11c0.182,0.198,0.324,0.429,0.42,0.68 c0.099,0.262,0.15,0.54,0.15,0.82c0.015,0.316-0.032,0.632-0.14,0.93L9.5,9.5z"/><path class="st1" d="M9.15,7.11C8.969,6.916,8.752,6.759,8.51,6.65C8.147,6.486,7.743,6.433,7.35,6.5l0,0l1.44-2.3H7.24L5.58,6.82 C5.41,7.091,5.263,7.375,5.14,7.67c-0.124,0.318-0.182,0.659-0.17,1C4.964,8.995,5.022,9.318,5.14,9.62 c0.108,0.273,0.276,0.519,0.49,0.72c0.217,0.199,0.472,0.352,0.75,0.45c0.322,0.11,0.66,0.16,1,0.15 c0.32,0.002,0.639-0.052,0.94-0.16c0.258-0.124,0.489-0.297,0.68-0.51c0.215-0.202,0.386-0.448,0.5-0.72 c0.123-0.298,0.184-0.618,0.18-0.94c0-0.28-0.051-0.558-0.15-0.82C9.446,7.542,9.318,7.311,9.15,7.11z M8.35,9 C8.243,9.252,8.042,9.453,7.79,9.56c-0.266,0.108-0.564,0.108-0.83,0C6.42,9.326,6.17,8.701,6.4,8.16 c0.168-0.401,0.565-0.659,1-0.65c0.281,0,0.551,0.111,0.75,0.31C8.448,8.137,8.527,8.602,8.35,9z"/></svg>
