<svg xmlns="http://www.w3.org/2000/svg" viewBox="0 0 15 15"><style type="text/css">.st0{fill:#47A20A;}.st1{fill:#FFFFFF;}</style><path class="st0" d="M7.559,6.77c0.103,0.001,0.205-0.02,0.3-0.06c0.094-0.04,0.179-0.097,0.25-0.17 c0.072-0.071,0.13-0.156,0.17-0.25C8.313,6.197,8.33,6.099,8.329,6c0.006-0.414-0.325-0.755-0.74-0.76c-0.01,0-0.02,0-0.03,0 c-0.213-0.014-0.421,0.067-0.57,0.22C6.856,5.608,6.784,5.801,6.789,6c-0.008,0.21,0.068,0.415,0.21,0.57 C7.148,6.714,7.352,6.787,7.559,6.77z"/><path class="st0" d="M7.5,0.5c-3.866,0-7,3.134-7,7s3.134,7,7,7s7-3.134,7-7S11.366,0.5,7.5,0.5z M5.979,10.37 c-0.203-0.173-0.367-0.388-0.48-0.63c-0.126-0.276-0.188-0.577-0.18-0.88c-0.007-0.583,0.283-1.13,0.77-1.45l0.22-0.12c-0.219-0.105-0.403-0.272-0.53-0.48c-0.18-0.301-0.267-0.649-0.25-1c-0.006-0.262,0.049-0.522,0.16-0.76c0.106-0.218,0.26-0.41,0.45-0.56c0.194-0.152,0.414-0.268,0.65-0.34c0.515-0.155,1.065-0.155,1.58,0 c0.236,0.072,0.456,0.188,0.65,0.34c0.19,0.151,0.344,0.342,0.45,0.56c0.111,0.238,0.166,0.498,0.16,0.76 c0.017,0.351-0.07,0.698-0.25,1c-0.127,0.208-0.311,0.375-0.53,0.48l0.22,0.12c0.486,0.322,0.775,0.867,0.77,1.45 c-0.002,0.306-0.074,0.607-0.21,0.88c-0.114,0.242-0.277,0.456-0.48,0.63c-0.211,0.175-0.456,0.304-0.72,0.38 c-0.568,0.168-1.172,0.168-1.74,0C6.429,10.673,6.187,10.544,5.979,10.37z"/><path class="st0" d="M8.219,8.09C8.129,8.006,8.024,7.942,7.909,7.9c-0.122-0.045-0.25-0.069-0.38-0.07 C7.423,7.838,7.318,7.862,7.219,7.9c-0.115,0.041-0.221,0.106-0.31,0.19c-0.088,0.082-0.159,0.181-0.21,0.29 c-0.053,0.113-0.08,0.236-0.08,0.36c-0.011,0.252,0.087,0.496,0.27,0.67c0.191,0.174,0.442,0.267,0.7,0.26 c0.235-0.013,0.458-0.109,0.63-0.27C8.402,9.226,8.5,8.982,8.489,8.73c0-0.124-0.027-0.247-0.08-0.36 C8.363,8.266,8.299,8.171,8.219,8.09z"/> <path class="st1" d="M9.439,7.78c-0.113-0.14-0.248-0.262-0.4-0.36L8.829,7.3c0.219-0.105,0.403-0.272,0.53-0.48 c0.18-0.302,0.267-0.649,0.25-1c0.006-0.262-0.049-0.522-0.16-0.76c-0.106-0.218-0.26-0.409-0.45-0.56 c-0.194-0.152-0.414-0.268-0.65-0.34c-0.515-0.155-1.065-0.155-1.58,0C6.533,4.232,6.313,4.348,6.119,4.5 c-0.19,0.15-0.344,0.342-0.45,0.56c-0.111,0.238-0.166,0.498-0.16,0.76c-0.017,0.351,0.07,0.699,0.25,1 c0.127,0.208,0.311,0.375,0.53,0.48l-0.22,0.12c-0.486,0.322-0.775,0.867-0.77,1.45c-0.007,0.303,0.054,0.604,0.18,0.88 c0.113,0.242,0.277,0.457,0.48,0.63c0.208,0.173,0.45,0.303,0.71,0.38c0.568,0.168,1.172,0.168,1.74,0 c0.264-0.076,0.509-0.205,0.72-0.38c0.203-0.174,0.366-0.388,0.48-0.63c0.126-0.276,0.187-0.577,0.18-0.88 c0.002-0.391-0.128-0.772-0.37-1.08L9.439,7.78z M6.989,5.43c0.149-0.153,0.357-0.234,0.57-0.22C7.973,5.198,8.318,5.525,8.33,5.939 C8.33,5.959,8.33,5.98,8.329,6c0.001,0.106-0.019,0.212-0.06,0.31c-0.04,0.094-0.098,0.179-0.17,0.25 c-0.071,0.073-0.156,0.13-0.25,0.17c-0.095,0.04-0.197,0.061-0.3,0.06c-0.21,0.012-0.414-0.068-0.56-0.22 C6.85,6.413,6.778,6.209,6.789,6C6.776,5.791,6.848,5.585,6.989,5.43z M8.219,9.4c-0.191,0.174-0.442,0.267-0.7,0.26 C7.261,9.667,7.01,9.574,6.819,9.4c-0.183-0.174-0.281-0.418-0.27-0.67c0-0.124,0.027-0.247,0.08-0.36 c0.051-0.109,0.122-0.208,0.21-0.29c0.11-0.089,0.241-0.151,0.38-0.18c0.122-0.046,0.25-0.069,0.38-0.07 c0.13,0.001,0.258,0.025,0.38,0.07c0.09,0.049,0.171,0.113,0.24,0.19c0.089,0.082,0.16,0.18,0.21,0.29 c0.053,0.113,0.08,0.236,0.08,0.36C8.512,8.992,8.406,9.232,8.219,9.4z"/></svg>
