<svg xmlns="http://www.w3.org/2000/svg" viewBox="0 0 15 15"><style type="text/css">.st0{fill:#47A20A;}.st1{fill:#FFFFFF;}</style><path class="st0" d="M10.23,6.09c-0.074-0.21-0.193-0.401-0.35-0.56c-0.334-0.287-0.826-0.287-1.16,0 C8.563,5.689,8.444,5.88,8.37,6.09C8.288,6.323,8.234,6.564,8.21,6.81c-0.012,0.227-0.012,0.453,0,0.68 c-0.012,0.227-0.012,0.453,0,0.68c0.024,0.246,0.077,0.487,0.16,0.72C8.444,9.1,8.563,9.291,8.72,9.45 c0.334,0.287,0.826,0.287,1.16,0c0.157-0.159,0.276-0.35,0.35-0.56c0.082-0.233,0.135-0.475,0.16-0.72c0-0.26,0-0.49,0-0.68 s0-0.42,0-0.68C10.366,6.564,10.312,6.323,10.23,6.09z"/><path class="st0" d="M7.5,0.5c-3.866,0-7,3.134-7,7s3.134,7,7,7s7-3.134,7-7S11.366,0.5,7.5,0.5z M6,10.78H4.71v-5L3.6,6.8L2.84,5.9 l0.08-0.06l2-1.63H6V10.78z M11.6,8.78c-0.067,0.324-0.178,0.637-0.33,0.93c-0.12,0.229-0.279,0.435-0.47,0.61 c-0.157,0.144-0.336,0.262-0.53,0.35c-0.166,0.076-0.34,0.13-0.52,0.16c-0.143,0.01-0.287,0.01-0.43,0 c-0.143,0.01-0.287,0.01-0.43,0c-0.18-0.03-0.355-0.084-0.52-0.16c-0.194-0.088-0.373-0.206-0.53-0.35 c-0.191-0.175-0.35-0.381-0.47-0.61C7.206,9.425,7.082,9.119,7,8.8C6.919,8.368,6.886,7.929,6.9,7.49 C6.886,7.051,6.919,6.612,7,6.18c0.068-0.323,0.179-0.636,0.33-0.93C7.45,5.021,7.609,4.815,7.8,4.64 c0.291-0.271,0.657-0.448,1.05-0.51c0.143-0.01,0.287-0.01,0.43,0c0.143-0.01,0.287-0.01,0.43,0c0.393,0.062,0.759,0.239,1.05,0.51 c0.191,0.175,0.35,0.381,0.47,0.61c0.152,0.294,0.263,0.606,0.33,0.93c0.088,0.431,0.128,0.87,0.12,1.31 c0.018,0.439-0.012,0.878-0.09,1.31L11.6,8.78z"/><polygon class="st1" points="2.92,5.83 2.84,5.89 3.6,6.8 4.71,5.77 4.71,10.78 5.99,10.78 5.99,4.2 4.87,4.2 "/><path class="st1" d="M11.26,5.25c-0.12-0.229-0.279-0.435-0.47-0.61c-0.291-0.271-0.657-0.448-1.05-0.51 c-0.143-0.01-0.287-0.01-0.43,0c-0.143-0.01-0.287-0.01-0.43,0C8.487,4.192,8.121,4.369,7.83,4.64C7.639,4.815,7.48,5.021,7.36,5.25 C7.198,5.542,7.077,5.855,7,6.18C6.919,6.612,6.886,7.051,6.9,7.49C6.886,7.929,6.919,8.368,7,8.8 c0.067,0.324,0.178,0.636,0.33,0.93c0.12,0.229,0.279,0.435,0.47,0.61c0.157,0.144,0.336,0.262,0.53,0.35 c0.165,0.076,0.34,0.13,0.52,0.16c0.143,0.01,0.287,0.01,0.43,0c0.143,0.01,0.287,0.01,0.43,0c0.18-0.03,0.354-0.084,0.52-0.16 c0.194-0.088,0.373-0.206,0.53-0.35c0.191-0.175,0.35-0.381,0.47-0.61c0.152-0.293,0.263-0.606,0.33-0.93 c0.088-0.431,0.128-0.87,0.12-1.31c0.008-0.44-0.032-0.879-0.12-1.31C11.502,5.858,11.401,5.545,11.26,5.25z M10.39,8.17 c-0.025,0.245-0.078,0.487-0.16,0.72c-0.074,0.21-0.193,0.401-0.35,0.56c-0.334,0.287-0.826,0.287-1.16,0 C8.563,9.291,8.444,9.1,8.37,8.89C8.287,8.657,8.234,8.416,8.21,8.17c-0.012-0.227-0.012-0.453,0-0.68 c-0.012-0.227-0.012-0.453,0-0.68c0.024-0.246,0.078-0.487,0.16-0.72c0.074-0.21,0.193-0.401,0.35-0.56 c0.334-0.287,0.826-0.287,1.16,0c0.157,0.159,0.276,0.35,0.35,0.56c0.082,0.233,0.136,0.474,0.16,0.72c0,0.26,0,0.49,0,0.68 S10.42,7.91,10.39,8.17z"/></svg>
