<svg xmlns="http://www.w3.org/2000/svg" viewBox="0 0 15 15"><defs><style>.a{fill:#fff;}</style></defs><path d="M8.07,5.63a1.08,1.08,0,0,0-.34-.23,1.09,1.09,0,0,0-.83,0,1.09,1.09,0,0,0-.34.23A1.07,1.07,0,0,0,6.33,6a1.07,1.07,0,0,0,.23,1.17,1.07,1.07,0,0,0,.34.23,1.1,1.1,0,0,0,.83,0,1.08,1.08,0,0,0,.34-.23,1.07,1.07,0,0,0,0-1.51Z"/><path d="M7.5.5a7,7,0,1,0,7,7A7,7,0,0,0,7.5.5Zm2,6.82a5.8,5.8,0,0,1-.44.85L7.44,10.78H5.89L7.38,8.47h0a2,2,0,0,1-1.8-.61,2.08,2.08,0,0,1-.42-.68A2.29,2.29,0,0,1,5,6.38a2.39,2.39,0,0,1,.18-.94,2.08,2.08,0,0,1,.5-.72,2.18,2.18,0,0,1,.75-.46,2.93,2.93,0,0,1,1.89,0A2.18,2.18,0,0,1,9,4.7a2,2,0,0,1,.49.72,2.49,2.49,0,0,1,.17.95A2.52,2.52,0,0,1,9.53,7.32Z"/><path class="a" d="M9,4.7a2.18,2.18,0,0,0-.75-.45,2.93,2.93,0,0,0-1.89,0,2.18,2.18,0,0,0-.75.46,2.08,2.08,0,0,0-.5.72A2.39,2.39,0,0,0,5,6.38a2.29,2.29,0,0,0,.15.82,2.08,2.08,0,0,0,.42.68,2,2,0,0,0,1.8.61h0L5.89,10.78H7.44L9.1,8.16a5.8,5.8,0,0,0,.44-.85,2.52,2.52,0,0,0,.17-1,2.49,2.49,0,0,0-.17-.95A2,2,0,0,0,9,4.7ZM8.29,6.8a1.06,1.06,0,0,1-.23.34,1.08,1.08,0,0,1-.34.23,1.1,1.1,0,0,1-.83,0,1.07,1.07,0,0,1-.34-.23A1.08,1.08,0,0,1,6.33,6a1.07,1.07,0,0,1,.23-.34,1.09,1.09,0,0,1,.34-.23,1.09,1.09,0,0,1,.83,0,1.08,1.08,0,0,1,.34.23A1.08,1.08,0,0,1,8.29,6.8Z"/></svg>