<svg xmlns="http://www.w3.org/2000/svg" viewBox="0 0 15 15"><defs><style>.a{fill:#fff;}</style></defs><path d="M7.5.5a7,7,0,1,0,7,7A7,7,0,0,0,7.5.5Zm.6,11a.93.93,0,0,1-.68.28.94.94,0,0,1-.37-.07,1,1,0,0,1-.31-.19.89.89,0,0,1-.21-.29.85.85,0,0,1-.08-.36.89.89,0,0,1,.28-.66A.93.93,0,0,1,7.43,10a1,1,0,0,1,.67.26.85.85,0,0,1,.29.65A.89.89,0,0,1,8.1,11.55ZM10,6.08a2.24,2.24,0,0,1-.29.55,3.53,3.53,0,0,1-.41.48l-.5.48-.29.28a1.36,1.36,0,0,0-.2.25.94.94,0,0,0-.11.29,1.87,1.87,0,0,0,0,.39v.46H6.71V8.58a2.82,2.82,0,0,1,0-.45,1.1,1.1,0,0,1,.11-.34A1.4,1.4,0,0,1,7,7.51l.31-.33.92-.94a1.05,1.05,0,0,0,.3-.78,1,1,0,0,0-.31-.76,1.07,1.07,0,0,0-.77-.29,1.09,1.09,0,0,0-.83.34,1.37,1.37,0,0,0-.37.83L4.76,5.46a3.12,3.12,0,0,1,.3-1,2.43,2.43,0,0,1,.59-.76A2.54,2.54,0,0,1,6.5,3.2,3.28,3.28,0,0,1,7.56,3a3.13,3.13,0,0,1,1,.16,2.4,2.4,0,0,1,.8.45,2,2,0,0,1,.53.73,2.49,2.49,0,0,1,.19,1A2,2,0,0,1,10,6.08Z"/><path class="a" d="M9.36,3.65a2.4,2.4,0,0,0-.8-.45,3.13,3.13,0,0,0-1-.16A3.28,3.28,0,0,0,6.5,3.2a2.54,2.54,0,0,0-.85.47,2.43,2.43,0,0,0-.59.76,3.12,3.12,0,0,0-.3,1l1.54.12a1.37,1.37,0,0,1,.37-.83,1.09,1.09,0,0,1,.83-.34,1.07,1.07,0,0,1,.77.29,1,1,0,0,1,.31.76,1.05,1.05,0,0,1-.3.78l-.92.94L7,7.51a1.4,1.4,0,0,0-.2.29,1.1,1.1,0,0,0-.11.34,2.82,2.82,0,0,0,0,.45v.66H8.15V8.79a1.87,1.87,0,0,1,0-.39.94.94,0,0,1,.11-.29,1.36,1.36,0,0,1,.2-.25l.29-.28.5-.48a3.53,3.53,0,0,0,.41-.48A2.24,2.24,0,0,0,10,6.08a2,2,0,0,0,.11-.7,2.49,2.49,0,0,0-.19-1A2,2,0,0,0,9.36,3.65Z"/><path class="a" d="M7.43,10a.93.93,0,0,0-.68.28.89.89,0,0,0-.28.66.85.85,0,0,0,.08.36.89.89,0,0,0,.21.29,1,1,0,0,0,.31.19.94.94,0,0,0,.37.07.93.93,0,0,0,.68-.28.89.89,0,0,0,.28-.66.85.85,0,0,0-.29-.65A1,1,0,0,0,7.43,10Z"/></svg>