<svg xmlns="http://www.w3.org/2000/svg" viewBox="0 0 15 15"><defs><style>.a{fill:#fff;}</style></defs><path d="M7.5.5a7,7,0,1,0,7,7A7,7,0,0,0,7.5.5ZM6.78,3.25H8.22V9.09H6.78Zm1.4,8.29a.93.93,0,0,1-.68.28,1,1,0,0,1-.37-.07,1,1,0,0,1-.31-.19.89.89,0,0,1-.21-.29.83.83,0,0,1-.08-.36.89.89,0,0,1,.28-.66A.93.93,0,0,1,7.5,10a1,1,0,0,1,.67.26.84.84,0,0,1,.29.65A.89.89,0,0,1,8.18,11.55Z"/><path class="a" d="M7.5,10a.93.93,0,0,0-.68.28.89.89,0,0,0-.28.66.83.83,0,0,0,.08.36.89.89,0,0,0,.21.29,1,1,0,0,0,.31.19,1,1,0,0,0,.37.07.93.93,0,0,0,.68-.28.89.89,0,0,0,.28-.66.84.84,0,0,0-.29-.65A1,1,0,0,0,7.5,10Z"/><rect class="a" x="6.78" y="3.25" width="1.44" height="5.83"/></svg>