<svg xmlns="http://www.w3.org/2000/svg" viewBox="0 0 15 15"><style type="text/css">.st0{fill:#47A20A;}.st1{fill:#FFFFFF;}</style><path class="st0" d="M7.5,14.5c3.866,0,7-3.134,7-7s-3.134-7-7-7s-7,3.134-7,7S3.634,14.5,7.5,14.5z M8.15,8.15 C8.079,8.012,7.976,7.892,7.85,7.8C7.717,7.706,7.568,7.638,7.41,7.6c-0.401-0.095-0.819-0.095-1.22,0 C5.979,7.649,5.774,7.723,5.58,7.82L5.43,7.89L5.5,4.2h3.82v1.17H6.75v1h0.21c0.428-0.053,0.863-0.005,1.27,0.14 C8.489,6.623,8.72,6.79,8.91,7c0.199,0.2,0.355,0.438,0.46,0.7c0.232,0.602,0.232,1.268,0,1.87c-0.116,0.277-0.29,0.526-0.51,0.73 c-0.224,0.203-0.485,0.359-0.77,0.46c-0.302,0.107-0.62,0.161-0.94,0.16c-0.481,0.014-0.956-0.119-1.36-0.38 C5.389,10.254,5.108,9.83,5,9.35v-0.1L6.27,8.9L6.3,9c0.058,0.193,0.173,0.364,0.33,0.49c0.178,0.125,0.392,0.188,0.61,0.18 C7.38,9.673,7.519,9.649,7.65,9.6c0.241-0.092,0.433-0.281,0.53-0.52c0.049-0.124,0.073-0.257,0.07-0.39 c0.013-0.189-0.021-0.378-0.1-0.55V8.15z"/><path class="st1" d="M8,9.37C7.908,9.46,7.799,9.531,7.68,9.58C7.549,9.629,7.41,9.653,7.27,9.65C7.052,9.658,6.838,9.595,6.66,9.47 C6.495,9.353,6.37,9.189,6.3,9V8.91L4.97,9.27v0.1c0.119,0.467,0.403,0.876,0.8,1.15c0.404,0.261,0.879,0.394,1.36,0.38 c0.32,0.001,0.638-0.053,0.94-0.16c0.285-0.101,0.546-0.257,0.77-0.46c0.22-0.204,0.394-0.453,0.51-0.73 c0.232-0.602,0.232-1.268,0-1.87C9.249,7.427,9.1,7.196,8.91,7C8.708,6.801,8.466,6.648,8.2,6.55C7.793,6.405,7.358,6.357,6.93,6.41 H6.72v-1h2.6V4.2H5.5L5.43,7.9l0.15-0.07c0.194-0.097,0.399-0.171,0.61-0.22c0.401-0.095,0.819-0.095,1.22,0 c0.158,0.038,0.307,0.106,0.44,0.2c0.126,0.092,0.229,0.212,0.3,0.35C8.227,8.322,8.265,8.5,8.26,8.68 c0.003,0.133-0.021,0.266-0.07,0.39C8.145,9.181,8.081,9.282,8,9.37z"/></svg>
