<?xml version="1.0" encoding="UTF-8"?>
<svg id="_レイヤー_1" data-name="レイヤー 1" xmlns="http://www.w3.org/2000/svg" viewBox="0 0 140.22 126.93">
  <defs>
    <style>
      .cls-1 {
        fill: #fff;
      }

      .cls-2 {
        fill: #1384c7;
      }
    </style>
  </defs>
  <path class="cls-2" d="m111.75,32.66c.18.37.28.78.28,1.22,0,1.58-1.29,2.87-2.87,2.87s-2.87-1.29-2.87-2.87c0-.6.19-1.16.5-1.62-8.34-.78-18.53-2.23-30.89-4.73C51.51,22.62.04,30.87.04,30.87v56.54s48.13-8.76,103.96,1.75c.78.15,1.55.28,2.31.4,0-.03,0-.07,0-.1,0-.19.02-.37.05-.56.04-.18.1-.36.17-.54.07-.17.15-.33.26-.5.11-.15.23-.3.35-.43,1.07-1.07,3-1.07,4.06,0,.12.13.25.28.35.43.11.16.19.33.27.5.07.17.12.35.16.54.04.19.06.37.06.56s-.02.37-.06.56c-.02.09-.05.18-.08.27,18,1.79,28.24-2.89,28.24-2.89V30.87s-7.24,3.23-28.39,1.8Zm-2.58,48.55c-1.59,0-2.87-1.28-2.87-2.87s1.28-2.87,2.87-2.87,2.87,1.28,2.87,2.87-1.29,2.87-2.87,2.87Zm0-11.11c-1.59,0-2.87-1.28-2.87-2.87s1.28-2.87,2.87-2.87,2.87,1.28,2.87,2.87-1.29,2.87-2.87,2.87Zm0-11.11c-1.59,0-2.87-1.28-2.87-2.87s1.28-2.87,2.87-2.87,2.87,1.28,2.87,2.87-1.29,2.87-2.87,2.87Zm0-11.11c-1.59,0-2.87-1.29-2.87-2.87s1.28-2.87,2.87-2.87,2.87,1.28,2.87,2.87-1.29,2.87-2.87,2.87Z"/>
  <g>
    <path class="cls-1" d="m4.88,52.49c1.54-1.86,3.68-2.54,6.04-2.54,2.58,0,5.2,1.16,6.36,3.58.2.42.36.9.36,1.38,0,1.02-.78,1.44-1.72,1.44-1.2,0-1.42-.56-1.58-1.08-.14-.46-.34-.94-.68-1.28-.72-.74-1.88-.98-2.88-.98-3.28,0-4.3,2.72-4.3,5.56s1.02,5.48,4.24,5.48c.92,0,2.14-.2,2.8-.88.42-.44.62-.92.78-1.5.2-.76.4-1.36,1.72-1.36.92,0,1.66.44,1.66,1.44,0,1.06-.58,2.26-1.24,3.06-1.38,1.68-3.54,2.32-5.66,2.32-5.12,0-7.88-3.66-7.88-8.56,0-2.22.54-4.36,1.98-6.08Z"/>
    <path class="cls-1" d="m33,51.63c2.1,1.74,2.84,4.26,2.84,6.9s-.74,5.2-2.84,6.92c-1.46,1.18-3.26,1.68-5.1,1.68s-3.66-.5-5.1-1.68c-2.12-1.74-2.86-4.26-2.86-6.92s.74-5.16,2.86-6.9c1.44-1.18,3.24-1.68,5.1-1.68s3.64.48,5.1,1.68Zm-8.46,3c-.82,1.12-1.02,2.54-1.02,3.9s.2,2.7,1.02,3.88c.78,1.14,1.98,1.64,3.36,1.64s2.54-.5,3.36-1.64c.82-1.14,1-2.5,1-3.88s-.22-2.72-1-3.86c-.78-1.14-2-1.66-3.36-1.66s-2.58.54-3.36,1.62Z"/>
    <path class="cls-1" d="m42.24,60.61c0,.68.08,1.44.4,2.04.54,1.02,1.76,1.4,2.84,1.4s2.3-.38,2.84-1.4c.32-.6.4-1.36.4-2.04v-9.04c0-1.2.64-1.62,1.78-1.62s1.7.48,1.7,1.62v9.12c0,1.42-.24,2.92-1.12,4.08-1.32,1.76-3.5,2.36-5.6,2.36s-4.3-.62-5.58-2.3c-.9-1.2-1.16-2.68-1.16-4.14v-9.12c0-1.2.64-1.62,1.78-1.62s1.72.48,1.72,1.62v9.04Z"/>
    <path class="cls-1" d="m59.28,65.49c0,1.2-.64,1.64-1.78,1.64s-1.72-.5-1.72-1.64v-12.26c0-2.04.82-2.84,2.84-2.84h3.82c1.16,0,2.54.08,3.54.68,1.62.98,2.44,2.64,2.44,4.52s-.76,3.64-2.32,4.62c-1,.64-2.48.8-3.66.8h-3.16v4.48Zm3-7.5c1.54,0,2.58-.66,2.58-2.32s-1.06-2.26-2.58-2.26h-2.34c-.42,0-.66.24-.66.66v3.92h3Z"/>
    <path class="cls-1" d="m83.74,51.63c2.1,1.74,2.84,4.26,2.84,6.9s-.74,5.2-2.84,6.92c-1.46,1.18-3.26,1.68-5.1,1.68s-3.66-.5-5.1-1.68c-2.12-1.74-2.86-4.26-2.86-6.92s.74-5.16,2.86-6.9c1.44-1.18,3.24-1.68,5.1-1.68s3.64.48,5.1,1.68Zm-8.46,3c-.82,1.12-1.02,2.54-1.02,3.9s.2,2.7,1.02,3.88c.78,1.14,1.98,1.64,3.36,1.64s2.54-.5,3.36-1.64c.82-1.14,1-2.5,1-3.88s-.22-2.72-1-3.86c-.78-1.14-2-1.66-3.36-1.66s-2.58.54-3.36,1.62Z"/>
    <path class="cls-1" d="m92.98,54.73v10.76c0,1.2-.64,1.64-1.78,1.64s-1.72-.5-1.72-1.64v-13.8c0-.5.18-1.06.64-1.32.56-.32,1.44-.42,2.08-.42,1.16,0,1.9.28,2.38,1.38l4.76,10.78s.08.16.12.24v-10.78c0-1.2.64-1.62,1.78-1.62s1.7.48,1.7,1.62v13.82c0,.34-.1.82-.34,1.1-.44.52-1.62.64-2.36.64-1.2,0-1.88-.24-2.38-1.38l-4.88-11.02Z"/>
  </g>
</svg>