<?xml version="1.0" encoding="utf-8"?>
<!-- Generator: Adobe Illustrator 27.6.1, SVG Export Plug-In . SVG Version: 6.00 Build 0)  -->
<svg version="1.1" id="レイヤー_1" xmlns="http://www.w3.org/2000/svg" xmlns:xlink="http://www.w3.org/1999/xlink" x="0px"
	 y="0px" width="861px" height="270.5px" viewBox="0 0 861 270.5" style="enable-background:new 0 0 861 270.5;"
	 xml:space="preserve">
<style type="text/css">
	.st0{fill:#1DA9D0;}
	.st1{fill:#666666;}
	.st2{fill:none;stroke:#E3654D;stroke-width:5;stroke-dasharray:5,5;}
	.st3{fill:none;stroke:#707070;stroke-width:4;stroke-dasharray:5,5;}
	.st4{fill:none;stroke:#707070;stroke-width:5;}
	.st5{fill:none;stroke:#1DA9D0;stroke-width:5;stroke-dasharray:5,5;}
	.st6{enable-background:new    ;}
	.st7{fill:#FFFFFF;}
	.st8{fill:#F5F5F5;}
	.st9{fill:#FF0000;}
	.st10{fill:#3A3A3A;}
	.st11{fill:#E3654D;}
	.st12{fill:#3176D5;}
</style>
<g id="グループ_101" transform="translate(-99 -613.5)">
	<path id="長方形_268" class="st0" d="M193.5,613.5H267c3.3,0,6,2.7,6,6v38c0,3.3-2.7,6-6,6h-73.5c-3.3,0-6-2.7-6-6v-38
		C187.5,616.2,190.2,613.5,193.5,613.5z"/>
	<path id="長方形_269" class="st0" d="M531.7,615h82.6c3.3,0,6,2.7,6,6v37c0,3.3-2.7,6-6,6h-82.6c-3.3,0-6-2.7-6-6v-37
		C525.7,617.7,528.4,615,531.7,615z"/>
	<g id="グループ_17" transform="translate(180 748)">
		<path id="パス_43" class="st1" d="M401.2,0v39l26.6-18.5L401.2,0z"/>
		<rect id="長方形_270" class="st1" width="401.2" height="39"/>
	</g>
	<line id="線_14" class="st2" x1="161.9" y1="698.5" x2="161.9" y2="818.5"/>
	<line id="線_11" class="st3" x1="109.5" y1="698.5" x2="957.1" y2="698.5"/>
	<line id="線_3" class="st4" x1="104.5" y1="698.5" x2="444.5" y2="698.5"/>
	<g id="グループ_13" transform="translate(530 711.5)">
		<line id="線_13" class="st5" x1="85" y1="0.5" x2="85" y2="104.5"/>
		<line id="線_17" class="st5" x1="0" y1="0.5" x2="0" y2="104.5"/>
	</g>
	<g id="グループ_98" transform="translate(701 711.5)">
		<line id="線_13-2" class="st5" x1="85" y1="0.5" x2="85" y2="104.5"/>
		<line id="線_17-2" class="st5" x1="0" y1="0.5" x2="0" y2="104.5"/>
	</g>
	<g class="st6">
		<path class="st7" d="M537.8,630.5v0.1c0,1-0.1,1.8-0.2,2.4c0.4,0.6,0.9,1,1.5,1.3v-4.5h-3v-1.4h7.7v1.4H541v1.5h4.1v1.4H541v2
			c0.7,0.1,1.6,0.1,2.6,0.1l0.4,0l0.4,0l0.4,0h0.4l0.4,0l0.4,0l0.4,0l-0.3,1.6h-1c-1.1,0-2,0-2.6,0c-0.6,0-1.3-0.1-2-0.2
			c-0.7-0.1-1.4-0.3-1.9-0.6c-0.5-0.3-1-0.6-1.3-1.1c-0.5,1-1.3,1.7-2.3,2.2l-1-1.2c0.6-0.4,1.1-0.8,1.4-1.2
			c0.3-0.4,0.5-0.9,0.7-1.4c0.1-0.5,0.2-1.1,0.2-2c0-0.1,0-0.3,0-0.4H537.8z M545.8,629.2h-1.5v-1.5h-8.6v1.5h-1.6v-2.8h4.9v-1.2
			h1.9v1.2h4.9V629.2z"/>
		<path class="st7" d="M550.1,634c-0.3,0.5-0.7,1-1.1,1.5c-0.5,0.5-0.9,0.9-1.3,1.1l-1-1.1c0.8-0.5,1.4-1.2,2-2h-1.6v-1.3h0.9v-4.6
			h-0.7v-1.3h0.7v-1.1h1.6v1.1h2v-1.1h1.6v1.1h0.7v1.3h-0.7v4.6h0.7v1.3h-1.8c0.4,0.6,0.8,1.1,1.4,1.6l-1.1,0.9
			c-0.6-0.5-1.1-1.2-1.7-2.2l0.7-0.4h-1.7L550.1,634z M549.4,627.7v0.8h2v-0.8H549.4z M549.4,629.5v0.9h2v-0.9H549.4z M549.4,632.3
			h2v-0.8h-2V632.3z M558.5,635.5c0,0.3-0.1,0.5-0.3,0.7s-0.5,0.3-0.9,0.3h-1.4l-0.2-1.4h0.9c0.1,0,0.2,0,0.3-0.1
			c0.1-0.1,0.1-0.1,0.1-0.2v-2.6h-1.4c-0.1,1.7-0.6,3.2-1.4,4.5l-1.3-0.9c0.3-0.5,0.5-1,0.7-1.5c0.2-0.5,0.3-1,0.3-1.5
			s0.1-1.1,0.1-1.9v-5.4h4.5V635.5z M556.9,628.2v-1.5h-1.4v1.5H556.9z M556.9,631v-1.7h-1.4v1.7H556.9z"/>
		<path class="st7" d="M562.9,632.6c-0.8,1.1-1.5,1.9-2.2,2.4l-1-1.1c0.5-0.4,1-1,1.6-1.7s1-1.4,1.3-2.1h-2.3v-1.4h2.7v-1.3
			c-0.9,0.1-1.7,0.2-2.3,0.3l-0.3-1.4c0.8,0,1.9-0.2,3.1-0.4s2.1-0.4,2.7-0.6l0.8,1.3c-0.5,0.2-1.3,0.4-2.2,0.5v1.6h2.2v1.4h-2.2v0
			c0.6,0.8,1.4,1.5,2.3,2l-0.9,1.4c-0.4-0.3-0.9-0.7-1.4-1.1v4.4h-1.7V632.6z M568.9,633.8h-1.6v-7.9h1.6V633.8z M571.5,635.3
			c0,0.3-0.1,0.6-0.4,0.9s-0.6,0.4-0.9,0.4h-1.7l-0.3-1.6h1.2c0.3,0,0.5-0.1,0.5-0.4v-9.3h1.7V635.3z"/>
		<path class="st7" d="M582.5,632.8h-2.5v3.8h-1.8v-3.8h-2.5c-0.2,1.5-0.8,2.9-1.7,4l-1.3-0.9c1-1.3,1.4-3,1.4-5.3v-5h10.3v9.6
			c0,0.4-0.2,0.7-0.5,1c-0.3,0.3-0.7,0.4-1.1,0.4h-1.8l-0.3-1.6h1.4c0.3,0,0.4-0.1,0.4-0.3V632.8z M575.9,631.3h2.4v-1.5h-2.4v0.6
			C575.9,630.7,575.9,631,575.9,631.3z M578.2,627h-2.4v1.4h2.4V627z M582.5,628.5V627h-2.5v1.4H582.5z M580.1,631.3h2.5v-1.5h-2.5
			V631.3z"/>
		<path class="st7" d="M589.1,634c-0.3,0.5-0.7,1-1.1,1.5c-0.5,0.5-0.9,0.9-1.3,1.1l-1-1.1c0.8-0.5,1.4-1.2,2-2h-1.6v-1.3h0.9v-4.6
			h-0.7v-1.3h0.7v-1.1h1.6v1.1h2v-1.1h1.6v1.1h0.7v1.3h-0.7v4.6h0.7v1.3h-1.8c0.4,0.6,0.8,1.1,1.4,1.6l-1.1,0.9
			c-0.6-0.5-1.1-1.2-1.7-2.2l0.7-0.4h-1.7L589.1,634z M588.4,627.7v0.8h2v-0.8H588.4z M588.4,629.5v0.9h2v-0.9H588.4z M588.4,632.3
			h2v-0.8h-2V632.3z M597.5,635.5c0,0.3-0.1,0.5-0.3,0.7s-0.5,0.3-0.9,0.3h-1.4l-0.2-1.4h0.9c0.1,0,0.2,0,0.3-0.1
			c0.1-0.1,0.1-0.1,0.1-0.2v-2.6h-1.4c-0.1,1.7-0.6,3.2-1.4,4.5l-1.3-0.9c0.3-0.5,0.5-1,0.7-1.5c0.2-0.5,0.3-1,0.3-1.5
			s0.1-1.1,0.1-1.9v-5.4h4.5V635.5z M595.9,628.2v-1.5h-1.4v1.5H595.9z M595.9,631v-1.7h-1.4v1.7H595.9z"/>
		<path class="st7" d="M604.4,629.9H601v6.8h-1.7v-11.3h5.1V629.9z M602.9,627.3v-0.8H601v0.8H602.9z M602.9,628.9v-0.8H601v0.8
			H602.9z M603.8,635.9v0.3h-1.6v-5.6h5.5v5.3H603.8z M605.9,632.6v-0.9h-2.2v0.9H605.9z M603.8,634.6h2.2v-1h-2.2V634.6z
			 M610.6,635.5c0,0.3-0.1,0.6-0.4,0.8c-0.3,0.2-0.6,0.3-1,0.3H608l-0.2-1.4h0.8c0.1,0,0.2,0,0.3-0.1c0.1-0.1,0.1-0.2,0.1-0.3v-4.9
			h-3.6v-4.5h5.2V635.5z M607,627.3h2v-0.8h-2V627.3z M609,628.1h-2v0.8h2V628.1z"/>
	</g>
	<g class="st6">
		<path class="st7" d="M552.7,652.6l-0.5-1.6c1.7-0.2,2.9-0.6,3.8-1.2c0.8-0.6,1.3-1.5,1.3-2.6c0-1-0.3-1.8-0.9-2.4
			c-0.6-0.6-1.5-0.9-2.5-1c-0.1,2.4-0.5,4.3-1.3,5.8s-1.8,2.2-3,2.2c-0.8,0-1.4-0.4-1.9-1.1c-0.5-0.7-0.7-1.6-0.7-2.5V648
			c0-1.5,0.6-2.8,1.8-3.9s2.7-1.7,4.5-1.8h0.3c1.7,0,3.1,0.4,4.2,1.3c1.1,0.9,1.7,2.1,1.7,3.5c0,1.6-0.6,2.9-1.7,3.8
			C556.4,651.9,554.8,652.4,552.7,652.6z M552,644c-1,0.2-1.8,0.7-2.4,1.5c-0.7,0.8-1,1.6-1,2.6c0,0.5,0.1,0.9,0.2,1.3
			c0.2,0.4,0.4,0.6,0.7,0.6c0.6,0,1.1-0.6,1.6-1.7C551.6,647.1,551.9,645.7,552,644z"/>
		<path class="st7" d="M564.3,651.7c-1.6,0.2-3,0.4-4.3,0.5l-0.2-1.2l0.9-0.1v-4H560v-1.1h12v1.1h-6v5.9h-1.6V651.7z M570.9,645.2
			h-9.8v-3.7h9.8V645.2z M562.4,646.9v0.7h2v-0.7H562.4z M562.4,648.4v0.8h2v-0.8H562.4z M562.4,650.7l2-0.2v-0.7h-2V650.7z
			 M562.8,643h6.4v-0.6h-6.4V643z M569.2,643.7h-6.4v0.6h6.4V643.7z M571.7,647.5c-0.1,1.3-0.5,2.4-1.4,3.2c0.4,0.2,1,0.4,1.9,0.6
			l-0.8,1.3c-0.7-0.1-1.5-0.4-2.3-0.9c-0.8,0.5-1.6,0.8-2.6,1l-0.5-1.1c0.7-0.1,1.3-0.4,2-0.8c-0.7-0.7-1.1-1.4-1.3-2.2h-0.5v-1.1
			H571.7z M569.1,649.9c0.4-0.4,0.7-0.8,0.9-1.3h-1.8C568.4,649.1,568.7,649.5,569.1,649.9z"/>
		<path class="st7" d="M574.6,648.3c-0.1,0.6-0.2,1.3-0.3,2c-0.1,0.7-0.3,1.3-0.4,1.7l-1.1-0.3c0.4-1.4,0.5-2.5,0.6-3.5L574.6,648.3
			z M576.4,652.7h-1.6v-5c-0.8,0.1-1.4,0.1-1.8,0.1l-0.1-1.2c0.3,0,0.6,0,0.9,0c0.3-0.3,0.5-0.7,0.7-1c-0.6-0.6-1.1-1.3-1.7-1.9
			l0.9-1c0,0,0.1,0.1,0.2,0.2c0.4-0.7,0.8-1.3,1-1.9l1.3,0.5c-0.4,0.8-0.9,1.5-1.5,2.3l0.6,0.6c0.6-0.9,1-1.6,1.2-2.1l1.3,0.6
			c-0.6,1.1-1.5,2.2-2.5,3.5c0.4,0,0.8-0.1,1.2-0.1c-0.1-0.5-0.2-0.7-0.3-0.9l1.1-0.3c0.1,0.4,0.4,1.1,0.7,2c1-0.4,1.8-0.8,2.5-1.4
			c-0.3-0.4-0.6-0.7-0.9-1.1c-0.3,0.4-0.7,0.8-1.1,1.2l-1-0.9c0.6-0.6,1.1-1.3,1.6-2c0.4-0.7,0.7-1.4,0.9-1.9l1.6,0.2
			c-0.1,0.3-0.2,0.6-0.3,0.9h3.1l0.4,0.4c-0.4,1.3-1,2.4-1.9,3.3c0.6,0.4,1.4,0.7,2.5,1l-0.8,1.4c-1.1-0.4-2-0.8-2.9-1.4
			c-0.2,0.2-0.5,0.4-0.8,0.5c1.4,0.5,2.5,0.9,3.2,1.3l-0.7,1.4c-0.6-0.4-1.8-0.8-3.4-1.5l0.5-0.9c-0.6,0.3-1.2,0.6-1.9,0.9l-0.5-0.9
			l-1.1,0.3c0-0.1,0-0.2-0.1-0.5c-0.2,0-0.4,0.1-0.5,0.1V652.7z M578.2,650.7l-1.2,0.2c-0.1-0.7-0.2-1.6-0.4-2.6l1.2-0.2
			L578.2,650.7z M584.6,651.3l-0.8,1.4c-0.8-0.4-2.6-1.1-5.1-2.1l0.6-1.4c0.7,0.2,1.6,0.6,2.8,1S584.1,651,584.6,651.3z
			 M581.7,644.9c0.5-0.5,0.8-1,1.1-1.5h-2.2l0,0C580.9,644,581.3,644.5,581.7,644.9z"/>
		<path class="st7" d="M596.6,651.2c0,0.4-0.2,0.7-0.5,1c-0.3,0.3-0.7,0.4-1.2,0.4h-2.1l-0.2-1.7h1.7c0.1,0,0.2,0,0.3-0.1
			c0.1-0.1,0.1-0.2,0.1-0.2v-1.8h-5.4c-0.2,0.8-0.5,1.6-0.9,2.3s-0.9,1.3-1.5,1.8l-1.2-1.1c0.6-0.6,1.1-1.2,1.3-1.8s0.5-1.2,0.6-1.8
			c0.1-0.6,0.1-1.2,0.1-2.1v-4.4h8.9V651.2z M594.7,647.2v-1.4h-5.2c0,0.5,0,1,0,1.4H594.7z M594.7,644.3v-1.3h-5.2v1.3H594.7z"/>
	</g>
	<g class="st6">
		<path d="M588.6,844v-0.8h-0.9v-1.1h5.1v-0.7H588v-2.6h8.5v2.6h-1.6v0.7h2.1v1.1h-2.1v0.8h2.6v1.2h-2.6v1c1.5,0,2.4,0,2.8-0.1
			l-0.3,1.5c-2.8,0-4.7,0-5.6,0l-2,0c-0.4,0-1.1-0.1-1.9-0.2c-0.8-0.3-1.4-0.7-1.8-1.2c-0.8,0.7-1.5,1.3-2.3,1.7l-0.7-1.8
			c0.7-0.2,1.3-0.6,1.8-1.1v-3.8h-1.4v-1.6h3.3v5c0,0.5,0.2,0.9,0.7,1.1c0.4,0.3,1.1,0.4,1.8,0.4s1.9,0,3.5,0v-1h-5.5V844H588.6z
			 M587.1,837.8l-1.9,0.7c-0.3-0.7-0.9-1.8-1.7-3.1l1.7-0.7C585.8,835.5,586.4,836.5,587.1,837.8z M597.2,838.2h-9.8v-1.1h2.3
			l0.2-0.8h-1.6v-1.1h1.9l0.2-0.7l2,0.1l-0.2,0.6h4v1.9h0.9V838.2z M594.5,840.5v-0.8h-4.7v0.8H594.5z M590.5,843.2v0.8h2.3v-0.8
			H590.5z M591.7,837.1h2.7v-0.8h-2.5L591.7,837.1z"/>
		<path d="M600.5,842.7c-0.1,0.7-0.2,1.5-0.4,2.3c-0.2,0.9-0.4,1.5-0.5,2l-1.4-0.3c0.4-1.7,0.7-3,0.7-4.1L600.5,842.7z M602.7,847.8
			h-1.9v-5.7c-1,0.1-1.8,0.1-2.3,0.2l-0.2-1.5c0.3,0,0.7,0,1.1,0c0.2-0.3,0.6-0.7,0.9-1.2c-0.7-0.7-1.4-1.5-2.1-2.2l1.1-1.1
			c0.1,0.1,0.2,0.2,0.3,0.3c0.5-0.8,0.9-1.5,1.2-2.1l1.7,0.6c-0.5,0.9-1.2,1.8-1.8,2.6l0.7,0.7c0.7-1,1.2-1.8,1.5-2.4l1.6,0.7
			c-0.9,1.4-1.9,2.8-3,4.1c0.5,0,1-0.1,1.6-0.1c-0.2-0.6-0.3-0.9-0.4-1.1l1.4-0.4c0.3,0.7,0.6,1.6,1,2.9l-1.5,0.4
			c0-0.1,0-0.3-0.1-0.5c-0.2,0-0.4,0.1-0.7,0.1V847.8z M604.9,845.8l-1.5,0.2c-0.3-1.5-0.5-2.6-0.5-3.2l1.5-0.2L604.9,845.8z
			 M607.1,847.7l-0.2-1.8h1.9c0.4,0,0.7-0.2,0.8-0.6c0.1-0.4,0.2-1.2,0.2-2.3l0-2.2v-3h-3c-0.3,0.8-0.6,1.5-1,2.2l-1.5-0.7
			c0.4-1,0.8-1.9,1-2.6c0.2-0.7,0.4-1.5,0.5-2.2l2,0.2c-0.1,0.6-0.2,1.1-0.4,1.7h4.4c0,0.4,0,0.9,0,1.7c0,3.1,0,5-0.1,5.9
			c0,1.3-0.2,2.1-0.3,2.5c-0.2,0.4-0.4,0.7-0.7,0.9c-0.3,0.2-0.6,0.4-1,0.4C609.5,847.6,608.6,847.7,607.1,847.7z M608.6,843.4
			l-1.8,0.6c-0.5-1.7-1-3-1.5-3.9l1.7-0.6C607.5,840.3,608,841.6,608.6,843.4z"/>
		<path d="M616.2,845.9c-0.4-1-0.7-1.8-1-2.4l1.8-0.5c0.4,0.8,0.8,1.8,1.3,3h1.2v-3h-4.9v-1.6h4.9V840h-2.6v-0.5
			c-0.9,0.6-1.8,1.1-2.7,1.5l-1-1.4c1.2-0.5,2.4-1.3,3.8-2.3c1.3-1,2.2-1.9,2.6-2.7h1.9c0.2,0.4,0.8,0.9,1.6,1.6
			c0.8,0.7,1.6,1.3,2.3,1.8c0.8,0.5,1.6,0.9,2.6,1.2l-1.1,1.6c-0.8-0.3-1.7-0.8-2.6-1.4v0.6h-2.7v1.3h5v1.6h-5v3h1.3
			c0.6-1.3,1-2.2,1.2-2.9l2,0.5c-0.2,0.5-0.6,1.3-1.2,2.4h2.4v1.7h-13.3v-1.6H616.2z M618.2,838.5h4.7c-1-0.8-1.8-1.5-2.3-2.2
			C620,837.1,619.2,837.8,618.2,838.5z"/>
		<path d="M636.6,847.8h-2.1v-7.2c-1.5,1.5-3.2,2.8-5.2,3.9l-1.1-1.5c2.9-1.7,5.1-3.7,6.6-6h-6v-1.7h13.5v1.7h-5.1
			c-0.3,0.5-0.7,1-1,1.5h0.4v1.4l1-1c0.5,0.5,1.3,1.2,2.3,2s2,1.5,3.1,2l-1.3,1.7c-1.8-1.1-3.5-2.4-5-3.9V847.8z"/>
		<path d="M654.9,843.6c-0.3,0.6-0.8,1.2-1.3,1.6c0.9,0.2,2,0.5,3.4,0.9l-1.2,1.6c-0.5-0.2-1.8-0.6-3.9-1.2
			c-1.7,0.7-4.2,1.2-7.5,1.2l-0.4-1.6c2.3-0.1,4.1-0.3,5.3-0.5l-2.8-0.4c-0.3,0-0.5-0.2-0.5-0.5c0-0.1,0-0.1,0.1-0.2
			c0.2-0.3,0.3-0.5,0.5-0.9h-2.9v-1.5h3.7c0.1-0.3,0.3-0.5,0.4-0.8h-3.3v-3.8h3.4v-0.8h-4v-1.5h13.3v1.5H653v0.8h3.5v3.8h-6.7
			c-0.1,0.2-0.2,0.5-0.4,0.8h7.8v1.5H654.9z M647.9,838.7h-1.5v1.1h1.5V838.7z M651.4,844.7c0.5-0.3,0.9-0.7,1.2-1.1h-4
			c-0.1,0.2-0.2,0.4-0.3,0.5L651.4,844.7z M649.7,836.7v0.8h1.5v-0.8H649.7z M651.2,838.7h-1.5v1.1h1.5V838.7z M654.6,839.9v-1.1
			H653v1.1H654.6z"/>
		<path d="M662.1,844.7c-0.3,0.6-0.8,1.2-1.3,1.8c-0.5,0.6-1,1-1.5,1.3l-1.2-1.2c0.9-0.6,1.6-1.4,2.3-2.3h-1.9v-1.5h1v-5.3h-0.8
			v-1.5h0.8v-1.2h1.8v1.2h2.3v-1.2h1.8v1.2h0.8v1.5h-0.8v5.3h0.8v1.5h-2.1c0.4,0.6,1,1.3,1.6,1.8l-1.3,1.1c-0.7-0.5-1.3-1.4-1.9-2.5
			l0.8-0.4h-2L662.1,844.7z M661.3,837.4v1h2.3v-1H661.3z M661.3,839.6v1h2.3v-1H661.3z M661.3,842.7h2.3v-0.9h-2.3V842.7z
			 M671.8,846.5c0,0.3-0.1,0.6-0.4,0.8s-0.6,0.3-1,0.3h-1.6l-0.2-1.6h1c0.1,0,0.2,0,0.3-0.1c0.1-0.1,0.1-0.2,0.1-0.3v-3h-1.6
			c-0.1,2-0.6,3.7-1.6,5.2l-1.5-1c0.3-0.5,0.6-1.1,0.8-1.7c0.2-0.6,0.3-1.2,0.4-1.8c0.1-0.6,0.1-1.3,0.1-2.2v-6.3h5.2V846.5z
			 M670,838v-1.8h-1.6v1.8H670z M670,841.2v-1.9h-1.6v1.9H670z"/>
		<path d="M679.8,840h-4v7.8h-1.9v-13.1h5.9V840z M678,836.9V836h-2.2v0.9H678z M678,838.9v-0.9h-2.2v0.9H678z M679.1,846.9v0.3
			h-1.9v-6.4h6.3v6.1H679.1z M681.6,843.1v-1h-2.5v1H681.6z M679.1,845.4h2.5v-1.1h-2.5V845.4z M687,846.4c0,0.4-0.2,0.7-0.5,1
			c-0.3,0.3-0.7,0.4-1.2,0.4h-1.5l-0.2-1.7h0.9c0.1,0,0.2,0,0.3-0.1c0.1-0.1,0.1-0.2,0.1-0.3V840H681v-5.2h6V846.4z M682.8,836.9
			h2.3V836h-2.3V836.9z M685.1,837.9h-2.3v0.9h2.3V837.9z"/>
		<path d="M692.3,835.4c-0.6,2.2-0.9,4.1-0.9,5.7c0,2.1,0.3,4.1,0.8,6.1l-2,0.5c-0.5-2-0.8-4-0.8-6c0-2.1,0.3-4.3,0.9-6.5
			L692.3,835.4z M701.8,847.1c-1.2,0.1-2.2,0.2-3.1,0.2c-2.1,0-3.6-0.2-4.4-0.7c-0.8-0.5-1.2-1.2-1.2-2.1c0-1.1,0.5-2.1,1.5-3.1
			l1.6,0.9c-0.8,0.7-1.2,1.5-1.2,2.2c0,0.3,0.2,0.6,0.6,0.8c0.4,0.2,1.3,0.3,2.5,0.3c0.7,0,1.8-0.1,3.5-0.2L701.8,847.1z
			 M701.6,837.9l-0.6,0c-0.6,0-1.7,0-3.2,0c-1.5,0-2.9,0.1-4.3,0.2v-1.8c3.3-0.2,5.6-0.2,6.9-0.2c0.5,0,0.9,0,1.3,0V837.9z"/>
		<path d="M710.5,846.4c0,0.4-0.1,0.7-0.4,0.9s-0.6,0.4-0.9,0.4h-1.9l-0.2-1.6h1.3c0.3,0,0.4-0.1,0.4-0.3v-1.6H706
			c-0.2,1.6-0.7,2.9-1.5,3.7l-1.4-0.8c0.3-0.4,0.6-1,0.8-1.8c0.2-0.8,0.4-1.7,0.4-3l0-2.6c-0.1,0.1-0.2,0.2-0.3,0.3l-1-1.3
			c0.5-0.5,1-1.2,1.4-2c0.5-0.8,0.8-1.6,1-2.2l1.9,0.2c-0.1,0.3-0.2,0.5-0.3,0.8h2.6l0.4,0.3c-0.3,0.7-0.7,1.4-1.2,2.2h1.5V846.4z
			 M705.7,838h1.5c0.4-0.6,0.6-1.1,0.7-1.3h-1.4C706.3,837.1,706,837.6,705.7,838z M706.9,839.3h-0.8v1.2h0.8V839.3z M706.1,841.6
			v1.3h0.8v-1.3H706.1z M708.9,840.5v-1.2h-0.8v1.2H708.9z M708.9,842.8v-1.3h-0.8v1.3H708.9z M714.2,836.2
			c-0.3,1.6-1.1,2.8-2.7,3.5l-1-1.2c1-0.6,1.6-1.4,1.8-2.3l-1.5,0v-1.4h6.7v0.4c0,0.9,0,1.6-0.1,2.1c-0.1,0.5-0.1,0.9-0.3,1.1
			c-0.1,0.2-0.3,0.4-0.4,0.5c-0.2,0.1-0.4,0.2-0.6,0.3c-0.2,0.1-0.7,0.1-1.3,0.1c-0.2,0-0.5,0-0.8,0l-0.3-1.5l1.2,0
			c0.3,0,0.5-0.2,0.6-0.4c0.1-0.3,0.1-0.6,0.1-0.9c0-0.1,0-0.2,0-0.3L714.2,836.2z M717.7,845.3h-2.2v2.4h-1.9v-2.4h-2.7v-1.6h2.7
			v-1.3h-0.9c-0.2,0.5-0.4,0.9-0.6,1.1l-1.5-0.4c0.5-0.9,0.9-2.1,1-3.4l1.7,0.1c0,0.4-0.1,0.7-0.1,1h0.5v-1.2h1.9v1.2h2v1.5h-2v1.3
			h2.2V845.3z"/>
		<path d="M720.5,842.7c-0.1,0.7-0.2,1.5-0.4,2.3c-0.2,0.9-0.4,1.5-0.5,2l-1.4-0.3c0.4-1.7,0.7-3,0.7-4.1L720.5,842.7z M722.7,847.8
			h-1.9v-5.7c-1,0.1-1.8,0.1-2.3,0.2l-0.2-1.5c0.3,0,0.7,0,1.1,0c0.2-0.3,0.6-0.7,0.9-1.2c-0.7-0.7-1.4-1.5-2.1-2.2l1.1-1.1
			c0.1,0.1,0.2,0.2,0.3,0.3c0.5-0.8,0.9-1.5,1.2-2.1l1.7,0.6c-0.5,0.9-1.2,1.8-1.8,2.6l0.7,0.7c0.7-1,1.2-1.8,1.5-2.4l1.6,0.7
			c-0.9,1.4-1.9,2.8-3,4.1c0.5,0,1-0.1,1.6-0.1c-0.2-0.6-0.3-0.9-0.4-1.1l1.4-0.4c0.3,0.7,0.6,1.6,1,2.9l-1.5,0.4
			c0-0.1,0-0.3-0.1-0.5c-0.2,0-0.4,0.1-0.7,0.1V847.8z M724.9,845.8l-1.5,0.2c-0.3-1.5-0.5-2.6-0.5-3.2l1.5-0.2L724.9,845.8z
			 M727.1,847.7l-0.2-1.8h1.9c0.4,0,0.7-0.2,0.8-0.6c0.1-0.4,0.2-1.2,0.2-2.3l0-2.2v-3h-3c-0.3,0.8-0.6,1.5-1,2.2l-1.5-0.7
			c0.4-1,0.8-1.9,1-2.6c0.2-0.7,0.4-1.5,0.5-2.2l2,0.2c-0.1,0.6-0.2,1.1-0.4,1.7h4.4c0,0.4,0,0.9,0,1.7c0,3.1,0,5-0.1,5.9
			c0,1.3-0.2,2.1-0.3,2.5c-0.2,0.4-0.4,0.7-0.7,0.9c-0.3,0.2-0.6,0.4-1,0.4C729.5,847.6,728.6,847.7,727.1,847.7z M728.6,843.4
			l-1.8,0.6c-0.5-1.7-1-3-1.5-3.9l1.7-0.6C727.5,840.3,728,841.6,728.6,843.4z"/>
	</g>
	<g class="st6">
		<path d="M619.7,867h-2.3c-0.9-1-1.5-2-1.9-3c-0.5-1.1-0.7-2.4-0.7-3.8c0-2.5,0.9-4.8,2.6-6.8h2.3v0.2c-0.8,0.8-1.5,1.6-2,2.7
			c-0.6,1.2-0.9,2.6-0.9,4c0,1.4,0.3,2.8,0.9,4c0.5,1,1.2,1.9,2,2.7V867z"/>
		<path d="M626.1,863v-0.8h-0.9v-1.1h5.1v-0.7h-4.9v-2.6h8.5v2.6h-1.6v0.7h2.1v1.1h-2.1v0.8h2.6v1.2h-2.6v1c1.5,0,2.4,0,2.8-0.1
			l-0.3,1.5c-2.8,0-4.7,0-5.6,0l-2,0c-0.4,0-1.1-0.1-1.9-0.2c-0.8-0.3-1.4-0.7-1.8-1.2c-0.8,0.7-1.5,1.3-2.3,1.7l-0.7-1.8
			c0.7-0.2,1.3-0.6,1.8-1.1v-3.8H621v-1.6h3.3v5c0,0.5,0.2,0.9,0.7,1.1c0.4,0.3,1.1,0.4,1.8,0.4s1.9,0,3.5,0v-1h-5.5V863H626.1z
			 M624.6,856.8l-1.9,0.7c-0.3-0.7-0.9-1.8-1.7-3.1l1.7-0.7C623.3,854.5,623.9,855.5,624.6,856.8z M634.7,857.2h-9.8v-1.1h2.3
			l0.2-0.8h-1.6v-1.1h1.9l0.2-0.7l2,0.1l-0.2,0.6h4v1.9h0.9V857.2z M632,859.5v-0.8h-4.7v0.8H632z M628,862.2v0.8h2.3v-0.8H628z
			 M629.2,856.1h2.7v-0.8h-2.5L629.2,856.1z"/>
		<path d="M638,861.7c-0.1,0.7-0.2,1.5-0.4,2.3c-0.2,0.9-0.4,1.5-0.5,2l-1.4-0.3c0.4-1.7,0.7-3,0.7-4.1L638,861.7z M640.2,866.8
			h-1.9v-5.7c-1,0.1-1.8,0.1-2.3,0.2l-0.2-1.5c0.3,0,0.7,0,1.1,0c0.2-0.3,0.6-0.7,0.9-1.2c-0.7-0.7-1.4-1.5-2.1-2.2l1.1-1.1
			c0.1,0.1,0.2,0.2,0.3,0.3c0.5-0.8,0.9-1.5,1.2-2.1l1.7,0.6c-0.5,0.9-1.2,1.8-1.8,2.6l0.7,0.7c0.7-1,1.2-1.8,1.5-2.4l1.6,0.7
			c-0.9,1.4-1.9,2.8-3,4.1c0.5,0,1-0.1,1.6-0.1c-0.2-0.6-0.3-0.9-0.4-1.1l1.4-0.4c0.3,0.7,0.6,1.6,1,2.9l-1.5,0.4
			c0-0.1,0-0.3-0.1-0.5c-0.2,0-0.4,0.1-0.7,0.1V866.8z M642.4,864.8l-1.5,0.2c-0.3-1.5-0.5-2.6-0.5-3.2l1.5-0.2L642.4,864.8z
			 M644.6,866.7l-0.2-1.8h1.9c0.4,0,0.7-0.2,0.8-0.6c0.1-0.4,0.2-1.2,0.2-2.3l0-2.2v-3h-3c-0.3,0.8-0.6,1.5-1,2.2l-1.5-0.7
			c0.4-1,0.8-1.9,1-2.6c0.2-0.7,0.4-1.5,0.5-2.2l2,0.2c-0.1,0.6-0.2,1.1-0.4,1.7h4.4c0,0.4,0,0.9,0,1.7c0,3.1,0,5-0.1,5.9
			c0,1.3-0.2,2.1-0.3,2.5c-0.2,0.4-0.4,0.7-0.7,0.9c-0.3,0.2-0.6,0.4-1,0.4C647,866.6,646.1,866.7,644.6,866.7z M646.1,862.4
			l-1.8,0.6c-0.5-1.7-1-3-1.5-3.9l1.7-0.6C645,859.3,645.5,860.6,646.1,862.4z"/>
		<path d="M653.7,864.9c-0.4-1-0.7-1.8-1-2.4l1.8-0.5c0.4,0.8,0.8,1.8,1.3,3h1.2v-3H652v-1.6h4.9V859h-2.6v-0.5
			c-0.9,0.6-1.8,1.1-2.7,1.5l-1-1.4c1.2-0.5,2.4-1.3,3.8-2.3c1.3-1,2.2-1.9,2.6-2.7h1.9c0.2,0.4,0.8,0.9,1.6,1.6
			c0.8,0.7,1.6,1.3,2.3,1.8c0.8,0.5,1.6,0.9,2.6,1.2l-1.1,1.6c-0.8-0.3-1.7-0.8-2.6-1.4v0.6H659v1.3h5v1.6h-5v3h1.3
			c0.6-1.3,1-2.2,1.2-2.9l2,0.5c-0.2,0.5-0.6,1.3-1.2,2.4h2.4v1.7h-13.3v-1.6H653.7z M655.7,857.5h4.7c-1-0.8-1.8-1.5-2.3-2.2
			C657.5,856.1,656.7,856.8,655.7,857.5z"/>
		<path d="M671.1,854c0,0.8-0.1,1.5-0.2,2.1h3.2v1.8h-3.5c-0.5,2.8-1.6,5.3-3.3,7.5l-1.6-1.2c1.3-1.6,2.3-3.7,2.8-6.3h-2.3v-1.8h2.6
			c0.1-0.7,0.1-1.4,0.2-2.2L671.1,854z M680.1,864.5l-1.1,1.6c-1-0.8-1.8-1.4-2.4-1.8c0,0.8-0.3,1.5-0.8,1.9s-1.4,0.6-2.6,0.6
			c-1,0-1.8-0.2-2.4-0.6c-0.6-0.4-1-1-1-1.8c0-0.8,0.3-1.5,1-1.9c0.7-0.5,1.5-0.7,2.5-0.7c0.4,0,0.9,0,1.2,0.1v-3.8h2v4.4
			C677.5,862.8,678.7,863.5,680.1,864.5z M674.5,863.5c-0.4-0.1-0.8-0.1-1.2-0.1c-0.4,0-0.8,0.1-1.2,0.3c-0.3,0.2-0.5,0.4-0.5,0.7
			c0,0.6,0.6,0.9,1.7,0.9c0.8,0,1.2-0.3,1.2-0.9V863.5z M680.2,858.4l-1.6,1.2c-0.5-0.6-1.2-1.3-2.1-2.1s-1.7-1.4-2.2-1.8l1.2-1.4
			c0.7,0.4,1.5,1,2.4,1.8C678.8,856.9,679.6,857.7,680.2,858.4z"/>
		<path d="M694.6,860.5c-0.6,2.2-1.5,3.8-2.6,4.8c-1.1,1-2.6,1.5-4.3,1.5c-0.8,0-1.4-0.1-2-0.3c-0.6-0.2-1-0.5-1.4-0.8
			c-0.4-0.3-0.6-0.7-0.8-1.1c-0.2-0.4-0.3-0.8-0.4-1.3c-0.1-0.4-0.1-1.1-0.1-2.1c0-1,0.1-3.4,0.3-7.2h2.2c-0.2,3.4-0.3,5.7-0.3,7
			c0,1.1,0,1.8,0.1,2c0.1,0.3,0.2,0.6,0.4,0.8c0.2,0.3,0.5,0.5,0.8,0.6c0.4,0.1,0.8,0.2,1.4,0.2c1.2,0,2.2-0.4,3-1.2
			s1.4-2.1,1.9-3.8L694.6,860.5z"/>
		<path d="M701.1,860.2c0,1.4-0.2,2.6-0.7,3.8c-0.4,1-1,2-1.9,3h-2.2v-0.2c0.8-0.8,1.5-1.6,2-2.7c0.6-1.2,0.9-2.6,0.9-4
			c0-1.4-0.3-2.7-0.9-4c-0.5-1-1.2-1.9-2-2.7v-0.2h2.2C700.3,855.4,701.1,857.7,701.1,860.2z"/>
	</g>
	<g class="st6">
		<path d="M836.7,836v-0.8h-0.9v-1.1h5.1v-0.7h-4.9v-2.6h8.5v2.6H843v0.7h2.1v1.1H843v0.8h2.6v1.2H843v1c1.5,0,2.4,0,2.8-0.1
			l-0.3,1.5c-2.8,0-4.7,0-5.6,0l-2,0c-0.4,0-1.1-0.1-1.9-0.2c-0.8-0.3-1.4-0.7-1.8-1.2c-0.8,0.7-1.5,1.3-2.3,1.7l-0.7-1.8
			c0.7-0.2,1.3-0.6,1.8-1.1v-3.8h-1.4v-1.6h3.3v5c0,0.5,0.2,0.9,0.7,1.1c0.4,0.3,1.1,0.4,1.8,0.4s1.9,0,3.5,0v-1h-5.5V836H836.7z
			 M835.2,829.8l-1.9,0.7c-0.3-0.7-0.9-1.8-1.7-3.1l1.7-0.7C833.9,827.5,834.5,828.5,835.2,829.8z M845.3,830.2h-9.8v-1.1h2.3
			l0.2-0.8h-1.6v-1.1h1.9l0.2-0.7l2,0.1l-0.2,0.6h4v1.9h0.9V830.2z M842.6,832.5v-0.8h-4.7v0.8H842.6z M838.6,835.2v0.8h2.3v-0.8
			H838.6z M839.8,829.1h2.7v-0.8H840L839.8,829.1z"/>
		<path d="M848.6,834.7c-0.1,0.7-0.2,1.5-0.4,2.3c-0.2,0.9-0.4,1.5-0.5,2l-1.4-0.3c0.4-1.7,0.7-3,0.7-4.1L848.6,834.7z M850.8,839.8
			H849v-5.7c-1,0.1-1.8,0.1-2.3,0.2l-0.2-1.5c0.3,0,0.7,0,1.1,0c0.2-0.3,0.6-0.7,0.9-1.2c-0.7-0.7-1.4-1.5-2.1-2.2l1.1-1.1
			c0.1,0.1,0.2,0.2,0.3,0.3c0.5-0.8,0.9-1.5,1.2-2.1l1.7,0.6c-0.5,0.9-1.2,1.8-1.8,2.6l0.7,0.7c0.7-1,1.2-1.8,1.5-2.4l1.6,0.7
			c-0.9,1.4-1.9,2.8-3,4.1c0.5,0,1-0.1,1.6-0.1c-0.2-0.6-0.3-0.9-0.4-1.1l1.4-0.4c0.3,0.7,0.6,1.6,1,2.9l-1.5,0.4
			c0-0.1,0-0.3-0.1-0.5c-0.2,0-0.4,0.1-0.7,0.1V839.8z M853,837.8l-1.5,0.2c-0.3-1.5-0.5-2.6-0.5-3.2l1.5-0.2L853,837.8z
			 M855.2,839.7l-0.2-1.8h1.9c0.4,0,0.7-0.2,0.8-0.6c0.1-0.4,0.2-1.2,0.2-2.3l0-2.2v-3h-3c-0.3,0.8-0.6,1.5-1,2.2l-1.5-0.7
			c0.4-1,0.8-1.9,1-2.6s0.4-1.5,0.5-2.2l2,0.2c-0.1,0.6-0.2,1.1-0.4,1.7h4.4c0,0.4,0,0.9,0,1.7c0,3.1,0,5-0.1,5.9
			c0,1.3-0.2,2.1-0.3,2.5c-0.2,0.4-0.4,0.7-0.7,0.9c-0.3,0.2-0.6,0.4-1,0.4C857.6,839.6,856.7,839.7,855.2,839.7z M856.7,835.4
			l-1.8,0.6c-0.5-1.7-1-3-1.5-3.9l1.7-0.6C855.6,832.3,856.1,833.6,856.7,835.4z"/>
		<path d="M864.3,837.9c-0.4-1-0.7-1.8-1-2.4l1.8-0.5c0.4,0.8,0.8,1.8,1.3,3h1.2v-3h-4.9v-1.6h4.9V832h-2.6v-0.5
			c-0.9,0.6-1.8,1.1-2.7,1.5l-1-1.4c1.2-0.5,2.4-1.3,3.8-2.3c1.3-1,2.2-1.9,2.6-2.7h1.9c0.2,0.4,0.8,0.9,1.6,1.6
			c0.8,0.7,1.6,1.3,2.3,1.8c0.8,0.5,1.6,0.9,2.6,1.2l-1.1,1.6c-0.8-0.3-1.7-0.8-2.6-1.4v0.6h-2.7v1.3h5v1.6h-5v3h1.3
			c0.6-1.3,1-2.2,1.2-2.9l2,0.5c-0.2,0.5-0.6,1.3-1.2,2.4h2.4v1.7H862v-1.6H864.3z M866.3,830.5h4.7c-1-0.8-1.8-1.5-2.3-2.2
			C868.1,829.1,867.3,829.8,866.3,830.5z"/>
		<path d="M884.7,839.8h-2.1v-7.2c-1.5,1.5-3.2,2.8-5.2,3.9l-1.1-1.5c2.9-1.7,5.1-3.7,6.6-6h-6v-1.7h13.5v1.7h-5.1
			c-0.3,0.5-0.7,1-1,1.5h0.4v1.4l1-1c0.5,0.5,1.3,1.2,2.3,2s2,1.5,3.1,2l-1.3,1.7c-1.8-1.1-3.5-2.4-5-3.9V839.8z"/>
		<path d="M903,835.6c-0.3,0.6-0.8,1.2-1.3,1.6c0.9,0.2,2,0.5,3.4,0.9l-1.2,1.6c-0.5-0.2-1.8-0.6-3.9-1.2c-1.7,0.7-4.2,1.2-7.5,1.2
			l-0.4-1.6c2.3-0.1,4.1-0.3,5.3-0.5l-2.8-0.4c-0.3,0-0.5-0.2-0.5-0.5c0-0.1,0-0.1,0.1-0.2c0.2-0.3,0.3-0.5,0.5-0.9h-2.9v-1.5h3.7
			c0.1-0.3,0.3-0.5,0.4-0.8h-3.3v-3.8h3.4v-0.8h-4v-1.5h13.3v1.5h-4.2v0.8h3.5v3.8h-6.7c-0.1,0.2-0.2,0.5-0.4,0.8h7.8v1.5H903z
			 M896,830.7h-1.5v1.1h1.5V830.7z M899.5,836.7c0.5-0.3,0.9-0.7,1.2-1.1h-4c-0.1,0.2-0.2,0.4-0.3,0.5L899.5,836.7z M897.8,828.7
			v0.8h1.5v-0.8H897.8z M899.3,830.7h-1.5v1.1h1.5V830.7z M902.7,831.9v-1.1h-1.6v1.1H902.7z"/>
		<path d="M910.2,836.7c-0.3,0.6-0.8,1.2-1.3,1.8c-0.5,0.6-1,1-1.5,1.3l-1.2-1.2c0.9-0.6,1.6-1.4,2.3-2.3h-1.9v-1.5h1v-5.3h-0.8
			v-1.5h0.8v-1.2h1.8v1.2h2.3v-1.2h1.8v1.2h0.8v1.5h-0.8v5.3h0.8v1.5h-2.1c0.4,0.6,1,1.3,1.6,1.8l-1.3,1.1c-0.6-0.5-1.3-1.4-1.9-2.5
			l0.8-0.4h-2L910.2,836.7z M909.4,829.4v1h2.3v-1H909.4z M909.4,831.6v1h2.3v-1H909.4z M909.4,834.7h2.3v-0.9h-2.3V834.7z
			 M919.9,838.5c0,0.3-0.1,0.6-0.4,0.8s-0.6,0.3-1,0.3h-1.6l-0.2-1.6h1c0.1,0,0.2,0,0.3-0.1s0.1-0.2,0.1-0.3v-3h-1.6
			c-0.1,2-0.6,3.7-1.6,5.2l-1.5-1c0.3-0.5,0.6-1.1,0.8-1.7c0.2-0.6,0.3-1.2,0.4-1.8c0.1-0.6,0.1-1.3,0.1-2.2v-6.3h5.2V838.5z
			 M918.1,830v-1.8h-1.6v1.8H918.1z M918.1,833.2v-1.9h-1.6v1.9H918.1z"/>
		<path d="M927.9,832h-4v7.8H922v-13.1h5.9V832z M926.1,828.9V828H924v0.9H926.1z M926.1,830.9v-0.9H924v0.9H926.1z M927.2,838.9
			v0.3h-1.9v-6.4h6.3v6.1H927.2z M929.7,835.1v-1h-2.5v1H929.7z M927.2,837.4h2.5v-1.1h-2.5V837.4z M935.1,838.4
			c0,0.4-0.2,0.7-0.5,1c-0.3,0.3-0.7,0.4-1.2,0.4H932l-0.2-1.7h0.9c0.1,0,0.2,0,0.3-0.1c0.1-0.1,0.1-0.2,0.1-0.3V832h-4.1v-5.2h6
			V838.4z M930.9,828.9h2.3V828h-2.3V828.9z M933.2,829.9h-2.3v0.9h2.3V829.9z"/>
	</g>
	<g class="st6">
		<path d="M854.5,854c-0.5,0.4-1.5,0.9-3.2,1.7c-1.6,0.7-3,1.3-4.2,1.6l-0.6-1.9c0.4-0.1,0.9-0.3,1.4-0.5V846h2.1v8.1
			c1.6-0.7,2.9-1.3,3.9-1.8L854.5,854z M860.6,857.4l-1.5,1.5c-1.1-1.1-1.9-2.1-2.7-3.2c-1.2,1.4-3,2.5-5.3,3.2l-0.9-1.7
			c1.5-0.5,2.8-1.2,3.8-2.1c1-0.9,1.7-1.9,2.2-3.2c0.5-1.3,0.7-3,0.7-5.2v-1h2.1v0.2c0,3.4-0.5,6-1.4,7.8
			C858.5,855.3,859.5,856.4,860.6,857.4z M855.5,850.6l-1.9,1.1c-1-1.9-1.9-3.4-2.8-4.6l1.7-0.9
			C853.3,847.2,854.3,848.7,855.5,850.6z"/>
		<path d="M869.3,847.2c0,0.7,0,1.2-0.1,1.8l0.6-0.7c0.2,0.2,0.3,0.4,0.5,0.6v-3.3h2.1v5.3c1.1,0.8,2.3,1.5,3.6,2.1l-1.1,1.8
			c-0.8-0.4-1.6-0.9-2.5-1.6v5.6h-2.1v-7.3c-0.5-0.5-0.9-0.9-1.3-1.3c-0.3,2.1-1,3.9-2.2,5.4c-1.2,1.5-2.5,2.6-4,3.3l-1.2-1.4
			c1.7-1,3.1-2.3,4-3.8c-0.6-0.5-1.3-0.9-1.9-1.4c-0.3,0.5-0.7,1-1.1,1.5l-1.5-1.1c0.7-1,1.4-2.1,2-3.4c0.6-1.3,0.9-2.6,1.1-3.7
			l2.1,0.2c-0.1,0.5-0.2,1-0.3,1.5H869.3z M866.6,851.9c0.4-1,0.6-2.1,0.6-3.1h-1.7c-0.2,0.6-0.5,1.3-0.8,1.9
			C865.4,851.2,866.1,851.6,866.6,851.9z"/>
		<path d="M888.6,856.7l-0.1,2c-0.5,0-0.9,0-1.1,0c-1.8,0-3.2-0.3-4.2-0.8c-1-0.5-1.7-1.1-2.2-1.8c-0.4-0.7-0.7-1.5-0.7-2.4
			c0-1.8,0.9-3.4,2.6-4.9l-6.5,0.1v-1.9h13.1v1.9h-3.4c-1.1,0.5-1.9,1.2-2.6,2.1s-1,1.8-1,2.7c0,2.1,1.6,3.2,4.8,3.2
			C887.8,856.8,888.2,856.8,888.6,856.7z M887.9,851.9l-1.1,0.4c-0.2-0.5-0.5-1.3-1-2.2l1-0.4C887.3,850.3,887.6,851.1,887.9,851.9z
			 M890,851.4l-1.1,0.4c-0.3-0.8-0.7-1.6-1-2.2l1-0.4C889.4,850,889.7,850.7,890,851.4z"/>
		<path d="M898.6,857.4c0,0.4-0.1,0.7-0.4,0.9c-0.3,0.2-0.6,0.4-0.9,0.4h-1.9l-0.2-1.6h1.3c0.3,0,0.4-0.1,0.4-0.3v-1.6h-2.8
			c-0.2,1.6-0.7,2.9-1.5,3.7l-1.4-0.8c0.3-0.4,0.6-1,0.8-1.8c0.2-0.8,0.4-1.7,0.4-3l0-2.6c-0.1,0.1-0.2,0.2-0.3,0.3l-1-1.3
			c0.5-0.5,1-1.2,1.4-2s0.8-1.6,1-2.2l1.9,0.2c-0.1,0.3-0.2,0.5-0.3,0.8h2.6l0.4,0.3c-0.3,0.7-0.7,1.4-1.2,2.2h1.5V857.4z
			 M893.8,849h1.5c0.4-0.6,0.6-1.1,0.7-1.3h-1.4C894.4,848.1,894.1,848.6,893.8,849z M895,850.3h-0.8v1.2h0.8V850.3z M894.2,852.6
			v1.3h0.8v-1.3H894.2z M897,851.5v-1.2h-0.8v1.2H897z M897,853.8v-1.3h-0.8v1.3H897z M902.3,847.2c-0.3,1.6-1.1,2.8-2.7,3.5l-1-1.2
			c1-0.6,1.6-1.4,1.8-2.3l-1.5,0v-1.4h6.7v0.4c0,0.9,0,1.6-0.1,2.1s-0.1,0.9-0.3,1.1c-0.1,0.2-0.3,0.4-0.4,0.5
			c-0.2,0.1-0.4,0.2-0.6,0.3c-0.2,0.1-0.7,0.1-1.3,0.1c-0.2,0-0.5,0-0.8,0l-0.3-1.5l1.2,0c0.3,0,0.5-0.2,0.6-0.4
			c0.1-0.3,0.1-0.6,0.1-0.9c0-0.1,0-0.2,0-0.3L902.3,847.2z M905.8,856.3h-2.2v2.4h-1.9v-2.4H899v-1.6h2.7v-1.3h-0.9
			c-0.2,0.5-0.4,0.9-0.6,1.1l-1.5-0.4c0.5-0.9,0.9-2.1,1-3.4l1.7,0.1c0,0.4-0.1,0.7-0.1,1h0.5v-1.2h1.9v1.2h2v1.5h-2v1.3h2.2V856.3z
			"/>
		<path d="M908.6,853.7c-0.1,0.7-0.2,1.5-0.4,2.3c-0.2,0.9-0.4,1.5-0.5,2l-1.4-0.3c0.4-1.7,0.7-3,0.7-4.1L908.6,853.7z M910.8,858.8
			H909v-5.7c-1,0.1-1.8,0.1-2.3,0.2l-0.2-1.5c0.3,0,0.7,0,1.1,0c0.2-0.3,0.6-0.7,0.9-1.2c-0.7-0.7-1.4-1.5-2.1-2.2l1.1-1.1
			c0.1,0.1,0.2,0.2,0.3,0.3c0.5-0.8,0.9-1.5,1.2-2.1l1.7,0.6c-0.5,0.9-1.2,1.8-1.8,2.6l0.7,0.7c0.7-1,1.2-1.8,1.5-2.4l1.6,0.7
			c-0.9,1.4-1.9,2.8-3,4.1c0.5,0,1-0.1,1.6-0.1c-0.2-0.6-0.3-0.9-0.4-1.1l1.4-0.4c0.3,0.7,0.6,1.6,1,2.9l-1.5,0.4
			c0-0.1,0-0.3-0.1-0.5c-0.2,0-0.4,0.1-0.7,0.1V858.8z M913,856.8l-1.5,0.2c-0.3-1.5-0.5-2.6-0.5-3.2l1.5-0.2L913,856.8z
			 M915.2,858.7l-0.2-1.8h1.9c0.4,0,0.7-0.2,0.8-0.6c0.1-0.4,0.2-1.2,0.2-2.3l0-2.2v-3h-3c-0.3,0.8-0.6,1.5-1,2.2l-1.5-0.7
			c0.4-1,0.8-1.9,1-2.6s0.4-1.5,0.5-2.2l2,0.2c-0.1,0.6-0.2,1.1-0.4,1.7h4.4c0,0.4,0,0.9,0,1.7c0,3.1,0,5-0.1,5.9
			c0,1.3-0.2,2.1-0.3,2.5c-0.2,0.4-0.4,0.7-0.7,0.9c-0.3,0.2-0.6,0.4-1,0.4C917.6,858.6,916.7,858.7,915.2,858.7z M916.7,854.4
			l-1.8,0.6c-0.5-1.7-1-3-1.5-3.9l1.7-0.6C915.6,851.3,916.1,852.6,916.7,854.4z"/>
	</g>
	<g class="st6">
		<path d="M845.3,878h-2.3c-0.9-1-1.5-2-1.9-3c-0.5-1.1-0.7-2.4-0.7-3.8c0-2.5,0.9-4.8,2.6-6.8h2.3v0.2c-0.8,0.8-1.5,1.6-2,2.7
			c-0.6,1.2-0.9,2.6-0.9,4c0,1.4,0.3,2.8,0.9,4c0.5,1,1.2,1.9,2,2.7V878z"/>
		<path d="M851.7,874v-0.8h-0.9v-1.1h5.1v-0.7h-4.9v-2.6h8.5v2.6H858v0.7h2.1v1.1H858v0.8h2.6v1.2H858v1c1.5,0,2.4,0,2.8-0.1
			l-0.3,1.5c-2.8,0-4.7,0-5.6,0l-2,0c-0.4,0-1.1-0.1-1.9-0.2c-0.8-0.3-1.4-0.7-1.8-1.2c-0.8,0.7-1.5,1.3-2.3,1.7l-0.7-1.8
			c0.7-0.2,1.3-0.6,1.8-1.1v-3.8h-1.4v-1.6h3.3v5c0,0.5,0.2,0.9,0.7,1.1c0.4,0.3,1.1,0.4,1.8,0.4s1.9,0,3.5,0v-1h-5.5V874H851.7z
			 M850.2,867.8l-1.9,0.7c-0.3-0.7-0.9-1.8-1.7-3.1l1.7-0.7C848.9,865.5,849.5,866.5,850.2,867.8z M860.3,868.2h-9.8v-1.1h2.3
			l0.2-0.8h-1.6v-1.1h1.9l0.2-0.7l2,0.1l-0.2,0.6h4v1.9h0.9V868.2z M857.6,870.5v-0.8h-4.7v0.8H857.6z M853.6,873.2v0.8h2.3v-0.8
			H853.6z M854.8,867.1h2.7v-0.8H855L854.8,867.1z"/>
		<path d="M863.6,872.7c-0.1,0.7-0.2,1.5-0.4,2.3c-0.2,0.9-0.4,1.5-0.5,2l-1.4-0.3c0.4-1.7,0.7-3,0.7-4.1L863.6,872.7z M865.8,877.8
			H864v-5.7c-1,0.1-1.8,0.1-2.3,0.2l-0.2-1.5c0.3,0,0.7,0,1.1,0c0.2-0.3,0.6-0.7,0.9-1.2c-0.7-0.7-1.4-1.5-2.1-2.2l1.1-1.1
			c0.1,0.1,0.2,0.2,0.3,0.3c0.5-0.8,0.9-1.5,1.2-2.1l1.7,0.6c-0.5,0.9-1.2,1.8-1.8,2.6l0.7,0.7c0.7-1,1.2-1.8,1.5-2.4l1.6,0.7
			c-0.9,1.4-1.9,2.8-3,4.1c0.5,0,1-0.1,1.6-0.1c-0.2-0.6-0.3-0.9-0.4-1.1l1.4-0.4c0.3,0.7,0.6,1.6,1,2.9l-1.5,0.4
			c0-0.1,0-0.3-0.1-0.5c-0.2,0-0.4,0.1-0.7,0.1V877.8z M868,875.8l-1.5,0.2c-0.3-1.5-0.5-2.6-0.5-3.2l1.5-0.2L868,875.8z
			 M870.2,877.7l-0.2-1.8h1.9c0.4,0,0.7-0.2,0.8-0.6c0.1-0.4,0.2-1.2,0.2-2.3l0-2.2v-3h-3c-0.3,0.8-0.6,1.5-1,2.2l-1.5-0.7
			c0.4-1,0.8-1.9,1-2.6s0.4-1.5,0.5-2.2l2,0.2c-0.1,0.6-0.2,1.1-0.4,1.7h4.4c0,0.4,0,0.9,0,1.7c0,3.1,0,5-0.1,5.9
			c0,1.3-0.2,2.1-0.3,2.5c-0.2,0.4-0.4,0.7-0.7,0.9c-0.3,0.2-0.6,0.4-1,0.4C872.6,877.6,871.7,877.7,870.2,877.7z M871.7,873.4
			l-1.8,0.6c-0.5-1.7-1-3-1.5-3.9l1.7-0.6C870.6,870.3,871.1,871.6,871.7,873.4z"/>
		<path d="M879.3,875.9c-0.4-1-0.7-1.8-1-2.4l1.8-0.5c0.4,0.8,0.8,1.8,1.3,3h1.2v-3h-4.9v-1.6h4.9V870h-2.6v-0.5
			c-0.9,0.6-1.8,1.1-2.7,1.5l-1-1.4c1.2-0.5,2.4-1.3,3.8-2.3c1.3-1,2.2-1.9,2.6-2.7h1.9c0.2,0.4,0.8,0.9,1.6,1.6
			c0.8,0.7,1.6,1.3,2.3,1.8c0.8,0.5,1.6,0.9,2.6,1.2l-1.1,1.6c-0.8-0.3-1.7-0.8-2.6-1.4v0.6h-2.7v1.3h5v1.6h-5v3h1.3
			c0.6-1.3,1-2.2,1.2-2.9l2,0.5c-0.2,0.5-0.6,1.3-1.2,2.4h2.4v1.7H877v-1.6H879.3z M881.3,868.5h4.7c-1-0.8-1.8-1.5-2.3-2.2
			C883.1,867.1,882.3,867.8,881.3,868.5z"/>
		<path d="M898.7,877.8l-0.3-1.8c3.2,0,4.8-0.9,4.8-2.8c0-1-0.6-1.7-1.8-2.1c-0.8,1.6-1.9,3.1-3.2,4.3c-1.4,1.2-2.7,1.8-4,1.8
			c-0.8,0-1.4-0.2-1.8-0.7c-0.4-0.4-0.6-1-0.6-1.8c0-0.9,0.3-1.8,1-2.7c0.7-0.8,1.6-1.5,2.7-2c0-0.4,0-1,0-1.9h-3.3v-1.6h3.4
			c0-0.4,0-1,0.1-1.7h2.1c0,0.5,0,1.1-0.1,1.7h6.6v1.6h-6.7c0,0.5,0,0.9,0,1.2c0.6-0.1,1.2-0.2,1.8-0.2c1.8,0,3.2,0.4,4.4,1.1
			c1.1,0.7,1.7,1.7,1.7,3c0,1.4-0.6,2.5-1.8,3.3c-1.2,0.8-2.8,1.1-4.7,1.1H898.7z M895.6,871.9c-1.2,0.8-1.9,1.7-1.9,2.6
			c0,0.6,0.2,0.9,0.7,0.9c0.5,0,1.1-0.2,1.7-0.7C895.8,874,895.7,873,895.6,871.9z M899.4,870.8c-0.1,0-0.1,0-0.2,0
			c-0.5,0-1.1,0.1-1.8,0.3c0,0.8,0.1,1.6,0.3,2.4C898.4,872.7,899,871.8,899.4,870.8z"/>
		<path d="M911.1,878.1l-0.4-1.8c2.4-0.3,4.1-0.8,4.9-1.5c0.9-0.7,1.3-1.8,1.3-3.4c0-2.7-0.6-4.1-1.9-4.1c-0.7,0-1.3,0.2-2,0.6
			c-0.7,0.4-1.3,1.1-1.7,2.1c-0.5,1-0.7,2-0.7,3c0,0.3,0,0.6,0.1,1l-1.9,0.1c-0.2-1.3-0.3-2.7-0.3-4.1c0-1.8,0.2-3.6,0.5-5.3
			l2.1,0.2c-0.1,0.8-0.3,1.9-0.6,3.5c0.3-0.7,1-1.4,1.8-2s1.8-0.9,2.9-0.9c1.3,0,2.3,0.5,3,1.5c0.7,1,1,2.4,1,4.2c0,2.3-0.7,4-2,5
			C915.7,877.2,913.7,877.9,911.1,878.1z"/>
		<path d="M926.7,871.2c0,1.4-0.2,2.6-0.7,3.8c-0.4,1-1,2-1.9,3h-2.2v-0.2c0.8-0.8,1.5-1.6,2-2.7c0.6-1.2,0.9-2.6,0.9-4
			c0-1.4-0.3-2.7-0.9-4c-0.5-1-1.2-1.9-2-2.7v-0.2h2.2C925.9,866.4,926.7,868.7,926.7,871.2z"/>
	</g>
	<g class="st6">
		<path d="M263.1,836v-0.8h-0.9v-1.1h5.1v-0.7h-4.9v-2.6h8.5v2.6h-1.6v0.7h2.1v1.1h-2.1v0.8h2.6v1.2h-2.6v1c1.5,0,2.4,0,2.8-0.1
			l-0.3,1.5c-2.8,0-4.7,0-5.6,0l-2,0c-0.4,0-1.1-0.1-1.9-0.2c-0.8-0.3-1.4-0.7-1.8-1.2c-0.8,0.7-1.6,1.3-2.3,1.7l-0.7-1.8
			c0.7-0.2,1.3-0.6,1.8-1.1v-3.8H258v-1.6h3.3v5c0,0.5,0.2,0.9,0.7,1.1c0.4,0.3,1.1,0.4,1.8,0.4s1.9,0,3.5,0v-1h-5.5V836H263.1z
			 M261.6,829.8l-1.9,0.7c-0.3-0.7-0.9-1.8-1.7-3.1l1.7-0.7C260.3,827.5,260.9,828.5,261.6,829.8z M271.7,830.2h-9.8v-1.1h2.3
			l0.2-0.8h-1.6v-1.1h1.9l0.2-0.7l2,0.1l-0.2,0.6h4v1.9h0.9V830.2z M269,832.5v-0.8h-4.7v0.8H269z M265,835.2v0.8h2.3v-0.8H265z
			 M266.2,829.1h2.7v-0.8h-2.5L266.2,829.1z"/>
		<path d="M275,834.7c-0.1,0.7-0.2,1.5-0.4,2.3c-0.2,0.9-0.4,1.5-0.5,2l-1.4-0.3c0.4-1.7,0.7-3,0.7-4.1L275,834.7z M277.2,839.8
			h-1.9v-5.7c-1,0.1-1.8,0.1-2.3,0.2l-0.2-1.5c0.3,0,0.7,0,1.1,0c0.2-0.3,0.6-0.7,0.9-1.2c-0.7-0.7-1.4-1.5-2.1-2.2l1.1-1.1
			c0.1,0.1,0.2,0.2,0.3,0.3c0.5-0.8,0.9-1.5,1.2-2.1l1.7,0.6c-0.5,0.9-1.2,1.8-1.8,2.6l0.7,0.7c0.7-1,1.2-1.8,1.5-2.4l1.6,0.7
			c-0.9,1.4-1.9,2.8-3,4.1c0.5,0,1-0.1,1.6-0.1c-0.2-0.6-0.3-0.9-0.4-1.1l1.4-0.4c0.3,0.7,0.6,1.6,1,2.9l-1.5,0.4
			c0-0.1,0-0.3-0.1-0.5c-0.2,0-0.4,0.1-0.7,0.1V839.8z M279.4,837.8l-1.5,0.2c-0.3-1.5-0.5-2.6-0.5-3.2l1.5-0.2L279.4,837.8z
			 M281.6,839.7l-0.2-1.8h1.9c0.4,0,0.7-0.2,0.8-0.6c0.1-0.4,0.2-1.2,0.2-2.3l0-2.2v-3h-3c-0.3,0.8-0.6,1.5-1,2.2l-1.5-0.7
			c0.4-1,0.8-1.9,1-2.6s0.4-1.5,0.5-2.2l2,0.2c-0.1,0.6-0.2,1.1-0.4,1.7h4.4c0,0.4,0,0.9,0,1.7c0,3.1,0,5-0.1,5.9
			c0,1.3-0.2,2.1-0.3,2.5c-0.2,0.4-0.4,0.7-0.7,0.9c-0.3,0.2-0.6,0.4-1,0.4C284,839.6,283.1,839.7,281.6,839.7z M283.1,835.4
			l-1.8,0.6c-0.5-1.7-1-3-1.5-3.9l1.7-0.6C282,832.3,282.5,833.6,283.1,835.4z"/>
		<path d="M290.7,837.9c-0.4-1-0.7-1.8-1-2.4l1.8-0.5c0.4,0.8,0.8,1.8,1.3,3h1.2v-3H289v-1.6h4.9V832h-2.6v-0.5
			c-0.9,0.6-1.8,1.1-2.7,1.5l-1-1.4c1.2-0.5,2.4-1.3,3.8-2.3c1.3-1,2.2-1.9,2.6-2.7h1.9c0.2,0.4,0.8,0.9,1.6,1.6
			c0.8,0.7,1.6,1.3,2.3,1.8c0.8,0.5,1.6,0.9,2.6,1.2l-1.1,1.6c-0.8-0.3-1.7-0.8-2.6-1.4v0.6H296v1.3h5v1.6h-5v3h1.3
			c0.6-1.3,1-2.2,1.2-2.9l2,0.5c-0.2,0.5-0.6,1.3-1.2,2.4h2.4v1.7h-13.3v-1.6H290.7z M292.7,830.5h4.7c-1-0.8-1.8-1.5-2.3-2.2
			C294.5,829.1,293.7,829.8,292.7,830.5z"/>
		<path d="M311.1,839.8H309v-7.2c-1.5,1.5-3.2,2.8-5.2,3.9l-1.1-1.5c2.9-1.7,5.1-3.7,6.6-6h-6v-1.7h13.5v1.7h-5.1
			c-0.3,0.5-0.7,1-1,1.5h0.4v1.4l1-1c0.5,0.5,1.3,1.2,2.3,2s2,1.5,3.1,2l-1.3,1.7c-1.8-1.1-3.5-2.4-5-3.9V839.8z"/>
		<path d="M329.4,835.6c-0.3,0.6-0.8,1.2-1.3,1.6c0.9,0.2,2,0.5,3.4,0.9l-1.2,1.6c-0.5-0.2-1.8-0.6-3.9-1.2
			c-1.7,0.7-4.2,1.2-7.5,1.2l-0.4-1.6c2.3-0.1,4.1-0.3,5.3-0.5l-2.8-0.4c-0.3,0-0.5-0.2-0.5-0.5c0-0.1,0-0.1,0.1-0.2
			c0.2-0.3,0.3-0.5,0.5-0.9h-2.9v-1.5h3.7c0.1-0.3,0.3-0.5,0.4-0.8H319v-3.8h3.4v-0.8h-4v-1.5h13.3v1.5h-4.2v0.8h3.5v3.8h-6.7
			c-0.1,0.2-0.2,0.5-0.4,0.8h7.8v1.5H329.4z M322.4,830.7h-1.5v1.1h1.5V830.7z M325.9,836.7c0.5-0.3,0.9-0.7,1.2-1.1h-4
			c-0.1,0.2-0.2,0.4-0.3,0.5L325.9,836.7z M324.2,828.7v0.8h1.5v-0.8H324.2z M325.7,830.7h-1.5v1.1h1.5V830.7z M329.1,831.9v-1.1
			h-1.6v1.1H329.1z"/>
		<path d="M336.6,836.7c-0.3,0.6-0.8,1.2-1.3,1.8c-0.5,0.6-1,1-1.5,1.3l-1.2-1.2c0.9-0.6,1.6-1.4,2.3-2.3H333v-1.5h1v-5.3h-0.8v-1.5
			h0.8v-1.2h1.8v1.2h2.3v-1.2h1.8v1.2h0.8v1.5h-0.8v5.3h0.8v1.5h-2.1c0.4,0.6,1,1.3,1.6,1.8l-1.3,1.1c-0.6-0.5-1.3-1.4-1.9-2.5
			l0.8-0.4h-2L336.6,836.7z M335.8,829.4v1h2.3v-1H335.8z M335.8,831.6v1h2.3v-1H335.8z M335.8,834.7h2.3v-0.9h-2.3V834.7z
			 M346.3,838.5c0,0.3-0.1,0.6-0.4,0.8s-0.6,0.3-1,0.3h-1.6L343,838h1c0.1,0,0.2,0,0.3-0.1s0.1-0.2,0.1-0.3v-3h-1.6
			c-0.1,2-0.6,3.7-1.6,5.2l-1.5-1c0.3-0.5,0.6-1.1,0.8-1.7c0.2-0.6,0.3-1.2,0.4-1.8c0.1-0.6,0.1-1.3,0.1-2.2v-6.3h5.2V838.5z
			 M344.5,830v-1.8h-1.6v1.8H344.5z M344.5,833.2v-1.9h-1.6v1.9H344.5z"/>
		<path d="M354.3,832h-4v7.8h-1.9v-13.1h5.9V832z M352.5,828.9V828h-2.2v0.9H352.5z M352.5,830.9v-0.9h-2.2v0.9H352.5z M353.6,838.9
			v0.3h-1.9v-6.4h6.3v6.1H353.6z M356.1,835.1v-1h-2.5v1H356.1z M353.6,837.4h2.5v-1.1h-2.5V837.4z M361.5,838.4
			c0,0.4-0.2,0.7-0.5,1c-0.3,0.3-0.7,0.4-1.2,0.4h-1.5l-0.2-1.7h0.9c0.1,0,0.2,0,0.3-0.1c0.1-0.1,0.1-0.2,0.1-0.3V832h-4.1v-5.2h6
			V838.4z M357.3,828.9h2.3V828h-2.3V828.9z M359.6,829.9h-2.3v0.9h2.3V829.9z"/>
		<path d="M370.9,835c-0.5,0.4-1.5,0.9-3.2,1.7c-1.6,0.7-3,1.3-4.2,1.6l-0.6-1.9c0.4-0.1,0.9-0.3,1.4-0.5V827h2.1v8.1
			c1.6-0.7,2.9-1.3,3.9-1.8L370.9,835z M377,838.4l-1.5,1.5c-1.1-1.1-1.9-2.1-2.7-3.2c-1.2,1.4-3,2.5-5.3,3.2l-0.9-1.7
			c1.5-0.5,2.8-1.2,3.8-2.1c1-0.9,1.7-1.9,2.2-3.2c0.5-1.3,0.7-3,0.7-5.2v-1h2.1v0.2c0,3.4-0.5,6-1.4,7.8
			C374.9,836.3,375.9,837.4,377,838.4z M371.9,831.6l-1.9,1.1c-1-1.9-1.9-3.4-2.8-4.6l1.7-0.9C369.7,828.2,370.7,829.7,371.9,831.6z
			"/>
		<path d="M385.7,828.2c0,0.7,0,1.2-0.1,1.8l0.6-0.7c0.2,0.2,0.3,0.4,0.5,0.6v-3.3h2.1v5.3c1.1,0.8,2.3,1.5,3.6,2.1l-1.1,1.8
			c-0.8-0.4-1.6-0.9-2.5-1.6v5.6h-2.1v-7.3c-0.5-0.5-0.9-0.9-1.3-1.3c-0.3,2.1-1,3.9-2.2,5.4c-1.2,1.5-2.5,2.6-4,3.3l-1.2-1.4
			c1.7-1,3.1-2.3,4-3.8c-0.6-0.5-1.3-0.9-1.9-1.4c-0.3,0.5-0.7,1-1.1,1.5l-1.5-1.1c0.7-1,1.4-2.1,2-3.4c0.6-1.3,0.9-2.6,1.1-3.7
			l2.1,0.2c-0.1,0.5-0.2,1-0.3,1.5H385.7z M383,832.9c0.4-1,0.6-2.1,0.6-3.1h-1.7c-0.2,0.6-0.5,1.3-0.8,1.9
			C381.8,832.2,382.5,832.6,383,832.9z"/>
		<path d="M405,837.7l-0.1,2c-0.5,0-0.9,0-1.1,0c-1.8,0-3.2-0.3-4.2-0.8c-1-0.5-1.7-1.1-2.2-1.8c-0.4-0.7-0.7-1.5-0.7-2.4
			c0-1.8,0.9-3.4,2.6-4.9l-6.5,0.1v-1.9H406v1.9h-3.4c-1.1,0.5-1.9,1.2-2.6,2.1s-1,1.8-1,2.7c0,2.1,1.6,3.2,4.8,3.2
			C404.2,837.8,404.6,837.8,405,837.7z M404.3,832.9l-1.1,0.4c-0.2-0.5-0.5-1.3-1-2.2l1-0.4C403.7,831.3,404,832.1,404.3,832.9z
			 M406.4,832.4l-1.1,0.4c-0.3-0.8-0.7-1.6-1-2.2l1-0.4C405.8,831,406.1,831.7,406.4,832.4z"/>
		<path d="M415,838.4c0,0.4-0.1,0.7-0.4,0.9s-0.6,0.4-0.9,0.4h-1.9l-0.2-1.6h1.3c0.3,0,0.4-0.1,0.4-0.3v-1.6h-2.8
			c-0.2,1.6-0.7,2.9-1.5,3.7l-1.4-0.8c0.3-0.4,0.6-1,0.8-1.8c0.2-0.8,0.4-1.7,0.4-3l0-2.6c-0.1,0.1-0.2,0.2-0.3,0.3l-1-1.3
			c0.5-0.5,1-1.2,1.4-2s0.8-1.6,1-2.2l1.9,0.2c-0.1,0.3-0.2,0.5-0.3,0.8h2.6l0.4,0.3c-0.3,0.7-0.7,1.4-1.1,2.2h1.5V838.4z
			 M410.2,830h1.5c0.4-0.6,0.6-1.1,0.7-1.3H411C410.8,829.1,410.5,829.6,410.2,830z M411.4,831.3h-0.8v1.2h0.8V831.3z M410.6,833.6
			v1.3h0.8v-1.3H410.6z M413.4,832.5v-1.2h-0.8v1.2H413.4z M413.4,834.8v-1.3h-0.8v1.3H413.4z M418.7,828.2
			c-0.3,1.6-1.1,2.8-2.7,3.5l-1-1.2c1-0.6,1.6-1.4,1.8-2.3l-1.5,0v-1.4h6.7v0.4c0,0.9,0,1.6-0.1,2.1s-0.1,0.9-0.3,1.1
			c-0.1,0.2-0.3,0.4-0.4,0.5c-0.2,0.1-0.4,0.2-0.6,0.3c-0.2,0.1-0.7,0.1-1.3,0.1c-0.2,0-0.5,0-0.8,0l-0.3-1.5l1.2,0
			c0.3,0,0.5-0.2,0.6-0.4c0.1-0.3,0.1-0.6,0.1-0.9c0-0.1,0-0.2,0-0.3L418.7,828.2z M422.2,837.3h-2.2v2.4h-1.9v-2.4h-2.7v-1.6h2.7
			v-1.3h-0.9c-0.2,0.5-0.4,0.9-0.6,1.1l-1.5-0.4c0.5-0.9,0.9-2.1,1-3.4l1.7,0.1c0,0.4-0.1,0.7-0.1,1h0.5v-1.2h1.9v1.2h2v1.5h-2v1.3
			h2.2V837.3z"/>
		<path d="M425,834.7c-0.1,0.7-0.2,1.5-0.4,2.3c-0.2,0.9-0.4,1.5-0.5,2l-1.4-0.3c0.4-1.7,0.7-3,0.7-4.1L425,834.7z M427.2,839.8
			h-1.9v-5.7c-1,0.1-1.8,0.1-2.3,0.2l-0.2-1.5c0.3,0,0.7,0,1.1,0c0.2-0.3,0.6-0.7,0.9-1.2c-0.7-0.7-1.4-1.5-2.1-2.2l1.1-1.1
			c0.1,0.1,0.2,0.2,0.3,0.3c0.5-0.8,0.9-1.5,1.2-2.1l1.7,0.6c-0.5,0.9-1.2,1.8-1.8,2.6l0.7,0.7c0.7-1,1.2-1.8,1.5-2.4l1.6,0.7
			c-0.9,1.4-1.9,2.8-3,4.1c0.5,0,1-0.1,1.6-0.1c-0.2-0.6-0.3-0.9-0.4-1.1l1.4-0.4c0.3,0.7,0.6,1.6,1,2.9l-1.5,0.4
			c0-0.1,0-0.3-0.1-0.5c-0.2,0-0.4,0.1-0.7,0.1V839.8z M429.4,837.8l-1.5,0.2c-0.3-1.5-0.5-2.6-0.5-3.2l1.5-0.2L429.4,837.8z
			 M431.6,839.7l-0.2-1.8h1.9c0.4,0,0.7-0.2,0.8-0.6c0.1-0.4,0.2-1.2,0.2-2.3l0-2.2v-3h-3c-0.3,0.8-0.6,1.5-1,2.2l-1.5-0.7
			c0.4-1,0.8-1.9,1-2.6s0.4-1.5,0.5-2.2l2,0.2c-0.1,0.6-0.2,1.1-0.4,1.7h4.4c0,0.4,0,0.9,0,1.7c0,3.1,0,5-0.1,5.9
			c0,1.3-0.2,2.1-0.3,2.5c-0.2,0.4-0.4,0.7-0.7,0.9c-0.3,0.2-0.6,0.4-1,0.4C434,839.6,433.1,839.7,431.6,839.7z M433.1,835.4
			l-1.8,0.6c-0.5-1.7-1-3-1.5-3.9l1.7-0.6C432,832.3,432.5,833.6,433.1,835.4z"/>
	</g>
	<g class="st6">
		<path d="M309.2,859H307c-0.9-1-1.5-2-1.9-3c-0.5-1.1-0.7-2.4-0.7-3.8c0-2.5,0.9-4.8,2.6-6.8h2.3v0.2c-0.8,0.8-1.5,1.6-2,2.7
			c-0.6,1.2-0.9,2.6-0.9,4c0,1.4,0.3,2.8,0.9,4c0.5,1,1.2,1.9,2,2.7V859z"/>
		<path d="M315.6,855v-0.8h-0.9v-1.1h5.1v-0.7H315v-2.6h8.5v2.6h-1.6v0.7h2.1v1.1h-2.1v0.8h2.6v1.2h-2.6v1c1.5,0,2.4,0,2.8-0.1
			l-0.3,1.5c-2.8,0-4.7,0-5.6,0l-2,0c-0.4,0-1.1-0.1-1.9-0.2c-0.8-0.3-1.4-0.7-1.8-1.2c-0.8,0.7-1.6,1.3-2.3,1.7l-0.7-1.8
			c0.7-0.2,1.3-0.6,1.8-1.1v-3.8h-1.4v-1.6h3.3v5c0,0.5,0.2,0.9,0.7,1.1c0.4,0.3,1.1,0.4,1.8,0.4s1.9,0,3.5,0v-1h-5.5V855H315.6z
			 M314.1,848.8l-1.9,0.7c-0.3-0.7-0.9-1.8-1.7-3.1l1.7-0.7C312.8,846.5,313.4,847.5,314.1,848.8z M324.2,849.2h-9.8v-1.1h2.3
			l0.2-0.8h-1.6v-1.1h1.9l0.2-0.7l2,0.1l-0.2,0.6h4v1.9h0.9V849.2z M321.5,851.5v-0.8h-4.7v0.8H321.5z M317.5,854.2v0.8h2.3v-0.8
			H317.5z M318.7,848.1h2.7v-0.8h-2.5L318.7,848.1z"/>
		<path d="M327.5,853.7c-0.1,0.7-0.2,1.5-0.4,2.3c-0.2,0.9-0.4,1.5-0.5,2l-1.4-0.3c0.4-1.7,0.7-3,0.7-4.1L327.5,853.7z M329.7,858.8
			h-1.9v-5.7c-1,0.1-1.8,0.1-2.3,0.2l-0.2-1.5c0.3,0,0.7,0,1.1,0c0.2-0.3,0.6-0.7,0.9-1.2c-0.7-0.7-1.4-1.5-2.1-2.2l1.1-1.1
			c0.1,0.1,0.2,0.2,0.3,0.3c0.5-0.8,0.9-1.5,1.2-2.1l1.7,0.6c-0.5,0.9-1.2,1.8-1.8,2.6l0.7,0.7c0.7-1,1.2-1.8,1.5-2.4l1.6,0.7
			c-0.9,1.4-1.9,2.8-3,4.1c0.5,0,1-0.1,1.6-0.1c-0.2-0.6-0.3-0.9-0.4-1.1l1.4-0.4c0.3,0.7,0.6,1.6,1,2.9l-1.5,0.4
			c0-0.1,0-0.3-0.1-0.5c-0.2,0-0.4,0.1-0.7,0.1V858.8z M331.9,856.8l-1.5,0.2c-0.3-1.5-0.5-2.6-0.5-3.2l1.5-0.2L331.9,856.8z
			 M334.1,858.7l-0.2-1.8h1.9c0.4,0,0.7-0.2,0.8-0.6c0.1-0.4,0.2-1.2,0.2-2.3l0-2.2v-3h-3c-0.3,0.8-0.6,1.5-1,2.2l-1.5-0.7
			c0.4-1,0.8-1.9,1-2.6s0.4-1.5,0.5-2.2l2,0.2c-0.1,0.6-0.2,1.1-0.4,1.7h4.4c0,0.4,0,0.9,0,1.7c0,3.1,0,5-0.1,5.9
			c0,1.3-0.2,2.1-0.3,2.5c-0.2,0.4-0.4,0.7-0.7,0.9c-0.3,0.2-0.6,0.4-1,0.4C336.5,858.6,335.6,858.7,334.1,858.7z M335.6,854.4
			l-1.8,0.6c-0.5-1.7-1-3-1.5-3.9l1.7-0.6C334.5,851.3,335,852.6,335.6,854.4z"/>
		<path d="M343.2,856.9c-0.4-1-0.7-1.8-1-2.4l1.8-0.5c0.4,0.8,0.8,1.8,1.3,3h1.2v-3h-4.9v-1.6h4.9V851h-2.6v-0.5
			c-0.9,0.6-1.8,1.1-2.7,1.5l-1-1.4c1.2-0.5,2.4-1.3,3.8-2.3c1.3-1,2.2-1.9,2.6-2.7h1.9c0.2,0.4,0.8,0.9,1.6,1.6
			c0.8,0.7,1.6,1.3,2.3,1.8c0.8,0.5,1.6,0.9,2.6,1.2l-1.1,1.6c-0.8-0.3-1.7-0.8-2.6-1.4v0.6h-2.7v1.3h5v1.6h-5v3h1.3
			c0.6-1.3,1-2.2,1.2-2.9l2,0.5c-0.2,0.5-0.6,1.3-1.2,2.4h2.4v1.7h-13.3v-1.6H343.2z M345.2,849.5h4.7c-1-0.8-1.8-1.5-2.3-2.2
			C347,848.1,346.2,848.8,345.2,849.5z"/>
		<path d="M362.6,858.8l-0.3-1.8c3.2,0,4.8-0.9,4.8-2.8c0-1-0.6-1.7-1.8-2.1c-0.8,1.6-1.9,3.1-3.2,4.3c-1.4,1.2-2.7,1.8-4,1.8
			c-0.8,0-1.4-0.2-1.8-0.7c-0.4-0.4-0.6-1-0.6-1.8c0-0.9,0.3-1.8,1-2.7s1.6-1.5,2.7-2c0-0.4,0-1,0-1.9H356v-1.6h3.4
			c0-0.4,0-1,0.1-1.7h2.1c0,0.5,0,1.1-0.1,1.7h6.6v1.6h-6.7c0,0.5,0,0.9,0,1.2c0.6-0.1,1.2-0.2,1.8-0.2c1.8,0,3.2,0.4,4.4,1.1
			c1.1,0.7,1.7,1.7,1.7,3c0,1.4-0.6,2.5-1.8,3.3c-1.2,0.8-2.8,1.1-4.7,1.1H362.6z M359.5,852.9c-1.2,0.8-1.9,1.7-1.9,2.6
			c0,0.6,0.2,0.9,0.7,0.9c0.5,0,1.1-0.2,1.7-0.7C359.7,855,359.6,854,359.5,852.9z M363.3,851.8c-0.1,0-0.1,0-0.2,0
			c-0.5,0-1.1,0.1-1.8,0.3c0,0.8,0.1,1.6,0.3,2.4C362.3,853.7,362.9,852.8,363.3,851.8z"/>
		<path d="M375,859.1l-0.4-1.8c2.4-0.3,4.1-0.8,4.9-1.5s1.3-1.8,1.3-3.4c0-2.7-0.6-4.1-1.9-4.1c-0.7,0-1.3,0.2-2,0.6
			c-0.7,0.4-1.3,1.1-1.7,2.1c-0.5,1-0.7,2-0.7,3c0,0.3,0,0.6,0.1,1l-1.9,0.1c-0.2-1.3-0.3-2.7-0.3-4.1c0-1.8,0.2-3.6,0.5-5.3
			l2.1,0.2c-0.1,0.8-0.3,1.9-0.6,3.5c0.3-0.7,1-1.4,1.8-2s1.8-0.9,2.9-0.9c1.3,0,2.3,0.5,3,1.5s1,2.4,1,4.2c0,2.3-0.7,4-2,5
			C379.6,858.2,377.6,858.9,375,859.1z"/>
		<path d="M390.6,852.2c0,1.4-0.2,2.6-0.7,3.8c-0.4,1-1,2-1.9,3h-2.2v-0.2c0.8-0.8,1.5-1.6,2-2.7c0.6-1.2,0.9-2.6,0.9-4
			c0-1.4-0.3-2.7-0.9-4c-0.5-1-1.2-1.9-2-2.7v-0.2h2.2C389.8,847.4,390.6,849.7,390.6,852.2z"/>
	</g>
	<g class="st6">
		<path class="st7" d="M204.1,630.9c-1.2,0.3-2.9,0.5-5.3,0.8l-0.2-1.4c0.5,0,1.3-0.1,2.3-0.2v-0.8H199v-1.2h1.8v-0.7h-1.9v-1.3h1.9
			v-0.8h1.7v0.8h1.8v1.3h-1.8v0.7h1.5v1.2h-1.5v0.6c0.6-0.1,1.2-0.2,1.7-0.2V630.9z M205.3,631.5c0,0.2,0,0.3,0,0.5
			c0,0.1,0,0.3,0,0.4h5.1v1.3H206c0.6,0.4,1.1,0.8,1.8,1c0.6,0.2,1.5,0.4,2.5,0.5l-0.7,1.5c-1.3-0.2-2.4-0.5-3.1-0.9
			c-0.7-0.4-1.4-0.9-2-1.5c-1.1,1.4-2.9,2.2-5.4,2.4l-0.4-1.4c1.9-0.2,3.3-0.8,4.2-1.6h-4.2v-1.3h4.8c0-0.1,0-0.3,0-0.5
			c0-0.1,0-0.3,0-0.4h1.5l-0.9-0.7c1-0.9,1.5-2.2,1.5-3.8h-1.2v-1.2h5.6l0,2.3c0,1.2-0.1,2-0.2,2.4c-0.1,0.4-0.3,0.7-0.6,0.9
			s-0.6,0.3-1,0.3h-1.4l-0.2-1.4h1.1c0.1,0,0.2,0,0.3-0.1s0.2-0.2,0.2-0.2s0.1-0.3,0.1-0.8c0-0.4,0.1-0.9,0.1-1.6c0-0.2,0-0.3,0-0.5
			h-1.1c0,0.9-0.2,1.8-0.6,2.7C206.4,630.4,205.9,631,205.3,631.5z"/>
		<path class="st7" d="M213.2,632.2c-0.1,0.6-0.2,1.3-0.3,2s-0.3,1.3-0.5,1.7l-1.2-0.3c0.4-1.4,0.6-2.6,0.6-3.5L213.2,632.2z
			 M215.1,636.7h-1.6v-5c-0.9,0.1-1.5,0.1-2,0.1l-0.1-1.3c0.2,0,0.6,0,1,0c0.2-0.3,0.5-0.6,0.8-1c-0.6-0.6-1.2-1.3-1.8-1.9l0.9-1
			c0.1,0.1,0.2,0.2,0.2,0.2c0.5-0.7,0.8-1.3,1.1-1.9l1.4,0.5c-0.5,0.8-1,1.6-1.6,2.3l0.6,0.6c0.6-0.8,1-1.5,1.3-2l1.4,0.6
			c-0.8,1.2-1.7,2.4-2.6,3.5c0.4,0,0.9-0.1,1.4-0.1c-0.2-0.5-0.3-0.8-0.3-0.9l1.2-0.4c0.2,0.6,0.5,1.4,0.9,2.5l-1.3,0.3
			c0-0.1,0-0.2-0.1-0.4c-0.1,0-0.4,0.1-0.6,0.1V636.7z M217,635l-1.3,0.2c-0.3-1.3-0.4-2.3-0.4-2.8l1.3-0.1L217,635z M218.9,636.6
			l-0.2-1.6h1.6c0.4,0,0.6-0.2,0.7-0.5c0.1-0.4,0.2-1,0.2-2l0-1.9v-2.6h-2.6c-0.2,0.7-0.5,1.3-0.9,1.9l-1.3-0.6
			c0.4-0.9,0.7-1.7,0.8-2.3c0.2-0.6,0.3-1.3,0.4-1.9l1.7,0.2c-0.1,0.5-0.2,1-0.3,1.4h3.8c0,0.3,0,0.8,0,1.5c0,2.6,0,4.3,0,5.1
			c0,1.1-0.1,1.8-0.3,2.2c-0.1,0.3-0.4,0.6-0.6,0.8c-0.3,0.2-0.6,0.3-0.8,0.4C221,636.6,220.2,636.6,218.9,636.6z M220.2,632.9
			l-1.6,0.6c-0.5-1.4-0.9-2.6-1.3-3.4l1.4-0.6C219.2,630.2,219.7,631.3,220.2,632.9z"/>
		<path class="st7" d="M229.9,629.8h-3.4v7h-1.7v-11.3h5.1V629.8z M228.4,627.2v-0.8h-1.8v0.8H228.4z M228.4,628.8V628h-1.8v0.8
			H228.4z M229.8,633.8c-0.1,0.6-0.3,1.1-0.6,1.6c-0.3,0.4-0.8,0.9-1.4,1.3l-0.9-1c0.7-0.5,1.2-1.1,1.3-1.8h-1.3v-1.2h1.4v-1h-1.2
			v-1.2h6.5v1.2h-1.1v1h1.4v1.2h-1.4v2.7H231v-2.7H229.8z M229.9,632.5h1.1v-1h-1.1V632.5z M236.1,635.5c0,0.3-0.1,0.6-0.4,0.8
			c-0.3,0.2-0.6,0.3-1,0.3h-1.5l-0.2-1.4h1c0.1,0,0.2,0,0.3-0.1c0.1-0.1,0.1-0.2,0.1-0.3v-5h-3.5v-4.3h5.2V635.5z M232.5,627.2h1.9
			v-0.8h-1.9V627.2z M234.4,628h-1.9v0.8h1.9V628z"/>
		<path class="st7" d="M242.3,628.7c0,1.9-0.3,3.5-1,4.9c0.4,0.3,0.8,0.6,1,0.8l-1,1.3c-0.2-0.2-0.5-0.5-0.9-0.8
			c-0.6,0.8-1.5,1.4-2.5,2l-0.7-1.2c0.8-0.5,1.5-1.1,2-1.7c-0.5-0.3-1-0.7-1.4-0.9c-0.1-0.1-0.2-0.2-0.2-0.3c0-0.1,0-0.1,0-0.2
			c0.2-0.7,0.4-1.9,0.7-3.7h-0.8v-1.3h1c0.2-1.1,0.3-1.9,0.3-2.4l1.7,0.1c0,0.4-0.1,1.1-0.3,2.3h2.1V628.7z M240,632.7
			c0.5-1,0.7-2.3,0.7-3.8H240c-0.3,1.6-0.5,2.7-0.7,3.3C239.4,632.3,239.7,632.5,240,632.7z M247.9,629.9c-1.7,0.2-3.5,0.4-5.4,0.5
			l-0.2-1.5c0.3,0,0.6,0,1,0c0.6-1.3,1-2.5,1.2-3.8l1.8,0.4c-0.4,1.2-0.8,2.3-1.3,3.3c0.9-0.1,1.7-0.1,2.3-0.2
			c-0.3-0.7-0.6-1.2-0.9-1.7l1.4-0.6c0.4,0.6,1.1,1.9,2,3.8l-1.6,0.5L247.9,629.9z M247.4,636.1h-3v0.4h-1.7v-5.3h6.4v5.3h-1.7
			V636.1z M244.4,634.8h3v-2.3h-3V634.8z"/>
		<path class="st7" d="M261.1,635.2c0,0.4-0.2,0.7-0.5,1c-0.3,0.3-0.7,0.4-1.2,0.4h-2.1l-0.2-1.7h1.7c0.1,0,0.2,0,0.3-0.1
			c0.1-0.1,0.1-0.2,0.1-0.2v-1.8h-5.4c-0.2,0.8-0.5,1.6-0.9,2.3c-0.4,0.7-0.9,1.3-1.5,1.8l-1.2-1.1c0.6-0.6,1.1-1.2,1.3-1.8
			s0.5-1.2,0.6-1.8c0.1-0.6,0.1-1.2,0.1-2.1v-4.4h8.9V635.2z M259.2,631.2v-1.4H254c0,0.5,0,1,0,1.4H259.2z M259.2,628.3v-1.3H254
			v1.3H259.2z"/>
	</g>
	<g class="st6">
		<path class="st7" d="M217.2,652.6l-0.5-1.6c1.7-0.2,2.9-0.6,3.8-1.2c0.8-0.6,1.3-1.5,1.3-2.6c0-1-0.3-1.8-0.9-2.4
			c-0.6-0.6-1.5-0.9-2.5-1c-0.1,2.4-0.5,4.3-1.3,5.8c-0.8,1.5-1.8,2.2-3,2.2c-0.8,0-1.4-0.4-1.9-1.1c-0.5-0.7-0.7-1.6-0.7-2.5V648
			c0-1.5,0.6-2.8,1.8-3.9c1.2-1.1,2.7-1.7,4.5-1.8h0.3c1.7,0,3.1,0.4,4.2,1.3c1.1,0.9,1.7,2.1,1.7,3.5c0,1.6-0.6,2.9-1.7,3.8
			C220.9,651.9,219.3,652.4,217.2,652.6z M216.5,644c-1,0.2-1.8,0.7-2.4,1.5c-0.7,0.8-1,1.6-1,2.6c0,0.5,0.1,0.9,0.2,1.3
			s0.4,0.6,0.7,0.6c0.6,0,1.1-0.6,1.6-1.7C216.1,647.1,216.4,645.7,216.5,644z"/>
		<path class="st7" d="M227.3,651.2l-0.7-1.6H225v-1.3h4.6v-0.9h1.7v0.9h4.7v1.3h-1.6l-0.9,1.6h2.9v1.3h-11.8v-1.3H227.3z
			 M228.5,645.4c-0.2,0.1-0.7,0.3-1.4,0.6c-0.8,0.3-1.5,0.5-2.1,0.6l-0.4-1.4c0.5-0.1,1.1-0.3,1.9-0.5c0.8-0.3,1.3-0.5,1.8-0.7
			L228.5,645.4z M227.5,643.8l-1.2,0.9l-1.3-1.5l0.7-0.5h-1v-1.2h5.4v4.8c0,0.3-0.1,0.6-0.4,0.8s-0.5,0.3-0.9,0.3h-1.4l-0.2-1.4h1
			c0.2,0,0.3-0.1,0.3-0.3v-3.1h-2.2L227.5,643.8z M228.4,649.5l0.7,1.6h2.8l0.7-1.6H228.4z M234.3,645.4c-0.2,0.1-0.7,0.4-1.5,0.6
			c-0.8,0.3-1.5,0.5-2.1,0.6l-0.4-1.4c0.5-0.1,1.2-0.3,1.9-0.5s1.4-0.5,1.8-0.7L234.3,645.4z M233.4,643.8l-1.2,0.9l-1.4-1.5
			l0.8-0.5h-1v-1.2h5.5v4.7c0,0.3-0.1,0.6-0.4,0.9c-0.3,0.2-0.5,0.3-0.9,0.3h-1.5l-0.2-1.4h1c0.1,0,0.2,0,0.2-0.1
			c0.1-0.1,0.1-0.1,0.1-0.2v-3.1h-2.2L233.4,643.8z"/>
		<path class="st7" d="M248.1,651.2c0,0.4-0.2,0.7-0.5,1c-0.3,0.3-0.7,0.4-1.2,0.4h-2.1l-0.2-1.7h1.7c0.1,0,0.2,0,0.3-0.1
			c0.1-0.1,0.1-0.2,0.1-0.2v-1.8h-5.4c-0.2,0.8-0.5,1.6-0.9,2.3c-0.4,0.7-0.9,1.3-1.5,1.8l-1.2-1.1c0.6-0.6,1.1-1.2,1.3-1.8
			s0.5-1.2,0.6-1.8c0.1-0.6,0.1-1.2,0.1-2.1v-4.4h8.9V651.2z M246.2,647.2v-1.4H241c0,0.5,0,1,0,1.4H246.2z M246.2,644.3v-1.3H241
			v1.3H246.2z"/>
	</g>
	<g class="st6">
		<path class="st8" d="M279.5,766.6v0.2c0,1.6-0.1,2.8-0.3,3.6c0.6,0.9,1.4,1.5,2.4,2v-6.9H277v-2.2h11.9v2.2h-4.5v2.3h6.4v2.2h-6.4
			v3.1c1.1,0.1,2.4,0.2,4,0.2l0.6,0l0.6,0l0.6,0h0.6l0.6,0l0.6,0l0.6,0l-0.5,2.4h-1.5c-1.7,0-3,0-3.9,0s-1.9-0.1-3.1-0.3
			s-2.1-0.5-2.9-0.9s-1.5-1-2.1-1.6c-0.8,1.5-2,2.6-3.5,3.3l-1.5-1.9c0.9-0.6,1.7-1.2,2.1-1.9s0.8-1.4,1-2.1s0.3-1.7,0.3-3.1
			c0-0.2,0-0.4,0-0.6H279.5z M292,764.6h-2.4v-2.3h-13.2v2.3H274v-4.4h7.5v-1.9h2.9v1.9h7.6V764.6z"/>
		<path class="st8" d="M316.5,771.9c-0.4,0.8-1,1.6-1.7,2.4s-1.4,1.3-2.1,1.7l-1.6-1.6c1.2-0.8,2.2-1.8,3-3.1h-2.5v-2h1.3v-7.1h-1
			v-2h1v-1.7h2.4v1.7h3v-1.7h2.4v1.7h1v2h-1v7.1h1.1v2h-2.8c0.6,0.9,1.3,1.7,2.1,2.5l-1.8,1.5c-0.9-0.7-1.7-1.8-2.6-3.4l1-0.6h-2.7
			L316.5,771.9z M315.4,762.2v1.3h3v-1.3H315.4z M315.4,765.1v1.4h3v-1.4H315.4z M315.4,769.3h3V768h-3V769.3z M329.4,774.3
			c0,0.4-0.2,0.8-0.5,1.1s-0.8,0.4-1.4,0.4h-2.2l-0.3-2.2h1.4c0.1,0,0.3,0,0.4-0.1s0.2-0.2,0.2-0.4v-4.1h-2.1
			c-0.2,2.6-0.9,4.9-2.1,6.9l-1.9-1.3c0.4-0.7,0.8-1.5,1.1-2.3s0.4-1.6,0.5-2.4s0.1-1.8,0.1-2.9v-8.4h6.9V774.3z M327,763v-2.4h-2.1
			v2.4H327z M327,767.3v-2.5h-2.1v2.5H327z"/>
		<path class="st8" d="M354.2,769.7c-1.2,1.7-2.4,2.9-3.4,3.8l-1.6-1.7c0.8-0.7,1.6-1.6,2.5-2.7s1.5-2.2,2-3.2h-3.6v-2.2h4.1v-2.1
			c-1.4,0.2-2.6,0.3-3.6,0.4l-0.5-2.1c1.3-0.1,2.9-0.3,4.7-0.6s3.2-0.6,4.2-1l1.3,2c-0.8,0.3-2,0.6-3.5,0.8v2.5h3.4v2.2h-3.4v0
			c1,1.2,2.2,2.3,3.5,3.1l-1.4,2.1c-0.6-0.4-1.3-1-2.1-1.8v6.7h-2.6V769.7z M363.4,771.6h-2.5v-12.1h2.5V771.6z M367.5,773.9
			c0,0.5-0.2,1-0.7,1.4s-0.9,0.6-1.5,0.6h-2.6l-0.4-2.4h1.8c0.5,0,0.7-0.2,0.7-0.6v-14.4h2.6V773.9z"/>
		<path class="st8" d="M402.4,770h-3.8v5.8h-2.8V770H392c-0.4,2.4-1.3,4.4-2.6,6.1l-2.1-1.4c1.5-2,2.2-4.7,2.2-8.1v-7.8h15.8v14.8
			c0,0.6-0.2,1.1-0.7,1.5s-1,0.6-1.7,0.6H400l-0.4-2.5h2.2c0.4,0,0.6-0.2,0.6-0.5V770z M392.2,767.8h3.7v-2.3h-3.6v0.9
			C392.2,766.8,392.2,767.3,392.2,767.8z M395.8,761.2h-3.6v2.2h3.6V761.2z M402.4,763.4v-2.2h-3.8v2.2H402.4z M398.6,767.8h3.8
			v-2.3h-3.8V767.8z"/>
		<path class="st8" d="M430.5,771.9c-0.4,0.8-1,1.6-1.7,2.4s-1.4,1.3-2.1,1.7l-1.6-1.6c1.2-0.8,2.2-1.8,3-3.1h-2.5v-2h1.3v-7.1h-1
			v-2h1v-1.7h2.4v1.7h3v-1.7h2.4v1.7h1v2h-1v7.1h1.1v2h-2.8c0.6,0.9,1.3,1.7,2.1,2.5l-1.8,1.5c-0.9-0.7-1.7-1.8-2.6-3.4l1-0.6h-2.7
			L430.5,771.9z M429.4,762.2v1.3h3v-1.3H429.4z M429.4,765.1v1.4h3v-1.4H429.4z M429.4,769.3h3V768h-3V769.3z M443.4,774.3
			c0,0.4-0.2,0.8-0.5,1.1s-0.8,0.4-1.4,0.4h-2.2l-0.3-2.2h1.4c0.1,0,0.3,0,0.4-0.1s0.2-0.2,0.2-0.4v-4.1h-2.1
			c-0.2,2.6-0.9,4.9-2.1,6.9l-1.9-1.3c0.4-0.7,0.8-1.5,1.1-2.3s0.4-1.6,0.5-2.4s0.1-1.8,0.1-2.9v-8.4h6.9V774.3z M441,763v-2.4h-2.1
			v2.4H441z M441,767.3v-2.5h-2.1v2.5H441z"/>
		<path class="st8" d="M472.1,765.7h-5.3v10.4h-2.6v-17.4h7.9V765.7z M469.7,761.6v-1.2h-2.9v1.2H469.7z M469.7,764.1v-1.3h-2.9v1.3
			H469.7z M471.1,774.8v0.4h-2.5v-8.6h8.4v8.1H471.1z M474.4,769.8v-1.3h-3.3v1.3H474.4z M471.1,772.9h3.3v-1.5h-3.3V772.9z
			 M481.7,774.2c0,0.5-0.2,0.9-0.6,1.3s-0.9,0.5-1.5,0.5h-2l-0.3-2.2h1.2c0.2,0,0.3-0.1,0.4-0.2s0.2-0.2,0.2-0.4v-7.5h-5.5v-7h8
			V774.2z M476.1,761.6h3v-1.2h-3V761.6z M479.1,762.9h-3v1.3h3V762.9z"/>
	</g>
	<g class="st6">
		<path d="M118.6,679.4c-1.2,0.3-2.9,0.5-5.3,0.8l-0.2-1.4c0.5,0,1.3-0.1,2.3-0.2v-0.8h-1.8v-1.2h1.8v-0.7h-1.9v-1.3h1.9v-0.8h1.7
			v0.8h1.8v1.3h-1.8v0.7h1.5v1.2h-1.5v0.6c0.6-0.1,1.2-0.2,1.7-0.2V679.4z M119.8,680c0,0.2,0,0.3,0,0.5c0,0.1,0,0.3,0,0.4h5.1v1.3
			h-4.3c0.6,0.4,1.1,0.8,1.8,1c0.6,0.2,1.5,0.4,2.5,0.5l-0.7,1.5c-1.3-0.2-2.4-0.5-3.1-0.9c-0.7-0.4-1.4-0.9-2-1.5
			c-1.1,1.4-2.9,2.2-5.4,2.4l-0.4-1.4c1.9-0.2,3.3-0.8,4.2-1.6h-4.2v-1.3h4.8c0-0.1,0-0.3,0-0.5c0-0.1,0-0.3,0-0.4h1.5l-0.9-0.7
			c1-0.9,1.5-2.2,1.5-3.8H119v-1.2h5.6l0,2.3c0,1.2-0.1,2-0.2,2.4c-0.1,0.4-0.3,0.7-0.6,0.9s-0.6,0.3-1,0.3h-1.4l-0.2-1.4h1.1
			c0.1,0,0.2,0,0.3-0.1s0.2-0.2,0.2-0.2s0.1-0.3,0.1-0.8c0-0.4,0.1-0.9,0.1-1.6c0-0.2,0-0.3,0-0.5h-1.1c0,0.9-0.2,1.8-0.6,2.7
			C120.9,678.9,120.4,679.5,119.8,680z"/>
		<path d="M127.7,680.7c-0.1,0.6-0.2,1.3-0.3,2s-0.3,1.3-0.5,1.7l-1.2-0.3c0.4-1.4,0.6-2.6,0.6-3.5L127.7,680.7z M129.6,685.2H128
			v-5c-0.9,0.1-1.5,0.1-2,0.1l-0.1-1.3c0.2,0,0.6,0,1,0c0.2-0.3,0.5-0.6,0.8-1c-0.6-0.6-1.2-1.3-1.8-1.9l0.9-1
			c0.1,0.1,0.2,0.2,0.2,0.2c0.5-0.7,0.8-1.3,1.1-1.9l1.4,0.5c-0.5,0.8-1,1.6-1.6,2.3l0.6,0.6c0.6-0.8,1-1.5,1.3-2l1.4,0.6
			c-0.8,1.2-1.7,2.4-2.6,3.5c0.4,0,0.9-0.1,1.4-0.1c-0.2-0.5-0.3-0.8-0.3-0.9l1.2-0.4c0.2,0.6,0.5,1.4,0.9,2.5l-1.3,0.3
			c0-0.1,0-0.2-0.1-0.4c-0.1,0-0.4,0.1-0.6,0.1V685.2z M131.5,683.5l-1.3,0.2c-0.3-1.3-0.4-2.3-0.4-2.8l1.3-0.1L131.5,683.5z
			 M133.4,685.1l-0.2-1.6h1.6c0.4,0,0.6-0.2,0.7-0.5c0.1-0.4,0.2-1,0.2-2l0-1.9v-2.6h-2.6c-0.2,0.7-0.5,1.3-0.9,1.9l-1.3-0.6
			c0.4-0.9,0.7-1.7,0.8-2.3c0.2-0.6,0.3-1.3,0.4-1.9l1.7,0.2c-0.1,0.5-0.2,1-0.3,1.4h3.8c0,0.3,0,0.8,0,1.5c0,2.6,0,4.3,0,5.1
			c0,1.1-0.1,1.8-0.3,2.2c-0.1,0.3-0.4,0.6-0.6,0.8c-0.3,0.2-0.6,0.3-0.8,0.4C135.5,685.1,134.7,685.1,133.4,685.1z M134.7,681.4
			l-1.6,0.6c-0.5-1.4-0.9-2.6-1.3-3.4l1.4-0.6C133.7,678.7,134.2,679.8,134.7,681.4z"/>
		<path d="M144.4,678.3H141v7h-1.7v-11.3h5.1V678.3z M142.9,675.7v-0.8H141v0.8H142.9z M142.9,677.3v-0.8H141v0.8H142.9z
			 M144.3,682.3c-0.1,0.6-0.3,1.1-0.6,1.6c-0.3,0.4-0.8,0.9-1.4,1.3l-0.9-1c0.7-0.5,1.2-1.1,1.3-1.8h-1.3V681h1.4v-1h-1.2v-1.2h6.5
			v1.2h-1.1v1h1.4v1.2h-1.4v2.7h-1.5v-2.7H144.3z M144.4,681h1.1v-1h-1.1V681z M150.6,684c0,0.3-0.1,0.6-0.4,0.8
			c-0.3,0.2-0.6,0.3-1,0.3h-1.5l-0.2-1.4h1c0.1,0,0.2,0,0.3-0.1c0.1-0.1,0.1-0.2,0.1-0.3v-5h-3.5v-4.3h5.2V684z M147,675.7h1.9v-0.8
			H147V675.7z M148.9,676.5H147v0.8h1.9V676.5z"/>
		<path d="M156.8,677.2c0,1.9-0.3,3.5-1,4.9c0.4,0.3,0.8,0.6,1,0.8l-1,1.3c-0.2-0.2-0.5-0.5-0.9-0.8c-0.6,0.8-1.5,1.4-2.5,2
			l-0.7-1.2c0.8-0.5,1.5-1.1,2-1.7c-0.5-0.3-1-0.7-1.4-0.9c-0.1-0.1-0.2-0.2-0.2-0.3c0-0.1,0-0.1,0-0.2c0.2-0.7,0.4-1.9,0.7-3.7H152
			v-1.3h1c0.2-1.1,0.3-1.9,0.3-2.4l1.7,0.1c0,0.4-0.1,1.1-0.3,2.3h2.1V677.2z M154.5,681.2c0.5-1,0.7-2.3,0.7-3.8h-0.8
			c-0.3,1.6-0.5,2.7-0.7,3.3C153.9,680.8,154.2,681,154.5,681.2z M162.4,678.4c-1.7,0.2-3.5,0.4-5.4,0.5l-0.2-1.5c0.3,0,0.6,0,1,0
			c0.6-1.3,1-2.5,1.2-3.8l1.8,0.4c-0.4,1.2-0.8,2.3-1.3,3.3c0.9-0.1,1.7-0.1,2.3-0.2c-0.3-0.7-0.6-1.2-0.9-1.7l1.4-0.6
			c0.4,0.6,1.1,1.9,2,3.8l-1.6,0.5L162.4,678.4z M161.9,684.6h-3v0.4h-1.7v-5.3h6.4v5.3h-1.7V684.6z M158.9,683.3h3V681h-3V683.3z"
			/>
		<path d="M175.6,683.7c0,0.4-0.2,0.7-0.5,1c-0.3,0.3-0.7,0.4-1.2,0.4h-2.1l-0.2-1.7h1.7c0.1,0,0.2,0,0.3-0.1
			c0.1-0.1,0.1-0.2,0.1-0.2v-1.8h-5.4c-0.2,0.8-0.5,1.6-0.9,2.3c-0.4,0.7-0.9,1.3-1.5,1.8l-1.2-1.1c0.6-0.6,1.1-1.2,1.3-1.8
			s0.5-1.2,0.6-1.8c0.1-0.6,0.1-1.2,0.1-2.1v-4.4h8.9V683.7z M173.7,679.7v-1.4h-5.2c0,0.5,0,1,0,1.4H173.7z M173.7,676.8v-1.3h-5.2
			v1.3H173.7z"/>
	</g>
	<g class="st6">
		<path d="M201.4,676.9l-4.4,0v-1.2l4.4,0V676.9z M201,684.7h-2.4v0.5h-1.4v-4.3h3.7V684.7z M201,675.1h-3.5V674h3.5V675.1z
			 M200.9,678.5h-3.5v-1.1h3.5V678.5z M200.9,680.3h-3.5v-1.1h3.5V680.3z M199.7,683.5V682h-1v1.6H199.7z M204.4,682.7
			c-0.8,0.8-1.6,1.5-2.6,2.1l-0.8-1.3c0.9-0.5,1.8-1.3,2.7-2.4h-2.4v-1.3h3v-0.6h-2.5V674h6.6v5.1H206v0.6h3.2v1.3h-2.5
			c0.9,0.9,1.8,1.7,2.8,2.2l-0.9,1.4c-1-0.6-1.8-1.3-2.6-2.2v2.7h-1.6V682.7z M203.5,676.1h0.9v-0.9h-0.9V676.1z M204.4,677h-0.9
			v0.9h0.9V677z M205.9,676.1h1v-0.9h-1V676.1z M206.9,677h-1v0.9h1V677z"/>
		<path d="M212.2,683.5c-0.3-0.9-0.6-1.6-0.9-2.1l1.6-0.4c0.4,0.7,0.7,1.6,1.1,2.6h1v-2.6h-4.2v-1.4h4.2v-1.1h-2.2V678
			c-0.8,0.5-1.6,0.9-2.3,1.3l-0.9-1.2c1-0.4,2.1-1.1,3.3-2c1.1-0.9,1.9-1.7,2.3-2.3h1.6c0.2,0.3,0.7,0.8,1.3,1.4
			c0.7,0.6,1.4,1.1,2,1.5c0.7,0.4,1.4,0.8,2.2,1.1l-1,1.4c-0.7-0.3-1.4-0.7-2.2-1.2v0.5h-2.4v1.1h4.3v1.4h-4.3v2.6h1.1
			c0.5-1.1,0.9-1.9,1-2.5l1.8,0.5c-0.2,0.4-0.5,1.1-1.1,2.1h2.1v1.4h-11.5v-1.4H212.2z M214,677.2h4c-0.9-0.7-1.5-1.3-2-1.9
			C215.5,675.9,214.9,676.5,214,677.2z"/>
		<path d="M228.4,678.3H225v7h-1.7v-11.3h5.1V678.3z M226.9,675.7v-0.8H225v0.8H226.9z M226.9,677.3v-0.8H225v0.8H226.9z
			 M228.3,682.3c-0.1,0.6-0.3,1.1-0.6,1.6c-0.3,0.4-0.8,0.9-1.4,1.3l-0.9-1c0.7-0.5,1.2-1.1,1.3-1.8h-1.3V681h1.4v-1h-1.2v-1.2h6.5
			v1.2h-1.1v1h1.4v1.2h-1.4v2.7h-1.5v-2.7H228.3z M228.4,681h1.1v-1h-1.1V681z M234.6,684c0,0.3-0.1,0.6-0.4,0.8
			c-0.3,0.2-0.6,0.3-1,0.3h-1.5l-0.2-1.4h1c0.1,0,0.2,0,0.3-0.1c0.1-0.1,0.1-0.2,0.1-0.3v-5h-3.5v-4.3h5.2V684z M231,675.7h1.9v-0.8
			H231V675.7z M232.9,676.5H231v0.8h1.9V676.5z"/>
		<path d="M240.8,677.2c0,1.9-0.3,3.5-1,4.9c0.4,0.3,0.8,0.6,1,0.8l-1,1.3c-0.2-0.2-0.5-0.5-0.9-0.8c-0.6,0.8-1.5,1.4-2.5,2
			l-0.7-1.2c0.8-0.5,1.5-1.1,2-1.7c-0.5-0.3-1-0.7-1.4-0.9c-0.1-0.1-0.2-0.2-0.2-0.3c0-0.1,0-0.1,0-0.2c0.2-0.7,0.4-1.9,0.7-3.7H236
			v-1.3h1c0.2-1.1,0.3-1.9,0.3-2.4l1.7,0.1c0,0.4-0.1,1.1-0.3,2.3h2.1V677.2z M238.5,681.2c0.5-1,0.7-2.3,0.7-3.8h-0.8
			c-0.3,1.6-0.5,2.7-0.7,3.3C237.9,680.8,238.2,681,238.5,681.2z M246.4,678.4c-1.7,0.2-3.5,0.4-5.4,0.5l-0.2-1.5c0.3,0,0.6,0,1,0
			c0.6-1.3,1-2.5,1.2-3.8l1.8,0.4c-0.4,1.2-0.8,2.3-1.3,3.3c0.9-0.1,1.7-0.1,2.3-0.2c-0.3-0.7-0.6-1.2-0.9-1.7l1.4-0.6
			c0.4,0.6,1.1,1.9,2,3.8l-1.6,0.5L246.4,678.4z M245.9,684.6h-3v0.4h-1.7v-5.3h6.4v5.3h-1.7V684.6z M242.9,683.3h3V681h-3V683.3z"
			/>
		<path d="M259.6,683.7c0,0.4-0.2,0.7-0.5,1c-0.3,0.3-0.7,0.4-1.2,0.4h-2.1l-0.2-1.7h1.7c0.1,0,0.2,0,0.3-0.1
			c0.1-0.1,0.1-0.2,0.1-0.2v-1.8h-5.4c-0.2,0.8-0.5,1.6-0.9,2.3c-0.4,0.7-0.9,1.3-1.5,1.8l-1.2-1.1c0.6-0.6,1.1-1.2,1.3-1.8
			s0.5-1.2,0.6-1.8c0.1-0.6,0.1-1.2,0.1-2.1v-4.4h8.9V683.7z M257.7,679.7v-1.4h-5.2c0,0.5,0,1,0,1.4H257.7z M257.7,676.8v-1.3h-5.2
			v1.3H257.7z"/>
	</g>
	<line id="線_12" class="st4" x1="528.5" y1="698.5" x2="875.5" y2="698.5"/>
	<line id="線_4" class="st4" x1="104.5" y1="684.5" x2="104.5" y2="711.5"/>
	<line id="線_5" class="st4" x1="187.5" y1="684.5" x2="187.5" y2="711.5"/>
	<line id="線_6" class="st4" x1="273" y1="684.5" x2="273" y2="711.5"/>
	<line id="線_7" class="st4" x1="358.5" y1="684.5" x2="358.5" y2="711.5"/>
	<line id="線_19" class="st4" x1="700.5" y1="684.5" x2="700.5" y2="711.5"/>
	<line id="線_8" class="st4" x1="444" y1="684.5" x2="444" y2="711.5"/>
	<line id="線_18" class="st4" x1="786" y1="684.5" x2="786" y2="711.5"/>
	<line id="線_9" class="st4" x1="529.5" y1="684.5" x2="529.5" y2="711.5"/>
	<line id="線_20" class="st4" x1="871.5" y1="684.5" x2="871.5" y2="711.5"/>
	<line id="線_10" class="st4" x1="615" y1="684.5" x2="615" y2="711.5"/>
	<g class="st6">
		<path d="M560.1,681.2c-0.1,0.5-0.4,1-0.6,1.5c1.3,0.4,3.3,0.7,6.1,0.9l-0.6,1.5c-2.5-0.1-4.8-0.6-6.8-1.3
			c-1.1,0.7-2.6,1.2-4.4,1.4l-0.4-1.4c1.3-0.2,2.3-0.4,3.1-0.7c-0.5-0.3-0.9-0.5-1.3-0.9l1-0.9c0.7,0.4,1.3,0.7,1.7,0.9
			c0.2-0.2,0.4-0.6,0.5-0.9h-4v-5.1h4.2v-0.7h-4.9v-1.3h11.5v1.3h-4.9v0.7h4.2v5.1H560.1z M558.6,677.2h-2.4v0.8h2.4V677.2z
			 M558.6,679.1h-2.4v0.9h2.4C558.6,679.6,558.6,679.3,558.6,679.1z M562.8,680v-0.9h-2.5c0,0.2,0,0.5,0,0.9H562.8z M562.8,678v-0.8
			h-2.5v0.8H562.8z"/>
		<path d="M568.8,682.8c-0.6,0.7-1.2,1.3-1.9,1.8l-0.9-1.1c0.3-0.2,0.7-0.6,1.2-1.1s0.8-1,1.2-1.5h-1.8v-1.4h2.2v-0.8h-2.4v-1.4h1.2
			l-0.3-1.2h-0.7v-1.4h2.2v-1.1h1.7v1.1h2.1v1.4H572l-0.4,1.2h1.1v1.4h-2.2v0.8h1.9v1.4h-1.7c0.6,0.5,1.1,1,1.7,1.4l-0.8,1.3
			c-0.5-0.4-0.8-0.7-1.1-1v2.7h-1.7V682.8z M568.9,676.2l0.3,1.2h0.9l0.3-1.2H568.9z M577.5,685.1h-1.7v-6.2h-1
			c-0.1,2.6-0.6,4.7-1.7,6.3l-1.2-0.9c0.3-0.5,0.6-1.2,0.9-2.2c0.3-1,0.4-2.2,0.4-3.7v-3.7c1.8-0.1,3.4-0.4,4.7-0.8l0.7,1.3
			c-0.6,0.2-1.8,0.4-3.7,0.7v1.7h3.9v1.4h-1.2V685.1z"/>
		<path d="M590.1,683.7c0,0.4-0.2,0.7-0.5,1c-0.3,0.3-0.7,0.4-1.2,0.4h-2.1l-0.2-1.7h1.7c0.1,0,0.2,0,0.3-0.1
			c0.1-0.1,0.1-0.2,0.1-0.2v-1.8h-5.4c-0.2,0.8-0.5,1.6-0.9,2.3s-0.9,1.3-1.5,1.8l-1.2-1.1c0.6-0.6,1.1-1.2,1.3-1.8s0.5-1.2,0.6-1.8
			c0.1-0.6,0.1-1.2,0.1-2.1v-4.4h8.9V683.7z M588.2,679.7v-1.4H583c0,0.5,0,1,0,1.4H588.2z M588.2,676.8v-1.3H583v1.3H588.2z"/>
	</g>
	<g id="グループ_14" transform="translate(165 805)">
		<path id="パス_41" class="st1" d="M10,0L0,6.5L10,13V0z"/>
		<path id="パス_42" class="st1" d="M353.5,13l10-6.5l-10-6.5V13z"/>
		<rect id="長方形_271" x="7.9" y="3.6" class="st1" width="348.1" height="5"/>
	</g>
	<g id="グループ_16" transform="translate(790 805)">
		<path id="パス_41-2" class="st1" d="M10,0L0,6.5L10,13V0z"/>
		<rect id="長方形_271-2" x="7.9" y="3.6" class="st1" width="162.1" height="5"/>
	</g>
	<g class="st6">
		<path d="M628.9,721.1h-1.4c-1.7-2-2.5-4.3-2.5-6.8c0-2.5,0.8-4.8,2.5-6.8h1.4v0.1c-0.8,0.7-1.5,1.6-2,2.7c-0.6,1.3-0.9,2.6-0.9,4
			c0,1.4,0.3,2.8,0.9,4C627.5,719.4,628.1,720.3,628.9,721.1L628.9,721.1z"/>
		<path d="M637.7,720h-5.9v-1h2.3v-7.6h-2.3v-0.9c0.9,0,1.5-0.1,1.9-0.4c0.4-0.3,0.6-0.7,0.7-1.2h1V719h2.3V720z"/>
		<path d="M646.3,708v2.8h6.4v0.6c0,1.7,0,2.9-0.1,3.5c0,0.6-0.1,1.2-0.2,1.9c-0.1,0.7-0.2,1.3-0.4,1.7c-0.2,0.5-0.4,0.9-0.6,1.1
			c-0.2,0.3-0.5,0.5-0.9,0.6s-0.9,0.2-1.5,0.2c-0.7,0-1.6-0.1-2.6-0.3l0-1.1c0.9,0.2,1.7,0.3,2.4,0.3c0.4,0,0.7-0.1,1-0.2
			c0.3-0.1,0.6-0.4,0.8-0.9c0.2-0.5,0.4-1.2,0.6-2.1c0.1-0.9,0.2-2,0.2-3.3l0-0.9h-5.2c-0.2,2.3-0.7,4.1-1.7,5.5s-2.3,2.5-3.9,3.4
			l-0.6-0.8c1.5-0.9,2.7-2,3.5-3.2c0.8-1.2,1.3-2.9,1.5-4.8h-4.3v-1h4.4V708H646.3z"/>
		<path d="M665.4,720.7h-2.3l-0.1-1.1h1.9c0.4,0,0.6-0.2,0.6-0.6v-3.2h-7.7c-0.3,1.9-1.3,3.5-2.8,4.9l-0.7-0.6
			c0.7-0.7,1.3-1.5,1.8-2.6c0.5-1.1,0.7-2.5,0.7-4.3v-5.2h9.8v11.4c0,0.4-0.1,0.7-0.4,0.9C666,720.6,665.7,720.7,665.4,720.7z
			 M665.5,714.9v-2.7h-7.4v0.8c0,0.8,0,1.4-0.1,1.9H665.5z M665.5,711.4v-2.4h-7.4v2.4H665.5z"/>
		<path d="M681.1,720.1h-9v0.7h-1.2v-12.5h11.4v12.5h-1.2V720.1z M681.1,711.8v-2.7h-9v2.7H681.1z M672.1,715.3h9v-2.7h-9V715.3z
			 M672.1,719.2h9v-2.9h-9V719.2z"/>
		<path d="M689,714.2c0,2.5-0.8,4.8-2.5,6.8H685V721c0.8-0.7,1.5-1.6,2-2.7c0.6-1.3,0.9-2.6,0.9-4.1c0-1.4-0.3-2.8-0.9-4
			c-0.5-1.1-1.2-2-2-2.7v-0.1h1.4C688.1,709.5,689,711.7,689,714.2z"/>
	</g>
	<g class="st6">
		<path d="M715.9,721.1h-1.4c-1.7-2-2.5-4.3-2.5-6.8c0-2.5,0.8-4.8,2.5-6.8h1.4v0.1c-0.8,0.7-1.5,1.6-2,2.7c-0.6,1.3-0.9,2.6-0.9,4
			c0,1.4,0.3,2.8,0.9,4C714.5,719.4,715.1,720.3,715.9,721.1L715.9,721.1z"/>
		<path d="M725.3,720h-7.4v-1.4c0.8-0.7,1.7-1.5,2.6-2.4c1-0.9,1.7-1.7,2.2-2.4s0.7-1.4,0.7-2c0-0.6-0.2-1.1-0.6-1.4
			c-0.4-0.3-0.9-0.5-1.6-0.5c-1,0-2,0.3-3,1h-0.1v-1.4c1-0.5,2-0.7,3.1-0.7c1.1,0,2,0.3,2.6,0.8c0.6,0.5,1,1.3,1,2.2
			c0,0.5-0.1,1-0.2,1.4c-0.2,0.5-0.4,0.9-0.8,1.3s-0.8,0.9-1.2,1.4c-0.5,0.5-1.6,1.5-3.3,2.9h6V720z"/>
		<path d="M733.3,708v2.8h6.4v0.6c0,1.7,0,2.9-0.1,3.5c0,0.6-0.1,1.2-0.2,1.9c-0.1,0.7-0.2,1.3-0.4,1.7c-0.2,0.5-0.4,0.9-0.6,1.1
			c-0.2,0.3-0.5,0.5-0.9,0.6s-0.9,0.2-1.5,0.2c-0.7,0-1.6-0.1-2.6-0.3l0-1.1c0.9,0.2,1.7,0.3,2.4,0.3c0.4,0,0.7-0.1,1-0.2
			c0.3-0.1,0.6-0.4,0.8-0.9c0.2-0.5,0.4-1.2,0.6-2.1c0.1-0.9,0.2-2,0.2-3.3l0-0.9h-5.2c-0.2,2.3-0.7,4.1-1.7,5.5s-2.3,2.5-3.9,3.4
			l-0.6-0.8c1.5-0.9,2.7-2,3.5-3.2c0.8-1.2,1.3-2.9,1.5-4.8h-4.3v-1h4.4V708H733.3z"/>
		<path d="M752.4,720.7h-2.3l-0.1-1.1h1.9c0.4,0,0.6-0.2,0.6-0.6v-3.2h-7.7c-0.3,1.9-1.3,3.5-2.8,4.9l-0.7-0.6
			c0.7-0.7,1.3-1.5,1.8-2.6c0.5-1.1,0.7-2.5,0.7-4.3v-5.2h9.8v11.4c0,0.4-0.1,0.7-0.4,0.9C753,720.6,752.7,720.7,752.4,720.7z
			 M752.5,714.9v-2.7h-7.4v0.8c0,0.8,0,1.4-0.1,1.9H752.5z M752.5,711.4v-2.4h-7.4v2.4H752.5z"/>
		<path d="M768.1,720.1h-9v0.7h-1.2v-12.5h11.4v12.5h-1.2V720.1z M768.1,711.8v-2.7h-9v2.7H768.1z M759.1,715.3h9v-2.7h-9V715.3z
			 M759.1,719.2h9v-2.9h-9V719.2z"/>
		<path d="M776,714.2c0,2.5-0.8,4.8-2.5,6.8H772V721c0.8-0.7,1.5-1.6,2-2.7c0.6-1.3,0.9-2.6,0.9-4.1c0-1.4-0.3-2.8-0.9-4
			c-0.5-1.1-1.2-2-2-2.7v-0.1h1.4C775.1,709.5,776,711.7,776,714.2z"/>
	</g>
	<g class="st6">
		<path d="M797.9,721.1h-1.4c-1.7-2-2.5-4.3-2.5-6.8c0-2.5,0.8-4.8,2.5-6.8h1.4v0.1c-0.8,0.7-1.5,1.6-2,2.7c-0.6,1.3-0.9,2.6-0.9,4
			c0,1.4,0.3,2.8,0.9,4C796.5,719.4,797.1,720.3,797.9,721.1L797.9,721.1z"/>
		<path d="M800,719.5v-1.5h0.1c1,0.7,2,1,3.1,1c0.8,0,1.4-0.2,1.9-0.6c0.5-0.4,0.7-1,0.7-1.8c0-0.7-0.2-1.2-0.6-1.6s-1.1-0.5-2-0.5
			h-0.6v-1.1h0.5c0.8,0,1.4-0.2,1.9-0.5s0.7-0.8,0.7-1.4c0-0.5-0.2-0.9-0.6-1.2c-0.4-0.3-0.9-0.4-1.6-0.4c-1,0-2,0.3-3,1h-0.1v-1.4
			c1-0.5,2-0.7,3.1-0.7c1.1,0,2,0.2,2.6,0.7c0.6,0.5,0.9,1.1,0.9,1.9c0,0.6-0.2,1.1-0.6,1.6s-0.9,0.8-1.6,0.9v0.1
			c1.6,0.3,2.4,1.2,2.4,2.8c0,1-0.4,1.8-1.1,2.5s-1.7,1-2.8,1C802.1,720.2,801,720,800,719.5z"/>
		<path d="M815.3,708v2.8h6.4v0.6c0,1.7,0,2.9-0.1,3.5c0,0.6-0.1,1.2-0.2,1.9c-0.1,0.7-0.2,1.3-0.4,1.7c-0.2,0.5-0.4,0.9-0.6,1.1
			c-0.2,0.3-0.5,0.5-0.9,0.6s-0.9,0.2-1.5,0.2c-0.7,0-1.6-0.1-2.6-0.3l0-1.1c0.9,0.2,1.7,0.3,2.4,0.3c0.4,0,0.7-0.1,1-0.2
			c0.3-0.1,0.6-0.4,0.8-0.9c0.2-0.5,0.4-1.2,0.6-2.1c0.1-0.9,0.2-2,0.2-3.3l0-0.9h-5.2c-0.2,2.3-0.7,4.1-1.7,5.5s-2.3,2.5-3.9,3.4
			l-0.6-0.8c1.5-0.9,2.7-2,3.5-3.2c0.8-1.2,1.3-2.9,1.5-4.8h-4.3v-1h4.4V708H815.3z"/>
		<path d="M834.4,720.7h-2.3l-0.1-1.1h1.9c0.4,0,0.6-0.2,0.6-0.6v-3.2h-7.7c-0.3,1.9-1.3,3.5-2.8,4.9l-0.7-0.6
			c0.7-0.7,1.3-1.5,1.8-2.6c0.5-1.1,0.7-2.5,0.7-4.3v-5.2h9.8v11.4c0,0.4-0.1,0.7-0.4,0.9C835,720.6,834.7,720.7,834.4,720.7z
			 M834.5,714.9v-2.7h-7.4v0.8c0,0.8,0,1.4-0.1,1.9H834.5z M834.5,711.4v-2.4h-7.4v2.4H834.5z"/>
		<path d="M850.1,720.1h-9v0.7h-1.2v-12.5h11.4v12.5h-1.2V720.1z M850.1,711.8v-2.7h-9v2.7H850.1z M841.1,715.3h9v-2.7h-9V715.3z
			 M841.1,719.2h9v-2.9h-9V719.2z"/>
		<path d="M858,714.2c0,2.5-0.8,4.8-2.5,6.8H854V721c0.8-0.7,1.5-1.6,2-2.7c0.6-1.3,0.9-2.6,0.9-4.1c0-1.4-0.3-2.8-0.9-4
			c-0.5-1.1-1.2-2-2-2.7v-0.1h1.4C857.1,709.5,858,711.7,858,714.2z"/>
	</g>
	<g class="st6">
		<path d="M542.9,722.4h-1.2c-0.8-0.9-1.4-1.9-1.7-2.8s-0.5-1.9-0.5-3c0-2.1,0.8-4.1,2.3-5.8h1.2v0.1c-0.8,0.7-1.4,1.5-1.9,2.6
			s-0.7,2.1-0.7,3.2c0,1.1,0.2,2.2,0.7,3.2S542.1,721.7,542.9,722.4L542.9,722.4z"/>
		<path d="M550.4,720h-5.9v-1.1c0.6-0.5,1.3-1.2,2.1-1.9s1.4-1.3,1.7-1.9s0.6-1.1,0.6-1.6c0-0.5-0.2-0.9-0.5-1.1s-0.8-0.4-1.3-0.4
			c-0.8,0-1.6,0.3-2.4,0.8h-0.1v-1.1c0.8-0.4,1.6-0.6,2.4-0.6c0.9,0,1.6,0.2,2.1,0.6s0.8,1,0.8,1.8c0,0.4-0.1,0.8-0.2,1.1
			s-0.3,0.7-0.6,1.1s-0.6,0.7-1,1.1s-1.3,1.2-2.7,2.4h4.8V720z"/>
		<path d="M558.1,717.5h-1.3v2.5h-1.1v-2.5h-4.2v-1.2l4.3-5.1h1v5.4h1.3V717.5z M555.7,716.6v-4.1l-3.5,4.1H555.7z"/>
		<path d="M564.3,710.4v2.2h5.1v0.5c0,1.4,0,2.3-0.1,2.8s-0.1,1-0.2,1.5s-0.2,1-0.3,1.4s-0.3,0.7-0.5,0.9s-0.4,0.4-0.7,0.5
			s-0.7,0.2-1.2,0.2c-0.5,0-1.2-0.1-2.1-0.2l0-0.9c0.7,0.1,1.4,0.2,2,0.2c0.3,0,0.5,0,0.8-0.1s0.5-0.3,0.7-0.7s0.3-1,0.4-1.7
			s0.2-1.6,0.2-2.7l0-0.8h-4.2c-0.1,1.8-0.6,3.3-1.4,4.4s-1.8,2-3.1,2.7l-0.5-0.7c1.2-0.7,2.1-1.6,2.8-2.6s1-2.3,1.2-3.8h-3.5v-0.8
			h3.5v-2.2H564.3z"/>
		<path d="M579.6,720.6h-1.8l-0.1-0.9h1.5c0.3,0,0.5-0.2,0.5-0.5v-2.6h-6.1c-0.3,1.5-1,2.8-2.2,3.9l-0.6-0.5
			c0.6-0.5,1.1-1.2,1.4-2.1s0.6-2,0.6-3.4v-4.1h7.8v9.1c0,0.3-0.1,0.5-0.3,0.7S579.8,720.6,579.6,720.6z M579.7,716v-2.2h-5.9v0.6
			c0,0.6,0,1.1-0.1,1.5H579.7z M579.7,713.1v-2h-5.9v2H579.7z"/>
		<path d="M592.2,720.1h-7.2v0.6H584v-10h9.1v10h-0.9V720.1z M592.2,713.5v-2.1h-7.2v2.1H592.2z M584.9,716.3h7.2v-2.1h-7.2V716.3z
			 M584.9,719.3h7.2V717h-7.2V719.3z"/>
		<path d="M596.6,722.4h-1.2v-0.1c0.8-0.7,1.4-1.6,1.9-2.6s0.7-2.1,0.7-3.2c0-1.1-0.2-2.2-0.7-3.2s-1.1-1.9-1.9-2.6v-0.1h1.2
			c1.5,1.8,2.3,3.7,2.3,5.8c0,1.1-0.2,2.1-0.5,3S597.4,721.5,596.6,722.4z"/>
	</g>
	<g class="st6">
		<path class="st9" d="M606.5,711.4l-1.7,0.9l1.7,1l-0.3,0.5l-1.7-1l0,1.9h-0.6l0-1.9l-1.7,1l-0.3-0.5l1.7-1l-1.7-0.9l0.3-0.5l1.7,1
			l0-1.9h0.6l0,1.9l1.7-1L606.5,711.4z"/>
	</g>
	<g class="st6">
		<path d="M542.9,741.4h-1.2c-0.8-0.9-1.4-1.9-1.7-2.8s-0.5-1.9-0.5-3c0-2.1,0.8-4.1,2.3-5.8h1.2v0.1c-0.8,0.7-1.4,1.5-1.9,2.6
			s-0.7,2.1-0.7,3.2c0,1.1,0.2,2.2,0.7,3.2S542.1,740.7,542.9,741.4L542.9,741.4z"/>
		<path d="M544.6,738.6v-1.2h0.1c0.8,0.5,1.6,0.8,2.5,0.8c0.6,0,1.1-0.2,1.5-0.5s0.6-0.8,0.6-1.4c0-0.6-0.2-1-0.5-1.2
			s-0.9-0.4-1.6-0.4h-0.5v-0.9h0.4c0.6,0,1.1-0.1,1.5-0.4s0.5-0.6,0.5-1.1c0-0.4-0.2-0.7-0.5-1s-0.7-0.3-1.3-0.3
			c-0.8,0-1.6,0.3-2.4,0.8h-0.1v-1.2c0.8-0.4,1.6-0.6,2.5-0.6c0.9,0,1.6,0.2,2.1,0.6s0.7,0.9,0.7,1.5c0,0.5-0.2,0.9-0.5,1.3
			s-0.7,0.6-1.2,0.7v0.1c1.3,0.2,1.9,1,1.9,2.2c0,0.8-0.3,1.5-0.9,2s-1.3,0.8-2.3,0.8C546.3,739.2,545.4,739,544.6,738.6z"/>
		<path d="M557.2,730.1v1h-0.1c-0.3-0.2-0.7-0.2-1.1-0.2c-0.9,0-1.6,0.3-2.1,0.8s-0.8,1.3-0.9,2.3c0.7-0.4,1.5-0.7,2.2-0.7
			c0.9,0,1.5,0.2,2.1,0.7s0.8,1.2,0.8,2c0,0.9-0.3,1.6-0.9,2.2s-1.3,0.9-2.2,0.9c-1,0-1.8-0.3-2.3-1s-0.8-1.7-0.8-3
			c0-1.6,0.4-2.9,1.1-3.8s1.8-1.3,3.2-1.3C556.5,730,556.9,730.1,557.2,730.1z M553,734.8c0,0.3,0,0.5,0,0.6c0,0.9,0.2,1.6,0.5,2.2
			s0.9,0.8,1.5,0.8c0.6,0,1.1-0.2,1.4-0.6s0.5-0.9,0.5-1.5c0-0.6-0.2-1-0.5-1.4s-0.8-0.5-1.6-0.5C554.2,734.3,553.6,734.5,553,734.8
			z"/>
		<path d="M564.3,729.4v2.2h5.1v0.5c0,1.4,0,2.3-0.1,2.8s-0.1,1-0.2,1.5s-0.2,1-0.3,1.4s-0.3,0.7-0.5,0.9s-0.4,0.4-0.7,0.5
			s-0.7,0.2-1.2,0.2c-0.5,0-1.2-0.1-2.1-0.2l0-0.9c0.7,0.1,1.4,0.2,2,0.2c0.3,0,0.5,0,0.8-0.1s0.5-0.3,0.7-0.7s0.3-1,0.4-1.7
			s0.2-1.6,0.2-2.7l0-0.8h-4.2c-0.1,1.8-0.6,3.3-1.4,4.4s-1.8,2-3.1,2.7l-0.5-0.7c1.2-0.7,2.1-1.6,2.8-2.6s1-2.3,1.2-3.8h-3.5v-0.8
			h3.5v-2.2H564.3z"/>
		<path d="M579.6,739.6h-1.8l-0.1-0.9h1.5c0.3,0,0.5-0.2,0.5-0.5v-2.6h-6.1c-0.3,1.5-1,2.8-2.2,3.9l-0.6-0.5
			c0.6-0.5,1.1-1.2,1.4-2.1s0.6-2,0.6-3.4v-4.1h7.8v9.1c0,0.3-0.1,0.5-0.3,0.7S579.8,739.6,579.6,739.6z M579.7,735v-2.2h-5.9v0.6
			c0,0.6,0,1.1-0.1,1.5H579.7z M579.7,732.1v-2h-5.9v2H579.7z"/>
		<path d="M592.2,739.1h-7.2v0.6H584v-10h9.1v10h-0.9V739.1z M592.2,732.5v-2.1h-7.2v2.1H592.2z M584.9,735.3h7.2v-2.1h-7.2V735.3z
			 M584.9,738.3h7.2V736h-7.2V738.3z"/>
		<path d="M596.6,741.4h-1.2v-0.1c0.8-0.7,1.4-1.6,1.9-2.6s0.7-2.1,0.7-3.2c0-1.1-0.2-2.2-0.7-3.2s-1.1-1.9-1.9-2.6v-0.1h1.2
			c1.5,1.8,2.3,3.7,2.3,5.8c0,1.1-0.2,2.1-0.5,3S597.4,740.5,596.6,741.4z"/>
	</g>
	<g class="st6">
		<path class="st9" d="M606.5,730.4l-1.7,0.9l1.7,1l-0.3,0.5l-1.7-1l0,1.9h-0.6l0-1.9l-1.7,1l-0.3-0.5l1.7-1l-1.7-0.9l0.3-0.5l1.7,1
			l0-1.9h0.6l0,1.9l1.7-1L606.5,730.4z"/>
	</g>
	<g class="st6">
		<path class="st10" d="M202.9,721.1h-1.4c-1.7-2-2.5-4.3-2.5-6.8c0-2.5,0.8-4.8,2.5-6.8h1.4v0.1c-0.8,0.7-1.5,1.6-2,2.7
			c-0.6,1.3-0.9,2.6-0.9,4c0,1.4,0.3,2.8,0.9,4C201.5,719.4,202.1,720.3,202.9,721.1L202.9,721.1z"/>
		<path class="st10" d="M211.7,720h-5.9v-1h2.3v-7.6h-2.3v-0.9c0.9,0,1.5-0.1,1.9-0.4c0.4-0.3,0.6-0.7,0.7-1.2h1V719h2.3V720z"/>
		<path class="st10" d="M220.3,708v2.8h6.4v0.6c0,1.7,0,2.9-0.1,3.5c0,0.6-0.1,1.2-0.2,1.9c-0.1,0.7-0.2,1.3-0.4,1.7
			c-0.2,0.5-0.4,0.9-0.6,1.1c-0.2,0.3-0.5,0.5-0.9,0.6s-0.9,0.2-1.5,0.2c-0.7,0-1.6-0.1-2.6-0.3l0-1.1c0.9,0.2,1.7,0.3,2.4,0.3
			c0.4,0,0.7-0.1,1-0.2c0.3-0.1,0.6-0.4,0.8-0.9c0.2-0.5,0.4-1.2,0.6-2.1c0.1-0.9,0.2-2,0.2-3.3l0-0.9h-5.2
			c-0.2,2.3-0.7,4.1-1.7,5.5s-2.3,2.5-3.9,3.4l-0.6-0.8c1.5-0.9,2.7-2,3.5-3.2c0.8-1.2,1.3-2.9,1.5-4.8h-4.3v-1h4.4V708H220.3z"/>
		<path class="st10" d="M239.4,720.7h-2.3l-0.1-1.1h1.9c0.4,0,0.6-0.2,0.6-0.6v-3.2h-7.7c-0.3,1.9-1.3,3.5-2.8,4.9l-0.7-0.6
			c0.7-0.7,1.3-1.5,1.8-2.6c0.5-1.1,0.7-2.5,0.7-4.3v-5.2h9.8v11.4c0,0.4-0.1,0.7-0.4,0.9C240,720.6,239.7,720.7,239.4,720.7z
			 M239.5,714.9v-2.7h-7.4v0.8c0,0.8,0,1.4-0.1,1.9H239.5z M239.5,711.4v-2.4h-7.4v2.4H239.5z"/>
		<path class="st10" d="M255.1,720.1h-9v0.7h-1.2v-12.5h11.4v12.5h-1.2V720.1z M255.1,711.8v-2.7h-9v2.7H255.1z M246.1,715.3h9v-2.7
			h-9V715.3z M246.1,719.2h9v-2.9h-9V719.2z"/>
		<path class="st10" d="M263,714.2c0,2.5-0.8,4.8-2.5,6.8H259V721c0.8-0.7,1.5-1.6,2-2.7c0.6-1.3,0.9-2.6,0.9-4.1
			c0-1.4-0.3-2.8-0.9-4c-0.5-1.1-1.2-2-2-2.7v-0.1h1.4C262.1,709.5,263,711.7,263,714.2z"/>
	</g>
	<g class="st6">
		<path class="st10" d="M288.4,721.1H287c-1.7-2-2.5-4.3-2.5-6.8c0-2.5,0.8-4.8,2.5-6.8h1.4v0.1c-0.8,0.7-1.5,1.6-2,2.7
			c-0.6,1.3-0.9,2.6-0.9,4c0,1.4,0.3,2.8,0.9,4C287,719.4,287.6,720.3,288.4,721.1L288.4,721.1z"/>
		<path class="st10" d="M297.8,720h-7.4v-1.4c0.8-0.7,1.7-1.5,2.6-2.4c1-0.9,1.7-1.7,2.2-2.4s0.7-1.4,0.7-2c0-0.6-0.2-1.1-0.6-1.4
			s-0.9-0.5-1.6-0.5c-1,0-2,0.3-3,1h-0.1v-1.4c1-0.5,2-0.7,3.1-0.7c1.1,0,2,0.3,2.6,0.8c0.6,0.5,1,1.3,1,2.2c0,0.5-0.1,1-0.2,1.4
			c-0.2,0.5-0.4,0.9-0.8,1.3s-0.8,0.9-1.2,1.4c-0.5,0.5-1.6,1.5-3.3,2.9h6V720z"/>
		<path class="st10" d="M305.8,708v2.8h6.4v0.6c0,1.7,0,2.9-0.1,3.5c0,0.6-0.1,1.2-0.2,1.9c-0.1,0.7-0.2,1.3-0.4,1.7
			c-0.2,0.5-0.4,0.9-0.6,1.1c-0.2,0.3-0.5,0.5-0.9,0.6s-0.9,0.2-1.5,0.2c-0.7,0-1.6-0.1-2.6-0.3l0-1.1c0.9,0.2,1.7,0.3,2.4,0.3
			c0.4,0,0.7-0.1,1-0.2c0.3-0.1,0.6-0.4,0.8-0.9c0.2-0.5,0.4-1.2,0.6-2.1c0.1-0.9,0.2-2,0.2-3.3l0-0.9h-5.2
			c-0.2,2.3-0.7,4.1-1.7,5.5s-2.3,2.5-3.9,3.4l-0.6-0.8c1.5-0.9,2.7-2,3.5-3.2c0.8-1.2,1.3-2.9,1.5-4.8h-4.3v-1h4.4V708H305.8z"/>
		<path class="st10" d="M324.9,720.7h-2.3l-0.1-1.1h1.9c0.4,0,0.6-0.2,0.6-0.6v-3.2h-7.7c-0.3,1.9-1.3,3.5-2.8,4.9l-0.7-0.6
			c0.7-0.7,1.3-1.5,1.8-2.6c0.5-1.1,0.7-2.5,0.7-4.3v-5.2h9.8v11.4c0,0.4-0.1,0.7-0.4,0.9C325.5,720.6,325.2,720.7,324.9,720.7z
			 M325,714.9v-2.7h-7.4v0.8c0,0.8,0,1.4-0.1,1.9H325z M325,711.4v-2.4h-7.4v2.4H325z"/>
		<path class="st10" d="M340.6,720.1h-9v0.7h-1.2v-12.5h11.4v12.5h-1.2V720.1z M340.6,711.8v-2.7h-9v2.7H340.6z M331.6,715.3h9v-2.7
			h-9V715.3z M331.6,719.2h9v-2.9h-9V719.2z"/>
		<path class="st10" d="M348.5,714.2c0,2.5-0.8,4.8-2.5,6.8h-1.4V721c0.8-0.7,1.5-1.6,2-2.7c0.6-1.3,0.9-2.6,0.9-4.1
			c0-1.4-0.3-2.8-0.9-4c-0.5-1.1-1.2-2-2-2.7v-0.1h1.4C347.6,709.5,348.5,711.7,348.5,714.2z"/>
	</g>
	<g class="st6">
		<path class="st10" d="M373.9,721.1h-1.4c-1.7-2-2.5-4.3-2.5-6.8c0-2.5,0.8-4.8,2.5-6.8h1.4v0.1c-0.8,0.7-1.5,1.6-2,2.7
			c-0.6,1.3-0.9,2.6-0.9,4c0,1.4,0.3,2.8,0.9,4C372.5,719.4,373.1,720.3,373.9,721.1L373.9,721.1z"/>
		<path class="st10" d="M376,719.5v-1.5h0.1c1,0.7,2,1,3.1,1c0.8,0,1.4-0.2,1.9-0.6c0.5-0.4,0.7-1,0.7-1.8c0-0.7-0.2-1.2-0.6-1.6
			s-1.1-0.5-2-0.5h-0.6v-1.1h0.5c0.8,0,1.4-0.2,1.9-0.5s0.7-0.8,0.7-1.4c0-0.5-0.2-0.9-0.6-1.2c-0.4-0.3-0.9-0.4-1.6-0.4
			c-1,0-2,0.3-3,1h-0.1v-1.4c1-0.5,2-0.7,3.1-0.7c1.1,0,2,0.2,2.6,0.7c0.6,0.5,0.9,1.1,0.9,1.9c0,0.6-0.2,1.1-0.6,1.6
			s-0.9,0.8-1.6,0.9v0.1c1.6,0.3,2.4,1.2,2.4,2.8c0,1-0.4,1.8-1.1,2.5s-1.7,1-2.8,1C378.1,720.2,377,720,376,719.5z"/>
		<path class="st10" d="M391.3,708v2.8h6.4v0.6c0,1.7,0,2.9-0.1,3.5c0,0.6-0.1,1.2-0.2,1.9c-0.1,0.7-0.2,1.3-0.4,1.7
			c-0.2,0.5-0.4,0.9-0.6,1.1c-0.2,0.3-0.5,0.5-0.9,0.6s-0.9,0.2-1.5,0.2c-0.7,0-1.6-0.1-2.6-0.3l0-1.1c0.9,0.2,1.7,0.3,2.4,0.3
			c0.4,0,0.7-0.1,1-0.2c0.3-0.1,0.6-0.4,0.8-0.9c0.2-0.5,0.4-1.2,0.6-2.1c0.1-0.9,0.2-2,0.2-3.3l0-0.9h-5.2
			c-0.2,2.3-0.7,4.1-1.7,5.5s-2.3,2.5-3.9,3.4l-0.6-0.8c1.5-0.9,2.7-2,3.5-3.2c0.8-1.2,1.3-2.9,1.5-4.8h-4.3v-1h4.4V708H391.3z"/>
		<path class="st10" d="M410.4,720.7h-2.3l-0.1-1.1h1.9c0.4,0,0.6-0.2,0.6-0.6v-3.2h-7.7c-0.3,1.9-1.3,3.5-2.8,4.9l-0.7-0.6
			c0.7-0.7,1.3-1.5,1.8-2.6c0.5-1.1,0.7-2.5,0.7-4.3v-5.2h9.8v11.4c0,0.4-0.1,0.7-0.4,0.9C411,720.6,410.7,720.7,410.4,720.7z
			 M410.5,714.9v-2.7h-7.4v0.8c0,0.8,0,1.4-0.1,1.9H410.5z M410.5,711.4v-2.4h-7.4v2.4H410.5z"/>
		<path class="st10" d="M426.1,720.1h-9v0.7h-1.2v-12.5h11.4v12.5h-1.2V720.1z M426.1,711.8v-2.7h-9v2.7H426.1z M417.1,715.3h9v-2.7
			h-9V715.3z M417.1,719.2h9v-2.9h-9V719.2z"/>
		<path class="st10" d="M434,714.2c0,2.5-0.8,4.8-2.5,6.8H430V721c0.8-0.7,1.5-1.6,2-2.7c0.6-1.3,0.9-2.6,0.9-4.1
			c0-1.4-0.3-2.8-0.9-4c-0.5-1.1-1.2-2-2-2.7v-0.1h1.4C433.1,709.5,434,711.7,434,714.2z"/>
	</g>
	<g class="st6">
		<path class="st10" d="M493.1,713.6c-0.3,0.7-0.7,1.3-1.1,1.8c-0.7,0.8-1.5,1.2-2.3,1.2c-0.6,0-1.2-0.2-1.8-0.5
			c-0.3-0.2-0.9-0.6-1.8-1.2c-0.7-0.5-1.2-0.8-1.3-0.9c-0.4-0.3-0.9-0.4-1.4-0.4c-0.4,0-0.8,0.2-1.2,0.5c-0.4,0.3-0.7,0.7-0.9,1.1
			c-0.2,0.3-0.3,0.6-0.4,0.8l-0.9-0.4c0.3-0.7,0.7-1.3,1-1.7c0.7-0.8,1.5-1.2,2.4-1.2c0.7,0,1.3,0.2,2,0.6c0.5,0.4,1.1,0.7,1.6,1.1
			c0.7,0.5,1.2,0.8,1.3,0.9c0.5,0.3,0.9,0.4,1.3,0.4c0.8,0,1.5-0.5,2.1-1.6c0.1-0.2,0.2-0.5,0.4-0.8L493.1,713.6z"/>
	</g>
	<g class="st6">
		<path class="st10" d="M920.1,713.6c-0.3,0.7-0.7,1.3-1.1,1.8c-0.7,0.8-1.5,1.2-2.3,1.2c-0.6,0-1.2-0.2-1.8-0.5
			c-0.3-0.2-0.9-0.6-1.8-1.2c-0.7-0.5-1.2-0.8-1.3-0.9c-0.4-0.3-0.9-0.4-1.4-0.4c-0.4,0-0.8,0.2-1.2,0.5c-0.4,0.3-0.7,0.7-0.9,1.1
			c-0.2,0.3-0.3,0.6-0.4,0.8l-0.9-0.4c0.3-0.7,0.7-1.3,1-1.7c0.7-0.8,1.5-1.2,2.4-1.2c0.7,0,1.3,0.2,2,0.6c0.5,0.4,1.1,0.7,1.6,1.1
			c0.7,0.5,1.2,0.8,1.3,0.9c0.5,0.3,0.9,0.4,1.3,0.4c0.8,0,1.5-0.5,2.1-1.6c0.1-0.2,0.2-0.5,0.4-0.8L920.1,713.6z"/>
	</g>
	<g id="グループ_99">
		<ellipse id="楕円形_12" class="st11" cx="127.5" cy="748.5" rx="28.5" ry="29.5"/>
		<path id="パス_49" class="st11" d="M133,723.8c6.2,0,21.7-19.2,21.7-19.2L144,743C144,743,126.7,723.8,133,723.8z"/>
	</g>
	<g class="st6">
		<path class="st7" d="M112.8,737.9l-0.2-0.9c0.6-0.1,1.5-0.2,2.8-0.4v-1.8h-2.3V734h2.3v-1.4H113v-0.8h2.4v-1h1.1v1h2.4v0.8h-2.4
			v1.4h2.1v0.8h-2.1v1.6l2.4-0.4l0,0.8C117.4,737.2,115.3,737.6,112.8,737.9z M119.4,740.6c-0.5,0.9-1.4,1.7-2.5,2.3s-2.4,0.9-3.7,1
			l-0.3-0.9c1.2-0.1,2.4-0.4,3.4-0.9c1-0.5,1.7-1.1,2.1-1.9h-5.6v-0.9h6c0-0.1,0-0.3,0-0.5v-0.5h1.2c0,0.2,0,0.5,0,1h6.4v0.9h-6
			c0.6,0.6,1.3,1.2,2.4,1.8c1,0.5,2.1,0.9,3.2,1l-0.5,0.9C122.7,743.5,120.7,742.4,119.4,740.6z M119.9,737.8l-0.7-0.6
			c0.6-0.5,1.1-1.1,1.5-2c0.4-0.8,0.6-1.9,0.6-3.3h-1.7v-0.8h6.1v1.9c0,0.6,0,1.3-0.1,2.1s-0.1,1.3-0.3,1.6s-0.3,0.6-0.6,0.7
			s-0.5,0.3-0.9,0.3c-0.3,0-0.8,0-1.4,0h-0.1l-0.1-1c0.7,0,1.1,0,1.3,0c0.2,0,0.3-0.1,0.5-0.2c0.2-0.1,0.3-0.4,0.4-0.9
			s0.1-1.1,0.1-1.9v-1.7h-2.1v0.1C122.5,734.6,121.6,736.5,119.9,737.8z"/>
		<path class="st7" d="M128.5,742.6l-1-0.2c0.4-1.2,0.6-2.4,0.7-3.7l1.1,0.1C129,740.7,128.7,742,128.5,742.6z M130.1,743.9v-6.3
			c-1,0.1-1.8,0.1-2.5,0.1l-0.1-0.9l1,0c0.4-0.5,0.8-1,1.3-1.6c-0.7-0.7-1.4-1.4-2.2-2.2l0.7-0.7c0.1,0,0.1,0.1,0.3,0.2
			c0.6-0.8,1.1-1.6,1.5-2.3l1,0.4c-0.5,0.8-1.1,1.6-1.8,2.5l1.2,1.2c0.8-1,1.3-1.9,1.7-2.5l1,0.4c-1.1,1.6-2.2,3-3.5,4.4l2.4-0.1
			c-0.2-0.5-0.3-0.9-0.4-1.1l0.9-0.2c0.4,1.1,0.7,1.9,0.8,2.4l-0.9,0.2c0-0.1-0.1-0.3-0.1-0.5c-0.4,0-0.8,0.1-1.1,0.1v6.3H130.1z
			 M132.8,742l-0.5-3.1l1-0.1l0.5,3.1L132.8,742z M140.8,737.3c0,1.4-0.1,2.5-0.2,3.5c-0.1,0.9-0.2,1.6-0.3,1.9s-0.3,0.6-0.7,0.8
			c-0.3,0.2-0.7,0.3-1.1,0.3s-1.1,0-2,0l-0.2-1c0.4,0,0.8,0,1.1,0c0.5,0,0.8,0,1-0.1c0.2,0,0.3-0.1,0.5-0.3c0.2-0.2,0.3-0.4,0.4-0.7
			s0.2-0.9,0.2-1.8c0.1-0.9,0.1-2,0.1-3.4v-3.3h-4c-0.4,1.1-0.9,2.1-1.5,2.9l-0.9-0.4c1-1.5,1.7-3.2,2-5.2l1.2,0.2
			c-0.1,0.4-0.2,1-0.5,1.7h4.9V737.3z M136.8,739.4c-0.7-1.9-1.2-3.1-1.5-3.7l1-0.4c0.5,0.9,1,2.1,1.5,3.7L136.8,739.4z"/>
	</g>
	<g class="st6">
		<path class="st7" d="M106.9,753.6v8.3h-1.1V749h5.3v4.6H106.9z M106.9,751h3.1v-1.1h-3.1V751z M109.9,751.7h-3.1v1.1h3.1V751.7z
			 M108.7,761.6l-0.6-0.7c0.9-0.6,1.4-1.5,1.6-2.7h-1.7v-0.9h1.8v-1.8h-1.4v-0.9h7.2v0.9h-1.5v1.8h1.9v0.9h-1.9v3.3H113v-3.3h-2.2
			C110.6,759.6,109.9,760.8,108.7,761.6z M110.8,755.5v1.3c0,0.2,0,0.3,0,0.5h2.2v-1.8H110.8z M116.9,761.8h-1.8l-0.1-1h1.4
			c0.4,0,0.6-0.2,0.6-0.5v-6.7h-4.2V749h5.4v11.7c0,0.3-0.1,0.6-0.4,0.8C117.6,761.7,117.3,761.8,116.9,761.8z M113.9,751h3.1v-1.1
			h-3.1V751z M117,751.7h-3.1v1.1h3.1V751.7z"/>
		<path class="st7" d="M120.3,761.9l-0.5-0.7c1-0.7,1.9-1.4,2.5-2.3c-0.6-0.4-1.2-0.9-1.8-1.3c-0.1-0.1-0.1-0.1-0.1-0.3
			c0,0,0-0.2,0.1-0.4c0.1-0.3,0.2-0.8,0.3-1.6c0.1-0.8,0.3-1.8,0.5-2.9h-1.2v-0.9h1.3c0.2-1.4,0.3-2.4,0.4-2.9l1.2,0.1
			c0,0.5-0.2,1.5-0.4,2.8h2.6v0.9c0,2.6-0.5,4.7-1.4,6.3c0.7,0.6,1.2,1,1.5,1.3l-0.7,0.8c-0.3-0.3-0.8-0.8-1.4-1.3
			C122.4,760.4,121.5,761.2,120.3,761.9z M122.9,758c0.8-1.4,1.2-3.2,1.2-5.4v-0.3h-1.6c-0.4,2.5-0.7,4.1-0.9,4.7L122.9,758z
			 M125.9,754.2l-0.1-0.9l1-0.1c0.8-1.6,1.4-3.2,1.8-4.8l1.2,0.2c-0.5,1.7-1.2,3.2-1.8,4.5c1.8-0.1,3.2-0.2,4.2-0.4
			c-0.4-0.8-0.9-1.5-1.3-2.1l1-0.5c1,1.5,1.8,2.8,2.4,4l-1.1,0.4c-0.1-0.3-0.3-0.7-0.5-1.1C131.2,753.8,129,754,125.9,754.2z
			 M131.9,761.3h-4.6v0.5h-1.1v-6h6.9v6h-1.1V761.3z M127.3,760.4h4.6v-3.8h-4.6V760.4z"/>
		<path class="st7" d="M146.1,760.9h-8.4v0.7h-1.1v-12.3h10.6v12.3h-1.1V760.9z M146.1,754.5v-4.2h-8.4v4.2H146.1z M137.7,760h8.4
			v-4.6h-8.4V760z"/>
	</g>
	<path id="パス_53" class="st12" d="M533,748h61.4l16.5,19.8L594.4,787H533V748z"/>
	<g id="グループ_100" transform="translate(550.582 796)">
		<path id="パス_43-2" class="st11" d="M216.4,0v31l16-14.7L216.4,0z"/>
		<path id="パス_58" class="st11" d="M-0.6,31V0l-16,14.7L-0.6,31z"/>
		<rect id="長方形_270-2" x="-0.6" class="st11" width="217" height="31"/>
	</g>
	<g class="st6">
		<path class="st8" d="M567.6,814.8v-0.9h-1v-1.2h5.5V812h-5.2v-2.8h9.1v2.8h-1.7v0.7h2.3v1.2h-2.3v0.9h2.7v1.3h-2.7v1
			c1.6,0,2.5,0,3-0.1l-0.4,1.6c-3,0-5,0-5.9,0l-2.1,0c-0.5,0-1.2-0.1-2-0.2c-0.9-0.3-1.5-0.7-1.9-1.2c-0.8,0.8-1.7,1.4-2.4,1.8
			l-0.7-1.9c0.7-0.3,1.3-0.6,1.9-1.1v-4.1h-1.5v-1.7h3.5v5.3c0,0.5,0.2,0.9,0.7,1.2s1.1,0.4,1.9,0.4s2,0,3.7,0v-1h-5.9v-1.3H567.6z
			 M566,808.1l-2,0.8c-0.3-0.8-0.9-1.9-1.8-3.3l1.8-0.7C564.6,805.7,565.3,806.8,566,808.1z M576.7,808.6h-10.4v-1.2h2.4l0.2-0.8
			h-1.7v-1.1h2.1l0.2-0.8l2.1,0.1l-0.2,0.7h4.3v2h1V808.6z M573.9,811.1v-0.9h-5v0.9H573.9z M569.6,813.9v0.9h2.5v-0.9H569.6z
			 M570.8,807.4h2.9v-0.8h-2.7L570.8,807.4z"/>
		<path class="st8" d="M580.3,813.4c-0.1,0.7-0.2,1.6-0.4,2.5s-0.4,1.6-0.6,2.1l-1.5-0.3c0.5-1.8,0.7-3.2,0.8-4.4L580.3,813.4z
			 M582.6,818.9h-2v-6.1c-1.1,0.1-1.9,0.2-2.4,0.2l-0.2-1.6c0.3,0,0.7,0,1.2,0c0.3-0.3,0.6-0.7,1-1.3c-0.7-0.8-1.5-1.6-2.3-2.4
			l1.2-1.2c0.1,0.1,0.2,0.2,0.3,0.3c0.6-0.8,1-1.6,1.3-2.3l1.8,0.6c-0.6,1-1.2,1.9-1.9,2.8l0.7,0.8c0.7-1,1.2-1.9,1.6-2.5l1.7,0.8
			c-1,1.5-2.1,2.9-3.2,4.4c0.5,0,1.1-0.1,1.7-0.1c-0.2-0.6-0.3-1-0.4-1.2l1.5-0.4c0.3,0.7,0.6,1.8,1.1,3.1l-1.6,0.4
			c0-0.1,0-0.3-0.1-0.5c-0.2,0-0.4,0.1-0.8,0.1V818.9z M585,816.7l-1.6,0.2c-0.3-1.6-0.5-2.8-0.5-3.4l1.6-0.2L585,816.7z
			 M587.3,818.7l-0.3-1.9h2c0.5,0,0.8-0.2,0.9-0.7s0.2-1.3,0.2-2.4l0-2.4v-3.2H587c-0.3,0.8-0.7,1.6-1.1,2.4l-1.6-0.8
			c0.5-1.1,0.8-2.1,1-2.8s0.4-1.6,0.5-2.4l2.1,0.2c-0.1,0.6-0.2,1.2-0.4,1.8h4.7c0,0.4,0,1,0,1.8c0,3.3,0,5.3-0.1,6.2
			c-0.1,1.4-0.2,2.3-0.3,2.7s-0.4,0.7-0.8,1s-0.7,0.4-1,0.5C589.8,818.7,588.9,818.7,587.3,818.7z M588.9,814.1l-2,0.7
			c-0.6-1.8-1.1-3.2-1.6-4.1l1.8-0.7C587.7,810.9,588.3,812.2,588.9,814.1z"/>
		<path class="st8" d="M597,816.8c-0.4-1.1-0.8-1.9-1.1-2.6l1.9-0.5c0.4,0.9,0.9,1.9,1.3,3.1h1.2v-3.2h-5.2v-1.7h5.2v-1.4h-2.7V810
			c-0.9,0.6-1.9,1.1-2.9,1.6l-1-1.5c1.3-0.5,2.6-1.3,4-2.4s2.4-2,2.8-2.9h2c0.3,0.4,0.8,1,1.7,1.8s1.7,1.4,2.5,1.9s1.7,0.9,2.8,1.3
			l-1.2,1.7c-0.9-0.3-1.8-0.8-2.8-1.4v0.6h-2.9v1.4h5.3v1.7h-5.3v3.2h1.3c0.6-1.3,1.1-2.4,1.3-3.1l2.2,0.6c-0.2,0.5-0.6,1.3-1.3,2.5
			h2.6v1.8h-14.2v-1.8H597z M599.2,809h5c-1.1-0.8-1.9-1.6-2.5-2.3C601,807.4,600.2,808.2,599.2,809z"/>
		<path class="st8" d="M618.7,818.9h-2.3v-7.7c-1.5,1.6-3.4,3-5.5,4.2l-1.2-1.6c3.1-1.8,5.4-4,7.1-6.5h-6.4v-1.8h14.4v1.8h-5.4
			c-0.3,0.6-0.7,1.1-1.1,1.6h0.5v1.5l1-1.1c0.5,0.6,1.4,1.3,2.4,2.1s2.2,1.6,3.3,2.1l-1.4,1.8c-1.9-1.1-3.7-2.5-5.4-4.2V818.9z"/>
		<path class="st8" d="M638.3,814.4c-0.4,0.7-0.8,1.2-1.4,1.7c0.9,0.2,2.1,0.6,3.6,1l-1.3,1.7c-0.5-0.2-1.9-0.6-4.2-1.3
			c-1.8,0.8-4.4,1.2-8,1.3l-0.4-1.7c2.5-0.1,4.4-0.3,5.7-0.5l-3-0.4c-0.3,0-0.5-0.2-0.5-0.6c0-0.1,0-0.2,0.1-0.2
			c0.2-0.3,0.4-0.6,0.5-0.9h-3.1v-1.6h3.9c0.1-0.3,0.3-0.6,0.4-0.9h-3.5v-4h3.6V807h-4.3v-1.6h14.2v1.6h-4.5v0.8h3.7v4h-7.1
			c-0.1,0.2-0.2,0.5-0.4,0.9h8.4v1.6H638.3z M630.8,809.2h-1.6v1.2h1.6V809.2z M634.6,815.6c0.5-0.3,0.9-0.7,1.3-1.2h-4.2
			c-0.1,0.2-0.2,0.4-0.3,0.6L634.6,815.6z M632.7,807v0.8h1.6V807H632.7z M634.4,809.2h-1.6v1.2h1.6V809.2z M638,810.4v-1.2h-1.7
			v1.2H638z"/>
		<path class="st8" d="M646,815.6c-0.4,0.7-0.8,1.3-1.4,1.9s-1.1,1.1-1.6,1.4l-1.3-1.3c0.9-0.7,1.7-1.5,2.4-2.5h-2v-1.6h1.1v-5.7
			h-0.8v-1.6h0.8v-1.3h1.9v1.3h2.4v-1.3h1.9v1.3h0.8v1.6h-0.8v5.7h0.8v1.6h-2.2c0.5,0.7,1,1.3,1.7,2l-1.4,1.2
			c-0.7-0.6-1.4-1.5-2.1-2.7l0.8-0.4H645L646,815.6z M645.1,807.8v1h2.4v-1H645.1z M645.1,810.1v1.1h2.4v-1.1H645.1z M645.1,813.4
			h2.4v-1h-2.4V813.4z M656.3,817.4c0,0.4-0.1,0.7-0.4,0.9s-0.6,0.4-1.1,0.4h-1.8l-0.2-1.7h1.1c0.1,0,0.2,0,0.3-0.1s0.1-0.2,0.1-0.3
			v-3.2h-1.7c-0.1,2.1-0.7,4-1.7,5.6l-1.6-1.1c0.4-0.6,0.6-1.2,0.9-1.8s0.3-1.3,0.4-1.9s0.1-1.4,0.1-2.3V805h5.5V817.4z
			 M654.4,808.4v-1.9h-1.7v1.9H654.4z M654.4,811.9v-2h-1.7v2H654.4z"/>
		<path class="st8" d="M664.9,810.5h-4.2v8.4h-2.1V805h6.3V810.5z M662.9,807.2v-1h-2.3v1H662.9z M662.9,809.3v-1h-2.3v1H662.9z
			 M664.1,817.9v0.4h-2v-6.8h6.7v6.5H664.1z M666.7,813.8v-1.1h-2.7v1.1H666.7z M664.1,816.3h2.7v-1.2h-2.7V816.3z M672.5,817.3
			c0,0.4-0.2,0.7-0.5,1s-0.8,0.4-1.2,0.4h-1.6L669,817h1c0.1,0,0.2,0,0.3-0.1s0.2-0.2,0.2-0.3v-6h-4.4V805h6.4V817.3z M668,807.2
			h2.4v-1H668V807.2z M670.5,808.3H668v1h2.4V808.3z"/>
		<path class="st8" d="M688.8,819.1h-2.4c-0.9-1.1-1.6-2.2-2-3.2c-0.5-1.2-0.7-2.6-0.7-4c0-2.7,0.9-5.1,2.7-7.3h2.4v0.2
			c-0.9,0.8-1.6,1.8-2.1,2.8c-0.7,1.3-1,2.7-1,4.2c0,1.5,0.3,2.9,1,4.3c0.5,1.1,1.2,2,2.1,2.8V819.1z"/>
		<path class="st8" d="M690.6,817.5v-2.2h0.2c1.2,0.7,2.3,1,3.4,1c0.8,0,1.5-0.2,1.9-0.5s0.7-0.8,0.7-1.5c0-0.5-0.2-0.9-0.5-1.2
			s-1.1-0.4-2.2-0.4h-0.7v-1.8h0.6c1.8,0,2.6-0.5,2.6-1.6c0-0.4-0.2-0.8-0.6-1s-0.9-0.3-1.6-0.3c-0.9,0-2,0.3-3.3,1h-0.2v-2.2
			c1.3-0.5,2.6-0.7,3.8-0.7c1.4,0,2.5,0.3,3.3,0.8s1.1,1.2,1.1,2.1c0,0.7-0.2,1.2-0.6,1.7s-1,0.8-1.6,1v0.1c0.8,0.1,1.4,0.4,1.9,0.9
			s0.7,1.1,0.7,1.8c0,1.1-0.4,2.1-1.3,2.8s-2.1,1-3.6,1C693.1,818.2,691.8,818,690.6,817.5z"/>
		<path class="st8" d="M708.2,805c0,1.2,0,2.1,0,2.8h6.4v1.9c0,2.4-0.2,4.3-0.5,5.7s-0.8,2.2-1.4,2.6s-1.4,0.6-2.3,0.6
			c-0.5,0-1.5-0.1-3.1-0.3l0.1-2.2c1.5,0.2,2.4,0.4,2.8,0.4h0.1c0.5,0,0.9-0.2,1.2-0.7s0.5-1.2,0.6-2.1s0.2-2,0.2-2.9v-0.9l-4.2,0
			c-0.3,2.2-0.9,4.1-1.9,5.5s-2.4,2.7-4.2,3.7l-1.2-1.6c1.4-0.9,2.5-1.9,3.3-3s1.4-2.7,1.6-4.6h-4v-2h4.2c0-0.6,0-1.5,0-2.8H708.2z"
			/>
		<path class="st8" d="M730,817c0,0.5-0.2,0.9-0.6,1.2s-0.9,0.5-1.4,0.5h-2.6l-0.2-2.1h2c0.1,0,0.2-0.1,0.3-0.2s0.2-0.2,0.2-0.3
			v-2.2h-6.6c-0.2,1-0.6,2-1.1,2.8s-1.2,1.6-1.9,2.2l-1.5-1.3c0.8-0.7,1.3-1.4,1.6-2.2s0.6-1.5,0.7-2.2s0.2-1.5,0.2-2.5v-5.4h11V817
			z M727.7,812v-1.8h-6.4c0,0.6,0,1.2,0,1.8H727.7z M727.7,808.6V807h-6.4v1.6H727.7z"/>
		<path class="st8" d="M739.7,810.5h-4.2v8.4h-2.1V805h6.3V810.5z M737.8,807.2v-1h-2.3v1H737.8z M737.8,809.3v-1h-2.3v1H737.8z
			 M738.9,817.9v0.4h-2v-6.8h6.7v6.5H738.9z M741.6,813.8v-1.1h-2.7v1.1H741.6z M738.9,816.3h2.7v-1.2h-2.7V816.3z M747.4,817.3
			c0,0.4-0.2,0.7-0.5,1s-0.8,0.4-1.2,0.4H744l-0.2-1.8h1c0.1,0,0.2,0,0.3-0.1s0.2-0.2,0.2-0.3v-6h-4.4V805h6.4V817.3z M742.9,807.2
			h2.4v-1h-2.4V807.2z M745.3,808.3h-2.4v1h2.4V808.3z"/>
		<path class="st8" d="M754.4,811.8c0,1.5-0.2,2.8-0.7,4c-0.4,1.1-1.1,2.1-2,3.2h-2.4v-0.2c0.9-0.8,1.6-1.8,2.1-2.8
			c0.7-1.3,1-2.8,1-4.3c0-1.5-0.3-2.9-1-4.2c-0.5-1.1-1.2-2-2.1-2.8v-0.2h2.4C753.5,806.7,754.4,809.1,754.4,811.8z"/>
	</g>
</g>
</svg>
