<svg xmlns="http://www.w3.org/2000/svg" width="707.47" height="269.92" viewBox="0 0 707.47 269.92"><defs><style>.cls-1{fill:#f0f0f0;}.cls-2,.cls-4,.cls-5{fill:none;stroke:#d1d1d1;stroke-miterlimit:10;}.cls-2{stroke-width:0.96px;}.cls-3{fill:#fff;}.cls-5{stroke-width:0.94px;}.cls-6{fill:#d1d1d1;}.cls-7{fill:#3a3a3a;}.cls-8{fill:#c1272d;}</style></defs><g id="レイヤー_1" data-name="レイヤー 1"><rect class="cls-1" x="0.48" y="0.01" width="317.98" height="52.11"/><rect class="cls-2" x="0.48" y="0.48" width="318.23" height="51.96"/><rect class="cls-3" x="0.48" y="52.46" width="317.73" height="216.99"/><rect class="cls-1" x="0.48" y="52.46" width="149.98" height="216.99"/><line class="cls-4" x1="0.48" y1="197.03" x2="318.71" y2="197.03"/><line class="cls-5" x1="150.71" y1="52.46" x2="150.71" y2="268.82"/><line class="cls-4" x1="0.48" y1="124.67" x2="318.71" y2="124.67"/><rect class="cls-2" x="0.48" y="52.46" width="318.23" height="216.99"/><path d="M23.63,165a2.43,2.43,0,0,0,.58,1.41,3.11,3.11,0,0,0,2.38.95c1.61,0,2.62-.86,2.62-2.2a1.91,1.91,0,0,0-1.11-1.89,5.56,5.56,0,0,0-1.93-.29c-.8,0-1.73.05-2.54.13v-3.78a16.75,16.75,0,0,0,2.19.13c2,0,2.94-.7,2.94-2.11,0-1.19-.79-1.87-2.15-1.87a2.25,2.25,0,0,0-2.52,2l-4.47-.68A6.34,6.34,0,0,1,21,154.05a7.11,7.11,0,0,1,5.68-2.21A7.22,7.22,0,0,1,32,153.72a4.38,4.38,0,0,1,1.16,3.12,4.16,4.16,0,0,1-3.55,4.38,4.35,4.35,0,0,1,4,4.42,5.13,5.13,0,0,1-.83,2.93,5.3,5.3,0,0,1-1.94,1.65,10.55,10.55,0,0,1-4.3.86,9,9,0,0,1-4.82-1.24A5.86,5.86,0,0,1,19.6,167a8.77,8.77,0,0,1-.35-1.17Z"/><path d="M52.58,157.87c-.72.07-.8.07-2.79.4l-2.81.46.5,2.77,3.82-.63a18.76,18.76,0,0,0,3-.66l.62,3.72a9.66,9.66,0,0,0-1.06.11c-.12,0-.74.1-1.86.28l-3.91.64.58,3.17a20.66,20.66,0,0,0,.62,3l-3.92.7a18.79,18.79,0,0,0-.38-3.06l-.53-3.17-4.1.69a19.56,19.56,0,0,0-2.83.59L37,163.11a21.54,21.54,0,0,0,3-.35l4-.66-.48-2.77-2.85.46a28.16,28.16,0,0,0-3.08.61l-.56-3.74a22,22,0,0,0,3-.35l2.87-.48-.2-1.12a18.53,18.53,0,0,0-.54-2.49l3.8-.62a18.18,18.18,0,0,0,.29,2.45l.23,1.18,2.79-.44,1.45-.24a13.43,13.43,0,0,0-1.18-2.09l2.05-.7a14,14,0,0,1,1.71,3.36l-1,.38Zm1.8-7.1a16.11,16.11,0,0,1,1.72,3.28l-2,.77a17.53,17.53,0,0,0-1.69-3.37Z"/><path d="M70.49,155.5A12.77,12.77,0,0,0,69,152.66l2-.7a13.63,13.63,0,0,1,1.72,3.36l-.54.22,1.49,1.59a2.89,2.89,0,0,0-.29,1.6c0,1.39-.29,5.57-.4,6.6-.31,2.84-.7,4.1-1.59,4.87a3.86,3.86,0,0,1-2.77.77,24.88,24.88,0,0,1-2.71-.18,11.78,11.78,0,0,0-.7-3.87,11.49,11.49,0,0,0,2.69.44c1,0,1.24-.35,1.51-2.27a55.2,55.2,0,0,0,.39-6.14H65.9l0,.44,0,.31c-.7,5.26-2.73,8.49-7.3,11.71a12.46,12.46,0,0,0-2.69-3.35c4-2.13,5.87-4.88,6.41-9.09H59.66a19.31,19.31,0,0,0-2.79.14l0-3.77a14.46,14.46,0,0,0,2.87.18h2.85c.06-.86.11-2.13.11-2.82a5.86,5.86,0,0,0-.07-1.1l3.89.11a20,20,0,0,0-.23,2.67c0,.52,0,.63-.06,1.12ZM73.94,151a14.65,14.65,0,0,1,1.72,3.27l-2,.77a16.59,16.59,0,0,0-1.7-3.36Z"/><path d="M92.87,156l0,.08-.07.22-.12.58c-1.7,7.06-5.29,11.5-11.87,14.63a11.6,11.6,0,0,0-2.6-3.7c5.5-1.83,9.22-5.72,10.4-10.85H79.94a29.11,29.11,0,0,0-3.41.14v-4a19.21,19.21,0,0,0,3.48.17H90.55A2.36,2.36,0,0,1,92.87,151a2.49,2.49,0,0,1,0,5Zm-1.18-2.58a1.18,1.18,0,1,0,1.18-1.25A1.23,1.23,0,0,0,91.69,153.45Z"/><path d="M96.59,157.57a21,21,0,0,0,3.33.17H110.3a3.16,3.16,0,0,0,1.65-.24l1.62,1.85a4.41,4.41,0,0,0-.58,1.38,16.78,16.78,0,0,1-4.59,7.55,18.17,18.17,0,0,1-5.89,3.43,12.36,12.36,0,0,0-2.32-3.6,14,14,0,0,0,5.46-2.58,9.47,9.47,0,0,0,3.18-4.4h-9a29.36,29.36,0,0,0-3.29.13Zm1.72-5.5a18,18,0,0,0,3,.17h6.59a19,19,0,0,0,3.25-.17v3.69c-.79-.06-1.76-.11-3.18-.11h-6.7a24.92,24.92,0,0,0-3,.11Z"/><path d="M118,152.81a30,30,0,0,1,5.69,4.32l-2.44,3.43a22.32,22.32,0,0,0-5.62-4.64Zm-2.17,13.67a19.86,19.86,0,0,0,6.23-1.59,12.7,12.7,0,0,0,6.06-5.43,21.37,21.37,0,0,0,2-4.31,13.81,13.81,0,0,0,3,2.94c-1.88,4.34-3.85,6.93-6.74,8.92a21.72,21.72,0,0,1-8,3.3c-.81.19-.93.22-1.49.39Z"/><path d="M29,225.49a2.18,2.18,0,0,0-2.34-1.83,2.89,2.89,0,0,0-2.77,1.89,7.85,7.85,0,0,0-.6,2.71,4.36,4.36,0,0,1,1.3-1,6.34,6.34,0,0,1,2.75-.55c3.75,0,6.1,2.38,6.1,6.16s-2.81,6.45-6.88,6.45a6.47,6.47,0,0,1-5.17-2.23C20,235.48,19.31,233,19.31,230A12.82,12.82,0,0,1,21,223.11a6.54,6.54,0,0,1,5.83-3,6.35,6.35,0,0,1,4.84,1.92,7.23,7.23,0,0,1,1.38,2.48ZM23.67,233a2.74,2.74,0,0,0,2.88,2.77A2.76,2.76,0,0,0,29.48,233a2.57,2.57,0,0,0-2.85-2.73A2.68,2.68,0,0,0,23.67,233Z"/><path d="M52.54,226.13a25.15,25.15,0,0,0-2.79.39l-2.81.46.49,2.78,3.83-.64a17.7,17.7,0,0,0,3-.66l.62,3.72a9.66,9.66,0,0,0-1.06.11c-.12,0-.74.11-1.86.28l-3.91.64.58,3.17a19,19,0,0,0,.62,3l-3.93.7a18.28,18.28,0,0,0-.37-3.06l-.54-3.17-4.09.69a19.56,19.56,0,0,0-2.83.59l-.56-3.72a21.54,21.54,0,0,0,3-.35l4-.66-.48-2.77-2.85.46a27.41,27.41,0,0,0-3.08.62l-.56-3.74a24.21,24.21,0,0,0,3-.36l2.87-.48L42.55,223a17.54,17.54,0,0,0-.53-2.49l3.8-.62a18.18,18.18,0,0,0,.29,2.45l.23,1.18,2.79-.43,1.45-.25a14.3,14.3,0,0,0-1.18-2.09l2-.7a13.53,13.53,0,0,1,1.72,3.37l-1,.37Zm1.8-7.11a16.11,16.11,0,0,1,1.72,3.28l-2,.77a17.83,17.83,0,0,0-1.69-3.37Z"/><path d="M70.45,223.75A12.77,12.77,0,0,0,69,220.91l2.05-.7a13.27,13.27,0,0,1,1.71,3.36l-.53.22,1.49,1.59a2.89,2.89,0,0,0-.29,1.6c0,1.39-.29,5.57-.4,6.6-.31,2.84-.7,4.1-1.59,4.87a3.88,3.88,0,0,1-2.77.77,22.48,22.48,0,0,1-2.71-.18,11.78,11.78,0,0,0-.7-3.87,11.49,11.49,0,0,0,2.69.44c1,0,1.24-.35,1.51-2.27a55.2,55.2,0,0,0,.39-6.14h-4l0,.44,0,.31c-.71,5.26-2.73,8.49-7.3,11.71a12.82,12.82,0,0,0-2.69-3.35c4-2.13,5.87-4.88,6.41-9.08H59.62a19.77,19.77,0,0,0-2.8.13l0-3.77a14.63,14.63,0,0,0,2.88.18h2.85c.06-.86.1-2.13.1-2.82a6.82,6.82,0,0,0-.06-1.1l3.89.11a20,20,0,0,0-.23,2.67c0,.53,0,.63-.06,1.12Zm3.45-4.53a14.52,14.52,0,0,1,1.72,3.28l-2,.76A16.1,16.1,0,0,0,72,219.9Z"/><path d="M92.83,224.28l0,.09-.06.22-.12.57c-1.7,7.06-5.29,11.51-11.87,14.63a11.71,11.71,0,0,0-2.6-3.7c5.5-1.82,9.22-5.72,10.4-10.84H79.9a27.77,27.77,0,0,0-3.41.13v-4a19.15,19.15,0,0,0,3.47.17H90.51a2.36,2.36,0,0,1,2.32-2.37,2.49,2.49,0,0,1,0,5Zm-1.18-2.58a1.18,1.18,0,1,0,1.18-1.25A1.22,1.22,0,0,0,91.65,221.7Z"/><path d="M96.55,225.82a21,21,0,0,0,3.33.17h10.38a3.16,3.16,0,0,0,1.65-.24l1.62,1.85A4.5,4.5,0,0,0,113,229a16.8,16.8,0,0,1-4.59,7.54,18.31,18.31,0,0,1-5.9,3.44,12,12,0,0,0-2.31-3.61,13.82,13.82,0,0,0,5.46-2.58,9.47,9.47,0,0,0,3.18-4.4h-9a29.25,29.25,0,0,0-3.29.13Zm1.72-5.5a18,18,0,0,0,3,.17h6.59a19.08,19.08,0,0,0,3.25-.17V224c-.79-.06-1.76-.11-3.19-.11h-6.69a27.25,27.25,0,0,0-3,.11Z"/><path d="M117.91,221.06a30.45,30.45,0,0,1,5.69,4.32l-2.44,3.43a22.53,22.53,0,0,0-5.62-4.64Zm-2.17,13.67a19.86,19.86,0,0,0,6.23-1.59,12.63,12.63,0,0,0,6.05-5.43,20.87,20.87,0,0,0,2-4.31,13.61,13.61,0,0,0,3,2.95c-1.88,4.33-3.85,6.93-6.74,8.91a21.72,21.72,0,0,1-8,3.3c-.81.2-.93.22-1.49.39Z"/><path d="M21.46,80.18a12,12,0,0,0,2.48.16h2.63a18.8,18.8,0,0,0,2.56-.09C29,81.42,29,82.34,29,83.79V95.32a27.86,27.86,0,0,0,.16,3.32H24.64a25.58,25.58,0,0,0,.17-3.32V84.1H24a18.84,18.84,0,0,0-2.52.16Z"/><path d="M52.58,85.88c-.72.07-.8.07-2.79.4L47,86.74l.5,2.77,3.82-.63a18.76,18.76,0,0,0,3-.66l.62,3.71c-.58,0-.75.07-1.06.11-.12,0-.74.11-1.86.29L48.07,93l.58,3.17a20.66,20.66,0,0,0,.62,3l-3.92.7A18.67,18.67,0,0,0,45,96.73l-.53-3.17-4.1.68a21,21,0,0,0-2.83.6L37,91.12a21.54,21.54,0,0,0,3-.35l4-.66-.48-2.77-2.85.46a28.16,28.16,0,0,0-3.08.61l-.56-3.74a22,22,0,0,0,3-.35l2.87-.48-.2-1.12a18.14,18.14,0,0,0-.54-2.49l3.8-.62a18.09,18.09,0,0,0,.29,2.44l.23,1.19,2.79-.44,1.45-.24a13,13,0,0,0-1.18-2.09l2.05-.7a14,14,0,0,1,1.71,3.36l-1,.38Zm1.8-7.1a16,16,0,0,1,1.72,3.27l-2,.77a17.72,17.72,0,0,0-1.69-3.36Z"/><path d="M70.49,83.51A12.77,12.77,0,0,0,69,80.67l2-.71a13.7,13.7,0,0,1,1.72,3.37l-.54.22,1.49,1.59a2.89,2.89,0,0,0-.29,1.6c0,1.39-.29,5.57-.4,6.6-.31,2.84-.7,4.09-1.59,4.87a3.86,3.86,0,0,1-2.77.76A24.06,24.06,0,0,1,66,98.8a11.78,11.78,0,0,0-.7-3.87,11.49,11.49,0,0,0,2.69.44c1,0,1.24-.36,1.51-2.27A55.2,55.2,0,0,0,69.85,87H65.9l0,.44,0,.31c-.7,5.26-2.73,8.49-7.3,11.71a12.46,12.46,0,0,0-2.69-3.35c4-2.13,5.87-4.88,6.41-9.09H59.66a19.31,19.31,0,0,0-2.79.14l0-3.77a14.46,14.46,0,0,0,2.87.18h2.85c.06-.86.11-2.14.11-2.82a5.81,5.81,0,0,0-.07-1.1l3.89.11a20,20,0,0,0-.23,2.67c0,.52,0,.63-.06,1.12ZM73.94,79a15,15,0,0,1,1.72,3.28l-2,.77A16.59,16.59,0,0,0,72,79.66Z"/><path d="M92.87,84l0,.08-.07.22-.12.58C91,92,87.37,96.42,80.79,99.55a11.6,11.6,0,0,0-2.6-3.7C83.69,94,87.41,90.13,88.59,85H79.94a29.11,29.11,0,0,0-3.41.14v-4a19.21,19.21,0,0,0,3.48.17H90.55A2.34,2.34,0,1,1,92.89,84Zm-1.18-2.58a1.18,1.18,0,1,0,1.18-1.25A1.23,1.23,0,0,0,91.69,81.46Z"/><path d="M96.59,85.58a21,21,0,0,0,3.33.17H110.3a3.16,3.16,0,0,0,1.65-.24l1.62,1.85a4.41,4.41,0,0,0-.58,1.38,16.78,16.78,0,0,1-4.59,7.55,18.17,18.17,0,0,1-5.89,3.43,12.53,12.53,0,0,0-2.32-3.61,13.82,13.82,0,0,0,5.46-2.57,9.47,9.47,0,0,0,3.18-4.4h-9a29.36,29.36,0,0,0-3.29.13Zm1.72-5.51a16.81,16.81,0,0,0,3,.18h6.59a17.75,17.75,0,0,0,3.25-.18v3.7c-.79-.06-1.76-.11-3.18-.11h-6.7a24.92,24.92,0,0,0-3,.11Z"/><path d="M118,80.82a30,30,0,0,1,5.69,4.32l-2.44,3.43a22.32,22.32,0,0,0-5.62-4.64Zm-2.17,13.67A19.86,19.86,0,0,0,122,92.9a12.7,12.7,0,0,0,6.06-5.43,21.21,21.21,0,0,0,2-4.32,13.61,13.61,0,0,0,3,2.95c-1.88,4.34-3.85,6.93-6.74,8.91a21.55,21.55,0,0,1-8,3.3c-.81.2-.93.23-1.49.4Z"/><path d="M110.56,20.06a16.93,16.93,0,0,0-1.78.09V16.93a13.31,13.31,0,0,0,2,.11h3.14a13.17,13.17,0,0,0,2-.11v3.22a12.81,12.81,0,0,0-1.71-.09h-.27v3.47h.41a10.16,10.16,0,0,0,1.28-.06v3c-.45,0-.86-.06-1.28-.06h-.41V29.3c.74-.31,1-.42,2-.86l.07,3.1a43.52,43.52,0,0,1-6,2.64l-.83.31-.72-3.5a18,18,0,0,0,2.44-.64V26.44h-.41a9.22,9.22,0,0,0-1.43.09V23.45a10.81,10.81,0,0,0,1.51.08h.33V20.06Zm10.3,9.41a9.38,9.38,0,0,1-.44,2.4c-.8,2.45-2.64,4.1-5.87,5.22a9.39,9.39,0,0,0-1.67-2.82,8.29,8.29,0,0,0,4-2.09,4.19,4.19,0,0,0,1-2.71c-.25,0-.75,0-1.51.07,0-.73,0-1.41,0-2.22V18.8c0-1.25,0-1.56,0-2.2a13.46,13.46,0,0,0,2,.09H125a15.14,15.14,0,0,0,2-.09,20.16,20.16,0,0,0-.09,2.2v8.28c0,.85,0,1.6.11,2.46a5.47,5.47,0,0,0-.64,0c-.13,0-.38,0-.77-.07l-.54,0h-.57v3.88c0,.22.1.28.43.28s.41-.06.45-.15a11.16,11.16,0,0,0,.19-2.55,9,9,0,0,0,2.56,1.19c-.18,2.57-.35,3.34-.8,3.85s-1.16.66-2.92.66c-2.4,0-2.93-.33-2.93-1.81V29.47Zm-1.47-9.1h4.51v-.95h-4.51Zm0,3.21h4.51v-.93h-4.51Zm0,3.21h4.51v-.92h-4.51Z"/><path d="M145.8,18.47a20.61,20.61,0,0,0,2.66-.13V21.8a22.13,22.13,0,0,0-2.66-.14h-8.09A24.71,24.71,0,0,1,135,26.09V34a26.66,26.66,0,0,0,.09,2.77h-3.35a25.3,25.3,0,0,0,.12-2.77V29.5c-.43.39-.64.57-1.26,1.08a13.23,13.23,0,0,0-1.7-3.35,20.47,20.47,0,0,0,3-2.57,8.6,8.6,0,0,0-.1-1.32H133a16.12,16.12,0,0,0,1.07-1.68h-1.84a22.43,22.43,0,0,0-2.67.14V18.34a20.58,20.58,0,0,0,2.67.13h3.27a12.86,12.86,0,0,0,.68-2.62l3.56.56a6.46,6.46,0,0,0-.42,1.12c-.1.35-.16.57-.29.94Zm-.63,7.15a16.78,16.78,0,0,0,2.42-.13v3.37a17.86,17.86,0,0,0-2.44-.13h-1.94V33h2.52a17.63,17.63,0,0,0,2.51-.14v3.39a20.74,20.74,0,0,0-2.53-.13H138a20.34,20.34,0,0,0-2.52.13V32.86A18.18,18.18,0,0,0,138,33h2V28.73h-1.6a18.06,18.06,0,0,0-2.44.13V25.49a17,17,0,0,0,2.42.13H140v-1a14.2,14.2,0,0,0-.11-2.24h3.39a15,15,0,0,0-.1,2.31v.92Z"/><path d="M159.32,30.4c-1.2,2.82-2.58,4.05-4.46,4.05-2.78,0-4.72-2.82-4.72-6.85a10.17,10.17,0,0,1,2.38-6.71A9.59,9.59,0,0,1,160,17.66a8.91,8.91,0,0,1,6.74,2.71,9,9,0,0,1,2,6.11A9.77,9.77,0,0,1,166,33.59c-1.41,1.34-3,2-5.93,2.53a11.15,11.15,0,0,0-1.76-3.61,10.14,10.14,0,0,0,4.34-1.12c1.59-.9,2.48-2.75,2.48-5.11A5.31,5.31,0,0,0,163.33,22a3.31,3.31,0,0,0-1.73-.77A32.52,32.52,0,0,1,159.32,30.4Zm-3.55-8a7.28,7.28,0,0,0-2.26,5.23c0,1.56.56,2.8,1.28,2.8.52,0,1.06-.77,1.68-2.45A30.35,30.35,0,0,0,158,21.22,4.07,4.07,0,0,0,155.77,22.35Z"/><path d="M178.84,30.16c-.22.66-.33,1-.55,1.82a9.81,9.81,0,0,1-1.58-2.15,16.07,16.07,0,0,1,.07,1.71v3.17a14.9,14.9,0,0,0,.1,2.14h-3.25a15.46,15.46,0,0,0,.13-2.23v-2c0-.79,0-1.27,0-1.8a12.74,12.74,0,0,1-2.15,3.61,14.89,14.89,0,0,0-1.35-3.32,13.43,13.43,0,0,0,3.09-4.82h-.79a10.82,10.82,0,0,0-1.94.11V23.18a9.79,9.79,0,0,0,1.92.11h1.16V18.08a14.4,14.4,0,0,0-.09-2h3.21a15.57,15.57,0,0,0-.08,1.93v3.2a26.46,26.46,0,0,0,1.05-4.1l2.15,1.1A26.48,26.48,0,0,1,178.37,23l-1.59-1v1.27h1a7,7,0,0,0,1.61-.11v1.63L181,22.87A23,23,0,0,1,184.53,26l-1.9,2.48a23.1,23.1,0,0,0-3.27-3.12v1.06a8.74,8.74,0,0,0-1.69-.11H177a11.2,11.2,0,0,0,2.42,2.53c-.21.48-.27.63-.41,1a15.11,15.11,0,0,0,1.88-.27l4-.88V20.85L183.25,23a22.44,22.44,0,0,0-3.54-3.25l2-2.31a21.26,21.26,0,0,1,3.18,2.68V18.91a19.6,19.6,0,0,0-.12-2.77h3.41a17.89,17.89,0,0,0-.13,2.77V28a12.57,12.57,0,0,0,1.68-.48l.2,3.43a18.42,18.42,0,0,0-1.88.35v2.75a18.49,18.49,0,0,0,.13,2.8h-3.41a20.58,20.58,0,0,0,.12-2.82V32l-3.7.82a18.46,18.46,0,0,0-2,.5Zm-6.28-13a32.17,32.17,0,0,1,1.16,4.71L171.59,23a23.31,23.31,0,0,0-1.12-4.68Z"/><path d="M197.81,24.63c-.81,0-1.43,0-2.13.09v-1a23.49,23.49,0,0,1-3.37,1.76,17.12,17.12,0,0,0-1.55-3.24,17,17,0,0,0,5.56-3,10.59,10.59,0,0,0,2.62-2.88h3.54a11.34,11.34,0,0,0,2.67,2.81A15.48,15.48,0,0,0,210.69,22a18.2,18.2,0,0,0-1.43,3.45,20.64,20.64,0,0,1-3.57-1.89v1.12a21.16,21.16,0,0,0-2.16-.09h-1.28v1.43H207a18.3,18.3,0,0,0,2.44-.11v3.26a17.06,17.06,0,0,0-2.48-.13h-1.64l2.67,1a25.59,25.59,0,0,1-1.59,3.12h1.07a20,20,0,0,0,2.59-.13v3.3a24.61,24.61,0,0,0-2.67-.13H194.25a25.78,25.78,0,0,0-2.81.13v-3.3a24.3,24.3,0,0,0,2.79.13h.64A12.88,12.88,0,0,0,193.42,30l2.67-.94h-1.53a19.44,19.44,0,0,0-2.48.13V26a17.4,17.4,0,0,0,2.5.11h4.47V24.63Zm1.24,4.45h-2.61a18.92,18.92,0,0,1,1.49,3.26l-2.58.85h3.7Zm4.09-7.33a13.77,13.77,0,0,1-2.42-2.48,13,13,0,0,1-2.37,2.48Zm2.75,11.44-2.52-.9a12.17,12.17,0,0,0,1.53-3.21h-2.65v4.11Z"/><path class="cls-6" d="M357.22,165.75V147.88H334.29V121.2h22.9V103.33L376,134.61Z"/><path class="cls-7" d="M279.66,92.57h-7.53v5.52h-2.94V83.54h13.42V96.23A1.65,1.65,0,0,1,281,98.14h-3.2l-.5-3.07h2c.45,0,.45-.2.45-.51Zm-7.53-2.77h2.32V86.42h-2.32Zm5.2,0h2.33V86.42h-2.34Z"/><path class="cls-7" d="M197.81,77.21V98.65h-4.08v-17h-3.66V77.21Z"/><path class="cls-7" d="M206.65,93.64V99c0,3.15-2.78,3.26-4.11,3.32V100c1.35-.06,1.8-.3,1.8-1.31h-1.8v-5Z"/><path class="cls-7" d="M215.75,91.5c-1.18.16-1.9.4-1.9,2v.68h12v4.46h-16V94.38c0-2.07,0-6.53,4.4-7.16l5.78-.81c1.31-.19,1.92-.47,1.92-2.29s-.49-2.66-3.84-2.66c-3.77,0-3.9.57-3.95,3.23h-4c0-4.57.2-7.7,7.61-7.7,4.69,0,8.17.39,8.17,6.86,0,2.78-.59,4.19-1.38,5a5.26,5.26,0,0,1-3.31,1.8Z"/><path class="cls-7" d="M244.18,77.21V81.7l-8.08,17h-4.86l8.52-17h-11.5V77.21Z"/><path class="cls-7" d="M258.21,83.5c0-1.31-.3-2.15-3.1-2.15-3.41,0-4.26.43-4.31,5,.66-.71,1.42-1.55,5-1.55,3.34,0,6.68.71,6.68,6.88,0,7.16-3.7,7.16-7.65,7.16-6.87,0-8-1.66-8-10.23,0-9.22.68-11.65,8.18-11.65,4.52,0,7.25.9,7.25,6.51ZM250.82,92c0,2.45,1.13,2.55,4.16,2.55s3.48-.46,3.48-2.69-.88-2.75-3.75-2.75C251.43,89.07,250.82,89.64,250.82,92Z"/><path class="cls-7" d="M279.33,167.13H271.7v5.51h-3V158.1h13.59v12.69a1.65,1.65,0,0,1-1.65,1.91h-3.24l-.5-3.07h2c.45,0,.45-.2.45-.52Zm-7.63-2.77H274V161H271.7Zm5.27,0h2.36V161H277Z"/><path class="cls-7" d="M198.26,150v21.44h-4.14v-17h-3.7V150Z"/><path class="cls-7" d="M207.2,166.47v5.33c0,3.16-2.82,3.27-4.16,3.32v-2.34c1.37-.05,1.82-.3,1.82-1.3H203v-5Z"/><path class="cls-7" d="M226.1,150v4.49l-8.18,16.95H213l8.62-17H210V150Z"/><path class="cls-7" d="M240.29,156.32c.05-1.31-.29-2.15-3.13-2.15-3.45,0-4.32.44-4.36,5,.66-.71,1.44-1.56,5-1.56,3.39,0,6.77.71,6.77,6.89,0,7.15-3.75,7.15-7.75,7.15-7,0-8.09-1.66-8.09-10.23,0-9.22.69-11.64,8.28-11.64,4.57,0,7.33.9,7.33,6.5Zm-7.47,8.46c0,2.45,1.14,2.56,4.21,2.56s3.52-.46,3.52-2.69-.9-2.75-3.8-2.75C233.44,161.9,232.82,162.47,232.82,164.78Z"/><path class="cls-7" d="M255.15,149.82c7.32,0,8.32,2,8.32,11.13,0,8.76-1.37,10.74-7.82,10.74-6.9,0-8.54-1-8.54-10.93C247.11,151.94,248.41,149.82,255.15,149.82Zm-3.93,11c0,6.36.27,6.42,4.32,6.42,3.43,0,3.82-.33,3.82-5.91a34.32,34.32,0,0,0-.35-5.68c-.38-1.28-1.66-1.39-3.72-1.39C251.49,154.28,251.22,154.42,251.22,160.84Z"/><path class="cls-7" d="M279.3,236.88h-7.64v5.52h-3V227.86h13.59v12.68a1.65,1.65,0,0,1-1.65,1.91h-3.24l-.5-3.07h2c.45,0,.45-.19.45-.51Zm-7.64-2.77H274v-3.38h-2.35Zm5.28,0h2.36v-3.38h-2.38Z"/><path class="cls-7" d="M193.1,235.85c-1.15.16-1.85.41-1.85,2v.68h11.66V243H187.3v-4.27c0-2.06,0-6.53,4.3-7.15l5.64-.82c1.28-.19,1.88-.46,1.88-2.28s-.49-2.67-3.75-2.67c-3.68,0-3.82.57-3.86,3.24h-3.88c0-4.57.2-7.7,7.43-7.7,4.59,0,8,.38,8,6.85,0,2.78-.57,4.19-1.34,5a5.13,5.13,0,0,1-3.24,1.79Z"/><path class="cls-7" d="M209.56,238v5.33c0,3.16-2.71,3.27-4,3.32v-2.34c1.32-.05,1.76-.3,1.76-1.31h-1.76v-5Z"/><path class="cls-7" d="M216.09,235.36c0,3.13.26,3.37,4.41,3.37,1.76,0,3.55,0,3.55-2.45s-1.42-2.31-2.39-2.31h-3.44v-3.86h3.44c1,0,2.12,0,2.12-2.07s-1.32-2.2-3.88-2.2c-3.48,0-3.48,1-3.48,2.85h-3.93c.09-6,1.72-7.34,7.68-7.34,3.5,0,5.09.41,6.19,1.68a6.84,6.84,0,0,1,1.35,4.33c0,.71,0,3.46-2.1,4.44.77.35,2.43,1.17,2.43,5,0,5.71-3.42,6.42-7.61,6.42-7.34,0-8.31-1.85-8.31-7.86Z"/><path class="cls-7" d="M241.48,227.85c0-1.31-.29-2.15-3-2.15-3.33,0-4.17.44-4.21,5,.64-.7,1.39-1.55,4.85-1.55,3.26,0,6.53.71,6.53,6.89,0,7.15-3.62,7.15-7.48,7.15-6.7,0-7.8-1.66-7.8-10.23,0-9.22.66-11.64,8-11.64,4.41,0,7.07.9,7.07,6.5Zm-7.21,8.46c0,2.45,1.1,2.56,4.06,2.56s3.39-.46,3.39-2.69-.86-2.75-3.66-2.75C234.87,233.43,234.27,234,234.27,236.31Z"/><path class="cls-7" d="M263.08,221.57V226H252.5l-.13,3.92c.79-.74,1.67-1.36,5-1.36,4,0,6.4.95,6.4,7.42,0,5-1.33,7.21-7.61,7.21s-8-1.28-8.09-7.26h4c0,1.93.15,2.8,3.63,2.8s4.15-.27,4.15-2.77c0-2.24-.27-3.11-3.79-3.11s-3.69.74-3.8,1.34h-3.66l.29-12.65Z"/><rect class="cls-1" x="388.76" y="0.01" width="317.98" height="52.11"/><rect class="cls-2" x="388.76" y="0.48" width="318.23" height="51.96"/><rect class="cls-3" x="388.76" y="52.46" width="317.73" height="216.99"/><rect class="cls-1" x="388.76" y="52.46" width="149.98" height="216.99"/><line class="cls-4" x1="388.76" y1="197.03" x2="706.99" y2="197.03"/><line class="cls-5" x1="538.99" y1="52.46" x2="538.99" y2="268.82"/><line class="cls-4" x1="388.76" y1="124.67" x2="706.99" y2="124.67"/><rect class="cls-2" x="388.76" y="52.46" width="318.23" height="216.99"/><path d="M442.77,72l0,.09a2.18,2.18,0,0,1-.06.22l-.12.57c-1.7,7.07-5.3,11.51-11.87,14.64a11.48,11.48,0,0,0-2.61-3.7c5.5-1.83,9.22-5.72,10.4-10.85h-8.64a26.75,26.75,0,0,0-3.41.14v-4a17.76,17.76,0,0,0,3.47.18h10.55A2.37,2.37,0,0,1,442.77,67a2.5,2.5,0,0,1,0,5Zm-1.18-2.57a1.18,1.18,0,1,0,1.18-1.25A1.23,1.23,0,0,0,441.59,69.46Z"/><path d="M446.5,73.57a19.58,19.58,0,0,0,3.33.18h10.38a3.18,3.18,0,0,0,1.65-.24l1.61,1.85a4.41,4.41,0,0,0-.58,1.38,16.61,16.61,0,0,1-4.59,7.55,18.17,18.17,0,0,1-5.89,3.43,12.48,12.48,0,0,0-2.31-3.61,13.7,13.7,0,0,0,5.45-2.57,9.56,9.56,0,0,0,3.19-4.4h-8.95a29.15,29.15,0,0,0-3.29.13Zm1.71-5.5a17,17,0,0,0,3,.18h6.6a17.88,17.88,0,0,0,3.25-.18v3.7c-.79-.07-1.76-.11-3.19-.11h-6.7a25,25,0,0,0-3,.11Z"/><path d="M467.86,68.82a30,30,0,0,1,5.69,4.32l-2.44,3.43a22.23,22.23,0,0,0-5.63-4.65Zm-2.17,13.67a19.73,19.73,0,0,0,6.22-1.59A12.61,12.61,0,0,0,478,75.47a20.71,20.71,0,0,0,2-4.32,13.61,13.61,0,0,0,3,2.95c-1.89,4.34-3.85,6.93-6.74,8.91a21.61,21.61,0,0,1-8.05,3.3c-.8.2-.93.22-1.49.4Z"/><path d="M489.93,80.68a2.63,2.63,0,0,0,2.95,2.66c1.59,0,2.55-.74,2.55-2a1.69,1.69,0,0,0-.87-1.54,16.32,16.32,0,0,0-3.1-.9,7.71,7.71,0,0,1-3.33-1.27,5.06,5.06,0,0,1-2-4.23c0-3.39,2.57-5.52,6.64-5.52,2.62,0,4.63.88,5.75,2.51a6.36,6.36,0,0,1,1,2.66l-4.38.5c-.25-1.43-1-2-2.57-2-1.26,0-2.19.72-2.19,1.74a1.53,1.53,0,0,0,1,1.41,13,13,0,0,0,2.86.72,9.54,9.54,0,0,1,3.35,1.26,5,5,0,0,1,2.23,4.48,5.72,5.72,0,0,1-1.45,4,7.26,7.26,0,0,1-5.44,1.87A9.27,9.27,0,0,1,488.31,86a5.13,5.13,0,0,1-2.23-2.79,8.47,8.47,0,0,1-.45-2.07Z"/><path d="M439.41,109.37a23.23,23.23,0,0,1-1.43-2.94,13.7,13.7,0,0,1-.78-4.6,14,14,0,0,1,.57-4,15.11,15.11,0,0,1,1.67-3.65h2.77a13.82,13.82,0,0,0-1.95,4.24,14.16,14.16,0,0,0-.4,3.36,13.7,13.7,0,0,0,.77,4.55,18,18,0,0,0,1.58,3.05Z"/><path d="M445.63,95a9.76,9.76,0,0,0,1.81.11h1.91a14.84,14.84,0,0,0,1.86-.06c-.07.85-.1,1.52-.1,2.57V106a19.87,19.87,0,0,0,.12,2.42H448a19.66,19.66,0,0,0,.12-2.42V97.85h-.6a15,15,0,0,0-1.84.11Z"/><path d="M468.27,99.14c-.53,0-.59,0-2,.29l-2.05.34.36,2,2.79-.47a12.21,12.21,0,0,0,2.16-.48l.45,2.71a6.07,6.07,0,0,0-.76.08c-.09,0-.54.08-1.36.21l-2.84.46.42,2.3a14.19,14.19,0,0,0,.45,2.15l-2.86.51a12.73,12.73,0,0,0-.27-2.22l-.39-2.31-3,.5a13.11,13.11,0,0,0-2.06.43l-.4-2.71a15.43,15.43,0,0,0,2.15-.25l2.87-.48-.35-2-2.07.34a18.86,18.86,0,0,0-2.24.45l-.41-2.73a15.73,15.73,0,0,0,2.21-.25l2.09-.35-.15-.82a12.24,12.24,0,0,0-.39-1.81l2.77-.45a14.72,14.72,0,0,0,.21,1.78l.17.86,2-.32,1-.17a9.75,9.75,0,0,0-.86-1.52l1.49-.51a10.19,10.19,0,0,1,1.25,2.44l-.72.28ZM469.58,94a12,12,0,0,1,1.25,2.39l-1.43.56a12.34,12.34,0,0,0-1.24-2.45Z"/><path d="M481.29,97.42a9.44,9.44,0,0,0-1.08-2.07l1.49-.51A9.58,9.58,0,0,1,483,97.29l-.39.16,1.08,1.15a2.21,2.21,0,0,0-.21,1.17c0,1-.21,4-.29,4.8-.22,2.07-.51,3-1.15,3.54a2.84,2.84,0,0,1-2,.56,17.8,17.8,0,0,1-2-.13,8.6,8.6,0,0,0-.51-2.82,8,8,0,0,0,1.95.32c.73,0,.91-.25,1.1-1.65a39,39,0,0,0,.29-4.46H478l0,.32,0,.22c-.51,3.83-2,6.18-5.31,8.52a9.11,9.11,0,0,0-1.95-2.43,8.09,8.09,0,0,0,4.66-6.61h-1.88a14.37,14.37,0,0,0-2,.09l0-2.74a10.42,10.42,0,0,0,2.1.13h2.07c.05-.62.08-1.55.08-2.05a4.35,4.35,0,0,0-.05-.8l2.83.08a13.88,13.88,0,0,0-.17,1.94c0,.38,0,.46,0,.82Zm2.52-3.3a11.45,11.45,0,0,1,1.25,2.38l-1.43.56a12.23,12.23,0,0,0-1.24-2.44Z"/><path d="M485.29,109.37a13.8,13.8,0,0,0,2-4.32,14.51,14.51,0,0,0,.39-3.42,13.28,13.28,0,0,0-.84-4.58,15.56,15.56,0,0,0-1.52-2.88h2.78a15.09,15.09,0,0,1,1.78,4.06,13.27,13.27,0,0,1,.45,3.54,14.05,14.05,0,0,1-.78,4.66,22.67,22.67,0,0,1-1.43,2.94Z"/><path d="M442.53,145.3l0,.09-.06.22-.12.57c-1.7,7.06-5.3,11.51-11.87,14.63a11.59,11.59,0,0,0-2.61-3.7c5.5-1.82,9.23-5.72,10.4-10.84h-8.64a27.65,27.65,0,0,0-3.41.13v-4a19.15,19.15,0,0,0,3.47.17h10.55a2.36,2.36,0,0,1,2.31-2.37,2.49,2.49,0,0,1,0,5Zm-1.17-2.58a1.18,1.18,0,1,0,1.17-1.25A1.23,1.23,0,0,0,441.36,142.72Z"/><path d="M446.26,146.84a21,21,0,0,0,3.33.17H460a3.16,3.16,0,0,0,1.65-.24l1.62,1.85a4.5,4.5,0,0,0-.58,1.39,16.8,16.8,0,0,1-4.59,7.54,18.42,18.42,0,0,1-5.9,3.44,12.14,12.14,0,0,0-2.31-3.61,13.82,13.82,0,0,0,5.46-2.58,9.47,9.47,0,0,0,3.18-4.4h-8.95a29.15,29.15,0,0,0-3.29.13Zm1.72-5.5a18,18,0,0,0,3,.17h6.59a19.16,19.16,0,0,0,3.25-.17V145c-.79-.06-1.76-.11-3.19-.11H451a27.16,27.16,0,0,0-3,.11Z"/><path d="M467.62,142.09a30,30,0,0,1,5.69,4.31l-2.44,3.43a22.39,22.39,0,0,0-5.63-4.64Zm-2.17,13.66a20,20,0,0,0,6.22-1.58,12.68,12.68,0,0,0,6.06-5.44,20.87,20.87,0,0,0,2-4.31,13.61,13.61,0,0,0,3,3c-1.88,4.33-3.85,6.93-6.74,8.91a21.72,21.72,0,0,1-8,3.3c-.81.2-.93.22-1.49.39Z"/><path d="M496.43,159.91a22.31,22.31,0,0,0-1-3.44c-.66-1.91-.9-2.42-1.42-2.9a2.17,2.17,0,0,0-1.61-.59h-2.11v3.61a25.49,25.49,0,0,0,.16,3.32H486a23.83,23.83,0,0,0,.16-3.3V144.77a25.68,25.68,0,0,0-.16-3.23c.91,0,1.67.06,3.08.06h5.37c3.35,0,5.3,1.85,5.3,5a5,5,0,0,1-1.22,3.61,4.64,4.64,0,0,1-2,1.1c1.06.35,1.53.85,2.19,2.42.31.7.6,1.45,1.53,3.83.23.61.48,1.16,1,2.33Zm-2.94-10.7a1.86,1.86,0,0,0,2-2,1.7,1.7,0,0,0-1.95-1.87h-3.24v3.91Z"/><path d="M439.41,182.64a23.12,23.12,0,0,1-1.43-2.95,13.64,13.64,0,0,1-.78-4.59,14.1,14.1,0,0,1,.57-4,15.29,15.29,0,0,1,1.67-3.65h2.77a14,14,0,0,0-1.95,4.24,14.22,14.22,0,0,0-.4,3.36,13.61,13.61,0,0,0,.77,4.55,18,18,0,0,0,1.58,3.06Z"/><path d="M447.21,177.61a1.79,1.79,0,0,0,.42,1,2.3,2.3,0,0,0,1.73.68c1.18,0,1.91-.62,1.91-1.6a1.39,1.39,0,0,0-.81-1.37,4,4,0,0,0-1.4-.21c-.58,0-1.26,0-1.85.09v-2.75a13.2,13.2,0,0,0,1.6.1c1.43,0,2.13-.52,2.13-1.54,0-.86-.57-1.36-1.56-1.36a1.65,1.65,0,0,0-1.84,1.47l-3.25-.49a4.75,4.75,0,0,1,1-2,6.14,6.14,0,0,1,8-.24,3.19,3.19,0,0,1,.84,2.28,3,3,0,0,1-2.59,3.18,3.36,3.36,0,0,1,1.95.85,3.25,3.25,0,0,1,1,2.37,3.74,3.74,0,0,1-.6,2.13,3.79,3.79,0,0,1-1.42,1.2,7.75,7.75,0,0,1-3.13.62,6.47,6.47,0,0,1-3.5-.89,4.26,4.26,0,0,1-1.55-2.07,6.51,6.51,0,0,1-.26-.85Z"/><path d="M468.27,172.41c-.53.05-.59.05-2,.29l-2.05.33.36,2,2.79-.46a12,12,0,0,0,2.16-.49l.45,2.71c-.42,0-.54.05-.76.08s-.54.08-1.36.21l-2.84.46.42,2.31a14,14,0,0,0,.45,2.14l-2.86.51a12.73,12.73,0,0,0-.27-2.22l-.39-2.31-3,.5a15.86,15.86,0,0,0-2.06.43l-.4-2.7a15.85,15.85,0,0,0,2.15-.26l2.87-.48-.35-2-2.07.33a18.86,18.86,0,0,0-2.24.45l-.41-2.72a16.12,16.12,0,0,0,2.21-.26l2.09-.35-.15-.82a12.24,12.24,0,0,0-.39-1.81l2.77-.44a14.85,14.85,0,0,0,.21,1.77l.17.87,2-.32,1-.18a9.75,9.75,0,0,0-.86-1.52l1.49-.51a10.08,10.08,0,0,1,1.25,2.45l-.72.27Zm1.31-5.17a11.67,11.67,0,0,1,1.25,2.38l-1.43.56a12.63,12.63,0,0,0-1.24-2.45Z"/><path d="M481.29,170.68a9.67,9.67,0,0,0-1.08-2.07l1.49-.51a9.58,9.58,0,0,1,1.25,2.45l-.39.16,1.08,1.15a2.21,2.21,0,0,0-.21,1.17c0,1-.21,4.05-.29,4.8-.22,2.07-.51,3-1.15,3.54a2.84,2.84,0,0,1-2,.56,15.55,15.55,0,0,1-2-.13,8.54,8.54,0,0,0-.51-2.81,8.56,8.56,0,0,0,1.95.32c.73,0,.91-.26,1.1-1.65a39,39,0,0,0,.29-4.47H478l0,.32,0,.23c-.51,3.82-2,6.18-5.31,8.51a9.27,9.27,0,0,0-1.95-2.43,8.07,8.07,0,0,0,4.66-6.61h-1.88a14.37,14.37,0,0,0-2,.09l0-2.73a11.21,11.21,0,0,0,2.1.13h2.07c.05-.63.08-1.56.08-2a4.25,4.25,0,0,0-.05-.8l2.83.08a13.62,13.62,0,0,0-.17,1.93c0,.39,0,.47,0,.82Zm2.52-3.3a11.54,11.54,0,0,1,1.25,2.39l-1.43.56a12.34,12.34,0,0,0-1.24-2.45Z"/><path d="M485.29,182.64a13.73,13.73,0,0,0,2-4.33,14.51,14.51,0,0,0,.39-3.42,13.33,13.33,0,0,0-.84-4.58,15.89,15.89,0,0,0-1.52-2.88h2.78a15.14,15.14,0,0,1,1.78,4.07,13.2,13.2,0,0,1,.45,3.53,14,14,0,0,1-.78,4.66,22.57,22.57,0,0,1-1.43,2.95Z"/><path d="M441.59,216.54l0,.09c0,.09,0,.15-.06.22l-.12.57c-1.7,7.06-5.3,11.51-11.87,14.63a11.59,11.59,0,0,0-2.61-3.7c5.5-1.82,9.22-5.72,10.4-10.84h-8.64a27.65,27.65,0,0,0-3.41.13v-4a19.07,19.07,0,0,0,3.47.17h10.55a2.36,2.36,0,0,1,2.31-2.37,2.49,2.49,0,0,1,0,5ZM440.42,214a1.18,1.18,0,1,0,2.35,0,1.18,1.18,0,1,0-2.35,0Z"/><path d="M445.32,218.08a20.7,20.7,0,0,0,3.33.18H459a3.16,3.16,0,0,0,1.65-.25l1.61,1.85a4.68,4.68,0,0,0-.57,1.39,16.83,16.83,0,0,1-4.59,7.55,18.6,18.6,0,0,1-5.9,3.43,12.35,12.35,0,0,0-2.31-3.61,14,14,0,0,0,5.46-2.57,9.64,9.64,0,0,0,3.18-4.41h-8.95a28.92,28.92,0,0,0-3.29.14Zm1.72-5.5a17.74,17.74,0,0,0,3,.18h6.6a18.87,18.87,0,0,0,3.25-.18v3.7c-.79-.07-1.76-.11-3.19-.11H450a24.83,24.83,0,0,0-3,.11Z"/><path d="M466.68,213.33a30.44,30.44,0,0,1,5.69,4.31l-2.44,3.43a22.39,22.39,0,0,0-5.63-4.64ZM464.51,227a20,20,0,0,0,6.22-1.58,12.68,12.68,0,0,0,6.06-5.44,20.87,20.87,0,0,0,2-4.31,13.61,13.61,0,0,0,3,3c-1.88,4.33-3.85,6.93-6.74,8.91a21.78,21.78,0,0,1-8.05,3.3c-.8.2-.93.22-1.48.4Z"/><path d="M491,231.15a17.78,17.78,0,0,0-.89-3.26l-1.9-5.85c0-.11-.64-2.16-.7-2.33-.23-.79-.23-.79-.33-1.1.12,1.38.2,3.19.2,4.35v4.78a24,24,0,0,0,.17,3.41h-4.08a24.76,24.76,0,0,0,.17-3.41V216.28a30.69,30.69,0,0,0-.17-3.44H489a17.38,17.38,0,0,0,.79,3.11l3.1,9.48,3.08-9.48a16.18,16.18,0,0,0,.77-3.11h5.48a26.08,26.08,0,0,0-.17,3.44v11.46a22.32,22.32,0,0,0,.17,3.41h-4.08a24.39,24.39,0,0,0,.17-3.41v-4.8c0-.53.06-2.18.1-2.86.06-1.16.06-1.16.08-1.49-.45,1.71-.66,2.5-.93,3.3l-2,6a20.3,20.3,0,0,0-.89,3.23Z"/><path d="M439.41,253.88a23.12,23.12,0,0,1-1.43-2.95,13.64,13.64,0,0,1-.78-4.59,14.1,14.1,0,0,1,.57-4,15.29,15.29,0,0,1,1.67-3.65h2.77a14,14,0,0,0-1.95,4.24,14.22,14.22,0,0,0-.4,3.36,13.61,13.61,0,0,0,.77,4.55,18,18,0,0,0,1.58,3.06Z"/><path d="M451.17,243.19a1.58,1.58,0,0,0-1.7-1.33,2.1,2.1,0,0,0-2,1.37,5.62,5.62,0,0,0-.43,2,3.15,3.15,0,0,1,.94-.72,4.61,4.61,0,0,1,2-.4,4.15,4.15,0,0,1,4.44,4.48c0,2.77-2,4.69-5,4.69a4.73,4.73,0,0,1-3.76-1.61,7.86,7.86,0,0,1-1.53-5.16,9.26,9.26,0,0,1,1.25-5,4.76,4.76,0,0,1,4.24-2.15,4.65,4.65,0,0,1,3.52,1.39,5.51,5.51,0,0,1,1,1.81Zm-3.9,5.45a2,2,0,0,0,2.09,2,2,2,0,0,0,2.14-2,1.87,1.87,0,0,0-2.08-2A2,2,0,0,0,447.27,248.64Z"/><path d="M468.27,243.65c-.53,0-.59,0-2,.29l-2.05.33.36,2,2.79-.46a13.2,13.2,0,0,0,2.16-.48l.45,2.7c-.42,0-.54,0-.76.08s-.54.08-1.36.21l-2.84.46.42,2.31a13.66,13.66,0,0,0,.45,2.14l-2.86.52a12.8,12.8,0,0,0-.27-2.23l-.39-2.3-3,.49a15.86,15.86,0,0,0-2.06.43l-.4-2.7a15.85,15.85,0,0,0,2.15-.26l2.87-.48-.35-2-2.07.33a21.25,21.25,0,0,0-2.24.45l-.41-2.72a16.12,16.12,0,0,0,2.21-.26l2.09-.35-.15-.82a11.67,11.67,0,0,0-.39-1.8l2.77-.45a14.62,14.62,0,0,0,.21,1.77l.17.87,2-.32,1-.18a9.75,9.75,0,0,0-.86-1.52l1.49-.51a10.26,10.26,0,0,1,1.25,2.45l-.72.27Zm1.31-5.17a11.94,11.94,0,0,1,1.25,2.38l-1.43.57a12.07,12.07,0,0,0-1.24-2.45Z"/><path d="M481.29,241.92a9.37,9.37,0,0,0-1.08-2.06l1.49-.52a9.58,9.58,0,0,1,1.25,2.45l-.39.16,1.08,1.16a2.16,2.16,0,0,0-.21,1.16c0,1-.21,4-.29,4.81-.22,2.06-.51,3-1.15,3.53a2.84,2.84,0,0,1-2,.56,17,17,0,0,1-2-.12,8.55,8.55,0,0,0-.51-2.82,8,8,0,0,0,1.95.32c.73,0,.91-.26,1.1-1.65a39,39,0,0,0,.29-4.47H478l0,.32,0,.23c-.51,3.82-2,6.18-5.31,8.51a9.27,9.27,0,0,0-1.95-2.43,8.07,8.07,0,0,0,4.66-6.61h-1.88a14.13,14.13,0,0,0-2,.1l0-2.74a11.21,11.21,0,0,0,2.1.13h2.07c.05-.63.08-1.55.08-2.05a4.25,4.25,0,0,0-.05-.8l2.83.08a13.83,13.83,0,0,0-.17,1.93c0,.39,0,.47,0,.82Zm2.52-3.3a11.54,11.54,0,0,1,1.25,2.39l-1.43.56a12.34,12.34,0,0,0-1.24-2.45Z"/><path d="M485.29,253.88a13.8,13.8,0,0,0,2-4.32,14.59,14.59,0,0,0,.39-3.43,13.33,13.33,0,0,0-.84-4.58,15.89,15.89,0,0,0-1.52-2.88h2.78a15.14,15.14,0,0,1,1.78,4.07,13.2,13.2,0,0,1,.45,3.53,14,14,0,0,1-.78,4.66,22.57,22.57,0,0,1-1.43,2.95Z"/><path d="M504.91,21l0,.09c0,.09,0,.15-.06.22l-.12.57c-1.7,7.07-5.3,11.51-11.87,14.63a11.45,11.45,0,0,0-2.61-3.69c5.5-1.83,9.23-5.72,10.4-10.85H492a27.65,27.65,0,0,0-3.41.13v-4a18.72,18.72,0,0,0,3.47.18H502.6a2.36,2.36,0,0,1,2.31-2.38,2.49,2.49,0,0,1,0,5Zm-1.17-2.57a1.18,1.18,0,1,0,2.35,0,1.18,1.18,0,1,0-2.35,0Z"/><path d="M508.64,22.52a20.7,20.7,0,0,0,3.33.18h10.38a3.16,3.16,0,0,0,1.65-.24l1.61,1.84a4.68,4.68,0,0,0-.57,1.39,16.83,16.83,0,0,1-4.59,7.55,18.42,18.42,0,0,1-5.9,3.43,12.14,12.14,0,0,0-2.31-3.61,13.82,13.82,0,0,0,5.46-2.57,9.54,9.54,0,0,0,3.18-4.4h-8.95a29.15,29.15,0,0,0-3.29.13Zm1.72-5.5a17.8,17.8,0,0,0,3,.18H520a18.87,18.87,0,0,0,3.25-.18v3.7c-.79-.07-1.76-.11-3.19-.11h-6.7a24.83,24.83,0,0,0-3,.11Z"/><path d="M530,17.77a30.44,30.44,0,0,1,5.69,4.31l-2.44,3.43a22.39,22.39,0,0,0-5.63-4.64Zm-2.17,13.66a19.45,19.45,0,0,0,6.22-1.58,12.63,12.63,0,0,0,6.06-5.44,20.39,20.39,0,0,0,2-4.31,13.61,13.61,0,0,0,3,2.95c-1.88,4.34-3.85,6.93-6.74,8.91a21.61,21.61,0,0,1-8.05,3.3c-.8.2-.93.22-1.48.4Z"/><path d="M549.13,20.61a17.18,17.18,0,0,0-2.36.13V17.51a21.32,21.32,0,0,0,2.63.13h5v-.27a7.51,7.51,0,0,0-.08-1.27h3.6a7.53,7.53,0,0,0-.1,1.25v.29h5.06a24.36,24.36,0,0,0,2.67-.13v3.23a20.77,20.77,0,0,0-2.57-.13h-2.81v1.58l2.05-1.32a40,40,0,0,1,3.58,4l-2.61,2a18.75,18.75,0,0,0-3-4.2v2c0,1-.29,1.47-1,1.73a6.8,6.8,0,0,1-2.15.18h-.1c-.31.46-.38.55-.64.9h3.51a10,10,0,0,0,1.72-.11l1.73,2c-.35.38-.35.38-.82.86a21.1,21.1,0,0,1-2.88,2.55,23.84,23.84,0,0,0,6.47.75,16.28,16.28,0,0,0-1.49,3.43,27.34,27.34,0,0,1-8.24-2.17,24.31,24.31,0,0,1-8.59,2.09,10.1,10.1,0,0,0-1.48-3.15H547a21.93,21.93,0,0,0,6.16-.86,12,12,0,0,1-1.42-1.32,14,14,0,0,1-2.88,1.28,9.09,9.09,0,0,0-1.82-2.8,11.83,11.83,0,0,0,3.29-1.19,11.31,11.31,0,0,0,1.86-1.23,11.8,11.8,0,0,0-2.13-1.8,4.55,4.55,0,0,0,2.51-2.86,7.54,7.54,0,0,0,.33-2.31Zm3,1.3a14.14,14.14,0,0,1-3.45,5,9.37,9.37,0,0,0-2.36-2,9.51,9.51,0,0,0,3.19-4.29Zm1.92,8a10.32,10.32,0,0,0,2.22,1.56,9.81,9.81,0,0,0,2.06-1.56Zm1.84-9.33a9.27,9.27,0,0,1-1.36,5.23l1.67.49a11.48,11.48,0,0,0-.66-2.64,6.77,6.77,0,0,0,1.3.11c.29,0,.38-.07.38-.31V20.61Z"/><path d="M571.3,29.78a21.65,21.65,0,0,0-2.27.09c.06-.83.08-1.72.08-2.35V22.87c0-1,0-1.6-.08-2.35.62,0,1,.07,2.27.07h4.13v-.88h-5.1c-1.06,0-1.92,0-2.92.13V16.58a28.36,28.36,0,0,0,2.92.13h13.09c1.05,0,2,0,2.89-.13v3.26c-1-.09-1.92-.13-2.89-.13h-4.88v.88h4a17.26,17.26,0,0,0,2.25-.07c-.06.86-.08,1.58-.08,2.4v4.64c0,.82,0,1.45.08,2.31a19.72,19.72,0,0,0-2.23-.09h-4.41a8.29,8.29,0,0,1-1,2.75,17.92,17.92,0,0,0,6.45,1c1,0,1.74,0,3.18-.13a15,15,0,0,0-1,3.41H585a21.66,21.66,0,0,1-10-2,12.42,12.42,0,0,1-6.51,2.25A15.64,15.64,0,0,0,567.19,34a11.37,11.37,0,0,0,4.94-1,13,13,0,0,1-1.49-1.56,3.2,3.2,0,0,0-.37-.42l2.21-1.17Zm.85-6.66V24h3.24l0-.92Zm0,3.19v.94h3.16c0-.46,0-.46,0-.94Zm1,3.47A9.18,9.18,0,0,0,574.36,31a5,5,0,0,0,.58-1.26Zm5.33-3.47c0,.63,0,.66,0,.94h3.21v-.94Zm0-2.27h3.13v-.92h-3.13Z"/><path d="M605.61,28.81c-.21.27-.21.27-.5.69-.15.2-.15.2-1.06,1.34a13.86,13.86,0,0,1-1.42,1.61,16.16,16.16,0,0,0,4.86.92,18.31,18.31,0,0,0-1.33,3.41,16.75,16.75,0,0,1-6.26-2.2,16.79,16.79,0,0,1-6.12,2.33,11,11,0,0,0-1.08-2.64,19.88,19.88,0,0,0,.09,2.47h-3.25a17.75,17.75,0,0,0,.12-2.34V28.68a6.59,6.59,0,0,1-1,1,12.58,12.58,0,0,0-1.16-3.43A15.15,15.15,0,0,0,592,20.89l2.48,1.83-.35.55-.21.33-.18.29c.24,0,.37,0,.56,0h2l.5-.49a23.44,23.44,0,0,0-3.62-3.08l2-2.42c.43.31.43.31.86.66a12.53,12.53,0,0,0,1.8-2.77l3,1.08c-.23.31-.23.33-.52.73-.64.9-1.44,1.93-2.15,2.75.33.3.46.44.75.74a22,22,0,0,0,2.85-3.85l3,1.5c-.35.42-.62.75-.79,1-.76,1-2.54,2.95-3.61,4.05l1.17-.07c.21,0,.5,0,1.24-.09l-.74-1.27L604.63,21a48.32,48.32,0,0,1,2.82,5.11l-2.78,1.54c-.33-.82-.41-1-.62-1.52-2.33.28-2.58.33-3.92.44-.17.24-.21.35-.38.61h2.59c.64,0,1.2,0,1.61-.06ZM594.36,17.7c-.27.33-.79,1-1,1.21a18.32,18.32,0,0,1-4.22,3.7,12.39,12.39,0,0,0-1.53-3,9.76,9.76,0,0,0,4.2-3.9ZM592.7,29.8a9.56,9.56,0,0,0,3.87-3l-2.23.18a6.8,6.8,0,0,0-.81.11l-.23-2.6c-.12.2-.12.2-.6.88Zm0,4.1a14.64,14.64,0,0,0,4.49-1.37A10.22,10.22,0,0,1,596,31.3a11.66,11.66,0,0,1-2.11,1.39,12.23,12.23,0,0,0-1.22-2.07Zm5.73-4.16A5.72,5.72,0,0,0,599.77,31a12.83,12.83,0,0,0,1.41-1.23Z"/><path class="cls-8" d="M682.3,92.67H670.83v8.39h-4.46V78.93h20.42v19.3c0,.57,0,2.91-2.49,2.91h-4.87l-.75-4.67h3c.68,0,.68-.3.68-.78Zm-11.47-4.22h3.53V83.31h-3.53Zm7.93,0h3.54V83.31h-3.56Z"/><path class="cls-8" d="M573.63,72.31V102H568V78.5h-5.07V72.31Z"/><path class="cls-8" d="M584.62,95.09v7.4c0,4.37-3.85,4.52-5.7,4.6v-3.25c1.88-.07,2.5-.41,2.5-1.81h-2.5V95.09Z"/><path class="cls-8" d="M599.27,72c10,0,11.4,2.79,11.4,15.43,0,12.14-1.88,14.9-10.71,14.9-9.46,0-11.71-1.36-11.71-15.17C588.25,75,590,72,599.27,72Zm-5.38,15.28c0,8.82.37,8.9,5.91,8.9,4.7,0,5.23-.45,5.23-8.19,0-1.62-.06-6.6-.47-7.88-.53-1.77-2.28-1.92-5.1-1.92C594.26,78.2,593.89,78.38,593.89,87.29Z"/><path class="cls-8" d="M636,72.31v6.23L624.82,102h-6.73l11.8-23.53H614V72.31Z"/><path class="cls-8" d="M639,80.5c0-6.83,3.51-8.49,10.49-8.49s11.3.94,11.3,8.45c0,2.68-.59,5-3,6.19a3.49,3.49,0,0,1,1.88,1.28c1.47,2,1.5,5.16,1.5,5.84,0,7.85-5.26,8.57-10.83,8.57s-11.78-.15-11.78-8.49c0-.76.06-4,1.54-5.92a3.49,3.49,0,0,1,1.84-1.28C639.78,85.55,639,83.48,639,80.5ZM644.1,93c0,2.87,1.1,3.36,5.77,3.36,4.94,0,5.79-.57,5.79-3.58,0-3.17-1.57-3.36-5.79-3.36C645.23,89.4,644.1,89.74,644.1,93Zm.41-11.92c0,2.61.94,3,5.73,3,4.48,0,5-.71,5-3.17,0-2.18-.56-2.94-5.35-2.94C644.86,77.93,644.51,78.76,644.51,81.06Z"/><path class="cls-8" d="M573.78,143.14v29.72h-5.67V149.32H563v-6.18Z"/><path class="cls-8" d="M584.14,165.92v7.39c0,4.38-3.85,4.53-5.7,4.6v-3.24c1.88-.08,2.51-.41,2.51-1.81h-2.51v-6.94Z"/><path class="cls-8" d="M593.41,162.26c0,4.34.37,4.68,6.26,4.68,2.51,0,5,0,5-3.4,0-3.2-2-3.2-3.38-3.2h-4.88V155h4.88c1.35,0,3,0,3-2.87s-1.88-3.05-5.51-3.05c-5,0-5,1.39-5,4H588.3c.13-8.37,2.45-10.18,10.9-10.18,5,0,7.23.56,8.8,2.33a9.28,9.28,0,0,1,1.91,6c0,1,0,4.79-3,6.15,1.09.49,3.44,1.62,3.44,6.94,0,7.92-4.85,8.9-10.8,8.9-10.43,0-11.81-2.56-11.81-10.9Z"/><path class="cls-8" d="M621.65,162.94c-1.63.23-2.63.57-2.63,2.79v.94h16.56v6.19H613.41v-5.92c0-2.87,0-9.05,6.11-9.92l8-1.13c1.81-.27,2.66-.65,2.66-3.17s-.69-3.7-5.33-3.7c-5.22,0-5.41.79-5.48,4.49h-5.51c0-6.34.29-10.67,10.56-10.67,6.51,0,11.33.52,11.33,9.5,0,3.85-.81,5.81-1.91,7a7.4,7.4,0,0,1-4.6,2.49Z"/><path class="cls-8" d="M649.83,142.84c10,0,11.39,2.79,11.39,15.42,0,12.15-1.87,14.9-10.7,14.9-9.46,0-11.71-1.36-11.71-15.16C638.81,145.78,640.59,142.84,649.83,142.84Zm-5.39,15.27c0,8.83.38,8.9,5.92,8.9,4.7,0,5.23-.45,5.23-8.18,0-1.62-.06-6.6-.47-7.89-.53-1.77-2.29-1.92-5.11-1.92C644.82,149,644.44,149.21,644.44,158.11Z"/><path class="cls-8" d="M682.15,163.93H670.68v8.39h-4.46V150.19h20.42V169.5c0,.57,0,2.9-2.49,2.9h-4.86l-.76-4.67h3c.68,0,.68-.3.68-.78Zm-11.47-4.22h3.53v-5.14h-3.53Zm7.93,0h3.54v-5.14h-3.56Z"/><path class="cls-8" d="M574.05,214.67v29.72h-5.67V220.85h-5.07v-6.18Z"/><path class="cls-8" d="M583.78,237.45v7.39c0,4.38-3.85,4.53-5.7,4.6V246.2c1.88-.08,2.51-.42,2.51-1.81h-2.51v-6.94Z"/><path class="cls-8" d="M587.73,222.85c0-6.83,3.5-8.49,10.48-8.49s11.31.95,11.31,8.45c0,2.68-.6,5-3,6.19a3.48,3.48,0,0,1,1.88,1.28c1.47,2,1.5,5.17,1.5,5.85,0,7.84-5.26,8.56-10.83,8.56s-11.77-.15-11.77-8.49c0-.75.06-4,1.53-5.92A3.61,3.61,0,0,1,590.7,229C588.54,227.91,587.73,225.83,587.73,222.85Zm5.13,12.49c0,2.86,1.1,3.35,5.76,3.35,5,0,5.79-.56,5.79-3.58,0-3.17-1.56-3.36-5.79-3.36C594,231.75,592.86,232.09,592.86,235.34Zm.41-11.92c0,2.6.94,3,5.73,3,4.47,0,5-.72,5-3.17,0-2.19-.57-2.94-5.36-2.94C593.61,220.29,593.27,221.12,593.27,223.42Z"/><path class="cls-8" d="M635.19,214.67v6.22L624,244.39h-6.73l11.8-23.54H613.12v-6.18Z"/><path class="cls-8" d="M649.47,214.36c10,0,11.39,2.8,11.39,15.43,0,12.15-1.88,14.9-10.71,14.9-9.45,0-11.71-1.36-11.71-15.16C638.44,217.31,640.23,214.36,649.47,214.36Zm-5.39,15.28c0,8.83.38,8.9,5.92,8.9,4.69,0,5.23-.45,5.23-8.18,0-1.63-.07-6.6-.47-7.89-.53-1.77-2.29-1.92-5.11-1.92C644.46,220.55,644.08,220.74,644.08,229.64Z"/><path class="cls-8" d="M681.89,235.1H670.42v8.39H666V221.36h20.42v19.31c0,.57,0,2.9-2.49,2.9H679l-.76-4.67h3c.68,0,.68-.3.68-.78Zm-11.47-4.22h3.52v-5.14h-3.52Zm7.92,0h3.55v-5.14h-3.57Z"/></g></svg>