<?xml version="1.0" encoding="utf-8"?>
<!-- Generator: Adobe Illustrator 21.1.0, SVG Export Plug-In . SVG Version: 6.00 Build 0)  -->
<svg version="1.1" id="BIGLOBE" xmlns="http://www.w3.org/2000/svg" xmlns:xlink="http://www.w3.org/1999/xlink" x="0px"
	 y="0px" viewBox="0 0 16 16" style="enable-background:new 0 0 16 16;" xml:space="preserve">
<g>
	<path d="M2.2,8.1L2.2,8.1l-0.6,0V9h0.6c0.3,0,0.5-0.2,0.5-0.5C2.7,8.3,2.5,8.1,2.2,8.1z"/>
	<path d="M9.7,7c-0.6,0-1,0.5-1,1s0.5,1,1,1s1-0.5,1-1C10.7,7.4,10.2,7,9.7,7z"/>
	<path d="M12.5,7.4c0-0.2-0.2-0.4-0.4-0.4h-0.5v0.8h0.5C12.4,7.8,12.5,7.6,12.5,7.4z"/>
	<path d="M2.6,7.4C2.6,7.2,2.4,7,2.1,7H1.6v0.8h0.5C2.4,7.8,2.6,7.6,2.6,7.4z"/>
	<path d="M5.1,2.6c-0.5,0-0.9,0.4-0.9,0.9c0,0.5,0.4,0.9,0.9,0.9C5.6,4.3,6,3.9,6,3.4S5.6,2.6,5.1,2.6z"/>
	<path d="M8,0C3.6,0,0,3.6,0,8s3.6,8,8,8s8-3.6,8-8S12.4,0,8,0z M10.7,1.8c0.9,0,1.6,0.7,1.6,1.6c0,0.9-0.7,1.6-1.6,1.6
		C9.8,5,9.1,4.3,9.1,3.4S9.8,1.8,10.7,1.8z M2.2,9.2H1.4V6.8h0.7c0.4,0,0.7,0.3,0.7,0.7c0,0.2-0.1,0.4-0.2,0.5
		C2.8,8,2.9,8.3,2.9,8.5C2.9,8.9,2.6,9.2,2.2,9.2z M3.6,9.2H3.3V6.8h0.2V9.2z M5.3,9.3C4.6,9.3,4,8.7,4,8c0-0.7,0.6-1.3,1.3-1.3
		c0.5,0,1,0.3,1.2,0.7H6.2C6,7.2,5.6,7,5.3,7c-0.6,0-1,0.5-1,1s0.5,1,1,1c0.4,0,0.9-0.3,1-0.7h-1V8.1h1.3C6.5,8.8,5.9,9.3,5.3,9.3z
		 M5.1,5C4.3,5,3.5,4.3,3.5,3.4s0.7-1.6,1.6-1.6c0.9,0,1.6,0.7,1.6,1.6C6.8,4.3,6,5,5.1,5z M8.3,9.2H7V6.8h0.3V9h1.1V9.2z M9.7,9.3
		C9,9.3,8.4,8.7,8.4,8S9,6.7,9.7,6.7s1.3,0.6,1.3,1.3S10.4,9.3,9.7,9.3z M12.2,9.2h-0.8V6.8h0.7c0.4,0,0.7,0.3,0.7,0.7
		c0,0.2-0.1,0.4-0.2,0.5c0.2,0.1,0.4,0.4,0.4,0.6C12.9,8.9,12.6,9.2,12.2,9.2z M14.6,7.9v0.2h-1.1V9h1.1v0.2h-1.3V6.8h1.3V7h-1.1
		v0.9H14.6z"/>
	<path d="M12.2,8.1L12.2,8.1l-0.6,0V9h0.6c0.3,0,0.5-0.2,0.5-0.5C12.7,8.3,12.5,8.1,12.2,8.1z"/>
	<path d="M10.7,4.3c0.5,0,0.9-0.4,0.9-0.9s-0.4-0.8-0.9-0.9c-0.5,0-0.9,0.4-0.9,0.9C9.9,3.9,10.3,4.3,10.7,4.3z"/>
</g>
</svg>
