<svg id="レイヤー_1" data-name="レイヤー 1" xmlns="http://www.w3.org/2000/svg" width="124" height="119" viewBox="0 0 124 119"><defs><style>.cls-1{fill:#f2a638;}.cls-2{fill:#35318f;}.cls-3{fill:#ffe2cc;}.cls-4{fill:#3a3a3a;}.cls-5{fill:#8fc31f;}.cls-6{fill:#fff;stroke-width:1.95px;}.cls-6,.cls-7{stroke:#ccc;stroke-miterlimit:10;}.cls-7{fill:none;stroke-linecap:round;stroke-width:2.05px;}</style></defs><path class="cls-1" d="M59.27,72.11h28a8,8,0,0,1,8,8v38.62a0,0,0,0,1,0,0h-44a0,0,0,0,1,0,0V80.13A8,8,0,0,1,59.27,72.11Z"/><path class="cls-2" d="M53.9,65.8l-.24-.24c-.81-.71-1.59-1.47-2.34-2.26-.58-.58-1.62-1.79-1.54-1.73a39.17,39.17,0,0,1-5.54-8.83,7.16,7.16,0,0,1-1,2.22c.49.61,1,1.19,1.48,1.75-1.88.73-3.63,5.34-3,11.77A10.3,10.3,0,0,0,44.07,74c2.23,2.67,5.47,3.86,7.48,4.76-.86-6.06,3.19-4.28,4.32-7.41C56.55,68.91,55.6,67.5,53.9,65.8Z"/><path class="cls-2" d="M110.29,39.72c0,11.72-9.17,22.92-14.62,24.34s-23-.38-23-.38-16.12,4.1-20.86,1.2S36.27,50.94,36.27,39.72C36.27,17.63,51.54,1.46,70.22.16c5.36-.38,12.9-.36,16,3.44C103,5.38,110.29,23.44,110.29,39.72Z"/><ellipse class="cls-3" cx="73.28" cy="38.69" rx="32.31" ry="36.08"/><ellipse class="cls-3" cx="41.48" cy="47.25" rx="8.11" ry="7.83"/><ellipse class="cls-3" cx="105.05" cy="47.25" rx="8.11" ry="7.83"/><g id="女子ol2"><ellipse class="cls-4" cx="63.3" cy="43.2" rx="3.22" ry="3.11"/><ellipse class="cls-4" cx="82.91" cy="43.2" rx="3.22" ry="3.11"/><path class="cls-4" d="M73.21,58.26a6.79,6.79,0,0,0,4.71-1.89,1.12,1.12,0,0,0,0-1.63,1.21,1.21,0,0,0-1.69,0,4.39,4.39,0,0,1-6,0,1.23,1.23,0,0,0-1.69,0,1.12,1.12,0,0,0,0,1.63A6.76,6.76,0,0,0,73.21,58.26Z"/></g><path class="cls-2" d="M108.78,29.3a25.84,25.84,0,0,0-4.58-12.18,35.85,35.85,0,0,0-2.81-3.35A39.31,39.31,0,0,0,46.25,13a34.65,34.65,0,0,0-2.77,3.05A34.25,34.25,0,0,0,37.34,29.9a16.6,16.6,0,0,0,.47,9.42c1.32,3.21,2.12,6.93,4,10-1-1.68,1.71-5.9,2.65-7.18a18.23,18.23,0,0,1,6.7-5.35c2.18-2.44,1.15-5.69,10-14.79-3.65,6.66-5.36,13.74-4.51,13.45A35.79,35.79,0,0,1,63,33.87c1.42-.25,12.94-18.34,13.52-17.3-6.64,11.64-7.72,16.58-7,16.53a48,48,0,0,1,10.26.25c.6-.1,5.14-6,5.71-8,.22,5.38-.53,6.92-1,8.47a63.11,63.11,0,0,1,8,2.31l1.51.59s1.19.5,1.76.77a22.7,22.7,0,0,1,4.44,2.35,10.31,10.31,0,0,1,2.15,2,4.59,4.59,0,0,1,.94,2.68c0-.23,1.15-.76,1.34-.91a10.81,10.81,0,0,0,1.32-1.3,6.34,6.34,0,0,0,1.17-1.9,29,29,0,0,0,1.15-3.11A22,22,0,0,0,108.78,29.3Z"/><path class="cls-1" d="M88.81,72.51h0a7.84,7.84,0,0,1,10.16,5l7.67,24.56a.44.44,0,0,1-.28.54l-14.73,5.08a.4.4,0,0,1-.52-.25L83.45,82.89A8.44,8.44,0,0,1,88.81,72.51Z"/><path class="cls-5" d="M105.65,49.47a1.73,1.73,0,0,0,0,2.34l3,3a2.07,2.07,0,0,1,.21,2.33,54.09,54.09,0,0,1-4.5,6.49,62.83,62.83,0,0,1-5.55,5.64,2.25,2.25,0,0,1-2.4.2l-3.62-2.26a1.89,1.89,0,0,0-2.38.44l-5.93,6.84a1.53,1.53,0,0,0,.22,2.33l7.48,7.33a1.91,1.91,0,0,0,2.21.28L98,82a72.11,72.11,0,0,0,13.18-12.4,69,69,0,0,0,10-14.94C122,53,123,50.55,123,50.55a1.51,1.51,0,0,0-.68-2.06l-8.82-6a1.89,1.89,0,0,0-2.41.21Z"/><path class="cls-3" d="M113.53,78.27c1.93-4.27,7.16-13.31,2.2-16.71a3.87,3.87,0,0,0-4.56.32,9.72,9.72,0,0,0-2.32,3.45c-1.41,2.91-1.28,2.39-3.84,1.76a1,1,0,0,0-.54,0,1.1,1.1,0,0,0-.45.41c-1.16,1.62-.83,3.81-.43,5.7.44,2.13.37,4.68,2.2,5.7s5,.93,7.19.37"/><path class="cls-1" d="M98.21,111.72h0a8,8,0,0,1-5.57-10l8.8-28.56,15.87,4.57-8.8,28.55A8.33,8.33,0,0,1,98.21,111.72Z"/><path class="cls-1" d="M60.28,74.2h0a7.85,7.85,0,0,1,3,10.93l-13.2,22.09a.44.44,0,0,1-.58.15L35.92,99.78a.41.41,0,0,1-.16-.56L49,77.13A8.46,8.46,0,0,1,60.28,74.2Z"/><path class="cls-3" d="M30.92,86.81a36.33,36.33,0,0,1-9.57-10.36c-1.88-3.06-2.54-7.2,1.46-9a10.81,10.81,0,0,1,6.91-.21A7.76,7.76,0,0,1,33.49,69,7.91,7.91,0,0,1,35,71.37a18.69,18.69,0,0,1,1.79,5.68c.21,1.92-.08,4.68-1.54,6.15s-4.16,1.7-5.89,3"/><path class="cls-1" d="M46,112.22l-.78.34a8,8,0,0,1-10.36-3.87l-11-24.07,15.14-6.47,11,24.06A7.48,7.48,0,0,1,46,112.22Z"/><polygon class="cls-6" points="40.06 66.89 14.69 77.14 1.29 46.22 26.67 35.97 40.06 66.89"/><line class="cls-7" x1="9.3" y1="50.44" x2="24.03" y2="44.49"/><line class="cls-7" x1="11.54" y1="55.59" x2="26.26" y2="49.64"/><line class="cls-7" x1="13.77" y1="60.75" x2="28.49" y2="54.8"/><path class="cls-3" d="M31,74.5c-1-2.15-.71-4.43-.43-6.65a1.84,1.84,0,0,1,1.66-1.78,2.63,2.63,0,0,1,2.72,1.64,12.77,12.77,0,0,1,1,4.56,2.65,2.65,0,0,1-.66,2.1,3.68,3.68,0,0,1-3.13.82l0-.71"/></svg>