<svg id="レイヤー_1" data-name="レイヤー 1" xmlns="http://www.w3.org/2000/svg" width="129" height="133" viewBox="0 0 129 133"><defs><style>.cls-1{fill:#58cde0;}.cls-2{fill:#35318f;}.cls-3{fill:#ffe2cc;}.cls-4{fill:#3a3a3a;}.cls-5{fill:#fff;}.cls-6{fill:none;stroke:#999;stroke-miterlimit:10;stroke-width:3.12px;}.cls-7{fill:#999;}.cls-8{fill:#ccc;}</style></defs><path class="cls-1" d="M64.61,85.13H79.55a.4.4,0,0,1,.4.4v25.1a7.87,7.87,0,0,1-7.87,7.87h0a7.87,7.87,0,0,1-7.87-7.87V85.54A.4.4,0,0,1,64.61,85.13Z" transform="translate(83.59 226.04) rotate(-150)"/><path class="cls-1" d="M101.42,85.13h14.94a.4.4,0,0,1,.4.4v25.1a7.87,7.87,0,0,1-7.87,7.87h0a7.87,7.87,0,0,1-7.87-7.87V85.54a.4.4,0,0,1,.4-.4Z" transform="translate(252.49 141.85) rotate(152.5)"/><path class="cls-2" d="M60.46,67.34s4.73,12.33-5,19.15A21,21,0,0,0,74.9,81.24S73.06,72.32,60.46,67.34Z"/><path class="cls-2" d="M120.09,67.34s-4.72,12.33,5,19.15a21,21,0,0,1-19.42-5.25S107.5,72.32,120.09,67.34Z"/><path class="cls-1" d="M78.35,86.49h23.39a7.41,7.41,0,0,1,7.41,7.41v38.49a0,0,0,0,1,0,0H70.94a0,0,0,0,1,0,0V93.89A7.41,7.41,0,0,1,78.35,86.49Z"/><path class="cls-2" d="M125.22,54.61c0,11.53-8.72,22.56-13.9,24s-21.82-.38-21.82-.38-15.32,4-19.83,1.18S54.86,65.66,54.86,54.61c0-21.74,14.51-37.66,32.27-38.94,5.1-.37,12.27-.35,15.19,3.39C118.32,20.81,125.22,38.59,125.22,54.61Z"/><ellipse class="cls-3" cx="90.04" cy="53.59" rx="30.71" ry="35.51"/><circle class="cls-3" cx="59.81" cy="62.02" r="7.71"/><circle class="cls-3" cx="120.24" cy="62.02" r="7.71"/><g id="女子ol2"><circle class="cls-4" cx="80.56" cy="58.04" r="3.06"/><circle class="cls-4" cx="99.2" cy="58.03" r="3.06"/><path class="cls-4" d="M90,73.84c1.82,0,5-2.36,5-5.27,0,0-5,2.64-10,0C85,71.58,88.21,73.84,90,73.84Z"/></g><path class="cls-2" d="M58.36,54s5.51.27,13.12-18.89c0,0,21.78,21.26,51.7,19.42,0,0,4.72-16-14.17-31s-37.79-2.1-42,2.36S55.74,42.41,58.36,54Z"/><rect class="cls-5" x="95.76" y="98.56" width="11.02" height="2.76"/><path class="cls-3" d="M42.5,86.52A28.94,28.94,0,0,0,35,88.43c-.56,1.13.58,2.34,1.58,3l6.74,4.67a33.85,33.85,0,0,0,6.19,3.67c4.37,1.81,9.62-4.19,7.72-8.68-1.5-3.52-2.47-3.74-5.85-3.9C48.39,87.09,45.47,86.31,42.5,86.52Z"/><path class="cls-3" d="M56.61,91.54c.06-1.94-1.4-3.5-2.42-5.11-1.59-2.51-2.68-4.37-3.36-4.4-1.78,0-.8,3-.82,4.17s.86,2.51,1.4,3.57.21.61,1.42.91a12.33,12.33,0,0,0,3.69.16"/><path class="cls-1" d="M51.41,94.19H67.16a0,0,0,0,1,0,0v25.91a7.47,7.47,0,0,1-7.47,7.47h-.81a7.47,7.47,0,0,1-7.47-7.47V94.19A0,0,0,0,1,51.41,94.19Z" transform="translate(-39.83 33.52) rotate(-23.89)"/><path class="cls-1" d="M103.63,104h15.74a0,0,0,0,1,0,0v18.59a6.62,6.62,0,0,1-6.62,6.62h-2.51a6.62,6.62,0,0,1-6.62-6.62V104A0,0,0,0,1,103.63,104Z" transform="translate(112.35 277.87) rotate(-136.57)"/><path class="cls-6" d="M122,68v9.9a3.14,3.14,0,0,1-3.12,3.12H91.45"/><ellipse class="cls-7" cx="94.18" cy="81.11" rx="5.31" ry="3.35"/><path class="cls-8" d="M128.87,57.53q0-.78-.09-1.53c0-.11,0-.22,0-.33a14.54,14.54,0,0,0-.28-1.67l-.12-.46c-.1-.4-.21-.78-.34-1.15,0-.1,0-.21-.09-.31a1.42,1.42,0,0,0-.08-.18c-.06-.17-.14-.33-.21-.49s-.16-.38-.25-.55-.23-.43-.35-.63l-.15-.25a33.93,33.93,0,0,0-6.33-17.08,36.41,36.41,0,0,0-12.26-10.71,36.92,36.92,0,0,0-6-2.59A38.05,38.05,0,0,0,93,17.76l-.47,0c-.8,0-1.61-.1-2.43-.1H90c-.81,0-1.62.05-2.42.1l-.47,0a38,38,0,0,0-9.25,1.84,36.81,36.81,0,0,0-6,2.59A36.41,36.41,0,0,0,59.62,32.9,33.84,33.84,0,0,0,53.28,50l-.14.25c-.12.2-.24.41-.35.63s-.17.36-.25.55-.15.32-.22.49a1.42,1.42,0,0,1-.08.18c0,.1-.05.21-.09.31-.12.37-.24.75-.34,1.15,0,.15-.08.3-.11.46-.12.54-.22,1.09-.29,1.67,0,.11,0,.22,0,.33-.05.5-.07,1-.08,1.53,0,.17,0,.34,0,.51,0,.63,0,1.27.09,1.93,0,.45.11.89.18,1.33,0,.13,0,.26.08.39,0,.3.11.59.18.88s.07.3.11.44.14.53.22.79.09.28.13.43l.27.74.15.39c.11.25.21.49.33.74l.15.31c.13.27.27.52.41.77l.12.2c1.44,2.4,3.38,3.91,5.41,4a2.71,2.71,0,0,0,.57,0,4.1,4.1,0,0,0,.73-.16l.19-.06a3.88,3.88,0,0,0,.58-.28l.1-.06a3.85,3.85,0,0,0,.34-.26,1.14,1.14,0,0,0,.11-.11l.19-.2a4.31,4.31,0,0,0,.32-.4l.09-.11,0-.06a6.26,6.26,0,0,0,.69-1.52c0-.09,0-.2.07-.29a.88.88,0,0,0,0-.15c0-.18.09-.35.13-.54a.36.36,0,0,1,0-.1.09.09,0,0,1,0,0,.25.25,0,0,1,0-.08,16.18,16.18,0,0,0,.21-1.67s0-.07,0-.1c0-.6.07-1.24.06-1.9v-.08c0-.68,0-1.37-.06-2.09V61c0-.72-.1-1.47-.18-2.23v0s0-.05,0-.08c0-.35-.07-.7-.11-1l0-.17s0-.09,0-.13,0-.09,0-.14c-.1-.74-.2-1.46-.32-2.15l0-.15c-.12-.65-.25-1.27-.4-1.86a.94.94,0,0,0,0-.16.29.29,0,0,0,0-.09h0c-.59-2.26-1.42-4-2.62-4.94a3.2,3.2,0,0,0-.53-.34c-.1-.05-.22-.08-.33-.13l-.2-.08-.47-.1c-.1,0-.19-.05-.28-.06.14-.75.3-1.51.51-2.24a29.83,29.83,0,0,1,5.66-12.26,33.12,33.12,0,0,1,49.5-2.74,31.16,31.16,0,0,1,2.4,2.74,30,30,0,0,1,5.67,12.26c.2.73.37,1.49.51,2.24-.1,0-.19.05-.28.06l-.47.1-.2.08-.34.13a4.32,4.32,0,0,0-.53.34c-1.19.93-2,2.68-2.61,4.94h0l0,.09,0,.16c-.15.59-.28,1.21-.4,1.86l0,.15c-.12.69-.23,1.41-.32,2.15a.68.68,0,0,0,0,.14s0,.09,0,.13a1,1,0,0,1,0,.17c0,.34-.08.69-.11,1a.22.22,0,0,0,0,.08v0c-.08.76-.14,1.51-.18,2.23v.07c0,.72-.06,1.41-.07,2.09v.08c0,.66,0,1.3.07,1.9v.1a16.11,16.11,0,0,0,.22,1.67.25.25,0,0,1,0,.08s0,0,0,0,0,.07,0,.1l.12.54a.88.88,0,0,1,0,.15c0,.09,0,.2.07.29a6.26,6.26,0,0,0,.69,1.52l0,.06a.87.87,0,0,0,.09.11,3.12,3.12,0,0,0,.32.4,1.8,1.8,0,0,0,.19.2,1.14,1.14,0,0,0,.11.11,2.78,2.78,0,0,0,.34.26l.1.06a3.88,3.88,0,0,0,.58.28l.19.06a4,4,0,0,0,.72.16,2.81,2.81,0,0,0,.58,0c2-.07,4-1.58,5.41-4a1.28,1.28,0,0,0,.11-.2c.15-.25.29-.5.42-.77l.15-.31.33-.74.15-.39c.09-.24.18-.49.26-.74s.1-.29.14-.43.15-.52.22-.79.08-.29.11-.44.13-.58.18-.88c0-.13.05-.26.08-.39.07-.44.13-.88.17-1.33.07-.66.09-1.3.1-1.93C128.88,57.87,128.87,57.7,128.87,57.53Z"/><ellipse class="cls-8" cx="34.64" cy="14.96" rx="18.89" ry="14.96"/><polygon class="cls-8" points="46.96 30.9 36.92 26.1 46.1 19.8 46.96 30.9"/><ellipse class="cls-8" cx="18.89" cy="52.74" rx="18.89" ry="14.96"/><polygon class="cls-8" points="37.6 63.09 26.51 62.21 32.81 53.05 37.6 63.09"/></svg>