<svg id="レイヤー_1" data-name="レイヤー 1" xmlns="http://www.w3.org/2000/svg" width="56.52" height="56.52" viewBox="0 0 56.52 56.52"><defs><style>.cls-1{fill:#f0f0f0;}.cls-2{fill:#3176d5;stroke:#3176d5;stroke-miterlimit:10;stroke-width:0.14px;}</style></defs><g id="Layout"><rect class="cls-1" width="56.52" height="56.52" rx="3.01"/><path class="cls-2" d="M14.47,17.43a3.6,3.6,0,0,1-.62-1.8,3.74,3.74,0,0,1,3.72-3.37,3.42,3.42,0,0,1,2.82,1.8L27.83,25.5l7.44-11.44a3.27,3.27,0,0,1,2.85-1.8,3.77,3.77,0,0,1,3.68,3.33,3.78,3.78,0,0,1-.62,1.84L35.7,25.69h3.73A1.42,1.42,0,0,1,40.91,27v.06a1.46,1.46,0,0,1-1.44,1.49H33.78l-2.31,3.53h8a1.45,1.45,0,1,1,0,2.89H31.24v7.68c0,1.14-.19,3.21-3.37,3.21-2.42,0-3.43-1-3.43-3.17V35h-8.2a1.45,1.45,0,0,1-1.49-1.42v0a1.43,1.43,0,0,1,1.42-1.45h8l-2.31-3.53H16.24a1.45,1.45,0,0,1-1.49-1.42v0a1.43,1.43,0,0,1,1.42-1.45H20Z"/></g></svg>