<svg id="レイヤー_1" data-name="レイヤー 1" xmlns="http://www.w3.org/2000/svg" width="56.52" height="56.52" viewBox="0 0 56.52 56.52"><defs><style>.cls-1{fill:#f0f0f0;}.cls-2{fill:none;stroke:#3176d5;stroke-linecap:round;stroke-linejoin:round;stroke-width:3.64px;}.cls-3{fill:#f39802;}</style></defs><g id="Layout"><rect class="cls-1" width="56.52" height="56.52" rx="3.01"/></g><g id="Layout-2" data-name="Layout"><line class="cls-2" x1="16.23" y1="25.23" x2="39.23" y2="25.23"/><line class="cls-2" x1="19.53" y1="19.03" x2="42.53" y2="19.03"/><line class="cls-2" x1="16.23" y1="37.57" x2="39.23" y2="37.57"/><line class="cls-2" x1="7.99" y1="31.37" x2="27.2" y2="31.37"/><path class="cls-3" d="M39.08,32.63c2.59.29,4.65,3,4.89,6.35,0,.35.23.63.5.63h.1c.27,0,.48-.28.5-.63.23-3.37,2.3-6.06,4.89-6.35a.63.63,0,0,0,.48-.67v-.12a.62.62,0,0,0-.48-.67c-2.59-.3-4.66-3-4.89-6.35,0-.36-.23-.64-.5-.64h-.1c-.27,0-.48.28-.5.64-.24,3.37-2.3,6.05-4.89,6.35a.62.62,0,0,0-.48.67V32A.62.62,0,0,0,39.08,32.63Z"/></g></svg>