<?xml version="1.0" encoding="utf-8"?>
<!-- Generator: Adobe Illustrator 27.6.1, SVG Export Plug-In . SVG Version: 6.00 Build 0)  -->
<svg version="1.1" id="レイヤー_1" xmlns="http://www.w3.org/2000/svg" xmlns:xlink="http://www.w3.org/1999/xlink" x="0px"
	 y="0px" width="140px" height="150px" viewBox="0 0 140 150" style="enable-background:new 0 0 140 150;" xml:space="preserve">
<style type="text/css">
	.st0{fill:#E3654D;}
	.st1{fill:#FFFFFF;}
	.st2{enable-background:new    ;}
</style>
<path class="st0" d="M3,107.3h134c1.7,0,3,1.3,3,3V147c0,1.7-1.3,3-3,3H3c-1.7,0-3-1.3-3-3v-36.7C0,108.6,1.3,107.3,3,107.3z"/>
<path class="st1" d="M70.1,113.9c-30.2,0-54.7-24.5-54.7-54.7S39.9,4.5,70.1,4.5s54.7,24.5,54.7,54.7S100.3,113.9,70.1,113.9z"/>
<path class="st0" d="M70.1,9c27.7,0,50.2,22.5,50.2,50.2s-22.5,50.2-50.2,50.2S20,86.9,20,59.2l0,0C20,31.5,42.4,9,70.1,9 M70.1,0
	C37.5,0,11,26.5,11,59.2s26.5,59.2,59.2,59.2s59.2-26.5,59.2-59.2l0,0C129.3,26.5,102.8,0,70.1,0z"/>
<path class="st0" d="M69.9,79c-2.1,0-4,0.8-5.5,2.3c-1.5,1.4-2.3,3.3-2.3,5.3c0,1,0.2,2,0.6,2.9c0.4,0.9,1,1.7,1.7,2.3
	c1.5,1.3,3.5,2.1,5.5,2.1c2.1,0,4-0.8,5.5-2.3c1.5-1.4,2.3-3.3,2.3-5.3s-0.8-3.9-2.3-5.2C73.9,79.8,72,79,69.9,79z"/>
<path class="st0" d="M65.1,24.6h9.7c0.5,0,1,0.4,1,1v45.1c0,0.5-0.4,1-1,1h-9.7c-0.5,0-1-0.4-1-1V25.6
	C64.1,25.1,64.6,24.6,65.1,24.6z"/>
<g>
	<g class="st2">
		<path class="st1" d="M49,140.3h14.1v3.1H31v-3.1h13.8v-1.8H33.6v-3h11.1v-1.5h-10v-10.6h10v-1.3H31.2v-3.1h13.5v-1.6
			c-3.4,0.2-7,0.3-10.3,0.4c-0.1-0.9-0.5-2.2-0.9-3c8.4-0.2,18.1-0.8,23.9-1.7l2.8,3c-0.1,0.1-0.3,0.1-0.5,0.1c-0.1,0-0.3,0-0.4-0.1
			c-2.8,0.4-6.4,0.8-10.3,1.1v1.8h13.9v3.1H49v1.3h10.6v10.6H49v1.5h11.9v3H49V140.3z M38.9,126.1v1.5h5.9v-1.5H38.9z M38.9,131.5
			h5.9V130h-5.9V131.5z M55.2,126.1H49v1.5h6.2V126.1z M55.2,131.5V130H49v1.5H55.2z"/>
	</g>
	<g class="st2">
		<path class="st1" d="M113.4,134.6h-6.9c-0.9,1.6-2,2.9-3.2,4c3.4,0.9,6.5,1.8,8.9,2.6l-2.5,3.2c-2.7-1-6.3-2.1-10.3-3.2
			c-3.9,1.8-9.1,2.7-16.1,3.2c-0.3-1.1-1-2.5-1.6-3.4c4.6-0.2,8.5-0.6,11.6-1.4c-1.1-0.3-2.3-0.5-3.4-0.8l-0.4,0.5l-4.1-1.2
			c0.8-1,1.8-2.2,2.8-3.6h-7.3v-3.2h9.6l1.6-2.4h-8.2v-9.3h7.5v-1.9H81v-3.4h32.1v3.4h-10.5v1.9h7.7v9.3H96.9l0.5,0.1
			c-0.1,0.3-0.4,0.4-1.1,0.4l-1.2,1.8h18.2V134.6z M87.7,122.9v3.1h3.5v-3.1H87.7z M92.9,134.6l-1,1.4c2.2,0.4,4.5,0.9,6.7,1.4
			c1.2-0.8,2.2-1.7,3.1-2.8H92.9z M95.2,117.8v1.9h3.5v-1.9H95.2z M95.2,126h3.5v-3.1h-3.5V126z M106.2,122.9h-3.6v3.1h3.6V122.9z"
			/>
	</g>
</g>
</svg>
