<svg id="レイヤー_1" data-name="レイヤー 1" xmlns="http://www.w3.org/2000/svg" width="84.91" height="58.24" viewBox="0 0 84.91 58.24"><defs><style>.cls-1{fill:#00aae7;}.cls-2{fill:#fff;}.cls-3{fill:#b4b4b4;}.cls-4{fill:#f39800;}.cls-5{fill:none;stroke:#fff;stroke-miterlimit:10;stroke-width:3px;}</style></defs><path id="パス_4772" data-name="パス 4772" class="cls-1" d="M35.76,0H1.3A1.3,1.3,0,0,0,0,1.3V56.94a1.3,1.3,0,0,0,1.3,1.3H35.76a1.31,1.31,0,0,0,1.31-1.3V1.3A1.32,1.32,0,0,0,35.76,0Z"/><g id="グループ_2400" data-name="グループ 2400"><path id="パス_4773" data-name="パス 4773" class="cls-2" d="M21.84,53.77H15.22a1.32,1.32,0,1,1,0-2.64h6.62a1.32,1.32,0,1,1,0,2.64Z"/><rect id="長方形_2282" data-name="長方形 2282" class="cls-2" x="4.63" y="5.29" width="27.8" height="41.04" rx="1.55"/></g><path id="パス_4772-2" data-name="パス 4772" class="cls-3" d="M83.6,0H49.15a1.31,1.31,0,0,0-1.31,1.3V56.94a1.31,1.31,0,0,0,1.31,1.3H83.6a1.31,1.31,0,0,0,1.31-1.3V1.3A1.31,1.31,0,0,0,83.6,0Z"/><g id="グループ_2400-2" data-name="グループ 2400"><path id="パス_4773-2" data-name="パス 4773" class="cls-2" d="M69.69,53.77H63.07a1.32,1.32,0,1,1,0-2.64h6.61a1.32,1.32,0,1,1,0,2.64Z"/><rect id="長方形_2282-2" data-name="長方形 2282" class="cls-2" x="52.48" y="5.29" width="27.8" height="41.04" rx="1.55"/></g><path class="cls-4" d="M61.61,24l-15-12.79c-1.65-1.4-3-.77-3,1.39v3.52H19.2a2,2,0,0,0-2,2V35a2,2,0,0,0,2,2H43.56v3.53c0,2.16,1.35,2.78,3,1.38l15-12.78A3.23,3.23,0,0,0,61.61,24Z"/><path class="cls-5" d="M61.61,24l-15-12.79c-1.65-1.4-3-.77-3,1.39v3.52H19.2a2,2,0,0,0-2,2V35a2,2,0,0,0,2,2H43.56v3.53c0,2.16,1.35,2.78,3,1.38l15-12.78A3.23,3.23,0,0,0,61.61,24Z"/><path class="cls-2" d="M36,30.58H34.42V25.41l-1.59,3.44H31.76l-1.59-3.42v5.15H28.68V23.23h1.8l1.86,3.91,1.86-3.91H36Z"/><path class="cls-2" d="M44.3,30.58H42.75l-3.3-5.39v5.39H38V23.23h1.95L42.81,28V23.23H44.3Z"/><path class="cls-2" d="M47.86,28.08v2.5H46.25V23.23H49a3.48,3.48,0,0,1,2.18.58A2.06,2.06,0,0,1,52,25.52a2.3,2.3,0,0,1-.82,1.86,3.17,3.17,0,0,1-2.14.7Zm0-3.7v2.53h.43a2.71,2.71,0,0,0,1.61-.33,1.3,1.3,0,0,0,.39-1,1.05,1.05,0,0,0-.38-.87,2.58,2.58,0,0,0-1.5-.3Z"/></svg>