<svg id="レイヤー_1" data-name="レイヤー 1" xmlns="http://www.w3.org/2000/svg" width="82.42" height="62.94" viewBox="0 0 82.42 62.94"><defs><style>.cls-1{fill:#00aae7;}.cls-2{fill:#f39800;}</style></defs><g id="パス_4735" data-name="パス 4735"><path class="cls-1" d="M40.94,14.24l-13-13a4.29,4.29,0,0,0-3-1.26H2.86A2.86,2.86,0,0,0,0,2.86H0V60.08a2.86,2.86,0,0,0,2.86,2.86H39.33a2.87,2.87,0,0,0,2.87-2.86h0V17.27A4.29,4.29,0,0,0,40.94,14.24ZM14.48,54.42a1,1,0,0,1-1,1H7.78a1,1,0,0,1-1-1v-5.1a1,1,0,0,1,1-1h5.69a1,1,0,0,1,1,1Zm0-10.27a1,1,0,0,1-1,1H7.78a1,1,0,0,1-1-1v-5.1a1,1,0,0,1,1-1h5.69a1,1,0,0,1,1,1ZM24,54.53a1,1,0,0,1-1,1H18.8a1,1,0,0,1-1-1V35.17a1,1,0,0,0-1-1h-9a1,1,0,0,1-1-1V28.78a1,1,0,0,1,1-1L23,27.7a1,1,0,0,1,1,1Zm11.29-.11a1,1,0,0,1-1,1h-5.7a1,1,0,0,1-1-1v-5.1a1,1,0,0,1,1-1h5.7a1,1,0,0,1,1,1Zm0-10.27a1,1,0,0,1-1,1h-5.7a1,1,0,0,1-1-1v-5.1a1,1,0,0,1,1-1h5.7a1,1,0,0,1,1,1Zm0-10.27a1,1,0,0,1-1,1h-5.7a1,1,0,0,1-1-1V28.79a1,1,0,0,1,1-1h5.7a1,1,0,0,1,1,1Z"/></g><path class="cls-2" d="M81.89,33.69a1.24,1.24,0,0,0,0-2L67.13,19.13v6.49H49.57a.71.71,0,0,0-.7.7V39a.7.7,0,0,0,.7.69H67.13v6.49Z"/></svg>