<svg id="レイヤー_1" data-name="レイヤー 1" xmlns="http://www.w3.org/2000/svg" width="82.67" height="64.44" viewBox="0 0 82.67 64.44"><defs><style>.cls-1{fill:#00aae7;}.cls-2{fill:#fff;}.cls-3{fill:#f39800;}</style></defs><path id="パス_4772" data-name="パス 4772" class="cls-1" d="M39.57,0H1.44A1.45,1.45,0,0,0,0,1.44V63a1.44,1.44,0,0,0,1.44,1.44H39.57A1.44,1.44,0,0,0,41,63V1.44A1.45,1.45,0,0,0,39.57,0Z"/><g id="グループ_2400" data-name="グループ 2400"><path id="パス_4773" data-name="パス 4773" class="cls-2" d="M24.17,59.5H16.84a1.47,1.47,0,0,1,0-2.93h7.33a1.47,1.47,0,0,1,0,2.93Z"/><rect id="長方形_2282" data-name="長方形 2282" class="cls-2" x="5.13" y="5.86" width="30.76" height="45.4" rx="1.71"/></g><path class="cls-3" d="M82.14,33.24a1.36,1.36,0,0,0,.53-1,1.34,1.34,0,0,0-.53-1L67.38,18.68v6.49H49.82a.7.7,0,0,0-.69.69V38.58a.7.7,0,0,0,.69.7H67.38v6.49Z"/></svg>