<?xml version="1.0" encoding="utf-8"?>
<!-- Generator: Adobe Illustrator 25.3.1, SVG Export Plug-In . SVG Version: 6.00 Build 0)  -->
<svg version="1.1" id="レイヤー_1" xmlns="http://www.w3.org/2000/svg" xmlns:xlink="http://www.w3.org/1999/xlink" x="0px"
	 y="0px" viewBox="0 0 623.1 134.4" style="enable-background:new 0 0 623.1 134.4;" xml:space="preserve">
<style type="text/css">
	.st0{fill:#FFFFFF;}
	.st1{fill:none;stroke:#E3E3E3;stroke-width:4;stroke-miterlimit:10;}
	.st2{fill:#313131;}
	.st3{clip-path:url(#SVGID_2_);}
	.st4{fill:#FFDBC2;}
	.st5{fill:#1FC97C;}
	.st6{fill:#35318F;}
	.st7{fill:#3F3F8C;}
	.st8{fill:#D8A684;}
	.st9{fill:#F39800;}
	.st10{fill:#AFAFAF;}
	.st11{fill:none;}
	.st12{clip-path:url(#SVGID_4_);}
	.st13{fill:#F2A638;}
	.st14{fill:#FFDDC6;}
	.st15{fill:#1DA9D0;}
</style>
<g>
	<g>
		<g>
			<g>
				<g>
					<path class="st0" d="M238,4.5h-62.7c-29.7,0-53.8,24.1-53.8,53.8v0c0,24.5,16.4,45.2,38.8,51.7c-1.2,4.8-2.5,9.5-3.7,14.3
						c-0.1,0.2,0,0.5,0.2,0.6c0.1,0.1,0.3,0.1,0.5,0c7.2-4.2,14.3-8.5,21.5-12.7H238c29.7,0,53.8-24.1,53.8-53.8v0
						C291.8,28.6,267.7,4.5,238,4.5z"/>
				</g>
				<g>
					<path class="st1" d="M238,4.5h-62.7c-29.7,0-53.8,24.1-53.8,53.8v0c0,24.5,16.4,45.2,38.8,51.7c-1.2,4.8-2.5,9.5-3.7,14.3
						c-0.1,0.2,0,0.5,0.2,0.6c0.1,0.1,0.3,0.1,0.5,0c7.2-4.2,14.3-8.5,21.5-12.7H238c29.7,0,53.8-24.1,53.8-53.8v0
						C291.8,28.6,267.7,4.5,238,4.5z"/>
				</g>
			</g>
			<g>
				<path class="st2" d="M152.6,46c-0.4,2.5-1.3,4.4-2.9,6.3c-0.7-0.9-1.3-1.5-2.2-2.2c2.4-2.5,2.8-4.6,2.8-12.8
					c0-1.5,0-2.4-0.1-3.1c0.8,0.1,1.4,0.1,2.5,0.1h8.7c1.2,0,1.8,0,2.4-0.1c-0.1,0.5-0.1,1.1-0.1,2.4v12.8c0,1.2-0.2,1.8-0.8,2.2
					c-0.5,0.3-1.2,0.4-2.6,0.4c-0.6,0-1.3,0-2.3-0.1c-0.2-1.1-0.3-1.7-0.7-2.7c1.1,0.2,2.2,0.2,3,0.2c0.6,0,0.7-0.1,0.7-0.5V46
					H152.6z M160.9,43.6v-2.3h-8c0,0.7-0.1,1.4-0.1,2.3H160.9z M160.9,38.9v-2.1H153v2.1H160.9z"/>
				<path class="st2" d="M175.1,39.8c-1.6,2.8-2.7,4.3-5.1,6.7c-0.9-0.8-1.4-1.2-2.4-1.7c2.5-2.3,3.6-3.7,5-6.1
					c1.1-1.9,1.6-3.5,1.8-4.6l3,0.8c-0.2,0.3-0.3,0.6-0.7,1.5c-0.1,0.1-0.1,0.2-0.4,1.1h4.1c1.2,0,1.9,0,2.3-0.1l1.6,1.8
					c-0.1,0.2-0.4,0.7-0.6,1.1c-1.2,2.4-2.6,4.6-4.2,6.7c1.1,1,1.6,1.5,2.5,2.6l-2,2c-1.2-1.4-1.8-2-3-3.1c-1.3-1.2-2.1-1.9-3.9-3.1
					l2-1.8c1,0.7,1.5,1.1,2.4,1.8c1.4-1.8,2.2-3,3.3-5.4H175.1z"/>
				<path class="st2" d="M196.3,46.1c-1.1,2.5-2.4,3.7-4.2,3.7c-2.5,0-4.2-2.4-4.2-5.9c0-2.3,0.8-4.4,2.2-5.9c1.7-1.9,4.2-2.9,7-2.9
					c5,0,8.2,3,8.2,7.7c0,3.6-1.8,6.5-5,7.7c-1,0.4-1.8,0.6-3.2,0.8c-0.4-1.3-0.7-1.8-1.5-2.8c1.8-0.1,3-0.5,4-1
					c1.7-0.9,2.8-2.8,2.8-4.9c0-1.8-0.8-3.3-2.1-4.2c-0.6-0.4-1.1-0.5-1.9-0.6C198,41.1,197.3,43.7,196.3,46.1z M193.1,38.8
					c-1.5,1.2-2.5,3.1-2.5,5.1c0,1.5,0.6,2.7,1.4,2.7c0.6,0,1.2-0.8,1.8-2.4c0.7-1.8,1.4-4.3,1.6-6.4
					C194.5,37.9,193.9,38.2,193.1,38.8z"/>
				<path class="st2" d="M215.3,46.3c-0.2,0.5-0.3,0.6-0.5,1.2c-1-1.2-1.1-1.3-1.7-2.3c0.1,1.2,0.1,1.3,0.1,1.9v3.1
					c0,0.9,0,1.5,0.1,2h-2.7c0.1-0.6,0.1-1.2,0.1-2.1v-2.2c0-0.8,0-1.5,0.1-2c-0.9,2-1.4,2.9-2.3,3.9c-0.3-1-0.7-1.8-1.2-2.5
					c1.3-1.2,2.3-2.8,3.1-4.8h-0.9c-0.9,0-1.3,0-1.8,0.1V40c0.5,0.1,0.9,0.1,1.8,0.1h1.2v-4.7c0-0.9,0-1.3-0.1-1.9h2.7
					c-0.1,0.5-0.1,0.9-0.1,1.8v3.3c0.7-1.7,0.9-2.5,1.2-4.2l1.9,0.9c-0.6,2.1-0.9,3.1-1.5,4.3l-1.6-0.9v1.3h0.8c0.8,0,1.1,0,1.6-0.1
					v2.5c-0.5-0.1-0.9-0.1-1.6-0.1h-0.6c0.6,0.9,1.4,1.7,2.5,2.6C215.7,45.6,215.6,45.8,215.3,46.3c0.5-0.1,1.2-0.2,1.9-0.4l4.3-0.9
					v-9c0-1.2,0-1.8-0.1-2.4h2.8c-0.1,0.7-0.1,1.2-0.1,2.4v8.5c0.8-0.2,1.1-0.3,1.7-0.5l0.3,2.7c-0.5,0.1-1,0.1-2,0.3v2.7
					c0,1.2,0,1.7,0.1,2.4h-2.8c0.1-0.7,0.1-1.2,0.1-2.5v-2.2l-3.9,0.9c-0.9,0.2-1.5,0.3-1.9,0.5L215.3,46.3z M209.4,34.5
					c0.6,1.8,0.9,2.8,1.2,4.3l-1.9,0.9c-0.3-1.9-0.6-3-1.2-4.3L209.4,34.5z M217.4,39.8c1.5,1.1,2.4,1.8,3.4,2.9l-1.6,1.9
					c-1.4-1.4-2.1-2.1-3.5-3.1L217.4,39.8z M218.1,34.8c1.7,1.2,2.3,1.7,3.4,2.9l-1.6,2c-1.4-1.5-1.6-1.7-3.5-3L218.1,34.8z"/>
				<path class="st2" d="M233.6,41c-0.8,0-1.4,0-2,0.1v-0.9c-1.1,0.6-1.9,1.1-3.2,1.6c-0.5-1.3-0.7-1.6-1.3-2.5
					c3.6-1.2,6.7-3.3,8-5.6h2.9c0.8,1.1,1.5,1.9,2.9,2.8c1.6,1.2,3.2,2,5.3,2.6c-0.6,0.9-0.9,1.6-1.2,2.7c-1.4-0.6-2.2-1-3.3-1.7
					v0.9c-0.6-0.1-1.2-0.1-2-0.1h-1.8v1.6h4.8c1.1,0,1.8,0,2.3-0.1v2.6c-0.5-0.1-1.3-0.1-2.3-0.1h-4.8v4.1h3.8l-2.3-0.8
					c0.6-1,1-1.9,1.4-3.1l2.5,0.9c-0.9,1.9-1,2.1-1.6,3.1h1.4c1,0,1.7,0,2.4-0.1v2.6c-0.7-0.1-1.6-0.1-2.5-0.1h-12.6
					c-1,0-1.8,0-2.6,0.1V49c0.7,0.1,1.5,0.1,2.6,0.1h4.8V45h-4.5c-0.9,0-1.6,0-2.3,0.1v-2.6c0.5,0.1,1.2,0.1,2.3,0.1h4.5V41H233.6z
					 M232.3,45.2c0.6,1.1,1.1,2,1.5,3.1l-2.4,0.8c-0.6-1.4-0.9-2.2-1.5-3.1L232.3,45.2z M239.6,38.8c-1.3-1-2.1-1.7-3-2.8
					c-0.9,1.1-1.6,1.8-2.9,2.8H239.6z"/>
				<path class="st2" d="M248.7,35.8c0.7,0.2,2,0.3,3.7,0.3h0.4h0.4h0.2c0.5-1.2,0.6-1.7,0.7-2.3l3.1,0.3c-0.1,0.2-0.1,0.2-0.7,1.7
					c-0.1,0.2-0.1,0.2-0.2,0.4c0.3,0,0.4,0,1.2-0.1c2.4-0.1,4-0.4,5.2-0.7l0.1,2.7c-0.6,0.1-0.6,0.1-1.6,0.2
					c-1.5,0.2-4.1,0.3-6.1,0.4c-0.4,0.7-0.7,1.1-1.3,2c1-0.6,1.8-0.8,2.8-0.8c1.6,0,2.6,0.7,3,2c0.2-0.1,0.5-0.2,1.1-0.4
					c0.8-0.3,0.9-0.3,1.8-0.6c1.1-0.4,1.2-0.4,1.6-0.6l1.1,2.7c-0.6,0.1-1.2,0.2-2.3,0.5c-0.5,0.1-0.5,0.1-2.9,0.9l0,0.7v0.4V46v0.4
					c0,0.6,0,0.9,0.1,1.3l-2.8,0.1c0.1-0.4,0.1-1.3,0.1-2.3c0,0,0-0.1,0-0.2c-0.8,0.4-1.2,0.6-1.6,0.9c-0.6,0.4-0.9,0.9-0.9,1.4
					c0,0.9,0.9,1.3,3,1.3c2.4,0,4.6-0.3,6.1-0.9l0.2,3.1c-0.4,0-0.5,0-1,0.1c-1.7,0.2-3.5,0.4-5.1,0.4c-2.9,0-4.6-0.4-5.5-1.5
					c-0.5-0.6-0.8-1.3-0.8-2.2c0-1.2,0.8-2.5,2.3-3.6c0.7-0.5,1.5-0.9,2.9-1.5c-0.1-0.5-0.4-0.8-1-0.8c-1.1,0-2.4,0.7-3.9,2
					c-0.8,0.7-1.3,1.3-1.8,1.9l-2.2-2.1c1.1-0.8,2.9-2.9,3.9-4.7c0.2-0.3,0.2-0.4,0.3-0.5c-1.1,0-1.3,0-1.9,0c-0.4,0-0.7,0-0.8,0
					c-0.2,0-0.3,0-0.3,0h-0.3c-0.1,0-0.2,0-0.3,0L248.7,35.8z"/>
				<path class="st2" d="M161.9,75.7c-1,0-1.6,0-2.1,0.1c0.1-0.6,0.1-1.2,0.1-2.2v-7.4c0-1.1,0-1.9-0.1-2.4c0.6,0.1,1.2,0.1,2.1,0.1
					h9.6c0.9,0,1.5,0,2.1-0.1c-0.1,0.5-0.1,1.3-0.1,2.4v7.4c0,1,0,1.6,0.1,2.2c-0.6-0.1-1.2-0.1-2.1-0.1h-1.7v3
					c0,0.5,0.2,0.6,1.5,0.6c1.4,0,1.8-0.1,2-0.4c0.2-0.2,0.3-1.3,0.3-2.5c0.9,0.5,1.5,0.7,2.4,1c-0.2,2.5-0.4,3.2-1,3.7
					c-0.5,0.5-1.4,0.6-3.8,0.6c-3.5,0-4-0.3-4-1.9v-4h-1.5c-0.2,1.6-0.8,2.8-2,3.9c-1.2,1.2-2.7,1.9-5,2.4c-0.4-1-0.8-1.6-1.4-2.4
					c1.8-0.3,2.8-0.7,3.7-1.2c1-0.7,1.6-1.5,1.9-2.7H161.9z M162.4,67.3h8.6v-1.1h-8.6V67.3z M162.4,70.4h8.6v-1.1h-8.6V70.4z
					 M162.4,73.6h8.6v-1.1h-8.6V73.6z"/>
				<path class="st2" d="M186.2,64.5c0.1-0.6,0.2-1.1,0.2-1.5l2.8,0.2c-0.1,0.2-0.1,0.3-0.2,0.7c0,0.2-0.1,0.3-0.1,0.6h4.1
					c1.2,0,1.9,0,2.7-0.1v2.5c-0.7-0.1-1.3-0.1-2.7-0.1h-4.6c-0.1,0.4-0.1,0.5-0.2,0.8h3.4c1.3,0,1.8,0,2.4-0.1
					c-0.1,0.6-0.1,1.1-0.1,2.3v5.8c0,1.3,0,1.7,0.1,2.3c-0.6-0.1-1-0.1-2.4-0.1H185c-1.3,0-1.7,0-2.4,0.1c0-0.4,0.1-1.2,0.1-2.3
					v-5.8c0-1.3,0-1.8-0.1-2.3c0.6,0,1.1,0.1,2.4,0.1h0.5c0.1-0.4,0.2-0.5,0.2-0.8h-5.3c-1,0-1.8,0-2.5,0.1v-2.5
					c0.7,0.1,1.4,0.1,2.5,0.1H186.2z M193.4,78.7c1,0,1.6,0,2.2-0.1v2.6c-0.8-0.1-1.3-0.1-2.5-0.1h-12v0.7h-2.8
					c0.1-0.7,0.1-1.6,0.1-2.9v-8.2c0-1.1,0-1.8-0.1-2.3h2.9c-0.1,0.6-0.1,1.3-0.1,2.1v8.2H193.4z M185.2,70.5h6.2v-0.9h-6.2V70.5z
					 M185.2,73.2h6.2v-0.8h-6.2V73.2z M185.2,75.9h6.2V75h-6.2V75.9z"/>
				<path class="st2" d="M203.7,64.1c-0.2,1.2-0.4,6.5-0.4,10c0,1.9,0.1,2.6,0.5,3.2c0.4,0.6,1.3,1,2.5,1c2.1,0,3.8-1.2,4.7-3.4
					c0.4-1.1,0.7-2,0.8-3.5c1.3,1,1.7,1.3,2.9,1.8c-0.8,2.9-1.4,4.2-2.5,5.4c-1.5,1.7-3.6,2.6-6.1,2.6c-1.5,0-2.8-0.3-3.7-0.9
					c-0.8-0.6-1.5-1.4-1.8-2.4c-0.2-0.6-0.3-1.7-0.3-2.9c0-0.9,0-2.2,0.1-4.8c0.1-2.8,0.1-4,0.1-4.6c0-0.7,0-0.9-0.1-1.5L203.7,64.1
					z"/>
				<path class="st2" d="M218.4,66.6c0.7,0.1,1.7,0.2,2.9,0.2c0.1,0,0.2,0,0.7,0c0.2-1,0.3-2.4,0.3-3v-0.3l3.2,0.3
					c-0.1,0.5-0.1,0.5-0.4,1.9c-0.1,0.5-0.1,0.6-0.2,1c1.4-0.1,2.3-0.3,3.3-0.6l0.1,2.7c-0.4,0-0.4,0-1.1,0.2
					c-0.9,0.2-1.8,0.2-2.8,0.3c-0.3,1.7-0.6,3-1.2,5c-0.6,2.2-0.8,2.8-1.7,5.5c-0.2,0.6-0.4,1-0.5,1.4l-3.1-1.1
					c1.3-2.6,2.8-6.9,3.5-10.6h-0.6l-2.1-0.1c-0.1,0-0.2,0-0.4,0L218.4,66.6z M228.8,74.6c-0.8,1.1-1,1.5-1,2.2
					c0,0.9,0.9,1.4,2.9,1.4c1.4,0,3.3-0.3,4.5-0.8l0.2,3c-0.4,0-0.5,0.1-1,0.1c-1.7,0.3-2.7,0.3-3.8,0.3c-1.8,0-3.1-0.3-4.1-0.9
					c-0.9-0.5-1.5-1.5-1.5-2.6c0-1.1,0.4-2.1,1.5-3.6L228.8,74.6z M234.6,72.3c-1-0.1-1.5-0.1-2.6-0.1c-2.1,0-3.4,0.1-5.4,0.5
					l-0.2-2.6c3-0.5,4-0.6,6.3-0.6c0.5,0,0.6,0,1.8,0L234.6,72.3z"/>
				<path class="st2" d="M241.7,65.2c-0.1,0.8-0.2,1.9-0.2,3.3c0,4.8,0.7,8.3,1.8,8.3c0.3,0,0.5-0.3,0.7-0.8
					c0.5-1.1,0.8-2.3,1.1-3.6c0.8,1,1.2,1.4,2.4,2.2c-1.1,3.9-2.4,5.7-4.2,5.7c-1.5,0-2.6-1.1-3.5-3.1c-0.8-2-1.1-4.6-1.2-10.6
					c0-0.7,0-0.9-0.1-1.3L241.7,65.2z M251.1,66c2.6,3.1,4,6.6,4.6,11.2l-3,1.1c-0.1-1.9-0.5-4.1-1.2-6c-0.7-1.9-1.6-3.6-2.9-5.1
					L251.1,66z"/>
			</g>
			<g id="desgin_5_">
				<g>
					<defs>
						<rect id="SVGID_1_" width="150.9" height="134.4"/>
					</defs>
					<clipPath id="SVGID_2_">
						<use xlink:href="#SVGID_1_"  style="overflow:visible;"/>
					</clipPath>
					<g class="st3">
						<path class="st4" d="M131.5,106.7c-1.5-1.3-3.8-1.1-5.1,0.4l-11,12l5.5,4.6l11-12C133.3,110.2,133.1,108,131.5,106.7
							C131.6,106.7,131.5,106.7,131.5,106.7z"/>
						<path class="st5" d="M105.3,149.4v-37.1c0-6.8-5.5-12.3-12.3-12.3c0,0-0.1,0-0.1,0H50.8c-6.8-0.1-12.3,5.4-12.4,12.1
							c0,0,0,0.1,0,0.1l-8.8,37.1H105.3z"/>
						<path class="st5" d="M98,101c-5.3,1.1-7.2,5.6-6.1,10.7l11.9,37.7h19.5l-11.8-40.9C109.2,103.5,103.2,99.9,98,101z"/>
						<path class="st6" d="M36.7,47.4C33.2,36,40.8,3.6,74.3,4.6c36.3,1,42.8,52.1,25.1,71.2s-48.3,10-48.3,10L36.7,47.4z"/>
						<path class="st6" d="M99.8,76.4c6.8-8.1,6.8-17.6,4.8-22.1c-3.3-7.7-65.8-26.5-65.8-26.5c-10.3,25.6,14,48-2.4,63.2
							c0,0,1.7-1.2,12.3-0.2c-1.4,2.4-2.3,5-2.9,7.7c0,0,4.9-3.8,23.7-7.8c3.8-0.8,7-1.5,9.8-2.4c9.5-2.5,15.8-6.5,19.9-11.1
							C99.4,76.9,99.6,76.7,99.8,76.4z"/>
						<path class="st4" d="M100.6,49.5c0-17.8-12.9-32.3-28.7-32.3S43.1,31.7,43.1,49.5c-0.1,9.2,3.5,18,10.1,24.5
							c8.9,10.3,8.4,20.1,8.4,20.1L71.9,94l10.3,0.1c0,0-0.6-9.9,8.4-20.1C97.1,67.5,100.7,58.7,100.6,49.5z"/>
						<ellipse class="st7" cx="60.3" cy="49.2" rx="2.8" ry="2.7"/>
						<ellipse class="st7" cx="84.1" cy="49.2" rx="2.8" ry="2.7"/>
						<ellipse class="st8" cx="71.9" cy="57.7" rx="2.1" ry="2.7"/>
						
							<ellipse transform="matrix(0.9683 -0.2497 0.2497 0.9683 -12.0273 11.6727)" class="st4" cx="40" cy="53.2" rx="8.5" ry="10.3"/>
						
							<ellipse transform="matrix(0.2497 -0.9683 0.9683 0.2497 26.2955 140.4499)" class="st4" cx="103.8" cy="53.3" rx="10.3" ry="8.5"/>
						<path class="st6" d="M43.4,44.1c0,0,8.9-15.5,36.8-17.7c0,0-7.7-0.2-22.5,9.8c0,0,22.5-3.7,42.5-2.5
							c9.7,0.6-11.7-20.8-25.1-20.8S41.3,23.9,43.4,44.1z"/>
						<path class="st4" d="M82.2,94.1c0-4.6-8.4-2.8-10.3-2.3c-1.9-0.5-10.3-2.2-10.3,2.3c0,5.2-10.7,6.1-10.7,6.1S64.3,106,72,106
							s20.9-5.8,20.9-5.8S82.2,99.3,82.2,94.1z"/>
						<path class="st7" d="M72.4,71.8c-4,0-6.1-4.9-5.9-6.4c0-0.1,0-0.2,0-0.3c0.5-0.9,2.7-0.2,5.9-0.2c3.2-0.1,5.4-0.9,6,0
							c0,0.1,0.1,0.2,0.1,0.3C78.8,66.7,76.5,71.8,72.4,71.8z"/>
						<path class="st4" d="M35,121.2c0,0-3.6-27-4.2-31.1c-2.3-14.5-19.9-11-17.5,4.2s5.4,32.2,5.4,32.2"/>
						<path class="st4" d="M18.6,78.6c0.4-2.3,1.8-4.3,3.8-5.6c2.6-1.8,6-2.2,9-0.9c2.8,1.2,2.3,5.7-0.6,5.5c-2-0.2-3.8,1.2-4.1,3.2
							c0,0.2,0,0.4,0,0.6c0.2,1.6,1.1,3.4,3.4,3.1c2-0.5,3.3-2.5,2.8-4.5c-0.4-1.5,3.9-3.3,5.3-0.5c1.4,2.8,0.7,9.4-4.7,11.5
							s-8.8,0.6-12.3-2C17.8,86.4,18.3,80.7,18.6,78.6z"/>
						<path class="st4" d="M20.7,81.8c0,0-5.5-11.4-9.2-14.9s-9.1,0.8-6.8,4.6C7.1,75.3,15,86.1,15,86.1"/>
						<path class="st4" d="M17.7,85.1c0,0-6.6-10-10.5-12.9c-3.9-2.9-8.4,1.9-5.8,5.1c2.6,3.2,11.4,12.5,11.4,12.5"/>
						<path class="st4" d="M17.4,91.4c0,0-5.4-8.2-8.6-10.5s-6.9,1.5-4.7,4.2c2.2,2.6,9.3,10.2,9.3,10.2"/>
						<path class="st5" d="M33.8,101l-21.5,5.1c0,0,5.8,29.6,10,41.2c4.2,11.6,21.3,5.9,19.9-3.6C40.9,134.2,33.8,101,33.8,101z"/>
						<path class="st9" d="M111.1,73.9c9.6-0.5,19.2,1.5,27.9,5.7c0,0,6.9,25.5,2.3,28.8s-41.8-0.7-43.9-8.5
							C95.8,93.9,104.7,79.1,111.1,73.9z"/>
						<path class="st10" d="M113.2,68.5c-3.2-0.7-5.3,4.6-2.1,5.3s23,3.1,26.8,5.3c2.7,1.6,4.6-3.8,1.2-5.7
							C139.1,73.5,116.4,69.2,113.2,68.5z"/>
						<ellipse class="st10" cx="124.1" cy="67.9" rx="3.5" ry="3.4"/>
						<ellipse class="st10" cx="128.9" cy="69" rx="3.5" ry="3.4"/>
						<path class="st0" d="M129.5,82.7c-0.2-0.2-0.4-0.3-0.7-0.4c-0.4-0.1-0.8,0.1-1.1,0.4l-5.8,6.4l-3.1-8.1
							c-0.1-0.4-0.4-0.7-0.8-0.7c-0.2,0-0.5,0-0.7,0.1c-0.4,0.1-0.8,0.4-0.9,0.9c-0.1,0.2-0.1,0.4,0,0.6l2.4,5.9l-2.5-0.5
							c-0.5-0.1-1,0.2-1.1,0.8c-0.1,0.5,0.2,1,0.8,1.1c0,0,0,0,0,0l0,0l3.7,0.7l0.5,1.2l-0.1,0.7l-4.5-0.8c-0.3-0.1-0.5,0-0.8,0.1
							c-0.2,0.2-0.4,0.4-0.4,0.7c-0.1,0.5,0.1,0.9,0.6,1.1c0,0,0,0,0,0h0.2l4.5,0.8l-0.7,3.5c-0.1,0.3,0,0.6,0.2,0.9
							c0.2,0.2,0.5,0.4,0.8,0.4h0.2c0.2,0,0.5,0,0.7-0.1c0.3-0.2,0.5-0.4,0.5-0.8l0.7-3.5l4.5,0.8c0.5,0.1,1-0.2,1.1-0.7l0,0
							c0.1-0.4-0.1-0.9-0.6-1.1H127l-4.5-0.8l0.1-0.7l0.9-1l3.8,0.7c0.5,0.1,1-0.2,1.1-0.7c0,0,0-0.1,0-0.1c0.1-0.3,0-0.5-0.1-0.8
							c-0.2-0.2-0.4-0.3-0.7-0.4l-2.5-0.6l4.4-4.6c0.2-0.2,0.3-0.3,0.3-0.6l0,0C129.9,83.4,129.8,83,129.5,82.7z"/>
						<path class="st4" d="M108.9,141.7c0,0,0.9-27.2,1.1-31.3c0.8-14.6,18.7-12.9,17.8,2.4s-2.1,32.6-2.1,32.6"/>
						<path class="st5" d="M108.5,120l22,3.4c0,0-2.8,20.3-5.9,33.8c-3.1,13.5-20.6,9-20.2-1.9C104.7,144.5,108.5,120,108.5,120z"/>
					</g>
				</g>
			</g>
		</g>
		<rect class="st11" width="293.8" height="134.4"/>
	</g>
	<g>
		<g>
			<g>
				<g>
					<path class="st0" d="M565.2,4.5h-62.7c-29.7,0-53.8,24.1-53.8,53.8v0c0,24.5,16.4,45.2,38.8,51.7c-1.2,4.8-2.5,9.5-3.7,14.3
						c-0.1,0.2,0,0.5,0.2,0.6c0.1,0.1,0.3,0.1,0.5,0c7.2-4.2,14.3-8.5,21.5-12.7h59.4c29.7,0,53.8-24.1,53.8-53.8v0
						C619.1,28.6,595,4.5,565.2,4.5z"/>
				</g>
				<g>
					<path class="st1" d="M565.2,4.5h-62.7c-29.7,0-53.8,24.1-53.8,53.8v0c0,24.5,16.4,45.2,38.8,51.7c-1.2,4.8-2.5,9.5-3.7,14.3
						c-0.1,0.2,0,0.5,0.2,0.6c0.1,0.1,0.3,0.1,0.5,0c7.2-4.2,14.3-8.5,21.5-12.7h59.4c29.7,0,53.8-24.1,53.8-53.8v0
						C619.1,28.6,595,4.5,565.2,4.5z"/>
				</g>
			</g>
			<g>
				<path class="st2" d="M513.3,51.5c-1.7-2.1-3.7-4.1-5.9-5.8c-1.8,2.1-4.4,4.1-7.5,5.6c-0.7-1.3-0.9-1.6-1.9-2.7
					c1.8-0.7,2.9-1.3,4.4-2.4c2.2-1.6,4-3.5,5.2-5.8c0.3-0.4,0.6-1.2,1.1-2.2l-5.8,0.1c-1.7,0-2,0.1-2.8,0.2l0-3
					c0.6,0.1,1.2,0.1,2.4,0.1h0.4l6.8-0.1c1.1,0,1.2,0,1.7-0.2l1.5,1.6c-0.3,0.3-0.4,0.5-0.7,1.1c-1,2.2-1.9,3.9-3,5.4
					c2.6,1.8,3.1,2.3,6.5,5.5L513.3,51.5z"/>
				<path class="st2" d="M521.6,38.5c-1.6,0-2.2,0-3,0.1v-3c0.8,0.1,1.5,0.1,3.1,0.1h10.9c0.7,0,1.1,0,1.5-0.2l1.6,1.8
					c-0.3,0.3-0.4,0.5-0.9,1.2c-1.9,3.2-3.9,5.5-6.4,7.6c0.9,1.1,1.4,1.7,2.5,3.2l-2.5,2c-1.2-1.9-2.2-3.2-3.9-5.1
					c-1.6-1.8-2.6-2.7-4-3.9l2.3-1.7c1.5,1.3,2.7,2.3,3.6,3.3c1.3-1.1,2.4-2.2,3.3-3.4c0.6-0.7,1-1.3,1.4-2c0.1-0.2,0.1-0.2,0.1-0.2
					L521.6,38.5z"/>
				<path class="st2" d="M543.7,41.7c-0.1,0.2-0.1,0.3-0.3,1.5c-0.2,1.1-0.8,2.6-1.3,3.9c-0.5,1.2-0.9,1.9-1.8,3.1
					c-1.2-0.8-1.6-1-2.8-1.5c1.4-1.8,2.1-3.3,2.8-5.5c0.3-0.9,0.4-1.5,0.5-2.3L543.7,41.7z M545.3,36.3c0-1,0-1.6-0.1-2.3h3.2
					c-0.1,0.7-0.1,1.4-0.1,2.3v0.8h4.1c1.6,0,2,0,2.9-0.1v2.9c-0.8-0.1-1.2-0.1-2.9-0.1h-4.2v9.1c0,1.1,0,2.1,0.1,2.7h-3.2
					c0.1-0.8,0.1-1.5,0.1-2.7v-9.1h-4c-1.6,0-2,0-2.9,0.1V37c0.9,0.1,1.3,0.1,2.9,0.1h4V36.3z M552.7,41c0.1,0.7,0.3,1.2,0.7,2.2
					c0.9,2.4,1.6,3.9,2.7,5.4c-1.4,0.8-1.7,0.9-2.7,1.6c-1.6-2.7-2.3-4.4-3.2-7.9c-0.1-0.2-0.1-0.4-0.2-0.6L552.7,41z"/>
				<path class="st2" d="M558.9,35.8c0.7,0.2,2,0.3,3.7,0.3h0.4h0.4h0.2c0.5-1.2,0.6-1.7,0.7-2.3l3.1,0.3c-0.1,0.2-0.1,0.2-0.7,1.7
					c-0.1,0.2-0.1,0.2-0.2,0.4c0.3,0,0.4,0,1.2-0.1c2.4-0.1,4-0.4,5.2-0.7L573,38c-0.6,0.1-0.6,0.1-1.6,0.2
					c-1.5,0.2-4.1,0.3-6.1,0.4c-0.4,0.7-0.7,1.1-1.3,2c1-0.6,1.8-0.8,2.8-0.8c1.6,0,2.6,0.7,3,2c0.2-0.1,0.5-0.2,1.1-0.4
					c0.8-0.3,0.9-0.3,1.8-0.6c1.1-0.4,1.2-0.4,1.6-0.6l1.1,2.7c-0.6,0.1-1.2,0.2-2.3,0.5c-0.5,0.1-0.5,0.1-2.9,0.9l0,0.7v0.4V46v0.4
					c0,0.6,0,0.9,0.1,1.3l-2.8,0.1c0.1-0.4,0.1-1.3,0.1-2.3c0,0,0-0.1,0-0.2c-0.8,0.4-1.2,0.6-1.6,0.9c-0.6,0.4-0.9,0.9-0.9,1.4
					c0,0.9,0.9,1.3,3,1.3c2.4,0,4.6-0.3,6.1-0.9l0.2,3.1c-0.4,0-0.5,0-1,0.1c-1.7,0.2-3.5,0.4-5.1,0.4c-2.9,0-4.6-0.4-5.5-1.5
					c-0.5-0.6-0.8-1.3-0.8-2.2c0-1.2,0.8-2.5,2.3-3.6c0.7-0.5,1.5-0.9,2.9-1.5c-0.1-0.5-0.4-0.8-1-0.8c-1.1,0-2.4,0.7-3.9,2
					c-0.8,0.7-1.3,1.3-1.8,1.9l-2.2-2.1c1.1-0.8,2.9-2.9,3.9-4.7c0.2-0.3,0.2-0.4,0.3-0.5c-1.1,0-1.3,0-1.9,0c-0.4,0-0.7,0-0.8,0
					c-0.2,0-0.3,0-0.3,0h-0.3c-0.1,0-0.2,0-0.3,0L558.9,35.8z"/>
				<path class="st2" d="M481.7,78.5c-0.9,0-1.5,0-2.2,0.1c0.1-0.6,0.1-1.3,0.1-2.4v-4.5c0-1,0-1.7-0.1-2.3c0.7,0,1,0.1,2,0.1H492
					c1.1,0,1.6,0,2.2-0.1c-0.1,0.6-0.1,1.2-0.1,2.3v4.6c0,1.1,0,1.8,0.1,2.3c-0.6-0.1-1.2-0.1-2.1-0.1h-1.3c1.5,0.7,3.1,1.1,5.6,1.3
					c-0.5,0.7-0.8,1.2-1.2,2.3c-1.9-0.3-2.8-0.5-4.2-1c-1.3-0.5-1.9-0.8-3-1.5l1.3-1.1H484l1.4,1.1c-1,0.7-1.7,1.1-3,1.5
					c-1.3,0.5-2.2,0.7-3.7,1c-0.3-0.8-0.7-1.4-1.4-2.2c2.5-0.3,4.1-0.8,5.3-1.5H481.7z M495.4,67.1c0,0.8,0,1.2,0.1,1.7
					c-0.4,0-1-0.1-2-0.1h-13.1c-1,0-1.6,0-2,0.1c0.1-0.5,0.1-0.9,0.1-1.7v-1.6c0-0.8,0-1.2-0.1-1.8c0.6,0.1,1.1,0.1,2.3,0.1h12.6
					c1.1,0,1.7,0,2.3-0.1c-0.1,0.6-0.1,0.9-0.1,1.8V67.1z M483.2,65.7h-2.3v1.1h2.3V65.7z M482.2,72h9.5v-0.7h-9.5V72z M482.2,74.3
					h9.5v-0.8h-9.5V74.3z M482.2,76.6h9.5v-0.8h-9.5V76.6z M487.9,65.7h-2.4v1.1h2.4V65.7z M492.8,66.8v-1.1h-2.5v1.1H492.8z"/>
				<path class="st2" d="M502,65.2c-0.1,0.8-0.2,1.9-0.2,3.3c0,4.8,0.7,8.3,1.8,8.3c0.3,0,0.5-0.3,0.7-0.8c0.5-1.1,0.8-2.3,1.1-3.6
					c0.8,1,1.2,1.4,2.4,2.2c-1.1,3.9-2.4,5.7-4.2,5.7c-1.5,0-2.6-1.1-3.5-3.1c-0.8-2-1.1-4.6-1.2-10.6c0-0.7,0-0.9-0.1-1.3L502,65.2
					z M511.3,66c2.6,3.1,4,6.6,4.6,11.2l-3,1.1c-0.1-1.9-0.5-4.1-1.2-6c-0.7-1.9-1.6-3.6-2.9-5.1L511.3,66z"/>
				<path class="st2" d="M531.1,77.3c1.2,1.3,2.6,1.8,5.4,2.2c-0.5,0.9-0.7,1.5-0.9,2.4c-1.6-0.3-2.6-0.7-3.7-1.3
					c-1-0.6-1.7-1.2-2.4-2.1c-1.2,1.7-3.1,2.8-6.1,3.4c-0.3-0.9-0.5-1.4-1.1-2.3c2.7-0.3,4.3-1,5.2-2.3h-2.6c-0.9,0-1.3,0-1.9,0.1
					V75c0.3,0,0.5,0,1,0.1v-5.3c-0.2-0.3-0.2-0.3-0.5-0.6c-0.2,0-0.6-0.1-0.9-0.1h-0.4v2.7c0.4-0.1,0.6-0.2,1.2-0.4v2.3
					c-0.6,0.2-0.8,0.3-1.2,0.5v5.4c0,1.8-0.6,2.2-2.9,2.2c-0.3,0-0.6,0-1.1-0.1c-0.1-1-0.2-1.5-0.5-2.4c0.7,0.1,1.1,0.1,1.6,0.1
					c0.4,0,0.5-0.1,0.5-0.6V75c-0.5,0.1-0.5,0.2-0.9,0.3c-0.5,0.1-0.5,0.1-1,0.3l-0.3-2.6c0.5,0,1-0.1,2.2-0.4v-3.4h-0.6
					c-0.4,0-0.8,0-1.4,0.1v-2.5c0.5,0.1,0.9,0.1,1.4,0.1h0.6v-1.5c0-1,0-1.5-0.1-2.1h2.7c-0.1,0.6-0.1,1-0.1,2v1.5h0.4
					c0.4,0,0.6,0,1-0.1v0.6c1.6-1.4,2.6-2.9,3-4.3l2.6,0.2c-0.1,0.1-0.1,0.2-0.1,0.3c-0.2,0.4-0.2,0.4-0.3,0.6h2.4
					c0.7,0,1,0,1.4-0.1l1.3,1.2c-0.2,0.2-0.3,0.4-0.5,0.7c-0.3,0.4-0.7,1-1.1,1.6h1.5c0.9,0,1.3,0,1.8-0.1c0,0.5-0.1,1.1-0.1,2v5.6
					c0.5,0,0.7,0,1-0.1v2.4c-0.5-0.1-1.1-0.1-2-0.1H531.1z M528.2,75.1c0.1-0.6,0.1-0.7,0.1-1.4l2.4,0c0,0.6-0.1,0.8-0.1,1.3h2.4
					v-1.5c-0.6,0-0.9,0-1,0c-1.5,0-2-0.4-2-1.3v-2.6h-0.7c-0.1,2.7-0.4,3.5-1.8,4.9c-0.5-0.5-0.8-0.8-1.2-1.1v1.6H528.2z
					 M526.2,69.7v3.4c1-0.9,1.2-1.4,1.2-3.4H526.2z M529.4,67.6c0.3-0.4,0.7-0.8,1-1.3h-2.9c-0.4,0.5-0.6,0.9-1,1.3H529.4z
					 M533.1,69.7h-1.2v1.6c0,0.4,0.1,0.5,0.7,0.5c0.1,0,0.2,0,0.3,0h0.2V69.7z"/>
				<path class="st2" d="M540.1,68.9c0.6,0,0.8,0.1,1.2,0.1c2,0,4.1-0.1,7.3-0.4c0.9-0.1,1.3-0.2,1.7-0.3l1.6,2
					c-0.4,0.2-0.5,0.4-1.7,1.4c-1.2,1.1-1.3,1.1-2.2,2c-0.1,0.1-0.3,0.2-0.5,0.4c-0.3,0.2-0.4,0.3-0.6,0.5c0.4-0.2,0.7-0.2,1-0.2
					c0.8,0,1.5,0.3,1.8,1c0.2,0.4,0.2,0.5,0.3,1.8c0.1,1.3,0.4,1.6,1.5,1.6c1.3,0,2.8-0.3,3.9-0.8l0.3,3c-0.3,0-0.7,0-1.8,0.2
					c-1.2,0.2-2,0.2-3,0.2c-1.7,0-2.7-0.4-3.2-1.3c-0.3-0.5-0.4-0.8-0.4-2.1c-0.1-0.7-0.1-1-0.2-1.2c-0.1-0.2-0.4-0.4-0.8-0.4
					c-0.9,0-1.8,0.6-3.4,2.1c-1,1-2,2-2.7,2.9l-2.2-2.5c1.3-0.9,3.7-3,7.4-6.5c0.7-0.7,0.9-0.9,1.5-1.4c-0.9,0.2-1.9,0.3-4.5,0.5
					c-1,0.1-1.7,0.2-2.3,0.3L540.1,68.9z M542.7,63.6c2.4,0.7,5,1,8.3,1l-0.4,2.7c-4.3-0.2-6-0.4-8.7-1.1L542.7,63.6z"/>
				<path class="st2" d="M558.6,66.6c0.7,0.1,1.7,0.2,2.9,0.2c0.1,0,0.2,0,0.7,0c0.2-1,0.3-2.4,0.3-3v-0.3l3.2,0.3
					c-0.1,0.5-0.1,0.5-0.4,1.9c-0.1,0.5-0.1,0.6-0.2,1c1.4-0.1,2.3-0.3,3.3-0.6l0.1,2.7c-0.4,0-0.4,0-1.1,0.2
					c-0.9,0.2-1.8,0.2-2.8,0.3c-0.3,1.7-0.6,3-1.2,5c-0.6,2.2-0.8,2.8-1.7,5.5c-0.2,0.6-0.4,1-0.5,1.4l-3.1-1.1
					c1.3-2.6,2.8-6.9,3.5-10.6h-0.6l-2.1-0.1c-0.1,0-0.2,0-0.4,0L558.6,66.6z M569,74.6c-0.8,1.1-1,1.5-1,2.2c0,0.9,0.9,1.4,2.9,1.4
					c1.4,0,3.3-0.3,4.5-0.8l0.2,3c-0.4,0-0.5,0.1-1,0.1c-1.7,0.3-2.7,0.3-3.8,0.3c-1.8,0-3.1-0.3-4.1-0.9c-0.9-0.5-1.5-1.5-1.5-2.6
					c0-1.1,0.4-2.1,1.5-3.6L569,74.6z M574.8,72.3c-1-0.1-1.5-0.1-2.6-0.1c-2.1,0-3.4,0.1-5.4,0.5l-0.2-2.6c3-0.5,4-0.6,6.3-0.6
					c0.5,0,0.6,0,1.8,0L574.8,72.3z"/>
				<path class="st2" d="M582,65.2c-0.1,0.8-0.2,1.9-0.2,3.3c0,4.8,0.7,8.3,1.8,8.3c0.3,0,0.5-0.3,0.7-0.8c0.5-1.1,0.8-2.3,1.1-3.6
					c0.8,1,1.2,1.4,2.4,2.2c-1.1,3.9-2.4,5.7-4.2,5.7c-1.5,0-2.6-1.1-3.5-3.1c-0.8-2-1.1-4.6-1.2-10.6c0-0.7,0-0.9-0.1-1.3L582,65.2
					z M591.3,66c2.6,3.1,4,6.6,4.6,11.2l-3,1.1c-0.1-1.9-0.5-4.1-1.2-6c-0.7-1.9-1.6-3.6-2.9-5.1L591.3,66z"/>
			</g>
			<g>
				<defs>
					<rect id="SVGID_3_" x="357.4" width="126.4" height="134.4"/>
				</defs>
				<clipPath id="SVGID_4_">
					<use xlink:href="#SVGID_3_"  style="overflow:visible;"/>
				</clipPath>
				<g class="st12">
					<path class="st13" d="M459,109.2c-1-1.9-2.6-4.7-5.7-6.9c-2.8-2-5.7-2.7-7.4-3h-42.3c-5.5,0-13,4.5-13.6,10.2l-9.5,33.5h92.3
						C467.1,127.1,462,115.1,459,109.2z"/>
					<path class="st4" d="M450.3,48.8c0-17.8-12.9-32.3-28.7-32.3S392.8,31,392.8,48.8c-0.1,9.2,3.5,18,10.1,24.5
						c8.9,10.3,8.4,20.1,8.4,20.1l10.3-0.1l10.3,0.1c0,0-0.6-9.9,8.4-20.1C446.7,66.8,450.4,58,450.3,48.8z"/>
					<ellipse class="st7" cx="409.9" cy="48.5" rx="2.8" ry="2.7"/>
					<ellipse class="st7" cx="433.7" cy="48.5" rx="2.8" ry="2.7"/>
					<ellipse class="st8" cx="421.5" cy="56.9" rx="2.1" ry="2.7"/>
					
						<ellipse transform="matrix(0.9683 -0.2497 0.2497 0.9683 -0.742 99.2039)" class="st4" cx="390.6" cy="52.5" rx="8.5" ry="10.3"/>
					
						<ellipse transform="matrix(0.2497 -0.9683 0.9683 0.2497 288.5621 477.5011)" class="st4" cx="452.4" cy="52.5" rx="10.3" ry="8.5"/>
					<path class="st4" d="M431.8,93.4c-0.1-0.6-0.1-1-0.4-1.5c-1.7-2.7-8.3-1.3-10-0.9c-1.7-0.4-8.3-1.8-10,0.9
						c-0.3,0.4-0.2,0.8-0.4,1.4c-0.4,1.6-1.5,3.7-4.9,5.9c3,1.4,8.4,3.3,15.3,3.4c7.3,0.1,13-2,16-3.3
						C433.5,97.2,432.2,95.1,431.8,93.4z"/>
					<g>
						<g>
							<g>
								<path class="st14" d="M383.4,57.5c-7.5-5.9-9.1,1-7,13.2c0.9,5.4,4.6,24.8,4.6,24.8l10.2,0
									C391.2,95.5,387.1,60.3,383.4,57.5z"/>
								<path class="st13" d="M392.9,91l-15.1-2.5c0,0-4.2,14.3-10.7,45c-2.8,13.4,21.9,13.4,22.8,5.1
									C391.7,123.3,392.9,91,392.9,91z"/>
							</g>
							<g>
								<g>
									<g>
										<path class="st15" d="M377.3,38.9L377.3,38.9c-2.1,0.8-3.1,3.2-2.3,5.3l15,36.4c0.8,2.1,3.2,3.1,5.3,2.3l0,0
											c2.1-0.8,3.1-3.2,2.3-5.3l-15-36.4C381.8,39.1,379.4,38,377.3,38.9z"/>
									</g>
								</g>
							</g>
						</g>
						<path class="st4" d="M392.6,70.6c-1.5-0.8-3.4-0.1-4.2,1.4l-6.7,12.6l5.6,2.7l6.7-12.6C394.8,73.2,394.2,71.3,392.6,70.6z"/>
					</g>
					<path class="st6" d="M394.5,45c0,0,10.7-14,37.9-21.7c0,0-5.5,14.7,18.6,22c0,0,21.3-19.5-7.6-26.7c0,0,9.5-9.6-9-13.3
						C404.4-0.6,375.8,26.3,394.5,45z"/>
					<path class="st7" d="M421.6,67.5c3.4,0.1,5.9-2.2,5.8-3.4c0-1.2-2.4,1.4-5.9,1.2c-3.1-0.1-4.5-2-5-1.3
						C415.8,64.9,418.5,67.4,421.6,67.5z"/>
				</g>
			</g>
		</g>
		<rect x="345" class="st11" width="278.1" height="134.4"/>
	</g>
</g>
</svg>
