<?xml version="1.0" encoding="utf-8"?>
<!-- Generator: Adobe Illustrator 25.3.1, SVG Export Plug-In . SVG Version: 6.00 Build 0)  -->
<svg version="1.1" id="レイヤー_1" xmlns="http://www.w3.org/2000/svg" xmlns:xlink="http://www.w3.org/1999/xlink" x="0px"
	 y="0px" viewBox="0 0 333.7 263.4" style="enable-background:new 0 0 333.7 263.4;" xml:space="preserve">
<style type="text/css">
	.st0{fill:#3176D5;}
	.st1{fill:#FFFFFF;}
	.st2{fill:#D9D9D9;}
	.st3{fill:#FF6A76;}
	.st4{fill:none;stroke:#D9D9D9;stroke-width:5;stroke-linecap:round;stroke-linejoin:round;stroke-miterlimit:10;}
	.st5{fill:none;stroke:#3176D5;stroke-width:5;stroke-miterlimit:10;}
	.st6{fill:none;stroke:#FF6A76;stroke-width:5;stroke-miterlimit:10;}
	.st7{fill:none;}
</style>
<g>
	<g>
		<g>
			<g>
				<g>
					<g>
						<path class="st0" d="M194,8.5c2.3,0.9,3.9,1.7,5.7,2.9l-1.5,2.8c-1.7-1.3-3.6-2.3-5.8-3.2L194,8.5z M192.8,17.8
							c1.9,0,4.1-0.5,6.3-1.4c2.6-1,4.3-2.4,6-4.6c1.1-1.5,1.7-2.8,2.4-4.6c1.2,1.2,1.6,1.6,2.6,2.2c-1.1,2.5-1.9,3.9-3.2,5.4
							c-2.8,3.2-6.3,5-11.7,6c-0.7,0.1-1,0.2-1.5,0.4L192.8,17.8z M195.6,3.4c2.3,0.8,4,1.7,5.8,2.7l-1.6,2.7
							c-2.1-1.4-3.8-2.2-5.8-2.9L195.6,3.4z"/>
						<path class="st0" d="M220.2,18.1h3.3c1.4,0,2,0,2.9-0.1v2.8c-0.7-0.1-1.6-0.1-2.9-0.1h-9.5c-1.6,0-1.7,0-2.7,0.1v-2.8
							c0.7,0.1,1.2,0.1,2.6,0.1h3.4v-6.5h-2.1c-1.2,0-2,0-2.7,0.1V8.9c0.7,0.1,1.3,0.1,2.6,0.1h7c1.3,0,1.8,0,2.8-0.1v2.8
							c-0.8-0.1-1.4-0.1-2.8-0.1h-2.1V18.1z"/>
						<path class="st0" d="M246.7,5.8c-0.3,0.3-0.4,0.4-0.6,1c-1.4,3.1-3.2,5.1-5.9,6.7c-0.8-1-1.2-1.4-2.2-2.1
							c-0.1,2.3-0.5,3.7-1.2,5.1c-1.2,2.2-3,3.7-6.2,5.1c-0.7-1.4-1-1.8-2-2.9c2.3-0.7,3.8-1.6,4.9-3c1-1.3,1.4-2.9,1.4-5.8
							c0-0.8,0-0.9-0.1-1.4h3.4C238,8.9,238,9,238,10.3c0,0.1,0,0.4,0,1c2.3-1.1,3.6-2.2,4.6-4.2h-10.4c-1.3,0-2.3,0-3.2,0.1V4
							c1,0.1,1.6,0.2,3.3,0.2h10.8c1.2,0,1.4,0,1.9-0.2L246.7,5.8z"/>
						<path class="st0" d="M250.9,15.8c0.1,0.8,0.2,1.2,0.5,1.6c0.5,0.7,1.5,1.1,2.7,1.1c1.7,0,2.8-0.8,2.8-2.1
							c0-0.6-0.3-1.1-0.8-1.4c-0.6-0.4-1.2-0.6-3.4-1.1c-1.7-0.4-2.4-0.7-3.1-1.2c-1.1-0.8-1.7-2.1-1.7-3.5c0-2.9,2.3-4.8,6-4.8
							c2.4,0,4.2,0.7,5.2,2.1c0.5,0.7,0.8,1.3,1,2.4l-3.5,0.4c-0.1-0.6-0.2-0.9-0.5-1.3c-0.5-0.5-1.3-0.8-2.2-0.8
							c-1.6,0-2.6,0.8-2.6,1.9c0,0.5,0.2,1,0.7,1.3c0.4,0.3,0.8,0.4,1.9,0.7c2.2,0.5,3.1,0.7,3.9,1.1c0.8,0.4,1.6,1,2,1.7
							c0.4,0.7,0.6,1.5,0.6,2.4c0,3.3-2.3,5.1-6.3,5.1c-2.6,0-4.5-0.7-5.6-2.1c-0.7-0.8-0.9-1.6-1.2-3.1L250.9,15.8z"/>
						<path class="st0" d="M266.3,4.7c-0.1,0.8-0.2,1.4-0.2,2.8v10.7c0,1.3,0,2,0.2,2.8h-3.7c0.1-0.8,0.2-1.5,0.2-2.8V7.5
							c0-1.4,0-1.9-0.2-2.8H266.3z"/>
						<path class="st0" d="M276.6,21c-0.1-0.7-0.4-1.6-0.9-2.8l-2.4-6.2c-0.2-0.6-0.5-1.5-0.9-3c0.1,1.9,0.2,2.7,0.2,3.2V18
							c0,1.4,0,2.2,0.2,3h-3.3c0.1-0.8,0.2-1.7,0.2-3V7.8c0-1.3,0-2.2-0.2-3h4.4c0.1,0.7,0.4,1.6,0.7,2.6l3.6,9.3l3.5-9.3
							c0.4-1,0.6-1.8,0.7-2.6h4.4c-0.1,1-0.2,1.7-0.2,3V18c0,1.5,0,2.3,0.2,3h-3.3c0.1-0.9,0.2-1.6,0.2-3v-5.9c0-0.5,0-1.3,0.2-3.2
							c-0.1,0.4-0.1,0.4-0.3,1.3c-0.1,0.3-0.4,1.4-0.6,1.7l-2.5,6.3c-0.4,1-0.8,2.2-0.9,2.8H276.6z"/>
						<path class="st0" d="M292.7,2.8c0.9,1.6,1.3,2.5,2,4.1l-2.2,1.2c-0.6-1.6-1-2.5-2-4.1L292.7,2.8z M295,4.2
							c0-0.8,0-1.3-0.1-1.7h2.9c-0.1,0.5-0.1,0.9-0.1,1.7v4h2.2L297.8,7c0.9-1.4,1.3-2.3,2-4.1l2.5,1.1c-0.9,2.1-1.3,2.8-2.1,4.1
							c0.6,0,0.7,0,1.2-0.1c0,0.5-0.1,1-0.1,1.7v9.8c0,0.9-0.1,1.3-0.5,1.7c-0.4,0.4-0.9,0.5-2,0.5c-0.5,0-1.2,0-2.2-0.1
							c-0.1-1.1-0.2-1.6-0.5-2.5c1,0.1,1.6,0.2,2.1,0.2c0.5,0,0.6-0.1,0.6-0.4v-1.5H294v2c0,1,0,1.7,0.1,2.5h-2.9
							c0.1-0.8,0.1-1.4,0.1-2.5V9.9c0-0.8,0-1.3-0.1-1.8c0.5,0.1,1,0.1,1.5,0.1h2.2V4.2z M298.6,10.5H294v1.2h4.6V10.5z M294,15.3
							h4.6V14H294V15.3z M305.2,4.1c-0.1,0.6-0.1,1.1-0.1,2.1v8.6c0,1.2,0,1.6,0.1,2.2h-2.8c0.1-0.7,0.1-1.1,0.1-2.2V6.3
							c0-1,0-1.6-0.1-2.2H305.2z M309.4,2.7c-0.1,0.6-0.1,1.2-0.1,2.5v14c0,1.2-0.2,1.8-0.8,2.2c-0.5,0.4-1.3,0.5-2.7,0.5
							c-0.5,0-0.9,0-2.1-0.1c-0.1-1.1-0.3-1.7-0.7-2.7c1,0.1,1.8,0.2,2.6,0.2c0.8,0,1-0.1,1-0.6V5.3c0-1.3,0-1.9-0.1-2.6H309.4z"/>
						<path class="st0" d="M319.6,14.3h-0.3c0,1.1-0.4,2-1,2.4c-0.5,0.4-1.2,0.6-2.2,0.6h-0.3c0-1.3-0.1-1.7-0.5-2.5
							c0.3,0,0.5,0.1,0.6,0.1c0.2,0,0.4,0,0.5-0.1c0.2-0.1,0.3-0.5,0.3-1c0-1.5-0.4-2.5-1.4-3.8c0.7-1.3,1.2-2.6,1.6-4.4h-1.7v13.8
							c0,0.9,0,1.9,0.1,2.7h-2.9c0.1-0.7,0.1-1.7,0.1-2.8v-14c0-0.8,0-1.5-0.1-2.2c0.5,0.1,1,0.1,1.7,0.1h2.8c0.7,0,1.2,0,1.6-0.1
							l1.3,1.2c-0.2,0.4-0.2,0.4-0.3,0.8c-0.2,0.7-0.4,1.3-0.7,2c0.8-0.5,1.4-1,2.2-1.8c0.8-0.8,1.4-1.5,2-2.6h2.8
							c0.7,1.2,1.4,2,2.6,2.9c1,0.8,1.4,1,3.3,1.9c-0.5,0.8-0.8,1.5-1,2.8c-0.8-0.5-1.1-0.6-1.8-1.1v1.4c-0.7-0.1-0.9-0.1-1.9-0.1
							H326v1.4h3.2c1,0,1.4,0,2-0.1v2.7c-0.5-0.1-1.1-0.1-2-0.1H326v5.2c0,1.9-0.6,2.4-3.2,2.4c-0.4,0-1.2,0-1.8,0
							c-0.1-0.9-0.2-1.6-0.5-2.3c-0.5,0.8-0.8,1.1-1.7,1.9c-0.7-0.9-1-1.3-1.9-2c0.9-0.8,1.4-1.2,1.9-1.9c0.6-0.8,0.9-1.4,1.3-2.7
							l2.4,0.9c-0.6,1.7-1,2.4-1.8,3.7c0.5,0.1,1.3,0.1,1.6,0.1c0.8,0,1-0.1,1-0.5v-4.6H319.6z M323.3,10.4h-0.9c-1,0-1.1,0-1.9,0.1
							V9.2c-0.4,0.3-0.6,0.4-1.2,0.8c-0.4-0.9-0.5-1.2-0.9-1.6c-0.2,0.5-0.3,0.7-0.6,1.3c0.7,1,0.9,1.5,1.1,2.2c0.3,0,0.5,0,0.6,0
							h3.7V10.4z M327.3,8h0.5c-1.2-0.9-2.2-2-3-3.1c-0.9,1.3-1.6,2.1-2.8,3.1h0.4H327.3z M329,14.7c0.7,2.1,1.3,3,2.8,4.5
							c-0.7,0.7-1.2,1.2-1.8,2.2c-1.7-2.1-2.5-3.3-3.3-5.8L329,14.7z"/>
						<path class="st0" d="M219.5,44.1c-1-1.3-1.3-2-1.8-3c-0.7-1.6-1.1-3.4-1.1-5.1c0-1.4,0.2-2.8,0.7-4.1c0.5-1.4,1-2.3,2.2-4
							l2,1.3c-1,1.4-1.4,2.1-1.8,3.3c-0.4,1.1-0.5,2.3-0.5,3.6c0,1.2,0.2,2.4,0.5,3.4c0.4,1.1,0.8,1.9,1.8,3.3L219.5,44.1z"/>
						<path class="st0" d="M229.6,41.4c-0.1-0.6-0.3-1.3-0.7-2.3l-2-5.1c-0.2-0.5-0.4-1.3-0.8-2.5c0.1,1.6,0.1,2.3,0.1,2.7v4.8
							c0,1.2,0,1.8,0.1,2.5h-2.7c0.1-0.7,0.1-1.4,0.1-2.5v-8.4c0-1,0-1.8-0.1-2.5h3.6c0.1,0.6,0.3,1.3,0.6,2.1l2.9,7.7l2.9-7.7
							c0.3-0.8,0.5-1.5,0.6-2.1h3.6c-0.1,0.8-0.1,1.4-0.1,2.5v8.4c0,1.2,0,1.9,0.1,2.5h-2.7c0.1-0.7,0.1-1.3,0.1-2.5v-4.8
							c0-0.4,0-1.1,0.1-2.6c-0.1,0.3-0.1,0.3-0.3,1c-0.1,0.3-0.4,1.2-0.5,1.4l-2.1,5.2c-0.3,0.9-0.6,1.8-0.7,2.3H229.6z"/>
						<path class="st0" d="M248,35.6c0.4,0.6,0.8,1.2,1.1,1.9c0-0.6-0.1-1.4-0.1-2.1v-5c0-1.1,0-1.7-0.1-2.4h2.9
							c-0.1,0.7-0.1,1.3-0.1,2.4v8.7c0,1,0,1.7,0.1,2.3h-3.1c-0.2-0.4-0.6-1.1-1.1-1.9l-3.8-5.6c-0.3-0.5-0.6-1-1.1-1.8
							c0,0.2,0,0.2,0.1,0.8c0,0.3,0,1,0,1.3v4.8c0,1.1,0,1.9,0.1,2.5h-2.9c0.1-0.6,0.1-1.4,0.1-2.5v-8.5c0-0.9,0-1.6-0.1-2.3h3.1
							c0.1,0.4,0.5,1,1.1,1.9L248,35.6z"/>
						<path class="st0" d="M254.4,41.4c0.1-0.7,0.1-1.3,0.1-2.3v-8.9c0-0.8,0-1.5-0.1-2.3c0.7,0,1.3,0,2.3,0h3.5
							c1.7,0,2.9,0.4,3.7,1.2c0.7,0.7,1.1,1.7,1.1,3c0,1.3-0.4,2.4-1.2,3.2c-0.8,0.9-2.1,1.3-3.6,1.3h-2.9v2.4c0,0.9,0,1.6,0.1,2.3
							H254.4z M260,34.4c1.3,0,2.1-0.7,2.1-2c0-0.6-0.2-1.1-0.5-1.4c-0.3-0.4-0.9-0.5-1.6-0.5h-2.8v4H260z"/>
						<path class="st0" d="M271.9,41.1c0,0.5,0,0.9,0.1,1.4h-2.1c0.1-0.5,0.1-1,0.1-1.5v-0.8h-1.3c-0.7,0-1.1,0-1.7,0.1v-2
							c0.5,0.1,0.8,0.1,1.5,0.1h1.4v-0.8h-0.7c-0.8,0-1.1,0-1.7,0c0-0.6,0.1-1.1,0.1-2v-2.8c0-0.8,0-1.2-0.1-1.8c0.5,0,0.8,0,1.7,0
							h0.7v-0.8h-1.3c-0.7,0-1,0-1.6,0.1v-1.9c0.5,0.1,0.8,0.1,1.7,0.1h1.2v-0.1c0-0.5,0-0.8-0.1-1.3h2.1c-0.1,0.4-0.1,0.8-0.1,1.3
							v0.1h1c0.8,0,1.2,0,1.6-0.1v1.9c-0.5-0.1-0.7-0.1-1.5-0.1h-1.1v0.8h1c0.8,0,1,0,1.3,0c0,0.3,0,0.7,0,1.6v3.1
							c0,1.1,0,1.5,0,1.8c-0.4,0-0.6,0-1.4,0h-1v0.8h1.2c0.6,0,0.9,0,1.3-0.1v1.6l0.7,0c0.6-2.3,0.8-3.2,1.2-5.5
							c-0.8,0-1.1,0-1.6,0.1v-2.1c0.5,0.1,0.9,0.1,1.7,0.1h4.2c0.8,0,1.2,0,1.7-0.1v2.1c-0.5,0-1-0.1-1.7-0.1h-2.2
							c0,0.2,0,0.2-0.3,1.5c-0.2,1.2-0.5,2.4-0.9,3.8c1.1-0.1,1.3-0.2,2.4-0.4c-0.4-1.3-0.6-1.8-1.1-3l1.8-0.7
							c1,2.3,1.5,3.6,2.2,5.9l-1.9,0.9c-0.2-0.7-0.2-0.8-0.4-1.4c-1.7,0.4-2,0.5-4,0.8c-1.2,0.2-1.4,0.2-1.8,0.3l-0.3-2
							c-0.3,0-0.6,0-1,0h-1V41.1z M269.2,32.8v0.8h0.9v-0.8H269.2z M269.2,35.1v0.8h0.9v-0.8H269.2z M272.6,33.6v-0.8h-0.8v0.8
							H272.6z M272.6,35.9v-0.8h-0.8v0.8H272.6z M275.2,28.1c0.5,0.1,0.8,0.1,1.6,0.1h3.2c0.8,0,1.2,0,1.6-0.1v2.1
							c-0.2,0-0.2,0-0.4,0c-0.2,0-0.7,0-1.2,0h-3.2c-0.8,0-1.2,0-1.6,0.1V28.1z"/>
						<path class="st0" d="M290.2,29c0-0.8,0-1.3-0.1-1.7h2.4c-0.1,0.5-0.1,0.9-0.1,1.7v3.4h3.1v-2.5c0-0.5,0-0.9-0.1-1.3h2.3
							c-0.1,0.5-0.1,0.9-0.1,1.5v3.3c0,0.5,0,0.9,0,1.2c-0.3,0-0.8,0-1.2,0h-4.1v5.1h3.7V37c0-0.6,0-1-0.1-1.4h2.3
							c0,0.4-0.1,1-0.1,1.6v3.5c0,0.9,0,1.3,0.1,1.8h-2.3v-0.8h-9.4v0.8h-2.3c0.1-0.5,0.1-1.1,0.1-1.8v-3.4c0-0.6,0-1.2-0.1-1.6h2.3
							c0,0.4-0.1,0.8-0.1,1.4v2.5h3.5v-5.1h-3.8c-0.5,0-0.9,0-1.3,0c0-0.4,0-0.7,0-1.2V30c0-0.5,0-1.2-0.1-1.5h2.3
							c0,0.4-0.1,0.8-0.1,1.3v2.5h2.9V29z"/>
						<path class="st0" d="M302.6,27.8c1.2,1.7,1.7,2.6,2.2,4c0.4,1.3,0.7,2.7,0.7,4.1c0,1.8-0.3,3.5-1.1,5.2
							c-0.5,1.1-0.9,1.7-1.8,3l-2-1.4c1-1.4,1.4-2.2,1.8-3.3c0.3-1,0.5-2.2,0.5-3.4c0-1.3-0.2-2.5-0.5-3.6c-0.4-1.1-0.8-1.9-1.8-3.3
							L302.6,27.8z"/>
					</g>
				</g>
			</g>
			<g>
				<circle class="st0" cx="177" cy="12.4" r="10.9"/>
				<g>
					<path class="st1" d="M174.7,7.6c0.4,0.1,0.7,0.1,1.3,0.1h1.4c0.8,0,0.9,0,1.4,0c-0.1,0.6-0.1,1-0.1,1.8v5.8
						c0,0.7,0,1.1,0.1,1.7h-2.4c0.1-0.5,0.1-1,0.1-1.7V9.5H176c-0.4,0-0.9,0-1.3,0.1V7.6z"/>
				</g>
			</g>
		</g>
		<g>
			<path class="st2" d="M94.5,128.5l-5.7-5.7L79,113c-1.2-1.2-2.6-1.9-4.3-1.9h-32c-2.4,0-4.1,1.9-4.1,4.1v83.1
				c0,2.4,1.9,4.1,4.1,4.1h47h6c0.5,0,1.2,0,1.7-0.2c1.4-0.7,2.6-2.1,2.6-3.8l0,0v-1V197v-0.5v-60.4c0-1.7-0.7-3.3-1.9-4.3
				L94.5,128.5z M90.2,167.4L90.2,167.4v22.4c0,1.2-0.7,2.1-1.4,2.6c-0.5,0.5-1.4,0.7-2.1,0.7H50.8c-1.9,0-3.3-1.4-3.3-3.3l0,0
				v-22.4c0-1.9,1.4-3.3,3.3-3.3l0,0h36.1c0.7,0,1.4,0.2,1.9,0.5C89.7,165.5,90.2,166.5,90.2,167.4z"/>
		</g>
		<g>
			<path class="st2" d="M279.5,86.1l-4.7-4.7l-8-8c-1-1-2.1-1.6-3.5-1.6h-26c-1.9,0-3.3,1.6-3.3,3.3v67.6c0,1.9,1.6,3.3,3.3,3.3
				h38.3h4.9c0.4,0,1,0,1.4-0.2c1.2-0.6,2.1-1.7,2.1-3.1l0,0v-0.8v-0.2v-0.4V92.3c0-1.4-0.6-2.7-1.6-3.5L279.5,86.1z M276,117.8
				L276,117.8V136c0,1-0.6,1.7-1.2,2.1c-0.4,0.4-1.2,0.6-1.7,0.6h-29.1c-1.6,0-2.7-1.2-2.7-2.7l0,0v-18.3c0-1.6,1.2-2.7,2.7-2.7l0,0
				h29.3c0.6,0,1.2,0.2,1.6,0.4C275.6,116.2,276,117,276,117.8z"/>
		</g>
		<g>
			<path class="st2" d="M279.5,180.9l-4.7-4.7l-8-8c-1-1-2.1-1.6-3.5-1.6h-26c-1.9,0-3.3,1.6-3.3,3.3v67.6c0,1.9,1.6,3.3,3.3,3.3
				h38.3h4.9c0.4,0,1,0,1.4-0.2c1.2-0.6,2.1-1.7,2.1-3.1l0,0v-0.8v-0.2v-0.4v-49.1c0-1.4-0.6-2.7-1.6-3.5L279.5,180.9z M276,212.6
				L276,212.6v18.3c0,1-0.6,1.7-1.2,2.1c-0.4,0.4-1.2,0.6-1.7,0.6h-29.1c-1.6,0-2.7-1.2-2.7-2.7l0,0v-18.3c0-1.6,1.2-2.7,2.7-2.7
				l0,0h29.3c0.6,0,1.2,0.2,1.6,0.4C275.6,211.1,276,211.8,276,212.6z"/>
		</g>
		<g>
			<g>
				<g>
					<path class="st3" d="M39.3,242.5c-1.7-0.9-3.1-1.5-5.2-2.2l1.8-2c2.3,0.7,3.5,1.2,5.6,2.3l-1.6,1.9H44c1.2,0,1.8,0,2.7-0.1v2.8
						c-0.8-0.1-1.4-0.1-2.7-0.1h-4.6v3.3h3.9c0.9,0,1.7,0,2.4-0.1v2.8c-0.7-0.1-1.2-0.1-2.3-0.1h-3.9v3.9h5.2c1.2,0,2,0,3-0.1v2.9
						c-1-0.1-1.7-0.1-2.9-0.1h-13c-1.3,0-2.2,0-3.1,0.1v-2.9c0.8,0.1,1.7,0.1,3,0.1h4.9v-3.9H33c-1.1,0-1.8,0-2.5,0.1v-2.8
						c0.7,0.1,1.2,0.1,2.3,0.1h3.7V245h-4.4c-1.6,0-2.1,0-2.8,0.1v-2.8c0.8,0.1,1.4,0.1,2.7,0.1H39.3z"/>
					<path class="st3" d="M52.9,251.9c0.1,0.8,0.2,1.2,0.5,1.6c0.5,0.7,1.5,1.1,2.7,1.1c1.7,0,2.8-0.8,2.8-2.1
						c0-0.6-0.3-1.1-0.8-1.4c-0.6-0.4-1.2-0.6-3.4-1.1c-1.7-0.4-2.4-0.7-3.1-1.2c-1.1-0.8-1.7-2.1-1.7-3.5c0-2.9,2.3-4.8,6-4.8
						c2.4,0,4.2,0.7,5.2,2.1c0.5,0.7,0.8,1.3,1,2.4l-3.5,0.4c-0.1-0.6-0.2-0.9-0.5-1.3c-0.5-0.5-1.3-0.8-2.2-0.8
						c-1.6,0-2.6,0.8-2.6,1.9c0,0.5,0.2,1,0.7,1.3c0.4,0.3,0.8,0.4,1.9,0.7c2.2,0.5,3.1,0.7,3.9,1.1c0.8,0.4,1.6,1,2,1.7
						c0.4,0.7,0.6,1.5,0.6,2.4c0,3.3-2.3,5.1-6.3,5.1c-2.6,0-4.5-0.7-5.6-2.1c-0.7-0.8-0.9-1.6-1.2-3.1L52.9,251.9z"/>
					<path class="st3" d="M68.3,240.8c-0.1,0.8-0.2,1.4-0.2,2.8v10.7c0,1.3,0,2,0.2,2.8h-3.7c0.1-0.8,0.2-1.5,0.2-2.8v-10.7
						c0-1.4,0-1.9-0.2-2.8H68.3z"/>
					<path class="st3" d="M78.3,257c-0.1-0.7-0.4-1.6-0.9-2.8L75,248c-0.2-0.6-0.5-1.5-0.9-3c0.1,1.9,0.2,2.7,0.2,3.2v5.8
						c0,1.4,0,2.2,0.2,3H71c0.1-0.8,0.2-1.7,0.2-3v-10.2c0-1.3,0-2.2-0.2-3h4.4c0.1,0.7,0.4,1.6,0.7,2.6l3.6,9.3l3.5-9.3
						c0.4-1,0.6-1.8,0.7-2.6h4.4c-0.1,1-0.2,1.7-0.2,3V254c0,1.5,0,2.3,0.2,3h-3.3c0.1-0.9,0.2-1.6,0.2-3v-5.9c0-0.5,0-1.3,0.2-3.2
						c-0.1,0.4-0.1,0.4-0.3,1.3c-0.1,0.3-0.4,1.4-0.6,1.7l-2.5,6.3c-0.4,1-0.8,2.2-0.9,2.8H78.3z"/>
					<path class="st3" d="M101.1,240.8c-0.2,0.3-0.3,0.5-0.5,0.9c-0.3,0.7-0.7,1.4-0.9,1.8c0.9,0,1.2,0,1.7-0.1c0,0.4,0,0.5,0,1.1
						c0.8-0.4,0.9-0.5,1.3-0.8c0.7-0.6,1-1.2,1.3-2.1h-0.4c-0.8,0-1.3,0-1.8,0.1v-2.6c0.7,0.1,1.2,0.1,2.2,0.1h5.4
						c0.8,0,1.3,0,1.8-0.1c0,0.4-0.1,0.9-0.2,1.9c-0.2,2.5-0.4,3.6-0.8,4.1c-0.2,0.3-0.7,0.5-1.1,0.6c-0.3,0.1-0.8,0.1-1.3,0.1
						c-0.3,0-0.7,0-1.4,0c-0.1-0.9-0.2-1.6-0.5-2.3c-0.6,1.2-1.4,2.1-2.6,2.9l1.5,0.3c-0.1,0.5-0.1,0.6-0.2,1.1h0.9
						c0-0.7,0-1.1-0.1-1.5h2.7c0,0.6,0,0.8,0,1.5h1.2c0.9,0,1.4,0,1.8-0.1v2.6c-0.5-0.1-1-0.1-1.8-0.1h-1.2v1.6h1.4
						c0.9,0,1.4,0,2-0.1v2.6c-0.6-0.1-1-0.1-2-0.1h-1.4v1.7c0,1,0,1.5,0.1,2.2h-2.8c0.1-0.7,0.1-1.2,0.1-2.2v-1.7h-1.9
						c-0.9,0-1.3,0-2,0.1v-2.6c0.7,0.1,1,0.1,2,0.1h1.9v-1.6h-1.5c-0.2,0.6-0.3,0.8-0.5,1.5c-0.9-0.5-1.4-0.8-2.2-1.1
						c0.6-1.2,0.8-1.9,1-2.9c0.1-0.5,0.1-1.1,0.1-1.3c-0.3-0.6-0.7-1.1-1.2-1.6v11c0,1-0.2,1.5-0.8,1.8c-0.4,0.2-1,0.3-2.2,0.3
						c-0.3,0-0.3,0-1.2,0c-0.1-0.9-0.2-1.6-0.6-2.5c0.9,0.1,1.2,0.1,1.7,0.1c0.8,0,0.9-0.1,0.9-0.4V253h-4.1c-0.2,2.3-0.5,3.4-1.3,5
						c-0.8-1-1.1-1.4-2-2c1-1.8,1.2-3.6,1.2-9.6c0-0.9,0-0.9,0-1.4c-0.4-0.4-0.5-0.6-1.3-1.1c1.5-1.4,2.6-3.4,3-5.5l2.7,0.5
						c-0.1,0.2-0.1,0.2-0.4,0.9H99c0.6,0,0.8,0,1.1-0.1L101.1,240.8z M97.2,243.5c0.3-0.5,0.4-0.8,0.7-1.5h-1.8
						c-0.3,0.7-0.5,1-0.8,1.5H97.2z M96.4,250.8v-1.6h-1l0,1.6H96.4z M95.4,245.7v1.5h1v-1.5H95.4z M99.2,245.7h-1v1.5h1V245.7z
						 M99.2,249.3h-1v1.6h1V249.3z M106.6,241.6c-0.2,1-0.3,1.3-0.6,1.9c0.5,0.1,0.9,0.1,1.4,0.1c0.5,0,0.7-0.1,0.8-0.3
						c0-0.1,0.1-0.4,0.1-0.7c0,0,0-0.3,0.1-0.6c0-0.1,0-0.2,0-0.4H106.6z"/>
					<path class="st3" d="M117,250.7c-0.2,3.3-0.3,4.2-0.9,6.3l-2.1-1c0.6-1.9,0.8-3.5,0.9-5.6L117,250.7z M114.1,247.3
						c0.3,0.1,0.5,0.1,1,0.1h0.7c0.4-0.5,0.6-0.7,1-1.3c-1.1-1.5-1.3-1.7-2.8-3.1l1.3-2.2c0.3,0.4,0.4,0.5,0.6,0.7
						c0.7-1.1,1.4-2.5,1.6-3.2l2.3,0.9c-0.1,0.2-0.2,0.3-0.4,0.8c-0.5,1-1.3,2.3-1.9,3.2c0.3,0.3,0.4,0.4,0.7,0.8
						c1.2-1.7,1.9-2.9,2.1-3.5l2.2,1.2c-0.2,0.2-0.3,0.4-0.7,1c-1,1.4-2.5,3.5-3.4,4.5c1.1,0,1.3-0.1,2.1-0.1
						c-0.1-0.4-0.2-0.7-0.5-1.4l1.7-0.7c0.6,1.2,1.1,2.6,1.6,4.3l-2,0.8c-0.1-0.4-0.1-0.5-0.2-0.9c-0.9,0.1-0.9,0.1-1.2,0.1v6.5
						c0,1.1,0,1.6,0.1,2.3h-2.7c0.1-0.7,0.1-1.2,0.1-2.3v-6.3c-1,0.1-1,0.1-2.4,0.1c-0.4,0-0.6,0.1-0.9,0.1L114.1,247.3z
						 M122.6,250.4c0.4,1.8,0.7,3.5,0.9,5.5l-2.2,0.4c-0.2-2.4-0.3-3.8-0.6-5.5L122.6,250.4z M126,244c-0.8,1.5-1.1,2-2,3.1
						c-0.5-0.7-1-1.3-2-2c0.9-1.1,1.7-2.4,2.3-3.8c0.4-1.1,0.7-2.1,0.8-2.9l2.8,0.5c-0.1,0.3-0.1,0.3-0.3,0.9
						c-0.1,0.3-0.3,1-0.5,1.6h4.4c0.9,0,1.2,0,1.7-0.1c-0.1,0.7-0.1,0.7-0.1,3.8c0,2.5-0.2,6.2-0.4,7.9c-0.3,2.5-0.7,3.6-1.5,4.2
						c-0.5,0.4-1.4,0.6-2.9,0.6c-0.6,0-1.1,0-1.8-0.1c-0.1-1.1-0.3-1.7-0.7-2.8c1,0.1,2.1,0.3,2.7,0.3c0.9,0,1.2-0.3,1.4-1.5
						c0.3-1.8,0.5-5.4,0.5-9.7H126z M126.4,252.8c-0.9-2.8-1.3-3.7-2.2-5.4l2.3-1.1c1.2,2,1.7,3.2,2.4,5.3L126.4,252.8z"/>
				</g>
			</g>
			<g>
				<circle class="st3" cx="12.6" cy="248.7" r="10.9"/>
				<g>
					<path class="st1" d="M10.9,253.2c-1,0-1.2,0-1.7,0c0-0.5,0.1-0.9,0.2-1.3c0.3-0.9,0.8-1.8,1.6-2.5c0.4-0.4,0.8-0.7,2-1.5
						c0.9-0.6,1.2-0.9,1.2-1.4c0-0.5-0.5-0.9-1.2-0.9c-0.5,0-0.9,0.2-1.1,0.6c-0.2,0.2-0.2,0.5-0.3,0.9l-2.3-0.2
						c0.2-1,0.4-1.4,0.8-2c0.6-0.7,1.6-1.1,2.9-1.1c1.5,0,2.6,0.5,3.2,1.4c0.2,0.4,0.4,0.8,0.4,1.3c0,0.8-0.3,1.5-1,2.1
						c-0.4,0.3-0.5,0.4-1.6,1.2c-1,0.7-1.4,1-1.6,1.5h2.6c0.8,0,1.3,0,1.8-0.1v2.1c-0.6-0.1-1.1-0.1-1.9-0.1H10.9z"/>
				</g>
			</g>
		</g>
		<g>
			<line class="st4" x1="116.2" y1="156.7" x2="160.9" y2="156.7"/>
			<polyline class="st4" points="210.2,205.3 162.9,205.3 162.9,108 210.2,108 			"/>
		</g>
		<path class="st5" d="M307.8,259.2H207.6c-3.1,0-5.5-2.5-5.5-5.5V59.7c0-3.1,2.5-5.5,5.5-5.5h100.2c3.1,0,5.5,2.5,5.5,5.5v193.9
			C313.3,256.7,310.8,259.2,307.8,259.2z"/>
		<path class="st6" d="M120.4,225.5H18.2c-2.5,0-4.5-2-4.5-4.5V92.4c0-2.5,2-4.5,4.5-4.5h102.1c2.5,0,4.5,2,4.5,4.5V221
			C124.9,223.5,122.9,225.5,120.4,225.5z"/>
	</g>
	<rect class="st7" width="333.7" height="263.4"/>
</g>
</svg>
