<?xml version="1.0" encoding="utf-8"?>
<!-- Generator: Adobe Illustrator 25.3.1, SVG Export Plug-In . SVG Version: 6.00 Build 0)  -->
<svg version="1.1" id="レイヤー_1" xmlns="http://www.w3.org/2000/svg" xmlns:xlink="http://www.w3.org/1999/xlink" x="0px"
	 y="0px" viewBox="0 0 333.7 263.4" style="enable-background:new 0 0 333.7 263.4;" xml:space="preserve">
<style type="text/css">
	.st0{fill:#FF6A76;}
	.st1{fill:#ADADAD;}
	.st2{fill:#D9D9D9;}
	.st3{fill:none;stroke:#D9D9D9;stroke-width:5;stroke-linecap:round;stroke-linejoin:round;stroke-miterlimit:10;}
	.st4{fill:none;stroke:#FF6A76;stroke-width:5;stroke-miterlimit:10;}
	.st5{fill:none;}
</style>
<g>
	<g>
		<g>
			<g>
				<g>
					<g>
						<g>
							<path class="st0" d="M176.4,7.2c2.3,0.9,3.9,1.7,5.7,2.9l-1.5,2.8c-1.7-1.3-3.6-2.3-5.8-3.2L176.4,7.2z M175.2,16.5
								c1.9,0,4.1-0.5,6.3-1.4c2.6-1,4.3-2.4,6-4.6c1.1-1.5,1.7-2.8,2.4-4.6c1.2,1.2,1.6,1.6,2.6,2.2c-1.1,2.5-1.9,3.9-3.2,5.4
								c-2.8,3.2-6.3,5-11.7,6c-0.7,0.1-1,0.2-1.5,0.4L175.2,16.5z M178,2.1c2.3,0.8,4,1.7,5.8,2.7l-1.6,2.7
								c-2.1-1.4-3.8-2.2-5.8-2.9L178,2.1z"/>
							<path class="st0" d="M202.6,16.8h3.3c1.4,0,2,0,2.9-0.1v2.8c-0.7-0.1-1.6-0.1-2.9-0.1h-9.5c-1.6,0-1.7,0-2.7,0.1v-2.8
								c0.7,0.1,1.2,0.1,2.6,0.1h3.4v-6.5h-2.1c-1.2,0-2,0-2.7,0.1V7.6c0.7,0.1,1.3,0.1,2.6,0.1h7c1.3,0,1.8,0,2.8-0.1v2.8
								c-0.8-0.1-1.4-0.1-2.8-0.1h-2.1V16.8z"/>
							<path class="st0" d="M229.1,4.6c-0.3,0.3-0.4,0.4-0.6,1c-1.4,3.1-3.2,5.1-5.9,6.7c-0.8-1-1.2-1.4-2.2-2.1
								c-0.1,2.3-0.5,3.7-1.2,5.1c-1.2,2.2-3,3.7-6.2,5.1c-0.7-1.4-1-1.8-2-2.9c2.3-0.7,3.8-1.6,4.9-3c1-1.3,1.4-2.9,1.4-5.8
								c0-0.8,0-0.9-0.1-1.4h3.4c-0.1,0.4-0.1,0.5-0.1,1.8c0,0.1,0,0.4,0,1c2.3-1.1,3.6-2.2,4.6-4.2h-10.4c-1.3,0-2.3,0-3.2,0.1V2.7
								c1,0.1,1.6,0.2,3.3,0.2h10.8c1.2,0,1.4,0,1.9-0.2L229.1,4.6z"/>
							<path class="st0" d="M233.3,14.5c0.1,0.8,0.2,1.2,0.5,1.6c0.5,0.7,1.5,1.1,2.7,1.1c1.7,0,2.8-0.8,2.8-2.1
								c0-0.6-0.3-1.1-0.8-1.4c-0.6-0.4-1.2-0.6-3.4-1.1c-1.7-0.4-2.4-0.7-3.1-1.2c-1.1-0.8-1.7-2.1-1.7-3.5c0-2.9,2.3-4.8,6-4.8
								c2.4,0,4.2,0.7,5.2,2.1c0.5,0.7,0.8,1.3,1,2.4L239,8c-0.1-0.6-0.2-0.9-0.5-1.3c-0.5-0.5-1.3-0.8-2.2-0.8
								c-1.6,0-2.6,0.8-2.6,1.9c0,0.5,0.2,1,0.7,1.3c0.4,0.3,0.8,0.4,1.9,0.7c2.2,0.5,3.1,0.7,3.9,1.1c0.8,0.4,1.6,1,2,1.7
								c0.4,0.7,0.6,1.5,0.6,2.4c0,3.3-2.3,5.1-6.3,5.1c-2.6,0-4.5-0.7-5.6-2.1c-0.7-0.8-0.9-1.6-1.2-3.1L233.3,14.5z"/>
							<path class="st0" d="M248.7,3.5c-0.1,0.8-0.2,1.4-0.2,2.8V17c0,1.3,0,2,0.2,2.8H245c0.1-0.8,0.2-1.5,0.2-2.8V6.2
								c0-1.4,0-1.9-0.2-2.8H248.7z"/>
							<path class="st0" d="M259,19.7c-0.1-0.7-0.4-1.6-0.9-2.8l-2.4-6.2c-0.2-0.6-0.5-1.5-0.9-3c0.1,1.9,0.2,2.7,0.2,3.2v5.8
								c0,1.4,0,2.2,0.2,3h-3.3c0.1-0.8,0.2-1.7,0.2-3V6.5c0-1.3,0-2.2-0.2-3h4.4c0.1,0.7,0.4,1.6,0.7,2.6l3.6,9.3l3.5-9.3
								c0.4-1,0.6-1.8,0.7-2.6h4.4c-0.1,1-0.2,1.7-0.2,3v10.2c0,1.5,0,2.3,0.2,3h-3.3c0.1-0.9,0.2-1.6,0.2-3v-5.9
								c0-0.5,0-1.3,0.2-3.2c-0.1,0.4-0.1,0.4-0.3,1.3c-0.1,0.3-0.4,1.4-0.6,1.7l-2.5,6.3c-0.4,1-0.8,2.2-0.9,2.8H259z"/>
							<path class="st0" d="M275.1,1.5c0.9,1.6,1.3,2.5,2,4.1l-2.2,1.2c-0.6-1.6-1-2.5-2-4.1L275.1,1.5z M277.4,2.9
								c0-0.8,0-1.3-0.1-1.7h2.9c-0.1,0.5-0.1,0.9-0.1,1.7v4h2.2l-2.2-1.1c0.9-1.4,1.3-2.3,2-4.1l2.5,1.1c-0.9,2.1-1.3,2.8-2.1,4.1
								c0.6,0,0.7,0,1.2-0.1c0,0.5-0.1,1-0.1,1.7v9.8c0,0.9-0.1,1.3-0.5,1.7c-0.4,0.4-0.9,0.5-2,0.5c-0.5,0-1.2,0-2.2-0.1
								c-0.1-1.1-0.2-1.6-0.5-2.5c1,0.1,1.6,0.2,2.1,0.2c0.5,0,0.6-0.1,0.6-0.4v-1.5h-4.6v2c0,1,0,1.7,0.1,2.5h-2.9
								c0.1-0.8,0.1-1.4,0.1-2.5V8.6c0-0.8,0-1.3-0.1-1.8c0.5,0.1,1,0.1,1.5,0.1h2.2V2.9z M281,9.2h-4.6v1.2h4.6V9.2z M276.4,14h4.6
								v-1.3h-4.6V14z M287.6,2.9c-0.1,0.6-0.1,1.1-0.1,2.1v8.6c0,1.2,0,1.6,0.1,2.2h-2.8c0.1-0.7,0.1-1.1,0.1-2.2V5.1
								c0-1,0-1.6-0.1-2.2H287.6z M291.9,1.4c-0.1,0.6-0.1,1.2-0.1,2.5v14c0,1.2-0.2,1.8-0.8,2.2c-0.5,0.4-1.3,0.5-2.7,0.5
								c-0.5,0-0.9,0-2.1-0.1c-0.1-1.1-0.3-1.7-0.7-2.7c1,0.1,1.8,0.2,2.6,0.2c0.8,0,1-0.1,1-0.6V4c0-1.3,0-1.9-0.1-2.6H291.9z"/>
							<path class="st0" d="M302,13h-0.3c0,1.1-0.4,2-1,2.4c-0.5,0.4-1.2,0.6-2.2,0.6h-0.3c0-1.3-0.1-1.7-0.5-2.5
								c0.3,0,0.5,0.1,0.6,0.1c0.2,0,0.4,0,0.5-0.1c0.2-0.1,0.3-0.5,0.3-1c0-1.5-0.4-2.5-1.4-3.8c0.7-1.3,1.2-2.6,1.6-4.4h-1.7V18
								c0,0.9,0,1.9,0.1,2.7h-2.9c0.1-0.7,0.1-1.7,0.1-2.8v-14c0-0.8,0-1.5-0.1-2.2c0.5,0.1,1,0.1,1.7,0.1h2.8c0.7,0,1.2,0,1.6-0.1
								l1.3,1.2c-0.2,0.4-0.2,0.4-0.3,0.8c-0.2,0.7-0.4,1.3-0.7,2c0.8-0.5,1.4-1,2.2-1.8c0.8-0.8,1.4-1.5,2-2.6h2.8
								c0.7,1.2,1.4,2,2.6,2.9c1,0.8,1.4,1,3.3,1.9c-0.5,0.8-0.8,1.5-1.1,2.8c-0.8-0.5-1-0.6-1.8-1.1v1.4c-0.7-0.1-0.9-0.1-1.9-0.1
								h-1.3v1.4h3.2c1,0,1.4,0,2-0.1v2.7c-0.5-0.1-1.1-0.1-2-0.1h-3.2v5.2c0,1.9-0.6,2.4-3.2,2.4c-0.4,0-1.2,0-1.8,0
								c-0.1-0.9-0.2-1.6-0.5-2.3c-0.5,0.8-0.8,1.1-1.7,1.9c-0.7-0.9-1-1.3-1.9-2c0.9-0.8,1.4-1.2,1.9-1.9c0.6-0.8,0.9-1.4,1.3-2.8
								l2.4,0.9c-0.6,1.7-1,2.4-1.8,3.7c0.5,0.1,1.3,0.1,1.6,0.1c0.8,0,1-0.1,1-0.5V13H302z M305.7,9.1h-0.9c-1,0-1.1,0-1.9,0.1V7.9
								c-0.4,0.3-0.6,0.4-1.2,0.8c-0.4-0.9-0.5-1.2-0.9-1.6c-0.2,0.5-0.3,0.7-0.6,1.3c0.7,1,0.9,1.5,1.1,2.2c0.3,0,0.5,0,0.6,0h3.7
								V9.1z M309.7,6.7h0.5c-1.2-0.9-2.2-2-3-3.1c-0.9,1.3-1.6,2.1-2.8,3.1h0.4H309.7z M311.4,13.4c0.7,2.1,1.3,3,2.8,4.5
								c-0.7,0.7-1.2,1.2-1.8,2.2c-1.7-2.1-2.5-3.3-3.3-5.8L311.4,13.4z"/>
							<path class="st0" d="M206,43.8c-1-1.3-1.3-2-1.8-3c-0.7-1.6-1.1-3.4-1.1-5.1c0-1.4,0.2-2.8,0.7-4.1c0.5-1.4,1-2.3,2.2-4
								l2,1.3c-1,1.4-1.4,2.1-1.8,3.3c-0.4,1.1-0.5,2.3-0.5,3.6c0,1.2,0.2,2.4,0.5,3.4c0.4,1.1,0.8,1.9,1.8,3.3L206,43.8z"/>
							<path class="st0" d="M216.1,41.2c-0.1-0.6-0.3-1.3-0.7-2.3l-2-5.1c-0.2-0.5-0.4-1.3-0.8-2.5c0.1,1.6,0.1,2.3,0.1,2.7v4.8
								c0,1.2,0,1.8,0.1,2.5h-2.7c0.1-0.7,0.1-1.4,0.1-2.5v-8.4c0-1,0-1.8-0.1-2.5h3.6c0.1,0.6,0.3,1.3,0.6,2.1l2.9,7.7l2.9-7.7
								c0.3-0.8,0.5-1.5,0.6-2.1h3.6c-0.1,0.8-0.1,1.4-0.1,2.5v8.4c0,1.2,0,1.9,0.1,2.5h-2.7c0.1-0.7,0.1-1.3,0.1-2.5v-4.8
								c0-0.4,0-1.1,0.1-2.6c-0.1,0.3-0.1,0.3-0.3,1c-0.1,0.3-0.4,1.2-0.5,1.4l-2.1,5.2c-0.3,0.9-0.6,1.8-0.7,2.3H216.1z"/>
							<path class="st0" d="M234.6,35.3c0.4,0.6,0.8,1.2,1.1,1.9c0-0.6-0.1-1.4-0.1-2.1v-5c0-1.1,0-1.7-0.1-2.4h2.9
								c-0.1,0.7-0.1,1.3-0.1,2.4v8.7c0,1,0,1.7,0.1,2.3h-3.1c-0.2-0.4-0.6-1.1-1.1-1.9l-3.8-5.6c-0.3-0.5-0.6-1-1.1-1.8
								c0,0.2,0,0.2,0.1,0.8c0,0.3,0,1,0,1.3v4.8c0,1.1,0,1.9,0.1,2.5h-2.9c0.1-0.6,0.1-1.4,0.1-2.5v-8.5c0-0.9,0-1.6-0.1-2.3h3.1
								c0.1,0.4,0.5,1,1.1,1.9L234.6,35.3z"/>
							<path class="st0" d="M240.9,41.2c0.1-0.7,0.1-1.3,0.1-2.3V30c0-0.8,0-1.5-0.1-2.3c0.7,0,1.3,0,2.3,0h3.5
								c1.7,0,2.9,0.4,3.7,1.2c0.7,0.7,1.1,1.7,1.1,3c0,1.3-0.4,2.4-1.2,3.2c-0.8,0.9-2.1,1.3-3.6,1.3h-2.9v2.4c0,0.9,0,1.6,0.1,2.3
								H240.9z M246.5,34.1c1.3,0,2.1-0.7,2.1-2c0-0.6-0.2-1.1-0.5-1.4c-0.3-0.4-0.9-0.5-1.6-0.5h-2.8v4H246.5z"/>
							<path class="st0" d="M258.4,40.8c0,0.5,0,0.9,0.1,1.4h-2.1c0.1-0.5,0.1-1,0.1-1.5v-0.8h-1.3c-0.7,0-1.1,0-1.7,0.1v-2
								c0.5,0.1,0.8,0.1,1.5,0.1h1.4v-0.8h-0.7c-0.8,0-1.1,0-1.7,0c0-0.6,0.1-1.1,0.1-2v-2.8c0-0.8,0-1.2-0.1-1.8c0.5,0,0.8,0,1.7,0
								h0.7v-0.8h-1.3c-0.7,0-1,0-1.6,0.1v-1.9c0.5,0.1,0.8,0.1,1.7,0.1h1.2v-0.1c0-0.5,0-0.8-0.1-1.3h2.1c-0.1,0.4-0.1,0.8-0.1,1.3
								v0.1h1c0.8,0,1.2,0,1.6-0.1v1.9c-0.5-0.1-0.7-0.1-1.5-0.1h-1.1v0.8h1c0.8,0,1,0,1.3,0c0,0.3,0,0.7,0,1.6v3.1
								c0,1.1,0,1.5,0,1.8c-0.4,0-0.6,0-1.4,0h-1v0.8h1.2c0.6,0,0.9,0,1.3-0.1v1.6l0.7,0c0.6-2.3,0.8-3.2,1.2-5.5
								c-0.8,0-1.1,0-1.6,0.1v-2.1c0.5,0.1,0.9,0.1,1.7,0.1h4.2c0.8,0,1.2,0,1.7-0.1v2.1c-0.5,0-1-0.1-1.7-0.1h-2.2
								c0,0.2,0,0.2-0.3,1.5c-0.2,1.2-0.5,2.4-0.9,3.8c1.1-0.1,1.3-0.2,2.4-0.4c-0.4-1.3-0.6-1.8-1.1-3l1.8-0.7
								c1,2.3,1.5,3.6,2.2,5.9l-1.9,0.9c-0.2-0.7-0.2-0.8-0.4-1.4c-1.7,0.4-2,0.5-4,0.8c-1.2,0.2-1.4,0.2-1.8,0.3l-0.3-2
								c-0.3,0-0.6,0-1,0h-1V40.8z M255.8,32.5v0.8h0.9v-0.8H255.8z M255.8,34.8v0.8h0.9v-0.8H255.8z M259.1,33.4v-0.8h-0.8v0.8
								H259.1z M259.1,35.7v-0.8h-0.8v0.8H259.1z M261.7,27.9c0.5,0.1,0.8,0.1,1.6,0.1h3.2c0.8,0,1.2,0,1.6-0.1v2.1
								c-0.2,0-0.2,0-0.4,0c-0.2,0-0.7,0-1.2,0h-3.2c-0.8,0-1.2,0-1.6,0.1V27.9z"/>
							<path class="st0" d="M276.8,28.7c0-0.8,0-1.3-0.1-1.7h2.4c-0.1,0.5-0.1,0.9-0.1,1.7v3.4h3.1v-2.5c0-0.5,0-0.9-0.1-1.3h2.3
								c-0.1,0.5-0.1,0.9-0.1,1.5V33c0,0.5,0,0.9,0,1.2c-0.3,0-0.8,0-1.2,0H279v5.1h3.7v-2.5c0-0.6,0-1-0.1-1.4h2.3
								c0,0.4-0.1,1-0.1,1.6v3.5c0,0.9,0,1.3,0.1,1.8h-2.3v-0.8h-9.4v0.8H271c0.1-0.5,0.1-1.1,0.1-1.8V37c0-0.6,0-1.2-0.1-1.6h2.3
								c0,0.4-0.1,0.8-0.1,1.4v2.5h3.5v-5.1h-3.8c-0.5,0-0.9,0-1.3,0c0-0.4,0-0.7,0-1.2v-3.3c0-0.5,0-1.2-0.1-1.5h2.3
								c0,0.4-0.1,0.8-0.1,1.3v2.5h2.9V28.7z"/>
							<path class="st0" d="M289.1,27.6c1.2,1.7,1.7,2.6,2.2,4c0.4,1.3,0.7,2.7,0.7,4.1c0,1.8-0.3,3.5-1.1,5.2
								c-0.5,1.1-0.9,1.7-1.8,3l-2-1.4c1-1.4,1.4-2.2,1.8-3.3c0.3-1,0.5-2.2,0.5-3.4c0-1.3-0.2-2.5-0.5-3.6
								c-0.4-1.1-0.8-1.9-1.8-3.3L289.1,27.6z"/>
						</g>
					</g>
				</g>
			</g>
		</g>
		<g>
			<path class="st1" d="M38.7,205.3c-1.4-0.7-2.5-1.2-4.2-1.8L36,202c1.9,0.6,2.9,1,4.6,1.8l-1.3,1.5h3.3c1,0,1.5,0,2.2-0.1v2.3
				c-0.7-0.1-1.1-0.1-2.2-0.1h-3.8v2.7h3.1c0.7,0,1.3,0,1.9-0.1v2.2c-0.6-0.1-1-0.1-1.9-0.1h-3.2v3.2H43c1,0,1.6,0,2.4-0.1v2.3
				c-0.8-0.1-1.4-0.1-2.4-0.1H32.5c-1.1,0-1.7,0-2.5,0.1v-2.3c0.7,0.1,1.4,0.1,2.4,0.1h4v-3.2h-2.8c-0.9,0-1.4,0-2,0.1V210
				c0.5,0.1,1,0.1,1.9,0.1h3v-2.7h-3.5c-1.3,0-1.7,0-2.2,0.1v-2.3c0.7,0.1,1.1,0.1,2.2,0.1H38.7z"/>
			<path class="st1" d="M49.9,213.1c0.1,0.7,0.2,1,0.5,1.4c0.5,0.6,1.3,0.9,2.3,0.9c1.5,0,2.4-0.7,2.4-1.8c0-0.5-0.2-1-0.7-1.2
				c-0.5-0.3-1.1-0.5-2.9-0.9c-1.4-0.3-2-0.6-2.6-1c-1-0.7-1.5-1.7-1.5-3c0-2.5,2-4.1,5.1-4.1c2,0,3.5,0.6,4.4,1.8
				c0.4,0.6,0.6,1.1,0.9,2.1l-3,0.3c-0.1-0.5-0.2-0.8-0.4-1.1c-0.4-0.5-1.1-0.7-1.9-0.7c-1.3,0-2.2,0.6-2.2,1.6
				c0,0.5,0.2,0.8,0.6,1.1c0.4,0.2,0.7,0.4,1.6,0.6c1.9,0.4,2.7,0.6,3.3,0.9c0.7,0.3,1.3,0.8,1.7,1.5c0.3,0.6,0.5,1.2,0.5,2.1
				c0,2.8-1.9,4.3-5.3,4.3c-2.2,0-3.8-0.6-4.7-1.7c-0.6-0.7-0.8-1.3-1-2.7L49.9,213.1z"/>
			<path class="st1" d="M63,203.6c-0.1,0.7-0.1,1.2-0.1,2.3v9.1c0,1.1,0,1.7,0.1,2.3h-3.1c0.1-0.7,0.1-1.3,0.1-2.3V206
				c0-1.2,0-1.6-0.1-2.3H63z"/>
			<path class="st1" d="M71.4,217.4c-0.1-0.6-0.3-1.4-0.7-2.4l-2.1-5.3c-0.2-0.5-0.4-1.3-0.8-2.6c0.1,1.6,0.1,2.3,0.1,2.8v4.9
				c0,1.2,0,1.9,0.1,2.6h-2.8c0.1-0.7,0.1-1.4,0.1-2.6v-8.7c0-1.1,0-1.9-0.1-2.6H69c0.1,0.6,0.3,1.3,0.6,2.2l3,7.9l3-7.9
				c0.3-0.9,0.5-1.5,0.6-2.2h3.8c-0.1,0.8-0.1,1.4-0.1,2.6v8.7c0,1.3,0,1.9,0.1,2.6h-2.8c0.1-0.8,0.1-1.4,0.1-2.6v-5
				c0-0.4,0-1.1,0.1-2.7c-0.1,0.3-0.1,0.3-0.3,1.1c-0.1,0.3-0.4,1.2-0.5,1.5l-2.1,5.4c-0.3,0.9-0.6,1.8-0.7,2.4H71.4z"/>
		</g>
		<g>
			<path class="st2" d="M81.3,122.2l-5.7-5.7l-9.8-9.8c-1.2-1.2-2.6-1.9-4.3-1.9h-32c-2.4,0-4.1,1.9-4.1,4.1V192
				c0,2.4,1.9,4.1,4.1,4.1h47h6c0.5,0,1.2,0,1.7-0.2c1.4-0.7,2.6-2.1,2.6-3.8l0,0v-1v-0.2v-0.5v-60.4c0-1.7-0.7-3.3-1.9-4.3
				L81.3,122.2z M77,161.2L77,161.2v22.4c0,1.2-0.7,2.1-1.4,2.6c-0.5,0.5-1.4,0.7-2.1,0.7H37.6c-1.9,0-3.3-1.4-3.3-3.3l0,0v-22.4
				c0-1.9,1.4-3.3,3.3-3.3l0,0h36.1c0.7,0,1.4,0.2,1.9,0.5C76.5,159.3,77,160.2,77,161.2z"/>
		</g>
		<g>
			<path class="st2" d="M266.2,84.9l-4.7-4.7l-8-8c-1-1-2.1-1.6-3.5-1.6h-26c-1.9,0-3.3,1.6-3.3,3.3v67.6c0,1.9,1.6,3.3,3.3,3.3
				h38.3h4.9c0.4,0,1,0,1.4-0.2c1.2-0.6,2.1-1.7,2.1-3.1l0,0v-0.8v-0.2v-0.4V91.1c0-1.4-0.6-2.7-1.6-3.5L266.2,84.9z M262.7,116.5
				L262.7,116.5v18.3c0,1-0.6,1.7-1.2,2.1c-0.4,0.4-1.2,0.6-1.7,0.6h-29.1c-1.6,0-2.7-1.2-2.7-2.7l0,0v-18.3c0-1.6,1.2-2.7,2.7-2.7
				l0,0H260c0.6,0,1.2,0.2,1.6,0.4C262.3,115,262.7,115.8,262.7,116.5z"/>
		</g>
		<g>
			<path class="st2" d="M266.2,179.7l-4.7-4.7l-8-8c-1-1-2.1-1.6-3.5-1.6h-26c-1.9,0-3.3,1.6-3.3,3.3v67.6c0,1.9,1.6,3.3,3.3,3.3
				h38.3h4.9c0.4,0,1,0,1.4-0.2c1.2-0.6,2.1-1.7,2.1-3.1l0,0v-0.8v-0.2v-0.4v-49.1c0-1.4-0.6-2.7-1.6-3.5L266.2,179.7z M262.7,211.4
				L262.7,211.4v18.3c0,1-0.6,1.7-1.2,2.1c-0.4,0.4-1.2,0.6-1.7,0.6h-29.1c-1.6,0-2.7-1.2-2.7-2.7l0,0v-18.3c0-1.6,1.2-2.7,2.7-2.7
				l0,0H260c0.6,0,1.2,0.2,1.6,0.4C262.3,209.8,262.7,210.6,262.7,211.4z"/>
		</g>
		<g>
			<line class="st3" x1="103" y1="155.4" x2="147.6" y2="155.4"/>
			<polyline class="st3" points="196.9,204.1 149.6,204.1 149.6,106.8 196.9,106.8 			"/>
		</g>
		<path class="st4" d="M294.5,257.9H194.4c-3.1,0-5.5-2.5-5.5-5.5V58.5c0-3.1,2.5-5.5,5.5-5.5h100.2c3.1,0,5.5,2.5,5.5,5.5v193.9
			C300.1,255.4,297.6,257.9,294.5,257.9z"/>
	</g>
	<rect class="st5" width="333.7" height="263.4"/>
</g>
</svg>
