<?xml version="1.0" encoding="utf-8"?>
<!-- Generator: Adobe Illustrator 25.3.1, SVG Export Plug-In . SVG Version: 6.00 Build 0)  -->
<svg version="1.1" id="レイヤー_1" xmlns="http://www.w3.org/2000/svg" xmlns:xlink="http://www.w3.org/1999/xlink" x="0px"
	 y="0px" viewBox="0 0 428 200" style="enable-background:new 0 0 428 200;" xml:space="preserve">
<style type="text/css">
	.st0{fill:#FFFFFF;}
	.st1{fill:none;stroke:#E3E3E3;stroke-width:4;stroke-miterlimit:10;}
	.st2{clip-path:url(#SVGID_2_);}
	.st3{fill:#FFDBC2;}
	.st4{fill:#1FC97C;}
	.st5{fill:#35318F;}
	.st6{fill:#37377C;}
	.st7{fill:#D8A684;}
	.st8{fill:#F39800;}
	.st9{fill:#AFAFAF;}
	.st10{fill:#1DA9D0;}
	.st11{opacity:0.52;}
	.st12{fill:#FF6A76;}
	.st13{fill:none;}
</style>
<g>
	<path class="st0" d="M205.9,3.9h-93.4C68.3,3.9,32.4,39.8,32.4,84l0,0c0,44.2,35.9,80.1,80.1,80.1h64.2l32,18.9
		c0.2,0.1,0.5,0.1,0.7,0c0.3-0.2,0.4-0.6,0.3-0.9c-1.6-6-3.2-12-4.7-18h0.9c44.2,0,80.1-35.9,80.1-80.1l0,0
		C286,39.8,250.1,3.9,205.9,3.9z"/>
	<path class="st1" d="M205.9,3.9h-93.4C68.3,3.9,32.4,39.8,32.4,84l0,0c0,44.2,35.9,80.1,80.1,80.1h64.2l32,18.9
		c0.2,0.1,0.5,0.1,0.7,0c0.3-0.2,0.4-0.6,0.3-0.9c-1.6-6-3.2-12-4.7-18h0.9c44.2,0,80.1-35.9,80.1-80.1l0,0
		C286,39.8,250.1,3.9,205.9,3.9z"/>
	<g>
		<defs>
			<rect id="SVGID_1_" x="214" y="6.3" width="183.6" height="191.9"/>
		</defs>
		<clipPath id="SVGID_2_">
			<use xlink:href="#SVGID_1_"  style="overflow:visible;"/>
		</clipPath>
		<g class="st2">
			<path class="st3" d="M321.5,140.3c0-0.7-0.2-1.4-0.5-2c-2.2-3.6-10.9-1.7-13.1-1.2c-2.2-0.5-10.9-2.4-13.1,1.2
				c-0.3,0.6-0.5,1.3-0.5,2c-0.4,2.6-4.1,5.8-18.4,8.6l30.9,13.3l33.8-12.6C325.6,146.4,321.9,143,321.5,140.3z"/>
			<path class="st4" d="M350.5,247.7l10.6-86.2c-6-6.3-14.1-14.6-19.6-13.2l-34.9,12.4l-31.5-12.4c-10.7,0-17.5,6.9-17.5,17.6
				l10.2,82.2L350.5,247.7z"/>
			<path class="st5" d="M275,72.6c-1.5-15.3,16.3-54.3,58.4-44.7c45.7,10.4,41.1,76.7,13.8,96.4s-63.7,0.5-63.7,0.5L275,72.6z"/>
			<path class="st5" d="M347.5,125.2c10.6-8.6,13-20.5,11.7-26.8c-2.3-10.5-76.6-50.1-76.6-50.1c-19.5,29.8,5.6,64.3-19,79.4
				c0,0,2.5-1.1,15.5,2.9c-2.3,2.7-4.2,5.7-5.6,9c0,0,7.2-3.5,32-3.9c5.1-0.1,9.3-0.2,13-0.6c12.6-0.7,21.7-4.3,28-9.1
				C346.9,125.8,347.2,125.5,347.5,125.2z"/>
			<path class="st3" d="M355.4,91.4c4.5-22.6-8.2-44.1-28.3-48.1s-40,11-44.5,33.6c-2.5,11.6-0.1,23.7,6.5,33.6
				c8.7,15.3,5.5,27.5,5.5,27.5l13.1,2.5l13,2.7c0,0,1.8-12.6,15.6-23.3C346.4,113.3,353.2,103.1,355.4,91.4z"/>
			
				<ellipse transform="matrix(0.9984 -5.617002e-02 5.617002e-02 0.9984 -4.1014 15.7936)" class="st3" cx="278.9" cy="80.9" rx="11" ry="13.3"/>
			
				<ellipse transform="matrix(0.4337 -0.9011 0.9011 0.4337 115.6368 377.8423)" class="st3" cx="358.4" cy="96.9" rx="13.3" ry="11"/>
			<path class="st5" d="M284.4,70.2c0,0,15.1-17.3,51-13.1c0,0-9.8-2.2-31,6.8c0,0,29.4,0.9,54.5,7.5c12.2,3.2-9.5-29.3-26.5-32.6
				S286.8,44.2,284.4,70.2z"/>
			<circle class="st6" cx="303.8" cy="84.1" r="3.5"/>
			<circle class="st6" cx="332.6" cy="91.5" r="3.5"/>
			
				<ellipse transform="matrix(0.1949 -0.9808 0.9808 0.1949 161.4677 383.6106)" class="st7" cx="314.4" cy="93.4" rx="3.5" ry="2.6"/>
			<path class="st6" d="M312.8,110.1c-1.9-0.2-2.1-1.8-2.3-2.9c-0.3-1.4,0.6-3.7,1.8-3.9c2.6-0.4,2.8,2.6,2.7,4.1
				C314.9,108.4,314.6,110.3,312.8,110.1z"/>
			<path class="st4" d="M251.1,161.2l-20,68.9h32.8l20-63.6c1.7-8.6-1.5-16.3-10.3-18.1S254.7,152.8,251.1,161.2z"/>
			<path class="st3" d="M254.8,131.5c-2.4,0.7-3.7,3.3-3,5.7c0,0,0,0,0,0L259,157l8.9-2.8l-7.2-19.7
				C259.8,132.1,257.2,130.8,254.8,131.5L254.8,131.5z"/>
			<path class="st3" d="M268.5,179.3c0,0,11.9-35.4,13.7-40.8c6-19.2-17.8-25.6-24-5.5s-12.9,42.8-12.9,42.8"/>
			<path class="st4" d="M279.2,153.8l-29.6-6.8c0,0-10.8,40-12.6,56.8s22.6,20.2,26.7,7.6S279.2,153.8,279.2,153.8z"/>
			<path class="st4" d="M339.7,148.4c-8.3,1.7-11.3,8.9-9.7,17l18.8,59.7h30.8l-18.7-64.7C357.5,152.5,348,146.8,339.7,148.4z"/>
			<path class="st3" d="M376.7,184.9c-1.9-1.7-4.8-1.7-6.6,0.1L355,199.6l6.8,6.4l15.2-14.6c1.7-1.8,1.7-4.7-0.2-6.4
				C376.8,184.9,376.8,184.9,376.7,184.9L376.7,184.9z"/>
			<path class="st8" d="M353,141c12.4,0.1,24.7,3.4,35.5,9.5c0,0,6.8,33.4,0.7,37.3s-53.8-4.1-56-14.4
				C331.6,165.5,344.3,147.2,353,141z"/>
			<path class="st9" d="M356.1,134.2c-4.1-1.2-7.3,5.5-3.1,6.8s29.4,5.8,34.1,8.9c3.4,2.3,6.2-4.5,2-7.2
				C389,142.7,360.1,135.4,356.1,134.2z"/>
			
				<ellipse transform="matrix(6.087429e-02 -0.9981 0.9981 6.087429e-02 213.644 495.5034)" class="st9" cx="370.1" cy="134.2" rx="4.5" ry="4.5"/>
			
				<ellipse transform="matrix(6.087429e-02 -0.9981 0.9981 6.087429e-02 217.6118 503.3236)" class="st9" cx="376.3" cy="136" rx="4.5" ry="4.5"/>
			<path class="st0" d="M376,153.8c-0.2-0.3-0.5-0.5-0.9-0.5c-0.5-0.1-1.1,0-1.4,0.4l-8,7.8l-3.3-10.6c-0.1-0.5-0.5-0.9-1-1
				c-0.3-0.1-0.6-0.1-0.9,0c-0.5,0.1-1,0.5-1.2,1c-0.1,0.2-0.1,0.5,0,0.8l2.7,7.8l-3.2-0.8c-0.7-0.2-1.4,0.2-1.5,0.9
				c-0.2,0.7,0.2,1.3,0.9,1.5l0,0l4.8,1.2l0.5,1.6l-0.2,0.9l-5.7-1.4c-0.3-0.1-0.7-0.1-1,0.1c-0.3,0.2-0.5,0.5-0.5,0.8
				c-0.2,0.6,0.1,1.2,0.7,1.4l0,0h0.2l5.7,1.4l-1.1,4.5c-0.1,0.4-0.1,0.8,0.1,1.1c0.2,0.3,0.6,0.6,1,0.6h0.2c0.3,0.1,0.6,0,0.9-0.1
				c0.4-0.2,0.6-0.5,0.7-0.9l1.1-4.5l5.7,1.4c0.6,0.2,1.3-0.2,1.5-0.8l0,0c0.2-0.6-0.1-1.2-0.6-1.4h-0.3l-5.7-1.4l0.2-0.9l1.3-1.2
				l4.8,1.2c0.6,0.2,1.2-0.1,1.5-0.7v-0.2c0.1-0.3,0.1-0.7-0.1-1c-0.2-0.3-0.5-0.4-0.8-0.5l-3.2-0.9l6.1-5.6
				c0.2-0.2,0.4-0.4,0.4-0.7l0,0C376.4,154.6,376.3,154.2,376,153.8z"/>
			<path class="st3" d="M344.8,228.2c0,0,3.3-35,3.8-40.3c2.2-18.8,25.1-15.2,22.8,4.5s-5.3,41.8-5.3,41.8"/>
		</g>
	</g>
	<path class="st10" d="M119.9,50.4H80.1c-0.8,0-1.5,0.7-1.5,1.5v64.3c0,0.8,0.7,1.5,1.5,1.5h39.8c0.8,0,1.5-0.7,1.5-1.5V51.9
		C121.4,51,120.8,50.4,119.9,50.4z"/>
	<path class="st0" d="M103.9,112.5h-7.7c-0.8,0-1.5-0.7-1.5-1.5c0-0.8,0.7-1.5,1.5-1.5c0,0,0,0,0,0h7.7c0.8,0,1.5,0.7,1.5,1.5
		C105.4,111.8,104.7,112.5,103.9,112.5z"/>
	<path class="st0" d="M85.5,56.5h29.1c0.8,0,1.5,0.7,1.5,1.5v44.4c0,0.8-0.7,1.5-1.5,1.5H85.5c-0.8,0-1.5-0.7-1.5-1.5V58
		C84,57.2,84.7,56.5,85.5,56.5z"/>
	<path class="st10" d="M151.5,97.8h-6.6c-0.3,0-0.6-0.3-0.6-0.6V70.8c0-0.3,0.3-0.6,0.6-0.6h6.6c0.3,0,0.6,0.3,0.6,0.6v26.4
		C152.1,97.5,151.8,97.8,151.5,97.8z"/>
	<path class="st10" d="M134.5,87.3v-6.6c0-0.3,0.3-0.6,0.6-0.6h26.4c0.3,0,0.6,0.3,0.6,0.6v6.6c0,0.3-0.3,0.6-0.6,0.6H135
		C134.7,87.9,134.5,87.6,134.5,87.3z"/>
	<path class="st10" d="M246.6,109.4c-2-3.1-8.3-13.4-8.3-13.4V53.9c0-2-1.6-3.6-3.6-3.6h-52.6c-2,0-3.6,1.6-3.6,3.6v42.2
		c0,0-6.6,10.4-8.3,13.4s-1,8.3,4.4,8.3l67.4-0.1C247.6,117.7,248.5,112.4,246.6,109.4z"/>
	<path class="st0" d="M218.1,111.5h-19.4c-0.3,0-0.5-0.3-0.5-0.5c0-0.1,0-0.2,0.1-0.2l2-3.7c0.1-0.2,0.3-0.3,0.5-0.3h15.4
		c0.2,0,0.4,0.1,0.5,0.3l2,3.7c0.1,0.3,0,0.6-0.2,0.7C218.2,111.5,218.2,111.5,218.1,111.5z"/>
	<path class="st0" d="M188.3,57.3h39.8c1.5,0,2.7,1.2,2.7,2.7v26.4c0,1.5-1.2,2.7-2.7,2.7h-39.8c-1.5,0-2.7-1.2-2.7-2.7V59.9
		C185.6,58.5,186.8,57.3,188.3,57.3z"/>
	<g class="st11">
		
			<rect x="82.9" y="76.5" transform="matrix(0.8096 -0.5869 0.5869 0.8096 -19.5958 109.6242)" class="st12" width="152.6" height="17"/>
		
			<rect x="150.7" y="8.7" transform="matrix(0.5994 -0.8004 0.8004 0.5994 -4.2758 161.4876)" class="st12" width="17" height="152.6"/>
	</g>
	<rect class="st13" width="428" height="200"/>
</g>
</svg>
