<?xml version="1.0" encoding="utf-8"?>
<!-- Generator: Adobe Illustrator 25.3.1, SVG Export Plug-In . SVG Version: 6.00 Build 0)  -->
<svg version="1.1" id="レイヤー_1" xmlns="http://www.w3.org/2000/svg" xmlns:xlink="http://www.w3.org/1999/xlink" x="0px"
	 y="0px" viewBox="0 0 306.1 71.5" style="enable-background:new 0 0 306.1 71.5;" xml:space="preserve">
<style type="text/css">
	.st0{fill:#FFFFFF;}
	.st1{fill:none;stroke:#E3E3E3;stroke-width:2.1287;stroke-miterlimit:10;}
	.st2{fill:#313131;}
	.st3{clip-path:url(#SVGID_2_);}
	.st4{fill:#FFDBC2;}
	.st5{fill:#1FC97C;}
	.st6{fill:#35318F;}
	.st7{fill:#3F3F8C;}
	.st8{fill:#D8A684;}
	.st9{fill:#F39800;}
	.st10{fill:#AFAFAF;}
	.st11{fill:none;}
	.st12{clip-path:url(#SVGID_4_);}
	.st13{fill:#F2A638;}
	.st14{fill:#FFDDC6;}
	.st15{fill:#1DA9D0;}
</style>
<g>
	<g>
		<g>
			<g>
				<g>
					<path class="st0" d="M126.7,2.4H93.3C77.4,2.4,64.6,15.2,64.6,31v0c0,13,8.7,24,20.6,27.5c-0.7,2.5-1.3,5.1-2,7.6
						c0,0.1,0,0.3,0.1,0.3c0.1,0,0.2,0,0.3,0c3.8-2.3,7.6-4.5,11.4-6.8h31.6c15.8,0,28.7-12.8,28.7-28.7v0
						C155.3,15.2,142.5,2.4,126.7,2.4z"/>
				</g>
				<g>
					<path class="st1" d="M126.7,2.4H93.3C77.4,2.4,64.6,15.2,64.6,31v0c0,13,8.7,24,20.6,27.5c-0.7,2.5-1.3,5.1-2,7.6
						c0,0.1,0,0.3,0.1,0.3c0.1,0,0.2,0,0.3,0c3.8-2.3,7.6-4.5,11.4-6.8h31.6c15.8,0,28.7-12.8,28.7-28.7v0
						C155.3,15.2,142.5,2.4,126.7,2.4z"/>
				</g>
			</g>
			<g>
				<path class="st2" d="M81.2,24.5c-0.2,1.4-0.7,2.3-1.5,3.3c-0.4-0.5-0.7-0.8-1.2-1.2c1.3-1.3,1.5-2.4,1.5-6.8
					c0-0.8,0-1.3-0.1-1.7c0.4,0,0.7,0.1,1.3,0.1h4.6c0.6,0,0.9,0,1.3-0.1c0,0.3,0,0.6,0,1.3v6.8c0,0.6-0.1,0.9-0.4,1.2
					c-0.3,0.2-0.6,0.2-1.4,0.2c-0.3,0-0.7,0-1.2,0c-0.1-0.6-0.2-0.9-0.4-1.4c0.6,0.1,1.2,0.1,1.6,0.1c0.3,0,0.4-0.1,0.4-0.3v-1.6
					H81.2z M85.7,23.2V22h-4.2c0,0.4,0,0.7-0.1,1.2H85.7z M85.7,20.7v-1.1h-4.2v1.1H85.7z"/>
				<path class="st2" d="M93.2,21.2c-0.9,1.5-1.5,2.3-2.7,3.5c-0.5-0.4-0.8-0.6-1.3-0.9c1.3-1.2,1.9-2,2.6-3.3
					c0.6-1,0.9-1.8,0.9-2.5l1.6,0.4c-0.1,0.2-0.2,0.3-0.4,0.8c0,0.1,0,0.1-0.2,0.6H96c0.6,0,1,0,1.2-0.1l0.8,1
					c0,0.1-0.2,0.4-0.3,0.6c-0.6,1.3-1.4,2.5-2.2,3.6c0.6,0.5,0.8,0.8,1.3,1.4l-1.1,1.1c-0.6-0.8-0.9-1.1-1.6-1.7
					c-0.7-0.7-1.1-1-2.1-1.7l1.1-1c0.6,0.4,0.8,0.6,1.3,0.9c0.8-1,1.2-1.6,1.8-2.9H93.2z"/>
				<path class="st2" d="M104.5,24.5c-0.6,1.4-1.3,2-2.2,2c-1.3,0-2.3-1.3-2.3-3.1c0-1.2,0.4-2.3,1.2-3.2c0.9-1,2.2-1.5,3.7-1.5
					c2.7,0,4.4,1.6,4.4,4.1c0,1.9-1,3.4-2.7,4.1c-0.5,0.2-0.9,0.3-1.7,0.4c-0.2-0.7-0.4-1-0.8-1.5c0.9-0.1,1.6-0.2,2.1-0.5
					c0.9-0.5,1.5-1.5,1.5-2.6c0-0.9-0.4-1.7-1.1-2.2c-0.3-0.2-0.6-0.3-1-0.3C105.4,21.9,105,23.3,104.5,24.5z M102.8,20.7
					c-0.8,0.6-1.3,1.7-1.3,2.7c0,0.8,0.3,1.4,0.8,1.4c0.3,0,0.6-0.4,1-1.3c0.4-0.9,0.7-2.3,0.9-3.4
					C103.5,20.2,103.2,20.3,102.8,20.7z"/>
				<path class="st2" d="M114.6,24.6c-0.1,0.2-0.1,0.3-0.3,0.6c-0.5-0.6-0.6-0.7-0.9-1.2c0.1,0.6,0.1,0.7,0.1,1v1.7
					c0,0.5,0,0.8,0.1,1.1h-1.4c0-0.3,0.1-0.6,0.1-1.1v-1.2c0-0.4,0-0.8,0-1.1c-0.5,1.1-0.7,1.5-1.2,2.1c-0.2-0.5-0.4-0.9-0.6-1.3
					c0.7-0.7,1.2-1.5,1.7-2.6h-0.5c-0.5,0-0.7,0-1,0.1v-1.3c0.2,0,0.5,0.1,1,0.1h0.7v-2.5c0-0.5,0-0.7-0.1-1h1.4
					c0,0.3-0.1,0.5-0.1,1v1.8c0.4-0.9,0.5-1.3,0.7-2.2l1,0.5c-0.3,1.1-0.5,1.7-0.8,2.3l-0.9-0.5v0.7h0.4c0.4,0,0.6,0,0.8-0.1v1.3
					c-0.3,0-0.5-0.1-0.9-0.1h-0.3c0.3,0.5,0.7,0.9,1.3,1.4C114.8,24.3,114.7,24.4,114.6,24.6c0.3-0.1,0.7-0.1,1-0.2l2.3-0.5v-4.8
					c0-0.6,0-0.9-0.1-1.3h1.5c-0.1,0.4-0.1,0.6-0.1,1.3v4.5c0.4-0.1,0.6-0.1,0.9-0.2l0.2,1.4c-0.3,0-0.5,0.1-1.1,0.2v1.5
					c0,0.6,0,0.9,0.1,1.3h-1.5c0.1-0.4,0.1-0.6,0.1-1.3v-1.2l-2.1,0.5c-0.5,0.1-0.8,0.2-1,0.3L114.6,24.6z M111.4,18.4
					c0.3,1,0.5,1.5,0.6,2.3l-1,0.5c-0.2-1-0.3-1.6-0.6-2.3L111.4,18.4z M115.7,21.2c0.8,0.6,1.3,0.9,1.8,1.5l-0.8,1
					c-0.7-0.8-1.1-1.1-1.9-1.6L115.7,21.2z M116.1,18.5c0.9,0.6,1.2,0.9,1.8,1.5l-0.9,1.1c-0.7-0.8-0.9-0.9-1.9-1.6L116.1,18.5z"/>
				<path class="st2" d="M124.3,21.8c-0.4,0-0.7,0-1.1,0v-0.5c-0.6,0.3-1,0.6-1.7,0.8c-0.3-0.7-0.4-0.8-0.7-1.3
					c1.9-0.6,3.6-1.8,4.3-3h1.6c0.4,0.6,0.8,1,1.5,1.5c0.9,0.6,1.7,1.1,2.8,1.4c-0.3,0.5-0.5,0.9-0.6,1.4c-0.8-0.3-1.2-0.5-1.8-0.9
					v0.5c-0.3,0-0.6,0-1.1,0h-0.9v0.9h2.6c0.6,0,1,0,1.2-0.1V24c-0.3,0-0.7-0.1-1.2-0.1h-2.6v2.2h2l-1.2-0.4c0.3-0.5,0.5-1,0.8-1.7
					l1.3,0.5c-0.5,1-0.5,1.1-0.9,1.7h0.7c0.6,0,0.9,0,1.3-0.1v1.4c-0.4,0-0.9-0.1-1.3-0.1h-6.7c-0.5,0-0.9,0-1.4,0.1v-1.4
					c0.4,0,0.8,0.1,1.4,0.1h2.6V24h-2.4c-0.5,0-0.9,0-1.2,0.1v-1.4c0.3,0,0.6,0.1,1.2,0.1h2.4v-0.9H124.3z M123.6,24.1
					c0.3,0.6,0.6,1.1,0.8,1.7l-1.3,0.4c-0.3-0.8-0.5-1.2-0.8-1.6L123.6,24.1z M127.5,20.7c-0.7-0.5-1.1-0.9-1.6-1.5
					c-0.5,0.6-0.9,1-1.6,1.5H127.5z"/>
				<path class="st2" d="M132.3,19.1c0.4,0.1,1.1,0.1,1.9,0.1h0.2h0.2h0.1c0.3-0.6,0.3-0.9,0.4-1.2l1.7,0.1
					c-0.1,0.1-0.1,0.1-0.4,0.9c0,0.1,0,0.1-0.1,0.2c0.2,0,0.2,0,0.7,0c1.3-0.1,2.1-0.2,2.7-0.4l0.1,1.4c-0.3,0-0.3,0-0.8,0.1
					c-0.8,0.1-2.2,0.2-3.2,0.2c-0.2,0.4-0.4,0.6-0.7,1.1c0.6-0.3,0.9-0.4,1.5-0.4c0.9,0,1.4,0.4,1.6,1.1c0.1,0,0.3-0.1,0.6-0.2
					c0.4-0.1,0.5-0.2,0.9-0.3c0.6-0.2,0.6-0.2,0.8-0.3l0.6,1.4c-0.3,0-0.7,0.1-1.2,0.3c-0.3,0.1-0.3,0.1-1.5,0.5l0,0.4v0.2v0.3v0.2
					c0,0.3,0,0.5,0,0.7l-1.5,0c0-0.2,0.1-0.7,0.1-1.2c0,0,0,0,0-0.1c-0.4,0.2-0.6,0.3-0.9,0.5c-0.3,0.2-0.5,0.5-0.5,0.8
					c0,0.5,0.5,0.7,1.6,0.7c1.3,0,2.4-0.2,3.3-0.5l0.1,1.6c-0.2,0-0.2,0-0.5,0.1c-0.9,0.1-1.8,0.2-2.7,0.2c-1.6,0-2.4-0.2-2.9-0.8
					c-0.3-0.3-0.4-0.7-0.4-1.2c0-0.7,0.4-1.3,1.2-1.9c0.4-0.3,0.8-0.5,1.6-0.8c-0.1-0.3-0.2-0.4-0.5-0.4c-0.6,0-1.3,0.4-2.1,1.1
					c-0.4,0.4-0.7,0.7-1,1l-1.2-1.1c0.6-0.4,1.5-1.5,2.1-2.5c0.1-0.2,0.1-0.2,0.2-0.3c-0.6,0-0.7,0-1,0c-0.2,0-0.4,0-0.4,0
					c-0.1,0-0.2,0-0.2,0h-0.1c0,0-0.1,0-0.2,0L132.3,19.1z"/>
				<path class="st2" d="M86.2,40.3c-0.5,0-0.8,0-1.1,0c0-0.3,0.1-0.7,0.1-1.1v-3.9c0-0.6,0-1-0.1-1.3c0.3,0,0.6,0,1.1,0h5.1
					c0.5,0,0.8,0,1.1,0c0,0.3-0.1,0.7-0.1,1.3v3.9c0,0.5,0,0.9,0.1,1.1c-0.3,0-0.6,0-1.1,0h-0.9v1.6c0,0.3,0.1,0.3,0.8,0.3
					c0.7,0,0.9,0,1-0.2c0.1-0.1,0.1-0.7,0.2-1.4c0.5,0.3,0.8,0.4,1.3,0.5c-0.1,1.3-0.2,1.7-0.5,2c-0.3,0.3-0.8,0.3-2,0.3
					c-1.9,0-2.2-0.1-2.2-1v-2.1h-0.8c-0.1,0.9-0.4,1.5-1,2.1c-0.7,0.6-1.4,1-2.7,1.3c-0.2-0.5-0.4-0.8-0.7-1.3c1-0.2,1.5-0.4,2-0.6
					c0.6-0.4,0.9-0.8,1-1.4H86.2z M86.4,35.8H91v-0.6h-4.6V35.8z M86.4,37.5H91v-0.6h-4.6V37.5z M86.4,39.1H91v-0.6h-4.6V39.1z"/>
				<path class="st2" d="M99.1,34.3c0.1-0.3,0.1-0.6,0.1-0.8l1.5,0.1c0,0.1,0,0.2-0.1,0.4c0,0.1,0,0.2-0.1,0.3h2.2
					c0.7,0,1,0,1.4-0.1v1.3c-0.4,0-0.7-0.1-1.4-0.1h-2.5c-0.1,0.2-0.1,0.3-0.1,0.4h1.8c0.7,0,1,0,1.3,0c0,0.3,0,0.6,0,1.2v3.1
					c0,0.7,0,0.9,0,1.2c-0.3,0-0.6,0-1.3,0h-3.5c-0.7,0-0.9,0-1.3,0c0-0.2,0-0.6,0-1.2v-3.1c0-0.7,0-1,0-1.2c0.3,0,0.6,0,1.3,0h0.3
					c0.1-0.2,0.1-0.3,0.1-0.4H96c-0.5,0-0.9,0-1.3,0.1v-1.4c0.4,0,0.8,0.1,1.3,0.1H99.1z M102.9,41.9c0.6,0,0.8,0,1.2-0.1v1.4
					c-0.4-0.1-0.7-0.1-1.3-0.1h-6.4v0.4h-1.5c0-0.4,0.1-0.9,0.1-1.6v-4.4c0-0.6,0-1-0.1-1.2h1.5c0,0.3-0.1,0.7-0.1,1.1v4.4H102.9z
					 M98.5,37.5h3.3v-0.5h-3.3V37.5z M98.5,38.9h3.3v-0.4h-3.3V38.9z M98.5,40.4h3.3v-0.5h-3.3V40.4z"/>
				<path class="st2" d="M108.4,34.1c-0.1,0.6-0.2,3.5-0.2,5.3c0,1,0.1,1.4,0.3,1.7c0.2,0.3,0.7,0.5,1.3,0.5c1.1,0,2-0.6,2.5-1.8
					c0.2-0.6,0.4-1.1,0.4-1.9c0.7,0.5,0.9,0.7,1.6,1c-0.4,1.5-0.8,2.2-1.3,2.9c-0.8,0.9-1.9,1.4-3.3,1.4c-0.8,0-1.5-0.2-2-0.5
					c-0.4-0.3-0.8-0.8-1-1.3c-0.1-0.3-0.2-0.9-0.2-1.5c0-0.5,0-1.2,0-2.6c0-1.5,0-2.1,0-2.4c0-0.4,0-0.5,0-0.8L108.4,34.1z"/>
				<path class="st2" d="M116.2,35.5c0.4,0.1,0.9,0.1,1.5,0.1c0.1,0,0.1,0,0.4,0c0.1-0.5,0.2-1.3,0.2-1.6v-0.2l1.7,0.1
					c-0.1,0.3-0.1,0.3-0.2,1c0,0.3-0.1,0.3-0.1,0.5c0.8-0.1,1.2-0.2,1.8-0.3l0.1,1.5c-0.2,0-0.2,0-0.6,0.1c-0.5,0.1-0.9,0.1-1.5,0.2
					c-0.2,0.9-0.3,1.6-0.6,2.6c-0.3,1.2-0.4,1.5-0.9,2.9c-0.1,0.3-0.2,0.5-0.2,0.7l-1.6-0.6c0.7-1.4,1.5-3.7,1.9-5.6h-0.3l-1.1,0
					c-0.1,0-0.1,0-0.2,0L116.2,35.5z M121.8,39.7c-0.4,0.6-0.5,0.8-0.5,1.2c0,0.5,0.5,0.7,1.5,0.7c0.7,0,1.8-0.2,2.4-0.4l0.1,1.6
					c-0.2,0-0.3,0-0.5,0.1c-0.9,0.1-1.4,0.2-2,0.2c-1,0-1.7-0.1-2.2-0.5c-0.5-0.3-0.8-0.8-0.8-1.4s0.2-1.1,0.8-1.9L121.8,39.7z
					 M124.8,38.5c-0.5-0.1-0.8-0.1-1.4-0.1c-1.1,0-1.8,0.1-2.9,0.3l-0.1-1.4c1.6-0.3,2.1-0.3,3.4-0.3c0.3,0,0.3,0,1,0L124.8,38.5z"
					/>
				<path class="st2" d="M128.6,34.7c-0.1,0.4-0.1,1-0.1,1.8c0,2.5,0.4,4.4,0.9,4.4c0.1,0,0.3-0.1,0.4-0.4c0.3-0.6,0.4-1.2,0.6-1.9
					c0.4,0.5,0.6,0.7,1.3,1.2c-0.6,2.1-1.3,3-2.2,3c-0.8,0-1.4-0.6-1.9-1.7c-0.4-1.1-0.6-2.4-0.6-5.7c0-0.4,0-0.5,0-0.7L128.6,34.7z
					 M133.6,35.1c1.4,1.6,2.1,3.5,2.4,6l-1.6,0.6c0-1-0.3-2.2-0.6-3.2c-0.4-1-0.9-1.9-1.5-2.7L133.6,35.1z"/>
			</g>
			<g id="desgin_6_">
				<g>
					<defs>
						<rect id="SVGID_1_" width="80.3" height="71.5"/>
					</defs>
					<clipPath id="SVGID_2_">
						<use xlink:href="#SVGID_1_"  style="overflow:visible;"/>
					</clipPath>
					<g class="st3">
						<path class="st4" d="M70,56.8c-0.8-0.7-2-0.6-2.7,0.2l-5.8,6.4l2.9,2.4l5.9-6.4C70.9,58.7,70.8,57.5,70,56.8
							C70,56.8,70,56.8,70,56.8z"/>
						<path class="st5" d="M56,79.5V59.8c0-3.6-2.9-6.5-6.5-6.5c0,0,0,0-0.1,0H27.1c-3.6,0-6.6,2.9-6.6,6.5c0,0,0,0,0,0.1l-4.7,19.7
							H56z"/>
						<path class="st5" d="M52.1,53.7c-2.8,0.6-3.8,3-3.3,5.7l6.3,20.1h10.4l-6.3-21.8C58.1,55.1,54.9,53.2,52.1,53.7z"/>
						<path class="st6" d="M19.5,25.2c-1.8-6.1,2.2-23.3,20-22.8C58.9,3,62.3,30.2,52.9,40.3s-25.7,5.3-25.7,5.3L19.5,25.2z"/>
						<path class="st6" d="M53.1,40.7c3.6-4.3,3.6-9.4,2.6-11.8c-1.8-4.1-35-14.1-35-14.1c-5.5,13.6,7.4,25.6-1.3,33.6
							c0,0,0.9-0.7,6.5-0.1c-0.7,1.3-1.2,2.6-1.5,4.1c0,0,2.6-2,12.6-4.2c2-0.4,3.7-0.8,5.2-1.3c5-1.3,8.4-3.5,10.6-5.9
							C52.9,40.9,53,40.8,53.1,40.7z"/>
						<path class="st4" d="M53.6,26.3c0-9.5-6.8-17.2-15.3-17.2S23,16.9,23,26.3c-0.1,4.9,1.9,9.6,5.3,13c4.8,5.5,4.5,10.7,4.5,10.7
							l5.5,0l5.5,0c0,0-0.3-5.2,4.5-10.7C51.7,35.9,53.6,31.2,53.6,26.3z"/>
						<ellipse class="st7" cx="32.1" cy="26.2" rx="1.5" ry="1.4"/>
						<ellipse class="st7" cx="44.8" cy="26.2" rx="1.5" ry="1.4"/>
						<ellipse class="st8" cx="38.3" cy="30.7" rx="1.1" ry="1.4"/>
						
							<ellipse transform="matrix(0.9683 -0.2497 0.2497 0.9683 -6.4005 6.2118)" class="st4" cx="21.3" cy="28.3" rx="4.5" ry="5.5"/>
						
							<ellipse transform="matrix(0.2497 -0.9683 0.9683 0.2497 13.9935 74.7424)" class="st4" cx="55.2" cy="28.3" rx="5.5" ry="4.5"/>
						<path class="st6" d="M23.1,23.5c0,0,4.7-8.2,19.6-9.4c0,0-4.1-0.1-12,5.2c0,0,12-2,22.6-1.4C58.5,18.2,47.1,6.8,40,6.8
							S22,12.7,23.1,23.5z"/>
						<path class="st4" d="M43.7,50.1c0-2.4-4.5-1.5-5.5-1.2c-1-0.2-5.5-1.2-5.5,1.2c0,2.8-5.7,3.3-5.7,3.3s7.2,3.1,11.3,3.1
							s11.1-3.1,11.1-3.1S43.7,52.8,43.7,50.1z"/>
						<path class="st7" d="M38.5,38.2c-2.1,0-3.3-2.6-3.2-3.4c0,0,0-0.1,0-0.1c0.3-0.5,1.4-0.1,3.1-0.1s2.9-0.5,3.2,0
							c0,0,0,0.1,0,0.1C41.9,35.5,40.7,38.2,38.5,38.2z"/>
						<path class="st4" d="M18.6,64.5c0,0-1.9-14.4-2.2-16.5c-1.2-7.7-10.6-5.9-9.3,2.2S10,67.3,10,67.3"/>
						<path class="st4" d="M9.9,41.9c0.2-1.2,1-2.3,2-3c1.4-1,3.2-1.2,4.8-0.5c1.5,0.7,1.2,3-0.3,2.9c-1.1-0.1-2,0.6-2.2,1.7
							c0,0.1,0,0.2,0,0.3c0.1,0.9,0.6,1.8,1.8,1.6c1.1-0.2,1.7-1.3,1.5-2.4c-0.2-0.8,2.1-1.8,2.8-0.3c0.8,1.5,0.4,5-2.5,6.1
							c-2.9,1.1-4.7,0.3-6.5-1.1C9.5,46,9.7,43,9.9,41.9z"/>
						<path class="st4" d="M11,43.5c0,0-2.9-6-4.9-7.9c-2-1.9-4.8,0.4-3.6,2.4c1.2,2,5.4,7.8,5.4,7.8"/>
						<path class="st4" d="M9.4,45.3c0,0-3.5-5.3-5.6-6.8s-4.5,1-3.1,2.7c1.4,1.7,6,6.6,6,6.6"/>
						<path class="st4" d="M9.3,48.7c0,0-2.9-4.4-4.6-5.6S1,43.9,2.2,45.3c1.1,1.4,5,5.4,5,5.4"/>
						<path class="st5" d="M18,53.8L6.5,56.5c0,0,3.1,15.8,5.3,21.9s11.3,3.1,10.6-1.9S18,53.8,18,53.8z"/>
						<path class="st9" d="M59.1,39.3c5.1-0.3,10.2,0.8,14.8,3c0,0,3.7,13.6,1.2,15.3c-2.4,1.7-22.2-0.4-23.4-4.5
							C51,50,55.7,42.1,59.1,39.3z"/>
						<path class="st10" d="M60.3,36.5c-1.7-0.4-2.8,2.4-1.1,2.8c1.7,0.4,12.2,1.6,14.2,2.8c1.4,0.9,2.4-2,0.6-3
							C74,39.1,61.9,36.8,60.3,36.5z"/>
						<ellipse class="st10" cx="66" cy="36.1" rx="1.9" ry="1.8"/>
						<ellipse class="st10" cx="68.6" cy="36.7" rx="1.9" ry="1.8"/>
						<path class="st0" d="M68.9,44c-0.1-0.1-0.2-0.2-0.4-0.2c-0.2,0-0.4,0-0.6,0.2l-3.1,3.4l-1.6-4.3c-0.1-0.2-0.2-0.4-0.4-0.4
							c-0.1,0-0.3,0-0.4,0C62.2,42.9,62,43,62,43.3c0,0.1,0,0.2,0,0.3l1.3,3.1l-1.3-0.3c-0.3-0.1-0.6,0.1-0.6,0.4
							c-0.1,0.3,0.1,0.5,0.4,0.6c0,0,0,0,0,0l0,0l2,0.4l0.3,0.6l-0.1,0.4l-2.4-0.4c-0.1,0-0.3,0-0.4,0c-0.1,0.1-0.2,0.2-0.2,0.4
							c-0.1,0.2,0.1,0.5,0.3,0.6c0,0,0,0,0,0h0.1l2.4,0.4l-0.4,1.9c0,0.2,0,0.3,0.1,0.5c0.1,0.1,0.3,0.2,0.4,0.2H64
							c0.1,0,0.3,0,0.4-0.1c0.1-0.1,0.2-0.2,0.3-0.4l0.4-1.9l2.4,0.4c0.3,0.1,0.5-0.1,0.6-0.4l0,0c0.1-0.2-0.1-0.5-0.3-0.6h-0.1
							l-2.4-0.4l0.1-0.4l0.5-0.5l2,0.4c0.3,0.1,0.5-0.1,0.6-0.4c0,0,0,0,0-0.1c0-0.1,0-0.3-0.1-0.4c-0.1-0.1-0.2-0.2-0.4-0.2
							l-1.4-0.3l2.4-2.4c0.1-0.1,0.1-0.2,0.2-0.3l0,0C69.1,44.4,69.1,44.2,68.9,44z"/>
						<path class="st4" d="M58,75.4c0,0,0.5-14.5,0.6-16.7C59,51,68.5,51.9,68,60c-0.4,8.2-1.1,17.3-1.1,17.3"/>
						<path class="st5" d="M57.7,63.9l11.7,1.8c0,0-1.5,10.8-3.1,18c-1.6,7.2-11,4.8-10.7-1C55.7,76.9,57.7,63.9,57.7,63.9z"/>
					</g>
				</g>
			</g>
		</g>
		<rect class="st11" width="156.3" height="71.5"/>
	</g>
	<g>
		<g>
			<g>
				<g>
					<path class="st0" d="M275.8,2.4h-33.4c-15.8,0-28.7,12.8-28.7,28.7v0c0,13,8.7,24,20.6,27.5c-0.7,2.5-1.3,5.1-2,7.6
						c0,0.1,0,0.3,0.1,0.3c0.1,0,0.2,0,0.3,0c3.8-2.3,7.6-4.5,11.4-6.8h31.6c15.8,0,28.7-12.8,28.7-28.7v0
						C304.5,15.2,291.7,2.4,275.8,2.4z"/>
				</g>
				<g>
					<path class="st1" d="M275.8,2.4h-33.4c-15.8,0-28.7,12.8-28.7,28.7v0c0,13,8.7,24,20.6,27.5c-0.7,2.5-1.3,5.1-2,7.6
						c0,0.1,0,0.3,0.1,0.3c0.1,0,0.2,0,0.3,0c3.8-2.3,7.6-4.5,11.4-6.8h31.6c15.8,0,28.7-12.8,28.7-28.7v0
						C304.5,15.2,291.7,2.4,275.8,2.4z"/>
				</g>
			</g>
			<g>
				<path class="st2" d="M248.2,27.4c-0.9-1.1-2-2.2-3.2-3.1c-0.9,1.1-2.4,2.2-4,3c-0.4-0.7-0.5-0.9-1-1.4c0.9-0.4,1.6-0.7,2.4-1.3
					c1.2-0.9,2.1-1.9,2.8-3.1c0.1-0.2,0.3-0.6,0.6-1.2l-3.1,0.1c-0.9,0-1.1,0-1.5,0.1l0-1.6c0.3,0.1,0.6,0.1,1.3,0.1h0.2l3.6-0.1
					c0.6,0,0.6,0,0.9-0.1l0.8,0.9c-0.1,0.1-0.2,0.3-0.4,0.6c-0.5,1.2-1,2.1-1.6,2.9c1.4,1,1.6,1.2,3.5,3L248.2,27.4z"/>
				<path class="st2" d="M252.6,20.5c-0.8,0-1.2,0-1.6,0.1v-1.6c0.4,0.1,0.8,0.1,1.7,0.1h5.8c0.4,0,0.6,0,0.8-0.1l0.9,1
					c-0.2,0.2-0.2,0.3-0.5,0.7c-1,1.7-2.1,2.9-3.4,4.1c0.5,0.6,0.8,0.9,1.3,1.7l-1.4,1.1c-0.6-1-1.2-1.7-2.1-2.7
					c-0.8-0.9-1.4-1.5-2.1-2.1l1.2-0.9c0.8,0.7,1.4,1.2,1.9,1.8c0.7-0.6,1.3-1.2,1.8-1.8c0.3-0.4,0.5-0.7,0.7-1
					c0.1-0.1,0.1-0.1,0.1-0.1L252.6,20.5z"/>
				<path class="st2" d="M264.4,22.2c0,0.1,0,0.2-0.2,0.8c-0.1,0.6-0.4,1.4-0.7,2.1c-0.3,0.6-0.5,1-0.9,1.7
					c-0.6-0.4-0.9-0.5-1.5-0.8c0.7-1,1.1-1.7,1.5-2.9c0.1-0.5,0.2-0.8,0.3-1.2L264.4,22.2z M265.2,19.3c0-0.5,0-0.9-0.1-1.2h1.7
					c0,0.4-0.1,0.7-0.1,1.2v0.4h2.2c0.9,0,1.1,0,1.6-0.1v1.6c-0.4-0.1-0.6-0.1-1.5-0.1h-2.2V26c0,0.6,0,1.1,0.1,1.5h-1.7
					c0-0.4,0.1-0.8,0.1-1.5v-4.9h-2.1c-0.9,0-1.1,0-1.5,0.1v-1.5c0.5,0.1,0.7,0.1,1.5,0.1h2.1V19.3z M269.2,21.8
					c0.1,0.4,0.2,0.6,0.4,1.2c0.5,1.3,0.9,2.1,1.4,2.9c-0.8,0.4-0.9,0.5-1.5,0.9c-0.8-1.4-1.2-2.3-1.7-4.2c0-0.1-0.1-0.2-0.1-0.3
					L269.2,21.8z"/>
				<path class="st2" d="M272.5,19.1c0.4,0.1,1.1,0.1,1.9,0.1h0.2h0.2h0.1c0.3-0.6,0.3-0.9,0.4-1.2l1.7,0.1
					c-0.1,0.1-0.1,0.1-0.4,0.9c0,0.1,0,0.1-0.1,0.2c0.2,0,0.2,0,0.7,0c1.3-0.1,2.1-0.2,2.7-0.4l0.1,1.4c-0.3,0-0.3,0-0.8,0.1
					c-0.8,0.1-2.2,0.2-3.2,0.2c-0.2,0.4-0.4,0.6-0.7,1.1c0.6-0.3,0.9-0.4,1.5-0.4c0.9,0,1.4,0.4,1.6,1.1c0.1,0,0.3-0.1,0.6-0.2
					c0.4-0.1,0.5-0.2,0.9-0.3c0.6-0.2,0.6-0.2,0.8-0.3l0.6,1.4c-0.3,0-0.7,0.1-1.2,0.3c-0.3,0.1-0.3,0.1-1.5,0.5l0,0.4v0.2v0.3v0.2
					c0,0.3,0,0.5,0,0.7l-1.5,0c0-0.2,0.1-0.7,0.1-1.2c0,0,0,0,0-0.1c-0.4,0.2-0.6,0.3-0.9,0.5c-0.3,0.2-0.5,0.5-0.5,0.8
					c0,0.5,0.5,0.7,1.6,0.7c1.3,0,2.4-0.2,3.3-0.5l0.1,1.6c-0.2,0-0.2,0-0.5,0.1c-0.9,0.1-1.8,0.2-2.7,0.2c-1.6,0-2.4-0.2-2.9-0.8
					c-0.3-0.3-0.4-0.7-0.4-1.2c0-0.7,0.4-1.3,1.2-1.9c0.4-0.3,0.8-0.5,1.6-0.8c-0.1-0.3-0.2-0.4-0.5-0.4c-0.6,0-1.3,0.4-2.1,1.1
					c-0.4,0.4-0.7,0.7-1,1l-1.2-1.1c0.6-0.4,1.5-1.5,2.1-2.5c0.1-0.2,0.1-0.2,0.2-0.3c-0.6,0-0.7,0-1,0c-0.2,0-0.4,0-0.4,0
					c-0.1,0-0.2,0-0.2,0h-0.1c0,0-0.1,0-0.2,0L272.5,19.1z"/>
				<path class="st2" d="M231.4,41.8c-0.5,0-0.8,0-1.2,0c0-0.3,0.1-0.7,0.1-1.3v-2.4c0-0.6,0-0.9-0.1-1.2c0.4,0,0.6,0,1.1,0h5.6
					c0.6,0,0.9,0,1.2,0c0,0.3,0,0.6,0,1.2v2.4c0,0.6,0,1,0,1.2c-0.3,0-0.7,0-1.1,0h-0.7c0.8,0.4,1.7,0.6,3,0.7
					c-0.3,0.4-0.4,0.6-0.6,1.2c-1-0.1-1.5-0.3-2.2-0.5c-0.7-0.2-1-0.4-1.6-0.8l0.7-0.6h-2.8l0.7,0.6c-0.5,0.4-0.9,0.6-1.6,0.8
					c-0.7,0.3-1.2,0.4-2,0.5c-0.2-0.4-0.4-0.7-0.7-1.2c1.3-0.2,2.2-0.4,2.8-0.8H231.4z M238.7,35.7c0,0.4,0,0.6,0,0.9
					c-0.2,0-0.5,0-1.1,0h-7c-0.5,0-0.9,0-1.1,0c0-0.3,0.1-0.5,0.1-0.9v-0.9c0-0.4,0-0.6-0.1-1c0.3,0,0.6,0,1.2,0h6.7
					c0.6,0,0.9,0,1.2,0c0,0.3,0,0.5,0,1V35.7z M232.2,35h-1.2v0.6h1.2V35z M231.6,38.3h5v-0.4h-5V38.3z M231.6,39.5h5v-0.4h-5V39.5z
					 M231.6,40.8h5v-0.4h-5V40.8z M234.7,35h-1.3v0.6h1.3V35z M237.3,35.5V35H236v0.6H237.3z"/>
				<path class="st2" d="M242.2,34.7c-0.1,0.4-0.1,1-0.1,1.8c0,2.5,0.4,4.4,0.9,4.4c0.1,0,0.3-0.1,0.4-0.4c0.3-0.6,0.4-1.2,0.6-1.9
					c0.4,0.5,0.6,0.7,1.3,1.2c-0.6,2.1-1.3,3-2.2,3c-0.8,0-1.4-0.6-1.9-1.7c-0.4-1.1-0.6-2.4-0.6-5.7c0-0.4,0-0.5,0-0.7L242.2,34.7z
					 M247.2,35.1c1.4,1.6,2.1,3.5,2.4,6l-1.6,0.6c0-1-0.3-2.2-0.6-3.2c-0.4-1-0.9-1.9-1.5-2.7L247.2,35.1z"/>
				<path class="st2" d="M257.7,41.1c0.6,0.7,1.4,1,2.9,1.2c-0.2,0.5-0.4,0.8-0.5,1.3c-0.8-0.2-1.4-0.4-2-0.7
					c-0.6-0.3-0.9-0.6-1.3-1.1c-0.6,0.9-1.7,1.5-3.2,1.8c-0.1-0.5-0.3-0.8-0.6-1.2c1.4-0.2,2.3-0.5,2.8-1.2h-1.4c-0.5,0-0.7,0-1,0
					v-1.2c0.2,0,0.3,0,0.5,0v-2.8c-0.1-0.1-0.1-0.2-0.3-0.3c-0.1,0-0.3,0-0.5,0h-0.2v1.4c0.2-0.1,0.3-0.1,0.6-0.2v1.2
					c-0.3,0.1-0.4,0.2-0.6,0.2v2.9c0,0.9-0.3,1.2-1.6,1.2c-0.2,0-0.3,0-0.6,0c0-0.5-0.1-0.8-0.3-1.3c0.4,0,0.6,0.1,0.9,0.1
					c0.2,0,0.3-0.1,0.3-0.3v-2c-0.2,0.1-0.3,0.1-0.5,0.1c-0.3,0.1-0.3,0.1-0.6,0.2l-0.1-1.4c0.3,0,0.5-0.1,1.2-0.2v-1.8h-0.3
					c-0.2,0-0.4,0-0.7,0v-1.3c0.3,0,0.5,0.1,0.7,0.1h0.3v-0.8c0-0.5,0-0.8-0.1-1.1h1.4c0,0.3-0.1,0.5-0.1,1.1v0.8h0.2
					c0.2,0,0.3,0,0.5,0v0.3c0.8-0.7,1.4-1.5,1.6-2.3l1.4,0.1c0,0.1-0.1,0.1-0.1,0.2c-0.1,0.2-0.1,0.2-0.1,0.3h1.3c0.4,0,0.5,0,0.8,0
					l0.7,0.7c-0.1,0.1-0.2,0.2-0.3,0.4c-0.1,0.2-0.4,0.5-0.6,0.8h0.8c0.5,0,0.7,0,0.9,0c0,0.3,0,0.6,0,1v3c0.3,0,0.4,0,0.5,0v1.3
					c-0.3,0-0.6-0.1-1-0.1H257.7z M256.1,40c0-0.3,0-0.4,0-0.7l1.3,0c0,0.3,0,0.4-0.1,0.7h1.3v-0.8c-0.3,0-0.5,0-0.6,0
					c-0.8,0-1.1-0.2-1.1-0.7v-1.4h-0.4c0,1.4-0.2,1.9-1,2.6c-0.3-0.3-0.4-0.4-0.7-0.6V40H256.1z M255.1,37.1v1.8
					c0.5-0.5,0.6-0.8,0.6-1.8H255.1z M256.8,36c0.2-0.2,0.4-0.4,0.5-0.7h-1.5c-0.2,0.3-0.3,0.5-0.5,0.7H256.8z M258.7,37.1h-0.7v0.8
					c0,0.2,0.1,0.3,0.4,0.3c0,0,0.1,0,0.2,0h0.1V37.1z"/>
				<path class="st2" d="M262.5,36.7c0.3,0,0.4,0,0.6,0c1.1,0,2.2-0.1,3.9-0.2c0.5-0.1,0.7-0.1,0.9-0.2l0.8,1.1
					c-0.2,0.1-0.3,0.2-0.9,0.8c-0.6,0.6-0.7,0.6-1.2,1.1c-0.1,0.1-0.1,0.1-0.2,0.2c-0.2,0.1-0.2,0.2-0.3,0.3
					c0.2-0.1,0.4-0.1,0.6-0.1c0.4,0,0.8,0.2,1,0.5c0.1,0.2,0.1,0.3,0.2,0.9c0.1,0.7,0.2,0.9,0.8,0.9c0.7,0,1.5-0.2,2.1-0.4l0.2,1.6
					c-0.2,0-0.4,0-1,0.1c-0.6,0.1-1.1,0.1-1.6,0.1c-0.9,0-1.4-0.2-1.7-0.7c-0.2-0.2-0.2-0.4-0.2-1.1c0-0.4-0.1-0.5-0.1-0.6
					c-0.1-0.1-0.2-0.2-0.4-0.2c-0.5,0-0.9,0.3-1.8,1.1c-0.5,0.5-1.1,1.1-1.4,1.6l-1.2-1.3c0.7-0.5,2-1.6,4-3.5
					c0.4-0.4,0.5-0.5,0.8-0.8c-0.5,0.1-1,0.1-2.4,0.3c-0.5,0-0.9,0.1-1.2,0.1L262.5,36.7z M263.8,33.9c1.3,0.4,2.7,0.5,4.4,0.6
					l-0.2,1.4c-2.3-0.1-3.2-0.2-4.6-0.6L263.8,33.9z"/>
				<path class="st2" d="M272.3,35.5c0.4,0.1,0.9,0.1,1.5,0.1c0.1,0,0.1,0,0.4,0c0.1-0.5,0.2-1.3,0.2-1.6v-0.2l1.7,0.1
					c-0.1,0.3-0.1,0.3-0.2,1c0,0.3-0.1,0.3-0.1,0.5c0.8-0.1,1.2-0.2,1.8-0.3l0.1,1.5c-0.2,0-0.2,0-0.6,0.1c-0.5,0.1-0.9,0.1-1.5,0.2
					c-0.2,0.9-0.3,1.6-0.6,2.6c-0.3,1.2-0.4,1.5-0.9,2.9c-0.1,0.3-0.2,0.5-0.2,0.7l-1.6-0.6c0.7-1.4,1.5-3.7,1.9-5.6h-0.3l-1.1,0
					c-0.1,0-0.1,0-0.2,0L272.3,35.5z M277.9,39.7c-0.4,0.6-0.5,0.8-0.5,1.2c0,0.5,0.5,0.7,1.5,0.7c0.7,0,1.8-0.2,2.4-0.4l0.1,1.6
					c-0.2,0-0.3,0-0.5,0.1c-0.9,0.1-1.4,0.2-2,0.2c-1,0-1.7-0.1-2.2-0.5c-0.5-0.3-0.8-0.8-0.8-1.4s0.2-1.1,0.8-1.9L277.9,39.7z
					 M280.9,38.5c-0.5-0.1-0.8-0.1-1.4-0.1c-1.1,0-1.8,0.1-2.9,0.3l-0.1-1.4c1.6-0.3,2.1-0.3,3.4-0.3c0.3,0,0.3,0,1,0L280.9,38.5z"
					/>
				<path class="st2" d="M284.8,34.7c-0.1,0.4-0.1,1-0.1,1.8c0,2.5,0.4,4.4,0.9,4.4c0.1,0,0.3-0.1,0.4-0.4c0.3-0.6,0.4-1.2,0.6-1.9
					c0.4,0.5,0.6,0.7,1.3,1.2c-0.6,2.1-1.3,3-2.2,3c-0.8,0-1.4-0.6-1.9-1.7c-0.4-1.1-0.6-2.4-0.6-5.7c0-0.4,0-0.5,0-0.7L284.8,34.7z
					 M289.7,35.1c1.4,1.6,2.1,3.5,2.4,6l-1.6,0.6c0-1-0.3-2.2-0.6-3.2c-0.4-1-0.9-1.9-1.5-2.7L289.7,35.1z"/>
			</g>
			<g>
				<defs>
					<rect id="SVGID_3_" x="165.3" width="67.3" height="71.5"/>
				</defs>
				<clipPath id="SVGID_4_">
					<use xlink:href="#SVGID_3_"  style="overflow:visible;"/>
				</clipPath>
				<g class="st12">
					<path class="st13" d="M219.3,58.1c-0.5-1-1.4-2.5-3-3.7c-1.5-1.1-3-1.4-4-1.6h-22.5c-2.9,0-6.9,2.4-7.2,5.5l-5.1,17.8h49.1
						C223.6,67.7,220.9,61.2,219.3,58.1z"/>
					<path class="st4" d="M214.6,26c0-9.5-6.8-17.2-15.3-17.2c-8.4,0-15.3,7.7-15.3,17.2c-0.1,4.9,1.9,9.6,5.3,13
						c4.8,5.5,4.5,10.7,4.5,10.7l5.5,0l5.5,0c0,0-0.3-5.2,4.5-10.7C212.8,35.6,214.7,30.9,214.6,26z"/>
					<ellipse class="st7" cx="193.2" cy="25.8" rx="1.5" ry="1.4"/>
					<ellipse class="st7" cx="205.8" cy="25.8" rx="1.5" ry="1.4"/>
					<ellipse class="st8" cx="199.3" cy="30.3" rx="1.1" ry="1.4"/>
					
						<ellipse transform="matrix(0.9683 -0.2497 0.2497 0.9683 -1.1857 46.5588)" class="st4" cx="182.9" cy="28" rx="4.5" ry="5.5"/>
					
						<ellipse transform="matrix(0.2497 -0.9683 0.9683 0.2497 134.8309 229.9344)" class="st4" cx="215.8" cy="28" rx="5.5" ry="4.5"/>
					<path class="st4" d="M204.8,49.7c-0.1-0.3,0-0.5-0.2-0.8c-0.9-1.4-4.4-0.7-5.3-0.5c-0.9-0.2-4.4-1-5.3,0.5
						c-0.1,0.2-0.1,0.4-0.2,0.8c-0.2,0.9-0.8,2-2.6,3.2c1.6,0.7,4.5,1.8,8.2,1.8c3.9,0,6.9-1,8.5-1.8
						C205.7,51.7,205,50.6,204.8,49.7z"/>
					<g>
						<g>
							<g>
								<path class="st14" d="M179.1,30.6c-4-3.1-4.8,0.6-3.7,7c0.5,2.9,2.5,13.2,2.5,13.2l5.4,0C183.2,50.8,181,32.1,179.1,30.6z"
									/>
								<path class="st13" d="M184.1,48.4l-8-1.3c0,0-2.2,7.6-5.7,23.9c-1.5,7.1,11.6,7.1,12.1,2.7
									C183.5,65.6,184.1,48.4,184.1,48.4z"/>
							</g>
							<g>
								<g>
									<g>
										<path class="st15" d="M175.8,20.7L175.8,20.7c-1.1,0.4-1.7,1.7-1.2,2.8l8,19.4c0.4,1.1,1.7,1.7,2.8,1.2l0,0
											c1.1-0.4,1.7-1.7,1.2-2.8l-8-19.4C178.2,20.8,177,20.2,175.8,20.7z"/>
									</g>
								</g>
							</g>
						</g>
						<path class="st4" d="M184,37.6c-0.8-0.4-1.8-0.1-2.2,0.8l-3.6,6.7l3,1.5l3.6-6.7C185.1,39,184.8,38,184,37.6z"/>
					</g>
					<path class="st6" d="M185,23.9c0,0,5.7-7.4,20.2-11.6c0,0-2.9,7.8,9.9,11.7c0,0,11.3-10.4-4.1-14.2c0,0,5-5.1-4.8-7.1
						C190.2-0.3,175,14,185,23.9z"/>
					<path class="st7" d="M199.4,35.9c1.8,0.1,3.1-1.2,3.1-1.8c0-0.6-1.3,0.7-3.1,0.7c-1.7-0.1-2.4-1.1-2.6-0.7
						C196.3,34.5,197.7,35.9,199.4,35.9z"/>
				</g>
			</g>
		</g>
		<rect x="158.6" class="st11" width="147.5" height="71.5"/>
	</g>
</g>
</svg>
