<?xml version="1.0" encoding="utf-8"?>
<!-- Generator: Adobe Illustrator 25.3.1, SVG Export Plug-In . SVG Version: 6.00 Build 0)  -->
<svg version="1.1" id="レイヤー_1" xmlns="http://www.w3.org/2000/svg" xmlns:xlink="http://www.w3.org/1999/xlink" x="0px"
	 y="0px" viewBox="0 0 428 200.9" style="enable-background:new 0 0 428 200.9;" xml:space="preserve">
<style type="text/css">
	.st0{fill:#FFFFFF;}
	.st1{fill:none;stroke:#E3E3E3;stroke-width:3.57;stroke-miterlimit:10;}
	.st2{fill:#313131;}
	.st3{clip-path:url(#SVGID_2_);}
	.st4{fill:#E8E8E8;}
	.st5{fill:#E87FAF;}
	.st6{fill:#1B1987;}
	.st7{fill:#35318F;}
	.st8{fill:#F4CAB3;}
	.st9{fill:#FF9FC6;}
	.st10{fill:#FFDBC2;}
	.st11{fill:#C6A55C;}
	.st12{fill:#1FC97C;}
	.st13{fill:none;}
	.st14{fill:#1190A5;}
	.st15{fill:#1DA9D0;}
</style>
<g>
	<path class="st0" d="M112.4,40.9H77.1c-31.1,0-56.3,25.2-56.3,56.3l0,0l0,0c0,31.1,25.2,56.3,56.3,56.3c0,0,0,0,0,0h13.8l27,11.1
		c0.2,0.1,0.4,0.1,0.5-0.1c0.2-0.1,0.3-0.4,0.2-0.6c-1.4-3.5-2.8-7-4.3-10.5c30.4-1,54.5-25.9,54.5-56.3l0,0
		C168.8,66.1,143.5,40.9,112.4,40.9L112.4,40.9z"/>
	<path class="st1" d="M112.4,40.9H77.1c-31.1,0-56.3,25.2-56.3,56.3l0,0l0,0c0,31.1,25.2,56.3,56.3,56.3c0,0,0,0,0,0h13.8l27,11.1
		c0.2,0.1,0.4,0.1,0.5-0.1c0.2-0.1,0.3-0.4,0.2-0.6c-1.4-3.5-2.8-7-4.3-10.5c30.4-1,54.5-25.9,54.5-56.3l0,0
		C168.8,66.1,143.5,40.9,112.4,40.9L112.4,40.9z"/>
	<path class="st2" d="M56.6,71.6c0-0.4,0-0.7,0-1.7c-0.3,0.5-0.6,0.9-1,1.3c-0.2-0.8-0.5-1.7-0.8-2.4c1.1-1.1,2-2.5,2.5-4
		c0.3-0.7,0.5-1.4,0.6-2.2l2.1,0.7c-0.1,0.2-0.1,0.3-0.3,0.9c-0.3,1-0.7,1.9-1.1,2.8v9c0,0.6,0,1.2,0.1,1.8h-2.2
		c0.1-0.6,0.1-1.2,0.1-1.9V71.6z M63.5,68.8h-1.7c-0.7,0-1.2,0-1.6,0c0-0.5,0.1-0.9,0.1-1.6v-2.4c0-0.6,0-1-0.1-1.5
		c0.6,0.1,1.2,0.1,1.8,0.1h5.3c0.6,0,1.2,0,1.8-0.1C69,63.9,69,64.4,69,65v2.3c0,0.5,0,1,0.1,1.6h-0.5h-1.1h-2V70h2.6
		c0.6,0,1.3,0,1.8-0.1V72c-0.6-0.1-1.3-0.1-1.8-0.1h-1.8c1,1.3,2.4,2.4,3.9,3.1c-0.4,0.7-0.8,1.4-1.1,2.1c-1.5-0.9-2.8-2.1-3.7-3.6
		c0,0.4,0.1,1.3,0.1,1.7v1.2c0,0.5,0,1,0.1,1.4h-2.2c0.1-0.5,0.1-0.9,0.1-1.4v-1.3c0,0,0-0.6,0-1.7c-0.5,0.9-1.1,1.7-1.9,2.3
		c-0.5,0.5-1,0.9-1.6,1.3c-0.3-0.7-0.7-1.4-1.3-1.9c0.9-0.5,1.7-1.1,2.5-1.8c0.5-0.4,1-1,1.3-1.5H61c-0.6,0-1.3,0-1.8,0.1v-2.1
		c0.5,0,1,0.1,1.8,0.1h2.4V68.8z M62.3,67H67v-1.7h-4.7V67z"/>
	<path class="st2" d="M71.8,65.4c0.4,0.1,0.9,0.1,1.3,0.1h2.8c0.4,0,0.9,0,1.3-0.1v1.9c-0.4-0.1-0.8-0.1-1.2-0.1h-2.8
		c-0.4,0-0.9,0-1.3,0.1V65.4z M86,73.8c-0.7,0.7-1.5,1.3-2.3,1.9c1.1,0.2,2.2,0.3,3.3,0.3c-0.3,0.6-0.5,1.2-0.7,1.8
		c-1.6-0.1-3.1-0.5-4.6-1.1c-1.4,0.5-2.9,0.9-4.4,1.1c-0.1-0.3-0.2-0.6-0.3-0.8c-0.3,0-0.5,0-0.9,0h-2v0.7h-1.8
		c0-0.5,0.1-1.1,0.1-1.5v-2.5c0-0.4,0-0.8-0.1-1.2c0.4,0,0.6,0.1,1.1,0.1H76c0.3,0,0.7,0,1-0.1c0,0.4,0,0.7,0,1.1v2.7
		c0.9,0,1.9-0.2,2.8-0.4c-0.5-0.3-0.9-0.6-1.3-0.9l1.4-0.5h-0.9c-0.4,0-0.9,0-1.3,0.1v-1.5c0.4,0,0.9,0,1.3,0h5c0.4,0,0.8,0,1.2-0.1
		L86,73.8z M83.5,71.2h2.1c0.3,0,0.7,0,1.1,0v1.4c-0.4-0.1-0.9-0.1-1.3-0.1h-6.4c-0.5,0-0.7,0-1.1,0c0-0.4,0-0.6,0-1.1v-0.8
		c0-0.2,0-0.5,0.1-0.7c0-0.1,0-0.1,0-0.4c-0.2,0.2-0.3,0.3-0.5,0.6c-0.2-0.2-0.4-0.5-0.6-0.7v0.1c-0.3,0-0.6,0-0.9,0h-2.5
		c-0.3,0-0.7,0-1,0v-1.7c0.3,0,0.7,0,1,0h2.5c0.3,0,0.6,0,0.9,0v0.4c0.8-0.8,1.3-1.8,1.7-2.8l0.5,0.1v-0.4h-0.5
		c-0.4,0-0.8,0-1.2,0.1v-1.7c0.4,0.1,0.9,0.1,1.3,0.1H79c0-0.3,0-0.6-0.1-0.8h2c-0.1,0.3-0.1,0.6-0.1,0.8h2c0-0.3,0-0.6,0-0.8h2
		c-0.1,0.3-0.1,0.6-0.1,0.8h0.7c0.4,0,0.9,0,1.3-0.1v1.7c-0.4-0.1-0.9-0.1-1.3-0.1h-0.7c0,0.2,0,0.5,0.1,0.7H84
		c-0.1,0.2-0.2,0.2-0.3,0.4h1.7c0.4,0,0.8,0,1.2,0v1.3c-0.4,0-0.8,0-1.2,0h-2v0.5h1.7c0.3,0,0.7,0,1,0v1.1c-0.3,0-0.7,0-1,0h-1.7
		v0.5h1.7c0.3,0,0.7,0,1,0V71c-0.3,0-0.7,0-1,0h-1.7V71.2z M72.4,63.2c0.5,0.1,0.9,0.1,1.4,0.1h1.8c0.5,0,0.9,0,1.4-0.1v1.7
		c-0.5,0-0.9,0-1.4,0h-1.8c-0.5,0-0.9,0-1.4,0V63.2z M72.4,70.2c0.3,0,0.7,0,1,0h2.5c0.3,0,0.7,0,1,0v1.7c-0.3,0-0.7,0-1,0h-2.6
		c-0.3,0-0.7,0-1,0L72.4,70.2z M74,75.3h1.3V74H74V75.3z M81.7,67.7h-2.1v0.5h2.1L81.7,67.7z M81.7,69.2h-2.1v0.5h2.1L81.7,69.2z
		 M79.6,70.7v0.5h2.1v-0.5H79.6z M80.3,66c-0.1,0.1-0.1,0.2-0.1,0.3L80,66.4h1.7c0.2-0.3,0.3-0.5,0.4-0.8l0.7,0.1v-0.5h-2
		c0,0.2,0,0.5,0.1,0.7L80.3,66z M80.3,74.4c0.5,0.3,1,0.6,1.5,0.8c0.5-0.2,0.9-0.5,1.4-0.8H80.3z"/>
	<path class="st2" d="M90.7,69.1c-0.7,0-1.3,0-2,0.1v-2c0.7,0.1,1.3,0.1,2,0.1h3.5v-1.2h-2.3c-0.8,0-1.4,0-1.8,0.1v-2
		c0.6,0.1,1.3,0.1,1.9,0.1h2.2v-0.2c0-0.5,0-0.9-0.1-1.4h2.3c-0.1,0.4-0.1,0.9-0.1,1.4v0.2h1c0.6,0,1.2,0,1.8-0.1v1.3
		c0.7-0.7,1.2-1.5,1.7-2.3l1.9,1.2c-0.2,0.2-0.3,0.3-0.7,0.8c-0.6,0.7-1.2,1.4-1.9,2h1.3c0.6,0,1.2,0,1.9-0.1v2
		c-0.7-0.1-1.4-0.1-2.1-0.1h-3.4c-0.5,0.4-1,0.6-1.4,0.9h3.5c0.8,0,1.3,0,1.7-0.1c-0.1,0.6-0.1,1.2-0.1,1.8v4.1c0,0.6,0,1.3,0.1,1.9
		h-2.2V77h-5.5v0.7h-2.2c0.1-0.6,0.1-1.3,0.1-1.9v-3.1c-0.7,0.4-1.5,0.7-2.2,1c-0.3-0.7-0.6-1.3-1.1-1.9c2.2-0.6,4.3-1.5,6.2-2.7
		L90.7,69.1z M93.8,72.6h5.5v-0.9h-5.5V72.6z M93.8,75.3h5.5v-1h-5.5V75.3z M97.3,67.2c0.4-0.3,0.9-0.7,1.3-1.1c-0.4,0-0.5,0-1,0
		h-1.2v1.1L97.3,67.2z"/>
	<path class="st2" d="M108.2,72.7c-0.9,0.5-1.9,0.9-2.8,1.3c-0.3-0.7-0.7-1.3-1.2-1.9c1.9-0.6,3.8-1.4,5.5-2.5
		c-0.6-0.7-1.3-1.3-2-1.8c-0.7,0.5-1.3,0.9-2.1,1.3c-0.3-0.6-0.7-1.2-1.3-1.6c1.3-0.6,2.6-1.4,3.7-2.4c0.8-0.7,1.5-1.6,2-2.5
		l2.3,0.5c-0.3,0.4-0.4,0.5-0.7,1h3.2c0.5,0,0.9,0,1.4-0.1l1.1,1.2c-0.2,0.3-0.2,0.3-0.6,0.8c-1.3,1.7-2.9,3.2-4.6,4.4h4.8
		c0.5,0,0.9,0,1.4,0c-0.1,0.5-0.1,1-0.1,1.6v4.2c0,0.6,0,1.1,0.1,1.7h-2.2v-0.8h-5.8v0.8h-2.2c0.1-0.6,0.1-1.1,0.1-1.7L108.2,72.7z
		 M109.9,66c-0.4,0.3-0.5,0.4-0.8,0.7c0.8,0.5,1.5,1.1,2.2,1.8c1-0.7,1.8-1.6,2.6-2.5H109.9z M110.2,75.1h5.9v-2.9h-5.9V75.1z"/>
	<path class="st2" d="M134.3,73.7c-0.1,0.1-0.2,0.2-0.3,0.3c-0.1,0.1-0.9,0.8-1.5,1.2c0.3,0.3,0.8,0.6,1.2,0.7
		c0.4,0,0.5-0.4,0.8-1.8c0.4,0.4,0.9,0.8,1.4,1.1c-0.5,1.9-1,2.6-2.1,2.6c-1.2-0.1-2.2-0.6-3-1.5c-1,0.6-2.1,1.1-3.3,1.4
		c-0.2-0.6-0.6-1.1-1-1.6c1.1-0.2,2.2-0.5,3.2-1c-0.4-0.6-0.7-1.3-0.9-2h-2.8v0.7c0.8,0,1.6-0.1,2.3-0.3v1.5
		c-1.6,0.2-1.6,0.2-2.3,0.3v1.1c0.1,0.5-0.1,0.9-0.4,1.2c-0.3,0.3-0.8,0.3-1.8,0.3c-0.4,0-0.6,0-1.4,0c-0.1-0.6-0.3-1.1-0.5-1.7
		c0.5,0.1,1.1,0.1,1.6,0.1c0.5,0,0.6,0,0.6-0.3v-0.6l-1.5,0.1l-0.7,0.1h-0.3c-0.1,0-0.2,0-0.3,0l-0.3-1.7c0.4,0,0.8,0,1.2,0
		c0.6,0,1,0,2-0.1v-0.8h-1.7c-0.6,0-1.1,0-1.7,0.1v-1.6c0.4,0.1,0.9,0.1,1.3,0.1h1.9v-0.4c-0.7,0.1-1.1,0.1-2.1,0.1
		c-0.1-0.4-0.4-0.9-0.7-1.2c1.9,0.1,3.8-0.1,5.6-0.6h-4.4c-0.6,0-1.1,0-1.7,0.1v-1.6c0.6,0.1,1.1,0.1,1.7,0.1h4.5v-0.6h-2.9
		c-0.5,0-1.1,0-1.6,0.1V66c0.5,0.1,1.1,0.1,1.6,0.1h2.9v-0.5h-3.8c-0.6,0-1.1,0-1.7,0.1v-1.5c0.6,0.1,1.1,0.1,1.7,0.1h1.7
		c-0.3-0.3-0.5-0.7-0.8-1l1.9-0.4c0.4,0.4,0.7,0.9,1.1,1.4h2.1c0.3-0.4,0.6-0.9,0.8-1.4l2.1,0.4c-0.2,0.4-0.5,0.7-0.8,1h1.8
		c0.6,0,1.1,0,1.7-0.1v1.6c-0.6,0-1.1-0.1-1.7-0.1h-4.1v0.5h3.2c0.5,0,1.1,0,1.6-0.1v1.4c-0.5-0.1-1.1-0.1-1.6-0.1h-3.2v0.6h4.9
		c0.6,0,1.1,0,1.7-0.1v1.6c-0.6-0.1-1.1-0.1-1.7-0.1h-1.5c0.7,0.4,1.3,0.8,1.9,1.3l-1,0.8h0.7c0.6,0,1.1,0,1.7-0.1v1.6
		c-0.4,0-0.8-0.1-1.2-0.1H133L134.3,73.7z M132.7,71.4c-0.5-0.5-1.1-0.9-1.7-1.3l1.2-0.8h-5.1l1.2,1.1l-2.1,0.3v0.6h2.5
		c-0.1-0.3-0.1-0.7-0.1-1c0-0.2,0-0.5-0.1-0.7h2c0,0.1,0,0.2,0,0.3c0,0.5,0.1,1,0.1,1.4L132.7,71.4z M131.1,72.9
		c0.1,0.4,0.3,0.8,0.5,1.1c0.5-0.3,0.9-0.7,1.2-1.1L131.1,72.9z"/>
	<g>
		<defs>
			<rect id="SVGID_1_" x="7.8" width="416" height="200.9"/>
		</defs>
		<clipPath id="SVGID_2_">
			<use xlink:href="#SVGID_1_"  style="overflow:visible;"/>
		</clipPath>
		<g class="st3">
			<path class="st4" d="M388.8,144.8c2.3-3.8,6.3-11.2,8.6-15.8c0.5-0.9,0.2-2.1-0.8-2.6c-0.4-0.2-0.9-0.3-1.4-0.2l-16.5,4.3
				c-1,0.3-1.7,1.3-1.4,2.3c0.1,0.2,0.2,0.5,0.3,0.7l7.9,11.3c0.6,0.9,1.8,1.1,2.7,0.5C388.4,145.2,388.6,145,388.8,144.8z"/>
			<path class="st4" d="M363.6,125.3c-2.4-3.7-7.3-10.6-10.3-14.7c-0.6-0.9-1.8-1-2.7-0.4c-0.4,0.3-0.6,0.7-0.7,1.2l-3.4,16.8
				c-0.2,1,0.4,2,1.5,2.3c0.2,0,0.5,0.1,0.7,0l13.7-2.1c1-0.2,1.8-1.1,1.6-2.2C363.9,125.8,363.8,125.5,363.6,125.3z"/>
			<path class="st4" d="M341.9,130.6c6.3-8.4,19-9.1,27.1-7.4c9.4,2,19.5,8.6,22.7,18.3c1.1,3.6,1.4,7.3,0.7,11
				c-1.4,7.3-6.6,12.4-7.2,13c-2.6,2.5-3.4,2.2-4.2,3.6c-1,1.8,0.5,4,0.4,7.8c-0.2,12.2-3.8,22-6.4,26.3l-50.6-19.9
				c-1.5-6.9,7.7-23.6,9.4-25.1c1.4-1.3,3.5-2.6,4.5-5.3c0.3-0.9,0.5-1.9,0.5-2.9c-0.3-0.9-0.5-1.7-0.7-2.6
				C337,141.4,338.4,135.4,341.9,130.6z"/>
			<path class="st0" d="M366.3,148.2c0.4,1.1,0.6,2.2,0.4,3.4c-0.1,0.7-0.4,1.4-0.8,2.1c-1.1,1.4-2.8,2.3-4.6,2.6
				c-1.9,0.3-3.9,0.2-5.8-0.3c-1.3-0.3-2.5-0.7-3.7-1.3c-1.3-0.6-2.4-1.4-3.3-2.4c-0.9-1-1.4-2.3-1.6-3.6c-0.1-1.3,0.2-2.7,0.9-3.8
				c2-3.1,7.1-3.3,10.4-2.5C362,143,365.3,145.6,366.3,148.2z"/>
			<path class="st5" d="M356.6,146.8c0.2,0.9,0.5,1.7,0.9,2.5c0.3,0.6,0.6,1.2,1.1,1.7c0.4,0.3,0.8,0.6,1.2,0.8
				c1.6,0.7,3,0.1,3.1,0.3s-0.8,0.8-1.7,1c-0.5,0.1-1,0-1.5-0.1c-0.2,0-0.4-0.1-0.5-0.1l-0.4-0.1c-0.1,0-0.3-0.1-0.4-0.2
				c-1.2-0.5-2.2-1.5-2.8-2.7c-0.5,0.2-0.9,0.4-1.5,0.5c-0.7,0.2-1.4,0.2-2.1,0l-0.2-0.1l-0.4-0.2l-0.1-0.1l-0.3-0.2
				c-0.3-0.2-1.3-2.1-0.9-2.3s0.7,0.9,2.1,1.3c1.1,0.2,2.3,0.1,3.3-0.5l0,0C356.1,147.9,356.5,147.4,356.6,146.8z"/>
			<path class="st5" d="M360,146.6c0,0.1,0,0.1-0.4,0.3c-0.8,0.6-1.8,1-2.8,1.2c-0.1,0-0.3,0-0.4-0.1c-0.1-0.1-0.2-0.2-0.3-0.3
				c-0.5-0.7-0.8-1.5-0.9-2.3c-0.1-0.4-0.1-0.7-0.1-0.7C355.6,143.9,360.2,145.7,360,146.6z"/>
			<circle class="st6" cx="353.6" cy="139.1" r="1.7"/>
			<circle class="st6" cx="365.5" cy="142.7" r="1.7"/>
			<path class="st5" d="M353.8,149.3c0,1.1-0.1,2.2-0.1,3.3c1,0.2,1.3,0.9,2.3,0c0.4-0.4,1.4-1.3,1.4-2s-1.5-1.1-2.1-1.3
				C354.8,149.2,354.3,149.2,353.8,149.3z"/>
			<path class="st0" d="M378.3,126.7c-1,1.6-2,3.2-2.8,4.9c-0.9,1.7-1.6,3.5-2.3,5.3l-0.8-0.5l-0.8-0.5c0.7-1.6,1.4-3.3,2.3-5.1
				s1.8-3.5,2.7-5c0.1,0,0.3,0.1,0.4,0.2l0.4,0.2C377.8,126.4,378,126.6,378.3,126.7z"/>
			<path class="st0" d="M372.4,124.3c-0.9,1.4-1.8,3-2.7,4.8c-0.9,1.8-1.8,3.7-2.4,5.4l-0.8-0.5l-0.8-0.4c0.6-1.7,1.4-3.5,2.2-5.1
				c0.8-1.6,1.7-3.2,2.7-4.7c0.1,0,0.3,0.1,0.4,0.1c0.2,0,0.3,0.1,0.5,0.1C371.9,124,372.2,124.1,372.4,124.3z"/>
			<path class="st0" d="M367.1,122.9c-1,1.4-1.9,2.8-2.7,4.3c-0.8,1.5-1.4,3.1-1.9,4.7l-0.8-0.5l-0.8-0.4c0.5-1.5,1.1-3,1.9-4.4
				c0.7-1.4,1.5-2.7,2.3-4c0.1,0,0.3,0,0.4,0c0.2,0,0.3,0,0.5,0C366.4,122.7,366.7,122.8,367.1,122.9z"/>
			<path class="st0" d="M381.1,152.2c1.6,1,3.2,1.8,4.8,2.6c1.6,0.8,3.3,1.4,5,2c-0.1,0.4-0.2,0.8-0.4,1.2c-0.1,0.3-0.3,0.6-0.5,0.8
				c-1.5-0.6-3.1-1.4-4.8-2.2s-3.4-1.8-4.9-2.7c0.1-0.3,0.2-0.5,0.3-0.8S380.9,152.5,381.1,152.2z"/>
			<path class="st0" d="M379.6,157.4c1.2,0.8,2.5,1.5,3.9,2.3c1.6,0.8,3.1,1.6,4.5,2.2c-0.1,0.3-0.2,0.5-0.4,0.7
				c-0.2,0.3-0.4,0.6-0.6,0.8c-1.3-0.6-2.7-1.3-4.2-2.1c-1.4-0.8-2.8-1.5-4-2.3C379,158.8,379.1,158.5,379.6,157.4z"/>
			<path class="st0" d="M339.8,134.2c0.9,0.6,1.9,1.2,3,1.8c1.1,0.6,2.2,1.1,3.3,1.6c-0.1,0.3-0.2,0.6-0.3,0.9l-0.2,0.7
				c-1.1-0.4-2.3-0.9-3.5-1.5s-2.2-1.1-3.1-1.7c0.1-0.3,0.2-0.5,0.3-0.8C339.4,134.8,339.6,134.5,339.8,134.2z"/>
			<path class="st0" d="M338.2,138.9c0.9,0.5,1.9,0.9,3,1.4s2,0.7,2.9,1l-0.3,0.7l-0.3,0.7c-2-0.4-3.9-1.1-5.7-2.1l0.1-0.7
				L338.2,138.9z"/>
			<path class="st4" d="M387.8,199.8c0.3,23.1-9.4,33.6-10.4,33.9l-1.3,0.4l-1,0.3c-3.5,1.2-7.1,2.1-10.8,2.8
				c-6.5,1.1-14,0.4-20.5-0.2c-5.1-0.4-10.1-1.1-15.1-2.3c-2.4-0.6-7.6-0.6-9-3.4c-1.9-3.9-0.6-15.2-0.5-19.9
				c0.1-3.8,0.5-7.6,1.2-11.3c1-5.6,3.3-10.6,4.7-15.9c3.4-12.8,17.4-20.7,26.2-22.4c4.7-0.9,9.2-0.4,13.8,0.2
				c1.6,0.2,3.9-0.2,5.3,0.7c0.4,0.2,0.7,0.5,1,0.8c2.2,2.1,2.6,3.7,3.5,4.4s3,0.9,8.2-2.2c-0.4,1.9-0.6,3.9-0.6,5.8
				c0,7.1,3,10.6,4.5,18.1C387.6,192.9,387.9,196.3,387.8,199.8z"/>
			<path class="st7" d="M159.7,36.2l37.1,9.1c-8.2,44.8-13.2,37.7-5.7,66.6c0,0-14.6-4-17.8-14.8c-0.1,1.9,0.9,8.3,5.4,14.8
				C158.5,99.7,139.6,76.6,159.7,36.2z"/>
			<path class="st7" d="M251.8,46.2l-24.3-1.9c-11.4,44.1-8.9,51.1-22.1,72.8c0,0,8.5-4.5,17-17.8c-0.7,1.7,3,4.6,1.4,13
				C236.3,105.6,253.1,92.6,251.8,46.2z"/>
			<path class="st8" d="M244.8,181.6c0.2-5.8,3-11.2,7.7-14.6l2.6-1.3c5.5-2.7,12.1-0.5,14.8,5l9.2,20.6c1.6,3.2,1.5,7-0.2,10.2
				l-33.3,7.3C245.4,199.8,245.1,190.7,244.8,181.6z"/>
			<path class="st7" d="M152.2,70.4c-2.2-25.8,5.9-58.4,31.8-59.2c1.8-12.7,27.4-10.5,37.2-6.6c42,17,36,67.9,11.7,88.1
				S182,80.2,182,80.2L152.2,70.4z"/>
			<path class="st9" d="M243.4,225.8c0.9-6.7,1.5-13.8,2-21.3c0.6-9.7,0.6-18.8,0.4-27.3c0,0,1.2-11.4-1.9-39.5
				c-0.3-2.4-1-7.8-4.9-11.7c-3.1-3.1-7.3-4.9-11.7-4.9l-10.5,5.9l-45.8-5.9c-4.4,0.1-8.6,1.8-11.7,4.9c-3.1,3.1-4.9,7.3-4.9,11.7
				l1.7,88.6L243.4,225.8z"/>
			<path class="st9" d="M165.6,120.5c-8.9,0-15.4,7.4-17.4,16.2c-6.2,17.7-12.5,35.4-18.7,53.1l2.9,15h27.1l21.1-68.1
				C180.7,127.8,174.6,120.5,165.6,120.5z"/>
			<path class="st10" d="M244.7,67.2c2-16.6-8.4-40.5-28.7-43.9c-21.4-3.6-39.9,17.9-41.9,34.2c-1.4,11.8,5.1,26.8,7.1,31.3
				c3.5,8,9.1,17.4,6,27.9c-0.3,1.2-0.8,2.3-1.3,3.5l14,1.4l14.6,2.2c-1.2-3.3-1.5-6.8-0.8-10.3c0.7-3.2,2.2-6.3,4.4-8.7
				c1.3-1.4,2.8-2.6,4.6-3.5C228.7,98.4,242.8,83,244.7,67.2z"/>
			<circle class="st6" cx="205.7" cy="70" r="3.3"/>
			<circle class="st6" cx="233.6" cy="74.7" r="3.3"/>
			
				<ellipse transform="matrix(0.2195 -0.9756 0.9756 0.2195 95.6794 278.4865)" class="st11" cx="221.9" cy="79.4" rx="3.3" ry="2.5"/>
			<path class="st6" d="M215.4,94.6c-3.5-1.2-4.8-5.3-5-6.1c-0.3-1.6,5,0.3,8.6,0.6c3.8,0.3,3.9,0.6,3.3,1.8
				C221.5,92.2,218.2,95.5,215.4,94.6z"/>
			
				<ellipse transform="matrix(0.9957 -9.254437e-02 9.254437e-02 0.9957 -5.2443 16.2093)" class="st10" cx="172.2" cy="64.7" rx="10.2" ry="12.6"/>
			<path class="st10" d="M213,115.7c0.5-5.8-10.1-4.5-12.6-4.2c-4.4-1.4-9.9-2.5-12.1,0.1c-0.6,0.7-0.4,1-0.9,2.1
				c0,0-1.6,3.6-14.3,8.1l0,0l27.4,4.6l14.6,1l14-5.6C229.2,121.8,212.4,122.2,213,115.7z"/>
			<path class="st10" d="M317.5,211.5l2.6,1.3c5.5,2.7,12.1,0.5,14.8-5l9.2-20.6c2.7-5.5,0.5-12.1-5-14.8l-2.6-1.3
				c-5.5-2.7-12.1-0.5-14.8,5l-9.2,20.6C309.8,202.2,312,208.8,317.5,211.5z"/>
			
				<ellipse transform="matrix(0.9543 -0.2989 0.2989 0.9543 -15.6892 84.8636)" class="st10" cx="269.6" cy="93.7" rx="10" ry="12.4"/>
			<path class="st7" d="M317.9,42.6c0,0,21.2-10.7,23.1,22c2.1,35.4-25.9,52.6-25.9,52.6L317.9,42.6z"/>
			<path class="st10" d="M331.9,81.3C330.4,60,314,43.8,295.4,45.2s-32.6,19.6-31.1,40.9c0.6,11,5.6,21.2,13.9,28.4
				c11.4,11.6,11.3,17.4,11.3,17.4s-1.2,6.5-6.6,6.8c0,0,6.3,7.6,19.3,7.2s18.9-8.2,18.9-8.2c-5.5,0-7-6.5-7-6.5l-0.3-1.4
				c0-4.3,0.3-7.7,8.4-18.5C329.2,103.1,332.8,92.3,331.9,81.3z"/>
			<circle class="st6" cx="275.8" cy="92.5" r="3.2"/>
			<circle class="st6" cx="302.2" cy="89.2" r="3.2"/>
			
				<ellipse transform="matrix(0.9702 -0.2424 0.2424 0.9702 -15.3607 72.6026)" class="st11" cx="287.3" cy="98.7" rx="2.4" ry="3.2"/>
			<path class="st6" d="M291.7,113.9c-2.3,0.5-3.3-1.3-3.9-2.5c-0.9-1.6-0.8-4.7,0.6-5.5c3-1.6,4.5,2,4.9,3.8
				C293.5,111,294,113.4,291.7,113.9z"/>
			
				<ellipse transform="matrix(0.1621 -0.9868 0.9868 0.1621 191.4349 405.0023)" class="st10" cx="334.2" cy="89.8" rx="12.4" ry="10"/>
			<path class="st12" d="M347,185.8c0,0,1-18.9-0.6-34.1c-0.6-6.3-9.7-13.5-17.4-13.5h-58.3c-7.8,1.2-14.6,6.2-18.1,13.2l-6.4,22.8
				l15.1,0.3v32.4h55.5l7-26.6L347,185.8z"/>
			<path class="st7" d="M264.2,82.4c0,0,4.6-17,6.8-23.5c0,0,11.6,7.4,29.6,7.8l-5.7-11.1c0,0,28.7,11.6,33.2,29.5
				c0,0,9-11,3.5-29.9c0,0,6.9-12.6,1.3-20c-9-11.8-24.6-9.8-24.6-9.8s9.3,0,9.4,9.9c0,4.1-15.7-6.9-34.6-0.6S253.8,70.7,264.2,82.4
				z"/>
			<path class="st0" d="M253,150.7h93.6c-0.3-0.7-0.6-1.4-1-2.1H254C253.6,149.3,253.3,150,253,150.7z"/>
			<polygon class="st0" points="347.7,169.1 347.3,167.1 251.5,167.1 251.2,169.1 			"/>
			<polygon class="st0" points="319.6,193 319.4,190.9 261.1,190.9 260.9,193 			"/>
			<path class="st13" d="M347,185.8c0,0,1-18.9-0.6-34.1c-0.6-6.3-9.7-13.5-17.4-13.5h-58.3c-7.7,0-14.7,6.4-15.6,14.4l-3.5,21.9
				h9.3v32.4h55.9l7-26.6L347,185.8z"/>
			<path class="st10" d="M286.8,165.7c1.3-0.6,2,0.2,3.6,1.6l10.8,10.1l-8.7,3.7l-6.6-11.8c-0.8-1.2-0.4-2.8,0.7-3.5
				C286.7,165.8,286.8,165.7,286.8,165.7z"/>
			<path class="st10" d="M276.6,182.2c2.2-8.3,3.4-12.1,0.1-14.3l-5.1-3.4c-6.7-3.7-10.9,1.4-13.1,7.1c0,0-10.9,26.5-12.5,34
				s-0.6,13,3.1,15.4s13.6,4.9,17.7-4.9C269.5,209.7,274.4,190.4,276.6,182.2z"/>
			<path class="st7" d="M176.4,53.6c0,0,8.4,2.4,15.7-23.6c0,0,17.4,14.4,55.5,25.3c0,0,5.6-3.8-2.5-20
				c-14.6-29.2-56.4-32.9-49.9-9.1c0,0,0.7-3.5-4.9-2S162.1,43.6,176.4,53.6z"/>
			<path class="st14" d="M288.2,186l-28.2,5.3c-2.4,0.8-4.9-1.3-5.6-4.5L239.1,135c-1.1-3.9-0.7-7.6,3-8.3l26.9-5.1
				c4-0.8,7.2,0.1,8.5,5.5l14,51.6C292.1,182,290.6,185.2,288.2,186z"/>
			<ellipse transform="matrix(0.9433 -0.332 0.332 0.9433 -30.9777 90.6918)" class="st0" cx="249.9" cy="136" rx="3.5" ry="4.1"/>
			<path class="st10" d="M333,209.3L333,209.3c3.8-5.7,1.5-14-5.2-18.5l-37.7-19.6c-6.6-4.4-16.9-3.3-21,2.5
				c-3.3,4.7,0.5,12.3,7.1,16.7l37.8,21.3C320.6,216.1,329.2,215,333,209.3z"/>
			<path class="st10" d="M241.3,155.4c1.1,1.7,0.7,4-1,5.1L220.4,176l-4.1-6.1l19.9-15.5C237.8,153.3,240.1,153.7,241.3,155.4z"/>
			<path class="st10" d="M257.2,168.5c4.2,9.3-2.9,12.7-10.2,15.6l-55,12.2c-3.1-6.9-6.2-13.7-9.3-20.6l53.6-14.2
				C242.3,158.6,254.4,162.3,257.2,168.5z"/>
			<path class="st9" d="M195.8,169.2l10.7,27.5c0,0-10.5,3.2-63.9,13.5c-17,3.3-16.5-36.1-1.7-38.5
				C167.2,167.6,195.8,169.2,195.8,169.2z"/>
		</g>
	</g>
	<path class="st15" d="M109.3,86.9H81.8c-0.6,0-1,0.4-1,1v44.4c0,0.6,0.4,1,1,1h27.5c0.6,0,1-0.4,1-1V87.9
		C110.3,87.3,109.9,86.9,109.3,86.9C109.3,86.9,109.3,86.9,109.3,86.9z"/>
	<path class="st0" d="M98.2,129.8h-5.3c-0.6,0.1-1.1-0.4-1.2-1c-0.1-0.6,0.4-1.1,1-1.2c0.1,0,0.1,0,0.2,0h5.3c0.6-0.1,1.1,0.4,1.2,1
		c0.1,0.6-0.4,1.1-1,1.2C98.3,129.8,98.2,129.8,98.2,129.8z"/>
	<path class="st0" d="M85.5,91.1h20.1c0.6,0,1.1,0.5,1.1,1.1v30.6c0,0.6-0.5,1.1-1.1,1.1H85.5c-0.6,0-1.1-0.5-1.1-1.1V92.1
		C84.4,91.6,84.9,91.1,85.5,91.1z"/>
	<rect class="st13" width="428" height="200"/>
</g>
</svg>
