<?xml version="1.0" encoding="utf-8"?>
<!-- Generator: Adobe Illustrator 25.3.1, SVG Export Plug-In . SVG Version: 6.00 Build 0)  -->
<svg version="1.1" id="レイヤー_1" xmlns="http://www.w3.org/2000/svg" xmlns:xlink="http://www.w3.org/1999/xlink" x="0px"
	 y="0px" viewBox="0 0 428 200" style="enable-background:new 0 0 428 200;" xml:space="preserve">
<style type="text/css">
	.st0{fill:#F39800;}
	.st1{fill:#FFFFFF;}
	.st2{fill:none;stroke:#F39800;stroke-width:3.71;stroke-linecap:round;stroke-miterlimit:10;}
	.st3{fill:#1DA9D0;}
	.st4{fill:#313131;}
	.st5{fill:#E3E3E3;}
	.st6{fill:#1FC97C;}
	.st7{fill:none;}
</style>
<g>
	<path class="st0" d="M150.5,84.9h110.8c1.9,0,3.4,1.5,3.4,3.4v55.6c0,1.9-1.5,3.4-3.4,3.4H150.5c-1.9,0-3.4-1.5-3.4-3.4V88.3
		C147.1,86.4,148.6,84.9,150.5,84.9z"/>
	<path class="st0" d="M287.7,114.9c0.5,0.7,0.5,1.7,0,2.4l-19,25.4l-16.6,22.2c-0.6,0.8-1.8,1-2.6,0.4c-0.5-0.4-0.8-0.9-0.7-1.5
		V68.5c0-1,0.7-1.9,1.7-1.9c0.6,0,1.2,0.2,1.5,0.7l16.6,22.2L287.7,114.9z"/>
	<path class="st1" d="M173.6,124.3c-0.2-1.1-0.6-2.1-1-3.1l-2.6-6.9c-0.3-0.7-0.6-1.7-1-3.3c0.1,2.1,0.2,3,0.2,3.6v6.4
		c0,1.1,0,2.2,0.2,3.3h-3.7c0.1-1.1,0.2-2.2,0.2-3.3v-11.2c0-1.1,0-2.2-0.2-3.3h4.9c0.2,1,0.4,1.9,0.8,2.8l3.9,10.3l3.9-10.3
		c0.4-0.9,0.6-1.9,0.8-2.8h4.9c-0.1,1.1-0.2,2.2-0.2,3.3V121c0,1.1,0,2.2,0.2,3.3h-3.7c0.1-1.1,0.2-2.2,0.2-3.3v-6.5
		c0-0.5,0-1.4,0.2-3.5c-0.1,0.4-0.1,0.4-0.4,1.4c-0.1,0.4-0.5,1.6-0.6,1.9l-2.8,6.9c-0.4,1-0.7,2-0.9,3.1L173.6,124.3z"/>
	<path class="st1" d="M198.4,116.5c0.5,0.8,1,1.6,1.5,2.5c-0.1-0.8-0.1-1.9-0.1-2.8v-6.7c0-1.1,0-2.1-0.2-3.2h3.9
		c-0.1,1.1-0.2,2.1-0.2,3.2v11.6c0,1,0,2,0.2,3.1h-4.1c-0.4-0.9-0.9-1.8-1.5-2.6l-5.1-7.5c-0.5-0.8-1-1.6-1.4-2.5c0,0.3,0,0.3,0.1,1
		c0,0.4,0.1,1.3,0.1,1.7v6.5c0,1.1,0,2.3,0.2,3.4h-3.9c0.2-1.1,0.2-2.3,0.2-3.4v-11.5c0-1,0-2-0.2-3.1h4.1c0.4,0.9,0.8,1.8,1.4,2.5
		L198.4,116.5z"/>
	<path class="st1" d="M206.4,124.3c0.1-1,0.2-2,0.2-3v-11.9c0-1,0-2-0.2-3c1,0,1.7,0.1,3,0.1h4.7c1.8-0.1,3.6,0.5,4.9,1.7
		c1,1.1,1.5,2.5,1.4,4c0.1,1.6-0.5,3.1-1.6,4.3c-1.4,1.2-3.1,1.8-4.9,1.6h-3.9v3.3c0,1,0,2.1,0.2,3.1L206.4,124.3z M213.9,114.9
		c1.4,0.2,2.6-0.8,2.8-2.2c0-0.2,0-0.4,0-0.5c0-0.7-0.2-1.4-0.7-1.9c-0.6-0.5-1.4-0.8-2.1-0.7h-3.8v5.3L213.9,114.9z"/>
	<path class="st1" d="M228.7,124c0,0.7,0,1.3,0.1,2h-2.9c0.1-0.7,0.1-1.4,0.1-2.1v-1.1h-1.8c-0.8,0-1.5,0-2.3,0.1v-2.7
		c0.7,0.1,1.4,0.1,2.1,0.1h1.9v-1.1h-1c-1,0-1.5,0-2.3,0.1c0.1-0.8,0.1-1.6,0.1-2.7v-3.9c0-0.8,0-1.6-0.1-2.4
		c0.8,0.1,1.5,0.1,2.3,0.1h1v-1h-1.7c-0.7,0-1.4,0-2.1,0.1v-2.6c0.8,0.1,1.5,0.1,2.3,0.1h1.6v-0.2c0-0.6,0-1.2-0.1-1.8h2.9
		c-0.1,0.6-0.1,1.2-0.1,1.8v0.2h1.4c0.7,0,1.5,0,2.2-0.1v2.6c-0.7-0.1-1.4-0.1-2.1-0.1h-1.5v1h1.4c0.6,0,1.2,0,1.8-0.1
		c0,0.4-0.1,0.9-0.1,2.2v4.2c0,1.4,0,2,0.1,2.5c-0.6,0-1.3,0-1.9,0h-1.3v1.1h1.6c0.6,0,1.2,0,1.8-0.1v2.2l0.9-0.1
		c0.7-2.4,1.2-4.9,1.6-7.4c-0.7,0-1.5,0-2.2,0.1v-2.9c0.8,0.1,1.5,0.1,2.3,0.1h5.7c0.8,0,1.5,0,2.3-0.1v2.8
		c-0.8-0.1-1.5-0.1-2.3-0.1h-2.9c-0.1,0.3-0.1,0.3-0.4,2s-0.7,3.3-1.2,5.1c1.5-0.2,1.8-0.2,3.3-0.5c-0.6-1.7-0.9-2.5-1.6-4.1l2.4-1
		c1.2,2.6,2.2,5.3,2.9,8.1l-2.6,1.3c-0.2-1-0.3-1.1-0.5-2c-1.8,0.5-3.7,0.8-5.5,1.1c-1.6,0.3-1.9,0.3-2.5,0.5l-0.4-2.7
		c-0.4,0-0.8,0-1.4,0h-1.4L228.7,124z M225.1,112.7v1.1h1.2v-1.1H225.1z M225.1,115.9v1.1h1.2v-1.1L225.1,115.9z M229.6,113.9v-1.1
		h-1.1v1.1H229.6z M229.6,117v-1.1h-1.1v1.1L229.6,117z M233.1,106.4c0.7,0.1,1.5,0.1,2.2,0.1h4.4c0.7,0,1.5,0,2.2-0.1v2.8
		c-0.2,0-0.4,0-0.5,0c-0.3,0-1-0.1-1.7-0.1h-4.4c-0.7,0-1.5,0-2.2,0.1V106.4z"/>
	<path class="st1" d="M253.2,107.5c0-0.8,0-1.5-0.1-2.3h3.3c-0.1,0.8-0.1,1.5-0.1,2.3v4.6h4.3v-3.4c0-0.6,0-1.2-0.1-1.8h3.2
		c-0.1,0.7-0.1,1.3-0.1,2v4.5c0,0.5,0,1,0.1,1.6c-0.6-0.1-1.1-0.1-1.7-0.1h-5.6v7h5v-3.5c0-0.6,0-1.3-0.1-1.9h3.2
		c-0.1,0.7-0.1,1.5-0.1,2.2v4.7c0,0.8,0,1.6,0.1,2.4h-3.1v-1.1h-12.8v1.1h-3.1c0.1-0.8,0.1-1.6,0.1-2.4v-4.7c0-0.7,0-1.5-0.1-2.2
		h3.1c-0.1,0.6-0.1,1.3-0.1,1.9v3.4h4.7v-7h-5.2c-0.6,0-1.2,0-1.7,0.1c0.1-0.5,0.1-1,0.1-1.6V109c0-0.7,0-1.4-0.1-2.1h3.2
		c-0.1,0.6-0.1,1.2-0.1,1.8v3.4h3.9L253.2,107.5z"/>
	<path class="st0" d="M165.3,16.9c-1,0-1.5,0-2.2,0.1v-2.2c0.8,0.1,1.6,0.1,2.4,0.1h11c0.8,0,1.6,0,2.4-0.1v2.2
		c-0.7,0-1.2-0.1-2.2-0.1h-4.6v0.6h5.3c0.9,0,1.8,0,2.7-0.1c-0.1,0.6-0.1,1.2-0.1,1.8v1.3c0,0.6,0,1.1,0.1,1.7h-2.5v-2.8h-5.5v1.9
		c0,0.6,0,1.3,0.1,1.9h-2.8c0.1-0.6,0.1-1.3,0.1-1.9v-1.9h-5.2v2.8h-2.5c0.1-0.6,0.1-1.1,0.1-1.7v-1.3c0-0.6,0-1.2-0.1-1.8
		c0.9,0.1,1.8,0.1,2.7,0.1h5v-0.6H165.3z M178.6,29.4c0.7,0.3,1.4,0.5,2.1,0.6c0,0.7-0.1,1.3-0.3,1.9c-0.5,1.3-1.3,1.5-6,1.5
		c-4.1,0-4.7-0.2-4.7-1.7v-1.3H166v0.9h-2.7c0.1-0.7,0.1-1.4,0.1-2.2v-3.6c0-0.7,0-1.4-0.1-2c0.7,0.1,1.3,0.1,2,0.1h11.1
		c0.7,0,1.4,0,2.1-0.1c-0.1,0.7-0.1,1.4-0.1,2L178.6,29.4L178.6,29.4z M165.1,19.9c0.3,0,0.7,0.1,1,0h1.8c0.4,0,0.7,0,1,0v1.3
		c-0.3,0-0.7,0-1,0h-1.8c-0.4,0-0.7,0-1,0V19.9z M165.1,21.7c0.3,0,0.7,0,1,0h1.8c0.5,0,0.7,0,1,0v1.3c-0.3,0-0.7,0-1,0h-1.8
		c-0.3,0-0.7,0-1,0V21.7z M166.1,25.4v0.8h3.5v-0.8H166.1z M166.1,27.8v0.9h3.5v-0.9L166.1,27.8z M172.1,26.2h3.9v-0.8h-3.8
		L172.1,26.2z M172.1,28.7h3.9v-0.9h-3.8L172.1,28.7z M172.1,31c0,0.2,0.1,0.3,0.4,0.4c0.8,0.1,1.6,0.1,2.5,0.1
		c0.9,0.1,1.8,0,2.6-0.2c0.2-0.1,0.3-0.3,0.4-0.7h-5.8V31z M172.9,19.8c0.3,0,0.7,0,1,0h2c0.5,0,0.7,0,1,0v1.3h-0.1
		c-0.3,0-0.6,0-0.9,0h-2c-0.3,0-0.7,0-1,0L172.9,19.8z M172.9,21.7c0.3,0,0.7,0,1,0h2c0.4,0,0.8,0,1,0V23c-0.3,0-0.7,0-1,0h-2
		c-0.3,0-0.7,0-1,0V21.7z"/>
	<path class="st0" d="M182.3,17.8c0.6,0.1,1.1,0.1,1.7,0.1h4.3c0.6,0,1.1,0,1.7-0.1v2.4c-0.5-0.1-1.1-0.1-1.6-0.1h-4.3
		c-0.6,0-1.1,0-1.7,0.1V17.8z M185.4,33.6h-2.5c0.1-0.6,0.1-1.3,0.1-1.9v-3.3c0-0.5,0-1.1-0.1-1.6c0.5,0.1,1,0.1,1.6,0.1h3.8
		c0.4,0,0.9,0,1.3-0.1c0,0.5,0,0.9,0,1.4v3.6c0,0.5,0,1,0.1,1.6h-2.4v-0.6h-1.9V33.6z M182.9,14.9c0.6,0.1,1.2,0.1,1.8,0.1h3
		c0.6,0,1.2,0,1.8-0.1v2.2c-0.5,0-0.9-0.1-1.8-0.1h-3c-0.8,0-1.3,0-1.8,0.1V14.9z M182.9,20.9c0.4,0.1,0.9,0.1,1.3,0.1h4
		c0.4,0,0.8,0,1.3-0.1v2.2c-0.4,0-0.8-0.1-1.3-0.1h-4c-0.4,0-0.9,0-1.3,0.1V20.9z M182.9,23.8c0.4,0.1,0.9,0.1,1.3,0.1h4
		c0.4,0,0.8,0,1.3-0.1V26c-0.4-0.1-0.9-0.1-1.3-0.1h-4c-0.4,0-0.8,0-1.2,0.1L182.9,23.8z M185.3,30.6h1.9v-1.8h-1.9V30.6z
		 M194.1,18.1c-1.3,0.2-1.6,0.2-3.4,0.4c-0.2-0.8-0.5-1.6-0.9-2.4c3.8-0.1,7.9-0.9,9.6-1.8l1.5,2.4l-0.6,0.2
		c-0.9,0.3-2.5,0.6-3.6,0.8v2.6h2.1c0.8,0,1.6,0,2.4-0.1v2.6c-0.8-0.1-1.6-0.1-2.4-0.1h-2.1V25h2.2c0.5,0,1,0,1.5-0.1
		c0,0.4-0.1,1-0.1,1.7v4.7c0,0.8,0,1.7,0.1,2.3h-2.7v-0.9h-4.5v0.9h-2.7c0.1-0.7,0.1-1.4,0.1-2.2v-5c0-0.6,0-1-0.1-1.6
		c0.4,0,0.9,0.1,1.5,0.1h2v-2.3h-1.6c-0.8,0-1.6,0-2.3,0.1v-2.7c0.8,0.1,1.6,0.1,2.4,0.1h1.6L194.1,18.1z M193.2,30.3h4.5v-3h-4.5
		V30.3z"/>
	<path class="st0" d="M214.9,19.5c0.5-0.7,0.8-1.5,1.1-2.4l2.7,0.4c-0.1,0.3-0.3,0.5-0.3,0.6s-0.3,0.5-0.3,0.5
		c-0.1,0.3-0.3,0.6-0.5,0.8h1.4c0.8,0,1.6,0,2.4-0.1v2.5c-0.8-0.1-1.6-0.1-2.4-0.1h-2.9c1.7,1.5,3.7,2.5,5.9,3.1
		c-0.6,0.7-1,1.6-1.4,2.5c-0.6-0.3-0.8-0.4-1.5-0.8v4.9c0,0.8,0,1.5,0.1,2.3h-2.6v-0.9h-8.8v0.9h-2.7c0.1-0.8,0.1-1.5,0.1-2.3v-4.9
		c-0.5,0.3-0.7,0.4-1.4,0.8c-0.3-0.9-0.8-1.7-1.4-2.4c2.1-0.6,4-1.8,5.6-3.2h-2.8c-0.8,0-1.6,0-2.3,0.1v-2.5
		c0.8,0.1,1.6,0.1,2.3,0.1h1.4c0-0.1-0.1-0.1-0.1-0.2c-0.1-0.2-0.2-0.4-0.2-0.4c-0.1-0.2-0.2-0.4-0.3-0.6l2.4-0.6
		c0.2,0.4,0.6,1.2,0.9,1.9h1.6v-2c-2.2,0.1-4.2,0.2-6.2,0.2c-0.2-0.8-0.6-1.5-1-2.2c0.9,0,1.4,0,1.8,0c2.6,0,4.2-0.1,7.6-0.4
		c1.8-0.1,3.7-0.4,5.5-0.8l1.9,2.2c-0.2,0-0.5,0.1-0.7,0.1l-0.6,0.1c-1,0.1-2.9,0.3-5.7,0.6v2.2L214.9,19.5z M207.8,27.5h3v-1.1h-3
		V27.5z M207.8,30.6h3v-1.1h-3V30.6z M210.8,22.5c0-0.2,0-0.5,0-0.7c-0.7,0.9-1.5,1.7-2.3,2.5h2.3L210.8,22.5z M215.8,24.3
		c-0.9-0.7-1.8-1.6-2.5-2.5c0,0.2,0,0.2,0,0.3c0,0.1,0,0.2,0,0.3v1.9H215.8z M213.4,27.5h3.2v-1.1h-3.2V27.5z M213.4,30.6h3.2v-1.1
		h-3.2V30.6z"/>
	<path class="st0" d="M225.9,24.5c-0.8,0-1.7,0-2.5,0.1V22c0.8,0.1,1.7,0.1,2.6,0.1h13.9c0.9,0,1.7,0,2.6-0.1v2.6
		c-0.9-0.1-1.7-0.1-2.6-0.1h-9.1c-0.2,0.5-0.3,0.8-0.5,1.2h7.8c0.7,0,1.3,0,2-0.1c0,0.3,0,0.4-0.1,1.2c-0.3,2.8-0.7,4.5-1.2,5.3
		c-0.3,0.5-0.8,0.8-1.4,1c-0.9,0.2-1.8,0.3-2.8,0.3c-1.2,0-1.8,0-2.9-0.1c-0.1-0.2-0.1-0.3-0.2-0.8c-0.1-0.6-0.3-1.2-0.6-1.8
		c1.5,0.2,2.9,0.2,3.8,0.2c1,0,1.4-0.1,1.7-0.4c0.4-0.8,0.6-1.7,0.6-2.6H229c-0.3,0.5-0.4,0.7-0.9,1.5l-2.9-0.5
		c1-1.4,1.9-2.8,2.6-4.4L225.9,24.5z M225.9,16.7c0-0.6,0-1.2-0.1-1.8c0.6,0.1,1.3,0.1,2.3,0.1h9.5c0.8,0,1.6,0,2.4-0.1
		c-0.1,0.6-0.1,1.2-0.1,1.8v2.6c0,0.6,0,1.2,0.1,1.8c-0.7,0-1-0.1-2.1-0.1h-9.9c-1.1,0-1.4,0-2.1,0.1c0.1-0.6,0.1-1.2,0.1-1.8
		L225.9,16.7z M228.5,17.3V19h8.6v-1.7H228.5z"/>
	<path class="st0" d="M249.3,15.6c-0.7,2-1.1,4.1-1.3,6.3c-0.2,1.3-0.3,2.7-0.3,4c0,0.4,0,1.2,0,1.5c0.4-1.1,0.6-1.5,0.9-2.1
		l1.8,0.7c-1,1.9-1.7,4.1-1.9,6.3c0,0.1,0,0.3,0.1,0.7l-2.9,0.2c0-0.3,0-0.4-0.1-0.8c-0.4-2.2-0.5-4.5-0.6-6.7
		c0-1.9,0.1-3.7,0.4-5.5c0.1-0.6,0.1-0.6,0.5-2.8c0.1-0.6,0.2-1.2,0.3-1.8L249.3,15.6z M250.4,19.1c1.3,0.2,2.6,0.3,3.8,0.3
		c0.6,0,0.9,0,1.6,0c0-1.5,0-1.5,0-2.9c0-0.4,0-0.7-0.1-1.1h3c-0.1,1.2-0.2,2.5-0.1,3.8c1.1-0.1,2.2-0.3,3.3-0.7l0.1,2.8
		c-0.3,0-0.5,0.1-0.8,0.1c-0.7,0.2-1.5,0.3-2.6,0.4c0,1.7,0,2.1,0.2,4.8c1.1,0.5,2.2,1.1,3.1,1.8l0.6,0.4l-1.1,3
		c-0.8-0.8-1.7-1.5-2.6-2.1c0,0.1,0,0.2,0,0.4c0,1.8-1.6,3-4.3,3c-2.8,0-4.6-1.4-4.6-3.6s1.8-3.7,4.5-3.7c0.5,0,1,0.1,1.5,0.2
		c0-0.7-0.1-1.6-0.1-3.8c-0.6,0-1,0-1.4,0c-0.7,0-2.6-0.1-3.4-0.1h-0.6c0,0-0.1,0-0.1,0L250.4,19.1z M254.6,28.1
		c-1.1,0-1.8,0.5-1.8,1.2s0.6,1.1,1.6,1.1c1.2,0,1.7-0.5,1.7-1.5c0-0.1,0-0.3,0-0.4C255.7,28.3,255.2,28.1,254.6,28.1z"/>
	<path class="st0" d="M175.3,41.1c0.7,0.1,1.5,0.1,2.2,0.1c1.8,0,4.7-0.1,6.2-0.2c0.7,0,1.4-0.1,2.1-0.3l1.5,2
		c-0.5,0.3-0.9,0.7-1.3,1.1c-1.6,1.5-3.3,2.8-5.1,4.1c1.6-0.2,3.3-0.3,5-0.5l2.3-0.2l1.3-0.1c0.2,0,0.5-0.1,0.7-0.1l0.1,2.9h-0.6
		c-2-0.1-3.9,0.3-5.8,1c-1.6,0.7-2.6,1.8-2.6,2.8c0,1.2,1.3,1.8,3.8,1.8c0.7,0,1.5-0.1,2.2-0.2l0.1,3.1c-0.2,0-0.3,0-0.5,0h-1.5H185
		c-1,0-2-0.1-3.1-0.3c-2.3-0.5-3.7-2-3.7-4c0-1,0.3-1.9,0.9-2.6c0.4-0.5,1-1,1.6-1.3c-0.3,0.1-1.1,0.2-2.4,0.3s-1.2,0.2-1.9,0.3
		s-1.6,0.2-2.9,0.4c-0.3,0-0.6,0.1-1.1,0.2l-0.3-3c0.1,0,0.3,0,0.4,0c1.3,0,2.5-0.2,3.8-0.4c2.1-1.3,4-2.9,5.7-4.6
		c-1.1,0.1-1.6,0.2-5.2,0.4c-0.5,0-1,0.1-1.5,0.1L175.3,41.1z"/>
	<path class="st0" d="M201.5,52.7c-1.1,2.6-2.5,3.8-4.3,3.8c-2.6,0-4.4-2.5-4.4-6c0-2.3,0.8-4.4,2.3-6.1c1.9-2,4.5-3.1,7.2-3
		c5.2,0,8.4,3.1,8.4,7.9c0.2,3.5-1.9,6.7-5.2,7.9c-1.1,0.4-2.2,0.7-3.3,0.8c-0.3-1.1-0.8-2-1.5-2.9c1.4-0.1,2.8-0.4,4.1-1
		c1.8-1,2.9-3,2.8-5.1c0.1-1.7-0.8-3.3-2.2-4.3c-0.6-0.4-1.2-0.6-1.9-0.7C203.5,47.1,202.7,50,201.5,52.7z M198.3,45.2
		c-1.6,1.3-2.5,3.2-2.5,5.3c0,1.5,0.7,2.8,1.5,2.8c0.6,0,1.2-0.8,1.9-2.5c0.8-2.1,1.4-4.4,1.6-6.6C199.8,44.3,199,44.7,198.3,45.2
		L198.3,45.2z"/>
	<path class="st0" d="M229.3,57.6c-0.3-0.4-0.6-0.7-1-1c-1.1-1-2.4-1.8-3.7-2.4c0,0.1,0,0.2,0,0.3c0,2.4-1.6,3.5-4.9,3.5
		c-3.1,0-4.9-1.3-4.9-3.5s2.2-3.7,5.9-3.7c0.4,0,0.6,0,1,0v-1.7h-1.8c-1.3,0-2,0-3.9-0.1c-0.3,0-0.5,0-0.8,0v-2.6
		c1.6,0.2,3.2,0.4,4.8,0.3c0.4,0,1.1,0,1.7,0v-1.2v-0.5c-0.5,0-0.8,0-1.1,0c-0.8,0-2.5-0.1-5.2-0.2c-0.3,0-0.4,0-0.5,0
		c-0.1,0-0.2,0-0.3,0v-2.7c1.9,0.3,3.7,0.5,5.6,0.5h1.4c0-0.8,0-1.6-0.1-2.4h3.1c-0.1,0.8-0.2,1.5-0.2,2.3c2,0,4-0.3,5.9-0.8
		l0.1,2.7c-0.6,0-1.1,0.1-1.7,0.2c-1.6,0.2-2.9,0.3-4.3,0.4c0,0.8,0,1.3,0,1.7c1.8-0.1,3.6-0.3,5.4-0.7l0.1,2.7c-0.1,0-0.3,0-0.4,0
		c0,0-0.2,0-0.4,0l-1.4,0.2c-1,0.1-2.3,0.2-3.1,0.3c0,1.1,0.1,1.8,0.1,2.1c2,0.6,3.9,1.6,5.6,2.9c0.3,0.2,0.4,0.3,0.8,0.5
		L229.3,57.6z M220.3,53.4c-1.4,0-2.3,0.5-2.3,1.2s0.7,1,1.9,1c1.4,0,1.9-0.4,1.9-1.6c0-0.2,0-0.4,0-0.4
		C221.3,53.5,220.8,53.4,220.3,53.4L220.3,53.4z"/>
	<path class="st0" d="M249.8,57.6c-0.3-0.4-0.6-0.7-1-1c-1.1-1-2.4-1.8-3.7-2.4c0,0.1,0,0.2,0,0.3c0,2.4-1.6,3.5-4.9,3.5
		c-3.1,0-4.9-1.3-4.9-3.5s2.2-3.7,5.9-3.7c0.4,0,0.6,0,1,0v-1.7h-1.8c-1.3,0-2,0-3.9-0.1c-0.3,0-0.5,0-0.8,0v-2.6
		c1.6,0.2,3.2,0.4,4.8,0.3c0.4,0,1.2,0,1.7,0v-1.2v-0.5c-0.5,0-0.8,0-1.1,0c-0.8,0-2.5-0.1-5.2-0.2c-0.3,0-0.4,0-0.5,0
		c-0.1,0-0.2,0-0.3,0v-2.7c1.9,0.3,3.7,0.5,5.6,0.5h1.4c0-0.8,0-1.6-0.1-2.4h3.1c-0.1,0.8-0.2,1.5-0.2,2.3c2-0.1,4-0.3,5.9-0.8
		l0.1,2.7c-0.6,0-1.1,0.1-1.7,0.2c-1.6,0.2-2.9,0.3-4.3,0.4c0,0.8,0,1.3,0,1.7c1.8-0.1,3.6-0.3,5.4-0.7l0.1,2.7c-0.1,0-0.3,0-0.4,0
		c0,0-0.2,0-0.4,0l-1.5,0.2c-1,0.1-2.3,0.2-3.1,0.3c0,1.1,0.1,1.8,0.1,2.1c2,0.6,3.9,1.6,5.6,2.9c0.3,0.2,0.4,0.3,0.8,0.5
		L249.8,57.6z M240.8,53.4c-1.4,0-2.3,0.5-2.3,1.2s0.7,1,1.9,1c1.4,0,1.9-0.4,1.9-1.6c0-0.2,0-0.4,0-0.4
		C241.8,53.5,241.3,53.4,240.8,53.4L240.8,53.4z"/>
	<line class="st2" x1="284.5" y1="17.3" x2="263.5" y2="60.8"/>
	<line class="st2" x1="141.8" y1="17.3" x2="162.7" y2="60.8"/>
	<path class="st3" d="M116.1,5H20.4c-2,0-3.6,1.6-3.6,3.6v154.5c0,2,1.6,3.6,3.6,3.6h95.7c2,0,3.6-1.6,3.6-3.6V8.6
		C119.8,6.6,118.1,5,116.1,5z"/>
	<path class="st1" d="M77.5,154.4H59.1c-2,0.1-3.8-1.5-3.9-3.5c-0.1-2,1.5-3.8,3.5-3.9c0.1,0,0.3,0,0.4,0h18.4
		c2-0.1,3.8,1.5,3.9,3.5s-1.5,3.8-3.5,3.9C77.7,154.4,77.6,154.4,77.5,154.4z"/>
	<path class="st1" d="M33.4,19.7h69.9c2,0,3.7,1.6,3.7,3.7V130c0,2-1.6,3.7-3.7,3.7H33.4c-2,0-3.7-1.6-3.7-3.7V23.4
		C29.7,21.4,31.3,19.7,33.4,19.7z"/>
	<path class="st4" d="M31.1,194.4c-1.1,0-1.6,0-2.3,0c0.1-0.8,0.1-1.6,0.1-2.4v-9.3c0-0.8,0-1.5-0.1-2.3c0.9,0.1,1,0.1,2.3,0.1h4.2
		c2.7,0,4.3,1.2,4.3,3.4c0.1,0.9-0.3,1.8-1,2.4c-0.4,0.3-0.8,0.6-1.3,0.7c0.6,0.1,1.2,0.4,1.7,0.8c0.7,0.7,1.1,1.7,1.1,2.7
		c0,2.5-1.6,3.8-4.5,3.8L31.1,194.4z M34.9,186c0.9,0.1,1.7-0.5,1.8-1.4c0-0.1,0-0.2,0-0.3c0-1-0.6-1.6-1.8-1.6h-3.2v3.2H34.9z
		 M31.7,192h3.4c1.3,0,2-0.7,2-1.9s-0.8-1.8-2.1-1.8h-3.3L31.7,192z"/>
	<path class="st4" d="M44.8,180.5c-0.1,0.8-0.2,1.6-0.1,2.4v9.2c0,0.8,0,1.6,0.1,2.4h-3.1c0.1-0.8,0.2-1.6,0.1-2.4v-9.2
		c0-0.8,0-1.6-0.1-2.4H44.8z"/>
	<path class="st4" d="M54.8,189.1c-0.6,0-1.1,0-1.7,0.1v-2.6c0.7,0.1,1.4,0.1,2.1,0.1h1.1c0.7,0,1.4,0,2.1-0.1
		c-0.1,0.7-0.1,1.5-0.1,2.2v1.9c0,0.8,0,1.6,0.1,2.4c-0.8,0.6-1.8,1-2.8,1.2c-0.9,0.2-1.8,0.4-2.7,0.4c-1.9,0.1-3.8-0.6-5.1-2.1
		c-1.1-1.5-1.7-3.4-1.6-5.3c0-2.9,1.2-5.2,3.3-6.4c1.1-0.6,2.3-0.9,3.5-0.8c1.6-0.1,3.1,0.5,4.2,1.6c0.6,0.6,1,1.3,1.2,2.1l-2.9,0.7
		c-0.1-0.6-0.5-1.1-1-1.5c-0.6-0.3-1.2-0.5-1.8-0.5c-0.9,0-1.8,0.4-2.4,1c-0.9,1-1.3,2.4-1.2,3.8c-0.1,1.4,0.3,2.7,1.1,3.8
		c0.7,0.7,1.7,1.1,2.7,1c0.9,0,1.9-0.2,2.7-0.7v-2.4L54.8,189.1z"/>
	<path class="st4" d="M62.6,194.4c-1.1,0-1.7,0-2.3,0c0.1-0.8,0.2-1.6,0.1-2.4v-8.9c0-0.9,0-1.8-0.1-2.6h3.1
		c-0.1,0.9-0.2,1.7-0.1,2.6v8.8h4.6c0.8,0,1.7,0,2.5-0.1v2.8c-0.8-0.1-1.7-0.1-2.5-0.1L62.6,194.4z"/>
	<path class="st4" d="M82.1,182c1.4,1.5,2.1,3.4,2,5.4c0,4.4-2.6,7.3-6.6,7.3s-6.6-2.9-6.6-7.3s2.6-7.2,6.6-7.2
		C79.2,180.1,80.8,180.8,82.1,182z M81.1,187.4c0.1-1.4-0.4-2.7-1.3-3.8c-0.6-0.7-1.5-1-2.4-1c-2.3,0-3.7,1.8-3.7,4.7
		s1.4,4.8,3.7,4.8S81.1,190.4,81.1,187.4L81.1,187.4z"/>
	<path class="st4" d="M87.9,194.4c-1.1,0-1.6,0-2.3,0c0.1-0.8,0.2-1.6,0.1-2.4v-9.3c0-0.8,0-1.5-0.1-2.3c0.9,0.1,1,0.1,2.3,0.1h4.3
		c2.7,0,4.3,1.2,4.3,3.4c0.1,0.9-0.3,1.8-1,2.4c-0.4,0.3-0.8,0.6-1.3,0.7c0.6,0.1,1.2,0.4,1.7,0.8c0.7,0.7,1.1,1.7,1.1,2.7
		c0,2.5-1.6,3.8-4.6,3.8L87.9,194.4z M91.7,186c0.9,0.1,1.7-0.5,1.8-1.3c0-0.1,0-0.2,0-0.3c0-1-0.6-1.6-1.8-1.6h-3.2v3.2H91.7z
		 M88.5,192h3.4c1.3,0,2.1-0.7,2.1-1.9s-0.8-1.8-2.1-1.8h-3.4L88.5,192z"/>
	<path class="st4" d="M108.6,194.5c-0.8-0.1-1.6-0.1-2.4-0.1h-5.5c-1.2,0-1.6,0-2.3,0c0.1-0.8,0.1-1.6,0.1-2.4v-9.3
		c0-0.8,0-1.6-0.1-2.3c0.7,0,1.1,0.1,2.3,0.1h5.3c0.8,0,1.6,0,2.4-0.1v2.7c-0.8-0.1-1.6-0.1-2.4-0.1h-4.7v3h3.9c0.8,0,1.6,0,2.4-0.1
		v2.7c-0.8-0.1-1.6-0.1-2.4-0.1h-3.9v3.5h4.9c0.8,0,1.6,0,2.3-0.1L108.6,194.5z"/>
	<path class="st5" d="M88.2,88.8l-8.3-4.5C79,83.9,78,84,77.3,84.7l-3.9,3.8c-0.8,0.6-1.8,0.7-2.7,0.3c-2.9-1.1-5.5-2.7-7.7-4.9
		c-2.1-2.2-3.6-4.8-4.6-7.6c-0.5-0.9-0.4-1.9,0.3-2.7l3.8-3.9c0.6-0.7,0.8-1.7,0.3-2.5l-4.5-8.3c-0.4-0.8-1.2-1.2-2.1-1.1
		c-2.6,0.2-5.1,1.4-7,3.2c-3,3.1-3.9,12.3,7.5,27.3c8,10.5,25.3,12.1,29.3,9.6c2.8-1.7,3.1-5.2,3.2-7C89.4,90,88.9,89.2,88.2,88.8z"
		/>
	<path class="st6" d="M411.1,5h-95.7c-2,0-3.6,1.6-3.6,3.6v154.5c0,2,1.6,3.6,3.6,3.6h95.7c2,0,3.6-1.6,3.6-3.6V8.6
		C414.7,6.6,413.1,5,411.1,5z"/>
	<path class="st1" d="M372.5,154.4h-18.4c-2,0.1-3.8-1.5-3.9-3.5c-0.1-2,1.5-3.8,3.5-3.9c0.1,0,0.3,0,0.4,0h18.4
		c2,0.1,3.6,1.8,3.5,3.9C375.8,152.8,374.3,154.3,372.5,154.4z"/>
	<path class="st1" d="M328.3,19.7h69.9c2,0,3.7,1.6,3.7,3.7V130c0,2-1.6,3.7-3.7,3.7h-69.9c-2,0-3.7-1.6-3.7-3.7V23.4
		C324.6,21.4,326.3,19.7,328.3,19.7z"/>
	<path class="st4" d="M343.4,194c0,0.5,0,1,0.1,1.5h-2.2c0.1-0.5,0.1-1.1,0.1-1.6v-0.8h-1.3c-0.6,0-1.2,0-1.7,0.1v-2.1
		c0.5,0.1,1.1,0.1,1.6,0.1h1.5v-0.8h-0.8c-0.8,0-1.1,0-1.8,0.1c0-0.6,0.1-1.2,0.1-2v-2.9c0-0.9,0-1.3-0.1-1.8c0.6,0,1.2,0,1.7,0h0.8
		v-0.8h-1.3c-0.5,0-1.1,0-1.6,0.1v-2c0.6,0.1,1.2,0.1,1.7,0.1h1.2v-0.1c0-0.4,0-0.9-0.1-1.3h2.2c-0.1,0.4-0.1,0.9-0.1,1.3v0.1h1
		c0.6,0,1.1,0,1.7-0.1v2c-0.5-0.1-1.1-0.1-1.6-0.1h-1.1v0.8h1c0.5,0,0.9,0,1.4,0c0,0.3,0,0.7,0,1.7v3.2c0,1.1,0,1.5,0,1.9
		c-0.4,0-0.6,0-1.5,0h-1v0.8h1.3c0.5,0,0.9,0,1.4-0.1v1.7l0.7-0.1c0.5-1.9,0.9-3.8,1.2-5.7c-0.6,0-1.1,0-1.7,0.1V185
		c0.6,0.1,1.2,0.1,1.8,0.1h4.4c0.6,0,1.2,0,1.7-0.1v2.2c-0.6-0.1-1.2-0.1-1.7-0.1h-2.2l-0.3,1.6c-0.2,1.2-0.5,2.5-0.9,3.9
		c1.1-0.1,1.4-0.2,2.5-0.4c-0.4-1.3-0.7-1.9-1.2-3.1l1.8-0.8c0.9,2,1.7,4.1,2.2,6.2l-2,1c-0.2-0.8-0.2-0.8-0.4-1.5
		c-1.4,0.4-2.8,0.6-4.2,0.8c-1.2,0.2-1.5,0.3-1.9,0.4l-0.3-2c-0.3,0-0.6,0-1.1,0h-1V194z M340.6,185.4v0.9h0.9v-0.9H340.6z
		 M340.6,187.8v0.9h0.9v-0.9H340.6z M344.1,186.2v-0.9h-0.9v0.9H344.1z M344.1,188.6v-0.9h-0.9v0.9H344.1z M346.8,180.5
		c0.6,0.1,1.1,0.1,1.7,0.1h3.3c0.6,0,1.1,0,1.7-0.1v2.2c-0.1,0-0.3,0-0.4,0c-0.2,0-0.7,0-1.3,0h-3.3c-0.6,0-1.1,0-1.7,0.1V180.5z"/>
	<path class="st4" d="M362.1,181.5c0-0.6,0-1.2-0.1-1.8h2.5c-0.1,0.6-0.1,1.2-0.1,1.8v3.5h3.3v-2.6c0-0.5,0-0.9-0.1-1.4h2.4
		c-0.1,0.5-0.1,1-0.1,1.6v3.4c0,0.4,0,0.8,0,1.2c-0.4,0-0.8,0-1.3,0h-4.3v5.3h3.8v-2.6c0-0.5,0-1-0.1-1.5h2.4
		c-0.1,0.6-0.1,1.1-0.1,1.7v3.6c0,0.6,0,1.2,0.1,1.8h-2.4v-0.8h-9.7v0.8h-2.4c0.1-0.6,0.1-1.2,0.1-1.8V190c0-0.6,0-1.1-0.1-1.7h2.4
		c-0.1,0.5-0.1,1-0.1,1.5v2.6h3.6v-5.3h-4c-0.4,0-0.9,0-1.3,0c0-0.4,0.1-0.8,0-1.2v-3.4c0-0.5,0-1-0.1-1.6h2.4
		c-0.1,0.5-0.1,0.9-0.1,1.4v2.7h3L362.1,181.5z"/>
	<path class="st4" d="M376,184.2c-0.5,0.7-1.1,1.4-1.7,2c-0.5-0.6-1.1-1.1-1.7-1.5c1-0.8,1.8-1.8,2.4-2.9c0.3-0.6,0.6-1.3,0.7-2
		l2.3,0.5c0,0.1-0.2,0.5-0.5,1.3c-0.1,0.1-0.1,0.2-0.3,0.5h2.2v-0.7c0-0.6,0-1.2-0.1-1.8h2.5c-0.1,0.6-0.1,1.2-0.1,1.8v0.7h3.4
		c0.7,0,1.3,0,2-0.1v2.3c-0.6-0.1-1.3-0.1-2-0.1h-3.3v2h4.5c0.7,0,1.3,0,2-0.1v2.3c-0.7-0.1-1.3-0.1-2-0.1H383v4.5
		c0,0.3,0.2,0.4,1.1,0.4s1.3-0.1,1.5-0.3c0.3-0.8,0.4-1.7,0.3-2.6c0.7,0.4,1.4,0.6,2.2,0.8c-0.1,2-0.3,2.8-0.8,3.4s-1.3,0.9-3.7,0.9
		c-0.7,0-1.3,0-2-0.2c-0.6-0.2-0.9-0.7-0.9-1.3v-5.6h-1.6c0,1.6-0.5,3.2-1.4,4.5c-1.1,1.4-2.6,2.4-4.4,2.9c-0.3-0.8-0.8-1.5-1.3-2.1
		c1.2-0.3,2.4-0.9,3.3-1.7c1-0.9,1.5-2.2,1.4-3.6h-2.3c-0.7,0-1.3,0-2,0.1v-2.3c0.7,0.1,1.3,0.1,2,0.1h4.6v-2L376,184.2z"/>
	<path class="st5" d="M383.1,88.8l-8.3-4.5c-0.8-0.4-1.8-0.3-2.5,0.3l-3.9,3.8c-0.8,0.6-1.8,0.7-2.7,0.3c-2.9-1.1-5.5-2.7-7.7-4.9
		c-2.1-2.2-3.6-4.8-4.6-7.6c-0.5-0.9-0.4-1.9,0.3-2.7l3.8-3.9c0.7-0.7,0.8-1.7,0.4-2.5l-4.5-8.3c-0.4-0.8-1.2-1.2-2.1-1.1
		c-2.6,0.2-5.1,1.4-7,3.2c-3,3.1-3.9,12.3,7.5,27.3c8,10.5,25.3,12.1,29.3,9.6c2.8-1.7,3.1-5.2,3.2-7
		C384.3,90,383.8,89.2,383.1,88.8z"/>
	<rect class="st7" width="428" height="200"/>
</g>
</svg>
