<svg id="レイヤー_1" data-name="レイヤー 1" xmlns="http://www.w3.org/2000/svg" width="362.11" height="199.64" viewBox="0 0 362.11 199.64"><defs><style>.cls-1{fill:#cacaca;}.cls-2{fill:#fff;}.cls-3{fill:#313131;}.cls-4{fill:#f39800;}.cls-5{fill:#00aae7;}.cls-6{fill:#13c96a;}</style></defs><path id="パス_113" data-name="パス 113" class="cls-1" d="M99.3,0H3.6A3.58,3.58,0,0,0,0,3.57V158.1a3.58,3.58,0,0,0,3.57,3.6H99.3a3.58,3.58,0,0,0,3.6-3.57V3.6A3.53,3.53,0,0,0,99.45,0Z"/><path id="パス_114" data-name="パス 114" class="cls-2" d="M60.7,149.4H42.3a3.71,3.71,0,1,1-.4-7.4H60.7a3.71,3.71,0,1,1,.4,7.4Z"/><path id="パス_115" data-name="パス 115" class="cls-2" d="M16.6,14.7H86.5a3.69,3.69,0,0,1,3.7,3.68V125a3.68,3.68,0,0,1-3.68,3.7H16.6A3.69,3.69,0,0,1,12.9,125V18.4a3.69,3.69,0,0,1,3.68-3.7Z"/><path id="パス_124" data-name="パス 124" class="cls-1" d="M358.51,0h-95.7a3.58,3.58,0,0,0-3.6,3.57V158.1a3.58,3.58,0,0,0,3.57,3.6h95.73a3.58,3.58,0,0,0,3.6-3.57V3.6A3.58,3.58,0,0,0,358.54,0Z"/><path id="パス_125" data-name="パス 125" class="cls-2" d="M319.91,149.4h-18.4a3.71,3.71,0,0,1-.4-7.4h18.8a3.7,3.7,0,0,1,3.5,3.89h0A3.85,3.85,0,0,1,319.91,149.4Z"/><path id="パス_126" data-name="パス 126" class="cls-2" d="M275.71,14.7h69.9a3.69,3.69,0,0,1,3.7,3.68V125a3.68,3.68,0,0,1-3.68,3.7H275.71A3.69,3.69,0,0,1,272,125V18.4A3.76,3.76,0,0,1,275.71,14.7Z"/><path class="cls-3" d="M11.06,175.42c-.42,0-.65,0-1,0V174a7.19,7.19,0,0,0,1.11.06H13A6.92,6.92,0,0,0,14,174v1.5a9.17,9.17,0,0,0-1,0h-.24v2.13h.3a4.07,4.07,0,0,0,.76-.05v1.43c-.27,0-.51,0-.76,0h-.3v1.91c.46-.19.64-.26,1.21-.54l0,1.45a22.1,22.1,0,0,1-3.43,1.44l-.45.17-.37-1.63a10.77,10.77,0,0,0,1.5-.39v-2.41H11a6.56,6.56,0,0,0-.82.05V177.5a5.3,5.3,0,0,0,.86.05h.31v-2.13ZM17,180.7a4.85,4.85,0,0,1-3.65,4.08,4.31,4.31,0,0,0-.86-1.3,4.34,4.34,0,0,0,2.26-1.2,2.68,2.68,0,0,0,.73-1.58c-.38,0-.38,0-1.09,0,0-.39,0-.76,0-1.21V175a9.47,9.47,0,0,0,0-1.21,8.52,8.52,0,0,0,1.18.05h3.76a8.66,8.66,0,0,0,1.15-.05c0,.32,0,.62,0,1.21v4.45a10.85,10.85,0,0,0,.06,1.32l-.77-.05h-.73V183c0,.14.06.18.34.18s.41,0,.46-.11a5.24,5.24,0,0,0,.12-1.4,5.81,5.81,0,0,0,1.31.56c-.12,1.34-.21,1.74-.46,2s-.68.35-1.65.35c-1.36,0-1.63-.17-1.63-1V180.7Zm-1.1-4.95h3v-.63h-3Zm0,1.84h3V177h-3Zm0,1.86h3v-.66h-3Z"/><path class="cls-3" d="M31.42,174.84a11.41,11.41,0,0,0,1.5-.07v1.63a12.91,12.91,0,0,0-1.5-.07H26.6A13.07,13.07,0,0,1,25,178.79v4.37a10.56,10.56,0,0,0,.06,1.45H23.4a10.76,10.76,0,0,0,.08-1.45v-2.72c-.36.33-.46.42-.82.71a5.26,5.26,0,0,0-.95-1.5,11.71,11.71,0,0,0,1.77-1.5c0-.5,0-.5-.05-.7h.65a11.4,11.4,0,0,0,.74-1.12H23.55a12.5,12.5,0,0,0-1.49.07v-1.63a11.34,11.34,0,0,0,1.49.07h2a7,7,0,0,0,.43-1.51l1.77.29a3.69,3.69,0,0,0-.24.62c-.08.23-.14.37-.22.6Zm-.36,3.87a9.11,9.11,0,0,0,1.33-.07v1.57c-.36,0-.77-.06-1.35-.06H29.73v2.61h1.69a8.25,8.25,0,0,0,1.39-.08v1.6a12,12,0,0,0-1.41-.07H26.78a11.3,11.3,0,0,0-1.41.07v-1.6a10.2,10.2,0,0,0,1.39.08h1.38v-2.61H27.05c-.57,0-1,0-1.34.06v-1.57a9,9,0,0,0,1.33.07h1.1v-.64a8,8,0,0,0-.06-1.24h1.7a9.05,9.05,0,0,0-.05,1.27v.61Z"/><path class="cls-3" d="M38,179.55c-.73.59-1.08,1.09-1.08,1.56,0,.7.83,1,2.7,1a12.82,12.82,0,0,0,3.89-.53l.14,2a8.88,8.88,0,0,0-1.08.11,19.53,19.53,0,0,1-2.71.19,9.07,9.07,0,0,1-3.16-.4A2.13,2.13,0,0,1,35,181.38a3.48,3.48,0,0,1,1.64-2.74Zm-2.13-5.17a17.6,17.6,0,0,0,3.88.3,16.53,16.53,0,0,0,3.14-.21l.06,1.58a23.08,23.08,0,0,0-3.27,2l-1.23-.91c.42-.28,1.24-.78,1.59-1a10.75,10.75,0,0,1-1.37.07,23.41,23.41,0,0,1-2.48-.14,1.94,1.94,0,0,0-.42,0ZM42.08,177a5.77,5.77,0,0,1,1.07,1.52l-1,.57a6.42,6.42,0,0,0-1.07-1.53Zm1.32-.72a6.61,6.61,0,0,1,1.07,1.46l-1,.56a7.83,7.83,0,0,0-1-1.49Z"/><path class="cls-3" d="M48.22,175.67c-.77.13-1,.17-1.59.25a7.33,7.33,0,0,0-.51-1.39,18.57,18.57,0,0,0,3-.52,6.15,6.15,0,0,0,1.62-.57l.91,1.33c-.84.27-1.28.41-1.91.57v1.39h.86a6.88,6.88,0,0,0,1,0v1.51a7.43,7.43,0,0,0-1-.05H49.8a6.81,6.81,0,0,0,1.87,2.05,8,8,0,0,0-.72,1.43A5.85,5.85,0,0,1,49.7,180c0,.35,0,.74,0,1.26v1.87a10.62,10.62,0,0,0,.08,1.55H48.14a11.07,11.07,0,0,0,.08-1.55v-1.73c0-.39,0-.85,0-1.2a7.1,7.1,0,0,1-1.65,2.64,7.5,7.5,0,0,0-.76-1.53A6.42,6.42,0,0,0,47,179.84a10.83,10.83,0,0,0,.89-1.7h-.71a6.71,6.71,0,0,0-1.08.06v-1.52a8.26,8.26,0,0,0,1.11,0h1Zm5.58-1.31a11.87,11.87,0,0,0-.06,1.5v4.49a10.38,10.38,0,0,0,.06,1.45H52.13a9.24,9.24,0,0,0,.06-1.42v-4.52a11.71,11.71,0,0,0-.07-1.5Zm2.79-.74a14,14,0,0,0-.07,1.69v7.63c0,.74-.22,1.17-.66,1.36a5.44,5.44,0,0,1-1.83.19l-.81,0a6.56,6.56,0,0,0-.49-1.58c.7.07,1.2.11,1.59.11s.65-.06.65-.38v-7.31c0-.58,0-1.11-.07-1.69Z"/><path class="cls-3" d="M64.36,182.79a11.15,11.15,0,0,0,.06,1.48H62.76a10.33,10.33,0,0,0,.07-1.47V181H60.3a8.29,8.29,0,0,1-1.17,3.71,10.48,10.48,0,0,0-1.39-1.15c1-1.52,1.16-2.78,1.16-8.1a14,14,0,0,0-.06-1.59,13.74,13.74,0,0,0,1.4,0h6.85a13,13,0,0,0,1.44,0c0,.39,0,.73,0,1.44v7.86c0,1.05-.4,1.35-1.83,1.35-.34,0-.94,0-1.31,0a5.18,5.18,0,0,0-.41-1.47c.56,0,1.07.08,1.43.08s.56,0,.56-.28V181H64.36Zm-3.92-4.66c0,.51,0,.78,0,1.41h2.43v-1.41Zm2.39-2.77H60.46v1.36h2.37Zm4.09,1.36v-1.36H64.36v1.36Zm-2.56,2.82h2.56v-1.41H64.36Z"/><path class="cls-3" d="M74.57,174.78a7.88,7.88,0,0,0-.07-1.33h1.79a8.16,8.16,0,0,0-.08,1.27v.67h3.17a9.07,9.07,0,0,0,1.18,0,8.45,8.45,0,0,0,0,1.11v3.8a8.18,8.18,0,0,0,.06,1.25H78.91v-.68h-2.7v2.28a9.84,9.84,0,0,0,.09,1.55H74.49a11.07,11.07,0,0,0,.08-1.55v-2.28H72v.68H70.34a9,9,0,0,0,.06-1.25v-3.82a8.88,8.88,0,0,0-.05-1.09,9.52,9.52,0,0,0,1.15,0h3.07ZM72,176.89v2.44h2.58v-2.44Zm6.92,2.44v-2.44h-2.7v2.44Z"/><path class="cls-3" d="M87.24,181c-.67,1.53-1.46,2.23-2.49,2.23-1.49,0-2.54-1.45-2.54-3.51a5.15,5.15,0,0,1,1.34-3.56,5.56,5.56,0,0,1,4.22-1.73c3,0,4.93,1.8,4.93,4.61a4.69,4.69,0,0,1-3,4.62,8.87,8.87,0,0,1-1.91.5,5.05,5.05,0,0,0-.88-1.71,5.94,5.94,0,0,0,2.37-.57,3.3,3.3,0,0,0,1.65-3,2.9,2.9,0,0,0-1.28-2.51,2.29,2.29,0,0,0-1.11-.38A16.67,16.67,0,0,1,87.24,181Zm-1.9-4.34a3.91,3.91,0,0,0-1.48,3.07c0,.9.38,1.63.85,1.63s.72-.47,1.11-1.44a15.82,15.82,0,0,0,1-3.86A2.64,2.64,0,0,0,85.34,176.65Z"/><path class="cls-3" d="M30.11,189.86c-.56,0-.88,0-1.29,0v-1.28c.45,0,.9.07,1.42.07h6.4c.55,0,1,0,1.41-.07v1.28c-.41,0-.69,0-1.27,0H34.11v.38h3.08c.87,0,1.21,0,1.56-.05a7.08,7.08,0,0,0,0,1V192a5.46,5.46,0,0,0,.06,1H37.3v-1.64H34.11v1.09a9.91,9.91,0,0,0,0,1.11H32.52a7.12,7.12,0,0,0,.06-1.11v-1.09h-3V193H28.1a5.53,5.53,0,0,0,.06-1v-.78a7.34,7.34,0,0,0-.05-1c.35,0,.68.05,1.56.05h2.91v-.38Zm7.71,7.28a5,5,0,0,0,1.23.39,4.22,4.22,0,0,1-.18,1.11c-.29.78-.77.9-3.52.9-2.37,0-2.74-.13-2.74-1v-.74H30.53v.52H29a9.65,9.65,0,0,0,.07-1.26V195a8.82,8.82,0,0,0-.06-1.2,9.64,9.64,0,0,0,1.19.05h6.49a9.58,9.58,0,0,0,1.22-.05,11.92,11.92,0,0,0,0,1.2v2.18ZM30,191.61a2.93,2.93,0,0,0,.58,0h1a3.88,3.88,0,0,0,.56,0v.78a4.21,4.21,0,0,0-.56,0h-1l-.58,0Zm0,1.08a2.93,2.93,0,0,0,.58,0h1a3.69,3.69,0,0,0,.56,0v.78a3.89,3.89,0,0,0-.56,0h-1a5,5,0,0,0-.58,0Zm.55,2.13v.48h2.07v-.48Zm0,1.42v.52h2.07v-.52Zm3.55-.94h2.22v-.48H34.09Zm0,1.46h2.22v-.52H34.09Zm0,1.33c0,.13,0,.18.21.22a12.21,12.21,0,0,0,1.44.07,5.45,5.45,0,0,0,1.53-.13c.13-.06.19-.17.22-.43h-3.4Zm.47-6.49a2.93,2.93,0,0,0,.58,0h1.18c.28,0,.42,0,.57,0v.78h-.06a3.27,3.27,0,0,0-.51,0H35.14a5.15,5.15,0,0,0-.58,0Zm0,1.09a2.93,2.93,0,0,0,.58,0h1.18a3.76,3.76,0,0,0,.57,0v.78a4.13,4.13,0,0,0-.57,0H35.14a4.89,4.89,0,0,0-.58,0Z"/><path class="cls-3" d="M40,190.4a5.26,5.26,0,0,0,1,.06h2.48a7.62,7.62,0,0,0,1,0v1.38a5.22,5.22,0,0,0-.92,0H41a6.77,6.77,0,0,0-1,.05Zm1.83,9.21H40.35a7.73,7.73,0,0,0,.06-1.12v-2a6.63,6.63,0,0,0,0-.92c.3,0,.53,0,.91,0H43.5a3.49,3.49,0,0,0,.77,0c0,.23,0,.4,0,.83v2.1c0,.48,0,.63,0,.91h-1.4v-.37H41.82Zm-1.46-10.87a9.63,9.63,0,0,0,1,0h1.78a9.63,9.63,0,0,0,1,0V190c-.3,0-.55,0-1,0H41.4c-.45,0-.75,0-1,0Zm0,3.49a7.2,7.2,0,0,0,.75,0h2.33a6.29,6.29,0,0,0,.73,0v1.26a5,5,0,0,0-.73,0H41.15a4,4,0,0,0-.75,0Zm0,1.69a5.33,5.33,0,0,0,.75,0h2.33a4.68,4.68,0,0,0,.73,0v1.26a3.9,3.9,0,0,0-.75,0H41.14a3.84,3.84,0,0,0-.74,0Zm1.39,3.94h1.09v-1H41.79Zm5.08-7.3c-.74.1-.94.12-2,.22a5.71,5.71,0,0,0-.5-1.41,16.3,16.3,0,0,0,5.62-1l.85,1.38-.34.1c-.52.14-1.44.36-2.13.49v1.51h1.21a10.22,10.22,0,0,0,1.37-.07v1.54a13.1,13.1,0,0,0-1.37-.07H48.37v1.36h1.29c.4,0,.67,0,.88,0,0,.25,0,.59,0,1v2.72a12.1,12.1,0,0,0,.06,1.32H49v-.52H46.36v.52H44.8a12.56,12.56,0,0,0,.05-1.26v-2.88c0-.37,0-.56,0-.91.26,0,.53,0,.89,0h1.17v-1.36h-1a12.31,12.31,0,0,0-1.36.07v-1.54a10.39,10.39,0,0,0,1.38.07h.94Zm-.51,7.12H49V196H46.36Z"/><path class="cls-3" d="M59,191.39a5.91,5.91,0,0,0,.62-1.39l1.56.22-.19.38c-.1.16-.16.28-.18.32a2.45,2.45,0,0,1-.26.47h.85a9,9,0,0,0,1.37-.08v1.43a11.26,11.26,0,0,0-1.37-.07H59.74a8.67,8.67,0,0,0,3.44,1.82,6.05,6.05,0,0,0-.79,1.43c-.37-.18-.47-.23-.89-.47v2.86a10.18,10.18,0,0,0,.06,1.33H60v-.5H54.92v.5H53.36a13.17,13.17,0,0,0,.07-1.32v-2.84c-.3.16-.43.25-.82.45a4.57,4.57,0,0,0-.8-1.38,8.52,8.52,0,0,0,3.26-1.88H53.45a10.46,10.46,0,0,0-1.36.07v-1.43a9.22,9.22,0,0,0,1.36.08h.79a.75.75,0,0,0-.06-.13l-.13-.26a1.58,1.58,0,0,0-.19-.37l1.37-.33a11.77,11.77,0,0,1,.51,1.09h.91v-1.18c-1.25.07-2.45.12-3.59.12a5.29,5.29,0,0,0-.6-1.31c.51,0,.82,0,1,0,1.5,0,2.46,0,4.44-.22a19.4,19.4,0,0,0,3.2-.47l1.08,1.3-.42,0-.34,0c-.6.09-1.66.2-3.33.35v1.3ZM54.92,196h1.77v-.64H54.92Zm0,1.84h1.77v-.63H54.92Zm1.73-4.75a2.37,2.37,0,0,1,0-.4,8.4,8.4,0,0,1-1.36,1.44h1.33Zm2.91,1a8,8,0,0,1-1.45-1.45c0,.13,0,.13,0,.18a1.58,1.58,0,0,1,0,.19v1.08Zm-1.43,1.88H60v-.63H58.13Zm0,1.83H60v-.63H58.13Z"/><path class="cls-3" d="M65.43,194.3a13.65,13.65,0,0,0-1.46.07v-1.51a11.07,11.07,0,0,0,1.48.07h8.12a11.21,11.21,0,0,0,1.5-.07v1.51a13.92,13.92,0,0,0-1.5-.07H68.26c-.12.29-.19.47-.3.71H72.5a9,9,0,0,0,1.19,0c0,.14,0,.21-.08.72a8,8,0,0,1-.69,3.09,1.5,1.5,0,0,1-.81.62,5.62,5.62,0,0,1-1.61.14c-.68,0-1,0-1.69-.06-.08-.12-.08-.14-.11-.47a3.32,3.32,0,0,0-.34-1,21.21,21.21,0,0,0,2.19.14c.59,0,.84-.06,1-.25a3.73,3.73,0,0,0,.37-1.53H67.3c-.19.32-.25.43-.53.86l-1.7-.31a12.76,12.76,0,0,0,1.49-2.57Zm0-4.51a7.61,7.61,0,0,0,0-1,12.88,12.88,0,0,0,1.37.05h5.52a11.16,11.16,0,0,0,1.36-.05,10,10,0,0,0,0,1v1.54a10,10,0,0,0,0,1c-.38,0-.57,0-1.23,0H66.62c-.64,0-.84,0-1.23,0a8,8,0,0,0,0-1Zm1.54.34v1h5v-1Z"/><path id="パス_97" data-name="パス 97" class="cls-4" d="M122.86,48.7h93.59c1.57,0,2.86,1.78,2.87,4v67.12c0,2.25-1.25,4.08-2.82,4.1H122.86c-1.57,0-2.86-1.79-2.87-4V52.8c0-2.25,1.25-4.09,2.82-4.1A0,0,0,0,1,122.86,48.7Z"/><path id="パス_98" data-name="パス 98" class="cls-4" d="M246.9,85a2.42,2.42,0,0,1,0,2.59L227.9,115,211.3,139a1.81,1.81,0,0,1-2.6.44,1.76,1.76,0,0,1-.7-1.62V35a1.88,1.88,0,0,1,1.69-2h0a1.62,1.62,0,0,1,1.5.75l16.6,23.94Z"/><path class="cls-2" d="M156.35,61.76a11.47,11.47,0,0,1,1.18,2.38l-1.09.58a9.65,9.65,0,0,0-1.18-2.36Zm1.59.73a5.08,5.08,0,0,0-.08-1h1.48a5.31,5.31,0,0,0-.07,1v2.39h1a8.88,8.88,0,0,0,1.09-.05,9.86,9.86,0,0,0,0,1v5.69a1.17,1.17,0,0,1-.3.94,1.53,1.53,0,0,1-1.09.27c-.37,0-.54,0-1.23-.06a4.59,4.59,0,0,0-.27-1.22,11.35,11.35,0,0,0,1.29.12c.24,0,.32-.06.32-.26V70.12H157v1.29a12.39,12.39,0,0,0,.07,1.44h-1.45a10.43,10.43,0,0,0,.09-1.43V65.86a9.76,9.76,0,0,0-.05-1,7.6,7.6,0,0,0,.94.05h1.31ZM160.08,66H157V67h3.05ZM157,69h3.05v-.9H157Zm4.83-6.63a14.75,14.75,0,0,1-1.27,2.42l-1.1-.58a9.14,9.14,0,0,0,1.16-2.41Zm1.81.11a8.39,8.39,0,0,0-.06,1.28v4.94a8,8,0,0,0,.06,1.31h-1.4a8.59,8.59,0,0,0,.06-1.32V63.77a8.93,8.93,0,0,0-.06-1.3Zm2.51-.84a8.51,8.51,0,0,0-.09,1.49v8.19c0,.68-.1,1-.43,1.16a2.65,2.65,0,0,1-1.41.26c-.3,0-.55,0-1.22,0a4.64,4.64,0,0,0-.36-1.32,10.24,10.24,0,0,0,1.54.12c.49,0,.59-.06.59-.36v-8a11.45,11.45,0,0,0-.07-1.52Z"/><path class="cls-2" d="M171.87,68.26c0,1.34-.49,1.81-1.84,1.81h-.22a2.47,2.47,0,0,0-.25-1.23c.32,0,.43,0,.58,0,.38,0,.5-.17.5-.69a3.63,3.63,0,0,0-.16-1.13,2.67,2.67,0,0,0-.83-1.34,10.44,10.44,0,0,0,1.14-2.67h-1.33v8.27c0,.52,0,1.09.07,1.5h-1.42a13,13,0,0,0,.07-1.51V63q0-.66,0-1.17c.22,0,.54,0,.93,0h1.64a6,6,0,0,0,.87,0l.71.61a3.77,3.77,0,0,0-.18.45,14.84,14.84,0,0,1-.59,1.53,5.85,5.85,0,0,0,1.41-1,6.3,6.3,0,0,0,1.44-1.83h1.37a7.35,7.35,0,0,0,3.6,3,4.47,4.47,0,0,0-.55,1.37,11,11,0,0,1-1.12-.67v.84a8.13,8.13,0,0,0-1.05,0h-.92v1h2a9.37,9.37,0,0,0,1.18-.06v1.34a7.34,7.34,0,0,0-1.18-.08h-2V71.5c0,1-.34,1.24-1.65,1.24l-1.09,0a3.28,3.28,0,0,0-.35-1.3,8.93,8.93,0,0,0,1.18.11c.47,0,.61-.08.61-.32V68.26Zm1.85.8a8.76,8.76,0,0,1-1,2.08,6.83,6.83,0,0,1-1.11,1.25,4.25,4.25,0,0,0-.94-1,4.62,4.62,0,0,0,1.1-1.12,5.53,5.53,0,0,0,.8-1.67Zm.69-3h-.72a8,8,0,0,0-1,0v-.8c-.27.18-.36.24-.69.44a3.61,3.61,0,0,0-.58-1c-.11.26-.17.38-.39.82a3.87,3.87,0,0,1,.74,1.48h2.68Zm2.22-1.16h.54a9,9,0,0,1-2.06-2.16,8.49,8.49,0,0,1-2,2.17h3.47Zm.79,3.76a6.49,6.49,0,0,0,.8,1.48,4.91,4.91,0,0,0,1,1.15,4.61,4.61,0,0,0-.91,1.09,9.11,9.11,0,0,1-2-3.29Z"/><path class="cls-2" d="M180.74,63.4a10.75,10.75,0,0,0-.05-1.24,9.17,9.17,0,0,0,1.09,0h1.48a9.21,9.21,0,0,0,1.07,0,11.4,11.4,0,0,0,0,1.22v7c0,.66,0,.93,0,1.23h-1.25V71H182v1h-1.29a11.13,11.13,0,0,0,.07-1.46ZM182,65.94h1.11V63.37H182Zm0,3.9h1.11V67.07H182ZM186.2,64a8.89,8.89,0,0,0-1.31.06v-1.3a8.89,8.89,0,0,0,1.28.07h1.08v-.33a6.5,6.5,0,0,0-.07-.92h1.41a6.07,6.07,0,0,0-.06.92v.33h1.34a9.08,9.08,0,0,0,1.28-.07v1.3a9,9,0,0,0-1.27-.06h-1.35v1.17h1.7a8.82,8.82,0,0,0,1.34-.08v1.31a8.06,8.06,0,0,0-1.21-.06h-.21v1h.16a7.52,7.52,0,0,0,1.22-.06v1.34a7,7,0,0,0-1.22-.07h-.16v2.78c0,.71-.12,1-.49,1.18a3.58,3.58,0,0,1-1.35.19h-1a3.14,3.14,0,0,0-.3-1.29,10.87,10.87,0,0,0,1.38.1c.38,0,.46-.06.46-.33V68.61H186a10.85,10.85,0,0,0-1.32.07V67.34a9.05,9.05,0,0,0,1.34.06h2.92v-1H186a13.11,13.11,0,0,0-1.35.06V65.11a9,9,0,0,0,1.36.08h1.27V64Zm.48,7.44a9.79,9.79,0,0,0-1.57-2l1-.69a9.5,9.5,0,0,1,1.62,1.89Z"/><path class="cls-2" d="M194.07,72.22c0-.22,0-.29-.07-.58a21.7,21.7,0,0,1-.32-3.67,23.39,23.39,0,0,1,.51-4.81,8,8,0,0,0,.18-1.14l1.63.17a16.7,16.7,0,0,0-.78,3.67,20.81,20.81,0,0,0-.18,2.72c0,.27,0,.37,0,.68a13,13,0,0,1,.64-1.62l1,.44a10,10,0,0,0-1.1,3.72c0,.08,0,.18,0,.34Zm5.23-4.86a2.83,2.83,0,0,0-.87,1.78c0,.7.68,1.07,2,1.07a8.71,8.71,0,0,0,2.92-.47l.13,1.56a3.49,3.49,0,0,0-.51.07,15.12,15.12,0,0,1-2.54.24c-1.53,0-2.51-.35-3-1.07a2,2,0,0,1-.37-1.21,4,4,0,0,1,1.13-2.53Zm-2-4.07a8.67,8.67,0,0,0,2.27.2,13.71,13.71,0,0,0,3.35-.33l.07,1.49-.87.11a21.93,21.93,0,0,1-2.64.14,15.17,15.17,0,0,1-2.21-.13Z"/><path class="cls-2" d="M139.77,96.17a17.21,17.21,0,0,0-.9-3.1l-1.93-5.56c0-.1-.64-2-.71-2.21-.23-.75-.23-.75-.33-1,.12,1.32.21,3,.21,4.14v4.54a21.72,21.72,0,0,0,.17,3.24h-4.12a24.17,24.17,0,0,0,.16-3.24V82a29.9,29.9,0,0,0-.16-3.26h5.52a15.1,15.1,0,0,0,.79,2.94l3.14,9,3.11-9a14.11,14.11,0,0,0,.77-2.94H151a25.28,25.28,0,0,0-.16,3.26V92.93a21.74,21.74,0,0,0,.16,3.24h-4.11a23.8,23.8,0,0,0,.16-3.24V88.37c0-.5.07-2.07.11-2.72.06-1.1.06-1.1.08-1.42-.46,1.63-.67,2.38-.94,3.14l-2,5.73a19.74,19.74,0,0,0-.9,3.07Z"/><path class="cls-2" d="M163.65,87.33a27.72,27.72,0,0,1,1.5,2.48c-.08-1-.12-1.92-.12-3.09V82a23.41,23.41,0,0,0-.17-3.17h4.45a23.41,23.41,0,0,0-.17,3.17v11.1a26.54,26.54,0,0,0,.17,3.12h-4.58a21.43,21.43,0,0,0-1.56-2.66l-3.87-5.83a24.71,24.71,0,0,1-1.51-2.57,28.43,28.43,0,0,1,.15,3.11v4.69a22.18,22.18,0,0,0,.17,3.26h-4.46a21,21,0,0,0,.17-3.28v-11a22.49,22.49,0,0,0-.17-3.11h4.54a14.26,14.26,0,0,0,1.48,2.61Z"/><path class="cls-2" d="M171.93,96.17a21.71,21.71,0,0,0,.17-3.1V81.77a22.67,22.67,0,0,0-.17-3.06c1,0,1.74.07,3.07.07h4.58c4.14,0,6.42,2,6.42,5.62s-2.38,5.94-6.44,5.94h-3.3V93a26,26,0,0,0,.17,3.16Zm7.44-9.39a2.08,2.08,0,0,0,2.32-2.26c0-1.44-.81-2.19-2.32-2.19h-3.11v4.45Z"/><path class="cls-2" d="M204.21,97.4c-.19-.88-.23-1-.37-1.69A63.13,63.13,0,0,1,197.31,97c-.23,0-.35.06-.64.13l-.42-2.32a12.13,12.13,0,0,0-1.24,0h-1.12v.89a17.29,17.29,0,0,0,.1,1.8h-3.14a12.6,12.6,0,0,0,.13-1.94v-.75h-1.42a14.18,14.18,0,0,0-2.2.12V91.9a11.69,11.69,0,0,0,2,.11H191v-.73h-.79c-1.07,0-1.36,0-2.2,0,.06-.73.08-1.51.08-2.61V85.15c0-1.11,0-1.67-.08-2.38a20.06,20.06,0,0,0,2.17.06H191v-.75h-1.44a19,19,0,0,0-2,.08V79.32a15.3,15.3,0,0,0,2.22.1H191v-.14a7.11,7.11,0,0,0-.13-1.55H194a8.64,8.64,0,0,0-.12,1.55v.14h1a15.15,15.15,0,0,0,2.2-.1v2.82a17,17,0,0,0-2-.06h-1.23v.75h1.25a15.56,15.56,0,0,0,1.67,0,15.06,15.06,0,0,0-.06,2.09v4a21,21,0,0,0,.06,2.43c-.44,0-.73,0-1.78,0h-1.14V92h1.44A9.52,9.52,0,0,0,197,91.9v1.84l.61,0a46.08,46.08,0,0,0,1.48-6.48,14.65,14.65,0,0,0-1.88.11v-3.2a17.23,17.23,0,0,0,2.24.1h5.14a17.33,17.33,0,0,0,2.24-.1v3.2a20.28,20.28,0,0,0-2.24-.11h-2.32l-.77,3.37c-.3,1.23-.3,1.23-.76,2.82,1.17-.15,1.32-.17,2.36-.33-.54-1.7-.6-1.89-1.23-3.52l2.68-1.06A47.07,47.07,0,0,1,207.08,96ZM190.39,85.11v.94h.9v-.94Zm0,2.93v1h.9V88Zm4.06-2v-.94h-.88v.94Zm0,3V88h-.88v1Zm3.41-10.25a13.36,13.36,0,0,0,2.17.11H204a13.57,13.57,0,0,0,2.18-.11v3.16a2.83,2.83,0,0,1-.51,0c-.33,0-.94,0-1.67,0H200a15.37,15.37,0,0,0-2.17.1Z"/><path class="cls-2" d="M216.15,80.13a15.86,15.86,0,0,0-.12-2.25h3.57a14,14,0,0,0-.12,2.25V84H223v-2.9a14.79,14.79,0,0,0-.08-1.76h3.4a14.69,14.69,0,0,0-.1,2v4.14a11.28,11.28,0,0,0,.08,1.61,11.11,11.11,0,0,0-1.65-.09h-5.14v6.21h4.16v-3a16.08,16.08,0,0,0-.08-1.8H227a21.05,21.05,0,0,0-.1,2.16v4.28a17.3,17.3,0,0,0,.12,2.41h-3.34v-.9H212.27v.9h-3.35a18,18,0,0,0,.13-2.41V90.63a17.9,17.9,0,0,0-.11-2.18h3.41a13.91,13.91,0,0,0-.08,1.82v3h3.88V87.05h-4.78a11.8,11.8,0,0,0-1.72.09,10.79,10.79,0,0,0,.09-1.61V81.41c0-.38-.07-1.63-.11-2H213a13.61,13.61,0,0,0-.08,1.78V84h3.19Z"/><path class="cls-2" d="M164,102.12a14.86,14.86,0,0,0,2.85.16,5,5,0,0,0,.49-1.52l1.61.17a10.66,10.66,0,0,0-.49,1.1,1.7,1.7,0,0,1-.11.23,5.2,5.2,0,0,1,.78-.05,16.73,16.73,0,0,0,3.22-.42l.09,1.4-1,.1c-.89.11-2.46.21-3.7.24a6.05,6.05,0,0,1-1.13,1.64v0l.25-.19a3,3,0,0,1,1.73-.55,1.62,1.62,0,0,1,1.76,1.3l1.88-.66a4,4,0,0,0,.91-.37l.58,1.41a11.89,11.89,0,0,0-1.36.33c-.18,0-.79.26-1.85.63v.14c0,.32,0,.32,0,.49v.49c0,.21,0,.32,0,.41a4.19,4.19,0,0,0,0,.65l-1.43,0a9.28,9.28,0,0,0,.08-1.42v-.3a8.49,8.49,0,0,0-1.19.64,1.29,1.29,0,0,0-.63,1c0,.64.58.9,2.07.9a10.72,10.72,0,0,0,3.62-.52l.12,1.59a3.19,3.19,0,0,0-.56.05,23.24,23.24,0,0,1-3.15.22,5.22,5.22,0,0,1-2.74-.52,1.77,1.77,0,0,1-.9-1.58,2,2,0,0,1,.54-1.37,6,6,0,0,1,2.64-1.73.67.67,0,0,0-.75-.67,4.16,4.16,0,0,0-2.52,1.27,5.73,5.73,0,0,0-1.07,1.12l-1.12-1.11a7.34,7.34,0,0,0,1.11-1.09,16.88,16.88,0,0,0,1.48-2.11.61.61,0,0,1,.09-.16l-.21,0-1.55,0H164Z"/><path class="cls-2" d="M181.41,105.48s0,.15,0,.29a3.77,3.77,0,0,1,.39,1.74,4,4,0,0,1-1.83,3.32,9.05,9.05,0,0,1-2.23,1,3.82,3.82,0,0,0-.87-1.39,5.75,5.75,0,0,0,2.09-.72,2.58,2.58,0,0,0,1.43-1.79,2,2,0,0,1-1.81.87,2.25,2.25,0,0,1-1.43-.44,1.94,1.94,0,0,1-.84-1.66,2.26,2.26,0,0,1,2.44-2.24,2,2,0,0,1,1.28.37.62.62,0,0,1,0-.15s0-.71,0-1c-1.76,0-2.92.08-3.46.12-1.86.13-1.86.13-2.19.18l-.05-1.46c.27,0,.38,0,.6,0s.51,0,2.1-.06l1.93,0,1,0a6.78,6.78,0,0,0-.07-1.49h1.55a9.23,9.23,0,0,0-.06,1.46c2.14,0,3.1,0,3.55-.09v1.42c-.45,0-1-.06-2.06-.06l-1.49,0v1.86Zm-2.51.12a1.08,1.08,0,0,0-1.15,1,1,1,0,0,0,1.05,1,1.12,1.12,0,0,0,1.2-1.11C180,105.93,179.57,105.6,178.9,105.6Z"/><path class="cls-2" d="M189.18,105.88a6,6,0,0,1,2.58-.56c2.11,0,3.46,1.08,3.46,2.77a3,3,0,0,1-1.67,2.71,6.05,6.05,0,0,1-3,.7,4.2,4.2,0,0,1-2.39-.56,1.78,1.78,0,0,1-.73-1.42,1.88,1.88,0,0,1,2.11-1.75,2.66,2.66,0,0,1,2.13,1,3.37,3.37,0,0,1,.57,1.11c1-.38,1.46-.91,1.46-1.78s-.95-1.59-2.44-1.59a7.57,7.57,0,0,0-5.06,2.07l-.84-1.33a10.81,10.81,0,0,0,1.73-1.16,38.75,38.75,0,0,0,3.68-3.2l.22-.22h0c-.47.06-1.25.11-3.48.21a3.46,3.46,0,0,0-.59.06l-.06-1.47a11.06,11.06,0,0,0,1.45.07c1,0,2.54-.06,3.74-.15a1.69,1.69,0,0,0,.76-.16l.76,1.09a2.65,2.65,0,0,0-.64.5c-.61.57-1.51,1.36-1.93,1.72-.22.19-1.1.85-1.35,1a5.78,5.78,0,0,1-.5.32Zm.37,3.07c-.44,0-.73.22-.73.56s.56.78,1.47.78a3.33,3.33,0,0,0,.64-.05C190.71,109.39,190.24,109,189.55,109Z"/><path class="cls-5" d="M27.26,104.46A13.34,13.34,0,0,1,30,105.85l-.73,1.33a10.7,10.7,0,0,0-2.78-1.5Zm-.54,4.43a9,9,0,0,0,3-.66,6,6,0,0,0,2.84-2.18,7.29,7.29,0,0,0,1.14-2.2,5.14,5.14,0,0,0,1.25,1.06,8.44,8.44,0,0,1-7.08,5.42,5.34,5.34,0,0,0-.71.17ZM28,102a15.72,15.72,0,0,1,2.76,1.3l-.76,1.3a12.38,12.38,0,0,0-2.76-1.4Z"/><path class="cls-5" d="M40.14,109H41.7a9.94,9.94,0,0,0,1.37-.06v1.33c-.35,0-.75,0-1.38,0H37.17a8.53,8.53,0,0,0-1.27,0V109a7.42,7.42,0,0,0,1.26.06h1.61v-3.1h-1c-.58,0-.94,0-1.27,0v-1.3a9.7,9.7,0,0,0,1.26.06h3.35a7.11,7.11,0,0,0,1.31-.08V106a11.45,11.45,0,0,0-1.31,0h-1Z"/><path class="cls-5" d="M53,103.2a1.54,1.54,0,0,0-.29.49,6.54,6.54,0,0,1-2.83,3.18,3.91,3.91,0,0,0-1.05-1,5.41,5.41,0,0,1-.58,2.44,5.47,5.47,0,0,1-3,2.42,4.2,4.2,0,0,0-1-1.37,4.41,4.41,0,0,0,2.33-1.44,4.08,4.08,0,0,0,.68-2.76,2.83,2.83,0,0,0,0-.67h1.61a6.12,6.12,0,0,0,0,.84s0,.18,0,.47a4.32,4.32,0,0,0,2.21-2H46.06c-.6,0-1.09,0-1.54.06v-1.5a9.36,9.36,0,0,0,1.56.08h5.16a2.18,2.18,0,0,0,.92-.1Z"/><path class="cls-5" d="M54.65,107.66a1.32,1.32,0,0,0,.27.81,1.62,1.62,0,0,0,1.33.54c.87,0,1.42-.4,1.42-1a.8.8,0,0,0-.39-.72,5.1,5.1,0,0,0-1.71-.55,3.89,3.89,0,0,1-1.56-.6,2.11,2.11,0,0,1-.86-1.76c0-1.47,1.17-2.4,3-2.4a3.13,3.13,0,0,1,2.61,1,2.82,2.82,0,0,1,.51,1.22l-1.76.19a1.22,1.22,0,0,0-.26-.64,1.43,1.43,0,0,0-1.11-.42c-.78,0-1.3.38-1.3,1a.78.78,0,0,0,.34.65,2.93,2.93,0,0,0,.94.33,9.28,9.28,0,0,1,2,.53,2.31,2.31,0,0,1,1,.87,2.29,2.29,0,0,1,.3,1.21c0,1.63-1.14,2.56-3.14,2.56a3.43,3.43,0,0,1-2.79-1,2.81,2.81,0,0,1-.58-1.57Z"/><path class="cls-5" d="M63,102.13a8.27,8.27,0,0,0-.08,1.38v5.36a8.43,8.43,0,0,0,.08,1.38H61.14a8.58,8.58,0,0,0,.08-1.38v-5.36a8.35,8.35,0,0,0-.08-1.38Z"/><path class="cls-5" d="M68.74,110.25a6.7,6.7,0,0,0-.43-1.41l-1.22-3.11c-.12-.3-.26-.76-.47-1.51.06,1,.08,1.36.08,1.61v2.91a9.85,9.85,0,0,0,.08,1.51H65.11a10,10,0,0,0,.09-1.51v-5.09a10.59,10.59,0,0,0-.09-1.52h2.22a6.7,6.7,0,0,0,.37,1.29l1.78,4.65,1.77-4.65a6,6,0,0,0,.37-1.29h2.22a11,11,0,0,0-.08,1.52v5.09a9.29,9.29,0,0,0,.08,1.51H72.17a10.28,10.28,0,0,0,.08-1.51v-2.93c0-.25,0-.64.08-1.59l-.16.63c0,.17-.22.71-.28.85l-1.26,3.15a8.34,8.34,0,0,0-.43,1.4Z"/><path class="cls-3" d="M271.61,175.42c-.42,0-.65,0-1,0V174a7.41,7.41,0,0,0,1.12.06h1.81a7.07,7.07,0,0,0,1.09-.06v1.5a9.29,9.29,0,0,0-1,0h-.24v2.13h.3a4,4,0,0,0,.75-.05v1.43c-.26,0-.5,0-.75,0h-.3v1.91c.45-.19.63-.26,1.21-.54l0,1.45a21.69,21.69,0,0,1-3.43,1.44l-.44.17-.37-1.63a11.11,11.11,0,0,0,1.49-.39v-2.41h-.34a6.6,6.6,0,0,0-.83.05V177.5a5.38,5.38,0,0,0,.86.05h.31v-2.13Zm5.89,5.28a5,5,0,0,1-.91,2.27,5,5,0,0,1-2.74,1.81,4,4,0,0,0-.86-1.3,4.37,4.37,0,0,0,2.27-1.2,2.74,2.74,0,0,0,.73-1.58c-.39,0-.39,0-1.09,0,0-.39,0-.76,0-1.21V175a9.47,9.47,0,0,0,0-1.21,8.61,8.61,0,0,0,1.18.05h3.77a8.75,8.75,0,0,0,1.15-.05,9.31,9.31,0,0,0-.05,1.21v4.45a10.85,10.85,0,0,0,.06,1.32l-.77-.05h-.73V183c0,.14.06.18.35.18s.41,0,.45-.11a5.24,5.24,0,0,0,.12-1.4,6,6,0,0,0,1.31.56c-.12,1.34-.2,1.74-.45,2s-.69.35-1.66.35c-1.35,0-1.63-.17-1.63-1V180.7Zm-1.09-4.95h3v-.63h-3Zm0,1.84h3V177h-3Zm0,1.86h3v-.66h-3Z"/><path class="cls-3" d="M292,174.84a11.41,11.41,0,0,0,1.5-.07v1.63a12.79,12.79,0,0,0-1.5-.07h-4.82a13.07,13.07,0,0,1-1.56,2.46v4.37a10.56,10.56,0,0,0,.06,1.45H284a11.06,11.06,0,0,0,.07-1.45v-2.72c-.36.33-.46.42-.82.71a5.45,5.45,0,0,0-.94-1.5,11.61,11.61,0,0,0,1.76-1.5,4.71,4.71,0,0,0,0-.7h.65a8.66,8.66,0,0,0,.74-1.12H284.1a12.5,12.5,0,0,0-1.49.07v-1.63a11.34,11.34,0,0,0,1.49.07h2a7,7,0,0,0,.43-1.51l1.78.29a2.45,2.45,0,0,0-.24.62c-.09.23-.15.37-.23.6Zm-.36,3.87a9.11,9.11,0,0,0,1.33-.07v1.57c-.36,0-.77-.06-1.34-.06h-1.32v2.61H292a8.25,8.25,0,0,0,1.39-.08v1.6a11.9,11.9,0,0,0-1.4-.07h-4.63a11.13,11.13,0,0,0-1.4.07v-1.6a10,10,0,0,0,1.39.08h1.38v-2.61h-1.1c-.57,0-1,0-1.34.06v-1.57a9.11,9.11,0,0,0,1.33.07h1.11v-.64a9.55,9.55,0,0,0-.06-1.24h1.7a7.34,7.34,0,0,0-.06,1.27v.61Z"/><path class="cls-3" d="M298.5,179.55c-.73.59-1.08,1.09-1.08,1.56,0,.7.83,1,2.7,1a12.89,12.89,0,0,0,3.9-.53l.13,2a8.88,8.88,0,0,0-1.08.11,19.43,19.43,0,0,1-2.71.19,9,9,0,0,1-3.15-.4,2.13,2.13,0,0,1-1.61-2.08,3.47,3.47,0,0,1,1.63-2.74Zm-2.12-5.17a17.43,17.43,0,0,0,3.87.3,16.46,16.46,0,0,0,3.14-.21l.06,1.58a23.66,23.66,0,0,0-3.27,2l-1.22-.91c.42-.28,1.23-.78,1.58-1a10.66,10.66,0,0,1-1.37.07,23.57,23.57,0,0,1-2.48-.14,1.85,1.85,0,0,0-.42,0Zm6.26,2.65a6.28,6.28,0,0,1,1.07,1.52l-1,.57a6.15,6.15,0,0,0-1.07-1.53Zm1.32-.72a7.31,7.31,0,0,1,1.07,1.46l-1,.56a7.89,7.89,0,0,0-1.05-1.49Z"/><path class="cls-3" d="M308.77,175.67c-.76.13-1,.17-1.59.25a6.66,6.66,0,0,0-.5-1.39,18.45,18.45,0,0,0,3-.52,6.15,6.15,0,0,0,1.62-.57l.91,1.33c-.84.27-1.28.41-1.9.57v1.39h.85a7.12,7.12,0,0,0,1,0v1.51a7.59,7.59,0,0,0-1-.05h-.76a6.68,6.68,0,0,0,1.87,2.05,6.84,6.84,0,0,0-.72,1.43,5.88,5.88,0,0,1-1.26-1.67c0,.35.05.74.05,1.26v1.87a10.87,10.87,0,0,0,.07,1.55h-1.68a11.07,11.07,0,0,0,.08-1.55v-1.73c0-.39,0-.85,0-1.2a7.08,7.08,0,0,1-1.64,2.64,8,8,0,0,0-.77-1.53,6.45,6.45,0,0,0,1.19-1.42,10.7,10.7,0,0,0,.88-1.7h-.7a6.64,6.64,0,0,0-1.08.06v-1.52a8.1,8.1,0,0,0,1.1,0h1Zm5.58-1.31a11.87,11.87,0,0,0-.06,1.5v4.49a10.38,10.38,0,0,0,.06,1.45h-1.67a9.24,9.24,0,0,0,.06-1.42v-4.52a11.71,11.71,0,0,0-.07-1.5Zm2.8-.74a13.76,13.76,0,0,0-.08,1.69v7.63c0,.74-.21,1.17-.66,1.36a5.4,5.4,0,0,1-1.83.19l-.8,0a6.59,6.59,0,0,0-.5-1.58c.7.07,1.2.11,1.6.11s.65-.06.65-.38v-7.31c0-.58,0-1.11-.08-1.69Z"/><path class="cls-3" d="M324.91,182.79a11.15,11.15,0,0,0,.06,1.48h-1.65a12.11,12.11,0,0,0,.07-1.47V181h-2.53a8.29,8.29,0,0,1-1.18,3.71,9.34,9.34,0,0,0-1.39-1.15c1-1.52,1.16-2.78,1.16-8.1,0-.7,0-1.14-.05-1.59a13.62,13.62,0,0,0,1.4,0h6.85a13.07,13.07,0,0,0,1.44,0,13.19,13.19,0,0,0,0,1.44v7.86c0,1.05-.41,1.35-1.84,1.35-.33,0-.93,0-1.3,0a5.53,5.53,0,0,0-.41-1.47c.55,0,1.07.08,1.42.08s.57,0,.57-.28V181h-2.57ZM321,178.13c0,.51,0,.78,0,1.41h2.44v-1.41Zm2.4-2.77H321v1.36h2.38Zm4.09,1.36v-1.36h-2.57v1.36Zm-2.57,2.82h2.57v-1.41h-2.57Z"/><path class="cls-3" d="M335.12,174.78a7.88,7.88,0,0,0-.07-1.33h1.79a8.39,8.39,0,0,0-.07,1.27v.67h3.16a9.07,9.07,0,0,0,1.18,0,8.45,8.45,0,0,0-.05,1.11v3.8a8.18,8.18,0,0,0,.06,1.25h-1.65v-.68h-2.7v2.28a10.11,10.11,0,0,0,.08,1.55H335a11.07,11.07,0,0,0,.08-1.55v-2.28h-2.57v.68h-1.66a9,9,0,0,0,.06-1.25v-3.82a8.88,8.88,0,0,0-.05-1.09,9.73,9.73,0,0,0,1.15,0h3.07Zm-2.57,2.11v2.44h2.57v-2.44Zm6.92,2.44v-2.44h-2.7v2.44Z"/><path class="cls-3" d="M347.8,181c-.68,1.53-1.47,2.23-2.5,2.23-1.49,0-2.54-1.45-2.54-3.51a5.19,5.19,0,0,1,1.34-3.56,5.56,5.56,0,0,1,4.22-1.73c3,0,4.93,1.8,4.93,4.61a4.69,4.69,0,0,1-3,4.62,8.61,8.61,0,0,1-1.9.5,5.08,5.08,0,0,0-.89-1.71,5.9,5.9,0,0,0,2.37-.57,3.29,3.29,0,0,0,1.66-3,2.93,2.93,0,0,0-1.28-2.51,2.33,2.33,0,0,0-1.12-.38A17,17,0,0,1,347.8,181Zm-1.91-4.34a3.94,3.94,0,0,0-1.48,3.07c0,.9.39,1.63.86,1.63s.72-.47,1.1-1.44a15.37,15.37,0,0,0,1-3.86A2.67,2.67,0,0,0,345.89,176.65Z"/><path class="cls-3" d="M272.67,189.86c-.57,0-.89,0-1.3,0v-1.28c.46,0,.9.07,1.43.07h6.39c.55,0,1,0,1.42-.07v1.28c-.41,0-.7,0-1.28,0h-2.67v.38h3.08c.88,0,1.21,0,1.56-.05a8.89,8.89,0,0,0-.05,1V192a6.61,6.61,0,0,0,.06,1h-1.46v-1.64h-3.19v1.09a7.56,7.56,0,0,0,0,1.11h-1.63a8.61,8.61,0,0,0,.06-1.11v-1.09h-3V193h-1.46a5.53,5.53,0,0,0,.06-1v-.78a7.34,7.34,0,0,0,0-1c.35,0,.69.05,1.56.05h2.92v-.38Zm7.71,7.28a4.78,4.78,0,0,0,1.22.39,3.81,3.81,0,0,1-.18,1.11c-.29.78-.77.9-3.51.9-2.38,0-2.75-.13-2.75-1v-.74h-2.07v.52h-1.58a9.54,9.54,0,0,0,.08-1.26V195a10.8,10.8,0,0,0-.06-1.2,9.36,9.36,0,0,0,1.18.05h6.49a9.76,9.76,0,0,0,1.23-.05,9.52,9.52,0,0,0-.05,1.2v2.18Zm-7.83-5.53a2.77,2.77,0,0,0,.57,0h1a4.14,4.14,0,0,0,.57,0v.78a4.46,4.46,0,0,0-.57,0h-1l-.57,0Zm0,1.08a2.77,2.77,0,0,0,.57,0h1a3.94,3.94,0,0,0,.57,0v.78a4.13,4.13,0,0,0-.57,0h-1a4.71,4.71,0,0,0-.57,0Zm.55,2.13v.48h2.06v-.48Zm0,1.42v.52h2.06v-.52Zm3.55-.94h2.22v-.48h-2.22Zm0,1.46h2.22v-.52h-2.22Zm0,1.33c0,.13.05.18.2.22a12.51,12.51,0,0,0,1.44.07,5.54,5.54,0,0,0,1.54-.13c.13-.06.19-.17.21-.43h-3.39Zm.47-6.49a2.77,2.77,0,0,0,.57,0h1.19c.27,0,.42,0,.56,0v.78h-.06a3.2,3.2,0,0,0-.5,0h-1.19a5,5,0,0,0-.57,0Zm0,1.09a2.88,2.88,0,0,0,.57,0h1.19a3.69,3.69,0,0,0,.56,0v.78a3.89,3.89,0,0,0-.56,0h-1.19a4.8,4.8,0,0,0-.57,0Z"/><path class="cls-3" d="M282.54,190.4a5.26,5.26,0,0,0,1,.06H286a7.83,7.83,0,0,0,1,0v1.38a5.35,5.35,0,0,0-.92,0h-2.54a6.86,6.86,0,0,0-1,.05Zm1.84,9.21H282.9a7.73,7.73,0,0,0,.06-1.12v-2a6.63,6.63,0,0,0,0-.92c.3,0,.53,0,.92,0h2.23a3.43,3.43,0,0,0,.76,0c0,.23,0,.4,0,.83v2.1a7,7,0,0,0,0,.91h-1.41v-.37h-1.05Zm-1.47-10.87a9.72,9.72,0,0,0,1,0h1.77a9.84,9.84,0,0,0,1,0V190c-.3,0-.55,0-1,0H284c-.46,0-.76,0-1,0Zm0,3.49a7.29,7.29,0,0,0,.76,0H286a6.61,6.61,0,0,0,.74,0v1.26a5.13,5.13,0,0,0-.74,0h-2.32a4.07,4.07,0,0,0-.76,0Zm0,1.69a5.41,5.41,0,0,0,.76,0H286a4.82,4.82,0,0,0,.74,0v1.26a4.07,4.07,0,0,0-.76,0H283.7a3.9,3.9,0,0,0-.75,0Zm1.39,3.94h1.09v-1h-1.09Zm5.09-7.3c-.75.1-.95.12-2,.22a5,5,0,0,0-.5-1.41,16.36,16.36,0,0,0,5.63-1l.85,1.38-.35.1c-.52.14-1.44.36-2.12.49v1.51h1.21a10.32,10.32,0,0,0,1.37-.07v1.54a13.25,13.25,0,0,0-1.37-.07h-1.21v1.36h1.28c.41,0,.67,0,.89,0a9.14,9.14,0,0,0,0,1v2.72c0,.49,0,1,.06,1.32h-1.59v-.52h-2.62v.52h-1.56a10.1,10.1,0,0,0,0-1.26v-2.88a9,9,0,0,0,0-.91c.27,0,.53,0,.89,0h1.18v-1.36h-1a12.51,12.51,0,0,0-1.37.07v-1.54a10.49,10.49,0,0,0,1.38.07h.95Zm-.52,7.12h2.62V196h-2.62Z"/><path class="cls-3" d="M301.58,191.39a6.36,6.36,0,0,0,.63-1.39l1.56.22c-.09.17-.16.29-.2.38s-.15.28-.18.32a2.45,2.45,0,0,1-.26.47H304a9,9,0,0,0,1.37-.08v1.43a11,11,0,0,0-1.37-.07h-1.69a8.67,8.67,0,0,0,3.44,1.82,6.05,6.05,0,0,0-.79,1.43c-.37-.18-.47-.23-.89-.47v2.86a12.3,12.3,0,0,0,.06,1.33h-1.54v-.5h-5.1v.5h-1.56a10.74,10.74,0,0,0,.07-1.32v-2.84c-.3.16-.43.25-.81.45a4.6,4.6,0,0,0-.81-1.38,8.56,8.56,0,0,0,3.27-1.88H296a10.62,10.62,0,0,0-1.37.07v-1.43a9.47,9.47,0,0,0,1.37.08h.79a.75.75,0,0,1-.06-.13c-.06-.12-.11-.21-.13-.26a2.05,2.05,0,0,0-.2-.37l1.37-.33c.12.21.36.72.52,1.09h.91v-1.18c-1.26.07-2.46.12-3.6.12A4.66,4.66,0,0,0,295,189l1,0c1.5,0,2.46,0,4.44-.22a19.4,19.4,0,0,0,3.2-.47l1.08,1.3-.42,0-.33,0c-.6.09-1.67.2-3.34.35v1.3ZM297.47,196h1.77v-.64h-1.77Zm0,1.84h1.77v-.63h-1.77Zm1.74-4.75a3.54,3.54,0,0,1,0-.4,8.74,8.74,0,0,1-1.35,1.44h1.33Zm2.9,1a8.64,8.64,0,0,1-1.45-1.45c0,.13,0,.13,0,.18a1.58,1.58,0,0,1,0,.19v1.08Zm-1.43,1.88h1.89v-.63h-1.89Zm0,1.83h1.89v-.63h-1.89Z"/><path class="cls-3" d="M308,194.3a13.65,13.65,0,0,0-1.46.07v-1.51a11.24,11.24,0,0,0,1.49.07h8.12a11.31,11.31,0,0,0,1.5-.07v1.51a14.06,14.06,0,0,0-1.5-.07h-5.32c-.12.29-.19.47-.3.71h4.55a9.06,9.06,0,0,0,1.19,0c0,.14,0,.21-.09.72a7.84,7.84,0,0,1-.68,3.09,1.52,1.52,0,0,1-.82.62,5.53,5.53,0,0,1-1.6.14c-.69,0-1.06,0-1.7-.06-.08-.12-.08-.14-.1-.47a3.69,3.69,0,0,0-.35-1,21.37,21.37,0,0,0,2.19.14c.59,0,.84-.06,1-.25a3.68,3.68,0,0,0,.38-1.53h-4.6c-.19.32-.25.43-.52.86l-1.71-.31a11.88,11.88,0,0,0,1.49-2.57Zm0-4.51a10,10,0,0,0,0-1,12.78,12.78,0,0,0,1.36.05h5.52a11.35,11.35,0,0,0,1.37-.05,7.61,7.61,0,0,0-.05,1v1.54a7.57,7.57,0,0,0,.05,1c-.39,0-.58,0-1.24,0h-5.79c-.64,0-.84,0-1.22,0,0-.32,0-.61,0-1Zm1.54.34v1h5v-1Z"/><path class="cls-3" d="M323.8,196c-.68,1.53-1.47,2.23-2.5,2.23-1.49,0-2.54-1.45-2.54-3.51a5.19,5.19,0,0,1,1.34-3.56,5.56,5.56,0,0,1,4.22-1.73c3,0,4.93,1.8,4.93,4.61a4.69,4.69,0,0,1-3,4.62,8.61,8.61,0,0,1-1.9.5,5.08,5.08,0,0,0-.89-1.71,5.9,5.9,0,0,0,2.37-.57,3.29,3.29,0,0,0,1.66-3,2.93,2.93,0,0,0-1.28-2.51,2.33,2.33,0,0,0-1.12-.38A17,17,0,0,1,323.8,196Zm-1.91-4.34a3.94,3.94,0,0,0-1.48,3.07c0,.9.39,1.63.86,1.63s.72-.47,1.1-1.44a15.37,15.37,0,0,0,1-3.86A2.67,2.67,0,0,0,321.89,191.65Z"/><path class="cls-3" d="M340,198.86a4.94,4.94,0,0,0-.57-.55,8.94,8.94,0,0,0-2.15-1.38,1.49,1.49,0,0,1,0,.19c0,1.38-.91,2-2.83,2s-2.86-.73-2.86-2S332.85,195,335,195c.21,0,.35,0,.6,0l0-1H334.5c-.78,0-1.19,0-2.28-.07h-.48v-1.54a16,16,0,0,0,2.79.19h1v-1h-.64c-.45,0-1.47,0-3-.12h-.49l0-1.6a15.48,15.48,0,0,0,3.29.27l.83,0a6.43,6.43,0,0,0-.08-1.41h1.82a5.31,5.31,0,0,0-.1,1.35,16.49,16.49,0,0,0,3.44-.43l.05,1.57c-.29,0-.29,0-1,.11-.93.12-1.69.19-2.5.23,0,.47,0,.79,0,1a15.6,15.6,0,0,0,3.15-.41l0,1.58-.25,0h-.2c-.17,0-.17,0-.89.1s-1.36.12-1.84.14c0,.65,0,1.07,0,1.25a10.52,10.52,0,0,1,3.29,1.67,4.54,4.54,0,0,0,.44.28Zm-5.24-2.44c-.84,0-1.36.27-1.36.7s.42.6,1.13.6,1.11-.25,1.11-.95c0-.09,0-.24,0-.24A3.35,3.35,0,0,0,334.72,196.42Z"/><path class="cls-3" d="M352,198.86a4.94,4.94,0,0,0-.57-.55,8.94,8.94,0,0,0-2.15-1.38,1.49,1.49,0,0,1,0,.19c0,1.38-.91,2-2.83,2s-2.86-.73-2.86-2S344.85,195,347,195c.21,0,.35,0,.6,0l0-1H346.5c-.78,0-1.19,0-2.28-.07h-.48v-1.54a16,16,0,0,0,2.79.19h1v-1h-.64c-.45,0-1.47,0-3-.12h-.49l0-1.6a15.48,15.48,0,0,0,3.29.27l.83,0a6.43,6.43,0,0,0-.08-1.41h1.82a5.31,5.31,0,0,0-.1,1.35,16.49,16.49,0,0,0,3.44-.43l.05,1.57c-.29,0-.29,0-1,.11-.93.12-1.69.19-2.5.23,0,.47,0,.79,0,1a15.6,15.6,0,0,0,3.15-.41l0,1.58-.25,0h-.2c-.17,0-.17,0-.89.1s-1.36.12-1.84.14c0,.65,0,1.07,0,1.25a10.52,10.52,0,0,1,3.29,1.67,4.54,4.54,0,0,0,.44.28Zm-5.24-2.44c-.84,0-1.36.27-1.36.7s.42.6,1.13.6,1.11-.25,1.11-.95c0-.09,0-.24,0-.24A3.35,3.35,0,0,0,346.72,196.42Z"/><rect class="cls-2" x="35.83" y="53.92" width="32.14" height="36.88"/><path class="cls-5" d="M69.11,50.62,57.62,39.13A3.81,3.81,0,0,0,54.93,38H35.41a2.53,2.53,0,0,0-2.53,2.53V91.18a2.53,2.53,0,0,0,2.53,2.53H67.69a2.53,2.53,0,0,0,2.53-2.53V53.3A3.78,3.78,0,0,0,69.11,50.62ZM45.69,86.17a.88.88,0,0,1-.88.89H39.76a.88.88,0,0,1-.88-.89v-4.5a.88.88,0,0,1,.88-.89h5.05a.88.88,0,0,1,.88.89Zm0-9.09a.88.88,0,0,1-.88.89H39.76a.88.88,0,0,1-.88-.89v-4.5a.88.88,0,0,1,.88-.89h5.05a.88.88,0,0,1,.88.89Zm8.46,9.19a.89.89,0,0,1-.89.89H49.52a.88.88,0,0,1-.88-.89V69.14a.89.89,0,0,0-.89-.89h-8a.88.88,0,0,1-.88-.89V63.49a.88.88,0,0,1,.88-.89l13.5-.06a.88.88,0,0,1,.89.88Zm10-.1a.89.89,0,0,1-.89.89h-5a.89.89,0,0,1-.89-.89v-4.5a.89.89,0,0,1,.89-.89h5a.89.89,0,0,1,.89.89Zm0-9.09a.89.89,0,0,1-.89.89h-5a.89.89,0,0,1-.89-.89v-4.5a.89.89,0,0,1,.89-.89h5a.89.89,0,0,1,.89.89Zm0-9.08a.88.88,0,0,1-.89.88h-5a.88.88,0,0,1-.89-.88V63.49a.89.89,0,0,1,.89-.89h5a.89.89,0,0,1,.89.89Z"/><rect class="cls-2" x="294.94" y="53.92" width="32.14" height="36.88"/><path class="cls-6" d="M328.22,50.62,316.73,39.13A3.8,3.8,0,0,0,314.05,38H294.52A2.53,2.53,0,0,0,292,40.55V91.18a2.53,2.53,0,0,0,2.53,2.53H326.8a2.53,2.53,0,0,0,2.53-2.53V53.3A3.78,3.78,0,0,0,328.22,50.62ZM304.81,86.17a.89.89,0,0,1-.89.89h-5.05a.89.89,0,0,1-.88-.89v-4.5a.89.89,0,0,1,.88-.89h5.05a.89.89,0,0,1,.89.89Zm0-9.09a.89.89,0,0,1-.89.89h-5.05a.89.89,0,0,1-.88-.89v-4.5a.89.89,0,0,1,.88-.89h5.05a.89.89,0,0,1,.89.89Zm8.45,9.19a.89.89,0,0,1-.89.89h-3.74a.88.88,0,0,1-.88-.89V69.14a.89.89,0,0,0-.89-.89h-8a.89.89,0,0,1-.88-.89V63.49a.88.88,0,0,1,.88-.89l13.5-.06a.88.88,0,0,1,.89.88Zm10-.1a.89.89,0,0,1-.89.89h-5a.89.89,0,0,1-.89-.89v-4.5a.89.89,0,0,1,.89-.89h5a.89.89,0,0,1,.89.89Zm0-9.09a.89.89,0,0,1-.89.89h-5a.89.89,0,0,1-.89-.89v-4.5a.89.89,0,0,1,.89-.89h5a.89.89,0,0,1,.89.89Zm0-9.08a.88.88,0,0,1-.89.88h-5a.88.88,0,0,1-.89-.88V63.49a.89.89,0,0,1,.89-.89h5a.89.89,0,0,1,.89.89Z"/><path class="cls-6" d="M284.77,109.15a6.36,6.36,0,0,0,.06.87h-1.28a6.81,6.81,0,0,0,.06-.93v-.49h-.77a6,6,0,0,0-1,.06v-1.21a5.71,5.71,0,0,0,.94,0h.84V107h-.44c-.45,0-.66,0-1,0,0-.36,0-.69,0-1.19v-1.7c0-.5,0-.73,0-1.08a9,9,0,0,0,1,0h.45v-.46h-.76a8.42,8.42,0,0,0-1,0v-1.18a6.46,6.46,0,0,0,1,0h.7v-.08a4.93,4.93,0,0,0-.06-.78h1.28a4.58,4.58,0,0,0-.06.78v.08h.61a6.32,6.32,0,0,0,1,0v1.18a5.67,5.67,0,0,0-.93,0h-.68v.46h.62a7,7,0,0,0,.82,0,9.56,9.56,0,0,0,0,1v1.86c0,.65,0,.89,0,1.12-.22,0-.36,0-.86,0h-.58v.48h.74a4.88,4.88,0,0,0,.81,0v1l.4,0a21.82,21.82,0,0,0,.7-3.32,6.42,6.42,0,0,0-1,.05v-1.28a7.17,7.17,0,0,0,1,0H290a7.1,7.1,0,0,0,1,0v1.28a9.49,9.49,0,0,0-1-.05h-1.31l-.18.91c-.14.72-.31,1.47-.55,2.29.66-.08.8-.1,1.47-.22-.26-.77-.39-1.11-.69-1.83l1.08-.44a23.81,23.81,0,0,1,1.31,3.61L290,110c-.11-.44-.12-.49-.22-.87a21.37,21.37,0,0,1-2.46.49,10.65,10.65,0,0,0-1.1.21l-.2-1.2-.62,0h-.62Zm-1.61-5.05v.51h.54v-.51Zm0,1.42v.5h.54v-.5Zm2-.91v-.51h-.51v.51Zm0,1.41v-.5h-.51v.5Zm1.56-4.74a6.4,6.4,0,0,0,1,0h1.95a6.4,6.4,0,0,0,1,0v1.27l-.24,0-.76,0h-1.95a6.64,6.64,0,0,0-1,0Z"/><path class="cls-6" d="M295.72,101.81a6.57,6.57,0,0,0-.06-1h1.47a7.12,7.12,0,0,0-.06,1v2H299v-1.52a6.54,6.54,0,0,0,0-.81h1.41a6.31,6.31,0,0,0-.05.91v2a6.21,6.21,0,0,0,0,.69c-.2,0-.46,0-.74,0h-2.52v3.12h2.24v-1.55a7.31,7.31,0,0,0,0-.86h1.41a8.76,8.76,0,0,0-.05,1v2.1a7,7,0,0,0,.06,1.08h-1.38v-.48h-5.7V110h-1.37a8.43,8.43,0,0,0,.06-1.08V106.8a8.76,8.76,0,0,0-.05-1h1.4a6.39,6.39,0,0,0,0,.86v1.53h2.11v-3.12h-2.34c-.31,0-.54,0-.77,0a4.93,4.93,0,0,0,0-.69v-2a8.51,8.51,0,0,0,0-.92H294a6.21,6.21,0,0,0,0,.82v1.51h1.76Z"/><path class="cls-6" d="M303.87,103.39a5.45,5.45,0,0,1-1,1.16,4.1,4.1,0,0,0-1-.87,5.3,5.3,0,0,0,1.41-1.72,4.17,4.17,0,0,0,.43-1.16l1.33.3-.32.75c0,.09-.06.13-.15.32h1.27v-.41a8.05,8.05,0,0,0-.06-1h1.46a6.27,6.27,0,0,0-.06,1v.41h1.95a8.58,8.58,0,0,0,1.14-.06v1.34a8.47,8.47,0,0,0-1.14-.06h-1.95v1.18h2.61a9.19,9.19,0,0,0,1.17,0v1.35a9.42,9.42,0,0,0-1.17-.06H308v2.65c0,.19.12.23.64.23s.79,0,.9-.17a3.69,3.69,0,0,0,.18-1.54,4.58,4.58,0,0,0,1.27.44,3.56,3.56,0,0,1-.45,2c-.31.39-.77.5-2.15.5a3.68,3.68,0,0,1-1.15-.11.7.7,0,0,1-.51-.75v-3.25h-.93a4.46,4.46,0,0,1-.8,2.61,5.31,5.31,0,0,1-2.54,1.73,4.73,4.73,0,0,0-.75-1.23,4.35,4.35,0,0,0,1.93-1,2.75,2.75,0,0,0,.82-2.1h-1.33a9.07,9.07,0,0,0-1.15.06v-1.35a8.94,8.94,0,0,0,1.15,0h2.71v-1.18Z"/><path class="cls-6" d="M316.23,107c-.56,1.27-1.22,1.86-2.08,1.86-1.24,0-2.11-1.21-2.11-2.93a4.33,4.33,0,0,1,1.11-3,4.64,4.64,0,0,1,3.52-1.44c2.51,0,4.11,1.5,4.11,3.83a3.92,3.92,0,0,1-2.51,3.86,7.14,7.14,0,0,1-1.59.41,4.1,4.1,0,0,0-.74-1.42,5,5,0,0,0,2-.48,2.74,2.74,0,0,0,1.38-2.45,2.43,2.43,0,0,0-1.07-2.09,2,2,0,0,0-.93-.32A14,14,0,0,1,316.23,107Zm-1.59-3.61a3.26,3.26,0,0,0-1.23,2.55c0,.75.33,1.36.71,1.36s.6-.39.92-1.2a12.8,12.8,0,0,0,.8-3.21A2.25,2.25,0,0,0,314.64,103.38Z"/><path class="cls-6" d="M323.57,106.78a1.32,1.32,0,0,0,.26.81,1.62,1.62,0,0,0,1.33.54c.87,0,1.42-.4,1.42-1a.8.8,0,0,0-.39-.72,5.1,5.1,0,0,0-1.71-.55,4,4,0,0,1-1.55-.59,2.13,2.13,0,0,1-.86-1.77c0-1.47,1.17-2.4,3-2.4a3.13,3.13,0,0,1,2.61,1,2.82,2.82,0,0,1,.51,1.22l-1.76.19a1.22,1.22,0,0,0-.26-.64,1.43,1.43,0,0,0-1.11-.42c-.78,0-1.29.38-1.29,1a.77.77,0,0,0,.33.65,2.93,2.93,0,0,0,.94.33,9.28,9.28,0,0,1,2,.53,2.31,2.31,0,0,1,1,.87,2.29,2.29,0,0,1,.3,1.21c0,1.63-1.14,2.56-3.14,2.56a3.44,3.44,0,0,1-2.79-1,2.89,2.89,0,0,1-.57-1.57Z"/><path class="cls-6" d="M331.29,101.25a8.27,8.27,0,0,0-.08,1.38V108a8.43,8.43,0,0,0,.08,1.38h-1.83a8.58,8.58,0,0,0,.08-1.38v-5.36a8.35,8.35,0,0,0-.08-1.38Z"/><path class="cls-6" d="M336.45,109.37A6.7,6.7,0,0,0,336,108l-1.22-3.11c-.12-.3-.26-.76-.47-1.51.07,1,.08,1.36.08,1.61v2.91a9.85,9.85,0,0,0,.08,1.51h-1.66a10.19,10.19,0,0,0,.08-1.51v-5.09a10.78,10.78,0,0,0-.08-1.52H335a6.7,6.7,0,0,0,.37,1.29l1.78,4.65,1.77-4.65a6,6,0,0,0,.37-1.29h2.22a11,11,0,0,0-.08,1.52v5.09a9.29,9.29,0,0,0,.08,1.51h-1.67a10.28,10.28,0,0,0,.08-1.51v-2.93c0-.25,0-.64.08-1.59l-.16.63c-.05.17-.22.71-.28.85L338.34,108a8.34,8.34,0,0,0-.43,1.4Z"/></svg>