<svg id="レイヤー_1" data-name="レイヤー 1" xmlns="http://www.w3.org/2000/svg" viewBox="0 0 187 150"><defs><style>.cls-1{fill:#47a8e0;}.cls-2{fill:#323689;}.cls-3{fill:#e69937;}</style></defs><title>big-icon-family</title><ellipse class="cls-1" cx="38.18" cy="41.74" rx="11.27" ry="11.34"/><path class="cls-2" d="M38.18,55.23A13.5,13.5,0,1,1,51.6,41.74,13.48,13.48,0,0,1,38.18,55.23Zm0-22.67a9.18,9.18,0,1,0,9.12,9.18A9.15,9.15,0,0,0,38.18,32.56Z"/><path class="cls-1" d="M72,94.64l-8-22.08A18,18,0,0,0,46.79,59.83H29.57a18,18,0,0,0-17.22,13l-9.93,27.9A5,5,0,0,0,6,107.06l.77.23a5.62,5.62,0,0,0,6.93-3.23l8-22.59h1.77v61.28a5.08,5.08,0,0,0,5.06,5.09h1.66a5.08,5.08,0,0,0,5.06-5.09v-28.2h5.92v28.17a5.06,5.06,0,0,0,5.06,5.08h1.62a5.07,5.07,0,0,0,5.06-5.08V81.47h1.84l6,16.58c.76,2.08,3.71,3,6.59,2.18l.77-.24C71,99.12,72.75,96.72,72,94.64Z"/><path class="cls-2" d="M30.18,150H28.52a7.23,7.23,0,0,1-7.21-7.25V89l-5.63,15.84a7.8,7.8,0,0,1-9.57,4.57l-.77-.23a7.58,7.58,0,0,1-4.6-3.76A6.79,6.79,0,0,1,.4,100l9.9-27.85A20.25,20.25,0,0,1,29.57,57.67H46.79A20.29,20.29,0,0,1,66,71.87l8,22a5.35,5.35,0,0,1-.29,4.23,8,8,0,0,1-5,3.93l-.77.23c-4,1.22-8.08-.32-9.24-3.5l-3.71-10.2v54.13A7.24,7.24,0,0,1,47.84,150H46.22A7.23,7.23,0,0,1,39,142.72v-26H37.39v26A7.23,7.23,0,0,1,30.18,150ZM21.69,79.31h1.77a2.16,2.16,0,0,1,2.15,2.16v61.28a2.92,2.92,0,0,0,2.91,2.93h1.66a2.92,2.92,0,0,0,2.91-2.93v-28.2a2.15,2.15,0,0,1,2.15-2.15h5.92a2.15,2.15,0,0,1,2.15,2.15v28.17a2.92,2.92,0,0,0,2.91,2.92h1.62a2.91,2.91,0,0,0,2.9-2.92V81.47a2.16,2.16,0,0,1,2.16-2.16h1.84a2.15,2.15,0,0,1,2,1.42l6.05,16.58c.31.85,2.1,1.41,3.94.85l.77-.23a3.87,3.87,0,0,0,2.35-1.72,1,1,0,0,0,.1-.83h0l-8-22.08a.42.42,0,0,0,0-.1A16,16,0,0,0,46.79,62H29.57A15.91,15.91,0,0,0,14.42,73.43a.76.76,0,0,0,0,.11L4.45,101.45a2.47,2.47,0,0,0,.13,2,3.21,3.21,0,0,0,2,1.58l.77.23a3.49,3.49,0,0,0,4.29-1.88l8-22.6A2.16,2.16,0,0,1,21.69,79.31Z"/><ellipse class="cls-1" cx="151.6" cy="41.74" rx="11.27" ry="11.34"/><path class="cls-2" d="M151.6,55.23A13.5,13.5,0,1,1,165,41.74,13.47,13.47,0,0,1,151.6,55.23Zm0-22.67a9.18,9.18,0,1,0,9.12,9.18A9.15,9.15,0,0,0,151.6,32.56Z"/><path class="cls-1" d="M184.58,100.72,174.52,72.46l-.05,0a16.92,16.92,0,0,0-16.28-12.65H145a16.94,16.94,0,0,0-16.28,12.59l-.06,0-8.11,22.24c-.76,2.08,1,4.48,3.85,5.35l.77.24c2.88.87,5.83-.1,6.59-2.18l6-16.58h1.68l-9.66,39.08h7v22.17a5.07,5.07,0,0,0,5.06,5.08h1.62a5.06,5.06,0,0,0,5.06-5.08V120.55h5.92v22.2a5.08,5.08,0,0,0,5.06,5.09h1.66a5.08,5.08,0,0,0,5.06-5.09v-22.2h6.08l-9.15-39.08h2.06l8,22.59a5.62,5.62,0,0,0,6.93,3.23l.77-.23A5,5,0,0,0,184.58,100.72Z"/><path class="cls-2" d="M161.26,150H159.6a7.23,7.23,0,0,1-7.21-7.25v-20h-1.62v20a7.23,7.23,0,0,1-7.21,7.24h-1.62a7.24,7.24,0,0,1-7.21-7.24v-20h-4.89a2.13,2.13,0,0,1-1.69-.83,2.15,2.15,0,0,1-.4-1.85l4.77-19.26a8.07,8.07,0,0,1-8,1.52l-.77-.23a8,8,0,0,1-5-3.93,5.35,5.35,0,0,1-.29-4.23l8.11-22.24a2.21,2.21,0,0,1,.16-.35A19.08,19.08,0,0,1,145,57.67h13.17a19,19,0,0,1,18.23,13.78,2.55,2.55,0,0,1,.13.29l10,28.26a6.79,6.79,0,0,1-.34,5.37,7.58,7.58,0,0,1-4.6,3.76l-.77.23a7.8,7.8,0,0,1-9.57-4.57l-1.18-3.34,4.35,18.61a2.16,2.16,0,0,1-2.1,2.65h-3.92v20A7.23,7.23,0,0,1,161.26,150Zm-12.64-31.61h5.92a2.16,2.16,0,0,1,2.15,2.16v22.2a2.92,2.92,0,0,0,2.91,2.93h1.66a2.92,2.92,0,0,0,2.91-2.93v-22.2a2.16,2.16,0,0,1,2.15-2.16h3.36L161.16,82a2.16,2.16,0,0,1,2.09-2.65h2.06a2.16,2.16,0,0,1,2,1.43l8,22.6a3.49,3.49,0,0,0,4.29,1.88l.77-.23a3.21,3.21,0,0,0,2-1.58,2.47,2.47,0,0,0,.13-2h0l-9.91-27.86a2.18,2.18,0,0,1-.25-.56,14.74,14.74,0,0,0-14.2-11H145a14.76,14.76,0,0,0-14.2,11,2.37,2.37,0,0,1-.3.67l-7.93,21.73a1,1,0,0,0,.1.83A3.86,3.86,0,0,0,125,97.92l.77.24c1.84.56,3.63,0,3.94-.85l6.05-16.58a2.15,2.15,0,0,1,2-1.42h1.68A2.15,2.15,0,0,1,141.59,82l-9,36.4h4.29a2.16,2.16,0,0,1,2.16,2.16v22.17a2.91,2.91,0,0,0,2.9,2.92h1.62a2.91,2.91,0,0,0,2.91-2.92V120.55A2.16,2.16,0,0,1,148.62,118.39Z"/><ellipse class="cls-1" cx="95.04" cy="82.67" rx="8.34" ry="8.39"/><path class="cls-2" d="M95,93.22a10.55,10.55,0,1,1,10.49-10.55A10.54,10.54,0,0,1,95,93.22Zm0-16.78a6.23,6.23,0,1,0,6.19,6.23A6.21,6.21,0,0,0,95,76.44Z"/><path class="cls-1" d="M123.18,95.75l-.27-.6c-1-2.28-3.37-3.55-5.25-2.82L105,97.22H85l-12.7-4.89c-1.88-.73-4.23.54-5.25,2.82l-.27.6c-1,2.28-.32,4.72,1.56,5.44l15.83,6.1v36A3.84,3.84,0,0,0,88,147.13h.39a3.84,3.84,0,0,0,3.82-3.85V130.93h5.73v12.35a3.84,3.84,0,0,0,3.82,3.85h.4a3.84,3.84,0,0,0,3.82-3.85v-26.6h0v-9.44l15.7-6C123.51,100.47,124.2,98,123.18,95.75Z"/><path class="cls-2" d="M102.14,149.29h-.4a6,6,0,0,1-6-6V133.09H94.34v10.19a6,6,0,0,1-6,6H88a6,6,0,0,1-6-6V108.77l-14.44-5.56a5.18,5.18,0,0,1-3-2.93,7,7,0,0,1,.2-5.41l.27-.61c1.5-3.36,5-5.1,8-4l12.33,4.75h19.17l12.33-4.75c3-1.14,6.48.59,8,4l.27.61h0a6.9,6.9,0,0,1,.19,5.41,5.17,5.17,0,0,1-2.94,2.93l-14.32,5.51v7.62a2,2,0,0,1,0,.34v26.6A6,6,0,0,1,102.14,149.29Zm-10-20.52h5.73a2.15,2.15,0,0,1,2.15,2.16v12.35a1.68,1.68,0,0,0,1.67,1.69h.4a1.68,1.68,0,0,0,1.67-1.69V117a1.87,1.87,0,0,1,0-.34v-9.44a2.18,2.18,0,0,1,1.38-2l15.7-6a.9.9,0,0,0,.51-.55,2.61,2.61,0,0,0-.15-2L121,96c-.58-1.3-1.81-2-2.51-1.69l-12.71,4.9a2.19,2.19,0,0,1-.77.14H85a2.28,2.28,0,0,1-.77-.14l-12.7-4.9c-.71-.27-1.93.39-2.51,1.69l-.28.61a2.65,2.65,0,0,0-.14,2,.85.85,0,0,0,.51.55l15.83,6.1a2.16,2.16,0,0,1,1.38,2v36A1.68,1.68,0,0,0,88,145h.39A1.68,1.68,0,0,0,90,143.28V130.93A2.15,2.15,0,0,1,92.19,128.77Z"/><path class="cls-3" d="M117.3,12.31a12.22,12.22,0,0,0-23.8-4,12.22,12.22,0,0,0-23.8,4A12.54,12.54,0,0,0,70.26,16,12.75,12.75,0,0,0,72,19.46,13.28,13.28,0,0,0,73.26,21L93.62,45.43l20.76-25.15h0c-.16.2-.34.39-.52.58A12.4,12.4,0,0,0,116.74,16,12.54,12.54,0,0,0,117.3,12.31Z"/></svg>