<svg id="レイヤー_1" data-name="レイヤー 1" xmlns="http://www.w3.org/2000/svg" width="151.13" height="103.67" viewBox="0 0 151.13 103.67"><defs><style>.cls-1{fill:#00aae7;}.cls-2{fill:#fff;}.cls-3{fill:#b4b4b4;}.cls-4{fill:#f39800;}.cls-5{fill:none;stroke:#fff;stroke-miterlimit:10;stroke-width:5.34px;}</style></defs><g id="ic_mnp" data-name="ic mnp"><path id="パス_4772" data-name="パス 4772" class="cls-1" d="M63.65,0H2.31A2.3,2.3,0,0,0,0,2.31H0v99.05a2.3,2.3,0,0,0,2.31,2.31H63.65A2.32,2.32,0,0,0,66,101.4V2.3A2.35,2.35,0,0,0,63.65,0Z"/><g id="グループ_2400" data-name="グループ 2400"><path id="パス_4773" data-name="パス 4773" class="cls-2" d="M38.88,95.71H27.09a2.36,2.36,0,0,1,0-4.71h11.8a2.36,2.36,0,0,1,0,4.71Z"/><rect id="長方形_2282" data-name="長方形 2282" class="cls-2" x="8.24" y="9.41" width="49.48" height="73.05" rx="2.77"/></g><path id="パス_4772-2" data-name="パス 4772-2" class="cls-3" d="M148.79,0H87.48a2.33,2.33,0,0,0-2.33,2.31v99.05a2.33,2.33,0,0,0,2.33,2.31h61.31a2.34,2.34,0,0,0,2.34-2.31v-99A2.34,2.34,0,0,0,148.79,0Z"/><g id="グループ_2400-2" data-name="グループ 2400-2"><path id="パス_4773-2" data-name="パス 4773-2" class="cls-2" d="M124,95.71H112.26a2.36,2.36,0,0,1,0-4.71H124a2.36,2.36,0,0,1,0,4.71h0Z"/><rect id="長方形_2282-2" data-name="長方形 2282-2" class="cls-2" x="93.41" y="9.41" width="49.48" height="73.05" rx="2.77"/></g><path id="パス_19" data-name="パス 19" class="cls-4" d="M109.66,42.71,83,20c-2.93-2.49-5.33-1.38-5.33,2.47V28.7H34.17a3.54,3.54,0,0,0-3.56,3.53V62.29a3.56,3.56,0,0,0,3.56,3.56H77.53v6.29c0,3.84,2.41,4.94,5.34,2.45l26.7-22.74a5.8,5.8,0,0,0,.09-9.14Z"/><path id="パス_20" data-name="パス 20" class="cls-5" d="M109.66,42.71,83,20c-2.93-2.49-5.33-1.38-5.33,2.47V28.7H34.17a3.54,3.54,0,0,0-3.56,3.53V62.29a3.56,3.56,0,0,0,3.56,3.56H77.53v6.29c0,3.84,2.41,4.94,5.34,2.45l26.7-22.74a5.8,5.8,0,0,0,.09-9.14Z"/><path id="パス_21" data-name="パス 21" class="cls-2" d="M64.08,54.42H61.33V45.23l-2.82,6.12h-2l-2.88-6.09v9.16h-2.6V41.35h3.21l3.3,6.95,3.31-6.95h3.21Z"/><path id="パス_22" data-name="パス 22" class="cls-2" d="M78.85,54.42H76.1l-5.87-9.63v9.63h-2.6V41.35h3.48l5.09,8.49V41.35h2.65Z"/><path id="パス_23" data-name="パス 23" class="cls-2" d="M85.18,50v4.44H82.32V41.35h4.9a6.27,6.27,0,0,1,3.88,1,3.68,3.68,0,0,1,1.46,3,4.18,4.18,0,0,1-1.46,3.3A5.5,5.5,0,0,1,87.29,50Zm0-6.59V47.9H86a4.91,4.91,0,0,0,2.86-.59,2.37,2.37,0,0,0,.71-1.77A1.91,1.91,0,0,0,88.83,44a4.69,4.69,0,0,0-2.67-.54Z"/></g></svg>