<svg id="レイヤー_1" data-name="レイヤー 1" xmlns="http://www.w3.org/2000/svg" width="151.13" height="103.67" viewBox="0 0 151.13 103.67"><defs><style>.cls-1{fill:#b4b4b4;}.cls-2{fill:#fff;}.cls-3{fill:#00aae7;}.cls-4{fill:#f1f1f1;}.cls-5{fill:#35318f;}.cls-6{fill:#f39800;}</style></defs><rect class="cls-1" x="13.05" y="8.65" width="132.63" height="95" rx="4.67"/><path class="cls-1" d="M145.68,11.36a4.88,4.88,0,0,0-4.89-4.88H17.93a4.88,4.88,0,0,0-4.88,4.88v8.36H145.68Z"/><rect class="cls-2" x="5.66" y="2.18" width="132.63" height="95" rx="4.67"/><path class="cls-3" d="M138.29,4.9A4.88,4.88,0,0,0,133.4,0H10.54A4.88,4.88,0,0,0,5.66,4.9v8.35H138.29Z"/><rect class="cls-4" x="22.33" y="63.69" width="99.28" height="20.26" rx="10.13"/><path class="cls-5" d="M44.55,68.65l-.42,3.25,2.67-2,1.5,2.51-3.14,1.22,3.14,1.21-1.5,2.54-2.67-2,.42,3.27H41.64l.45-3.27-2.7,2L38,74.89l3-1.27L37.89,72.4l1.5-2.51,2.7,2-.45-3.25Z"/><path class="cls-5" d="M59.35,68.65l-.42,3.25,2.67-2,1.5,2.51L60,73.62l3.14,1.21-1.5,2.54-2.67-2,.42,3.27H56.44l.45-3.27-2.69,2-1.43-2.48,3-1.27L52.69,72.4l1.51-2.51,2.69,2-.45-3.25Z"/><path class="cls-5" d="M74.15,68.65l-.42,3.25,2.67-2,1.51,2.51-3.15,1.22,3.15,1.21L76.4,77.37l-2.67-2,.42,3.27h-2.9l.45-3.27-2.7,2-1.43-2.48,3-1.27-3.1-1.22L69,69.89l2.7,2-.45-3.25Z"/><path class="cls-5" d="M89,68.65l-.43,3.25,2.67-2,1.51,2.51-3.15,1.22,3.15,1.21L91.2,77.37l-2.67-2L89,78.61H86.05l.45-3.27-2.7,2-1.43-2.48,3-1.27L82.3,72.4l1.5-2.51,2.7,2-.45-3.25Z"/><path class="cls-5" d="M103.76,68.65l-.42,3.25,2.67-2,1.5,2.51-3.14,1.22,3.14,1.21L106,77.37l-2.67-2,.42,3.27h-2.91l.45-3.27-2.69,2-1.43-2.48,3-1.27L97.1,72.4l1.51-2.51,2.69,2-.45-3.25Z"/><path class="cls-6" d="M82.82,35.89l-16.31,0V31.54a5.32,5.32,0,0,1,10.54-.25.26.26,0,0,0,.26.25H80.9a.28.28,0,0,0,.27-.28,9.42,9.42,0,0,0-18.78.28v4.39l-1.27,0a2.87,2.87,0,0,0-2.86,2.64V53.72a2.87,2.87,0,0,0,2.86,2.63h21.7a2.88,2.88,0,0,0,2.87-2.63V38.53A2.88,2.88,0,0,0,82.82,35.89Z"/><path class="cls-2" d="M73.44,46.86a.64.64,0,0,0-.33.54v3.23a.61.61,0,0,1-.61.62H71.06a.61.61,0,0,1-.61-.62V47.41a.63.63,0,0,0-.29-.53,3.27,3.27,0,1,1,3.28,0Z"/></svg>