<svg id="レイヤー_1" data-name="レイヤー 1" xmlns="http://www.w3.org/2000/svg" xmlns:xlink="http://www.w3.org/1999/xlink" width="151.13" height="103.67" viewBox="0 0 151.13 103.67"><defs><style>.cls-1{fill:none;}.cls-2{fill:#fff;}.cls-3{fill:#b4b4b4;}.cls-4{fill:#00aae7;}.cls-5{clip-path:url(#clip-path);}.cls-6{fill:#35318f;}</style><clipPath id="clip-path"><rect class="cls-1" x="83.4" y="25.67" width="40.93" height="52.59" rx="2.76"/></clipPath></defs><g id="ic_id" data-name="ic id"><rect id="長方形_66" data-name="長方形 66" class="cls-2" x="11.42" y="6.12" width="128.37" height="91.68" rx="4.1"/><path id="パス_15" data-name="パス 15" class="cls-3" d="M135.69,101H15.51A7.29,7.29,0,0,1,8.24,93.7V10.22A7.28,7.28,0,0,1,15.51,3H135.69A7.28,7.28,0,0,1,143,10.22V93.7A7.29,7.29,0,0,1,135.69,101ZM15.51,9.3a.92.92,0,0,0-.92.92V93.7a.92.92,0,0,0,.92.92H135.69a.92.92,0,0,0,.92-.92h0V10.22a.92.92,0,0,0-.92-.92H15.51Z"/><path id="パス_16" data-name="パス 16" class="cls-3" d="M69.36,34.19h-39a3.18,3.18,0,0,1,0-6.36h39a3.18,3.18,0,0,1,0,6.36Z"/><path id="パス_17" data-name="パス 17" class="cls-3" d="M69.36,47.88h-39a3.18,3.18,0,0,1,0-6.35h39a3.18,3.18,0,0,1,0,6.35Z"/><path id="パス_18" data-name="パス 18" class="cls-3" d="M69.36,77.22h-39a3.18,3.18,0,0,1,0-6.36h39a3.18,3.18,0,0,1,0,6.36Z"/><rect id="長方形_67" data-name="長方形 67" class="cls-4" x="83.4" y="25.67" width="40.93" height="52.59" rx="2.76"/><g class="cls-5"><g id="グループ_30" data-name="グループ 30"><circle id="楕円形_11" data-name="楕円形 11" class="cls-6" cx="103.87" cy="38.43" r="7.53"/><rect id="長方形_68" data-name="長方形 68" class="cls-6" x="90.62" y="48.17" width="26.48" height="39.33" rx="9.53"/></g></g></g></svg>