<?xml version="1.0" encoding="UTF-8"?><svg id="_イヤー_1" xmlns="http://www.w3.org/2000/svg" width="380" height="251.84" viewBox="0 0 380 251.84"><defs><style>.cls-1{fill:#fff;}.cls-2{fill:none;stroke:#e6e6e6;stroke-miterlimit:10;stroke-width:4px;}.cls-3{fill:#13c96a;}.cls-4{fill:#222;}.cls-5{fill:#4d4d4d;}.cls-6{fill:#00aae7;}.cls-7{fill:gray;}.cls-8{fill:#f2f2f2;}</style></defs><g><g><g><path class="cls-6" d="M286.37,130.79c-.1,1.42-.37,2.41-.93,3.27-.64,1.01-1.51,1.64-3.08,2.28-.38-.74-.56-1-1.19-1.6,1.49-.46,2.38-1.08,2.87-2.03,.25-.48,.41-1.14,.44-1.93h-2.66c-.8,0-1.22,.01-1.7,.07v-1.73c.55,.06,.91,.08,1.73,.08h6.76c.85,0,1.2-.01,1.77-.08v1.72c-.55-.05-.75-.06-1.74-.06h-2.27Zm1.74-2.97c-.44-.05-.66-.06-1.75-.06h-3.32c-.79,0-1.27,.01-1.7,.06v-1.71c.55,.07,.88,.08,1.73,.08h3.26c.95,0,1.28-.01,1.79-.08v.71l.9-.31c.41,.66,.6,1.08,.79,1.68l-1.01,.38c-.17-.55-.42-1.12-.68-1.56v.82Zm2.06,.23c-.22-.64-.38-.98-.78-1.66l.96-.36c.4,.61,.6,1.02,.8,1.61l-.98,.41Z"/><path class="cls-6" d="M292.04,129.94c.54,.07,.97,.1,2.19,.1h6.07c1.21,0,1.64-.01,2.19-.08v1.97c-.48-.04-1.27-.06-2.21-.06h-6.06c-1.04,0-1.73,.02-2.19,.07v-1.99Z"/><path class="cls-6" d="M309.55,125.84c-.12,.2-.16,.26-.31,.61-.11,.22-.14,.3-.26,.52l3.17-.02c.42-.01,.62-.04,.9-.16l.94,.92c-.17,.19-.18,.22-.38,.82-.79,2.31-1.71,3.93-2.99,5.25-1.06,1.09-2.36,1.98-4.07,2.76-.41-.72-.61-.97-1.19-1.51,1-.4,1.58-.68,2.29-1.12,.8-.52,1.29-.91,1.89-1.56-.82-.68-1.45-1.12-2.35-1.61l1.09-1.28c1.05,.59,1.62,.96,2.3,1.49,.52-.79,.88-1.56,1.17-2.5l-3.51,.04c-.73,1.2-1.57,2.18-2.77,3.21-.49-.55-.73-.73-1.45-1.14,1.37-1.07,2.25-2.08,3-3.44,.35-.64,.58-1.19,.7-1.68l1.83,.4Z"/><path class="cls-6" d="M316.78,132.66c.05,.49,.12,.72,.32,.97,.32,.42,.89,.65,1.6,.65,1.04,0,1.7-.48,1.7-1.25,0-.37-.16-.67-.47-.86-.37-.24-.74-.36-2.05-.66-1.02-.24-1.42-.4-1.87-.72-.67-.5-1.03-1.24-1.03-2.12,0-1.76,1.4-2.88,3.62-2.88,1.43,0,2.51,.43,3.13,1.25,.3,.41,.46,.76,.61,1.46l-2.11,.23c-.06-.37-.14-.55-.31-.77-.28-.32-.75-.5-1.33-.5-.94,0-1.56,.46-1.56,1.14,0,.32,.14,.59,.41,.78,.26,.17,.5,.25,1.13,.4,1.31,.28,1.88,.43,2.36,.65,.49,.22,.94,.59,1.21,1.04,.24,.4,.36,.88,.36,1.45,0,1.96-1.37,3.07-3.77,3.07-1.55,0-2.71-.43-3.35-1.24-.4-.49-.56-.95-.7-1.88l2.09-.2Z"/><path class="cls-6" d="M326.53,126.02c-.07,.48-.1,.85-.1,1.66v6.44c0,.77,.02,1.19,.1,1.66h-2.21c.07-.47,.1-.91,.1-1.66v-6.44c0-.83-.02-1.14-.1-1.66h2.21Z"/><path class="cls-6" d="M332.96,135.77c-.06-.41-.23-.97-.52-1.69l-1.46-3.73c-.14-.37-.31-.92-.56-1.82,.07,1.16,.1,1.64,.1,1.94v3.49c0,.84,.02,1.33,.1,1.81h-2c.07-.5,.1-1,.1-1.81v-6.12c0-.76-.02-1.32-.1-1.82h2.66c.07,.44,.22,.95,.44,1.55l2.13,5.59,2.12-5.59c.24-.61,.37-1.09,.44-1.55h2.66c-.07,.58-.1,1.02-.1,1.82v6.12c0,.9,.02,1.36,.1,1.81h-2c.07-.54,.1-.97,.1-1.81v-3.53c0-.29,.02-.77,.1-1.91q-.06,.23-.19,.76c-.06,.2-.26,.85-.33,1.03l-1.51,3.78c-.24,.62-.46,1.29-.52,1.68h-1.75Z"/></g><path class="cls-6" d="M269.92,116.01l-10.34-10.34c-.64-.64-1.51-1-2.42-1h-17.57c-1.26,0-2.28,1.02-2.28,2.28v45.57c0,1.26,1.02,2.28,2.28,2.28h29.05c1.26,0,2.28-1.02,2.28-2.28v-34.09c0-.91-.36-1.78-1-2.42Z"/><rect class="cls-1" x="242.71" y="143.15" width="6.13" height="5.65" rx=".8" ry=".8"/><rect class="cls-1" x="242.71" y="134.98" width="6.13" height="5.65" rx=".8" ry=".8"/><path class="cls-1" d="M256.46,148.1c0,.44-.36,.8-.8,.8h-3.37c-.44,0-.8-.36-.8-.8v-15.42c0-.44-.36-.8-.8-.8h-7.19c-.44,0-.8-.36-.8-.8v-3.49c0-.44,.35-.8,.79-.8l12.15-.06c.44,0,.8,.36,.8,.8v20.56Z"/><rect class="cls-1" x="259.31" y="143.15" width="6.13" height="5.65" rx=".8" ry=".8"/><rect class="cls-1" x="259.31" y="134.98" width="6.13" height="5.65" rx=".8" ry=".8"/><rect class="cls-1" x="259.31" y="126.8" width="6.13" height="5.65" rx=".8" ry=".8"/></g><g><line class="cls-2" x1="163.19" y1="128.25" x2="224.72" y2="128.25"/><path class="cls-2" d="M200.99,127.87l-.03,65.72c0,.55,.45,1,1,1h22.76"/></g><g><g><path class="cls-6" d="M286.37,195.07c-.1,1.41-.37,2.41-.93,3.27-.64,1.01-1.51,1.64-3.08,2.28-.38-.74-.56-1-1.19-1.6,1.49-.46,2.38-1.08,2.87-2.03,.25-.48,.41-1.14,.44-1.93h-2.66c-.8,0-1.22,.01-1.7,.07v-1.73c.55,.06,.91,.08,1.73,.08h6.76c.85,0,1.2-.01,1.77-.08v1.72c-.55-.05-.75-.06-1.74-.06h-2.27Zm1.74-2.97c-.44-.05-.66-.06-1.75-.06h-3.32c-.79,0-1.27,.01-1.7,.06v-1.71c.55,.07,.88,.08,1.73,.08h3.26c.95,0,1.28-.01,1.79-.08v.71l.9-.31c.41,.66,.6,1.08,.79,1.68l-1.01,.38c-.17-.55-.42-1.12-.68-1.56v.82Zm2.06,.23c-.22-.64-.38-.98-.78-1.66l.96-.36c.4,.61,.6,1.02,.8,1.61l-.98,.41Z"/><path class="cls-6" d="M292.04,194.22c.54,.07,.97,.1,2.19,.1h6.07c1.21,0,1.64-.01,2.19-.08v1.97c-.48-.04-1.27-.06-2.21-.06h-6.06c-1.04,0-1.73,.03-2.19,.07v-1.99Z"/><path class="cls-6" d="M309.55,190.12c-.12,.2-.16,.26-.31,.61-.11,.21-.14,.3-.26,.52l3.17-.02c.42-.01,.62-.04,.9-.16l.94,.92c-.17,.19-.18,.21-.38,.81-.79,2.31-1.71,3.93-2.99,5.25-1.06,1.09-2.36,1.98-4.07,2.76-.41-.72-.61-.97-1.19-1.51,1-.39,1.58-.68,2.29-1.12,.8-.52,1.29-.91,1.89-1.56-.82-.68-1.45-1.12-2.35-1.61l1.09-1.28c1.05,.59,1.62,.96,2.3,1.49,.52-.79,.88-1.56,1.17-2.5l-3.51,.04c-.73,1.2-1.57,2.18-2.77,3.21-.49-.55-.73-.73-1.45-1.14,1.37-1.07,2.25-2.07,3-3.44,.35-.64,.58-1.19,.7-1.68l1.83,.4Z"/><path class="cls-6" d="M316.78,196.94c.05,.49,.12,.72,.32,.97,.32,.42,.89,.65,1.6,.65,1.04,0,1.7-.48,1.7-1.25,0-.37-.16-.67-.47-.86-.37-.24-.74-.36-2.05-.66-1.02-.24-1.42-.39-1.87-.72-.67-.5-1.03-1.24-1.03-2.12,0-1.76,1.4-2.88,3.62-2.88,1.43,0,2.51,.43,3.13,1.25,.3,.41,.46,.76,.61,1.46l-2.11,.23c-.06-.37-.14-.55-.31-.77-.28-.32-.75-.5-1.33-.5-.94,0-1.56,.46-1.56,1.14,0,.32,.14,.59,.41,.78,.26,.17,.5,.25,1.13,.4,1.31,.28,1.88,.43,2.36,.65,.49,.22,.94,.59,1.21,1.04,.24,.39,.36,.88,.36,1.45,0,1.96-1.37,3.07-3.77,3.07-1.55,0-2.71-.43-3.35-1.24-.4-.49-.56-.95-.7-1.88l2.09-.2Z"/><path class="cls-6" d="M326.53,190.3c-.07,.48-.1,.85-.1,1.65v6.44c0,.77,.02,1.19,.1,1.65h-2.21c.07-.47,.1-.91,.1-1.65v-6.44c0-.83-.02-1.14-.1-1.65h2.21Z"/><path class="cls-6" d="M332.96,200.05c-.06-.41-.23-.97-.52-1.69l-1.46-3.73c-.14-.37-.31-.92-.56-1.82,.07,1.16,.1,1.64,.1,1.94v3.49c0,.84,.02,1.33,.1,1.81h-2c.07-.5,.1-.99,.1-1.81v-6.12c0-.76-.02-1.32-.1-1.82h2.66c.07,.44,.22,.95,.44,1.55l2.13,5.59,2.12-5.59c.24-.61,.37-1.09,.44-1.55h2.66c-.07,.58-.1,1.02-.1,1.82v6.12c0,.9,.02,1.36,.1,1.81h-2c.07-.54,.1-.97,.1-1.81v-3.53c0-.29,.02-.77,.1-1.91q-.06,.23-.19,.76c-.06,.21-.26,.85-.33,1.03l-1.51,3.78c-.24,.62-.46,1.29-.52,1.68h-1.75Z"/></g><path class="cls-6" d="M269.92,180.29l-10.34-10.34c-.64-.64-1.51-1-2.42-1h-17.57c-1.26,0-2.28,1.02-2.28,2.28v45.57c0,1.26,1.02,2.28,2.28,2.28h29.05c1.26,0,2.28-1.02,2.28-2.28v-34.09c0-.91-.36-1.78-1-2.42Z"/><rect class="cls-1" x="242.71" y="207.43" width="6.13" height="5.65" rx=".8" ry=".8"/><rect class="cls-1" x="242.71" y="199.25" width="6.13" height="5.65" rx=".8" ry=".8"/><path class="cls-1" d="M256.46,212.38c0,.44-.36,.8-.8,.8h-3.37c-.44,0-.8-.36-.8-.8v-15.42c0-.44-.36-.8-.8-.8h-7.19c-.44,0-.8-.36-.8-.8v-3.49c0-.44,.35-.8,.79-.8l12.15-.06c.44,0,.8,.36,.8,.8v20.56Z"/><rect class="cls-1" x="259.31" y="207.43" width="6.13" height="5.65" rx=".8" ry=".8"/><rect class="cls-1" x="259.31" y="199.25" width="6.13" height="5.65" rx=".8" ry=".8"/><rect class="cls-1" x="259.31" y="191.08" width="6.13" height="5.65" rx=".8" ry=".8"/></g></g><rect class="cls-8" x="40.92" y="65.17" width="130" height="186.67" rx="3" ry="3"/><rect class="cls-6" x="60.92" y="214.31" width="90" height="20" rx="2" ry="2"/><g><path class="cls-4" d="M121.44,3.17c-1.28-.67-2.37-1.12-3.97-1.67l1.39-1.5c1.75,.56,2.71,.94,4.31,1.73l-1.25,1.44h3.12c.9,0,1.41-.02,2.07-.1v2.13c-.64-.05-1.04-.06-2.07-.06h-3.54v2.53h2.96c.7,0,1.26-.03,1.79-.08v2.1c-.54-.06-.93-.08-1.75-.08h-3.01v2.98h3.99c.91,0,1.55-.03,2.29-.11v2.19c-.8-.08-1.31-.11-2.22-.11h-9.94c-1.02,0-1.65,.03-2.37,.11v-2.19c.62,.08,1.28,.11,2.3,.11h3.75v-2.98h-2.67c-.85,0-1.34,.02-1.92,.08v-2.1c.51,.06,.91,.08,1.74,.08h2.85v-2.53h-3.35c-1.22,0-1.62,.02-2.1,.06V3.07c.62,.08,1.07,.1,2.06,.1h5.52Z"/><path class="cls-4" d="M132.76,9.91c.06,.66,.16,.96,.43,1.3,.43,.56,1.18,.86,2.13,.86,1.39,0,2.27-.64,2.27-1.67,0-.5-.21-.9-.62-1.15-.5-.32-.99-.48-2.74-.88-1.36-.32-1.89-.53-2.5-.96-.9-.67-1.38-1.65-1.38-2.83,0-2.35,1.87-3.84,4.83-3.84,1.9,0,3.35,.58,4.18,1.67,.4,.54,.61,1.01,.82,1.95l-2.82,.3c-.08-.5-.19-.74-.42-1.02-.37-.43-1.01-.67-1.78-.67-1.25,0-2.08,.61-2.08,1.52,0,.43,.19,.78,.54,1.04,.35,.22,.67,.34,1.5,.53,1.74,.37,2.51,.58,3.15,.86,.66,.29,1.25,.78,1.62,1.39,.32,.53,.48,1.17,.48,1.94,0,2.61-1.83,4.1-5.03,4.1-2.06,0-3.62-.58-4.47-1.65-.53-.66-.75-1.26-.93-2.51l2.79-.27Z"/><path class="cls-4" d="M145.13,1.04c-.1,.64-.13,1.14-.13,2.21V11.84c0,1.02,.03,1.58,.13,2.21h-2.95c.1-.62,.13-1.22,.13-2.21V3.25c0-1.1-.03-1.52-.13-2.21h2.95Z"/><path class="cls-4" d="M153.71,14.05c-.08-.54-.3-1.3-.69-2.26l-1.95-4.98c-.19-.5-.42-1.23-.75-2.43,.1,1.55,.13,2.19,.13,2.59v4.66c0,1.12,.03,1.78,.13,2.42h-2.67c.1-.67,.13-1.33,.13-2.42V3.47c0-1.01-.03-1.76-.13-2.43h3.55c.1,.59,.29,1.26,.59,2.06l2.85,7.46,2.83-7.46c.32-.82,.5-1.46,.59-2.06h3.55c-.1,.77-.13,1.36-.13,2.43V11.64c0,1.2,.03,1.81,.13,2.42h-2.67c.1-.72,.13-1.3,.13-2.42V6.93c0-.38,.03-1.02,.13-2.54q-.08,.3-.26,1.01c-.08,.27-.35,1.14-.45,1.38l-2.02,5.04c-.32,.83-.61,1.73-.69,2.24h-2.34Z"/><path class="cls-4" d="M164.22,4.4h.1c.48,0,2.4-.18,3.22-.3,.29-1.68,.4-2.62,.4-3.23,0-.05,0-.13-.02-.24l2.48,.24c-.05,.16-.08,.29-.11,.46-.02,.06-.14,.75-.37,2.06-.06,.34-.06,.35-.11,.54,.38-.02,.61-.03,.85-.03,1.14,0,1.97,.3,2.5,.93,.54,.66,.75,1.44,.75,2.95,0,2.87-.48,5.09-1.3,5.97-.48,.53-.99,.72-1.87,.72-.69,0-1.36-.13-2.45-.45,.03-.35,.03-.48,.03-.72,0-.56-.05-.96-.21-1.71,.82,.35,1.74,.61,2.27,.61,.4,0,.64-.26,.83-.9,.24-.77,.43-2.43,.43-3.65,0-.77-.11-1.18-.4-1.44-.21-.21-.46-.27-1.04-.27-.27,0-.45,.02-.8,.05-.56,2.61-1.44,5.04-2.93,8.15-.14,.3-.16,.34-.26,.54l-2.23-1.2c1.09-1.42,2.45-4.64,3.12-7.31-1.14,.16-2.22,.35-2.69,.48l-.21-2.24Zm10.69-3.27c.64,.7,1.01,1.23,1.47,2.11l-1.39,.7c-.43-.82-.96-1.6-1.49-2.16l1.41-.66Zm1.57,2.61c1.25,1.78,1.97,3.36,2.54,5.52l-2.21,1.07c-.27-1.33-.59-2.32-1.18-3.62-.46-1.02-.69-1.44-1.12-2.05l1.97-.93Zm.35-3.46c.58,.61,1.06,1.26,1.47,2.03l-1.38,.72c-.46-.83-.9-1.46-1.46-2.1l1.36-.66Z"/><path class="cls-4" d="M188.88,7.41c-.13,1.89-.5,3.22-1.25,4.37-.85,1.34-2.02,2.19-4.11,3.04-.51-.99-.75-1.33-1.58-2.13,1.99-.61,3.17-1.44,3.83-2.71,.34-.64,.54-1.52,.59-2.58h-3.55c-1.07,0-1.63,.02-2.27,.1v-2.3c.74,.08,1.22,.11,2.3,.11h9.03c1.14,0,1.6-.02,2.37-.11v2.29c-.74-.06-1.01-.08-2.32-.08h-3.03Zm2.32-3.97c-.59-.06-.88-.08-2.34-.08h-4.43c-1.06,0-1.7,.02-2.27,.08V1.15c.74,.1,1.17,.11,2.3,.11h4.35c1.26,0,1.71-.02,2.39-.11v.94l1.2-.42c.54,.88,.8,1.44,1.06,2.24l-1.34,.51c-.22-.74-.56-1.49-.91-2.08v1.09Zm2.75,.3c-.29-.85-.51-1.31-1.04-2.21l1.28-.48c.53,.82,.8,1.36,1.07,2.14l-1.31,.54Z"/><path class="cls-4" d="M196.42,6.27c.72,.1,1.3,.13,2.93,.13h8.1c1.62,0,2.19-.02,2.93-.11v2.62c-.64-.05-1.7-.08-2.94-.08h-8.08c-1.39,0-2.3,.03-2.93,.1v-2.66Z"/><path class="cls-4" d="M219.79,.8c-.16,.27-.21,.35-.42,.82-.14,.29-.19,.4-.35,.69l4.23-.03c.56-.02,.83-.05,1.2-.21l1.25,1.23c-.22,.26-.24,.29-.51,1.09-1.06,3.09-2.29,5.25-3.99,7.01-1.41,1.46-3.15,2.64-5.43,3.68-.54-.96-.82-1.3-1.58-2.02,1.33-.53,2.11-.91,3.06-1.49,1.07-.69,1.73-1.22,2.53-2.08-1.09-.91-1.94-1.49-3.14-2.14l1.46-1.71c1.41,.78,2.16,1.28,3.07,1.98,.69-1.06,1.17-2.08,1.57-3.33l-4.69,.05c-.98,1.6-2.1,2.91-3.7,4.29-.66-.74-.98-.98-1.94-1.52,1.83-1.42,3.01-2.77,4-4.59,.46-.85,.77-1.58,.93-2.24l2.45,.53Z"/><path class="cls-4" d="M230.38,9.91c.06,.66,.16,.96,.43,1.3,.43,.56,1.18,.86,2.13,.86,1.39,0,2.27-.64,2.27-1.67,0-.5-.21-.9-.62-1.15-.5-.32-.99-.48-2.74-.88-1.36-.32-1.89-.53-2.5-.96-.9-.67-1.38-1.65-1.38-2.83,0-2.35,1.87-3.84,4.83-3.84,1.9,0,3.35,.58,4.18,1.67,.4,.54,.61,1.01,.82,1.95l-2.82,.3c-.08-.5-.19-.74-.42-1.02-.37-.43-1.01-.67-1.78-.67-1.25,0-2.08,.61-2.08,1.52,0,.43,.19,.78,.54,1.04,.35,.22,.67,.34,1.5,.53,1.74,.37,2.51,.58,3.15,.86,.66,.29,1.25,.78,1.62,1.39,.32,.53,.48,1.17,.48,1.94,0,2.61-1.83,4.1-5.03,4.1-2.06,0-3.62-.58-4.47-1.65-.53-.66-.75-1.26-.93-2.51l2.79-.27Z"/><path class="cls-4" d="M242.75,1.04c-.1,.64-.13,1.14-.13,2.21V11.84c0,1.02,.03,1.58,.13,2.21h-2.95c.1-.62,.13-1.22,.13-2.21V3.25c0-1.1-.03-1.52-.13-2.21h2.95Z"/><path class="cls-4" d="M250.68,14.05c-.08-.54-.3-1.3-.69-2.26l-1.95-4.98c-.19-.5-.42-1.23-.75-2.43,.1,1.55,.13,2.19,.13,2.59v4.66c0,1.12,.03,1.78,.13,2.42h-2.67c.1-.67,.13-1.33,.13-2.42V3.47c0-1.01-.03-1.76-.13-2.43h3.55c.1,.59,.29,1.26,.59,2.06l2.85,7.46,2.83-7.46c.32-.82,.5-1.46,.59-2.06h3.55c-.1,.77-.13,1.36-.13,2.43V11.64c0,1.2,.03,1.81,.13,2.42h-2.67c.1-.72,.13-1.3,.13-2.42V6.93c0-.38,.03-1.02,.13-2.54q-.08,.3-.26,1.01c-.08,.27-.35,1.14-.45,1.38l-2.02,5.04c-.32,.83-.61,1.73-.69,2.24h-2.34Z"/><path class="cls-4" d="M262.12,9.65c1.52,1.14,2.48,2.05,3.78,3.6l-1.91,1.81c-1.18-1.57-2.13-2.53-3.62-3.73l1.75-1.68Z"/><path class="cls-4" d="M76.59,31.91c.06,.66,.16,.96,.43,1.3,.43,.56,1.18,.86,2.13,.86,1.39,0,2.27-.64,2.27-1.67,0-.5-.21-.9-.62-1.15-.5-.32-.99-.48-2.74-.88-1.36-.32-1.89-.53-2.5-.96-.9-.67-1.38-1.65-1.38-2.83,0-2.35,1.87-3.84,4.83-3.84,1.9,0,3.34,.58,4.18,1.67,.4,.54,.61,1.01,.82,1.95l-2.82,.3c-.08-.5-.19-.74-.42-1.02-.37-.43-1.01-.67-1.78-.67-1.25,0-2.08,.61-2.08,1.52,0,.43,.19,.78,.54,1.04,.35,.22,.67,.34,1.5,.53,1.75,.37,2.51,.58,3.15,.86,.66,.29,1.25,.78,1.62,1.39,.32,.53,.48,1.17,.48,1.94,0,2.61-1.82,4.1-5.03,4.1-2.07,0-3.62-.58-4.47-1.65-.53-.66-.75-1.26-.93-2.51l2.79-.27Z"/><path class="cls-4" d="M91.83,36.05c-.08-.54-.3-1.3-.69-2.26l-1.95-4.98c-.19-.5-.42-1.23-.75-2.43,.1,1.55,.13,2.19,.13,2.59v4.66c0,1.12,.03,1.78,.13,2.42h-2.67c.1-.67,.13-1.33,.13-2.42v-8.16c0-1.01-.03-1.76-.13-2.43h3.55c.1,.59,.29,1.26,.59,2.06l2.85,7.46,2.83-7.46c.32-.82,.5-1.46,.59-2.06h3.55c-.1,.77-.13,1.36-.13,2.43v8.16c0,1.2,.03,1.81,.13,2.42h-2.67c.1-.72,.13-1.3,.13-2.42v-4.71c0-.38,.03-1.02,.13-2.54q-.08,.3-.26,1.01c-.08,.27-.35,1.14-.45,1.38l-2.02,5.04c-.32,.83-.61,1.73-.69,2.24h-2.34Z"/><path class="cls-4" d="M104.5,31.91c.06,.66,.16,.96,.43,1.3,.43,.56,1.18,.86,2.13,.86,1.39,0,2.27-.64,2.27-1.67,0-.5-.21-.9-.62-1.15-.5-.32-.99-.48-2.74-.88-1.36-.32-1.89-.53-2.5-.96-.9-.67-1.38-1.65-1.38-2.83,0-2.35,1.87-3.84,4.83-3.84,1.9,0,3.34,.58,4.18,1.67,.4,.54,.61,1.01,.82,1.95l-2.82,.3c-.08-.5-.19-.74-.42-1.02-.37-.43-1.01-.67-1.78-.67-1.25,0-2.08,.61-2.08,1.52,0,.43,.19,.78,.54,1.04,.35,.22,.67,.34,1.5,.53,1.75,.37,2.51,.58,3.15,.86,.66,.29,1.25,.78,1.62,1.39,.32,.53,.48,1.17,.48,1.94,0,2.61-1.82,4.1-5.03,4.1-2.07,0-3.62-.58-4.47-1.65-.53-.66-.75-1.26-.93-2.51l2.79-.27Z"/><path class="cls-4" d="M121.8,31.62c0,.14,0,.19-.02,.3,.5,.56,.9,.85,1.7,1.26-.26,.38-.4,.61-.51,.85q-.26,.53-.35,.75c-.46-.27-.85-.61-1.2-1.02-.4,1.31-.93,2.23-1.92,3.27-.46-.61-.75-.86-1.47-1.34,1.2-.93,1.84-2.21,2-4.07-.53,.02-.77,.03-1.01,.05v-1.87c.37,.05,.58,.06,1.25,.06h3.17s-.02-.22-.08-.67l-.66,.22c-.02-.24-.02-.29-.05-.46q-.27,.05-1.65,.22-.43,.05-1.26,.16l-.14,.03c-.16,.02-.19,.02-.29,.03l-.02-.1c-.19,.26-.24,.37-.29,.46-.02,.05-.11,.34-.27,.9-.27-.35-.58-.93-.82-1.55,.02,.24,.03,.83,.05,1.76v4.31c0,1.06,.02,1.6,.08,2.02h-2.02c.06-.48,.1-1.15,.1-2.02v-2.37c0-.51,.03-1.15,.1-2.27-.38,1.34-.75,2.27-1.18,2.99-.24-.85-.5-1.5-.85-2.13,.74-1.09,1.42-2.83,1.78-4.48h-.34c-.37,0-.77,.03-1.06,.08v-2c.27,.06,.48,.08,1.06,.08h.48v-1.22c0-.71-.03-1.2-.08-1.67h2c-.05,.37-.06,.8-.06,1.67v1.22h.24c.22,0,.38,0,.61-.02-.08-.08-.16-.14-.24-.22l1.06-1.26,.3,.3c.45-.64,.7-1.1,.94-1.73l1.47,.74c-.5,.9-.88,1.49-1.36,2.11,.16,.19,.21,.26,.34,.43,.45-.66,.53-.78,.83-1.41l.93,.61v-.66c-.02-.91-.03-1.25-.11-1.74h2.07c-.06,.3-.08,.53-.08,1.01v.74l.35-.45,.32,.32c.4-.54,.7-1.06,.94-1.65l1.47,.8c-.5,.8-.77,1.18-1.38,1.91q.18,.18,.37,.42c.35-.45,.53-.7,.94-1.41l1.26,.88c-1.57,1.92-1.66,2.03-2.46,2.8,.38-.02,.75-.05,1.2-.1-.08-.26-.13-.35-.26-.62l1.07-.34c.29,.67,.56,1.49,.82,2.54l-1.17,.35c-.06-.32-.08-.43-.13-.66-.48,.06-.54,.06-.85,.1,.26,.29,.45,.58,.69,.99,.62-.02,.83-.02,1.2-.08v1.92c-.46-.05-1.1-.08-1.68-.08h-.58l1.42,.72c-.69,.91-1.06,1.33-1.71,1.94,.4,.51,.69,.77,.85,.77,.26,0,.38-.42,.53-1.87,.43,.48,.86,.82,1.38,1.04-.3,2.11-.77,2.87-1.73,2.87-.83,0-1.5-.45-2.45-1.66-1.06,.74-2.03,1.23-3.34,1.71-.29-.69-.5-1.02-1.06-1.68,1.36-.3,2.34-.72,3.54-1.47-.35-.74-.61-1.49-.8-2.35h-1.92Zm-2.71-3.76c.13,0,.16,.02,.29,.02,.51-.59,.66-.75,.96-1.14-.54-.7-.74-.93-1.25-1.42v1.67c-.42-.05-.56-.06-.85-.06h-.19c.24,.66,.62,1.25,1.15,1.78l-.11-.83Zm4.05-1.18c-.03-.56-.03-.78-.05-1.28-.69,.99-1.25,1.68-1.98,2.4,.45-.02,.78-.05,1.3-.11-.1-.3-.13-.4-.24-.74l.98-.27Zm2.91-.18c-.37-.48-.64-.78-1.09-1.22q0,1.09,.08,2.27c.56-.56,.69-.69,1.01-1.06Zm.61,3.36c-.22-.4-.35-.61-.54-.86-.1,.02-.4,.03-.94,.08q.03,.32,.08,.78h1.41Zm-1.1,1.76c.13,.48,.24,.82,.42,1.23,.48-.46,.66-.69,.99-1.23h-1.41Z"/><path class="cls-4" d="M136.9,27.27c-.18-.43-.24-.59-.35-.86-1.15,.18-3.47,.43-4.77,.51-.4,.03-.78,.06-1.06,.11l-.21-2.08c.27,.02,.61,.03,.8,.03h.37c.64-1.12,1.02-2.02,1.23-2.95l2.19,.32c-.11,.22-.18,.34-.3,.59-.18,.4-.64,1.25-1.04,1.94,.56-.03,1.22-.1,1.97-.18-.24-.46-.32-.61-.62-1.15l1.52-.72c.7,.99,1.2,1.84,1.89,3.23v-2.45c0-.59-.02-.98-.08-1.36h2.18c-.06,.37-.08,.66-.08,1.26v.58c.77-.26,1.1-.38,1.82-.74,.7-.35,.96-.51,1.52-.94l1.41,1.75q-.37,.16-1.22,.56c-.96,.46-2.18,.91-3.54,1.3v.82c0,.37,.14,.42,1.04,.42,1.02,0,1.39-.05,1.58-.21,.14-.13,.19-.48,.21-1.52,.67,.29,1.23,.45,1.92,.54-.13,1.62-.27,2.15-.69,2.51-.43,.4-1.1,.5-3.27,.5-1.15,0-1.67-.05-2.08-.19-.51-.19-.74-.54-.74-1.14v-1.42l-1.62,.94Zm-5.55,1.55c0-.53-.02-1.01-.05-1.49,.34,.03,.58,.05,1.09,.05h3.86c.69,0,.99-.02,1.46-.05-.05,.45-.06,.77-.06,1.52v6.35c0,1.3-.54,1.71-2.22,1.71-.16,0-.42-.02-.77-.03-.05-.71-.16-1.18-.38-1.91,.29,.06,.67,.11,.93,.11,.37,0,.5-.06,.5-.27v-1.01h-2.34v1.46c0,.77,.02,1.25,.08,1.83h-2.18c.08-.56,.1-1.01,.1-1.81v-6.47Zm1.99,1.07h2.35v-.82h-2.35v.82Zm0,2.37h2.35v-.82h-2.35v.82Zm7.2-.96c1.34-.37,2.51-.9,3.41-1.57l1.44,1.7c-1.91,.91-3.17,1.39-4.85,1.83v1.25c0,.37,.26,.46,1.3,.46,.93,0,1.26-.06,1.42-.29,.14-.19,.18-.45,.21-1.73,.7,.32,1.15,.45,1.94,.59-.11,1.71-.26,2.22-.69,2.67-.46,.5-1.1,.61-3.28,.61-1.39,0-1.98-.08-2.38-.32-.38-.24-.53-.53-.53-1.07v-4.37c0-.69-.02-1.02-.06-1.41h2.14c-.05,.35-.06,.64-.06,1.3v.35Z"/><path class="cls-4" d="M150.63,35.13c0,.69,.03,1.3,.1,1.94h-2.27c.06-.59,.1-1.12,.1-1.92v-4.42c0-.78,0-1.14,.03-1.73-.46,.75-.7,1.07-1.22,1.57-.27-.96-.46-1.44-.96-2.32,1.18-1.12,2.11-2.51,2.85-4.24,.37-.83,.53-1.36,.64-1.97l2.16,.58c-.11,.24-.24,.56-.38,.98-.18,.48-.61,1.47-1.04,2.35v9.19Zm8.72-.37c0,.9-.18,1.42-.58,1.71-.37,.27-.86,.35-2.3,.35-.53,0-.98-.02-1.62-.06-.1-.85-.22-1.31-.59-2.14,.91,.11,1.39,.16,1.94,.16,.9,0,1.04-.06,1.04-.42v-6.92h-3.97c-.69,0-1.39,.03-1.99,.1v-2.11c.56,.06,1.14,.1,1.89,.1h4.07v-1.2c0-.78-.03-1.44-.1-2.02h2.31c-.06,.62-.1,1.18-.1,2.03v1.18h.32c.7,0,1.12-.03,1.55-.1v2.1c-.43-.06-.88-.08-1.5-.08h-.37v7.32Zm-5.78-6.43c1.07,1.39,1.67,2.35,2.35,3.79l-1.86,1.17c-.77-1.84-1.14-2.48-2.24-4l1.74-.96Z"/><path class="cls-4" d="M164.06,24.56c.5,.05,1.04,.06,1.71,.06,.93,0,2.42-.06,3.06-.14q-.05-.13-.21-.51s-.1-.21-.21-.48c-.16-.4-.21-.51-.34-.74l2.38-.32c.06,.43,.19,.85,.58,1.81,1.6-.22,3.23-.56,4.32-.93l.19,2c-1.89,.4-3.3,.69-3.81,.75,.22,.51,.24,.54,.5,1.07,1.94-.35,2.88-.58,3.75-.9l.19,2.05c-.21,.03-.85,.16-1.94,.4-.74,.14-.8,.16-1.12,.22,.8,1.34,1.01,1.63,2.11,2.95l-1.87,1.1c-1.04-.5-2.05-.69-3.52-.69-2,0-3.09,.45-3.09,1.25,0,.46,.37,.77,1.09,.95,.38,.08,1.1,.14,1.65,.14,1.68,0,3.94-.46,5.03-1.02l.34,2.32c-.43,.08-.46,.08-1.09,.24-1.42,.35-2.9,.53-4.37,.53-2.26,0-3.83-.48-4.58-1.42-.38-.46-.61-1.09-.61-1.71,0-1.06,.72-2.05,1.84-2.53,.9-.4,1.91-.58,3.27-.58,.99,0,1.81,.08,2.59,.26-.1-.11-.13-.14-.32-.42-.19-.27-.21-.3-.46-.72q-.11-.19-.21-.34c-1.47,.21-3.04,.3-6.18,.4-.29,.02-.42,.02-.7,.05l-.08-2.05c.45,.06,.7,.08,1.54,.08,1.68,0,3.01-.08,4.58-.29-.1-.18-.14-.27-.26-.51-.14-.32-.18-.37-.26-.56-1.65,.16-2.18,.18-4.74,.21-.24,0-.37,0-.64,.02l-.11-2Z"/><path class="cls-4" d="M187.44,29.41c-.13,1.89-.5,3.22-1.25,4.37-.85,1.34-2.02,2.19-4.11,3.04-.51-.99-.75-1.33-1.58-2.13,1.99-.61,3.17-1.44,3.83-2.71,.34-.64,.54-1.52,.59-2.58h-3.55c-1.07,0-1.63,.02-2.27,.1v-2.3c.74,.08,1.22,.11,2.3,.11h9.03c1.14,0,1.6-.02,2.37-.11v2.29c-.74-.06-1.01-.08-2.32-.08h-3.03Zm2.32-3.97c-.59-.06-.88-.08-2.34-.08h-4.43c-1.06,0-1.7,.02-2.27,.08v-2.29c.74,.1,1.17,.11,2.3,.11h4.35c1.26,0,1.71-.02,2.39-.11v.94l1.2-.42c.54,.88,.8,1.44,1.06,2.24l-1.34,.51c-.22-.74-.56-1.49-.91-2.08v1.09Zm2.75,.3c-.29-.85-.51-1.31-1.04-2.21l1.28-.48c.53,.82,.8,1.36,1.07,2.14l-1.31,.54Z"/><path class="cls-4" d="M194.99,28.27c.72,.1,1.3,.13,2.93,.13h8.1c1.62,0,2.19-.02,2.93-.11v2.62c-.64-.05-1.7-.08-2.94-.08h-8.08c-1.39,0-2.3,.03-2.93,.1v-2.66Z"/><path class="cls-4" d="M218.35,22.8c-.16,.27-.21,.35-.42,.82-.14,.29-.19,.4-.35,.69l4.23-.03c.56-.02,.83-.05,1.2-.21l1.25,1.23c-.22,.26-.24,.29-.51,1.09-1.06,3.09-2.29,5.25-3.99,7.01-1.41,1.46-3.15,2.64-5.43,3.68-.54-.96-.82-1.3-1.58-2.02,1.33-.53,2.11-.91,3.06-1.49,1.07-.69,1.73-1.22,2.53-2.08-1.09-.91-1.94-1.49-3.14-2.14l1.46-1.71c1.41,.78,2.16,1.28,3.07,1.98,.69-1.06,1.17-2.08,1.57-3.33l-4.69,.05c-.98,1.6-2.1,2.91-3.7,4.29-.66-.74-.98-.98-1.94-1.52,1.83-1.42,3.01-2.77,4-4.59,.46-.85,.77-1.58,.93-2.24l2.45,.53Z"/><path class="cls-4" d="M228.95,31.91c.06,.66,.16,.96,.43,1.3,.43,.56,1.18,.86,2.13,.86,1.39,0,2.27-.64,2.27-1.67,0-.5-.21-.9-.62-1.15-.5-.32-.99-.48-2.74-.88-1.36-.32-1.89-.53-2.5-.96-.9-.67-1.38-1.65-1.38-2.83,0-2.35,1.87-3.84,4.83-3.84,1.9,0,3.35,.58,4.18,1.67,.4,.54,.61,1.01,.82,1.95l-2.82,.3c-.08-.5-.19-.74-.42-1.02-.37-.43-1.01-.67-1.78-.67-1.25,0-2.08,.61-2.08,1.52,0,.43,.19,.78,.54,1.04,.35,.22,.67,.34,1.5,.53,1.74,.37,2.51,.58,3.15,.86,.66,.29,1.25,.78,1.62,1.39,.32,.53,.48,1.17,.48,1.94,0,2.61-1.83,4.1-5.03,4.1-2.06,0-3.62-.58-4.47-1.65-.53-.66-.75-1.26-.93-2.51l2.79-.27Z"/><path class="cls-4" d="M241.31,23.04c-.1,.64-.13,1.14-.13,2.21v8.59c0,1.02,.03,1.58,.13,2.21h-2.95c.1-.62,.13-1.22,.13-2.21v-8.59c0-1.1-.03-1.52-.13-2.21h2.95Z"/><path class="cls-4" d="M249.57,36.05c-.08-.54-.3-1.3-.69-2.26l-1.95-4.98c-.19-.5-.42-1.23-.75-2.43,.1,1.55,.13,2.19,.13,2.59v4.66c0,1.12,.03,1.78,.13,2.42h-2.67c.1-.67,.13-1.33,.13-2.42v-8.16c0-1.01-.03-1.76-.13-2.43h3.55c.1,.59,.29,1.26,.59,2.06l2.85,7.46,2.83-7.46c.32-.82,.5-1.46,.59-2.06h3.55c-.1,.77-.13,1.36-.13,2.43v8.16c0,1.2,.03,1.81,.13,2.42h-2.67c.1-.72,.13-1.3,.13-2.42v-4.71c0-.38,.03-1.02,.13-2.54q-.08,.3-.26,1.01c-.08,.27-.35,1.14-.45,1.38l-2.02,5.04c-.32,.83-.61,1.73-.69,2.24h-2.34Z"/><path class="cls-4" d="M266.99,32.24c-.9,2.03-1.95,2.98-3.33,2.98-1.99,0-3.39-1.94-3.39-4.69,0-1.82,.62-3.49,1.79-4.75,1.38-1.5,3.34-2.3,5.63-2.3,4.02,0,6.58,2.4,6.58,6.15,0,2.91-1.46,5.17-4.02,6.18-.77,.3-1.41,.46-2.54,.66-.34-1.01-.56-1.44-1.18-2.27,1.42-.11,2.42-.37,3.17-.77,1.38-.75,2.21-2.24,2.21-3.94,0-1.42-.62-2.62-1.71-3.35-.46-.3-.85-.43-1.49-.51-.32,2.64-.88,4.77-1.71,6.63Zm-2.54-5.79c-1.22,.94-1.97,2.5-1.97,4.1,0,1.2,.51,2.18,1.14,2.18,.46,0,.96-.62,1.47-1.92,.59-1.42,1.09-3.44,1.28-5.15-.77,.1-1.3,.32-1.92,.8Z"/><path class="cls-4" d="M282.26,32.2c-.64,.51-1.06,.77-1.91,1.2-.18-.34-.24-.43-.48-.74-.98,.61-1.62,.93-3.3,1.71-.08,.03-.1,.05-.38,.21l-.43-2.22c.37-.08,.8-.22,1.67-.54v-3.94h-.35c-.43,0-.78,.02-1.18,.08v-2c.34,.05,.71,.06,1.18,.06h.35v-1.87c0-.85-.03-1.3-.1-1.79h2.19c-.08,.51-.1,.93-.1,1.79v1.87h.24c.48,0,.78-.02,1.04-.05v1.95c-.37-.03-.61-.05-1.02-.05h-.26v3.04c.32-.18,.45-.24,.99-.51v1.09c.85-.5,1.26-.83,1.7-1.38h-.21c-.69,0-1.12,.02-1.5,.08v-1.81c.37,.06,.8,.08,1.54,.08h7.06c.75,0,1.26-.03,1.7-.08v1.81c-.46-.06-.98-.08-1.68-.08h-4.9c-.16,.26-.21,.34-.38,.56h5.09c.77,0,1.09-.02,1.55-.05-.05,.29-.05,.45-.06,.96-.06,2.27-.34,3.97-.75,4.63-.37,.59-.99,.8-2.42,.8-.34,0-.56-.02-1.25-.05-.06-.61-.18-1.01-.4-1.52-.86,.75-1.65,1.23-2.87,1.79-.4-.59-.69-.9-1.26-1.36,1.28-.51,2.02-.91,2.88-1.58,.72-.54,1.25-1.17,1.78-2.1h-.8c-1.09,1.54-2.37,2.5-4.48,3.33-.3-.53-.56-.85-1.09-1.31,1.81-.58,2.8-1.14,3.62-2.02h-1.01Zm.48-4.31c-.61,0-1.1,.02-1.47,.05,.05-.5,.06-.91,.06-1.58v-2.29c0-.66-.02-1.02-.06-1.49,.5,.06,.85,.08,1.66,.08h4.87c.83,0,1.25-.02,1.73-.08-.05,.45-.06,.78-.06,1.63v2.16c0,.69,.02,1.15,.06,1.55-.32-.02-.8-.03-1.44-.03h-5.35Zm.51-3.14h4.29v-.58h-4.29v.58Zm0,1.78h4.29v-.54h-4.29v.54Zm4.67,5.67c-.64,1.3-1.14,1.99-2,2.87,.51,.05,.93,.06,1.28,.06,.61,0,.75-.13,.91-.87,.1-.48,.14-.94,.24-2.06h-.43Z"/><path class="cls-4" d="M295.01,27.73c-.91,.54-1.34,.75-2.35,1.18-.34-.85-.53-1.23-1.06-1.97,1.39-.48,2.64-1.15,3.91-2.08,1.17-.88,1.9-1.62,2.58-2.62h2.24c.71,1.01,1.41,1.7,2.72,2.62,1.26,.9,2.4,1.47,3.92,1.99-.46,.78-.67,1.22-.99,2.11-1.04-.45-1.52-.69-2.4-1.22v.99c-.42-.05-.82-.06-1.47-.06h-5.65c-.54,0-1.01,.02-1.44,.06v-1.01Zm-1.33,9.28c.06-.54,.1-.99,.1-1.73v-3.87c0-.69-.02-1.15-.08-1.62,.37,.03,.78,.05,1.46,.05h8.21c.67,0,1.07-.02,1.46-.05-.06,.45-.08,.9-.08,1.62v3.89c0,.77,.02,1.18,.1,1.71h-2.23v-.74h-6.71v.74h-2.23Zm2.23-2.61h6.71v-2.66h-6.71v2.66Zm6.18-7.65c-1.23-.91-1.97-1.58-2.85-2.69-.88,1.18-1.52,1.82-2.72,2.69h5.57Z"/></g><g><path class="cls-1" d="M83.86,223.88c-.09,1.3-.34,2.21-.86,3-.58,.92-1.39,1.51-2.83,2.09-.35-.68-.52-.91-1.09-1.46,1.36-.42,2.18-.99,2.63-1.86,.23-.44,.37-1.04,.41-1.77h-2.44c-.74,0-1.12,.01-1.56,.07v-1.58c.51,.05,.84,.08,1.58,.08h6.21c.78,0,1.1-.01,1.63-.08v1.57c-.51-.04-.69-.06-1.6-.06h-2.08Zm1.6-2.73c-.41-.04-.61-.05-1.61-.05h-3.05c-.73,0-1.17,.01-1.56,.05v-1.57c.51,.07,.8,.08,1.58,.08h2.99c.87,0,1.18-.01,1.64-.08v.65l.83-.29c.37,.61,.55,.99,.73,1.54l-.92,.35c-.15-.51-.38-1.02-.63-1.43v.75Zm1.89,.21c-.2-.58-.35-.9-.71-1.52l.88-.33c.36,.56,.55,.93,.74,1.47l-.9,.38Z"/><path class="cls-1" d="M89.06,223.1c.5,.07,.89,.09,2.01,.09h5.57c1.11,0,1.51-.01,2.01-.08v1.8c-.44-.03-1.17-.05-2.02-.05h-5.56c-.96,0-1.58,.02-2.01,.07v-1.83Z"/><path class="cls-1" d="M105.12,219.34c-.11,.19-.14,.24-.29,.56-.1,.2-.13,.28-.24,.47l2.91-.02c.38-.01,.57-.03,.82-.14l.86,.85c-.15,.18-.17,.2-.35,.75-.73,2.12-1.57,3.61-2.74,4.82-.97,1-2.17,1.82-3.73,2.53-.38-.66-.56-.89-1.09-1.39,.91-.36,1.45-.63,2.1-1.02,.74-.47,1.19-.84,1.74-1.43-.75-.63-1.33-1.02-2.16-1.47l1-1.18c.97,.54,1.49,.88,2.11,1.36,.47-.73,.8-1.43,1.08-2.29l-3.22,.03c-.67,1.1-1.44,2-2.54,2.95-.45-.51-.67-.67-1.33-1.05,1.25-.98,2.07-1.9,2.75-3.16,.32-.58,.53-1.09,.64-1.54l1.68,.36Z"/><path class="cls-1" d="M112.62,225.6c.04,.45,.11,.66,.3,.89,.3,.39,.81,.59,1.46,.59,.96,0,1.56-.44,1.56-1.14,0-.34-.14-.62-.43-.79-.34-.22-.68-.33-1.88-.61-.94-.22-1.3-.36-1.72-.66-.62-.46-.95-1.13-.95-1.95,0-1.62,1.29-2.64,3.32-2.64,1.31,0,2.3,.4,2.87,1.14,.28,.37,.42,.69,.56,1.34l-1.94,.21c-.05-.34-.13-.51-.29-.7-.25-.3-.69-.46-1.22-.46-.86,0-1.43,.42-1.43,1.05,0,.3,.13,.54,.37,.71,.24,.15,.46,.23,1.03,.36,1.2,.25,1.73,.4,2.17,.59,.45,.2,.86,.54,1.11,.96,.22,.36,.33,.8,.33,1.33,0,1.79-1.25,2.82-3.45,2.82-1.42,0-2.49-.4-3.07-1.13-.36-.45-.52-.87-.64-1.73l1.91-.19Z"/><path class="cls-1" d="M121.56,219.51c-.07,.44-.09,.78-.09,1.52v5.91c0,.7,.02,1.09,.09,1.52h-2.02c.07-.43,.09-.84,.09-1.52v-5.91c0-.76-.02-1.04-.09-1.52h2.02Z"/><path class="cls-1" d="M127.68,228.45c-.05-.37-.21-.89-.47-1.55l-1.34-3.42c-.13-.34-.29-.85-.52-1.67,.07,1.07,.09,1.51,.09,1.78v3.2c0,.77,.02,1.22,.09,1.66h-1.84c.07-.46,.09-.91,.09-1.66v-5.61c0-.69-.02-1.21-.09-1.67h2.44c.07,.41,.2,.87,.41,1.42l1.96,5.13,1.95-5.13c.22-.56,.34-1,.41-1.42h2.44c-.07,.53-.09,.93-.09,1.67v5.61c0,.83,.02,1.24,.09,1.66h-1.84c.07-.5,.09-.89,.09-1.66v-3.23c0-.26,.02-.7,.09-1.75q-.06,.21-.18,.69c-.05,.19-.24,.78-.31,.95l-1.39,3.46c-.22,.57-.42,1.19-.47,1.54h-1.61Z"/></g><rect class="cls-3" x="60.92" y="175.91" width="90" height="32" rx="2" ry="2"/><g><path class="cls-1" d="M73.01,187.46c.04,.45,.11,.66,.3,.89,.3,.39,.81,.59,1.46,.59,.96,0,1.56-.44,1.56-1.14,0-.34-.14-.62-.43-.79-.34-.22-.68-.33-1.88-.61-.94-.22-1.3-.36-1.72-.66-.62-.46-.95-1.13-.95-1.95,0-1.62,1.29-2.64,3.32-2.64,1.31,0,2.3,.4,2.87,1.14,.28,.37,.42,.69,.56,1.34l-1.94,.21c-.05-.34-.13-.51-.29-.7-.25-.3-.69-.46-1.22-.46-.86,0-1.43,.42-1.43,1.05,0,.3,.13,.54,.37,.71,.24,.15,.46,.23,1.03,.36,1.2,.25,1.73,.4,2.17,.59,.45,.2,.86,.54,1.11,.96,.22,.36,.33,.8,.33,1.33,0,1.79-1.25,2.82-3.45,2.82-1.42,0-2.49-.4-3.07-1.13-.36-.45-.52-.87-.64-1.73l1.91-.19Z"/><path class="cls-1" d="M83.49,190.31c-.05-.37-.21-.89-.47-1.55l-1.34-3.42c-.13-.34-.29-.85-.52-1.67,.07,1.07,.09,1.51,.09,1.78v3.2c0,.77,.02,1.22,.09,1.66h-1.84c.07-.46,.09-.91,.09-1.66v-5.61c0-.69-.02-1.21-.09-1.67h2.44c.07,.41,.2,.87,.41,1.42l1.96,5.13,1.95-5.13c.22-.56,.34-1,.41-1.42h2.44c-.07,.53-.09,.93-.09,1.67v5.61c0,.83,.02,1.24,.09,1.66h-1.84c.07-.5,.09-.89,.09-1.66v-3.23c0-.26,.02-.7,.09-1.75q-.06,.21-.18,.69c-.05,.19-.24,.78-.31,.95l-1.39,3.46c-.22,.57-.42,1.19-.47,1.54h-1.61Z"/><path class="cls-1" d="M92.2,187.46c.04,.45,.11,.66,.3,.89,.3,.39,.81,.59,1.46,.59,.96,0,1.56-.44,1.56-1.14,0-.34-.14-.62-.43-.79-.34-.22-.68-.33-1.88-.61-.94-.22-1.3-.36-1.72-.66-.62-.46-.95-1.13-.95-1.95,0-1.62,1.29-2.64,3.32-2.64,1.31,0,2.3,.4,2.87,1.14,.28,.37,.42,.69,.56,1.34l-1.94,.21c-.05-.34-.13-.51-.29-.7-.25-.3-.69-.46-1.22-.46-.86,0-1.43,.42-1.43,1.05,0,.3,.13,.54,.37,.71,.24,.15,.46,.23,1.03,.36,1.2,.25,1.73,.4,2.17,.59,.45,.2,.86,.54,1.11,.96,.22,.36,.33,.8,.33,1.33,0,1.79-1.25,2.82-3.45,2.82-1.42,0-2.49-.4-3.07-1.13-.36-.45-.52-.87-.64-1.73l1.91-.19Z"/><path class="cls-1" d="M103.65,187.26c0,.1,0,.13-.01,.21,.34,.38,.62,.58,1.17,.87-.18,.26-.28,.42-.35,.58q-.18,.36-.24,.52c-.32-.19-.58-.42-.82-.7-.28,.9-.64,1.53-1.32,2.24-.32-.42-.52-.59-1.01-.92,.83-.64,1.27-1.52,1.38-2.79-.36,.01-.53,.02-.69,.03v-1.29c.25,.03,.4,.04,.86,.04h2.18s-.01-.15-.05-.46l-.45,.15c-.01-.17-.01-.2-.03-.32q-.19,.03-1.13,.15-.3,.03-.87,.11l-.1,.02c-.11,.01-.13,.01-.2,.02v-.07c-.14,.18-.18,.25-.21,.32-.01,.03-.08,.23-.19,.62-.19-.24-.4-.64-.56-1.07,.01,.17,.02,.57,.03,1.21v2.96c0,.73,.01,1.1,.05,1.39h-1.39c.04-.33,.07-.79,.07-1.39v-1.63c0-.35,.02-.79,.07-1.56-.26,.92-.52,1.56-.81,2.06-.17-.58-.34-1.03-.58-1.46,.51-.75,.98-1.95,1.22-3.08h-.23c-.25,0-.53,.02-.73,.05v-1.38c.19,.04,.33,.05,.73,.05h.33v-.84c0-.48-.02-.83-.05-1.14h1.38c-.03,.25-.04,.55-.04,1.14v.84h.17c.15,0,.26,0,.42-.01-.05-.05-.11-.1-.17-.15l.73-.87,.21,.21c.31-.44,.48-.76,.65-1.19l1.01,.51c-.34,.62-.61,1.02-.94,1.45,.11,.13,.14,.18,.23,.3,.31-.45,.36-.54,.57-.97l.64,.42v-.45c-.01-.63-.02-.86-.08-1.2h1.42c-.04,.21-.06,.36-.06,.69v.51l.24-.31,.22,.22c.28-.37,.48-.73,.65-1.13l1.01,.55c-.34,.55-.53,.81-.95,1.31q.12,.12,.25,.29c.24-.31,.36-.48,.65-.97l.87,.61c-1.08,1.32-1.14,1.4-1.69,1.92,.26-.01,.52-.03,.83-.07-.05-.18-.09-.24-.18-.43l.74-.23c.2,.46,.38,1.02,.56,1.75l-.8,.24c-.04-.22-.05-.3-.09-.45-.33,.04-.37,.04-.58,.07,.18,.2,.31,.4,.47,.68,.43-.01,.57-.01,.83-.06v1.32c-.32-.03-.76-.05-1.16-.05h-.4l.98,.5c-.47,.63-.73,.91-1.18,1.33,.28,.35,.47,.53,.58,.53,.18,0,.26-.29,.36-1.29,.3,.33,.59,.56,.95,.71-.21,1.45-.53,1.97-1.19,1.97-.57,0-1.03-.31-1.68-1.14-.73,.51-1.4,.85-2.3,1.18-.2-.47-.34-.7-.73-1.16,.94-.21,1.61-.49,2.43-1.01-.24-.51-.42-1.02-.55-1.62h-1.32Zm-1.86-2.58c.09,0,.11,.01,.2,.01,.35-.41,.45-.52,.66-.78-.37-.48-.51-.64-.86-.98v1.14c-.29-.03-.38-.04-.58-.04h-.13c.17,.45,.43,.86,.79,1.22l-.08-.57Zm2.78-.81c-.02-.38-.02-.54-.03-.88-.47,.68-.86,1.16-1.36,1.65,.31-.01,.54-.03,.89-.08-.07-.21-.09-.28-.17-.51l.67-.19Zm2-.12c-.25-.33-.44-.54-.75-.84q0,.75,.06,1.56c.38-.39,.47-.47,.69-.73Zm.42,2.31c-.15-.28-.24-.42-.37-.59-.07,.01-.28,.02-.65,.06q.02,.22,.05,.54h.97Zm-.76,1.21c.09,.33,.17,.56,.29,.85,.33-.32,.45-.47,.68-.85h-.97Z"/><path class="cls-1" d="M114.03,184.27c-.12-.3-.17-.41-.24-.59-.79,.12-2.39,.3-3.28,.35-.28,.02-.54,.04-.73,.08l-.14-1.43c.19,.01,.42,.02,.55,.02h.25c.44-.77,.7-1.39,.85-2.02l1.51,.22c-.08,.15-.12,.23-.21,.41-.12,.28-.44,.86-.71,1.33,.38-.02,.84-.07,1.35-.12-.17-.32-.22-.42-.43-.79l1.04-.5c.48,.68,.83,1.27,1.3,2.22v-1.68c0-.41-.01-.67-.05-.93h1.5c-.04,.25-.06,.45-.06,.87v.4c.53-.18,.76-.26,1.25-.51,.48-.24,.66-.35,1.04-.65l.97,1.2q-.25,.11-.84,.39c-.66,.32-1.5,.63-2.43,.89v.56c0,.25,.1,.29,.72,.29,.7,0,.96-.03,1.09-.14,.1-.09,.13-.33,.14-1.04,.46,.2,.85,.31,1.32,.37-.09,1.11-.19,1.47-.47,1.73-.3,.27-.76,.34-2.24,.34-.79,0-1.14-.03-1.43-.13-.35-.13-.51-.37-.51-.78v-.98l-1.11,.65Zm-3.82,1.07c0-.36-.01-.69-.03-1.02,.23,.02,.4,.03,.75,.03h2.65c.47,0,.68-.01,1-.03-.03,.31-.04,.53-.04,1.04v4.37c0,.89-.37,1.18-1.53,1.18-.11,0-.29-.01-.53-.02-.03-.48-.11-.81-.26-1.31,.2,.04,.46,.08,.64,.08,.25,0,.34-.04,.34-.19v-.69h-1.61v1c0,.53,.01,.86,.05,1.25h-1.5c.06-.38,.07-.69,.07-1.24v-4.44Zm1.36,.74h1.62v-.56h-1.62v.56Zm0,1.63h1.62v-.56h-1.62v.56Zm4.95-.66c.92-.25,1.73-.62,2.34-1.08l.99,1.17c-1.31,.63-2.18,.96-3.33,1.25v.86c0,.25,.18,.32,.89,.32,.64,0,.87-.04,.98-.2,.1-.13,.12-.31,.14-1.19,.48,.22,.79,.31,1.33,.41-.08,1.18-.18,1.53-.47,1.84-.32,.34-.76,.42-2.26,.42-.96,0-1.36-.05-1.64-.22-.26-.17-.36-.36-.36-.74v-3c0-.47-.01-.7-.04-.97h1.47c-.03,.24-.04,.44-.04,.89v.24Z"/><path class="cls-1" d="M123.47,189.67c0,.47,.02,.89,.07,1.33h-1.56c.04-.41,.07-.77,.07-1.32v-3.04c0-.54,0-.78,.02-1.19-.32,.52-.48,.74-.84,1.08-.19-.66-.32-.99-.66-1.59,.81-.77,1.45-1.73,1.96-2.92,.25-.57,.36-.94,.44-1.35l1.49,.4c-.08,.17-.17,.39-.26,.67-.12,.33-.42,1.01-.72,1.62v6.31Zm6-.25c0,.62-.12,.98-.4,1.18-.25,.19-.59,.24-1.58,.24-.36,0-.67-.01-1.11-.04-.07-.58-.15-.9-.41-1.47,.63,.08,.96,.11,1.33,.11,.62,0,.71-.04,.71-.29v-4.75h-2.73c-.47,0-.96,.02-1.36,.07v-1.45c.38,.04,.78,.07,1.3,.07h2.79v-.83c0-.54-.02-.99-.07-1.39h1.58c-.04,.43-.07,.81-.07,1.4v.81h.22c.48,0,.77-.02,1.07-.07v1.44c-.3-.04-.6-.05-1.03-.05h-.25v5.03Zm-3.97-4.42c.74,.96,1.14,1.62,1.62,2.61l-1.28,.8c-.53-1.27-.78-1.71-1.54-2.75l1.2-.66Z"/><path class="cls-1" d="M132.71,182.41c.34,.03,.71,.04,1.18,.04,.64,0,1.66-.04,2.1-.1q-.03-.09-.14-.35s-.07-.14-.14-.33c-.11-.28-.14-.35-.23-.51l1.64-.22c.04,.3,.13,.58,.4,1.24,1.1-.15,2.22-.39,2.97-.64l.13,1.38c-1.3,.28-2.27,.47-2.62,.52,.15,.35,.17,.37,.34,.74,1.33-.24,1.98-.4,2.57-.62l.13,1.41c-.14,.02-.58,.11-1.33,.27-.51,.1-.55,.11-.77,.15,.55,.92,.69,1.12,1.45,2.02l-1.29,.76c-.71-.34-1.41-.47-2.42-.47-1.38,0-2.12,.31-2.12,.86,0,.32,.25,.53,.75,.65,.26,.06,.76,.1,1.13,.1,1.16,0,2.71-.32,3.45-.7l.23,1.59c-.3,.06-.32,.06-.75,.17-.98,.24-1.99,.36-3,.36-1.55,0-2.63-.33-3.15-.98-.26-.32-.42-.75-.42-1.18,0-.73,.5-1.41,1.27-1.74,.62-.28,1.31-.4,2.24-.4,.68,0,1.24,.06,1.78,.18-.07-.08-.09-.1-.22-.29-.13-.19-.14-.21-.32-.5q-.08-.13-.14-.23c-1.01,.14-2.09,.21-4.25,.28-.2,.01-.29,.01-.48,.03l-.05-1.41c.31,.04,.48,.05,1.06,.05,1.16,0,2.07-.05,3.15-.2-.07-.12-.1-.19-.18-.35-.1-.22-.12-.25-.18-.39-1.13,.11-1.5,.12-3.26,.14-.17,0-.25,0-.44,.01l-.08-1.38Z"/><path class="cls-1" d="M86.06,198.75c-.09,1.3-.34,2.21-.86,3-.58,.92-1.39,1.51-2.83,2.09-.35-.68-.52-.91-1.09-1.46,1.36-.42,2.18-.99,2.63-1.86,.23-.44,.37-1.04,.41-1.77h-2.44c-.74,0-1.12,.01-1.56,.07v-1.58c.51,.05,.84,.08,1.58,.08h6.21c.78,0,1.1-.01,1.63-.08v1.57c-.51-.04-.69-.06-1.6-.06h-2.08Zm1.6-2.73c-.41-.04-.61-.05-1.61-.05h-3.05c-.73,0-1.17,.01-1.56,.05v-1.57c.51,.07,.8,.08,1.58,.08h2.99c.87,0,1.18-.01,1.64-.08v.65l.83-.29c.37,.61,.55,.99,.73,1.54l-.92,.35c-.15-.51-.38-1.02-.63-1.43v.75Zm1.89,.21c-.2-.58-.35-.9-.71-1.52l.88-.33c.36,.56,.55,.93,.74,1.47l-.9,.38Z"/><path class="cls-1" d="M91.26,197.96c.5,.07,.89,.09,2.01,.09h5.57c1.11,0,1.51-.01,2.01-.08v1.8c-.44-.03-1.17-.05-2.02-.05h-5.56c-.96,0-1.58,.02-2.01,.07v-1.83Z"/><path class="cls-1" d="M107.32,194.2c-.11,.19-.14,.24-.29,.56-.1,.2-.13,.28-.24,.47l2.91-.02c.38-.01,.57-.03,.82-.14l.86,.85c-.15,.18-.17,.2-.35,.75-.73,2.12-1.57,3.61-2.74,4.82-.97,1-2.17,1.82-3.73,2.53-.38-.66-.56-.89-1.09-1.39,.91-.36,1.45-.63,2.1-1.02,.74-.47,1.19-.84,1.74-1.43-.75-.63-1.33-1.02-2.16-1.47l1-1.18c.97,.54,1.49,.88,2.11,1.36,.47-.73,.8-1.43,1.08-2.29l-3.22,.03c-.67,1.1-1.44,2-2.54,2.95-.45-.51-.67-.67-1.33-1.05,1.25-.98,2.07-1.9,2.75-3.16,.32-.58,.53-1.09,.64-1.54l1.68,.36Z"/><path class="cls-1" d="M114.82,200.46c.04,.45,.11,.66,.3,.89,.3,.39,.81,.59,1.46,.59,.96,0,1.56-.44,1.56-1.14,0-.34-.14-.62-.43-.79-.34-.22-.68-.33-1.88-.61-.94-.22-1.3-.36-1.72-.66-.62-.46-.95-1.13-.95-1.95,0-1.62,1.29-2.64,3.32-2.64,1.31,0,2.3,.4,2.87,1.14,.28,.37,.42,.69,.56,1.34l-1.94,.21c-.05-.34-.13-.51-.29-.7-.25-.3-.69-.46-1.22-.46-.86,0-1.43,.42-1.43,1.05,0,.3,.13,.54,.37,.71,.24,.15,.46,.23,1.03,.36,1.2,.25,1.73,.4,2.17,.59,.45,.2,.86,.54,1.11,.96,.22,.36,.33,.8,.33,1.33,0,1.79-1.25,2.82-3.45,2.82-1.42,0-2.49-.4-3.07-1.13-.36-.45-.52-.87-.64-1.73l1.91-.19Z"/><path class="cls-1" d="M123.76,194.37c-.07,.44-.09,.78-.09,1.52v5.91c0,.7,.02,1.09,.09,1.52h-2.02c.07-.43,.09-.84,.09-1.52v-5.91c0-.76-.02-1.04-.09-1.52h2.02Z"/><path class="cls-1" d="M129.66,203.31c-.05-.37-.21-.89-.47-1.55l-1.34-3.42c-.13-.34-.29-.85-.52-1.67,.07,1.07,.09,1.51,.09,1.78v3.2c0,.77,.02,1.22,.09,1.66h-1.84c.07-.46,.09-.91,.09-1.66v-5.61c0-.69-.02-1.21-.09-1.67h2.44c.07,.41,.2,.87,.41,1.42l1.96,5.13,1.95-5.13c.22-.56,.34-1,.41-1.42h2.44c-.07,.53-.09,.93-.09,1.67v5.61c0,.83,.02,1.24,.09,1.66h-1.84c.07-.5,.09-.89,.09-1.66v-3.23c0-.26,.02-.7,.09-1.75q-.06,.21-.18,.69c-.05,.19-.24,.78-.31,.95l-1.39,3.46c-.22,.57-.42,1.19-.47,1.54h-1.61Z"/></g><g><path class="cls-7" d="M121.96,125.1l-10.34-10.34c-.64-.64-1.51-1-2.42-1h-17.57c-1.26,0-2.28,1.02-2.28,2.28v45.57c0,1.26,1.02,2.28,2.28,2.28h29.05c1.26,0,2.28-1.02,2.28-2.28v-34.09c0-.91-.36-1.78-1-2.42Z"/><rect class="cls-1" x="94.75" y="152.25" width="6.13" height="5.65" rx=".8" ry=".8"/><rect class="cls-1" x="94.75" y="144.07" width="6.13" height="5.65" rx=".8" ry=".8"/><path class="cls-1" d="M108.49,157.19c0,.44-.36,.8-.8,.8h-3.37c-.44,0-.8-.36-.8-.8v-15.42c0-.44-.36-.8-.8-.8h-7.19c-.44,0-.8-.36-.8-.8v-3.49c0-.44,.35-.8,.79-.8l12.15-.06c.44,0,.8,.36,.8,.8v20.56Z"/><rect class="cls-1" x="111.35" y="152.25" width="6.13" height="5.65" rx=".8" ry=".8"/><rect class="cls-1" x="111.35" y="144.07" width="6.13" height="5.65" rx=".8" ry=".8"/><rect class="cls-1" x="111.35" y="135.89" width="6.13" height="5.65" rx=".8" ry=".8"/></g><g><path class="cls-5" d="M89.94,92.6c-1.12-.59-2.07-.98-3.47-1.46l1.22-1.32c1.53,.49,2.37,.83,3.77,1.51l-1.09,1.26h2.73c.79,0,1.23-.01,1.81-.08v1.86c-.56-.04-.91-.06-1.81-.06h-3.1v2.21h2.59c.62,0,1.11-.03,1.57-.07v1.83c-.48-.06-.81-.07-1.53-.07h-2.63v2.61h3.49c.8,0,1.36-.03,2-.1v1.92c-.7-.07-1.15-.1-1.95-.1h-8.7c-.9,0-1.44,.03-2.07,.1v-1.92c.55,.07,1.12,.1,2.02,.1h3.28v-2.61h-2.34c-.74,0-1.18,.01-1.68,.07v-1.83c.45,.06,.8,.07,1.53,.07h2.49v-2.21h-2.93c-1.06,0-1.42,.01-1.83,.06v-1.86c.55,.07,.94,.08,1.81,.08h4.83Z"/><path class="cls-5" d="M99.57,98.49c.06,.57,.14,.84,.38,1.13,.38,.49,1.04,.76,1.86,.76,1.22,0,1.99-.56,1.99-1.46,0-.43-.18-.78-.55-1.01-.43-.28-.87-.42-2.4-.77-1.19-.28-1.65-.46-2.19-.84-.78-.59-1.2-1.44-1.2-2.48,0-2.06,1.64-3.36,4.23-3.36,1.67,0,2.93,.5,3.66,1.46,.35,.48,.53,.88,.71,1.71l-2.47,.27c-.07-.43-.17-.64-.36-.9-.32-.38-.88-.59-1.56-.59-1.09,0-1.82,.53-1.82,1.33,0,.38,.17,.69,.48,.91,.31,.2,.59,.29,1.32,.46,1.53,.32,2.2,.5,2.76,.76,.58,.25,1.09,.69,1.42,1.22,.28,.46,.42,1.02,.42,1.69,0,2.28-1.6,3.59-4.4,3.59-1.81,0-3.17-.5-3.91-1.44-.46-.57-.66-1.11-.81-2.2l2.44-.24Z"/><path class="cls-5" d="M110.95,90.73c-.08,.56-.11,.99-.11,1.93v7.52c0,.9,.03,1.39,.11,1.93h-2.58c.08-.55,.11-1.06,.11-1.93v-7.52c0-.97-.03-1.33-.11-1.93h2.58Z"/><path class="cls-5" d="M119.02,102.12c-.07-.48-.27-1.13-.6-1.97l-1.71-4.36c-.17-.43-.36-1.08-.66-2.13,.08,1.36,.11,1.92,.11,2.27v4.08c0,.98,.03,1.55,.11,2.12h-2.34c.08-.59,.11-1.16,.11-2.12v-7.14c0-.88-.03-1.54-.11-2.13h3.11c.08,.52,.25,1.11,.52,1.81l2.49,6.53,2.48-6.53c.28-.71,.43-1.27,.52-1.81h3.11c-.08,.67-.11,1.19-.11,2.13v7.14c0,1.05,.03,1.58,.11,2.12h-2.34c.08-.63,.11-1.13,.11-2.12v-4.12c0-.34,.03-.9,.11-2.23q-.07,.27-.22,.88c-.07,.24-.31,1-.39,1.21l-1.76,4.41c-.28,.73-.53,1.51-.6,1.96h-2.04Z"/></g></svg>