<?xml version="1.0" encoding="UTF-8"?><svg id="_イヤー_1" xmlns="http://www.w3.org/2000/svg" width="380" height="251.84" viewBox="0 0 380 251.84"><defs><style>.cls-1{fill:#fff;}.cls-2{fill:none;stroke:#e6e6e6;stroke-miterlimit:10;stroke-width:4px;}.cls-3{fill:#222;}.cls-4{fill:#4d4d4d;}.cls-5{fill:#00aae7;}.cls-6{fill:gray;}.cls-7{fill:#f39800;}.cls-8{fill:#f2f2f2;}</style></defs><g><path class="cls-3" d="M84.9,3.17c-1.28-.67-2.37-1.12-3.97-1.67l1.39-1.5c1.75,.56,2.71,.94,4.31,1.73l-1.25,1.44h3.12c.9,0,1.41-.02,2.07-.1v2.13c-.64-.05-1.04-.06-2.07-.06h-3.54v2.53h2.96c.7,0,1.26-.03,1.79-.08v2.1c-.54-.06-.93-.08-1.75-.08h-3.01v2.98h3.99c.91,0,1.55-.03,2.29-.11v2.19c-.8-.08-1.31-.11-2.22-.11h-9.94c-1.02,0-1.65,.03-2.37,.11v-2.19c.62,.08,1.28,.11,2.3,.11h3.75v-2.98h-2.67c-.85,0-1.34,.02-1.92,.08v-2.1c.51,.06,.91,.08,1.74,.08h2.85v-2.53h-3.35c-1.22,0-1.62,.02-2.1,.06V3.07c.62,.08,1.07,.1,2.06,.1h5.52Z"/><path class="cls-3" d="M96.23,9.91c.06,.66,.16,.96,.43,1.3,.43,.56,1.18,.86,2.13,.86,1.39,0,2.27-.64,2.27-1.67,0-.5-.21-.9-.62-1.15-.5-.32-.99-.48-2.74-.88-1.36-.32-1.89-.53-2.5-.96-.9-.67-1.38-1.65-1.38-2.83,0-2.35,1.87-3.84,4.83-3.84,1.9,0,3.35,.58,4.18,1.67,.4,.54,.61,1.01,.82,1.95l-2.82,.3c-.08-.5-.19-.74-.42-1.02-.37-.43-1.01-.67-1.78-.67-1.25,0-2.08,.61-2.08,1.52,0,.43,.19,.78,.54,1.04,.35,.22,.67,.34,1.5,.53,1.74,.37,2.51,.58,3.15,.86,.66,.29,1.25,.78,1.62,1.39,.32,.53,.48,1.17,.48,1.94,0,2.61-1.83,4.1-5.03,4.1-2.06,0-3.62-.58-4.47-1.65-.53-.66-.75-1.26-.93-2.51l2.79-.27Z"/><path class="cls-3" d="M108.6,1.04c-.1,.64-.13,1.14-.13,2.21V11.84c0,1.02,.03,1.58,.13,2.21h-2.95c.1-.62,.13-1.22,.13-2.21V3.25c0-1.1-.03-1.52-.13-2.21h2.95Z"/><path class="cls-3" d="M117.17,14.05c-.08-.54-.3-1.3-.69-2.26l-1.95-4.98c-.19-.5-.42-1.23-.75-2.43,.1,1.55,.13,2.19,.13,2.59v4.66c0,1.12,.03,1.78,.13,2.42h-2.67c.1-.67,.13-1.33,.13-2.42V3.47c0-1.01-.03-1.76-.13-2.43h3.55c.1,.59,.29,1.26,.59,2.06l2.85,7.46,2.83-7.46c.32-.82,.5-1.46,.59-2.06h3.55c-.1,.77-.13,1.36-.13,2.43V11.64c0,1.2,.03,1.81,.13,2.42h-2.67c.1-.72,.13-1.3,.13-2.42V6.93c0-.38,.03-1.02,.13-2.54q-.08,.3-.26,1.01c-.08,.27-.35,1.14-.45,1.38l-2.02,5.04c-.32,.83-.61,1.73-.69,2.24h-2.34Z"/><path class="cls-3" d="M127.68,4.4h.1c.48,0,2.4-.18,3.22-.3,.29-1.68,.4-2.62,.4-3.23,0-.05,0-.13-.02-.24l2.48,.24c-.05,.16-.08,.29-.11,.46-.02,.06-.14,.75-.37,2.06-.06,.34-.06,.35-.11,.54,.38-.02,.61-.03,.85-.03,1.14,0,1.97,.3,2.5,.93,.54,.66,.75,1.44,.75,2.95,0,2.87-.48,5.09-1.3,5.97-.48,.53-.99,.72-1.87,.72-.69,0-1.36-.13-2.45-.45,.03-.35,.03-.48,.03-.72,0-.56-.05-.96-.21-1.71,.82,.35,1.74,.61,2.27,.61,.4,0,.64-.26,.83-.9,.24-.77,.43-2.43,.43-3.65,0-.77-.11-1.18-.4-1.44-.21-.21-.46-.27-1.04-.27-.27,0-.45,.02-.8,.05-.56,2.61-1.44,5.04-2.93,8.15-.14,.3-.16,.34-.26,.54l-2.23-1.2c1.09-1.42,2.45-4.64,3.12-7.31-1.14,.16-2.22,.35-2.69,.48l-.21-2.24Zm10.69-3.27c.64,.7,1.01,1.23,1.47,2.11l-1.39,.7c-.43-.82-.96-1.6-1.49-2.16l1.41-.66Zm1.57,2.61c1.25,1.78,1.97,3.36,2.54,5.52l-2.21,1.07c-.27-1.33-.59-2.32-1.18-3.62-.46-1.02-.69-1.44-1.12-2.05l1.97-.93Zm.35-3.46c.58,.61,1.06,1.26,1.47,2.03l-1.38,.72c-.46-.83-.9-1.46-1.46-2.1l1.36-.66Z"/><path class="cls-3" d="M149.72,1.12c0-.35-.03-.64-.1-.99h2.34c-.06,.34-.1,.61-.1,.98v.29h3.46c.9,0,1.57-.03,2.1-.1V3.31c-.5-.05-.94-.06-1.73-.06h-.67c-.26,.61-.48,1.07-.69,1.47h2.07c.93,0,1.38-.02,1.82-.08v2.02c-.53-.06-.91-.08-1.84-.08h-10.9c-.91,0-1.3,.02-1.81,.08v-2.02c.48,.06,.94,.08,1.89,.08h1.78c-.21-.56-.4-1.01-.67-1.47h-.59c-.75,0-1.17,.02-1.68,.06V1.3c.51,.06,1.14,.1,1.98,.1h3.35v-.27Zm5.12,6.21c.72,0,1.06-.02,1.57-.05-.06,.54-.08,.94-.08,1.52v4.63c0,.7,.03,1.18,.1,1.67h-2.15v-.64h-6.71v.64h-2.15c.06-.53,.1-.99,.1-1.67v-4.63c0-.56-.02-1.01-.08-1.52,.51,.03,.85,.05,1.55,.05h7.84Zm-7.27,2.71h6.71v-.96h-6.71v.96Zm0,2.67h6.71v-1.01h-6.71v1.01Zm4.53-7.99c.26-.46,.5-.99,.66-1.47h-3.79c.27,.56,.46,1.01,.64,1.47h2.5Z"/><path class="cls-3" d="M162.88,11.08c-.3,1.82-.82,2.93-1.94,4.15-.54-.59-1.15-1.1-1.83-1.55,1.36-1.17,1.87-2.77,1.87-5.79,0-.78-.02-1.09-.06-1.57,.5,.05,.75,.06,1.7,.06h8.51c1.01,0,1.26-.02,1.73-.06-.05,.45-.06,.82-.06,1.55v2.3c0,.82,.02,1.23,.08,1.75h-2.18v-.83h-7.83Zm2.79-9.65c0-.62-.03-.9-.1-1.26h2.32c-.06,.34-.08,.62-.08,1.26h4.27c.9,0,1.55-.03,1.99-.1v1.92c-.54-.06-1.06-.08-1.92-.08h-4.34v.82h3.71c.83,0,1.31-.02,1.68-.08v1.86c-.53-.05-1.01-.06-1.73-.06h-9.22c-.72,0-1.14,.02-1.68,.06v-1.86c.35,.06,.85,.08,1.66,.08h3.43v-.82h-3.95c-.88,0-1.46,.03-1.94,.08V1.33c.43,.06,1.09,.1,1.98,.1h3.91Zm.13,7.86v-1.17h-2.72c0,.53,0,.74-.03,1.17h2.75Zm4.93,0v-1.17h-2.87v1.17h2.87Z"/><path class="cls-3" d="M175.44,6.15c.42,.06,.69,.08,1.26,.08h1.3c.5,0,.85-.02,1.22-.06-.05,.46-.06,.88-.06,1.78v3.51c.27,.48,.67,.82,1.15,1.01,.64,.24,2.34,.4,4.26,.4s3.47-.11,5.97-.4c-.24,.74-.4,1.39-.51,2.24-1.86,.08-3.51,.11-5.47,.11-4.05,0-5.12-.27-6.39-1.63-.8,.78-.91,.88-2.02,1.7l-.99-2.11c.59-.26,1.3-.74,2.03-1.38v-3.2h-.75c-.35,0-.59,.02-.99,.08v-2.11Zm1.41-5.81c1.31,1.12,2,1.83,2.88,2.9l-1.58,1.6c-.98-1.31-1.67-2.05-2.83-3.04l1.54-1.46Zm5.97,3.28c-.51-.34-.77-.5-1.14-.69l1.09-.61h-1.23c-.78,0-1.22,.02-1.7,.08V.46c.54,.06,1.1,.1,2.02,.1h4.98c1.09,0,1.63-.03,1.92-.1l.99,1.12c-.22,.14-.24,.16-.78,.62-.58,.5-1.3,1.04-1.84,1.41h1.01c.78,0,1.15-.02,1.58-.06-.05,.43-.06,.91-.06,1.78v5.17c0,1.41-.4,1.76-2.03,1.76-.16,0-.42,0-.77-.02-.06-.69-.16-1.07-.37-1.6,.38,.06,.64,.1,.9,.1,.27,0,.3-.05,.3-.4v-.48h-1.94v.56c0,.93,.02,1.28,.08,1.79h-2.06c.06-.46,.1-.96,.1-1.79v-.56h-1.78v.67c0,.99,.02,1.39,.1,1.76h-2.13c.05-.46,.08-.96,.08-1.76V5.43c0-.86-.02-1.3-.08-1.87,.5,.05,.98,.06,1.81,.06h.96Zm-.74,1.57v.86h1.78v-.86h-1.78Zm0,3.2h1.78v-.86h-1.78v.86Zm1.49-6.07c.42,.29,.74,.53,1.38,1.02,.54-.37,.83-.59,1.34-1.02h-2.72Zm2.18,3.73h1.94v-.86h-1.94v.86Zm1.94,1.47h-1.94v.86h1.94v-.86Z"/><path class="cls-3" d="M191.59,2.79c.4,.06,.69,.08,1.3,.08h3.31c.66,0,.94-.02,1.3-.06v1.84c-.37-.05-.51-.05-1.23-.05h-3.38c-.58,0-.88,.02-1.3,.06v-1.87Zm2.45,12.29h-1.97c.06-.48,.08-.91,.08-1.5v-2.59c0-.5-.02-.8-.06-1.23,.4,.03,.71,.05,1.22,.05h2.98c.59,0,.77,0,1.02-.05-.03,.3-.03,.53-.03,1.1v2.8c0,.64,.02,.85,.05,1.22h-1.87v-.5h-1.41v.7Zm-1.95-14.52c.43,.05,.71,.06,1.39,.06h2.37c.67,0,.96-.02,1.39-.06v1.71c-.4-.03-.74-.05-1.39-.05h-2.37c-.61,0-1.01,.02-1.39,.05V.56Zm.05,4.66c.3,.03,.51,.05,1.01,.05h3.11c.5,0,.72-.02,.98-.05v1.68c-.32-.03-.53-.05-.98-.05h-3.11c-.5,0-.67,0-1.01,.05v-1.68Zm0,2.26c.35,.05,.5,.05,1.01,.05h3.11c.51,0,.69,0,.98-.05v1.68c-.34-.05-.48-.05-1.01-.05h-3.09c-.5,0-.67,0-.99,.05v-1.68Zm1.86,5.27h1.46v-1.38h-1.46v1.38Zm6.79-9.75c-.99,.13-1.26,.16-2.67,.29-.14-.67-.3-1.12-.67-1.87,2.95-.1,6.16-.69,7.51-1.38l1.14,1.84c-.18,.05-.22,.06-.46,.13-.69,.19-1.92,.48-2.83,.66v2.02h1.62c.78,0,1.31-.03,1.82-.1v2.06c-.54-.06-1.09-.1-1.82-.1h-1.62v1.81h1.71c.54,0,.9-.02,1.18-.05-.03,.34-.05,.78-.05,1.34v3.63c0,.66,.03,1.33,.08,1.76h-2.13v-.69h-3.49v.69h-2.08c.05-.4,.06-.91,.06-1.68v-3.84c0-.5-.02-.75-.05-1.22,.35,.03,.71,.05,1.18,.05h1.57v-1.81h-1.28c-.78,0-1.3,.03-1.82,.1v-2.06c.51,.06,1.06,.1,1.84,.1h1.26v-1.68Zm-.69,9.51h3.49v-2.3h-3.49v2.3Z"/><path class="cls-3" d="M210.8,9.91c.06,.66,.16,.96,.43,1.3,.43,.56,1.18,.86,2.13,.86,1.39,0,2.27-.64,2.27-1.67,0-.5-.21-.9-.62-1.15-.5-.32-.99-.48-2.74-.88-1.36-.32-1.89-.53-2.5-.96-.9-.67-1.38-1.65-1.38-2.83,0-2.35,1.87-3.84,4.83-3.84,1.9,0,3.35,.58,4.18,1.67,.4,.54,.61,1.01,.82,1.95l-2.82,.3c-.08-.5-.19-.74-.42-1.02-.37-.43-1.01-.67-1.78-.67-1.25,0-2.08,.61-2.08,1.52,0,.43,.19,.78,.54,1.04,.35,.22,.67,.34,1.5,.53,1.74,.37,2.51,.58,3.15,.86,.66,.29,1.25,.78,1.62,1.39,.32,.53,.48,1.17,.48,1.94,0,2.61-1.83,4.1-5.03,4.1-2.06,0-3.62-.58-4.47-1.65-.53-.66-.75-1.26-.93-2.51l2.79-.27Z"/><path class="cls-3" d="M223.17,1.04c-.1,.64-.13,1.14-.13,2.21V11.84c0,1.02,.03,1.58,.13,2.21h-2.95c.1-.62,.13-1.22,.13-2.21V3.25c0-1.1-.03-1.52-.13-2.21h2.95Z"/><path class="cls-3" d="M231.43,14.05c-.08-.54-.3-1.3-.69-2.26l-1.95-4.98c-.19-.5-.42-1.23-.75-2.43,.1,1.55,.13,2.19,.13,2.59v4.66c0,1.12,.03,1.78,.13,2.42h-2.67c.1-.67,.13-1.33,.13-2.42V3.47c0-1.01-.03-1.76-.13-2.43h3.55c.1,.59,.29,1.26,.59,2.06l2.85,7.46,2.83-7.46c.32-.82,.5-1.46,.59-2.06h3.55c-.1,.77-.13,1.36-.13,2.43V11.64c0,1.2,.03,1.81,.13,2.42h-2.67c.1-.72,.13-1.3,.13-2.42V6.93c0-.38,.03-1.02,.13-2.54q-.08,.3-.26,1.01c-.08,.27-.35,1.14-.45,1.38l-2.02,5.04c-.32,.83-.61,1.73-.69,2.24h-2.34Z"/><path class="cls-3" d="M248.85,10.24c-.9,2.03-1.95,2.98-3.33,2.98-1.98,0-3.39-1.94-3.39-4.69,0-1.82,.62-3.49,1.79-4.75,1.38-1.5,3.35-2.3,5.63-2.3,4.02,0,6.58,2.4,6.58,6.15,0,2.91-1.46,5.17-4.02,6.18-.77,.3-1.41,.46-2.54,.66-.34-1.01-.56-1.44-1.18-2.27,1.42-.11,2.42-.37,3.17-.77,1.38-.75,2.21-2.24,2.21-3.94,0-1.42-.62-2.62-1.71-3.35-.46-.3-.85-.43-1.49-.51-.32,2.64-.88,4.77-1.71,6.63Zm-2.54-5.79c-1.22,.94-1.97,2.5-1.97,4.1,0,1.2,.51,2.18,1.14,2.18,.46,0,.96-.62,1.47-1.92,.59-1.42,1.09-3.44,1.28-5.15-.77,.1-1.3,.32-1.92,.8Z"/><path class="cls-3" d="M264.12,10.2c-.64,.51-1.06,.77-1.9,1.2-.18-.34-.24-.43-.48-.74-.98,.61-1.62,.93-3.3,1.71-.08,.03-.1,.05-.38,.21l-.43-2.22c.37-.08,.8-.22,1.66-.54v-3.94h-.35c-.43,0-.78,.02-1.18,.08V3.95c.34,.05,.7,.06,1.18,.06h.35v-1.87c0-.85-.03-1.3-.1-1.79h2.19c-.08,.51-.1,.93-.1,1.79v1.87h.24c.48,0,.78-.02,1.04-.05v1.95c-.37-.03-.61-.05-1.02-.05h-.26v3.04c.32-.18,.45-.24,.99-.51v1.09c.85-.5,1.26-.83,1.7-1.38h-.21c-.69,0-1.12,.02-1.5,.08v-1.81c.37,.06,.8,.08,1.54,.08h7.06c.75,0,1.26-.03,1.7-.08v1.81c-.46-.06-.98-.08-1.68-.08h-4.9c-.16,.26-.21,.34-.38,.56h5.09c.77,0,1.09-.02,1.55-.05-.05,.29-.05,.45-.06,.96-.06,2.27-.34,3.97-.75,4.63-.37,.59-.99,.8-2.42,.8-.34,0-.56-.02-1.25-.05-.06-.61-.18-1.01-.4-1.52-.86,.75-1.65,1.23-2.87,1.79-.4-.59-.69-.9-1.26-1.36,1.28-.51,2.02-.91,2.88-1.58,.72-.54,1.25-1.17,1.78-2.1h-.8c-1.09,1.54-2.37,2.5-4.48,3.33-.3-.53-.56-.85-1.09-1.31,1.81-.58,2.8-1.14,3.62-2.02h-1.01Zm.48-4.31c-.61,0-1.1,.02-1.47,.05,.05-.5,.06-.91,.06-1.58V2.07c0-.66-.02-1.02-.06-1.49,.5,.06,.85,.08,1.67,.08h4.87c.83,0,1.25-.02,1.73-.08-.05,.45-.06,.78-.06,1.63v2.16c0,.69,.02,1.15,.06,1.55-.32-.02-.8-.03-1.44-.03h-5.35Zm.51-3.14h4.29v-.58h-4.29v.58Zm0,1.78h4.29v-.54h-4.29v.54Zm4.67,5.67c-.64,1.3-1.14,1.99-2,2.87,.51,.05,.93,.06,1.28,.06,.61,0,.75-.13,.91-.87,.1-.48,.14-.94,.24-2.06h-.43Z"/><path class="cls-3" d="M276.87,5.73c-.91,.54-1.34,.75-2.35,1.18-.34-.85-.53-1.23-1.06-1.97,1.39-.48,2.64-1.15,3.91-2.08,1.17-.88,1.91-1.62,2.58-2.62h2.24c.7,1.01,1.41,1.7,2.72,2.62,1.26,.9,2.4,1.47,3.92,1.99-.46,.78-.67,1.22-.99,2.11-1.04-.45-1.52-.69-2.4-1.22v.99c-.42-.05-.82-.06-1.47-.06h-5.65c-.54,0-1.01,.02-1.44,.06v-1.01Zm-1.33,9.28c.06-.54,.1-.99,.1-1.73v-3.87c0-.69-.02-1.15-.08-1.62,.37,.03,.78,.05,1.46,.05h8.21c.67,0,1.07-.02,1.46-.05-.06,.45-.08,.9-.08,1.62v3.89c0,.77,.02,1.18,.1,1.71h-2.22v-.74h-6.71v.74h-2.22Zm2.22-2.61h6.71v-2.66h-6.71v2.66Zm6.18-7.65c-1.23-.91-1.97-1.58-2.85-2.69-.88,1.18-1.52,1.82-2.72,2.69h5.57Z"/></g><rect class="cls-8" x="33.58" y="65.17" width="130" height="186.67" rx="3" ry="3"/><g><path class="cls-4" d="M82.6,92.6c-1.12-.59-2.07-.98-3.47-1.46l1.22-1.32c1.53,.49,2.37,.83,3.77,1.51l-1.09,1.26h2.73c.78,0,1.23-.01,1.81-.08v1.86c-.56-.04-.91-.06-1.81-.06h-3.1v2.21h2.59c.62,0,1.11-.03,1.57-.07v1.83c-.48-.06-.81-.07-1.53-.07h-2.63v2.61h3.49c.8,0,1.36-.03,2-.1v1.92c-.7-.07-1.15-.1-1.95-.1h-8.7c-.9,0-1.44,.03-2.07,.1v-1.92c.55,.07,1.12,.1,2.02,.1h3.28v-2.61h-2.34c-.74,0-1.18,.01-1.68,.07v-1.83c.45,.06,.8,.07,1.53,.07h2.49v-2.21h-2.93c-1.06,0-1.42,.01-1.83,.06v-1.86c.55,.07,.94,.08,1.81,.08h4.83Z"/><path class="cls-4" d="M92.23,98.49c.06,.57,.14,.84,.38,1.13,.38,.49,1.04,.76,1.86,.76,1.22,0,1.99-.56,1.99-1.46,0-.43-.18-.78-.55-1.01-.43-.28-.87-.42-2.39-.77-1.19-.28-1.65-.46-2.19-.84-.78-.59-1.21-1.44-1.21-2.48,0-2.06,1.64-3.36,4.23-3.36,1.67,0,2.93,.5,3.66,1.46,.35,.48,.53,.88,.71,1.71l-2.47,.27c-.07-.43-.17-.64-.36-.9-.32-.38-.88-.59-1.55-.59-1.09,0-1.82,.53-1.82,1.33,0,.38,.17,.69,.48,.91,.31,.2,.59,.29,1.32,.46,1.53,.32,2.2,.5,2.76,.76,.57,.25,1.09,.69,1.42,1.22,.28,.46,.42,1.02,.42,1.69,0,2.28-1.6,3.59-4.4,3.59-1.81,0-3.17-.5-3.91-1.44-.46-.57-.66-1.11-.81-2.2l2.44-.24Z"/><path class="cls-4" d="M103.61,90.73c-.08,.56-.11,.99-.11,1.93v7.52c0,.9,.03,1.39,.11,1.93h-2.58c.08-.55,.11-1.06,.11-1.93v-7.52c0-.97-.03-1.33-.11-1.93h2.58Z"/><path class="cls-4" d="M111.68,102.12c-.07-.48-.27-1.13-.6-1.97l-1.71-4.36c-.17-.43-.36-1.08-.66-2.13,.08,1.36,.11,1.92,.11,2.27v4.08c0,.98,.03,1.55,.11,2.12h-2.34c.08-.59,.11-1.16,.11-2.12v-7.14c0-.88-.03-1.54-.11-2.13h3.11c.08,.52,.25,1.11,.52,1.81l2.49,6.53,2.48-6.53c.28-.71,.43-1.27,.52-1.81h3.11c-.08,.67-.11,1.19-.11,2.13v7.14c0,1.05,.03,1.58,.11,2.12h-2.34c.08-.63,.11-1.13,.11-2.12v-4.12c0-.34,.03-.9,.11-2.23q-.07,.27-.22,.88c-.07,.24-.31,1-.39,1.21l-1.76,4.41c-.28,.73-.53,1.51-.6,1.96h-2.04Z"/></g><rect class="cls-7" x="53.18" y="175.66" width="90" height="20" rx="2" ry="2"/><g><path class="cls-1" d="M78.5,181.56c0-.24-.02-.44-.07-.68h1.61c-.04,.23-.07,.42-.07,.67v.2h2.38c.62,0,1.08-.02,1.44-.07v1.39c-.34-.03-.65-.04-1.19-.04h-.46c-.18,.42-.33,.74-.47,1.01h1.42c.64,0,.95-.01,1.25-.06v1.39c-.36-.04-.63-.05-1.26-.05h-7.49c-.63,0-.89,.01-1.24,.05v-1.39c.33,.04,.65,.06,1.3,.06h1.22c-.14-.39-.28-.69-.46-1.01h-.41c-.52,0-.8,.01-1.16,.04v-1.39c.35,.04,.78,.07,1.36,.07h2.3v-.19Zm3.52,4.27c.5,0,.73-.01,1.08-.03-.04,.37-.05,.65-.05,1.04v3.18c0,.48,.02,.81,.07,1.14h-1.47v-.44h-4.61v.44h-1.47c.04-.36,.07-.68,.07-1.14v-3.18c0-.38-.01-.69-.05-1.04,.35,.02,.58,.03,1.07,.03h5.39Zm-4.99,1.86h4.61v-.66h-4.61v.66Zm0,1.84h4.61v-.69h-4.61v.69Zm3.11-5.49c.18-.32,.34-.68,.45-1.01h-2.61c.19,.39,.32,.69,.44,1.01h1.72Z"/><path class="cls-1" d="M87.56,188.41c-.21,1.25-.56,2.01-1.33,2.85-.37-.41-.79-.76-1.25-1.07,.94-.8,1.29-1.9,1.29-3.98,0-.54-.01-.75-.04-1.08,.34,.03,.52,.04,1.17,.04h5.85c.69,0,.87-.01,1.19-.04-.03,.31-.04,.56-.04,1.07v1.58c0,.56,.01,.85,.05,1.2h-1.5v-.57h-5.38Zm1.92-6.63c0-.43-.02-.62-.07-.87h1.6c-.04,.23-.06,.43-.06,.87h2.94c.62,0,1.07-.02,1.36-.07v1.32c-.37-.04-.73-.05-1.32-.05h-2.98v.56h2.55c.57,0,.9-.01,1.16-.06v1.28c-.36-.03-.69-.04-1.19-.04h-6.34c-.5,0-.78,.01-1.16,.04v-1.28c.24,.04,.58,.06,1.14,.06h2.35v-.56h-2.72c-.61,0-1,.02-1.33,.05v-1.32c.3,.04,.75,.07,1.36,.07h2.68Zm.09,5.4v-.8h-1.87c0,.36,0,.51-.02,.8h1.89Zm3.39,0v-.8h-1.97v.8h1.97Z"/><path class="cls-1" d="M98.72,187.6c.04,.45,.11,.66,.3,.89,.3,.38,.81,.59,1.46,.59,.96,0,1.56-.44,1.56-1.14,0-.34-.14-.62-.43-.79-.34-.22-.68-.33-1.88-.61-.94-.22-1.3-.36-1.72-.66-.62-.46-.95-1.13-.95-1.95,0-1.62,1.29-2.64,3.32-2.64,1.31,0,2.3,.4,2.87,1.14,.27,.37,.42,.69,.56,1.34l-1.94,.21c-.06-.34-.13-.51-.29-.7-.25-.3-.69-.46-1.22-.46-.86,0-1.43,.42-1.43,1.04,0,.3,.13,.54,.37,.71,.24,.15,.46,.23,1.03,.36,1.2,.25,1.73,.4,2.17,.59,.45,.2,.86,.54,1.11,.96,.22,.36,.33,.8,.33,1.33,0,1.79-1.25,2.82-3.46,2.82-1.42,0-2.49-.4-3.07-1.13-.36-.45-.52-.87-.64-1.73l1.91-.19Z"/><path class="cls-1" d="M107.88,181.51c-.07,.44-.09,.78-.09,1.52v5.91c0,.71,.02,1.09,.09,1.52h-2.02c.07-.43,.09-.84,.09-1.52v-5.91c0-.76-.02-1.04-.09-1.52h2.02Z"/><path class="cls-1" d="M114.22,190.45c-.05-.38-.21-.89-.47-1.55l-1.34-3.42c-.13-.34-.29-.85-.52-1.67,.07,1.07,.09,1.51,.09,1.78v3.2c0,.77,.02,1.22,.09,1.66h-1.84c.07-.46,.09-.91,.09-1.66v-5.61c0-.69-.02-1.21-.09-1.67h2.44c.07,.41,.2,.87,.41,1.42l1.96,5.13,1.95-5.13c.22-.56,.34-1,.41-1.42h2.44c-.07,.53-.09,.94-.09,1.67v5.61c0,.82,.02,1.24,.09,1.66h-1.84c.07-.5,.09-.89,.09-1.66v-3.23c0-.26,.02-.71,.09-1.75q-.05,.21-.18,.69c-.05,.19-.24,.78-.31,.95l-1.39,3.46c-.22,.57-.42,1.19-.47,1.54h-1.61Z"/></g><g><path class="cls-6" d="M114.61,125.1l-10.34-10.34c-.64-.64-1.51-1-2.42-1h-17.57c-1.26,0-2.28,1.02-2.28,2.28v45.57c0,1.26,1.02,2.28,2.28,2.28h29.05c1.26,0,2.28-1.02,2.28-2.28v-34.09c0-.91-.36-1.78-1-2.42Z"/><rect class="cls-1" x="87.41" y="152.25" width="6.13" height="5.65" rx=".8" ry=".8"/><rect class="cls-1" x="87.41" y="144.07" width="6.13" height="5.65" rx=".8" ry=".8"/><path class="cls-1" d="M101.15,157.19c0,.44-.36,.8-.8,.8h-3.37c-.44,0-.8-.36-.8-.8v-15.42c0-.44-.36-.8-.8-.8h-7.19c-.44,0-.8-.36-.8-.8v-3.49c0-.44,.35-.8,.79-.8l12.15-.06c.44,0,.8,.36,.8,.8v20.56Z"/><rect class="cls-1" x="104.01" y="152.25" width="6.13" height="5.65" rx=".8" ry=".8"/><rect class="cls-1" x="104.01" y="144.07" width="6.13" height="5.65" rx=".8" ry=".8"/><rect class="cls-1" x="104.01" y="135.89" width="6.13" height="5.65" rx=".8" ry=".8"/></g><g><g><g><path class="cls-5" d="M280.27,195.52c-.1,1.42-.37,2.41-.93,3.27-.64,1.01-1.51,1.64-3.08,2.28-.38-.74-.56-1-1.19-1.59,1.49-.46,2.38-1.08,2.87-2.03,.25-.48,.41-1.14,.44-1.93h-2.66c-.8,0-1.22,.01-1.7,.07v-1.73c.55,.06,.91,.08,1.73,.08h6.76c.85,0,1.2-.01,1.77-.08v1.72c-.55-.05-.75-.06-1.74-.06h-2.27Zm1.74-2.97c-.44-.05-.66-.06-1.75-.06h-3.32c-.79,0-1.27,.01-1.7,.06v-1.71c.55,.07,.88,.08,1.73,.08h3.26c.95,0,1.28-.01,1.79-.08v.71l.9-.31c.41,.66,.6,1.08,.79,1.68l-1.01,.38c-.17-.55-.42-1.12-.68-1.56v.82Zm2.06,.23c-.22-.64-.38-.98-.78-1.66l.96-.36c.4,.61,.6,1.02,.8,1.61l-.98,.41Z"/><path class="cls-5" d="M285.94,194.67c.54,.07,.97,.1,2.19,.1h6.07c1.21,0,1.64-.01,2.19-.08v1.97c-.48-.04-1.27-.06-2.21-.06h-6.06c-1.04,0-1.73,.02-2.19,.07v-1.99Z"/><path class="cls-5" d="M303.45,190.57c-.12,.2-.16,.26-.31,.61-.11,.22-.14,.3-.26,.52l3.17-.02c.42-.01,.62-.04,.9-.16l.94,.92c-.17,.19-.18,.22-.38,.82-.79,2.31-1.71,3.93-2.99,5.25-1.06,1.09-2.36,1.98-4.07,2.76-.41-.72-.61-.97-1.19-1.51,1-.4,1.58-.68,2.29-1.12,.8-.52,1.29-.91,1.89-1.56-.82-.68-1.45-1.12-2.35-1.61l1.09-1.28c1.05,.59,1.62,.96,2.3,1.49,.52-.79,.88-1.56,1.17-2.5l-3.51,.04c-.73,1.2-1.57,2.18-2.77,3.21-.49-.55-.73-.73-1.45-1.14,1.37-1.07,2.25-2.08,3-3.44,.35-.64,.58-1.19,.7-1.68l1.83,.4Z"/><path class="cls-5" d="M310.68,197.39c.05,.49,.12,.72,.32,.97,.32,.42,.89,.65,1.6,.65,1.04,0,1.7-.48,1.7-1.25,0-.37-.16-.67-.47-.86-.37-.24-.74-.36-2.05-.66-1.02-.24-1.42-.4-1.87-.72-.67-.5-1.03-1.24-1.03-2.12,0-1.76,1.4-2.88,3.62-2.88,1.43,0,2.51,.43,3.13,1.25,.3,.41,.46,.76,.61,1.46l-2.11,.23c-.06-.37-.14-.55-.31-.77-.28-.32-.75-.5-1.33-.5-.94,0-1.56,.46-1.56,1.14,0,.32,.14,.59,.41,.78,.26,.17,.5,.25,1.13,.4,1.31,.28,1.88,.43,2.36,.65,.49,.22,.94,.59,1.21,1.04,.24,.4,.36,.88,.36,1.45,0,1.96-1.37,3.07-3.77,3.07-1.55,0-2.71-.43-3.35-1.24-.4-.49-.56-.95-.7-1.88l2.09-.2Z"/><path class="cls-5" d="M320.44,190.75c-.07,.48-.1,.85-.1,1.66v6.44c0,.77,.02,1.19,.1,1.66h-2.21c.07-.47,.1-.91,.1-1.66v-6.44c0-.83-.02-1.14-.1-1.66h2.21Z"/><path class="cls-5" d="M326.87,200.5c-.06-.41-.23-.97-.52-1.69l-1.46-3.73c-.14-.37-.31-.92-.56-1.82,.07,1.16,.1,1.64,.1,1.94v3.49c0,.84,.02,1.33,.1,1.81h-2c.07-.5,.1-1,.1-1.81v-6.12c0-.76-.02-1.32-.1-1.82h2.66c.07,.44,.22,.95,.44,1.55l2.13,5.59,2.12-5.59c.24-.61,.37-1.09,.44-1.55h2.66c-.07,.58-.1,1.02-.1,1.82v6.12c0,.9,.02,1.36,.1,1.81h-2c.07-.54,.1-.97,.1-1.81v-3.53c0-.29,.02-.77,.1-1.91q-.06,.23-.19,.76c-.06,.2-.26,.85-.33,1.03l-1.51,3.78c-.24,.62-.46,1.29-.52,1.68h-1.75Z"/></g><g><path class="cls-5" d="M262.9,180.29l-10.34-10.34c-.64-.64-1.51-1-2.42-1h-17.57c-1.26,0-2.28,1.02-2.28,2.28v45.57c0,1.26,1.02,2.28,2.28,2.28h29.05c1.26,0,2.28-1.02,2.28-2.28v-34.09c0-.91-.36-1.78-1-2.42Z"/><rect class="cls-1" x="235.69" y="207.43" width="6.13" height="5.65" rx=".8" ry=".8"/><rect class="cls-1" x="235.69" y="199.25" width="6.13" height="5.65" rx=".8" ry=".8"/><path class="cls-1" d="M249.43,212.38c0,.44-.36,.8-.8,.8h-3.37c-.44,0-.8-.36-.8-.8v-15.42c0-.44-.36-.8-.8-.8h-7.19c-.44,0-.8-.36-.8-.8v-3.49c0-.44,.35-.8,.79-.8l12.15-.06c.44,0,.8,.36,.8,.8v20.56Z"/><rect class="cls-1" x="252.29" y="207.43" width="6.13" height="5.65" rx=".8" ry=".8"/><rect class="cls-1" x="252.29" y="199.25" width="6.13" height="5.65" rx=".8" ry=".8"/><rect class="cls-1" x="252.29" y="191.08" width="6.13" height="5.65" rx=".8" ry=".8"/></g></g><g><line class="cls-2" x1="163.93" y1="130.7" x2="218.62" y2="130.7"/><path class="cls-2" d="M194.91,130.7l-.03,65.72c0,.55,.45,1,1,1h22.76"/></g><g><path class="cls-7" d="M278.3,128.48c0-.26-.02-.48-.07-.74h1.75c-.05,.25-.07,.46-.07,.73v.22h2.59c.67,0,1.17-.02,1.57-.07v1.51c-.37-.04-.71-.05-1.3-.05h-.5c-.19,.46-.36,.8-.52,1.1h1.55c.7,0,1.03-.01,1.37-.06v1.51c-.4-.05-.68-.06-1.38-.06h-8.17c-.68,0-.97,.01-1.36,.06v-1.51c.36,.05,.71,.06,1.42,.06h1.33c-.16-.42-.3-.76-.5-1.1h-.44c-.56,0-.88,.01-1.26,.05v-1.51c.38,.05,.85,.07,1.49,.07h2.51v-.2Zm3.84,4.65c.54,0,.79-.01,1.18-.04-.05,.41-.06,.71-.06,1.14v3.47c0,.53,.02,.89,.07,1.25h-1.61v-.48h-5.03v.48h-1.61c.05-.4,.07-.74,.07-1.25v-3.47c0-.42-.01-.76-.06-1.14,.38,.02,.64,.04,1.16,.04h5.88Zm-5.44,2.03h5.03v-.72h-5.03v.72Zm0,2h5.03v-.75h-5.03v.75Zm3.39-5.98c.19-.35,.37-.74,.49-1.1h-2.84c.2,.42,.35,.76,.48,1.1h1.87Z"/><path class="cls-7" d="M288.18,135.94c-.23,1.37-.61,2.19-1.45,3.11-.41-.44-.86-.83-1.37-1.16,1.02-.88,1.4-2.08,1.4-4.34,0-.59-.01-.82-.05-1.17,.37,.04,.56,.05,1.27,.05h6.38c.75,0,.95-.01,1.29-.05-.04,.34-.05,.61-.05,1.16v1.73c0,.61,.01,.92,.06,1.31h-1.63v-.62h-5.86Zm2.09-7.23c0-.47-.02-.67-.07-.95h1.74c-.05,.25-.06,.47-.06,.95h3.2c.67,0,1.16-.02,1.49-.07v1.44c-.41-.05-.79-.06-1.44-.06h-3.25v.61h2.78c.62,0,.98-.01,1.26-.06v1.39c-.4-.04-.76-.05-1.29-.05h-6.91c-.54,0-.85,.01-1.26,.05v-1.39c.26,.05,.64,.06,1.25,.06h2.57v-.61h-2.96c-.66,0-1.09,.02-1.45,.06v-1.44c.32,.05,.82,.07,1.49,.07h2.93Zm.1,5.89v-.88h-2.04c0,.4,0,.55-.02,.88h2.06Zm3.69,0v-.88h-2.15v.88h2.15Z"/><path class="cls-7" d="M297.6,132.25c.31,.05,.52,.06,.95,.06h.97c.37,0,.64-.01,.91-.05-.04,.35-.05,.66-.05,1.33v2.63c.2,.36,.5,.61,.86,.76,.48,.18,1.75,.3,3.19,.3s2.6-.08,4.47-.3c-.18,.55-.3,1.04-.38,1.68-1.39,.06-2.63,.08-4.1,.08-3.03,0-3.84-.2-4.79-1.22-.6,.59-.68,.66-1.51,1.27l-.74-1.58c.44-.19,.97-.55,1.52-1.03v-2.4h-.56c-.26,0-.44,.01-.74,.06v-1.58Zm1.06-4.35c.98,.84,1.5,1.37,2.16,2.17l-1.19,1.2c-.73-.98-1.25-1.54-2.12-2.28l1.15-1.09Zm4.47,2.46c-.38-.25-.58-.37-.85-.52l.82-.46h-.92c-.59,0-.91,.01-1.27,.06v-1.45c.41,.05,.83,.07,1.51,.07h3.73c.82,0,1.22-.02,1.44-.07l.74,.84c-.17,.11-.18,.12-.59,.47-.43,.37-.97,.78-1.38,1.06h.76c.59,0,.86-.01,1.19-.05-.04,.32-.05,.68-.05,1.33v3.87c0,1.06-.3,1.32-1.52,1.32-.12,0-.31,0-.58-.01-.05-.52-.12-.8-.28-1.2,.29,.05,.48,.07,.67,.07,.2,0,.23-.04,.23-.3v-.36h-1.45v.42c0,.7,.01,.96,.06,1.34h-1.55c.05-.35,.07-.72,.07-1.34v-.42h-1.33v.5c0,.74,.01,1.04,.07,1.32h-1.6c.04-.35,.06-.72,.06-1.32v-3.83c0-.65-.01-.97-.06-1.4,.37,.04,.73,.05,1.36,.05h.72Zm-.55,1.17v.65h1.33v-.65h-1.33Zm0,2.4h1.33v-.65h-1.33v.65Zm1.12-4.54c.31,.22,.55,.4,1.03,.77,.41-.28,.62-.44,1.01-.77h-2.04Zm1.63,2.79h1.45v-.65h-1.45v.65Zm1.45,1.1h-1.45v.65h1.45v-.65Z"/><path class="cls-7" d="M309.71,129.73c.3,.05,.52,.06,.97,.06h2.48c.49,0,.71-.01,.97-.05v1.38c-.28-.04-.38-.04-.92-.04h-2.53c-.43,0-.66,.01-.97,.05v-1.4Zm1.83,9.21h-1.48c.05-.36,.06-.68,.06-1.13v-1.94c0-.37-.01-.6-.05-.92,.3,.02,.53,.04,.91,.04h2.23c.44,0,.58,0,.77-.04-.02,.23-.02,.4-.02,.83v2.1c0,.48,.01,.64,.04,.91h-1.4v-.37h-1.05v.53Zm-1.46-10.88c.32,.04,.53,.05,1.04,.05h1.77c.5,0,.72-.01,1.04-.05v1.28c-.3-.02-.55-.04-1.04-.04h-1.77c-.46,0-.76,.01-1.04,.04v-1.28Zm.04,3.49c.23,.02,.38,.04,.76,.04h2.33c.37,0,.54-.01,.73-.04v1.26c-.24-.02-.4-.04-.73-.04h-2.33c-.37,0-.5,0-.76,.04v-1.26Zm0,1.69c.26,.04,.37,.04,.76,.04h2.33c.38,0,.52,0,.73-.04v1.26c-.25-.04-.36-.04-.76-.04h-2.31c-.37,0-.5,0-.74,.04v-1.26Zm1.39,3.95h1.09v-1.03h-1.09v1.03Zm5.08-7.3c-.74,.1-.95,.12-2,.22-.11-.5-.23-.84-.5-1.4,2.21-.07,4.62-.52,5.62-1.03l.85,1.38c-.13,.04-.17,.05-.35,.1-.52,.14-1.44,.36-2.12,.49v1.51h1.21c.59,0,.98-.02,1.37-.07v1.55c-.41-.05-.82-.07-1.37-.07h-1.21v1.36h1.28c.41,0,.67-.01,.89-.04-.02,.25-.04,.59-.04,1.01v2.72c0,.49,.02,1,.06,1.32h-1.6v-.52h-2.61v.52h-1.56c.04-.3,.05-.68,.05-1.26v-2.88c0-.37-.01-.56-.04-.91,.26,.02,.53,.04,.89,.04h1.17v-1.36h-.96c-.59,0-.97,.02-1.37,.07v-1.55c.38,.05,.79,.07,1.38,.07h.95v-1.26Zm-.52,7.12h2.61v-1.73h-2.61v1.73Z"/><path class="cls-7" d="M323.64,135.06c.05,.49,.12,.72,.32,.97,.32,.42,.89,.65,1.6,.65,1.04,0,1.7-.48,1.7-1.25,0-.37-.16-.67-.47-.86-.37-.24-.74-.36-2.05-.66-1.02-.24-1.42-.4-1.87-.72-.67-.5-1.03-1.24-1.03-2.12,0-1.76,1.4-2.88,3.62-2.88,1.43,0,2.51,.43,3.13,1.25,.3,.41,.46,.76,.61,1.46l-2.11,.23c-.06-.37-.14-.55-.31-.77-.28-.32-.75-.5-1.33-.5-.94,0-1.56,.46-1.56,1.14,0,.32,.14,.59,.41,.78,.26,.17,.5,.25,1.13,.4,1.31,.28,1.88,.43,2.36,.65,.49,.22,.94,.59,1.21,1.04,.24,.4,.36,.88,.36,1.45,0,1.96-1.37,3.07-3.77,3.07-1.55,0-2.71-.43-3.35-1.24-.4-.49-.56-.95-.7-1.88l2.09-.2Z"/><path class="cls-7" d="M333.4,128.42c-.07,.48-.1,.85-.1,1.66v6.44c0,.77,.02,1.19,.1,1.66h-2.21c.07-.47,.1-.91,.1-1.66v-6.44c0-.83-.02-1.14-.1-1.66h2.21Z"/><path class="cls-7" d="M340.31,138.17c-.06-.41-.23-.97-.52-1.69l-1.46-3.73c-.14-.37-.31-.92-.56-1.82,.07,1.16,.1,1.64,.1,1.94v3.49c0,.84,.02,1.33,.1,1.81h-2c.07-.5,.1-1,.1-1.81v-6.12c0-.76-.02-1.32-.1-1.82h2.66c.07,.44,.22,.95,.44,1.55l2.13,5.59,2.12-5.59c.24-.61,.37-1.09,.44-1.55h2.66c-.07,.58-.1,1.02-.1,1.82v6.12c0,.9,.02,1.36,.1,1.81h-2c.07-.54,.1-.97,.1-1.81v-3.53c0-.29,.02-.77,.1-1.91q-.06,.23-.19,.76c-.06,.2-.26,.85-.33,1.03l-1.51,3.78c-.24,.62-.46,1.29-.52,1.68h-1.75Z"/></g><g><path class="cls-7" d="M262.9,116.01l-10.34-10.34c-.64-.64-1.51-1-2.42-1h-17.57c-1.26,0-2.28,1.02-2.28,2.28v45.57c0,1.26,1.02,2.28,2.28,2.28h29.05c1.26,0,2.28-1.02,2.28-2.28v-34.09c0-.91-.36-1.78-1-2.42Z"/><rect class="cls-1" x="235.69" y="143.15" width="6.13" height="5.65" rx=".8" ry=".8"/><rect class="cls-1" x="235.69" y="134.98" width="6.13" height="5.65" rx=".8" ry=".8"/><path class="cls-1" d="M249.43,148.1c0,.44-.36,.8-.8,.8h-3.37c-.44,0-.8-.36-.8-.8v-15.42c0-.44-.36-.8-.8-.8h-7.19c-.44,0-.8-.36-.8-.8v-3.49c0-.44,.35-.8,.79-.8l12.15-.06c.44,0,.8,.36,.8,.8v20.56Z"/><rect class="cls-1" x="252.29" y="143.15" width="6.13" height="5.65" rx=".8" ry=".8"/><rect class="cls-1" x="252.29" y="134.98" width="6.13" height="5.65" rx=".8" ry=".8"/><rect class="cls-1" x="252.29" y="126.8" width="6.13" height="5.65" rx=".8" ry=".8"/></g></g></svg>