<?xml version="1.0" encoding="UTF-8"?><svg id="_イヤー_1" xmlns="http://www.w3.org/2000/svg" width="73.66" height="67.2" xmlns:xlink="http://www.w3.org/1999/xlink" viewBox="0 0 73.66 67.2"><defs><style>.cls-1{fill:#fff;}.cls-2{fill:#d8a684;}.cls-3{clip-path:url(#clippath);}.cls-4{fill:#afafaf;}.cls-5{fill:#3f3f8c;}.cls-6{fill:none;}.cls-7{fill:#35318f;}.cls-8{fill:#1fc97c;}.cls-9{fill:#f39800;}.cls-10{fill:#ffdbc2;}</style><clipPath id="clippath"><rect class="cls-6" width="73.66" height="67.2"/></clipPath></defs><g id="desgin"><g class="cls-3"><g><path class="cls-10" d="M67.66,52.95c-.77-.67-1.96-.57-2.62,.21l-5.66,6.17,2.83,2.37,5.66-6.17c.72-.77,.62-1.9-.21-2.57,.05,0,0,0,0,0Z"/><path class="cls-8" d="M54.18,74.92v-19.09c0-3.5-2.83-6.33-6.33-6.33H26.14c-3.5-.05-6.33,2.78-6.38,6.23v.05l-4.53,19.09H54.18v.05Z"/><path class="cls-8" d="M50.42,50.02c-2.73,.57-3.7,2.88-3.14,5.51l6.12,19.4h10.03l-6.07-21.04c-1.18-2.57-4.27-4.42-6.95-3.86Z"/><path class="cls-7" d="M18.88,22.44C17.08,16.58,20.99-.09,38.23,.42c18.68,.51,22.02,26.81,12.91,36.63s-24.85,5.15-24.85,5.15l-7.41-19.76Z"/><path class="cls-7" d="M51.35,37.36c3.5-4.17,3.5-9.06,2.47-11.37-1.7-3.96-33.85-13.63-33.85-13.63-5.3,13.17,7.2,24.7-1.23,32.52,0,0,.87-.62,6.33-.1-.72,1.23-1.18,2.57-1.49,3.96,0,0,2.52-1.96,12.19-4.01,1.96-.41,3.6-.77,5.04-1.23,4.89-1.29,8.13-3.34,10.24-5.71,.1-.15,.21-.26,.31-.41Z"/><path class="cls-10" d="M51.76,23.52c0-9.16-6.64-16.62-14.77-16.62s-14.82,7.46-14.82,16.62c-.05,4.73,1.8,9.26,5.2,12.61,4.58,5.3,4.32,10.34,4.32,10.34l5.3-.05,5.3,.05s-.31-5.09,4.32-10.34c3.34-3.34,5.2-7.87,5.15-12.61Z"/><ellipse class="cls-5" cx="31.03" cy="23.37" rx="1.44" ry="1.39"/><ellipse class="cls-5" cx="43.27" cy="23.37" rx="1.44" ry="1.39"/><ellipse class="cls-2" cx="36.99" cy="27.74" rx="1.08" ry="1.39"/><ellipse class="cls-10" cx="20.57" cy="25.43" rx="4.37" ry="5.3" transform="translate(-5.7 5.94) rotate(-14.46)"/><ellipse class="cls-10" cx="53.42" cy="25.45" rx="5.3" ry="4.37" transform="translate(15.43 70.82) rotate(-75.54)"/><path class="cls-7" d="M22.33,20.74s4.58-7.97,18.93-9.11c0,0-3.96-.1-11.58,5.04,0,0,11.58-1.9,21.87-1.29,4.99,.31-6.02-10.7-12.91-10.7s-17.39,5.66-16.31,16.05Z"/><path class="cls-10" d="M42.29,46.47c0-2.37-4.32-1.44-5.3-1.18-.98-.26-5.3-1.13-5.3,1.18,0,2.68-5.51,3.14-5.51,3.14,0,0,6.89,2.98,10.86,2.98s10.75-2.98,10.75-2.98c0,0-5.51-.46-5.51-3.14Z"/><path class="cls-5" d="M37.25,35c-2.06,0-3.14-2.52-3.04-3.29v-.15c.26-.46,1.39-.1,3.04-.1,1.65-.05,2.78-.46,3.09,0,0,.05,.05,.1,.05,.15,.15,.77-1.03,3.4-3.14,3.4Z"/><path class="cls-10" d="M18.01,60.41s-1.85-13.89-2.16-16c-1.18-7.46-10.24-5.66-9,2.16,1.23,7.82,2.78,16.57,2.78,16.57"/><path class="cls-10" d="M9.57,38.49c.21-1.18,.93-2.21,1.96-2.88,1.34-.93,3.09-1.13,4.63-.46,1.44,.62,1.18,2.93-.31,2.83-1.03-.1-1.96,.62-2.11,1.65v.31c.1,.82,.57,1.75,1.75,1.59,1.03-.26,1.7-1.29,1.44-2.32-.21-.77,2.01-1.7,2.73-.26,.72,1.44,.36,4.84-2.42,5.92s-4.53,.31-6.33-1.03c-1.75-1.34-1.49-4.27-1.34-5.35Z"/><path class="cls-10" d="M10.65,40.14s-2.83-5.87-4.73-7.67c-1.9-1.8-4.68,.41-3.5,2.37,1.23,1.96,5.3,7.51,5.3,7.51"/><path class="cls-10" d="M9.11,41.84s-3.4-5.15-5.4-6.64c-2.01-1.49-4.32,.98-2.98,2.62,1.34,1.65,5.87,6.43,5.87,6.43"/><path class="cls-10" d="M8.95,45.08s-2.78-4.22-4.42-5.4-3.55,.77-2.42,2.16c1.13,1.34,4.78,5.25,4.78,5.25"/><path class="cls-8" d="M17.39,50.02l-11.06,2.62s2.98,15.23,5.15,21.2,10.96,3.04,10.24-1.85c-.67-4.89-4.32-21.97-4.32-21.97Z"/><path class="cls-9" d="M57.16,36.08c4.94-.26,9.88,.77,14.35,2.93,0,0,3.55,13.12,1.18,14.82s-21.51-.36-22.59-4.37c-.82-3.09,3.76-10.7,7.05-13.38Z"/><path class="cls-4" d="M58.24,33.3c-1.65-.36-2.73,2.37-1.08,2.73s11.83,1.59,13.79,2.73c1.39,.82,2.37-1.96,.62-2.93,0,.05-11.68-2.16-13.33-2.52Z"/><ellipse class="cls-4" cx="63.85" cy="32.99" rx="1.8" ry="1.75"/><ellipse class="cls-4" cx="66.32" cy="33.56" rx="1.8" ry="1.75"/><path class="cls-1" d="M66.63,40.6c-.1-.1-.21-.15-.36-.21-.21-.05-.41,.05-.57,.21l-2.98,3.29-1.59-4.17c-.05-.21-.21-.36-.41-.36-.1,0-.26,0-.36,.05-.21,.05-.41,.21-.46,.46-.05,.1-.05,.21,0,.31l1.23,3.04-1.29-.26c-.26-.05-.51,.1-.57,.41-.05,.26,.1,.51,.41,.57h0l1.9,.36,.26,.62-.05,.36-2.32-.41c-.15-.05-.26,0-.41,.05-.1,.1-.21,.21-.21,.36-.05,.26,.05,.46,.31,.57h.1l2.32,.41-.36,1.8c-.05,.15,0,.31,.1,.46,.1,.1,.26,.21,.41,.21h.1c.1,0,.26,0,.36-.05,.15-.1,.26-.21,.26-.41l.36-1.8,2.32,.41c.26,.05,.51-.1,.57-.36h0c.05-.21-.05-.46-.31-.57h-.05l-2.32-.41,.05-.36,.46-.51,1.96,.36c.26,.05,.51-.1,.57-.36v-.05c.05-.15,0-.26-.05-.41-.1-.1-.21-.15-.36-.21l-1.29-.31,2.26-2.37c.1-.1,.15-.15,.15-.31h0c.05-.05,0-.26-.15-.41Z"/><path class="cls-10" d="M56.03,70.96s.46-13.99,.57-16.1c.41-7.51,9.62-6.64,9.16,1.23-.46,7.87-1.08,16.77-1.08,16.77"/><path class="cls-8" d="M55.82,59.8l11.32,1.75s-1.44,10.44-3.04,17.39-10.6,4.63-10.39-.98c.15-5.56,2.11-18.16,2.11-18.16Z"/></g></g></g></svg>