<?xml version="1.0" encoding="UTF-8"?><svg id="_イヤー_1" xmlns="http://www.w3.org/2000/svg" width="67.24" height="54.14" viewBox="0 0 67.24 54.14"><defs><style>.cls-1{fill:#00aae7;}.cls-2{fill:#35318f;}.cls-3{fill:#f39800;}</style></defs><rect class="cls-3" y="38.22" width="67.24" height="8.85" rx="1.77" ry="1.77"/><path class="cls-3" d="M23,47.06H1.77c-.98,0-1.77-.79-1.77-1.77V11.68c0-.98,.79-1.77,1.77-1.77L23,4.6c.98,0,1.77,.79,1.77,1.77V45.3c0,.98-.79,1.77-1.77,1.77Z"/><path class="cls-2" d="M3.54,25.83V14.51c-.02-.83,.54-1.57,1.34-1.77l14.15-3.54c.95-.23,1.91,.34,2.14,1.29,.04,.16,.06,.32,.05,.48v14.86c0,.98-.79,1.77-1.77,1.77H5.31c-.98,0-1.77-.79-1.77-1.77Z"/><rect class="cls-1" x="28.49" width="38.62" height="34.5" rx="1.77" ry="1.77"/><circle class="cls-2" cx="12.39" cy="48.83" r="5.31"/><circle class="cls-2" cx="54.85" cy="48.83" r="5.31"/></svg>