<?xml version="1.0" encoding="UTF-8"?><svg id="_イヤー_1" xmlns="http://www.w3.org/2000/svg" width="73.64" height="38.77" viewBox="0 0 73.64 38.77"><defs><style>.cls-1{fill:#fff;}.cls-2{fill:#8fc31f;}.cls-3{fill:#343091;}.cls-4{fill:#f39800;}</style></defs><g><g><rect class="cls-3" x="11.65" y="5.54" width="50.75" height="29" rx="3.68" ry="3.68"/><rect class="cls-1" x="23.64" y="9.57" width="26.77" height="20.94"/></g><g><g><g><path class="cls-3" d="M29,15.98c.26-1.35,.92-1.5,1.8-1.5h3.88c.22,0,1.09,0,1.01,.98-.09,1-.91,1-1.18,1h-3.21c-.27,0-.49,.14-.54,.43l-.34,1.85c.31-.2,.83-.5,1.85-.5,2.06,0,3.49,1.49,3.29,3.8-.25,2.83-2.2,4.18-4.39,4.18-3.03,0-3.71-2.26-3.66-2.9,.07-.77,.7-.97,1.16-.97,.31,0,.91,0,1.1,.71,.12,.43,.3,1.18,1.48,1.18,1.51,0,1.85-1.28,1.92-2.07,.1-1.12-.36-1.95-1.54-1.95-.81,0-1.12,.29-1.49,.64-.09,.08-.43,.38-.99,.38-.6,0-1.12-.22-.96-1.01l.81-4.25Z"/><path class="cls-3" d="M40.9,22.73c-.55,0-.68-.33-.65-.71,.05-.55,.32-.74,.77-.74h1c.84,0,1.22,.35,1.12,1.38l-.21,2.44c-.01,.13-.11,.69-.72,.69-.14,0-.67,0-.61-.69l.02-.21c-.55,.54-1.08,.9-1.97,.9-1.93,0-3.26-1.55-3.03-4.15,.21-2.39,1.64-4.15,3.85-4.15,1.89,0,2.92,1.48,2.84,2.46-.02,.2-.13,.82-.88,.82-.58,0-.63-.26-.7-.57-.18-.83-.74-1.09-1.43-1.09-1.51,0-1.89,1.52-1.98,2.56-.18,2.05,.78,2.51,1.46,2.51,1.03,0,1.55-1.02,1.57-1.27,.01-.13-.08-.18-.17-.18h-.29Z"/></g><g><path class="cls-2" d="M29,15.98c.26-1.35,.92-1.5,1.8-1.5h3.88c.22,0,1.09,0,1.01,.98-.09,1-.91,1-1.18,1h-3.21c-.27,0-.49,.14-.54,.43l-.34,1.85c.31-.2,.83-.5,1.85-.5,2.06,0,3.49,1.49,3.29,3.8-.25,2.83-2.2,4.18-4.39,4.18-3.03,0-3.71-2.26-3.66-2.9,.07-.77,.7-.97,1.16-.97,.31,0,.91,0,1.1,.71,.12,.43,.3,1.18,1.48,1.18,1.51,0,1.85-1.28,1.92-2.07,.1-1.12-.36-1.95-1.54-1.95-.81,0-1.12,.29-1.49,.64-.09,.08-.43,.38-.99,.38-.6,0-1.12-.22-.96-1.01l.81-4.25Z"/><path class="cls-2" d="M40.9,22.73c-.55,0-.68-.33-.65-.71,.05-.55,.32-.74,.77-.74h1c.84,0,1.22,.35,1.12,1.38l-.21,2.44c-.01,.13-.11,.69-.72,.69-.14,0-.67,0-.61-.69l.02-.21c-.55,.54-1.08,.9-1.97,.9-1.93,0-3.26-1.55-3.03-4.15,.21-2.39,1.64-4.15,3.85-4.15,1.89,0,2.92,1.48,2.84,2.46-.02,.2-.13,.82-.88,.82-.58,0-.63-.26-.7-.57-.18-.83-.74-1.09-1.43-1.09-1.51,0-1.89,1.52-1.98,2.56-.18,2.05,.78,2.51,1.46,2.51,1.03,0,1.55-1.02,1.57-1.27,.01-.13-.08-.18-.17-.18h-.29Z"/></g></g><g><path class="cls-4" d="M47.86,19.06c-.34,0-.61-.27-.61-.61,0-2.43-1.98-4.41-4.41-4.41-.34,0-.61-.27-.61-.61s.27-.61,.61-.61c3.11,0,5.64,2.53,5.64,5.64,0,.34-.27,.61-.61,.61Z"/><path class="cls-4" d="M45.2,19.48c-.32,0-.59-.25-.61-.57-.09-1.25-1.14-2.23-2.39-2.23-.34,0-.61-.27-.61-.61s.27-.61,.61-.61c1.89,0,3.48,1.48,3.61,3.37,.02,.34-.23,.63-.57,.65-.01,0-.03,0-.04,0Z"/></g></g></g><path class="cls-4" d="M4.51,.18l.77,3.44c.02,.07,.08,.13,.15,.15l2.92,.79c.23,.07,.23,.4,0,.47l-2.92,.77c-.07,.02-.13,.08-.15,.15l-.77,3.46c-.07,.25-.41,.25-.48,0l-.79-3.46c-.02-.07-.08-.13-.15-.15L.17,5.04c-.23-.07-.23-.4,0-.47l2.92-.79c.07-.02,.13-.08,.15-.15L4.03,.18c.07-.25,.41-.25,.48,0Z"/><path class="cls-4" d="M69.63,29.35l.77,3.44c.02,.07,.08,.13,.15,.15l2.92,.79c.23,.07,.23,.4,0,.47l-2.92,.77c-.07,.02-.13,.08-.15,.15l-.77,3.46c-.07,.25-.41,.25-.48,0l-.79-3.46c-.02-.07-.08-.13-.15-.15l-2.92-.77c-.23-.07-.23-.4,0-.47l2.92-.79c.07-.02,.13-.08,.15-.15l.79-3.44c.07-.25,.41-.25,.48,0Z"/></svg>