<?xml version="1.0" encoding="UTF-8"?><svg id="_イヤー_1" xmlns="http://www.w3.org/2000/svg" width="85.02" height="54.82" xmlns:xlink="http://www.w3.org/1999/xlink" viewBox="0 0 85.02 54.82"><defs><style>.cls-1{fill:#fff;}.cls-2{clip-path:url(#clippath);}.cls-3{fill:#343091;}.cls-4{fill:#ccc;}.cls-5{fill:#b3b3b3;}</style><clipPath id="clippath"><rect class="cls-4" x="16.29" y="22.61" width="36.38" height="25.01"/></clipPath></defs><g><rect class="cls-3" y="15.41" width="68.97" height="39.41" rx="5" ry="5"/><g><rect class="cls-4" x="16.29" y="22.61" width="36.38" height="25.01"/><g class="cls-2"><rect class="cls-5" x="16.29" y="22.61" width="36.38" height="25.01"/><path class="cls-1" d="M37.26,44.1c-.34,0-.68-.15-.91-.45l-3.48-4.5,2.83-5.5-8.21,.93,6.45-14.35c.26-.58,.94-.84,1.52-.58,.58,.26,.84,.94,.58,1.52l-4.79,10.66,8.46-.96-4.12,8.02,2.58,3.34c.39,.5,.3,1.22-.21,1.61-.21,.16-.46,.24-.7,.24Z"/></g></g></g><g><g><circle class="cls-5" cx="73.6" cy="5.54" r="4.92"/><circle class="cls-5" cx="79.48" cy="11.43" r="4.92"/></g><circle class="cls-5" cx="80.1" cy="4.92" r="4.92"/><polygon class="cls-5" points="69.42 15.61 78.12 12.4 72.62 6.9 69.42 15.61"/></g></svg>