<?xml version="1.0" encoding="UTF-8"?><svg id="_イヤー_1" xmlns="http://www.w3.org/2000/svg" width="63.09" height="36.11" viewBox="0 0 63.09 36.11"><defs><style>.cls-1{fill:#fff;}.cls-2{fill:#8fc31f;}.cls-3{fill:#343091;}.cls-4{fill:#f39800;}</style></defs><path class="cls-3" d="M60.96,36.11h-9.84c-.97,0-1.75-.78-1.75-1.75s.78-1.75,1.75-1.75h6.27c-.9-11.76-10.75-21.05-22.74-21.05S12.82,20.85,11.92,32.61h6.27c.97,0,1.75,.78,1.75,1.75s-.78,1.75-1.75,1.75H8.36v-1.75c0-14.5,11.8-26.3,26.3-26.3s26.3,11.8,26.3,26.3v1.75Z"/><path class="cls-2" d="M1.96,35.36c-1.08,0-1.96-.88-1.96-1.96C0,14.98,15.94,0,35.54,0c9.65,0,18.68,3.57,25.43,10.07,.78,.75,.8,1.99,.05,2.77-.75,.78-1.99,.8-2.77,.05-6.01-5.78-14.07-8.97-22.71-8.97C18.11,3.92,3.92,17.15,3.92,33.4c0,1.08-.88,1.96-1.96,1.96Z"/><g><path class="cls-4" d="M44.16,21.94l-11.72,5.97h0c-.34,.2-.66,.42-.95,.7-1.65,1.65-1.65,4.34,0,5.99,1.65,1.65,4.34,1.65,5.99,0,.29-.29,.51-.61,.69-.95h0l5.97-11.71Z"/><circle class="cls-1" cx="34.61" cy="31.49" r="1.54"/></g><path class="cls-2" d="M63.09,14.43l-.53-7.85c-.03-.38-.49-.56-.76-.28l-7.32,7.32c-.27,.27-.1,.73,.28,.76l7.85,.53c.27,.02,.49-.21,.47-.47Z"/><path class="cls-3" d="M34.66,16.1c-.69,0-1.25-.56-1.25-1.25v-4.81c0-.69,.56-1.25,1.25-1.25s1.25,.56,1.25,1.25v4.81c0,.69-.56,1.25-1.25,1.25Z"/><path class="cls-3" d="M22.92,20.88c-.32,0-.64-.12-.88-.37l-3.4-3.4c-.49-.49-.49-1.28,0-1.77s1.28-.49,1.77,0l3.4,3.4c.49,.49,.49,1.28,0,1.77-.24,.24-.56,.37-.88,.37Z"/><path class="cls-3" d="M46.34,21.02c-.32,0-.64-.12-.88-.37-.49-.49-.49-1.28,0-1.77l3.4-3.4c.49-.49,1.28-.49,1.77,0s.49,1.28,0,1.77l-3.4,3.4c-.24,.24-.56,.37-.88,.37Z"/></svg>