<?xml version="1.0" encoding="UTF-8"?><svg id="_イヤー_1" xmlns="http://www.w3.org/2000/svg" width="73.82" height="49.61" viewBox="0 0 73.82 49.61"><defs><style>.cls-1,.cls-2{fill:#fff;}.cls-3,.cls-4{stroke-width:.99px;}.cls-3,.cls-4,.cls-2{stroke:#fff;stroke-linecap:round;stroke-linejoin:round;}.cls-3,.cls-5{fill:#f39800;}.cls-4{fill:#8fc31f;}.cls-2{stroke-width:1.61px;}.cls-6{fill:#343091;}</style></defs><g><rect class="cls-6" x="27.87" y="39.19" width="18.23" height="10.42" rx="1.46" ry="1.46"/><rect class="cls-1" x="32.17" y="40.64" width="9.61" height="7.52"/></g><path class="cls-5" d="M60.77,11.68c-3.35-.05-6.42,1.15-8.78,3.16-.05-3.79-1.52-7.56-4.41-10.45-5.88-5.86-15.39-5.84-21.25,.04-2.9,2.91-4.36,6.71-4.38,10.52-2.38-2.08-5.5-3.32-8.91-3.27C5.72,11.79-.11,17.82,0,25.14c.12,7.32,6.14,13.16,13.46,13.04,2.74-.04,5.26-.91,7.35-2.37l5.64,1.42-1.66-5.81c.95-1.69,1.55-3.6,1.68-5.64,2.11,2.06,4.67,3.37,7.35,3.94l3.14,5.44,3.14-5.44c2.64-.56,5.15-1.84,7.23-3.84,.14,2,.73,3.87,1.67,5.53l-1.66,5.81,5.64-1.42c2.09,1.45,4.62,2.32,7.35,2.37,7.32,.12,13.35-5.72,13.46-13.04,.12-7.32-5.72-13.35-13.04-13.46Z"/><g><polygon class="cls-1" points="19.39 19.9 9.49 21.25 9.49 18.58 19.39 17.23 19.39 19.9"/><rect class="cls-1" x="9.47" y="18.6" width="1.53" height="10.55"/><path class="cls-1" d="M7.22,28.01h3.79v1.91c0,1.32-1.07,2.39-2.39,2.39h-1.4c-.94,0-1.71-.77-1.71-1.71v-.88c0-.94,.77-1.71,1.71-1.71Z"/><rect class="cls-1" x="17.86" y="18.32" width="1.53" height="10.55"/><path class="cls-1" d="M15.6,27.1h3.79v1.91c0,1.32-1.07,2.39-2.39,2.39h-1.4c-.94,0-1.71-.77-1.71-1.71v-.88c0-.94,.77-1.71,1.71-1.71Z"/></g><g><g><rect class="cls-1" x="32.22" y="8.94" width="9.94" height="6.46" rx=".93" ry=".93"/><g><path class="cls-1" d="M31.5,20.42c-.51,.28-1.3,.36-1.86,.17-1.38-.46-1.52-1.81-1.61-3.11-.06-.93,.14-2.1,.21-3.02,.08-1.14,.35-2.31,.35-3.44,.18-1.82,1.81-3.17,3.62-2.99s3.16,1.81,2.98,3.63c-.09,.88-.18,1.76-.26,2.63-.1,1.01-.44,2.21-.81,3.13-.32,.8-.99,1.61-1.54,2.15-.34,.34-.71,.63-1.1,.85Z"/><path class="cls-1" d="M32.29,8.09s.04,.02,.12,.05c.47,.2,2.25,.9,3.96,.9l-.2,1.01-3.21-.27-.67-1.69Z"/><path class="cls-1" d="M36.56,15.39s-1.12-.24-2.32,1.74c-1.19,1.98,0-2.6,0-2.6l2.32,.86Z"/></g><g><path class="cls-1" d="M42.56,20.42c.51,.28,1.3,.36,1.86,.17,1.38-.46,1.52-1.81,1.61-3.11,.06-.93-.14-2.1-.21-3.02-.08-1.14-.35-2.31-.35-3.44-.18-1.82-1.81-3.17-3.62-2.99s-3.16,1.81-2.98,3.63c.09,.88,.18,1.76,.26,2.63,.1,1.01,.44,2.21,.81,3.13,.32,.8,.99,1.61,1.54,2.15,.34,.34,.71,.63,1.1,.85Z"/><path class="cls-1" d="M41.77,8.09s-.04,.02-.12,.05c-.47,.2-2.25,.9-3.96,.9l.2,1.01,3.21-.27,.67-1.69Z"/><path class="cls-1" d="M37.5,15.39s1.12-.24,2.32,1.74c1.19,1.98,0-2.6,0-2.6l-2.32,.86Z"/></g></g><g><circle class="cls-5" cx="41.76" cy="11.13" r=".74"/><circle class="cls-5" cx="41.76" cy="14.27" r=".74"/><circle class="cls-5" cx="43.33" cy="12.64" r=".74"/><circle class="cls-5" cx="40.19" cy="12.64" r=".74"/></g><g><rect class="cls-5" x="30.39" y="12.06" width="3.85" height="1.28" rx=".25" ry=".25"/><rect class="cls-5" x="30.39" y="12.06" width="3.85" height="1.28" rx=".25" ry=".25" transform="translate(19.62 45.02) rotate(-90)"/></g></g><g><path class="cls-2" d="M60.76,30.22s1.2-.63,3.67-.63,3.84,.75,3.84,.75v-9.14s-1.55-1.25-3.59-1.25-3.92,1.25-3.92,1.25l-.28-.12c-.54-.32-2.08-1.13-3.72-1.13-2.04,0-3.59,1.25-3.59,1.25v9.14s1.37-.75,3.84-.75,3.67,.63,3.67,.63h.08Z"/><path class="cls-3" d="M60.76,29.54s1.2-.63,3.67-.63,3.84,.75,3.84,.75v-9.14s-1.55-1.25-3.59-1.25-3.92,1.25-3.92,1.25l-.28-.12c-.54-.32-2.08-1.13-3.72-1.13-2.04,0-3.59,1.25-3.59,1.25v9.14s1.37-.75,3.84-.75,3.67,.63,3.67,.63h.08Z"/><line class="cls-4" x1="60.76" y1="20.53" x2="60.76" y2="29.3"/></g></svg>