<?xml version="1.0" encoding="utf-8"?>
<!-- Generator: Adobe Illustrator 25.3.1, SVG Export Plug-In . SVG Version: 6.00 Build 0)  -->
<svg version="1.1" id="レイヤー_1" xmlns="http://www.w3.org/2000/svg" xmlns:xlink="http://www.w3.org/1999/xlink" x="0px"
	 y="0px" viewBox="0 0 428 201.1" style="enable-background:new 0 0 428 201.1;" xml:space="preserve">
<style type="text/css">
	.st0{fill:#FFFFFF;}
	.st1{fill:none;stroke:#E3E3E3;stroke-width:4;stroke-miterlimit:10;}
	.st2{clip-path:url(#SVGID_2_);}
	.st3{fill:#F2A638;}
	.st4{fill:#FFDBC2;}
	.st5{fill:#35318F;}
	.st6{fill:#37377C;}
	.st7{fill:#D8A684;}
	.st8{fill:#1DA9D0;}
	.st9{fill:#E8D8A2;stroke:#FFFFFF;stroke-width:3.54;stroke-miterlimit:10;}
	.st10{fill:none;}
</style>
<g>
	<path class="st0" d="M332.1,17h-55c-32.5,0-58.8,26.3-58.8,58.8l0,0c0,30.7,23.6,56.2,54.2,58.6l-3.5,13.4c-0.1,0.2,0,0.5,0.2,0.6
		c0.2,0.1,0.4,0.1,0.5,0l23.5-13.9H332c32.5,0,58.8-26.3,58.8-58.8l0,0C390.8,43.3,364.5,17,332.1,17z"/>
	<path class="st1" d="M332.1,17h-55c-32.5,0-58.8,26.3-58.8,58.8l0,0c0,30.7,23.6,56.2,54.2,58.6l-3.5,13.4c-0.1,0.2,0,0.5,0.2,0.6
		c0.2,0.1,0.4,0.1,0.5,0l23.5-13.9H332c32.5,0,58.8-26.3,58.8-58.8l0,0C390.8,43.3,364.5,17,332.1,17z"/>
	<g>
		<defs>
			<rect id="SVGID_1_" x="37.2" width="243" height="201"/>
		</defs>
		<clipPath id="SVGID_2_">
			<use xlink:href="#SVGID_1_"  style="overflow:visible;"/>
		</clipPath>
		<g class="st2">
			<path class="st3" d="M208.6,163.4c-2-4.1-4.9-7.6-8.6-10.3c-3.3-2.3-7.1-3.8-11.1-4.5h-63.3c-8.2,0-19.4,6.8-20.3,15.3
				l-14.2,50.1h138.1C220.8,190.2,213.2,172.2,208.6,163.4z"/>
			<path class="st4" d="M193,73.6c-0.9-26.7-20.9-47.6-44.6-46.8S106.1,49.9,107,76.5c0.3,13.8,6.2,26.8,16.3,36.1
				c13.9,14.9,13.5,29.6,13.5,29.6l15.5-0.7l15.4-0.4c0,0-1.4-14.7,11.5-30.5C188.7,100.7,193.6,87.3,193,73.6z"/>
			
				<ellipse transform="matrix(0.9592 -0.2827 0.2827 0.9592 -19.0009 32.7684)" class="st4" cx="104.1" cy="82.2" rx="12.7" ry="15.4"/>
			
				<ellipse transform="matrix(0.2164 -0.9763 0.9763 0.2164 76.7341 253.7741)" class="st4" cx="196.5" cy="79.1" rx="15.4" ry="12.7"/>
			<path class="st4" d="M168,139.7c0-0.8-0.2-1.5-0.6-2.2c-2.5-4.1-12.4-1.9-14.9-1.3c-2.5-0.6-12.4-2.7-14.9,1.4
				c-0.3,0.7-0.5,1.4-0.6,2.2c-0.5,2.4-2.2,5.6-7.4,8.9c14.9,6.7,32,6.8,46.9,0.1C170.5,145.5,168.6,142.2,168,139.7z"/>
			<path class="st5" d="M109.5,70.7c0,0,15.3-21.4,55.6-34.4c0,0-7.5,22.2,29,32c0,0,30.9-30.2-12.8-39.5c0,0,13.6-14.8-14.2-19.4
				C121.9,2,80.5,43.8,109.5,70.7z"/>
			<circle class="st6" cx="168.6" cy="74" r="4"/>
			<circle class="st6" cx="134.4" cy="75.9" r="4"/>
			<ellipse class="st7" cx="154.5" cy="82.2" rx="3" ry="4"/>
			<path class="st6" d="M153.9,93.8c2.6,0,2,8.6-1,8.1S151.3,93.8,153.9,93.8z"/>
			<path class="st3" d="M98.1,162.9l-21.8,75.2h35.8l21.9-69.4c1.9-9.4-1.6-17.8-11.3-19.7S102,153.7,98.1,162.9z"/>
			<path class="st8" d="M208.4,176.6l29.5,5.5c2.6,0.8,5.2-1.3,5.8-4.7l16.1-54.1c1.2-4.1,0.7-7.9-3.2-8.6l-28.1-5.4
				c-4.1-0.8-7.5,0.1-8.8,5.8L205,169.1C204.3,172.5,205.8,175.9,208.4,176.6z"/>
			
				<ellipse transform="matrix(0.332 -0.9433 0.9433 0.332 48.5399 317.3704)" class="st0" cx="248.3" cy="124.4" rx="4.2" ry="3.6"/>
			<path class="st4" d="M198,219.4c0,0,7.3-25.2,14.2-47.6s33.3-15.3,26.7,5.9c-1.9,5.9-15,45.3-15,45.3"/>
			<path class="st3" d="M215.7,244.7c-7.3,14.8-34,8.4-28.4-11.9s16.3-49.6,16.3-49.6l31.9,11.1C235.5,194.3,223,229.9,215.7,244.7z
				"/>
		</g>
	</g>
	<path class="st8" d="M55.5,58.3c-0.2-0.4-1.8-4.5,0.3-7.8c2.3-3.7,7.8-3.6,8.7-3.6c7.1,0.2,13.8,8.1,17.5,19.4
		C68.7,67.5,58,64.5,55.5,58.3z"/>
	<path class="st8" d="M49.9,81.2c-0.3-0.2-2.9-1.9-3-4.6c-0.2-3.1,3-5.3,3.5-5.6c4.2-2.8,11.3-1,18,4C61.2,81,53.8,83.7,49.9,81.2z"
		/>
	<path class="st9" d="M276.3,66.4h80.4c1.8,0,3.3,1.5,3.3,3.3v33.4c0,1.8-1.5,3.3-3.3,3.3h-80.4c-1.8,0-3.3-1.5-3.3-3.3V69.8
		C272.9,67.9,274.4,66.4,276.3,66.4z"/>
	<path class="st9" d="M267.1,57.2h80.4c1.8,0,3.3,1.5,3.3,3.3v33.4c0,1.8-1.5,3.3-3.3,3.3h-80.4c-1.8,0-3.3-1.5-3.3-3.3V60.5
		C263.8,58.7,265.3,57.2,267.1,57.2z"/>
	<path class="st9" d="M257.6,47.4H338c1.8,0,3.3,1.5,3.3,3.3v33.4c0,1.8-1.5,3.3-3.3,3.3h-80.4c-1.8,0-3.3-1.5-3.3-3.3V50.7
		C254.2,48.9,255.7,47.4,257.6,47.4z"/>
	<path class="st0" d="M289.9,60.2c-0.3-0.4-0.5-0.8-0.5-1.3c0.1-1.2,1.1-2.1,2.3-2.1c0.7,0,1.3,0.3,1.7,0.9l4.4,6.8l4.4-6.8
		c0.4-0.6,1-0.9,1.7-0.9c1.2,0,2.2,0.9,2.3,2.1c0,0.5-0.2,0.9-0.4,1.3l-4.3,5.9h3.7c0.6,0.1,1.1,0.7,1,1.3c-0.1,0.5-0.5,0.9-1,1h-5
		v2.2h5c0.6,0.1,1.1,0.6,1,1.2c-0.1,0.5-0.5,1-1,1h-5v3.3c0,1.1-1,1.8-2.3,1.8s-2.3-0.8-2.3-1.8v-3.4h-5c-0.6-0.1-1.1-0.6-1-1.2
		c0.1-0.5,0.5-1,1-1h5v-2.2h-5c-0.6-0.1-1.1-0.7-1-1.3c0.1-0.5,0.5-0.9,1-1h3.7L289.9,60.2z"/>
	<rect y="1.1" class="st10" width="428" height="200"/>
</g>
</svg>
