<?xml version="1.0" encoding="utf-8"?>
<!-- Generator: Adobe Illustrator 27.0.1, SVG Export Plug-In . SVG Version: 6.00 Build 0)  -->
<svg version="1.1" id="レイヤー_1" xmlns="http://www.w3.org/2000/svg" xmlns:xlink="http://www.w3.org/1999/xlink" x="0px"
	 y="0px" viewBox="0 0 96.6 100.5" style="enable-background:new 0 0 96.6 100.5;" xml:space="preserve">
<style type="text/css">
	.st0{fill:#FFFFFF;}
	.st1{enable-background:new    ;}
	.st2{fill:#F39800;}
	.st3{fill:none;stroke:#F39800;stroke-width:8;stroke-miterlimit:10;}
</style>
<circle class="st0" cx="48.5" cy="49.8" r="36.8"/>
<g class="st1">
	<path class="st2" d="M52,52.7v6h-8.2v-8.8c3.9-1.4,6.6-2.9,8.2-4.4s2.3-3.3,2.3-5.2c0-3.7-2.4-5.5-7.1-5.5c-3,0-6.1,1-9.3,3H37
		v-7.5c4.2-1.5,8.2-2.3,12.2-2.3c4.4,0,7.8,1,10.4,2.9c2.6,2,3.8,4.6,3.8,7.8c0,3-0.8,5.6-2.5,7.8S56.3,50.7,52,52.7z M52.7,70h-9.5
		v-7.1h9.5V70z"/>
</g>
<ellipse class="st3" cx="48.5" cy="49.8" rx="38.1" ry="39.3"/>
</svg>
