<?xml version="1.0" encoding="utf-8"?>
<!-- Generator: Adobe Illustrator 27.8.1, SVG Export Plug-In . SVG Version: 6.00 Build 0)  -->
<svg version="1.1" id="レイヤー_1" xmlns="http://www.w3.org/2000/svg" xmlns:xlink="http://www.w3.org/1999/xlink" x="0px"
	 y="0px" width="200px" height="200px" viewBox="0 0 200 200" style="enable-background:new 0 0 200 200;" xml:space="preserve">
<style type="text/css">
	.st0{fill:#D7F9E7;}
	.st1{fill:#FFDBC2;}
	.st2{fill:#FFFFFF;}
	.st3{fill:#343091;}
	.st4{fill:#35318F;}
	.st5{fill:#37377C;}
	.st6{fill:#D8A684;}
	.st7{fill:#1FC97C;}
	.st8{fill:#F39800;}
	.st9{fill:none;stroke:#1FC97C;stroke-width:5.2886;stroke-linecap:round;stroke-linejoin:round;stroke-miterlimit:10;}
</style>
<g>
	<rect x="-1" y="-1" class="st0" width="202" height="202"/>
	<g>
		<path class="st1" d="M116.2,132.4c0-0.7-0.2-1.5-0.5-2.1c-2.3-3.8-11.5-1.8-13.9-1.3l-0.1,0.6l-0.1-0.6
			c-2.3-0.5-11.5-2.5-13.9,1.3c-0.3,0.6-0.5,1.4-0.5,2.1c0,3.3-26.4,18.7-33.5,22.2l46,6.3h5l45-6.3
			C142.6,151.2,116.2,135.8,116.2,132.4z"/>
		<g>
			<path class="st2" d="M140.4,156.6c0-10.8-5.6-9.2-5.6-9.2H68.3c0,0-5.2-1.6-5.2,9.2v32.2h77.2V156.6z"/>
		</g>
		<g>
			<g>
				<g>
					<g>
						<path class="st3" d="M140,110.7c9.2-11.1,9.3-23.9,6.6-30.2c-4.5-10.4-89.7-29.3-89.7-29.3c-14.1,34.9,19,58.6-3.5,79.3
							c0,0,2.4-1.7,16.7-0.2c-1.8,3.3-3.2,6.8-4,10.5c0,0,6.8-5.1,32.4-10.6c5.3-1.2,9.6-2.1,13.4-3.3c12.9-3.3,21.6-8.9,27.2-15.2
							C139.5,111.4,139.7,111.1,140,110.7z"/>
						<path class="st4" d="M54,71.2c-4.7-15.6,5.8-59.7,51.4-58.4c49.6,1.4,58.4,71.1,34.1,97.2s-66,13.6-66,13.6L54,71.2z"/>
						<path class="st1" d="M141.3,74.2c0-24.4-17.6-44.1-39.2-44.1s-39.2,19.6-39.3,44c-0.2,12.5,4.8,24.6,13.6,33.5
							c12.2,14.1,11.4,25.3,11.4,25.3l14.1-0.1l14,0.1c0,0-0.7-11.3,11.4-25.3C136.4,98.8,141.4,86.8,141.3,74.2z"/>
						
							<ellipse transform="matrix(0.8913 -0.4535 0.4535 0.8913 -29.0495 37.6696)" class="st1" cx="64" cy="79.4" rx="11.5" ry="12.9"/>
						
							<ellipse transform="matrix(0.4651 -0.8853 0.8853 0.4651 5.164 167.8761)" class="st1" cx="141.5" cy="79.7" rx="12.9" ry="11.5"/>
						<path class="st3" d="M63.2,66.8c0,0,12.1-21.1,50.2-24.1c0,0-10.6-0.3-30.8,13.4c0,0,30.7-5.1,58.1-3.4
							c13.3,0.8-15.9-28.4-34.2-28.4S60.4,39.3,63.2,66.8z"/>
						<circle class="st5" cx="85" cy="76.2" r="3.7"/>
						<circle class="st5" cx="116.4" cy="76.4" r="3.7"/>
						<ellipse class="st6" cx="100.9" cy="84.3" rx="2.8" ry="3.7"/>
					</g>
				</g>
			</g>
		</g>
		<g>
			<path class="st7" d="M149.6,68.9h-4.1c0-27.3-18.2-47-43.2-47c-24.8,0-42.7,19.8-42.7,47h-4.1c0-29.6,19.7-51.1,46.8-51.1
				c13.5,0,25.6,5.3,34.3,15.1C145,42.2,149.6,55,149.6,68.9z"/>
			<path class="st7" d="M62.3,95.9c0.1,1.5-1.2,2.7-2.7,2.5c-6.6-1.2-12.7-8.1-13.3-16.8c-0.6-8.7,4.5-16.2,10.9-18.3
				c1.4-0.5,2.9,0.6,3,2.1L62.3,95.9z"/>
			<path class="st7" d="M142.2,95.9c-0.1,1.5,1.2,2.7,2.7,2.5c6.6-1.2,12.7-8.1,13.3-16.8c0.6-8.7-4.5-16.2-10.9-18.3
				c-1.4-0.5-2.9,0.6-3,2.1L142.2,95.9z"/>
		</g>
		<path class="st5" d="M101.7,99.1c-4.1,0-7.5-2.4-7.5-4c0-1.6,3.4,1.2,7.5,1.1c4.1,0,7.4-2.9,7.4-1.3
			C109.1,96.5,105.8,99,101.7,99.1z"/>
		<g>
			<g>
				<path class="st7" d="M78,142.7c-8.8,0-31.6,11.3-37.4,21.7c-4,7.3-5.1,24.3-5.1,24.3h60.9C96.4,188.8,81.5,142.7,78,142.7z"/>
			</g>
		</g>
		<g>
			<g>
				<path class="st7" d="M124.4,142.4c8.9,0,31.9,11.4,37.7,21.9c4.1,7.3,5.2,24.5,5.2,24.5H106C106,188.8,121,142.4,124.4,142.4z"
					/>
			</g>
		</g>
		<g>
			<g>
				<path class="st8" d="M104.9,146.7c8.6,6.6,13.4,19.3,14.2,21.2c0.8,1.9-9.8,4.1-13.3,3.1c-3.5-0.9-7.8-24.8-7.8-24.8
					L104.9,146.7z"/>
			</g>
		</g>
		<g>
			<g>
				<path class="st8" d="M97.6,146.7c-8.6,6.6-13.4,19.3-14.2,21.2c-0.8,1.9,9.8,4.1,13.3,3.1c3.5-0.9,7.8-24.8,7.8-24.8L97.6,146.7
					z"/>
			</g>
		</g>
		<g>
			<g>
				<path class="st2" d="M101.6,146.4c0,5.1-12.1,14.6-12.1,14.6c-1.3,2.5-20.4-16.5-20.4-16.5l13.8-8.7
					C82.8,135.7,90.8,144,101.6,146.4z"/>
			</g>
			<g>
				<path class="st2" d="M101.6,146.4c0,5.1,12.1,14.6,12.1,14.6c1.3,2.5,20.4-16.5,20.4-16.5l-13.8-8.7
					C120.3,135.7,112.4,144,101.6,146.4z"/>
			</g>
		</g>
		<g>
			<polyline class="st9" points="146.6,89.7 137.8,103.6 122.2,103.6 			"/>
		</g>
		<path class="st3" d="M121.3,97.8h-4.1c-3,0-5.5,2.4-5.5,5.5s2.4,5.5,5.5,5.5h4.1c3,0,5.5-2.4,5.5-5.5S124.3,97.8,121.3,97.8z"/>
	</g>
</g>
</svg>
