<svg id="レイヤー_1" data-name="レイヤー 1" xmlns="http://www.w3.org/2000/svg" width="405.47" height="46.23" viewBox="0 0 405.47 46.23"><defs><style>.cls-1{fill:#f5f5f5;}.cls-2{fill:#222;}.cls-3{fill:#fff;}.cls-4{fill:#ff9908;}</style></defs><rect class="cls-1" width="405.47" height="46.23"/><path class="cls-2" d="M17.53,21.19c-.65,0-1,0-1.43,0a8.8,8.8,0,0,0,.1-1.51V13.63a11.85,11.85,0,0,0-.09-1.38c.47,0,.65,0,1.41,0h2.64c1.74,0,2.71.79,2.71,2.18A2,2,0,0,1,22.24,16a1.76,1.76,0,0,1-.88.47,2.09,2.09,0,0,1,1.13.52,2.22,2.22,0,0,1,.7,1.71c0,1.57-1.05,2.46-2.91,2.46ZM20,15.92c.86,0,1.36-.46,1.36-1.22a1.14,1.14,0,0,0-.29-.83A1.62,1.62,0,0,0,20,13.53H17.68v2.39Zm-2.32,4h2.4c1,0,1.56-.49,1.56-1.4a1.19,1.19,0,0,0-.36-1,1.8,1.8,0,0,0-1.22-.38H17.68Z"/><path class="cls-2" d="M26.21,12.27a8.13,8.13,0,0,0-.09,1.45v6a8.27,8.27,0,0,0,.09,1.45H24.5a8.27,8.27,0,0,0,.09-1.45v-6a8.13,8.13,0,0,0-.09-1.45Z"/><path class="cls-2" d="M35.07,18.89a9,9,0,0,0,.08,1.46,7.6,7.6,0,0,1-1.79.77,6.91,6.91,0,0,1-1.65.21A3.92,3.92,0,0,1,28.53,20a5.25,5.25,0,0,1-1.05-3.4,4.46,4.46,0,0,1,1.79-3.93,4.21,4.21,0,0,1,2.48-.66,3.65,3.65,0,0,1,2.58,1,3.26,3.26,0,0,1,.83,1.33l-1.54.42a1.83,1.83,0,0,0-2.06-1.38,2.4,2.4,0,0,0-1.7.68A3.52,3.52,0,0,0,29,16.62a4,4,0,0,0,.76,2.62,2.38,2.38,0,0,0,1.95.77,3.43,3.43,0,0,0,1.91-.5V17.68H33a5.76,5.76,0,0,0-1.14.07V16.3a7.81,7.81,0,0,0,1.34.07h.59c.51,0,.84,0,1.32,0a8.74,8.74,0,0,0-.08,1.38Z"/><path class="cls-2" d="M42.94,21.26a12.08,12.08,0,0,0-1.59-.07H38c-.63,0-1,0-1.42,0a9.92,9.92,0,0,0,.08-1.48V13.93a12.27,12.27,0,0,0-.08-1.66h1.69a9.92,9.92,0,0,0-.09,1.65v5.91h3.13a11.15,11.15,0,0,0,1.59-.08Z"/><path class="cls-2" d="M50.51,13.21a4.83,4.83,0,0,1,1.26,3.5c0,2.83-1.65,4.67-4.19,4.67s-4.18-1.83-4.18-4.67a4.8,4.8,0,0,1,1.28-3.5,4.35,4.35,0,0,1,5.83,0Zm-.31,3.5a3.63,3.63,0,0,0-.89-2.61,2.4,2.4,0,0,0-1.72-.69C46,13.41,45,14.69,45,16.72a3.7,3.7,0,0,0,.9,2.64A2.42,2.42,0,0,0,47.6,20C49.2,20,50.2,18.77,50.2,16.71Z"/><path class="cls-2" d="M54.48,21.19c-.65,0-1,0-1.43,0a8.8,8.8,0,0,0,.1-1.51V13.63a11.85,11.85,0,0,0-.09-1.38c.47,0,.65,0,1.41,0h2.64c1.74,0,2.71.79,2.71,2.18A2,2,0,0,1,59.19,16a1.76,1.76,0,0,1-.88.47,2.09,2.09,0,0,1,1.13.52,2.22,2.22,0,0,1,.69,1.71c0,1.57-1,2.46-2.9,2.46ZM57,15.92c.86,0,1.36-.46,1.36-1.22a1.14,1.14,0,0,0-.29-.83,1.62,1.62,0,0,0-1.08-.34H54.62v2.39Zm-2.33,4H57c1,0,1.56-.49,1.56-1.4a1.19,1.19,0,0,0-.36-1A1.8,1.8,0,0,0,57,17.17H54.62Z"/><path class="cls-2" d="M67.82,21.26a11,11,0,0,0-1.45-.07H62.88c-.68,0-1,0-1.43,0a8.79,8.79,0,0,0,.09-1.48V13.68a9.43,9.43,0,0,0-.09-1.44c.45,0,.74,0,1.43,0h3.38a11.07,11.07,0,0,0,1.44-.08v1.48a9.34,9.34,0,0,0-1.44-.08H63V15.9h2.73a10.83,10.83,0,0,0,1.45-.08v1.47a8.41,8.41,0,0,0-1.45-.08H63v2.64h3.36a10.21,10.21,0,0,0,1.44-.08Z"/><path class="cls-2" d="M71,13.53c-.73.14-1,.17-1.64.28a4.55,4.55,0,0,0-.41-1.08,12,12,0,0,0,4.31-1.08l.73,1c-.81.28-1.32.43-1.82.57V14.7H73a6.17,6.17,0,0,0,.94,0v1.22a5.28,5.28,0,0,0-1-.06h-.82A6.58,6.58,0,0,0,74,17.9a5.27,5.27,0,0,0-.59,1.1,6.15,6.15,0,0,1-1.31-1.79c0,.38,0,.84,0,1.41v1.95A10,10,0,0,0,72.2,22H70.87A9.14,9.14,0,0,0,71,20.57V18.7c0-.45,0-1,0-1.34a7.94,7.94,0,0,1-.76,1.57,7.44,7.44,0,0,1-1,1.24A6,6,0,0,0,68.64,19a6.77,6.77,0,0,0,1.22-1.5,13,13,0,0,0,.87-1.68h-.8a6,6,0,0,0-1,.07V14.63a4.91,4.91,0,0,0,1,.07h1Zm4.93-1.06a8.07,8.07,0,0,0-.07,1.36v4.23a8.35,8.35,0,0,0,.06,1.33H74.55a7.76,7.76,0,0,0,.06-1.31V13.83a8.28,8.28,0,0,0-.07-1.36Zm2.66-.67a12.92,12.92,0,0,0-.08,1.52v7.21c0,.59-.14.91-.5,1.1a3.37,3.37,0,0,1-1.56.19c-.28,0-.44,0-.83,0a4.67,4.67,0,0,0-.38-1.24,13.32,13.32,0,0,0,1.48.1c.49,0,.57-.05.57-.34v-7c0-.56,0-1-.06-1.52Z"/><path class="cls-2" d="M81.87,18.45A7.42,7.42,0,0,1,80.73,22a6.74,6.74,0,0,0-1.08-.88,5,5,0,0,0,.81-1.9,12.2,12.2,0,0,0,.23-1.71c0-.94.1-2.53.1-3.85A13.76,13.76,0,0,0,80.73,12a11.28,11.28,0,0,0,1.29.05H88.3A10.66,10.66,0,0,0,89.59,12c0,.39,0,.67,0,1.27v7.36c0,.93-.34,1.16-1.62,1.16-.34,0-.92,0-1.25,0a5.09,5.09,0,0,0-.31-1.17,14,14,0,0,0,1.41.09c.46,0,.56,0,.56-.28v-2H85.65v1.84a10.9,10.9,0,0,0,0,1.33H84.38a8.36,8.36,0,0,0,.07-1.32V18.45Zm2.58-2.64H82c0,.32,0,.55,0,.71,0,.52,0,.6,0,.82h2.5Zm0-2.56H82v1.46h2.45Zm3.89,1.46V13.25H85.65v1.46Zm0,2.63V15.81H85.65v1.53Z"/><path class="cls-2" d="M95.18,18.92a3.4,3.4,0,0,0-.12.38,7.92,7.92,0,0,1-1.13-1.57c0,.76.06.91.06,1.27v1.85A7.08,7.08,0,0,0,94.06,22h-1.3a6.69,6.69,0,0,0,.08-1.18V19.38c0-.45,0-1,0-1.34a7.74,7.74,0,0,1-1.45,2.52,3.35,3.35,0,0,0-.57-1.15,7.64,7.64,0,0,0,1.21-1.66,10.19,10.19,0,0,0,.59-1.27h-.58a5.29,5.29,0,0,0-1,.06V15.35a5,5,0,0,0,1,.06h.75V12.75a6.34,6.34,0,0,0-.06-1.1h1.28A7.29,7.29,0,0,0,94,12.74v2.67h.53a4.74,4.74,0,0,0,.86-.05v1.17a5.49,5.49,0,0,0-.88-.05h-.41a6,6,0,0,0,1.45,1.72,6,6,0,0,0-.31.62,8.81,8.81,0,0,0,1-.15l2.62-.59V13a7.16,7.16,0,0,0-.07-1.3h1.35A8.79,8.79,0,0,0,100.1,13v4.86a6.9,6.9,0,0,0,1-.27l.23,1.27a9.89,9.89,0,0,0-1.07.2l-.11,0v1.63a9.15,9.15,0,0,0,.06,1.32H98.81a7.61,7.61,0,0,0,.07-1.33V19.3l-2.38.54c-.49.11-.82.2-1.06.28Zm-3.24-6.65a13.94,13.94,0,0,1,.69,2.42l-.94.4A8.75,8.75,0,0,0,91,12.7Zm3.85.39a14,14,0,0,1-.9,2.43l-.82-.42a9.19,9.19,0,0,0,.77-2.42Zm.56,2.55a9.93,9.93,0,0,1,1.94,1.64l-.76.91a9.66,9.66,0,0,0-2-1.73Zm.34-2.8a10.64,10.64,0,0,1,2,1.64l-.76.94a9.39,9.39,0,0,0-2-1.72Z"/><path class="cls-2" d="M105.28,15.76a8.49,8.49,0,0,0-1.09.06v-.54a12,12,0,0,1-1.83.92,5.06,5.06,0,0,0-.65-1.15,8.7,8.7,0,0,0,4.57-3.28h1.39a6.68,6.68,0,0,0,1.72,1.72,9.14,9.14,0,0,0,3,1.51,5.91,5.91,0,0,0-.6,1.24,10.85,10.85,0,0,1-2-1v.57a8.44,8.44,0,0,0-1.1-.06h-1.14v1.09h2.83a7.26,7.26,0,0,0,1.22-.07V18a8,8,0,0,0-1.23-.07h-2.82v2.51h3a9.58,9.58,0,0,0,1.33-.07v1.29a9.8,9.8,0,0,0-1.35-.08H103.5a10.4,10.4,0,0,0-1.39.08V20.4a11.07,11.07,0,0,0,1.39.07h2.81V18h-2.65a8.39,8.39,0,0,0-1.21.07V16.78a7.5,7.5,0,0,0,1.22.07h2.64V15.76Zm-.79,2.3a12.78,12.78,0,0,1,.89,1.86l-1.12.45a7.8,7.8,0,0,0-.88-1.86Zm.76-3.35H109a8.67,8.67,0,0,1-2-1.88,8,8,0,0,1-2,1.88Zm5.35,3.81c-.14.26-.14.26-.56,1.08,0,.06-.07.14-.46.79l-1-.39a9.14,9.14,0,0,0,.89-1.93Z"/><path class="cls-2" d="M47.71,27.47a5.32,5.32,0,0,0,.89.06h2.12a6.32,6.32,0,0,0,.9-.05v1.09a6.11,6.11,0,0,0-.86,0H48.6a5.63,5.63,0,0,0-.89,0Zm.36,8.44c0-.34,0-.72,0-1.09V33.18a7.45,7.45,0,0,0,0-.88,6.75,6.75,0,0,0,.87,0H50.7a6.3,6.3,0,0,0,.76,0,7.82,7.82,0,0,0,0,.82v1.75a6.8,6.8,0,0,0,0,.89h-1.1v-.38H49.2v.52Zm0-10A4.42,4.42,0,0,0,49,26h1.54a4.7,4.7,0,0,0,.91-.06v1a8.12,8.12,0,0,0-.91,0H49a7.71,7.71,0,0,0-.9,0Zm0,3.27a5.88,5.88,0,0,0,.7,0h1.9a5,5,0,0,0,.68,0v1a4.2,4.2,0,0,0-.68,0H48.8a4.31,4.31,0,0,0-.7,0Zm0,1.57a6.29,6.29,0,0,0,.7,0h1.89a5.73,5.73,0,0,0,.69,0v1a4.23,4.23,0,0,0-.7,0H48.79a4.25,4.25,0,0,0-.69,0Zm1.1,3.66h1.17V33.32H49.2ZM53,27.3a7,7,0,0,0-1.06.05v-1a5,5,0,0,0,1.06.07h1.15a4,4,0,0,0-.07-.83h1.29a3.24,3.24,0,0,0-.07.83h1.42a5.22,5.22,0,0,0,1.09-.07v1a7.59,7.59,0,0,0-1.09-.05H55.29v.47h1.19a7.31,7.31,0,0,0,.93,0v1a8.28,8.28,0,0,0-1,0H55.29v.45H56.9A6.53,6.53,0,0,0,58,29v1.05A5.66,5.66,0,0,0,56.9,30h-4a5.83,5.83,0,0,0-1.13.07V29a6,6,0,0,0,1.13.06h1.29v-.45h-1a8.12,8.12,0,0,0-.94,0v-1a8.09,8.09,0,0,0,.95,0h1V27.3Zm.31,7.38A10.84,10.84,0,0,0,53.36,36H52.1a8.23,8.23,0,0,0,.06-1.28v-3.3c0-.42,0-.64,0-.95.29,0,.48,0,.9,0h3.33a6.23,6.23,0,0,0,1-.05,11.47,11.47,0,0,0,0,1.16v3.22c0,.88-.28,1.09-1.41,1.09-.35,0-.54,0-.91,0a4.14,4.14,0,0,0-.27-1.09,7.6,7.6,0,0,0,1.09.1c.3,0,.37,0,.37-.32v-.38H53.3Zm2.9-2.79v-.48H53.3v.48Zm0,1.36v-.46H53.3v.46Z"/><path class="cls-2" d="M64.57,28.6a8,8,0,0,0,1,2.14,7.92,7.92,0,0,0,1.71-1.84l1,.79-.66.69a16.79,16.79,0,0,1-1.43,1.27,7.34,7.34,0,0,0,1,1A9.09,9.09,0,0,0,69.12,34a5.56,5.56,0,0,0-.84,1.15,11,11,0,0,1-2.33-2,8.39,8.39,0,0,1-1.47-2.31c0,.51,0,1.15,0,1.63v2.36c0,.82-.33,1.07-1.39,1.07q-.66,0-1.41-.06a4.21,4.21,0,0,0-.3-1.21,8.21,8.21,0,0,0,1.46.15c.35,0,.43-.07.43-.37V28.6h-3.1a8.36,8.36,0,0,0-1.22.07V27.44a10.38,10.38,0,0,0,1.28.06h3v-.64a7.75,7.75,0,0,0-.07-1.22H64.6a8.3,8.3,0,0,0-.07,1.24v.62h1.9a6.43,6.43,0,0,0-1.18-1.23l.87-.65A9.55,9.55,0,0,1,67.51,27l-.67.5h.77a10.91,10.91,0,0,0,1.29-.06v1.23a8.86,8.86,0,0,0-1.29-.07ZM63.2,32.52a23.38,23.38,0,0,1-2.94,1.9c-.28.17-.42.26-.63.41L59,33.56a9.22,9.22,0,0,0,1.65-.76,14,14,0,0,0,2.1-1.4Zm-2.37-3.63a13.22,13.22,0,0,1,1.55,2l-1.05.75a9.14,9.14,0,0,0-1.46-2Z"/><path class="cls-2" d="M74.47,27.06H72.16a10.53,10.53,0,0,0-1.1,0v-1a8.3,8.3,0,0,0,1.24.07h2.17a2.84,2.84,0,0,0-.07-.61h1.31a2.51,2.51,0,0,0-.08.61h2.25c.56,0,.92,0,1.24,0a6.42,6.42,0,0,0,0,.95v.32h.09a7.1,7.1,0,0,0,1-.05v1a7.06,7.06,0,0,0-1,0h-.06v.43a5.09,5.09,0,0,0,0,.8c-.33,0-.66,0-1.17,0H75.63v.35H78.3a11.22,11.22,0,0,0,1.16,0v.94a7.43,7.43,0,0,0-1.16-.06H75.63V31h3.24A8.69,8.69,0,0,0,80.16,31v1a12.57,12.57,0,0,0-1.29-.06H71.32A12.63,12.63,0,0,0,70,32V31a9,9,0,0,0,1.3.07h3.15v-.36H71.94a7.49,7.49,0,0,0-1.17.06v-.94c.33,0,.61,0,1.17,0h2.53v-.35H72.16a10.66,10.66,0,0,0-1.11.05V28.6a10.24,10.24,0,0,0,1.11,0h2.31v-.37H71.31a11.61,11.61,0,0,0-1.29,0v-1c.35,0,.73.05,1.29.05h3.16Zm-3.13,6.28c0-.64,0-.83,0-1.1.28,0,.45,0,1.19,0h5.23c.75,0,.94,0,1.2,0a6.69,6.69,0,0,0-.05,1.1v1.44A6.3,6.3,0,0,0,79,36H77.7v-.38H72.51V36H71.29c0-.33,0-.66,0-1.16Zm1.17.18H77.7V33.1H72.51Zm0,1.18H77.7v-.41H72.51Zm5.43-7.64H75.63v.35h2.31Zm-2.31,1.22v.37h2.31v-.37Z"/><path class="cls-2" d="M134.22,25.76h-1.3V23.11h-2.65V21.82h2.65V19.17h1.3v2.65h2.65v1.29h-2.65Z"/><path class="cls-2" d="M163.16,19.76a16.07,16.07,0,0,0,1.12,1.43h-2.07a11.72,11.72,0,0,0-.7-1.18l-2.23-3.14-1.22,1.23v1.64a7.53,7.53,0,0,0,.1,1.45H156.5a9.4,9.4,0,0,0,.09-1.45v-6a8.93,8.93,0,0,0-.09-1.45h1.66a7.83,7.83,0,0,0-.1,1.45v2.61l2.85-3a5.27,5.27,0,0,0,.87-1.09h2.12c-.32.33-.69.68-1.19,1.19l-2.39,2.45Z"/><path class="cls-2" d="M165.4,13.69a10.32,10.32,0,0,0-.09-1.45c.44,0,.71,0,1.42,0h2a4,4,0,0,1,3,1A4.48,4.48,0,0,1,173,16.65a4.73,4.73,0,0,1-1.32,3.56,4,4,0,0,1-2.93,1h-2c-.68,0-1,0-1.42,0a10,10,0,0,0,.09-1.48Zm3.27,6.17a2.48,2.48,0,0,0,2-.71,3.56,3.56,0,0,0,.82-2.49,3.33,3.33,0,0,0-.78-2.4,2.51,2.51,0,0,0-2-.67h-1.79v6.27Z"/><path class="cls-2" d="M174.42,13.69a10.32,10.32,0,0,0-.09-1.45c.44,0,.71,0,1.42,0h2a4,4,0,0,1,3,1A4.48,4.48,0,0,1,182,16.65a4.73,4.73,0,0,1-1.32,3.56,4,4,0,0,1-2.93,1h-2c-.69,0-1,0-1.42,0a10,10,0,0,0,.09-1.48Zm3.27,6.17a2.48,2.48,0,0,0,2-.71,3.56,3.56,0,0,0,.82-2.49,3.33,3.33,0,0,0-.78-2.4,2.51,2.51,0,0,0-2-.67h-1.79v6.27Z"/><path class="cls-2" d="M185.05,12.27a8.13,8.13,0,0,0-.09,1.45v6a8.27,8.27,0,0,0,.09,1.45h-1.71a8.27,8.27,0,0,0,.09-1.45v-6a8.13,8.13,0,0,0-.09-1.45Z"/><path class="cls-2" d="M188.49,13.53c-.73.14-1,.17-1.63.28a4.6,4.6,0,0,0-.42-1.08,12,12,0,0,0,4.31-1.08l.73,1c-.8.28-1.32.43-1.81.57V14.7h.89a6,6,0,0,0,.94,0v1.22a5.28,5.28,0,0,0-1-.06h-.82a6.62,6.62,0,0,0,1.8,2.09,5.31,5.31,0,0,0-.6,1.1,6.15,6.15,0,0,1-1.31-1.79c0,.38.06.84.06,1.41v1.95a10.32,10.32,0,0,0,.06,1.42H188.4a9.14,9.14,0,0,0,.08-1.42V18.7c0-.45,0-1,.06-1.34a8.46,8.46,0,0,1-.77,1.57,7,7,0,0,1-1,1.24,5.54,5.54,0,0,0-.63-1.18,6.77,6.77,0,0,0,1.22-1.5,14.54,14.54,0,0,0,.88-1.68h-.81a6,6,0,0,0-1,.07V14.63a4.91,4.91,0,0,0,1,.07h1Zm4.93-1.06a8.07,8.07,0,0,0-.07,1.36v4.23a8.35,8.35,0,0,0,.06,1.33h-1.32a9.56,9.56,0,0,0,0-1.31V13.83a8.28,8.28,0,0,0-.07-1.36Zm2.66-.67a13.16,13.16,0,0,0-.07,1.52v7.21c0,.59-.15.91-.51,1.1a3.35,3.35,0,0,1-1.55.19c-.28,0-.45,0-.83,0a5.07,5.07,0,0,0-.38-1.24,13,13,0,0,0,1.47.1c.5,0,.58-.05.58-.34v-7c0-.56,0-1-.07-1.52Z"/><path class="cls-2" d="M199.41,18.45A7.53,7.53,0,0,1,198.26,22a6.33,6.33,0,0,0-1.08-.88,5.23,5.23,0,0,0,.82-1.9,10.91,10.91,0,0,0,.22-1.71c.06-.94.1-2.53.1-3.85a13.76,13.76,0,0,0-.06-1.63,11.5,11.5,0,0,0,1.29.05h6.29a10.47,10.47,0,0,0,1.28-.05c0,.39,0,.67,0,1.27v7.36c0,.93-.34,1.16-1.61,1.16-.35,0-.92,0-1.26,0a4.24,4.24,0,0,0-.31-1.17,14,14,0,0,0,1.41.09c.46,0,.56,0,.56-.28v-2h-2.69v1.84a8.82,8.82,0,0,0,.06,1.33h-1.32A10.24,10.24,0,0,0,202,20.3V18.45ZM202,15.81h-2.47c0,.32,0,.55,0,.71,0,.52,0,.6,0,.82H202Zm0-2.56h-2.44v1.46H202Zm3.89,1.46V13.25h-2.69v1.46Zm0,2.63V15.81h-2.69v1.53Z"/><path class="cls-2" d="M212.71,18.92c-.05.15-.06.21-.12.38a8.34,8.34,0,0,1-1.13-1.57c.06.76.07.91.07,1.27v1.85a7.28,7.28,0,0,0,.06,1.16h-1.3a6.69,6.69,0,0,0,.08-1.18V19.38c0-.45,0-1,0-1.34A7.74,7.74,0,0,1,209,20.56a3.18,3.18,0,0,0-.57-1.15,7.64,7.64,0,0,0,1.21-1.66,10.19,10.19,0,0,0,.59-1.27h-.58a5.29,5.29,0,0,0-1,.06V15.35a5.11,5.11,0,0,0,1,.06h.75V12.75a7.84,7.84,0,0,0-.05-1.1h1.27a7.59,7.59,0,0,0-.05,1.09v2.67h.52a4.74,4.74,0,0,0,.86-.05v1.17a5.42,5.42,0,0,0-.88-.05h-.4a6,6,0,0,0,1.44,1.72,6,6,0,0,0-.31.62,8.52,8.52,0,0,0,1-.15l2.62-.59V13a7.16,7.16,0,0,0-.07-1.3h1.36a7.37,7.37,0,0,0-.07,1.28v4.86a6.9,6.9,0,0,0,1-.27l.24,1.27a10,10,0,0,0-1.08.2l-.11,0v1.63A7.68,7.68,0,0,0,217.7,22h-1.36a7.61,7.61,0,0,0,.07-1.33V19.3l-2.38.54c-.49.11-.81.2-1.06.28Zm-3.23-6.65a14.77,14.77,0,0,1,.68,2.42l-.94.4a9.14,9.14,0,0,0-.69-2.39Zm3.84.39a13.21,13.21,0,0,1-.9,2.43l-.82-.42a9.56,9.56,0,0,0,.78-2.42Zm.56,2.55a10.33,10.33,0,0,1,2,1.64l-.76.91a10,10,0,0,0-2-1.73Zm.35-2.8a11,11,0,0,1,2,1.64l-.77.94a9.14,9.14,0,0,0-2-1.72Z"/><path class="cls-2" d="M222.82,15.76a8.55,8.55,0,0,0-1.1.06v-.54a12,12,0,0,1-1.83.92,4.71,4.71,0,0,0-.65-1.15,8.62,8.62,0,0,0,4.57-3.28h1.39a6.57,6.57,0,0,0,1.73,1.72,9.14,9.14,0,0,0,3,1.51,6,6,0,0,0-.61,1.24,11.56,11.56,0,0,1-2-1v.57a8.33,8.33,0,0,0-1.1-.06h-1.14v1.09h2.83a7.19,7.19,0,0,0,1.22-.07V18a8,8,0,0,0-1.23-.07h-2.82v2.51h3a9.51,9.51,0,0,0,1.32-.07v1.29a9.8,9.8,0,0,0-1.35-.08H221a10.3,10.3,0,0,0-1.39.08V20.4a10.86,10.86,0,0,0,1.39.07h2.81V18h-2.66A8.39,8.39,0,0,0,220,18V16.78a7.58,7.58,0,0,0,1.22.07h2.65V15.76Zm-.8,2.3a13.94,13.94,0,0,1,.9,1.86l-1.12.45a8.22,8.22,0,0,0-.89-1.86Zm.76-3.35h3.74a8.67,8.67,0,0,1-2-1.88,7.86,7.86,0,0,1-2,1.88Zm5.36,3.81c-.15.26-.15.26-.56,1.08l-.46.79L226.06,20a9.14,9.14,0,0,0,.89-1.93Z"/><path class="cls-2" d="M176.67,27.47a5.45,5.45,0,0,0,.9.06h2.12a6.06,6.06,0,0,0,.89-.05v1.09a5.86,5.86,0,0,0-.85,0h-2.16a5.77,5.77,0,0,0-.9,0Zm.36,8.44a9.56,9.56,0,0,0,.06-1.09V33.18a5.65,5.65,0,0,0-.05-.88,6.93,6.93,0,0,0,.88,0h1.74a6.39,6.39,0,0,0,.77,0,5.39,5.39,0,0,0,0,.82v1.75a5.19,5.19,0,0,0,.05.89h-1.1v-.38h-1.18v.52Zm0-10A4.47,4.47,0,0,0,178,26h1.54a4.53,4.53,0,0,0,.9-.06v1a7.82,7.82,0,0,0-.9,0H178a7.89,7.89,0,0,0-.91,0Zm0,3.27a5.88,5.88,0,0,0,.7,0h1.89a5.17,5.17,0,0,0,.69,0v1a4.25,4.25,0,0,0-.69,0h-1.89a4.31,4.31,0,0,0-.7,0Zm0,1.57a6.29,6.29,0,0,0,.7,0h1.88a5.81,5.81,0,0,0,.7,0v1a4.29,4.29,0,0,0-.71,0h-1.88a4.25,4.25,0,0,0-.69,0Zm1.09,3.66h1.18V33.32h-1.18Zm3.8-7.1a7,7,0,0,0-1.06.05v-1a5,5,0,0,0,1.06.07h1.14a4,4,0,0,0-.06-.83h1.28a3.86,3.86,0,0,0-.06.83h1.42a5.22,5.22,0,0,0,1.09-.07v1a7.68,7.68,0,0,0-1.09-.05h-1.42v.47h1.18a7.21,7.21,0,0,0,.93,0v1a8,8,0,0,0-1,0h-1.16v.45h1.61A6.6,6.6,0,0,0,187,29v1.05a5.78,5.78,0,0,0-1.11-.07h-4.05a6,6,0,0,0-1.14.07V29a6.17,6.17,0,0,0,1.14.06h1.28v-.45h-1a8.12,8.12,0,0,0-.94,0v-1a8.09,8.09,0,0,0,.95,0h1V27.3Zm.3,7.38a10.51,10.51,0,0,0,.07,1.28h-1.26a8.23,8.23,0,0,0,.06-1.28v-3.3c0-.42,0-.64,0-.95.29,0,.48,0,.89,0h3.34a6.23,6.23,0,0,0,1-.05,11.47,11.47,0,0,0,0,1.16v3.22c0,.88-.28,1.09-1.42,1.09-.34,0-.53,0-.9,0a4.57,4.57,0,0,0-.27-1.09,7.47,7.47,0,0,0,1.08.1c.31,0,.37,0,.37-.32v-.38h-2.9Zm2.9-2.79v-.48h-2.9v.48Zm0,1.36v-.46h-2.9v.46Z"/><path class="cls-2" d="M193.54,28.6a8,8,0,0,0,1,2.14,7.92,7.92,0,0,0,1.71-1.84l1,.79-.66.69a16.79,16.79,0,0,1-1.43,1.27,7.85,7.85,0,0,0,1,1A9.45,9.45,0,0,0,198.09,34a5.56,5.56,0,0,0-.84,1.15,10.78,10.78,0,0,1-2.33-2,8.16,8.16,0,0,1-1.47-2.31c0,.51.05,1.15.05,1.63v2.36c0,.82-.33,1.07-1.39,1.07q-.66,0-1.41-.06a4.23,4.23,0,0,0-.31-1.21,8.23,8.23,0,0,0,1.47.15c.35,0,.43-.07.43-.37V28.6h-3.11a8.54,8.54,0,0,0-1.22.07V27.44a10.68,10.68,0,0,0,1.29.06h3v-.64a9.2,9.2,0,0,0-.07-1.22h1.34a10.22,10.22,0,0,0-.06,1.24v.62h1.9a6.5,6.5,0,0,0-1.19-1.23l.88-.65A9.55,9.55,0,0,1,196.48,27l-.68.5h.78a10.61,10.61,0,0,0,1.28-.06v1.23a8.62,8.62,0,0,0-1.28-.07Zm-1.38,3.92a23.16,23.16,0,0,1-2.93,1.9,7,7,0,0,0-.63.41L188,33.56a9.22,9.22,0,0,0,1.65-.76,14,14,0,0,0,2.1-1.4Zm-2.36-3.63a13.22,13.22,0,0,1,1.55,2l-1.06.75a8.79,8.79,0,0,0-1.45-2Z"/><path class="cls-2" d="M203.44,27.06h-2.31a10.41,10.41,0,0,0-1.1,0v-1a8.24,8.24,0,0,0,1.23.07h2.18a5.14,5.14,0,0,0-.07-.61h1.31a2.1,2.1,0,0,0-.08.61h2.25c.56,0,.92,0,1.23,0a9.24,9.24,0,0,0,0,.95v.32h.09a7.1,7.1,0,0,0,1-.05v1a7.06,7.06,0,0,0-1,0h-.06v.43a7.38,7.38,0,0,0,0,.8c-.32,0-.66,0-1.16,0H204.6v.35h2.67a11.22,11.22,0,0,0,1.16,0v.94a7.5,7.5,0,0,0-1.16-.06H204.6V31h3.24a8.69,8.69,0,0,0,1.29-.07v1a12.71,12.71,0,0,0-1.29-.06h-7.55A12.63,12.63,0,0,0,199,32V31a8.93,8.93,0,0,0,1.3.07h3.15v-.36H200.9a7.35,7.35,0,0,0-1.16.06v-.94a11.47,11.47,0,0,0,1.16,0h2.54v-.35h-2.31a10.38,10.38,0,0,0-1.11.05V28.6a10.11,10.11,0,0,0,1.11,0h2.31v-.37h-3.16a11.61,11.61,0,0,0-1.29,0v-1c.35,0,.73.05,1.29.05h3.16Zm-3.13,6.28c0-.64,0-.83,0-1.1.28,0,.45,0,1.18,0h5.24c.75,0,.94,0,1.19,0a8.72,8.72,0,0,0,0,1.1v1.44a6.3,6.3,0,0,0,.07,1.17h-1.25v-.38h-5.19V36h-1.23a9.13,9.13,0,0,0,.06-1.16Zm1.17.18h5.19V33.1h-5.19Zm0,1.18h5.19v-.41h-5.19Zm5.43-7.64H204.6v.35h2.31Zm-2.31,1.22v.37h2.31v-.37Z"/><rect class="cls-3" x="281.04" y="6.68" width="119.26" height="32.86" rx="1.98"/><path class="cls-4" d="M398.32,7.68a1,1,0,0,1,1,1v28.9a1,1,0,0,1-1,1H283a1,1,0,0,1-1-1V8.67a1,1,0,0,1,1-1h115.3m0-2H283a3,3,0,0,0-3,3v28.9a3,3,0,0,0,3,3h115.3a3,3,0,0,0,3-3V8.67a3,3,0,0,0-3-3Z"/><rect class="cls-4" x="244.02" y="19.14" width="15.54" height="7.96"/><polygon class="cls-4" points="269.41 23.12 257.71 14.27 257.71 31.96 269.41 23.12"/><path class="cls-2" d="M302.81,19.46a15.93,15.93,0,0,0,1.06,1.36h-2a9.32,9.32,0,0,0-.68-1.12l-2.13-3-1.16,1.17v1.57a7.76,7.76,0,0,0,.09,1.38h-1.58a8.42,8.42,0,0,0,.09-1.38V13.68a8.19,8.19,0,0,0-.09-1.38H298a8.32,8.32,0,0,0-.09,1.38v2.5l2.73-2.84a5.21,5.21,0,0,0,.83-1h2l-1.13,1.14-2.29,2.34Z"/><path class="cls-2" d="M305,13.66a9.56,9.56,0,0,0-.08-1.39c.43,0,.68,0,1.36,0h1.93a3.78,3.78,0,0,1,2.89.95,4.3,4.3,0,0,1,1.19,3.24,4.52,4.52,0,0,1-1.26,3.4,3.82,3.82,0,0,1-2.81.93h-1.94c-.66,0-.92,0-1.36,0a9.25,9.25,0,0,0,.08-1.41Zm3.13,5.9a2.36,2.36,0,0,0,1.89-.69,3.4,3.4,0,0,0,.78-2.37,3.14,3.14,0,0,0-.74-2.29,2.39,2.39,0,0,0-1.92-.64h-1.71v6Z"/><path class="cls-2" d="M313.6,13.66a9.56,9.56,0,0,0-.08-1.39c.43,0,.68,0,1.36,0h1.93a3.78,3.78,0,0,1,2.89.95,4.3,4.3,0,0,1,1.19,3.24,4.49,4.49,0,0,1-1.27,3.4,3.79,3.79,0,0,1-2.8.93h-1.94c-.66,0-.92,0-1.36,0a9.25,9.25,0,0,0,.08-1.41Zm3.13,5.9a2.36,2.36,0,0,0,1.89-.69,3.4,3.4,0,0,0,.78-2.37,3.18,3.18,0,0,0-.74-2.29,2.39,2.39,0,0,0-1.92-.64H315v6Z"/><path class="cls-2" d="M323.78,12.3a8.58,8.58,0,0,0-.08,1.38v5.76a8.66,8.66,0,0,0,.08,1.38h-1.62a8.66,8.66,0,0,0,.08-1.38V13.68a8.58,8.58,0,0,0-.08-1.38Z"/><path class="cls-2" d="M333,20.81a7.19,7.19,0,0,0-2-1.47,5.1,5.1,0,0,0-.58-.26v.11a1.66,1.66,0,0,1-.6,1.45,2.84,2.84,0,0,1-1.76.46c-1.57,0-2.46-.61-2.46-1.67s1.05-1.85,2.85-1.85a6,6,0,0,1,.72,0,2.26,2.26,0,0,0,0-.26v-.23c0-.15,0-.15,0-.58l-1.07,0c-.66,0-1,0-1.94-.07h-.41l0-1.16a13.49,13.49,0,0,0,2.49.18l.87,0c0-.09,0-.46,0-1.07h-.67c-.52,0-1.9,0-2.62-.1h-.41V13.13a14.13,14.13,0,0,0,2.88.22l.8,0a8.22,8.22,0,0,0-.05-1.35h1.36a6,6,0,0,0-.08,1.31,14.16,14.16,0,0,0,3.08-.41l.06,1.19a6,6,0,0,0-.85.1c-.94.12-1.36.16-2.3.21,0,.27,0,.4,0,1.06.54,0,.54,0,1.52-.14a8.05,8.05,0,0,0,1.33-.24l0,1.18c-.18,0-.45,0-.69.08l-1.45.15-.73,0,.05,1.29a9.75,9.75,0,0,1,2.93,1.51l.38.25Zm-4.68-2.17c-.86,0-1.39.28-1.39.74s.46.64,1.22.64a1.12,1.12,0,0,0,.93-.34,1.33,1.33,0,0,0,.13-.69v-.26A4,4,0,0,0,328.32,18.64Z"/><path class="cls-2" d="M338.5,11.9a17.8,17.8,0,0,0,.7,3.35c.7-.26.7-.26,2.77-.94a2.67,2.67,0,0,0,.41-.17l.46,1.35a25.82,25.82,0,0,0-3.53,1c-1.56.58-2.34,1.26-2.34,2s.73,1.11,2.45,1.11a12,12,0,0,0,3.45-.43l.12,1.46a6,6,0,0,0-.87.08,24.48,24.48,0,0,1-2.5.16,6,6,0,0,1-3.1-.59,2,2,0,0,1-.93-1.79,2.5,2.5,0,0,1,1-1.91,6.39,6.39,0,0,1,1.45-.92,28.09,28.09,0,0,1-.71-2.9,5.56,5.56,0,0,0-.17-.7Z"/><path class="cls-2" d="M347.14,12.28A10.4,10.4,0,0,0,347.4,14a5.15,5.15,0,0,1,2.06-.43h.29a7.83,7.83,0,0,0,.31-1.66l1.35.27a.93.93,0,0,0-.11.3L351,13.74a3.63,3.63,0,0,1,1.43.64A3.15,3.15,0,0,1,353.71,17a3.75,3.75,0,0,1-2.5,3.52,8.07,8.07,0,0,1-1.75.52,3.08,3.08,0,0,0-.66-1.26,4.89,4.89,0,0,0,1.74-.41,3.12,3.12,0,0,0,1.5-1.15,2.48,2.48,0,0,0,.36-1.31,2,2,0,0,0-.78-1.66,2.46,2.46,0,0,0-1-.46,13,13,0,0,1-2,4A4.8,4.8,0,0,1,347.44,20a1.8,1.8,0,0,1-1,.28c-1.11,0-1.84-1-1.84-2.4a4,4,0,0,1,1.71-3.29c-.06-.16-.25-1.09-.37-1.69a1.4,1.4,0,0,0-.1-.36Zm-1.36,5.56c0,.69.3,1.17.73,1.17s.64-.23,1-.69a11,11,0,0,1-.88-2.46A2.7,2.7,0,0,0,345.78,17.84Zm2.55-.57a.64.64,0,0,1,.06-.14,11.55,11.55,0,0,0,1.07-2.47,3.55,3.55,0,0,0-1.84.43,12.85,12.85,0,0,0,.64,2,.46.46,0,0,1,.06.16Z"/><path class="cls-2" d="M354.66,13.26h.41c.19,0,.19,0,1.77-.11l5.33-.27a6.38,6.38,0,0,0,1.23-.1l.08,1.37-.23,0a4.8,4.8,0,0,0-2.11.58A3.48,3.48,0,0,0,359,17.58a1.79,1.79,0,0,0,1.42,1.74,6.5,6.5,0,0,0,1.59.28h.22L362,21l-.36-.06a6.28,6.28,0,0,1-2.5-.71,2.84,2.84,0,0,1-1.53-2.57,3.79,3.79,0,0,1,1-2.53,4.81,4.81,0,0,1,1.49-1.07c-.87.13-1.28.16-3.6.33a15.88,15.88,0,0,0-1.78.22Z"/><path class="cls-2" d="M364.8,13.45a5.08,5.08,0,0,0,.86.05h2a6,6,0,0,0,.85,0v1a7.73,7.73,0,0,0-.81,0h-2.06a6.88,6.88,0,0,0-.86,0Zm.34,8.06c0-.33.06-.69.06-1V18.91a6.7,6.7,0,0,0-.05-.85,6.35,6.35,0,0,0,.84,0h1.67a5.64,5.64,0,0,0,.72,0,7.2,7.2,0,0,0,0,.78v1.68a6.23,6.23,0,0,0,0,.85h-1.05V21h-1.12v.5Zm0-9.56A4.9,4.9,0,0,0,366,12h1.46a5.06,5.06,0,0,0,.87-.06v1a5.51,5.51,0,0,0-.87,0H366a5.44,5.44,0,0,0-.87,0Zm0,3.13a6,6,0,0,0,.68,0h1.81a5,5,0,0,0,.65,0V16a5.35,5.35,0,0,0-.65,0h-1.81a5.63,5.63,0,0,0-.68,0Zm0,1.49a5.63,5.63,0,0,0,.68,0h1.79a4.82,4.82,0,0,0,.67,0v.94a5.77,5.77,0,0,0-.68,0h-1.79a5.94,5.94,0,0,0-.67,0Zm1.05,3.5h1.12V19h-1.12Zm3.63-6.78a8.45,8.45,0,0,0-1,0v-.95a5.47,5.47,0,0,0,1,.06h1.09a3.09,3.09,0,0,0-.07-.79h1.24a3,3,0,0,0-.07.79h1.36a5.65,5.65,0,0,0,1-.06v.95a9.17,9.17,0,0,0-1,0H372v.45h1.13a6.61,6.61,0,0,0,.89,0v.92a5.6,5.6,0,0,0-.91,0H372V15h1.54a6,6,0,0,0,1.06-.06v1a6.24,6.24,0,0,0-1.06-.06h-3.87a6.42,6.42,0,0,0-1.08.06V15a5.5,5.5,0,0,0,1.08.06h1.23v-.44H370a5.69,5.69,0,0,0-.9,0V13.7a7.46,7.46,0,0,0,.91,0h.93v-.45Zm.29,7.05a9.85,9.85,0,0,0,.06,1.22H369a6.26,6.26,0,0,0,.07-1.22V17.18a8.12,8.12,0,0,0,0-.91,6.88,6.88,0,0,0,.86,0h3.19a5.68,5.68,0,0,0,1,0,10.29,10.29,0,0,0,0,1.1v3.09c0,.83-.27,1-1.35,1-.33,0-.51,0-.87,0a3.87,3.87,0,0,0-.25-1,6.85,6.85,0,0,0,1,.1c.29,0,.36-.05.36-.31v-.36h-2.77Zm2.77-2.67v-.46h-2.77v.46Zm0,1.3v-.44h-2.77V19Z"/><path class="cls-2" d="M380.94,14.53a7.25,7.25,0,0,0,.93,2,7.39,7.39,0,0,0,1.63-1.75l1,.75c-.11.1-.11.1-.63.66a16.82,16.82,0,0,1-1.37,1.21,7.19,7.19,0,0,0,.95,1,8.48,8.48,0,0,0,1.84,1.27,5.08,5.08,0,0,0-.8,1.1,10.33,10.33,0,0,1-2.23-1.94,8,8,0,0,1-1.4-2.21c0,.49,0,1.1,0,1.56v2.26c0,.78-.31,1-1.32,1-.42,0-.87,0-1.35-.05a4.11,4.11,0,0,0-.29-1.16,7.36,7.36,0,0,0,1.4.14c.33,0,.41-.06.41-.35V14.53h-3a9.47,9.47,0,0,0-1.16.06V13.42a9.59,9.59,0,0,0,1.23.06h2.9v-.61a7,7,0,0,0-.07-1.16H381a7.38,7.38,0,0,0-.07,1.17v.6h1.82a6.2,6.2,0,0,0-1.13-1.18l.83-.62A8.74,8.74,0,0,1,383.74,13l-.64.48h.73a9.81,9.81,0,0,0,1.23-.06v1.17a9.81,9.81,0,0,0-1.23-.06Zm-1.32,3.74a23.3,23.3,0,0,1-2.8,1.82,6.32,6.32,0,0,0-.6.39l-.57-1.21a8.51,8.51,0,0,0,1.57-.73,13,13,0,0,0,2-1.34Zm-2.26-3.46a11.59,11.59,0,0,1,1.48,1.87l-1,.72a8.31,8.31,0,0,0-1.39-1.91Z"/><path class="cls-2" d="M319.79,26.45a5.08,5.08,0,0,0,.86.05h2a5.86,5.86,0,0,0,.85,0v1a7.73,7.73,0,0,0-.81,0h-2.06a6.88,6.88,0,0,0-.86,0Zm.34,8.06c0-.33.06-.69.06-1V31.91a5.25,5.25,0,0,0-.05-.85,6.35,6.35,0,0,0,.84,0h1.67a5.64,5.64,0,0,0,.72,0,7.2,7.2,0,0,0,0,.78v1.68a6.23,6.23,0,0,0,0,.85h-1V34h-1.13v.5Zm0-9.56A4.9,4.9,0,0,0,321,25h1.47a5,5,0,0,0,.86-.06v1a5.45,5.45,0,0,0-.86-.05H321a5.51,5.51,0,0,0-.87.05Zm0,3.13a6,6,0,0,0,.68,0h1.81a5,5,0,0,0,.65,0V29a5.21,5.21,0,0,0-.65,0h-1.81a5.63,5.63,0,0,0-.68,0Zm0,1.49a5.63,5.63,0,0,0,.68,0h1.8a4.76,4.76,0,0,0,.66,0v.94a5.66,5.66,0,0,0-.68,0h-1.79a5.94,5.94,0,0,0-.67,0Zm1,3.5h1.13V32h-1.13Zm3.63-6.78a8.45,8.45,0,0,0-1,0v-.95a5.54,5.54,0,0,0,1,.06h1.09a3.68,3.68,0,0,0-.06-.79h1.23a3,3,0,0,0-.07.79h1.36a5.59,5.59,0,0,0,1-.06v.95a9.17,9.17,0,0,0-1,0H327v.45h1.14a6.54,6.54,0,0,0,.88,0v.92a5.6,5.6,0,0,0-.91-.05H327V28h1.54a6,6,0,0,0,1.06-.06v1a6.24,6.24,0,0,0-1.06-.06H324.7a6.42,6.42,0,0,0-1.08.06V28a5.56,5.56,0,0,0,1.08.06h1.23v-.44H325a5.69,5.69,0,0,0-.9.05V26.7a7.46,7.46,0,0,0,.91,0h.93v-.45Zm.29,7.05a9.85,9.85,0,0,0,.06,1.22H324a6.26,6.26,0,0,0,.07-1.22V30.18c0-.39,0-.61,0-.91a6.71,6.71,0,0,0,.85,0h3.19a5.61,5.61,0,0,0,1,0,10.29,10.29,0,0,0,0,1.1v3.09c0,.83-.27,1-1.35,1-.33,0-.51,0-.87,0a3.87,3.87,0,0,0-.25-1,6.85,6.85,0,0,0,1,.1c.28,0,.35,0,.35-.31v-.36h-2.77Zm2.77-2.67v-.46h-2.77v.46Zm0,1.3v-.44h-2.77V32Z"/><path class="cls-2" d="M335.93,27.53a7.25,7.25,0,0,0,.93,2,7.39,7.39,0,0,0,1.63-1.75l1,.75c-.11.1-.11.1-.63.66a16.82,16.82,0,0,1-1.37,1.21,7.19,7.19,0,0,0,.95,1,8.48,8.48,0,0,0,1.84,1.27,5.08,5.08,0,0,0-.8,1.1,10.33,10.33,0,0,1-2.23-1.94,8,8,0,0,1-1.4-2.21c0,.49,0,1.1,0,1.56v2.26c0,.78-.31,1-1.32,1-.42,0-.87,0-1.35-.05a3.8,3.8,0,0,0-.29-1.16,7.36,7.36,0,0,0,1.4.14c.33,0,.41-.06.41-.35V27.53h-3a9.53,9.53,0,0,0-1.17.06V26.42a9.59,9.59,0,0,0,1.23.06h2.9v-.61a7,7,0,0,0-.07-1.16H336a8.81,8.81,0,0,0-.07,1.17v.6h1.82a6.2,6.2,0,0,0-1.13-1.18l.83-.62A8.74,8.74,0,0,1,338.73,26l-.64.48h.73a9.81,9.81,0,0,0,1.23-.06v1.17a9.81,9.81,0,0,0-1.23-.06Zm-1.32,3.74a23.3,23.3,0,0,1-2.8,1.82,6.32,6.32,0,0,0-.6.39l-.57-1.21a8.51,8.51,0,0,0,1.57-.73,13.61,13.61,0,0,0,2-1.34Zm-2.26-3.46a11.59,11.59,0,0,1,1.48,1.87l-1,.72a8.31,8.31,0,0,0-1.39-1.91Z"/><path class="cls-2" d="M342.49,30.75A11,11,0,0,1,342,34l-.91-.44a9.25,9.25,0,0,0,.44-2.94Zm-1.31-1.54.43,0h.4a8.58,8.58,0,0,0,.49-.72,11.88,11.88,0,0,0-1.36-1.61l.52-.91c.2.2.27.28.39.42a7.58,7.58,0,0,0,.84-1.84l1,.41-.4.74a13.6,13.6,0,0,1-.83,1.41c.16.2.22.28.38.5a13,13,0,0,0,1-1.91l.84.47V25.8a8.9,8.9,0,0,0,1.14.06h1.12v-.31a5.21,5.21,0,0,0-.05-.83h1.21a5.19,5.19,0,0,0-.05.84v.3h1.48a8.67,8.67,0,0,0,1.12-.06v1.13c-.33,0-.66-.05-1-.05h-2.09a12.65,12.65,0,0,1-.75,1.48c.69,0,1.45-.09,2-.15a7.1,7.1,0,0,0-.66-.74l.86-.54A14.65,14.65,0,0,1,351,29.28l-.92.64c-.22-.41-.29-.55-.46-.82-1.15.14-1.27.16-3.58.31-.37,0-.54.05-.79.07l-.12-1.09a4,4,0,0,0,.48,0h.16a9.08,9.08,0,0,0,.81-1.53H346a7.61,7.61,0,0,0-1,.05v-.48l-.15.25c-.52.86-1.21,1.89-1.66,2.49.29,0,.67,0,1.13-.09a6,6,0,0,0-.35-.76l.72-.35a7.88,7.88,0,0,1,.82,2.06l-.82.36-.1-.45-.67.08v3.42a6.7,6.7,0,0,0,.07,1.12h-1.18a8.56,8.56,0,0,0,.06-1.12V30.15c-.91.08-1.41.12-1.49.14ZM345,30.56a11.86,11.86,0,0,1,.36,2.09l-.88.28a11.61,11.61,0,0,0-.3-2.14Zm2.32-.82a4.79,4.79,0,0,0-.05.8,5.25,5.25,0,0,1-.5,2.45,4,4,0,0,1-1.5,1.59,2.84,2.84,0,0,0-.84-.93,3.4,3.4,0,0,0,.86-.58,3.33,3.33,0,0,0,.89-2.69,4.14,4.14,0,0,0,0-.64Zm1.92,0a8.75,8.75,0,0,0,0,1v2.39c0,.22,0,.25.37.25s.28,0,.33-.12a3.29,3.29,0,0,0,.13-1.13v-.67a2.75,2.75,0,0,0,1,.44,5.94,5.94,0,0,1-.26,2c-.2.37-.54.49-1.38.49-1.06,0-1.32-.18-1.32-.87V30.74a6.44,6.44,0,0,0,0-1Z"/><path class="cls-2" d="M353.94,28.25a13.31,13.31,0,0,1-1.71.9,4.48,4.48,0,0,0-.62-1.1,10.28,10.28,0,0,0,2.72-1.54A7.35,7.35,0,0,0,356,24.73h1.28a7.26,7.26,0,0,0,1.79,1.81A10.29,10.29,0,0,0,361.81,28a5.91,5.91,0,0,0-.59,1.18,10.65,10.65,0,0,1-1.74-.94V29a8.39,8.39,0,0,0-1,0h-3.66a8.66,8.66,0,0,0-.92,0Zm-.87,6.25a8.85,8.85,0,0,0,.07-1.13V30.88a10,10,0,0,0-.06-1.06,7.23,7.23,0,0,0,.92,0h5.35a7.51,7.51,0,0,0,.93,0,7.81,7.81,0,0,0,0,1.06v2.5a7.1,7.1,0,0,0,.06,1.12H359V34h-4.68v.54Zm1.27-1.59H359v-2h-4.68Zm4.16-5.08h.37a9.8,9.8,0,0,1-2.21-2.09,7.56,7.56,0,0,1-2.09,2.09h3.93Z"/></svg>