<svg id="レイヤー_1" data-name="レイヤー 1" xmlns="http://www.w3.org/2000/svg" width="405.47" height="46.23" viewBox="0 0 405.47 46.23"><defs><style>.cls-1{fill:#f5f5f5;}.cls-2{fill:#222;}.cls-3{fill:#fff;}.cls-4{fill:#ff9908;}</style></defs><rect class="cls-1" width="405.47" height="46.23"/><path class="cls-2" d="M17.8,21.19c-.65,0-1,0-1.43,0a7.89,7.89,0,0,0,.1-1.51V13.63a10,10,0,0,0-.09-1.38c.47,0,.65,0,1.41,0h2.65c1.73,0,2.71.79,2.71,2.18A2,2,0,0,1,22.52,16a1.84,1.84,0,0,1-.89.47,2.09,2.09,0,0,1,1.13.52,2.22,2.22,0,0,1,.7,1.71c0,1.57-1,2.46-2.9,2.46Zm2.48-5.27a1.18,1.18,0,0,0,1.35-1.22,1.14,1.14,0,0,0-.29-.83,1.6,1.6,0,0,0-1.07-.34H18v2.39Zm-2.33,4h2.41c1,0,1.55-.49,1.55-1.4a1.21,1.21,0,0,0-.35-1,1.85,1.85,0,0,0-1.23-.38H18Z"/><path class="cls-2" d="M26.48,12.27a8.13,8.13,0,0,0-.09,1.45v6a8.27,8.27,0,0,0,.09,1.45h-1.7a8.27,8.27,0,0,0,.09-1.45v-6a8.13,8.13,0,0,0-.09-1.45Z"/><path class="cls-2" d="M35.34,18.89a9,9,0,0,0,.08,1.46,7.43,7.43,0,0,1-1.79.77,6.84,6.84,0,0,1-1.65.21A3.93,3.93,0,0,1,28.8,20a5.25,5.25,0,0,1-1.05-3.4,4.48,4.48,0,0,1,1.79-3.93A4.27,4.27,0,0,1,32,12.05a3.61,3.61,0,0,1,2.57,1,3.06,3.06,0,0,1,.83,1.33l-1.53.42a1.84,1.84,0,0,0-2.06-1.38,2.38,2.38,0,0,0-1.7.68,3.52,3.52,0,0,0-.83,2.56,3.94,3.94,0,0,0,.76,2.62A2.36,2.36,0,0,0,32,20a3.39,3.39,0,0,0,1.9-.5V17.68h-.6a5.82,5.82,0,0,0-1.15.07V16.3a7.94,7.94,0,0,0,1.35.07h.58c.52,0,.84,0,1.32,0a10.14,10.14,0,0,0-.08,1.38Z"/><path class="cls-2" d="M43.22,21.26a12.28,12.28,0,0,0-1.59-.07H38.31c-.63,0-1,0-1.42,0A8.57,8.57,0,0,0,37,19.74V13.93a10.6,10.6,0,0,0-.09-1.66h1.69a9.92,9.92,0,0,0-.09,1.65v5.91h3.14a11.15,11.15,0,0,0,1.59-.08Z"/><path class="cls-2" d="M50.78,13.21A4.83,4.83,0,0,1,52,16.71c0,2.83-1.65,4.67-4.19,4.67s-4.18-1.83-4.18-4.67A4.8,4.8,0,0,1,45,13.21a4.35,4.35,0,0,1,5.83,0Zm-.31,3.5a3.62,3.62,0,0,0-.88-2.61,2.43,2.43,0,0,0-1.73-.69c-1.61,0-2.63,1.28-2.63,3.31a3.66,3.66,0,0,0,.91,2.64,2.4,2.4,0,0,0,1.73.68C49.47,20,50.47,18.77,50.47,16.71Z"/><path class="cls-2" d="M54.75,21.19c-.65,0-1,0-1.43,0a7.89,7.89,0,0,0,.1-1.51V13.63a10,10,0,0,0-.09-1.38c.47,0,.65,0,1.41,0h2.64c1.74,0,2.72.79,2.72,2.18A2,2,0,0,1,59.47,16a1.84,1.84,0,0,1-.89.47,2.09,2.09,0,0,1,1.13.52,2.22,2.22,0,0,1,.7,1.71c0,1.57-1,2.46-2.9,2.46Zm2.48-5.27a1.18,1.18,0,0,0,1.35-1.22,1.14,1.14,0,0,0-.29-.83,1.6,1.6,0,0,0-1.07-.34H54.9v2.39Zm-2.33,4h2.41c1,0,1.55-.49,1.55-1.4a1.19,1.19,0,0,0-.36-1,1.8,1.8,0,0,0-1.22-.38H54.9Z"/><path class="cls-2" d="M68.09,21.26a10.76,10.76,0,0,0-1.45-.07H63.15c-.67,0-1,0-1.42,0a10,10,0,0,0,.09-1.48V13.68a10.91,10.91,0,0,0-.09-1.44c.45,0,.74,0,1.42,0h3.38A11.33,11.33,0,0,0,68,12.19v1.48a9.57,9.57,0,0,0-1.45-.08H63.31V15.9H66a10.83,10.83,0,0,0,1.45-.08v1.47A8.35,8.35,0,0,0,66,17.21H63.3v2.64h3.36a10.06,10.06,0,0,0,1.43-.08Z"/><path class="cls-2" d="M71.23,13.53c-.73.14-1,.17-1.63.28a4.2,4.2,0,0,0-.42-1.08,12,12,0,0,0,4.31-1.08l.73,1c-.8.28-1.32.43-1.81.57V14.7h.89a6.23,6.23,0,0,0,1,0v1.22a5.39,5.39,0,0,0-1-.06h-.82a6.62,6.62,0,0,0,1.8,2.09,5.31,5.31,0,0,0-.6,1.1,6.33,6.33,0,0,1-1.31-1.79,13.69,13.69,0,0,1,.06,1.41v1.95A8.67,8.67,0,0,0,72.48,22H71.14a9.14,9.14,0,0,0,.08-1.42V18.7c0-.45,0-1,.06-1.34a8.55,8.55,0,0,1-.76,1.57,7.51,7.51,0,0,1-1,1.24A5.54,5.54,0,0,0,68.91,19a6.5,6.5,0,0,0,1.22-1.5A13.13,13.13,0,0,0,71,15.81H70.2a6.17,6.17,0,0,0-1,.07V14.63a4.91,4.91,0,0,0,1,.07h1Zm4.93-1.06a8.07,8.07,0,0,0-.07,1.36v4.23a8.35,8.35,0,0,0,.06,1.33H74.83a9.56,9.56,0,0,0,0-1.31V13.83a9.87,9.87,0,0,0-.06-1.36Zm2.67-.67a11.06,11.06,0,0,0-.08,1.52v7.21c0,.59-.15.91-.51,1.1a3.35,3.35,0,0,1-1.55.19c-.28,0-.45,0-.83,0a5.07,5.07,0,0,0-.38-1.24,13.17,13.17,0,0,0,1.48.1c.49,0,.57-.05.57-.34v-7c0-.56,0-1-.07-1.52Z"/><path class="cls-2" d="M82.15,18.45A7.53,7.53,0,0,1,81,22a6.38,6.38,0,0,0-1.09-.88,5.23,5.23,0,0,0,.82-1.9A10.91,10.91,0,0,0,81,17.5c.06-.94.1-2.53.1-3.85,0-.81,0-1.17,0-1.63a11.2,11.2,0,0,0,1.28.05h6.29A10.47,10.47,0,0,0,89.86,12c0,.39,0,.67,0,1.27v7.36c0,.93-.34,1.16-1.61,1.16-.35,0-.92,0-1.26,0a4.24,4.24,0,0,0-.31-1.17,14,14,0,0,0,1.41.09c.46,0,.56,0,.56-.28v-2H85.92v1.84A8.82,8.82,0,0,0,86,21.62H84.66a10.24,10.24,0,0,0,.06-1.32V18.45Zm2.57-2.64H82.25c0,.32,0,.55,0,.71,0,.52,0,.6,0,.82h2.49Zm0-2.56H82.28v1.46h2.45Zm3.89,1.46V13.25H85.92v1.46Zm0,2.63V15.81H85.92v1.53Z"/><path class="cls-2" d="M95.45,18.92c0,.15-.06.21-.12.38a8.34,8.34,0,0,1-1.13-1.57c.06.76.07.91.07,1.27v1.85A7.28,7.28,0,0,0,94.33,22H93a8,8,0,0,0,.07-1.18V19.38c0-.45,0-1,0-1.34a7.74,7.74,0,0,1-1.46,2.52,3.18,3.18,0,0,0-.57-1.15,7.64,7.64,0,0,0,1.21-1.66,8.91,8.91,0,0,0,.59-1.27h-.58a5.29,5.29,0,0,0-1,.06V15.35a5.11,5.11,0,0,0,1,.06h.75V12.75a7.84,7.84,0,0,0,0-1.1h1.27a7.59,7.59,0,0,0,0,1.09v2.67h.52a4.93,4.93,0,0,0,.87-.05v1.17a5.63,5.63,0,0,0-.89-.05h-.4a6,6,0,0,0,1.44,1.72c-.15.28-.2.38-.31.62a8.52,8.52,0,0,0,1-.15l2.62-.59V13a7.16,7.16,0,0,0-.07-1.3h1.36a7.37,7.37,0,0,0-.07,1.28v4.86a6.9,6.9,0,0,0,.95-.27l.24,1.27a10,10,0,0,0-1.08.2l-.11,0v1.63a7.68,7.68,0,0,0,.07,1.32H99.08a7.61,7.61,0,0,0,.07-1.33V19.3l-2.37.54c-.5.11-.82.2-1.07.28Zm-3.23-6.65a13.84,13.84,0,0,1,.68,2.42l-.94.4a9.14,9.14,0,0,0-.69-2.39Zm3.84.39a13.21,13.21,0,0,1-.9,2.43l-.81-.42a10,10,0,0,0,.77-2.42Zm.56,2.55a10,10,0,0,1,1.95,1.64l-.76.91a10.22,10.22,0,0,0-2-1.73Zm.35-2.8a11,11,0,0,1,2,1.64l-.77.94a9.14,9.14,0,0,0-2-1.72Z"/><path class="cls-2" d="M105.56,15.76a8.66,8.66,0,0,0-1.1.06v-.54a12,12,0,0,1-1.83.92,4.4,4.4,0,0,0-.65-1.15,8.62,8.62,0,0,0,4.57-3.28h1.39a6.57,6.57,0,0,0,1.73,1.72,9.14,9.14,0,0,0,3,1.51,6,6,0,0,0-.61,1.24,11.56,11.56,0,0,1-2-1v.57a8.33,8.33,0,0,0-1.1-.06h-1.14v1.09h2.83a7.4,7.4,0,0,0,1.23-.07V18a8.21,8.21,0,0,0-1.24-.07h-2.82v2.51h3a9.51,9.51,0,0,0,1.32-.07v1.29a9.65,9.65,0,0,0-1.34-.08h-7.08a10.3,10.3,0,0,0-1.39.08V20.4a11,11,0,0,0,1.39.07h2.81V18h-2.66a8.39,8.39,0,0,0-1.21.07V16.78a7.58,7.58,0,0,0,1.22.07h2.65V15.76Zm-.8,2.3a12.81,12.81,0,0,1,.9,1.86l-1.12.45a8.22,8.22,0,0,0-.89-1.86Zm.76-3.35h3.75a8.53,8.53,0,0,1-2-1.88,7.86,7.86,0,0,1-2,1.88Zm5.36,3.81c-.15.26-.15.26-.56,1.08l-.46.79-1-.39a9.67,9.67,0,0,0,.88-1.93Z"/><path class="cls-2" d="M48,27.47a5.36,5.36,0,0,0,.9.06H51a6.32,6.32,0,0,0,.9-.05v1.09a6,6,0,0,0-.85,0H48.88a5.69,5.69,0,0,0-.9,0Zm.36,8.44c0-.34,0-.72,0-1.09V33.18a7.45,7.45,0,0,0,0-.88,6.85,6.85,0,0,0,.87,0H51a6.3,6.3,0,0,0,.76,0,7.82,7.82,0,0,0,0,.82v1.75a6.8,6.8,0,0,0,0,.89H50.65v-.38H49.47v.52Zm0-10a4.47,4.47,0,0,0,.91.06h1.53a4.58,4.58,0,0,0,.91-.06v1a8,8,0,0,0-.91,0H49.26a7.89,7.89,0,0,0-.91,0Zm0,3.27a6.07,6.07,0,0,0,.71,0H51a5,5,0,0,0,.68,0v1a4.12,4.12,0,0,0-.68,0H49.08a4.45,4.45,0,0,0-.71,0Zm0,1.57a6.37,6.37,0,0,0,.71,0H51a5.62,5.62,0,0,0,.69,0v1a4.16,4.16,0,0,0-.7,0H49.07a4.39,4.39,0,0,0-.7,0Zm1.1,3.66h1.18V33.32H49.47Zm3.8-7.1a7.2,7.2,0,0,0-1.07.05v-1a5.12,5.12,0,0,0,1.07.07h1.14a3.38,3.38,0,0,0-.07-.83h1.29a3.24,3.24,0,0,0-.07.83H57a5.06,5.06,0,0,0,1.08-.07v1A7.52,7.52,0,0,0,57,27.3H55.56v.47h1.19a7.31,7.31,0,0,0,.93,0v1a8,8,0,0,0-1,0H55.56v.45h1.62a6.47,6.47,0,0,0,1.1-.06v1.05a5.61,5.61,0,0,0-1.1-.07H53.12a5.89,5.89,0,0,0-1.13.07V29a6.11,6.11,0,0,0,1.13.06h1.29v-.45h-1a8.34,8.34,0,0,0-.94,0v-1a8.28,8.28,0,0,0,1,0h1V27.3Zm.3,7.38A8.8,8.8,0,0,0,53.64,36H52.37a6.92,6.92,0,0,0,.07-1.28v-3.3a8.65,8.65,0,0,0,0-.95c.3,0,.49,0,.9,0h3.34a6.31,6.31,0,0,0,1-.05,8.73,8.73,0,0,0,0,1.16v3.22c0,.88-.28,1.09-1.41,1.09-.35,0-.54,0-.91,0A3.78,3.78,0,0,0,55,34.76a7.6,7.6,0,0,0,1.09.1c.3,0,.37,0,.37-.32v-.38h-2.9Zm2.9-2.79v-.48h-2.9v.48Zm0,1.36v-.46h-2.9v.46Z"/><path class="cls-2" d="M64.85,28.6a7.66,7.66,0,0,0,1,2.14,8,8,0,0,0,1.72-1.84l1,.79c-.12.11-.12.11-.66.69a17.1,17.1,0,0,1-1.44,1.27,7.34,7.34,0,0,0,1,1A9.09,9.09,0,0,0,69.39,34a6,6,0,0,0-.84,1.15,10.7,10.7,0,0,1-2.32-2,8,8,0,0,1-1.47-2.31c0,.51,0,1.15,0,1.63v2.36c0,.82-.32,1.07-1.39,1.07q-.64,0-1.41-.06a3.9,3.9,0,0,0-.3-1.21,8.23,8.23,0,0,0,1.47.15c.35,0,.42-.07.42-.37V28.6h-3.1a8.54,8.54,0,0,0-1.22.07V27.44a10.68,10.68,0,0,0,1.29.06h3v-.64a9.52,9.52,0,0,0-.06-1.22h1.34a9.91,9.91,0,0,0-.07,1.24v.62h1.91a6.5,6.5,0,0,0-1.19-1.23l.87-.65A9.55,9.55,0,0,1,67.78,27l-.67.5h.77a10.91,10.91,0,0,0,1.29-.06v1.23a8.86,8.86,0,0,0-1.29-.07Zm-1.38,3.92a23.92,23.92,0,0,1-2.93,1.9,7,7,0,0,0-.63.41l-.6-1.27A8.91,8.91,0,0,0,61,32.8a14.56,14.56,0,0,0,2.11-1.4Zm-2.36-3.63a12.53,12.53,0,0,1,1.54,2l-1,.75a9.14,9.14,0,0,0-1.46-2Z"/><path class="cls-2" d="M74.74,27.06H72.43a10.31,10.31,0,0,0-1.09,0v-1a8.06,8.06,0,0,0,1.23.07h2.17a2.84,2.84,0,0,0-.07-.61H76a2.56,2.56,0,0,0-.07.61h2.25c.56,0,.92,0,1.23,0a9.24,9.24,0,0,0,0,.95v.32h.09a7,7,0,0,0,1-.05v1a6.89,6.89,0,0,0-1,0h0v.43a7.38,7.38,0,0,0,0,.8c-.33,0-.66,0-1.16,0H75.91v.35h2.66a11.56,11.56,0,0,0,1.17,0v.94a7.57,7.57,0,0,0-1.17-.06H75.91V31h3.23A8.6,8.6,0,0,0,80.43,31v1a12.57,12.57,0,0,0-1.29-.06H71.59A12.43,12.43,0,0,0,70.3,32V31a8.86,8.86,0,0,0,1.29.07h3.15v-.36H72.21a7.28,7.28,0,0,0-1.16.06v-.94a11.47,11.47,0,0,0,1.16,0h2.53v-.35H72.43a10.31,10.31,0,0,0-1.1.05V28.6a10,10,0,0,0,1.1,0h2.31v-.37H71.58a11.41,11.41,0,0,0-1.28,0v-1c.34,0,.72.05,1.28.05h3.16Zm-3.12,6.28a8.72,8.72,0,0,0,0-1.1c.28,0,.45,0,1.19,0H78c.75,0,.94,0,1.2,0a8.11,8.11,0,0,0,0,1.1v1.44A7.35,7.35,0,0,0,79.22,36H78v-.38h-5.2V36H71.56a11.48,11.48,0,0,0,.06-1.16Zm1.16.18H78V33.1h-5.2Zm0,1.18H78v-.41h-5.2Zm5.43-7.64h-2.3v.35h2.3Zm-2.3,1.22v.37h2.3v-.37Z"/><rect class="cls-3" x="281.04" y="6.68" width="119.26" height="32.86" rx="1.98"/><path class="cls-4" d="M398.32,7.68a1,1,0,0,1,1,1v28.9a1,1,0,0,1-1,1H283a1,1,0,0,1-1-1V8.67a1,1,0,0,1,1-1h115.3m0-2H283a3,3,0,0,0-3,3v28.9a3,3,0,0,0,3,3h115.3a3,3,0,0,0,3-3V8.67a3,3,0,0,0-3-3Z"/><path class="cls-2" d="M310.93,26.76a14.32,14.32,0,0,0,1.12,1.43H310a8.87,8.87,0,0,0-.7-1.18L307,23.87l-1.22,1.23v1.64a7.53,7.53,0,0,0,.1,1.45h-1.66a9.4,9.4,0,0,0,.09-1.45v-6a8.93,8.93,0,0,0-.09-1.45h1.66a7.83,7.83,0,0,0-.1,1.45v2.61l2.85-3a5.74,5.74,0,0,0,.88-1.09h2.11c-.32.33-.69.68-1.18,1.19l-2.4,2.45Z"/><path class="cls-2" d="M313.16,20.69a9,9,0,0,0-.09-1.45c.45,0,.72,0,1.42,0h2a4,4,0,0,1,3,1,4.48,4.48,0,0,1,1.25,3.39,4.7,4.7,0,0,1-1.33,3.56,4,4,0,0,1-2.93,1h-2c-.68,0-1,0-1.42,0a8.79,8.79,0,0,0,.09-1.48Zm3.27,6.17a2.47,2.47,0,0,0,2-.71,3.56,3.56,0,0,0,.82-2.49,3.38,3.38,0,0,0-.77-2.4,2.54,2.54,0,0,0-2-.67h-1.79v6.27Z"/><path class="cls-2" d="M322.18,20.69a9,9,0,0,0-.09-1.45c.45,0,.72,0,1.42,0h2a4,4,0,0,1,3,1,4.48,4.48,0,0,1,1.25,3.39,4.7,4.7,0,0,1-1.33,3.56,4,4,0,0,1-2.93,1h-2c-.68,0-1,0-1.42,0a8.79,8.79,0,0,0,.09-1.48Zm3.27,6.17a2.47,2.47,0,0,0,2-.71,3.56,3.56,0,0,0,.82-2.49,3.38,3.38,0,0,0-.77-2.4,2.54,2.54,0,0,0-2-.67h-1.79v6.27Z"/><path class="cls-2" d="M332.81,19.27a8.13,8.13,0,0,0-.09,1.45v6a8.27,8.27,0,0,0,.09,1.45h-1.7a9.38,9.38,0,0,0,.09-1.45v-6a9.2,9.2,0,0,0-.09-1.45Z"/><path class="cls-2" d="M336.12,25.3c-.5,0-.81,0-1.19,0a9.2,9.2,0,0,0,.05-1.12V21.85a9.25,9.25,0,0,0-.05-1.19,8.86,8.86,0,0,0,1,0,6.18,6.18,0,0,0-1-1.46l1.11-.47a8.7,8.7,0,0,1,1.11,1.58l-.86.35h4.25a8.72,8.72,0,0,0,1.1-2l1.31.42a17.29,17.29,0,0,1-1.07,1.57,11.26,11.26,0,0,0,1.19,0,10.86,10.86,0,0,0-.05,1.19v2.33a10.81,10.81,0,0,0,.05,1.15c-.39,0-.73,0-1.19,0h-2.35V26h3.27a9.78,9.78,0,0,0,1.22-.05v1.24a11.25,11.25,0,0,0-1.34-.07h-3.15v.73a4.93,4.93,0,0,0,.08,1.13h-1.38a5.59,5.59,0,0,0,.07-1.13v-.73h-3a11.32,11.32,0,0,0-1.33.07V26a10.36,10.36,0,0,0,1.23.05h3.14V25.3Zm2.22-3.59h-2.16v.76h2.16Zm0,1.7h-2.16v.87h2.16Zm.36-2.77a7.3,7.3,0,0,0-.88-1.74l1.16-.32a8.41,8.41,0,0,1,.9,1.65Zm3.17,1.83v-.76h-2.3v.76Zm0,1.81v-.87h-2.3v.87Z"/><path class="cls-2" d="M347.07,27.68a11.37,11.37,0,0,0,.05,1.3H345.8a9.84,9.84,0,0,0,.07-1.31V24.58c0-.59,0-.77,0-1.27a5.88,5.88,0,0,1-.87,1.2,6.24,6.24,0,0,0-.5-1.35,9.39,9.39,0,0,0,2.36-4.58l1.24.33a22.85,22.85,0,0,1-1.05,2.62v4.39A9.53,9.53,0,0,0,350,21.87h-1.2a9.23,9.23,0,0,0-1.18.07V20.68a11.05,11.05,0,0,0,1.22.06h1.63v-1a5.89,5.89,0,0,0-.08-1h1.34a7.07,7.07,0,0,0-.07,1.06v1h2.07a9.72,9.72,0,0,0,1.29-.07v1.27a10,10,0,0,0-1.25-.07h-1.65a9.71,9.71,0,0,0,1.31,2.25,8.89,8.89,0,0,0,1.9,1.87,5.87,5.87,0,0,0-.77,1.15,10.52,10.52,0,0,1-1.25-1.29v1.06a6.09,6.09,0,0,0-.82-.05h-.84v.9a8,8,0,0,0,.08,1.22H350.4a8.33,8.33,0,0,0,.08-1.22v-.9h-.78a6.22,6.22,0,0,0-.8.05V25.86a8.33,8.33,0,0,1-1.17,1.22,4.27,4.27,0,0,0-.66-.92Zm3.41-3.28c0-.58,0-.82,0-1.34a9.77,9.77,0,0,1-1.5,2.67,5.22,5.22,0,0,0,.74,0h.74Zm2,1.37a5.66,5.66,0,0,0,.75,0A12,12,0,0,1,351.64,23c0,.63,0,.9,0,1.35v1.4Z"/><path class="cls-2" d="M356.06,20.47a5.36,5.36,0,0,0,.9.06h2.12a6.06,6.06,0,0,0,.89-.05v1.09a5.86,5.86,0,0,0-.85,0H357a5.77,5.77,0,0,0-.9,0Zm.36,8.44a9.56,9.56,0,0,0,.06-1.09V26.18a5.65,5.65,0,0,0-.05-.88,6.93,6.93,0,0,0,.88,0h1.74a6.39,6.39,0,0,0,.77,0,5.39,5.39,0,0,0,0,.82v1.75a5.19,5.19,0,0,0,.05.89h-1.1v-.38h-1.18v.52Zm0-10a4.47,4.47,0,0,0,.91.06h1.53a4.58,4.58,0,0,0,.91-.06v1a7.89,7.89,0,0,0-.91,0h-1.53a7.89,7.89,0,0,0-.91,0Zm0,3.27a5.74,5.74,0,0,0,.7,0h1.89a5.17,5.17,0,0,0,.69,0v1a4.33,4.33,0,0,0-.69,0h-1.89a4.23,4.23,0,0,0-.7,0Zm0,1.57a6.29,6.29,0,0,0,.7,0H359a5.81,5.81,0,0,0,.7,0v1a4.29,4.29,0,0,0-.71,0h-1.88a4.17,4.17,0,0,0-.69,0Zm1.09,3.66h1.18V26.32h-1.18Zm3.8-7.1a7,7,0,0,0-1.06.05v-1a5,5,0,0,0,1.06.07h1.14a4,4,0,0,0-.06-.83h1.28a3.86,3.86,0,0,0-.06.83h1.42a5.06,5.06,0,0,0,1.08-.07v1a7.52,7.52,0,0,0-1.08-.05h-1.42v.47h1.18a7.31,7.31,0,0,0,.93,0v1a8,8,0,0,0-.95,0h-1.16v.45h1.61a6.6,6.6,0,0,0,1.11-.06v1.05a5.78,5.78,0,0,0-1.11-.07H361.2a6,6,0,0,0-1.13.07V22a6.11,6.11,0,0,0,1.13.06h1.29v-.45h-1a8.12,8.12,0,0,0-.94,0v-1a8.09,8.09,0,0,0,.95,0h1V20.3Zm.3,7.38a8.8,8.8,0,0,0,.07,1.28h-1.27a6.92,6.92,0,0,0,.07-1.28v-3.3c0-.42,0-.64,0-.95.29,0,.48,0,.89,0h3.34a6.23,6.23,0,0,0,1-.05,10.89,10.89,0,0,0-.05,1.16v3.22c0,.88-.28,1.09-1.41,1.09-.34,0-.53,0-.9,0a4.57,4.57,0,0,0-.27-1.09,7.47,7.47,0,0,0,1.08.1c.31,0,.37-.05.37-.32v-.38h-2.9Zm2.9-2.79v-.48h-2.9v.48Zm0,1.36v-.46h-2.9v.46Z"/><path class="cls-2" d="M372.93,21.6a8,8,0,0,0,1,2.14,7.92,7.92,0,0,0,1.71-1.84l1,.79-.66.69a15.64,15.64,0,0,1-1.44,1.27,8.68,8.68,0,0,0,1,1A9.18,9.18,0,0,0,377.48,27a5.56,5.56,0,0,0-.84,1.15,10.78,10.78,0,0,1-2.33-2,8.16,8.16,0,0,1-1.47-2.31c0,.51.05,1.15.05,1.63v2.36c0,.82-.33,1.07-1.39,1.07q-.66,0-1.41-.06a4.23,4.23,0,0,0-.31-1.21,8.23,8.23,0,0,0,1.47.15c.35,0,.43-.07.43-.37V21.6h-3.11a8.54,8.54,0,0,0-1.22.07V20.44a10.68,10.68,0,0,0,1.29.06h3v-.64a9.2,9.2,0,0,0-.07-1.22H373a10.22,10.22,0,0,0-.06,1.24v.62h1.9a6.5,6.5,0,0,0-1.19-1.23l.88-.65A9.55,9.55,0,0,1,375.87,20l-.68.5H376a10.61,10.61,0,0,0,1.28-.06v1.23A8.62,8.62,0,0,0,376,21.6Zm-1.38,3.92a23.16,23.16,0,0,1-2.93,1.9,7,7,0,0,0-.63.41l-.59-1.27A8.87,8.87,0,0,0,369,25.8a13.55,13.55,0,0,0,2.11-1.4Zm-2.36-3.63a13.22,13.22,0,0,1,1.55,2l-1.06.75a8.79,8.79,0,0,0-1.45-2Z"/><rect class="cls-4" x="248.02" y="19.14" width="15.54" height="7.96"/><polygon class="cls-4" points="273.41 23.12 261.71 14.27 261.71 31.96 273.41 23.12"/></svg>