<?xml version="1.0" encoding="utf-8"?>
<!-- Generator: Adobe Illustrator 26.0.1, SVG Export Plug-In . SVG Version: 6.00 Build 0)  -->
<svg version="1.1" id="レイヤー_1" xmlns="http://www.w3.org/2000/svg" xmlns:xlink="http://www.w3.org/1999/xlink" x="0px"
	 y="0px" width="300px" height="110.7px" viewBox="0 0 300 110.7" style="enable-background:new 0 0 300 110.7;"
	 xml:space="preserve">
<style type="text/css">
	.st0{fill:#CCEDCC;}
	.st1{fill:#FFFFFF;}
	.st2{fill:none;}
	.st3{fill:none;stroke:#002A00;stroke-width:1.3;stroke-miterlimit:10;}
	.st4{fill:#00A600;}
	.st5{fill:#808080;}
	.st6{fill:#F2A638;}
	.st7{fill:#FFE2CC;}
	.st8{fill:#35318F;}
	.st9{fill:#3A3A3A;}
	.st10{fill:#313131;stroke:#313131;stroke-width:0.302;stroke-miterlimit:10;}
	.st11{fill:#998675;stroke:#998675;stroke-width:0.5809;stroke-miterlimit:10;}
</style>
<g>
	<path class="st0" d="M289,103H61.1c-3.7,0-6.8-3-6.8-6.8V29.8c0-3.7,3-6.8,6.8-6.8H289c3.7,0,6.8,3,6.8,6.8v66.4
		C295.8,100,292.7,103,289,103z"/>
	<path class="st1" d="M283.6,97.6H55.7c-3.7,0-6.8-3-6.8-6.8V24.4c0-3.7,3-6.8,6.8-6.8h227.9c3.7,0,6.8,3,6.8,6.8v66.4
		C290.4,94.6,287.3,97.6,283.6,97.6z"/>
	<rect class="st2" width="300" height="110.7"/>
	<g>
		<path class="st3" d="M55.7,17.6h227.9c3.7,0,6.8,3,6.8,6.8v10.7"/>
		<path class="st3" d="M290.4,43.1v47.2c0,3.7-3,6.8-6.8,6.8H72.1"/>
		<g>
			<g>
				<g>
					<path class="st4" d="M129.4,51.4v-1h-11v1H116c0.1-0.6,0.1-1.4,0.1-2.4V37.6c0-0.8,0-1.4-0.1-2.1c0.6,0.1,1.2,0.1,2.1,0.1h11.5
						c0.9,0,1.5,0,2.1-0.1c-0.1,0.6-0.1,1.2-0.1,2.1V49c0,1,0,1.8,0.1,2.4H129.4z M118.4,48.3h10.9V37.6h-10.9V48.3z M127.4,39.3
						c0.6,0,1,0,1.4-0.1v2c-0.4-0.1-0.8-0.1-1.4-0.1h-2.5v1.3h1.4c0.7,0,1.1,0,1.6-0.1c0,0.5-0.1,0.9-0.1,1.4v2.3c0,0.5,0,1,0.1,1.4
						c-0.5,0-0.9-0.1-1.6-0.1h-4.9c-0.6,0-1.1,0-1.6,0.1c0-0.5,0.1-1,0.1-1.4v-2.3c0-0.5,0-0.9-0.1-1.4c0.5,0,0.8,0.1,1.6,0.1h1.3
						v-1.3h-2.3c-0.6,0-1,0-1.4,0.1v-2c0.4,0.1,0.8,0.1,1.4,0.1h2.3v-0.2c0-0.5,0-0.8-0.1-1.2h2.4c-0.1,0.3-0.1,0.7-0.1,1.2v0.2
						H127.4z M122,44.3v1.4h3.7v-1.4H122z"/>
					<path class="st4" d="M142,42h-3.1c-0.8,0-1.4,0-1.9,0.1v-1.3h-2c0.1-0.4,0.1-0.8,0.1-1.5v-1.5c0-0.5,0-0.9-0.1-1.3
						c0.7,0.1,1.3,0.1,2.1,0.1h4.5V36c0-0.5,0-0.7-0.1-1.1h2.6c-0.1,0.4-0.1,0.7-0.1,1.1v0.5h4.7c0.7,0,1.4,0,2.1-0.1
						c-0.1,0.5-0.1,0.8-0.1,1.3v1.5c0,0.5,0,1,0.1,1.5h-2v1.3c-0.5-0.1-1-0.1-1.9-0.1h-2.7V44h3.3c0.9,0,1.3,0,1.8-0.1v2.2
						c-0.5-0.1-1-0.1-1.8-0.1h-3.3v2.6c0.8,0.1,1.6,0.1,2.7,0.1c1.2,0,2.3-0.1,4.3-0.2c-0.3,0.9-0.4,1.4-0.6,2.4
						c-1.5,0-2.6,0.1-3.6,0.1c-2.5,0-4.3-0.2-5.6-0.7c-1.2-0.5-2.1-1.1-2.9-2.2c-0.7,1.3-1.3,2.2-2.3,3.3c-0.6-0.7-1-1.2-1.8-1.7
						c1-0.9,1.6-1.7,2.2-2.8c0.6-1.1,1.1-2.7,1.2-3.8l2.3,0.4c-0.2,0.9-0.4,1.7-0.7,2.5c0.7,1.1,1.3,1.7,2.5,2.2V42z M148.5,38.6
						h-11.2v1.3c0.4,0,0.9,0.1,1.6,0.1h8c0.7,0,1.1,0,1.6-0.1V38.6z"/>
					<path class="st4" d="M169.5,37.7c-0.2,0.3-0.3,0.4-0.5,0.9c-1.2,2.6-2.7,4.3-5.1,5.6c-0.7-0.9-1-1.2-1.9-1.8
						c-0.1,1.9-0.4,3.1-1,4.3c-1,1.8-2.6,3.1-5.3,4.3c-0.6-1.2-0.8-1.5-1.7-2.4c2-0.6,3.2-1.4,4.2-2.5c0.9-1.1,1.2-2.4,1.2-4.9
						c0-0.7,0-0.8-0.1-1.2h2.9c-0.1,0.3-0.1,0.4-0.1,1.5c0,0.1,0,0.3,0,0.8c1.9-0.9,3-1.9,4-3.6h-8.9c-1.1,0-2,0-2.8,0.1v-2.6
						c0.9,0.1,1.4,0.1,2.8,0.1h9.3c1,0,1.2,0,1.6-0.2L169.5,37.7z"/>
					<path class="st4" d="M174.7,50.7c0.1-0.7,0.1-1.3,0.1-2.5V37.8c0-1.2,0-1.7-0.1-2.4h2.9c-0.1,0.7-0.1,1.1-0.1,2.4v2.7
						c2.8,0.9,5.2,2,8.2,3.7l-1.5,2.5c-1.6-1.1-3.9-2.3-6-3.2c-0.3-0.1-0.4-0.2-0.7-0.3v5.1c0,1.1,0,1.8,0.1,2.4H174.7z M182.6,36.5
						c0.7,0.8,1.1,1.5,1.6,2.5l-1.6,0.8c-0.4-0.9-1-1.8-1.6-2.6L182.6,36.5z M184.7,35.6c0.8,0.9,1.1,1.4,1.6,2.4l-1.6,0.8
						c-0.4-0.9-1-1.7-1.6-2.5L184.7,35.6z"/>
					<path class="st4" d="M194.8,35.8c-0.1,0.7-0.1,1.2-0.1,2.2l-0.1,9.5c1.9-0.4,3.4-1,4.8-2c1.5-1.1,2.6-2.3,3.5-4
						c0.8,1.1,1.1,1.4,2,2.1c-2.5,3.8-5.6,5.7-10.8,6.7c-0.6,0.1-0.8,0.2-1.1,0.3l-1.4-1.6c0.1-0.4,0.2-0.7,0.2-1.6l0.1-9.4
						c0-0.1,0-0.2,0-0.2c0-0.8,0-1.5-0.1-2L194.8,35.8z"/>
					<path class="st4" d="M221.1,50.7c-1.5-1.9-3.3-3.6-5.3-5.1c-1.6,1.9-4,3.6-6.7,4.9c-0.6-1.1-0.8-1.4-1.7-2.3
						c1.6-0.6,2.6-1.2,4-2.1c2-1.4,3.5-3.1,4.7-5.1c0.2-0.4,0.5-1,1-1.9l-5.2,0.1c-1.5,0-1.8,0.1-2.5,0.2l0-2.7
						c0.6,0.1,1.1,0.1,2.2,0.1h0.3l6.1-0.1c1,0,1.1,0,1.5-0.2l1.4,1.4c-0.2,0.2-0.4,0.5-0.6,1c-0.9,2-1.7,3.4-2.7,4.8
						c2.3,1.6,2.8,2,5.8,4.9L221.1,50.7z"/>
				</g>
			</g>
			<g>
				<path class="st5" d="M106.4,49.5l-2.9,2.9l-6.1-6.1l-6.2,6.2l-2.9-2.9l6.1-6.2l-6.1-6.1l2.9-2.9l6.1,6.1l6-6l2.9,2.9l-6,6
					L106.4,49.5z"/>
			</g>
			<g>
				<g>
					<path class="st4" d="M130.7,68.9c-0.3,0.3-0.3,0.3-0.6,1.2c-1.2,3.4-2.6,5.8-4.5,7.7c-1.6,1.6-3.5,2.9-6.1,4
						c-0.6-1-0.9-1.4-1.8-2.2c1.5-0.6,2.4-1,3.4-1.7c1.2-0.7,1.9-1.3,2.8-2.3c-1.2-1-2.2-1.7-3.5-2.4l1.6-1.9
						c1.6,0.9,2.4,1.4,3.4,2.2c0.8-1.2,1.3-2.3,1.8-3.7l-5.3,0.1c-1.1,1.8-2.3,3.2-4.1,4.7c-0.7-0.8-1.1-1.1-2.2-1.7
						c2-1.5,3.4-3,4.5-5c0.5-0.9,0.9-1.7,1-2.5l2.7,0.6c-0.2,0.3-0.2,0.4-0.5,0.9c-0.2,0.3-0.2,0.4-0.4,0.8l4.7,0
						c0.3,0,0.4,0,0.7-0.1c-0.3-0.6-0.5-1-1-1.6l1.6-0.5c0.7,0.9,1,1.4,1.3,2.3l-0.7,0.2L130.7,68.9z M131.5,65
						c0.6,0.7,1,1.4,1.3,2.2l-1.5,0.6c-0.3-0.8-0.7-1.5-1.3-2.3L131.5,65z"/>
					<path class="st4" d="M147.2,67.5c-0.4,0.3-0.4,0.4-0.7,0.6c-1.4,1.4-2.7,2.5-4.2,3.6v6.9c0,1.4,0,2,0.1,2.6h-3
						c0.1-0.7,0.1-1.1,0.1-2.5v-5.3c-1.9,1.1-2.9,1.5-6.1,2.7c-0.5-1.1-0.7-1.4-1.5-2.4c3.6-1,6.6-2.4,9.4-4.6
						c1.6-1.2,2.8-2.4,3.3-3.3L147.2,67.5z"/>
					<path class="st4" d="M161.1,70c1.3,0,1.7,0,2.7-0.1v2.6c-0.7-0.1-1.4-0.1-2.6-0.1h-3.3c-0.2,2.4-0.5,3.5-1.3,4.9
						c-0.7,1.2-1.6,2.2-2.9,3c-0.5,0.4-0.9,0.6-1.8,1.1c-0.7-1.1-1-1.5-2-2.3c2.2-0.9,3.5-1.9,4.3-3.4c0.5-0.9,0.7-1.7,0.8-3.3h-4.1
						c-1.1,0-1.9,0-2.5,0.1v-2.6c0.8,0.1,1.2,0.1,2.6,0.1h4.1c0-0.9,0-1.5,0-1.7c0-1.2,0-1.8-0.1-2.3h2.9c-0.1,0.6-0.1,0.6-0.1,1.8
						c0,0.6,0,1.1,0,1.6c0,0.4,0,0.4,0,0.6H161.1z"/>
					<path class="st4" d="M166.3,76c4.4,0.5,7.8,1.3,12.1,2.7l-0.9,2.7c-2-0.8-3.7-1.3-6.5-2c-2.2-0.5-3.7-0.7-5.7-1L166.3,76z
						 M167.8,71.1c2.9,0.3,5.9,0.9,9.6,2l-0.8,2.5c-1.4-0.6-2.7-0.9-5.1-1.4c-1.5-0.3-2.7-0.5-4.7-0.8L167.8,71.1z M168,66.2
						c3.7,0.4,5.8,0.8,10,1.9l-0.8,2.5c-3.2-1-6.8-1.7-10.1-2L168,66.2z"/>
					<path class="st4" d="M184.3,70c0.8,1.4,1.1,2.3,1.8,4.3l-2.4,0.7c-0.5-1.9-0.8-2.8-1.6-4.4L184.3,70z M194.7,70.2
						c-0.1,0.3-0.1,0.4-0.3,1c-0.5,2.4-1.3,4.3-2.3,5.8c-1.3,1.8-2.9,3-5.7,4.4c-0.6-0.9-0.8-1.2-1.7-2.1c1.4-0.5,2.1-0.9,3.2-1.6
						c2.1-1.5,3.3-3.3,4-6.1c0.2-0.9,0.3-1.4,0.3-2L194.7,70.2z M188.2,69.2c1,1.8,1.3,2.6,1.7,4.2l-2.3,0.7
						c-0.3-1.4-0.9-2.9-1.6-4.3L188.2,69.2z"/>
					<path class="st4" d="M205.3,66.1c-0.1,0.1-0.3,0.5-0.5,1c-0.2,0.4-0.2,0.5-0.4,0.9L209,68c0.6,0,1-0.1,1.3-0.2l1.3,1.3
						c-0.2,0.3-0.3,0.4-0.5,1.1c-0.9,2.7-2.1,5.1-3.7,6.9c-1.6,1.8-3.7,3.2-6.5,4.5c-0.6-1.1-0.9-1.4-1.8-2.3c4.8-1.8,7.6-4.6,9.1-9
						l-5.1,0.1c-1.1,1.7-2.5,3.2-4.1,4.5c-0.8-0.9-1.1-1.2-2.1-1.8c2.1-1.4,3.5-3,4.7-5.2c0.5-0.9,0.8-1.6,0.9-2.2L205.3,66.1z"/>
					<path class="st4" d="M214,68.7c0-1.1,0-1.6-0.2-2.4c0.7,0,1.2,0.1,2.5,0.1h3.5c2.2,0,3.8,0.5,5,1.6c1.3,1.2,2,3.1,2,5.4
						c0,2.4-0.7,4.3-2.1,5.6c-1.2,1.1-2.8,1.6-4.9,1.6h-3.5c-1.2,0-1.7,0-2.4,0.1c0.1-0.8,0.1-1.3,0.1-2.4V68.7z M219.6,78.1
						c1.3,0,2.2-0.3,2.9-1c0.8-0.8,1.2-2.1,1.2-3.7c0-1.6-0.4-2.8-1.1-3.5c-0.7-0.7-1.6-1-3-1H217v9.2H219.6z"/>
					<path class="st4" d="M238.8,74.4c0.4,0.6,0.8,1.3,1.2,2c-0.1-0.6-0.1-1.5-0.1-2.2v-5.3c0-1.1,0-1.8-0.2-2.5h3.2
						c-0.1,0.7-0.1,1.4-0.1,2.5v9.3c0,1,0,1.8,0.1,2.4h-3.4c-0.2-0.5-0.6-1.2-1.2-2.1l-4.1-6c-0.4-0.5-0.7-1.1-1.1-2
						c0,0.2,0,0.2,0.1,0.8c0,0.3,0.1,1,0.1,1.4V78c0,1.2,0,2,0.1,2.7h-3.2c0.1-0.6,0.1-1.5,0.1-2.7v-9.1c0-1,0-1.7-0.1-2.4h3.3
						c0.2,0.5,0.5,1.1,1.2,2L238.8,74.4z"/>
					<path class="st4" d="M249.4,76.1c0.1,0.7,0.2,1.1,0.5,1.4c0.5,0.6,1.3,0.9,2.4,0.9c1.6,0,2.5-0.7,2.5-1.8c0-0.5-0.2-1-0.7-1.3
						c-0.6-0.4-1.1-0.5-3.1-1c-1.5-0.4-2.1-0.6-2.8-1.1c-1-0.7-1.5-1.8-1.5-3.1c0-2.6,2.1-4.2,5.4-4.2c2.1,0,3.7,0.6,4.7,1.8
						c0.4,0.6,0.7,1.1,0.9,2.1l-3.2,0.3c-0.1-0.5-0.2-0.8-0.5-1.1c-0.4-0.5-1.1-0.7-2-0.7c-1.4,0-2.3,0.7-2.3,1.7
						c0,0.5,0.2,0.9,0.6,1.1c0.4,0.2,0.8,0.4,1.7,0.6c2,0.4,2.8,0.6,3.5,0.9c0.7,0.3,1.4,0.9,1.8,1.5c0.4,0.6,0.5,1.3,0.5,2.1
						c0,2.9-2,4.5-5.6,4.5c-2.3,0-4.1-0.6-5-1.8c-0.6-0.7-0.8-1.4-1-2.8L249.4,76.1z"/>
				</g>
			</g>
			<g>
				<path class="st5" d="M106.4,80l-2.9,2.9l-6.1-6.1L91.2,83l-2.9-2.9l6.1-6.2l-6.1-6.1l2.9-2.9l6.1,6.1l6-6l2.9,2.9l-6,6L106.4,80
					z"/>
			</g>
		</g>
	</g>
	<g>
		<g>
			<path class="st6" d="M23.1,103.1c-12.5-21.2,7.5-43.6,7.5-43.6l21.5,1.2c0,0,4.9,0,9.4,11.6c4.3,11.1,6.2,30.9,6.2,30.9
				L23.1,103.1z"/>
			<path class="st6" d="M22.3,60c0,0-16.3,18.5-14.1,35.7c0.8,6.6,4.5,8.3,12.9,8.3c7.7,0,35.9-8.6,35.9-8.6l-3-13l-31,4.3L30,61.8
				L22.3,60z"/>
			<path class="st7" d="M31,80.9c-4.6,0.9-7.6,3-7.8,6.5c-0.3,3.5,2.1,1.4,6.7,0.5s11.7-0.8,11.9-2.3C42,83.9,35.6,80,31,80.9z"/>
			<path class="st7" d="M65.1,95.5c3-3.1,6.2-7.4,3.6-10.3s-9.6-2.7-13.1,0.1c-3.5,2.7-4.9,7.8-1.6,10
				C56.8,97.2,63.2,97.5,65.1,95.5z"/>
		</g>
		<g>
			<g>
				<path class="st8" d="M4.7,47.7C5.9,59.5,12,65.3,16.2,66.6s15.6-7.8,15.6-7.8S44,69.3,46.6,65.7c4.9,0.2,15.7-12,16.2-21.2
					c1-20-7.9-31.1-25.7-33c-5.4-0.3-15.2,0.5-19.1,8.3C7.3,22.6,3.6,38.8,4.7,47.7z"/>
			</g>
			<path class="st8" d="M25.6,68.7c-1,3.4-2,8-3.1,8.3c-1.7,1.2-6.5-2-8.8-8.6C9.9,55.7,16.9,54.3,19.1,58
				C23.6,64.9,26.6,64.1,25.6,68.7z"/>
			<g>
				<path class="st7" d="M12.3,40.9c0.3,15.9,11.4,28.7,24.8,28.4s21.8-12.1,21.6-28.1s-9.1-25.4-22.5-25.2
					C22.8,16.4,12,25,12.3,40.9z"/>
				<circle class="st7" cx="14.6" cy="50.8" r="6.4"/>
				<path class="st8" d="M31.8,15.2C4,22.6,13.1,48.6,13.6,49.6c0.1,0.1,0.2,0.2,0.3,0.2c0.1,0,0.3-0.1,0.3-0.3
					c0.4-2.6,3.9-6.6,8.1-10c1.3-1.5,0-4.7,4.7-10.3c-1.4,3.7-1.9,8.8-1.4,8.6c1.5-0.6,2-1,3.8-1.4c0.9-0.2,7.4-10.9,7.8-10.3
					c-3.8,6.8-3.6,9.3-3.1,9.3c0.5-0.1,3.6-0.4,6.6-0.2c0.4-0.1,5.4-6,5.7-7.2c0.4,3-0.9,6.4-1.1,7.3c10.7,0.3,14.3,7.8,14.9,7.5
					S59.1,8,31.8,15.2z"/>
				<g>
					<circle class="st9" cx="49.9" cy="49.4" r="2.5"/>
					<circle class="st9" cx="37.8" cy="49.7" r="2.5"/>
					<path class="st10" d="M39.5,58.1c0.8-1.1,1.9-1.8,3.4-1.9c1.4-0.1,3.1,0.4,3.9,1.9c0.1,0.2,0,0.4-0.2,0.4c0,0-1.3-1.1-3.1-1.3
						c-1.8-0.1-3.8,1.3-3.8,1.3C39.5,58.5,39.4,58.3,39.5,58.1z"/>
					<g>
						<path class="st11" d="M38.5,42.1L38.5,42.1c0,0-0.8,0.7-2.5,1.2c-2.3,0.6-4.1-0.2-4.1-0.2l0,0l0,0c-0.1,0-0.2,0.1-0.2,0.3
							c0,0.1,0,0.2,0.1,0.3c0.6,0.4,2,0.6,3.1,0.6c0.4,0,0.8-0.1,1.1-0.2c1.2-0.4,2.2-0.8,2.9-1.6c0.1-0.1,0.1-0.2,0-0.3
							C38.8,42.2,38.6,42.1,38.5,42.1z"/>
						<path class="st11" d="M53,42.4L53,42.4L53,42.4c-0.1,0-1.7,1-4.1,0.7c-1.8-0.2-2.6-1-2.6-1l0,0l0,0c-0.2,0-0.3,0.1-0.4,0.2
							c0,0.1,0,0.2,0,0.2c1.1,0.9,1.9,1.2,3.1,1.4c0.3,0.1,0.7,0.1,1.1,0c1.2-0.1,2.5-0.5,3-1c0.1-0.1,0.1-0.2,0.1-0.3
							C53.2,42.5,53.1,42.4,53,42.4z"/>
					</g>
				</g>
			</g>
		</g>
	</g>
</g>
<rect y="0.7" class="st2" width="300" height="110"/>
</svg>
