<?xml version="1.0" encoding="utf-8"?>
<!-- Generator: Adobe Illustrator 26.0.1, SVG Export Plug-In . SVG Version: 6.00 Build 0)  -->
<svg version="1.1" id="レイヤー_1" xmlns="http://www.w3.org/2000/svg" xmlns:xlink="http://www.w3.org/1999/xlink" x="0px"
	 y="0px" width="300px" height="110px" viewBox="0 0 300 110" style="enable-background:new 0 0 300 110;" xml:space="preserve">
<style type="text/css">
	.st0{fill:#58CBDE;}
	.st1{fill:#35318F;}
	.st2{fill:#FFE2CC;}
	.st3{fill:#3A3A3A;}
	.st4{fill:#313131;stroke:#313131;stroke-width:0.302;stroke-miterlimit:10;}
	.st5{fill:#998675;stroke:#998675;stroke-width:0.5809;stroke-miterlimit:10;}
	.st6{fill:none;stroke:#4D4D4D;stroke-width:1.8309;stroke-linecap:round;stroke-linejoin:round;stroke-miterlimit:10;}
	.st7{fill:#FFFFFF;stroke:#002A00;stroke-width:1.4574;stroke-linecap:round;stroke-linejoin:round;stroke-miterlimit:10;}
	.st8{fill:#D9F2D9;}
	.st9{fill:none;stroke:#002A00;stroke-width:1.4574;stroke-linecap:round;stroke-linejoin:round;stroke-miterlimit:10;}
	.st10{fill:#00A600;}
	.st11{fill:none;stroke:#00A600;stroke-width:2.1209;stroke-linecap:round;stroke-linejoin:round;stroke-miterlimit:10;}
	.st12{fill:none;}
</style>
<g>
	<g>
		<g>
			<g>
				<path class="st0" d="M94,103.1c-12.5-21.2,1.2-41.6,1.2-41.6l28.6,1.2c0,0,5.8,1.2,10.3,12.9c4.3,11.1,7.1,27.6,7.1,27.6
					L94,103.1z"/>
				<path class="st0" d="M93.7,64.7c0,0-16.3,13.9-14.1,31.1c0.8,6.6,4.5,8.3,12.9,8.3c7.7,0,35.9-8.6,35.9-8.6l-3-13l-31,4.3
					l7.1-20.3L93.7,64.7z"/>
			</g>
			<g>
				<path class="st1" d="M79.4,42.5c1.7,11.3,8.8,17.8,12.8,18.9c4.1,1.1,17.2-0.3,17.2-0.3s11.4,2.5,13.7-1.1
					c4.6,0,9.2-11,9.2-19.8c0-19.4-6.9-29.8-23.9-30.8c-5.2,0-14.5,1.2-17.7,8.9C80.7,21.5,77.9,33.9,79.4,42.5z"/>
				<path class="st1" d="M86.9,58.8c0,0,2.9,1.6,1,6.1c-0.4,2.4,8.6,0,9.9-4.8C98.3,55.9,86.9,58.8,86.9,58.8z"/>
				<circle class="st2" cx="89.8" cy="48.3" r="5.7"/>
				<g>
					<path class="st1" d="M79.5,34c0,0,0.9,6-2.3,14.5c0,3.2,7.6-2.8,8.3-9.4C85.4,33.6,79.5,34,79.5,34z"/>
					<path class="st2" d="M87.3,39.5c0,15.6,10.6,28.2,23.7,28.2s21.2-11.4,21.2-26.9s-8-25.1-21.2-25.1S87.3,23.9,87.3,39.5z"/>
					<path class="st1" d="M128.3,20.6c-1,4.6-6.8,11.1-14.7,12.4c-1,0.5,3.9-9.2,3.9-9.2s-9.9,11.7-16.2,13c0-5.6,1.2-9.4,3.6-13.4
						c-7.9,13.9-13.1,13.7-14,24.1c-12.5-8.7-1.6-27.9,8.9-31.4C105.6,12.5,121.5,9.8,128.3,20.6z"/>
					<path class="st1" d="M120.4,14.6c0,14.3,14.5,17,11.6,31.1C141.7,38.6,132.6,10.4,120.4,14.6z"/>
				</g>
				<g>
					<circle class="st3" cx="122.5" cy="48" r="2.5"/>
					<circle class="st3" cx="110.3" cy="48.3" r="2.5"/>
					<path class="st4" d="M112,56.7c0.8-1.1,1.9-1.8,3.4-1.9c1.4-0.1,3.1,0.4,3.9,1.9c0.1,0.2,0,0.4-0.2,0.4c0,0-1.3-1.1-3.1-1.3
						c-1.8-0.1-3.8,1.3-3.8,1.3C112,57.1,111.9,56.9,112,56.7z"/>
					<g>
						<path class="st5" d="M111,40.7L111,40.7c0,0-0.8,0.7-2.5,1.2c-2.3,0.6-4.1-0.2-4.1-0.2l0,0l0,0c-0.1,0-0.2,0.1-0.2,0.3
							c0,0.1,0,0.2,0.1,0.3c0.6,0.4,2,0.6,3.1,0.6c0.4,0,0.8-0.1,1.1-0.2c1.2-0.4,2.2-0.8,2.9-1.6c0.1-0.1,0.1-0.2,0-0.3
							C111.3,40.7,111.2,40.6,111,40.7z"/>
						<path class="st5" d="M125.5,40.9L125.5,40.9L125.5,40.9c-0.1,0-1.7,1-4.1,0.7c-1.8-0.2-2.6-1-2.6-1l0,0l0,0
							c-0.2,0-0.3,0.1-0.4,0.2c0,0.1,0,0.2,0,0.2c1.1,0.9,1.9,1.2,3.1,1.4c0.3,0.1,0.7,0.1,1.1,0c1.2-0.1,2.5-0.5,3-1
							c0.1-0.1,0.1-0.2,0.1-0.3C125.8,41.1,125.7,41,125.5,40.9z"/>
					</g>
				</g>
			</g>
			<path class="st6" d="M66.2,7.3c-9.8-1.5-16,4.2-17.9,6.2c-1.9,2-2.9,5.4-1.4,7.4c1.2,1.6,3.4,1.6,5.4,1.3
				c3.6-0.6,7.6-1.2,10.6-3.8c2.6-2.2,0.4-4.8-2.6-3.4c-6.6,3.2-9.1,7.3-9.7,9.2c-0.6,2.3,4.1,8,13.4,2.9c2.1-1.1,0.4-3.7-0.7-3.7
				c-1.1,0-7.8,3.4-8.9,5.4c-0.2,0.4-1,1.8-1,2.4c0.1,3.3,2.5,5.1,4.6,5.1c2,0,3.1,0.7,7.2-1.3c2.2-1.9-0.2-3.6-0.8-3.5
				c-1.4,0.1-3.8,1.3-4.9,2.2c-3,2.7-1,8.8,11.1,10.2"/>
			<g>
				<path class="st2" d="M95.6,99c0.4-4.3,4.7-8.4,10.3-7.9c4.9,0.5,8.7,3.5,9.3,7.1c0.1,0.8-0.5,1.6-1.3,1.5
					C104.5,98.9,100.1,103.4,95.6,99z"/>
				<path class="st2" d="M104.6,93.9l0-0.1c-0.1-1.1,0.7-2.1,1.8-2.2l8.8-0.8c1.1-0.1,2.1,0.7,2.2,1.8l0,0.1
					c0.1,1.1-0.7,2.1-1.8,2.2l-8.8,0.8C105.7,95.8,104.7,95,104.6,93.9z"/>
			</g>
			<g>
				<g>
					<g>
						<path class="st7" d="M200.9,19.4h-51.6c-2,0-3.6,1.6-3.6,3.6v60.9H237V23c0-2-1.6-3.6-3.6-3.6h-17.7"/>
						<g>
							<path class="st8" d="M168.5,77h58.6c1,0,1.8-0.8,1.8-1.8V31c0-1.9-1.5-3.4-3.4-3.4h-68.4c-1.9,0-3.4,1.5-3.4,3.4v44.2
								c0,1,0.8,1.8,1.8,1.8h5.6"/>
						</g>
						<polygon class="st7" points="246.7,99.1 136.1,99.1 145.7,83.8 237,83.8 						"/>
						<polyline class="st7" points="233.3,87.3 236.6,92.7 146.2,92.7 149.4,87.5 						"/>
						<rect x="136.1" y="99.1" class="st7" width="110.6" height="3.9"/>
						<line class="st9" x1="199.9" y1="92.8" x2="200.7" y2="96.2"/>
						<line class="st9" x1="182.3" y1="92.8" x2="181.5" y2="96.2"/>
						<line class="st9" x1="200.9" y1="19.4" x2="206.5" y2="19.4"/>
					</g>
				</g>
				<g>
					<path class="st10" d="M164.6,68.7H158V56.5h2.3v10.2h4.3V68.7z"/>
					<path class="st10" d="M173.1,64.2c0,3.4-2.1,4.7-4,4.7c-2.3,0-4-1.7-4-4.6c0-3,1.8-4.7,4.1-4.7
						C171.6,59.6,173.1,61.5,173.1,64.2z M169.1,61.4c-1.3,0-1.7,1.5-1.7,2.9c0,1.6,0.6,2.9,1.7,2.9c1.1,0,1.7-1.3,1.7-2.9
						C170.8,62.9,170.3,61.4,169.1,61.4z"/>
					<path class="st10" d="M181.2,66.6c0,0.8,0,1.6,0.1,2.1h-2.1l-0.1-0.9h0c-0.5,0.7-1.3,1.1-2.3,1.1c-1.6,0-2.6-1.2-2.6-2.7
						c0-2.3,2-3.3,4.7-3.3c0-0.9-0.3-1.5-1.6-1.5c-0.8,0-1.6,0.3-2.1,0.6l-0.4-1.5c0.6-0.4,1.6-0.7,3-0.7c2.7,0,3.4,1.7,3.4,3.7
						V66.6z M179,64.4c-1.2,0-2.5,0.3-2.5,1.6c0,0.8,0.5,1.2,1.1,1.2c0.5,0,1.4-0.4,1.4-1.5V64.4z"/>
					<path class="st10" d="M190.7,66.2c0,0.9,0,1.9,0.1,2.5h-2l-0.1-1.3h0c-0.5,0.9-1.4,1.4-2.4,1.4c-2,0-3.4-1.8-3.4-4.5
						c0-3,1.6-4.7,3.5-4.7c1,0,1.7,0.4,2.1,1h0v-4.8h2.3V66.2z M188.4,63.4c0-1.3-0.8-1.9-1.5-1.9c-1.2,0-1.8,1.2-1.8,2.8
						c0,1.6,0.7,2.7,1.7,2.7c0.7,0,1.6-0.5,1.6-1.9V63.4z"/>
					<path class="st10" d="M194.6,58.7c-0.7,0-1.2-0.5-1.2-1.3c0-0.7,0.5-1.3,1.2-1.3c0.7,0,1.2,0.5,1.2,1.3
						C195.8,58.2,195.3,58.7,194.6,58.7z M195.7,68.7h-2.3v-8.9h2.3V68.7z"/>
					<path class="st10" d="M205.8,68.7h-2.3v-5.2c0-1.1-0.3-1.9-1.3-1.9c-0.6,0-1.5,0.5-1.5,1.8v5.3h-2.3v-6.2c0-1,0-1.9-0.1-2.7h2
						l0.1,1.2h0c0.4-0.7,1.2-1.4,2.5-1.4c1.6,0,2.8,1.1,2.8,3.6V68.7z"/>
					<path class="st10" d="M215.3,59.9c0,0.6-0.1,1.4-0.1,2.6v5c0,1.7-0.2,4.9-4.4,4.9c-1,0-2.1-0.2-2.7-0.6l0.5-1.8
						c0.5,0.3,1.3,0.6,2.2,0.6c1.3,0,2.1-0.7,2.1-2.4v-0.7h0c-0.4,0.7-1.2,1.1-2.2,1.1c-2.1,0-3.3-1.9-3.3-4.3
						c0-2.9,1.7-4.7,3.6-4.7c1.1,0,1.8,0.5,2.2,1.2h0l0.1-1H215.3z M212.9,63.3c0-1.1-0.7-1.8-1.4-1.8c-1,0-1.7,1.1-1.7,2.8
						c0,1.5,0.6,2.6,1.7,2.6c0.5,0,1.5-0.3,1.5-1.8V63.3z"/>
				</g>
				<g>
					<line class="st11" x1="190.1" y1="32.2" x2="190.2" y2="36.1"/>
					<line class="st11" x1="184" y1="34.8" x2="186.8" y2="37.5"/>
					<line class="st11" x1="181.4" y1="40.9" x2="185.4" y2="40.9"/>
					<line class="st11" x1="184" y1="47.1" x2="186.8" y2="44.3"/>
					<line class="st11" x1="190.2" y1="49.6" x2="190.2" y2="45.7"/>
					<line class="st11" x1="196.3" y1="47.1" x2="193.6" y2="44.3"/>
					<line class="st11" x1="198.9" y1="40.9" x2="195" y2="40.9"/>
					<line class="st11" x1="196.3" y1="34.7" x2="193.6" y2="37.5"/>
				</g>
				<g>
					<path class="st10" d="M219.8,65.1c0,0.6-0.5,1.2-1.1,1.2c-0.6,0-1.1-0.5-1.1-1.2c0-0.6,0.5-1.2,1.1-1.2
						C219.4,63.9,219.8,64.5,219.8,65.1z M223.4,65.1c0,0.6-0.5,1.2-1.1,1.2c-0.6,0-1.1-0.5-1.1-1.2c0-0.6,0.5-1.2,1.1-1.2
						C222.9,63.9,223.4,64.5,223.4,65.1z M226.9,65.1c0,0.6-0.5,1.2-1.1,1.2c-0.6,0-1.1-0.5-1.1-1.2c0-0.6,0.5-1.2,1.1-1.2
						C226.4,63.9,226.9,64.5,226.9,65.1z"/>
				</g>
			</g>
		</g>
	</g>
	<rect class="st12" width="300" height="110"/>
</g>
</svg>
