<?xml version="1.0" encoding="utf-8"?>
<!-- Generator: Adobe Illustrator 26.0.1, SVG Export Plug-In . SVG Version: 6.00 Build 0)  -->
<svg version="1.1" id="レイヤー_1" xmlns="http://www.w3.org/2000/svg" xmlns:xlink="http://www.w3.org/1999/xlink" x="0px"
	 y="0px" width="300px" height="110px" viewBox="0 0 300 110" style="enable-background:new 0 0 300 110;" xml:space="preserve">
<style type="text/css">
	.st0{fill:none;}
	.st1{fill:#FFFFFF;}
	.st2{fill:#00A600;}
	.st3{fill:#FFFFFF;stroke:#002A00;stroke-width:1.4574;stroke-linecap:round;stroke-linejoin:round;stroke-miterlimit:10;}
	.st4{fill:none;stroke:#002A00;stroke-width:1.4574;stroke-linecap:round;stroke-linejoin:round;stroke-miterlimit:10;}
	.st5{fill:#002A00;}
	.st6{fill:#FFFFFF;stroke:#FFFFFF;stroke-width:0.2262;stroke-miterlimit:10;}
	.st7{fill:none;stroke:#002A00;stroke-width:3.8825;stroke-miterlimit:10;}
</style>
<g>
	<g>
		<rect class="st0" width="300" height="110"/>
		<g>
			<g>
				<path class="st1" d="M219,96.1c0,0,0.1,0.1,0.1,0.1c1.6,2.9,10.2,0.7,10.2,0.7l0,0l29.3-4.9c2.1-0.3,3.3-2.6,2.4-4.5l-3.8-8.3
					c-0.2-0.4-0.2-0.8,0-1.1c0.4-0.6,1.2-2.3,1.2-5.2c0-1,0-23.4,0-32.6V27.3c0-1,0-1.2,0-1.3c0,0,0,0,0,0c0,0,0-0.3,0-1.4
					c0-6.5-2.9-9.4-6.5-9.8c-3.3-0.3-32.6-2.7-38.4-3.2c-0.6,0-1.1,0.3-1.3,0.9l-0.4,2c-0.2,0.6,0,1.1,0.5,1.5
					c1.1,0.8,4.4,2.5,4.4,6v57.8c0,0.4-0.1,0.7-0.4,0.9l-8.2,7.1c-0.6,0.6-0.7,1.1-0.7,2c0,2,0.4,6.6,2.3,6.3l7.6-2.7L219,96.1z"/>
				<g>
					<path class="st2" d="M212.4,15.2c-0.6,0-1.1,0.3-1.3,0.9l-1.2,5.5c-0.2,0.6,0,1.1,0.5,1.5c1.1,0.8,1.7,1.4,1.7,4.9v45.7
						c0,3.5-1.7,5.3-2.8,6c-0.5,0.3-0.8,1-0.6,2l0.8,5.8c0.2,0.6,0.7,0.9,1.3,0.9l8.7-6.4V22.1L212.4,15.2z"/>
				</g>
				<g>
					<g>
						<path class="st3" d="M258.3,27.3c0-2.7,0,0.2,0-2.7c0-6.5-2.9-9.4-6.5-9.8c-3.3-0.3-32.6-2.7-38.4-3.2c-0.6,0-1.1,0.3-1.3,0.9
							l-0.4,2c-0.2,0.6,0,1.1,0.5,1.5c1.1,0.8,4.4,2.5,4.4,6v57.8c0,0.4-0.1,0.7-0.4,0.9l-8.2,7.1c-0.6,0.6-0.7,1.1-0.7,2
							c0,2,0.4,6.6,2.3,6.3l7.6-2.7"/>
						<path class="st3" d="M220.3,88.3l3.2,6.4c0.9,1.6,2.9,2.7,4.7,2.4l30.3-5c2.1-0.3,3.3-2.6,2.4-4.5l-3.8-8.3
							c-0.2-0.4-0.2-0.8,0-1.1c0.4-0.6,1.2-2.3,1.2-5.2c0-1,0-20.3,0-29.5"/>
					</g>
					<g>
						<line class="st4" x1="232.6" y1="82.4" x2="256.5" y2="79"/>
						<path class="st4" d="M214.8,11.8c2.1,0.2,9,2.9,9,7.9v64l3.8-0.6"/>
					</g>
					<path class="st4" d="M229.2,96.9c0,0-8.6,2.2-10.2-0.7c-1.3-2.3-3.5-6-3.5-6l-7.4,5"/>
				</g>
				<g>
					<line class="st4" x1="220.1" y1="37.1" x2="220.1" y2="45.7"/>
					<line class="st4" x1="220.1" y1="50" x2="220.1" y2="58.7"/>
					<line class="st4" x1="220.1" y1="24.1" x2="220.1" y2="32.8"/>
					<line class="st4" x1="220.1" y1="62.9" x2="220.1" y2="71.6"/>
				</g>
				<line class="st3" x1="258.3" y1="33.2" x2="258.3" y2="37.5"/>
			</g>
			<g>
				<path class="st4" d="M40.6,35.5v-6.4c0-2,1.6-3.7,3.7-3.7h43.2c2,0,3.7,1.7,3.7,3.7v63.6c0,2-1.6,3.7-3.7,3.7H44.3
					c-2,0-3.7-1.7-3.7-3.7V41.2"/>
				
					<rect x="43.3" y="46.7" transform="matrix(-1.836970e-16 1 -1 -1.836970e-16 126.7793 -4.9676)" class="st2" width="45.2" height="28.5"/>
				<polygon class="st5" points="72.4,62.1 68.6,62.1 68.6,60.6 62.4,60.6 62.4,62.1 58.7,62.1 58.7,72.2 61.8,72.2 61.8,76.3 
					69.2,76.3 69.2,72.2 72.4,72.2 				"/>
				<g>
					<path class="st6" d="M61.1,55.1h-4.4v-6.3h1.4v5.3h3V55.1z"/>
					<path class="st6" d="M68.2,55.1h-1.5l-0.5-1.4h-2.5l-0.5,1.4h-1.4l2.4-6.3h1.5L68.2,55.1z M65.9,52.8L65,50.2l-0.9,2.5H65.9z"
						/>
					<path class="st6" d="M74.5,55.1h-1.3l-2.8-4.6v4.6h-1.3v-6.3h1.7l2.5,4.1v-4.1h1.3V55.1z"/>
				</g>
			</g>
			<line class="st7" x1="64.9" y1="67.2" x2="220.8" y2="67.2"/>
			<g>
				<polygon class="st1" points="174.4,93.4 174.4,97.3 119.6,97.3 119.6,93.4 126.9,80.4 167.1,80.4 				"/>
				<polyline class="st3" points="119.6,93.4 126.9,80.4 167.1,80.4 174.4,93.4 				"/>
				<polyline class="st3" points="133,93.4 119.6,93.4 119.6,97.3 174.4,97.3 174.4,93.4 140.2,93.4 				"/>
				<path class="st1" d="M163,87.1V18.7c0-3.1-2.5-5.5-5.5-5.5h-21c-3,0-5.5,2.5-5.5,5.5v68.4H163z"/>
				<path class="st3" d="M163,30.4V18.7c0-3.1-2.5-5.5-5.5-5.5h-21c-3,0-5.5,2.5-5.5,5.5v68.4"/>
				<line class="st3" x1="163" y1="87.1" x2="163" y2="36.3"/>
				
					<rect x="116.6" y="42.9" transform="matrix(6.123234e-17 -1 1 6.123234e-17 93.9861 200.0381)" class="st2" width="60.8" height="20.2"/>
				<g>
					<rect x="141" y="28.7" class="st1" width="3.8" height="3.8"/>
					<rect x="141" y="39.4" class="st1" width="3.8" height="3.8"/>
					<rect x="141" y="50.1" class="st1" width="3.8" height="3.8"/>
					<rect x="141" y="60.9" class="st1" width="3.8" height="3.8"/>
					<rect x="141" y="71.6" class="st1" width="3.8" height="3.8"/>
				</g>
				<g>
					<rect x="149.2" y="28.7" class="st1" width="3.8" height="3.8"/>
					<rect x="149.2" y="39.4" class="st1" width="3.8" height="3.8"/>
					<rect x="149.2" y="50.1" class="st1" width="3.8" height="3.8"/>
					<rect x="149.2" y="60.9" class="st1" width="3.8" height="3.8"/>
					<rect x="149.2" y="71.6" class="st1" width="3.8" height="3.8"/>
				</g>
			</g>
		</g>
	</g>
	<rect class="st0" width="300" height="110"/>
</g>
</svg>
