<?xml version="1.0" encoding="utf-8"?>
<!-- Generator: Adobe Illustrator 26.0.1, SVG Export Plug-In . SVG Version: 6.00 Build 0)  -->
<svg version="1.1" id="レイヤー_1" xmlns="http://www.w3.org/2000/svg" xmlns:xlink="http://www.w3.org/1999/xlink" x="0px"
	 y="0px" width="300px" height="110px" viewBox="0 0 300 110" style="enable-background:new 0 0 300 110;" xml:space="preserve">
<style type="text/css">
	.st0{fill:#757575;}
	.st1{fill:none;}
	.st2{fill:none;stroke:#E5E5E5;stroke-width:11.0327;stroke-linecap:round;stroke-linejoin:round;stroke-miterlimit:10;}
	.st3{fill:#666666;}
	.st4{fill:none;stroke:#002A00;stroke-width:1.4531;stroke-linecap:round;stroke-linejoin:round;stroke-miterlimit:10;}
	.st5{fill:#002A00;stroke:#002A00;stroke-width:1.3805;stroke-linecap:round;stroke-linejoin:round;stroke-miterlimit:10;}
	.st6{fill:#F3F3F3;}
	.st7{fill:#00A600;}
</style>
<g>
	<g>
		<g>
			<path class="st0" d="M74.7,16h-5.1v-1.3h1.7V3.5h-1.7V2.3h5.1v1.3H73v11.2h1.7V16z"/>
			<path class="st0" d="M79.4,10.8V16h-1.6V2.3h3.7c1.7,0,3,0.4,3.8,1.1c0.8,0.7,1.2,1.7,1.2,3c0,1.3-0.4,2.4-1.3,3.2
				c-0.9,0.8-2.1,1.2-3.7,1.2H79.4z M79.4,3.7v5.7h1.6c1.3,0,2.3-0.3,2.9-0.8c0.6-0.5,0.8-1.3,0.8-2.1s-0.3-1.6-0.8-2
				c-0.5-0.5-1.4-0.7-2.6-0.7H79.4z"/>
			<path class="st0" d="M97.5,5.7L93.3,16h-1.2L87.9,5.7h1.7l3.2,8l3.1-8H97.5z"/>
			<path class="st0" d="M107.2,2.2v1.6h-0.1c-0.5-0.2-1.1-0.4-1.7-0.4c-1.3,0-2.3,0.4-3.1,1.3s-1.2,2-1.4,3.6c1.1-0.7,2.2-1,3.2-1
				c1.3,0,2.3,0.4,3.1,1.1s1.2,1.8,1.2,3.2c0,1.4-0.4,2.5-1.3,3.4c-0.9,0.9-1.9,1.3-3.2,1.3c-1.5,0-2.7-0.5-3.5-1.6
				c-0.8-1.1-1.2-2.6-1.2-4.7c0-2.5,0.6-4.5,1.7-5.9c1.1-1.4,2.7-2.1,4.8-2.1C106.3,2,106.8,2.1,107.2,2.2z M100.9,9.5
				c0,0.5,0,0.8,0,0.9c0,1.4,0.3,2.6,0.8,3.3c0.5,0.8,1.3,1.2,2.3,1.2c0.9,0,1.6-0.3,2.1-0.9c0.5-0.6,0.8-1.4,0.8-2.4
				c0-0.9-0.2-1.6-0.7-2.1s-1.3-0.8-2.4-0.8C102.8,8.7,101.9,8.9,100.9,9.5z"/>
			<path class="st0" d="M125.8,16h-12.6v1h-1.3V1.5h15.2v15.4h-1.3V16z M113.2,14.9h12.6V2.6h-12.6V14.9z M115.9,12.2v-7h7v7H115.9z
				 M121.6,6.3h-4.4v4.8h4.4V6.3z"/>
			<path class="st0" d="M130.1,15.7l-1-0.2c0.5-1.7,0.8-3.2,0.9-4.5l1.2,0.1c-0.1,0.8-0.3,1.6-0.5,2.6
				C130.5,14.6,130.3,15.3,130.1,15.7z M132.1,17.2V9.5l-2.7,0.2l-0.2-1.1l0.9,0c0.4-0.6,1-1.3,1.6-2.2c-0.3-0.3-1.1-1.1-2.5-2.5
				l0.8-0.8l0.3,0.3c0.7-1,1.2-2,1.6-2.9l1.2,0.4c-0.6,1.1-1.3,2.2-2.1,3.2l1.3,1.3c0.8-1.3,1.4-2.3,1.8-3l1.2,0.5
				c-1.1,1.8-2.4,3.6-3.9,5.5c1.3-0.1,2.3-0.1,3-0.2L134.2,7l1.1-0.3c0.3,1.1,0.6,2.1,0.9,3L135,9.9c0-0.1-0.1-0.3-0.2-0.7
				c-0.5,0.1-0.9,0.1-1.5,0.1v7.7H132.1z M134.7,14.1c-0.2-0.8-0.3-1.8-0.5-3.1l1-0.2c0.1,0.8,0.3,1.8,0.5,3.1L134.7,14.1z
				 M135.7,16.7l-0.7-0.8c0.9-0.7,1.7-1.5,2.3-2.4c0.6-0.9,0.9-1.8,1-2.6h-2v-1h3.1l0.3,0.3c-0.1,1.3-0.6,2.5-1.3,3.8
				C137.7,15.1,136.8,16.1,135.7,16.7z M140.4,17h-1.8l-0.1-1.2h1.3c0.4,0,0.7-0.2,0.7-0.6V8.3h-3.6V1.8h3.1l0.5-1.6l1.3,0.3
				l-0.6,1.3h4.3v6.5h-3.7v0.9c0.2,0.7,0.6,1.4,1.1,2.2c1.2-0.8,2-1.6,2.6-2.2l0.9,0.8c-0.6,0.5-1.6,1.3-3,2.2
				c1,1.3,2.1,2.4,3.3,3.3l-0.9,0.9c-1.8-1.3-3.1-3-4.1-5.1v4.2c0,0.4-0.1,0.7-0.4,1S140.8,17,140.4,17z M138.1,4.6h6.1V2.9h-6.1
				V4.6z M144.2,5.6h-6.1v1.7h6.1V5.6z"/>
			<path class="st0" d="M157.8,16.4l-0.3-1.2c1.9-0.2,3.5-0.7,4.8-1.7c1.3-1,2-2.4,2-4.3c0-1.7-0.5-3-1.6-3.9
				c-1.1-0.9-2.6-1.4-4.5-1.5c-0.1,3.3-0.6,6-1.7,8.2s-2.4,3.3-4,3.3c-1,0-1.8-0.4-2.4-1.3c-0.6-0.9-0.9-1.9-0.9-3.2
				c0-2.1,0.9-4,2.6-5.6s3.8-2.5,6.2-2.5c2.2,0,4.1,0.6,5.5,1.7c1.4,1.2,2.2,2.7,2.2,4.7c0,2.3-0.7,4-2.2,5.2S160.1,16.2,157.8,16.4
				z M156.8,3.8c-1.7,0.3-3.2,1.1-4.4,2.4c-1.2,1.3-1.8,2.8-1.8,4.5c0,0.9,0.2,1.6,0.5,2.3s0.9,0.9,1.5,0.9c1.1,0,2.1-1.1,2.9-3.2
				S156.7,6.3,156.8,3.8z"/>
			<path class="st0" d="M178.7,16.9h-1.6V7.8c-2.6,1.4-5.3,2.5-8.2,3.2l-0.5-1.2c3.8-1,6.8-2.3,9-3.8s3.8-3.1,4.9-4.7l1.4,0.6
				c-1.1,1.7-2.8,3.3-5.1,5V16.9z"/>
			<path class="st0" d="M198.8,1.7c-0.5,2.7-1.5,5.2-3.1,7.6c1.8,1.3,3.3,2.5,4.6,3.6l-1.2,1.1c-0.8-0.8-2.3-2-4.4-3.6
				c-2.4,3.1-5.4,5.1-9,6.2l-0.6-1.3c3.2-1,6-2.9,8.4-5.8c-1.3-1-3.4-2.2-6-3.6l0.8-1.1c2.4,1.3,4.4,2.5,6.1,3.6
				c1.4-2.2,2.4-4.5,2.8-6.9L198.8,1.7z"/>
			<path class="st0" d="M218.6,10h-14.5V8.6h14.5V10z"/>
			<path class="st0" d="M229.6,8.5l-0.7,1.3c-1.8-0.8-4.1-1.6-6.8-2.3l0.5-1.2C224.6,6.7,226.9,7.5,229.6,8.5z M238.1,7.8
				c-1.4,2.5-3.3,4.5-5.9,6s-5.5,2.5-8.9,2.8l-0.4-1.3c2-0.3,3.8-0.7,5.3-1.2c1.5-0.5,2.8-1.2,3.9-1.9c1-0.7,1.9-1.4,2.6-2.1
				c0.7-0.7,1.4-1.6,2.1-2.9L238.1,7.8z M231.5,4l-0.7,1.3c-1.5-0.7-3.7-1.5-6.8-2.4l0.6-1.1c0.8,0.2,1.9,0.5,3.3,0.9
				S230.4,3.6,231.5,4z M235.1,4.7l-1,0.5c-0.4-1-0.8-1.8-1.3-2.5l1-0.4C234.2,3,234.7,3.8,235.1,4.7z M237.6,4.1l-1,0.4
				c-0.4-1-0.8-1.8-1.3-2.5l0.9-0.4C236.7,2.4,237.2,3.2,237.6,4.1z"/>
		</g>
	</g>
	<g>
		<rect class="st1" width="300" height="110"/>
		<g>
			<line class="st2" x1="6.7" y1="96.9" x2="292.7" y2="96.9"/>
			<g>
				<path class="st3" d="M261.6,41.4l0.4-15.1l1.5,0.1c0,0,5.7,5.3,6.6,7c2.2,4.2-1.9,6.4-2.5,6.9l-0.9-1.2c0.7-0.5,1.1-2,1.2-2.7
					c0.5-3.2-4.4-5.1-4.4-5.1L263,43.4c-0.1,1.9-2.2,3.5-4,4c-0.6,0.2-1.2,0.2-1.9,0.2c-1.8-0.1-3.7-3.1-1.3-4.9
					c0.7-0.5,1.5-0.8,2.7-1.1C259.3,41.3,260.4,41.5,261.6,41.4z"/>
			</g>
			<g>
				<path class="st3" d="M112.8,41.4l0.4-15.1l1.5,0.1c0,0,5.7,5.3,6.6,7c2.2,4.2-1.9,6.4-2.5,6.9l-0.9-1.2c0.7-0.5,1.1-2,1.2-2.7
					c0.5-3.2-4.4-5.1-4.4-5.1l-0.3,12.1c-0.1,1.9-2.2,3.5-4,4c-0.6,0.2-1.2,0.2-1.9,0.2c-1.8-0.1-3.7-3.1-1.3-4.9
					c0.7-0.5,1.5-0.8,2.7-1.1C110.5,41.3,111.6,41.5,112.8,41.4z"/>
			</g>
			<g>
				<g>
					<line class="st4" x1="190.2" y1="66.1" x2="173.1" y2="66.1"/>
					<line class="st4" x1="181.8" y1="71.7" x2="156" y2="71.7"/>
					<line class="st4" x1="188.3" y1="77.2" x2="158.5" y2="77.2"/>
				</g>
				<g>
					<g>
						<path class="st4" d="M274.6,86.2c4.3,0,2.5,0,3,0c2.7,0,6.3,0.2,6.3-2.1c0-2.2,0.8-8.8-4.7-11.5c-1.8-0.9-9.7-5-12.8-5.8
							c-2-0.5-5.9-3.4-5.9-3.4s-7.9-14-14.2-14c-2.9,0-35.4,0-38.9,0c-8.4,0-11.6,25.7-11.6,28.7c0,3,0,7.9,4.5,7.9
							c0.5,0-2.3,0-0.5,0"/>
						<path class="st4" d="M222.4,86.2c7.6,0,21.4,0,29.2,0"/>
						<path class="st4" d="M229.2,72.8c5.6,0,6.1,0,4.3,0"/>
						<ellipse class="st5" cx="210.9" cy="85.2" rx="7.7" ry="7.6"/>
						<ellipse class="st6" cx="210.9" cy="85.2" rx="4.9" ry="4.9"/>
						<ellipse class="st5" cx="263.3" cy="85.2" rx="7.7" ry="7.6"/>
						<ellipse class="st6" cx="263.3" cy="85.2" rx="4.9" ry="4.9"/>
					</g>
					<path class="st7" d="M224.3,53.9h-13.9c-2,0-3.6,1.6-3.7,3.6l-0.4,10.3c0,0.7,0.5,1.3,1.2,1.3h16.8V53.9z"/>
					<path class="st7" d="M228,53.9H243c1.8,0,3.6,0.7,4.9,1.9l9.2,11.1c0.8,0.7,0.3,2.1-0.8,2.1H228V53.9z"/>
					<path class="st7" d="M277.6,81.2h-1.1c-1.5,0-2.7-1.2-2.7-2.7v0c0-1.5,1.2-2.7,2.7-2.7h1.1c1.5,0,2.7,1.2,2.7,2.7v0
						C280.3,79.9,279.1,81.2,277.6,81.2z"/>
					<path class="st7" d="M197.9,86.8h-1.6c-1.7,0-3.1-1.4-3.1-3.1v-4.3c0-1.7,1.4-3.1,3.1-3.1h0L197.9,86.8z"/>
				</g>
			</g>
			<g>
				<g>
					<g>
						<line class="st4" x1="40.7" y1="66.1" x2="23.6" y2="66.1"/>
						<line class="st4" x1="32.3" y1="71.7" x2="6.5" y2="71.7"/>
						<line class="st4" x1="38.8" y1="77.2" x2="9" y2="77.2"/>
					</g>
					<g>
						<g>
							<path class="st4" d="M125.1,86.2c4.3,0,2.5,0,3,0c2.7,0,6.3,0.2,6.3-2.1c0-2.2,0.8-8.8-4.7-11.5c-1.8-0.9-9.7-5-12.8-5.8
								c-2-0.5-5.9-3.4-5.9-3.4s-7.9-14-14.2-14c-2.9,0-35.4,0-38.9,0c-8.4,0-11.6,25.7-11.6,28.7c0,3,0,7.9,4.5,7.9
								c0.5,0-2.3,0-0.5,0"/>
							<path class="st4" d="M72.9,86.2c7.6,0,21.4,0,29.2,0"/>
							<path class="st4" d="M79.8,72.8c5.6,0,6.1,0,4.3,0"/>
							<ellipse class="st5" cx="61.4" cy="85.2" rx="7.7" ry="7.6"/>
							<ellipse class="st6" cx="61.4" cy="85.2" rx="4.9" ry="4.9"/>
							<ellipse class="st5" cx="113.8" cy="85.2" rx="7.7" ry="7.6"/>
							<ellipse class="st6" cx="113.8" cy="85.2" rx="4.9" ry="4.9"/>
						</g>
						<path class="st7" d="M74.9,53.9H61c-2,0-3.6,1.6-3.7,3.6l-0.4,10.3c0,0.7,0.5,1.3,1.2,1.3h16.8V53.9z"/>
						<path class="st7" d="M78.5,53.9h15.1c1.8,0,3.6,0.7,4.9,1.9l9.2,11.1c0.8,0.7,0.3,2.1-0.8,2.1H78.5V53.9z"/>
						<path class="st7" d="M48.4,86.8h-1.6c-1.7,0-3.1-1.4-3.1-3.1v-4.3c0-1.7,1.4-3.1,3.1-3.1h0L48.4,86.8z"/>
					</g>
				</g>
				<path class="st7" d="M128.1,81.2H127c-1.5,0-2.7-1.2-2.7-2.7v0c0-1.5,1.2-2.7,2.7-2.7h1.1c1.5,0,2.7,1.2,2.7,2.7v0
					C130.8,79.9,129.6,81.2,128.1,81.2z"/>
			</g>
		</g>
	</g>
</g>
</svg>
