<?xml version="1.0" encoding="utf-8"?>
<!-- Generator: Adobe Illustrator 26.0.1, SVG Export Plug-In . SVG Version: 6.00 Build 0)  -->
<svg version="1.1" id="レイヤー_1" xmlns="http://www.w3.org/2000/svg" xmlns:xlink="http://www.w3.org/1999/xlink" x="0px"
	 y="0px" width="300px" height="110px" viewBox="0 0 300 110" style="enable-background:new 0 0 300 110;" xml:space="preserve">
<style type="text/css">
	.st0{fill:#CCEDCC;}
	.st1{fill:#FFFFFF;}
	.st2{fill:none;stroke:#002A00;stroke-width:1.3;stroke-miterlimit:10;}
	.st3{fill:none;}
	.st4{fill:#00A600;}
	.st5{fill:#F27F5C;}
</style>
<g>
	<path class="st0" d="M267.2,101.4H44.3c-3.7,0-6.8-3-6.8-6.8V28.2c0-3.7,3-6.8,6.8-6.8h222.9c3.7,0,6.8,3,6.8,6.8v66.4
		C274,98.4,270.9,101.4,267.2,101.4z"/>
	<path class="st1" d="M261.8,16.1c3.7,0,6.8,3,6.8,6.8v66.4c0,3.7-3,6.8-6.8,6.8H38.9c-3.7,0-6.8-3-6.8-6.8V22.8
		c0-3.7,3-6.8,6.8-6.8H261.8z"/>
	<path class="st2" d="M54.2,16.1h207.6c3.7,0,6.8,3,6.8,6.8v10.7"/>
	<path class="st2" d="M268.6,41.3v48c0,3.7-3,6.8-6.8,6.8H38.9c-3.7,0-6.8-3-6.8-6.8V22.8c0-3.7,3-6.8,6.8-6.8h6.6"/>
	<rect class="st3" width="300" height="110"/>
	<g>
		<g>
			<g>
				<g>
					<g>
						<g>
							<g>
								<path class="st4" d="M105.6,50.6v-1h-11v1h-2.4c0.1-0.6,0.1-1.4,0.1-2.4V36.9c0-0.8,0-1.4-0.1-2.1c0.6,0.1,1.2,0.1,2.1,0.1
									h11.5c0.9,0,1.5,0,2.1-0.1c-0.1,0.6-0.1,1.2-0.1,2.1v11.4c0,1,0,1.8,0.1,2.4H105.6z M94.6,47.6h10.9V36.9H94.6V47.6z
									 M103.6,38.6c0.6,0,1,0,1.4-0.1v2c-0.4-0.1-0.8-0.1-1.4-0.1h-2.5v1.3h1.4c0.7,0,1.1,0,1.6-0.1c0,0.5-0.1,0.9-0.1,1.4v2.3
									c0,0.5,0,1,0.1,1.4c-0.5,0-0.9-0.1-1.6-0.1h-4.9c-0.6,0-1.1,0-1.6,0.1c0-0.5,0.1-1,0.1-1.4v-2.3c0-0.5,0-0.9-0.1-1.4
									c0.5,0,0.8,0.1,1.6,0.1h1.3v-1.3h-2.3c-0.6,0-1,0-1.4,0.1v-2c0.4,0.1,0.8,0.1,1.4,0.1h2.3v-0.2c0-0.5,0-0.8-0.1-1.2h2.4
									c-0.1,0.3-0.1,0.7-0.1,1.2v0.2H103.6z M98.2,43.6V45h3.7v-1.4H98.2z"/>
								<path class="st4" d="M118.2,41.3h-3.1c-0.8,0-1.4,0-1.9,0.1v-1.3h-2c0.1-0.4,0.1-0.8,0.1-1.5v-1.5c0-0.5,0-0.9-0.1-1.3
									c0.7,0.1,1.3,0.1,2.1,0.1h4.5v-0.5c0-0.5,0-0.7-0.1-1.1h2.6c-0.1,0.4-0.1,0.7-0.1,1.1v0.5h4.7c0.7,0,1.4,0,2.1-0.1
									c-0.1,0.5-0.1,0.8-0.1,1.3v1.5c0,0.5,0,1,0.1,1.5h-2v1.3c-0.5-0.1-1-0.1-1.9-0.1h-2.7v1.9h3.3c0.9,0,1.3,0,1.8-0.1v2.2
									c-0.5-0.1-1-0.1-1.8-0.1h-3.3v2.6c0.8,0.1,1.6,0.1,2.7,0.1c1.2,0,2.3-0.1,4.3-0.2c-0.3,0.9-0.4,1.4-0.6,2.4
									c-1.5,0-2.6,0.1-3.6,0.1c-2.5,0-4.3-0.2-5.6-0.7c-1.2-0.5-2.1-1.1-2.9-2.2c-0.7,1.3-1.3,2.2-2.3,3.3c-0.6-0.7-1-1.2-1.8-1.7
									c1-0.9,1.6-1.7,2.2-2.8c0.6-1.1,1.1-2.7,1.2-3.8l2.3,0.4c-0.2,0.9-0.4,1.7-0.7,2.5c0.7,1.1,1.3,1.7,2.5,2.2V41.3z
									 M124.7,37.9h-11.2v1.3c0.4,0,0.9,0.1,1.6,0.1h8c0.7,0,1.1,0,1.6-0.1V37.9z"/>
								<path class="st4" d="M145.8,37c-0.2,0.3-0.3,0.4-0.5,0.9c-1.2,2.6-2.7,4.3-5.1,5.6c-0.7-0.9-1-1.2-1.9-1.8
									c-0.1,1.9-0.4,3.1-1,4.3c-1,1.8-2.6,3.1-5.3,4.3c-0.6-1.2-0.8-1.5-1.7-2.4c2-0.6,3.2-1.4,4.2-2.5c0.9-1.1,1.2-2.4,1.2-4.9
									c0-0.7,0-0.8-0.1-1.2h2.9c-0.1,0.3-0.1,0.4-0.1,1.5c0,0.1,0,0.3,0,0.8c1.9-0.9,3-1.9,4-3.6h-8.9c-1.1,0-2,0-2.8,0.1v-2.6
									c0.9,0.1,1.4,0.1,2.8,0.1h9.3c1,0,1.2,0,1.6-0.2L145.8,37z"/>
								<path class="st4" d="M150.9,50c0.1-0.7,0.1-1.3,0.1-2.5V37.1c0-1.2,0-1.7-0.1-2.4h2.9c-0.1,0.7-0.1,1.1-0.1,2.4v2.7
									c2.8,0.9,5.2,2,8.2,3.7l-1.5,2.5c-1.6-1.1-3.9-2.3-6-3.2c-0.3-0.1-0.4-0.2-0.7-0.3v5.1c0,1.1,0,1.8,0.1,2.4H150.9z
									 M158.8,35.8c0.7,0.8,1.1,1.5,1.6,2.5l-1.6,0.8c-0.4-0.9-1-1.8-1.6-2.6L158.8,35.8z M160.9,34.9c0.8,0.9,1.1,1.4,1.6,2.4
									L161,38c-0.4-0.9-1-1.7-1.6-2.5L160.9,34.9z"/>
								<path class="st4" d="M171,35.1c-0.1,0.7-0.1,1.2-0.1,2.2l-0.1,9.5c1.9-0.4,3.4-1,4.8-2c1.5-1.1,2.6-2.3,3.5-4
									c0.8,1.1,1.1,1.4,2,2.1c-2.5,3.8-5.6,5.7-10.8,6.7c-0.6,0.1-0.8,0.2-1.1,0.3l-1.4-1.6c0.1-0.4,0.2-0.7,0.2-1.6l0.1-9.4
									c0-0.1,0-0.2,0-0.2c0-0.8,0-1.5-0.1-2L171,35.1z"/>
								<path class="st4" d="M197.3,50c-1.5-1.9-3.3-3.6-5.3-5.1c-1.6,1.9-4,3.6-6.7,4.9c-0.6-1.1-0.8-1.4-1.7-2.3
									c1.6-0.6,2.6-1.2,4-2.1c2-1.4,3.5-3.1,4.7-5.1c0.2-0.4,0.5-1,1-1.9l-5.2,0.1c-1.5,0-1.8,0.1-2.5,0.2l0-2.7
									c0.6,0.1,1.1,0.1,2.2,0.1h0.3l6.1-0.1c1,0,1.1,0,1.5-0.2L197,37c-0.2,0.2-0.4,0.5-0.6,1c-0.9,2-1.7,3.4-2.7,4.8
									c2.3,1.6,2.8,2,5.8,4.9L197.3,50z"/>
							</g>
						</g>
					</g>
					<g>
						<g>
							<path class="st4" d="M106.9,68.1c-0.3,0.3-0.3,0.3-0.6,1.2c-1.2,3.4-2.6,5.8-4.5,7.7c-1.6,1.6-3.5,2.9-6.1,4
								c-0.6-1-0.9-1.4-1.8-2.2c1.5-0.6,2.4-1,3.4-1.7c1.2-0.7,1.9-1.3,2.8-2.3c-1.2-1-2.2-1.7-3.5-2.4l1.6-1.9
								c1.6,0.9,2.4,1.4,3.4,2.2c0.8-1.2,1.3-2.3,1.8-3.7l-5.3,0.1C97.2,71,96,72.5,94.2,74c-0.7-0.8-1.1-1.1-2.2-1.7
								c2-1.5,3.4-3,4.5-5c0.5-0.9,0.9-1.7,1-2.5l2.7,0.6c-0.2,0.3-0.2,0.4-0.5,0.9c-0.2,0.3-0.2,0.4-0.4,0.8l4.7,0
								c0.3,0,0.4,0,0.7-0.1c-0.3-0.6-0.5-1-1-1.6l1.6-0.5c0.7,0.9,1,1.4,1.3,2.3l-0.7,0.2L106.9,68.1z M107.7,64.2
								c0.6,0.7,1,1.4,1.3,2.2l-1.5,0.6c-0.3-0.8-0.7-1.5-1.3-2.3L107.7,64.2z"/>
							<path class="st4" d="M123.4,66.8c-0.4,0.3-0.4,0.4-0.7,0.6c-1.4,1.4-2.7,2.5-4.2,3.6v6.9c0,1.4,0,2,0.1,2.6h-3
								c0.1-0.7,0.1-1.1,0.1-2.5v-5.3c-1.9,1.1-2.9,1.5-6.1,2.7c-0.5-1.1-0.7-1.4-1.5-2.4c3.6-1,6.6-2.4,9.4-4.6
								c1.6-1.2,2.8-2.4,3.3-3.3L123.4,66.8z"/>
							<path class="st4" d="M137.3,69.3c1.3,0,1.7,0,2.7-0.1v2.6c-0.7-0.1-1.4-0.1-2.6-0.1h-3.3c-0.2,2.4-0.5,3.5-1.3,4.9
								c-0.7,1.2-1.6,2.2-2.9,3c-0.5,0.4-0.9,0.6-1.8,1.1c-0.7-1.1-1-1.5-2-2.3c2.2-0.9,3.5-1.9,4.3-3.4c0.5-0.9,0.7-1.7,0.8-3.3
								h-4.1c-1.1,0-1.9,0-2.5,0.1v-2.6c0.8,0.1,1.2,0.1,2.6,0.1h4.1c0-0.9,0-1.5,0-1.7c0-1.2,0-1.8-0.1-2.3h2.9
								c-0.1,0.6-0.1,0.6-0.1,1.8c0,0.6,0,1.1,0,1.6c0,0.4,0,0.4,0,0.6H137.3z"/>
							<path class="st4" d="M142.5,75.3c4.4,0.5,7.8,1.3,12.1,2.7l-0.9,2.7c-2-0.8-3.7-1.3-6.5-2c-2.2-0.5-3.7-0.7-5.7-1L142.5,75.3
								z M144,70.4c2.9,0.3,5.9,0.9,9.6,2l-0.8,2.5c-1.4-0.6-2.7-0.9-5.1-1.4c-1.5-0.3-2.7-0.5-4.7-0.8L144,70.4z M144.2,65.5
								c3.7,0.4,5.8,0.8,10,1.9l-0.8,2.5c-3.2-1-6.8-1.7-10.1-2L144.2,65.5z"/>
							<path class="st4" d="M160.6,69.2c0.8,1.4,1.1,2.3,1.8,4.3l-2.4,0.7c-0.5-1.9-0.8-2.8-1.6-4.4L160.6,69.2z M170.9,69.5
								c-0.1,0.3-0.1,0.4-0.3,1c-0.5,2.4-1.3,4.3-2.3,5.8c-1.3,1.8-2.9,3-5.7,4.4c-0.6-0.9-0.8-1.2-1.7-2.1c1.4-0.5,2.1-0.9,3.2-1.6
								c2.1-1.5,3.3-3.3,4-6.1c0.2-0.9,0.3-1.4,0.3-2L170.9,69.5z M164.4,68.5c1,1.8,1.3,2.6,1.7,4.2l-2.3,0.7
								c-0.3-1.4-0.9-2.9-1.6-4.3L164.4,68.5z"/>
							<path class="st4" d="M181.5,65.4c-0.1,0.1-0.3,0.5-0.5,1c-0.2,0.4-0.2,0.5-0.4,0.9l4.7-0.1c0.6,0,1-0.1,1.3-0.2l1.3,1.3
								c-0.2,0.3-0.3,0.4-0.5,1.1c-0.9,2.7-2.1,5.1-3.7,6.9c-1.6,1.8-3.7,3.2-6.5,4.5c-0.6-1.1-0.9-1.4-1.8-2.3
								c4.8-1.8,7.6-4.6,9.1-9l-5.1,0.1c-1.1,1.7-2.5,3.2-4.1,4.5c-0.8-0.9-1.1-1.2-2.1-1.8c2.1-1.4,3.5-3,4.7-5.2
								c0.5-0.9,0.8-1.6,0.9-2.2L181.5,65.4z"/>
							<path class="st4" d="M190.2,68c0-1.1,0-1.6-0.2-2.4c0.7,0,1.2,0.1,2.5,0.1h3.5c2.2,0,3.8,0.5,5,1.6c1.3,1.2,2,3.1,2,5.4
								c0,2.4-0.7,4.3-2.1,5.6c-1.2,1.1-2.8,1.6-4.9,1.6h-3.5c-1.2,0-1.7,0-2.4,0.1c0.1-0.8,0.1-1.3,0.1-2.4V68z M195.8,77.4
								c1.3,0,2.2-0.3,2.9-1c0.8-0.8,1.2-2.1,1.2-3.7c0-1.6-0.4-2.8-1.1-3.5c-0.7-0.7-1.6-1-3-1h-2.6v9.2H195.8z"/>
							<path class="st4" d="M215,73.7c0.4,0.6,0.8,1.3,1.2,2c-0.1-0.6-0.1-1.5-0.1-2.2v-5.3c0-1.1,0-1.8-0.2-2.5h3.2
								c-0.1,0.7-0.1,1.4-0.1,2.5v9.3c0,1,0,1.8,0.1,2.4h-3.4c-0.2-0.5-0.6-1.2-1.2-2.1l-4.1-6c-0.4-0.5-0.7-1.1-1.1-2
								c0,0.2,0,0.2,0.1,0.8c0,0.3,0.1,1,0.1,1.4v5.1c0,1.2,0,2,0.1,2.7h-3.2c0.1-0.6,0.1-1.5,0.1-2.7v-9.1c0-1,0-1.7-0.1-2.4h3.3
								c0.2,0.5,0.5,1.1,1.2,2L215,73.7z"/>
							<path class="st4" d="M225.7,75.4c0.1,0.7,0.2,1.1,0.5,1.4c0.5,0.6,1.3,0.9,2.4,0.9c1.6,0,2.5-0.7,2.5-1.8
								c0-0.5-0.2-1-0.7-1.3c-0.6-0.4-1.1-0.5-3.1-1c-1.5-0.4-2.1-0.6-2.8-1.1c-1-0.7-1.5-1.8-1.5-3.1c0-2.6,2.1-4.2,5.4-4.2
								c2.1,0,3.7,0.6,4.7,1.8c0.4,0.6,0.7,1.1,0.9,2.1l-3.2,0.3c-0.1-0.5-0.2-0.8-0.5-1.1c-0.4-0.5-1.1-0.7-2-0.7
								c-1.4,0-2.3,0.7-2.3,1.7c0,0.5,0.2,0.9,0.6,1.1c0.4,0.2,0.8,0.4,1.7,0.6c2,0.4,2.8,0.6,3.5,0.9c0.7,0.3,1.4,0.9,1.8,1.5
								c0.4,0.6,0.5,1.3,0.5,2.1c0,2.9-2,4.5-5.6,4.5c-2.3,0-4.1-0.6-5-1.8c-0.6-0.7-0.8-1.4-1-2.8L225.7,75.4z"/>
						</g>
					</g>
				</g>
			</g>
		</g>
	</g>
	<path class="st5" d="M73.5,32.5c-5.6,0-10.1,4.5-10.1,9.9c0,5.5,4.5,9.9,10.1,9.9s10.1-4.5,10.1-9.9C83.6,37,79.1,32.5,73.5,32.5z
		 M73.5,47.6c-2.9,0-5.3-2.3-5.3-5.1c0-2.8,2.4-5.1,5.3-5.1c2.9,0,5.3,2.3,5.3,5.1C78.7,45.3,76.4,47.6,73.5,47.6z"/>
	<path class="st5" d="M73.5,63.1c-5.6,0-10.1,4.5-10.1,9.9c0,5.5,4.5,9.9,10.1,9.9s10.1-4.5,10.1-9.9C83.6,67.5,79.1,63.1,73.5,63.1
		z M73.5,78.1c-2.9,0-5.3-2.3-5.3-5.1c0-2.8,2.4-5.1,5.3-5.1c2.9,0,5.3,2.3,5.3,5.1C78.7,75.8,76.4,78.1,73.5,78.1z"/>
</g>
<rect class="st3" width="300" height="110"/>
</svg>
