<?xml version="1.0" encoding="utf-8"?>
<!-- Generator: Adobe Illustrator 26.0.1, SVG Export Plug-In . SVG Version: 6.00 Build 0)  -->
<svg version="1.1" id="レイヤー_1" xmlns="http://www.w3.org/2000/svg" xmlns:xlink="http://www.w3.org/1999/xlink" x="0px"
	 y="0px" width="300px" height="110.7px" viewBox="0 0 300 110.7" style="enable-background:new 0 0 300 110.7;"
	 xml:space="preserve">
<style type="text/css">
	.st0{fill:none;}
	.st1{fill:#F2A638;}
	.st2{fill:#35318F;}
	.st3{fill:#FFE2CC;}
	.st4{fill:#313131;stroke:#313131;stroke-width:0.2456;stroke-miterlimit:10;}
	.st5{fill:#313131;stroke:#313131;stroke-width:1.05;stroke-miterlimit:10;}
	.st6{fill:#999999;stroke:#002A00;stroke-linecap:round;stroke-linejoin:round;stroke-miterlimit:10;}
	.st7{fill:#00A600;stroke:#00A600;stroke-width:1.05;stroke-miterlimit:10;}
	.st8{fill:#00A600;}
	.st9{fill:#00AAE7;}
	.st10{fill:#D9E021;}
	.st11{fill:#FC5A29;}
</style>
<g>
	<g>
		<rect y="0.7" class="st0" width="300" height="110"/>
		<g>
			<g>
				<g>
					<g>
						<path class="st1" d="M154.8,106c0,0,11.2-9.3,10-25c-0.7-8.7-4-19.9-16.1-21.1c-15,0-25.4-1.4-28.2,7.6
							c-1.6,5.2-7.2,30.6-6.5,38.4H154.8z"/>
					</g>
				</g>
			</g>
			<g>
				<g>
					<g>
						<path class="st2" d="M106.1,44.1c1.2,11.8,7.3,17.5,11.5,18.9c4.2,1.4,15.6-7.8,15.6-7.8s9.9,11.7,12.5,8.1
							c6.8,0.4,18.1-12,18.5-21.1c2.2-21.2-7.9-32.4-25.7-34.3c-5.4-0.3-15.2,0.5-19.1,8.3C108.7,19,105.1,35.1,106.1,44.1z"/>
					</g>
					<path class="st2" d="M127,65c-1,3.4-2,8-3.1,8.3c-1.7,1.2-6.5-2-8.8-8.6c-3.8-12.7,3.1-14.1,5.3-10.4C125,61.2,128,60.4,127,65
						z"/>
					<g>
						<path class="st3" d="M113.7,37.3c0.3,15.9,11.4,28.7,24.8,28.4s21.8-12.1,21.6-28.1c-0.3-15.9-9.1-25.4-22.5-25.2
							C124.2,12.7,113.5,21.3,113.7,37.3z"/>
						<circle class="st3" cx="118.8" cy="47.2" r="6.4"/>
						<path class="st2" d="M133.3,11.6C105.4,18.9,114.5,44.9,115,46c0.1,0.1,0.2,0.2,0.3,0.2c0.1,0,0.3-0.1,0.3-0.3
							c0.4-2.6,3.9-6.6,8.1-10c1.3-1.5,0-4.7,4.7-10.3c-1.4,3.7-1.9,8.8-1.4,8.6c1.5-0.6,2-1,3.8-1.4c0.9-0.2,7.4-10.9,7.8-10.3
							c-3.8,6.8-3.6,9.3-3.1,9.3c0.5-0.1,3.6-0.4,6.6-0.2c0.4-0.1,5.4-6,5.7-7.2c0.4,3-0.9,6.4-1.1,7.3c10.7,0.3,14.3,7.8,14.9,7.5
							C162.2,38.8,160.5,4.4,133.3,11.6z"/>
						<g>
							<path class="st4" d="M148.8,53.2c-0.8,1.1-1.9,1.8-3.4,1.9c-1.4,0.1-3.1-0.4-3.9-1.9c-0.1-0.2,0-0.4,0.2-0.4
								c0,0,1.3,1.1,3.1,1.3c1.8,0.1,3.8-1.3,3.8-1.3C148.8,52.8,148.9,53,148.8,53.2z"/>
							<path class="st5" d="M135.7,46.1c0.1-0.7,1-2,2.5-2.4c1.3-0.3,2.8-0.1,3.9,1.2c0.2,0.3,0.1,0.6-0.2,0.4c-0.2-0.2-1.2-1-3-0.7
								c-1.8,0.2-2.3,1.4-2.5,1.6C135.9,46.6,135.7,46.3,135.7,46.1z"/>
							<path class="st5" d="M148.2,44.3c0.7-1.1,1.6-1.6,2.8-1.9c1.4-0.3,2.9,0.5,3.3,1.5c0.1,0.2,0.2,0.6-0.2,0.4
								c-0.4-0.2-0.7-1-2.4-1c-1.8,0-2.5,1.1-2.8,1.2C148.4,44.8,148.1,44.5,148.2,44.3z"/>
						</g>
					</g>
				</g>
			</g>
			<g>
				<path class="st1" d="M123.9,94.7c-3.3,1.4-8.3-0.3-10.6-5.1C111,85,95.5,51.3,95.5,51.3c-1.4-3.3,12.3-9.2,13.7-5.9l16.9,39.4
					L123.9,94.7z"/>
			</g>
			<g>
				<g>
					<path class="st6" d="M124.3,102.3h36.8c0.4,0,0.7,0.3,0.7,0.7v2.3c0,0.4-0.3,0.7-0.7,0.7h-36.8c-0.4,0-0.7-0.3-0.7-0.7V103
						C123.5,102.6,123.9,102.3,124.3,102.3z"/>
				</g>
				<path class="st6" d="M160.2,106l35.5,0c1.3,0,2.4-1.1,2.4-2.4l6.9-32.3c0-1.3-1.1-2.4-2.4-2.4l-36.4-0.1c-1.3,0-2.4,1.1-2.4,2.4
					l-6,32.4C157.7,104.9,158.8,106,160.2,106z"/>
			</g>
			<g>
				
					<ellipse transform="matrix(0.6974 -0.7167 0.7167 0.6974 -1.1167 85.4802)" class="st3" cx="100.7" cy="44.1" rx="7.3" ry="8.3"/>
				<path class="st3" d="M102,45.1l-0.2,0.1c-1.4,0.6-3-0.1-3.6-1.6l-4.4-11.3c-0.6-1.4,0.1-3,1.6-3.6l0.2-0.1
					c1.4-0.6,3,0.1,3.6,1.6l4.4,11.3C104.1,43,103.4,44.6,102,45.1z"/>
			</g>
			<g>
				<path class="st7" d="M71.8,75.5l12.8,2.3l-5.1,12.5c-0.8,2-3.1,2.6-5,1.8c-0.9-0.4-1.7-1.3-1.3-2.2c0.6-1.4,2.9-2,4.6-1.3
					c0.5,0.2,0.9,0.5,1.2,0.8l3.6-8.9l-11-2l-4,9.8c-0.8,2-3.1,2.6-5,1.8c-0.9-0.4-1.7-1.3-1.3-2.2c0.6-1.4,2.9-2,4.6-1.3
					c0.5,0.2,0.9,0.5,1.2,0.8L71.8,75.5z"/>
			</g>
		</g>
		<g>
			<path class="st8" d="M211.1,49.5L211,32.9l1.4,0c0,0,5.6,5.7,6.5,7.5c2.3,4.6-1.6,7.1-2.2,7.6l-0.9-1.3c0.6-0.6,0.9-2.2,1-3
				c0.3-3.5-4.4-5.5-4.4-5.5l0.1,13.2c0,2.1-2,3.9-3.7,4.4c-0.6,0.2-1.2,0.2-1.8,0.2c-1.7-0.1-3.6-3.4-1.4-5.4
				c0.6-0.6,1.4-0.9,2.5-1.2C208.9,49.4,209.9,49.6,211.1,49.5z"/>
		</g>
	</g>
	
		<rect x="57.3" y="30.7" transform="matrix(0.9633 0.2685 -0.2685 0.9633 11.9681 -15.3991)" class="st9" width="9.9" height="10.7"/>
	
		<rect x="184.3" y="15" transform="matrix(0.4651 0.8853 -0.8853 0.4651 119.2685 -156.6538)" class="st10" width="9.9" height="10.7"/>
	
		<rect x="225.3" y="82.4" transform="matrix(-0.3255 0.9456 -0.9456 -0.3255 388.1747 -101.4373)" class="st11" width="9.9" height="10.7"/>
</g>
<rect y="0.7" class="st0" width="300" height="110"/>
</svg>
