<svg id="レイヤー_1" data-name="レイヤー 1" xmlns="http://www.w3.org/2000/svg" width="183.42" height="151.09" viewBox="0 0 183.42 151.09"><defs><style>.cls-1{fill:#fff;}.cls-2{fill:none;stroke:#8fc31f;stroke-miterlimit:10;stroke-width:3.21px;}.cls-3{fill:#35318f;}.cls-4{fill:#f39800;}.cls-5{fill:#00aae7;}.cls-6{fill:#008cd7;}</style></defs><path class="cls-1" d="M136.43,1.61c-25.06,0-45.38,17.4-45.38,38.87,0,14.4,9.14,27,22.71,33.67l-.36,9.55,10.89-5.76a52.41,52.41,0,0,0,12.14,1.42c25.06,0,45.38-17.4,45.38-38.88S161.49,1.61,136.43,1.61Z"/><path class="cls-2" d="M136.43,1.61c-25.06,0-45.38,17.4-45.38,38.87,0,14.4,9.14,27,22.71,33.67l-.36,9.55,10.89-5.76a52.41,52.41,0,0,0,12.14,1.42c25.06,0,45.38-17.4,45.38-38.88S161.49,1.61,136.43,1.61Z"/><path class="cls-3" d="M130.14,20.19a5.25,5.25,0,0,0-.93-.89,7,7,0,0,1-.78.48,4,4,0,0,0-.46-.67v1.62a6,6,0,0,0-1-.06h-.35a5.12,5.12,0,0,0,1.47,1.75,8.42,8.42,0,0,0-.72,1.56,6.24,6.24,0,0,1-.86-1.16c0,.34,0,.86,0,1.3v2.44a13.24,13.24,0,0,0,.08,1.73h-1.85a13.24,13.24,0,0,0,.08-1.73V24.64c0-.41,0-.85,0-1.37a8.57,8.57,0,0,1-1.43,2.64,6.64,6.64,0,0,0-.8-1.77,9.43,9.43,0,0,0,2-3.47h-.63a5.91,5.91,0,0,0-1,.07V19a5.55,5.55,0,0,0,1,.07h.85V17.88l-1.3.22a4.87,4.87,0,0,0-.63-1.53,12.9,12.9,0,0,0,3.47-.78,2.77,2.77,0,0,0,.77-.38l1,1.45a11.36,11.36,0,0,1-1.63.6v1.63H127a6.16,6.16,0,0,0,.89-.05,6.31,6.31,0,0,0-.52-.5,7.1,7.1,0,0,0,1.59-1A6,6,0,0,0,130.43,16c.09-.16.23-.45.26-.53l1.77.42c-.08.11-.08.11-.26.4a2.73,2.73,0,0,1-.17.26h1.28a8.08,8.08,0,0,0,1.11-.05l.87.95c-.19.28-.19.28-.39.6a9.34,9.34,0,0,1-2.54,2.67l1.1.25-.23.34c-.07.09-.12.18-.25.34h.84a7.76,7.76,0,0,0,1.09-.05l1,1s-.05.05-.05.08a1.08,1.08,0,0,0-.12.22,2.68,2.68,0,0,1-.18.33l-.2.38A8.16,8.16,0,0,1,133.37,26a11.76,11.76,0,0,1-2.87,1.7,12.14,12.14,0,0,1-2.33.61,5.94,5.94,0,0,0-.87-1.65,8.61,8.61,0,0,0,3.61-1,6,6,0,0,0-1.17-1,12.15,12.15,0,0,1-1.16.63A5.17,5.17,0,0,0,127.52,24a9.27,9.27,0,0,0,3.78-2.54,11.1,11.1,0,0,1-2.76,1.24,4.86,4.86,0,0,0-1-1.42,9.57,9.57,0,0,0,2.65-1Zm.7-2.2c-.18.18-.25.23-.47.44a9.58,9.58,0,0,1,1.18,1A6,6,0,0,0,133,18Zm.91,5.12c-.27.26-.49.45-.76.67a9.68,9.68,0,0,1,1.3,1,6.56,6.56,0,0,0,1.46-1.65Z"/><path class="cls-3" d="M141,27.11a9.39,9.39,0,0,0,.08,1.19h-1.75a8.48,8.48,0,0,0,.08-1.27v-.67h-1.06a7.88,7.88,0,0,0-1.38.08V24.79a8.19,8.19,0,0,0,1.28.07h1.16V24.2h-.6c-.63,0-.91,0-1.41,0,0-.49.06-.94.06-1.63V20.28c0-.69,0-1-.06-1.48a12.83,12.83,0,0,0,1.4,0h.61v-.63h-1a9.6,9.6,0,0,0-1.3.06V16.65a8.26,8.26,0,0,0,1.4.07h.95v-.11a6.19,6.19,0,0,0-.08-1.07h1.75a6.87,6.87,0,0,0-.08,1.07v.11h.83a8,8,0,0,0,1.37-.07v1.62a7.06,7.06,0,0,0-1.27-.06H141v.63h.85a9,9,0,0,0,1.12,0,12.42,12.42,0,0,0,0,1.35V22.7c0,.88,0,1.21,0,1.53a10.94,10.94,0,0,0-1.18,0H141v.66h1a7.23,7.23,0,0,0,1.11-.07v1.36l.54,0a29.39,29.39,0,0,0,1-4.54,9.45,9.45,0,0,0-1.34.07V19.88a10.58,10.58,0,0,0,1.41.07h3.5a10.25,10.25,0,0,0,1.39-.07v1.76a13.06,13.06,0,0,0-1.39-.07h-1.79c0,.21,0,.21-.25,1.25s-.42,2-.75,3.13c.9-.11,1.09-.14,2-.3-.35-1-.53-1.52-.94-2.5l1.47-.61a32,32,0,0,1,1.79,4.94l-1.59.78c-.16-.6-.17-.67-.31-1.19a27.3,27.3,0,0,1-3.36.67A13.14,13.14,0,0,0,143,28l-.28-1.64c-.24,0-.49,0-.84,0H141Zm-2.2-6.9v.69h.72v-.69Zm0,1.94v.68h.72v-.68Zm2.79-1.25v-.69h-.7v.69Zm0,1.93v-.68h-.7v.68Zm2.13-6.49a9.28,9.28,0,0,0,1.37.07h2.66a9.28,9.28,0,0,0,1.37-.07v1.73l-.33,0c-.19,0-.59,0-1,0h-2.66a8.34,8.34,0,0,0-1.37.07Z"/><path class="cls-3" d="M118.57,34.45a15.91,15.91,0,0,0-1.86.09V32.63a14.79,14.79,0,0,0,1.88.09H126a13.88,13.88,0,0,0,1.86-.09v1.91a16.33,16.33,0,0,0-1.85-.09h-2.84v7.09h3.43a15.69,15.69,0,0,0,2-.1v1.94a16.36,16.36,0,0,0-2-.09H118a17.28,17.28,0,0,0-2,.09V41.44a15.88,15.88,0,0,0,2,.1h3.21V34.45Z"/><path class="cls-3" d="M135.33,38.61h-3.27a11.52,11.52,0,0,0-1.24,0V37.34a10.49,10.49,0,0,0,1.27,0h3.24V37h-2.94c-.48,0-.85,0-1.16,0a8.74,8.74,0,0,0,0-.93v-.89a9.67,9.67,0,0,0,0-1c.38,0,.65,0,1.19,0h2.91v-.47h-3.68a11,11,0,0,0-1.63.09V32.32a15.24,15.24,0,0,0,1.74.08h3.57a4.31,4.31,0,0,0-.08-.8h1.87a4,4,0,0,0-.08.8h3.69a15.37,15.37,0,0,0,1.74-.08v1.55a12.43,12.43,0,0,0-1.63-.09H137v.47h3.06c.55,0,.82,0,1.16,0,0,.31,0,.54,0,1v.89c0,.42,0,.61,0,.93a10.45,10.45,0,0,0-1.08,0H137v.44h3.1c.84,0,1.05,0,1.44,0a9.84,9.84,0,0,0,0,1.25v.47a7.9,7.9,0,0,0,1.08-.06v1.47c-.32,0-.55,0-1.08-.07v.73a10.19,10.19,0,0,0,.07,1.5h-1.8v-.53H137v.66c0,1.35-.36,1.61-2.2,1.61-.34,0-.81,0-1.29,0a4.13,4.13,0,0,0-.49-1.55,12.65,12.65,0,0,0,1.72.13c.47,0,.55-.06.55-.3v-.51h-3.21a13.37,13.37,0,0,0-1.36,0V40.82a7.32,7.32,0,0,0,1.3.06h3.27v-.49h-3.88a11,11,0,0,0-1.51.06V39a8.78,8.78,0,0,0,1.48.07h3.91ZM133,35.36v.49h2.37v-.49Zm4.08.49h2.49v-.49H137Zm2.77,3.25v-.49H137v.49ZM137,40.88h2.77v-.49H137Z"/><path class="cls-3" d="M155.37,35.38c.52,0,.78,0,1.11,0a6.1,6.1,0,0,0-.11.84c-.12.93-.2,1.23-.43,1.49a1.22,1.22,0,0,1-.87.35v2.89a13.22,13.22,0,0,0,.06,1.48c-.32,0-.79,0-1.42,0h-.59a9.35,9.35,0,0,0,3.61.76,7.15,7.15,0,0,0-1,1.41,11.42,11.42,0,0,1-4.58-1.61l.9-.56h-3.52l.89.57A11,11,0,0,1,145,44.56a6.38,6.38,0,0,0-1-1.36,11,11,0,0,0,3.52-.83h-.56c-.65,0-1.1,0-1.43,0a13.67,13.67,0,0,0,.06-1.37V38.73c-.32.11-.48.15-.95.29a5.5,5.5,0,0,0-.75-1.44,6.71,6.71,0,0,0,3.07-1.12h-1.52l-1.1,0a9,9,0,0,0,.8-2.57,10.71,10.71,0,0,0,1.12,0H148c0-.19,0-.25,0-.44h-2.14a9.57,9.57,0,0,0-1.3.06V32.32a11,11,0,0,0,1.3,0h2.16a4.07,4.07,0,0,0,0-.76h1.72a4.52,4.52,0,0,0-.05.76H151a3,3,0,0,0-.07-.76h1.75a3.39,3.39,0,0,0-.06.76h1.79c.39,0,1,0,1.36,0a8,8,0,0,0-.05,1.11V34a7.43,7.43,0,0,0,0,1c-.42,0-.85,0-1.37,0h-1.77v.43ZM146.53,35a3.35,3.35,0,0,1-.15.43h1.32c.07-.18.1-.24.16-.43Zm.71,3.56h6.12v-.43h-6.12Zm0,1.36h6.12v-.44h-6.12Zm0,1.35h6.12v-.44h-6.12ZM151,36.46h-2.05a3,3,0,0,1-.46.6H151ZM149.5,35c-.05.17-.06.24-.11.43H151V35Zm.16-1.43c0,.22,0,.28,0,.44H151v-.44Zm2.93.44H154v-.44h-1.39Zm1.12,3.1a2.9,2.9,0,0,1-.11-.27,2.79,2.79,0,0,0,.64.1c.31,0,.36,0,.4-.43h-2v.6Z"/><path class="cls-3" d="M121.44,63.89a6.28,6.28,0,0,1-1.39-2.13,13.3,13.3,0,0,1-.78-4.6,11.59,11.59,0,0,1,1.25-5.57,6.08,6.08,0,0,1,5.48-3,6.25,6.25,0,0,1,4.54,1.75,5.66,5.66,0,0,1,1.39,2.13,13.3,13.3,0,0,1,.78,4.62,12,12,0,0,1-1.22,5.57,6.68,6.68,0,0,1-10.05,1.2ZM122.69,57c0,3.82,1.12,5.79,3.31,5.79a2.68,2.68,0,0,0,2-.81c.85-.86,1.31-2.59,1.31-4.8,0-3.8-1.13-5.75-3.3-5.75S122.69,53.5,122.69,57Z"/><path class="cls-3" d="M138.3,64a16.38,16.38,0,0,0,.1,2.41h-2.93a17.49,17.49,0,0,0,.14-2.51V50.69a18.43,18.43,0,0,0-.08-2c.7.06,1.26.08,2.41.08h12.2a21.16,21.16,0,0,0,2.35-.08,22,22,0,0,0-.08,2.35V64a1.94,1.94,0,0,1-.95,2,5.5,5.5,0,0,1-2.33.3c-.66,0-1.59,0-2.49-.06a9,9,0,0,0-.76-2.55c1.18.12,2.35.2,2.87.2.84,0,1-.08,1-.48V59H138.3Zm4.28-12.76H138.3v5.27h4.28Zm7.17,5.27V51.27h-4.54v5.27Z"/><rect class="cls-4" y="66.56" width="74.94" height="9.86" rx="1.97"/><path class="cls-4" d="M25.64,76.42H2a2,2,0,0,1-2-2V37a2,2,0,0,1,2-2l23.67-5.91a2,2,0,0,1,2,2V74.45A2,2,0,0,1,25.64,76.42Z"/><path class="cls-3" d="M3.94,52.75V40.13a2,2,0,0,1,1.5-2l15.78-3.95a2,2,0,0,1,2.39,1.45,2.33,2.33,0,0,1,.06.53V52.75a2,2,0,0,1-2,2H5.92A2,2,0,0,1,3.94,52.75Z"/><rect class="cls-5" x="31.75" y="23.96" width="43.05" height="38.46" rx="1.97"/><circle class="cls-3" cx="13.81" cy="78.39" r="5.92"/><circle class="cls-3" cx="61.14" cy="78.39" r="5.92"/><path class="cls-6" d="M125.16,117.82A33.27,33.27,0,1,1,91.89,84.56a33.28,33.28,0,0,1,33.27,33.26h0"/><path class="cls-1" d="M109.89,98.76a6.61,6.61,0,1,1-6.6-6.61,6.6,6.6,0,0,1,6.6,6.61"/><path class="cls-3" d="M106.76,98.76a3.54,3.54,0,1,1-3.54-3.53h0a3.54,3.54,0,0,1,3.54,3.53"/><path class="cls-1" d="M86.74,98.76a6.61,6.61,0,1,1-6.61-6.61,6.61,6.61,0,0,1,6.61,6.61"/><path class="cls-3" d="M83.57,98.76A3.54,3.54,0,1,1,80,95.23h0a3.5,3.5,0,0,1,3.51,3.5v0"/><path class="cls-4" d="M39.91,123.45a4.53,4.53,0,0,1-1.74.45,8.69,8.69,0,0,1-1.88-.12A6.33,6.33,0,0,1,34,122.45a12.18,12.18,0,0,1-1.78-2,13.8,13.8,0,0,1-.67-2.75,6,6,0,0,1,.39-3,8.39,8.39,0,0,1,1.76-3.24,10.83,10.83,0,0,1,3-2.37l2.21-.68q-1.92-4.08-4.12-8A66.22,66.22,0,0,1,31,92.31a2.84,2.84,0,0,1,.47-.77,1.65,1.65,0,0,1,.73-.5q2.79.28,5.57.46a43.42,43.42,0,0,1,5.7.77,7.64,7.64,0,0,1,2.47,1.4A7.47,7.47,0,0,1,47.74,96a11.08,11.08,0,0,1,.56,2.56,5.86,5.86,0,0,1-.47,2.74,1.92,1.92,0,0,1-.35.7,1.2,1.2,0,0,1-1.37.44,1.45,1.45,0,0,1-.61-.29l-.38-.64a6,6,0,0,1,.32-1.82,1.8,1.8,0,0,0-.26-1.7,2.9,2.9,0,0,1-.47-.59.59.59,0,0,0-.61-.29,7.78,7.78,0,0,0-3,.07c-1,.21-2.11.45-3.44.71a67.62,67.62,0,0,0,4.8,9.15,21.64,21.64,0,0,1,3.24,9.18l-.24,1.23-.16.1.1.16a6.63,6.63,0,0,1-1.65,2.79,24.82,24.82,0,0,1-2.47,2.14l-.37.11Z"/></svg>