<?xml version="1.0" encoding="utf-8"?>
<!-- Generator: Adobe Illustrator 27.6.1, SVG Export Plug-In . SVG Version: 6.00 Build 0)  -->
<svg version="1.1" id="レイヤー_1" xmlns="http://www.w3.org/2000/svg" xmlns:xlink="http://www.w3.org/1999/xlink" x="0px"
	 y="0px" width="302.9px" height="176.6px" viewBox="0 0 302.9 176.6" style="enable-background:new 0 0 302.9 176.6;"
	 xml:space="preserve">
<style type="text/css">
	.st0{fill:#FFFFFF;}
	.st1{fill:none;stroke:#8FC31F;stroke-width:3.19;stroke-miterlimit:10;}
	.st2{enable-background:new    ;}
	.st3{fill:#35318F;}
	.st4{fill:#F39800;}
	.st5{fill:#008CD7;}
</style>
<path class="st0" d="M217.6,65.2h-1.2c13.2-6.8,21.4-16,21.4-26.3c0-20.6-33.2-37.4-74.1-37.4S89.7,18.3,89.7,39
	c0,20,31.1,36.3,70.2,37.3c-15.9,7.3-25.9,17.5-25.9,28.9c0.1,4.9,1.8,9.5,4.8,13.4l-5.3,10.4l15.8-0.8c15.1,10.3,40.1,17,68.4,17
	c46.2,0,83.7-17.9,83.7-40S263.8,65.2,217.6,65.2z"/>
<path class="st1" d="M217.6,65.2h-1.2c13.2-6.8,21.4-16,21.4-26.3c0-20.6-33.2-37.4-74.1-37.4S89.7,18.3,89.7,39
	c0,20,31.1,36.3,70.2,37.3c-15.9,7.3-25.9,17.5-25.9,28.9c0.1,4.9,1.8,9.5,4.8,13.4l-5.3,10.4l15.8-0.8c15.1,10.3,40.1,17,68.4,17
	c46.2,0,83.7-17.9,83.7-40S263.8,65.2,217.6,65.2z"/>
<g class="st2">
	<path class="st3" d="M115.2,29.7c-0.9,0.7-1.3,1.3-1.3,1.9c0,0.8,1,1.2,3.3,1.2c1.8,0,3.7-0.3,4.7-0.6l0.2,2.4
		c-0.3,0-0.3,0-1.3,0.1c-1.3,0.2-2.2,0.2-3.3,0.2c-1.7,0-3-0.2-3.8-0.5c-1.3-0.5-1.9-1.3-1.9-2.5s0.6-2.2,2-3.3L115.2,29.7z
		 M112.7,23.5c0.9,0.2,2.6,0.4,4.7,0.4c1.8,0,3-0.1,3.8-0.3l0.1,1.9c-0.9,0.4-2.6,1.5-4,2.5l-1.5-1.1c0.5-0.3,1.5-0.9,1.9-1.2
		c-0.7,0.1-1,0.1-1.7,0.1c-1,0-2.2-0.1-3-0.2c-0.3,0-0.3,0-0.5,0L112.7,23.5z M120.2,26.7c0.6,0.6,0.9,1.1,1.3,1.8l-1.2,0.7
		c-0.4-0.8-0.8-1.3-1.3-1.9L120.2,26.7z M121.8,25.8c0.5,0.6,0.9,1.1,1.3,1.8l-1.2,0.7c-0.3-0.7-0.8-1.2-1.3-1.8L121.8,25.8z"/>
</g>
<g class="st2">
	<path class="st3" d="M128.3,25c-0.9,0.2-1.2,0.2-1.9,0.3c-0.2-0.6-0.3-1-0.6-1.7c1.4-0.1,2.3-0.3,3.6-0.6c1.1-0.3,1.6-0.5,2-0.7
		l1.1,1.6c-1,0.3-1.6,0.5-2.3,0.7v1.7h1c0.5,0,0.9,0,1.2-0.1v1.8c-0.3,0-0.7-0.1-1.2-0.1h-0.9c0.7,1.1,1.2,1.7,2.3,2.5
		c-0.3,0.5-0.6,1.1-0.9,1.7c-0.7-0.7-1.1-1.2-1.5-2c0,0.4,0.1,0.9,0.1,1.5V34c0,0.9,0,1.3,0.1,1.9h-2c0.1-0.6,0.1-1,0.1-1.9v-2.1
		c0-0.5,0-1,0-1.4c-0.6,1.4-1,2.2-2,3.2c-0.3-0.8-0.6-1.3-0.9-1.9c0.6-0.5,1-1,1.4-1.7c0.4-0.6,0.9-1.5,1.1-2.1h-0.9
		c-0.6,0-0.9,0-1.3,0.1v-1.8c0.4,0.1,0.7,0.1,1.3,0.1h1.2V25z M135,23.4c-0.1,0.5-0.1,0.9-0.1,1.8v5.4c0,0.9,0,1.3,0.1,1.8h-2
		c0.1-0.4,0.1-0.7,0.1-1.7v-5.5c0-0.9,0-1.3-0.1-1.8H135z M138.4,22.5c-0.1,0.6-0.1,1.2-0.1,2v9.2c0,0.9-0.3,1.4-0.8,1.7
		c-0.4,0.2-1.1,0.2-2.2,0.2c-0.3,0-0.5,0-1,0c-0.1-0.8-0.3-1.2-0.6-1.9c0.8,0.1,1.4,0.1,1.9,0.1c0.7,0,0.8-0.1,0.8-0.4v-8.8
		c0-0.7,0-1.3-0.1-2H138.4z"/>
</g>
<g class="st2">
	<path class="st3" d="M147.8,33.6c0,0.9,0,1.3,0.1,1.8h-2c0.1-0.4,0.1-0.9,0.1-1.8v-2.2h-3.1c-0.2,2-0.6,3.2-1.4,4.5
		c-0.8-0.7-1-0.9-1.7-1.4c1.2-1.8,1.4-3.4,1.4-9.8c0-0.8,0-1.4-0.1-1.9c0.5,0,0.9,0.1,1.7,0.1h8.3c0.9,0,1.3,0,1.7-0.1
		c0,0.5-0.1,0.9-0.1,1.7V34c0,1.3-0.5,1.6-2.2,1.6c-0.4,0-1.1,0-1.6-0.1c-0.1-0.7-0.2-1.1-0.5-1.8c0.7,0.1,1.3,0.1,1.7,0.1
		c0.6,0,0.7-0.1,0.7-0.3v-2.2h-3.1V33.6z M143,28c0,0.6,0,0.9,0,1.7h2.9V28H143z M145.9,24.6h-2.9v1.7h2.9V24.6z M150.9,26.3v-1.7
		h-3.1v1.7H150.9z M147.8,29.7h3.1V28h-3.1V29.7z"/>
</g>
<g class="st2">
	<path class="st3" d="M158.9,27.6c-0.2,0-0.2,0-0.5,0h-0.2v3.6c0.4-0.2,0.6-0.3,1.2-0.6l0,1.8c-1.4,0.7-2.2,1.1-3.6,1.6
		c-0.4,0.2-0.6,0.2-0.8,0.3l-0.3-2c0.4-0.1,0.8-0.2,1.6-0.5v-4.3h-0.2c-0.5,0-0.8,0-1.1,0.1v-1.8c0.3,0.1,0.6,0.1,1.1,0.1h0.2v-1.8
		c0-0.8,0-1.2-0.1-1.7h2c-0.1,0.5-0.1,0.9-0.1,1.7v1.8h0.3c0.5,0,0.7,0,0.9-0.1v1.5c0.3-0.1,0.4-0.1,0.8-0.2v-1.8
		c0-0.7,0-1.1-0.1-1.6h2c-0.1,0.5-0.1,0.9-0.1,1.5v1.3l1.1-0.3V24c0-0.7,0-1-0.1-1.5h2c-0.1,0.5-0.1,1-0.1,1.6v1.8l2-0.6
		c0.6-0.2,0.8-0.2,1.2-0.4c0,0.5,0,0.6-0.1,1.2c0,0.3,0,0.4-0.1,1.4c-0.1,1.2-0.1,1.8-0.1,2c-0.1,1.3-0.3,1.7-0.7,2
		c-0.3,0.2-0.6,0.2-1.2,0.2c-0.2,0-0.3,0-0.7,0c-0.1-0.7-0.2-1.2-0.5-1.8c0.3,0.1,0.5,0.1,0.7,0.1c0.4,0,0.4,0,0.5-0.5
		c0.1-0.4,0.1-1.1,0.1-2.3l-1.3,0.4V31c0,0.6,0,1,0.1,1.5h-2c0.1-0.5,0.1-0.8,0.1-1.5v-2.9l-1.1,0.3v4.9c0,0.2,0.1,0.3,0.3,0.4
		c0.3,0.1,0.8,0.1,1.7,0.1c1.8,0,2.2-0.1,2.4-0.4c0.2-0.2,0.2-0.7,0.2-1.6c0.6,0.2,1.3,0.4,1.9,0.5c-0.1,1.5-0.3,2.3-0.7,2.7
		c-0.5,0.4-1.5,0.6-4,0.6c-3,0-3.7-0.3-3.7-1.6v-5c-0.1,0-0.1,0-0.2,0.1c-0.3,0.1-0.5,0.2-0.8,0.3L158.9,27.6z"/>
</g>
<g class="st2">
	<path class="st3" d="M183.2,27.5c0,0.1,0,0.1-0.1,0.3c0,0-0.1,0.3-0.3,0.9c-0.5,1.3-0.9,2.1-1.5,3.2c0.2,0.7,0.6,1.6,0.7,1.6
		c0.1,0,0.2-0.8,0.3-1.8c0.4,0.5,0.7,0.8,1.2,1.1c-0.2,1.3-0.3,2-0.6,2.4c-0.2,0.4-0.5,0.6-0.9,0.6c-0.7,0-1.5-0.8-2.1-2.2
		c-0.8,1-1.6,1.6-2.7,2.3c-0.5-0.6-0.8-0.9-1.5-1.3c0.8-0.4,1.2-0.7,2.1-1.4c-0.9,0.3-1.9,0.5-3,0.7c-0.9,0.2-1.3,0.3-1.6,0.4
		l-0.2-1.4c-1.1,0.6-1.1,0.6-2.6,1.2c-0.3,0.2-0.4,0.2-0.6,0.3l-0.4-2c0.3-0.1,0.6-0.2,1.4-0.5v-4.1h-0.3c-0.4,0-0.7,0-1,0.1v-1.8
		c0.3,0,0.6,0.1,1,0.1h0.2v-2c0-0.8,0-1.1-0.1-1.6h2c-0.1,0.5-0.1,0.8-0.1,1.6v2c0.5,0,0.7,0,1,0v1.8c-0.3,0-0.5-0.1-1-0.1v3.3
		c0.3-0.2,0.5-0.2,1-0.5v1.7c1.7-0.2,2.6-0.4,4.7-0.9v1.2c0.3-0.3,0.5-0.6,0.8-1c-0.4-1.7-0.7-3.3-0.8-5.7h-3.3
		c-0.7,0-1.3,0-1.7,0.1v-1.9c0.4,0.1,1,0.1,1.7,0.1h3.2v-0.5c0-0.6,0-0.9-0.1-1.3h2c-0.1,0.4-0.1,0.6-0.1,1.8h1.1
		c-0.3-0.6-0.5-1-0.9-1.4l1.3-0.6c0.4,0.6,0.7,0.9,1,1.5l-1,0.4c0.7,0,1,0,1.3-0.1V26c-0.4,0-1-0.1-1.6-0.1h-1.3
		c0.1,1.2,0.2,2.4,0.3,3.4c0.4-0.9,0.7-1.8,0.7-2.5L183.2,27.5z M174.3,27.7c0-0.5,0-0.8,0-0.9c0.2,0,0.6,0,0.9,0h2.4
		c0.2,0,0.6,0,0.8,0c0,0.1,0,0.3,0,0.6v3c0,0.3,0,0.7,0,0.9c-0.2,0-0.5,0-0.9,0h-2.4c-0.3,0-0.7,0-0.9,0c0-0.3,0-0.5,0-0.9V27.7z
		 M175.8,29.7h1.1v-1.4h-1.1V29.7z"/>
</g>
<g class="st2">
	<path class="st3" d="M188.3,23.2c-0.3,0.6-0.7,2.7-1,4.4c-0.1,0.9-0.2,2-0.2,2.8c0,0.3,0,0.9,0,1.1c0.3-0.8,0.4-1,0.7-1.5l1.2,0.5
		c-0.8,1.5-1.3,3.3-1.3,4.4c0,0.1,0,0.2,0,0.5l-2.1,0.1c0-0.2,0-0.3-0.1-0.6c-0.3-1.9-0.4-3.2-0.4-4.8c0-1.4,0.1-2.7,0.3-3.9
		c0.1-0.4,0.1-0.4,0.3-2c0.1-0.6,0.2-0.9,0.2-1.2L188.3,23.2z M189,25.6c0.6,0.1,1.5,0.2,2.7,0.2c0.4,0,0.7,0,1.2,0c0-1.1,0-1.1,0-2
		c0-0.3,0-0.6-0.1-0.8h2.1c-0.1,0.5-0.1,1.1-0.1,2.7c1-0.1,1.7-0.3,2.3-0.5l0.1,2c-0.2,0-0.2,0-0.6,0.1c-0.5,0.1-1.1,0.2-1.8,0.3
		c0,1.2,0,1.5,0.1,3.3c1.1,0.5,1.5,0.7,2.2,1.3c0.2,0.1,0.3,0.2,0.4,0.3l-0.8,2.1c-0.3-0.4-1-1-1.9-1.5c0,0.1,0,0.2,0,0.2
		c0,1.3-1.2,2.1-3,2.1c-2,0-3.2-1-3.2-2.5s1.3-2.6,3.2-2.6c0.4,0,0.6,0,1,0.1c0-0.5,0-1.1-0.1-2.7c-0.4,0-0.7,0-1,0
		c-0.5,0-1.8,0-2.4-0.1c-0.2,0-0.2,0-0.4,0c0,0,0,0-0.1,0L189,25.6z M192,32c-0.8,0-1.3,0.3-1.3,0.8c0,0.5,0.4,0.8,1.1,0.8
		c0.8,0,1.2-0.3,1.2-1c0-0.1,0-0.3,0-0.3C192.6,32.1,192.4,32,192,32z"/>
</g>
<g class="st2">
	<path class="st3" d="M122.8,43.8c-0.1,0.2-0.2,0.3-0.3,0.7c-0.7,2.7-1.5,4.5-2.9,6.1c-1.3,1.6-3,2.7-5.5,3.8
		c-0.5-0.9-0.7-1.2-1.5-2.1c1.3-0.4,2.1-0.8,3.1-1.4c2.2-1.4,3.7-3.4,4.3-6h-6.3c-1.2,0-1.7,0-2.2,0.1v-2.2c0.6,0.1,1.1,0.1,2.3,0.1
		h6.6c0.6,0,0.9,0,1.3-0.2L122.8,43.8z"/>
</g>
<g class="st2">
	<path class="st3" d="M128.2,42.1c-0.1,0.6-0.1,1-0.1,1.8l-0.1,7.8c1.6-0.3,2.7-0.8,3.9-1.6c1.2-0.9,2.1-1.9,2.8-3.3
		c0.6,0.9,0.9,1.1,1.7,1.8c-2.1,3.2-4.6,4.7-8.8,5.5c-0.4,0.1-0.6,0.1-0.9,0.2l-1.1-1.3c0.1-0.3,0.1-0.6,0.1-1.3l0.1-7.8
		c0-0.1,0-0.1,0-0.2c0-0.7,0-1.2-0.1-1.6L128.2,42.1z"/>
</g>
<g class="st2">
	<path class="st3" d="M140,45.1c0.6,1.2,0.9,1.9,1.4,3.6l-1.9,0.6c-0.4-1.6-0.7-2.3-1.3-3.6L140,45.1z M148.4,45.3
		c-0.1,0.2-0.1,0.3-0.2,0.8c-0.4,2-1,3.6-1.9,4.8c-1,1.5-2.3,2.5-4.6,3.7c-0.4-0.8-0.7-1-1.4-1.7c1.1-0.4,1.7-0.8,2.6-1.3
		c1.7-1.2,2.6-2.7,3.2-5c0.2-0.7,0.2-1.2,0.3-1.7L148.4,45.3z M143.1,44.5c0.8,1.5,1,2.1,1.4,3.4l-1.9,0.6c-0.3-1.1-0.7-2.4-1.3-3.5
		L143.1,44.5z"/>
</g>
<g class="st2">
	<path class="st3" d="M152.9,43c0.8,1.4,1.2,2.5,1.8,4.4l-2.1,0.7c-0.4-1.7-1-3.2-1.6-4.5L152.9,43z M163.2,43.2
		c-0.1,0.4-0.2,0.5-0.3,1.4c-0.6,2.8-1.7,5.1-3.3,6.8c-1.1,1.2-2.5,2.1-4.4,3.1c-0.5-0.8-0.7-1.1-1.5-2c1.7-0.6,2.9-1.4,4.1-2.5
		c1.2-1.1,1.9-2.3,2.5-4c0.4-1.2,0.7-2.4,0.7-3.4L163.2,43.2z M156.7,42.3c0.7,1.2,1.2,2.5,1.7,4.2l-2.1,0.7
		c-0.4-1.6-0.9-2.8-1.6-4.3L156.7,42.3z"/>
</g>
<g class="st2">
	<path class="st3" d="M170.9,43c0-0.6,0-1.1-0.1-1.5h2.1c-0.1,0.4-0.1,0.9-0.1,1.5v3.4h2.6l-1.6-0.9c0.9-1.1,1.5-2,2.1-3.5l1.8,0.8
		c-0.7,1.5-1.4,2.5-2.2,3.6h1.2c0.6,0,1.2,0,1.7-0.1v1.9c-0.5-0.1-1-0.1-1.7-0.1h-2.3v4.3c0,0.3,0.1,0.4,1,0.4
		c0.9,0,1.1-0.1,1.2-0.3c0.1-0.3,0.2-0.8,0.2-2.1c0.7,0.4,1,0.5,1.8,0.7c-0.1,1.9-0.3,2.7-0.9,3.1c-0.4,0.3-1,0.4-2.7,0.4
		c-2.3,0-2.7-0.2-2.7-1.4v-5.1h-1.5c-0.1,1.4-0.1,1.9-0.4,2.7c-0.4,1.1-1,2-2,2.8c-0.7,0.6-1.3,0.9-2.4,1.2
		c-0.4-0.7-0.6-1.1-1.1-1.8c1.4-0.3,2.3-0.8,3-1.7c0.5-0.6,0.8-1.3,0.9-2.3c0-0.3,0-0.4,0.1-1h-1.8c-0.6,0-1.1,0-1.7,0.1v-1.9
		c0.5,0.1,1.1,0.1,1.7,0.1h3.7V43z M167.7,42.1c0.9,1.2,1.3,1.8,2.1,3.4l-1.7,1c-0.8-1.6-1.2-2.3-2.1-3.5L167.7,42.1z"/>
</g>
<g class="st2">
	<path class="st3" d="M184,41.7c0.1,1,0.4,2.9,0.9,4.4c0.8-0.3,1.4-0.5,3.7-1.2c0.3-0.1,0.4-0.1,0.6-0.2l0.7,2.2
		c-1.5,0.2-3.3,0.8-5,1.4c-2,0.7-3,1.6-3,2.5c0,1,1,1.4,3.1,1.4c1.8,0,3.7-0.2,4.9-0.6l0.2,2.4c-0.3,0-0.4,0-1.2,0.1
		c-1.6,0.2-2.6,0.2-3.6,0.2c-2.5,0-4.1-0.5-4.9-1.4c-0.4-0.5-0.6-1.2-0.6-1.9c0-1,0.4-2,1.3-2.7c0.6-0.5,1.1-0.8,2-1.3
		c-0.3-1.2-0.6-2.1-0.9-3.9c-0.1-0.7-0.2-0.7-0.2-0.9L184,41.7z"/>
	<path class="st3" d="M191.9,43.3c0-0.7,0-1.1-0.1-1.5c0.3,0,1,0.1,1.8,0.1h9c0.8,0,1.4,0,1.7-0.1c0,0.4-0.1,1-0.1,1.7V53
		c0,0.7-0.2,1.2-0.7,1.4c-0.3,0.2-0.9,0.2-1.8,0.2c-0.5,0-1.1,0-1.7,0c-0.1-0.8-0.2-1.1-0.5-1.8c0.8,0.1,1.6,0.1,2.1,0.1
		c0.5,0,0.6-0.1,0.6-0.3v-9.1h-8.6V53c0,0.9,0,1.3,0.1,1.8h-2.1c0.1-0.6,0.1-1.1,0.1-1.8V43.3z M194.3,44.4c0.3,0,0.6,0.1,1.3,0.1
		h4.8c0.8,0,1,0,1.3-0.1v1.8c-0.4,0-0.7-0.1-1.3-0.1h-4.9c-0.6,0-1,0-1.3,0.1V44.4z M201.1,51.2c0,0.3,0,0.6,0,0.9c-0.4,0-0.7,0-1,0
		h-3.4v1h-1.9c0-0.4,0.1-0.8,0.1-1.3V48c0-0.4,0-0.7-0.1-1c0.4,0,0.7,0,1,0h4.1c0.6,0,0.8,0,1.1,0c0,0.3,0,0.6,0,1V51.2z
		 M196.8,50.5h2.6v-1.8h-2.6V50.5z"/>
</g>
<g class="st2">
	<path class="st3" d="M211,42c-0.1,0.9-0.3,4.7-0.3,7.2c0,1.4,0.1,1.9,0.3,2.3c0.3,0.5,1,0.7,1.8,0.7c1.5,0,2.7-0.9,3.4-2.5
		c0.3-0.8,0.5-1.4,0.6-2.5c0.9,0.7,1.3,0.9,2.1,1.3c-0.6,2.1-1,3.1-1.8,3.9c-1.1,1.2-2.6,1.9-4.4,1.9c-1.1,0-2-0.2-2.7-0.7
		c-0.6-0.4-1.1-1-1.3-1.8c-0.1-0.5-0.2-1.2-0.2-2.1c0-0.7,0-1.6,0.1-3.5c0-2,0.1-2.9,0.1-3.3c0-0.5,0-0.7-0.1-1.1L211,42z
		 M215.5,42.5c0.5,0.6,0.8,1.1,1.3,2.1l-1.3,0.6c-0.3-0.7-0.8-1.5-1.3-2.1L215.5,42.5z M217.2,41.7c0.5,0.6,0.9,1.2,1.3,2l-1.3,0.6
		c-0.3-0.8-0.8-1.4-1.3-2.1L217.2,41.7z"/>
</g>
<g class="st2">
	<path class="st3" d="M160.7,97.4c0.5,0,0.8,0,1.1-0.1c0,0.4,0,0.4-0.1,0.8c0,1.2-0.3,3-0.5,3.9c-0.2,0.9-0.7,1.5-1.4,1.7
		c-0.4,0.1-0.9,0.2-1.6,0.2c-0.6,0-1.4,0-2.2-0.1c-0.1-0.8-0.2-1.2-0.4-2c1.1,0.2,1.9,0.2,2.7,0.2c0.6,0,0.8-0.1,1-0.3
		c0.2-0.4,0.4-1.3,0.5-2.6h-4c-0.4,0-0.7,0-1.1,0c0.4-1.5,0.6-3.4,0.7-4.9c0.3,0,0.6,0,1.1,0h3.3v-1.5h-3.3c-0.6,0-1.1,0-1.6,0.1V91
		c0.4,0.1,1,0.1,1.6,0.1h3.8c0.6,0,1.1,0,1.5-0.1c0,0.4,0,0.7,0,1.2v2.6c0,0.5,0,0.8,0,1.2c-0.3,0-0.8,0-1.3,0h-3.2
		c-0.1,0.5-0.1,0.9-0.2,1.5H160.7z M166.5,90.8c-0.1,0.6-0.1,0.9-0.1,1.7v9.7c0,0.9,0,1.3,0.1,1.9h-2.1c0.1-0.6,0.1-1,0.1-1.9v-9.6
		c0-0.8,0-1.1-0.1-1.7H166.5z"/>
</g>
<g class="st2">
	<path class="st3" d="M182.2,95.3c-0.1,0.2-0.1,0.3-0.3,0.8c-0.5,1.3-0.9,2.1-1.2,2.8c0.3,0.6,0.4,0.8,0.6,0.8
		c0.1,0,0.2-0.6,0.3-1.5c0.4,0.4,0.7,0.6,1.2,0.8c-0.1,0.9-0.2,1.3-0.3,1.7c-0.2,0.6-0.5,0.9-1,0.9c-0.6,0-1.2-0.4-1.7-1.2
		c-0.4,0.5-0.7,0.8-1.5,1.5c-0.7-0.8-0.7-0.8-1.2-1.2c1-0.7,1.5-1.1,2-1.8c-0.4-1.2-0.7-2.7-0.8-4.7h-1v4.3c0.5-0.2,0.5-0.3,1-0.6
		l0.1,1.6c-1,0.6-1.9,1.1-2.9,1.6c-0.3,0.1-0.5,0.2-0.6,0.3l-0.4-1.7c-0.2,0-0.3,0-0.5,0h-0.3v2.1c0.6,0.3,0.9,0.3,1.8,0.4
		c0.4,0,2.2,0.1,2.9,0.1c1.6,0,3.3-0.1,4.4-0.2c-0.3,0.8-0.4,1.2-0.5,1.9c-1,0-3,0.1-4.4,0.1c-2.4,0-3.6-0.1-4.5-0.5
		c-0.9-0.3-1.5-0.9-2.3-1.9c-0.2,1.1-0.4,1.5-0.8,2.6c-0.6-0.7-0.8-0.9-1.3-1.3c0.7-1.3,1-2.9,1-4.8c0-0.2,0-0.4,0-0.6l1.6,0.1
		c0,0.2,0,0.2,0,0.9c0,0.4,0,0.7-0.1,1.3c0.2,0.3,0.4,0.6,0.7,0.9v-3.8h-1.4c-0.7,0-1,0-1.4,0.1V95c0.4,0.1,0.7,0.1,1.4,0.1h1v-1.3
		h-0.7c-0.6,0-0.9,0-1.3,0.1v-1.8c0.4,0.1,0.6,0.1,1.3,0.1h0.7v-0.3c0-0.6,0-0.9-0.1-1.2h1.9c-0.1,0.4-0.1,0.6-0.1,1.2v0.3h0.4
		c0.7,0,0.9,0,1.3-0.1v1.8c-0.4-0.1-0.6-0.1-1.3-0.1h-0.4v1.3h0.6c0.7,0,1,0,1.3-0.1v1.8c-0.4-0.1-0.7-0.1-1.3-0.1h-0.3V98h0.3
		c0.6,0,0.8,0,1.2-0.1v1.4l0.4-0.2v-5.3c0-0.7,0-1-0.1-1.5c0.4,0,0.8,0.1,1.5,0.1h1.1c0-1.5,0-1.5-0.1-1.8h1.8
		c-0.1,0.5-0.1,0.7-0.1,1.8h1.3c-0.4-0.5-0.5-0.7-1.1-1.3l1-0.6c0.6,0.5,0.8,0.8,1.3,1.4l-1,0.6c0.7,0,0.9,0,1.2-0.1v1.7
		c-0.4,0-0.7-0.1-1.2-0.1h-1.5c0.1,1.2,0.2,2.1,0.3,2.8c0.3-0.8,0.6-1.5,0.7-2.2L182.2,95.3z"/>
</g>
<g class="st2">
	<path class="st3" d="M186.8,91.2c-0.1,0.9-0.3,4.7-0.3,7.2c0,1.4,0.1,1.9,0.3,2.3c0.3,0.5,1,0.7,1.8,0.7c1.5,0,2.7-0.9,3.4-2.5
		c0.3-0.8,0.5-1.4,0.6-2.5c0.9,0.7,1.3,0.9,2.1,1.3c-0.6,2.1-1,3.1-1.8,3.9c-1.1,1.2-2.6,1.9-4.4,1.9c-1.1,0-2-0.2-2.7-0.7
		c-0.6-0.4-1.1-1-1.3-1.8c-0.1-0.5-0.2-1.2-0.2-2.1c0-0.7,0-1.6,0.1-3.5c0-2,0.1-2.9,0.1-3.3c0-0.5,0-0.7-0.1-1.1L186.8,91.2z"/>
</g>
<g class="st2">
	<path class="st3" d="M199.1,93.1c-0.7,0-1.1,0-1.6,0.1v-1.7c0.4,0.1,0.8,0.1,1.6,0.1h3.9c0-0.4,0-0.6-0.1-1h2
		c-0.1,0.3-0.1,0.7-0.1,1h4.1c0.8,0,1.2,0,1.6-0.1v1.7c-0.5,0-0.9-0.1-1.6-0.1h-4.2v0.6h3.1c0.8,0,1.1,0,1.4,0
		c0,0.5-0.1,0.7-0.1,1.2v2.8c0,0.5,0,0.8,0.1,1.2c-0.4,0-0.6,0-1.4,0v0.6h0.9c0.8,0,1.2,0,1.6-0.1v1.7c-0.5,0-1-0.1-1.6-0.1h-1v1.7
		c0,1.1-0.6,1.4-2.4,1.4c-0.2,0-0.6,0-1.1,0c-0.1-0.8-0.3-1.2-0.5-1.7c0.6,0.1,1.1,0.1,1.6,0.1c0.5,0,0.6,0,0.6-0.3v-1.1h-4.7
		c0.8,0.6,1.4,1.1,2,1.8l-1.5,1.2c-0.8-1-1.2-1.4-2.1-2l1.3-1h-2.1c-0.5,0-1.1,0-1.6,0.1v-1.7c0.4,0.1,0.8,0.1,1.6,0.1h7.1v-0.6
		h-6.1c-0.7,0-1,0-1.4,0c0-0.4,0.1-0.7,0.1-1.2v-2.8c0-0.5,0-0.8-0.1-1.2c0.4,0,0.7,0,1.4,0h2.9v-0.6H199.1z M200.6,95v0.6h2.5V95
		H200.6z M200.6,96.8v0.7h2.5v-0.7H200.6z M204.8,95.6h2.7V95h-2.7V95.6z M204.8,97.5h2.7v-0.7h-2.7V97.5z"/>
</g>
<g class="st2">
	<path class="st3" d="M219.5,101.9c0,0.9,0,1.3,0.1,1.8h-2c0.1-0.4,0.1-0.9,0.1-1.8v-2.2h-3.1c-0.2,2-0.6,3.2-1.4,4.5
		c-0.8-0.7-1-0.9-1.7-1.4c1.2-1.8,1.4-3.4,1.4-9.8c0-0.8,0-1.4-0.1-1.9c0.5,0,0.9,0.1,1.7,0.1h8.3c0.9,0,1.3,0,1.7-0.1
		c0,0.5-0.1,0.9-0.1,1.7v9.5c0,1.3-0.5,1.6-2.2,1.6c-0.4,0-1.1,0-1.6-0.1c-0.1-0.7-0.2-1.1-0.5-1.8c0.7,0.1,1.3,0.1,1.7,0.1
		c0.6,0,0.7-0.1,0.7-0.3v-2.2h-3.1V101.9z M214.8,96.2c0,0.6,0,0.9,0,1.7h2.9v-1.7H214.8z M217.7,92.9h-2.9v1.7h2.9V92.9z
		 M222.6,94.5v-1.7h-3.1v1.7H222.6z M219.5,97.9h3.1v-1.7h-3.1V97.9z"/>
</g>
<g class="st2">
	<path class="st3" d="M232.8,99.7c-0.8,1.8-1.8,2.7-3,2.7c-1.8,0-3.1-1.8-3.1-4.2c0-1.7,0.6-3.2,1.6-4.3c1.2-1.4,3-2.1,5.1-2.1
		c3.6,0,6,2.2,6,5.6c0,2.6-1.3,4.7-3.6,5.6c-0.7,0.3-1.3,0.4-2.3,0.6c-0.3-0.9-0.5-1.3-1.1-2.1c1.3-0.1,2.2-0.3,2.9-0.7
		c1.2-0.7,2-2,2-3.6c0-1.3-0.6-2.4-1.6-3c-0.4-0.3-0.8-0.4-1.3-0.5C234.1,96.1,233.6,98,232.8,99.7z M230.5,94.4
		c-1.1,0.9-1.8,2.3-1.8,3.7c0,1.1,0.5,2,1,2c0.4,0,0.9-0.6,1.3-1.7c0.5-1.3,1-3.1,1.2-4.7C231.6,93.8,231.1,94,230.5,94.4z"/>
</g>
<g class="st2">
	<path class="st3" d="M241.2,102.5c0.5-0.5,0.6-0.8,0.9-1.3c0.3-0.6,0.5-1,0.7-1.8l1.7,0.7c-0.5,1.6-0.9,2.5-1.8,3.7L241.2,102.5z
		 M248.7,98.8c-2.4,0.2-3.5,0.2-5,0.3c-0.8,0-0.8,0-1.3,0.1l-0.2-1.9c0.3,0,0.6,0,1.1,0c0.3,0,1,0,1.5,0c0.6-0.7,1.1-1.5,1.5-2.2
		c-0.8,0.7-1.6,1-3.2,1.4c-0.3-0.6-0.5-0.9-1-1.5c1.5-0.2,2.1-0.4,2.7-0.9c0.4-0.3,0.6-0.6,0.8-1h-2.2v1.5h-1.9
		c0.1-0.3,0.1-0.6,0.1-1.1v-1c0-0.5,0-0.7-0.1-1.1c0.4,0,0.9,0.1,1.7,0.1h3.8v-0.2c0-0.4,0-0.6-0.1-0.9h2.1c0,0.3-0.1,0.5-0.1,0.9
		v0.2h4c0.8,0,1.2,0,1.7-0.1c0,0.3-0.1,0.6-0.1,1.1v0.8c0,0.5,0,0.9,0.1,1.2h-1c-0.2,1-0.5,1.1-2.2,1.2c0.9,0.7,1.8,1.6,2.8,2.7
		l-1.3,0.9c0.7,0.9,1.3,1.8,2.1,3.1l-1.7,1.1c-0.6-1.1-0.8-1.6-1.3-2.3c-0.1,1.3-0.3,1.7-0.6,2.1c-0.4,0.4-1,0.5-3.5,0.5
		c-2.5,0-3-0.2-3-1.4v-2c0-0.5,0-0.8-0.1-1.1h1.9c0,0.3-0.1,0.5-0.1,0.9v1.5c0,0.2,0,0.3,0.1,0.4c0.2,0.1,0.4,0.1,0.9,0.1
		c1.6,0,2,0,2.2-0.2c0.1-0.1,0.2-0.5,0.2-1.3c0.6,0.2,1.1,0.4,1.7,0.5c-0.3-0.5-0.4-0.7-0.9-1.2l1.2-0.7c-0.2-0.3-0.3-0.4-0.6-0.7
		c-1.6,0.2-2,0.2-2.8,0.3c0.7,0.6,0.9,0.9,1.5,1.8l-1.7,1c-0.5-0.9-0.8-1.2-1.5-2L248.7,98.8z M248.3,95.3c-0.6,0.9-0.9,1.3-1.5,2
		c2.3-0.1,2.3-0.1,3.5-0.2c-0.3-0.3-0.4-0.4-0.9-0.8l1-0.5c-0.7,0-1,0-1.4-0.1c-0.5-0.1-0.7-0.3-0.7-0.9v-1.6h-0.9
		c-0.4,0.9-0.6,1.2-1.1,1.7L248.3,95.3z M250.1,94.2c0,0.2,0.1,0.3,0.5,0.3c1.2,0,1.2,0,1.2-0.8c0.3,0.1,0.4,0.2,0.7,0.2v-0.7h-2.5
		V94.2z"/>
</g>
<g class="st2">
	<path class="st3" d="M256.7,103.6c0.1-0.5,0.1-1.1,0.1-1.9v-8.5c0-0.7,0-1.1-0.1-1.6c0.5,0.1,0.9,0.1,1.6,0.1h8.5
		c0.7,0,1.1,0,1.6-0.1c-0.1,0.5-0.1,0.9-0.1,1.6v8.5c0,0.8,0,1.4,0.1,1.9h-2.1v-1h-7.5v1H256.7z M258.8,100.7h7.5v-7.1h-7.5V100.7z"
		/>
</g>
<g class="st2">
	<path class="st3" d="M270.2,92.5c0.3,0,0.5,0,0.6,0c0.3,0,0.4,0,2.4-0.1c1-0.1,3.5-0.2,7.5-0.4c1.3-0.1,1.4-0.1,1.6-0.1l0.1,2.2
		c-0.2,0-0.2,0-0.3,0c-0.9,0-2.1,0.3-3.1,0.9c-1.6,0.9-2.6,2.3-2.6,3.6c0,1.1,0.7,1.9,1.9,2.2c0.7,0.2,1.6,0.3,2.1,0.3
		c0.1,0,0.2,0,0.4,0l-0.3,2.3c-0.2,0-0.2,0-0.5-0.1c-1.6-0.2-2.6-0.4-3.5-0.9c-1.5-0.8-2.3-2-2.3-3.7c0-2,1-3.6,3.1-4.7
		c-1.4,0.2-1.5,0.2-4.7,0.4c-0.8,0.1-1.6,0.2-2.1,0.3L270.2,92.5z M280.3,97.6c-0.4-0.8-0.7-1.3-1.2-2l1.2-0.6
		c0.5,0.6,0.8,1.1,1.2,2L280.3,97.6z M282,96.8c-0.4-0.8-0.7-1.3-1.2-1.9l1.2-0.5c0.5,0.6,0.7,0.9,1.2,1.9L282,96.8z"/>
</g>
<g class="st2">
	<path class="st3" d="M160.5,112.1c-1.6,0.1-2.5,0.2-4.4,0.2c-0.2-0.7-0.2-0.9-0.6-1.7h1c2.3,0,5.1-0.2,6.9-0.5
		c1.1-0.2,1.4-0.3,2.1-0.6l1.4,1.7c-1.3,0.3-2.9,0.6-4.4,0.7v1.6h2.8c0.9,0,1.4,0,1.9-0.1v1.9c-0.5,0-1.1-0.1-1.9-0.1h-2.8v1.5h3.5
		c0.9,0,1.4,0,1.9-0.1v1.9c-0.5-0.1-1-0.1-1.9-0.1h-3.5v2.6c0,0.7-0.2,1.2-0.6,1.4c-0.4,0.2-1,0.3-1.8,0.3c-0.4,0-1.1,0-2-0.1
		c-0.1-0.8-0.2-1.2-0.5-1.9c1,0.1,1.8,0.2,2.4,0.2c0.4,0,0.5-0.1,0.5-0.4v-2h-3.9c-0.8,0-1.4,0-1.9,0.1v-1.9c0.5,0.1,1,0.1,1.9,0.1
		h3.9v-1.5h-3c-0.7,0-1.4,0-1.9,0.1v-1.9c0.5,0.1,1,0.1,1.9,0.1h3V112.1z"/>
</g>
<g class="st2">
	<path class="st3" d="M171.2,118c-0.1,2.2-0.2,3.1-0.5,4.5l-1.3-0.7c0.3-1.2,0.4-1.9,0.5-4L171.2,118z M169.4,115.7
		c0.2,0,0.3,0,0.7,0c0.1,0,0.2,0,0.5,0c0.1-0.1,0.1-0.1,0.2-0.3c0.1-0.1,0.1-0.2,0.4-0.6c-0.5-0.7-1.1-1.4-1.8-2.2l0.8-1.5l0.5,0.5
		c0.4-0.8,0.8-1.6,1-2.2l1.6,0.6c-0.1,0.2-0.1,0.2-0.3,0.6c-0.4,0.8-0.9,1.6-1.2,2.2c0.2,0.3,0.2,0.3,0.4,0.6
		c0.9-1.5,1.1-1.8,1.3-2.4l1.4,0.8v-1.2c0.4,0.1,0.9,0.1,1.7,0.1h1.2c0-0.5,0-0.8-0.1-1.1h2c-0.1,0.3-0.1,0.5-0.1,1.1h1.6
		c0.7,0,1.2,0,1.7-0.1v1.7c-0.4-0.1-0.8-0.1-1.6-0.1h-1.6v0.8h1.3c0.7,0,1.1,0,1.5-0.1v1.7c-0.3-0.1-0.8-0.1-1.5-0.1h-4.2
		c-0.7,0-1.1,0-1.5,0.1V113c0.4,0.1,0.8,0.1,1.5,0.1h1.1v-0.8h-1.2c-0.8,0-1.3,0-1.7,0.1v-0.4c-0.1,0.2-0.1,0.2-0.6,1
		c-0.4,0.7-1.4,2.1-1.9,2.7c0.7,0,0.8,0,1.3-0.1c-0.1-0.4-0.2-0.6-0.4-1.1l1.2-0.4c0.3,0.9,0.5,1.5,0.7,2.5v-0.3c0-0.6,0-0.8,0-1.1
		c0.3,0,0.5,0,1.3,0h5c0.6,0,1,0,1.3-0.1c0,0.3-0.1,0.6-0.1,1.1v0.9c0,0.5,0,0.8,0.1,1.1h-1.8v-1.5h-4.2v0.6h1.6
		c0,0.3,0,0.3-0.1,1.1c-0.1,1.3-0.4,2.3-1,3c-0.5,0.7-1,1-2.2,1.6c-0.3-0.7-0.6-1.1-1.1-1.6c0.8-0.3,1-0.4,1.4-0.6
		c0.9-0.6,1.2-1.3,1.2-2.6h-1.4c0-0.3,0-0.5,0-1l-1.1,0.4L174,117c-0.3,0-0.4,0.1-0.8,0.1v4.5c0,0.8,0,1.1,0.1,1.6h-1.8
		c0.1-0.5,0.1-0.8,0.1-1.6v-4.4c-0.2,0-0.4,0-0.6,0c-0.3,0-0.5,0-0.5,0c-0.5,0-0.7,0-0.9,0.1L169.4,115.7z M174.6,117.7
		c0.1,0.7,0.1,1,0.2,1.6c0.1,1.1,0.1,1.1,0.1,1.5l-1.2,0.3c-0.1-1.7-0.1-2.1-0.3-3.1L174.6,117.7z M180.6,117.3
		c0,0.3-0.1,0.6-0.1,0.9v2.7c0,0.2,0.1,0.3,0.3,0.3c0.2,0,0.4-0.1,0.5-0.1c0.1-0.2,0.2-0.8,0.2-1.8c0.5,0.3,1,0.5,1.6,0.6
		c-0.2,2.8-0.4,3-2.4,3c-1.4,0-1.8-0.3-1.8-1.3v-3.3c0-0.4,0-0.7-0.1-0.9H180.6z"/>
</g>
<g class="st2">
	<path class="st3" d="M184.8,111.7c0.4,0,0.9,0.1,1.6,0.1c0.8,0,2.2-0.1,2.8-0.1c0-0.1,0-0.1-0.2-0.5c0,0-0.1-0.2-0.2-0.4
		c-0.1-0.4-0.2-0.5-0.3-0.7l2.2-0.3c0.1,0.4,0.2,0.8,0.5,1.6c1.5-0.2,2.9-0.5,3.9-0.8l0.2,1.8c-1.7,0.4-3,0.6-3.5,0.7
		c0.2,0.5,0.2,0.5,0.4,1c1.8-0.3,2.6-0.5,3.4-0.8l0.2,1.9c-0.2,0-0.8,0.1-1.8,0.4c-0.7,0.1-0.7,0.1-1,0.2c0.7,1.2,0.9,1.5,1.9,2.7
		l-1.7,1c-0.9-0.4-1.9-0.6-3.2-0.6c-1.8,0-2.8,0.4-2.8,1.1c0,0.4,0.3,0.7,1,0.9c0.3,0.1,1,0.1,1.5,0.1c1.5,0,3.6-0.4,4.6-0.9
		l0.3,2.1c-0.4,0.1-0.4,0.1-1,0.2c-1.3,0.3-2.6,0.5-4,0.5c-2,0-3.5-0.4-4.1-1.3c-0.3-0.4-0.6-1-0.6-1.6c0-1,0.7-1.9,1.7-2.3
		c0.8-0.4,1.7-0.5,3-0.5c0.9,0,1.6,0.1,2.3,0.2c-0.1-0.1-0.1-0.1-0.3-0.4s-0.2-0.3-0.4-0.7c-0.1-0.2-0.1-0.2-0.2-0.3
		c-1.3,0.2-2.8,0.3-5.6,0.4c-0.3,0-0.4,0-0.6,0l-0.1-1.9c0.4,0.1,0.6,0.1,1.4,0.1c1.5,0,2.7-0.1,4.1-0.3c-0.1-0.2-0.1-0.2-0.2-0.5
		c-0.1-0.3-0.2-0.3-0.2-0.5c-1.5,0.1-2,0.2-4.3,0.2c-0.2,0-0.3,0-0.6,0L184.8,111.7z"/>
</g>
<g class="st2">
	<path class="st3" d="M208.7,122.6c-1.2-1.5-2.7-3-4.3-4.2c-1.3,1.5-3.2,3-5.4,4c-0.5-0.9-0.7-1.2-1.4-1.9c1.3-0.5,2.1-1,3.2-1.8
		c1.6-1.2,2.9-2.6,3.8-4.2c0.2-0.3,0.4-0.8,0.8-1.6l-4.2,0.1c-1.2,0-1.5,0-2,0.1l0-2.2c0.5,0.1,0.9,0.1,1.8,0.1h0.3l4.9-0.1
		c0.8,0,0.9,0,1.2-0.2l1.1,1.2c-0.2,0.2-0.3,0.4-0.5,0.8c-0.7,1.6-1.3,2.8-2.2,3.9c1.9,1.3,2.2,1.7,4.7,4L208.7,122.6z"/>
</g>
<g class="st2">
	<path class="st3" d="M218.8,110.5c-0.1,0.3-0.2,0.4-0.4,1.1c-1,3.2-1.9,5.9-2.8,8.1c2.9-0.2,4.3-0.4,5.5-0.7
		c-0.1-0.3-0.3-0.6-0.6-1.2c-0.6-1.2-0.9-1.6-1.3-2.3l2-0.8c1.4,2.1,2.6,4.5,3.5,6.8l-2.1,1.1c-0.2-0.6-0.2-0.6-0.6-1.7
		c-2.2,0.4-3.9,0.7-8.6,1.1c-0.8,0.1-1,0.1-1.4,0.2l-0.3-2.3c0.2,0,0.2,0,0.4,0c0.3,0,0.6,0,1.2,0c0.9-2.2,1.7-4.5,2.4-7.2
		c0.4-1.4,0.5-2,0.6-2.7L218.8,110.5z"/>
</g>
<g class="st2">
	<path class="st3" d="M226.7,115.1c0.7,0.1,1.2,0.1,2.7,0.1h7.3c1.5,0,2,0,2.7-0.1v2.4c-0.6,0-1.5-0.1-2.7-0.1h-7.3
		c-1.3,0-2.1,0-2.7,0.1V115.1z"/>
</g>
<g class="st2">
	<path class="st3" d="M250.8,122.7c-1.2-1.5-2.7-3-4.3-4.2c-1.3,1.5-3.2,3-5.4,4.1c-0.5-0.9-0.7-1.2-1.4-1.9c1.3-0.5,2.1-1,3.2-1.8
		c1.6-1.2,2.9-2.6,3.8-4.2c0.2-0.3,0.4-0.8,0.8-1.6l-4.2,0.1c-1.2,0-1.5,0-2,0.1l0-2.2c0.5,0.1,0.9,0.1,1.8,0.1h0.3l4.7-0.1
		c0.8,0,0.9,0,1.2-0.2l1.2,1.4c-0.2,0.2-0.3,0.4-0.5,0.8c-0.6,1.3-1.3,2.6-2.1,3.7c1.9,1.3,2.2,1.7,4.7,4L250.8,122.7z M250.7,109.9
		c0.5,0.7,0.8,1.2,1.2,2l-1.2,0.5c-0.3-0.8-0.6-1.3-1.2-2L250.7,109.9z M252.4,109.2c0.5,0.7,0.8,1.2,1.2,1.9l-1.2,0.6
		c-0.3-0.8-0.7-1.3-1.1-2L252.4,109.2z"/>
</g>
<path class="st4" d="M3.2,148.3h113.3c1.7,0,3.2,1.4,3.2,3.1v9.4c0,1.7-1.4,3.1-3.2,3.1H3.2c-1.7,0-3.2-1.4-3.2-3.1v-9.4
	C0,149.7,1.4,148.3,3.2,148.3z"/>
<path class="st4" d="M40.9,164H3.2c-1.7,0-3.1-1.4-3.2-3.1v-59.8c0-1.7,1.4-3.2,3.1-3.2c0,0,0,0,0,0l37.8-9.4c1.7,0,3.2,1.4,3.2,3.2
	l0,0v69.2C44.1,162.6,42.6,164,40.9,164z"/>
<path class="st3" d="M6.3,126.2v-20.1c0-1.5,1-2.8,2.4-3.1l25.2-6.3c1.7-0.4,3.4,0.6,3.8,2.3c0.1,0.3,0.1,0.6,0.1,0.8v26.4
	c0,1.7-1.4,3.1-3.1,3.1H9.4C7.7,129.4,6.3,128,6.3,126.2C6.3,126.3,6.3,126.3,6.3,126.2z"/>
<circle class="st3" cx="22" cy="167.1" r="9.4"/>
<circle class="st3" cx="97.6" cy="167.1" r="9.4"/>
<path class="st5" d="M119.3,109.9c0,19.5-15.8,35.2-35.2,35.2c-19.5,0-35.2-15.8-35.2-35.2c0-19.5,15.8-35.2,35.2-35.2
	S119.3,90.5,119.3,109.9C119.3,109.9,119.3,109.9,119.3,109.9L119.3,109.9"/>
<path class="st0" d="M103.2,89.7c0,3.9-3.1,7-7,7s-7-3.1-7-7s3.1-7,7-7S103.2,85.9,103.2,89.7L103.2,89.7"/>
<path class="st3" d="M99.8,89.7c0,2.1-1.7,3.8-3.7,3.8s-3.8-1.7-3.8-3.7c0-2.1,1.7-3.8,3.7-3.8c0,0,0,0,0,0l0,0
	C98.1,86,99.8,87.7,99.8,89.7"/>
<path class="st0" d="M78.6,89.7c0,3.9-3.1,7-7,7s-7-3.1-7-7s3.1-7,7-7S78.6,85.9,78.6,89.7L78.6,89.7"/>
<path class="st3" d="M75.3,89.7c0,2.1-1.7,3.8-3.7,3.8c-2.1,0-3.8-1.7-3.8-3.7c0-2.1,1.7-3.8,3.7-3.8c0,0,0,0,0,0l0,0
	C73.6,86,75.2,87.7,75.3,89.7L75.3,89.7"/>
</svg>
