<svg id="レイヤー_1" data-name="レイヤー 1" xmlns="http://www.w3.org/2000/svg" width="165" height="139" viewBox="0 0 165 139"><defs><style>.cls-1{fill:#58cde0;}.cls-2{fill:#35318f;}.cls-3{fill:#ffe2cc;}.cls-4{fill:#3a3a3a;}.cls-5{fill:#fff;stroke-width:2.13px;}.cls-5,.cls-6{stroke:#ccc;stroke-miterlimit:10;}.cls-6{fill:none;stroke-linecap:round;stroke-width:2.24px;}.cls-7{fill:#8fc31f;}</style></defs><path class="cls-1" d="M68,85.66h39.67A11.07,11.07,0,0,1,118.7,96.73V138.4a0,0,0,0,1,0,0H56.89a0,0,0,0,1,0,0V96.73A11.07,11.07,0,0,1,68,85.66Z"/><rect class="cls-1" x="33.22" y="100.92" width="48.11" height="16.22" rx="8.11" transform="translate(-65.78 104.11) rotate(-60)"/><path class="cls-2" d="M127.11,39.18c0-9.57-2.72-18.74-11.23-24.1h.55c4.69.29,7.3.3,7.3.3a5.53,5.53,0,0,0-6.35-5,13.12,13.12,0,0,0-5.73,1.73C102.78,3.29,92.73,3.4,87.12,3.4a37.66,37.66,0,0,0-21.84,7.24C57.5,13.53,48,13.52,48.59,15.55c.28.95,3.47,3,7.34,4.46a37.7,37.7,0,0,0-6.72,16.77c-.58,2.18-2.81,9.86-6.05,11.63a2.77,2.77,0,0,0,1.55,2c1.13.61,2.68,1.15,5-.87,2.72,12.29,14.64,23.61,19.77,26.85s17.69-.25,17.69-.25,13.8.77,19.76-.84,16.91-12.44,19.17-25.5v0c2.2,1.78,3.68,1.25,4.78.66a2.77,2.77,0,0,0,1.55-2C130,47.07,128.12,42.35,127.11,39.18Z"/><ellipse class="cls-3" cx="87.79" cy="47.86" rx="35.29" ry="40.8"/><circle class="cls-3" cx="53.06" cy="57.54" r="8.86"/><circle class="cls-3" cx="122.5" cy="57.54" r="8.86"/><circle class="cls-4" cx="76.9" cy="53.35" r="3.52"/><circle class="cls-4" cx="98.32" cy="53.34" r="3.52"/><path class="cls-2" d="M57.9,54.81S54.92,37.45,79.31,24c0,0-5.7,12.47-4.06,13.76,0,0,10,.34,18.34-12.61,0,0-4.2,9.82-2.92,12.22A20.44,20.44,0,0,0,104.17,25s5.67,14,14.3,20.83c0,0,2.12,5.3.35,8.83,0,0,6-4.95,6-10.6s-.71-19.79-8.48-26.51S94.43.57,81,5.17,54.49,19.31,51.67,34.51,57.9,54.81,57.9,54.81Z"/><path class="cls-4" d="M87.84,66c-2,0-5.49,2.58-5.49,5.77,0,0,5.49-2.89,11,0C93.34,68.43,89.83,66,87.84,66Z"/><path class="cls-3" d="M36,101.4A39.81,39.81,0,0,1,25.68,89.89c-2-3.4-2.73-8,1.57-10,2.28-1.06,5-.83,7.41-.23a8.25,8.25,0,0,1,4.05,2,8.94,8.94,0,0,1,1.57,2.6,21.12,21.12,0,0,1,1.93,6.32c.23,2.13-.09,5.19-1.65,6.83s-4.47,1.88-6.33,3.28"/><path class="cls-1" d="M35.15,93.76H52.93a0,0,0,0,1,0,0V123a8.43,8.43,0,0,1-8.43,8.43h-.91A8.43,8.43,0,0,1,35.15,123V93.76a0,0,0,0,1,0,0Z" transform="translate(-41.83 27.49) rotate(-23.89)"/><rect class="cls-5" x="10.19" y="49.15" width="29.53" height="37.25" transform="translate(-24.23 14.88) rotate(-22.7)"/><line class="cls-6" x1="12.75" y1="60.98" x2="28.55" y2="54.37"/><line class="cls-6" x1="15.15" y1="66.71" x2="30.95" y2="60.1"/><line class="cls-6" x1="17.54" y1="72.44" x2="33.35" y2="65.82"/><path class="cls-3" d="M36,87.72c-1.06-2.39-.77-4.92-.47-7.39a2,2,0,0,1,1.78-2,2.81,2.81,0,0,1,2.92,1.82,14.61,14.61,0,0,1,1.1,5.06,3,3,0,0,1-.7,2.34,4,4,0,0,1-3.37.91l0-.79"/><path class="cls-1" d="M134.07,20s-2.1-8.74,7.19-14.15,16.8,3.4,10.92,7.77c-1.76,1.31-8.62,1.47-11.71,2.37S134.07,20,134.07,20Z"/><path class="cls-1" d="M134.33,26.6s1.73-5.6,8.73-5.53,8.28,7.49,3.54,8c-1.43.15-5.32-2-7.35-2.57A13,13,0,0,0,134.33,26.6Z"/><rect class="cls-1" x="94.15" y="100.92" width="48.11" height="16.22" rx="6.79" transform="translate(82.88 265.91) rotate(-120)"/><rect class="cls-7" x="138.35" y="63.02" width="13.93" height="31.56" transform="translate(137.8 -86.33) rotate(58.93)"/><polygon class="cls-3" points="121.28 93.28 135.39 92.91 128.21 80.98 121.28 93.28"/><polygon class="cls-2" points="121.28 93.28 127.05 93.13 124.11 88.25 121.28 93.28"/><path class="cls-3" d="M154.37,95.8a6.83,6.83,0,0,0,1.28-3.21,6,6,0,0,0-.8-2.9,19.24,19.24,0,0,0-10-9.17,7.09,7.09,0,0,0-3.73-.61,3.18,3.18,0,0,0-2.66,2.4l1.08.85a5.08,5.08,0,0,0,.79,9.1,16.63,16.63,0,0,0-.73,3.78c-.38,3.56.14,9.92,5.05,10C148.5,106.05,152.65,98.49,154.37,95.8Z"/><path class="cls-1" d="M124.66,95.56h17.78a0,0,0,0,1,0,0v29.25a8.43,8.43,0,0,1-8.43,8.43h-.91a8.43,8.43,0,0,1-8.43-8.43V95.56a0,0,0,0,1,0,0Z" transform="translate(101.11 -58.43) rotate(38.79)"/></svg>