<?xml version="1.0" encoding="utf-8"?>
<!-- Generator: Adobe Illustrator 27.6.1, SVG Export Plug-In . SVG Version: 6.00 Build 0)  -->
<svg version="1.1" id="レイヤー_1" xmlns="http://www.w3.org/2000/svg" xmlns:xlink="http://www.w3.org/1999/xlink" x="0px"
	 y="0px" width="336.1px" height="184.1px" viewBox="0 0 336.1 184.1" style="enable-background:new 0 0 336.1 184.1;"
	 xml:space="preserve">
<style type="text/css">
	.st0{fill:#FFFFFF;}
	.st1{fill:none;stroke:#8FC31F;stroke-width:3.19;stroke-miterlimit:10;}
	.st2{enable-background:new    ;}
	.st3{fill:#35318F;}
	.st4{fill:#00AAE7;}
	.st5{fill:#F39800;}
</style>
<path class="st0" d="M244.6,63.7c5.7-5.9,9-12.6,9-19.7c0-23.3-35-42.3-78.3-42.3S97.1,20.7,97.1,44c0,19.9,25.5,36.6,59.8,41.1
	c-14.7,10.4-23.4,23.8-23.4,38.4c0.1,6.1,1.6,12.1,4.6,17.5l-7.1,13.8l18.7,0.8c18,16.2,49.1,26.7,84.4,26.4
	c55.3-0.4,100-27.3,99.8-60.1C333.7,91.4,294.7,66.6,244.6,63.7z"/>
<path class="st1" d="M244.6,63.7c5.7-5.9,9-12.6,9-19.7c0-23.3-35-42.3-78.3-42.3S97.1,20.7,97.1,44c0,19.9,25.5,36.6,59.8,41.1
	c-14.7,10.4-23.4,23.8-23.4,38.4c0.1,6.1,1.6,12.1,4.6,17.5l-7.1,13.8l18.7,0.8c18,16.2,49.1,26.7,84.4,26.4
	c55.3-0.4,100-27.3,99.8-60.1C333.7,91.4,294.7,66.6,244.6,63.7z"/>
<g class="st2">
	<path class="st3" d="M123.7,34.3h0.9c0.7,0,1,0,1.4-0.1V36c-0.4,0-0.7-0.1-1.4-0.1h-0.3c0.4,0.4,0.7,0.7,1.3,1.1
		c-0.3,0.6-0.6,1.1-0.8,1.7c-0.6-0.5-0.7-0.7-1.2-1.3c0,0.6,0,0.8,0,1v1.2c0,0.5,0,0.9,0.1,1.2h-1.9c0.1-0.3,0.1-0.7,0.1-1.1v-1.1
		c0-0.2,0-0.6,0-0.9c-0.7,1.1-1.2,1.7-2.2,2.4c-0.2-0.7-0.4-1.2-0.8-1.8c1-0.6,1.8-1.4,2.4-2.3h-0.8c-0.7,0-1,0-1.4,0.1v-1.8
		c0.4,0.1,0.7,0.1,1.4,0.1h1.3v-0.9h-1.4c-0.7,0-1,0-1.4,0.1v-1.8c0.4,0.1,0.7,0.1,1.5,0.1c-0.1-0.5-0.2-1.2-0.3-1.6
		c-0.4,0-0.5,0-0.8,0.1v-1.8c0.4,0.1,0.7,0.1,1.4,0.1h1v-0.1c0-0.5,0-0.7-0.1-1.1h2.1c-0.1,0.3-0.1,0.6-0.1,1.1v0.1h0.8
		c0.7,0,1,0,1.4-0.1v1.8c-0.3,0-0.4,0-0.8,0c-0.1,0.6-0.2,1.2-0.4,1.6c0.6,0,0.9,0,1.2-0.1v1.8c-0.4,0-0.7-0.1-1.4-0.1h-1V34.3z
		 M123.2,31.8c0.2-0.7,0.3-1,0.3-1.6H122c0,0.1,0,0.1,0.1,0.2c0.1,0.4,0.2,0.7,0.3,1.5H123.2z M131.4,31.7c0.6,0,1,0,1.3-0.1v1.9
		c-0.3,0-0.6-0.1-1.1-0.1h-0.3V39c0,0.9,0,1.4,0.1,1.8h-2c0.1-0.5,0.1-0.9,0.1-1.8v-5.6h-1.2c-0.1,3.7-0.6,5.7-1.8,7.5
		c-0.7-0.6-1-0.8-1.7-1.1c1.4-1.8,1.7-3.5,1.7-9.3c0-1,0-1.5-0.1-2c0.9-0.1,2.2-0.3,3.4-0.6c0.6-0.2,1.2-0.4,1.5-0.6l1.4,1.7
		c-0.2,0.1-0.2,0.1-0.5,0.2c-1,0.4-2,0.6-3.8,0.9v1.7H131.4z"/>
</g>
<g class="st2">
	<path class="st3" d="M137,28c-0.1,0.9-0.3,4.7-0.3,7.2c0,1.4,0.1,1.9,0.3,2.3c0.3,0.5,1,0.7,1.8,0.7c1.5,0,2.7-0.9,3.4-2.5
		c0.3-0.8,0.5-1.4,0.6-2.5c0.9,0.7,1.3,0.9,2.1,1.3c-0.6,2.1-1,3.1-1.8,3.9c-1.1,1.2-2.6,1.9-4.4,1.9c-1.1,0-2-0.2-2.7-0.7
		c-0.6-0.4-1.1-1-1.3-1.8c-0.1-0.5-0.2-1.2-0.2-2.1c0-0.7,0-1.6,0.1-3.5c0-2,0.1-2.9,0.1-3.3c0-0.5,0-0.7-0.1-1.1L137,28z"/>
</g>
<g class="st2">
	<path class="st3" d="M155.3,28.9c-0.4,0.2-0.4,0.2-1.8,1.6c-0.7,0.7-1.9,1.6-3.5,2.8c-0.4,0.3-0.5,0.4-0.5,0.6c0,0.2,0,0.2,1.4,1.2
		c1.4,1,2.3,1.8,4.4,3.6c0.2,0.1,0.2,0.2,0.4,0.4l-1.8,1.8c-0.4-0.6-0.9-1.1-1.9-2c-1.1-1-1.5-1.3-3.8-3.1c-0.7-0.5-0.9-0.8-1.1-1.1
		c-0.1-0.2-0.2-0.6-0.2-0.9c0-0.4,0.2-0.9,0.5-1.2c0.2-0.2,0.4-0.4,1.3-1.1c1.6-1.2,2.4-1.9,3.4-2.8c0.7-0.7,0.9-0.8,1.1-1.2
		L155.3,28.9z"/>
</g>
<g class="st2">
	<path class="st3" d="M166.6,34.4c-0.4-0.6-0.5-0.7-0.8-1v0.8c-1.9,0.3-2.9,0.4-4.1,0.5c-0.8,0.1-0.8,0.1-1.1,0.1
		c-0.2,0-0.3,0-0.7,0l-0.2-1.7c0.2,0,0.4,0,0.5,0c0.3,0,1.3-0.1,2.1-0.1l0-0.9h-0.9c-0.6,0-0.8,0-1.2,0v-1.5c0.3,0,0.6,0,1.2,0h0.8
		l0-0.7h-1.2c-0.5,0-0.8,0-1.2,0.1v-1.6c0.4,0,0.7,0.1,1.2,0.1h1.1v-0.3c0-0.2,0-0.5-0.1-0.8l1.9,0c0,0.2,0,0.4,0,0.6v0.2l0,0.3h1
		c0.4,0,0.8,0,1.1-0.1v1.6c-0.4,0-0.6,0-1.1,0H164l0,0.7h0.7c0.5,0,0.7,0,1,0v1.5c-0.3,0-0.5,0-1,0h-0.6l0,0.8
		c0.4-0.1,0.4-0.1,1.6-0.2V33c0.7-0.4,1-0.8,1.3-1.4c0.3-0.6,0.4-1.1,0.4-2.1h-0.1c-0.5,0-0.8,0-1.1,0.1v-1.8
		c0.4,0.1,1.1,0.1,1.8,0.1h3c0.6,0,1.1,0,1.5-0.1c0,0.3,0,0.5-0.1,0.9c-0.1,2.3-0.2,4-0.4,4.7c-0.3,1-0.7,1.2-2.2,1.2
		c-0.3,0-0.5,0-1,0c0-0.6-0.1-1-0.4-1.7c-0.4,0.6-0.9,1.1-1.4,1.6h0.2c0,0.2-0.1,0.3-0.1,0.6c0,0.1,0,0.1-0.1,0.4h3.7
		c0.9,0,1.6,0,2-0.1v1.8c-0.5-0.1-1.1-0.1-1.9-0.1h-3c0.5,0.6,1.2,1,2.1,1.3c1.2,0.3,2,0.5,3.1,0.6c-0.4,0.6-0.6,1.1-0.8,1.9
		c-1.4-0.2-2.3-0.4-3.4-0.9c-1.2-0.6-2-1.2-2.7-2.2c-0.6,0.9-1.3,1.5-2.2,2c-1.1,0.6-2.2,0.9-3.7,1.1c-0.2-0.7-0.4-1.1-0.9-1.8
		c1.2,0,2.1-0.2,2.9-0.6c0.8-0.3,1.5-0.8,2-1.3h-2.6c-0.9,0-1.5,0-2,0.1v-1.8c0.5,0,1.1,0.1,2,0.1h3.3c0.1-0.3,0.1-0.6,0.1-0.8
		c0-0.1,0-0.2,0-0.3L166.6,34.4z M169.3,29.5c-0.1,1.3-0.3,2.3-0.8,3.2c0.6,0.1,1,0.1,1.3,0.1c0.4,0,0.5-0.2,0.7-0.8
		c0.1-0.4,0.1-1.3,0.2-2.5H169.3z"/>
</g>
<g class="st2">
	<path class="st3" d="M176.4,35.7c-0.1,2.3-0.2,2.9-0.6,4.4l-1.5-0.7c0.4-1.3,0.6-2.4,0.6-3.9L176.4,35.7z M174.4,33.4
		c0.2,0,0.4,0.1,0.7,0.1h0.5c0.3-0.3,0.4-0.5,0.7-0.9c-0.8-1-0.9-1.2-1.9-2.1l0.9-1.5c0.2,0.2,0.3,0.3,0.4,0.5
		c0.5-0.7,0.9-1.7,1.1-2.2l1.6,0.6c-0.1,0.1-0.1,0.2-0.3,0.5c-0.3,0.7-0.9,1.6-1.3,2.2c0.2,0.2,0.3,0.3,0.5,0.6
		c0.8-1.2,1.3-2,1.5-2.5l1.6,0.9c-0.1,0.2-0.2,0.3-0.5,0.7c-0.7,1-1.7,2.4-2.3,3.1c0.7,0,0.9,0,1.4-0.1c-0.1-0.3-0.2-0.5-0.4-1
		l1.2-0.5c0.4,0.9,0.7,1.8,1.1,3l-1.4,0.6c0-0.3-0.1-0.4-0.1-0.6c-0.6,0.1-0.6,0.1-0.8,0.1v4.5c0,0.8,0,1.1,0.1,1.6h-1.9
		c0.1-0.4,0.1-0.8,0.1-1.6V35c-0.7,0-0.7,0-1.7,0.1c-0.2,0-0.4,0-0.6,0.1L174.4,33.4z M180.3,35.5c0.3,1.3,0.5,2.4,0.6,3.8l-1.5,0.3
		c-0.1-1.6-0.2-2.6-0.4-3.8L180.3,35.5z M182.6,31.1c-0.5,1-0.8,1.4-1.4,2.2c-0.3-0.5-0.7-0.9-1.3-1.4c0.7-0.8,1.2-1.7,1.6-2.6
		c0.3-0.8,0.5-1.5,0.6-2l1.9,0.3c-0.1,0.2-0.1,0.2-0.2,0.6c-0.1,0.2-0.2,0.7-0.4,1.1h3.1c0.6,0,0.9,0,1.2-0.1
		c-0.1,0.5-0.1,0.5-0.1,2.7c0,1.7-0.2,4.3-0.3,5.5c-0.2,1.7-0.5,2.5-1,2.9c-0.4,0.3-1,0.4-2,0.4c-0.4,0-0.8,0-1.3,0
		c-0.1-0.8-0.2-1.2-0.5-1.9c0.7,0.1,1.4,0.2,1.9,0.2c0.7,0,0.8-0.2,1-1.1c0.2-1.3,0.4-3.7,0.4-6.7H182.6z M182.9,37.2
		c-0.6-1.9-0.9-2.6-1.5-3.7l1.6-0.8c0.8,1.4,1.2,2.2,1.7,3.7L182.9,37.2z"/>
</g>
<g class="st2">
	<path class="st3" d="M188.7,29.4c0.3,0,0.5,0,0.8,0c0.3,0,1.8,0,5.9-0.2c0-1.1,0-1.2-0.1-1.7h2.2c-0.1,0.6-0.1,0.7-0.1,1.6
		c2.5,0,3.6,0,4.1-0.1l0,2c-0.6,0-1-0.1-2.5-0.1c-0.8,0-0.9,0-1.6,0l0,0.3v0.5l0,1.2v0.3c0.4,0.7,0.5,1.4,0.5,2.2c0,1.7-0.8,3-2.3,4
		c-0.7,0.5-1.5,0.8-2.8,1.2c-0.4-1-0.6-1.3-1.2-2c1.5-0.3,2.6-0.7,3.3-1.3c0.5-0.4,0.7-0.7,0.8-1.2c-0.5,0.6-1.1,0.8-2,0.8
		c-0.7,0-1.2-0.2-1.7-0.6c-0.7-0.5-1-1.2-1-2c0-1.6,1.3-2.7,3.1-2.7c0.6,0,1,0.1,1.4,0.3c0-0.1,0-0.1,0-0.2v-0.9
		c-3.5,0.1-5.3,0.2-6.6,0.4L188.7,29.4z M192.9,34.5c0,0.6,0.5,1,1.1,1c0.7,0,1.3-0.5,1.3-1.1c0-0.5-0.5-0.9-1.1-0.9
		C193.5,33.4,192.9,33.9,192.9,34.5z"/>
</g>
<g class="st2">
	<path class="st3" d="M204.4,28.3c0.5,0.1,1,0.1,1.9,0.1c1.2,0,3-0.1,4.4-0.2c0.6,0,0.7-0.1,1-0.2l1,1.5c-0.3,0.2-0.3,0.2-1.4,1.2
		c-1.5,1.3-2,1.7-3.1,2.6c0.8-0.2,1.6-0.3,2.4-0.3c1.2,0,2.2,0.3,3,1c0.7,0.6,1.1,1.4,1.1,2.4c0,1.4-0.7,2.5-2,3.3
		c-1,0.6-2.2,0.9-3.6,0.9c-1.3,0-2.3-0.3-2.9-0.7c-0.6-0.4-0.9-1.1-0.9-1.8c0-1.2,1.1-2.2,2.7-2.2c1,0,1.9,0.4,2.6,1.2
		c0.3,0.3,0.4,0.7,0.7,1.2c1-0.4,1.4-1,1.4-1.9c0-1.1-1.1-1.7-2.7-1.7c-2.1,0-4.1,0.8-5.9,2.4l-1.2-1.9c1.4-0.7,4.4-3.1,6.4-5.1
		c-1.2,0.1-1.4,0.1-3.6,0.2c-0.5,0-0.6,0-1,0.1L204.4,28.3z M207.8,37.4c-0.4,0-0.7,0.2-0.7,0.6c0,0.5,0.6,0.8,1.5,0.8
		c0.2,0,0.3,0,0.6-0.1C208.9,37.8,208.5,37.4,207.8,37.4z"/>
</g>
<g class="st2">
	<path class="st3" d="M220.8,27.7c0.1,1,0.4,2.9,0.9,4.4c0.8-0.3,1.4-0.5,3.7-1.2c0.3-0.1,0.4-0.1,0.6-0.2l0.7,2.2
		c-1.5,0.2-3.3,0.8-5,1.4c-2,0.7-3,1.6-3,2.5c0,1,1,1.4,3.1,1.4c1.8,0,3.7-0.2,4.9-0.6l0.2,2.4c-0.3,0-0.4,0-1.2,0.1
		c-1.6,0.2-2.6,0.2-3.6,0.2c-2.5,0-4.1-0.5-4.9-1.4c-0.4-0.5-0.6-1.2-0.6-1.9c0-1,0.4-2,1.3-2.7c0.6-0.5,1.1-0.8,2-1.3
		c-0.3-1.2-0.6-2.1-0.9-3.9c-0.1-0.7-0.2-0.7-0.2-0.9L220.8,27.7z"/>
</g>
<g class="st2">
	<path class="st3" d="M129.6,58.9c-0.3-0.3-0.4-0.4-0.7-0.7c-0.8-0.7-1.8-1.3-2.6-1.7c0,0.1,0,0.2,0,0.2c0,1.7-1.1,2.5-3.4,2.5
		c-2.2,0-3.5-0.9-3.5-2.5c0-1.6,1.6-2.6,4.1-2.6c0.2,0,0.4,0,0.7,0l0-1.2c-0.4,0-1,0-1.3,0c-0.9,0-1.4,0-2.8-0.1c-0.2,0-0.3,0-0.6,0
		l0-1.9c0.6,0.1,2,0.2,3.4,0.2c0.3,0,0.8,0,1.2,0l0-0.8v-0.4c-0.4,0-0.6,0-0.8,0c-0.6,0-1.8,0-3.7-0.1c-0.2,0-0.3,0-0.4,0
		c0,0-0.1,0-0.2,0l0-1.9c0.8,0.2,2.3,0.3,4,0.3c0.2,0,0.6,0,1,0c0-1.1,0-1.2-0.1-1.7h2.2c-0.1,0.4-0.1,0.5-0.1,1.6
		c2-0.1,3.2-0.3,4.2-0.5l0.1,1.9c-0.3,0-0.3,0-1.2,0.1c-1.1,0.1-2,0.2-3,0.3c0,0.6,0,1,0,1.2c1.7-0.1,2.9-0.2,3.8-0.5l0.1,1.9
		c-0.1,0-0.1,0-0.3,0c0,0-0.1,0-0.2,0c-0.2,0-0.2,0-1.1,0.1c-0.7,0.1-1.6,0.1-2.2,0.2c0,0.8,0,1.3,0,1.5c1.4,0.4,2.4,0.9,4,2
		c0.2,0.2,0.3,0.2,0.5,0.3L129.6,58.9z M123.3,56c-1,0-1.6,0.3-1.6,0.8c0,0.4,0.5,0.7,1.4,0.7c1,0,1.3-0.3,1.3-1.1
		c0-0.1,0-0.3,0-0.3C123.9,56,123.7,56,123.3,56z"/>
</g>
<g class="st2">
	<path class="st3" d="M133.1,48.8c0.5,0.1,1.2,0.1,2.1,0.1c0.1,0,0.1,0,0.5,0c0.1-0.7,0.2-1.7,0.2-2.1v-0.2l2.3,0.2
		c-0.1,0.3-0.1,0.3-0.3,1.4c-0.1,0.4-0.1,0.4-0.1,0.7c1-0.1,1.7-0.2,2.4-0.4l0.1,2c-0.3,0-0.3,0-0.8,0.1c-0.6,0.1-1.3,0.2-2,0.2
		c-0.2,1.2-0.4,2.2-0.8,3.6c-0.4,1.6-0.6,2.1-1.3,4c-0.1,0.4-0.3,0.7-0.3,1l-2.2-0.8c1-1.9,2-5,2.5-7.7h-0.4l-1.6,0
		c-0.1,0-0.1,0-0.3,0L133.1,48.8z M140.7,54.6c-0.6,0.8-0.7,1.1-0.7,1.6c0,0.7,0.7,1,2.1,1c1,0,2.4-0.2,3.2-0.6l0.1,2.1
		c-0.3,0-0.4,0-0.7,0.1c-1.2,0.2-1.9,0.2-2.8,0.2c-1.3,0-2.3-0.2-3-0.6c-0.7-0.4-1.1-1.1-1.1-1.9c0-0.8,0.3-1.5,1.1-2.6L140.7,54.6z
		 M144.9,52.9c-0.7-0.1-1.1-0.1-1.9-0.1c-1.5,0-2.5,0.1-3.9,0.4l-0.1-1.9c2.2-0.4,2.9-0.5,4.6-0.5c0.4,0,0.4,0,1.3,0L144.9,52.9z"/>
</g>
<g class="st2">
	<path class="st3" d="M151.2,52.7c-0.8,0-1.3,0-1.7,0.1v-1c-0.6,0.3-0.8,0.4-1.4,0.7c-0.4-0.9-0.5-1.1-1-1.8c1.3-0.5,2.4-1,3.4-1.8
		c1-0.8,1.8-1.5,2.4-2.5h2.1c0.8,1,1.5,1.7,2.6,2.4c1.2,0.8,2.1,1.3,3.5,1.7c-0.5,0.8-0.7,1.2-1,2c-0.7-0.3-0.9-0.4-1.6-0.8v1
		c-0.4-0.1-0.9-0.1-1.7-0.1h-1.9v1.5h2.2c0.8,0,1.3,0,1.7-0.1V56c-0.4-0.1-1-0.1-1.7-0.1h-2.2v1.7h3.5c0.8,0,1.5,0,2-0.1v1.9
		c-0.5-0.1-1.1-0.1-2-0.1h-8.8c-0.8,0-1.4,0-1.9,0.1v-1.9c0.4,0.1,1.1,0.1,2,0.1h3.3v-1.7h-2c-0.7,0-1.3,0-1.7,0.1v-1.9
		c0.5,0.1,1,0.1,1.7,0.1h2v-1.5H151.2z M151.1,51h6.1c-1.5-1-2.2-1.7-3.2-2.9c-0.8,1.1-1.6,1.9-3.1,2.9H151.1z"/>
	<path class="st3" d="M168.1,47.6c0.6,0,0.9,0,1.3-0.1v1.8c-0.2,0-0.4-0.1-0.9-0.1c-0.1,0.8-0.2,1.3-0.4,1.9h0.2
		c0.6,0,0.9,0,1.2-0.1V53c-0.3,0-0.7-0.1-1.1-0.1h-4.9c-0.7,0-1.1,0-1.5,0.1v-1.9c0.4,0.1,0.7,0.1,1.5,0.1h0.1
		c0-0.6-0.2-1.3-0.4-1.9c-0.5,0-0.7,0-0.9,0.1v-1.8c0.3,0.1,0.7,0.1,1.4,0.1h1.3v-0.3c0-0.4,0-0.7-0.1-1h2c0,0.3-0.1,0.6-0.1,1v0.3
		H168.1z M164.7,59.8h-1.9c0.1-0.4,0.1-0.8,0.1-1.4v-3.3c0-0.6,0-0.9-0.1-1.2c0.3,0,0.6,0,1.2,0h3.9c0.6,0,0.9,0,1.1,0
		c0,0.3,0,0.4,0,1v3.8c0,0.5,0,0.8,0.1,1.1h-1.9V59h-2.4V59.8z M164.7,57.3h2.4v-1.7h-2.4V57.3z M166.4,51.2
		c0.2-0.7,0.3-1.2,0.3-1.9h-1.6c0.2,0.6,0.3,1,0.4,1.9H166.4z M175.7,47.9c-0.1,0.2-0.2,0.3-0.3,0.6c-0.4,1.1-0.9,2.3-1.5,3.4
		c0.7,0.9,1,1.4,1.3,2.1c0.2,0.6,0.4,1.3,0.4,1.9c0,1-0.4,1.7-1.1,1.9c-0.4,0.1-0.9,0.2-1.6,0.2c-0.1,0-0.3,0-0.6,0
		c0-0.9-0.1-1.3-0.4-1.9c0.3,0,0.5,0.1,0.8,0.1c0.7,0,1-0.1,1-0.6c0-0.4-0.1-1-0.3-1.4c-0.3-0.7-0.6-1.2-1.3-2.1
		c0.7-1.3,1.1-2.4,1.4-3.6h-1.7v9.7c0,0.8,0,1.3,0.1,1.7h-2c0-0.5,0.1-1.1,0.1-1.7V47.8c0-0.4,0-0.7,0-1.2c0.4,0,0.7,0.1,1.2,0.1
		h2.6c0.6,0,0.8,0,1.2-0.1L175.7,47.9z"/>
	<path class="st3" d="M178.3,53.1c-0.6,0-0.9,0-1.4,0.1v-1.6c0.4,0.1,0.8,0.1,1.6,0.1h10.2c0.8,0,1.1,0,1.6-0.1v1.6
		c-0.5-0.1-0.8-0.1-1.6-0.1h-5v5c0.7-0.3,1.1-0.5,1.6-0.8c-0.4-0.5-0.7-0.8-1.1-1.6l1.4-0.6h-0.3c-0.5,0-0.8,0-1.1,0.1v-1.6
		c0.4,0,0.6,0.1,1.2,0.1h2.5c0.5,0,0.8,0,1.1-0.1l0.9,1c-0.1,0.1-0.1,0.1-0.3,0.5c-0.5,0.8-1,1.7-1.6,2.2c0.7,0.3,1.4,0.6,2.5,0.8
		c-0.4,0.6-0.6,0.9-0.8,1.7c-1.6-0.6-2.2-0.9-2.9-1.4c-0.7,0.5-1.1,0.8-2.2,1.3c-0.2-0.5-0.4-0.9-0.7-1.3c0,0.7,0,1,0.1,1.4h-1.9
		c0-0.3,0.1-0.7,0.1-1.5c-1.1,0.2-2.1,0.4-3,0.5c-1.2,0.2-1.2,0.2-1.8,0.3l-0.4-1.8h0.2c0.3,0,0.7,0,1.2-0.1V53.1z M188.8,49.9
		c0,0.6,0,0.9,0.1,1.3c-0.3,0-0.3,0-1.3,0h-7.7c-0.7,0-1,0-1.5,0c0-0.4,0.1-0.7,0.1-1.3v-2c0-0.6,0-0.9-0.1-1.3
		c0.5,0,0.8,0.1,1.5,0.1h7.4c0.7,0,1.1,0,1.5-0.1c0,0.4-0.1,0.7-0.1,1.3V49.9z M180,53.6h2v-0.5h-2V53.6z M180,55.3h2v-0.6h-2V55.3z
		 M180,57.2c0.8-0.1,0.8-0.1,2-0.3v-0.5h-2V57.2z M180.3,48.5h6.7v-0.5h-6.7V48.5z M180.3,50.1h6.7v-0.5h-6.7V50.1z M185.7,55.1
		c0.4,0.6,0.5,0.8,0.9,1.2c0.4-0.4,0.6-0.7,1-1.2H185.7z"/>
</g>
<g class="st2">
	<path class="st3" d="M195.7,58c0,0.8,0,1.4,0.1,1.8h-2c0.1-0.5,0.1-1.2,0.1-1.8v-2.5c0-0.1,0-0.2,0-0.3c0-0.2,0-0.2,0-0.3
		c-0.4,0.4-0.8,0.7-1.5,1.2c-0.2-0.7-0.5-1.2-0.8-1.8c0.8-0.5,1.3-0.9,1.9-1.5c0.8-0.8,1.2-1.4,1.8-2.5h-1.9c-0.5,0-1,0-1.3,0.1
		v-1.8c0.4,0.1,0.7,0.1,1.3,0.1h0.4v-1c0-0.6,0-0.9-0.1-1.2h2c-0.1,0.3-0.1,0.6-0.1,1.2v1h0.2c0.5,0,0.8,0,1-0.1l0.8,1
		c-0.1,0.1-0.2,0.3-0.3,0.6c-0.4,0.8-0.9,1.7-1.5,2.5c0.2,0.2,0.2,0.3,0.4,0.4c0.6-0.7,1-1.3,1.3-2l1.2,0.9c-0.7,1-1,1.4-1.5,1.9
		c0.2,0.2,0.4,0.3,0.8,0.5c-0.4,0.4-0.6,0.8-1,1.4c-0.6-0.5-1-0.9-1.5-1.3V58z M199.3,49c-0.7,0-1.3,0-1.8,0.1v-1.8
		c0.5,0.1,1.1,0.1,1.8,0.1h4.3c0.6,0,1.1,0,1.4-0.1c-0.1,0.5-0.1,0.5-0.1,2.9c0,3.9-0.2,6.7-0.5,7.8c-0.2,0.6-0.4,0.9-0.8,1.2
		c-0.3,0.2-0.8,0.3-1.6,0.3c-0.4,0-0.9,0-1.5,0c-0.1-0.9-0.2-1.2-0.4-1.9c0.7,0.1,1.3,0.1,1.7,0.1c0.6,0,0.8-0.2,0.9-1
		c0.2-1.3,0.4-3.7,0.4-7.7h-1.7c0,2.5-0.2,3.9-0.6,5.5c-0.4,1.3-0.9,2.4-1.7,3.5c-0.4,0.6-0.8,1-1.7,1.8c-0.4-0.7-0.7-1.1-1.3-1.6
		c1-0.8,1.7-1.6,2.2-2.7c0.7-1.4,1-2.8,1.1-4.7c0-0.5,0-0.7,0-1.7H199.3z"/>
</g>
<g class="st2">
	<path class="st3" d="M206.8,50L206.8,50c0.5,0,2.3-0.2,3-0.3c0.3-1.5,0.4-2.4,0.4-2.9c0-0.1,0-0.1,0-0.2l2.2,0.2
		c0,0.1-0.1,0.3-0.1,0.4c0,0-0.1,0.7-0.3,1.9c-0.1,0.3-0.1,0.3-0.1,0.5c0.3,0,0.6,0,0.8,0c1,0,1.8,0.3,2.3,0.8
		c0.5,0.6,0.7,1.3,0.7,2.7c0,2.6-0.4,4.6-1.2,5.4c-0.4,0.5-0.9,0.7-1.7,0.7c-0.6,0-1.2-0.1-2.2-0.4c0-0.3,0-0.4,0-0.7
		c0-0.5,0-0.9-0.2-1.6c0.7,0.3,1.6,0.6,2.1,0.6c0.4,0,0.6-0.2,0.8-0.8c0.2-0.7,0.4-2.2,0.4-3.3c0-0.7-0.1-1.1-0.4-1.3
		c-0.2-0.2-0.4-0.2-0.9-0.2c-0.2,0-0.4,0-0.7,0c-0.5,2.4-1.3,4.6-2.7,7.4c-0.1,0.3-0.1,0.3-0.2,0.5l-2-1.1c1-1.3,2.2-4.2,2.8-6.6
		c-1,0.1-2,0.3-2.4,0.4L206.8,50z M217.2,48.5c1.4,1.8,2.4,3.6,3,5.9l-2,1c-0.5-2.4-1.4-4.5-2.8-6L217.2,48.5z"/>
</g>
<g class="st2">
	<path class="st3" d="M224.3,49.6c-0.2,0.6-0.5,2.4-0.7,3.8c1.2-0.9,2.5-1.3,4.2-1.3c2.6,0,4.2,1.3,4.2,3.2c0,1.2-0.6,2.2-1.6,2.9
		c-1,0.7-2.3,1-4,1c-1.2,0-2.1-0.1-3.7-0.5c0-0.9-0.1-1.3-0.3-2.2c1.4,0.5,2.7,0.7,3.8,0.7c2,0,3.4-0.8,3.4-1.9
		c0-0.9-0.8-1.4-2.2-1.4c-1.2,0-2.5,0.3-3.4,1c-0.3,0.2-0.4,0.3-0.7,0.7l-2.1-0.1c0-0.2,0-0.2,0.1-0.4c0.1-1.1,0.4-2.9,0.7-4.8
		c0-0.3,0.1-0.5,0.1-0.9L224.3,49.6z M224.3,46.6c1,0.6,3.9,1.4,5.6,1.6l-0.7,2c-2.5-0.6-4.3-1.1-5.9-1.9L224.3,46.6z"/>
</g>
<g class="st2">
	<path class="st3" d="M167.1,94.7c-0.9,0.6-1.5,0.9-2.6,1.3c-0.3-0.8-0.5-1.2-1-1.8c1.6-0.6,2.9-1.3,4.2-2.4
		c0.8-0.7,1.3-1.3,1.7-1.9h2.1c0.7,1,1.6,1.8,2.8,2.6c1.1,0.7,2,1.2,3.3,1.6c-0.4,0.7-0.7,1.2-1,1.9c-1-0.4-1.7-0.8-2.6-1.4v1.1
		c-0.5-0.1-0.9-0.1-1.5-0.1h-4c-0.6,0-1,0-1.4,0.1V94.7z M176.3,98.1c-0.2,0.2-0.5,0.5-0.7,0.8l-2.7,3.5c-0.4,0.5-0.6,0.8-0.9,1.3
		l-1.9-1.1c0.4-0.3,0.7-0.7,1.1-1.2l2.2-2.7h-6.2c-0.6,0-1.2,0-1.9,0.1v-2c0.6,0.1,1.2,0.1,1.9,0.1h6.7c0.8,0,1.2,0,1.5-0.1
		L176.3,98.1z M172.6,94h0.3c-1-0.8-1.7-1.3-2.4-2.3c-0.8,1-1.4,1.6-2.4,2.3h0.3H172.6z"/>
</g>
<g class="st2">
	<path class="st3" d="M189.2,102.6c-0.3-0.3-0.4-0.4-0.7-0.7c-0.8-0.7-1.8-1.3-2.6-1.7c0,0.1,0,0.2,0,0.2c0,1.7-1.1,2.5-3.4,2.5
		c-2.2,0-3.5-0.9-3.5-2.5c0-1.6,1.6-2.6,4.1-2.6c0.2,0,0.4,0,0.7,0l0-1.2c-0.4,0-1,0-1.3,0c-0.9,0-1.4,0-2.8-0.1c-0.2,0-0.3,0-0.6,0
		l0-1.9c0.6,0.1,2,0.2,3.4,0.2c0.3,0,0.8,0,1.2,0l0-0.8v-0.4c-0.4,0-0.6,0-0.8,0c-0.6,0-1.8,0-3.7-0.1c-0.2,0-0.3,0-0.4,0
		c0,0-0.1,0-0.2,0l0-1.9c0.8,0.2,2.3,0.3,4,0.3c0.2,0,0.6,0,1,0c0-1.1,0-1.2-0.1-1.7h2.2c-0.1,0.4-0.1,0.5-0.1,1.6
		c2-0.1,3.2-0.3,4.2-0.5l0.1,1.9c-0.3,0-0.3,0-1.2,0.1c-1.1,0.1-2,0.2-3,0.3c0,0.6,0,1,0,1.2c1.7-0.1,2.9-0.2,3.8-0.5l0.1,1.9
		c-0.1,0-0.1,0-0.3,0c0,0-0.1,0-0.2,0c-0.2,0-0.2,0-1.1,0.1c-0.7,0.1-1.6,0.1-2.2,0.2c0,0.8,0,1.3,0,1.5c1.4,0.4,2.4,0.9,4,2
		c0.2,0.2,0.3,0.2,0.5,0.3L189.2,102.6z M182.8,99.7c-1,0-1.6,0.3-1.6,0.8c0,0.4,0.5,0.7,1.4,0.7c1,0,1.3-0.3,1.3-1.1
		c0-0.1,0-0.3,0-0.3C183.5,99.7,183.3,99.7,182.8,99.7z"/>
</g>
<g class="st2">
	<path class="st3" d="M192.1,92c0.3,0,0.5,0,0.6,0c0.3,0,0.4,0,2.4-0.1c1-0.1,3.5-0.2,7.5-0.4c1.3-0.1,1.4-0.1,1.6-0.1l0.1,2.2
		c-0.2,0-0.2,0-0.3,0c-0.9,0-2.1,0.3-3.1,0.9c-1.6,0.9-2.6,2.3-2.6,3.6c0,1.1,0.7,1.9,1.9,2.2c0.7,0.2,1.6,0.3,2.1,0.3
		c0.1,0,0.2,0,0.4,0l-0.3,2.3c-0.2,0-0.2,0-0.5-0.1c-1.6-0.2-2.6-0.4-3.5-0.9c-1.5-0.8-2.3-2-2.3-3.7c0-2,1-3.6,3.1-4.7
		c-1.5,0.2-1.5,0.2-4.7,0.4c-0.8,0.1-1.6,0.2-2.1,0.3L192.1,92z M202.2,97c-0.4-0.8-0.7-1.3-1.2-2l1.2-0.6c0.5,0.6,0.8,1.1,1.2,2
		L202.2,97z M203.9,96.2c-0.4-0.8-0.7-1.3-1.2-1.9l1.2-0.5c0.5,0.6,0.7,0.9,1.2,1.9L203.9,96.2z"/>
</g>
<g class="st2">
	<path class="st3" d="M212.1,93c-0.6,0-0.9,0-1.4,0.1v-1.6c-0.2,0.7-0.4,1.2-0.8,2.1v8.4c0,0.6,0,1.1,0.1,1.7h-2
		c0.1-0.6,0.1-1,0.1-1.7v-4c0-0.3,0-0.5,0-1.6c-0.3,0.5-0.5,0.8-0.9,1.3c-0.2-0.9-0.4-1.4-0.7-2.2c0.9-0.9,1.5-2.1,2.1-3.6
		c0.3-0.8,0.4-1.3,0.5-2l2,0.4c-0.1,0.3-0.1,0.4-0.2,0.7c0,0.1,0,0.2-0.1,0.2c0.4,0,1,0.1,1.6,0.1h2.1c0-0.8,0-0.9-0.1-1.3h1.9
		c-0.1,0.4-0.1,0.7-0.1,1.3h2.3c0.7,0,1.2,0,1.7-0.1v1.8c-0.4,0-0.9-0.1-1.5-0.1h-2.6v0.9h2.1c0.7,0,1,0,1.4-0.1
		c0,0.4-0.1,0.8-0.1,1.4v1.9c0,0.7,0,1,0.1,1.4c-0.4,0-0.8-0.1-1.4-0.1h-2.4c-0.2,0.8-0.4,1.4-0.8,2.1c1.4,0.7,2.9,1,5.4,1
		c-0.3,0.7-0.6,1.3-0.7,1.9c-2.5-0.2-4.2-0.7-5.7-1.6c-0.8,0.7-1.7,1.2-3.1,1.7c-0.4-0.7-0.6-1.1-1-1.6c1.2-0.3,2-0.7,2.7-1.1
		c-0.4-0.4-0.6-0.6-1.1-1.2c-0.1-0.1-0.1-0.2-0.2-0.3l1.6-0.7l0,0.1c0.1,0.2,0.4,0.6,0.8,1c0.2-0.4,0.3-0.6,0.4-1.1h-2.1
		c-0.4,0-0.8,0-1.1,0.1c0-0.4,0.1-0.7,0.1-1.3v-2c0-0.7,0-0.9-0.1-1.3c0.4,0,0.7,0.1,1.4,0.1h2.2V93H212.1z M212.7,95.5v1.3h1.6
		c0-0.4,0.1-0.8,0.1-1.3H212.7z M216.1,95.5c0,0.6,0,0.9-0.1,1.3h1.7v-1.3H216.1z"/>
</g>
<g class="st2">
	<path class="st3" d="M221.5,95.4c0.5,0,0.5,0,1.6-0.3c2-0.4,3.3-0.6,4.5-0.6c1.7,0,2.9,0.5,3.6,1.5c0.4,0.6,0.6,1.2,0.6,2
		c0,2-1.4,3.7-3.8,4.4c-1,0.3-1.3,0.3-3.2,0.6c-0.2-0.8-0.3-1.2-0.7-2h0.2c1.5,0,3.2-0.4,4.1-0.8c1-0.6,1.5-1.3,1.5-2.2
		c0-0.6-0.4-1.2-1-1.4c-0.4-0.1-0.8-0.2-1.3-0.2c-1,0-2.1,0.2-3.8,0.6c-0.9,0.2-1.2,0.3-1.7,0.5L221.5,95.4z"/>
</g>
<g class="st2">
	<path class="st3" d="M233.6,92c0.3,0,0.5,0,0.6,0c0.3,0,0.4,0,2.4-0.1c1-0.1,3.5-0.2,7.5-0.4c1.3-0.1,1.4-0.1,1.6-0.1l0.1,2.2
		c-0.2,0-0.2,0-0.3,0c-0.9,0-2.1,0.3-3.1,0.9c-1.6,0.9-2.6,2.3-2.6,3.6c0,1.1,0.7,1.9,1.9,2.2c0.7,0.2,1.6,0.3,2.1,0.3
		c0.1,0,0.2,0,0.4,0l-0.3,2.3c-0.2,0-0.2-0.1-0.5-0.1c-1.6-0.2-2.6-0.4-3.5-0.9c-1.5-0.8-2.3-2-2.3-3.7c0-1.9,1-3.5,3.1-4.7
		c-1.4,0.2-1.5,0.2-4.7,0.4c-0.8,0.1-1.6,0.2-2.1,0.3L233.6,92z"/>
</g>
<g class="st2">
	<path class="st3" d="M250.4,91.5c-0.1,0.6-0.1,1.4-0.1,2.4c0,3.5,0.5,6,1.3,6c0.2,0,0.4-0.2,0.5-0.6c0.3-0.8,0.6-1.7,0.8-2.6
		c0.6,0.7,0.9,1,1.7,1.6c-0.8,2.8-1.7,4.1-3,4.1c-1.1,0-1.9-0.8-2.5-2.3c-0.6-1.5-0.8-3.3-0.9-7.7c0-0.5,0-0.6-0.1-1L250.4,91.5z
		 M257.2,92.1c1.9,2.2,2.9,4.8,3.3,8.1l-2.2,0.8c-0.1-1.4-0.4-3-0.9-4.3c-0.5-1.4-1.2-2.6-2.1-3.7L257.2,92.1z"/>
</g>
<g class="st2">
	<path class="st3" d="M262.2,92.6c0.5,0.1,1.2,0.1,2.1,0.1c0.1,0,0.1,0,0.5,0c0.1-0.7,0.2-1.7,0.2-2.1v-0.2l2.3,0.2
		c-0.1,0.3-0.1,0.3-0.3,1.4c-0.1,0.4-0.1,0.4-0.1,0.7c1-0.1,1.7-0.2,2.4-0.4l0.1,2c-0.3,0-0.3,0-0.8,0.1c-0.6,0.1-1.3,0.2-2,0.2
		c-0.2,1.2-0.4,2.2-0.8,3.6c-0.4,1.6-0.6,2.1-1.3,4c-0.1,0.4-0.3,0.7-0.3,1l-2.2-0.8c1-1.9,2-5,2.5-7.7H264l-1.6,0
		c-0.1,0-0.1,0-0.3,0L262.2,92.6z M269.8,98.3c-0.6,0.8-0.7,1.1-0.7,1.6c0,0.7,0.7,1,2.1,1c1,0,2.4-0.2,3.2-0.6l0.1,2.1
		c-0.3,0-0.4,0-0.7,0.1c-1.2,0.2-1.9,0.2-2.8,0.2c-1.3,0-2.3-0.2-3-0.6c-0.7-0.4-1.1-1.1-1.1-1.9c0-0.8,0.3-1.5,1.1-2.6L269.8,98.3z
		 M274,96.6c-0.7-0.1-1.1-0.1-1.9-0.1c-1.5,0-2.5,0.1-3.9,0.4l-0.1-1.9c2.2-0.4,2.9-0.5,4.6-0.5c0.4,0,0.4,0,1.3,0L274,96.6z"/>
</g>
<g class="st2">
	<path class="st3" d="M282.5,99.2c-0.8,1.8-1.8,2.7-3,2.7c-1.8,0-3.1-1.8-3.1-4.2c0-1.7,0.6-3.2,1.6-4.3c1.2-1.4,3-2.1,5.1-2.1
		c3.6,0,6,2.2,6,5.6c0,2.6-1.3,4.7-3.6,5.6c-0.7,0.3-1.3,0.4-2.3,0.6c-0.3-0.9-0.5-1.3-1.1-2.1c1.3-0.1,2.2-0.3,2.9-0.7
		c1.2-0.7,2-2,2-3.6c0-1.3-0.6-2.4-1.6-3c-0.4-0.3-0.8-0.4-1.3-0.5C283.8,95.6,283.3,97.5,282.5,99.2z M280.2,93.9
		c-1.1,0.9-1.8,2.3-1.8,3.7c0,1.1,0.5,2,1,2c0.4,0,0.9-0.6,1.3-1.7c0.5-1.3,1-3.1,1.2-4.7C281.2,93.3,280.8,93.5,280.2,93.9z"/>
</g>
<g class="st2">
	<path class="st3" d="M294.5,90.9c-0.3,0.6-0.7,2.7-1,4.4c-0.1,0.9-0.2,2-0.2,2.8c0,0.3,0,0.9,0,1.1c0.3-0.8,0.4-1,0.7-1.5l1.2,0.5
		c-0.8,1.5-1.3,3.3-1.3,4.4c0,0.1,0,0.2,0,0.5l-2.1,0.1c0-0.2,0-0.3-0.1-0.6c-0.3-1.9-0.4-3.2-0.4-4.8c0-1.4,0.1-2.7,0.3-3.9
		c0.1-0.4,0.1-0.4,0.3-2c0.1-0.6,0.2-0.9,0.2-1.2L294.5,90.9z M295.2,93.3c0.6,0.1,1.5,0.2,2.7,0.2c0.4,0,0.7,0,1.2,0
		c0-1.1,0-1.1,0-2c0-0.3,0-0.6-0.1-0.8h2.1c-0.1,0.5-0.1,1.1-0.1,2.7c1-0.1,1.7-0.3,2.3-0.5l0.1,2c-0.2,0-0.2,0-0.6,0.1
		c-0.5,0.1-1.1,0.2-1.8,0.3c0,1.2,0,1.5,0.1,3.3c1.1,0.5,1.5,0.7,2.2,1.3c0.2,0.1,0.3,0.2,0.4,0.3l-0.8,2.1c-0.3-0.4-1-1-1.9-1.5
		c0,0.1,0,0.2,0,0.2c0,1.3-1.2,2.1-3,2.1c-2,0-3.2-1-3.2-2.5s1.3-2.6,3.2-2.6c0.4,0,0.6,0,1,0.1c0-0.5,0-1.1-0.1-2.7
		c-0.4,0-0.7,0-1,0c-0.5,0-1.8,0-2.4-0.1c-0.2,0-0.2,0-0.4,0c0,0,0,0-0.1,0L295.2,93.3z M298.2,99.7c-0.8,0-1.3,0.3-1.3,0.8
		c0,0.5,0.4,0.8,1.1,0.8c0.8,0,1.2-0.3,1.2-1c0-0.1,0-0.3,0-0.3C298.8,99.8,298.6,99.7,298.2,99.7z"/>
</g>
<g class="st2">
	<path class="st3" d="M169.4,108.5c-0.1,0.1-0.1,0.1-0.2,0.8c0,0.1-0.1,0.4-0.2,1c-0.1,0.2-0.1,0.2-0.1,0.4c0.9-0.1,1.7-0.2,2.2-0.4
		l0,2c-0.2,0-0.2,0-0.4,0.1c-0.5,0.1-1.1,0.1-2.3,0.2c-0.6,1.8-0.9,2.8-1.6,4.2c-0.3,0.7-0.5,1-1,2c-0.2,0.4-0.2,0.4-0.3,0.6l-2-1.1
		c1-1.4,2-3.4,2.7-5.6c-0.4,0-0.4,0-0.8,0h-0.2c-0.2,0-0.2,0-0.7,0h-0.6v-2c0.5,0.1,1.2,0.1,2,0.1c0.1,0,0.4,0,0.6,0
		c0.3-1.1,0.4-1.8,0.4-2.4L169.4,108.5z M175.8,120.4c-0.5-0.6-1.3-1.2-2.1-1.7c0,0.7-0.1,1.1-0.5,1.6c-0.5,0.6-1.5,1-2.7,1
		c-2,0-3.3-1-3.3-2.6c0-1.1,0.7-2,1.8-2.4c0.4-0.2,0.9-0.2,1.6-0.2c0.4,0,0.7,0,1.1,0.1c-0.1-0.6-0.1-1-0.1-1.4c0-0.7,0-1.1,0.1-1.6
		l2,0.1c-0.2,0.6-0.2,0.8-0.2,1.4c0,0.7,0,1.2,0.1,2c0.9,0.4,1.5,0.7,2.2,1.3c0.2,0.1,0.3,0.2,0.6,0.4c0.1,0.1,0.1,0.1,0.2,0.2
		L175.8,120.4z M170.6,117.7c-0.8,0-1.3,0.3-1.3,0.9c0,0.5,0.4,0.8,1.2,0.8c0.9,0,1.3-0.4,1.3-1.1c0-0.1,0-0.4,0-0.4
		C171.3,117.8,171.1,117.7,170.6,117.7z M175.9,113.7c-1.3-0.9-2.6-1.5-4.3-2.1l1-1.7c1.7,0.6,2.9,1.2,4.2,1.9L175.9,113.7z"/>
</g>
<g class="st2">
	<path class="st3" d="M184.4,108.8c-0.2,0.4-0.2,0.4-0.6,1.3c-0.1,0.2-0.1,0.2-0.7,1.8l-1,2.6c0.7-0.6,1.2-0.9,2-0.9
		c0.7,0,1.3,0.3,1.6,0.8c0.2,0.3,0.3,0.7,0.4,1.4c0,0.3,0,0.6,0,1.3c0,1.1,0,1.3,0.3,1.5c0.1,0.1,0.4,0.2,0.7,0.2
		c0.7,0,1.2-0.5,1.6-1.4c0.3-0.7,0.5-1.6,0.5-2.4c0.6,0.6,1,0.8,1.9,1.3c-0.3,1.4-0.7,2.3-1.2,3.1c-0.7,1-1.9,1.6-3.1,1.6
		c-0.9,0-1.6-0.3-2.1-0.8c-0.4-0.5-0.6-1.1-0.6-2.1c0-0.1,0-0.6,0-1.1v-0.1c0-0.4,0-0.6-0.1-0.7c-0.1-0.2-0.3-0.3-0.6-0.3
		c-0.7,0-1.5,0.7-2.1,2c-0.4,0.9-1,2.4-1.2,3.3l-2.2-0.7c0.2-0.5,0.2-0.5,2.7-7.3c1.2-3.3,1.5-4.2,1.6-4.8L184.4,108.8z"/>
</g>
<g class="st2">
	<path class="st3" d="M192.7,110.7c0.5,0.1,1.2,0.1,2.1,0.1h0.5c0.1-0.7,0.2-1.8,0.2-2.1v-0.2l2.3,0.2c-0.1,0.3-0.1,0.3-0.3,1.4
		c-0.1,0.4-0.1,0.4-0.1,0.7c1-0.1,1.7-0.2,2.4-0.4l0.1,2c-0.3,0-0.3,0-0.8,0.1c-0.6,0.1-1.3,0.2-2,0.2c-0.2,1.2-0.4,2.2-0.8,3.6
		c-0.4,1.6-0.6,2.1-1.3,4c-0.1,0.4-0.3,0.8-0.3,1l-2.2-0.8c1-1.9,2-5,2.5-7.7h-0.4l-1.6,0h-0.3L192.7,110.7z M200.2,116.5
		c-0.6,0.8-0.7,1.1-0.7,1.6c0,0.7,0.7,1,2.1,1c1,0,2.4-0.2,3.2-0.6l0.1,2.1c-0.3,0-0.4,0-0.7,0.1c-1.2,0.2-1.9,0.2-2.8,0.2
		c-1.3,0-2.3-0.2-3-0.6c-0.7-0.4-1.1-1.1-1.1-1.9c0-0.8,0.3-1.5,1.1-2.6L200.2,116.5z M204.4,114.8c-0.7-0.1-1.1-0.1-1.9-0.1
		c-1.5,0-2.5,0.1-3.9,0.4l-0.1-1.9c2.2-0.4,2.9-0.5,4.6-0.5c0.4,0,0.4,0,1.3,0L204.4,114.8z M202,108.8c0.5,0.6,0.8,1.1,1.2,2
		l-1.3,0.5c-0.3-0.9-0.7-1.5-1.1-2.1L202,108.8z M203.7,108.2c0.5,0.6,0.8,1.2,1.2,1.9l-1.3,0.5c-0.4-0.8-0.7-1.4-1.1-2L203.7,108.2
		z"/>
</g>
<g class="st2">
	<path class="st3" d="M206.7,113.4c0.5,0,0.5,0,1.6-0.3c2-0.4,3.3-0.6,4.5-0.6c1.7,0,2.9,0.5,3.6,1.5c0.4,0.6,0.6,1.2,0.6,2
		c0,2-1.4,3.7-3.8,4.4c-1,0.3-1.3,0.3-3.2,0.6c-0.2-0.8-0.3-1.2-0.7-2h0.2c1.5,0,3.2-0.4,4.1-0.8c1-0.6,1.5-1.3,1.5-2.2
		c0-0.6-0.4-1.2-1-1.4c-0.4-0.1-0.8-0.2-1.3-0.2c-1,0-2.1,0.2-3.8,0.6c-0.9,0.2-1.2,0.3-1.7,0.5L206.7,113.4z"/>
</g>
<g class="st2">
	<path class="st3" d="M223.6,109c-0.6,1.9-0.9,4.5-0.9,7.1c0,0.4,0,0.9,0,1.3c0.2-0.7,0.4-1.2,0.8-2.1l1.5,0.7
		c-0.9,1.6-1.7,3.7-1.7,4.8l-2,0.1c0-0.2,0-0.3-0.1-0.6c-0.4-1.8-0.5-3.2-0.5-4.9c0-1.6,0.1-2.4,0.5-5.5c0.1-0.6,0.1-0.8,0.1-1.1
		L223.6,109z M224.4,111.6c0.7,0.1,1.5,0.2,2.6,0.2c0.5,0,1,0,1.4-0.1c-0.1-2.4-0.1-2.4-0.2-3.1l2.2,0c0,0.2,0,0.3,0,0.5
		c0,0.2,0,0.2,0,0.7c0,0.5,0,0.5,0,1c0,0.3,0,0.4,0,0.8c1-0.1,1.6-0.3,2.1-0.5l0.1,2c-0.2,0-0.2,0-0.8,0.1c-0.6,0.1-0.8,0.2-1.3,0.2
		c0,0.3,0,0.6,0,0.8c0,2.5-0.3,3.8-1,4.9c-0.6,0.9-1.3,1.6-2.6,2.3c-0.6-0.8-0.9-1.1-1.7-1.6c1-0.4,1.6-0.9,2.2-1.5
		c0.8-0.9,1-1.9,1-3.9c0-0.2,0-0.4,0-0.8c-0.6,0-1,0-1.6,0c-0.6,0-1,0-1.6,0c-0.5,0-0.5,0-0.7,0h-0.2L224.4,111.6z"/>
</g>
<g class="st2">
	<path class="st3" d="M236.8,117.3c0-0.3,0-0.3,0-0.8c0-0.8,0.2-1.5,0.6-2c0.3-0.4,0.4-0.4,1.4-1.1c0.3-0.2,0.6-0.5,0.8-0.7
		c0.2-0.2,0.3-0.5,0.3-0.8c0-0.9-0.6-1.3-1.8-1.3c-0.7,0-1.2,0.3-1.6,0.7c-0.2,0.3-0.2,0.5-0.3,1.1l-2.5-0.2c0.2-1.1,0.5-1.6,1-2.2
		c0.8-0.8,2-1.2,3.5-1.2c2.5,0,4.1,1.2,4.1,3.1c0,0.7-0.2,1.2-0.5,1.7c-0.3,0.4-0.7,0.7-1.5,1.3c-0.7,0.5-0.9,0.7-1.1,0.9
		c-0.2,0.3-0.3,0.6-0.3,1c0,0.2,0,0.3,0,0.6H236.8z M239.1,118.4v2.3h-2.5v-2.3H239.1z"/>
</g>
<g class="st2">
	<path class="st3" d="M174.3,127.3c-0.2,0.3-0.2,0.4-0.5,1.1c-0.9,2.1-1.4,3.1-2,4c1.3,1.1,1.9,1.7,3.2,3.1l-1.7,1.8
		c-0.8-1-1.6-1.8-2.9-3c-1.4,1.9-3.2,3.3-5.7,4.7c-0.4-0.8-0.7-1.1-1.5-1.8c1.7-0.8,2.7-1.5,3.8-2.5c0.6-0.6,1.2-1.1,1.7-1.8
		c-1.6-1.2-2.6-1.9-3.8-2.6l1.5-1.5c1.2,0.7,1.8,1.1,3.5,2.4c0.9-1.4,1.8-3.5,2-4.6L174.3,127.3z"/>
</g>
<g class="st2">
	<path class="st3" d="M177.7,131.6c0.7,0.1,1.2,0.1,2.7,0.1h7.3c1.5,0,2,0,2.7-0.1v2.4c-0.6,0-1.5-0.1-2.7-0.1h-7.3
		c-1.3,0-2.1,0-2.7,0.1V131.6z"/>
</g>
<g class="st2">
	<path class="st3" d="M196.7,127c-0.1,0.4-0.1,0.4-0.2,3.3c-0.1,3-0.4,4.5-1.1,6.1c-0.5,1.1-1,1.8-2,2.8c-0.7-0.9-1-1.1-1.8-1.7
		c1.1-1,1.7-1.9,2.2-3.3c0.3-1,0.4-1.8,0.5-3.3c0-0.7,0.1-1.7,0.1-2.5c0-0.8,0-1.1-0.1-1.5L196.7,127z M200.7,126.7
		c-0.1,0.6-0.1,0.8-0.1,1.8l-0.1,7.7c0.9-0.5,1.4-0.9,2-1.6c0.6-0.8,1-1.5,1.3-2.6c0.6,0.8,0.8,1,1.6,1.6c-0.6,1.5-1.4,2.6-2.4,3.5
		c-0.8,0.7-1.6,1.1-3.1,1.7c-0.4,0.1-0.5,0.2-0.7,0.3l-1.1-1.1c0.1-0.4,0.1-0.7,0.1-1.4l0.1-8.1v-0.4c0-0.6,0-1-0.1-1.3L200.7,126.7
		z"/>
</g>
<g class="st2">
	<path class="st3" d="M208.4,135.3c0-0.3,0-0.3,0-0.8c0-0.8,0.2-1.5,0.6-2c0.3-0.4,0.4-0.4,1.4-1.1c0.3-0.2,0.6-0.5,0.8-0.7
		c0.2-0.2,0.3-0.5,0.3-0.8c0-0.9-0.6-1.3-1.8-1.3c-0.7,0-1.2,0.3-1.6,0.7c-0.2,0.3-0.2,0.5-0.3,1.1l-2.5-0.2c0.2-1.1,0.5-1.6,1-2.2
		c0.8-0.8,2-1.2,3.5-1.2c2.5,0,4.1,1.2,4.1,3.1c0,0.7-0.2,1.2-0.5,1.7c-0.3,0.4-0.7,0.7-1.5,1.3c-0.7,0.5-0.9,0.7-1.1,0.9
		c-0.2,0.3-0.3,0.6-0.3,1c0,0.2,0,0.3,0,0.6H208.4z M210.7,136.4v2.3h-2.5v-2.3H210.7z"/>
</g>
<g class="st2">
	<path class="st3" d="M166.6,146.3c0-0.8,0-1.2-0.1-1.7h2.4c-0.1,0.4-0.1,0.8-0.1,1.6v1.4l5.2-0.6c0.7-0.1,0.8-0.1,1.1-0.2l1.2,1.1
		c-0.2,0.2-0.2,0.3-0.4,0.7c-0.4,1-0.9,1.7-1.6,2.5c-0.5,0.6-1,1.1-2,1.9c-0.7-0.8-1-1-1.7-1.4c0.7-0.4,1.1-0.7,1.7-1.2
		c0.5-0.5,0.8-0.8,1.1-1.5l-4.5,0.6v3.2c0,0.9,0,0.9,0.1,1.2c0.1,0.3,0.2,0.5,0.7,0.6c0.3,0.1,0.8,0.1,1.3,0.1
		c0.7,0,1.8-0.1,2.6-0.2c0.8-0.1,1.2-0.2,1.9-0.4l0.1,2.3c-0.3,0-0.3,0-1.6,0.1c-1.2,0.1-2.2,0.2-3,0.2c-1.2,0-2.1-0.1-2.7-0.3
		c-0.6-0.2-1.1-0.7-1.3-1.3c-0.1-0.5-0.1-0.7-0.1-2v-3.2l-1,0.1c-1.2,0.1-1.3,0.2-1.9,0.3l-0.2-2.1c0.2,0,0.3,0,0.4,0
		c0.3,0,0.8,0,1.5-0.1l1.2-0.1V146.3z"/>
</g>
<g class="st2">
	<path class="st3" d="M182.2,146.4c-0.2-1.2-0.2-1.2-0.4-1.7l2.3-0.4c0,0.5,0.1,0.9,0.2,1.7l0.2,0.9l2.6-0.4
		c0.9-0.1,1.3-0.2,1.8-0.4l0.3,2.1c-0.6,0.1-0.6,0.1-1.8,0.2l-2.6,0.4l0.4,2.1l2.9-0.5c1-0.1,1.3-0.2,1.9-0.4l0.4,2.1
		c-0.5,0-0.5,0-1.9,0.3l-2.9,0.5l0.4,2.2c0.2,1.1,0.3,1.5,0.5,2l-2.3,0.4c0-0.4-0.1-1.1-0.3-2l-0.4-2.2l-3.1,0.5
		c-0.9,0.1-1.2,0.2-1.8,0.4l-0.3-2.1c0.6,0,1-0.1,1.9-0.2l3-0.5l-0.4-2.1l-2.3,0.3c-1,0.2-1.2,0.2-2,0.4l-0.3-2.1c0.6,0,0.9,0,2-0.2
		l2.3-0.3L182.2,146.4z"/>
</g>
<g class="st2">
	<path class="st3" d="M200.3,154.8c0.9,0,1.2,0,1.7-0.1v1.9c-0.4,0-1-0.1-1.7-0.1h-7c-0.8,0-1.3,0-1.7,0.1v-1.9
		c0.5,0.1,0.8,0.1,1.7,0.1h3.9c0.3-1.7,0.5-3.1,0.7-4.5h-3.1c-0.9,0-1.1,0-1.7,0.1v-1.9c0.6,0.1,0.8,0.1,1.7,0.1h3.5
		c0.5,0,0.6,0,1-0.1l0.9,0.8c-0.2,0.4-0.2,0.5-0.3,1c-0.2,1.6-0.4,3-0.7,4.6H200.3z"/>
</g>
<g class="st2">
	<path class="st3" d="M207,144.8c-0.1,0.5-0.1,1-0.1,2v2.8c0,0.9,0,1.6,0.1,2h-2.4c0.1-0.5,0.1-1.1,0.1-2v-2.8c0-1.1,0-1.4-0.1-2
		H207z M213.7,144.8c-0.1,0.5-0.1,0.8-0.1,1.9v1.5c0,2.4-0.1,3.3-0.3,4.2c-0.4,1.6-1.4,2.7-3,3.7c-0.8,0.5-1.6,0.8-2.9,1.1
		c-0.3-0.9-0.5-1.2-1.2-2.1c1.3-0.3,2-0.5,2.8-0.9c1.3-0.7,2-1.6,2.2-2.9c0.1-0.6,0.2-1.8,0.2-3.2v-1.4c0-1.1,0-1.4-0.1-2H213.7z"/>
</g>
<g class="st2">
	<path class="st3" d="M224.7,150.7c-0.1,1.7-0.4,2.9-1.1,4c-0.8,1.2-1.8,2-3.7,2.8c-0.5-0.9-0.7-1.2-1.4-1.9
		c1.8-0.6,2.9-1.3,3.5-2.4c0.3-0.6,0.5-1.4,0.5-2.3h-3.2c-1,0-1.5,0-2.1,0.1v-2.1c0.7,0.1,1.1,0.1,2.1,0.1h8.2c1,0,1.5,0,2.1-0.1
		v2.1c-0.7-0.1-0.9-0.1-2.1-0.1H224.7z M218.6,145c0.7,0.1,1.1,0.1,2.1,0.1h5.2c1.1,0,1.5,0,2.1-0.1v2.1c-0.5-0.1-0.8-0.1-2.1-0.1
		h-5.3c-1,0-1.5,0-2.1,0.1V145z"/>
</g>
<g class="st2">
	<path class="st3" d="M241.2,148c-0.2,0.2-0.2,0.2-0.5,0.5c-0.8,0.8-1.7,1.7-2.7,2.4v4.7c0,0.8,0,1.2,0.1,1.7h-2.2
		c0.1-0.5,0.1-0.9,0.1-1.7v-3.5c-1,0.6-1.9,1-3.9,1.8c-0.4-0.8-0.5-1.1-1.1-1.8c2.2-0.6,4.2-1.5,5.9-2.8c1.2-0.9,2.2-1.9,2.6-2.6
		L241.2,148z"/>
</g>
<g class="st2">
	<path class="st3" d="M244.2,146.4c0.3,0.1,0.6,0.1,1.2,0.1h3.1c0.6,0,0.9,0,1.2-0.1v1.7c-0.3,0-0.4,0-1.1,0h-3.2
		c-0.5,0-0.8,0-1.2,0.1V146.4z M249.8,150c0.3,0,0.5,0.1,0.9,0.1c-0.4-0.4-0.9-0.8-1.4-1.1v1.2c-0.3,0-0.5,0-0.9,0h-2.8
		c-0.4,0-0.7,0-0.9,0v-1.5c0.3,0,0.5,0,0.9,0h2.8c0.5,0,0.6,0,0.9,0v0.3c1.1-0.8,1.4-1.7,1.4-3.7c0-0.3,0-0.6-0.1-0.9
		c0.4,0,0.7,0.1,1.1,0.1h2.4c0.5,0,0.8,0,1.2-0.1c0,0.3,0,0.7,0,1.1v2.1c0,0.2,0.1,0.2,0.4,0.2c0.5,0,0.5,0,0.6-1.7
		c0.5,0.3,0.9,0.4,1.5,0.6c-0.1,1.4-0.2,1.9-0.4,2.2c-0.3,0.4-0.6,0.4-1.8,0.4c-1.6,0-1.8-0.2-1.8-1v-2.3h-1.3
		c-0.1,1.4-0.3,2.2-0.8,3c-0.2,0.4-0.4,0.6-0.7,0.9h4.2c0.5,0,0.8,0,1,0l0.9,0.9c-0.1,0.2-0.1,0.2-0.3,0.6c-0.6,1.4-1.1,2.2-1.9,3.1
		c0.9,0.5,1.8,0.8,3.1,1c-0.4,0.7-0.6,1.2-0.9,1.9c-1.7-0.5-2.7-1-3.6-1.6c-1,0.7-2,1.2-3.3,1.7c-0.2-0.5-0.4-0.8-0.7-1.3
		c0,0.6,0,0.7,0,1.1h-1.7v-0.4h-1.4v0.7h-1.8c0-0.5,0.1-0.9,0.1-1.4v-2.2c0-0.5,0-0.7-0.1-1.1c0.3,0,0.6,0,1.1,0h2.8
		c0.5,0,0.7,0,0.9,0c0,0.3,0,0.5,0,1v2c1-0.3,1.8-0.6,2.6-1.1c-0.3-0.3-0.5-0.5-0.7-0.8c-1-1.2-1-1.2-1.1-1.4l1.5-0.8H251
		c-0.5,0-0.8,0-1.2,0.1V150z M244.7,144.3c0.4,0,0.6,0.1,1.3,0.1h2.2c0.6,0,0.9,0,1.3-0.1v1.5c-0.4,0-0.7,0-1.3,0h-2.2
		c-0.6,0-0.9,0-1.3,0V144.3z M244.7,150.7c0.3,0,0.5,0,0.9,0h2.8c0.5,0,0.6,0,0.9,0v1.5c-0.3,0-0.4,0-0.9,0h-2.8c-0.4,0-0.6,0-0.9,0
		V150.7z M246.4,155.4h1.4v-1.2h-1.4V155.4z M251.8,151.7c0.5,0.9,0.9,1.3,1.6,1.9c0.6-0.6,0.9-1,1.3-1.9H251.8z"/>
</g>
<g class="st2">
	<path class="st3" d="M265,149.9h-2.5c-0.7,0-1.1,0-1.5,0.1v-1.1h-1.7c0.1-0.4,0.1-0.7,0.1-1.2v-1.2c0-0.4,0-0.7-0.1-1.1
		c0.6,0,1.1,0.1,1.7,0.1h3.7V145c0-0.4,0-0.6-0.1-0.9h2.1c-0.1,0.3-0.1,0.5-0.1,0.9v0.4h3.8c0.6,0,1.1,0,1.7-0.1
		c0,0.4-0.1,0.7-0.1,1.1v1.2c0,0.4,0,0.8,0.1,1.2h-1.6v1.1c-0.4-0.1-0.8-0.1-1.5-0.1h-2.2v1.6h2.7c0.7,0,1.1,0,1.5-0.1v1.8
		c-0.4-0.1-0.8-0.1-1.5-0.1h-2.7v2.1c0.7,0.1,1.3,0.1,2.1,0.1c1,0,1.9,0,3.5-0.2c-0.3,0.7-0.4,1.2-0.4,1.9c-1.2,0-2.1,0-2.9,0
		c-2,0-3.5-0.2-4.5-0.6c-1-0.4-1.7-0.9-2.3-1.8c-0.6,1.1-1,1.8-1.9,2.7c-0.5-0.6-0.8-1-1.5-1.4c0.8-0.8,1.3-1.4,1.8-2.3
		c0.5-0.9,0.9-2.2,1-3.1l1.9,0.3c-0.2,0.7-0.4,1.4-0.6,2.1c0.6,0.9,1.1,1.4,2,1.8V149.9z M270.3,147.1h-9v1.1c0.3,0,0.7,0,1.3,0h6.5
		c0.5,0,0.9,0,1.3,0V147.1z"/>
</g>
<g class="st2">
	<path class="st3" d="M276.3,153.3c0-0.3,0-0.3,0-0.8c0-0.8,0.2-1.5,0.6-2c0.3-0.4,0.4-0.4,1.4-1.1c0.3-0.2,0.6-0.5,0.8-0.7
		c0.2-0.2,0.3-0.5,0.3-0.8c0-0.9-0.6-1.3-1.8-1.3c-0.7,0-1.2,0.3-1.6,0.7c-0.2,0.3-0.2,0.5-0.3,1.1l-2.5-0.2c0.2-1.1,0.5-1.6,1-2.2
		c0.8-0.8,2-1.2,3.5-1.2c2.5,0,4.1,1.2,4.1,3.1c0,0.7-0.2,1.2-0.5,1.7c-0.3,0.4-0.7,0.7-1.5,1.3c-0.7,0.5-0.9,0.7-1.1,0.9
		c-0.2,0.3-0.3,0.6-0.3,1c0,0.2,0,0.3,0,0.6H276.3z M278.7,154.4v2.3h-2.5v-2.3H278.7z"/>
</g>
<path class="st4" d="M18.5,64.1h70.8c1.7,0,3.1,1.4,3.1,3.1l0,0V178c0,1.7-1.4,3.1-3.1,3.1l0,0H3.1c-1.7,0-3.1-1.4-3.1-3.1
	c0,0,0,0,0,0V82.5"/>
<path class="st3" d="M18.5,64.1V81c0,0.9-0.7,1.5-1.5,1.5h0H0"/>
<path class="st3" d="M73.9,97.8H18.5c-1.6-0.1-2.8-1.5-2.8-3.1c0.1-1.5,1.3-2.7,2.8-2.8h55.4c1.6-0.1,3,1.1,3.1,2.8s-1.1,3-2.8,3.1
	C74.1,97.8,74,97.8,73.9,97.8z"/>
<path class="st3" d="M73.9,116.3H18.5c-1.6-0.1-2.8-1.5-2.8-3.1c0.1-1.5,1.3-2.7,2.8-2.8h55.4c1.6-0.1,3,1.1,3.1,2.8s-1.1,3-2.8,3.1
	C74.1,116.3,74,116.3,73.9,116.3z"/>
<path class="st3" d="M18.5,129.4h29.4c1.6,0,2.9,1.3,2.9,2.9l0,0c0,1.6-1.3,2.9-2.9,2.9H18.5c-1.6,0-2.9-1.3-2.9-2.9l0,0
	C15.6,130.7,16.9,129.4,18.5,129.4z"/>
<path class="st5" d="M70.1,160.8l15.6-6.1c1.1-0.4,1.6-1.6,1.2-2.7c-0.1-0.4-0.4-0.7-0.7-0.9l-15.1-10.6c-0.9-0.7-2.2-0.4-2.9,0.5
	c-0.2,0.3-0.4,0.7-0.4,1.1l-0.5,16.8c0,1.1,0.9,2.1,2,2.1C69.6,160.9,69.9,160.9,70.1,160.8z"/>
<path class="st3" d="M112.2,84.2l13.3,9.4c1.4,1,1.8,3,0.8,4.4l0,0l-39.6,56l0,0l-18.5-13l0,0l39.6-56
	C108.8,83.5,110.8,83.2,112.2,84.2C112.2,84.2,112.2,84.2,112.2,84.2z"/>
<rect x="109" y="87.5" transform="matrix(0.5775 -0.8164 0.8164 0.5775 -33.2262 133.4523)" class="st5" width="6.6" height="22.7"/>
<path class="st3" d="M67.3,158.8c0,1.1,0.9,2.1,2,2.1c0.3,0,0.6,0,0.8-0.1l6.7-2.6l-9.3-6.6L67.3,158.8z"/>
</svg>
