<svg id="レイヤー_1" data-name="レイヤー 1" xmlns="http://www.w3.org/2000/svg" width="153" height="140" viewBox="0 0 153 140"><defs><style>.cls-1{fill:#fff;}.cls-2{fill:#58cde0;}.cls-3{fill:#47a20a;}.cls-4{fill:#fff3d9;}.cls-5{fill:#ffe2cc;}.cls-6{fill:#3a3a3a;}.cls-7{fill:#35318f;}.cls-8{fill:#8fc31f;}.cls-9{fill:none;stroke:#8fc31f;stroke-miterlimit:10;stroke-width:3.54px;}.cls-10{fill:#ccc;}</style></defs><g id="男子ol"><path class="cls-1" d="M76,122l.88,0-7.09-16.45A110.33,110.33,0,0,1,66.1,122l8.14-.78A1.9,1.9,0,0,1,76,122Z"/><path class="cls-2" d="M64,139.21c-1.37-7-.22-12.22,2.16-18.55a68.92,68.92,0,0,0,3.57-15.17l7.09,16.45L76,122a1.86,1.86,0,0,1,.36.94V123a1.92,1.92,0,0,1-1.73,2.1l-3.45.33c1-.1,2.58,3.61,2.6,4.39,0,1.43-1,2.69-1.35,4-.16.58,11.89.75,12.92.67a49.12,49.12,0,0,0,11.52-2.06,26.94,26.94,0,0,0-3.47-14.92,166.17,166.17,0,0,1-7.49-16.13L77.35,81.58a7.16,7.16,0,0,0-7.48-4.24A33.3,33.3,0,0,1,65.42,81a29.12,29.12,0,0,1-3.32,2,27.36,27.36,0,0,1-12.32,3,28.72,28.72,0,0,1-20.22-8.67c-3.19,2.14-7.31,2.92-8.07,1.77a27.45,27.45,0,0,0-5.38,3.56,6.32,6.32,0,0,0-3.19,3.21c-1.3,3-3.87,5.68-5.21,8.86C3,105.86,1.8,116.71.25,128.78c-.39,3-.61,6.44,1.57,8.51,3.15,3,11,1.92,15.27,1.92H63.77A2.43,2.43,0,0,1,64,139.21Z"/><path class="cls-3" d="M69.2,13.28c-.38-.34-.77-.66-1.17-1-.31.17-.63.34-1,.5A14.94,14.94,0,0,1,69.2,13.28Z"/><path class="cls-3" d="M20.77,71.62a2.92,2.92,0,0,0-.61-.49Z"/><polygon class="cls-3" points="20.16 71.13 20.16 71.13 20.16 71.13 20.16 71.13"/><path class="cls-4" d="M18.1,49.6v.08l0,0A.21.21,0,0,1,18.1,49.6Z"/><path class="cls-5" d="M79.72,53.15c-.33.24-.66.48-1,.7C81.3,41.05,73.19,35.36,67.78,27A26.5,26.5,0,0,1,53,35.28c-1.31.64,5.14-12.15,5.14-12.15s-13,15.54-21.47,17.17c0-7.43,1.56-12.48,4.76-17.73C32.6,38.26,26.21,40.42,23.79,49.23a8.18,8.18,0,0,1-2.25,16.05h0a37.88,37.88,0,0,0,2.62,5.07,35.41,35.41,0,0,0,3.29,4.57c.4.48.81.93,1.23,1.38s.59.62.89.91a28.72,28.72,0,0,0,20.22,8.67,27.36,27.36,0,0,0,12.32-3,29.12,29.12,0,0,0,3.32-2,33.3,33.3,0,0,0,4.45-3.63A40.15,40.15,0,0,0,81.35,51.75,15.78,15.78,0,0,1,79.72,53.15ZM47.54,51a3.2,3.2,0,1,1-3.2,3.2A3.2,3.2,0,0,1,47.54,51ZM67,57.42a3.2,3.2,0,1,1,3.2-3.2A3.2,3.2,0,0,1,67,57.42Z"/><path class="cls-5" d="M71.14,125.66a8.72,8.72,0,0,0-2,0c-1.25.06-3.06.78-4.22,0a1.94,1.94,0,0,1-.87-1.43v-.11a1.85,1.85,0,0,1,.5-1.47,1.14,1.14,0,0,1,.19-.19c-.35-.07-.71-.12-1.07-.16-6.52-.67-12.62,3.21-12.25,10.2a1.56,1.56,0,0,0,.42,1.15,1.7,1.7,0,0,0,1.1.22c6.87-.24,13.74.63,20.64.63a3.55,3.55,0,0,0,2.14-.44,2.68,2.68,0,0,0,.88-2.56,6.78,6.78,0,0,0-2.3-4.06A5.94,5.94,0,0,0,71.14,125.66Z"/><path class="cls-5" d="M76.34,122.93A1.86,1.86,0,0,0,76,122a1.9,1.9,0,0,0-1.74-.79L66.1,122l-.28,0a1.9,1.9,0,0,0-1,.42l0,0a1.14,1.14,0,0,0-.19.19,1.85,1.85,0,0,0-.5,1.47v.11A1.94,1.94,0,0,0,66.2,126l2.31-.23,2.66-.25,3.45-.33a1.92,1.92,0,0,0,1.73-2.1Z"/><path class="cls-6" d="M67,57.42a3.2,3.2,0,1,0-3.2-3.2A3.2,3.2,0,0,0,67,57.42Z"/><circle class="cls-6" cx="47.54" cy="54.22" r="3.2"/><path class="cls-5" d="M23.79,49.23a29.4,29.4,0,0,0-.9,5.25,17.49,17.49,0,0,1-4.75-4.82l0,0a8.18,8.18,0,0,0,3.43,15.6h0a8.18,8.18,0,0,0,2.25-16.05Z"/><path class="cls-7" d="M69.2,13.28a14.94,14.94,0,0,0-2.13-.47c.33-.16.65-.33,1-.5,3.25-1.8,5.1-4.15,3.19-4.55A39.58,39.58,0,0,1,59,7.69,44,44,0,0,0,48.16,5.81c-6.93,0-19.44,1.6-23.85,11.75-.39.13-.74.29-1.12.43a12.85,12.85,0,0,0-8.7-1.37c-5.14,1.48-4.28,5.82-4.28,5.82a25.06,25.06,0,0,1,8.1-1.76c-8.18,6.2-10.66,18.13-9.53,27.45a51.53,51.53,0,0,1-2.54,9.36c0,1.91,2.08,1.26,4.47-.82a33.39,33.39,0,0,0,9.45,14.46h0a2.92,2.92,0,0,1,.61.49c.86.86,2.19,2.93.59,6.78a.79.79,0,0,0,.13.58c.76,1.15,4.88.37,8.07-1.77-.3-.29-.59-.6-.89-.91s-.83-.9-1.23-1.38a35.41,35.41,0,0,1-3.29-4.57,37.88,37.88,0,0,1-2.62-5.07,8.18,8.18,0,0,1-3.43-15.6V49.6a.21.21,0,0,0,0,.06,17.49,17.49,0,0,0,4.75,4.82,29.4,29.4,0,0,1,.9-5.25c2.42-8.81,8.81-11,17.68-26.66-3.2,5.25-4.76,10.3-4.76,17.73,8.42-1.63,21.47-17.17,21.47-17.17S51.73,35.92,53,35.28A26.5,26.5,0,0,0,67.78,27c5.41,8.35,13.52,14,10.92,26.84.36-.22.69-.46,1-.7a15.78,15.78,0,0,0,1.63-1.4C91.33,41.63,84.23,17.51,69.2,13.28Z"/></g><rect class="cls-8" x="48.43" y="130.29" width="75.33" height="8.9" rx="4.24" transform="translate(172.19 269.47) rotate(-180)"/><path class="cls-8" d="M86.61,139.18h39.48a6.11,6.11,0,0,0,5.56-4.49l11-53.9c.62-3.13-2-4.49-4.49-4.49H99a5.59,5.59,0,0,0-5.88,4.49l-11,53.9C81.61,137.21,84.14,139.18,86.61,139.18Z"/><circle class="cls-1" cx="114.8" cy="105.53" r="5.04"/><path class="cls-6" d="M57.69,65.76a7.86,7.86,0,0,0-5.59,2.32,1.42,1.42,0,0,0,2,2,5.07,5.07,0,0,1,7.17,0,1.43,1.43,0,0,0,2,0,1.41,1.41,0,0,0,0-2A7.9,7.9,0,0,0,57.69,65.76Z"/><path class="cls-1" d="M123.34,3.77a27.66,27.66,0,0,0-4.68,54.93l4.68,8.09L128,58.7a27.66,27.66,0,0,0-4.67-54.93Z"/><path class="cls-9" d="M123.34,3.77a27.66,27.66,0,0,0-4.68,54.93l4.68,8.09L128,58.7a27.66,27.66,0,0,0-4.67-54.93Z"/><rect id="長方形_2296" data-name="長方形 2296" class="cls-10" x="115.95" y="32.43" width="7.28" height="11.79" rx="0.9"/><rect id="長方形_2297" data-name="長方形 2297" class="cls-10" x="124.69" y="27.43" width="7.28" height="16.78" rx="0.9"/><rect id="長方形_2298" data-name="長方形 2298" class="cls-10" x="107.21" y="36.19" width="7.28" height="8.02" rx="0.9"/><rect id="長方形_2299" data-name="長方形 2299" class="cls-10" x="133.42" y="22.94" width="7.28" height="21.28" rx="0.9"/><path class="cls-8" d="M119.22,28a1.22,1.22,0,0,1-.87-.36l-8.65-8.65a1.23,1.23,0,1,1,1.74-1.74l8.65,8.64a1.24,1.24,0,0,1-.87,2.11Z"/><path class="cls-8" d="M110.57,28a1.24,1.24,0,0,1-.87-2.11l8.65-8.64a1.23,1.23,0,0,1,1.74,1.74l-8.65,8.65A1.22,1.22,0,0,1,110.57,28Z"/></svg>