<?xml version="1.0" encoding="utf-8"?>
<!-- Generator: Adobe Illustrator 27.6.1, SVG Export Plug-In . SVG Version: 6.00 Build 0)  -->
<svg version="1.1" id="レイヤー_1" xmlns="http://www.w3.org/2000/svg" xmlns:xlink="http://www.w3.org/1999/xlink" x="0px"
	 y="0px" width="315.9px" height="174.4px" viewBox="0 0 315.9 174.4" style="enable-background:new 0 0 315.9 174.4;"
	 xml:space="preserve">
<style type="text/css">
	.st0{fill:#FFFFFF;}
	.st1{fill:none;stroke:#8FC31F;stroke-width:3.19;stroke-miterlimit:10;}
	.st2{enable-background:new    ;}
	.st3{fill:#35318F;}
	.st4{fill:none;stroke:#00AAE7;stroke-width:9;stroke-linecap:round;stroke-miterlimit:10;}
	.st5{fill:none;stroke:#00AAE7;stroke-width:9.81;stroke-linecap:round;stroke-miterlimit:10;}
</style>
<path class="st0" d="M230.6,65.2h-1.2c13.2-6.8,21.4-16,21.4-26.3c0-20.6-33.2-37.4-74.1-37.4S102.6,18.3,102.6,39
	c0,20,31.1,36.3,70.2,37.3c-16,7.3-25.9,17.5-25.9,28.9c0.1,4.9,1.8,9.5,4.8,13.4l-5.4,10.4l15.8-0.8c15.1,10.3,40.1,17,68.4,17
	c46.2,0,83.7-17.9,83.7-40S276.8,65.2,230.6,65.2z"/>
<path class="st1" d="M230.6,65.2h-1.2c13.2-6.8,21.4-16,21.4-26.3c0-20.6-33.2-37.4-74.1-37.4S102.6,18.3,102.6,39
	c0,20,31.1,36.3,70.2,37.3c-16,7.3-25.9,17.5-25.9,28.9c0.1,4.9,1.8,9.5,4.8,13.4l-5.4,10.4l15.8-0.8c15.1,10.3,40.1,17,68.4,17
	c46.2,0,83.7-17.9,83.7-40S276.8,65.2,230.6,65.2z"/>
<g class="st2">
	<path class="st3" d="M132.9,23.8c-0.3-0.5-0.5-0.8-1-1.4l1.9-0.5c0.6,0.8,0.9,1.2,1.2,1.9h1.9c0.5-0.6,0.8-1.1,1.1-1.9l2,0.5
		c-0.3,0.5-0.7,1-1,1.4h1.9c0.7,0,1.1,0,1.6-0.1v1.8c-0.4-0.1-0.8-0.1-1.6-0.1H131c-0.7,0-1.1,0-1.6,0.1v-1.8
		c0.5,0.1,0.9,0.1,1.6,0.1H132.9z M132,33.9c0,0.7,0,1.1,0.1,1.6h-2c0.1-0.5,0.1-1,0.1-1.7v-6.3c0-0.7,0-1-0.1-1.3
		c0.4,0,0.8,0,1.3,0h3.2c0.7,0,1,0,1.3,0c0,0.3,0,0.7,0,1.4v6.3c0,1.3-0.4,1.6-1.9,1.6c-0.1,0-0.3,0-0.8,0c-0.1-0.8-0.2-1-0.4-1.6
		c0.5,0.1,0.7,0.1,1,0.1c0.3,0,0.3-0.1,0.3-0.4v-0.9H132V33.9z M134.1,28.7v-0.8H132v0.8H134.1z M134.1,31v-0.9H132V31H134.1z
		 M138.9,26.5c0,0.4-0.1,0.7-0.1,1.4V31c0,0.8,0,1.1,0.1,1.5h-1.9c0-0.5,0.1-0.7,0.1-1.5v-3.2c0-0.6,0-0.9-0.1-1.4H138.9z
		 M141.8,26.1c-0.1,0.4-0.1,0.8-0.1,1.5v6c0,0.7-0.1,1.1-0.3,1.3c-0.3,0.3-0.8,0.5-1.8,0.5c-0.4,0-0.5,0-1.6,0
		c-0.1-0.7-0.2-1.1-0.5-1.8c0.7,0.1,1.3,0.1,1.7,0.1c0.6,0,0.7-0.1,0.7-0.4v-5.7c0-0.8,0-1.1-0.1-1.5H141.8z"/>
</g>
<g class="st2">
	<path class="st3" d="M150.2,31.2c-0.8,1.8-1.8,2.7-3,2.7c-1.8,0-3.1-1.8-3.1-4.2c0-1.7,0.6-3.2,1.6-4.3c1.2-1.4,3-2.1,5.1-2.1
		c3.6,0,6,2.2,6,5.6c0,2.6-1.3,4.7-3.6,5.6c-0.7,0.3-1.3,0.4-2.3,0.6c-0.3-0.9-0.5-1.3-1.1-2.1c1.3-0.1,2.2-0.3,2.9-0.7
		c1.2-0.7,2-2,2-3.6c0-1.3-0.6-2.4-1.6-3c-0.4-0.3-0.8-0.4-1.3-0.5C151.4,27.6,150.9,29.5,150.2,31.2z M147.9,25.9
		c-1.1,0.9-1.8,2.3-1.8,3.7c0,1.1,0.5,2,1,2c0.4,0,0.9-0.6,1.3-1.7c0.5-1.3,1-3.1,1.2-4.7C148.9,25.3,148.4,25.5,147.9,25.9z"/>
</g>
<g class="st2">
	<path class="st3" d="M158.7,27.5c0.4,0.1,0.6,0.1,1.2,0.1h1.2c0.4,0,0.8,0,1.1-0.1c0,0.4-0.1,0.8-0.1,1.6v3.2
		c0.7,1,1.4,1.3,3.4,1.3c3.1,0,5.2-0.1,6.9-0.3c-0.3,0.9-0.4,1.1-0.5,2c-1.3,0.1-3.2,0.1-4.6,0.1c-4.1,0-4.8-0.2-6-1.5
		c-0.5,0.5-0.9,0.8-1.8,1.5c0,0-0.1,0-0.2,0.2l-0.8-2c0.5-0.2,1.3-0.7,2-1.3v-3h-0.7c-0.4,0-0.6,0-0.9,0.1V27.5z M162.5,23.1
		c0.5,0.1,0.9,0.1,1.7,0.1h2v-0.3c0-0.3,0-0.6-0.1-0.8h1.9c-0.1,0.2-0.1,0.5-0.1,0.7v0.4h2.3c0.8,0,1.2,0,1.7-0.1v1.8
		c-0.4-0.1-0.7-0.1-1.3-0.1h-2.7v0.7h2.1c0.6,0,0.9,0,1.4-0.1c0,0.4-0.1,0.7-0.1,1.3v1.5c0,0.6,0,0.9,0.1,1.3
		c-0.4,0-0.7-0.1-1.4-0.1h-1.2c1.1,1,1.8,1.3,3.4,1.9c-0.4,0.7-0.6,1-0.9,1.7c-0.8-0.3-1.2-0.6-1.9-1c-0.7-0.5-1-0.8-1.7-1.4
		c0,0.2,0,0.5,0,0.9v0.8c0,0.4,0,0.6,0.1,0.9h-1.9c0.1-0.3,0.1-0.5,0.1-0.9v-0.9c0-0.2,0-0.5,0-0.8c-0.8,0.9-1.5,1.5-2.9,2.3
		c-0.4-0.7-0.6-1-1.1-1.6c1.4-0.6,2.2-1,3.2-1.9h-1.1c-0.7,0-1,0-1.4,0.1c0-0.5,0.1-0.7,0.1-1.3v-1.4c0-0.6,0-0.9-0.1-1.3
		c0.4,0,0.8,0.1,1.4,0.1h1.9v-0.7h-2.3c-0.6,0-1,0-1.3,0.1l-1.4,1.4c-0.8-1.1-1.5-1.8-2.5-2.8l1.4-1.3c1,0.9,1.6,1.5,2.5,2.5V23.1z
		 M164.6,26.9v1h1.5v-1H164.6z M167.9,28h1.7v-1h-1.7V28z"/>
</g>
<g class="st2">
	<path class="st3" d="M176.3,27c0,2.1-0.1,3.7-0.4,5c-0.3,1.4-0.6,2.4-1.3,3.5c-0.5-0.7-0.8-1.1-1.4-1.6c1-1.9,1.2-3.7,1.2-9
		c0-0.9,0-1.3-0.1-1.9c0.5,0,1.1,0.1,1.7,0.1h3.5v-0.3c0-0.3,0-0.5-0.1-0.8h2.1c-0.1,0.2-0.1,0.4-0.1,0.8v0.2h3.4
		c0.8,0,1.4,0,1.8-0.1v1.7c-0.5,0-0.8-0.1-1.5-0.1h-0.9v0.3v0.6h1.2c0.6,0,0.9,0,1.3-0.1v1.7c-0.3,0-0.6-0.1-1.3-0.1h-1.2v1.3
		c0,0.4,0,0.7,0,0.9c-0.4,0-0.4,0-0.9,0H179c-0.6,0-0.7,0-1,0c0-0.2,0-0.6,0-0.9V27H176.3z M178.1,31.3c-0.6,0-1.1,0-1.5,0.1v-1.6
		c0.4,0,0.8,0.1,1.6,0.1h5c0.6,0,0.9,0,1.3,0l0.9,1c-0.1,0.1-0.1,0.1-0.5,0.6c-0.6,0.7-1.3,1.3-2,1.8c1.1,0.3,2.3,0.5,3.6,0.5h0.4
		c-0.3,0.6-0.5,1.2-0.7,1.9c-2.3-0.2-3.8-0.6-5.3-1.3c-1.5,0.7-2.7,1-4.8,1.3c-0.2-0.7-0.3-1-0.7-1.8c1.6-0.1,2.6-0.2,3.6-0.6
		c-0.3-0.2-0.5-0.3-0.8-0.6c-0.7-0.6-0.7-0.6-0.9-0.8l1.6-0.6H178.1z M178.1,25c0-0.1,0-0.1,0-0.3h-1.8v0.8h1.8V25z M179.4,31.3
		c0.7,0.6,1,0.8,1.8,1.2c0.7-0.4,1-0.6,1.6-1.2H179.4z M182.5,24.9v-0.3h-2.6l0,0.3v0.5h2.6V24.9z M179.9,27.8h2.6V27h-2.6V27.8z"/>
</g>
<g class="st2">
	<path class="st3" d="M194.7,22.3c-0.1,0.6-0.1,1.4-0.1,2.4c0,0.1,0,0.1,0,0.7c1.7,0,3.3-0.2,4.2-0.4L199,27c-0.1,0-0.8,0.1-2,0.2
		c-0.6,0.1-1.5,0.1-2.4,0.1c0,0.9,0,1.1,0.1,2.9c1.5,0.5,2.2,0.9,4.1,2.2c0.2,0.1,0.3,0.2,0.4,0.3l-1.3,1.9
		c-0.3-0.4-0.7-0.7-1.3-1.2c-0.7-0.5-1.1-0.8-1.9-1.2v0.4c0,1.7-1.2,2.6-3.5,2.6c-2.3,0-3.6-1-3.6-2.7c0-1,0.5-1.8,1.6-2.3
		c0.6-0.3,1.4-0.5,2.2-0.5c0.4,0,0.7,0,1.1,0.1c-0.1-1-0.2-4.3-0.2-6.3c0-0.7,0-0.9-0.1-1.3L194.7,22.3z M191.6,31.7
		c-1,0-1.6,0.4-1.6,0.9c0,0.5,0.6,0.8,1.4,0.8c0.6,0,1.1-0.2,1.3-0.5c0.1-0.2,0.1-0.3,0.1-0.7c0-0.2,0-0.4,0-0.4
		C192.3,31.7,192.1,31.7,191.6,31.7z"/>
</g>
<g class="st2">
	<path class="st3" d="M204.9,22.5c-0.2,0.7-0.3,1.4-0.6,3.6c0.4-0.9,0.8-1.4,1.3-1.9c0.7-0.7,1.5-1,2.4-1c1.2,0,2.2,0.6,2.9,1.8
		c0.6,1,0.8,2,0.8,3.5c0,2.9-1.3,5-3.9,6.1c-0.8,0.3-1.8,0.6-3,0.8c-0.3-0.9-0.5-1.3-1-2.1c4.1-0.3,5.7-1.8,5.7-5c0-1.9-0.6-3-1.8-3
		c-0.5,0-1,0.2-1.5,0.7c-1.2,1.2-1.9,2.9-1.9,4.7v0.2l-2.1,0c0-0.1,0-0.2,0-0.2c0-0.1,0-0.1,0-0.8c0-0.5,0-1,0-1.3
		c0-1.2,0.1-2.8,0.2-3.9c0.1-0.9,0.2-1.5,0.2-1.8s0-0.3,0-0.5L204.9,22.5z"/>
</g>
<g class="st2">
	<path class="st3" d="M132.7,50.3c0.7-1.4,0.9-3,0.9-7.1c0-1.1,0-1.4-0.1-1.9c0.4,0,0.8,0.1,1.4,0.1h6c0.6,0,1,0,1.3,0
		c0,0.3,0,0.6,0,1.1v1.5c0,0.5,0,0.8,0,1.1c-0.5,0-0.5,0-1.1,0c-0.1,0.3-0.3,0.6-0.5,0.9h0.4c0.6,0,0.8,0,1.2-0.1v1.5
		c-0.3,0-0.6-0.1-1.2-0.1h-1.7v0.6h1.3c0.7,0,0.9,0,1.2-0.1v1.4c-0.4,0-0.6-0.1-1.2-0.1h-1.3v0.7h1.7c0.7,0,1,0,1.4-0.1v1.6
		c-0.4-0.1-0.8-0.1-1.4-0.1h-1.7v0.1c0,0.4,0,0.6,0.1,0.9h-1.9c0-0.3,0.1-0.4,0.1-0.9v-0.1h-1.4c-0.6,0-1,0-1.4,0.1v-1.6
		c0.4,0.1,0.7,0.1,1.4,0.1h1.4v-0.7h-1c-0.5,0-0.8,0-1.1,0.1v-1.4c0.3,0,0.5,0.1,1.1,0.1h1v-0.6h-1.2c-0.3,0-0.7,0-1,0.1v-1.5
		c0.3,0.1,0.5,0.1,1,0.1c-0.2-0.4-0.3-0.6-0.4-0.9h-0.8c-0.1,3.3-0.4,5.1-1.4,7c-0.4-0.6-0.8-0.9-1.2-1.3v0.6c0.4,0.6,0.7,0.8,1.4,1
		c0.5,0.1,1.6,0.2,2.8,0.2c2.5,0,4.5-0.1,6.1-0.3c-0.2,0.6-0.4,1.2-0.5,1.9c-1.1,0-3.5,0.1-5.2,0.1c-3.4,0-4.5-0.3-5.5-1.5
		c-0.6,0.5-1.3,1.2-2,1.6l-0.8-2c0.5-0.2,1.2-0.7,1.9-1.3v-2.9h-0.7c-0.3,0-0.6,0-0.9,0.1v-1.9c0.4,0.1,0.6,0.1,1.2,0.1h1.2
		c0.4,0,0.8,0,1.1-0.1c0,0.4-0.1,0.8-0.1,1.6V50.3z M130.6,41.2c1.2,1,1.7,1.5,2.6,2.7l-1.4,1.4c-0.8-1.2-1.5-1.9-2.5-2.8
		L130.6,41.2z M140.5,43.6V43h-5.1v0.7H140.5z M139.1,45.9c0.2-0.4,0.2-0.5,0.4-0.9h-1.5c0.2,0.4,0.2,0.5,0.4,0.9H139.1z"/>
</g>
<g class="st2">
	<path class="st3" d="M146.7,42.5c-0.1,0.6-0.1,1.4-0.1,2.4c0,3.5,0.5,6,1.3,6c0.2,0,0.4-0.2,0.5-0.6c0.3-0.8,0.6-1.7,0.8-2.6
		c0.6,0.7,0.9,1,1.7,1.6c-0.8,2.8-1.7,4.1-3,4.1c-1.1,0-1.9-0.8-2.5-2.3c-0.6-1.5-0.8-3.3-0.9-7.7c0-0.5,0-0.6-0.1-1L146.7,42.5z
		 M153.5,43.1c1.9,2.2,2.9,4.8,3.3,8.1l-2.2,0.8c-0.1-1.4-0.4-3-0.9-4.3c-0.5-1.4-1.2-2.6-2.1-3.7L153.5,43.1z"/>
</g>
<g class="st2">
	<path class="st3" d="M161.2,44.6c-0.6,0.7-0.9,1-1.6,1.7c-0.4-0.5-0.8-0.9-1.3-1.4c1.2-1,2-2,2.6-3.2c0.2-0.4,0.3-0.6,0.3-0.9
		l2,0.3c-0.1,0.3-0.1,0.3-0.2,0.5c-0.1,0.2-0.1,0.2-0.2,0.4h6.5c0.8,0,1.3,0,1.8-0.1v1.9c-0.5,0-1.1-0.1-1.8-0.1h-7.5
		c-0.2,0.3-0.2,0.4-0.4,0.6c0.3,0,0.6,0,0.8,0h6.3c0.7,0,1.3,0,1.6-0.1v1.7c-0.5-0.1-0.9-0.1-1.6-0.1h-5.9c-0.6,0-1,0-1.4,0.1V44.6z
		 M160.9,48.1c-0.8,0-1.3,0-1.7,0.1v-1.8c0.3,0.1,0.6,0.1,1.2,0.1h7.6c1,0,1.3,0,1.7-0.1c-0.1,0.5-0.1,0.9-0.1,1.4
		c0,1.4,0.1,2.6,0.3,3.5c0.1,0.5,0.2,0.7,0.4,1c0.2-0.3,0.3-0.9,0.3-2c0.5,0.5,0.8,0.7,1.4,1c-0.1,1.4-0.3,2.1-0.6,2.6
		c-0.3,0.4-0.6,0.7-1.1,0.7c-0.7,0-1.4-0.7-1.9-1.8c-0.5-1.2-0.7-2.5-0.7-4.7H165l1.8,0.8c-0.1,0.1-0.2,0.3-0.6,0.7
		c-0.4,0.5-0.7,0.9-1,1.3c0.9,0.7,1.5,1.2,2.4,2l-1.3,1.5c-0.8-0.8-1.2-1.1-2.4-2.1c-1.1,0.9-2.1,1.5-4,2.4c-0.4-0.7-0.7-1-1.2-1.6
		c1.8-0.7,2.8-1.2,3.8-2c-0.8-0.6-1.3-0.9-2.4-1.6l1.3-1.2c1,0.6,1.4,0.8,2.5,1.5c0.6-0.6,1-1.3,1.2-1.7H160.9z"/>
</g>
<g class="st2">
	<path class="st3" d="M173.3,44.9L173.3,44.9c0.5,0,2.3-0.2,3-0.3c0.3-1.5,0.4-2.4,0.4-2.9c0,0,0-0.1,0-0.2l2.2,0.2
		c0,0.1-0.1,0.3-0.1,0.4c0,0.1-0.1,0.7-0.3,1.9c-0.1,0.3-0.1,0.3-0.1,0.5c0.3,0,0.6,0,0.8,0c1,0,1.8,0.3,2.3,0.8
		c0.5,0.6,0.7,1.3,0.7,2.7c0,2.6-0.4,4.6-1.2,5.4c-0.4,0.5-0.9,0.7-1.7,0.7c-0.6,0-1.2-0.1-2.2-0.4c0-0.3,0-0.4,0-0.7
		c0-0.5,0-0.9-0.2-1.6c0.7,0.3,1.6,0.6,2.1,0.6c0.4,0,0.6-0.2,0.8-0.8c0.2-0.7,0.4-2.2,0.4-3.3c0-0.7-0.1-1.1-0.4-1.3
		c-0.2-0.2-0.4-0.2-0.9-0.2c-0.2,0-0.4,0-0.7,0c-0.5,2.4-1.3,4.6-2.7,7.4c-0.1,0.3-0.1,0.3-0.2,0.5l-2-1.1c1-1.3,2.2-4.2,2.8-6.6
		c-1,0.1-2,0.3-2.4,0.4L173.3,44.9z M183,41.9c0.6,0.6,0.9,1.1,1.3,1.9l-1.3,0.6c-0.4-0.7-0.9-1.4-1.3-2L183,41.9z M184.4,44.3
		c1.1,1.6,1.8,3,2.3,5l-2,1c-0.2-1.2-0.5-2.1-1.1-3.3c-0.4-0.9-0.6-1.3-1-1.9L184.4,44.3z M184.8,41.2c0.5,0.6,1,1.1,1.3,1.8
		l-1.2,0.7c-0.4-0.8-0.8-1.3-1.3-1.9L184.8,41.2z"/>
</g>
<g class="st2">
	<path class="st3" d="M187.5,43.1c0.3,0,0.5,0,0.8,0c0.3,0,1.8,0,5.9-0.2c0-1.1,0-1.2-0.1-1.7h2.2c-0.1,0.6-0.1,0.7-0.1,1.6
		c2.5,0,3.6,0,4.1-0.1l0,2c-0.6,0-1-0.1-2.5-0.1c-0.8,0-0.9,0-1.6,0l0,0.3v0.5l0,1.2v0.3c0.4,0.7,0.5,1.4,0.5,2.2c0,1.7-0.8,3-2.3,4
		c-0.7,0.5-1.5,0.8-2.8,1.2c-0.4-1-0.6-1.3-1.2-2c1.5-0.3,2.6-0.7,3.3-1.3c0.5-0.4,0.7-0.7,0.8-1.2c-0.5,0.6-1.1,0.8-2,0.8
		c-0.7,0-1.2-0.2-1.7-0.6c-0.7-0.5-1-1.2-1-2c0-1.6,1.3-2.7,3.1-2.7c0.6,0,1,0.1,1.4,0.3c0-0.1,0-0.1,0-0.2v-0.9
		c-3.5,0.1-5.3,0.2-6.6,0.4L187.5,43.1z M191.8,48.2c0,0.6,0.5,1,1.1,1c0.7,0,1.3-0.5,1.3-1.1c0-0.5-0.5-0.9-1.1-0.9
		C192.3,47.2,191.8,47.6,191.8,48.2z"/>
</g>
<g class="st2">
	<path class="st3" d="M203.2,42c0.5,0.1,1,0.1,1.9,0.1c1.2,0,3-0.1,4.4-0.2c0.6,0,0.7-0.1,1-0.2l1,1.5c-0.3,0.2-0.3,0.2-1.4,1.2
		c-1.5,1.3-2,1.7-3.1,2.6c0.8-0.2,1.6-0.3,2.4-0.3c1.2,0,2.2,0.3,3,1c0.7,0.6,1.1,1.4,1.1,2.4c0,1.4-0.7,2.5-2,3.3
		c-1,0.6-2.2,0.9-3.6,0.9c-1.3,0-2.3-0.3-2.9-0.7c-0.6-0.4-0.9-1.1-0.9-1.8c0-1.2,1.1-2.2,2.7-2.2c1,0,1.9,0.4,2.6,1.2
		c0.3,0.3,0.4,0.7,0.7,1.2c1-0.4,1.4-1,1.4-1.9c0-1.1-1.1-1.7-2.7-1.7c-2.1,0-4.1,0.8-5.9,2.4l-1.2-1.9c1.4-0.7,4.4-3.1,6.4-5.1
		c-1.2,0.1-1.4,0.1-3.6,0.2c-0.5,0-0.6,0-1,0.1L203.2,42z M206.6,51.1c-0.4,0-0.7,0.2-0.7,0.6c0,0.5,0.6,0.8,1.5,0.8
		c0.2,0,0.3,0,0.6-0.1C207.8,51.6,207.3,51.1,206.6,51.1z"/>
</g>
<g class="st2">
	<path class="st3" d="M219,47.8c0,0.8-0.6,1.4-1.4,1.4s-1.4-0.6-1.4-1.4c0-0.8,0.6-1.4,1.4-1.4S219,47,219,47.8z M223.8,47.8
		c0,0.8-0.6,1.4-1.4,1.4c-0.8,0-1.4-0.6-1.4-1.4c0-0.8,0.6-1.4,1.4-1.4S223.8,47,223.8,47.8z M228.7,47.8c0,0.8-0.6,1.4-1.4,1.4
		c-0.8,0-1.4-0.6-1.4-1.4c0-0.8,0.6-1.4,1.4-1.4S228.7,47,228.7,47.8z"/>
</g>
<g class="st2">
	<path class="st3" d="M171.2,101.3c-0.3-0.5-0.5-0.8-1-1.4l1.9-0.5c0.6,0.8,0.9,1.2,1.2,1.9h1.9c0.5-0.6,0.8-1.1,1.1-1.9l2,0.5
		c-0.3,0.5-0.7,1-1,1.4h1.9c0.7,0,1.1,0,1.6-0.1v1.8c-0.4-0.1-0.8-0.1-1.6-0.1h-9.8c-0.7,0-1.1,0-1.6,0.1v-1.8
		c0.5,0.1,0.9,0.1,1.6,0.1H171.2z M170.3,111.4c0,0.7,0,1.1,0.1,1.6h-2c0.1-0.5,0.1-1,0.1-1.7V105c0-0.7,0-1-0.1-1.3
		c0.4,0,0.8,0,1.3,0h3.2c0.7,0,1,0,1.3,0c0,0.3,0,0.7,0,1.4v6.3c0,1.3-0.4,1.6-1.9,1.6c-0.1,0-0.3,0-0.8,0c-0.1-0.8-0.2-1-0.4-1.6
		c0.5,0.1,0.7,0.1,1,0.1c0.3,0,0.3-0.1,0.3-0.4V110h-2.1V111.4z M172.4,106.1v-0.8h-2.1v0.8H172.4z M172.4,108.5v-0.9h-2.1v0.9
		H172.4z M177.2,103.9c0,0.4-0.1,0.7-0.1,1.4v3.2c0,0.8,0,1.1,0.1,1.5h-1.9c0-0.5,0.1-0.7,0.1-1.5v-3.2c0-0.6,0-0.9-0.1-1.4H177.2z
		 M180.2,103.5c-0.1,0.4-0.1,0.8-0.1,1.5v6c0,0.7-0.1,1.1-0.3,1.3c-0.3,0.3-0.8,0.5-1.8,0.5c-0.4,0-0.5,0-1.6,0
		c-0.1-0.7-0.2-1.1-0.5-1.8c0.7,0.1,1.3,0.1,1.7,0.1c0.6,0,0.7-0.1,0.7-0.4V105c0-0.8,0-1.1-0.1-1.5H180.2z"/>
</g>
<g class="st2">
	<path class="st3" d="M188.5,108.6c-0.8,1.8-1.8,2.7-3,2.7c-1.8,0-3.1-1.8-3.1-4.2c0-1.7,0.6-3.2,1.6-4.3c1.2-1.4,3-2.1,5.1-2.1
		c3.6,0,6,2.2,6,5.6c0,2.6-1.3,4.7-3.6,5.6c-0.7,0.3-1.3,0.4-2.3,0.6c-0.3-0.9-0.5-1.3-1.1-2.1c1.3-0.1,2.2-0.3,2.9-0.7
		c1.2-0.7,2-2,2-3.6c0-1.3-0.6-2.4-1.6-3c-0.4-0.3-0.8-0.4-1.3-0.5C189.8,105,189.3,107,188.5,108.6z M186.2,103.4
		c-1.1,0.9-1.8,2.3-1.8,3.7c0,1.1,0.5,2,1,2c0.4,0,0.9-0.6,1.3-1.7c0.5-1.3,1-3.1,1.2-4.7C187.2,102.7,186.8,103,186.2,103.4z"/>
</g>
<g class="st2">
	<path class="st3" d="M207.4,112.1c-0.3-0.3-0.4-0.4-0.7-0.7c-0.8-0.7-1.8-1.3-2.6-1.7c0,0.1,0,0.2,0,0.2c0,1.7-1.1,2.5-3.4,2.5
		c-2.2,0-3.5-0.9-3.5-2.5c0-1.6,1.6-2.6,4.1-2.6c0.2,0,0.4,0,0.7,0l0-1.2c-0.4,0-1,0-1.3,0c-0.9,0-1.4,0-2.8-0.1c-0.2,0-0.3,0-0.6,0
		l0-1.9c0.6,0.1,2,0.2,3.4,0.2c0.3,0,0.8,0,1.2,0l0-0.8v-0.4c-0.4,0-0.6,0-0.8,0c-0.6,0-1.8,0-3.7-0.1c-0.2,0-0.3,0-0.4,0
		c0,0-0.1,0-0.2,0l0-1.9c0.8,0.2,2.3,0.3,4,0.3c0.2,0,0.6,0,1,0c0-1.1,0-1.2-0.1-1.7h2.2c-0.1,0.4-0.1,0.5-0.1,1.6
		c2-0.1,3.2-0.3,4.2-0.5l0.1,1.9c-0.3,0-0.3,0-1.2,0.1c-1.1,0.1-2,0.2-3,0.3c0,0.6,0,1,0,1.2c1.7-0.1,2.9-0.2,3.8-0.5l0.1,1.9
		c-0.1,0-0.1,0-0.3,0c0,0-0.1,0-0.2,0c-0.2,0-0.2,0-1.1,0.1c-0.7,0.1-1.6,0.1-2.2,0.2c0,0.8,0,1.3,0,1.5c1.4,0.4,2.4,0.9,4,2
		c0.2,0.2,0.3,0.2,0.5,0.3L207.4,112.1z M201.1,109.2c-1,0-1.6,0.3-1.6,0.8c0,0.4,0.5,0.7,1.4,0.7c1,0,1.3-0.3,1.3-1.1
		c0-0.1,0-0.3,0-0.3C201.7,109.2,201.5,109.2,201.1,109.2z"/>
</g>
<g class="st2">
	<path class="st3" d="M221.3,112.1c-0.3-0.3-0.4-0.4-0.7-0.7c-0.8-0.7-1.8-1.3-2.6-1.7c0,0.1,0,0.2,0,0.2c0,1.7-1.1,2.5-3.4,2.5
		c-2.2,0-3.5-0.9-3.5-2.5c0-1.6,1.6-2.6,4.1-2.6c0.2,0,0.4,0,0.7,0l0-1.2c-0.4,0-1,0-1.3,0c-0.9,0-1.4,0-2.8-0.1c-0.2,0-0.3,0-0.6,0
		l0-1.9c0.6,0.1,2,0.2,3.4,0.2c0.3,0,0.8,0,1.2,0l0-0.8v-0.4c-0.4,0-0.6,0-0.8,0c-0.6,0-1.8,0-3.7-0.1c-0.2,0-0.3,0-0.4,0
		c0,0-0.1,0-0.2,0l0-1.9c0.8,0.2,2.3,0.3,4,0.3c0.2,0,0.6,0,1,0c0-1.1,0-1.2-0.1-1.7h2.2c-0.1,0.4-0.1,0.5-0.1,1.6
		c2-0.1,3.2-0.3,4.2-0.5l0.1,1.9c-0.3,0-0.3,0-1.2,0.1c-1.1,0.1-2,0.2-3,0.3c0,0.6,0,1,0,1.2c1.7-0.1,2.9-0.2,3.8-0.5l0.1,1.9
		c-0.1,0-0.1,0-0.3,0c0,0-0.1,0-0.2,0c-0.2,0-0.2,0-1.1,0.1c-0.7,0.1-1.6,0.1-2.2,0.2c0,0.8,0,1.3,0,1.5c1.4,0.4,2.4,0.9,4,2
		c0.2,0.2,0.3,0.2,0.5,0.3L221.3,112.1z M215,109.2c-1,0-1.6,0.3-1.6,0.8c0,0.4,0.5,0.7,1.4,0.7c1,0,1.3-0.3,1.3-1.1
		c0-0.1,0-0.3,0-0.3C215.6,109.2,215.4,109.2,215,109.2z"/>
</g>
<g class="st2">
	<path class="st3" d="M224.8,103.3L224.8,103.3c0.5,0,2.3-0.2,3-0.3c0.3-1.5,0.4-2.4,0.4-2.9c0,0,0-0.1,0-0.2l2.2,0.2
		c0,0.1-0.1,0.3-0.1,0.4c0,0.1-0.1,0.7-0.3,1.9c-0.1,0.3-0.1,0.3-0.1,0.5c0.3,0,0.6,0,0.8,0c1,0,1.8,0.3,2.3,0.8
		c0.5,0.6,0.7,1.3,0.7,2.7c0,2.6-0.4,4.6-1.2,5.4c-0.4,0.5-0.9,0.7-1.7,0.7c-0.6,0-1.2-0.1-2.2-0.4c0-0.3,0-0.4,0-0.7
		c0-0.5,0-0.9-0.2-1.6c0.7,0.3,1.6,0.6,2.1,0.6c0.4,0,0.6-0.2,0.8-0.8c0.2-0.7,0.4-2.2,0.4-3.3c0-0.7-0.1-1.1-0.4-1.3
		c-0.2-0.2-0.4-0.2-0.9-0.2c-0.2,0-0.4,0-0.7,0c-0.5,2.4-1.3,4.6-2.7,7.4c-0.1,0.3-0.1,0.3-0.2,0.5l-2-1.1c1-1.3,2.2-4.2,2.8-6.6
		c-1,0.1-2,0.3-2.4,0.4L224.8,103.3z M234.5,100.4c0.6,0.6,0.9,1.1,1.3,1.9l-1.3,0.6c-0.4-0.7-0.9-1.4-1.3-2L234.5,100.4z
		 M235.9,102.7c1.1,1.6,1.8,3,2.3,5l-2,1c-0.2-1.2-0.5-2.1-1.1-3.3c-0.4-0.9-0.6-1.3-1-1.9L235.9,102.7z M236.2,99.6
		c0.5,0.6,1,1.1,1.3,1.8l-1.2,0.7c-0.4-0.8-0.8-1.3-1.3-1.9L236.2,99.6z"/>
</g>
<g class="st2">
	<path class="st3" d="M246,111.6c-2.5,0.7-3.8,0.9-6.7,1.4l-0.4-2c0.7-0.1,1-0.1,1.6-0.2v-8.7c0-0.6,0-1-0.1-1.5
		c0.4,0,1,0.1,1.5,0.1h2.6v-0.3c0-0.3,0-0.7-0.1-1h2.1c-0.1,0.3-0.1,0.6-0.1,1v0.2h2.8c0.6,0,1.1,0,1.5-0.1c0,0.3-0.1,0.9-0.1,1.5
		v3.6c0,0.7,0,1.2,0.1,1.5c-0.3,0-0.5,0-1,0l1.5,1.1c-1.3,0.9-1.7,1.1-2.6,1.6c1.3,0.7,2.2,1,3.7,1.2c-0.4,0.6-0.6,0.9-0.9,1.9
		c-1.3-0.3-2.2-0.7-3.3-1.2c-0.9-0.5-1.7-1.1-2.3-1.7L246,111.6z M242.5,103.3h6.4v-0.8h-6.4V103.3z M242.5,105.7h6.4v-0.9h-6.4
		V105.7z M242.5,110.6c1.1-0.2,1.7-0.3,3.3-0.7c-0.8-0.8-1.1-1.5-1.6-2.6h-1.7V110.6z M246.1,107.4c0.3,0.7,0.6,1.1,1.2,1.6
		c1-0.6,2-1.2,2.4-1.6h-0.2H246.1z"/>
</g>
<g class="st2">
	<path class="st3" d="M253.9,103.2L253.9,103.2c0.5,0,2.3-0.2,3-0.3c0.3-1.5,0.4-2.4,0.4-2.9c0-0.1,0-0.1,0-0.2l2.2,0.2
		c0,0.1-0.1,0.3-0.1,0.4c0,0-0.1,0.7-0.3,1.9c-0.1,0.3-0.1,0.3-0.1,0.5c0.3,0,0.6,0,0.8,0c1,0,1.8,0.3,2.3,0.8
		c0.5,0.6,0.7,1.3,0.7,2.7c0,2.6-0.4,4.6-1.2,5.4c-0.4,0.5-0.9,0.7-1.7,0.7c-0.6,0-1.2-0.1-2.2-0.4c0-0.3,0-0.4,0-0.7
		c0-0.5,0-0.9-0.2-1.6c0.7,0.3,1.6,0.6,2.1,0.6c0.4,0,0.6-0.2,0.8-0.8c0.2-0.7,0.4-2.2,0.4-3.3c0-0.7-0.1-1.1-0.4-1.3
		c-0.2-0.2-0.4-0.2-0.9-0.2c-0.2,0-0.4,0-0.7,0c-0.5,2.4-1.3,4.6-2.7,7.4c-0.1,0.3-0.1,0.3-0.2,0.5l-2-1.1c1-1.3,2.2-4.2,2.8-6.6
		c-1,0.1-2,0.3-2.4,0.4L253.9,103.2z M264.4,101.7c1.4,1.8,2.4,3.6,3,5.9l-2,1c-0.5-2.4-1.5-4.5-2.8-6L264.4,101.7z"/>
</g>
<g class="st2">
	<path class="st3" d="M268.3,104.9c0.5,0,0.5,0,1.6-0.3c2-0.4,3.3-0.6,4.5-0.6c1.7,0,2.9,0.5,3.6,1.5c0.4,0.6,0.6,1.2,0.6,2
		c0,2-1.4,3.7-3.8,4.4c-1,0.3-1.3,0.3-3.2,0.6c-0.2-0.8-0.3-1.2-0.7-2h0.2c1.5,0,3.2-0.4,4.1-0.8c1-0.6,1.5-1.3,1.5-2.2
		c0-0.6-0.4-1.2-1-1.4c-0.4-0.1-0.8-0.2-1.3-0.2c-1,0-2.1,0.2-3.8,0.6c-0.9,0.2-1.2,0.3-1.7,0.5L268.3,104.9z"/>
</g>
<g class="st2">
	<path class="st3" d="M281.9,102c0.5,0.1,1.2,0.1,2.1,0.1c0.1,0,0.1,0,0.5,0c0.1-0.7,0.2-1.7,0.2-2.1v-0.2l2.3,0.2
		c-0.1,0.3-0.1,0.3-0.3,1.4c-0.1,0.4-0.1,0.4-0.1,0.7c1-0.1,1.7-0.2,2.4-0.4l0.1,2c-0.3,0-0.3,0-0.8,0.1c-0.6,0.1-1.3,0.2-2,0.2
		c-0.2,1.2-0.4,2.2-0.8,3.6c-0.4,1.6-0.6,2.1-1.3,4c-0.1,0.4-0.3,0.7-0.3,1l-2.2-0.8c1-1.9,2-5,2.5-7.7h-0.4l-1.6,0
		c-0.1,0-0.1,0-0.3,0L281.9,102z M289.5,107.8c-0.6,0.8-0.7,1.1-0.7,1.6c0,0.7,0.7,1,2.1,1c1,0,2.4-0.2,3.2-0.6l0.1,2.1
		c-0.3,0-0.4,0-0.7,0.1c-1.2,0.2-1.9,0.2-2.8,0.2c-1.3,0-2.3-0.2-3-0.6c-0.7-0.4-1.1-1.1-1.1-1.9c0-0.8,0.3-1.5,1.1-2.6L289.5,107.8
		z M293.7,106.1c-0.7-0.1-1.1-0.1-1.9-0.1c-1.5,0-2.5,0.1-3.9,0.4l-0.1-1.9c2.2-0.4,2.9-0.5,4.6-0.5c0.4,0,0.4,0,1.3,0L293.7,106.1z
		"/>
</g>
<circle class="st3" cx="65.4" cy="109.9" r="11.4"/>
<rect x="59.7" y="113.8" class="st3" width="11.4" height="58.8"/>
<path class="st3" d="M48.2,164.6h34.4c2.7,0,4.8,2.2,4.8,4.9v0c0,2.7-2.2,4.9-4.8,4.9H48.2c-2.7,0-4.8-2.2-4.8-4.9v0
	C43.3,166.8,45.5,164.6,48.2,164.6z"/>
<path class="st4" d="M45.8,123.6c-7.6-7.6-7.6-19.9,0-27.5"/>
<path class="st4" d="M32.9,134.9c-13.8-13.8-13.8-36.3,0-50.1"/>
<path class="st5" d="M20.1,146.6c-20.3-20.3-20.3-53.1,0-73.4"/>
<path class="st4" d="M85.6,123.6c7.6-7.6,7.6-19.9,0-27.5"/>
<path class="st4" d="M98.5,134.9c13.8-13.8,13.8-36.3,0-50.1c0,0,0,0,0,0"/>
<path class="st5" d="M111.3,146.6c20.3-20.3,20.3-53.1,0-73.4"/>
</svg>
