<?xml version="1.0" encoding="utf-8"?>
<!-- Generator: Adobe Illustrator 27.6.1, SVG Export Plug-In . SVG Version: 6.00 Build 0)  -->
<svg version="1.1" id="レイヤー_1" xmlns="http://www.w3.org/2000/svg" xmlns:xlink="http://www.w3.org/1999/xlink" x="0px"
	 y="0px" width="640px" height="82px" viewBox="0 0 640 82" style="enable-background:new 0 0 640 82;" xml:space="preserve">
<style type="text/css">
	.st0{clip-path:url(#SVGID_00000102546490468570448130000000240998125829651872_);}
	.st1{fill:#FFFFFF;}
	.st2{enable-background:new    ;}
	.st3{fill:#3A3A3A;}
	.st4{fill:#A29174;}
	.st5{fill:#6C614E;}
	.st6{fill:#E0CDAF;}
	.st7{fill:#007CCF;}
	.st8{fill:#14257E;}
	.st9{fill:#C1AC8E;}
	.st10{fill:#D8C19B;}
	.st11{fill:#706758;}
</style>
<g>
	<defs>
		<rect id="SVGID_1_" width="640" height="82"/>
	</defs>
	<clipPath id="SVGID_00000160910484684064257490000009397958041688669603_">
		<use xlink:href="#SVGID_1_"  style="overflow:visible;"/>
	</clipPath>
	<g id="a" style="clip-path:url(#SVGID_00000160910484684064257490000009397958041688669603_);">
		<rect class="st1" width="640" height="82"/>
		<rect class="st1" width="640" height="82"/>
		<g class="st2">
			<path class="st3" d="M158.4,41.4c1.6,0,2.6,0,3.7-0.2c-0.1,1-0.1,1.3-0.2,2.5c-0.3,6.6-1.2,12-2.7,15c-1.1,2.4-3.1,3.2-7.5,3.2
				c-2.1,0-4.3-0.1-7.2-0.4c-0.2-2.2-0.5-3.4-1.2-5.5c3.5,0.6,6,0.9,8.4,0.9c1.8,0,2.6-0.3,3-1.2c0.9-1.9,1.5-4.9,1.8-9.8H144
				c-1.3,0-2.3,0-3.4,0.1c1.2-4.8,2.1-10.6,2.2-15.3c1,0.1,2,0.2,3.6,0.2h10.2v-5.9h-10.7c-1.7,0-3.3,0.1-4.8,0.3v-5.3
				c1.4,0.2,3,0.3,4.8,0.3h11.4c1.8,0,3.1,0,4.4-0.2c-0.1,1.2-0.1,2.3-0.1,3.9v7.9c0,1.6,0,2.6,0.1,3.7c-1.1-0.1-2.6-0.1-4.1-0.1
				h-10.2c-0.3,2.1-0.5,3.7-1,5.8H158.4z M176.6,19.3c-0.2,1.7-0.3,2.8-0.3,5.3v31.9c0,2.9,0,4.2,0.3,6.1h-5.8
				c0.2-2,0.3-3.4,0.3-6.1V24.7c0-2.5,0-3.5-0.3-5.3H176.6z"/>
			<path class="st3" d="M190.4,38.3h-4.2c-2,0-3,0-4.2,0.3v-5.1c1.1,0.2,2.1,0.3,4.2,0.3h3.5v-4.9H187c-1.7,0-2.7,0-3.9,0.2v-4.9
				c1.1,0.2,1.8,0.2,3.9,0.2h2.6v-1.3c0-2.1-0.1-3.1-0.3-4.3h5c-0.2,1.2-0.2,2.2-0.2,4.3v1.3h1.5c2.2,0,2.9,0,3.9-0.2v4.9
				c-1.1-0.2-2.1-0.2-3.9-0.2h-1.5v4.9h1.9c2,0,3,0,4.1-0.3v5.1c-1.1-0.2-2.1-0.3-4.1-0.3h-1.5v4.9h1.5c1.6,0,2.4,0,3.6-0.2v4.8
				c-1.1-0.2-1.9-0.3-3.6-0.3h-1.5v7.9c1.6,0.9,2.7,1.2,5.3,1.4c2,0.2,6.5,0.3,9.7,0.3c4.9,0,9.8-0.2,13.1-0.7
				c-0.8,2.3-1.1,3.4-1.3,5.3C218,61.9,214,62,207.5,62c-7.1,0-11-0.5-13.6-1.8s-4.7-3.2-6.8-6.3c-0.6,2.9-1.6,6.1-2.8,9
				c-1.6-1.9-2.1-2.4-3.5-3.5c1.2-2.4,1.9-4.8,2.5-7.7c0.5-2.8,0.8-6.7,0.8-9.2c0-0.6,0-1-0.1-1.7l4.3,0.3c-0.1,0.8-0.1,0.8-0.2,3.2
				c0,1.3-0.1,2.3-0.3,4.2c0.8,1.3,1.5,2.5,2.6,3.6V38.3z M221.2,33.8c-0.3,0.8-0.5,1.2-0.9,2.5c-1.4,4.2-2.3,6.3-3.9,9.3
				c1.2,2.8,1.9,4,2.3,4s0.8-2.1,1-5.5c1.1,1.3,2,1.9,3.3,2.5c-0.4,3-0.6,4.1-1.1,5.6c-0.6,1.8-1.5,2.7-2.7,2.7
				c-1.8,0-3.7-1.8-5.5-5.1c-1.8,2.3-3,3.5-5.6,5.8c-0.4-0.5-0.4-0.5-1.5-1.7c-0.4-0.4-0.8-0.9-1.8-1.6c3-2.3,5-4.2,7-6.9
				c-1.3-4-2.1-9.2-2.4-15.6h-3.8v15.6c1.2-0.7,1.9-1.2,3.8-2.4l0.4,4.4c-3.1,2.2-5.8,3.7-9.3,5.5c-1,0.5-1.3,0.7-1.9,1l-1.1-4.8
				c0.9-0.2,1.3-0.4,3.8-1.4V29.9c0-2.1,0-3.2-0.2-4.7c1.2,0.1,2.3,0.2,4.5,0.2h3.8c0-0.9,0-1.5,0-2c0-2.5-0.1-3-0.2-4.6h4.6
				c-0.2,1.3-0.3,2.5-0.3,5.2v1.4h4.7c-1.1-1.5-2.3-2.7-3.9-4.1l2.6-2.5c2.1,1.8,3,2.7,4.4,4.5l-2.2,2.2c1,0,1.9-0.1,2.6-0.2V30
				c-1.2-0.2-2.3-0.2-3.8-0.2h-4.2c0.2,3.9,0.7,8.2,1.2,10.8c1.1-2.5,2.1-5.9,2.5-8.4L221.2,33.8z"/>
			<path class="st3" d="M234.7,20.7c-0.3,1.4-0.4,2.8-0.5,6.5c-0.2,4.5-0.5,14.2-0.5,17.6c0,4.6,0.3,6.3,1.2,7.7
				c1,1.6,3.2,2.5,6.1,2.5c4.9,0,8.9-2.9,11-8.2c1-2.5,1.6-4.8,2.1-8.1c2.5,2.1,3.3,2.6,5.5,3.7c-1.8,6.5-3.2,9.6-5.4,12.2
				c-3.4,4.1-7.9,6.1-13.7,6.1c-3.1,0-6.1-0.8-8-2.1c-3.1-2.2-4.5-5.9-4.5-12.3c0-2.5,0.1-7.3,0.4-19.3c0-1.4,0-2.4,0-3.1
				c0-1.3,0-2-0.2-3.3L234.7,20.7z"/>
			<path class="st3" d="M272.5,31c-1.6,2.4-2.6,3.7-4.7,6c-1.5-1.7-2.3-2.4-3.9-3.6c2.9-2.9,4.4-4.8,6-7.9c1.1-2.1,1.9-4.3,2.2-6.3
				l5.2,1.3c-0.1,0.3-0.4,1-0.9,2.1c-0.9,2.4-1,2.5-1.4,3.4h6.5v-2.5c0-1.9-0.1-3.1-0.3-4.7h5.7c-0.2,1.5-0.3,2.7-0.3,4.7V26h9.6
				c2.1,0,3.6-0.1,4.9-0.3v5.5c-1.3-0.2-2.8-0.3-4.9-0.3h-9.6v6.6h12.7c2.3,0,3.7-0.1,5.1-0.3v5.7c-1.5-0.2-2.9-0.3-5.1-0.3h-8.8
				v13.6c0,1.1,0.5,1.2,3.4,1.2c3.1,0,4.1-0.2,4.7-1c0.6-1,0.9-3.2,0.9-7.3c2.2,1.2,2.9,1.4,4.9,1.9c-0.4,5.1-0.9,7.4-1.9,8.9
				c-0.7,1.1-1.9,1.9-3.1,2.1c-1.5,0.3-3.6,0.4-6.3,0.4c-5.9,0-7.3-0.8-7.3-3.9V42.6h-5.1c-0.2,3.6-0.5,5.3-1.1,7.4
				c-1.2,3.9-3.5,7.1-7.1,9.7c-1.9,1.4-3.2,2.1-6.9,3.6c-0.8-1.8-1.5-3-2.9-4.9c4.7-1.4,7.8-3.4,10.1-6.2c1.4-1.7,2.2-3.9,2.6-6.5
				c0.1-0.8,0.1-1.1,0.3-3.1h-6.9c-2.1,0-3.6,0.1-5.1,0.3v-5.7c1.4,0.2,2.8,0.3,5.1,0.3h12.8V31H272.5z"/>
			<path class="st3" d="M305.9,25.5c1,0,1.5,0,1.7,0c0.8,0,0.8,0,7.5-0.5c3.3-0.2,11.1-0.6,23.3-1.2c3.7-0.2,4-0.2,4.7-0.4l0.3,6.1
				c-0.5,0-0.5,0-1,0c-2.7,0-6.1,1-9,2.6c-5.8,3.2-9.2,8-9.2,12.8c0,3.7,2.2,6.6,6.1,7.8c2.2,0.7,5.2,1.2,6.8,1.2c0,0,0.5,0,0.9,0
				l-0.8,6.5c-0.6-0.1-0.7-0.1-1.5-0.3c-5-0.7-7.9-1.5-10.7-3.2c-4.2-2.5-6.5-6.6-6.5-11.6c0-4.1,1.6-8.1,4.3-11.3
				c1.7-2,3.4-3.3,6.3-4.8c-3.7,0.6-6.5,0.9-15.4,1.5c-4.1,0.3-6.2,0.6-7.6,1L305.9,25.5z M337.3,34.7c2,2.3,3.2,4.1,4.8,7.1
				l-3.2,1.8c-1.5-2.9-2.8-4.8-4.8-7.2L337.3,34.7z M344.4,40.5c-1.4-2.6-2.9-4.9-4.7-7l3.1-1.7c2.1,2.2,3.3,4,4.7,6.8L344.4,40.5z"
				/>
			<path class="st3" d="M350.9,38.1c2.1,0.9,3.4,1.2,8,1.8c0.2-1.7,0.6-4.9,0.8-6.7c-2.7-0.4-3.4-0.5-6.5-1.2
				c-0.6-0.1-0.9-0.2-1.5-0.3l0.5-5.3c1.9,0.8,5.2,1.4,8.3,1.7c0.6-4,0.9-6.5,0.9-8c0-0.1,0-0.2,0-0.5l6.1,0.6
				c-0.5,1.5-0.6,2.2-1.5,8.1c5.2-0.1,7.8-0.3,10.4-1l-0.2,5.6c-0.6,0-0.8,0.1-1.8,0.2c-3.3,0.3-4.7,0.4-6.4,0.4c-0.5,0-0.9,0-2.8,0
				c-0.5,3.5-0.6,4.5-0.9,6.8c1.4,0,1.7,0,2.2,0c3.2,0,6.5-0.3,8.7-1l-0.1,5.5c-0.5,0-0.6,0-1.4,0.1c-2,0.2-4.7,0.4-6.8,0.4
				c-0.7,0-1.1,0-2.9-0.1c-0.1,1.3-0.2,2.5-0.2,3.4c0,2.4,0.5,3.8,1.7,4.9c1.3,1.2,3.1,1.8,5.7,1.8c5.8,0,9.1-2.7,9.1-7.4
				c0-2.8-1.4-5.5-4.1-8.1c2.6-0.2,3.5-0.4,5.7-1.2c1.1,1.4,1.6,2.1,2.1,3c1.2,2.1,2,4.8,2,7.1c0,3.4-1.6,6.7-4.4,9
				c-2.6,2.1-6,3.2-10.3,3.2c-8.3,0-12.8-4.2-12.8-11.9c0-1.2,0-2.4,0.2-4.1c-2.7-0.4-4.5-0.7-6.3-1.1c-1-0.2-1.1-0.2-1.7-0.3
				L350.9,38.1z"/>
			<path class="st3" d="M396.1,59.6c-2.6,0-4,0-5.8,0.1c0.3-2,0.4-3.4,0.4-6.5V27.2c0-2.2-0.1-3.9-0.4-5.9c1.9,0.1,2.6,0.1,5.7,0.1
				h10.8c7.1,0,11,3.4,11,9.4c0,2.9-0.8,5.1-2.6,6.8c-1,1-1.8,1.4-3.6,2c2.3,0.5,3.4,1,4.6,2.2c1.9,1.8,2.8,4.2,2.8,7.3
				c0,6.7-4.2,10.5-11.8,10.5H396.1z M406.1,37c3.5,0,5.5-2,5.5-5.2c0-1.5-0.5-2.8-1.2-3.6c-1-1-2.6-1.5-4.4-1.5h-9.4V37H406.1z
				 M396.6,54.2h9.8c4.1,0,6.3-2.1,6.3-6c0-1.9-0.5-3.2-1.5-4.2c-1.1-1.1-2.9-1.6-5-1.6h-9.7V54.2z"/>
			<path class="st3" d="M430.6,21.4c-0.3,1.8-0.4,3.3-0.4,6.2v25.8c0,2.8,0.1,4.4,0.4,6.2h-6.9c0.3-1.8,0.4-3.4,0.4-6.2V27.6
				c0-3-0.1-4.3-0.4-6.2H430.6z"/>
			<path class="st3" d="M466.8,49.7c0,2.8,0,4.1,0.3,6.2c-3.2,1.9-4.9,2.6-7.3,3.3c-2.1,0.6-4.5,0.9-6.7,0.9
				c-5.7,0-10.1-1.9-12.9-5.5c-2.8-3.5-4.3-8.6-4.3-14.6c0-7.6,2.6-13.5,7.3-16.8c2.8-2,5.9-2.8,10.1-2.8c4.1,0,7.9,1.5,10.5,4.1
				c1.6,1.6,2.4,3,3.4,5.7l-6.2,1.8c-1.5-4.4-3.7-5.9-8.4-5.9c-2.7,0-5.2,1.1-6.9,2.9c-2.3,2.5-3.4,6-3.4,10.9c0,4.9,1,8.7,3.1,11.2
				c1.9,2.3,4.3,3.3,7.9,3.3c3.1,0,5.4-0.6,7.8-2.2v-7.8h-2.5c-2.3,0-3.3,0-4.7,0.3v-6.2c1.6,0.2,2.6,0.3,5.5,0.3h2.4
				c2.1,0,3.4,0,5.4-0.2c-0.2,1.8-0.3,3.3-0.3,6V49.7z"/>
			<path class="st3" d="M497.9,59.9c-1.6-0.2-3.2-0.3-6.5-0.3H478c-2.6,0-4.1,0-5.8,0.1c0.3-1.8,0.4-3.6,0.4-6.3V28.5
				c0-3.3-0.1-5-0.4-7.1h6.9c-0.3,2-0.4,3.6-0.4,7.1v25.3h12.8c3.1,0,4.6-0.1,6.5-0.3V59.9z"/>
			<path class="st3" d="M526.5,25.4c3.3,3.5,5.1,8.7,5.1,15c0,12.1-6.7,20-17.1,20s-17-7.8-17-20c0-6.2,1.8-11.5,5.2-15
				c3.1-3.3,6.9-4.8,11.8-4.8C519.5,20.6,523.4,22.1,526.5,25.4z M525.2,40.4c0-4.8-1.3-8.7-3.6-11.2c-1.9-1.9-4.3-2.9-7-2.9
				c-6.6,0-10.7,5.5-10.7,14.2c0,4.8,1.3,8.8,3.7,11.3c1.9,1.9,4.3,2.9,7.1,2.9C521.2,54.7,525.2,49.2,525.2,40.4z"/>
			<path class="st3" d="M541,59.6c-2.6,0-4,0-5.8,0.1c0.3-2,0.4-3.4,0.4-6.5V27.2c0-2.2-0.1-3.9-0.4-5.9c1.9,0.1,2.6,0.1,5.7,0.1
				h10.8c7.1,0,11,3.4,11,9.4c0,2.9-0.8,5.1-2.6,6.8c-1,1-1.8,1.4-3.6,2c2.3,0.5,3.4,1,4.6,2.2c1.9,1.8,2.8,4.2,2.8,7.3
				c0,6.7-4.2,10.5-11.8,10.5H541z M551,37c3.5,0,5.5-2,5.5-5.2c0-1.5-0.5-2.8-1.2-3.6c-1-1-2.6-1.5-4.4-1.5h-9.4V37H551z
				 M541.6,54.2h9.8c4.1,0,6.3-2.1,6.3-6c0-1.9-0.5-3.2-1.5-4.2c-1.1-1.1-2.9-1.6-5-1.6h-9.7V54.2z"/>
			<path class="st3" d="M593.6,59.9c-1.6-0.2-3.1-0.3-5.9-0.3h-14.2c-2.7,0-4,0-5.8,0.1c0.3-1.9,0.4-3.5,0.4-6.3v-26
				c0-2.5-0.1-3.9-0.4-6.2c1.8,0.1,3,0.1,5.8,0.1h13.8c2.3,0,3.8-0.1,5.9-0.3v6.3c-1.7-0.2-3.2-0.3-5.9-0.3h-13.1v9.9h11.1
				c2.4,0,3.9-0.1,5.9-0.3v6.3c-1.9-0.3-3.1-0.3-5.9-0.3h-11.1v11.3h13.7c2.6,0,3.9-0.1,5.8-0.3V59.9z"/>
		</g>
		<g transform="translate(18.611 2.748)">
			<g transform="translate(0 8.456)">
				<path class="st4" d="M48.1,40.7L98.3,47V19l-50.2-5.3V40.7z"/>
				<path class="st5" d="M48.1,40.7L14.3,58.1V19l33.8-5.3V40.7z"/>
				<path class="st6" d="M62.4,0l51.8,2.1L98.3,19l-50.2-5.3L62.4,0z"/>
				<path class="st6" d="M34.9,10.6L0,16.4L14.3,19l33.8-5.3L34.9,10.6z"/>
			</g>
			<g transform="translate(29.069)">
				<path class="st7" d="M55.5,27.8c0,15.3-12.4,27.8-27.8,27.8C12.4,55.5,0,43.1,0,27.8C0,12.4,12.4,0,27.8,0
					C43.1,0,55.5,12.4,55.5,27.8L55.5,27.8"/>
				<path class="st1" d="M42.8,11.9c0,3.1-2.5,5.6-5.6,5.6c-3.1,0-5.6-2.5-5.6-5.6c0-3.1,2.5-5.6,5.6-5.6
					C40.3,6.3,42.8,8.8,42.8,11.9C42.8,11.9,42.8,11.9,42.8,11.9"/>
				<path class="st8" d="M40.2,11.9c0,1.6-1.3,2.9-2.9,2.9s-2.9-1.3-2.9-2.9c0-1.6,1.3-2.9,2.9-2.9l0,0
					C38.9,8.9,40.2,10.2,40.2,11.9"/>
				<path class="st1" d="M23.5,11.9c0,3.1-2.5,5.6-5.6,5.6c-3.1,0-5.6-2.5-5.6-5.6c0-3.1,2.5-5.6,5.6-5.6l0,0
					C21,6.3,23.5,8.8,23.5,11.9"/>
				<path class="st8" d="M20.8,11.9c0,1.6-1.3,2.9-2.9,2.9S15,13.5,15,11.9c0-1.6,1.3-2.9,2.9-2.9l0,0C19.5,8.9,20.8,10.2,20.8,11.9
					"/>
			</g>
			<g transform="translate(0 28.012)">
				<path class="st9" d="M76.6,48.1V9l21.7-9v28.5L76.6,48.1z"/>
				<path class="st10" d="M76.6,9L14.3,0v39.1l62.4,9V9z"/>
				<path class="st6" d="M98.3,16.9L76.6,9l21.7-9l20.1,6.9L98.3,16.9z"/>
				<path class="st6" d="M76.6,9L14.3,0L0,16.9l62.4,9L76.6,9z"/>
				<path class="st11" d="M90.9,30.3v4.6l-5.3,5.3l-0.6-7L90.9,30.3z"/>
			</g>
		</g>
	</g>
</g>
</svg>
