<?xml version="1.0" encoding="utf-8"?>
<!-- Generator: Adobe Illustrator 27.6.1, SVG Export Plug-In . SVG Version: 6.00 Build 0)  -->
<svg version="1.1" id="レイヤー_1" xmlns="http://www.w3.org/2000/svg" xmlns:xlink="http://www.w3.org/1999/xlink" x="0px"
	 y="0px" width="898px" height="222px" viewBox="0 0 898 222" style="enable-background:new 0 0 898 222;" xml:space="preserve">
<style type="text/css">
	.st0{clip-path:url(#SVGID_00000162326944145785024360000008932669928411693455_);}
	.st1{fill:#FFFFFF;}
	.st2{fill:#F5F5F5;}
	.st3{enable-background:new    ;}
	.st4{fill:#3A3A3A;}
	.st5{fill:#A29174;}
	.st6{fill:#6C614E;}
	.st7{fill:#E0CDAF;}
	.st8{fill:#007CCF;}
	.st9{fill:#14257E;}
	.st10{fill:#C1AC8E;}
	.st11{fill:#D8C19B;}
	.st12{fill:#706758;}
	.st13{fill:#A89A83;}
</style>
<g>
	<defs>
		<rect id="SVGID_1_" width="898" height="222"/>
	</defs>
	<clipPath id="SVGID_00000132067005204225803620000005702686152973537160_">
		<use xlink:href="#SVGID_1_"  style="overflow:visible;"/>
	</clipPath>
	<g id="a" style="clip-path:url(#SVGID_00000132067005204225803620000005702686152973537160_);">
		<rect class="st1" width="898" height="222"/>
		<rect class="st1" width="898" height="222"/>
		<ellipse class="st2" cx="108.5" cy="143.8" rx="105.5" ry="32"/>
		<g class="st3">
			<path class="st4" d="M312.9,92.9c1.7,0,2.7,0,3.8-0.2c-0.1,1-0.1,1.3-0.2,2.6c-0.3,6.7-1.3,12.3-2.7,15.3
				c-1.2,2.5-3.2,3.3-7.6,3.3c-2.2,0-4.4-0.1-7.4-0.4c-0.2-2.3-0.5-3.4-1.2-5.6c3.5,0.6,6.1,0.9,8.6,0.9c1.8,0,2.6-0.3,3-1.2
				c0.9-2,1.5-5,1.9-10h-12.8c-1.3,0-2.4,0-3.4,0.1c1.3-4.9,2.1-10.8,2.2-15.6c1,0.1,2,0.2,3.6,0.2H311v-6H300
				c-1.7,0-3.4,0.1-4.9,0.3v-5.4c1.4,0.2,3.1,0.3,4.9,0.3h11.7c1.8,0,3.2,0,4.5-0.2c-0.1,1.2-0.1,2.4-0.1,4v8c0,1.6,0,2.6,0.1,3.8
				c-1.2-0.1-2.7-0.1-4.1-0.1h-10.4c-0.3,2.1-0.6,3.8-1,5.9H312.9z M331.5,70.4c-0.2,1.8-0.3,2.9-0.3,5.4v32.6c0,2.9,0,4.3,0.3,6.3
				h-5.9c0.2-2.1,0.3-3.4,0.3-6.3V75.8c0-2.5,0-3.5-0.3-5.4H331.5z"/>
			<path class="st4" d="M346.4,89.7h-4.5c-2.1,0-3.2,0-4.4,0.3v-5.2c1.2,0.2,2.2,0.3,4.4,0.3h3.7v-5h-2.8c-1.8,0-2.9,0-4.1,0.2v-5
				c1.2,0.2,1.9,0.2,4.1,0.2h2.8v-1.3c0-2.2-0.1-3.2-0.3-4.4h5.3c-0.2,1.2-0.2,2.3-0.2,4.4v1.3h1.6c2.3,0,3,0,4.1-0.2v5
				c-1.2-0.2-2.2-0.2-4.1-0.2h-1.6v5h2c2.1,0,3.2,0,4.3-0.3V90c-1.2-0.2-2.2-0.3-4.3-0.3h-1.5v5h1.5c1.7,0,2.6,0,3.8-0.2v4.9
				c-1.1-0.2-2-0.3-3.8-0.3h-1.5v8.1c1.7,0.9,2.8,1.2,5.5,1.4c2.1,0.2,6.9,0.3,10.2,0.3c5.2,0,10.4-0.2,13.8-0.7
				c-0.9,2.4-1.2,3.4-1.4,5.4c-3.4,0.1-7.7,0.2-14.5,0.2c-7.5,0-11.5-0.5-14.3-1.8c-2.8-1.3-5-3.3-7.2-6.5c-0.7,3-1.7,6.3-2.9,9.2
				c-1.7-2-2.2-2.5-3.7-3.5c1.3-2.4,2-4.9,2.6-7.8c0.5-2.9,0.9-6.8,0.9-9.4c0-0.6,0-1-0.1-1.7l4.6,0.3c-0.1,0.8-0.1,0.8-0.2,3.2
				c0,1.4-0.1,2.3-0.3,4.3c0.8,1.3,1.6,2.5,2.7,3.6V89.7z M378.9,85.2c-0.3,0.8-0.5,1.3-1,2.5c-1.4,4.3-2.4,6.5-4.1,9.5
				c1.3,2.8,2,4.1,2.5,4.1s0.8-2.1,1-5.6c1.2,1.3,2.1,2,3.4,2.5c-0.4,3.1-0.7,4.2-1.1,5.7c-0.7,1.9-1.5,2.7-2.9,2.7
				c-1.9,0-3.9-1.8-5.8-5.2c-1.9,2.3-3.2,3.6-5.9,5.9c-0.5-0.5-0.5-0.5-1.5-1.7c-0.4-0.4-0.9-0.9-1.9-1.7c3.2-2.3,5.3-4.3,7.4-7.1
				c-1.4-4.1-2.2-9.4-2.6-16h-4v15.9c1.3-0.7,2-1.2,4-2.5l0.4,4.5c-3.3,2.3-6.1,3.8-9.8,5.6c-1,0.5-1.4,0.7-2,1l-1.2-4.9
				c0.9-0.2,1.4-0.4,4-1.5v-18c0-2.2,0-3.2-0.2-4.8c1.3,0.1,2.4,0.2,4.7,0.2h4c0-0.9,0-1.6,0-2c0-2.5-0.1-3.1-0.2-4.7h4.9
				c-0.2,1.3-0.3,2.6-0.3,5.3v1.4h5c-1.2-1.6-2.4-2.8-4.1-4.2l2.7-2.6c2.2,1.8,3.1,2.7,4.7,4.6l-2.3,2.2c1.1,0,2-0.1,2.7-0.2v4.9
				c-1.3-0.2-2.4-0.2-4.1-0.2h-4.5c0.2,4,0.7,8.4,1.3,11c1.2-2.5,2.2-6,2.7-8.6L378.9,85.2z"/>
			<path class="st4" d="M395.3,71.8c-0.3,1.4-0.4,2.8-0.6,6.6c-0.2,4.6-0.5,14.5-0.5,18c0,4.7,0.3,6.4,1.2,7.9
				c1.1,1.6,3.3,2.5,6.2,2.5c5,0,9.1-3,11.3-8.4c1-2.5,1.6-4.9,2.1-8.2c2.5,2.2,3.4,2.7,5.6,3.8c-1.9,6.6-3.3,9.8-5.5,12.5
				c-3.5,4.2-8.1,6.2-14,6.2c-3.2,0-6.2-0.8-8.1-2.2c-3.2-2.3-4.6-6-4.6-12.6c0-2.5,0.1-7.4,0.4-19.7c0-1.5,0-2.5,0-3.2
				c0-1.4,0-2.1-0.2-3.3L395.3,71.8z"/>
			<path class="st4" d="M433.9,82.2c-1.6,2.4-2.6,3.8-4.7,6.1c-1.6-1.8-2.3-2.5-4-3.6c3-2.9,4.5-4.9,6.1-8c1.1-2.1,1.9-4.4,2.3-6.5
				l5.4,1.3c-0.1,0.3-0.4,1-0.9,2.2c-0.9,2.4-1,2.5-1.4,3.5h6.7v-2.6c0-2-0.1-3.1-0.3-4.8h5.8c-0.2,1.6-0.3,2.7-0.3,4.8v2.6h9.8
				c2.2,0,3.6-0.1,5-0.3v5.6c-1.3-0.2-2.9-0.3-5-0.3h-9.8v6.7h12.9c2.3,0,3.8-0.1,5.2-0.3v5.8c-1.5-0.2-3-0.3-5.2-0.3h-8.9V108
				c0,1.1,0.6,1.3,3.4,1.3c3.2,0,4.2-0.2,4.7-1c0.6-1,0.9-3.3,0.9-7.4c2.3,1.2,2.9,1.4,5,1.9c-0.4,5.2-0.9,7.5-1.9,9.1
				c-0.7,1.1-1.9,1.9-3.2,2.1c-1.5,0.3-3.7,0.4-6.5,0.4c-6.1,0-7.5-0.8-7.5-4V94.1h-5.2c-0.2,3.7-0.5,5.4-1.1,7.6
				c-1.2,4-3.6,7.3-7.3,9.9c-1.9,1.4-3.3,2.1-7.1,3.7c-0.8-1.9-1.5-3.1-3-5c4.8-1.5,8-3.4,10.3-6.4c1.4-1.8,2.3-4,2.7-6.7
				c0.1-0.8,0.1-1.1,0.3-3.2h-7c-2.2,0-3.7,0.1-5.2,0.3v-5.8c1.4,0.2,2.9,0.3,5.2,0.3h13v-6.7H433.9z"/>
			<path class="st4" d="M468,76.6c1,0,1.5,0,1.8,0c0.8,0,0.8,0,7.7-0.5c3.4-0.2,11.4-0.6,23.8-1.3c3.8-0.2,4-0.2,4.8-0.4l0.3,6.2
				c-0.5,0-0.5,0-1,0c-2.8,0-6.2,1-9.2,2.6c-5.9,3.2-9.4,8.1-9.4,13.1c0,3.8,2.3,6.8,6.2,8c2.3,0.7,5.3,1.3,6.9,1.3c0,0,0.5,0,0.9,0
				l-0.8,6.7c-0.6-0.1-0.7-0.1-1.6-0.3c-5.1-0.7-8.1-1.6-10.9-3.2c-4.3-2.5-6.7-6.7-6.7-11.8c0-4.2,1.6-8.3,4.4-11.5
				c1.8-2,3.4-3.3,6.5-4.9c-3.8,0.6-6.7,0.9-15.7,1.6c-4.1,0.3-6.3,0.6-7.7,1L468,76.6z M500.1,86c2,2.3,3.3,4.2,4.9,7.2l-3.3,1.8
				c-1.5-3-2.8-4.9-4.9-7.3L500.1,86z M507.3,92c-1.4-2.7-2.9-5-4.7-7.1l3.1-1.7c2.1,2.3,3.4,4.1,4.8,6.9L507.3,92z"/>
			<path class="st4" d="M513.1,89.5c2.1,0.9,3.4,1.2,8.2,1.9c0.2-1.8,0.6-5,0.8-6.9c-2.7-0.4-3.5-0.5-6.7-1.2
				c-0.7-0.1-0.9-0.2-1.6-0.3l0.5-5.4c2,0.8,5.3,1.5,8.4,1.8c0.7-4.1,0.9-6.7,0.9-8.1c0-0.1,0-0.2,0-0.5l6.2,0.6
				c-0.5,1.5-0.7,2.3-1.5,8.3c5.3-0.1,8-0.3,10.6-1l-0.2,5.7c-0.6,0-0.8,0.1-1.9,0.2c-3.4,0.3-4.8,0.4-6.5,0.4c-0.5,0-0.9,0-2.9,0
				c-0.5,3.6-0.6,4.6-0.9,6.9c1.4,0,1.8,0,2.3,0c3.3,0,6.7-0.3,8.9-1l-0.1,5.6c-0.5,0-0.6,0-1.4,0.1c-2,0.2-4.8,0.4-7,0.4
				c-0.7,0-1.2,0-3-0.1c-0.1,1.3-0.2,2.6-0.2,3.5c0,2.4,0.5,3.9,1.7,5c1.3,1.2,3.2,1.8,5.8,1.8c5.9,0,9.3-2.7,9.3-7.5
				c0-2.8-1.4-5.6-4.2-8.3c2.6-0.2,3.6-0.4,5.8-1.2c1.2,1.4,1.7,2.2,2.2,3.1c1.2,2.2,2,4.9,2,7.2c0,3.5-1.6,6.9-4.5,9.2
				c-2.7,2.2-6.1,3.2-10.5,3.2c-8.5,0-13.1-4.3-13.1-12.2c0-1.3,0-2.5,0.2-4.2c-2.8-0.4-4.6-0.7-6.5-1.1c-1-0.2-1.1-0.2-1.8-0.3
				L513.1,89.5z"/>
			<path class="st4" d="M560.1,111.4c-2.7,0-4.1,0-6,0.1c0.3-2.1,0.4-3.5,0.4-6.6V78.3c0-2.3-0.1-4-0.4-6c2,0.1,2.7,0.1,5.9,0.1h11
				c7.2,0,11.3,3.4,11.3,9.6c0,3-0.8,5.2-2.6,6.9c-1,1-1.9,1.5-3.7,2.1c2.4,0.5,3.4,1,4.7,2.3c1.9,1.9,2.9,4.3,2.9,7.5
				c0,6.9-4.3,10.7-12.1,10.7H560.1z M570.4,88.4c3.5,0,5.6-2,5.6-5.3c0-1.6-0.5-2.9-1.2-3.6c-1-1-2.6-1.5-4.5-1.5h-9.6v10.5H570.4z
				 M560.7,105.9h10c4.1,0,6.5-2.2,6.5-6.1c0-2-0.5-3.3-1.5-4.3c-1.2-1.1-2.9-1.7-5.1-1.7h-9.9V105.9z"/>
			<path class="st4" d="M596.3,72.4c-0.3,1.9-0.4,3.4-0.4,6.3v26.4c0,2.9,0.1,4.5,0.4,6.3h-7.1c0.3-1.9,0.4-3.4,0.4-6.3V78.7
				c0-3-0.1-4.4-0.4-6.3H596.3z"/>
			<path class="st4" d="M633.2,101.4c0,2.9,0,4.2,0.3,6.4c-3.3,1.9-5,2.7-7.4,3.4c-2.1,0.6-4.6,0.9-6.8,0.9
				c-5.8,0-10.3-1.9-13.2-5.6c-2.8-3.5-4.4-8.8-4.4-14.9c0-7.8,2.6-13.8,7.4-17.2c2.9-2,6.1-2.9,10.3-2.9c4.2,0,8.1,1.5,10.7,4.2
				c1.6,1.7,2.5,3.1,3.4,5.8l-6.4,1.8c-1.5-4.5-3.8-6-8.6-6c-2.7,0-5.3,1.1-7.1,3c-2.3,2.5-3.4,6.2-3.4,11.2c0,5,1.1,8.9,3.2,11.5
				c1.9,2.4,4.4,3.4,8.1,3.4c3.2,0,5.5-0.6,7.9-2.2v-8h-2.5c-2.4,0-3.4,0-4.7,0.3v-6.3c1.7,0.2,2.7,0.3,5.6,0.3h2.4
				c2.1,0,3.5,0,5.5-0.2c-0.2,1.8-0.3,3.3-0.3,6.1V101.4z"/>
			<path class="st4" d="M665.9,111.8c-1.7-0.2-3.3-0.3-6.6-0.3h-13.8c-2.6,0-4.2,0-5.9,0.1c0.3-1.8,0.4-3.6,0.4-6.5V79.7
				c0-3.4-0.1-5.1-0.4-7.3h7c-0.3,2-0.4,3.6-0.4,7.2v25.9h13c3.2,0,4.7-0.1,6.6-0.3V111.8z"/>
			<path class="st4" d="M696.1,76.5c3.4,3.6,5.2,8.9,5.2,15.3c0,12.4-6.8,20.4-17.4,20.4c-10.6,0-17.4-8-17.4-20.4
				c0-6.3,1.9-11.8,5.3-15.3c3.2-3.3,7.1-4.9,12-4.9C688.9,71.6,692.9,73.2,696.1,76.5z M694.7,91.8c0-4.9-1.3-8.9-3.7-11.4
				c-1.9-2-4.4-3-7.2-3c-6.7,0-10.9,5.6-10.9,14.5c0,4.9,1.3,9,3.8,11.6c1.9,2,4.4,3,7.2,3C690.6,106.4,694.7,100.8,694.7,91.8z"/>
			<path class="st4" d="M711.7,111.4c-2.7,0-4,0-6,0.1c0.3-2.1,0.4-3.5,0.4-6.6V78.3c0-2.3-0.1-4-0.4-6c2,0.1,2.7,0.1,5.9,0.1h11
				c7.2,0,11.3,3.4,11.3,9.6c0,3-0.8,5.2-2.6,6.9c-1,1-1.9,1.5-3.7,2.1c2.4,0.5,3.4,1,4.7,2.3c1.9,1.9,2.9,4.3,2.9,7.5
				c0,6.9-4.3,10.7-12.1,10.7H711.7z M722,88.4c3.5,0,5.6-2,5.6-5.3c0-1.6-0.5-2.9-1.2-3.6c-1-1-2.6-1.5-4.5-1.5h-9.6v10.5H722z
				 M712.3,105.9h10c4.1,0,6.5-2.2,6.5-6.1c0-2-0.5-3.3-1.5-4.3c-1.2-1.1-2.9-1.7-5.1-1.7h-9.9V105.9z"/>
			<path class="st4" d="M766.4,111.8c-1.7-0.2-3.2-0.3-6-0.3h-14.5c-2.8,0-4,0-5.9,0.1c0.3-2,0.4-3.6,0.4-6.5V78.6
				c0-2.5-0.1-4-0.4-6.3c1.9,0.1,3.1,0.1,5.9,0.1h14.1c2.3,0,3.9-0.1,6-0.3v6.5c-1.8-0.2-3.3-0.3-6-0.3h-13.4v10.1h11.3
				c2.4,0,4-0.1,6.1-0.3v6.4c-1.9-0.3-3.2-0.3-6.1-0.3h-11.4v11.6h14c2.6,0,4-0.1,6-0.3V111.8z"/>
		</g>
		<g transform="translate(-384 -536.17)">
			<g transform="translate(163 379)">
				<path class="st5" d="M347,275l95,12v-53l-95-10V275z"/>
				<path class="st6" d="M347,275l-64,33v-74l64-10V275z"/>
				<path class="st7" d="M374,198l98,4l-30,32l-95-10L374,198z"/>
				<path class="st7" d="M322,218l-66,11l27,5l64-10L322,218z"/>
			</g>
			<g transform="translate(138.094 348.399)">
				<path class="st8" d="M441,265.1c0,29-23.5,52.5-52.5,52.5s-52.5-23.5-52.5-52.5s23.5-52.5,52.5-52.5l0,0
					C417.5,212.6,441,236.1,441,265.1C441,265.1,441,265.1,441,265.1"/>
				<path class="st1" d="M416.9,235c0,5.8-4.7,10.6-10.6,10.6s-10.6-4.7-10.6-10.6c0-5.8,4.7-10.6,10.6-10.6l0,0
					C412.2,224.5,416.9,229.2,416.9,235C416.9,235,416.9,235,416.9,235"/>
				<path class="st9" d="M411.9,235c0,3.1-2.5,5.6-5.6,5.6s-5.6-2.5-5.6-5.6c0-3.1,2.5-5.6,5.6-5.6l0,0
					C409.4,229.5,411.9,232,411.9,235"/>
				<path class="st1" d="M380.3,235c0,5.8-4.7,10.6-10.6,10.6s-10.6-4.7-10.6-10.6c0-5.8,4.7-10.6,10.6-10.6c0,0,0,0,0,0
					C375.6,224.5,380.3,229.2,380.3,235L380.3,235"/>
				<path class="st9" d="M375.3,235c0,3.1-2.5,5.6-5.6,5.6c-3.1,0-5.6-2.5-5.6-5.6s2.5-5.6,5.6-5.6c0,0,0,0,0,0
					C372.8,229.5,375.3,232,375.3,235"/>
			</g>
			<g transform="translate(-126 306)">
				<path class="st10" d="M690,399v-74l41-17v54L690,399z"/>
				<path class="st11" d="M690,325l-118-17v74l118,17V325z"/>
				<path class="st7" d="M731,340l-41-15l41-17l38,13L731,340z"/>
				<path class="st7" d="M690,325l-118-17l-27,32l118,17L690,325z"/>
				<path class="st12" d="M717,365.4v8.6l-10,10l-1.1-13.2L717,365.4z"/>
			</g>
		</g>
		<g transform="translate(6 7)">
			<g transform="translate(212 -364.17)">
				<path class="st5" d="M579.4,548l40.6,5.1v-22.7l-44.5-3.4L579.4,548z"/>
				<path class="st6" d="M579.4,548L552,562.1v-28.7l23.5-6.4L579.4,548z"/>
				<path class="st10" d="M602.5,569.3v-31.6l17.5-7.3v23.1L602.5,569.3z"/>
				<path class="st11" d="M602.5,537.7l-50.5-4.3v28.7l50.5,7.3V537.7z"/>
				<g transform="translate(552 527)">
					<path class="st7" d="M68,3.4L23.5,0l-9,2.4l45.3,4.1L68,3.4z"/>
					<path class="st7" d="M50.5,10.7L59.4,7L13.3,2.9L0,6.4L50.5,10.7z"/>
				</g>
				<path class="st13" d="M614,532.7l-43.8-4.3l-7.2,2l46.3,4.6L614,532.7z"/>
				<path class="st12" d="M614,532.7v6.7l-4.3,3l-0.5-7.4L614,532.7z"/>
				<path class="st12" d="M614,555v3.7l-4.3,4.3l-0.5-5.7L614,555z"/>
			</g>
			<g transform="matrix(0.899, 0.438, -0.438, 0.899, 556.609, -578.577)">
				<path class="st5" d="M579.4,548l40.6,5.1v-22.7l-44.5-3.4L579.4,548z"/>
				<path class="st6" d="M579.4,548L552,562.1v-28.7l23.5-6.4L579.4,548z"/>
				<path class="st10" d="M602.5,569.3v-31.6l17.5-7.3v23.1L602.5,569.3z"/>
				<path class="st11" d="M602.5,537.7l-50.5-4.3v28.7l50.5,7.3V537.7z"/>
				<g transform="translate(552 527)">
					<path class="st7" d="M68,3.4L23.5,0l-9,2.4l45.3,4.1L68,3.4z"/>
					<path class="st7" d="M50.5,10.7L59.4,7L13.3,2.9L0,6.4L50.5,10.7z"/>
				</g>
				<path class="st13" d="M614,532.7l-43.8-4.3l-7.2,2l46.3,4.6L614,532.7z"/>
				<path class="st12" d="M614,532.7v6.7l-4.3,3l-0.5-7.4L614,532.7z"/>
				<path class="st12" d="M614,555v3.7l-4.3,4.3l-0.5-5.7L614,555z"/>
			</g>
		</g>
	</g>
</g>
</svg>
