<svg id="レイヤー_1" data-name="レイヤー 1" xmlns="http://www.w3.org/2000/svg" width="100" height="65" viewBox="0 0 100 65"><defs><style>.cls-1{fill:#eb5505;}.cls-2{fill:none;}</style></defs><path class="cls-1" d="M94.64,26.5c-4.14,6.32-8.89,13-12.77,16.63-2.53,2.39-7.88,5.79-5.74-2.23.62-2.3,7.06-26.37,7.06-26.37-1.73,0-10.33-.46-13.21,10.26,0,0-1.82,6.81-2.6,9.69a18.23,18.23,0,0,1-2.17,4.75c-3.09,4.72-7.18,6.54-10,6.7h0c-1.67-.08-2.47-.68-2.76-1.88s.29-3.56.6-4.73l6.63-24.79c-.92,0-10.22-.86-13.2,10.26L43.3,36.48a12.91,12.91,0,0,1-1.64,3.46c-2,2.9-5.6,6-7.5,6-1.35,0-1.88-1.55-.95-5l7-26.37H37.13c-11.06,0-18.94,1.79-24.79,5.61C2.52,26.56,0,39.25,0,41.86c0,2.79.86,8.62,10.52,8.62a17,17,0,0,0,12.86-6.09l.29-.34a8,8,0,0,0,1.71,4.08,8.16,8.16,0,0,0,6,2.35c5.09,0,9.44-3.41,11.75-6.42h0c.6,2.88,2.79,6.42,10.32,6.42a16.94,16.94,0,0,0,12.85-6.1l.29-.33a8,8,0,0,0,1.71,4.07l.11.12,0,0a8.59,8.59,0,0,0,5.77,2.2c4.38,0,8.69-2.5,12.31-6.33,4.72-5,10.91-13.93,13.4-17.65Zm-70,7.37a18.57,18.57,0,0,1-2.35,5.36c-3.09,4.72-7.17,6.54-10,6.7-3.08-.15-3.41-2-2.16-6.62,4.29-16,14-19.68,18.6-20.63Zm42,10.19Z"/><rect class="cls-2" width="100" height="65"/></svg>