<svg id="レイヤー_1" data-name="レイヤー 1" xmlns="http://www.w3.org/2000/svg" width="100" height="65" viewBox="0 0 100 65"><defs><style>.cls-1{fill:#767778;}.cls-2{fill:none;}</style></defs><path class="cls-1" d="M38.36,17.28A11.62,11.62,0,1,0,50,28.9,11.62,11.62,0,0,0,38.36,17.28Zm0,14.65a3,3,0,1,1,3-3A3,3,0,0,1,38.36,31.93Z"/><path class="cls-1" d="M88.27,17.28A11.62,11.62,0,1,0,99.89,28.9,11.62,11.62,0,0,0,88.27,17.28Zm0,14.65a3,3,0,1,1,3-3A3,3,0,0,1,88.27,31.93Z"/><path class="cls-1" d="M11.73,17.28A11.62,11.62,0,0,0,.11,28.9v26H7.94v-15a11.62,11.62,0,1,0,3.79-22.6Zm0,14.65a3,3,0,1,1,3-3A3,3,0,0,1,11.73,31.93Z"/><polygon class="cls-1" points="58.8 17.28 63.32 25.77 67.83 17.28 76.34 17.28 63.32 41.78 50.29 17.28 58.8 17.28"/><rect class="cls-2" width="100" height="65"/></svg>