<svg id="レイヤー_1" data-name="レイヤー 1" xmlns="http://www.w3.org/2000/svg" width="100" height="65" viewBox="0 0 100 65"><defs><style>.cls-1{fill:#09f;}.cls-2{fill:#e4007f;}.cls-3{fill:none;}</style></defs><path class="cls-1" d="M99.58,45.9a68.53,68.53,0,0,0-16.19-5.6c4.82-3.42,8.2-10.16,8.2-18A24.11,24.11,0,0,0,86.34,6.8,18.31,18.31,0,0,0,71.84.17,18.31,18.31,0,0,0,57.34,6.8a24.06,24.06,0,0,0-5.25,15.52A24.09,24.09,0,0,0,56.58,36.9c-2.2-.09-4.26-.14-6.58-.14-1.39,0-2.62,0-4,.06a19.93,19.93,0,0,0,3.13-11V1H40v21.7c0,8.89-2.93,13.39-8.71,13.39s-8.71-4.5-8.71-13.39V1H13.43V25.85a19.46,19.46,0,0,0,5,13.37c.29.3.28.28.58.56C8.83,41.88,3.07,44.48.42,45.9a.32.32,0,0,0-.06.43c.09.18.27.28.39.22C12,41.35,28.82,37.94,50,37.94s38,3.41,49.25,8.61c.12.06.3,0,.39-.22a.32.32,0,0,0-.06-.43M71.84,36.61c-7.78,0-10.53-7.7-10.53-14.29S64.06,8,71.84,8s10.53,7.69,10.53,14.29S79.61,36.61,71.84,36.61"/><polygon class="cls-2" points="89.31 46.17 80 46.17 68.97 28.16 78.29 28.16 89.31 46.17"/><path class="cls-2" d="M85.53,60.14h3.55A6.9,6.9,0,0,0,89.17,59a5.48,5.48,0,0,0-5.69-5.8h0c-3.46,0-6,2.13-6,5.8s2.79,5.82,6.46,5.82a11.28,11.28,0,0,0,4.56-.89V61.16a7.55,7.55,0,0,1-3.88,1.11c-1.87,0-3.28-.6-3.49-2.13h4.35Zm-4.33-2.4a2.19,2.19,0,0,1,2.3-2.1,2.08,2.08,0,0,1,2.32,2.1Z"/><path class="cls-2" d="M34.51,59c0-3.69,2.79-5.82,6.46-5.82s6.46,2.13,6.46,5.82-2.79,5.8-6.46,5.8S34.51,62.7,34.51,59m9.19,0c0-1.67-1-3.14-2.73-3.14S38.25,57.36,38.25,59s1,3.11,2.72,3.11A2.82,2.82,0,0,0,43.7,59"/><rect class="cls-2" x="71.4" y="49.9" width="3.84" height="14.67"/><path class="cls-2" d="M66.25,49.82a2.1,2.1,0,1,1-2.1,2.1,2.1,2.1,0,0,1,2.1-2.1m-2,14.75h4V55.33h-4Z"/><path class="cls-2" d="M49.6,49.9h3.86v4.39h0a5.19,5.19,0,0,1,3.4-1.13c3.44,0,5.17,3,5.17,5.65,0,3.29-1.83,6-5.38,6-1.92,0-3.09-.81-3.51-1.65h0v1.39H49.6Zm6.63,6.25a2.63,2.63,0,0,0-2.56,2.9,2.69,2.69,0,0,0,2.56,2.84c1.58,0,2.53-1.22,2.53-3a2.53,2.53,0,0,0-2.53-2.75"/><path class="cls-2" d="M13.43,53.46h3.49v1.67h0c.65-1.44,2.16-1.92,3.73-1.92a3.5,3.5,0,0,1,3.47,2.13,4.41,4.41,0,0,1,3.95-2.13c3.2,0,4.24,1.81,4.24,4.82v6.54H28.53v-6c0-1.26-.45-2.2-1.54-2.2-1.37,0-2.17,1.09-2.17,3.48v4.69H21v-6c0-1.26-.45-2.2-1.54-2.2-1.36,0-2.17,1.09-2.17,3.48v4.69H13.43Z"/><rect class="cls-3" width="100" height="65"/></svg>