<svg xmlns="http://www.w3.org/2000/svg" viewBox="0 0 150 150"><style type="text/css">.st0{fill:#FFFFFF;}.st1{fill:#35318F;}.st2{fill:#00AAE7;}</style><g><rect x="52.557" y="38.862" class="st0" width="11.912" height="3.964"/><circle class="st0" cx="58.523" cy="143.047" r="2.983"/><path class="st1" d="M80.906,30.914H36.201c-6.26,0.022-11.329,5.091-11.351,11.351v8.489h67.408v-8.489 C92.257,35.997,87.175,30.914,80.906,30.914z M64.469,42.826H52.557v-4.004h11.912L64.469,42.826z"/><polygon class="st2" points="24.789,136.1 24.789,136.1 24.789,136.1 92.257,136.1 92.257,50.774 24.789,50.774 	"/><path class="st1" d="M24.789,138.863c0.022,6.138,4.993,11.109,11.131,11.131h45.206c6.138-0.022,11.109-4.993,11.131-11.131V136.1 H24.789V138.863z M58.523,140.084c1.647,0,2.983,1.336,2.983,2.983c0,1.647-1.336,2.983-2.983,2.983 c-1.647,0-2.983-1.336-2.983-2.983l0,0c-0.011-1.647,1.315-2.992,2.963-3.003c0.007,0,0.013,0,0.02,0V140.084z"/></g><g><path class="st1" d="M123.596,37.806c-1.261,1.241-3.564,0.954-5.144-0.642c-0.748-0.756-1.233-1.712-1.35-2.663c-1.605-13.407-13.757-25.559-27.164-27.164c-2.01-0.238-3.833-2.061-4.071-4.071c-0.238-2.01,1.198-3.446,3.207-3.207c17.413,2.087,33.196,17.87,35.283,35.283C124.478,36.315,124.203,37.202,123.596,37.806z"/><path class="st1" d="M107.464,38.206c-1.261,1.241-3.564,0.954-5.144-0.642c-0.748-0.756-1.233-1.712-1.35-2.663c-0.696-5.671-5.829-10.805-11.5-11.5c-2.01-0.238-3.833-2.061-4.071-4.071s1.198-3.446,3.207-3.207c9.717,1.164,18.524,9.972,19.689,19.689C108.38,36.767,108.082,37.628,107.464,38.206z"/></g></svg>
