<?xml version="1.0" encoding="utf-8"?>
<!-- Generator: Adobe Illustrator 21.1.0, SVG Export Plug-In . SVG Version: 6.00 Build 0)  -->
<svg version="1.1" xmlns="http://www.w3.org/2000/svg" xmlns:xlink="http://www.w3.org/1999/xlink" x="0px"
	 y="0px" viewBox="0 0 14.5 20.6" style="enable-background:new 0 0 14.5 20.6;" xml:space="preserve">
<style type="text/css">
	.st0{fill:#2C73D8;}
</style>
<g>
	<path class="st0" d="M1.6,0.7C0.2,1.5-0.2,4.3,0.1,6.6c0.3,1.8,1,4.2,2.3,6.6c1.2,2.2,3,4.2,4.4,5.4c1.8,1.5,4.4,2.6,5.8,1.8
		c0.7-0.4,1.8-1.6,1.9-1.8c0,0-0.5-1-0.7-1.2L12,14.1c-0.1-0.2-1.1-0.1-1.6,0.1c-0.7,0.3-1.3,1.3-1.3,1.3c-0.5,0.2-0.8-0.1-1.6-0.5
		c-0.9-0.5-1.9-1.9-2.7-3.2c-0.7-1.3-1.4-2.9-1.4-4c0-0.9,0-1.3,0.4-1.6c0,0,1.2-0.1,1.8-0.5c0.5-0.3,1.1-1,1-1.3L4.8,1.2
		C4.7,1,4.2,0,4.2,0C3.9-0.1,2.4,0.3,1.6,0.7z"/>
</g>
</svg>
