<svg xmlns="http://www.w3.org/2000/svg" viewBox="0 0 150 150"><style type="text/css">.st0{fill:#35318F;}.st1{fill:#00AAE7;}</style><g><path class="st0" d="M89.058,150H27.743c-1.657,0-3-1.343-3-3V36.43c0-1.657,1.343-3,3-3h61.315c1.657,0,3,1.343,3,3V147 C92.058,148.657,90.715,150,89.058,150z"/><rect x="36.236" y="48.406" class="st1" width="44.33" height="49.055"/></g><g><path class="st0" d="M124.846,37.812c-1.261,1.241-3.564,0.954-5.144-0.642c-0.748-0.756-1.233-1.712-1.35-2.663 c-1.605-13.407-13.757-25.559-27.164-27.164c-2.01-0.238-3.833-2.061-4.071-4.071c-0.238-2.01,1.198-3.446,3.207-3.207 c17.413,2.087,33.196,17.87,35.283,35.283C125.728,36.32,125.453,37.208,124.846,37.812z"/><path class="st0" d="M108.714,38.212c-1.261,1.241-3.564,0.954-5.144-0.642c-0.748-0.756-1.233-1.712-1.35-2.663 c-0.696-5.671-5.829-10.805-11.5-11.5c-2.01-0.238-3.833-2.061-4.071-4.071s1.198-3.446,3.207-3.207 c9.717,1.164,18.524,9.972,19.689,19.689C109.63,36.773,109.332,37.633,108.714,38.212z"/></g></svg>
