<svg xmlns="http://www.w3.org/2000/svg" viewBox="0 0 150.042 134.044"><defs><style>.cls-1{fill:#fff;}.cls-2{fill:none;}.cls-3{fill:#00aae7;}.cls-4{fill:#35318f;}.cls-5{fill:#f39800;}</style></defs><polygon class="cls-1" points="112.569 25.151 112.569 19.862 109.906 19.862 109.906 25.151 104.617 25.151 104.617 26.482 104.617 27.795 109.906 27.795 109.906 33.103 112.569 33.103 112.569 27.795 117.858 27.795 117.858 26.482 117.858 25.151 112.569 25.151"/><polygon class="cls-2" points="112.569 25.151 112.569 19.862 109.906 19.862 109.906 25.151 104.617 25.151 104.617 26.482 104.617 27.795 109.906 27.795 109.906 33.103 112.569 33.103 112.569 27.795 117.858 27.795 117.858 26.482 117.858 25.151 112.569 25.151"/><polygon class="cls-3" points="63.618 26.539 63.58 26.464 17.292 26.464 17.292 130.724 63.618 130.724 63.618 26.539"/><path class="cls-4" d="M134.4,146.643V42.439H117.858V43.77h-5.326v5.345h-2.626V43.752h-5.289V42.42H88.15V146.643H3.3V42.833a.413.413,0,1,0,0-.825V22.577H0V150H150.042v-3.357Z" transform="translate(0 -15.956)"/><path class="cls-3" d="M134.4,146.643V42.439H117.858V43.77h-5.326v5.345h-2.626V43.752h-5.289V42.42H88.15V146.643Z" transform="translate(0 -15.956)"/><circle class="cls-4" cx="135.694" cy="26.464" r="0.413"/><circle class="cls-4" cx="138.995" cy="26.464" r="0.413"/><circle class="cls-4" cx="137.345" cy="26.464" r="0.413"/><circle class="cls-4" cx="147.285" cy="26.464" r="0.413"/><circle class="cls-4" cx="148.935" cy="26.464" r="0.413"/><circle class="cls-4" cx="145.616" cy="26.464" r="0.413"/><circle class="cls-4" cx="142.315" cy="26.464" r="0.413"/><circle class="cls-4" cx="140.664" cy="26.464" r="0.413"/><circle class="cls-4" cx="143.965" cy="26.464" r="0.413"/><path class="cls-4" d="M31.884,42.42a.413.413,0,1,0-.825,0Z" transform="translate(0 -15.956)"/><path class="cls-4" d="M38.467,42.42a.413.413,0,1,0-.825,0Z" transform="translate(0 -15.956)"/><path class="cls-4" d="M35.166,42.42a.413.413,0,1,0-.825,0Z" transform="translate(0 -15.956)"/><path class="cls-4" d="M36.817,42.42a.413.413,0,1,0-.825,0Z" transform="translate(0 -15.956)"/><circle class="cls-4" cx="14.892" cy="26.464" r="0.413"/><path class="cls-4" d="M28.545,42.42a.413.413,0,0,0-.825,0Z" transform="translate(0 -15.956)"/><path class="cls-4" d="M30.2,42.42a.413.413,0,0,0-.825,0Z" transform="translate(0 -15.956)"/><path class="cls-4" d="M18.624,42.42a.413.413,0,0,0-.825,0Z" transform="translate(0 -15.956)"/><path class="cls-4" d="M26.9,42.42a.413.413,0,0,0-.825,0Z" transform="translate(0 -15.956)"/><circle class="cls-4" cx="16.542" cy="26.464" r="0.413"/><path class="cls-4" d="M20.274,42.42a.413.413,0,0,0-.825,0Z" transform="translate(0 -15.956)"/><path class="cls-4" d="M25.226,42.42a.413.413,0,0,0-.825,0Z" transform="translate(0 -15.956)"/><path class="cls-4" d="M21.925,42.42a.413.413,0,0,0-.825,0Z" transform="translate(0 -15.956)"/><path class="cls-4" d="M23.575,42.42a.413.413,0,0,0-.825,0Z" transform="translate(0 -15.956)"/><path class="cls-4" d="M33.516,42.42a.413.413,0,1,0-.825,0Z" transform="translate(0 -15.956)"/><path class="cls-4" d="M60.017,42.42a.413.413,0,1,0-.825,0Z" transform="translate(0 -15.956)"/><path class="cls-4" d="M58.329,42.42a.413.413,0,1,0-.825,0Z" transform="translate(0 -15.956)"/><path class="cls-4" d="M61.648,42.42a.413.413,0,0,0-.825,0Z" transform="translate(0 -15.956)"/><path class="cls-4" d="M53.359,42.42a.413.413,0,1,0-.825,0Z" transform="translate(0 -15.956)"/><path class="cls-4" d="M63.3,42.42a.413.413,0,0,0-.825,0Z" transform="translate(0 -15.956)"/><path class="cls-4" d="M56.678,42.42a.413.413,0,1,0-.825,0Z" transform="translate(0 -15.956)"/><path class="cls-4" d="M55.028,42.42a.413.413,0,1,0-.825,0Z" transform="translate(0 -15.956)"/><path class="cls-4" d="M50.058,42.42a.413.413,0,1,0-.825,0Z" transform="translate(0 -15.956)"/><path class="cls-4" d="M43.437,42.42a.413.413,0,1,0-.825,0Z" transform="translate(0 -15.956)"/><path class="cls-4" d="M41.787,42.42a.413.413,0,1,0-.825,0Z" transform="translate(0 -15.956)"/><path class="cls-4" d="M45.013,42.42a.413.413,0,1,0-.825,0Z" transform="translate(0 -15.956)"/><path class="cls-4" d="M48.407,42.42a.413.413,0,1,0-.825,0Z" transform="translate(0 -15.956)"/><path class="cls-4" d="M46.738,42.42a.413.413,0,1,0-.825,0Z" transform="translate(0 -15.956)"/><path class="cls-4" d="M40.136,42.42a.413.413,0,1,0-.825,0Z" transform="translate(0 -15.956)"/><circle class="cls-4" cx="6.621" cy="26.464" r="0.413"/><circle class="cls-4" cx="66.187" cy="26.464" r="0.413"/><circle class="cls-4" cx="72.808" cy="26.464" r="0.413"/><circle class="cls-4" cx="71.157" cy="26.464" r="0.413"/><circle class="cls-4" cx="67.838" cy="26.464" r="0.413"/><circle class="cls-4" cx="69.507" cy="26.464" r="0.413"/><circle class="cls-4" cx="77.778" cy="26.464" r="0.413"/><circle class="cls-4" cx="4.97" cy="26.464" r="0.413"/><path class="cls-4" d="M64.537,42.833a.413.413,0,0,0,.413-.413h0a.413.413,0,0,0-.206-.356l-.544.581A.413.413,0,0,0,64.537,42.833Z" transform="translate(0 -15.956)"/><path class="cls-4" d="M51.708,42.42a.413.413,0,1,0-.825,0Z" transform="translate(0 -15.956)"/><circle class="cls-4" cx="9.922" cy="26.464" r="0.413"/><circle class="cls-4" cx="11.591" cy="26.464" r="0.413"/><circle class="cls-4" cx="86.049" cy="26.464" r="0.413"/><circle class="cls-4" cx="8.271" cy="26.464" r="0.413"/><circle class="cls-4" cx="13.241" cy="26.464" r="0.413"/><circle class="cls-4" cx="74.458" cy="26.464" r="0.413"/><circle class="cls-4" cx="79.428" cy="26.464" r="0.413"/><circle class="cls-4" cx="76.128" cy="26.464" r="0.413"/><circle class="cls-4" cx="81.079" cy="26.464" r="0.413"/><circle class="cls-4" cx="84.399" cy="26.464" r="0.413"/><circle class="cls-4" cx="82.748" cy="26.464" r="0.413"/><path class="cls-5" d="M64.33,42.664" transform="translate(0 -15.956)"/><polygon class="cls-5" points="88.15 0 88.15 26.482 104.617 26.482 104.617 25.151 109.906 25.151 109.906 19.862 112.531 19.862 112.531 25.151 117.82 25.151 117.82 26.482 134.363 26.482 134.363 0 88.15 0"/></svg>