<?xml version="1.0" encoding="utf-8"?>
<!-- Generator: Adobe Illustrator 26.0.3, SVG Export Plug-In . SVG Version: 6.00 Build 0)  -->
<svg version="1.1" id="レイヤー_1" xmlns="http://www.w3.org/2000/svg" xmlns:xlink="http://www.w3.org/1999/xlink" x="0px"
	 y="0px" width="356px" height="89px" viewBox="0 0 356 89" style="enable-background:new 0 0 356 89;" xml:space="preserve">
<style type="text/css">
	.st0{fill:#FFFFFF;}
	.st1{fill:#35318E;}
	.st2{fill:#00AAE8;}
</style>
<g>
	<path class="st0" d="M5.2,0h345.5c2.9,0,5.2,2.3,5.2,5.2v78.5c0,2.9-2.3,5.2-5.2,5.2H5.2C2.3,89,0,86.7,0,83.8V5.2
		C0,2.3,2.3,0,5.2,0z"/>
	<g>
		<g>
			<path class="st1" d="M57.9,65.6c0,2.8,1.2,3.7,4.6,3.7H70c2.2,0,6.5-0.5,8.7-0.9l0.2,5.9c-1.9,0.3-6.3,0.5-8.4,0.5h-8.2
				c-7.1,0-10.2-2.9-10.2-9.3V43.4l7.2,0.3c0,0.5-0.3,0.8-1.3,1v10.8c4.5-1.5,11.3-4.4,15.6-6.8l3.8,5.4c-0.2,0.1-0.4,0.2-0.7,0.2
				c-0.2,0-0.5,0-0.7-0.1c-3.2,1.5-11.6,4.9-18.1,6.7V65.6z M75.3,49.1c-0.8-1.4-2.8-4.1-3.9-5.3l2.5-1.9c1.5,1.4,3.2,3.8,4.1,5.2
				L75.3,49.1z M81,47.3c-0.8-1.3-2.8-3.9-4-5.1l2.5-1.9c1.5,1.4,3.3,3.6,4.2,5.1L81,47.3z"/>
			<path class="st1" d="M89.7,52.3c1,2.3,2.1,5.7,2.6,8l-4.4,1.3c-0.5-2.5-1.5-5.7-2.5-8.1L89.7,52.3z M111.7,53.5
				c-0.1,0.3-0.5,0.6-1,0.5c-3.2,11.3-9.3,17.9-17.7,21.4c-0.6-1-2.1-2.8-3.2-3.6c7.7-2.8,13.7-8.8,16.2-20.1L111.7,53.5z
				 M98.7,50.9c0.8,2.2,1.6,5.9,1.9,8.3l-4.7,1c-0.3-2.6-1.1-6-1.9-8.4L98.7,50.9z"/>
			<path class="st1" d="M146.7,51.2c-0.2,0.3-0.6,0.6-1,0.8c-4.7,13.4-10.5,19.9-20.1,24.7c-1-1.3-2.7-3.3-4.4-4.5
				c8.7-4,13.9-9.4,16.8-18.1h-9.6c-1.8,2.7-4.6,5.7-7.6,8.1c-1.1-1.1-3.2-2.8-4.7-3.7c4.9-3.3,9.6-9.9,11.7-16.5l7.3,1.6
				c-0.2,0.5-0.7,0.7-1.3,0.8c-0.6,1.2-1.5,3.2-2.1,4.3h9.2l0.8-0.4L146.7,51.2z M140.4,41.2c1.6,1.2,3.7,3.4,4.8,4.7l-2.5,2.3
				c-0.9-1.3-3.3-3.7-4.6-4.8L140.4,41.2z M146.8,40.2c1.6,1.3,3.6,3.3,4.7,4.7l-2.6,2.2c-0.8-1.1-3-3.5-4.5-4.7L146.8,40.2z"/>
			<path class="st1" d="M180.2,47.3v26.1h-6v-2.1h-16.1v2.1h-5.8V47.3H180.2z M174.2,65.9V52.7h-16.1v13.2H174.2z"/>
			<path class="st1" d="M184,55.8h32v5.8h-30.3c-0.3,0.4-0.8,0.7-1.4,0.7L184,55.8z"/>
			<path class="st1" d="M241.9,40.7c1.5,1.3,3.4,3.4,4.4,4.9l-1.1,0.8l4.5,2.1c-0.2,0.3-0.5,0.6-0.9,0.8
				c-3.6,14.3-9.8,22.2-22.4,27.3c-1.1-1.6-2.8-3.6-4-4.8c11.7-4.1,17.2-11.5,19-19.5h-21.4v-5.5h23.2c-1-1.3-2.5-3.3-3.6-4.3
				L241.9,40.7z M250.5,47.1c-0.8-1.3-2.9-3.8-4.2-5l2.4-2c1.5,1.3,3.4,3.5,4.4,4.9L250.5,47.1z"/>
		</g>
		<g>
			<path class="st2" d="M277.3,58.3c-0.2,0.5-0.7,0.8-1.6,1c-3.3,8-6.7,15-20.3,19.1c-0.2-1.8-1.3-4.5-2.4-5.9
				c11.7-2.9,13.8-8,16.2-14.9L277.3,58.3z M285.3,69.7c-0.5,1.8-0.3,2,1,2h3.2c1.3,0,1.8-1,3.7-7.1c1.1,1.1,3.8,2.3,5.4,2.7
				c-2.9,8.4-5.2,10.7-10.2,10.7h-4.9c-5.8,0-6.7-2.1-5.1-8.3l3.4-12.7h-23.5l1.7-6.4h17.5l4.5-16.6l8.2,0.4c-0.2,0.6-0.7,0.9-1.7,1
				l-4.1,15.2h17.9l-1.7,6.4h-11.1c-0.2,0.1-0.5,0.2-0.9,0.2L285.3,69.7z M273.1,35.9c1.1,3.5,2,8,1.9,11.1l-7.3,2.6
				c0.2-3-0.5-7.8-1.3-11.5L273.1,35.9z M288.7,47.1c2.7-3,6.1-7.7,8.2-11.4l7,3.1c-0.3,0.4-1,0.6-1.7,0.6
				c-2.2,3.3-5.8,7.5-8.4,10.3L288.7,47.1z"/>
		</g>
	</g>
	<g>
		<g>
			<g>
				<path d="M102,26.9h-1.8L88.8,13.1h1.8L102,26.9z"/>
			</g>
			<g>
				<path d="M114.3,14.2c0-0.4,0-0.7-0.1-1h1.5c-0.1,0.3-0.1,0.6-0.1,1v0.2h4.5c0.6,0,1,0,1.5-0.1v1.3c-0.5-0.1-0.9-0.1-1.5-0.1H110
					c-0.6,0-1,0-1.5,0.1v-1.3c0.5,0.1,0.9,0.1,1.6,0.1h4.2V14.2z M109,21.4c0-0.5,0-0.9-0.1-1.3c0.5,0,0.9,0.1,1.5,0.1h9.4
					c0.7,0,1.1,0,1.4-0.1c0,0.5-0.1,0.8-0.1,1.3v3.8c0,0.6-0.1,0.9-0.4,1.1c-0.3,0.2-0.7,0.3-1.5,0.3c-0.2,0-0.6,0-0.7,0
					c-0.5,0-0.5,0-0.7,0c0-0.5-0.1-0.8-0.3-1.2c0.8,0.1,1.3,0.1,1.8,0.1c0.3,0,0.4-0.1,0.4-0.3v-3.9h-9.6v4.1c0,0.7,0,1,0.1,1.6
					h-1.5c0.1-0.3,0.1-0.9,0.1-1.6V21.4z M110.9,17.2c0-0.5,0-0.8,0-1.1c0.4,0,0.7,0.1,1.4,0.1h5.9c0.6,0,0.9,0,1.3-0.1
					c0,0.4,0,0.6,0,1.1v1.1c0,0.6,0,0.8,0,1.1c-0.4,0-0.7-0.1-1.4-0.1h-5.8c-0.6,0-0.9,0-1.4,0.1c0-0.3,0-0.6,0-1.1V17.2z M118.2,24
					c0,0.5,0,0.7,0,1c-0.3,0-0.8,0-1.3,0h-3.7v0.8h-1.3c0.1-0.3,0.1-0.7,0.1-1.2v-1.6c0-0.4,0-0.7,0-1c0.3,0,0.6,0,1.2,0h3.8
					c0.5,0,0.9,0,1.2,0c0,0.3,0,0.5,0,1V24z M112.1,18.4h6v-1.2h-6V18.4z M113.2,24h3.8v-1.1h-3.8V24z"/>
			</g>
			<g>
				<path d="M123.4,19c0.4,0.1,0.6,0.1,1.2,0.1h0.9c0.4,0,0.8,0,1.1-0.1c-0.1,0.5-0.1,0.8-0.1,1.6v3c0.8,1.3,1.6,1.6,3.8,1.6
					c2.9,0,5.1-0.1,6.7-0.3c-0.3,0.7-0.3,0.8-0.4,1.5c-1.3,0.1-3.1,0.1-4.6,0.1c-2.4,0-3.4-0.1-4.2-0.3c-0.8-0.3-1.4-0.6-1.9-1.5
					c-0.7,0.7-1,1-1.6,1.4c-0.2,0.2-0.4,0.3-0.6,0.5l-0.6-1.4c0.6-0.3,1.5-0.9,2.2-1.6v-3.4h-0.8c-0.4,0-0.7,0-1,0.1V19z
					 M124.5,13.5c1,0.9,1.6,1.6,2.5,2.7l-1,1c-0.8-1.1-1.4-1.8-2.4-2.7L124.5,13.5z M128.6,15.8c-0.6,0-0.9,0-1.3,0.1v-1.3
					c0.4,0.1,0.8,0.1,1.5,0.1h2.3v-0.4c0-0.4,0-0.7-0.1-1h1.4c0,0.3-0.1,0.6-0.1,0.9v0.5h2.8c0.8,0,1.1,0,1.5-0.1v1.3
					c-0.4-0.1-0.7-0.1-1.3-0.1h-3v1h2.3c0.6,0,1,0,1.4-0.1c0,0.4-0.1,0.7-0.1,1.3v1.2c0,0.6,0,1,0.1,1.4c-0.4,0-0.7-0.1-1.4-0.1H133
					c0.5,0.5,0.8,0.7,1.3,1.1c0.9,0.6,1.5,0.9,2.7,1.4c-0.4,0.5-0.4,0.7-0.7,1.2c-1.1-0.5-1.7-0.8-2.4-1.4c-0.6-0.5-1-0.8-1.6-1.6
					c0,0.3,0,0.7,0,1.2v1.2c0,0.4,0,0.7,0.1,1.1H131c0-0.3,0.1-0.6,0.1-1.1v-1.2c0-0.4,0-0.5,0-1.1c-0.9,1.1-1.9,1.8-3.5,2.7
					c-0.3-0.5-0.4-0.7-0.8-1.1c1.5-0.7,2.5-1.3,3.6-2.4h-1.4c-0.7,0-1,0-1.4,0.1c0-0.4,0.1-0.8,0.1-1.3v-1.2c0-0.6,0-0.9-0.1-1.4
					c0.5,0.1,0.8,0.1,1.4,0.1h2v-1H128.6z M128.9,17.9v1.6h2.1v-1.6H128.9z M132.3,19.5h2.3v-1.6h-2.3V19.5z"/>
			</g>
			<g>
				<path d="M142.6,20c0,0.8-0.7,1.5-1.5,1.5c-0.8,0-1.5-0.7-1.5-1.5c0-0.8,0.7-1.5,1.5-1.5C142,18.5,142.6,19.2,142.6,20z"/>
			</g>
			<g>
				<path d="M151.4,14.2c0-0.4,0-0.7-0.1-1h1.5c-0.1,0.3-0.1,0.6-0.1,1v0.2h4.5c0.6,0,1,0,1.5-0.1v1.3c-0.5-0.1-0.9-0.1-1.5-0.1
					h-10.1c-0.6,0-1,0-1.5,0.1v-1.3c0.5,0.1,0.9,0.1,1.6,0.1h4.2V14.2z M146.1,21.4c0-0.5,0-0.9-0.1-1.3c0.5,0,0.9,0.1,1.5,0.1h9.4
					c0.7,0,1.1,0,1.4-0.1c0,0.5-0.1,0.8-0.1,1.3v3.8c0,0.6-0.1,0.9-0.4,1.1c-0.3,0.2-0.7,0.3-1.5,0.3c-0.2,0-0.6,0-0.7,0
					c-0.5,0-0.5,0-0.7,0c0-0.5-0.1-0.8-0.3-1.2c0.8,0.1,1.3,0.1,1.8,0.1c0.3,0,0.4-0.1,0.4-0.3v-3.9h-9.6v4.1c0,0.7,0,1,0.1,1.6H146
					c0.1-0.3,0.1-0.9,0.1-1.6V21.4z M148,17.2c0-0.5,0-0.8,0-1.1c0.4,0,0.7,0.1,1.4,0.1h5.9c0.6,0,0.9,0,1.3-0.1c0,0.4,0,0.6,0,1.1
					v1.1c0,0.6,0,0.8,0,1.1c-0.4,0-0.7-0.1-1.4-0.1h-5.8c-0.6,0-0.9,0-1.4,0.1c0-0.3,0-0.6,0-1.1V17.2z M155.2,24c0,0.5,0,0.7,0,1
					c-0.3,0-0.8,0-1.3,0h-3.7v0.8H149c0.1-0.3,0.1-0.7,0.1-1.2v-1.6c0-0.4,0-0.7,0-1c0.3,0,0.6,0,1.2,0h3.8c0.5,0,0.9,0,1.2,0
					c0,0.3,0,0.5,0,1V24z M149.2,18.4h6v-1.2h-6V18.4z M150.3,24h3.8v-1.1h-3.8V24z"/>
			</g>
			<g>
				<path d="M160.6,21.5c0-0.5,0-1-0.1-1.4c0.4,0,0.8,0.1,1.4,0.1h3.1c0.5,0,0.8,0,1.2,0c0,0.3,0,0.6,0,1.3v3.7c0,0.6,0,1,0.1,1.4
					h-1.3V26h-2.9v0.8h-1.4c0.1-0.4,0.1-0.8,0.1-1.6V21.5z M161.9,24.8h2.9v-3.4h-2.9V24.8z M162.6,15c0-0.5,0-0.9-0.1-1.3
					c0.5,0.1,0.9,0.1,1.7,0.1h5.3c0.8,0,1.3,0,1.7-0.1c0,0.4-0.1,0.7-0.1,1.3v2.6c0,0.6,0,1,0.1,1.3c-0.4,0-0.8-0.1-1.5-0.1h-5.5
					c-0.7,0-1.1,0-1.5,0.1c0-0.4,0.1-0.8,0.1-1.3V15z M163.9,17.7h5.8V15h-5.8V17.7z M167.3,21.4c0-0.7,0-0.9,0-1.2
					c0.4,0,0.7,0,1.2,0h3.5c0.6,0,0.9,0,1.3-0.1c0,0.4-0.1,0.8-0.1,1.4v3.7c0,0.8,0,1.2,0.1,1.6h-1.4V26h-3.2v0.8h-1.3
					c0-0.4,0.1-0.8,0.1-1.4V21.4z M168.6,24.8h3.2v-3.4h-3.2V24.8z"/>
			</g>
			<g>
				<path d="M177.1,16.5c-0.1,0.7-0.2,1.1-0.5,1.6c-0.3,0.5-0.4,0.7-0.8,1.3c-0.4-0.5-0.6-0.7-1-1c0.9-0.8,1.2-1.9,1.2-3.7
					c0-0.2,0-0.6-0.1-0.9c0.1,0,0.2,0,0.3,0c0.7,0,1.8-0.1,2.5-0.2c0.8-0.1,1.3-0.3,1.9-0.5l0.8,1c-1.6,0.4-2.2,0.5-4.2,0.7
					c0,0.3,0,0.4,0,0.6h3.1c0.5,0,0.8,0,1.1-0.1v1.2c-0.3,0-0.7-0.1-1.1-0.1h-0.5v0.6c0,0,0,0.1,0,0.2c0,0.1,0,0.1,0,0.2
					c0,0.2,0,0.2,0,0.3h-1.3c0-0.1,0-0.2,0-0.3c0-0.1,0-0.2,0-0.2c0-0.1,0-0.1,0-0.1v-0.6H177.1z M180.4,25.3
					c-1.7,0.9-2.7,1.3-4.7,1.6c-0.2-0.5-0.3-0.7-0.7-1.2c2.1-0.2,3-0.5,4.3-1.2L180.4,25.3z M187.1,15.4c0.5,0,0.8,0,1.2-0.1v1.2
					c-0.4-0.1-0.7-0.1-1.2-0.1h-1v0.6c0,0,0,0.1,0,0.1c0,0.1,0,0.1,0,0.3c0,0.1,0,0.1,0,0.3h-1.3c0-0.1,0-0.5,0-0.6v-0.7h-1.7
					c-0.2,0.7-0.3,1-0.7,1.6h2.6c0.7,0,1.2,0,1.7-0.1c-0.1,0.5-0.1,0.9-0.1,1.8v3c0,0.8,0,1.3,0.1,1.7c-0.4,0-0.9-0.1-1.6-0.1h-6.8
					c-0.7,0-1.2,0-1.6,0.1c0.1-0.4,0.1-0.9,0.1-1.7v-2.9c0-0.9,0-1.3-0.1-1.8c0.4,0,0.9,0.1,1.6,0.1h3.6c-0.3-0.3-0.5-0.5-0.8-0.7
					c0.5-0.6,0.7-1,0.8-1.9c0.1-0.4,0.1-0.7,0.1-1.2c0-0.1,0-0.3,0-0.4c0.2,0,0.3,0,0.4,0c0.4,0,1.4-0.1,2-0.1
					c1-0.1,1.6-0.3,2.4-0.6l0.8,1c-0.3,0.1-0.3,0.1-1.1,0.2c-1,0.2-1.8,0.3-3.3,0.4c0,0.3,0,0.4,0,0.6H187.1z M178.1,19.9h7.2v-0.8
					h-7.2V19.9z M178.1,21.6h7.2v-0.8h-7.2V21.6z M178.1,23.4h7.2v-0.8h-7.2V23.4z M184,24.5c1.5,0.8,2.4,1,4.3,1.2
					c-0.3,0.4-0.4,0.6-0.7,1.3c-2.1-0.4-3.1-0.7-4.8-1.7L184,24.5z"/>
			</g>
			<g>
				<path d="M195.2,13.7c-0.1,0.3-0.1,0.3-0.2,1c-0.1,0.5-0.2,0.8-0.3,1.4c1.1-0.1,1.8-0.2,2.5-0.4l0.1,1.4c-0.2,0-0.2,0-0.5,0.1
					c-0.5,0.1-1.4,0.2-2.4,0.3c-0.4,1.5-1,2.9-1.6,4.3c-0.3,0.7-0.5,1-1,2c-0.1,0.2-0.2,0.4-0.3,0.5l-1.4-0.8
					c0.5-0.7,0.9-1.3,1.4-2.4c0.6-1.2,1.1-2.5,1.4-3.6c-0.3,0-0.4,0-0.9,0c-0.4,0-0.4,0-1,0c-0.1,0-0.1,0-0.5,0V16
					c0.5,0.1,1,0.1,1.9,0.1c0.4,0,0.7,0,0.9,0c0.3-1,0.5-2,0.5-2.6L195.2,13.7z M202.1,25.4c-0.5-0.6-1.4-1.4-2.4-1.9
					c0,0.2,0,0.2,0,0.3c0,0.5-0.2,1.2-0.5,1.6c-0.5,0.5-1.3,0.9-2.4,0.9c-1.9,0-3.1-0.9-3.1-2.3c0-1.4,1.3-2.5,3.1-2.5
					c0.5,0,0.8,0,1.5,0.2c-0.1-0.8-0.1-1.3-0.1-1.9c0-0.6,0-0.9,0.1-1.4l1.4,0.1c-0.1,0.5-0.2,0.9-0.2,1.4c0,0.6,0,1.3,0.1,2.1
					c1,0.5,1.6,0.8,2.4,1.4c0.3,0.3,0.3,0.3,0.5,0.4c0.1,0.1,0.1,0.1,0.2,0.2L202.1,25.4z M196.8,22.8c-1.1,0-1.7,0.4-1.7,1.1
					c0,0.7,0.6,1,1.6,1c1.1,0,1.6-0.5,1.6-1.4c0-0.2,0-0.5,0-0.6C197.7,22.8,197.4,22.8,196.8,22.8z M202.1,18.7
					c-1.2-0.9-2.5-1.5-4.1-2.1l0.7-1.2c1.7,0.6,2.8,1.2,4.1,1.9L202.1,18.7z"/>
			</g>
			<g>
				<path d="M210.3,14.9c0-0.6,0-1-0.1-1.4h1.5c-0.1,0.4-0.1,0.8-0.1,1.4v3.7h4.3c0.6,0,1.1,0,1.6-0.1v1.4c-0.5-0.1-0.9-0.1-1.6-0.1
					H213v5.1c0,0.4,0.1,0.4,1.5,0.4c1.1,0,1.5-0.1,1.7-0.3c0.2-0.2,0.3-1,0.3-2.2c0.5,0.3,0.8,0.4,1.3,0.5c-0.1,1.8-0.4,2.5-0.9,2.9
					c-0.4,0.3-0.9,0.4-2.6,0.4c-1.4,0-1.8,0-2.2-0.3c-0.3-0.2-0.4-0.4-0.4-1v-5.4h-1.8c0,1.2-0.1,1.8-0.4,2.6
					c-0.6,2.1-2,3.5-4.4,4.3c-0.3-0.5-0.5-0.8-0.9-1.2c1.6-0.5,2.6-1.1,3.3-2c0.5-0.6,0.9-1.6,1-2.6c0-0.3,0-0.5,0.1-1.1h-2.3
					c-0.6,0-1.1,0-1.6,0.1v-1.4c0.5,0.1,1,0.1,1.6,0.1h4V14.9z M206.6,14.1c1,1.2,1.4,1.9,2.2,3.3l-1.2,0.7
					c-0.8-1.6-1.2-2.2-2.2-3.4L206.6,14.1z M216.5,14.7c-0.9,1.7-1.4,2.4-2.4,3.6l-1.2-0.7c1-1.1,1.5-2,2.3-3.5L216.5,14.7z"/>
			</g>
			<g>
				<path d="M230.7,26.8V26h-9.6v0.8h-1.4c0.1-0.4,0.1-1,0.1-1.9v-9.2c0-0.7,0-1.2-0.1-1.8c0.5,0.1,1,0.1,1.7,0.1h9
					c0.7,0,1.2,0,1.7-0.1c-0.1,0.5-0.1,1-0.1,1.8V25c0,0.8,0,1.5,0.1,1.8H230.7z M221.2,24.8h9.6v-9.6h-9.6V24.8z M227.4,17.1
					c0.7,0,1.1,0,1.5-0.1c0,0.3-0.1,0.7-0.1,1.2v3.4c0,0.5,0,0.8,0.1,1.2c-0.4,0-0.8-0.1-1.5-0.1h-2.9c-0.8,0-1,0-1.5,0.1
					c0-0.4,0.1-0.7,0.1-1.2v-3.4c0-0.4,0-0.8-0.1-1.2c0.4,0,0.8,0.1,1.5,0.1H227.4z M224.3,21.6h3.2v-3.3h-3.2V21.6z"/>
			</g>
			<g>
				<path d="M234.3,19.6c0.3,0,0.4,0,0.6,0c0.1,0,0.3,0,0.5,0c0.5-0.6,0.6-0.8,0.9-1.2c-0.9-1-1.2-1.4-2.1-2.2l0.7-1
					c0.3,0.3,0.4,0.4,0.6,0.6c0.6-1,1.1-2,1.3-2.6l1.2,0.5c-0.1,0.1-0.2,0.3-0.3,0.6c-0.4,0.8-0.8,1.5-1.4,2.4
					c0.3,0.4,0.4,0.5,0.7,0.8c0.7-1.1,1.2-2,1.4-2.5l1.1,0.6c-0.3,0.4-0.3,0.4-1.1,1.7c-0.4,0.6-1.2,1.7-1.7,2.4
					c0.7,0,1.3-0.1,1.9-0.1c-0.2-0.5-0.2-0.6-0.5-1.2l0.9-0.4c0.5,1.2,0.6,1.6,1,2.8l-1,0.5c-0.1-0.3-0.1-0.4-0.1-0.6
					c-0.2,0-0.2,0-0.4,0.1c-0.2,0-0.2,0-0.8,0.1v4.8c0,0.7,0,1.1,0.1,1.5h-1.4c0.1-0.5,0.1-0.9,0.1-1.5v-4.6c-0.2,0-0.2,0-1.4,0.1
					c-0.3,0-0.4,0-0.7,0.1L234.3,19.6z M236,21.6c-0.2,2.8-0.3,3.2-0.7,4.4l-1.1-0.5c0.4-1.1,0.5-2,0.7-4L236,21.6z M239.1,21.4
					c0.3,1.2,0.4,1.8,0.5,2.9l-1,0.3c-0.1-1.1-0.2-1.9-0.5-3L239.1,21.4z M242.7,21.4c-0.2,0.5-0.3,0.7-0.3,0.7
					c-0.6,1.7-1.4,2.8-2.8,4.1c-0.2-0.4-0.5-0.6-0.9-1c1.3-0.9,2.1-1.9,2.6-3.3h-0.8c-0.4,0-0.6,0-0.9,0.1v-1.2
					c0.3,0,0.5,0.1,0.9,0.1h0.9c0.4,0,0.5,0,0.7,0L242.7,21.4z M242.4,14.4c0.3-0.7,0.3-0.9,0.4-1.3l1.4,0.2
					c-0.2,0.5-0.3,0.8-0.5,1.1h1.7c0.7,0,1,0,1.4-0.1c0,0.4-0.1,0.8-0.1,1.4v2.5c0,0.6,0,1,0.1,1.4c-0.4,0-0.8-0.1-1.4-0.1h-1.3
					c0.2,0.9,0.4,1.3,0.8,2.1c0.7-0.6,1.1-1,1.7-1.8l0.9,0.8c-0.8,0.8-1.3,1.3-2,1.9c0.8,1.1,1.4,1.7,2.4,2.4
					c-0.3,0.4-0.5,0.6-0.8,1.2c-0.8-0.6-1.2-1-1.7-1.7c-0.7-0.9-1.1-1.6-1.6-2.9c0.1,1.2,0.1,2.1,0.1,3.3c0,0.8-0.1,1.1-0.4,1.3
					c-0.2,0.2-0.6,0.3-1.3,0.3c0,0-0.1,0-0.1,0c-0.2,0-0.3,0-0.4,0c-0.2,0-0.3,0-0.5,0c-0.1-0.6-0.1-0.9-0.3-1.3
					c0.5,0.1,0.9,0.1,1.3,0.1c0.4,0,0.5-0.1,0.5-0.3v-5.4h-1.3c-0.6,0-1,0-1.4,0.1c0-0.4,0.1-0.9,0.1-1.4v-2.6c0-0.5,0-1-0.1-1.4
					c0.4,0,0.7,0.1,1.4,0.1H242.4z M241.4,16.5h4.2v-1h-4.2V16.5z M241.4,18.7h4.2v-1.1h-4.2V18.7z"/>
			</g>
			<g>
				<path d="M267.2,13.1l-11.4,13.8H254l11.4-13.8H267.2z"/>
			</g>
		</g>
	</g>
</g>
</svg>
