<?xml version="1.0" encoding="UTF-8"?><svg xmlns="http://www.w3.org/2000/svg" viewBox="0 0 470 246"><defs><style>.d{fill:#fff;}.e{fill:#35318e;}.f{fill:none;stroke:#231815;stroke-miterlimit:10;stroke-width:2px;}.g{fill:#ff438e;}.h{fill:#00aae8;}.i{fill:#231815;}.j{fill:#ffffa0;}</style></defs><g id="a"><rect class="d" x="-571.43" y="-148" width="1112.43" height="788"/></g><g id="b"><rect class="j" x="0" y="130" width="470" height="116"/><g><g><path class="g" d="M45.28,197.73h1.83q.57-.04,1.22-.04l-.05,.57c2-.96,3.3-1.83,4.62-3.01h-.39c-1.48,0-1.92,0-3.1,.09,.2-1.79,.33-2.75,.44-4.05l1.33-15.21,.14-2.05,.06-.74c.02-.26,.05-.61,.07-1.31,1,.09,1.43,.09,3.57,.09h.87c.46-.79,.77-1.35,1.04-1.96h-1.74c-1.7,0-2.62,.04-3.94,.17l.55-6.32c1.21,.17,2.34,.22,4.91,.22h9.02c2.66,0,3.97-.04,5.16-.22l-.55,6.32c-1.17-.13-2.69-.17-5.13-.17h-1.66c-.37,.74-.68,1.35-1.04,1.96h1.79c2.75,0,3.53,0,4.63-.09-.24,1.26-.4,2.53-.53,4.05l-1.27,14.52c-.15,1.74-.24,3.27-.25,4.84-1.56-.09-2.6-.13-3.74-.13h-.39c1.71,1.44,3.16,2.27,5.76,3.4-1.59,1.79-2.77,3.23-4.36,5.54-2.88-1.92-4.34-3.18-6.74-5.71-2.71,2.62-4.48,3.88-8.72,6.02-.52-1.05-.71-1.35-1.32-2.31-.78-.09-1.82-.13-2.95-.13h-5.28l-.15,1.7h-5.54c.29-1.31,.43-2.4,.58-4.14l.45-5.14c.15-1.74,.35-3.49,.51-4.36l-.16-.22c-1.19,6.15-2.36,9.55-4.52,13.34-1.04-2.53-2.42-4.75-3.84-6.41,2.16-4.23,3.05-8.5,4.01-19.44,.28-3.18,.37-4.67,.43-6.45,1.25,.13,1.82,.13,4.44,.13h10.42c2.79,0,3.36,0,4.41-.13-.14,.57-.18,1.05-.27,2.05l-.39,4.45c-.16,1.83-.17,2.44-.15,3.27-.57,0-.74-.04-1.26-.04-.54,1.13-.69,1.44-1.2,2.27,1.44,0,1.88-.04,2.63-.13l-.39,4.4c-.86-.09-1.51-.13-2.95-.13l-.12,1.35h.35c1.22,0,1.66,0,2.23-.09l-.3,3.44c-.86-.09-1.17-.09-2.26-.09h-.3l-.12,1.35h.35c1.22,0,1.57-.04,2.23-.13l-.31,3.49c-.78-.09-1.13-.09-2.26-.09h-.3l-.13,1.44Zm-14.7-33.74c1.21,.17,2.38,.22,4.95,.22h10.33c2.18,0,3.67-.09,5.03-.22l-.53,6.02c-1.12-.13-2.21-.17-3.86-.17h-11.47c-2.4,0-3.49,.04-4.99,.17l.53-6.02Zm5.65,16.61c-.31,2.49-.42,3.31-.63,4.75,1.2-1.79,1.97-3.14,2.6-4.75h-1.96Zm.43-4.93c-.06,.65-.12,.87-.18,1.05h7.24l.13-1.53h-7.15l-.04,.48Zm2.66,20.45l-.14,1.61h1.92l.14-1.61h-1.92Zm2.31-4.53h-1.92l-.13,1.53h1.92l.13-1.53Zm.4-4.53h-1.92l-.13,1.53h1.92l.13-1.53Zm.3-6.45q-.33,.79-1.16,2.31h1.79c.52-.96,.74-1.44,1.12-2.31h-1.74Zm15.03,17.09l2.7-2.44h-5.19l2.49,2.44Zm-1.33-7.72h4.93l.15-1.7h-4.93l-.15,1.7Zm.5-5.75h4.93l.14-1.57h-4.93l-.14,1.57Zm.5-5.67h4.93l.14-1.57h-4.93l-.14,1.57Z"/><path class="g" d="M76.28,193.07c.03-.39,.05-.57,.09-1.53-1.34,.35-1.83,.44-3.6,.79-.48-2.44-.98-3.79-2.14-5.93,5.68-.61,10.07-1.48,14.92-3.09-1.2-.78-1.68-1.18-2.73-2.18-2.08,1.35-3.86,2.31-6.76,3.58-.87-1.96-1.57-3.01-3.31-5.01,2.56-.87,4.2-1.61,6.26-2.75h-6.32c.27-1.09,.45-2.18,.57-3.53l.41-4.67c.13-1.44,.16-2.35,.13-3.44,1.51,.13,2.82,.17,5.26,.17h10.77c.07-1.35,.1-1.66,.01-2.66h7.24c-.19,.65-.3,1.48-.41,2.66h11.12c2.53,0,3.8-.04,5.38-.17-.21,.96-.34,1.88-.48,3.44l-.41,4.71c-.12,1.4-.17,2.4-.09,3.49h-6.1c-2.46,2.27-4.24,3.58-7.85,6.02,4.38,1.22,8.39,1.74,14.53,1.83-1.57,2.53-2.27,3.97-3.31,6.89-1.64-.22-2.37-.35-3.35-.52-.09,1-.1,1.18-.17,1.92l-.57,6.5c-.19,2.14-.23,3.18-.2,4.27h-6.71l.13-1.53h-16.65l-.13,1.48h-6.67c.27-1.61,.48-3.01,.6-4.32l.56-6.41Zm3.51-21.67l-.47,5.36c2.35-1.4,4.84-3.44,6.53-5.36h-6.06Zm2.62,25.42h16.7l.2-2.31h-16.7l-.2,2.31Zm15.45-7.72c-3.18-1.05-4.36-1.48-6.33-2.35-2.14,1-3.26,1.44-6.13,2.35h12.47Zm-9.51-10.9c1.02,.74,2.18,1.44,3.76,2.31,1.27-.61,2.01-1.09,3.86-2.31h-7.63Zm11.17-5.06c1.48,0,2.45-.04,3.11-.17l3,2.53,.36-4.1h-12.69c-.54,.74-.79,1-1.46,1.74h7.67Z"/><path class="g" d="M123.11,189.36c-1.24,4.23-3.24,9.59-4.79,12.86-.48,.96-.48,1-.71,1.66l-5.22-5.1c2.05-2.53,3.96-6.84,5.76-12.99l4.96,3.58Zm12.97-3.27h-6.41l-1.12,12.82c-.2,2.31-.27,3.53-.25,4.88h-6.23c.3-1.48,.52-2.92,.72-5.23l1.27-14.47c.13-1.53,.16-2.35,.17-3.44l-4.28,4.05c-1.92-2.49-3.52-4.1-5.96-6.06l5.01-4.4c2.12,1.66,3,2.53,4.62,4.45l.48-5.54c1.08,.13,2.51,.22,4.78,.22h1.79l.18-2.05h-1.09c-1.83,0-3.14,.04-4.33,.17l.16-1.83-3.59,3.66c-2.12-2.66-3.37-3.88-6.18-6.1l4.82-4.27c2.01,1.44,3.43,2.66,5.16,4.36l.17-1.96c.95,.13,2.64,.22,4.47,.22h.92c.1-1.18,.08-1.87,.02-2.66h6.63c-.19,.7-.28,1.26-.41,2.66h5.49c.08-1.39,.13-1.96,.06-2.66h6.63c-.19,.74-.29,1.35-.45,2.66h1.83c1.79,0,3.41-.09,4.51-.22l-.54,6.15c-1-.09-2.56-.17-4.39-.17h-1.92l-.18,2.05h2.4c2.88,0,3.84-.04,5.08-.22l-.54,6.15c-1.08-.13-2.68-.22-5.04-.22h-8.46l-.14,1.57h6.98c2.35,0,4.06-.04,5.2-.17-.29,1.35-.44,2.57-.65,4.88l-1.2,13.69c-.18,2.05-.9,3.27-2.31,3.92-1,.44-2.23,.61-4.54,.61-1.05,0-2.48-.04-3.52-.13,.05-2.05-.04-3.01-.39-4.49h-7.11l-.15,1.7h-4.75c.18-1,.28-1.7,.45-3.62l.56-6.37c.13-1.48,.16-2.27,.15-3.23h4.19c-.16,.79-.2,1.31-.37,3.23l-.27,3.05h1.22l.67-7.63Zm-11.72-5.58c.86,.09,1.64,.13,2.82,.13h8.63l.14-1.57h-7.37c-1.87,0-3.54,.04-4.51,.17l.75,.87-.47,.39Zm18.02-7.15l.18-2.05h-5.49l-.18,2.05h5.49Zm-1.08,20.36l.26-3.01c.16-1.88,.21-2.4,.2-3.27h4.18c-.2,.79-.24,1.22-.42,3.27l-.43,4.93c-.09,1-.11,1.31-.14,2.05h.39c.78,0,.97-.13,1.03-.83l.94-10.77h-6.58l-.67,7.63h1.22Z"/><path class="g" d="M175.36,180.73h-8.59c-1.83,0-3.14,.04-4.42,.17,.24-1.26,.38-2.4,.53-4.1l.77-8.76c.14-1.61,.2-2.75,.17-3.92,1.21,.13,2.69,.17,4.95,.17h21.32c2.4,0,3.88-.04,4.98-.17-.23,1.13-.37,2.22-.52,3.92l-.77,8.76c-.16,1.79-.21,2.92-.18,4.1-1.3-.13-2.56-.17-4.39-.17h-7.28l-.38,4.36h8.46c2.62,0,3.71-.04,4.99-.22l-.56,6.45c-1.42-.17-2.86-.22-4.95-.22h-8.46l-.47,5.36c1.9,.17,4.77,.3,6.99,.3,3.1,0,5.94-.13,9.49-.39-1.23,2.62-1.76,4.14-2.25,6.84-2.62,.09-5.33,.17-7.43,.17-6.54,0-11.28-.61-14.14-1.79-2.69-1.13-5.36-3.49-6.91-6.19-2.07,3.75-3.66,5.97-6.25,8.63-1.64-2.22-2.75-3.4-4.71-4.93,2.38-2.27,2.96-2.88,4.22-4.88,2.56-3.88,4.46-8.68,4.81-12.16l6.61,1.22c-.18,.61-.35,1-.74,2.44-.3,.96-.49,1.57-.84,2.62,1.1,2.92,2.43,4.67,4.73,6.19l1.21-13.82Zm-5.29-10.33l-.4,4.53h17.66l.4-4.53h-17.66Z"/><path class="g" d="M237.55,189.54c-.43,.44-.81,.83-1.78,1.92-1.83,2-3.44,3.4-5.67,4.97,3,.61,5.47,.79,10.79,.79-1.24,2.27-2.01,4.1-2.91,6.84-6.76-.52-11.12-1.44-15.66-3.4-4.52,1.83-7.81,2.62-14.29,3.36-.32-2.79-.58-3.79-1.45-5.84-.99,2.35-1.62,3.53-3.12,5.8-1.48-2.53-2.57-4.01-4.49-5.93,3.37-5.58,4.45-10.51,5.84-26.42,.26-2.92,.35-4.49,.37-6.23,1.69,.17,3.29,.22,5.39,.22h10.25l.06-.65c.08-.87,.04-1.48-.03-2.18h7.15c-.19,.65-.28,1.26-.37,2.27l-.05,.57h9.72c2.62,0,4.28-.09,5.73-.26l-.54,6.15c-1.47-.09-2.43-.13-4.52-.13h-2.13c-.11,.74-.12,.92-.2,1.79h3.01c1.7,0,2.53-.04,3.81-.17l-.5,5.75c-1.03-.13-1.73-.17-3.69-.17h-3.1l-.29,3.31c-.11,1.22-.14,2.14-.12,2.92h-.57c-.35-.04-.91-.04-2.22-.04h-14.56c-1.09,0-2.05,0-2.88,.04,.15-.74,.29-1.79,.39-2.92l.29-3.31h-4.45c-.98,9.2-2.02,14.12-3.99,19.18,3.89-.09,6.35-.35,9.15-.92q-1.06-.87-3.89-3.4l4.74-1.92h-1.92c-1.87,0-3.36,.04-4.54,.13l.48-5.45c1.25,.13,2.47,.17,4.95,.17h14.73c2.14,0,3.1-.04,4.24-.13l2.85,3.31Zm-21.89-16.39c.07-.78,.09-1.05,.11-1.79h-4.36l-.16,1.79h4.4Zm3.49,18.35c1.09,1.05,2.36,1.88,4.21,2.75,1.65-.87,2.43-1.39,3.99-2.75h-8.2Zm2.39-11.42h6.97l.16-1.88h-6.97l-.16,1.88Zm7.58-6.93c.07-.83,.09-1.09,.11-1.79h-6.89q-.15,1.18-.2,1.79h6.98Z"/></g><g><path class="g" d="M271.38,205.31c.55,2.11,1.02,3.07,1.84,4.13,1.81,2.31,4.63,3.55,8.27,3.55,5.1,0,9.41-2.4,12.23-6.73,1.99-3.07,3.1-6.53,4.19-13.07-5.33,4.9-10.69,6.92-18.71,6.92-16.41,0-26.21-10.47-24.87-26.61,1.41-17.01,14.77-28.63,32.82-28.63,11.58,0,20.37,5,25.07,14.22,3.22,6.24,4.47,15.37,3.59,25.94-.85,10.18-3.45,19.6-7.43,26.9-3.76,6.92-10.05,12.39-16.71,14.6-3.75,1.25-8.28,2.02-12.38,2.02-8.66,0-15.47-2.5-20.44-7.49-2.85-2.98-4.19-5.57-6.07-11.43l18.59-4.32Zm26.42-32.76c.6-7.21-4.27-12.2-11.84-12.2s-13.18,5-13.78,12.3c-.61,7.4,3.9,12.3,11.38,12.3,7.84,0,13.63-5,14.25-12.39Z"/><path class="g" d="M337.82,202.23c.28,3.17,.72,4.52,2.04,6.15,2.24,2.69,5.76,4.13,10.14,4.13,7.11,0,11.89-3.75,12.37-9.61,.33-3.94-1.24-7.01-4.24-8.26-2.03-.77-4.82-1.25-8.37-1.25s-7.67,.19-11.26,.58l1.37-16.53c3.07,.38,6.06,.58,9.61,.58,8.66,0,13.2-3.07,13.71-9.22,.43-5.19-2.79-8.17-8.8-8.17-6.47,0-9.98,2.69-11.86,8.84l-19.44-2.98c2.23-5.96,3.92-8.84,7.12-12.2,6.09-6.34,14.75-9.61,25.87-9.61,9.94,0,17.9,2.88,22.66,8.17,3.08,3.55,4.43,8.17,3.97,13.64-.84,10.18-6.57,16.52-17.27,19.12,5.49,.86,8.38,2.21,11.34,5.09,3.53,3.65,5.3,8.65,4.84,14.22-.41,4.9-2.06,9.42-4.71,12.78-2.24,2.88-5.66,5.57-9.17,7.21-4.93,2.31-12.43,3.75-19.27,3.75-8.2,0-16.24-2.02-20.79-5.38-3.95-2.88-6.79-7.11-8.36-12.39-.44-1.35-.7-2.59-1.13-5.09l19.62-3.56Z"/><path class="g" d="M388.67,195.95c-2.3-2.59-3.31-6.81-2.88-11.98,.43-5.17,2.13-9.33,4.94-12.05,2.66-2.52,6.26-3.88,10.33-3.88s7.51,1.36,9.69,3.88c2.36,2.72,3.31,6.81,2.88,11.98-.44,5.31-2.14,9.46-4.95,12.12-2.6,2.52-6.26,3.88-10.27,3.88s-7.44-1.36-9.75-3.95Zm47.72-28.59l3.2,2.72-46.89,57.59-3.13-2.72,46.83-57.6Zm-41.61,16.54c-.47,5.72,.96,8.71,4.25,8.71s5.15-2.93,5.63-8.71c.47-5.65-.97-8.51-4.2-8.51s-5.22,2.93-5.68,8.51Zm23.63,39.08c-2.3-2.59-3.31-6.81-2.88-12.05,.42-5.11,2.12-9.26,4.93-11.98,2.66-2.52,6.26-3.88,10.4-3.88,8.78,0,13.4,5.86,12.57,15.86-.43,5.24-2.14,9.46-4.95,12.12-2.6,2.52-6.26,3.88-10.33,3.88s-7.44-1.36-9.75-3.95Zm6.12-12.19c-.49,5.86,.94,8.85,4.24,8.85s5.22-2.93,5.71-8.85c.46-5.51-.98-8.37-4.21-8.37s-5.28,2.86-5.73,8.37Z"/></g><path class="i" d="M409.04,147.16l.58,.66-7.73,7.15,6.48,7.11-.7,.66-6.49-7.05-7.7,7.05-.6-.66,7.73-7.11-6.48-7.15,.72-.66,6.47,7.11,7.73-7.11Zm-11.99,7.79c-.08,.86-.82,1.54-1.66,1.54s-1.48-.7-1.41-1.54,.81-1.52,1.67-1.52,1.46,.68,1.39,1.52Zm5.21,5.85c-.07,.84-.83,1.54-1.66,1.54s-1.48-.74-1.41-1.54c.07-.76,.86-1.54,1.54-1.54h.06s.02,.02,.04,.02l.04-.02c.84,0,1.46,.68,1.39,1.54Zm1.04-11.63c-.08,.86-.82,1.54-1.66,1.54s-1.48-.7-1.41-1.54c.07-.84,.83-1.52,1.68-1.52s1.46,.68,1.39,1.52Zm5.2,5.81c-.07,.84-.81,1.52-1.66,1.52s-1.46-.68-1.39-1.52c.07-.84,.81-1.52,1.65-1.52s1.46,.68,1.39,1.52Z"/><g><path class="i" d="M38.66,217.8l.42,.53-5.67,5.7,4.68,5.67-.51,.53-4.68-5.62-5.65,5.62-.44-.53,5.67-5.67-4.67-5.7,.53-.53,4.66,5.67,5.67-5.67Zm-8.78,6.21c-.06,.69-.6,1.23-1.21,1.23s-1.07-.56-1.01-1.23c.06-.67,.6-1.21,1.23-1.21s1.06,.54,1,1.21Zm3.76,4.66c-.06,.67-.62,1.23-1.21,1.23s-1.07-.59-1.01-1.23c.05-.61,.63-1.23,1.13-1.23h.04s.01,.02,.03,.02l.03-.02c.61,0,1.06,.54,1,1.23Zm.83-9.27c-.06,.69-.6,1.23-1.21,1.23s-1.07-.56-1.01-1.23,.62-1.21,1.23-1.21,1.06,.54,1,1.21Zm3.75,4.63c-.06,.67-.6,1.21-1.21,1.21s-1.06-.54-1-1.21c.06-.67,.6-1.21,1.21-1.21s1.06,.54,1,1.21Z"/><path class="i" d="M41.66,229.99c-.92,0-1.14,.02-1.61,.08,.27-1.26,.33-1.5,.61-2.11,.45-1.01,1.14-1.88,2.13-2.75,.55-.48,.58-.5,2.38-1.76,1.54-1.07,2.08-1.77,2.16-2.75,.11-1.21-.76-2-2.24-2-.96,0-1.71,.35-2.2,1.04-.31,.43-.48,.81-.65,1.61l-1.21-.22c.32-1.15,.59-1.71,1.12-2.3,.73-.81,1.75-1.23,3.04-1.23,2.2,0,3.51,1.21,3.34,3.1-.07,.81-.43,1.58-1.06,2.27-.49,.54-.89,.85-2.66,2.06-1.23,.85-1.73,1.29-2.27,1.96-.51,.66-.75,1.08-.99,1.85h4.65c.73,0,1.23-.03,1.79-.11l-.12,1.34c-.58-.06-1.06-.1-1.78-.1h-4.43Z"/><path class="i" d="M50.7,229.1c-.36-.43-.62-.92-.75-1.47-.27-1.12-.35-2.38-.23-3.69,.15-1.69,.63-3.42,1.23-4.34,.81-1.29,1.99-1.96,3.44-1.96,1.08,0,1.98,.38,2.57,1.13,.37,.45,.62,.94,.75,1.47,.27,1.1,.35,2.38,.23,3.7-.17,1.93-.7,3.64-1.42,4.61-.83,1.12-1.9,1.67-3.24,1.67-1.08,0-1.95-.38-2.57-1.13Zm1.68-9.54c-.34,.37-.61,.77-.76,1.17-.39,.97-.63,2.06-.73,3.22-.13,1.48,.03,3.05,.35,3.8,.43,.93,1.15,1.39,2.14,1.39,.73,0,1.38-.26,1.86-.75,.35-.37,.62-.78,.79-1.25,.39-.99,.63-2.04,.73-3.22,.12-1.39-.02-2.97-.33-3.72-.4-.96-1.14-1.45-2.16-1.45-.76,0-1.38,.27-1.89,.81Z"/><path class="i" d="M60.28,229.99c-.92,0-1.14,.02-1.61,.08,.27-1.26,.33-1.5,.61-2.11,.45-1.01,1.14-1.88,2.13-2.75,.55-.48,.58-.5,2.38-1.76,1.54-1.07,2.08-1.77,2.16-2.75,.11-1.21-.76-2-2.24-2-.96,0-1.71,.35-2.2,1.04-.31,.43-.48,.81-.65,1.61l-1.21-.22c.32-1.15,.59-1.71,1.12-2.3,.73-.81,1.75-1.23,3.04-1.23,2.2,0,3.51,1.21,3.34,3.1-.07,.81-.43,1.58-1.06,2.27-.49,.54-.89,.85-2.66,2.06-1.23,.85-1.73,1.29-2.27,1.96-.51,.66-.75,1.08-.99,1.85h4.65c.73,0,1.23-.03,1.79-.11l-.12,1.34c-.58-.06-1.06-.1-1.78-.1h-4.43Z"/><path class="i" d="M69.72,229.99c-.92,0-1.14,.02-1.61,.08,.27-1.26,.33-1.5,.61-2.11,.45-1.01,1.14-1.88,2.13-2.75,.55-.48,.58-.5,2.38-1.76,1.54-1.07,2.08-1.77,2.16-2.75,.11-1.21-.76-2-2.24-2-.96,0-1.71,.35-2.2,1.04-.31,.43-.48,.81-.65,1.61l-1.21-.22c.32-1.15,.59-1.71,1.12-2.3,.73-.81,1.75-1.23,3.04-1.23,2.2,0,3.51,1.21,3.34,3.1-.07,.81-.43,1.58-1.06,2.27-.49,.54-.89,.85-2.66,2.06-1.23,.85-1.73,1.29-2.27,1.96-.51,.66-.75,1.08-.99,1.85h4.65c.73,0,1.23-.03,1.79-.11l-.12,1.34c-.58-.06-1.06-.1-1.78-.1h-4.43Z"/><path class="i" d="M80.42,223.1c.03-.35,.04-.62,.04-.94,.3,.03,.62,.05,1.03,.05h3.16l.23-2.6h-3.42c-.86,1.36-1.64,2.3-2.7,3.26-.2-.37-.33-.53-.63-.77,1.56-1.34,2.45-2.51,3.29-4.29,.23-.46,.36-.83,.47-1.17l1.01,.32c-.07,.13-.12,.24-.23,.43l-.67,1.29h7.23c.64,0,.95-.02,1.32-.08l-.09,1.08c-.36-.06-.71-.08-1.3-.08h-3.29l-.23,2.6h2.64c.6,0,.92-.02,1.3-.08l-.09,1.05c-.37-.05-.72-.06-1.28-.06h-2.65l-.27,3.13h3.67c.66,0,1.07-.03,1.48-.1l-.1,1.15c-.42-.06-.87-.1-1.46-.1h-3.67l-.23,2.63c-.06,.69-.06,1.07-.03,1.48h-1.15c.11-.4,.15-.75,.22-1.48l.23-2.63h-5.26c-.6,0-1.05,.03-1.48,.1l.1-1.15c.42,.06,.82,.1,1.46,.1h1.11l.28-3.14Zm3.88,3.14l.27-3.13h-3.21l-.27,3.13h3.21Z"/><path class="i" d="M93.11,227.04c.16,.83,.34,1.17,.76,1.52,.46,.38,1.09,.57,1.83,.57,1.69,0,2.84-.96,2.97-2.47,.14-1.58-.82-2.44-2.76-2.44-.41,0-.77,.03-1.17,.08l.11-1.26c.33,.06,.68,.1,1.07,.1,.96,0,1.7-.24,2.19-.73,.4-.38,.67-.97,.72-1.55,.12-1.37-.68-2.17-2.16-2.17-.89,0-1.55,.27-2.01,.85-.23,.29-.35,.54-.56,1.13l-1.18-.29c.32-.81,.53-1.18,.93-1.6,.71-.77,1.73-1.17,3-1.17,2.11,0,3.35,1.21,3.18,3.13-.09,.97-.54,1.83-1.22,2.33-.41,.3-.74,.43-1.42,.58,.84,.1,1.27,.27,1.73,.69,.59,.54,.85,1.39,.77,2.41-.19,2.16-1.82,3.5-4.26,3.5-1.47,0-2.53-.45-3.15-1.31-.27-.38-.42-.74-.61-1.55l1.25-.33Z"/><path class="i" d="M103.96,226.02c-.21,.93-.47,1.72-.81,2.47-.47,1.05-.94,1.76-1.85,2.78-.23-.37-.41-.59-.73-.85,.99-.99,1.53-1.84,1.99-3.13,.54-1.52,.87-3.48,1.18-7.02,.13-1.47,.17-2.11,.18-2.71,.52,.06,.9,.08,1.52,.08h5.48c.64,0,1.02-.02,1.52-.08-.08,.43-.13,.83-.2,1.64l-.92,10.5c-.05,.57-.21,.91-.51,1.12-.25,.16-.53,.21-1.18,.21-.48,0-1.09-.02-1.74-.06,0-.42-.04-.67-.14-1.09,.72,.11,1.37,.16,2.07,.16,.42,0,.55-.1,.58-.5l.31-3.53h-6.76Zm6.85-.96l.25-2.84h-6.5c-.09,.88-.17,1.48-.41,2.84h6.66Zm.33-3.8l.23-2.65h-6.48l-.21,2.27-.03,.38h6.5Z"/><path class="i" d="M120.96,221.09q-.07,.29-.16,1.12c-.28,2.67-.82,4.25-1.93,5.62-1,1.23-2.15,2.03-3.97,2.76-.17-.51-.26-.67-.58-1.07,1.21-.38,1.98-.78,2.8-1.47,1.66-1.36,2.37-2.99,2.65-6.1,.04-.45,.03-.56,.02-.86h1.18Zm5.93-2.01c-.16,.21-.2,.26-.41,.64-1.19,2.14-2.68,3.59-4.65,4.55-.18-.4-.29-.54-.63-.91,1.06-.43,1.69-.81,2.44-1.52,.73-.69,1.34-1.47,1.84-2.38h-8.28c-.8,0-1.18,.02-1.73,.08l.11-1.23c.49,.08,.89,.11,1.72,.11h7.83q.98,0,1.25-.11l.52,.77Z"/><path class="i" d="M128.26,228.7c1.14-.05,2.93-.54,4.35-1.23,2.93-1.37,5.09-3.72,6.57-7.1,.29,.5,.43,.64,.81,.94-1.41,2.78-2.93,4.65-4.98,6.1-1.6,1.12-3.16,1.77-5.64,2.38-.4,.1-.52,.13-.9,.26l-.2-1.34Zm1.8-9.89c1.46,1.08,2.3,1.87,3.25,3l-.84,.99c-.94-1.25-2-2.28-3.19-3.13l.79-.86Z"/><path class="i" d="M149.82,221.32c-.37,2.35-.61,3.3-1.18,4.48-.64,1.31-1.57,2.43-2.79,3.35-.66,.49-1.25,.85-2.37,1.42-.16-.49-.27-.69-.62-1.02,1.31-.53,2.28-1.13,3.26-2.07,1.46-1.41,2.23-3.19,2.62-6.16h-4.02c-.96,1.45-1.69,2.33-2.83,3.38-.23-.37-.35-.48-.79-.75,1.44-1.16,2.52-2.52,3.5-4.4,.53-1.02,.77-1.58,.94-2.24l1.07,.38c-.16,.29-.21,.37-.44,.88-.41,.85-.71,1.44-.91,1.74q.23-.02,6.78-.02c.92,0,1.2-.02,1.8-.1l-.1,1.17q-.39-.03-1.8-.05h-2.11Z"/><path class="i" d="M154.84,223.3c.42,.08,.81,.1,1.8,.1h8.47c1.08,0,1.31-.02,1.77-.08l-.11,1.29c-.46-.05-.8-.06-1.77-.06h-8.45c-1.06,0-1.37,.02-1.81,.06l.11-1.31Z"/><path class="i" d="M169.88,230.58c.1-.43,.16-.81,.23-1.68l.87-9.91c.07-.85,.08-1.23,.06-1.63h1.25c-.09,.42-.14,.75-.22,1.66l-.26,2.99c2.17,.88,3.78,1.75,6.19,3.37l-.73,1.18c-1.28-1.05-3.19-2.23-5.16-3.16-.21-.1-.31-.16-.43-.27l-.03,.02c.02,.32,.01,.54-.02,.94l-.42,4.8c-.08,.89-.1,1.24-.08,1.69h-1.25Z"/><path class="i" d="M180.1,231.2c.08-.46,.16-1.02,.21-1.55l.19-2.14c.04-.51,.06-.86,.06-1.31,.24,.05,.42,.06,.93,.06h2l.38-.02h.19c.07,0,.15,0,.31-.02-.05,.25-.09,.51-.15,1.23l-.16,1.85c-.04,.46-.05,.77-.06,.97-.16-.02-.44-.03-.81-.03h-2.08l-.08,.94h-.9Zm.58-11.62c.36,.06,.6,.08,1.16,.08h2.36c.6,0,.86-.02,1.17-.08l-.09,1.04c-.3-.05-.53-.06-1.06-.06h-2.46c-.51,0-.83,.02-1.17,.06l.09-1.04Zm.09,4.45c.27,.05,.47,.06,.99,.06h1.85c.5,0,.7-.02,.98-.06l-.09,.99c-.3-.05-.53-.06-.97-.06h-1.87c-.44,0-.72,.02-.98,.06l.09-.99Zm.19-2.19c.26,.05,.52,.06,.99,.06h1.87c.47,0,.69-.02,.97-.06l-.09,.99c-.32-.05-.52-.06-.96-.06h-1.87c-.47,0-.7,.02-1,.06l.09-.99Zm.18,7.58h2.1l.21-2.35h-2.1l-.21,2.35Zm.24-12.05c.31,.06,.53,.08,1.04,.08h1.76c.5,0,.73-.02,1.06-.08l-.09,1c-.29-.05-.62-.06-1.04-.06h-1.76c-.44,0-.73,.02-1.05,.06l.09-1Zm10.99,12.43c-.04,.48-.2,.83-.47,1-.22,.14-.57,.21-1.17,.21-.32,0-.51-.02-1.39-.08,0-.43,0-.59-.1-1.02,.7,.13,1.18,.18,1.7,.18,.42,0,.53-.1,.57-.48l.99-11.3h-5.44l-.16,1.87c-.31,3.51-.67,6.29-1.04,7.92-.29,1.29-.67,2.3-1.2,3.19-.22-.37-.31-.46-.68-.7,.56-.94,.83-1.64,1.11-3.05,.35-1.66,.69-4.34,.97-7.61,.13-1.5,.15-1.88,.13-2.54,.39,.05,.71,.06,1.41,.06h4.49c.73,0,1.04-.02,1.42-.06-.08,.42-.13,.83-.2,1.56l-.95,10.85Zm-1.72-2.04c-.03,.38-.04,.62-.03,.86-.04-.02-.09-.02-.1-.02,0,0-.09,0-.19,.02h-.06q-.1,0-.68-.05h-1.84l-.09,1.05h-.84c.07-.29,.12-.65,.16-1.21l.24-2.75c.04-.43,.05-.73,.05-1.04,.3,.03,.58,.05,1,.05h1.66c.5,0,.79-.02,1.04-.05-.05,.29-.09,.56-.13,.99l-.19,2.14Zm-2.28-6.75c-.42,0-.7,.02-1.04,.06l.08-.93c.37,.06,.65,.08,1.01,.08h.73l.02-.22c.05-.59,.06-.88,.04-1.24h.92c-.09,.35-.13,.65-.18,1.26l-.02,.21h.76c.45,0,.71-.02,1.07-.08l-.08,.93c-.3-.05-.56-.06-1.06-.06h-.76l-.15,1.71h.96c.48,0,.73-.02,1.04-.08l-.08,.96c-.31-.06-.53-.08-1.01-.08h-2.67c-.44,0-.67,.02-1,.08l.08-.96c.3,.06,.55,.08,.98,.08h.92l.15-1.71h-.71Zm-.55,6.75h2.05l.2-2.28h-2.05l-.2,2.28Z"/><path class="i" d="M197.19,224.4c.06-.67,.08-1.09,.08-1.61,.39,.03,.85,.05,1.51,.05h4.9c.67,0,1.18-.02,1.62-.05-.07,.49-.14,1.05-.2,1.79l-.45,5.17h1.03c.71,0,1.11-.03,1.51-.1l-.09,1.08c-.42-.06-.9-.1-1.54-.1h-9.85c-.66,0-1.12,.03-1.55,.1l.09-1.08c.37,.08,.79,.1,1.51,.1h.96l.47-5.35Zm3.96-6.3c.05-.54,.05-.88,.02-1.28h1.08c-.11,.37-.15,.7-.2,1.26l-.03,.38h4.43c.63,0,1.08-.03,1.49-.1l-.09,1.07c-.46-.06-.88-.1-1.48-.1h-3.67c1.34,1.71,3.02,2.76,5.4,3.42-.28,.35-.35,.46-.63,1-1.31-.51-2.15-.94-3.08-1.61-1.11-.78-1.85-1.53-2.53-2.62-.01,.46-.03,.8-.05,1.02l-.07,.78c-.04,.42-.05,.72,0,1.02h-1.05c.07-.29,.13-.62,.16-1.04l.07-.77c.03-.29,.07-.62,.12-.99-1.44,1.77-3.47,3.21-5.96,4.18-.13-.37-.25-.61-.48-.89,2.11-.69,4.24-2.01,5.64-3.51h-3.4c-.58,0-1.01,.03-1.47,.1l.09-1.07c.36,.06,.84,.1,1.49,.1h4.14l.03-.37Zm-3.53,11.65h6.12l.13-1.48h-6.12l-.13,1.48Zm.21-2.35h6.12l.12-1.4h-6.12l-.12,1.4Zm.2-2.27h6.12l.12-1.42h-6.12l-.12,1.42Z"/><path class="i" d="M210.69,225.9c-.41,2.2-.67,3.18-1.24,4.47l-.76-.43c.62-1.31,.86-2.16,1.19-4.25l.81,.21Zm-1.54-2.11c.27,.03,.56,.05,.87,.05h.35c.51-.64,.72-.93,1.1-1.45-.75-1.12-1.13-1.61-1.9-2.44l.62-.73c.25,.3,.34,.43,.5,.62,.89-1.31,1.48-2.41,1.67-3.13l.88,.42c-.15,.19-.2,.29-.36,.57-.61,1.13-.96,1.69-1.71,2.76q.4,.54,.83,1.17c1.26-1.88,1.38-2.09,1.66-2.76l.81,.56q-.28,.37-1.1,1.56c-.57,.85-1.38,1.96-2.07,2.81,.89-.03,1.55-.1,2.29-.19-.14-.53-.23-.75-.46-1.29l.72-.37c.42,1.02,.62,1.63,.91,2.9l-.79,.38c-.07-.4-.1-.54-.16-.83-.49,.08-.64,.1-1.4,.16l-.45,5.11c-.06,.7-.07,1.12-.05,1.6h-1.03c.1-.48,.17-.93,.23-1.6l.44-5.03c-.63,.05-1.11,.08-1.47,.1-.46,.03-.63,.05-.9,.08l-.04-1.02Zm4.62,1.85c.18,1.07,.28,2.01,.35,3.53l-.82,.26c.02-1.42-.04-2.35-.26-3.54l.73-.24Zm1.83,5.57h-.98c.09-.37,.14-.8,.21-1.52l.27-3.11c.06-.67,.07-1,.07-1.45,.32,.05,.66,.06,1.12,.06h3.94c.54,0,.86-.02,1.17-.06-.08,.38-.13,.78-.19,1.48l-.27,3.05c-.05,.61-.07,1.18-.06,1.55h-.99l.08-.89h-4.28l-.08,.89Zm.81-11.04c-.61,0-1.05,.03-1.48,.1l.09-1.08c.4,.06,.82,.1,1.46,.1h1.78l.1-1.1c.04-.51,.05-.88,.03-1.29h1.06c-.09,.4-.15,.77-.2,1.32l-.09,1.07h2.1c.64,0,1.07-.03,1.48-.1l-.09,1.08c-.4-.06-.9-.1-1.46-.1h-2.1l-.22,2.47h1.71c.64,0,1.08-.03,1.48-.1l-.1,1.09c-.42-.06-.85-.1-1.45-.1h-3.94c-.55,0-1.05,.03-1.47,.1l.1-1.09c.4,.06,.82,.1,1.45,.1h1.33l.22-2.47h-1.78Zm-.65,9.26h4.28l.29-3.32h-4.28l-.29,3.32Z"/><path class="i" d="M226.81,223.59c-.89,0-1.33,.02-1.74,.1,.1-.5,.14-.81,.23-1.76l.24-2.76c.08-.94,.09-1.2,.08-1.74,.36,.08,.79,.1,1.65,.1h6.47c.92,0,1.3-.02,1.71-.1-.1,.5-.12,.75-.21,1.76l-.24,2.75c-.09,1-.11,1.26-.1,1.76-.4-.08-.82-.1-1.71-.1h-2.9l-.13,1.45h4.65c.66,0,1.04-.03,1.51-.11l-.1,1.12c-.47-.06-.88-.09-1.49-.09h-4.08c.61,.83,1.13,1.37,1.91,1.98,1.09,.81,2.25,1.4,3.53,1.79-.29,.38-.43,.62-.61,1.01-1.36-.56-2.5-1.21-3.45-2.01-.81-.69-1.27-1.2-2.03-2.3-.04,.8-.04,.96-.07,1.26l-.16,1.87c-.07,.86-.09,1.25-.05,1.74h-1.09c.12-.51,.18-.91,.25-1.74l.16-1.85c.03-.32,.08-.75,.14-1.23-1.6,1.93-3.47,3.32-5.85,4.36-.15-.4-.29-.65-.52-.94,1.07-.37,2.2-.96,3.17-1.61,1.1-.75,1.81-1.39,2.56-2.31h-3.79c-.6,0-1.01,.03-1.45,.09l.1-1.12c.4,.08,.78,.11,1.43,.11h4.43l.13-1.45h-2.59Zm-.53-2.62l-.15,1.76h3.35l.15-1.76h-3.35Zm.22-2.57l-.15,1.72h3.35l.15-1.72h-3.35Zm3.86,4.33h3.64l.15-1.76h-3.64l-.15,1.76Zm.23-2.6h3.64l.15-1.72h-3.64l-.15,1.72Z"/></g></g><g><g><g><path class="e" d="M59.61,93.27c0,4.14,1.79,5.43,6.66,5.43h10.91c3.24-.06,9.56-.67,12.64-1.29l.34,8.61c-2.8,.45-9.17,.78-12.3,.78h-11.91c-10.4,0-14.93-4.19-14.93-13.59V60.94l10.46,.45c-.06,.67-.5,1.23-1.85,1.4v15.83c6.54-2.24,16.56-6.38,22.76-9.9l5.59,7.94c-.28,.17-.61,.22-1.01,.22-.34,0-.67-.06-.95-.11-4.7,2.24-16.95,7.16-26.4,9.79v6.71Zm25.39-24.11c-1.12-2.01-4.03-5.93-5.76-7.72l3.64-2.74c2.13,2.01,4.7,5.48,6.04,7.55l-3.91,2.91Zm8.33-2.52c-1.17-1.96-4.14-5.65-5.82-7.49l3.58-2.8c2.13,2.07,4.87,5.31,6.15,7.38l-3.91,2.91Z"/><path class="e" d="M105.93,73.98c1.51,3.3,3.13,8.39,3.86,11.75l-6.49,1.85c-.73-3.58-2.18-8.39-3.69-11.8l6.32-1.79Zm32.16,1.73c-.17,.45-.73,.84-1.51,.78-4.64,16.56-13.59,26.18-25.9,31.21-.89-1.4-3.08-4.03-4.64-5.31,11.3-4.08,20.08-12.86,23.66-29.42l8.39,2.74Zm-18.91-3.92c1.17,3.24,2.29,8.61,2.74,12.14l-6.88,1.45c-.45-3.75-1.62-8.84-2.74-12.25l6.88-1.34Z"/><path class="e" d="M189.33,72.3c-.22,.5-.89,.89-1.4,1.17-6.82,19.58-15.33,29.08-29.31,36.13-1.4-1.9-3.92-4.81-6.38-6.54,12.7-5.87,20.25-13.7,24.61-26.4h-13.98c-2.63,3.92-6.66,8.33-11.13,11.8-1.57-1.62-4.7-4.03-6.94-5.43,7.21-4.75,14.04-14.49,17.12-24.11l10.63,2.35c-.22,.67-1.01,1.06-1.9,1.12-.84,1.79-2.18,4.64-3.02,6.32h13.42l1.23-.56,7.05,4.14Zm-9.23-14.65c2.4,1.79,5.37,4.92,6.99,6.88l-3.69,3.3c-1.34-1.9-4.81-5.43-6.77-7.05l3.47-3.13Zm9.28-1.4c2.35,1.85,5.31,4.75,6.88,6.82l-3.75,3.19c-1.17-1.68-4.42-5.09-6.6-6.94l3.47-3.08Z"/><path class="e" d="M238.27,66.59v38.09h-8.73v-3.02h-23.49v3.08h-8.5v-38.15h40.72Zm-8.78,27.18v-19.3h-23.49v19.3h23.49Z"/><path class="e" d="M243.76,79.01h46.7v8.5h-44.24c-.39,.56-1.18,.95-2.01,1.06l-.45-9.56Z"/><path class="e" d="M328.39,56.97c2.18,1.9,4.98,5.03,6.38,7.1l-1.57,1.23,6.54,3.13c-.28,.45-.73,.9-1.29,1.12-5.26,20.86-14.37,32.44-32.78,39.82-1.57-2.29-4.14-5.31-5.87-7.05,17.06-5.93,25.11-16.78,27.74-28.47h-31.32v-8.05h33.84c-1.4-1.96-3.69-4.75-5.26-6.26l3.58-2.57Zm12.47,9.4c-1.17-1.9-4.31-5.48-6.15-7.27l3.52-2.85c2.24,1.9,5.03,5.09,6.43,7.16l-3.8,2.96Z"/></g><path class="h" d="M380.03,82.65c-.34,.75-1.07,1.22-2.35,1.42-4.89,11.66-9.82,21.97-29.71,27.87-.31-2.65-1.95-6.65-3.57-8.68,17.08-4.27,20.16-11.73,23.66-21.77l11.96,1.15Zm11.74,16.68c-.69,2.58-.51,2.92,1.46,2.92h4.75c1.97,0,2.69-1.42,5.44-10.44,1.6,1.63,5.48,3.32,7.88,4-4.24,12.27-7.59,15.66-14.91,15.66h-7.19c-8.54,0-9.83-3.05-7.41-12.07l4.96-18.51h-34.38l2.49-9.29h25.49l6.5-24.27,11.97,.61c-.29,.81-1.02,1.29-2.5,1.49l-5.94,22.17h26.17l-2.49,9.29h-16.2c-.31,.14-.75,.27-1.24,.34l-4.85,18.1Zm-17.76-49.36c1.55,5.09,2.96,11.73,2.83,16.27l-10.66,3.86c.3-4.41-.68-11.39-1.95-16.75l9.79-3.39Zm22.69,16.27c3.96-4.41,8.9-11.19,12.05-16.61l10.26,4.48c-.5,.61-1.39,.88-2.54,.88-3.26,4.81-8.5,10.98-12.29,14.98l-7.48-3.73Z"/></g><g><g><path class="i" d="M134.34,17.97c0-.59-.05-1.04-.14-1.54h2.44c-.1,.5-.12,.97-.12,1.54v.36h7.16c1.02,0,1.68-.05,2.42-.14v2.06c-.78-.09-1.38-.12-2.42-.12h-16.19c-1.02,0-1.61,.02-2.39,.12v-2.06c.74,.09,1.42,.14,2.49,.14h6.75v-.36Zm-8.55,11.64c0-.78-.02-1.45-.09-2.13,.73,.07,1.4,.09,2.42,.09h15.07c1.16,0,1.71-.02,2.32-.09-.07,.76-.1,1.28-.1,2.11v6.14c0,1.02-.15,1.49-.58,1.82-.47,.33-1.04,.45-2.44,.45-.28,0-.92-.02-1.11-.02q-.76-.02-1.14-.05c-.05-.88-.14-1.33-.42-1.99,1.23,.12,2.11,.19,2.91,.19,.55,0,.66-.09,.66-.5v-6.33h-15.39v6.52c-.01,1.18,.01,1.68,.13,2.54h-2.39c.1-.54,.14-1.52,.15-2.54v-6.21Zm3.05-6.71c0-.76-.02-1.23-.07-1.75,.64,.07,1.19,.1,2.27,.1h9.43c.95,0,1.4-.02,2.06-.1-.05,.64-.07,.95-.07,1.75v1.83c0,1,0,1.23,.07,1.78-.69-.07-1.16-.09-2.2-.09h-9.38c-.92,0-1.45,.02-2.18,.09,.05-.5,.07-.95,.07-1.78v-1.83Zm11.67,10.88c0,.73,.02,1.14,.07,1.61-.5-.05-1.33-.07-2.06-.07h-5.97v1.23h-2.09c.1-.47,.12-1.07,.12-1.94v-2.63c0-.71-.02-1.14-.07-1.61,.54,.05,1.04,.07,1.92,.07h6.16c.88,0,1.37-.02,1.99-.07-.05,.45-.07,.81-.07,1.54v1.87Zm-9.64-9h9.55v-1.9h-9.55v1.9Zm1.67,8.96h6.04v-1.71h-6.04v1.71Z"/><path class="i" d="M148.37,25.71c.62,.09,.97,.12,1.87,.12h1.52c.71,0,1.23-.02,1.8-.12-.1,.73-.12,1.33-.12,2.56v4.86c1.27,2.01,2.53,2.54,6.13,2.54,4.69,0,8.15-.14,10.74-.47-.43,1.14-.48,1.28-.67,2.37-2.16,.09-4.95,.14-7.42,.14-3.91,0-5.52-.12-6.68-.47-1.35-.43-2.18-1.02-3.12-2.35-1.12,1.07-1.68,1.56-2.63,2.25-.38,.26-.69,.5-.97,.76l-1.02-2.23c1-.45,2.44-1.47,3.58-2.54v-5.38h-1.34c-.69,0-1.07,.02-1.66,.12v-2.16Zm1.74-8.82c1.66,1.52,2.6,2.56,3.95,4.27l-1.66,1.59c-1.25-1.75-2.22-2.89-3.86-4.41l1.57-1.45Zm6.56,3.74c-1,0-1.49,.02-2.16,.12v-2.11c.69,.12,1.28,.14,2.44,.14h3.77v-.64c0-.59-.04-1.16-.12-1.61h2.2c-.07,.47-.12,.95-.12,1.52v.73h4.5c1.21,0,1.71-.02,2.39-.14v2.11c-.67-.09-1.12-.12-2.09-.12h-4.81v1.54h3.65c.95,0,1.54-.02,2.25-.12-.07,.66-.1,1.16-.1,2.13v1.94c0,1.04,.02,1.56,.09,2.2-.57-.07-1.16-.1-2.3-.1h-2.58c.88,.85,1.28,1.19,2.04,1.71,1.37,.97,2.44,1.49,4.36,2.18-.57,.83-.71,1.07-1.09,1.97-1.78-.83-2.65-1.33-3.84-2.23-1.02-.78-1.59-1.33-2.56-2.49,.05,.52,.07,1.07,.07,1.9v1.85c0,.71,.02,1.18,.11,1.75h-2.2c.07-.52,.12-1.04,.12-1.75v-1.87c0-.71,0-.85,.08-1.8-1.52,1.8-2.99,2.96-5.55,4.38-.43-.81-.66-1.14-1.25-1.78,2.49-1.04,4.01-2.06,5.76-3.82h-2.25c-1.11,0-1.61,.02-2.3,.1,.07-.71,.1-1.26,.1-2.16v-1.9c0-.92-.02-1.49-.09-2.23,.73,.09,1.35,.12,2.32,.12h3.2v-1.54h-4.05Zm.61,3.34v2.51h3.43v-2.51h-3.43Zm5.4,2.51h3.77v-2.51h-3.76v2.51Z"/><path class="i" d="M179.25,27.37c0,1.35-1.12,2.46-2.47,2.46s-2.46-1.11-2.46-2.46c0-1.35,1.12-2.46,2.47-2.46s2.46,1.09,2.46,2.46Z"/><path class="i" d="M193.29,17.97c0-.59-.05-1.04-.14-1.54h2.44c-.1,.5-.12,.97-.12,1.54v.36h7.16c1.02,0,1.68-.05,2.42-.14v2.06c-.78-.09-1.38-.12-2.42-.12h-16.19c-1.02,0-1.61,.02-2.39,.12v-2.06c.74,.09,1.42,.14,2.49,.14h6.75v-.36Zm-8.55,11.64c0-.78-.02-1.45-.09-2.13,.73,.07,1.4,.09,2.42,.09h15.07c1.16,0,1.71-.02,2.32-.09-.07,.76-.1,1.28-.1,2.11v6.14c0,1.02-.15,1.49-.58,1.82-.47,.33-1.04,.45-2.44,.45-.28,0-.92-.02-1.11-.02q-.76-.02-1.14-.05c-.05-.88-.14-1.33-.42-1.99,1.23,.12,2.11,.19,2.91,.19,.55,0,.66-.09,.66-.5v-6.33h-15.39v6.52c-.01,1.18,.01,1.68,.13,2.54h-2.39c.1-.54,.14-1.52,.15-2.54v-6.21Zm3.05-6.71c0-.76-.02-1.23-.07-1.75,.64,.07,1.19,.1,2.27,.1h9.43c.95,0,1.4-.02,2.06-.1-.05,.64-.07,.95-.07,1.75v1.83c0,1,0,1.23,.07,1.78-.69-.07-1.16-.09-2.2-.09h-9.38c-.92,0-1.45,.02-2.18,.09,.05-.5,.07-.95,.07-1.78v-1.83Zm11.67,10.88c0,.73,.02,1.14,.07,1.61-.5-.05-1.33-.07-2.06-.07h-5.97v1.23h-2.09c.1-.47,.12-1.07,.12-1.94v-2.63c0-.71-.02-1.14-.07-1.61,.54,.05,1.04,.07,1.92,.07h6.16c.88,0,1.37-.02,1.99-.07-.05,.45-.07,.81-.07,1.54v1.87Zm-9.64-9h9.55v-1.9h-9.55v1.9Zm1.67,8.96h6.04v-1.71h-6.04v1.71Z"/><path class="i" d="M207.42,29.79c0-.88-.02-1.59-.09-2.28,.71,.07,1.3,.09,2.25,.09h4.91c.73,0,1.26-.02,1.85-.07-.07,.5-.07,.9-.07,2.13v5.97c0,1.02,.01,1.68,.08,2.2h-2.16v-.92h-4.69v1.35h-2.21c.1-.66,.12-1.3,.12-2.54v-5.95Zm2.09,5.24h4.69v-5.52h-4.68v5.52Zm1.17-15.73c0-.83-.02-1.4-.09-2.06,.73,.09,1.37,.12,2.68,.12h8.46c1.35,0,2.04-.02,2.68-.12-.07,.64-.1,1.16-.1,2.06v4.22c0,.92,.02,1.54,.09,2.16-.71-.07-1.23-.1-2.46-.1h-8.89c-1.18,0-1.8,.02-2.46,.1,.07-.64,.1-1.3,.1-2.13v-4.24Zm2.11,4.36h9.36v-4.36h-9.35v4.36Zm5.46,5.85c0-1.07-.02-1.45-.07-1.97,.57,.05,1.09,.07,1.85,.07h5.54c.97,0,1.52-.02,2.08-.09-.07,.66-.1,1.28-.1,2.28v5.97c0,1.3,.01,1.92,.11,2.51h-2.23v-1.35h-5.14v1.35h-2.16c.07-.64,.1-1.21,.1-2.2v-6.56Zm2.06,5.52h5.17v-5.52h-5.16v5.52Z"/><path class="i" d="M233.45,21.71c-.17,1.11-.33,1.71-.76,2.58-.4,.83-.62,1.16-1.35,2.01-.62-.76-.92-1.07-1.66-1.66,1.42-1.35,2-3.03,2-5.88,0-.36-.05-1.04-.12-1.4,.21,.02,.38,.02,.5,.02,1.04,0,2.94-.14,4-.31,1.23-.21,2.02-.43,3.01-.88l1.3,1.66c-2.51,.71-3.48,.88-6.71,1.09,0,.45-.02,.59-.03,.97h4.91c.81,0,1.33-.02,1.8-.09v1.97c-.5-.07-1.07-.09-1.78-.09h-.76v.95s0,.14,.02,.26v.36c.02,.26,.02,.31,.05,.52h-2.13c.05-.24,.05-.36,.07-.54,0-.19,0-.31,0-.33,.02-.12,.02-.21,.02-.24v-.97h-2.39Zm5.17,14.12c-2.68,1.52-4.29,2.06-7.51,2.61-.33-.85-.45-1.09-1.09-1.99,3.44-.38,4.79-.78,6.85-1.99l1.75,1.38Zm10.8-15.9c.81,0,1.3-.02,1.87-.09v1.97c-.59-.09-1.07-.12-1.88-.12h-1.66v1.04s0,.12,.02,.21c0,.09,0,.24,.02,.45,0,.17,0,.24,.02,.4h-2.13c.02-.24,.07-.78,.07-1.02v-1.09h-2.75c-.26,1.14-.5,1.68-1.12,2.58h4.19c1.16,0,1.92-.02,2.65-.1-.1,.76-.12,1.38-.12,2.94v4.74c0,1.35,.01,2.13,.11,2.68-.62-.07-1.42-.09-2.54-.09h-10.85c-1.07,0-1.9,.02-2.54,.09,.1-.66,.12-1.45,.12-2.75v-4.69c0-1.45-.02-2.01-.11-2.92,.71,.07,1.47,.1,2.54,.1h5.85c-.45-.5-.78-.78-1.3-1.14,.81-.9,1.12-1.64,1.31-3.1,.1-.66,.12-1.07,.12-1.99,0-.21-.02-.4-.05-.71,.36,.05,.5,.05,.69,.05,.62,0,2.23-.12,3.25-.24,1.61-.19,2.63-.43,3.84-.9l1.35,1.66q-.47,.1-1.73,.38c-1.64,.38-2.92,.52-5.36,.66,0,.47-.02,.64-.05,1h6.14Zm-14.42,12.8h11.56v-1.26h-11.56v1.26Zm0-2.8h11.56v-1.21h-11.56v1.21Zm0-2.75h11.56v-1.28h-11.56v1.28Zm9.44,7.35c2.39,1.21,3.86,1.61,6.96,1.92-.47,.71-.64,1-1.04,2.01-3.44-.59-5.02-1.16-7.63-2.7l1.71-1.23Z"/><path class="i" d="M261.93,17.16q-.14,.4-.38,1.54c-.17,.76-.29,1.26-.55,2.3,1.71-.17,2.96-.38,3.96-.71l.09,2.3c-.28,.02-.31,.02-.81,.12-.88,.17-2.28,.33-3.82,.45-.71,2.42-1.57,4.69-2.62,6.89-.55,1.16-.76,1.56-1.69,3.2-.19,.33-.36,.62-.45,.83l-2.27-1.3c.85-1.07,1.5-2.13,2.3-3.79,.97-1.97,1.81-4.03,2.31-5.76-.5,.02-.71,.02-1.4,.02s-.66,0-1.61-.02h-.85v-2.28c.83,.14,1.66,.19,3.01,.19,.69,0,1.11,0,1.42-.02,.43-1.54,.74-3.2,.79-4.24l2.56,.28Zm10.92,18.86c-.83-1.04-2.27-2.18-3.81-3.03,.02,.26,.02,.28,.02,.5,0,.88-.36,1.87-.86,2.49-.76,.88-2.16,1.4-3.86,1.4-3.03,0-4.95-1.42-4.95-3.67,0-2.32,2.04-3.93,4.93-3.93,.78,0,1.35,.07,2.39,.26-.09-1.21-.14-2.11-.14-3.03s.05-1.42,.19-2.25l2.3,.17c-.24,.88-.31,1.37-.31,2.27,0,.92,.07,2.04,.23,3.44,1.68,.73,2.51,1.21,3.91,2.27,.52,.4,.52,.43,.73,.59q.19,.19,.36,.31l-1.14,2.23Zm-8.38-4.24c-1.71,0-2.8,.71-2.8,1.8,0,1.07,.95,1.68,2.58,1.68,1.75,0,2.61-.73,2.61-2.18,0-.26-.05-.88-.05-.9-.9-.28-1.52-.4-2.35-.4Zm8.47-6.56c-1.99-1.37-4-2.35-6.61-3.29l1.19-1.87c2.77,1.04,4.48,1.87,6.51,3.13l-1.09,2.04Z"/><path class="i" d="M285.43,19.13c0-.9-.05-1.56-.14-2.3h2.46c-.1,.64-.14,1.35-.15,2.3v5.97h6.91c.97,0,1.78-.05,2.61-.14v2.25c-.74-.09-1.5-.14-2.59-.14h-4.72v8.15c-.01,.59,.2,.64,2.36,.64,1.8,0,2.42-.12,2.68-.47,.26-.36,.43-1.59,.53-3.51,.76,.45,1.25,.64,2.08,.83-.24,2.82-.6,3.96-1.4,4.6-.59,.47-1.49,.59-4.17,.59-2.27,0-2.94-.07-3.53-.43-.5-.29-.66-.69-.66-1.66v-8.74h-2.93c-.05,1.97-.19,2.87-.6,4.24-1.02,3.41-3.21,5.55-7.14,6.9-.45-.83-.78-1.28-1.4-1.94,2.51-.73,4.13-1.71,5.27-3.22,.78-1.04,1.38-2.58,1.62-4.24,.05-.5,.07-.8,.12-1.73h-3.72c-.92,0-1.73,.05-2.56,.14v-2.25c.81,.09,1.61,.14,2.61,.14h6.45v-5.97Zm-5.87-1.21c1.54,1.87,2.27,2.99,3.57,5.33l-1.94,1.16c-1.25-2.51-1.92-3.55-3.55-5.52l1.92-.97Zm15.9,.9c-1.45,2.77-2.21,3.91-3.8,5.81l-1.89-1.09c1.59-1.78,2.49-3.18,3.63-5.69l2.06,.97Z"/><path class="i" d="M317.72,38.27v-1.35h-15.33v1.35h-2.32c.1-.71,.14-1.66,.15-2.99l.02-14.83c0-1.16-.04-1.99-.14-2.89,.83,.1,1.64,.12,2.77,.12h14.41c1.14,0,1.94-.02,2.8-.12-.1,.88-.14,1.66-.15,2.89l-.02,14.86c0,1.3,.04,2.37,.14,2.96h-2.32Zm-15.33-3.29h15.33l.02-15.33h-15.33l-.02,15.33Zm9.97-12.25c1.07,0,1.75-.02,2.37-.09-.07,.5-.1,1.09-.1,1.87v5.5c0,.78,.01,1.28,.08,1.85-.69-.07-1.35-.09-2.37-.09h-4.69c-1.23,0-1.66,.02-2.35,.09,.07-.64,.1-1.14,.1-1.85v-5.5c0-.71-.01-1.28-.08-1.87,.59,.07,1.3,.09,2.35,.09h4.69Zm-4.89,7.18h5.07v-5.33h-5.06v5.33Z"/><path class="i" d="M322.84,26.64c.4,.05,.59,.07,1,.07,.17,0,.43,0,.88-.02,.76-.97,.95-1.23,1.45-1.97-1.37-1.68-1.96-2.3-3.34-3.55l1.07-1.64c.52,.5,.66,.64,.99,1,1.04-1.63,1.83-3.22,2.04-4.22l1.96,.76c-.17,.24-.28,.45-.55,.97-.64,1.3-1.33,2.44-2.23,3.81,.5,.59,.64,.74,1.11,1.33,1.19-1.8,1.95-3.2,2.28-4.08l1.82,.97q-.43,.64-1.73,2.68c-.64,1-1.85,2.68-2.75,3.84,1.11-.05,2.01-.12,3.06-.24-.26-.73-.38-1.02-.78-1.92l1.47-.64c.8,1.85,1.04,2.49,1.58,4.43l-1.57,.73c-.12-.45-.14-.59-.24-.97q-.26,.02-.71,.09c-.26,.02-.36,.02-1.21,.12v7.63c-.01,1.14,.01,1.73,.13,2.44h-2.2c.1-.78,.14-1.42,.15-2.46v-7.44q-.25,.02-2.31,.14c-.5,.05-.71,.07-1.14,.14l-.23-2.01Zm2.82,3.29c-.39,4.5-.48,5.09-1.12,7.08l-1.7-.85c.64-1.83,.86-3.17,1.1-6.49l1.73,.26Zm4.93-.38c.47,1.9,.66,2.96,.87,4.64l-1.61,.47c-.14-1.75-.35-3.13-.73-4.74l1.47-.38Zm5.76,.07c-.31,.76-.45,1.16-.48,1.18-.95,2.65-2.21,4.46-4.56,6.52-.33-.57-.73-1.02-1.37-1.56,2.02-1.45,3.3-3.06,4.18-5.24h-1.23c-.66,0-1,.02-1.47,.09v-1.99c.43,.07,.76,.1,1.52,.1h1.47c.57,0,.88-.02,1.14-.07l.8,.97Zm-.39-11.21c.45-1.14,.55-1.45,.69-2.13l2.23,.36c-.29,.73-.5,1.23-.76,1.78h2.77c1.14,0,1.68-.02,2.28-.09-.07,.69-.1,1.21-.1,2.32v4.08c0,1.04,.02,1.59,.09,2.23-.64-.07-1.35-.1-2.25-.1h-2.13c.35,1.4,.61,2.02,1.32,3.29,1.07-.9,1.73-1.61,2.68-2.82l1.44,1.3c-1.26,1.33-2.11,2.13-3.2,3.01,1.25,1.71,2.3,2.73,3.91,3.82-.55,.57-.85,1.02-1.31,1.94-1.21-.97-1.85-1.61-2.67-2.68-1.11-1.45-1.7-2.54-2.53-4.67,.16,1.99,.23,3.37,.23,5.31,0,1.35-.1,1.75-.57,2.11-.38,.31-1.02,.45-2.04,.45h-.24c-.31-.02-.54-.02-.62-.02-.38,0-.45,0-.83-.02-.12-.92-.24-1.4-.54-2.04,.83,.12,1.49,.19,2.08,.19s.76-.1,.76-.52v-8.65h-2.1c-.9,0-1.66,.02-2.3,.1,.07-.64,.1-1.38,.1-2.25v-4.1c0-.88-.02-1.63-.09-2.27,.62,.07,1.16,.09,2.28,.09h1.42Zm-1.62,6.78h6.71v-1.73h-6.7v1.73Zm0-3.41h6.71v-1.68h-6.7v1.68Z"/></g><g><line class="f" x1="97.5" y1="16" x2="111.5" y2="39"/><line class="f" x1="372.5" y1="16" x2="358.5" y2="39"/></g></g></g></g><g id="c"/></svg>