<svg xmlns="http://www.w3.org/2000/svg" xmlns:xlink="http://www.w3.org/1999/xlink" height="125" viewBox="0 0 426 100"><defs><style>.cls-1{fill:#fff;}.cls-2{fill:#ffffa0;}.cls-3{fill:#231815;}.cls-4{fill:#ff438e;}.cls-5{fill:#35318e;}.cls-6{fill:#00aae8;}.cls-7{fill:url(#名称未設定グラデーション_4);}</style><linearGradient id="名称未設定グラデーション_4" x1="65.99" y1="28.51" x2="177.58" y2="28.51" gradientUnits="userSpaceOnUse"><stop offset="0" stop-color="#35318e"/><stop offset="1" stop-color="#e6e6e6"/></linearGradient></defs><g id="background"><rect class="cls-1" x="-59.43" y="-333" width="1112.43" height="788"/></g><g id="body"><rect class="cls-2" y="42" width="426" height="58"/><path class="cls-3" d="M37.44,65.26l-1.13.52a43,43,0,0,1-10.66,3.38l-.21,2.43c-.15,1.61-.14,1.79.12,2.07s1.36.41,3.12.41c1.22,0,2.93-.08,4.24-.21a20.58,20.58,0,0,0,3.81-.7l-.2,4c-.57,0-1.07,0-2.26.15-2.19.2-4.64.33-6.38.33-3,0-4.47-.26-5.41-1a2.91,2.91,0,0,1-1-2.35,18.11,18.11,0,0,1,.11-2.31l.83-9.47a20.55,20.55,0,0,0,.13-2.89h4.07a17.75,17.75,0,0,0-.39,2.91L26,65.54a30.43,30.43,0,0,0,9.1-3.44,12,12,0,0,0-1-2.2l2.19-.71a11.76,11.76,0,0,1,1.35,3L36,62.8Zm1.62-7.08a12.38,12.38,0,0,1,1.4,2.94L38.23,62a16.08,16.08,0,0,0-1.3-3Z"/><path class="cls-3" d="M44.36,63.89A25,25,0,0,1,46,69.39l-3.49,1a25.35,25.35,0,0,0-1.44-5.64ZM57,64.26a7.9,7.9,0,0,0-.44,1.33,21.79,21.79,0,0,1-3.35,7.09,17.9,17.9,0,0,1-5,4.42c-.8.48-1.42.81-2.76,1.46a9.8,9.8,0,0,0-2.12-3.07c4.52-1.7,7.08-3.88,8.75-7.49a16,16,0,0,0,1.36-4.59ZM49.23,63a20.92,20.92,0,0,1,1.65,5.31l-3.42,1A24.17,24.17,0,0,0,46,63.84Z"/><path class="cls-3" d="M77.91,63.43a11.57,11.57,0,0,0-1,2.22,28.44,28.44,0,0,1-3.15,5.62c-2.37,3.22-5.52,5.57-10.2,7.64a9.11,9.11,0,0,0-2.33-3.33,21.73,21.73,0,0,0,7.66-4.42A17.14,17.14,0,0,0,73.05,65l-5.8.06a23.84,23.84,0,0,1-5.42,5.47A9.42,9.42,0,0,0,59,67.89a19.6,19.6,0,0,0,6.37-6.64,9.09,9.09,0,0,0,1.17-2.61l4,.74a4,4,0,0,0-.31.52l-.18.35c-.11.2-.19.35-.24.46-.34.63-.34.63-.52.94l5,0c.33,0,.5,0,1,0a10.25,10.25,0,0,0-.83-2.05L76.54,59a9.55,9.55,0,0,1,1.13,2.8l-1,.33Zm1.35-5.2A10.38,10.38,0,0,1,80.43,61l-2.05.71a10.73,10.73,0,0,0-1.13-2.93Z"/><path class="cls-3" d="M84.8,76.27l-.13,1.5h-4a29,29,0,0,0,.48-3.54l1-11.19c.08-.94.12-1.61.13-2.5.76.06,1.19.08,2.63.08H96.67c1.35,0,1.67,0,2.71-.08-.11.76-.21,1.54-.29,2.56l-1,11A29.1,29.1,0,0,0,98,77.73H94l.12-1.46ZM95.21,64.11H85.87l-.76,8.68h9.34Z"/><path class="cls-3" d="M101.92,66.54a29.25,29.25,0,0,0,4.45.2h10.41a34.65,34.65,0,0,0,4.48-.2l-.37,4.2a44.3,44.3,0,0,0-4.47-.13H106.05c-2.44,0-3.16,0-4.49.13Z"/><path class="cls-3" d="M140.31,63.08a8.29,8.29,0,0,0-.4,1,22.89,22.89,0,0,1-5,8.68,24.84,24.84,0,0,1-8.82,5.92,10.61,10.61,0,0,0-2.44-3.66,19.64,19.64,0,0,0,4.8-2.13,15.5,15.5,0,0,0,7.09-8.6H126.2a25.16,25.16,0,0,0-3.32.13l.34-3.89a18.21,18.21,0,0,0,3.36.17h9.36c.59,0,.83,0,1.29,0l.33,0a12.7,12.7,0,0,0-.64-1.24l2-.63a11.82,11.82,0,0,1,1.36,2.89l-.76.26ZM141.65,58a9.56,9.56,0,0,1,1.29,2.87l-2,.76a13.89,13.89,0,0,0-1.27-2.94Z"/><path class="cls-3" d="M151.34,61.06a19.07,19.07,0,0,0,.08-2.42h3.71a17.57,17.57,0,0,0-.35,2.44L154.35,66h3.44l-2.17-1.31a23.47,23.47,0,0,0,3.49-5.26l3.17,1.37a36.08,36.08,0,0,1-3.51,5.2h1a27.44,27.44,0,0,0,2.78-.13l-.29,3.37a22.69,22.69,0,0,0-2.69-.13h-3.14l-.52,6c0,.48.08.54,1.21.54s1.43-.09,1.6-.52a13.62,13.62,0,0,0,.48-3.07,9.16,9.16,0,0,0,3.12,1.15c-.41,3-.87,4.25-1.87,5-.67.47-1.57.6-4,.6-3.64,0-4.2-.3-4-2.15l.66-7.49h-2c-.44,3.27-1,4.9-2.42,6.51a9.7,9.7,0,0,1-2.58,2.13,10.68,10.68,0,0,1-3,1.24,13.51,13.51,0,0,0-1.68-3.11,8.44,8.44,0,0,0,4.46-2.2c1-1,1.47-2.11,1.81-4.57h-2.39c-.92,0-1.79,0-2.69.13l.29-3.37a26.09,26.09,0,0,0,2.76.13h.87A24.94,24.94,0,0,0,144,60.88l3.11-1.43a20.62,20.62,0,0,1,2.64,5.16L147.12,66h3.79Z"/><path class="cls-3" d="M170.84,59.45A12.26,12.26,0,0,0,170,61.6a41.07,41.07,0,0,0-1.79,8.45l1.63.56a20.74,20.74,0,0,0-1.49,6.64c0,.11,0,.39,0,.87l-3.7.16c0-.4,0-.4,0-1.72a41.24,41.24,0,0,1,.1-6.6,44.18,44.18,0,0,1,1.64-8.79,12.5,12.5,0,0,0,.42-1.9v-.11Zm.47,3.55a19.68,19.68,0,0,0,4,.34c.46,0,.83,0,1.57,0,.12-1.3.12-1.3.25-2.83a5.45,5.45,0,0,0,0-1.22l3.77,0a26.33,26.33,0,0,0-.51,3.81,21.27,21.27,0,0,0,3.52-.67l-.17,3.46A5.46,5.46,0,0,0,183,66c-.69.15-1.68.28-2.78.41-.12,1.7-.14,2.13-.21,4.64a15.19,15.19,0,0,1,3.33,2,2.79,2.79,0,0,0,.4.26L182,77a9.72,9.72,0,0,0-2.41-2.07,1.55,1.55,0,0,1,0,.18c-.16,1.85-2.16,3.09-4.95,3.09-3.2,0-5-1.53-4.74-4a4.25,4.25,0,0,1,1.94-3.2,6.11,6.11,0,0,1,3.43-.89,6,6,0,0,1,1.25.13c0-.61,0-.72.09-1.74,0-.74.07-1,.11-1.81-.5,0-.81,0-1.24,0-.66,0-1.91,0-3.74-.11l-.5,0H171Zm5,10.36a3.2,3.2,0,0,0-1.3-.26c-1,0-1.65.39-1.7,1s.48.93,1.35.93c1.05,0,1.56-.39,1.64-1.26Z"/><path class="cls-3" d="M187.09,72a22.3,22.3,0,0,1,4.48,4.79l-2.19,1.9a20.31,20.31,0,0,0-4.29-5Z"/><path class="cls-4" d="M204.74,75.86h.91a5.92,5.92,0,0,1,.61,0l0,.28a9.13,9.13,0,0,0,2.31-1.5h-.2c-.74,0-1,0-1.55,0,.1-.89.16-1.37.22-2l.67-7.6.06-1,0-.37c0-.13,0-.31,0-.65.5,0,.72,0,1.78,0H210a10.93,10.93,0,0,0,.52-1h-.87a16.42,16.42,0,0,0-2,.09L208,59a15.88,15.88,0,0,0,2.45.11H215a17.66,17.66,0,0,0,2.58-.11l-.28,3.16a22.86,22.86,0,0,0-2.56-.09h-.83c-.18.37-.34.67-.52,1h.89c1.37,0,1.77,0,2.31,0-.12.63-.19,1.26-.26,2l-.63,7.25c-.08.87-.13,1.63-.13,2.41-.78,0-1.3-.06-1.87-.06h-.19a10.43,10.43,0,0,0,2.88,1.7,24.39,24.39,0,0,0-2.18,2.76,17,17,0,0,1-3.37-2.85,14.66,14.66,0,0,1-4.35,3,9.33,9.33,0,0,0-.67-1.15,14.61,14.61,0,0,0-1.47-.07h-2.64l-.07.85h-2.76a14.49,14.49,0,0,0,.28-2.06l.23-2.57c.08-.87.17-1.74.26-2.18l-.08-.11a19.73,19.73,0,0,1-2.26,6.66,12.12,12.12,0,0,0-1.92-3.2c1.08-2.11,1.52-4.24,2-9.71.14-1.58.18-2.32.22-3.22a16.89,16.89,0,0,0,2.21.07H205a15.2,15.2,0,0,0,2.2-.07,6.28,6.28,0,0,0-.13,1l-.19,2.22a12.86,12.86,0,0,0-.08,1.63l-.63,0a10.3,10.3,0,0,1-.6,1.13,8,8,0,0,0,1.31-.07l-.19,2.2a13.85,13.85,0,0,0-1.48-.06l-.06.67h.18a7.55,7.55,0,0,0,1.11,0l-.15,1.72a7.68,7.68,0,0,0-1.13,0H205l-.06.68h.18a5.91,5.91,0,0,0,1.11-.07l-.15,1.74a9.08,9.08,0,0,0-1.13,0h-.15ZM197.39,59a16.27,16.27,0,0,0,2.47.11H205a23.74,23.74,0,0,0,2.51-.11l-.26,3a15,15,0,0,0-1.93-.09h-5.73a23.59,23.59,0,0,0-2.49.09Zm2.83,8.29c-.16,1.25-.21,1.66-.32,2.38a11.6,11.6,0,0,0,1.3-2.38Zm.21-2.45a2.13,2.13,0,0,1-.09.52H204l.06-.76h-3.57Zm1.33,10.2-.07.81h1l.07-.81Zm1.16-2.26h-1l-.07.76h1Zm.19-2.26h-1l-.07.76h1Zm.15-3.23a7.35,7.35,0,0,1-.58,1.16h.9c.26-.48.36-.72.56-1.16Zm7.51,8.54,1.35-1.22h-2.59ZM210.11,72h2.46l.07-.84h-2.46Zm.25-2.87h2.46l.07-.78h-2.46Zm.24-2.83h2.47l.06-.78h-2.46Z"/><path class="cls-4" d="M220.36,73.53c0-.19,0-.28,0-.76-.67.17-.91.22-1.8.39a9,9,0,0,0-1.06-3A33.76,33.76,0,0,0,225,68.65a7.84,7.84,0,0,1-1.37-1.08,21.43,21.43,0,0,1-3.38,1.78,8.43,8.43,0,0,0-1.65-2.5,18.52,18.52,0,0,0,3.13-1.37h-3.16a12,12,0,0,0,.28-1.77l.21-2.32a13.43,13.43,0,0,0,.06-1.73c.76.07,1.41.09,2.63.09h5.38a7.33,7.33,0,0,0,0-1.33h3.62a7.42,7.42,0,0,0-.21,1.33h5.56c1.26,0,1.89,0,2.68-.09a12.41,12.41,0,0,0-.23,1.73l-.21,2.34a10.55,10.55,0,0,0,0,1.75h-3a29.42,29.42,0,0,1-3.92,3,26.36,26.36,0,0,0,7.25.91,15.59,15.59,0,0,0-1.65,3.44c-.81-.11-1.18-.17-1.67-.26-.05.5-.05.59-.09,1l-.28,3.24a17.29,17.29,0,0,0-.1,2.14h-3.35l.06-.76h-8.31l-.07.74h-3.33c.14-.81.24-1.51.3-2.16Zm1.75-10.82-.23,2.68a14.77,14.77,0,0,0,3.26-2.68Zm1.31,12.69h8.34l.1-1.15h-8.34Zm7.71-3.85A28.4,28.4,0,0,1,228,70.37a21.4,21.4,0,0,1-3.06,1.18Zm-4.74-5.44a16.93,16.93,0,0,0,1.88,1.15,14.66,14.66,0,0,0,1.93-1.15ZM232,63.58a9.76,9.76,0,0,0,1.56-.08l1.5,1.26.18-2.05h-6.34a8,8,0,0,1-.73.87Z"/><path class="cls-4" d="M243.88,71.68a49.25,49.25,0,0,1-2.39,6.42,5.06,5.06,0,0,0-.35.83l-2.61-2.55a19.31,19.31,0,0,0,2.88-6.49Zm6.48-1.63h-3.2l-.56,6.4a22.45,22.45,0,0,0-.12,2.44h-3.12a21.57,21.57,0,0,0,.36-2.62l.63-7.22a16.92,16.92,0,0,0,.09-1.72l-2.14,2a16.08,16.08,0,0,0-3-3l2.5-2.2a12.53,12.53,0,0,1,2.31,2.22l.25-2.77a18.72,18.72,0,0,0,2.38.11h.89l.09-1h-.54a18.39,18.39,0,0,0-2.16.09l.08-.92-1.8,1.83a15.9,15.9,0,0,0-3.08-3.05l2.4-2.13a19.43,19.43,0,0,1,2.58,2.18l.08-1a20.15,20.15,0,0,0,2.24.11H248a6.6,6.6,0,0,0,0-1.33h3.31a6.36,6.36,0,0,0-.2,1.33h2.74a7.88,7.88,0,0,0,0-1.33h3.31A7.7,7.7,0,0,0,257,59.8h.91a21.84,21.84,0,0,0,2.25-.11l-.27,3.07c-.49,0-1.27-.09-2.19-.09h-1l-.09,1h1.2a16.21,16.21,0,0,0,2.54-.11l-.27,3.07a23.29,23.29,0,0,0-2.52-.11h-4.22l-.07.79h3.48c1.18,0,2,0,2.6-.09a19.13,19.13,0,0,0-.32,2.44l-.6,6.83a2.09,2.09,0,0,1-1.15,2,5.52,5.52,0,0,1-2.27.31c-.52,0-1.24,0-1.76-.07a7.54,7.54,0,0,0-.19-2.24h-3.55l-.08.85h-2.37a16.36,16.36,0,0,0,.22-1.81l.28-3.18a15,15,0,0,0,.08-1.61h2.09a14.69,14.69,0,0,0-.19,1.61l-.13,1.53H250Zm-5.85-2.79a13.79,13.79,0,0,0,1.41.07h4.31l.07-.79h-3.68a18.71,18.71,0,0,0-2.25.09l.38.44Zm9-3.57.09-1h-2.74l-.09,1ZM253,73.86l.13-1.51a14.1,14.1,0,0,0,.1-1.63h2.09a9.17,9.17,0,0,0-.21,1.63l-.21,2.46c-.05.51-.06.66-.07,1h.2c.39,0,.48-.07.51-.42l.47-5.37h-3.29l-.33,3.81Z"/><path class="cls-4" d="M270.12,67.37h-4.29a20,20,0,0,0-2.21.09,18.11,18.11,0,0,0,.27-2l.38-4.37a18.37,18.37,0,0,0,.09-2c.6.06,1.34.08,2.47.08h10.65a24.63,24.63,0,0,0,2.49-.08,16.57,16.57,0,0,0-.26,2l-.38,4.37a16,16,0,0,0-.09,2,19.81,19.81,0,0,0-2.2-.09h-3.63l-.19,2.18h4.22a18.08,18.08,0,0,0,2.49-.11l-.28,3.22a19.22,19.22,0,0,0-2.47-.11H273l-.24,2.68c.95.09,2.38.15,3.49.15,1.55,0,3-.06,4.75-.2a12,12,0,0,0-1.13,3.42c-1.31.05-2.67.09-3.71.09a20.16,20.16,0,0,1-7.06-.89,7.64,7.64,0,0,1-3.46-3.09A17.7,17.7,0,0,1,262.48,79a10.64,10.64,0,0,0-2.35-2.46,10.63,10.63,0,0,0,2.11-2.44,14.93,14.93,0,0,0,2.4-6.07l3.3.6c-.09.31-.17.51-.37,1.22-.15.48-.24.79-.42,1.31a5.72,5.72,0,0,0,2.37,3.09Zm-2.64-5.16-.2,2.26h8.82l.2-2.26Z"/><path class="cls-4" d="M301.31,71.77c-.22.21-.41.41-.89,1a16.35,16.35,0,0,1-2.83,2.49,24.76,24.76,0,0,0,5.38.39A18.13,18.13,0,0,0,301.52,79a23,23,0,0,1-7.82-1.7A23.9,23.9,0,0,1,286.56,79a8.56,8.56,0,0,0-.72-2.91A15.08,15.08,0,0,1,284.28,79,13,13,0,0,0,282,76c1.68-2.78,2.23-5.24,2.92-13.19.13-1.46.18-2.24.19-3.11a24.47,24.47,0,0,0,2.69.11h5.11l0-.33a5.6,5.6,0,0,0,0-1.09h3.57a6.41,6.41,0,0,0-.19,1.13l0,.29h4.86a25.28,25.28,0,0,0,2.86-.13l-.27,3.07c-.74,0-1.21-.07-2.26-.07h-1.07c-.05.37-.06.46-.1.89h1.51a17.42,17.42,0,0,0,1.9-.08l-.25,2.87a12,12,0,0,0-1.85-.09h-1.54L300,67.94a13.63,13.63,0,0,0-.06,1.45h-.28c-.17,0-.46,0-1.11,0h-7.27c-.55,0-1,0-1.44,0,.07-.37.14-.89.19-1.45l.15-1.66h-2.23a34.1,34.1,0,0,1-2,9.58,23.81,23.81,0,0,0,4.57-.46C290,75,290,75,288.55,73.7l2.37-1h-1c-.93,0-1.68,0-2.27.06l.24-2.72a21.36,21.36,0,0,0,2.47.09h7.36c1.07,0,1.55,0,2.12-.07Zm-10.94-8.19c0-.39.05-.52.06-.89h-2.18l-.08.89Zm1.75,9.17a7.63,7.63,0,0,0,2.1,1.37,9.2,9.2,0,0,0,2-1.37ZM293.31,67h3.49l.08-.93H293.4Zm3.79-3.46c0-.41,0-.54.06-.89h-3.44c-.08.59-.08.59-.1.89Z"/><path class="cls-4" d="M317.81,79.64a5.08,5.08,0,0,0,.92,2.07,5,5,0,0,0,4.13,1.77A7.09,7.09,0,0,0,329,80.12c1-1.53,1.54-3.26,2.09-6.52a12.52,12.52,0,0,1-9.35,3.45c-8.19,0-13.08-5.23-12.41-13.29.7-8.49,7.38-14.29,16.39-14.29,5.78,0,10.17,2.49,12.52,7.1,1.61,3.11,2.23,7.67,1.79,12.95A34.38,34.38,0,0,1,336.29,83a15.57,15.57,0,0,1-8.34,7.3,20.62,20.62,0,0,1-6.19,1q-6.48,0-10.2-3.74c-1.42-1.49-2.09-2.78-3-5.71ZM331,63.28c.29-3.6-2.14-6.09-5.92-6.09a6.57,6.57,0,0,0-6.88,6.14c-.31,3.69,2,6.14,5.68,6.14C327.81,69.47,330.7,67,331,63.28Z"/><path class="cls-4" d="M351.36,78.11a4.82,4.82,0,0,0,1,3.07,6.35,6.35,0,0,0,5.06,2.06c3.55,0,5.94-1.87,6.18-4.8a3.8,3.8,0,0,0-2.11-4.12,11.89,11.89,0,0,0-4.18-.63,56,56,0,0,0-5.63.29l.69-8.25a37.64,37.64,0,0,0,4.8.29c4.32,0,6.59-1.54,6.85-4.61.21-2.59-1.4-4.08-4.4-4.08-3.23,0-5,1.35-5.92,4.42L344,60.26a15.52,15.52,0,0,1,3.56-6.09c3-3.17,7.36-4.8,12.91-4.8,5,0,8.94,1.44,11.32,4.08a8.91,8.91,0,0,1,2,6.81c-.42,5.09-3.28,8.25-8.62,9.55,2.74.43,4.19,1.1,5.66,2.54a8.92,8.92,0,0,1,2.41,7.1,11.85,11.85,0,0,1-2.35,6.38,13,13,0,0,1-4.57,3.6,24.66,24.66,0,0,1-9.63,1.87c-4.09,0-8.11-1-10.38-2.69a11.48,11.48,0,0,1-4.17-6.18,17.86,17.86,0,0,1-.57-2.55Z"/><path class="cls-4" d="M377.15,75c-1.15-1.29-1.66-3.4-1.44-6a9.23,9.23,0,0,1,2.46-6A7.39,7.39,0,0,1,383.34,61,6.15,6.15,0,0,1,388.17,63c1.18,1.36,1.66,3.39,1.44,6a9.15,9.15,0,0,1-2.47,6A7.27,7.27,0,0,1,382,76.94,6.24,6.24,0,0,1,377.15,75ZM401,60.69l1.59,1.36L379.15,90.81l-1.56-1.36ZM380.19,69c-.23,2.86.48,4.35,2.13,4.35s2.57-1.46,2.81-4.35-.49-4.25-2.1-4.25S380.43,66.16,380.19,69ZM392,88.47c-1.15-1.29-1.65-3.4-1.43-6a9.24,9.24,0,0,1,2.46-6,7.43,7.43,0,0,1,5.19-1.93c4.39,0,6.7,2.92,6.28,7.92a9.17,9.17,0,0,1-2.47,6,7.32,7.32,0,0,1-5.16,1.94A6.3,6.3,0,0,1,392,88.47Zm3.06-6.09c-.25,2.92.47,4.42,2.11,4.42s2.61-1.46,2.85-4.42c.23-2.75-.49-4.18-2.1-4.18S395.28,79.63,395.05,82.38Z"/><path class="cls-3" d="M386.94,50.6l.29.33-3.86,3.57,3.24,3.55-.35.33L383,54.86l-3.85,3.52-.3-.33,3.86-3.55-3.23-3.57.36-.33,3.22,3.55Zm-6,3.89a.84.84,0,0,1-.82.77.71.71,0,0,1-.71-.77.85.85,0,0,1,.84-.76A.68.68,0,0,1,381,54.49Zm2.61,2.92a.87.87,0,0,1-.83.77.72.72,0,0,1-.7-.77.9.9,0,0,1,.77-.77h.06A.7.7,0,0,1,383.56,57.41Zm.52-5.81a.85.85,0,0,1-.83.77.7.7,0,0,1-.7-.77.84.84,0,0,1,.83-.76A.69.69,0,0,1,384.08,51.6Zm2.59,2.9a.85.85,0,0,1-.83.76.68.68,0,0,1-.69-.76.85.85,0,0,1,.83-.76A.68.68,0,0,1,386.67,54.5Z"/><path class="cls-3" d="M192.07,85.88l.23.27L189.23,89l2.58,2.83-.28.26L189,89.28l-3.07,2.8-.24-.26L188.72,89l-2.58-2.84.29-.27L189,88.71ZM187.3,89a.68.68,0,0,1-.66.62.56.56,0,0,1-.56-.62.68.68,0,0,1,.67-.6A.54.54,0,0,1,187.3,89Zm2.08,2.33a.7.7,0,0,1-.66.61.57.57,0,0,1-.56-.61.72.72,0,0,1,.61-.62h0A.56.56,0,0,1,189.38,91.31Zm.41-4.63a.68.68,0,0,1-.66.61.56.56,0,0,1-.56-.61.69.69,0,0,1,.67-.61A.55.55,0,0,1,189.79,86.68ZM191.86,89a.69.69,0,0,1-.66.61.55.55,0,0,1-.55-.61.67.67,0,0,1,.65-.6A.55.55,0,0,1,191.86,89Z"/><path class="cls-3" d="M193.94,92a6.08,6.08,0,0,0-.88,0,4,4,0,0,1,.32-1.05,4.07,4.07,0,0,1,1.16-1.37,12.66,12.66,0,0,1,1.29-.88c.84-.53,1.13-.88,1.18-1.37s-.43-1-1.24-1a1.44,1.44,0,0,0-1.2.51,1.8,1.8,0,0,0-.35.81l-.66-.11a2.43,2.43,0,0,1,.6-1.15,2.22,2.22,0,0,1,1.66-.61c1.2,0,1.92.6,1.84,1.54a1.84,1.84,0,0,1-.57,1.13,7.18,7.18,0,0,1-1.44,1,5.13,5.13,0,0,0-1.24,1,2.6,2.6,0,0,0-.53.92h2.54a7.18,7.18,0,0,0,1-.05l-.06.67a7.27,7.27,0,0,0-1,0Z"/><path class="cls-3" d="M199.05,91.52a1.79,1.79,0,0,1-.42-.73,5.29,5.29,0,0,1-.14-1.84,5.11,5.11,0,0,1,.65-2.17,2.17,2.17,0,0,1,1.87-1,1.81,1.81,0,0,1,1.41.57,1.78,1.78,0,0,1,.41.73A5.3,5.3,0,0,1,203,89a4.52,4.52,0,0,1-.76,2.3,2.14,2.14,0,0,1-1.76.84A1.81,1.81,0,0,1,199.05,91.52Zm.88-4.76a1.67,1.67,0,0,0-.41.58,5.21,5.21,0,0,0-.39,1.61,4.08,4.08,0,0,0,.21,1.9,1.22,1.22,0,0,0,1.17.69,1.46,1.46,0,0,0,1-.37,1.86,1.86,0,0,0,.43-.63,5.14,5.14,0,0,0,.39-1.61,4.22,4.22,0,0,0-.2-1.85,1.21,1.21,0,0,0-1.18-.73A1.39,1.39,0,0,0,199.93,86.76Z"/><path class="cls-3" d="M204.46,92a6.08,6.08,0,0,0-.88,0A4,4,0,0,1,203.9,91a4,4,0,0,1,1.16-1.37,11.46,11.46,0,0,1,1.29-.88c.84-.53,1.13-.88,1.17-1.37s-.42-1-1.23-1a1.44,1.44,0,0,0-1.2.51,1.8,1.8,0,0,0-.35.81l-.66-.11a2.35,2.35,0,0,1,.6-1.15,2.22,2.22,0,0,1,1.66-.61c1.2,0,1.92.6,1.84,1.54a1.84,1.84,0,0,1-.57,1.13,7.39,7.39,0,0,1-1.45,1,5,5,0,0,0-1.23,1,2.45,2.45,0,0,0-.53.92h2.54a6.94,6.94,0,0,0,1-.05l0,.67a7.27,7.27,0,0,0-1,0Z"/><path class="cls-3" d="M209.78,92a6.08,6.08,0,0,0-.88,0,4,4,0,0,1,.32-1.05,4.07,4.07,0,0,1,1.16-1.37,11.46,11.46,0,0,1,1.29-.88c.84-.53,1.13-.88,1.17-1.37s-.42-1-1.23-1a1.44,1.44,0,0,0-1.2.51,1.8,1.8,0,0,0-.35.81l-.66-.11a2.35,2.35,0,0,1,.6-1.15,2.22,2.22,0,0,1,1.66-.61c1.2,0,1.92.6,1.84,1.54a1.84,1.84,0,0,1-.57,1.13,7.18,7.18,0,0,1-1.44,1,4.94,4.94,0,0,0-1.24,1,2.6,2.6,0,0,0-.53.92h2.54a6.94,6.94,0,0,0,1-.05l0,.67a7.27,7.27,0,0,0-1,0Z"/><path class="cls-3" d="M215.78,88.53c0-.18,0-.31,0-.47l.56,0h1.73l.11-1.3h-1.87a7.48,7.48,0,0,1-1.47,1.63,1.14,1.14,0,0,0-.34-.38,6,6,0,0,0,1.78-2.15,4.21,4.21,0,0,0,.25-.58l.55.16-.12.22-.36.64h3.95a4.43,4.43,0,0,0,.72,0l0,.54a4.53,4.53,0,0,0-.71,0h-1.8l-.12,1.3h1.44a4.67,4.67,0,0,0,.72,0l-.05.53a4.73,4.73,0,0,0-.7,0h-1.45l-.13,1.56h2a5.61,5.61,0,0,0,.81,0l-.05.57a6.07,6.07,0,0,0-.8,0h-2l-.11,1.31a3.73,3.73,0,0,0,0,.74h-.63a3.33,3.33,0,0,0,.11-.74l.12-1.31H215a6.44,6.44,0,0,0-.81,0l.06-.57a5.4,5.4,0,0,0,.79,0h.61Zm2.13,1.57.14-1.56h-1.76l-.13,1.56Z"/><path class="cls-3" d="M222.89,90.5a1.06,1.06,0,0,0,.42.75,1.63,1.63,0,0,0,1,.29,1.43,1.43,0,0,0,1.61-1.24c.07-.78-.46-1.21-1.51-1.21a4.63,4.63,0,0,0-.65,0l.06-.63a3.52,3.52,0,0,0,.58,0,1.71,1.71,0,0,0,1.2-.36,1.22,1.22,0,0,0,.39-.77c.06-.69-.39-1.09-1.19-1.09a1.39,1.39,0,0,0-1.1.42,1.73,1.73,0,0,0-.3.57l-.65-.14a2,2,0,0,1,.5-.8,2.24,2.24,0,0,1,1.63-.58c1.16,0,1.84.6,1.76,1.56a1.57,1.57,0,0,1-.66,1.16,1.77,1.77,0,0,1-.78.29,1.56,1.56,0,0,1,1,.34,1.31,1.31,0,0,1,.43,1.2c-.09,1.08-1,1.75-2.31,1.75a2.1,2.1,0,0,1-1.73-.65,2,2,0,0,1-.34-.78Z"/><path class="cls-3" d="M229,90a5.92,5.92,0,0,1-.43,1.23,5,5,0,0,1-1,1.39,1.65,1.65,0,0,0-.4-.43,3.7,3.7,0,0,0,1.08-1.56,13.34,13.34,0,0,0,.61-3.5c.07-.73.09-1.05.09-1.36a5.37,5.37,0,0,0,.83,0h3a5.3,5.3,0,0,0,.83,0c0,.22-.07.42-.11.82l-.45,5.25a.67.67,0,0,1-.28.55,1.15,1.15,0,0,1-.64.11l-1,0a2.08,2.08,0,0,0-.07-.55,7.24,7.24,0,0,0,1.13.08c.23,0,.3,0,.31-.24l.16-1.76Zm3.74-.48.12-1.42h-3.55c0,.44-.09.74-.21,1.42Zm.17-1.9.11-1.32h-3.54l-.11,1.13,0,.19Z"/><path class="cls-3" d="M238.5,87.52a2.57,2.57,0,0,0-.08.56,4.65,4.65,0,0,1-1,2.81,4.83,4.83,0,0,1-2.16,1.37,1.26,1.26,0,0,0-.32-.53,4.14,4.14,0,0,0,1.52-.73,3.69,3.69,0,0,0,1.43-3,2.13,2.13,0,0,0,0-.44Zm3.23-1a1.42,1.42,0,0,0-.22.32A5.42,5.42,0,0,1,239,89.11a1.31,1.31,0,0,0-.35-.45A4,4,0,0,0,240,87.9a4.59,4.59,0,0,0,1-1.19h-4.53a8.12,8.12,0,0,0-.94,0l0-.61a5.92,5.92,0,0,0,1,0h4.27c.54,0,.54,0,.69,0Z"/><path class="cls-3" d="M242.72,91.32a7.34,7.34,0,0,0,2.37-.61,6.8,6.8,0,0,0,3.56-3.54,1.53,1.53,0,0,0,.44.47,8,8,0,0,1-2.69,3,8.88,8.88,0,0,1-3.08,1.19,4.37,4.37,0,0,0-.49.12Zm.94-4.93a9.29,9.29,0,0,1,1.79,1.49l-.46.5a7.65,7.65,0,0,0-1.76-1.56Z"/><path class="cls-3" d="M254.67,87.64a6.3,6.3,0,0,1-.62,2.24,4.62,4.62,0,0,1-1.51,1.67,7.2,7.2,0,0,1-1.29.71,1,1,0,0,0-.34-.51,5.19,5.19,0,0,0,1.77-1,4.58,4.58,0,0,0,1.41-3.08h-2.2a8.13,8.13,0,0,1-1.54,1.69.94.94,0,0,0-.43-.37,6.57,6.57,0,0,0,1.89-2.2,5,5,0,0,0,.51-1.12l.59.2a2.87,2.87,0,0,0-.24.43,7.6,7.6,0,0,1-.49.87h3.7a6.88,6.88,0,0,0,1,0l-.05.58c-.22,0-.22,0-1,0Z"/><path class="cls-3" d="M257.63,88.63a5.45,5.45,0,0,0,1,.05h4.63a6.66,6.66,0,0,0,1,0l-.06.64c-.25,0-.43,0-1,0h-4.62c-.58,0-.75,0-1,0Z"/><path class="cls-3" d="M266.11,92.26a4.41,4.41,0,0,0,.12-.83l.44-5a4.71,4.71,0,0,0,0-.81h.69a4.89,4.89,0,0,0-.12.83L267.13,88a17.49,17.49,0,0,1,3.4,1.68l-.39.59a14.3,14.3,0,0,0-2.84-1.58.82.82,0,0,1-.23-.14h0a2.52,2.52,0,0,1,0,.47l-.21,2.4a5.41,5.41,0,0,0,0,.84Z"/><path class="cls-3" d="M271.91,92.57a5.94,5.94,0,0,0,.11-.77l.09-1.07c0-.25,0-.43,0-.65a2.15,2.15,0,0,0,.51,0h1.57a3.71,3.71,0,0,0-.08.61l-.08.93c0,.23,0,.38,0,.48l-.44,0h-1.14l0,.47Zm.27-5.79a3.62,3.62,0,0,0,.63,0h1.3a3.39,3.39,0,0,0,.64,0l-.05.51a4.2,4.2,0,0,0-.58,0h-1.34a5.48,5.48,0,0,0-.64,0Zm.07,2.22a3.48,3.48,0,0,0,.54,0h1a3.66,3.66,0,0,0,.54,0l0,.49a3.79,3.79,0,0,0-.53,0h-1a3.6,3.6,0,0,0-.53,0Zm.09-1.09a3.75,3.75,0,0,0,.54,0h1a3.51,3.51,0,0,0,.53,0l0,.49a3.84,3.84,0,0,0-.52,0h-1a3.91,3.91,0,0,0-.55,0Zm.14,3.78h1.14l.11-1.17h-1.15Zm.08-6a2.84,2.84,0,0,0,.57,0h1a3.09,3.09,0,0,0,.58,0l-.05.5a3.15,3.15,0,0,0-.57,0h-1a3.39,3.39,0,0,0-.58,0Zm6.06,6.2a.61.61,0,0,1-.26.5,1.15,1.15,0,0,1-.63.11l-.77,0a1.45,1.45,0,0,0,0-.51,5.56,5.56,0,0,0,.93.08c.23,0,.29,0,.31-.23l.49-5.64h-3l-.08.93a30.8,30.8,0,0,1-.54,4,4.72,4.72,0,0,1-.64,1.59.87.87,0,0,0-.38-.35,3.84,3.84,0,0,0,.6-1.52,33.22,33.22,0,0,0,.5-3.8,10.1,10.1,0,0,0,.06-1.27,5,5,0,0,0,.77,0h2.45a5,5,0,0,0,.78,0,6.89,6.89,0,0,0-.1.79Zm-.95-1a2.15,2.15,0,0,0,0,.43h-.2l-.37,0h-1l0,.52h-.46a3.89,3.89,0,0,0,.09-.6l.12-1.37c0-.22,0-.37,0-.52a4.28,4.28,0,0,0,.54,0h.91a4.29,4.29,0,0,0,.57,0,4.08,4.08,0,0,0-.07.49Zm-1.27-3.37a4.67,4.67,0,0,0-.57,0l0-.46a3.39,3.39,0,0,0,.55,0h.4V87a3.3,3.3,0,0,0,0-.62h.51a3.46,3.46,0,0,0-.1.63v.1h.42a3.37,3.37,0,0,0,.58,0l0,.46a4.3,4.3,0,0,0-.58,0h-.41l-.08.86h.53a2.27,2.27,0,0,0,.57,0l0,.48a2.92,2.92,0,0,0-.56,0h-1.46a2.9,2.9,0,0,0-.54,0l0-.48a2.11,2.11,0,0,0,.54,0h.5l.07-.86Zm-.28,3.37h1.13l.1-1.14h-1.13Z"/><path class="cls-3" d="M281.39,89.18c0-.33,0-.54,0-.8l.83,0h2.68l.88,0c0,.24-.07.52-.1.89l-.22,2.58h.56a5.61,5.61,0,0,0,.83,0l-.05.54a6.54,6.54,0,0,0-.84,0H280.6a6.44,6.44,0,0,0-.84,0l0-.54a4.44,4.44,0,0,0,.83,0h.52ZM283.52,86a2.79,2.79,0,0,0,0-.64h.59a3,3,0,0,0-.1.63l0,.19h2.42a6,6,0,0,0,.82,0l-.05.53a6.37,6.37,0,0,0-.8,0h-2a5.45,5.45,0,0,0,3,1.7,2.4,2.4,0,0,0-.33.5,7.19,7.19,0,0,1-1.69-.8,4.53,4.53,0,0,1-1.4-1.31c0,.23,0,.4,0,.51l0,.39a2.16,2.16,0,0,0,0,.51h-.57a2.28,2.28,0,0,0,.08-.52l0-.38c0-.14,0-.31.06-.49a7.77,7.77,0,0,1-3.24,2.08,1.62,1.62,0,0,0-.27-.44A7.67,7.67,0,0,0,283,86.66h-1.86a6.48,6.48,0,0,0-.8,0l.05-.53a5.56,5.56,0,0,0,.82,0h2.26Zm-1.87,5.81H285l.07-.74h-3.35Zm.1-1.17h3.34l.07-.7h-3.35Zm.1-1.13h3.34l.07-.71h-3.35Z"/><path class="cls-3" d="M288.93,89.93a8.37,8.37,0,0,1-.65,2.23l-.42-.21a6.21,6.21,0,0,0,.63-2.12Zm-.85-1.05.48,0h.19c.28-.32.39-.46.6-.72A7.65,7.65,0,0,0,288.3,87l.33-.37.28.31a5.71,5.71,0,0,0,.9-1.56l.49.21a1.21,1.21,0,0,0-.2.29,10.93,10.93,0,0,1-.92,1.37c.22.27.22.27.46.59a6.81,6.81,0,0,0,.89-1.38l.45.28a8.07,8.07,0,0,0-.6.78c-.31.42-.74,1-1.12,1.4.49,0,.85,0,1.25-.1a3.67,3.67,0,0,0-.25-.64l.39-.18a8.05,8.05,0,0,1,.51,1.44l-.43.2c0-.2-.06-.28-.09-.42-.27,0-.35,0-.76.08l-.23,2.55a5.68,5.68,0,0,0,0,.8h-.56a6.74,6.74,0,0,0,.11-.8l.22-2.51-.8,0a4.35,4.35,0,0,0-.49,0Zm2.54.92a12.48,12.48,0,0,1,.2,1.76l-.45.13a7.59,7.59,0,0,0-.15-1.77Zm1,2.78h-.53a5.74,5.74,0,0,0,.1-.75l.14-1.56a6.73,6.73,0,0,0,0-.72,5.16,5.16,0,0,0,.61,0h2.15a5.14,5.14,0,0,0,.64,0,5.79,5.79,0,0,0-.1.74l-.13,1.52a5.54,5.54,0,0,0,0,.77H294l0-.44h-2.34Zm.39-5.51a5.88,5.88,0,0,0-.8.05l0-.54a5.79,5.79,0,0,0,.8,0h1l0-.55a2.77,2.77,0,0,0,0-.64h.58a3.55,3.55,0,0,0-.1.66l-.05.53h1.15a6,6,0,0,0,.81,0l-.05.54a6,6,0,0,0-.8-.05h-1.15l-.11,1.23h.94a5.7,5.7,0,0,0,.8,0l0,.54a5.83,5.83,0,0,0-.79,0h-2.16a6.22,6.22,0,0,0-.8,0l.05-.54a5.72,5.72,0,0,0,.79,0h.73l.11-1.23Zm-.31,4.62h2.34L294.2,90h-2.34Z"/><path class="cls-3" d="M297.9,88.77a5.48,5.48,0,0,0-.95,0,4.84,4.84,0,0,0,.12-.87l.12-1.38a8,8,0,0,0,0-.87,4.63,4.63,0,0,0,.9,0h3.54a5,5,0,0,0,.93,0,7.75,7.75,0,0,0-.11.88L302.37,88a6.32,6.32,0,0,0,0,.87,5.21,5.21,0,0,0-.94,0h-1.58l-.06.73h2.54a4.83,4.83,0,0,0,.82-.06l-.05.56a6.39,6.39,0,0,0-.81,0H300a4.48,4.48,0,0,0,1.05,1,6.33,6.33,0,0,0,1.94.89,1.93,1.93,0,0,0-.33.51,7.24,7.24,0,0,1-1.9-1,5.13,5.13,0,0,1-1.12-1.15c0,.4,0,.48,0,.63l-.08.94a3.67,3.67,0,0,0,0,.86h-.6a4.63,4.63,0,0,0,.13-.86l.08-.93c0-.16,0-.37.07-.61A8.12,8.12,0,0,1,296,92.38a2,2,0,0,0-.29-.47,7.74,7.74,0,0,0,1.73-.8A5.75,5.75,0,0,0,298.87,90H296.8a5.83,5.83,0,0,0-.79,0l0-.56a4.08,4.08,0,0,0,.79.06h2.42l.06-.73Zm-.29-1.3-.08.88h1.83l.08-.88Zm.11-1.28-.08.86h1.83l.08-.86Zm2.13,2.16h2l.07-.88h-2Zm.11-1.3h2l.08-.86h-2Z"/><path class="cls-5" d="M193.4,26.73c0,1.92.83,2.52,3.08,2.52h5.06a43.57,43.57,0,0,0,5.86-.6l.16,4a52.22,52.22,0,0,1-5.71.36h-5.52c-4.82,0-6.92-1.95-6.92-6.3v-15l4.84.2c0,.31-.23.57-.85.65v7.34A73.54,73.54,0,0,0,204,15.35l2.6,3.68a.88.88,0,0,1-.47.11,2,2,0,0,1-.44-.06,94,94,0,0,1-12.24,4.54Zm11.77-11.17A23,23,0,0,0,202.5,12l1.69-1.27a23,23,0,0,1,2.8,3.5ZM209,14.39a28.41,28.41,0,0,0-2.69-3.47L208,9.62A22.65,22.65,0,0,1,210.85,13Z"/><path class="cls-5" d="M214.87,17.79a31.46,31.46,0,0,1,1.79,5.44l-3,.86a29.86,29.86,0,0,0-1.71-5.47Zm14.91.8a.66.66,0,0,1-.7.36c-2.15,7.68-6.3,12.14-12,14.47A13.34,13.34,0,0,0,214.92,31c5.24-1.89,9.31-6,11-13.64ZM221,16.78a31.63,31.63,0,0,1,1.27,5.62l-3.19.68a33.52,33.52,0,0,0-1.27-5.68Z"/><path class="cls-5" d="M253.53,17a1.49,1.49,0,0,1-.64.54c-3.17,9.08-7.11,13.49-13.59,16.76a14.79,14.79,0,0,0-3-3c5.89-2.72,9.39-6.35,11.41-12.24h-6.48a24.6,24.6,0,0,1-5.16,5.47A20.65,20.65,0,0,0,232.89,22c3.35-2.21,6.51-6.72,7.94-11.18l4.93,1.09a1,1,0,0,1-.89.52c-.39.83-1,2.15-1.4,2.93h6.23l.57-.26Zm-4.27-6.79a22.29,22.29,0,0,1,3.24,3.19l-1.71,1.53a23,23,0,0,0-3.14-3.27Zm4.3-.65a20.32,20.32,0,0,1,3.19,3.16L255,14.21A23,23,0,0,0,252,11Z"/><path class="cls-5" d="M276.23,14.37V32h-4.05v-1.4H261.29v1.43h-3.94V14.37ZM272.15,27V18H261.26v9Z"/><path class="cls-5" d="M278.77,20.12h21.65v3.94H279.91a1.4,1.4,0,0,1-.93.5Z"/><path class="cls-5" d="M318,9.91a20.37,20.37,0,0,1,3,3.29l-.73.57,3,1.45a1.28,1.28,0,0,1-.6.52c-2.44,9.67-6.66,15-15.19,18.46a27.32,27.32,0,0,0-2.73-3.27c7.91-2.74,11.65-7.77,12.86-13.19H303.09V14h15.69a24.4,24.4,0,0,0-2.44-2.9Zm5.79,4.35a24.27,24.27,0,0,0-2.86-3.37l1.64-1.32a19.77,19.77,0,0,1,3,3.32Z"/><path class="cls-6" d="M341.94,21.81a1.25,1.25,0,0,1-1.09.66c-2.26,5.41-4.55,10.18-13.77,12.92a9.35,9.35,0,0,0-1.66-4c7.92-2,9.35-5.44,11-10.09Zm5.44,7.73c-.32,1.2-.23,1.35.68,1.35h2.2c.91,0,1.24-.66,2.52-4.84a10.09,10.09,0,0,0,3.65,1.86c-2,5.69-3.51,7.26-6.91,7.26h-3.33c-4,0-4.56-1.42-3.44-5.6l2.3-8.58H329.12l1.15-4.3h11.82l3-11.26,5.56.29c-.14.37-.48.59-1.16.69l-2.76,10.28h12.13L357.72,21h-7.51a2.27,2.27,0,0,1-.58.16ZM339.15,6.66a27.06,27.06,0,0,1,1.31,7.54L335.52,16a30.25,30.25,0,0,0-.91-7.76Zm10.52,7.54a51.25,51.25,0,0,0,5.58-7.7L360,8.58a1.47,1.47,0,0,1-1.18.4,62.21,62.21,0,0,1-5.69,7Z"/><path class="cls-3" d="M68.09,20.89c.06-.39.11-.72.14-1.07a10.25,10.25,0,0,0,1.19.05H77a8.46,8.46,0,0,0,1.16-.05,10.38,10.38,0,0,0-.23,1.06l-.54,3.06c-.09.51-.2.75-.44.91a2.17,2.17,0,0,1-1.26.23h-.56a4.71,4.71,0,0,1-.56,0,2.46,2.46,0,0,0,0-1c.61.06,1,.09,1.44.09s.34,0,.37-.24l.56-3.17H69.17L68.59,24a8.91,8.91,0,0,0-.15,1.27h-1.2a8.6,8.6,0,0,0,.3-1.27Zm5.28-5.82a3.55,3.55,0,0,0,.07-.77h1.22a4.57,4.57,0,0,0-.2.77l0,.18H78a8.64,8.64,0,0,0,1.22-.07l-.18,1a8.48,8.48,0,0,0-1.2-.06H69.76a8.8,8.8,0,0,0-1.21.06l.19-1a8.24,8.24,0,0,0,1.23.07h3.37Zm1.7,7.9c-.06.37-.09.57-.11.81a9.82,9.82,0,0,0-1,0H71l-.11.62h-1a6.08,6.08,0,0,0,.23-1l.23-1.32a6.16,6.16,0,0,0,.1-.8c.27,0,.52,0,1,0h3.08c.43,0,.69,0,1,0a4.84,4.84,0,0,0-.17.77Zm-4.88-5.43a7.81,7.81,0,0,0,.12-.88,8.23,8.23,0,0,0,1.13.05h4.71a7.67,7.67,0,0,0,1-.05c-.08.32-.12.48-.19.88l-.16.91a5.2,5.2,0,0,0-.12.89,8.12,8.12,0,0,0-1.09-.05H70.94a9.05,9.05,0,0,0-1.1.05,8.13,8.13,0,0,0,.19-.89Zm.86.93h4.77l.16-.95H71.21Zm0,4.48h3l.15-.85h-3Z"/><path class="cls-3" d="M79.76,19a5.63,5.63,0,0,0,.92.06h.76a6.22,6.22,0,0,0,.91-.06,10.28,10.28,0,0,0-.28,1.27l-.43,2.43c.46,1,1,1.27,2.84,1.27a44.5,44.5,0,0,0,5.41-.24,5.65,5.65,0,0,0-.54,1.19c-1.09,0-2.49.07-3.72.07a11.77,11.77,0,0,1-3.3-.24A2.1,2.1,0,0,1,81,23.53a13.48,13.48,0,0,1-1.52,1.12,6.55,6.55,0,0,0-.55.38l-.31-1.11a9.91,9.91,0,0,0,2-1.27L81.08,20h-.67a5.53,5.53,0,0,0-.84.06Zm1.64-4.41A12,12,0,0,1,83,16.67l-1,.8a10.08,10.08,0,0,0-1.54-2.21Zm2.95,1.87a6.7,6.7,0,0,0-1.09.06l.19-1a6.45,6.45,0,0,0,1.21.07h1.88l0-.32a5.26,5.26,0,0,0,.09-.81h1.1a5.27,5.27,0,0,0-.19.76l-.07.37h2.25A6.45,6.45,0,0,0,91,15.42l-.19,1a5.86,5.86,0,0,0-1-.06h-2.4l-.14.77h1.83a7.63,7.63,0,0,0,1.13-.06A9.1,9.1,0,0,0,90,18.19l-.18,1a9.1,9.1,0,0,0-.14,1.1,8,8,0,0,0-1.14-.05H87.2a4.86,4.86,0,0,0,.86.85,6.36,6.36,0,0,0,2,1.09,5.54,5.54,0,0,0-.72,1A7.42,7.42,0,0,1,87.61,22a5.51,5.51,0,0,1-1.06-1.24c0,.26-.06.53-.13.95l-.16.92a4.23,4.23,0,0,0-.1.88h-1.1a8,8,0,0,0,.22-.88l.16-.93c.06-.36.08-.43.19-.9A11.31,11.31,0,0,1,82.48,23a2.8,2.8,0,0,0-.47-.89,10.13,10.13,0,0,0,3.21-1.91H84.09a8.94,8.94,0,0,0-1.15.05,8.08,8.08,0,0,0,.23-1.08l.17-.94c.08-.47.12-.75.15-1.12a7.83,7.83,0,0,0,1.15.06h1.6l.14-.77Zm0,1.67-.22,1.26h1.72l.22-1.26Zm2.48,1.26h1.88L89,18.08H87.06Z"/><path class="cls-3" d="M95,19.77A1.55,1.55,0,0,1,93.59,21a1,1,0,0,1-1-1.24A1.55,1.55,0,0,1,94,18.54,1,1,0,0,1,95,19.77Z"/><path class="cls-3" d="M97.58,20.89a8.74,8.74,0,0,0,.14-1.07,10.33,10.33,0,0,0,1.2.05h7.53a8.63,8.63,0,0,0,1.17-.05,10.38,10.38,0,0,0-.23,1.06l-.54,3.06c-.09.51-.21.75-.45.91a2.15,2.15,0,0,1-1.26.23h-.55a4.71,4.71,0,0,1-.56,0,2.46,2.46,0,0,0,0-1,14.31,14.31,0,0,0,1.44.09c.27,0,.34,0,.37-.24l.56-3.17h-7.7L98.09,24a6.72,6.72,0,0,0-.15,1.27h-1.2A8.6,8.6,0,0,0,97,24Zm5.29-5.82a3.51,3.51,0,0,0,.06-.77h1.22a4.56,4.56,0,0,0-.19.77l0,.18h3.57a8.54,8.54,0,0,0,1.22-.07l-.18,1a8.32,8.32,0,0,0-1.2-.06H99.26a8.8,8.8,0,0,0-1.21.06l.18-1a8.42,8.42,0,0,0,1.23.07h3.38Zm1.7,7.9a6.85,6.85,0,0,0-.11.81,10,10,0,0,0-1,0h-3l-.11.62h-1a5.15,5.15,0,0,0,.23-1l.24-1.32c.06-.35.08-.57.1-.8.27,0,.52,0,.95,0h3.08c.44,0,.69,0,1,0-.06.22-.1.4-.17.77Zm-4.88-5.43a7.81,7.81,0,0,0,.12-.88,8.23,8.23,0,0,0,1.13.05h4.71a7.76,7.76,0,0,0,1-.05c-.08.32-.12.48-.19.88l-.16.91a7,7,0,0,0-.13.89,8,8,0,0,0-1.09-.05h-4.69a9,9,0,0,0-1.09.05c.06-.25.12-.48.19-.89Zm.85.93h4.77l.17-.95h-4.77Zm0,4.48h3l.15-.85h-3Z"/><path class="cls-3" d="M109,21c.08-.43.13-.79.16-1.13.34,0,.64,0,1.11,0h2.45c.37,0,.63,0,.93,0a8.38,8.38,0,0,0-.22,1.06l-.53,3a8.32,8.32,0,0,0-.14,1.1h-1.08l.08-.46h-2.35l-.11.67h-1.1a10.62,10.62,0,0,0,.28-1.26Zm.58,2.62h2.35l.48-2.76H110Zm2-7.86a9.33,9.33,0,0,0,.13-1,10.86,10.86,0,0,0,1.33.06h4.23a10.68,10.68,0,0,0,1.35-.06,7.71,7.71,0,0,0-.23,1l-.37,2.1a8.27,8.27,0,0,0-.15,1.08,11.79,11.79,0,0,0-1.22-.05h-4.44c-.59,0-.9,0-1.24.05.09-.32.16-.65.24-1.06Zm.67,2.18h4.68l.38-2.18h-4.68Zm2.22,2.92c.09-.53.11-.72.14-1,.28,0,.53,0,.91,0h2.77a9.6,9.6,0,0,0,1.05,0A10.24,10.24,0,0,0,119,21l-.53,3a8,8,0,0,0-.16,1.25h-1.11l.11-.67h-2.56l-.12.67h-1.08a10.87,10.87,0,0,0,.24-1.1Zm.54,2.76h2.58l.49-2.76h-2.58Z"/><path class="cls-3" d="M124.07,24a11.28,11.28,0,0,1-4,1.3,2.69,2.69,0,0,0-.37-1,8.29,8.29,0,0,0,3.6-1Zm-1.35-7a5.23,5.23,0,0,1-1.46,2.29,3.68,3.68,0,0,0-.68-.83,4.34,4.34,0,0,0,1.51-2.93,4.14,4.14,0,0,0,.06-.7h.25a17.82,17.82,0,0,0,2-.15A6.91,6.91,0,0,0,126,14.2l.5.83a14.1,14.1,0,0,1-3.44.54c0,.23-.07.3-.1.49h2.45a5.6,5.6,0,0,0,.91,0l-.17,1a7.45,7.45,0,0,0-.88,0h-.38l-.09.47s0,.07,0,.13l0,.18c0,.13,0,.15,0,.26h-1.07a2.22,2.22,0,0,0,.09-.28.52.52,0,0,1,0-.16.63.63,0,0,0,0-.12l.08-.48Zm8.14-.89a6.41,6.41,0,0,0,.94,0l-.17,1a6.12,6.12,0,0,0-.93-.06h-.83l-.09.52s0,.06,0,.11,0,.12,0,.23a1.2,1.2,0,0,0,0,.2h-1.06c0-.12.1-.39.12-.51l.1-.55H127.5a3.84,3.84,0,0,1-.78,1.29h2.1c.58,0,1,0,1.33,0a12.22,12.22,0,0,0-.32,1.46L129.42,22a9,9,0,0,0-.18,1.34c-.3,0-.7-.05-1.26-.05h-5.42c-.54,0-1,0-1.28.05a9.32,9.32,0,0,0,.3-1.37l.42-2.35a12.9,12.9,0,0,0,.19-1.45c.35,0,.73,0,1.26,0h2.93a2.49,2.49,0,0,0-.55-.57,3,3,0,0,0,.92-1.55,6.86,6.86,0,0,0,.24-1c0-.11,0-.2,0-.36a1.7,1.7,0,0,0,.34,0c.31,0,1.13-.06,1.65-.12a7.88,7.88,0,0,0,2-.45l.53.83-.9.19a15.07,15.07,0,0,1-2.73.33c0,.24-.07.32-.11.5Zm-8.33,6.39h5.78l.11-.63h-5.78Zm.25-1.4h5.77l.11-.6h-5.78Zm.24-1.37h5.78l.11-.64h-5.78Zm4.08,3.67a7.06,7.06,0,0,0,3.31,1,5.36,5.36,0,0,0-.7,1A8,8,0,0,1,126.13,24Z"/><path class="cls-3" d="M137.4,14.67a4.13,4.13,0,0,0-.32.77c-.15.38-.26.63-.48,1.15a9.58,9.58,0,0,0,2-.36l-.15,1.15a2.4,2.4,0,0,0-.42.06c-.45.08-1.16.17-1.94.23a30.22,30.22,0,0,1-1.91,3.44c-.38.58-.52.78-1.13,1.6-.12.17-.23.31-.29.42l-1-.66a11.32,11.32,0,0,0,1.49-1.89,21.46,21.46,0,0,0,1.65-2.88H133l.2-1.13a8.56,8.56,0,0,0,1.49.09h.71a12.85,12.85,0,0,0,.77-2.12Zm3.81,9.43a5.17,5.17,0,0,0-1.64-1.52,1.71,1.71,0,0,1,0,.25,2.48,2.48,0,0,1-.65,1.24,3,3,0,0,1-2,.7c-1.52,0-2.35-.71-2.15-1.83a2.66,2.66,0,0,1,2.81-2,6,6,0,0,1,1.17.13c.06-.6.12-1.05.2-1.51a6.22,6.22,0,0,1,.29-1.13l1.13.08a4.4,4.4,0,0,0-.35,1.14,15.25,15.25,0,0,0-.18,1.72,6.34,6.34,0,0,1,1.75,1.13c.22.2.22.22.31.3L142,23ZM137.39,22c-.85,0-1.46.35-1.55.9s.32.84,1.14.84,1.37-.37,1.49-1.09c0-.13.06-.44.06-.45A3.3,3.3,0,0,0,137.39,22Zm4.81-3.28a11.13,11.13,0,0,0-3-1.65l.76-.93a13.78,13.78,0,0,1,3,1.56Z"/><path class="cls-3" d="M149,15.65a8.85,8.85,0,0,0,.13-1.14h1.23a8.41,8.41,0,0,0-.27,1.14l-.53,3h3.46c.49,0,.89,0,1.31-.07l-.19,1.12a9.08,9.08,0,0,0-1.28-.07h-2.36l-.72,4.07c-.05.3.05.32,1.13.32.9,0,1.22-.05,1.38-.23a5.68,5.68,0,0,0,.57-1.76,2.63,2.63,0,0,0,1,.42c-.37,1.41-.65,2-1.1,2.3s-.8.29-2.14.29c-1.14,0-1.46,0-1.73-.21s-.27-.34-.18-.83l.77-4.37H148a8.15,8.15,0,0,1-.67,2.12,6.38,6.38,0,0,1-4.17,3.45,3.13,3.13,0,0,0-.53-1,5.84,5.84,0,0,0,2.91-1.62,5.66,5.66,0,0,0,1.18-2.11c.07-.25.11-.41.21-.87h-1.85a10.85,10.85,0,0,0-1.3.07l.2-1.12a12.23,12.23,0,0,0,1.29.07h3.22Zm-2.83-.6a12.45,12.45,0,0,1,1.32,2.66l-1.08.58a9.07,9.07,0,0,0-1.29-2.75Zm7.86.45a16.81,16.81,0,0,1-2.4,2.9l-.85-.54A12.61,12.61,0,0,0,153.12,15Z"/><path class="cls-3" d="M163.54,25.22l.12-.67H156l-.12.67h-1.16a13.26,13.26,0,0,0,.33-1.49l1.31-7.41a13.26,13.26,0,0,0,.18-1.45,11.11,11.11,0,0,0,1.38.06h7.2a11.65,11.65,0,0,0,1.4-.06c-.12.44-.21.83-.32,1.45l-1.31,7.42a9.8,9.8,0,0,0-.19,1.48Zm-7.37-1.64h7.66l1.35-7.67h-7.66Zm6.05-6.13c.53,0,.88,0,1.19,0a7,7,0,0,0-.21.93l-.48,2.75a8.05,8.05,0,0,0-.12.92c-.34,0-.67,0-1.17,0h-2.35a11.54,11.54,0,0,0-1.18,0,8.27,8.27,0,0,0,.21-.92l.48-2.75a5.65,5.65,0,0,0,.12-.93,11.69,11.69,0,0,0,1.17,0ZM159.15,21h2.53l.47-2.66h-2.53Z"/><path class="cls-3" d="M168.28,21.05a13.59,13.59,0,0,1-1.18,3.54l-.78-.42a12.46,12.46,0,0,0,1.12-3.25Zm-1.12-1.64a4,4,0,0,0,.49,0h.44c.47-.48.59-.61.9-1a10.51,10.51,0,0,0-1.36-1.78l.68-.81a5.55,5.55,0,0,1,.41.49,9.06,9.06,0,0,0,1.39-2.11l.92.38a3.46,3.46,0,0,0-.36.49,22.36,22.36,0,0,1-1.45,1.9c.2.3.25.37.44.67a14.56,14.56,0,0,0,1.49-2l.83.49-1.1,1.34c-.41.49-1.16,1.33-1.71,1.91.56,0,1-.06,1.55-.11a8.15,8.15,0,0,0-.23-1l.8-.32a12.31,12.31,0,0,1,.4,2.21l-.85.37c0-.23,0-.3,0-.49l-.36.05-.62.06L169.16,24a6.65,6.65,0,0,0-.14,1.22h-1.11A9,9,0,0,0,168.2,24l.66-3.72-1.18.07-.58.07Zm6.49,1.49-.34.59a9.32,9.32,0,0,1-2.85,3.26,2.28,2.28,0,0,0-.55-.78,7.42,7.42,0,0,0,2.55-2.62h-.62a4,4,0,0,0-.74,0l.17-1a3.59,3.59,0,0,0,.75.05h.74a2.6,2.6,0,0,0,.57,0Zm-2.87,0a16.53,16.53,0,0,1,0,2.32l-.85.24a14.57,14.57,0,0,0,0-2.37Zm3.66-5.56a6.36,6.36,0,0,0,.53-1.07l1.08.18c-.21.37-.36.62-.54.89h1.39a8.13,8.13,0,0,0,1.14-.05c-.09.35-.15.61-.25,1.16l-.36,2a9.64,9.64,0,0,0-.15,1.11c-.31,0-.66,0-1.11,0H175.1a5.08,5.08,0,0,0,.37,1.65,10.31,10.31,0,0,0,1.59-1.41l.61.65a20,20,0,0,1-1.87,1.51,5.59,5.59,0,0,0,1.62,1.9,4.58,4.58,0,0,0-.82,1,5.37,5.37,0,0,1-1.1-1.33,6.81,6.81,0,0,1-.86-2.34c-.09,1-.18,1.68-.35,2.66-.12.67-.2.87-.47,1.05a1.86,1.86,0,0,1-1.06.22h-.83a2.86,2.86,0,0,0-.09-1,7,7,0,0,0,1,.1c.31,0,.39-.05.43-.26l.76-4.33H173c-.45,0-.83,0-1.15,0a10.23,10.23,0,0,0,.24-1.12l.36-2.05a10.27,10.27,0,0,0,.16-1.14,8.06,8.06,0,0,0,1.13.05ZM173,18.69h3.35l.16-.87h-3.35Zm.3-1.71h3.35l.15-.84h-3.35Z"/><polygon class="cls-7" points="177.16 29.68 65.99 29.68 66.4 27.33 177.58 27.33 177.16 29.68"/></g></svg>