<?xml version="1.0" encoding="utf-8"?>
<!-- Generator: Adobe Illustrator 26.0.3, SVG Export Plug-In . SVG Version: 6.00 Build 0)  -->
<svg version="1.1" id="レイヤー_1" xmlns="http://www.w3.org/2000/svg" xmlns:xlink="http://www.w3.org/1999/xlink" x="0px"
	 y="0px" width="356px" height="89px" viewBox="0 0 356 89" style="enable-background:new 0 0 356 89;" xml:space="preserve">
<style type="text/css">
	.st0{fill:#FFFFFF;}
	.st1{fill:#008BD5;}
	.st2{fill:#35308E;}
</style>
<g>
	<path class="st0" d="M5.2,0h345.5c2.9,0,5.2,2.3,5.2,5.2v78.5c0,2.9-2.3,5.2-5.2,5.2H5.2C2.3,89,0,86.7,0,83.8V5.2
		C0,2.3,2.3,0,5.2,0z"/>
	<g>
		<g>
			<g>
				<path d="M29.1,26.9h-1.8L15.9,13.1h1.8L29.1,26.9z"/>
			</g>
			<g>
				<path d="M41.9,17.9c-0.3,0.3-0.5,0.5-0.9,0.7c0.6,0.7,0.9,1.1,1.3,2.1c0.6,1.3,0.8,2.5,0.8,3.7c0,1-0.2,1.6-0.6,2
					c-0.3,0.2-0.7,0.3-1.5,0.3c-0.4,0-1,0-1.6-0.1c-0.1-0.6-0.1-0.8-0.3-1.3c0.7,0.1,1.3,0.2,1.8,0.2c0.8,0,0.9-0.3,0.9-1.6
					c0-0.3,0-0.5,0-0.8c-1.5,1.2-3.2,2.1-5.6,3c-0.3-0.5-0.4-0.8-0.7-1.1c2.2-0.6,4.6-1.8,6.1-3.1c-0.1-0.4-0.2-0.6-0.4-1
					c-1.5,1.1-3,1.8-4.9,2.4c-0.2-0.4-0.4-0.7-0.7-1.1c2.1-0.6,3.7-1.3,5.1-2.3c-0.2-0.3-0.3-0.4-0.6-0.8c-0.9,0.6-2,1-3.5,1.5
					c-0.2-0.5-0.4-0.7-0.7-1.1c2-0.4,3.3-0.9,4.4-1.7h-1.4c-0.5,0-0.9,0-1.4,0.1v-1.3c0.4,0.1,0.7,0.1,1.4,0.1h5.8
					c0.7,0,1,0,1.4-0.1v1.3c-0.4,0-0.9-0.1-1.4-0.1h-1.2c0.2,1,0.4,1.6,0.7,2.5c0.9-0.7,1.6-1.4,2-2l1.1,0.9
					c-0.1,0.1-0.1,0.1-0.2,0.2C47,19.5,47,19.6,46.6,20c-0.6,0.5-0.9,0.8-1.7,1.4c0.8,1.3,1.9,2.4,3.5,3.4c-0.3,0.3-0.6,0.6-0.9,1.2
					c-1.2-0.9-1.8-1.4-2.4-2.2c-1.2-1.5-2-3.4-2.6-5.9H41.9z M41.1,14.1c0-0.3,0-0.6-0.1-0.9h1.5c-0.1,0.3-0.1,0.5-0.1,0.9v0.4h4
					c0.7,0,1,0,1.5-0.1c0,0.3-0.1,0.5-0.1,1v1.1c0,0.4,0,0.7,0.1,1h-1.3v-1.9h-9.5v1.9h-1.3c0-0.3,0.1-0.6,0.1-1v-1.1
					c0-0.4,0-0.7-0.1-1c0.5,0,0.8,0.1,1.5,0.1h3.7V14.1z"/>
			</g>
			<g>
				<path d="M49.9,15.5c0.3,0,0.3,0,0.5,0c0.3,0,0.4,0,0.9,0c1.6-0.1,5-0.3,8.3-0.5c1,0,1.4-0.1,1.6-0.1l0.1,1.6c-0.1,0-0.2,0-0.2,0
					c-0.8,0-1.8,0.3-2.6,0.7c-1.9,1-3.1,2.6-3.1,4.2c0,1.2,0.7,2.1,1.9,2.5c0.6,0.2,1.6,0.4,2.1,0.4c0.1,0,0.1,0,0.3,0l-0.2,1.7
					c-0.2,0-0.2,0-0.5-0.1c-1.5-0.2-2.3-0.5-3.2-1c-1.2-0.8-1.8-1.9-1.8-3.4c0-1.4,0.6-2.7,1.8-3.9c0.6-0.6,0.9-0.8,1.7-1.2
					c-1,0.1-1.5,0.2-3,0.3c-2.4,0.2-3.6,0.3-4.4,0.5L49.9,15.5z M59.7,19.9c-0.4-0.9-0.7-1.4-1.2-2l0.9-0.5c0.5,0.6,0.8,1.1,1.2,2
					L59.7,19.9z M61.2,19.1c-0.4-0.8-0.7-1.3-1.2-1.9l0.9-0.5c0.5,0.6,0.8,1.1,1.2,1.9L61.2,19.1z"/>
			</g>
			<g>
				<path d="M64,19.3c0.4,0.2,0.8,0.3,1.4,0.4c0.1,0,0.4,0.1,1.1,0.2c0.1-0.6,0.2-1.7,0.3-2.3c-1-0.1-1.1-0.1-2-0.4
					c-0.2,0-0.3-0.1-0.5-0.1l0.1-1.4C65,16,66,16.2,67,16.3c0.2-1.2,0.3-2.2,0.3-2.5v-0.1c0-0.1,0-0.1,0-0.1l1.6,0.1
					c-0.1,0.3-0.1,0.4-0.2,1c0,0.1,0,0.1-0.1,0.8c-0.1,0.3-0.1,0.5-0.1,0.8c0.2,0,0.4,0,0.5,0c1.1,0,2-0.1,2.7-0.3l-0.1,1.4
					c-0.2,0-0.2,0-0.6,0.1c-0.9,0.1-1.3,0.1-1.8,0.1c-0.2,0-0.4,0-1.1,0C68,19.1,68,19.4,67.9,20c0.4,0,0.6,0,0.8,0
					c1,0,2-0.1,2.6-0.3l0,1.4c-0.1,0-0.2,0-0.4,0c-0.6,0.1-1.4,0.1-2,0.1c-0.3,0-0.4,0-1,0c0,0.6-0.1,0.9-0.1,1.2
					c0,0.8,0.2,1.3,0.6,1.6c0.4,0.4,1,0.6,1.8,0.6c1.8,0,2.9-0.9,2.9-2.4c0-0.9-0.4-1.7-1.3-2.5c0.6-0.1,0.9-0.1,1.4-0.3
					c0.4,0.4,0.5,0.6,0.7,0.9c0.4,0.7,0.6,1.4,0.6,2.2c0,1-0.5,2-1.3,2.7c-0.8,0.6-1.8,0.9-3,0.9c-1.2,0-2.2-0.3-2.8-0.9
					c-0.6-0.6-1-1.5-1-2.7c0-0.4,0-0.6,0.1-1.3c-0.8-0.1-1.4-0.2-2-0.4c-0.3-0.1-0.3-0.1-0.5-0.1L64,19.3z"/>
			</g>
			<g>
				<path d="M79.6,18.6c0.8,0.6,1.2,1,1.7,1.6c0.5-1.2,0.7-2,1-3.7H80c-0.7,1.7-1.5,3.2-2.7,4.6c-0.3-0.5-0.4-0.7-0.8-1.2
					c1.2-1.3,2.1-2.9,2.7-4.8c0.2-0.6,0.4-1.4,0.4-1.9l1.4,0.3c-0.1,0.3-0.2,0.5-0.3,0.8c-0.1,0.3-0.2,0.6-0.3,1h2.1
					c0.5,0,0.8,0,1.1,0c-0.1,0.3-0.1,0.4-0.1,0.8c0.3,0.8,0.8,1.7,1.5,2.5V15c0-0.7,0-1.1-0.1-1.6h1.5c-0.1,0.5-0.1,0.9-0.1,1.6v4.9
					c1,0.9,2.1,1.6,3.3,2.1c-0.3,0.4-0.5,0.8-0.7,1.3c-1-0.6-1.8-1.1-2.6-1.8v3.4c0,0.9,0,1.3,0.1,1.9h-1.5c0.1-0.6,0.1-1.1,0.1-1.9
					v-4.6c-0.8-0.9-1.3-1.5-1.8-2.5c-0.4,2-1,3.7-1.9,5.1c-0.9,1.4-2.1,2.7-3.6,3.8c-0.3-0.5-0.6-0.8-1-1.1c1-0.6,1.9-1.4,2.7-2.4
					c0.5-0.6,0.8-1.1,1.2-1.8c-0.6-0.7-1.1-1.2-1.8-1.8L79.6,18.6z"/>
			</g>
			<g>
				<path d="M89.7,15.5c0.3,0,0.3,0,0.5,0c0.3,0,0.4,0,0.9,0c1.6-0.1,5-0.3,8.3-0.5c1,0,1.4-0.1,1.6-0.1l0.1,1.6c-0.1,0-0.2,0-0.2,0
					c-0.8,0-1.8,0.3-2.6,0.7c-1.9,1-3.1,2.6-3.1,4.2c0,1.2,0.7,2.1,1.9,2.5c0.6,0.2,1.6,0.4,2.1,0.4c0.1,0,0.1,0,0.3,0l-0.2,1.7
					c-0.2,0-0.2,0-0.5-0.1c-1.5-0.2-2.3-0.5-3.2-1c-1.2-0.8-1.8-1.9-1.8-3.4c0-1.4,0.6-2.7,1.8-3.9c0.6-0.6,0.9-0.8,1.7-1.2
					c-1,0.1-1.5,0.2-3,0.3c-2.4,0.2-3.6,0.3-4.4,0.5L89.7,15.5z M99.5,19.9c-0.4-0.9-0.7-1.4-1.2-2l0.9-0.5c0.5,0.6,0.8,1.1,1.2,2
					L99.5,19.9z M100.9,19.1c-0.4-0.8-0.7-1.3-1.2-1.9l0.9-0.5c0.5,0.6,0.8,1.1,1.2,1.9L100.9,19.1z"/>
			</g>
			<g>
				<path d="M103.8,19.3c0.4,0.2,0.8,0.3,1.4,0.4c0.1,0,0.4,0.1,1.1,0.2c0.1-0.6,0.2-1.7,0.3-2.3c-1-0.1-1.1-0.1-2-0.4
					c-0.2,0-0.3-0.1-0.5-0.1l0.1-1.4c0.6,0.3,1.5,0.5,2.5,0.6c0.2-1.2,0.3-2.2,0.3-2.5v-0.1c0-0.1,0-0.1,0-0.1l1.6,0.1
					c-0.1,0.3-0.1,0.4-0.2,1c0,0.1,0,0.1-0.1,0.8c-0.1,0.3-0.1,0.5-0.1,0.8c0.2,0,0.4,0,0.5,0c1.1,0,2-0.1,2.7-0.3l-0.1,1.4
					c-0.2,0-0.2,0-0.6,0.1c-0.9,0.1-1.3,0.1-1.8,0.1c-0.2,0-0.4,0-1.1,0c-0.2,1.4-0.2,1.7-0.3,2.3c0.4,0,0.6,0,0.8,0
					c1,0,2-0.1,2.6-0.3l0,1.4c-0.1,0-0.2,0-0.4,0c-0.6,0.1-1.4,0.1-2,0.1c-0.3,0-0.4,0-1,0c0,0.6-0.1,0.9-0.1,1.2
					c0,0.8,0.2,1.3,0.6,1.6c0.4,0.4,1,0.6,1.8,0.6c1.8,0,2.9-0.9,2.9-2.4c0-0.9-0.4-1.7-1.3-2.5c0.6-0.1,0.9-0.1,1.4-0.3
					c0.4,0.4,0.5,0.6,0.7,0.9c0.4,0.7,0.6,1.4,0.6,2.2c0,1-0.5,2-1.3,2.7c-0.8,0.6-1.8,0.9-3,0.9c-1.2,0-2.2-0.3-2.8-0.9
					c-0.6-0.6-1-1.5-1-2.7c0-0.4,0-0.6,0.1-1.3c-0.8-0.1-1.4-0.2-2-0.4c-0.3-0.1-0.3-0.1-0.5-0.1L103.8,19.3z"/>
			</g>
			<g>
				<path d="M117.6,20.5c0-0.6,0-0.9,0-1.7c-0.3,0.7-0.6,1.1-1.1,1.8c-0.2-0.6-0.3-0.9-0.6-1.4c1.3-1.6,2.5-4.1,2.7-6.1l1.3,0.3
					c-0.2,0.6-0.2,0.6-0.4,1.3c-0.2,0.5-0.4,1.1-0.8,2v8.3c0,0.6,0,1.2,0.1,1.7h-1.4c0.1-0.6,0.1-1,0.1-1.7V20.5z M121.3,21.4
					c-0.5,0-0.8,0-1.2,0.1c0-0.4,0-0.7,0-1.1v-2c0-0.6,0-0.8,0-1.2c0.4,0,0.6,0,1.3,0h2.2c0-0.3,0-0.3,0-0.4c0,0,0-0.4,0-0.8h-2.4
					c-0.6,0-1,0-1.3,0.1v-1.4c0.4,0.1,0.9,0.1,1.4,0.1h2.3c0-0.8,0-1.1-0.1-1.6h1.4c0,0.4-0.1,0.7-0.1,1.6h2.7c0.6,0,1.1,0,1.5-0.1
					V16c-0.4-0.1-0.8-0.1-1.4-0.1h-2.8c0,0.7,0,0.7,0,1.2h2.1c0.6,0,0.9,0,1.3,0c0,0.4,0,0.7,0,1.2v1.8c0,0.7,0,0.9,0,1.3
					c-0.4,0-0.7-0.1-1.4-0.1h-2.4c-0.2,1-0.4,1.7-0.8,2.3c1.4,0.9,3.1,1.4,5.4,1.6c-0.2,0.4-0.4,0.9-0.5,1.4c-2.3-0.3-4-0.9-5.5-2
					c-0.9,0.9-1.6,1.4-3.2,2.1c-0.2-0.5-0.5-0.8-0.7-1.2c1.5-0.5,2.3-0.9,3.1-1.7c-0.4-0.4-0.6-0.6-1.3-1.4c0,0-0.1-0.1-0.1-0.1
					l1.1-0.6c0.2,0.4,0.5,0.8,1,1.3c0.3-0.5,0.4-0.9,0.5-1.6H121.3z M121.4,18.4v1.9h2.1c0.1-0.7,0.1-1,0.1-1.9H121.4z M124.8,18.4
					c0,0.8,0,1.2-0.1,1.9h2.3v-1.9H124.8z"/>
			</g>
			<g>
				<path d="M132.3,17.5c0.4,0,0.5,0,1,0c1.2,0,3.7-0.2,5-0.4c0.3-0.1,0.5-0.1,0.7-0.2l0.8,1.1c-0.3,0.2-0.5,0.4-1.2,1.2
					c-0.9,1-2,2-2.5,2.4c0.5-0.2,0.7-0.3,1.1-0.3c0.4,0,0.8,0.2,1.1,0.5c0.2,0.3,0.3,0.6,0.4,1.4c0.1,0.8,0.1,1,0.3,1.3
					c0.2,0.2,0.5,0.3,1,0.3c1,0,2.1-0.2,2.8-0.6l0.2,1.6c-0.2,0-0.2,0-1.2,0.2c-0.8,0.1-1.3,0.2-2,0.2c-1.1,0-1.8-0.3-2.1-0.9
					c-0.2-0.3-0.2-0.6-0.3-1.6c0-0.6-0.1-0.8-0.2-1c-0.1-0.2-0.3-0.3-0.6-0.3c-0.7,0-1.4,0.4-2.5,1.6c-0.7,0.7-1.5,1.6-2,2.2
					l-1.1-1.3c0.5-0.4,0.7-0.5,1.5-1.3c1.4-1.4,2.2-2.2,3.1-3.1c0.9-0.9,1-1,1.6-1.6c0.3-0.3,0.3-0.3,0.5-0.5
					c-1.1,0.2-1.1,0.2-4.2,0.5c-0.5,0-0.5,0-1,0.1L132.3,17.5z M133.9,13.7c1.6,0.5,3.3,0.8,5.4,0.9l-0.2,1.4
					c-2.6-0.2-3.7-0.4-5.6-0.9L133.9,13.7z"/>
			</g>
			<g>
				<path d="M145.7,14.4c0.5,0.1,0.7,0.1,1.5,0.1c1.3,0,2.9-0.1,4.3-0.2c0.4,0,0.6-0.1,0.8-0.2l0.8,1.1c-0.2,0.1-0.3,0.2-0.7,0.6
					c-2,1.9-3.5,3.3-4.4,3.9l0,0c1.2-0.6,2-0.8,3.2-0.8c2.4,0,3.9,1.3,3.9,3.2c0,1.4-0.7,2.5-1.9,3.2c-0.9,0.5-2,0.8-3.3,0.8
					c-1.1,0-2.1-0.2-2.6-0.6c-0.5-0.4-0.8-1-0.8-1.7c0-1.1,1-1.9,2.3-1.9c1,0,1.8,0.4,2.4,1.2c0.3,0.4,0.4,0.7,0.6,1.4
					c0.5-0.2,0.8-0.3,1.1-0.5c0.5-0.4,0.9-1,0.9-1.8c0-1.3-1.1-2.1-2.9-2.1c-2.1,0-4.2,0.9-5.8,2.5l-0.8-1.3
					c1.3-0.7,4.6-3.6,6.4-5.5c0,0,0.2-0.2,0.2-0.3l0,0c-0.5,0.1-2,0.2-4.1,0.3c-0.3,0-0.4,0-0.7,0.1L145.7,14.4z M148.5,23.1
					c-0.6,0-0.9,0.3-0.9,0.8c0,0.7,0.7,1,1.9,1c0.3,0,0.4,0,0.8-0.1C150,23.7,149.4,23.1,148.5,23.1z"/>
			</g>
			<g>
				<path d="M162.4,14.2c0-0.4,0-0.7-0.1-1h1.4c-0.1,0.3-0.1,0.6-0.1,1v0.2h4.2c0.6,0,1,0,1.4-0.1v1.3c-0.5-0.1-0.8-0.1-1.4-0.1
					h-9.6c-0.6,0-1,0-1.4,0.1v-1.3c0.4,0.1,0.8,0.1,1.5,0.1h4V14.2z M157.4,21.4c0-0.5,0-0.9-0.1-1.3c0.4,0,0.8,0.1,1.4,0.1h8.9
					c0.7,0,1,0,1.4-0.1c0,0.5-0.1,0.8-0.1,1.3v3.8c0,0.6-0.1,0.9-0.3,1.1c-0.3,0.2-0.6,0.3-1.4,0.3c-0.2,0-0.5,0-0.7,0
					c-0.4,0-0.4,0-0.7,0c0-0.5-0.1-0.8-0.3-1.2c0.7,0.1,1.2,0.1,1.7,0.1c0.3,0,0.4-0.1,0.4-0.3v-3.9h-9.1v4.1c0,0.7,0,1,0.1,1.6
					h-1.4c0.1-0.3,0.1-0.9,0.1-1.6V21.4z M159.2,17.2c0-0.5,0-0.8,0-1.1c0.4,0,0.7,0.1,1.3,0.1h5.6c0.6,0,0.8,0,1.2-0.1
					c0,0.4,0,0.6,0,1.1v1.1c0,0.6,0,0.8,0,1.1c-0.4,0-0.7-0.1-1.3-0.1h-5.6c-0.5,0-0.9,0-1.3,0.1c0-0.3,0-0.6,0-1.1V17.2z M166.1,24
					c0,0.5,0,0.7,0,1c-0.3,0-0.8,0-1.2,0h-3.5v0.8h-1.2c0.1-0.3,0.1-0.7,0.1-1.2v-1.6c0-0.4,0-0.7,0-1c0.3,0,0.6,0,1.1,0h3.6
					c0.5,0,0.8,0,1.2,0c0,0.3,0,0.5,0,1V24z M160.4,18.4h5.7v-1.2h-5.7V18.4z M161.4,24h3.6v-1.1h-3.6V24z"/>
			</g>
			<g>
				<path d="M171.1,19c0.4,0.1,0.6,0.1,1.1,0.1h0.9c0.4,0,0.7,0,1.1-0.1c-0.1,0.5-0.1,0.8-0.1,1.6v3c0.8,1.3,1.5,1.6,3.6,1.6
					c2.8,0,4.8-0.1,6.4-0.3c-0.3,0.7-0.3,0.8-0.4,1.5c-1.3,0.1-2.9,0.1-4.4,0.1c-2.3,0-3.3-0.1-4-0.3c-0.8-0.3-1.3-0.6-1.9-1.5
					c-0.7,0.7-1,1-1.6,1.4c-0.2,0.2-0.4,0.3-0.6,0.5l-0.6-1.4c0.6-0.3,1.4-0.9,2.1-1.6v-3.4h-0.8c-0.4,0-0.6,0-1,0.1V19z
					 M172.1,13.5c1,0.9,1.5,1.6,2.3,2.7l-1,1c-0.7-1.1-1.3-1.8-2.3-2.7L172.1,13.5z M176,15.8c-0.6,0-0.9,0-1.3,0.1v-1.3
					c0.4,0.1,0.8,0.1,1.4,0.1h2.2v-0.4c0-0.4,0-0.7-0.1-1h1.3c0,0.3-0.1,0.6-0.1,0.9v0.5h2.7c0.7,0,1,0,1.4-0.1v1.3
					c-0.4-0.1-0.7-0.1-1.2-0.1h-2.8v1h2.2c0.6,0,0.9,0,1.3-0.1c0,0.4-0.1,0.7-0.1,1.3v1.2c0,0.6,0,1,0.1,1.4c-0.3,0-0.7-0.1-1.4-0.1
					h-1.5c0.5,0.5,0.8,0.7,1.2,1.1c0.8,0.6,1.4,0.9,2.6,1.4c-0.3,0.5-0.4,0.7-0.6,1.2c-1.1-0.5-1.6-0.8-2.3-1.4
					c-0.6-0.5-0.9-0.8-1.5-1.6c0,0.3,0,0.7,0,1.2v1.2c0,0.4,0,0.7,0.1,1.1h-1.3c0-0.3,0.1-0.6,0.1-1.1v-1.2c0-0.4,0-0.5,0-1.1
					c-0.9,1.1-1.8,1.8-3.3,2.7c-0.3-0.5-0.4-0.7-0.7-1.1c1.5-0.7,2.4-1.3,3.4-2.4h-1.3c-0.7,0-1,0-1.4,0.1c0-0.4,0.1-0.8,0.1-1.3
					v-1.2c0-0.6,0-0.9-0.1-1.4c0.4,0.1,0.8,0.1,1.4,0.1h1.9v-1H176z M176.4,17.9v1.6h2v-1.6H176.4z M179.6,19.5h2.2v-1.6h-2.2V19.5z
					"/>
			</g>
			<g>
				<path d="M187.2,20.2c-1,0-1.3,0-1.9,0.1v-1.5c0.6,0.1,1,0.1,1.9,0.1h2.5v-2.7H188c-1,0-1.3,0-1.9,0.1v-1.5
					c0.5,0.1,0.9,0.1,1.9,0.1h6.1c0.9,0,1.3,0,1.9-0.1v1.5c-0.5-0.1-1-0.1-1.9-0.1h-3v2.7h3.9c0.9,0,1.3,0,1.9-0.1v1.5
					c-0.5,0-1-0.1-1.8-0.1h-3.9v2.6c0,0.9,0.1,1.2,0.4,1.3c0.3,0.1,0.8,0.2,1.5,0.2c0.5,0,1.3,0,2.1-0.1c0.5,0,0.8-0.1,1.3-0.2
					l0,1.6c-0.1,0-0.2,0-0.2,0c-0.1,0-0.1,0-1.1,0.1c-0.6,0-1.6,0.1-2.2,0.1c-2.6,0-3.3-0.5-3.3-2.5v-3H187.2z"/>
			</g>
			<g>
				<path d="M203.7,15c-0.1,0.2-0.1,0.2-0.1,0.5c0,0,0,0.1,0,0.2c0,0,0,0.1,0,0.3c-0.6,4.4-1.7,7.1-3.6,9.4
					c-0.6-0.6-0.7-0.7-1.3-1.1c0.8-0.9,1.4-1.8,2-3.1c0.6-1.4,1.1-3.2,1.4-5.1c0.1-0.6,0.1-1.1,0.1-1.4c0-0.1,0-0.1,0-0.2L203.7,15z
					 M207.7,14.7c0,0.8,0.3,2.2,0.6,3.5c0.7,2.7,1.6,4.6,3.1,6.3c-0.6,0.4-0.8,0.6-1.3,1.1c-1-1.2-1.7-2.5-2.4-4.1
					c-0.6-1.6-1.1-3.5-1.4-5.4c-0.1-0.5-0.1-0.8-0.2-1L207.7,14.7z M209.2,14.9c0.5,0.7,0.8,1.2,1.1,2.1l-1,0.4
					c-0.3-0.9-0.6-1.5-1.1-2.1L209.2,14.9z M210.7,14.3c0.5,0.6,0.8,1.2,1.1,2l-0.9,0.4c-0.3-0.8-0.6-1.4-1.1-2.1L210.7,14.3z"/>
			</g>
			<g>
				<path d="M223.4,14.8c-0.2,0.2-0.3,0.2-0.6,0.6c-0.9,1-2,2.1-3.2,2.9v6c0,1,0,1.5,0.1,1.9h-1.7c0.1-0.6,0.1-0.9,0.1-1.9v-5
					c-1.7,1.1-2.6,1.5-5.2,2.5c-0.3-0.6-0.4-0.9-0.8-1.4c2.7-0.8,5.1-2,7.3-3.8c1.3-1,2.2-2.1,2.6-2.8L223.4,14.8z"/>
			</g>
			<g>
				<path d="M228.7,14.3c-0.1,0.4-0.1,0.4-0.1,3.3c-0.1,2.8-0.4,4.4-1.2,5.9c-0.5,1-1,1.7-2,2.7c-0.4-0.6-0.6-0.8-1.2-1.2
					c1.1-0.9,1.8-2,2.3-3.4c0.4-1.3,0.6-3.2,0.6-6.2c0-0.6,0-0.8,0-1.2L228.7,14.3z M232.3,14.1c-0.1,0.5-0.1,0.7-0.1,1.8l-0.1,8.2
					c1.1-0.5,1.7-0.9,2.3-1.7c0.7-0.8,1.2-1.7,1.5-2.8c0.4,0.6,0.6,0.7,1.1,1.2c-0.6,1.4-1.3,2.5-2.2,3.3c-0.8,0.8-1.6,1.2-3,1.8
					c-0.3,0.1-0.4,0.2-0.6,0.3l-0.8-0.9c0.1-0.4,0.1-0.6,0.1-1.3l0.1-8c0-0.1,0-0.2,0-0.4c0-0.8,0-1-0.1-1.4L232.3,14.1z"/>
			</g>
			<g>
				<path d="M238.5,19c0.3,0.1,0.6,0.1,1,0.1h0.8c0.4,0,0.7,0,1.1-0.1c-0.1,0.4-0.1,0.8-0.1,1.6v3c0.3,0.6,0.6,0.9,1.2,1.2
					c0.5,0.3,1.5,0.4,2.9,0.4c2.3,0,4.2-0.1,6-0.4c-0.2,0.5-0.3,1-0.4,1.5c-1.6,0.1-3.3,0.1-5,0.1c-2.5,0-3.5-0.2-4.4-0.7
					c-0.4-0.3-0.6-0.5-1.1-1c-0.5,0.6-0.5,0.6-1,1c-0.1,0-0.3,0.3-0.9,0.8l-0.6-1.4c0.5-0.3,1.2-0.8,1.9-1.5v-3.3h-0.8
					c-0.4,0-0.6,0-0.9,0.1V19z M239.5,13.5c1,0.9,1.7,1.7,2.4,2.6l-1,1c-0.8-1.1-1.3-1.8-2.3-2.7L239.5,13.5z M245.6,16.5
					c-0.6-0.4-1.1-0.8-1.5-1l0.9-0.6c0.6,0.4,1,0.7,1.8,1.3c0.7-0.5,1.1-0.7,1.7-1.3h-4.7c-0.7,0-1,0-1.4,0.1v-1.3
					c0.4,0.1,0.8,0.1,1.6,0.1h4.7c0.9,0,1.3,0,1.5-0.1l0.6,0.8c-0.2,0.1-0.2,0.1-0.7,0.6c-0.6,0.5-1.3,1-2.1,1.5h1.4
					c0.7,0,1.1,0,1.5-0.1c0,0.4-0.1,0.9-0.1,1.7v4.7c0,1.2-0.3,1.5-1.4,1.5c-0.1,0-0.7,0-0.9,0c0-0.5-0.1-0.8-0.3-1.2
					c0.4,0.1,0.8,0.1,1,0.1c0.3,0,0.4,0,0.4-0.4v-0.9h-2.4v0.7c0,0.8,0,1.2,0.1,1.6h-1.3c0.1-0.4,0.1-0.9,0.1-1.6v-0.7h-2.2v0.9
					c0,0.8,0,1.2,0.1,1.6h-1.3c0-0.4,0.1-0.8,0.1-1.6v-4.7c0-0.9,0-1.3-0.1-1.7c0.4,0.1,0.9,0.1,1.5,0.1H245.6z M243.8,17.5v1.2h2.2
					v-1.2H243.8z M243.8,20.9h2.2v-1.2h-2.2V20.9z M247.1,18.7h2.4v-1.2h-2.4V18.7z M249.6,19.7h-2.4v1.2h2.4V19.7z"/>
			</g>
			<g>
				<path d="M255.4,25.1c0,0.7,0,1.2,0.1,1.7h-1.4c0.1-0.6,0.1-1,0.1-1.7v-4.6c0-0.6,0-0.7,0-1.7c-0.3,0.7-0.5,1-1.2,1.8
					c-0.2-0.6-0.3-0.9-0.6-1.4c1-1.2,1.7-2.4,2.2-4c0.3-0.9,0.4-1.4,0.5-2.1l1.3,0.5c-0.1,0.2-0.1,0.4-0.2,0.7
					c-0.3,1-0.5,1.6-0.9,2.4V25.1z M256.3,15.9c0.4,0,0.7,0.1,1.2,0.1h6.8c0.6,0,1,0,1.3-0.1v1.3c-0.4,0-0.8-0.1-1.3-0.1h-6.8
					c-0.4,0-0.8,0-1.2,0.1V15.9z M258.3,26.8H257c0-0.4,0.1-0.8,0.1-1.4v-1.9c0-0.5,0-0.9-0.1-1.3c0.3,0,0.7,0.1,1.2,0.1h5
					c0.6,0,1,0,1.2-0.1c0,0.4-0.1,0.8-0.1,1.3v1.9c0,0.6,0,0.9,0.1,1.4h-1.3v-0.7h-4.9V26.8z M264.5,19.3c-0.3,0-0.7-0.1-1.1-0.1
					h-5.1c-0.5,0-0.7,0-1.1,0.1V18c0.3,0,0.5,0.1,1.1,0.1h5.1c0.5,0,0.9,0,1.2-0.1V19.3z M264.5,21.3c-0.3,0-0.6-0.1-1.1-0.1h-5.1
					c-0.5,0-0.7,0-1.1,0.1v-1.2c0.3,0,0.5,0.1,1.1,0.1h5.1c0.5,0,0.8,0,1.1-0.1V21.3z M264.5,15.1c-0.4,0-0.8-0.1-1.4-0.1h-4.6
					c-0.5,0-0.9,0-1.2,0.1v-1.3c0.4,0.1,0.8,0.1,1.3,0.1h4.4c0.7,0,1.1,0,1.5-0.1V15.1z M263.2,24.9v-1.6h-4.9v1.6H263.2z"/>
			</g>
			<g>
				<path d="M275.4,16.8v-1.3c0-1,0-1.2-0.1-1.5h1.5c0,0.4,0,0.4-0.1,1c0,0.6,0,0.6,0,1.8h1c0.9,0,1.2,0,1.8-0.1v1.5
					c-0.5-0.1-0.9-0.1-1.7-0.1h-1.1c0,2,0,2-0.1,2.6c-0.2,1.8-0.8,3.1-2,4.1c-0.7,0.7-1.4,1-2.6,1.5c-0.2-0.5-0.4-0.8-0.9-1.3
					c1.3-0.4,2-0.8,2.7-1.4c1-0.9,1.4-1.9,1.5-3.6c0-0.4,0-0.9,0.1-1.9h-3.9v1.7c0,0.8,0,1.4,0.1,1.8H270c0-0.5,0.1-1,0.1-1.7v-1.8
					h-1c-0.8,0-1.2,0-1.7,0.1v-1.5c0.6,0.1,0.9,0.1,1.8,0.1h1v-1.4c0-0.5,0-1.2-0.1-1.5h1.6c-0.1,0.4-0.1,0.9-0.1,1.5v1.4H275.4z"/>
			</g>
			<g>
				<path d="M281.2,19.1c0.5,0.1,1.1,0.1,2.2,0.1h7.6c1.2,0,1.5,0,2.1-0.1v1.7c-0.6-0.1-1.1-0.1-2.1-0.1h-7.6c-1.2,0-1.6,0-2.2,0.1
					V19.1z"/>
			</g>
			<g>
				<path d="M297.7,18.8c1.5-0.3,2.9-0.8,4.4-1.5c1-0.5,1.6-0.8,2-1.2l1,1.4c-0.3,0.1-0.3,0.1-0.6,0.3c-1.2,0.7-2.6,1.3-3.9,1.7
					c-1.1,0.4-1.1,0.4-2.8,0.7v2c0,0,0,0,0,0.1c0,0.1,0,0.2,0,0.2c0,0.9,0.1,1.2,0.3,1.5c0.3,0.3,1.1,0.4,2.5,0.4
					c0.9,0,2.2-0.1,3.3-0.3c0.6-0.1,0.9-0.1,1.5-0.3l0.1,1.6c-0.3,0-0.3,0-0.6,0.1c-1.5,0.2-3,0.3-4.4,0.3c-1.8,0-2.8-0.2-3.4-0.6
					c-0.4-0.3-0.6-0.8-0.6-1.5c0-0.2,0-0.5,0-1.3V16c0-0.8,0-1.2-0.1-1.7h1.6c-0.1,0.5-0.1,0.9-0.1,1.7V18.8z M304.5,13.8
					c0.6,0.6,0.9,1.1,1.3,2l-0.9,0.5c-0.4-0.8-0.8-1.4-1.3-2L304.5,13.8z M305.9,13.1c0.5,0.6,0.9,1.1,1.3,1.9l-0.9,0.5
					c-0.4-0.8-0.7-1.3-1.3-1.9L305.9,13.1z"/>
			</g>
			<g>
				<path d="M318.9,26.1c-1.1-1.5-2.7-3-4.4-4.5c-1.6,1.9-3.2,3.2-5.4,4.3c-0.3-0.6-0.4-0.8-1-1.4c1.1-0.4,1.8-0.8,2.8-1.6
					c2.2-1.6,3.9-3.9,4.8-6.3c0-0.1,0-0.1,0.1-0.2c0-0.1,0-0.1,0.1-0.1c-0.2,0-0.3,0-0.4,0l-4.1,0.1c-0.9,0-1.1,0-1.8,0.1l0-1.6
					c0.5,0.1,0.8,0.1,1.4,0.1c0.1,0,0.2,0,0.4,0l4.7-0.1c0.7,0,0.8,0,1.1-0.1l0.8,0.9c-0.2,0.2-0.3,0.4-0.4,0.8
					c-0.7,1.6-1.4,2.9-2.2,4.1c1.8,1.3,2.9,2.4,4.7,4.3L318.9,26.1z"/>
			</g>
			<g>
				<path d="M340.1,13.1l-11.4,13.8h-1.8l11.4-13.8H340.1z"/>
			</g>
		</g>
	</g>
	<g>
		<g>
			<path class="st1" d="M124.4,57.2c0,7.9-6.4,14.4-14.4,14.4s-14.4-6.4-14.4-14.4c0-7.9,6.4-14.4,14.4-14.4S124.4,49.2,124.4,57.2"
				/>
			<path class="st0" d="M117.8,48.9c0,1.6-1.3,2.9-2.9,2.9c-1.6,0-2.9-1.3-2.9-2.9c0-1.6,1.3-2.9,2.9-2.9
				C116.5,46.1,117.8,47.3,117.8,48.9"/>
			<path class="st2" d="M116.5,48.9c0,0.8-0.7,1.5-1.5,1.5c-0.8,0-1.5-0.7-1.5-1.5c0-0.8,0.7-1.5,1.5-1.5
				C115.8,47.4,116.5,48.1,116.5,48.9"/>
			<path class="st0" d="M107.8,48.9c0,1.6-1.3,2.9-2.9,2.9c-1.6,0-2.9-1.3-2.9-2.9c0-1.6,1.3-2.9,2.9-2.9
				C106.5,46.1,107.8,47.3,107.8,48.9"/>
			<path class="st2" d="M106.5,48.9c0,0.8-0.7,1.5-1.5,1.5c-0.8,0-1.5-0.7-1.5-1.5c0-0.8,0.7-1.5,1.5-1.5
				C105.8,47.4,106.5,48.1,106.5,48.9"/>
			<g>
				<rect x="38.5" y="43.3" class="st1" width="2.4" height="27.8"/>
				<polygon class="st1" points="82.1,43.3 79.7,43.3 79.7,71.1 94.1,71.1 94.1,68.8 82.1,68.8 				"/>
				<polygon class="st1" points="165.6,45.6 165.6,43.3 151.2,43.3 151.2,71.1 165.6,71.1 165.6,68.8 153.6,68.8 153.6,58.2 
					165.6,58.2 165.6,55.9 153.6,55.9 153.6,45.6 				"/>
				<path class="st1" d="M29.6,56.2c1.7-1.3,2.8-3.4,2.8-5.7c0-4-3.2-7.2-7.2-7.2h-8.3v27.8h9.3c4.3,0,7.8-3.5,7.8-7.8
					C34,60.1,32.2,57.5,29.6,56.2z M19.3,45.6h5.9c2.7,0,4.9,2.2,4.9,4.9c0,2.7-2.2,4.9-4.9,4.9v0h-5.9V45.6z M26.2,68.8h-6.9V57.7
					h6.9c3.1,0,5.6,2.5,5.6,5.6C31.7,66.3,29.3,68.8,26.2,68.8z"/>
				<path class="st1" d="M142.3,56.2c1.7-1.3,2.8-3.4,2.8-5.7c0-4-3.2-7.2-7.2-7.2h-8.3v27.8h9.3c4.3,0,7.8-3.5,7.8-7.8
					C146.8,60.1,144.9,57.5,142.3,56.2z M132,45.6h5.9c2.7,0,4.9,2.2,4.9,4.9c0,2.7-2.2,4.9-4.9,4.9v0H132V45.6z M138.9,68.8H132
					V57.7h6.9c3.1,0,5.6,2.5,5.6,5.6C144.5,66.3,142,68.8,138.9,68.8z"/>
			</g>
			<path class="st1" d="M60.1,58.3v2.3h11.8c-1.5,5-6.1,8.7-11.6,8.7c-6.7,0-12.1-5.4-12.1-12.1c0-6.7,5.4-12.1,12.1-12.1
				c4.4,0,8.2,2.4,10.3,5.9h2.6c-2.3-4.8-7.2-8.2-13-8.2c-7.9,0-14.4,6.4-14.4,14.4c0,7.9,6.4,14.4,14.4,14.4
				c7.6,0,13.8-5.9,14.3-13.3L60.1,58.3z"/>
		</g>
		<g>
			<path class="st2" d="M202.5,48.7l-6.4,22.8h-2.5l-5.2-18.9l-5.2,18.9h-2.5l-6.5-22.8h2.9l5,18.3l4.9-18.3h2.6l4.9,18.5l5-18.5
				H202.5z"/>
			<path class="st2" d="M208.1,51h-3v-2.8h3V51z M208,71.5h-2.7V54.4h2.7V71.5z"/>
			<path class="st2" d="M232.4,71.5h-2.8V51.9L223,65.3h-1.5l-6.6-13.4v19.6h-2.6V48.7h3.6l6.5,13.1l6.4-13.1h3.6V71.5z"/>
			<path class="st2" d="M252.2,71.5l-2.3-6.5h-9.9l-2.3,6.5h-2.9l8.4-22.8h3.6l8.4,22.8H252.2z M249,62.7l-4.1-11.2l-4.1,11.2H249z"
				/>
			<path class="st2" d="M275.8,48.7L267.9,60l7.9,11.5h-3.3l-6.3-9.5l-6.5,9.5h-3.1l8-11.4l-7.8-11.4h3.3l6.2,9.4l6.4-9.4H275.8z"/>
			<path class="st2" d="M301.4,62.5h-8.1v8.1h-2.3v-8.1H283v-2.2h8.1v-8.1h2.3v8.1h8.1V62.5z"/>
			<path class="st2" d="M303.8,70.3v-2.9h0.2c1.9,1.2,3.9,1.9,5.9,1.9c1.6,0,2.8-0.5,3.8-1.4c1-0.9,1.4-2.1,1.4-3.7
				c0-2.9-2-4.3-5.9-4.3c-1.1,0-2.6,0.2-4.5,0.6V49h13.1v2.4h-10.5v6.2c1.3-0.1,2.2-0.2,2.6-0.2c2.6,0,4.6,0.6,6,1.7
				c1.4,1.1,2,2.8,2,4.9c0,2.2-0.7,4-2.2,5.4c-1.5,1.4-3.4,2.1-5.8,2.1C307.7,71.6,305.6,71.1,303.8,70.3z"/>
			<path class="st2" d="M339.1,69.5c-3.2,1.4-5.7,2.1-7.8,2.1c-3.5,0-6.2-1-8.2-3c-1.9-2-2.9-4.8-2.9-8.5c0-3.6,1-6.4,3-8.4
				c2-2,4.7-3,8.1-3c2.5,0,5.1,0.7,7.7,2v3.2h-0.2c-2.4-1.9-5.1-2.9-8-2.9c-2.4,0-4.3,0.8-5.7,2.4c-1.4,1.6-2.1,3.8-2.1,6.6
				c0,2.9,0.7,5.2,2.2,6.8c1.4,1.6,3.4,2.5,6,2.5c1.9,0,3.6-0.4,5.2-1.1v-5.7h-5.7v-2.4h8.4V69.5z"/>
		</g>
	</g>
</g>
</svg>
