<svg id="レイヤー_1" data-name="レイヤー 1" xmlns="http://www.w3.org/2000/svg" width="445" height="250" viewBox="0 0 445 250"><defs><style>.cls-1{fill:#3a3a3a;}.cls-2{fill:none;stroke:#ccc;stroke-linecap:round;stroke-miterlimit:10;}.cls-3{fill:#b3b3b3;}.cls-4{fill:#f55b43;}.cls-5{fill:#fff;}.cls-6{fill:#8fc31f;}</style></defs><path class="cls-1" d="M46.76,57.34a15.21,15.21,0,0,0-.39-1.77L44.8,49.88c-.17-.6-.34-1.47-.49-2.3a22.38,22.38,0,0,1-.49,2.3l-1.55,5.71a10.91,10.91,0,0,0-.39,1.75H39.09c-.08-.46-.12-.58-.44-1.8l-2.72-10a18.31,18.31,0,0,0-.66-2.06h3.28a9.39,9.39,0,0,0,.27,1.85l1.34,5.92c.11.46.31,1.49.4,2,.28-1.45.35-1.72.44-2.06l1.66-6A10.23,10.23,0,0,0,43,43.52h2.53a17,17,0,0,0,.39,1.7l1.67,6c.12.43.27,1.14.46,2.13a20.11,20.11,0,0,1,.39-2.14l1.34-5.84a10.66,10.66,0,0,0,.27-1.83h3.27a20.16,20.16,0,0,0-.65,2.06L50,55.54c-.22.83-.37,1.46-.43,1.8Z"/><path class="cls-1" d="M65.2,57.46a15.86,15.86,0,0,0-2.36-.12H57.4c-1.15,0-1.63,0-2.33,0A13.69,13.69,0,0,0,55.21,55V45.8a15.12,15.12,0,0,0-.14-2.33c.7,0,1.14.05,2.32.05h5.26A20.33,20.33,0,0,0,65,43.4v2.69A17.17,17.17,0,0,0,62.65,46H58v3h3.88a19.4,19.4,0,0,0,2.38-.12v2.65a18.76,18.76,0,0,0-2.38-.12H58v3.45h4.86a19.2,19.2,0,0,0,2.34-.11Z"/><path class="cls-1" d="M69.83,57.34c-1.12,0-1.62,0-2.33,0a15.35,15.35,0,0,0,.14-2.4V45.76a16.67,16.67,0,0,0-.14-2.29c.85.05,1,.05,2.31.05H74c2.71,0,4.24,1.22,4.24,3.42a3.08,3.08,0,0,1-1,2.43,3.39,3.39,0,0,1-1.28.71,3.49,3.49,0,0,1,1.65.8,3.35,3.35,0,0,1,1.07,2.65c0,2.45-1.61,3.81-4.52,3.81ZM73.67,49a1.57,1.57,0,0,0,1.79-1.6c0-1-.63-1.54-1.81-1.54H70.42V49Zm-3.25,6h3.39a1.78,1.78,0,0,0,2-1.86c0-1.17-.75-1.81-2.08-1.81H70.42Z"/><path class="cls-1" d="M83.31,56.39a13.3,13.3,0,0,0,.1,2H81.08a15.75,15.75,0,0,0,.11-2.2V45c0-.88,0-1.49-.07-2a15.84,15.84,0,0,0,1.73.07h3.37A14.23,14.23,0,0,0,88,43.06c0,.43,0,.87,0,1.58V47c0,.71,0,1.05,0,1.41-.39,0-1,0-1.48,0H83.31Zm0-11.26h2.57v-.62H83.31Zm0,1.91h2.57v-.63H83.31Zm7.14,8.53c0,.19.08.24.42.24.51,0,.58-.15.6-1.41A5.26,5.26,0,0,0,93,55c-.07.76-.09.85-.15,1.27l.35,0c.36,0,.46-.08.46-.42V48.36h-3.3c-.56,0-1,0-1.49,0,0-.44,0-.73,0-1.43V44.64c0-.64,0-1.15-.05-1.58a14.62,14.62,0,0,0,1.75.07h3.52a15.92,15.92,0,0,0,1.74-.07,17.39,17.39,0,0,0-.07,2V56.22c0,1-.24,1.56-.84,1.82a5.28,5.28,0,0,1-1.75.2l-.85,0a9.09,9.09,0,0,0-.15-.91,4.38,4.38,0,0,1-1.78.22c-1.48,0-1.82-.22-1.82-1.18V54.09h-.79c-.17,2-1,3-3.14,4a5.94,5.94,0,0,0-1.22-1.66c1.61-.51,2.31-1.19,2.48-2.35-.55,0-.9,0-1.38,0a11.27,11.27,0,0,0,0-1.25V51.32a11.55,11.55,0,0,0,0-1.27c.41,0,.75.05,1.41.05A7.55,7.55,0,0,0,85.21,49L87,48.45a13.67,13.67,0,0,1,1,1.65h1a7.92,7.92,0,0,0,.8-1.6l2,.41A9.81,9.81,0,0,1,91,50.1c.62,0,.94,0,1.36-.05,0,.35,0,.71,0,1.27v1.55c0,.56,0,.92,0,1.27-.4,0-.81,0-1.34,0h-.56Zm-.1-4H86.56v1h3.79ZM91,45.13h2.7v-.62H91ZM91,47h2.7v-.63H91Z"/><path class="cls-1" d="M102,55.5c-.77,0-1.39,0-1.77,0a16.59,16.59,0,0,0,.07-1.7V50.22c0-.45,0-.6,0-1,.32,0,.81,0,1.68,0H110c.82,0,1.18,0,1.6,0a9.07,9.07,0,0,0,0,1v3.52a15.31,15.31,0,0,0,.06,1.83c-.39,0-.93,0-1.76,0h-1.43v.62c0,.42.15.47,1.6.47,1.27,0,1.54-.05,1.71-.27a3.85,3.85,0,0,0,.21-1.56,5.29,5.29,0,0,0,1.85.61c-.27,2.78-.53,3-4.08,3-2.92,0-3.43-.2-3.43-1.41V55.5H105a4.73,4.73,0,0,1-2.6,2.42,11,11,0,0,1-3.33.64,5.75,5.75,0,0,0-1-1.9h.34c2.13,0,3.37-.34,4.22-1.16Zm2.12-7.83h.84a12.07,12.07,0,0,0,1.36-.05v1.24a12,12,0,0,0-1.36,0h-5c-.55,0-.73,0-1.25,0,0-.51.06-.82.06-1.75V44.78A15.78,15.78,0,0,0,98.68,43c.44,0,.87,0,1.77,0h4.14a11,11,0,0,0,1.69-.09v1.5c-.33,0-.7-.05-1.3-.05h-.9v.44h.82c.49,0,.78,0,1,0a3,3,0,0,0,0,.56,5.68,5.68,0,0,0,1.8-2.77l2.12.35c-.18.41-.24.5-.42.87H112a13,13,0,0,0,1.53-.08v1.93a11.41,11.41,0,0,0-1.53-.08H108.3a9.15,9.15,0,0,1-.82,1c.46,0,.63,0,1,0h3a11.67,11.67,0,0,0,1.51-.06v1.8a11.37,11.37,0,0,0-1.48-.07h-2.75a10.79,10.79,0,0,0-1.44.07V46.78c-.22.24-.33.33-.62.6a5.77,5.77,0,0,0-.79-1.23v.29a6.31,6.31,0,0,0,0,.84,8.21,8.21,0,0,0-1,0h-.79Zm-1.85-2.86v-.44H100.7v.44ZM104,46.26V45.8h-3.3v.46Zm-3.3,1v.43h1.51v-.43ZM102.35,51h7.16v-.51h-7.16Zm0,1.58h7.16v-.51h-7.16Zm0,1.58h7.16v-.51h-7.16Z"/><path class="cls-1" d="M192.09,44.74c-1.19.09-1.64.11-2.83.14a7.12,7.12,0,0,0-.68-1.55c3.52,0,6.48-.34,7.55-.81l1.14,1.65H197l-.46.07-.27,0c-.47.07-.47.07-2.29.29v.8h1.58a12.46,12.46,0,0,0,1.6-.07v1.74A6.38,6.38,0,0,0,196,47h-2v.63h1.68c.8,0,1,0,1.39,0a10.17,10.17,0,0,0-.05,1.48v2.36c0,1.14,0,1.14,0,1.53-.31,0-.68,0-1.52,0H194v.64h1.41a16.16,16.16,0,0,0,1.63,0v1.74a4.31,4.31,0,0,0-1.09-.09h-2v.75c.93,0,.93,0,3-.22,1.12-1.91,1.54-3.84,1.73-7.7a8.13,8.13,0,0,0-1.22.06V45.9a5.63,5.63,0,0,0,1.07.07h.2V44.91a11.29,11.29,0,0,0-.1-2.22H201a7.07,7.07,0,0,0-.1,1.46c0,.1,0,.81,0,1.82h1.43A14.1,14.1,0,0,0,204,45.9c-.07.68-.07.73-.12,3.26-.07,4.35-.25,6.58-.66,7.81-.27.88-.9,1.22-2.21,1.22-.61,0-1.16,0-1.41,0a5.93,5.93,0,0,0-.34-1.87,11.42,11.42,0,0,1-1.36,2.25,6,6,0,0,0-1-1.14c-4,.39-4.11.39-7.1.59l-1.06.1L188.36,56c.34,0,.56,0,1.07,0l2.66-.06v-.82H190.4a16.06,16.06,0,0,0-1.61.07V53.51a12.06,12.06,0,0,0,1.63.07h1.67v-.64h-1.42c-.83,0-1.2,0-1.7,0a11,11,0,0,0,.07-1.6V49.15a10.94,10.94,0,0,0-.07-1.57c.5,0,1,.05,1.7.05h1.42V47h-2a14.41,14.41,0,0,0-1.61.07V45.3a10.3,10.3,0,0,0,1.61.09h2ZM190.9,49v.65h1.19V49Zm0,1.94v.65h1.19v-.65ZM194,49.64h1.2V49H194Zm0,1.94h1.2v-.65H194ZM200.82,48a20.33,20.33,0,0,1-1.48,8,9.12,9.12,0,0,0,1.16.1c.7,0,.85-.22,1-1.65a49.5,49.5,0,0,0,.32-6.47Z"/><path class="cls-1" d="M208.13,45.08c-.78,0-1.49,0-2.22.11V43a20.57,20.57,0,0,0,2.19.1h11.1c.8,0,1.51,0,2.24-.1v2.2c-.68-.07-1.48-.11-2.22-.11h-4.51v1.26h1.84a9.65,9.65,0,0,0,1.37-.07,9.36,9.36,0,0,0-.06,1.29v6.12a9.69,9.69,0,0,0,0,1.28l-.83-.05h-6.8l-.85.05c0-.39,0-.6,0-1.28V47.56a9.33,9.33,0,0,0-.07-1.29,9.78,9.78,0,0,0,1.39.07h1.8V45.08ZM221,46.51a19.73,19.73,0,0,0-.11,2v7.6a23.32,23.32,0,0,0,.12,2.39h-2.29v-.73h-10.2v.73h-2.3a19.28,19.28,0,0,0,.12-2.36V48.45a18.69,18.69,0,0,0-.1-1.94h2.3a8.3,8.3,0,0,0-.07,1.45v7.83h10.32V47.92a10.29,10.29,0,0,0-.07-1.41Zm-9.66,1.72v1.41h1.29V48.23Zm0,3.21v1.63h1.29V51.44Zm4.61-1.8V48.23h-1.38v1.41Zm0,3.43V51.44h-1.38v1.63Z"/><path class="cls-1" d="M227.41,56.59a13.23,13.23,0,0,0,.09,1.87h-2.3a11.92,11.92,0,0,0,.1-1.87V52.82a15.86,15.86,0,0,1-1.64,1.41,8.25,8.25,0,0,0-.87-2.28,11.32,11.32,0,0,0,4.2-4.67h-2.21a13.83,13.83,0,0,0-1.45.06V45.19a10,10,0,0,0,1.31.06h.63V43.86a9.72,9.72,0,0,0-.09-1.31h2.32a10.31,10.31,0,0,0-.09,1.33v1.37h.48a4.7,4.7,0,0,0,.9,0l.93,1a6.46,6.46,0,0,0-.39.82,18.2,18.2,0,0,1-1.49,2.73,7.73,7.73,0,0,0,1.95,1.63,7.11,7.11,0,0,0-.85,2.18,10.33,10.33,0,0,1-1.53-1.6Zm6-4a6.29,6.29,0,0,1-.87,3.18,7,7,0,0,1-3.32,2.7,7.85,7.85,0,0,0-1.34-1.85,5.48,5.48,0,0,0,2.86-2.07,4.41,4.41,0,0,0,.58-2c-.58,0-.79,0-1.57,0,0-.54,0-1.1,0-1.72V44.78a13.12,13.12,0,0,0-.06-1.7,13.16,13.16,0,0,0,1.65.05h5.15c.94,0,1.18,0,1.64-.05a12.09,12.09,0,0,0-.07,1.7V51a15.21,15.21,0,0,0,.07,1.72l-1.6,0h-.49V56c0,.17.11.24.42.24.48,0,.65-.05.7-.22a10.68,10.68,0,0,0,.15-2.14,6.75,6.75,0,0,0,1.82.79c-.09,1.72-.24,2.57-.58,3s-.92.55-2.26.55c-1.9,0-2.33-.22-2.33-1.21V52.63Zm-1.53-6.8h4.13v-.9h-4.13Zm0,2.52h4.13v-.9h-4.13Zm0,2.55h4.13V50h-4.13Z"/><path class="cls-1" d="M250.75,55.93c0,.27.1.32.78.32s.82,0,.89-1.65a4.28,4.28,0,0,0,1.77.6,10.18,10.18,0,0,0-.85-1.72l1.8-.8a20.11,20.11,0,0,1,1.61,3.86l-1.82,1a20.76,20.76,0,0,0-.68-2.15c-.08,1.4-.27,2-.68,2.4s-.85.43-2.43.43a3.59,3.59,0,0,1-1.95-.29c-.32-.19-.43-.48-.43-1.09V54c0-.19,0-.29,0-.53a12.62,12.62,0,0,1-1.4,4.13l-1.26-.83a9.88,9.88,0,0,0,.09,1.68h-2.13a15.14,15.14,0,0,0,.09-1.85V55.49c-.76.23-1.67.49-2.69.76l-.56.19-.44-2.19a6.6,6.6,0,0,0,.87-.11V45.05a5.11,5.11,0,0,0-.7.07V43a7.38,7.38,0,0,0,1.53.1h3a8.74,8.74,0,0,0,1.56-.09v.87a15.23,15.23,0,0,0,1.7.07h1.91c0-.61,0-.87-.09-1.33h2.25a7.24,7.24,0,0,0-.09,1.33h2.33a12.38,12.38,0,0,0,1.77-.09v2a16.17,16.17,0,0,0-1.74-.07H252.4v.85h2c.66,0,1.19,0,1.63-.05a7.61,7.61,0,0,0-.07,1.15v2.89a6.66,6.66,0,0,0,.07,1.14c-.61,0-1,0-1.74,0h-2.56A16.91,16.91,0,0,1,253.51,53l-1.33,1.45a11.7,11.7,0,0,0-1.41-1.26c0,.27,0,.39,0,.71Zm-7.53-9.23h1V45.05h-1Zm0,3.35h1V48.48h-1Zm0,3.69,1-.26V51.83h-1Zm2.87,2.15a8.87,8.87,0,0,0,.94-3.24l1.72.66c0-.31,0-.39-.07-.63h1.41l-.6-.36.73-.61h-1.88c-.63,0-1.12,0-1.62,0a9.15,9.15,0,0,0,.05-1.1v-3a9.3,9.3,0,0,0-.05-1.12c.48,0,1,.05,1.65.05h2v-.85h-2a14.45,14.45,0,0,0-1.73.07v-.78l-.48,0ZM248.53,50h.91V48.36h-.91Zm2.39,0h.87V48.36h-.87Zm2.37,0h.86V48.36h-.86Z"/><path class="cls-1" d="M348.36,43.52a13.22,13.22,0,0,0-.14,2.35V55a13.42,13.42,0,0,0,.14,2.35h-3.13a14.93,14.93,0,0,0,.13-2.35V45.87a14.54,14.54,0,0,0-.13-2.35Z"/><path class="cls-1" d="M351,57.34a15.85,15.85,0,0,0,.14-2.35V45.8a17.58,17.58,0,0,0-.14-2.33c.77,0,1.33.05,2.33.05H357a5.18,5.18,0,0,1,3.83,1.27,4.27,4.27,0,0,1,1.1,3.06,4.46,4.46,0,0,1-1.21,3.28,5,5,0,0,1-3.77,1.31h-3V55a16.26,16.26,0,0,0,.13,2.38Zm5.83-7.29A1.94,1.94,0,0,0,359,47.94a2,2,0,0,0-.51-1.46,2.08,2.08,0,0,0-1.65-.56H354v4.13Z"/><path class="cls-1" d="M366.61,44.61c-.79,0-1.25,0-1.83,0V42.84a18.08,18.08,0,0,0,2,.1h9.06a17.29,17.29,0,0,0,2-.1v1.82c-.58,0-1,0-1.8,0h-3.8v.52h4.37a21.69,21.69,0,0,0,2.21-.06,11,11,0,0,0-.07,1.46v1.1a7.83,7.83,0,0,0,.09,1.38H376.8V46.68h-4.53v1.55a12,12,0,0,0,.07,1.58H370a10.36,10.36,0,0,0,.09-1.58V46.68h-4.29V49h-2.07a8.07,8.07,0,0,0,.08-1.38v-1.1a11.93,11.93,0,0,0-.06-1.46,21.45,21.45,0,0,0,2.2.06h4.14v-.52Zm10.93,10.32a7.51,7.51,0,0,0,1.74.54,6,6,0,0,1-.26,1.58c-.41,1.1-1.09,1.27-5,1.27-3.36,0-3.89-.18-3.89-1.39v-1h-2.94v.75H365a14.08,14.08,0,0,0,.1-1.79v-3a12.59,12.59,0,0,0-.08-1.7,15.07,15.07,0,0,0,1.68.07h9.2a15,15,0,0,0,1.73-.07,14.88,14.88,0,0,0-.07,1.7v3.1Zm-11.1-7.84a5.83,5.83,0,0,0,.82,0h1.46a7.91,7.91,0,0,0,.8,0v1.1a5.89,5.89,0,0,0-.8,0h-1.46c-.36,0-.56,0-.82,0Zm0,1.53a5.83,5.83,0,0,0,.82,0h1.46a7.64,7.64,0,0,0,.8,0v1.1a5.29,5.29,0,0,0-.8,0h-1.46a6.71,6.71,0,0,0-.82,0Zm.79,3v.68h2.92v-.68Zm0,2v.73h2.92v-.73Zm5-1.34h3.14v-.68h-3.14Zm0,2.07h3.14v-.73h-3.14Zm0,1.89c0,.19.07.25.29.3a13.65,13.65,0,0,0,2,.11,7.38,7.38,0,0,0,2.17-.19c.19-.09.27-.24.31-.61h-4.81Zm.66-9.2a4.33,4.33,0,0,0,.82,0h1.68a7.18,7.18,0,0,0,.8,0v1.11h-.09a3.21,3.21,0,0,0-.71,0h-1.68a5.17,5.17,0,0,0-.82,0Zm0,1.55a5.9,5.9,0,0,0,.82,0h1.68a7.51,7.51,0,0,0,.8,0v1.1a5.44,5.44,0,0,0-.8,0h-1.68a6.54,6.54,0,0,0-.82,0Z"/><path class="cls-1" d="M381,45.37a7.49,7.49,0,0,0,1.38.09h3.52a9.19,9.19,0,0,0,1.37-.07v2a8.49,8.49,0,0,0-1.31-.05h-3.58a10.79,10.79,0,0,0-1.38.07Zm2.6,13.06h-2.09a11.15,11.15,0,0,0,.09-1.6V54.08a10.68,10.68,0,0,0-.07-1.31c.42,0,.75,0,1.29,0H386a5.63,5.63,0,0,0,1.09,0c0,.32,0,.56,0,1.17v3a10.84,10.84,0,0,0,.05,1.3h-2v-.53h-1.5ZM381.56,43a11.47,11.47,0,0,0,1.48.07h2.51A11.57,11.57,0,0,0,387,43v1.82a14.5,14.5,0,0,0-1.48,0H383c-.65,0-1.07,0-1.48,0Zm.05,5a9.42,9.42,0,0,0,1.07,0H386a8.16,8.16,0,0,0,1,0v1.78a9.7,9.7,0,0,0-1-.05h-3.3a6.53,6.53,0,0,0-1.07.05Zm0,2.39a6.53,6.53,0,0,0,1.07,0H386a5.6,5.6,0,0,0,1,0v1.79a6.28,6.28,0,0,0-1.07,0h-3.28a6.21,6.21,0,0,0-1.05,0Zm2,5.59h1.55V54.48h-1.55Zm7.21-10.35c-1.06.14-1.35.17-2.84.31a7.31,7.31,0,0,0-.72-2,23.39,23.39,0,0,0,8-1.46l1.2,1.95-.49.14c-.73.2-2,.51-3,.7v2.14h1.72a16.74,16.74,0,0,0,1.94-.1v2.19a15.61,15.61,0,0,0-1.94-.1h-1.72v1.92h1.82c.58,0,.95,0,1.26,0,0,.35-.05.83-.05,1.42v3.86c0,.7,0,1.41.08,1.87h-2.26v-.73h-3.7v.73h-2.21a15.78,15.78,0,0,0,.07-1.78V52.53c0-.53,0-.8-.06-1.29.38,0,.75,0,1.26,0h1.67V49.37h-1.36a14.76,14.76,0,0,0-1.94.1V47.28a16.8,16.8,0,0,0,1.95.1h1.35Zm-.73,10.1h3.7V53.24h-3.7Z"/><line class="cls-2" x1="145.23" y1="31.3" x2="145.23" y2="222.88"/><line class="cls-2" x1="302.77" y1="31.3" x2="302.77" y2="222.88"/><circle class="cls-3" cx="145.23" cy="124.09" r="13.86"/><circle class="cls-3" cx="302.77" cy="124.09" r="13.86"/><path class="cls-4" d="M21.05,190.07a11.62,11.62,0,0,0,1.84.1h1.85a18.91,18.91,0,0,0,1.91-.07,23.93,23.93,0,0,0-.13,2.75v8.76a17.33,17.33,0,0,0,.13,2.38h-3.1a18,18,0,0,0,.14-2.38v-9.05h-.75a15.6,15.6,0,0,0-1.89.12Z"/><path class="cls-4" d="M31.92,202.8a5.37,5.37,0,0,1-1.17-1.8,11.28,11.28,0,0,1-.66-3.9,10,10,0,0,1,1.05-4.71,5.14,5.14,0,0,1,4.62-2.51,5.26,5.26,0,0,1,3.83,1.48,4.87,4.87,0,0,1,1.17,1.8,11.3,11.3,0,0,1,.66,3.91,10.08,10.08,0,0,1-1,4.71,5.61,5.61,0,0,1-8.47,1ZM33,197c0,3.23,1,4.9,2.79,4.9a2.26,2.26,0,0,0,1.68-.68,6,6,0,0,0,1.1-4.06c0-3.22-.95-4.86-2.78-4.86S33,194,33,197Z"/><path class="cls-4" d="M44.89,202.8a5.37,5.37,0,0,1-1.17-1.8,11.28,11.28,0,0,1-.66-3.9,10,10,0,0,1,1-4.71,5.14,5.14,0,0,1,4.63-2.51,5.3,5.3,0,0,1,3.83,1.48,4.84,4.84,0,0,1,1.16,1.8,11.3,11.3,0,0,1,.66,3.91,10.08,10.08,0,0,1-1,4.71,5.2,5.2,0,0,1-4.64,2.5A5.26,5.26,0,0,1,44.89,202.8Zm1-5.82c0,3.23,1,4.9,2.8,4.9a2.24,2.24,0,0,0,1.67-.68,6,6,0,0,0,1.11-4.06c0-3.22-1-4.86-2.78-4.86S45.94,194,45.94,197Z"/><path class="cls-4" d="M55.7,198.11a4.27,4.27,0,0,0,.66-.57c.49-.49,2.08-2.39,3.06-3.65a5.6,5.6,0,0,1,1.34-1.38,2.34,2.34,0,0,1,1.22-.32c.92,0,1.36.29,2.69,1.82A62.65,62.65,0,0,0,70,199.36a11.65,11.65,0,0,0,1.71,1.41l-1.27,2.78a100.45,100.45,0,0,1-7.79-8.06c-.27-.31-.44-.41-.65-.41s-.27,0-1,.94-1.76,2.27-3,3.82a9.44,9.44,0,0,0-.61.75Zm14.75-5.24A1.87,1.87,0,1,1,68.59,191,1.88,1.88,0,0,1,70.45,192.87Zm-2.69,0a.82.82,0,1,0,.83-.83A.83.83,0,0,0,67.76,192.87Z"/><path class="cls-4" d="M73.53,195.73a21.62,21.62,0,0,0,3.1.13H85.2a20.92,20.92,0,0,0,3.1-.12v2.79c-.68-.05-1.8-.08-3.12-.08H76.63c-1.47,0-2.44,0-3.1.1Z"/><path class="cls-4" d="M92,194.25a23.4,23.4,0,0,1,4.61,2.34l-1.24,2.28a20,20,0,0,0-4.71-2.57Zm-.91,7.53a15.43,15.43,0,0,0,5-1.12A10.1,10.1,0,0,0,101,197a12.5,12.5,0,0,0,1.93-3.76A9.17,9.17,0,0,0,105,195a15.26,15.26,0,0,1-2.59,4.35c-2.25,2.6-5.06,4-9.4,4.87a12.24,12.24,0,0,0-1.2.28Zm2.2-11.68A27.78,27.78,0,0,1,98,192.31l-1.29,2.23A19.65,19.65,0,0,0,92,192.16Zm9.11.22a9.29,9.29,0,0,1,1.41,2.3l-1.46.69A10.55,10.55,0,0,0,101,191Zm2-.85a9.66,9.66,0,0,1,1.4,2.21l-1.42.7a12.7,12.7,0,0,0-1.37-2.3Z"/><path d="M107.88,204.31a6.06,6.06,0,0,0-.13-1.13,28.93,28.93,0,0,1-.24-3.62,30.67,30.67,0,0,1,.56-5.58,4.33,4.33,0,0,0,.12-.91l2,.16a27.65,27.65,0,0,0-1,7.28v.21l.16-.4c0-.11.12-.28.22-.52a3.14,3.14,0,0,1,.19-.38l1.1.47a8.8,8.8,0,0,0-1.16,4,2,2,0,0,0,0,.37Zm10.15-.77a8,8,0,0,0-1.72-1.38v.2a1.65,1.65,0,0,1-.31,1,3,3,0,0,1-2.44.9c-1.74,0-2.83-.84-2.83-2.22s1.14-2.21,2.83-2.21a5.29,5.29,0,0,1,1,.09c0-.18,0-.39-.06-1.53l-1.12,0-1.88-.05H111l0-1.68a11.08,11.08,0,0,0,2.3.2c.31,0,.57,0,1.17,0v-1.38c-.73,0-.95,0-1.23,0-.51,0-.69,0-1.78-.06H111l.07-1.68a11.39,11.39,0,0,0,2.37.17,23.39,23.39,0,0,0,4.71-.44l0,1.67a6.39,6.39,0,0,0-.88.1c-.42.05-.63.08-1.09.12,0,.19,0,.78,0,1.23v.16a10.67,10.67,0,0,0,2.06-.35l.05,1.65a6.69,6.69,0,0,0-.88.11c-.23,0-.84.11-1.22.15,0,1,0,1.15.09,2a9.68,9.68,0,0,1,2.06,1.15,1.42,1.42,0,0,0,.35.22Zm-4.47-2.2c-.62,0-1.06.29-1.06.69s.38.66,1,.66,1.06-.27,1.06-.87a1.11,1.11,0,0,0,0-.31A2.82,2.82,0,0,0,113.56,201.34Z"/><path d="M124.29,193a22.12,22.12,0,0,0,.79,4c.71-.26,1.25-.45,3.27-1.08a3,3,0,0,0,.52-.2l.65,2a28.13,28.13,0,0,0-4.46,1.23c-1.77.65-2.68,1.41-2.68,2.24s.86,1.24,2.77,1.24a15.79,15.79,0,0,0,4.34-.56l.16,2.12c-.29,0-.35,0-1.09.09a31.83,31.83,0,0,1-3.25.2c-2.24,0-3.68-.42-4.37-1.3a2.82,2.82,0,0,1-.57-1.72,3.18,3.18,0,0,1,1.16-2.44,8,8,0,0,1,1.79-1.14,32.13,32.13,0,0,1-.83-3.47,6.17,6.17,0,0,0-.21-.86Zm3.53.22a6.66,6.66,0,0,1,1.13,1.83l-1.17.51a7.41,7.41,0,0,0-1.1-1.87Zm1.53-.61a6.93,6.93,0,0,1,1.14,1.77l-1.13.5a7,7,0,0,0-1.1-1.8Z"/><path class="cls-5" d="M136.3,125a4.67,4.67,0,1,1,9.34,0,4.45,4.45,0,0,1-4.68,4.77A4.39,4.39,0,0,1,136.3,125Zm2.37,0c0,1.77.87,2.85,2.3,2.85s2.29-1,2.29-2.81-.84-2.86-2.27-2.86S138.67,123.24,138.67,125Z"/><path class="cls-5" d="M153.54,122.9a3.73,3.73,0,0,0-1.39-.26,2.22,2.22,0,0,0-1.79.71,2.29,2.29,0,0,0-.52,1.42v2.6a17.89,17.89,0,0,0,.1,2.1h-2.57a15.15,15.15,0,0,0,.12-2.1v-4.68a13,13,0,0,0-.12-2.1h2.47v1.23a3.2,3.2,0,0,1,2.91-1.4,5.67,5.67,0,0,1,1.4.17Z"/><path class="cls-5" d="M293.84,125a4.67,4.67,0,1,1,9.33,0,4.44,4.44,0,0,1-4.67,4.77A4.38,4.38,0,0,1,293.84,125Zm2.37,0c0,1.77.87,2.85,2.3,2.85s2.29-1,2.29-2.81-.84-2.86-2.27-2.86S296.21,123.24,296.21,125Z"/><path class="cls-5" d="M311.08,122.9a3.73,3.73,0,0,0-1.39-.26,2.21,2.21,0,0,0-1.79.71,2.29,2.29,0,0,0-.53,1.42v2.6a15.75,15.75,0,0,0,.11,2.1h-2.57a15.15,15.15,0,0,0,.12-2.1v-4.68a13,13,0,0,0-.12-2.1h2.46v1.23a3.23,3.23,0,0,1,2.92-1.4,5.72,5.72,0,0,1,1.4.17Z"/><path class="cls-4" d="M192,190.07a11.76,11.76,0,0,0,1.85.1h1.85a19,19,0,0,0,1.91-.07,23.85,23.85,0,0,0-.14,2.75v8.76a17.23,17.23,0,0,0,.14,2.38h-3.1a18,18,0,0,0,.14-2.38v-9.05h-.75a15.89,15.89,0,0,0-1.9.12Z"/><path class="cls-4" d="M203.65,204a18.67,18.67,0,0,0-2.36.07,8.3,8.3,0,0,1,.41-2.1,8.41,8.41,0,0,1,2.35-3.53,23.9,23.9,0,0,1,2.9-2.16c1.56-1.05,1.93-1.53,1.93-2.41s-.85-1.58-2.06-1.58a2.26,2.26,0,0,0-2,.91,3.25,3.25,0,0,0-.46,1.52l-3-.34a5.51,5.51,0,0,1,1.2-2.88,5.29,5.29,0,0,1,4.16-1.61c3.12,0,5.1,1.51,5.1,3.89a4.06,4.06,0,0,1-1.49,3.06,19.62,19.62,0,0,1-2.54,1.87,15.76,15.76,0,0,0-1.86,1.56,3.71,3.71,0,0,0-.8,1.26h4.29a17.26,17.26,0,0,0,2.59-.13v2.72a24.69,24.69,0,0,0-2.73-.12Z"/><path class="cls-4" d="M218.67,197a7.31,7.31,0,0,0-1.29.08V196a14.3,14.3,0,0,1-2.06,1.85,8,8,0,0,0-1.51-2,12.91,12.91,0,0,0,4.35-4.83,5.67,5.67,0,0,0,.66-1.68l2.37.88a5.31,5.31,0,0,0-.44.87,20,20,0,0,1-2.45,3.87h7.31a17.11,17.11,0,0,1-2.49-4c-.08-.19-.25-.51-.35-.72l2.2-.85a6.1,6.1,0,0,0,.66,1.53,12.68,12.68,0,0,0,4.54,4.73,10.37,10.37,0,0,0-1.47,2.21,15.16,15.16,0,0,1-1.78-1.48,29.3,29.3,0,0,1-.56,6.73c-.34,1.19-1.07,1.56-3,1.56l-1.52,0a8.56,8.56,0,0,0-.63-2.33,17.08,17.08,0,0,0,1.92.17c.73,0,.95-.1,1.08-.44a17,17,0,0,0,.46-4.61V197h-2.91a9.1,9.1,0,0,1-.28,1.63,8.86,8.86,0,0,1-2.91,4.84,10.28,10.28,0,0,1-2.5,1.62,8,8,0,0,0-1.44-2,7.51,7.51,0,0,0,4-3.27,6.2,6.2,0,0,0,.8-2.85Z"/><path d="M232.2,204.31a6.06,6.06,0,0,0-.13-1.13,29,29,0,0,1-.23-3.62,30.67,30.67,0,0,1,.56-5.58,4.78,4.78,0,0,0,.11-.91l2,.16a27.19,27.19,0,0,0-1,7.28v.21l.17-.4c0-.11.12-.28.22-.52l.18-.38,1.1.47a8.9,8.9,0,0,0-1.15,4,2,2,0,0,0,0,.37Zm10.16-.77a8.3,8.3,0,0,0-1.72-1.38v.2a1.73,1.73,0,0,1-.31,1,3,3,0,0,1-2.44.9c-1.75,0-2.84-.84-2.84-2.22s1.14-2.21,2.84-2.21a5.36,5.36,0,0,1,1,.09c0-.18,0-.39-.07-1.53l-1.11,0-1.88-.05h-.56l0-1.68a11.19,11.19,0,0,0,2.31.2c.31,0,.57,0,1.16,0v-1.38c-.72,0-.94,0-1.23,0-.5,0-.68,0-1.77-.06h-.47l.08-1.68a11.33,11.33,0,0,0,2.37.17,23.2,23.2,0,0,0,4.7-.44l0,1.67a6.72,6.72,0,0,0-.88.1c-.41.05-.62.08-1.09.12,0,.19,0,.78,0,1.23v.16a10.81,10.81,0,0,0,2.06-.35l.05,1.65a6.69,6.69,0,0,0-.88.11c-.24,0-.84.11-1.22.15,0,1,0,1.15.09,2a9.93,9.93,0,0,1,2.06,1.15,1.42,1.42,0,0,0,.35.22Zm-4.47-2.2c-.62,0-1.06.29-1.06.69s.37.66,1,.66,1.06-.27,1.06-.87a2.2,2.2,0,0,0,0-.31A2.82,2.82,0,0,0,237.89,201.34Z"/><path d="M248.61,193a22.12,22.12,0,0,0,.79,4c.72-.26,1.26-.45,3.28-1.08a3.34,3.34,0,0,0,.52-.2l.65,2a28.13,28.13,0,0,0-4.46,1.23c-1.77.65-2.68,1.41-2.68,2.24s.85,1.24,2.77,1.24a15.84,15.84,0,0,0,4.34-.56L254,204c-.29,0-.35,0-1.09.09a31.83,31.83,0,0,1-3.25.2c-2.24,0-3.68-.42-4.37-1.3a2.82,2.82,0,0,1-.57-1.72,3.17,3.17,0,0,1,1.15-2.44,8.29,8.29,0,0,1,1.79-1.14,34.7,34.7,0,0,1-.83-3.47,7.09,7.09,0,0,0-.2-.86Zm3.54.22a6.9,6.9,0,0,1,1.13,1.83l-1.17.51a7.72,7.72,0,0,0-1.1-1.87Zm1.53-.61a7.21,7.21,0,0,1,1.14,1.77l-1.13.5a7.65,7.65,0,0,0-1.1-1.8Z"/><path class="cls-4" d="M348.31,192.46a13,13,0,0,0-2,2.91A21.67,21.67,0,0,0,343.5,204h-3.23a23.78,23.78,0,0,1,1.93-6.53,27.07,27.07,0,0,1,2.91-4.83h-5a18.58,18.58,0,0,0-2.37.12v-2.7a22.62,22.62,0,0,0,2.52.12h5.56c1.4,0,1.88,0,2.5-.07Z"/><path class="cls-4" d="M352.19,202.8A5.37,5.37,0,0,1,351,201a11.28,11.28,0,0,1-.66-3.9,10,10,0,0,1,1.05-4.71,5.14,5.14,0,0,1,4.63-2.51,5.26,5.26,0,0,1,3.82,1.48,4.75,4.75,0,0,1,1.17,1.8,11.3,11.3,0,0,1,.66,3.91,10.08,10.08,0,0,1-1,4.71,5.61,5.61,0,0,1-8.47,1Zm1.05-5.82c0,3.23.95,4.9,2.8,4.9a2.25,2.25,0,0,0,1.67-.68,6,6,0,0,0,1.1-4.06c0-3.22-.94-4.86-2.77-4.86S353.24,194,353.24,197Z"/><path class="cls-4" d="M368,197a7.25,7.25,0,0,0-1.29.08V196a15,15,0,0,1-2.07,1.85,7.56,7.56,0,0,0-1.51-2,12.85,12.85,0,0,0,4.36-4.83,5.67,5.67,0,0,0,.66-1.68l2.37.88a5.31,5.31,0,0,0-.44.87,19.64,19.64,0,0,1-2.46,3.87h7.32a16.79,16.79,0,0,1-2.49-4c-.08-.19-.25-.51-.36-.72l2.21-.85a6.1,6.1,0,0,0,.66,1.53,12.53,12.53,0,0,0,4.54,4.73,10,10,0,0,0-1.48,2.21,15.16,15.16,0,0,1-1.78-1.48,30,30,0,0,1-.55,6.73c-.34,1.19-1.07,1.56-3,1.56l-1.52,0a8.94,8.94,0,0,0-.63-2.33,16.94,16.94,0,0,0,1.91.17c.73,0,.95-.1,1.09-.44a17.1,17.1,0,0,0,.45-4.61V197H371a8.43,8.43,0,0,1-.27,1.63,8.92,8.92,0,0,1-2.91,4.84,10.16,10.16,0,0,1-2.51,1.62,7.74,7.74,0,0,0-1.44-2,7.47,7.47,0,0,0,4-3.27,6.08,6.08,0,0,0,.8-2.85Z"/><path d="M381.51,204.31a6.06,6.06,0,0,0-.13-1.13,29,29,0,0,1-.23-3.62,31.43,31.43,0,0,1,.55-5.58,4.33,4.33,0,0,0,.12-.91l2,.16a27.19,27.19,0,0,0-1,7.28v.21a4.17,4.17,0,0,1,.17-.4c0-.11.11-.28.22-.52a2.32,2.32,0,0,1,.18-.38l1.1.47a8.77,8.77,0,0,0-1.15,4,3,3,0,0,0,0,.37Zm10.16-.77a8.39,8.39,0,0,0-1.73-1.38v.2a1.65,1.65,0,0,1-.31,1,3,3,0,0,1-2.43.9c-1.75,0-2.84-.84-2.84-2.22s1.14-2.21,2.84-2.21a5.26,5.26,0,0,1,1,.09c0-.18,0-.39-.06-1.53l-1.12,0-1.87-.05h-.56l0-1.68a11.08,11.08,0,0,0,2.3.2c.31,0,.57,0,1.17,0v-1.38c-.73,0-.95,0-1.23,0-.51,0-.69,0-1.78-.06h-.46l.08-1.68a11.27,11.27,0,0,0,2.37.17,23.28,23.28,0,0,0,4.7-.44l0,1.67a6.39,6.39,0,0,0-.88.1c-.42.05-.62.08-1.09.12,0,.19,0,.78,0,1.23v.16a10.67,10.67,0,0,0,2.06-.35l.05,1.65a6.69,6.69,0,0,0-.88.11c-.23,0-.84.11-1.21.15,0,1,0,1.15.09,2a10.2,10.2,0,0,1,2.06,1.15,1.13,1.13,0,0,0,.35.22Zm-4.47-2.2c-.63,0-1.07.29-1.07.69s.38.66,1,.66,1.06-.27,1.06-.87a2.2,2.2,0,0,0,0-.31A2.89,2.89,0,0,0,387.2,201.34Z"/><path d="M397.92,193a22.12,22.12,0,0,0,.79,4c.71-.26,1.26-.45,3.28-1.08a2.86,2.86,0,0,0,.51-.2l.65,2a28,28,0,0,0-4.45,1.23c-1.78.65-2.69,1.41-2.69,2.24s.86,1.24,2.78,1.24a15.84,15.84,0,0,0,4.34-.56l.15,2.12c-.28,0-.35,0-1.09.09a31.83,31.83,0,0,1-3.25.2c-2.24,0-3.68-.42-4.36-1.3a2.76,2.76,0,0,1-.57-1.72,3.17,3.17,0,0,1,1.15-2.44,8.29,8.29,0,0,1,1.79-1.14,34.7,34.7,0,0,1-.83-3.47,4.89,4.89,0,0,0-.21-.86Zm3.54.22a6.87,6.87,0,0,1,1.12,1.83l-1.16.51a7.72,7.72,0,0,0-1.1-1.87Zm1.52-.61a6.67,6.67,0,0,1,1.14,1.77l-1.12.5a7.65,7.65,0,0,0-1.1-1.8Z"/><rect class="cls-6" x="48.51" y="77.36" width="52.9" height="91.73" rx="6"/><rect class="cls-5" x="52.91" y="89.27" width="44.08" height="68.07"/><circle class="cls-5" cx="74.95" cy="163.2" r="2.64"/><rect class="cls-6" x="344.44" y="77.36" width="52.9" height="91.73" rx="6"/><rect class="cls-5" x="348.85" y="89.27" width="44.08" height="68.07"/><circle class="cls-5" cx="370.89" cy="163.2" r="2.64"/><rect class="cls-6" x="196.15" y="77.36" width="52.9" height="91.73" rx="6" transform="translate(345.83 -99.38) rotate(90)"/><rect class="cls-5" x="200.48" y="89.19" width="44.08" height="68.07" transform="translate(345.74 -99.29) rotate(90)"/><circle class="cls-5" cx="182.62" cy="123.22" r="2.64"/><path class="cls-6" d="M75,110.63a12.6,12.6,0,1,0,12.6,12.59A12.59,12.59,0,0,0,75,110.63Zm-7.39,5.08a9.81,9.81,0,0,1,2-1.54c.18-.12.3,0,.24.19h0a16,16,0,0,0-.92,2c-.06.12-.12.12-.24.12a7.6,7.6,0,0,1-1-.49C67.5,116,67.5,115.83,67.56,115.71ZM64.5,122A8.69,8.69,0,0,1,66,117.72c.07-.06.19-.12.25-.06a17.39,17.39,0,0,0,1.83.92c.06.06.13.12.13.18a19.36,19.36,0,0,0-.43,3.3.18.18,0,0,1-.14.19h-3C64.56,122.25,64.44,122.12,64.5,122ZM66,128.73a9.61,9.61,0,0,1-1.53-4.28c-.06-.12.06-.25.18-.25h2.94a.16.16,0,0,1,.18.14v0c.09,1.1.23,2.21.43,3.3,0,.06-.06.18-.12.18a9.59,9.59,0,0,0-1.84.92C66.21,128.85,66.09,128.79,66,128.73Zm3.54,3.54a9.22,9.22,0,0,1-2.08-1.65.13.13,0,0,1-.08-.16.11.11,0,0,1,.09-.08l1.1-.55c.12-.06.18,0,.24.12a10.68,10.68,0,0,0,1,2.08C69.88,132.21,69.75,132.4,69.57,132.27Zm4.16,1h0a7.22,7.22,0,0,1-2.93-4c-.06-.13,0-.25.12-.25a23.39,23.39,0,0,1,2.87-.43.18.18,0,0,1,.19.14v4.33C74,133.31,73.85,133.37,73.73,133.31Zm.12-6.42h0a21.6,21.6,0,0,0-3.48.49.33.33,0,0,1-.24-.12,20.53,20.53,0,0,1-.37-2.82.16.16,0,0,1,.14-.18h3.9a.16.16,0,0,1,.18.14v2.31C74,126.77,73.92,126.89,73.85,126.89ZM74,122a.16.16,0,0,1-.14.18H70a.19.19,0,0,1-.18-.18,20.59,20.59,0,0,1,.37-2.81c0-.12.12-.18.24-.12a20.52,20.52,0,0,0,3.48.48c0,.07.13.13.13.19Zm0-4.58a.21.21,0,0,1-.19.18,14.74,14.74,0,0,1-2.87-.43c-.12,0-.18-.12-.12-.24a7.44,7.44,0,0,1,2.93-4c.06-.06.25.07.25.19Zm10,.3A9.53,9.53,0,0,1,85.54,122c0,.12-.07.25-.19.25H82.41a.15.15,0,0,1-.18-.13v0a30.39,30.39,0,0,0-.43-3.3c0-.06.06-.18.13-.18a9.8,9.8,0,0,0,1.83-.92C83.82,117.6,83.94,117.66,84,117.72Zm-3.54-3.55a12.27,12.27,0,0,1,1.89,1.47c.12.13.12.25,0,.31h0c-.3.18-.67.3-1,.48-.12.07-.18,0-.24-.12a13.38,13.38,0,0,0-.86-1.89C80.09,114.24,80.33,114.05,80.46,114.17ZM76,117.42v-4.28c0-.13.13-.25.25-.19a7.25,7.25,0,0,1,2.93,4c.06.12,0,.24-.12.24a21.61,21.61,0,0,1-2.87.43.29.29,0,0,1-.19-.18Zm0,4.64V119.8a.16.16,0,0,1,.14-.18h.05a21.6,21.6,0,0,0,3.48-.49.3.3,0,0,1,.24.12,19.09,19.09,0,0,1,.37,2.82.16.16,0,0,1-.14.18H76.24a.28.28,0,0,1-.25-.19Zm3.18,7.28a7.45,7.45,0,0,1-2.93,4c-.12.06-.24-.06-.24-.18v-4.28a.24.24,0,0,1,.18-.18h0a15.42,15.42,0,0,1,2.87.43C79.17,129.09,79.23,129.22,79.17,129.34Zm.68-2.14c0,.12-.13.18-.25.12a21.44,21.44,0,0,0-3.48-.49.16.16,0,0,1-.18-.14v-2.3c0-.06.18-.19.24-.19H80a.19.19,0,0,1,.18.18A20.51,20.51,0,0,1,79.85,127.2Zm2.81,3.54a9.73,9.73,0,0,1-2.08,1.66c-.25,0-.43-.19-.31-.31h0a20.71,20.71,0,0,0,1-2.08c.06-.12.12-.12.24-.12l1.1.55C82.72,130.5,82.72,130.62,82.66,130.74Zm1.34-2c-.06.06-.18.12-.24.06a16.62,16.62,0,0,0-1.84-.92c-.06-.06-.12-.12-.12-.18a21.6,21.6,0,0,0,.43-3.3.16.16,0,0,1,.14-.19h3c.13,0,.19.13.19.25A8.72,8.72,0,0,1,84,128.73Z"/><path id="パス_4677" data-name="パス 4677" class="cls-6" d="M376.76,128.15l-3.72-2a1,1,0,0,0-1.12.15L370.17,128a1,1,0,0,1-1.19.11,10.36,10.36,0,0,1-3.45-2.16,9.87,9.87,0,0,1-2.07-3.39,1.06,1.06,0,0,1,.12-1.19l1.68-1.75a1,1,0,0,0,.16-1.12l-2-3.72a1,1,0,0,0-.92-.51,5,5,0,0,0-3.1,1.44c-1.36,1.37-1.75,5.47,3.35,12.18,3.56,4.7,11.3,5.38,13.07,4.28a3.75,3.75,0,0,0,1.44-3.1A1,1,0,0,0,376.76,128.15Z"/><g id="グループ_2374" data-name="グループ 2374"><g id="グループ_2371" data-name="グループ 2371"><path id="パス_4717" data-name="パス 4717" class="cls-6" d="M370.49,121.11l2.71-.19a.46.46,0,0,0,.42-.5.29.29,0,0,0,0-.09,5.32,5.32,0,0,0-2.81-2.9.47.47,0,0,0-.59.3s0,.06,0,.09l-.23,2.72A.63.63,0,0,0,370.49,121.11Z"/></g><g id="グループ_2372" data-name="グループ 2372"><path id="パス_4718" data-name="パス 4718" class="cls-6" d="M373.79,117.21a6,6,0,0,1,1.68,3.25.32.32,0,0,0,.35.27l2.34-.17a.46.46,0,0,0,.43-.48,8.48,8.48,0,0,0-2.44-5.18,8.86,8.86,0,0,0-5-2.45.47.47,0,0,0-.5.42l-.2,2.33a.32.32,0,0,0,.26.35A6.28,6.28,0,0,1,373.79,117.21Z"/></g><g id="グループ_2373" data-name="グループ 2373"><path id="パス_4719" data-name="パス 4719" class="cls-6" d="M377.49,113.59a9.6,9.6,0,0,1,2.71,6.48.34.34,0,0,0,.33.32h0l2.26-.17a.46.46,0,0,0,.43-.45,11.72,11.72,0,0,0-11.79-12,.48.48,0,0,0-.47.42l-.19,2.26a.33.33,0,0,0,.28.36h0A9.72,9.72,0,0,1,377.49,113.59Z"/></g></g><circle class="cls-6" cx="222.47" cy="123.22" r="11.49"/><polygon class="cls-5" points="228.7 123.22 219.69 118.02 219.69 128.43 228.7 123.22"/></svg>