<svg id="レイヤー_1" data-name="レイヤー 1" xmlns="http://www.w3.org/2000/svg" width="512" height="277" viewBox="0 0 512 277"><defs><style>.cls-1{fill:#f1f1f1;}.cls-2{fill:#e9f3d2;}.cls-3{fill:#ccc;}.cls-4{fill:#47a20a;}.cls-12,.cls-5{fill:#fff;}.cls-6{fill:#8fc31f;}.cls-7{fill:#f55b43;}.cls-8{fill:#3a3a3a;}.cls-11,.cls-9{fill:none;}.cls-9{stroke:#8fc31f;stroke-width:3px;}.cls-11,.cls-12,.cls-9{stroke-miterlimit:10;}.cls-10{fill:#35318f;}.cls-11,.cls-12{stroke:#f55b43;stroke-width:5px;}.cls-13{fill:#fae3e1;}.cls-14{fill:#fcf0ef;}.cls-15{fill:#58cde0;}.cls-16{fill:#ffe2cc;}.cls-17{fill:#fff083;}</style></defs><circle class="cls-1" cx="166.54" cy="224.8" r="46.23"/><ellipse class="cls-2" cx="428.23" cy="223.28" rx="47.63" ry="46.23"/><ellipse class="cls-3" cx="57.24" cy="193.68" rx="53.8" ry="15.09"/><path class="cls-4" d="M3.44,193.68c0-8.34,24.09-15.09,53.8-15.09s53.8,6.75,53.8,15.09v68.23C111,270.24,87,277,57.24,277s-53.8-6.76-53.8-15.09Z"/><path class="cls-5" d="M26.26,225.79a5.59,5.59,0,0,0-.08-.91h2.18a4.68,4.68,0,0,0-.09.91v.13h4.36a12.48,12.48,0,0,0,1.62-.09v1.8a12.25,12.25,0,0,0-1.61-.07H22.08a12.1,12.1,0,0,0-1.59.07v-1.8a13.17,13.17,0,0,0,1.7.09h4.07Zm4.45,10.74c0,.17,0,.25,0,.62.41,0,.61,0,.8,0s.41-.06.41-.32v-3.3H22.81v3.74a13.37,13.37,0,0,0,.07,1.73H20.79a12.24,12.24,0,0,0,.09-1.73v-3.95a12.52,12.52,0,0,0-.06-1.38,15.6,15.6,0,0,0,1.62.06h10a12,12,0,0,0,1.52-.06,11.34,11.34,0,0,0-.06,1.36V237c0,.9-.08,1.21-.37,1.47s-.86.42-1.91.42c-.25,0-.49,0-1.1,0a4.06,4.06,0,0,0-.21-1.37c-.32,0-.49,0-.71,0H25.79v.59H23.91a7.52,7.52,0,0,0,.06-1.22V235a8.12,8.12,0,0,0,0-.94c.36,0,.66,0,1.22,0h4.41a11.69,11.69,0,0,0,1.19,0,8,8,0,0,0,0,.94Zm-8-7.46a8,8,0,0,0-.06-1.06c.45,0,.82.05,1.51.05h6.59c.63,0,1,0,1.41-.05a6.39,6.39,0,0,0-.07,1.06v1.45a6,6,0,0,0,.07,1.08c-.43,0-.81,0-1.47,0H24.12c-.62,0-1,0-1.48,0a8.11,8.11,0,0,0,.06-1.08Zm1.89,1.14h5.59v-.81H24.59Zm1.18,5.91H29v-.68H25.77Z"/><path class="cls-5" d="M35.52,230.58a6.39,6.39,0,0,0,1.23.08H38a8.22,8.22,0,0,0,1.16-.06c0,.45-.06.83-.06,1.68v3.31c.77,1.06,1.46,1.32,3.51,1.32a57.88,57.88,0,0,0,7.16-.32,9.27,9.27,0,0,0-.51,2.11c-1.33.06-3.3.09-4.84.09-4.3,0-5.06-.2-6.23-1.58a13.84,13.84,0,0,1-1.92,1.53s-.06,0-.26.18l-.86-2a9.09,9.09,0,0,0,2-1.32v-3.09H36.5a5.47,5.47,0,0,0-1,.08Zm4-4.61a11.87,11.87,0,0,0,1.77.09h2v-.27a4.33,4.33,0,0,0-.08-.88h2a3.2,3.2,0,0,0-.07.77v.38h2.43a11.39,11.39,0,0,0,1.76-.09v1.87a9.58,9.58,0,0,0-1.41-.07H45.15v.71h2.22a12.32,12.32,0,0,0,1.46-.06,10.29,10.29,0,0,0-.07,1.35v1.53a10.52,10.52,0,0,0,.07,1.37,13.68,13.68,0,0,0-1.49-.06H46.08a8.69,8.69,0,0,0,3.61,1.94,7.38,7.38,0,0,0-.91,1.82,11.48,11.48,0,0,1-1.94-1.06,9.57,9.57,0,0,1-1.74-1.49,7.45,7.45,0,0,1,0,.94v.88a4.39,4.39,0,0,0,.07.94h-2a3.87,3.87,0,0,0,.08-1v-.9c0-.19,0-.48,0-.88a10.77,10.77,0,0,1-3.07,2.4,7.31,7.31,0,0,0-1.12-1.64,10.36,10.36,0,0,0,3.33-2H41.36a14.81,14.81,0,0,0-1.5.06,11.24,11.24,0,0,0,.06-1.36V229.8a11.39,11.39,0,0,0-.06-1.38,12.91,12.91,0,0,0,1.52.06h1.95v-.71H41a9.63,9.63,0,0,0-1.34.06l-1.47,1.45a18.27,18.27,0,0,0-2.65-2.9L36.94,225a21.42,21.42,0,0,1,2.58,2.65Zm2.24,4v1.07h1.57V230Zm3.39,1.07h1.72V230H45.15Z"/><path class="cls-5" d="M58.69,231.75a8.18,8.18,0,0,1-1.18,4.13,7.32,7.32,0,0,1-3.89,2.88,5.86,5.86,0,0,0-1.5-2,5.51,5.51,0,0,0,3.62-2.56,5.82,5.82,0,0,0,.56-2.44H52.94a15.68,15.68,0,0,0-2.15.09v-2.18a16.27,16.27,0,0,0,2.18.11h8.54a15.56,15.56,0,0,0,2.24-.11v2.17a17.45,17.45,0,0,0-2.2-.08Zm2.2-3.75a16.81,16.81,0,0,0-2.21-.08H54.49a19.53,19.53,0,0,0-2.15.08v-2.17a14.27,14.27,0,0,0,2.18.11h4.11a14.1,14.1,0,0,0,2.26-.11v.89l1.13-.39a8.21,8.21,0,0,1,1,2.12l-1.27.48a9.44,9.44,0,0,0-.86-2Zm2.6.28a9.51,9.51,0,0,0-1-2.09l1.21-.45a8.16,8.16,0,0,1,1,2Z"/><path class="cls-5" d="M65.76,230.67a17.34,17.34,0,0,0,2.77.13h7.66a19.83,19.83,0,0,0,2.77-.11v2.48c-.6,0-1.6-.07-2.78-.07H68.53c-1.32,0-2.18,0-2.77.09Z"/><path class="cls-5" d="M87.39,225.5a5.32,5.32,0,0,0-.39.77c-.14.27-.18.38-.34.65l4,0a2.51,2.51,0,0,0,1.14-.2L93,227.86c-.22.24-.23.27-.49,1a17,17,0,0,1-3.77,6.63A16.29,16.29,0,0,1,83.59,239a6.3,6.3,0,0,0-1.5-1.91,17.36,17.36,0,0,0,2.89-1.4,11.18,11.18,0,0,0,2.4-2,16.46,16.46,0,0,0-3-2l1.38-1.62a20.08,20.08,0,0,1,2.9,1.88,12.67,12.67,0,0,0,1.49-3.15l-4.44,0a16.11,16.11,0,0,1-3.5,4.06,5.69,5.69,0,0,0-1.83-1.44,13.24,13.24,0,0,0,3.79-4.34,9.23,9.23,0,0,0,.88-2.12Z"/><path class="cls-5" d="M34.6,251.45a7,7,0,0,0,1.2.07H37a7.83,7.83,0,0,0,1.15-.06,14.11,14.11,0,0,0-.06,1.68v3.32a2.1,2.1,0,0,0,1.09,1,15.16,15.16,0,0,0,4,.38,46.64,46.64,0,0,0,5.65-.38,11.34,11.34,0,0,0-.49,2.12c-1.75.08-3.31.11-5.17.11-3.83,0-4.85-.26-6-1.55a13.83,13.83,0,0,1-1.91,1.61l-.94-2a7.92,7.92,0,0,0,1.92-1.3v-3h-.71a5.28,5.28,0,0,0-.94.07Zm1.34-5.5a19.4,19.4,0,0,1,2.72,2.74l-1.5,1.52a14.79,14.79,0,0,0-2.68-2.88Zm5.64,3.11a12.29,12.29,0,0,0-1.07-.66l1-.57H40.37a10,10,0,0,0-1.6.08v-1.84a15.49,15.49,0,0,0,1.9.09h4.71a10.28,10.28,0,0,0,1.82-.09l.94,1.06a5.38,5.38,0,0,0-.75.59,19.4,19.4,0,0,1-1.74,1.34h1a13.76,13.76,0,0,0,1.5-.06,13.92,13.92,0,0,0-.06,1.67v4.89c0,1.34-.38,1.67-1.93,1.67-.15,0-.39,0-.72,0a4.72,4.72,0,0,0-.35-1.51,5,5,0,0,0,.85.09c.25,0,.28,0,.28-.38V255H44.35v.53a11.74,11.74,0,0,0,.08,1.69h-2a11.79,11.79,0,0,0,.09-1.69V255H40.89v.63a7.8,7.8,0,0,0,.09,1.67H39a14,14,0,0,0,.08-1.67v-4.82A14.23,14.23,0,0,0,39,249c.47,0,.93.06,1.71.06Zm-.69,1.48v.82h1.68v-.82Zm0,3h1.68v-.82H40.89Zm1.4-5.74c.4.27.7.5,1.31,1a14.24,14.24,0,0,0,1.27-1Zm2.06,3.53h1.83v-.82H44.35Zm1.83,1.39H44.35v.82h1.83Z"/><path class="cls-5" d="M53.05,258.15a12.34,12.34,0,0,0,.1,1.74H51.06a13.73,13.73,0,0,0,.09-1.75V253.9c0-.4,0-.56,0-1.62a6.78,6.78,0,0,1-1,1.35,10.87,10.87,0,0,0-.73-2.26,10.19,10.19,0,0,0,2.18-3.68,9.52,9.52,0,0,0,.55-2.06l2,.69c-.07.22-.13.37-.24.72a16.72,16.72,0,0,1-.88,2.3Zm.64-9.72a6.44,6.44,0,0,0,1.24.08h7.45a10.53,10.53,0,0,0,1.41-.08v1.79a9.66,9.66,0,0,0-1.41-.07H54.93a9.72,9.72,0,0,0-1.24.06Zm2.57,11.48H54.31a11.5,11.5,0,0,0,.08-1.42v-2.24a11.83,11.83,0,0,0-.06-1.26c.33,0,.72,0,1.24,0h6c.58,0,.91,0,1.23,0a8.75,8.75,0,0,0-.06,1.24v2.23a10.7,10.7,0,0,0,.07,1.43h-2v-.65H56.26Zm6.51-7.57a7.18,7.18,0,0,0-1.12-.06H55.49a6.87,6.87,0,0,0-1,.05v-1.58a8.38,8.38,0,0,0,1,.05h6.15a9.29,9.29,0,0,0,1.13-.06Zm0,2.12a7.36,7.36,0,0,0-1.1-.06H55.49a8.58,8.58,0,0,0-1,0v-1.57a8.5,8.5,0,0,0,1,0h6.16a7.2,7.2,0,0,0,1.12-.07Zm0-6.53c-.44,0-.83-.06-1.47-.06H56a12.8,12.8,0,0,0-1.38.06v-1.69a12,12,0,0,0,1.57.08h4.94a13.73,13.73,0,0,0,1.63-.08Zm-1.89,9.71v-1H56.26v1Z"/><path class="cls-5" d="M65,250.4a11.17,11.17,0,0,0,1.62.08H77.29a10.52,10.52,0,0,0,1.6-.08v1.53a9.86,9.86,0,0,0-1.53-.07H66.63a11.24,11.24,0,0,0-1.6.07ZM68,256.08c-.57,0-.93,0-1.37,0a8.7,8.7,0,0,0,.06-1.22v-1.5a8.85,8.85,0,0,0-.06-1.15,11.64,11.64,0,0,0,1.43.06H75.9a12.49,12.49,0,0,0,1.42-.06,7.09,7.09,0,0,0-.06,1.13v1.53a7.31,7.31,0,0,0,.06,1.21c-.46,0-.83,0-1.38,0H72.88v.47h3.7a8.53,8.53,0,0,0,1.25-.06v1.3a10,10,0,0,0-1.36-.06H72.88v.47h4.2a14.23,14.23,0,0,0,1.81-.08v1.53a15.86,15.86,0,0,0-1.81-.07H66.83a15.67,15.67,0,0,0-1.8.07v-1.53a14.15,14.15,0,0,0,1.8.08H71v-.47H67.49a9.78,9.78,0,0,0-1.36.06v-1.3a8.69,8.69,0,0,0,1.26.06H71v-.47Zm-.13-6.1c-.8,0-1.17,0-1.56,0a10,10,0,0,0,.06-1.27v-1.37a10.58,10.58,0,0,0-.06-1.26c.47,0,.88.06,1.65.06H76c.77,0,1.16,0,1.63-.06a10,10,0,0,0-.06,1.26v1.37a10.31,10.31,0,0,0,.06,1.27c-.39,0-.76,0-1.56,0Zm.36-1h7.46v-.42H68.19Zm0-1.3h7.46v-.45H68.21Zm.27,5.6v.47H71v-.47Zm0,1.34v.45H71v-.45Zm4.4-.87h2.55v-.47H72.88Zm0,1.32h2.55v-.45H72.88Z"/><ellipse class="cls-6" cx="57.24" cy="192.61" rx="53.8" ry="15.09"/><polygon class="cls-7" points="243.87 221.09 224.09 199.8 224.09 242.38 243.87 221.09"/><path class="cls-8" d="M55.17,114.37a4.89,4.89,0,0,0-.09-1H57a4.94,4.94,0,0,0-.09,1v.2h4.52a12,12,0,0,0,1.6-.09V116a11.89,11.89,0,0,0-1.59-.08H50.84a11.76,11.76,0,0,0-1.57.08v-1.54a12.61,12.61,0,0,0,1.66.09h4.24Zm-5.48,7.52a12.38,12.38,0,0,0-.06-1.39c.49,0,.94.06,1.6.06h9.91a13.64,13.64,0,0,0,1.5-.06c0,.47-.06.82-.06,1.37v3.91c0,.76-.08,1-.37,1.31s-.76.37-1.83.37c-.32,0-.4,0-.89,0a3.93,3.93,0,0,0-.49,0,3.46,3.46,0,0,0-.34-1.53c.84.09,1.5.14,1.93.14s.37-.08.37-.32v-3.81H51.32V126a10,10,0,0,0,.09,1.68H49.6a11.26,11.26,0,0,0,.09-1.68Zm1.9-4.3c0-.49,0-.75,0-1.12a12.19,12.19,0,0,0,1.48.06H59.4a10.58,10.58,0,0,0,1.36-.06c0,.4,0,.63,0,1.12v1.31a10.6,10.6,0,0,0,0,1.14,11.11,11.11,0,0,0-1.44-.06H53a12.16,12.16,0,0,0-1.44.06c0-.33,0-.62,0-1.14Zm7.81,7.13a9.66,9.66,0,0,0,0,1,11.88,11.88,0,0,0-1.27,0H54.32v.76H52.74a7.51,7.51,0,0,0,.06-1.24v-1.77a9.62,9.62,0,0,0,0-1c.35,0,.67,0,1.24,0h4.19c.58,0,.79,0,1.25,0a8.55,8.55,0,0,0,0,1Zm-6.22-6h5.93v-.93H53.18Zm1.14,5.79h3.61v-.84H54.32Z"/><path class="cls-8" d="M64.89,119.3a6.94,6.94,0,0,0,1.23.08h1.11a6.94,6.94,0,0,0,1.17-.08,14.07,14.07,0,0,0-.07,1.67v3.24c.86,1.23,1.55,1.5,3.83,1.5a58.43,58.43,0,0,0,7-.32,7.19,7.19,0,0,0-.46,1.81c-1.39.06-3.24.09-4.82.09a16.29,16.29,0,0,1-4.44-.32,3.55,3.55,0,0,1-1.9-1.39,11.9,11.9,0,0,1-1.62,1.34c-.3.22-.5.39-.66.51l-.75-1.75a9,9,0,0,0,2.21-1.5v-3.3h-.81a5.62,5.62,0,0,0-1,.07Zm1.26-5.66a20.26,20.26,0,0,1,2.63,2.78l-1.29,1.24a17.2,17.2,0,0,0-2.57-2.89Zm4.17,2.59a9.41,9.41,0,0,0-1.42.07v-1.61a9.31,9.31,0,0,0,1.68.1H72.8v-.35a6.89,6.89,0,0,0-.07-1h1.71a4.09,4.09,0,0,0-.08.89v.43h2.7a9,9,0,0,0,1.65-.1v1.61a9.14,9.14,0,0,0-1.39-.07h-3V117h2.3a9.08,9.08,0,0,0,1.47-.08,9.52,9.52,0,0,0-.06,1.38v1.44a9.61,9.61,0,0,0,.06,1.41,11.41,11.41,0,0,0-1.5-.06H75.14a9.33,9.33,0,0,0,1.29,1,9.59,9.59,0,0,0,2.62,1.24,7.3,7.3,0,0,0-.83,1.53A11.05,11.05,0,0,1,76,123.56,8.4,8.4,0,0,1,74.3,122a6.07,6.07,0,0,1,.06,1.09v1.12a5.49,5.49,0,0,0,.08,1H72.73a7.82,7.82,0,0,0,.07-1.06v-1.12c0-.1,0-.44,0-1a12,12,0,0,1-3.33,2.66,5.59,5.59,0,0,0-1-1.38,11.33,11.33,0,0,0,3.57-2.26H70.78a12,12,0,0,0-1.5.06,11.69,11.69,0,0,0,.06-1.38v-1.42a12.38,12.38,0,0,0-.06-1.43,9.53,9.53,0,0,0,1.52.08h2v-.79Zm.57,2.15v1.37H72.8v-1.37Zm3.47,1.37h2.12v-1.37H74.36Z"/><path class="cls-8" d="M88.2,120.16c-.17,3.78-1.61,5.8-5.07,7.13a4.81,4.81,0,0,0-1.25-1.7c3-1,4.19-2.46,4.3-5.43H82.46a12,12,0,0,0-1.94.08v-1.83a9.27,9.27,0,0,0,2,.11h9a9.38,9.38,0,0,0,2-.11v1.83a12.12,12.12,0,0,0-2-.08Zm2.31-3.75a12.44,12.44,0,0,0-1.94-.08H84a12.69,12.69,0,0,0-2,.08v-1.87a9.94,9.94,0,0,0,2,.11h4.5a9.7,9.7,0,0,0,2-.11Zm.89-2.86A10.8,10.8,0,0,1,92.76,116l-1.15.42A11.52,11.52,0,0,0,90.27,114Zm2.19,2.17a11.57,11.57,0,0,0-1.32-2.37l1.1-.4a9.42,9.42,0,0,1,1.35,2.33Z"/><path class="cls-8" d="M96.14,119.41a15.16,15.16,0,0,0,2.48.11h8.16a15.23,15.23,0,0,0,2.48-.11v2.13a16.18,16.18,0,0,0-2.5-.08H98.64a16.1,16.1,0,0,0-2.5.08Z"/><path class="cls-8" d="M123.6,116.38a2.78,2.78,0,0,0-.48,1,25,25,0,0,1-2,4.21,15,15,0,0,1-7,5.85,4.74,4.74,0,0,0-1.27-1.58,15.37,15.37,0,0,0,3-1.53,11.18,11.18,0,0,0,2.51-2.12,16.79,16.79,0,0,0-3.14-2.19l1.16-1.37a19.46,19.46,0,0,1,3.08,2.06,14.61,14.61,0,0,0,1.71-3.62l-4.76,0a15.53,15.53,0,0,1-3.58,4.12,4.73,4.73,0,0,0-1.53-1.23,13,13,0,0,0,3.84-4.36,9.1,9.1,0,0,0,.89-2.13l2,.45a6.94,6.94,0,0,0-.46.85c-.18.42-.29.6-.36.74.24,0,.24,0,4-.06a4.08,4.08,0,0,0,1.35-.19Z"/><path class="cls-8" d="M125.48,119.26a6.55,6.55,0,0,0,1.16.07h1.07a6.94,6.94,0,0,0,1.17-.07,13.88,13.88,0,0,0-.07,1.66v3.28a2.39,2.39,0,0,0,.75.86,2.78,2.78,0,0,0,.77.39,12.06,12.06,0,0,0,3,.28,43.41,43.41,0,0,0,6.39-.4,10.32,10.32,0,0,0-.44,1.82c-2,.09-3.55.13-6.12.13a11.25,11.25,0,0,1-3.45-.39,3.65,3.65,0,0,1-1.77-1.3,2.11,2.11,0,0,1-.25.23,12.48,12.48,0,0,1-1.7,1.49l-.82-1.69a8.82,8.82,0,0,0,2-1.47v-3.26h-.78a5.12,5.12,0,0,0-1,.08Zm1.18-5.61a17.78,17.78,0,0,1,2.64,2.77L128,117.66a14.6,14.6,0,0,0-2.6-2.86Zm6.15,3.11a8.24,8.24,0,0,0-1.27-.79l1.18-.69h-1.46a11.67,11.67,0,0,0-1.59.07v-1.56a14,14,0,0,0,1.82.09h5a8.28,8.28,0,0,0,1.73-.1l.78,1a5.4,5.4,0,0,0-.76.58,22.09,22.09,0,0,1-2,1.45h1.23a8.76,8.76,0,0,0,1.56-.08,15.78,15.78,0,0,0-.06,1.78v4.71c0,.88-.07,1.18-.28,1.41s-.66.35-1.61.35h-.68a3.78,3.78,0,0,0-.36-1.46,6.5,6.5,0,0,0,1,.1c.34,0,.35,0,.35-.43v-.6h-2.29v.64a9.42,9.42,0,0,0,.09,1.7h-1.7a12,12,0,0,0,.09-1.7v-.64h-2.06v.78a8.15,8.15,0,0,0,.09,1.67h-1.73a11.69,11.69,0,0,0,.08-1.67v-4.83c0-.89,0-1.27-.06-1.8a11.23,11.23,0,0,0,1.71.08Zm-1.3,1.3v1h2.06v-1Zm0,3.25h2.06v-1h-2.06Zm1.33-6c.55.38.69.47,1.59,1.14a15,15,0,0,0,1.53-1.14Zm2.25,3.78h2.29v-1h-2.29Zm2.29,1.22h-2.29v1h2.29Z"/><path class="cls-8" d="M144.29,125.81a17,17,0,0,0,.07,1.77H142.6a15.83,15.83,0,0,0,.09-1.79v-4.56c0-.54,0-.58.05-1.7a9.22,9.22,0,0,1-1.13,1.65,10.43,10.43,0,0,0-.71-1.82,11.36,11.36,0,0,0,2.33-3.93,9.9,9.9,0,0,0,.57-2.11l1.68.58c0,.15-.15.46-.31.92a16.7,16.7,0,0,1-.88,2.25Zm.81-9.68a7.67,7.67,0,0,0,1.27.08h7.45a9.41,9.41,0,0,0,1.44-.09v1.57a14.27,14.27,0,0,0-1.44-.07h-7.45a8.23,8.23,0,0,0-1.27.07Zm2.37,11.47h-1.65a14.06,14.06,0,0,0,.07-1.43V124a10.47,10.47,0,0,0-.06-1.32c.32,0,.74,0,1.26,0h5.8c.59,0,1,0,1.3,0a9.69,9.69,0,0,0-.06,1.3v2.14a10.51,10.51,0,0,0,.07,1.44h-1.68v-.7h-5.05Zm6.66-7.78a9.83,9.83,0,0,0-1.2-.06h-5.86a8.06,8.06,0,0,0-1.09.06v-1.45a7.67,7.67,0,0,0,1.09.06h5.85a10.49,10.49,0,0,0,1.21-.06Zm0,2.16a8.35,8.35,0,0,0-1.18-.06h-5.88A6.28,6.28,0,0,0,146,122v-1.45a7.76,7.76,0,0,0,1.09.06h5.86a10.07,10.07,0,0,0,1.2-.06Zm0-6.54c-.42,0-.86-.06-1.5-.06h-5.16a12.42,12.42,0,0,0-1.38.06V114a10.69,10.69,0,0,0,1.52.09h4.89a11.23,11.23,0,0,0,1.63-.09Zm-1.61,10v-1.29h-5.05v1.29Z"/><path class="cls-8" d="M157,118.23a11.3,11.3,0,0,0,1.6.08h10.69a10.62,10.62,0,0,0,1.59-.08v1.35a9.9,9.9,0,0,0-1.53-.08H158.58a10.8,10.8,0,0,0-1.59.08Zm3.09,5.59c-.61,0-1,0-1.41,0a11.65,11.65,0,0,0,.05-1.22v-1.52c0-.49,0-.76-.05-1.13a10.46,10.46,0,0,0,1.46.06h7.63a11.21,11.21,0,0,0,1.43-.06,10.88,10.88,0,0,0-.05,1.1v1.56a11.15,11.15,0,0,0,.05,1.21c-.43,0-.88,0-1.41,0h-3.11v.55h3.84a9.15,9.15,0,0,0,1.27-.06v1.21a9.68,9.68,0,0,0-1.36-.07h-3.75V126h4.46a13.82,13.82,0,0,0,1.74-.07v1.36a14.2,14.2,0,0,0-1.74-.09h-10.4a11.3,11.3,0,0,0-1.74.09v-1.36a13.64,13.64,0,0,0,1.74.07h4.33v-.55H159.5a9.49,9.49,0,0,0-1.36.07v-1.21a9.15,9.15,0,0,0,1.27.06h3.65v-.55Zm-.18-6.08c-.82,0-1.17,0-1.55.05a8.65,8.65,0,0,0,.06-1.26v-1.47a8.54,8.54,0,0,0-.06-1.22c.47,0,.87.06,1.62.06h7.91c.77,0,1.14,0,1.61-.06a9.63,9.63,0,0,0-.06,1.22v1.47a10.7,10.7,0,0,0,.06,1.26c-.4,0-.72-.05-1.54-.05Zm.07-1h7.85v-.51H160Zm0-1.38h7.85v-.51H160Zm.27,5.62v.53h2.8V121Zm0,1.37v.51h2.8v-.51Zm4.41-.84h2.92V121h-2.92Zm0,1.35h2.92v-.51h-2.92Z"/><path class="cls-8" d="M173.2,115.34a18.16,18.16,0,0,0,3.55.2,6.12,6.12,0,0,0,.61-1.9l2,.21a14.58,14.58,0,0,0-.61,1.38c-.08.17-.11.21-.14.28.13,0,.13,0,1-.07a19.79,19.79,0,0,0,4-.52l.1,1.75c-.42,0-.42,0-1.21.12-1.11.14-3.06.26-4.6.31a8,8,0,0,1-1.41,2l0,0,.3-.23a3.77,3.77,0,0,1,2.16-.68,2,2,0,0,1,2.19,1.62c1.18-.43,2-.71,2.34-.83a4.24,4.24,0,0,0,1.13-.46l.72,1.76a13.42,13.42,0,0,0-1.7.42c-.21.06-1,.32-2.29.78v.16c0,.4,0,.4,0,.62v.61c0,.26,0,.4,0,.5a6.71,6.71,0,0,0,0,.82l-1.77,0a12.31,12.31,0,0,0,.09-1.77v-.37a9.14,9.14,0,0,0-1.47.79,1.62,1.62,0,0,0-.8,1.26c0,.8.74,1.12,2.59,1.12a13.11,13.11,0,0,0,4.5-.65l.15,2a4,4,0,0,0-.7.06,27.53,27.53,0,0,1-3.92.27,6.56,6.56,0,0,1-3.41-.64,2.21,2.21,0,0,1-1.12-2,2.47,2.47,0,0,1,.67-1.7,7.51,7.51,0,0,1,3.3-2.16.85.85,0,0,0-.94-.83,5.19,5.19,0,0,0-3.14,1.58,7.29,7.29,0,0,0-1.33,1.39l-1.39-1.37a9.68,9.68,0,0,0,1.38-1.37,20,20,0,0,0,1.83-2.61.46.46,0,0,1,.13-.2h-.26l-1.93,0h-.68Z"/><path class="cls-8" d="M8.44,143.29H7.08a9.44,9.44,0,0,0-1.54.09v-1.62a9.45,9.45,0,0,0,1.56.08H8.25v-1.5H7.33a9.5,9.5,0,0,0-1.41.07v-1.6a8.25,8.25,0,0,0,1.41.07h.92v-.41a7.64,7.64,0,0,0-.1-1.38H9.9a8,8,0,0,0-.08,1.38v.41h.52a7.53,7.53,0,0,0,1.36-.07v1.6a8.64,8.64,0,0,0-1.36-.07H9.82v1.5h.81a7.58,7.58,0,0,0,1.35-.08v.29a2.88,2.88,0,0,0,1.42-1.18,3.47,3.47,0,0,0,.52-1.68H13.3a6,6,0,0,0-1.18.07v-1.59a11.86,11.86,0,0,0,1.62.09h3.64a8.05,8.05,0,0,0,1.53-.09c0,.37,0,.42-.09,1.44,0,.75-.14,2.08-.2,2.45-.23,1.3-.7,1.65-2.25,1.65H15.5a3.72,3.72,0,0,0-.37-1.56,9.87,9.87,0,0,0,1.23.1c.39,0,.58-.09.66-.33a9,9,0,0,0,.23-2.22H15.52a7.34,7.34,0,0,1-.56,2.05,4.72,4.72,0,0,1-2.17,2.19,3.93,3.93,0,0,0-.79-1.15v1.1a6.79,6.79,0,0,0-1.43-.09H10v1.76h.7a7.21,7.21,0,0,0,1.24-.08v1.58a5.56,5.56,0,0,0-1.24-.09H10v2.4a12,12,0,0,0,4.45.47,49.25,49.25,0,0,0,5.19-.22,4.89,4.89,0,0,0-.46,1.69c-2.05,0-3.34.07-3.86.07a18.68,18.68,0,0,1-5.42-.48,4.89,4.89,0,0,1-2.61-2,10.42,10.42,0,0,1-.94,2.67A5,5,0,0,0,5.06,150a7.37,7.37,0,0,0,.84-2.27,13,13,0,0,0,.33-2.9,5.66,5.66,0,0,0-.05-.75l1.53.19c0,.33,0,.33-.06,1.26,0,.38,0,.63-.09,1.15a4.87,4.87,0,0,0,.88,1.16Zm4,1.55a7.2,7.2,0,0,0-.06-1.26,9.93,9.93,0,0,0,1.38.06h3.32a11.47,11.47,0,0,0,1.69-.08,9.13,9.13,0,0,0-.07,1.57v1.76a8.63,8.63,0,0,0,.07,1.57c-.48,0-.94-.06-1.61-.06H14.05c-.77,0-1.21,0-1.67.06a10,10,0,0,0,.07-1.51ZM14,147h3.12v-2.05H14Z"/><path class="cls-8" d="M22.42,141.33a5.87,5.87,0,0,0,.9,0,53.83,53.83,0,0,0,5.43-.34,3.69,3.69,0,0,0,1.23-.25l1,1.32a10.76,10.76,0,0,0-1.3,1.15c-.82.79-2.14,2-2.62,2.34a2.37,2.37,0,0,1,.94-.18,1.38,1.38,0,0,1,1.27.64,2.61,2.61,0,0,1,.34,1.41c.1,1.21.3,1.42,1.31,1.42a8.2,8.2,0,0,0,3-.58l.23,1.9a12.19,12.19,0,0,0-1.35.18,13.13,13.13,0,0,1-2.14.18,2.92,2.92,0,0,1-2.15-.58c-.42-.4-.55-.76-.62-2a2.28,2.28,0,0,0-.16-1,.69.69,0,0,0-.64-.32c-.72,0-1.41.43-2.65,1.62-.78.75-1.6,1.64-2.15,2.28L20.92,149A31.25,31.25,0,0,0,24.47,146c.35-.32.62-.58,1.77-1.69L28,142.59c-.87.13-1.27.19-2,.26L24.5,143l-.8.07c-.56.05-.67.07-1.18.13Zm1.89-4a22,22,0,0,0,6.1.85l-.29,1.72a28.57,28.57,0,0,1-6.36-.91Z"/><path class="cls-8" d="M39.85,143.56a7.44,7.44,0,0,1,3.21-.7c2.62,0,4.3,1.35,4.3,3.44a3.75,3.75,0,0,1-2.08,3.39,7.61,7.61,0,0,1-3.7.87,5.24,5.24,0,0,1-3-.7,2.2,2.2,0,0,1-.92-1.76,2.35,2.35,0,0,1,2.63-2.19A3.3,3.3,0,0,1,43,147.16a4,4,0,0,1,.7,1.38c1.27-.48,1.83-1.13,1.83-2.22s-1.18-2-3-2a9.42,9.42,0,0,0-6.3,2.57l-1-1.66a14.19,14.19,0,0,0,2.16-1.43,53,53,0,0,0,4.57-4l.28-.28h0c-.58.07-1.56.13-4.33.26a5.32,5.32,0,0,0-.73.07L37,138.06a14.1,14.1,0,0,0,1.81.09c1.3,0,3.16-.08,4.65-.19a2.1,2.1,0,0,0,1-.2l.95,1.35a3.34,3.34,0,0,0-.8.63c-.76.7-1.88,1.7-2.4,2.14-.28.23-1.38,1.06-1.68,1.26a5.57,5.57,0,0,1-.63.39Zm.46,3.82c-.55,0-.91.27-.91.7,0,.61.69,1,1.83,1A4.18,4.18,0,0,0,42,149C41.75,147.93,41.16,147.38,40.31,147.38Z"/><path class="cls-8" d="M54.19,137.31a25.82,25.82,0,0,0,1,4.79c1-.37,1-.37,4-1.35a3.5,3.5,0,0,0,.58-.23l.66,1.93a37.32,37.32,0,0,0-5,1.47c-2.23.82-3.35,1.8-3.35,2.9s1,1.6,3.5,1.6a16.7,16.7,0,0,0,5-.63l.17,2.1a9.24,9.24,0,0,0-1.24.1,32.07,32.07,0,0,1-3.59.23,8.57,8.57,0,0,1-4.43-.84A2.87,2.87,0,0,1,50,146.82a3.55,3.55,0,0,1,1.36-2.73,8.82,8.82,0,0,1,2.08-1.32,41.71,41.71,0,0,1-1-4.15,7.45,7.45,0,0,0-.24-1Z"/><path class="cls-8" d="M63.13,142.8a6.82,6.82,0,0,0,1.22.08H65.5a8.61,8.61,0,0,0,1.16-.07,14.34,14.34,0,0,0-.06,1.66v3.2a2.35,2.35,0,0,0,.87,1c.7.46,1.52.58,3.81.58a43.27,43.27,0,0,0,6.14-.34A7.08,7.08,0,0,0,77,150.7c-.6,0-.6,0-1.7.06l-3.49,0a17.57,17.57,0,0,1-3.82-.27,3.68,3.68,0,0,1-2.15-1.47A13.78,13.78,0,0,1,64,150.53c-.11.08-.37.27-.51.4l-.73-1.75a8.34,8.34,0,0,0,2.2-1.51v-3.29h-.84a5.7,5.7,0,0,0-1,.07Zm1.33-5.57A21.46,21.46,0,0,1,67.1,140l-1.27,1.24a16.51,16.51,0,0,0-2.6-2.86ZM69.11,141a11.67,11.67,0,0,0-1.38.08v-1.62c.43,0,.89.07,1.39.07h.6a7.4,7.4,0,0,0-1.09-2l1.47-.69a10.59,10.59,0,0,1,1.14,2l-1.34.65h2.47a12.84,12.84,0,0,0,1.24-2.64l1.65.55c-.18.32-.18.32-.53,1-.22.4-.39.7-.62,1.08H75a9.18,9.18,0,0,0,1.35-.07v1.62a14.64,14.64,0,0,0-1.47-.08H72.69a13.88,13.88,0,0,1-.08,1.75h2.91a9.16,9.16,0,0,0,1.38-.08v1.65c-.51,0-1-.07-1.52-.07H72.9a5,5,0,0,0,1.29,1.51A7.33,7.33,0,0,0,77,147.12a4.54,4.54,0,0,0-.77,1.62,7.7,7.7,0,0,1-2.89-1.59,6.35,6.35,0,0,1-1.44-1.72,5.1,5.1,0,0,1-1.41,1.85,7.84,7.84,0,0,1-2.22,1.41,4.12,4.12,0,0,0-1.07-1.45A7.09,7.09,0,0,0,69.45,146a4.29,4.29,0,0,0,1.2-1.79H68.57c-.5,0-1,0-1.42.07v-1.65a12.25,12.25,0,0,0,1.42.08H71a14,14,0,0,0,.07-1.75Z"/><path class="cls-8" d="M90.52,144.93a16.85,16.85,0,0,0-1.35,1.48,14.67,14.67,0,0,1-1.91,1.69,17.23,17.23,0,0,0,5.51,1.34,6.67,6.67,0,0,0-.8,1.7,17.21,17.21,0,0,1-4.14-1,14.35,14.35,0,0,1-2.12-1,19.55,19.55,0,0,1-6,2.08,7.45,7.45,0,0,0-.84-1.64,17.79,17.79,0,0,0,5.46-1.47,12.25,12.25,0,0,1-2.46-2.8,6.87,6.87,0,0,0-.75.07v-1.58c.41,0,.94.08,1.56.08h5.55a7.33,7.33,0,0,0,1.33-.08ZM80,139.54a8.53,8.53,0,0,0-.55-1.53h1.21a60.65,60.65,0,0,0,6.93-.41,15.46,15.46,0,0,0,3.09-.69l1.06,1.49a5.72,5.72,0,0,0-.66.13c-.6.14-1.07.23-1.85.36l1.48.47c-.69,1.33-.7,1.38-.93,1.76h1a13.25,13.25,0,0,0,1.65-.06c0,.4,0,.73,0,1.29v1.11a9.55,9.55,0,0,0,.07,1.14h-1.7v-1.92H80.69v2H79a6.18,6.18,0,0,0,.1-1.18v-1.14a12.94,12.94,0,0,0-.07-1.3,12.35,12.35,0,0,0,1.69.07h1a9.82,9.82,0,0,0-.66-1.59Zm5.13,1.59c-.2-.64-.4-1.21-.63-1.76,0,0-.64,0-1.79.11a16.68,16.68,0,0,1,.66,1.65Zm-1.47,4.12a7,7,0,0,0,2.09,2,9.69,9.69,0,0,0,2.3-2ZM88,141.13a13.15,13.15,0,0,0,1-2.2l-.66.09-1.12.11-1.13.12a10.92,10.92,0,0,1,.61,1.88Z"/><path class="cls-8" d="M97.47,149.35a17.2,17.2,0,0,0,.07,1.78H95.78a16,16,0,0,0,.09-1.8v-4.56c0-.53,0-.58,0-1.69a9.22,9.22,0,0,1-1.13,1.65,9.84,9.84,0,0,0-.71-1.82A11.41,11.41,0,0,0,96.41,139a9.74,9.74,0,0,0,.57-2.11l1.68.58c0,.16-.15.46-.31.92a16.7,16.7,0,0,1-.88,2.25Zm.81-9.67a7.79,7.79,0,0,0,1.27.07H107a9.41,9.41,0,0,0,1.44-.09v1.58a11.6,11.6,0,0,0-1.44-.08H99.55a8.14,8.14,0,0,0-1.27.08Zm2.37,11.46H99a14,14,0,0,0,.07-1.42v-2.16a10.47,10.47,0,0,0-.06-1.32c.32,0,.74,0,1.26,0h5.8c.59,0,1,0,1.3,0a9.78,9.78,0,0,0-.06,1.3v2.15a10.51,10.51,0,0,0,.07,1.44H105.7v-.71h-5Zm6.66-7.77a8,8,0,0,0-1.2-.07h-5.86a6.55,6.55,0,0,0-1.09.07v-1.46a6.41,6.41,0,0,0,1.09.06h5.85a8.63,8.63,0,0,0,1.21-.06Zm0,2.15a10.18,10.18,0,0,0-1.18-.06h-5.88a7.47,7.47,0,0,0-1.09.06v-1.45a6.48,6.48,0,0,0,1.09.06h5.86a8.32,8.32,0,0,0,1.2-.06Zm0-6.53a12.65,12.65,0,0,0-1.5-.06h-5.16a10.37,10.37,0,0,0-1.38.06v-1.47a10.69,10.69,0,0,0,1.52.09h4.89a11.23,11.23,0,0,0,1.63-.09Zm-1.61,10V147.7h-5V149Z"/><path class="cls-8" d="M115.71,149.49c-1.46.27-1.46.27-3.11.52-1.22.17-1.76.26-2.14.33l-.35-1.57h.24c.25,0,.67,0,1.32-.07V144a10.69,10.69,0,0,0-1.52.08v-1.49a8,8,0,0,0,1.58.1h10.82a8.11,8.11,0,0,0,1.59-.1V144a11.74,11.74,0,0,0-1.61-.08h-5.31v5.6a7.77,7.77,0,0,0,2.07-1.08,11.48,11.48,0,0,1-1.39-1.95l1.3-.58h-.4a9.64,9.64,0,0,0-1.15.06v-1.43a10.23,10.23,0,0,0,1.29.06h2.57a8,8,0,0,0,1.15-.06l.79.87a1.77,1.77,0,0,0-.24.44,12,12,0,0,1-1.75,2.62,9.07,9.07,0,0,0,2.71,1.08,8.82,8.82,0,0,0-.78,1.5,9.11,9.11,0,0,1-3-1.59A10.51,10.51,0,0,1,118,151a4,4,0,0,0-.8-1.29,9.86,9.86,0,0,0,.08,1.47h-1.68a9.28,9.28,0,0,0,.09-1.54Zm6.79-8.68a11.56,11.56,0,0,0,.06,1.33c-.35,0-.9,0-1.42,0h-7.77c-.69,0-1.11,0-1.58,0a9.85,9.85,0,0,0,.06-1.31v-2.07a10,10,0,0,0-.06-1.33c.5,0,.92.06,1.62.06h7.53c.71,0,1.1,0,1.62-.06a11.44,11.44,0,0,0-.06,1.33ZM115.71,144h-2.54v.69h2.54Zm0,1.81h-2.54v.73h2.54Zm0,1.85h-2.54v.95c.75-.08,1.1-.12,2.54-.34Zm-2.28-8.34h7.48v-.61h-7.48Zm0,1.68h7.48v-.62h-7.48Zm5.84,5a6.43,6.43,0,0,0,1.09,1.61,6.18,6.18,0,0,0,1.13-1.61Z"/><path class="cls-8" d="M133.66,142.36a10.46,10.46,0,0,0,6.43,6.91A6.47,6.47,0,0,0,139,151a12.38,12.38,0,0,1-3.78-2.8,11.59,11.59,0,0,1-2.31-3.7,9.2,9.2,0,0,1-2.5,4.1,11.15,11.15,0,0,1-3.65,2.4,6.22,6.22,0,0,0-1.07-1.6,11.32,11.32,0,0,0,2.47-1.3,7.81,7.81,0,0,0,3.45-5.77H128a12.74,12.74,0,0,0-1.92.1v-1.94a11.71,11.71,0,0,0,1.93.11h3.75c0-.77.05-1,.05-1.81a10.38,10.38,0,0,0-.11-1.53h2a11.55,11.55,0,0,0-.11,1.79c0,.63,0,1,0,1.55h4.06a12.28,12.28,0,0,0,1.93-.11v1.94a15.05,15.05,0,0,0-1.92-.1Z"/><path class="cls-8" d="M143.62,150.07a12.58,12.58,0,0,0-2,.08,8.12,8.12,0,0,1,.39-2,7.64,7.64,0,0,1,2.1-3,20.51,20.51,0,0,1,2.53-1.85c1.41-1,1.83-1.47,1.83-2.25,0-1.05-.81-1.69-2.11-1.69a2.15,2.15,0,0,0-1.94.91,2.89,2.89,0,0,0-.48,1.4l-2.18-.26a4.55,4.55,0,0,1,1.05-2.45,4.49,4.49,0,0,1,3.51-1.36c2.67,0,4.33,1.29,4.33,3.38a3.11,3.11,0,0,1-1.09,2.45,19.39,19.39,0,0,1-2.57,1.89,12.65,12.65,0,0,0-1.82,1.53,3.54,3.54,0,0,0-.87,1.37h4.28a15.45,15.45,0,0,0,2.23-.12v2c-.71-.06-1.33-.09-2.31-.09Z"/><path class="cls-8" d="M154.32,149.07a4.2,4.2,0,0,1-1-1.54,10.21,10.21,0,0,1-.6-3.52,9.09,9.09,0,0,1,.93-4.24,4.36,4.36,0,0,1,3.91-2.13,4.45,4.45,0,0,1,3.23,1.24,4.32,4.32,0,0,1,1,1.55,10.45,10.45,0,0,1,.59,3.55,8.05,8.05,0,0,1-1.13,4.53,4.76,4.76,0,0,1-6.93.56Zm4.88-1.17a7.75,7.75,0,0,0,0-7.86,2.23,2.23,0,0,0-1.67-.64,2.07,2.07,0,0,0-1.71.78,5.68,5.68,0,0,0-1,3.72,6.86,6.86,0,0,0,.78,3.64,2.43,2.43,0,0,0,3.61.36Z"/><path class="cls-8" d="M165.6,149.07a4.2,4.2,0,0,1-1-1.54A10.21,10.21,0,0,1,164,144a9.09,9.09,0,0,1,.93-4.24,4.36,4.36,0,0,1,3.91-2.13,4.33,4.33,0,0,1,4.24,2.79,10.45,10.45,0,0,1,.59,3.55,8.05,8.05,0,0,1-1.13,4.53,4.76,4.76,0,0,1-6.93.56Zm4.88-1.17a7.75,7.75,0,0,0,0-7.86,2.23,2.23,0,0,0-1.67-.64,2.07,2.07,0,0,0-1.71.78,5.68,5.68,0,0,0-1,3.72,6.86,6.86,0,0,0,.78,3.64,2.43,2.43,0,0,0,3.61.36Z"/><path class="cls-8" d="M177.79,137.89a15.46,15.46,0,0,0-.1,2v5l2.29-2.28a6.65,6.65,0,0,0,1.21-1.37h2.86c-.87.78-.87.78-1.53,1.41l-2.17,2.07,2.59,3.53a11.57,11.57,0,0,0,1.39,1.78H181.6a6.92,6.92,0,0,0-1-1.73l-1.65-2.42-1.25,1.2v1a11.4,11.4,0,0,0,.1,2h-2.15a16.37,16.37,0,0,0,.1-2v-8.19a15.16,15.16,0,0,0-.1-2Z"/><path class="cls-8" d="M186,150.07a15.37,15.37,0,0,0,.11-2.07v-8.06a17,17,0,0,0-.11-2.05h2.16A16.83,16.83,0,0,0,188,140v1.53c0,.25,0,.63,0,1.15a3.55,3.55,0,0,1,3.15-1.54c2.57,0,4.08,1.66,4.08,4.51a5,5,0,0,1-1.25,3.58,3.91,3.91,0,0,1-2.94,1.1,3.31,3.31,0,0,1-3-1.51c0,.2,0,.37,0,.55v.75Zm4.95-7.38a2.72,2.72,0,0,0-2.08.84,3.32,3.32,0,0,0-.75,2.13,3.2,3.2,0,0,0,1,2.42,2.67,2.67,0,0,0,1.6.57c1.55,0,2.55-1.2,2.55-3.05S192.32,142.69,190.91,142.69Z"/><path class="cls-8" d="M199.19,142a5.15,5.15,0,0,1,0,.54,3.57,3.57,0,0,1,3.12-1.5,4,4,0,0,1,2.91,1.07,4.79,4.79,0,0,1,1.21,3.52c0,2.82-1.54,4.52-4.15,4.52a3.6,3.6,0,0,1-3.09-1.47c0,.18,0,.18,0,.49,0,.1,0,.38,0,.66V151a14.55,14.55,0,0,0,.11,2h-2.16a16.42,16.42,0,0,0,.11-2v-7.69a15.31,15.31,0,0,0-.11-2.06h2Zm2.74.68a2.94,2.94,0,0,0,.06,5.86c1.5,0,2.43-1.13,2.43-2.94S203.47,142.71,201.93,142.71Z"/><path class="cls-8" d="M210.08,147.31c.26,1.05.83,1.46,2,1.46s1.84-.45,1.84-1.16a.93.93,0,0,0-.4-.77c-.29-.2-.38-.21-1.6-.49a9,9,0,0,1-2.21-.66,2.2,2.2,0,0,1-1.35-2,2.28,2.28,0,0,1,.48-1.43,3.71,3.71,0,0,1,3.06-1.19,4.2,4.2,0,0,1,2.88.89,2.9,2.9,0,0,1,.82,1.51l-2,.26c-.16-.84-.68-1.21-1.68-1.21s-1.59.43-1.59,1.07a.81.81,0,0,0,.47.72,6.49,6.49,0,0,0,1.53.46,6.57,6.57,0,0,1,2.7.94,2.18,2.18,0,0,1,.89,1.89,2.48,2.48,0,0,1-.75,1.73,4.53,4.53,0,0,1-3.17,1,4.08,4.08,0,0,1-3.42-1.36,3.53,3.53,0,0,1-.59-1.37Z"/><path class="cls-8" d="M217.83,150.07v-2.24h2.23v2.24Z"/><path class="cls-8" d="M222.34,150.07v-2.24h2.24v2.24Z"/><path class="cls-8" d="M226.86,150.07v-2.24h2.23v2.24Z"/><path class="cls-7" d="M4.43,24a11.54,11.54,0,0,0,1.89.12h2a13.92,13.92,0,0,0,1.8-.1A24.25,24.25,0,0,0,10,26.67v5.15c1.19,1.64,2.24,2,5.43,2a92,92,0,0,0,11.07-.49,13.62,13.62,0,0,0-.8,3.26c-2.06.1-5.1.15-7.49.15-6.65,0-7.82-.31-9.62-2.45a22.64,22.64,0,0,1-3,2.38,2.35,2.35,0,0,0-.4.28l-1.33-3.2a14.09,14.09,0,0,0,3.16-2V27H6a8.58,8.58,0,0,0-1.52.12Zm6.17-7.17a17.12,17.12,0,0,0,2.74.14H16.5v-.42a7.47,7.47,0,0,0-.11-1.36h3a5.14,5.14,0,0,0-.12,1.2V17h3.77a16.28,16.28,0,0,0,2.72-.14v2.92a13.69,13.69,0,0,0-2.18-.12H19.31v1.1h3.44A20.67,20.67,0,0,0,25,20.68a17.85,17.85,0,0,0-.09,2.09v2.37A18.56,18.56,0,0,0,25,27.28a19.15,19.15,0,0,0-2.29-.09H20.76a13.38,13.38,0,0,0,5.57,3A12.17,12.17,0,0,0,24.93,33a16.76,16.76,0,0,1-3-1.65,14.24,14.24,0,0,1-2.69-2.3,10.86,10.86,0,0,1,.07,1.45v1.37a6.78,6.78,0,0,0,.12,1.45h-3a7.09,7.09,0,0,0,.11-1.48V30.48c0-.31,0-.75.05-1.37a16.51,16.51,0,0,1-4.75,3.72,11.61,11.61,0,0,0-1.73-2.54,16,16,0,0,0,5.15-3.1H13.46a20.7,20.7,0,0,0-2.32.09,19.15,19.15,0,0,0,.1-2.11V22.82a19.35,19.35,0,0,0-.1-2.14,21.78,21.78,0,0,0,2.34.09h3v-1.1H12.83a16.15,16.15,0,0,0-2.08.09L8.48,22a28.13,28.13,0,0,0-4.1-4.51l2.25-2.14a32.58,32.58,0,0,1,4,4.11Zm3.47,6.28v1.66H16.5V23.15Zm5.24,1.66H22V23.15H19.31Z"/><path class="cls-7" d="M32.87,23.26a49.66,49.66,0,0,1-.63,8.16,17.05,17.05,0,0,1-2.06,5.71,12.46,12.46,0,0,0-2.3-2.66c1.62-3.1,2-5.92,2-14.64,0-1.38,0-2.18-.1-3.1.87.07,1.71.12,2.79.12h5.64v-.42a6.68,6.68,0,0,0-.12-1.27h3.33a4.66,4.66,0,0,0-.12,1.29v.4h5.55a23.36,23.36,0,0,0,2.92-.14V19.5c-.82-.07-1.36-.09-2.46-.09H45.84v1.32h1.94a16.5,16.5,0,0,0,2.06-.1v2.73a13.71,13.71,0,0,0-2-.1h-2v2.07a12.9,12.9,0,0,0,.07,1.53c-.59,0-.59,0-1.5,0H37.25c-.94,0-1.08,0-1.57,0,0-.4.07-1,.07-1.53V23.26Zm2.9,7a22.45,22.45,0,0,0-2.39.09V27.82a22.73,22.73,0,0,0,2.6.1h8.15c1,0,1.5,0,2.08-.07l1.5,1.57c-.21.21-.21.21-.82.92a17.28,17.28,0,0,1-3.23,3,21.14,21.14,0,0,0,5.85.75h.59A13.77,13.77,0,0,0,49,37.2a23.41,23.41,0,0,1-8.49-2.07,24.76,24.76,0,0,1-7.75,2.07,12.34,12.34,0,0,0-1-2.87,20.3,20.3,0,0,0,5.82-.89,11.37,11.37,0,0,1-1.21-.92L34.76,31.3l2.56-1Zm0-10.34a4.67,4.67,0,0,0,0-.54H32.89v1.32h2.86Zm2.06,10.34a11.24,11.24,0,0,0,2.83,1.88,10.58,10.58,0,0,0,2.5-1.88Zm5.08-10.43v-.45H38.72l0,.47v.85h4.22Zm-4.19,4.7h4.19V23.17H38.7Z"/><path class="cls-7" d="M55.46,20.8c-.23.61-.33.84-.66,1.62a24.09,24.09,0,0,0-2.66-1.37,13.76,13.76,0,0,0,1.63-4.32,5.94,5.94,0,0,0,.15-1.13l2.78.47c-.05.19-.16.66-.21,1,0,.07-.09.42-.23,1h1.42v-.54a12.34,12.34,0,0,0-.14-2.21h3.05a11.7,11.7,0,0,0-.12,2.16v.59h1.87A14.34,14.34,0,0,0,64.66,18v2.94a21.26,21.26,0,0,0-2.32-.09H60.47v1.64H63a18.74,18.74,0,0,0,2.15-.09v2.91a18.46,18.46,0,0,0-2.27-.09H60.47v1.55h2.2a17.24,17.24,0,0,0,2.18-.1,15.29,15.29,0,0,0-.07,2.07v4.73c0,1.62-.57,2.06-2.63,2.06l-1,0a7.18,7.18,0,0,0-.53-2.63c.32,0,.77,0,1,0s.51-.07.51-.35V29.4H60.47v5.31a14.59,14.59,0,0,0,.12,2.46H57.54a12.92,12.92,0,0,0,.14-2.51V29.4H56v4.06c0,1,0,1.58.07,2.21h-3a12.63,12.63,0,0,0,.12-2.25V28.83a19.67,19.67,0,0,0-.09-2.21,20.55,20.55,0,0,0,2.29.1h2.29V25.17H55a18.38,18.38,0,0,0-2.48.11v-3a11.72,11.72,0,0,0,2.06.12h3.13V20.8Zm13.41-3.74a20.63,20.63,0,0,0-.09,2.4V29a16,16,0,0,0,.09,2.45h-3A14.42,14.42,0,0,0,66,29V19.53a16.52,16.52,0,0,0-.14-2.47Zm4.52-1.64a16,16,0,0,0-.14,2.84V33.91a2.83,2.83,0,0,1-.63,2.23A2.65,2.65,0,0,1,71,36.8a14.38,14.38,0,0,1-2.08.14c-.26,0-.45,0-1.83,0a7.66,7.66,0,0,0-.77-3,25.67,25.67,0,0,0,2.9.24c.89,0,1.08-.12,1.08-.71V18.35a22.77,22.77,0,0,0-.14-2.93Z"/><path class="cls-7" d="M77.16,18.21c0-.8,0-1-.09-2.37a11.44,11.44,0,0,0,1.78.09h3.53a6.46,6.46,0,0,0,1.76-.12l1.45,1.93c-.09.21-.19.49-.31.82a40.2,40.2,0,0,1-2.06,5c1.46,2.16,1.9,3.39,1.9,5.36a2.71,2.71,0,0,1-1.64,2.75,7.76,7.76,0,0,1-2.6.37,6.31,6.31,0,0,0-.56-2.91,6.23,6.23,0,0,0,.85.07c.81,0,1.07-.21,1.07-.91a5.9,5.9,0,0,0-.49-2.35,7,7,0,0,0-1.43-2.21,25.13,25.13,0,0,0,2-5h-2.2V34.17a27.67,27.67,0,0,0,.12,2.93H77a23.67,23.67,0,0,0,.14-2.93Zm21,10.36a16,16,0,0,0-1.27,1.06c-.46.42-1.33,1.11-2.17,1.72a11.35,11.35,0,0,0,3.81,2.93,9.8,9.8,0,0,0-1.64,2.89,15.19,15.19,0,0,1-3.55-2.91,13.93,13.93,0,0,1-1.13-1.41l0,2.14c-1.74.49-2.34.66-4.61,1.2l-3.12.68-1,.26L83,34a18.43,18.43,0,0,0,2.6-.33V18.49c0-1,0-1.59-.09-2.53a12.66,12.66,0,0,0,2.22.11h7A17.16,17.16,0,0,0,96.92,16a20.15,20.15,0,0,0-.1,2.61v5.68a25.46,25.46,0,0,0,.1,2.57c-.56,0-.59,0-.87,0Zm-9.65-8.34H94V18.75H88.51Zm0,4.07H94V22.72H88.51Zm0,8.76a31.74,31.74,0,0,0,3.33-.82,15.61,15.61,0,0,1-2-5.45H88.51Zm4-6.27A9.13,9.13,0,0,0,93.27,29a15,15,0,0,0,2.48-2.23H92.56Z"/><path class="cls-7" d="M101.32,19.88c.66.07,1.62.12,2.51.12,1.63,0,4.14-.17,6-.38-.42-1.1-1.21-3.05-1.43-3.5l3.61-.45a15,15,0,0,0,1.15,3.55,32.09,32.09,0,0,0,5.75-1.34l.38,3.34a17.26,17.26,0,0,0-1.83.33c-1.4.3-1.4.3-3.16.61.82,1.55,1.36,2.54,1.62,3,.68,1.11,1.71,2.66,2.43,3.67l-3.25,1.41a3.88,3.88,0,0,0-1.64-1,10.5,10.5,0,0,0-3.53-.52c-3,0-4.69.84-4.69,2.3a1.62,1.62,0,0,0,.61,1.29,7.24,7.24,0,0,0,4,.87,16.77,16.77,0,0,0,7.19-1.57l.44,3.57-2,.49a22.58,22.58,0,0,1-5.64.71c-3.14,0-5.5-.61-6.75-1.74a4.8,4.8,0,0,1-1.54-3.45,4.71,4.71,0,0,1,1.54-3.46c1.36-1.27,3.42-1.9,6.16-1.9a11.58,11.58,0,0,1,3.82.56,14.26,14.26,0,0,1-1.08-1.67,10.36,10.36,0,0,1-.82-1.5c-.21-.38-.21-.38-.3-.56a69.56,69.56,0,0,1-8.29.54,7.45,7.45,0,0,0-1.1.07Z"/><path class="cls-7" d="M122.16,29.87a14.4,14.4,0,0,0,1.57-1.39c2.29-2.3,2.29-2.3,2.59-2.63,0-.38,0-.68,0-1,0-.62,0-.62,0-1.2,0-.29,0-.45,0-.92-1.94.12-2.88.21-3.54.31l-.16-3.15c.47,0,.73,0,1.1,0s1.9-.07,2.69-.11c0-1.27.07-2.14.07-2.64a9,9,0,0,0-.09-1.41l3.53.08c-.09.61-.23,2.25-.28,3.59l1.34,1.22a8,8,0,0,0-1.53,1.69v.52c0,.12,0,.14,0,.59a24.72,24.72,0,0,1,2.76-2.33c2-1.43,3.42-2,4.87-2a3.23,3.23,0,0,1,3.47,3.31,16.28,16.28,0,0,1-.61,3.65,30.5,30.5,0,0,0-1,5.17c0,.58.28.94.78.94s1-.45,1.49-1.13a15.84,15.84,0,0,0,1.39-2.61,12.32,12.32,0,0,0,1.75,3.29,12.38,12.38,0,0,1-1.73,2.35,4.79,4.79,0,0,1-3.58,1.69,3.66,3.66,0,0,1-2.2-.66,3.46,3.46,0,0,1-1.29-3c0-1.29.16-2.32,1-6.06a15.72,15.72,0,0,0,.44-2.7.72.72,0,0,0-.82-.78,4.89,4.89,0,0,0-2.57,1.13,24.4,24.4,0,0,0-4.15,3.74c0,1.15,0,2,0,2.63,0,3.24,0,5.4.16,6.46h-3.58a24.79,24.79,0,0,0,.16-3.67c0-1.45,0-1.52,0-2.79a3.23,3.23,0,0,0-.42.52l-.87,1c-.16.21-.42.49-.73.87a4.61,4.61,0,0,0-.53.7Z"/><path class="cls-7" d="M144.84,18.4l.92,0c.44,0,.58,0,3.91-.21,1.61-.12,5.64-.3,12.07-.59a12.82,12.82,0,0,0,2.62-.21l.19,3.6A2.4,2.4,0,0,0,164,21a10.81,10.81,0,0,0-5,1.43c-2.64,1.53-4.23,3.69-4.23,5.86,0,1.73,1.07,3,3,3.57a15.57,15.57,0,0,0,3.46.54,4.85,4.85,0,0,0,.59,0l-.49,3.81a6,6,0,0,0-.82-.14,15,15,0,0,1-5.67-1.43,6.42,6.42,0,0,1-3.69-6c0-3.15,1.68-5.73,4.94-7.61-2.32.26-2.44.26-7.66.66-1.29.11-2.55.28-3.44.44Z"/><path class="cls-7" d="M168,24.74a15.52,15.52,0,0,0,4.1.87c.16-1.38.16-1.38.39-2.86a24.83,24.83,0,0,1-3.3-.57c-.35-.07-.47-.09-.82-.14l.26-3.1a16.3,16.3,0,0,0,4.24.82,25.73,25.73,0,0,0,.4-3.64v-.28l3.69.33a19.5,19.5,0,0,0-.72,3.71,22.65,22.65,0,0,0,5.22-.54l-.12,3.29-1.71.14a32.41,32.41,0,0,1-3.53.14h-.35c-.17,1.13-.24,1.6-.4,2.89.37,0,.65,0,.82,0a17.73,17.73,0,0,0,4.66-.52l-.07,3.22a5.54,5.54,0,0,0-.75.07,29.35,29.35,0,0,1-3.61.23l-1.26,0a13.31,13.31,0,0,0-.07,1.41,2.81,2.81,0,0,0,.79,2.21,4.08,4.08,0,0,0,2.74.82c2.79,0,4.38-1.22,4.38-3.36a5.7,5.7,0,0,0-2-3.95,10.15,10.15,0,0,0,3.47-.68,7.7,7.7,0,0,1,2,5.15,5.66,5.66,0,0,1-2.31,4.46,9.93,9.93,0,0,1-9.88.57,5.33,5.33,0,0,1-2.51-5c0-.59,0-.82.07-1.83-1.12-.14-1.94-.26-3.16-.52-.25,0-.49-.09-.91-.14Z"/><path class="cls-7" d="M191.62,29.14a29.25,29.25,0,0,1,5.52,5.29l-2.78,2.65a28.32,28.32,0,0,0-5.29-5.47Z"/><path class="cls-7" d="M218.75,18.63c-.52.15-.52.15-1.29.4a30,30,0,0,1-4.59,1.18c0,2,0,2.8-.07,3.57h4.36a20.45,20.45,0,0,0,3.32-.16v3.31a31.13,31.13,0,0,0-3.25-.12h-4.64A12.13,12.13,0,0,1,211,31.86a12.12,12.12,0,0,1-3.84,3.76A14.93,14.93,0,0,1,205,36.8a9.21,9.21,0,0,0-2.46-3,11.67,11.67,0,0,0,3.61-1.88A6.85,6.85,0,0,0,209,26.81h-5.12a32,32,0,0,0-3.33.12V23.62a20.79,20.79,0,0,0,3.37.16h5.39c0-.61,0-1.81,0-2.68v-.4c-1.87.24-2.83.31-6.34.47a11,11,0,0,0-1-3c.75,0,1.15.05,1.5.05a42.52,42.52,0,0,0,10.11-1.32,11.76,11.76,0,0,0,2.9-1.1Z"/><path class="cls-7" d="M227.65,22a11.16,11.16,0,0,0-.52-2.09l3.3-.49a16.26,16.26,0,0,0,.26,2.14l.28,1.38,6.72-1.12a5.09,5.09,0,0,0,1.71-.47l1.89,1.74a4,4,0,0,0-.58,1.19,14.31,14.31,0,0,1-4.64,6.4,7.76,7.76,0,0,0-2.57-2,10.68,10.68,0,0,0,3.77-4l-5.79,1L233,33.56a17.12,17.12,0,0,0,.68,2.7l-3.47.61a24.25,24.25,0,0,0-.37-2.73l-1.41-7.89-1.49.26a15.26,15.26,0,0,0-2.46.56l-.56-3.1a14.42,14.42,0,0,0,2.62-.31l1.4-.21Z"/><path class="cls-7" d="M244.9,24.18a29.16,29.16,0,0,0,4.28.19H261a30.52,30.52,0,0,0,4.28-.17v3.86c-.94-.07-2.48-.12-4.31-.12H249.18c-2,0-3.37,0-4.28.14Z"/><path class="cls-7" d="M270.49,22.14a32.38,32.38,0,0,1,6.36,3.24l-1.7,3.15A27.34,27.34,0,0,0,268.64,25Zm-1.27,10.41a20.84,20.84,0,0,0,7-1.56,13.93,13.93,0,0,0,6.65-5.12,17.7,17.7,0,0,0,2.67-5.19,12.57,12.57,0,0,0,2.92,2.51,21.24,21.24,0,0,1-3.58,6c-3.11,3.59-7,5.59-13,6.72-.73.14-1.17.26-1.66.4Zm3-16.15a38.4,38.4,0,0,1,6.46,3.06L277,22.54a28,28,0,0,0-6.46-3.29Zm12.59.31a12.21,12.21,0,0,1,1.94,3.17l-2,1a14.18,14.18,0,0,0-1.92-3.26Zm2.69-1.18a12.51,12.51,0,0,1,1.94,3.06l-2,1a18.38,18.38,0,0,0-1.9-3.17Z"/><path class="cls-7" d="M297.43,16.31c-.23,1.38-.51,7.66-.51,11.72,0,2.28.12,3.08.56,3.74A3.37,3.37,0,0,0,300.41,33c2.48,0,4.4-1.41,5.45-4a15.15,15.15,0,0,0,1-4.09A12.74,12.74,0,0,0,310.26,27c-.94,3.36-1.66,5-2.88,6.32a9.15,9.15,0,0,1-7.16,3,8.16,8.16,0,0,1-4.33-1.06,5.4,5.4,0,0,1-2.11-2.84,13.68,13.68,0,0,1-.35-3.36c0-1.06,0-2.59.09-5.69s.1-4.67.1-5.38a13.49,13.49,0,0,0-.1-1.76Z"/><path class="cls-7" d="M313.52,19.29a17.78,17.78,0,0,0,3.35.24l.77,0A26.94,26.94,0,0,0,318,16v-.4l3.69.3a17.68,17.68,0,0,0-.46,2.28c-.1.64-.12.68-.19,1.15a24.8,24.8,0,0,0,3.91-.65l.11,3.21c-.44,0-.44,0-1.28.19a25.92,25.92,0,0,1-3.3.35,59.2,59.2,0,0,1-1.36,5.83c-.7,2.56-1,3.34-2,6.44-.23.66-.42,1.2-.54,1.62L313,35a51.79,51.79,0,0,0,4.1-12.43h-.66l-2.5-.07c-.17,0-.24,0-.45,0Zm12.19,9.38c-.93,1.24-1.19,1.81-1.19,2.58,0,1.11,1.08,1.65,3.35,1.65a17,17,0,0,0,5.24-.92l.23,3.48-1.19.14a25.9,25.9,0,0,1-4.47.4,9.27,9.27,0,0,1-4.85-1,3.51,3.51,0,0,1-1.73-3.06c0-1.26.49-2.46,1.8-4.27Zm6.79-2.75a24.32,24.32,0,0,0-3-.17,28.31,28.31,0,0,0-6.34.64l-.24-3.08a33.28,33.28,0,0,1,7.38-.75l2.15,0Z"/><path class="cls-7" d="M342.24,25.9a10.75,10.75,0,0,0-1.78.11V24.56a20.94,20.94,0,0,1-2.85,2.56,10.93,10.93,0,0,0-2.09-2.8,17.71,17.71,0,0,0,6-6.67,7.84,7.84,0,0,0,.91-2.33l3.28,1.22a7.7,7.7,0,0,0-.61,1.2,28,28,0,0,1-3.39,5.36h10.11a22.93,22.93,0,0,1-3.44-5.57c-.12-.26-.35-.7-.49-1l3-1.17a8.21,8.21,0,0,0,.91,2.11A17.51,17.51,0,0,0,358.13,24a14.46,14.46,0,0,0-2,3.05,21.3,21.3,0,0,1-2.46-2,41,41,0,0,1-.77,9.3c-.47,1.65-1.48,2.16-4.17,2.16-.4,0-.54,0-2.1,0a12.41,12.41,0,0,0-.87-3.22,22.94,22.94,0,0,0,2.64.23c1,0,1.32-.14,1.5-.61a23.25,23.25,0,0,0,.63-6.37V25.9h-4a11.81,11.81,0,0,1-.38,2.25,12.33,12.33,0,0,1-4,6.7,13.74,13.74,0,0,1-3.47,2.23,10.76,10.76,0,0,0-2-2.73,10.29,10.29,0,0,0,5.55-4.51,8.59,8.59,0,0,0,1.1-3.94Z"/><path class="cls-7" d="M5.22,58.8a16.38,16.38,0,0,0,4.1.87c.16-1.39.16-1.39.4-2.87a25.63,25.63,0,0,1-3.3-.56c-.36-.07-.47-.1-.82-.15L5.85,53a15.89,15.89,0,0,0,4.24.82,25.59,25.59,0,0,0,.4-3.64v-.28l3.7.33a18.27,18.27,0,0,0-.73,3.71,22,22,0,0,0,5.22-.54l-.12,3.29-1.71.14a32.3,32.3,0,0,1-3.53.14H13c-.16,1.13-.24,1.6-.4,2.89.38,0,.66,0,.82,0a17.73,17.73,0,0,0,4.66-.52L18,62.58a5.54,5.54,0,0,0-.75.07,29.16,29.16,0,0,1-3.61.24c-.25,0-.44,0-1.26,0a13.45,13.45,0,0,0-.07,1.41,2.75,2.75,0,0,0,.8,2.21,4,4,0,0,0,2.73.82c2.79,0,4.38-1.22,4.38-3.36a5.71,5.71,0,0,0-2-3.94,10.34,10.34,0,0,0,3.46-.69,7.71,7.71,0,0,1,2,5.15,5.67,5.67,0,0,1-2.32,4.46,8.64,8.64,0,0,1-5.43,1.63,8.61,8.61,0,0,1-4.45-1.06,5.31,5.31,0,0,1-2.5-5c0-.58,0-.82.07-1.83-1.13-.14-1.95-.26-3.16-.52-.26,0-.49-.09-.92-.14Z"/><path class="cls-7" d="M34.41,49.82A40.89,40.89,0,0,0,35.84,57c1.29-.47,2.27-.78,5.92-1.93a5.51,5.51,0,0,0,.94-.35l1.17,3.57a47.47,47.47,0,0,0-8,2.21C32.61,61.69,31,63.05,31,64.55s1.55,2.24,5,2.24a26.86,26.86,0,0,0,7.84-1l.28,3.83c-.51,0-.63,0-2,.19a56.55,56.55,0,0,1-5.88.38c-4,0-6.64-.78-7.89-2.35a5.18,5.18,0,0,1-1-3.13,5.77,5.77,0,0,1,2.09-4.42,13.57,13.57,0,0,1,3.23-2c-.56-1.93-.94-3.46-1.5-6.3a9.88,9.88,0,0,0-.37-1.53Z"/><path class="cls-7" d="M57.71,64.06c-1.31,3-2.86,4.37-4.87,4.37-2.9,0-5-2.84-5-6.88a10.14,10.14,0,0,1,2.62-7,10.83,10.83,0,0,1,8.24-3.39c5.87,0,9.62,3.53,9.62,9a9.22,9.22,0,0,1-5.88,9.07,16.88,16.88,0,0,1-3.72,1A9.76,9.76,0,0,0,57,66.9a11.75,11.75,0,0,0,4.63-1.12A6.45,6.45,0,0,0,64.89,60a5.73,5.73,0,0,0-2.5-4.92,4.64,4.64,0,0,0-2.18-.75A33.57,33.57,0,0,1,57.71,64.06ZM54,55.55a7.75,7.75,0,0,0-2.87,6c0,1.76.74,3.2,1.66,3.2.68,0,1.4-.92,2.15-2.82a30.31,30.31,0,0,0,1.87-7.57A5.31,5.31,0,0,0,54,55.55Z"/><path class="cls-7" d="M71.1,58.09a10.58,10.58,0,0,0,1.9.12h2a14,14,0,0,0,1.8-.09,24,24,0,0,0-.09,2.6v5.15c1.19,1.64,2.25,2,5.43,2a91.9,91.9,0,0,0,11.07-.49,13.56,13.56,0,0,0-.79,3.27c-2.06.09-5.11.14-7.49.14-6.65,0-7.82-.31-9.62-2.45a23.57,23.57,0,0,1-3,2.38,2.11,2.11,0,0,0-.39.28l-1.34-3.2a13.66,13.66,0,0,0,3.16-2V61h-1.1a8.64,8.64,0,0,0-1.52.11Zm6.18-7.17a16.78,16.78,0,0,0,2.74.15h3.16v-.43a7.38,7.38,0,0,0-.12-1.36h3a5.15,5.15,0,0,0-.11,1.2v.59h3.76a16.07,16.07,0,0,0,2.72-.15v2.92a13.69,13.69,0,0,0-2.18-.12H86v1.11h3.44a20.18,20.18,0,0,0,2.24-.1,18,18,0,0,0-.09,2.09V59.2a18.26,18.26,0,0,0,.09,2.13,19.15,19.15,0,0,0-2.29-.09H87.44a13.26,13.26,0,0,0,5.57,3,12.2,12.2,0,0,0-1.41,2.82,16.66,16.66,0,0,1-3-1.65,13.94,13.94,0,0,1-2.69-2.3A13.08,13.08,0,0,1,86,64.58v1.36a7,7,0,0,0,.11,1.46h-3a7.14,7.14,0,0,0,.12-1.48V64.53c0-.3,0-.75,0-1.36a16.36,16.36,0,0,1-4.75,3.71,11.17,11.17,0,0,0-1.73-2.54,15.88,15.88,0,0,0,5.15-3.1H80.13a20.61,20.61,0,0,0-2.31.09,19.21,19.21,0,0,0,.09-2.11V56.87a19.56,19.56,0,0,0-.09-2.14,21.17,21.17,0,0,0,2.34.1h3V53.72H79.5a16.34,16.34,0,0,0-2.08.09l-2.27,2.26a28.56,28.56,0,0,0-4.1-4.51l2.25-2.14a33.39,33.39,0,0,1,4,4.11Zm3.46,6.28v1.67h2.44V57.2ZM86,58.87h2.66V57.2H86Z"/><path class="cls-7" d="M99.54,57.32a47.41,47.41,0,0,1-.63,8.15,16.63,16.63,0,0,1-2.06,5.71,11.86,11.86,0,0,0-2.29-2.65c1.61-3.11,2-5.93,2-14.64,0-1.39,0-2.19-.09-3.11.86.07,1.71.12,2.78.12h5.64v-.42a6.75,6.75,0,0,0-.11-1.27h3.32A5.08,5.08,0,0,0,108,50.5v.4h5.55a23.66,23.66,0,0,0,2.93-.14v2.8c-.82-.07-1.36-.1-2.46-.1h-1.5v1.32h1.94a16.5,16.5,0,0,0,2.06-.1v2.73a13.94,13.94,0,0,0-2-.09h-2v2.06a12.9,12.9,0,0,0,.07,1.53c-.58,0-.58,0-1.5,0h-7.16c-.94,0-1.08,0-1.57,0a13.82,13.82,0,0,0,.07-1.53V57.32Zm2.91,7a21.93,21.93,0,0,0-2.39.1V61.88a23.23,23.23,0,0,0,2.6.09h8.14c1,0,1.5,0,2.08-.07l1.5,1.57c-.21.21-.21.21-.82.92a17.28,17.28,0,0,1-3.23,3,20.85,20.85,0,0,0,5.86.75h.58a14.11,14.11,0,0,0-1.12,3.15,23.42,23.42,0,0,1-8.5-2.07,24.42,24.42,0,0,1-7.75,2.07,12.05,12.05,0,0,0-1.05-2.87,20.32,20.32,0,0,0,5.83-.89,9.51,9.51,0,0,1-1.22-.92l-1.52-1.22,2.55-1Zm0-10.34c0-.11,0-.23,0-.54H99.57v1.32h2.85Zm2.06,10.34a11.6,11.6,0,0,0,2.83,1.88,10.63,10.63,0,0,0,2.51-1.88Zm5.08-10.43v-.45h-4.17l0,.47v.85h4.21Zm-4.19,4.7h4.19V57.22h-4.19Z"/><path class="cls-7" d="M118.9,52.41l.92,0c.44,0,.58,0,3.91-.21q2.42-.18,12.07-.59a14.11,14.11,0,0,0,2.63-.21l.18,3.59-.56,0a10.74,10.74,0,0,0-5,1.43c-2.65,1.51-4.24,3.69-4.24,5.83,0,1.74,1.08,3,3,3.57a15,15,0,0,0,3.47.54c.14,0,.3,0,.58,0l-.49,3.81a6.1,6.1,0,0,0-.82-.12A15.43,15.43,0,0,1,129,68.57a6.39,6.39,0,0,1-3.7-6c0-3.17,1.68-5.76,4.94-7.64-2.34.26-2.44.29-7.66.68a33.79,33.79,0,0,0-3.44.43Zm16.32,8.2a15.1,15.1,0,0,0-1.94-3.27l2-.89a12.59,12.59,0,0,1,2,3.17Zm2.74-1.3a15.62,15.62,0,0,0-1.9-3.14l1.94-.85a12,12,0,0,1,1.95,3Z"/><path class="cls-7" d="M141.78,58a9.81,9.81,0,0,0,1.85.12h1.89a13.25,13.25,0,0,0,1.78-.09,23.9,23.9,0,0,0-.09,2.61v5.14a3.27,3.27,0,0,0,1.68,1.48,23.35,23.35,0,0,0,6.23.59,69.62,69.62,0,0,0,8.73-.59,17.22,17.22,0,0,0-.75,3.29c-2.72.12-5.13.17-8,.17-5.92,0-7.49-.4-9.33-2.4a20.72,20.72,0,0,1-2.95,2.49l-1.46-3.1a12.43,12.43,0,0,0,3-2V61h-1.1a7.46,7.46,0,0,0-1.45.12Zm2.06-8.53a29.94,29.94,0,0,1,4.21,4.26l-2.32,2.35a23.67,23.67,0,0,0-4.14-4.47Zm8.73,4.82a17.67,17.67,0,0,0-1.67-1l1.6-.89h-1.81a16.77,16.77,0,0,0-2.48.12V49.7a22.87,22.87,0,0,0,2.95.14h7.28a15.12,15.12,0,0,0,2.81-.14l1.45,1.65a7.85,7.85,0,0,0-1.14.91,32,32,0,0,1-2.7,2.07h1.48a19.61,19.61,0,0,0,2.32-.09,21.07,21.07,0,0,0-.1,2.61v7.59c0,2.06-.58,2.58-3,2.58-.24,0-.61,0-1.12,0a7.81,7.81,0,0,0-.54-2.35,8.14,8.14,0,0,0,1.31.14c.4,0,.44-.07.44-.59v-.7h-2.83v.82A17.58,17.58,0,0,0,157,67h-3a19.07,19.07,0,0,0,.14-2.63V63.5h-2.6v1a12.35,12.35,0,0,0,.14,2.59h-3.11a24.09,24.09,0,0,0,.11-2.59V57a23.27,23.27,0,0,0-.11-2.75,26.34,26.34,0,0,0,2.64.09Zm-1.08,2.3V57.9h2.6V56.63Zm0,4.7h2.6V60.07h-2.6Zm2.18-8.9c.61.42,1.07.77,2,1.5a20.07,20.07,0,0,0,2-1.5Zm3.18,5.47h2.83V56.63h-2.83Zm2.83,2.17h-2.83v1.26h2.83Z"/><path class="cls-7" d="M170.9,68.45a20.07,20.07,0,0,0,.14,2.71h-3.23a19.61,19.61,0,0,0,.14-2.73V61.85c0-.61,0-.87.05-2.51a10,10,0,0,1-1.5,2.09,17.06,17.06,0,0,0-1.13-3.5,15.85,15.85,0,0,0,3.38-5.71,15,15,0,0,0,.84-3.2l3,1.06c-.12.35-.21.59-.37,1.13a30.69,30.69,0,0,1-1.36,3.57Zm1-15.08a11.77,11.77,0,0,0,1.92.12h11.52a17.41,17.41,0,0,0,2.17-.12v2.77a14.75,14.75,0,0,0-2.17-.12H173.8a16.51,16.51,0,0,0-1.92.1Zm4,17.81h-3A19.58,19.58,0,0,0,173,69V65.49a14.66,14.66,0,0,0-.1-1.95c.52.05,1.13.07,1.92.07h9.37a18,18,0,0,0,1.89-.07,15.13,15.13,0,0,0-.09,1.93v3.45a15.61,15.61,0,0,0,.12,2.24H183v-1h-7.14Zm10.07-11.75a12.45,12.45,0,0,0-1.74-.09h-9.52a12.86,12.86,0,0,0-1.57.07V57a12.65,12.65,0,0,0,1.57.07h9.5a13.21,13.21,0,0,0,1.76-.09Zm0,3.29a12.62,12.62,0,0,0-1.71-.09h-9.55a12.13,12.13,0,0,0-1.57.07V60.25a12.65,12.65,0,0,0,1.57.07h9.52a12.63,12.63,0,0,0,1.74-.09Zm0-10.13a20.84,20.84,0,0,0-2.27-.09h-8.2a17.84,17.84,0,0,0-2.13.09V50a17.57,17.57,0,0,0,2.44.12h7.63a23.18,23.18,0,0,0,2.53-.12ZM183,67.66V66.1h-7.14v1.56Z"/><path class="cls-7" d="M189.72,52.41l.91,0c.45,0,.59,0,3.91-.21q2.43-.18,12.08-.59a13.79,13.79,0,0,0,2.62-.21l.19,3.59-.56,0a10.81,10.81,0,0,0-5,1.43c-2.64,1.51-4.23,3.69-4.23,5.83,0,1.74,1.07,3,3,3.57a15,15,0,0,0,3.46.54c.14,0,.31,0,.59,0l-.49,3.81a6.36,6.36,0,0,0-.82-.12,15.55,15.55,0,0,1-5.67-1.46,6.41,6.41,0,0,1-3.7-6c0-3.17,1.69-5.76,4.94-7.64-2.34.26-2.43.29-7.65.68a33.43,33.43,0,0,0-3.44.43ZM206,60.61a15.13,15.13,0,0,0-1.95-3.27l2-.89a12.33,12.33,0,0,1,2,3.17Zm2.73-1.3a15.58,15.58,0,0,0-1.89-3.14l1.94-.85a11.76,11.76,0,0,1,1.94,3Z"/><path class="cls-7" d="M214.07,52.78c.72.07,1.52.1,2.5.1,1.36,0,3.54-.1,4.47-.22l-.3-.75a5.92,5.92,0,0,1-.3-.7,7.21,7.21,0,0,0-.5-1.08l3.49-.47a11.48,11.48,0,0,0,.84,2.65A38.19,38.19,0,0,0,230.59,51l.28,2.94c-2.76.58-4.82,1-5.57,1.1.33.75.35.8.73,1.57a31.4,31.4,0,0,0,5.48-1.31l.28,3c-.31,0-1.24.23-2.83.58l-1.64.33a23.91,23.91,0,0,0,3.09,4.33l-2.74,1.62a11.07,11.07,0,0,0-5.15-1c-2.93,0-4.52.66-4.52,1.83,0,.68.54,1.13,1.59,1.39a15,15,0,0,0,2.41.21A19.09,19.09,0,0,0,229.35,66l.49,3.41c-.63.12-.67.12-1.59.35a26.37,26.37,0,0,1-6.39.78c-3.3,0-5.59-.71-6.69-2.09a4,4,0,0,1-.89-2.52A4.18,4.18,0,0,1,217,62.25a11.28,11.28,0,0,1,4.78-.84,16.79,16.79,0,0,1,3.79.37,5.16,5.16,0,0,1-.47-.61c-.28-.4-.3-.45-.68-1.06a5.6,5.6,0,0,0-.3-.49,82.68,82.68,0,0,1-9,.59c-.42,0-.61,0-1,.07l-.12-3a13.68,13.68,0,0,0,2.25.12,47.06,47.06,0,0,0,6.7-.43c-.14-.25-.21-.4-.38-.75s-.26-.54-.37-.82a63.57,63.57,0,0,1-6.93.3c-.35,0-.54,0-.94,0Z"/><path class="cls-7" d="M252.55,69.68a8.62,8.62,0,0,0-1.1-1.08,17.8,17.8,0,0,0-4.21-2.71,3.15,3.15,0,0,1,0,.38c0,2.7-1.78,4-5.52,4-3.56,0-5.57-1.43-5.57-4s2.5-4.2,6.67-4.2c.4,0,.68,0,1.17,0l0-1.88-2.06,0c-1.52,0-2.31,0-4.44-.14a9.13,9.13,0,0,0-.94,0l0-3a30.29,30.29,0,0,0,5.43.38c.49,0,1.31,0,1.95,0l0-1.37v-.58c-.61,0-.89,0-1.24,0-.89,0-2.88-.07-5.92-.23a5.24,5.24,0,0,0-.58,0,2,2,0,0,0-.38,0l0-3.13a30.27,30.27,0,0,0,6.41.52l1.62,0a15.3,15.3,0,0,0-.14-2.77h3.53a12.3,12.3,0,0,0-.19,2.65,33.1,33.1,0,0,0,6.72-.84l.09,3.07a17.15,17.15,0,0,0-1.94.22c-1.82.23-3.3.37-4.89.44,0,.92,0,1.55,0,1.93a31.74,31.74,0,0,0,6.16-.8l.09,3.08a2.13,2.13,0,0,0-.49.05c-.05,0-.19,0-.4,0s-.33.05-1.73.19c-1.12.12-2.64.23-3.58.28,0,1.27.07,2.09.07,2.44a20.91,20.91,0,0,1,6.41,3.27c.38.26.52.35.87.56Zm-10.23-4.77c-1.63,0-2.64.51-2.64,1.36s.82,1.17,2.2,1.17c1.59,0,2.18-.49,2.18-1.85,0-.19,0-.47,0-.47A6,6,0,0,0,242.32,64.91Z"/><path class="cls-7" d="M257.15,52.59a11,11,0,0,0,1.21,0c.52,0,2.86-.07,9.46-.26a17.12,17.12,0,0,0-.17-2.68h3.54a17.29,17.29,0,0,0-.14,2.61c3.95,0,5.76-.07,6.69-.16l0,3.24c-1-.07-1.57-.09-4.08-.09-1.24,0-1.42,0-2.62,0l0,.54v.77l0,1.93v.54a7.18,7.18,0,0,1,.87,3.55,7.44,7.44,0,0,1-3.7,6.49,15.74,15.74,0,0,1-4.45,1.92,9,9,0,0,0-1.94-3.17,10.49,10.49,0,0,0,5.29-2.07,3.27,3.27,0,0,0,1.26-1.92,4,4,0,0,1-3.3,1.31,4.61,4.61,0,0,1-2.81-.94,3.86,3.86,0,0,1-1.56-3.22c0-2.56,2.06-4.39,5-4.39a4.23,4.23,0,0,1,2.2.52c0-.1,0-.1,0-.38V55.37a106,106,0,0,0-10.63.61Zm6.9,8.27a1.63,1.63,0,0,0,1.78,1.56,1.9,1.9,0,0,0,2-1.77c0-.84-.73-1.43-1.83-1.43A1.79,1.79,0,0,0,264.05,60.86Z"/><path class="cls-7" d="M285.1,64.2c0-.59,0-.84,0-1.1s0-.31-.07-1.69l-.4-7.74c0-1.05-.14-2.2-.23-3H289c-.1.68-.19,1.78-.24,3l-.4,7.74c-.07,1.43-.07,1.43-.07,1.71s0,.49.05,1.08Zm-.38,5.59V66h4v3.8Z"/><path class="cls-5" d="M510.08,93.19c0-31.26-36.74-56.6-82.05-56.6s-82,25.34-82,56.6c0,29.43,32.57,53.61,74.21,56.33L428,162.4l7.84-12.88C477.51,146.8,510.08,122.62,510.08,93.19Z"/><path class="cls-9" d="M510.08,93.19c0-31.26-36.74-56.6-82.05-56.6s-82,25.34-82,56.6c0,29.43,32.57,53.61,74.21,56.33L428,162.4l7.84-12.88C477.51,146.8,510.08,122.62,510.08,93.19Z"/><path class="cls-10" d="M386.05,67.7a6.35,6.35,0,0,0-.08-1h2.34a4.57,4.57,0,0,0-.1,1v.15h4.67a12.37,12.37,0,0,0,1.74-.1v1.93a13.67,13.67,0,0,0-1.72-.08H381.57a13.8,13.8,0,0,0-1.71.08V67.75a13.22,13.22,0,0,0,1.82.1h4.37Zm4.77,11.53c0,.18,0,.26,0,.66.44,0,.65,0,.86,0,.36,0,.44-.06.44-.34V76.06h-9.79v4a13.11,13.11,0,0,0,.08,1.85h-2.24a13.59,13.59,0,0,0,.1-1.85V75.84a14.12,14.12,0,0,0-.07-1.48c.54,0,1,.06,1.74.06h10.68a13.57,13.57,0,0,0,1.62-.06,12.93,12.93,0,0,0-.06,1.46v3.91c0,1-.08,1.3-.39,1.58s-.93.45-2.05.45c-.27,0-.53,0-1.18,0a4.38,4.38,0,0,0-.23-1.48c-.34,0-.52,0-.76,0h-4v.64h-2a8.53,8.53,0,0,0,.07-1.32v-2a8.82,8.82,0,0,0-.05-1c.39,0,.71,0,1.31,0h4.73c.63,0,.89,0,1.28,0a8.69,8.69,0,0,0-.05,1Zm-8.59-8a7.47,7.47,0,0,0-.06-1.13c.49,0,.88,0,1.62,0h7.06c.69,0,1,0,1.51,0a8.84,8.84,0,0,0-.06,1.13v1.56a8.5,8.5,0,0,0,.06,1.16c-.45,0-.86,0-1.57,0h-7c-.67,0-1.09,0-1.59,0a7.82,7.82,0,0,0,.06-1.16Zm2,1.22h6v-.86h-6Zm1.27,6.35H389v-.73h-3.44Z"/><path class="cls-10" d="M396.79,72.85a8.49,8.49,0,0,0,1.32.08h1.36a9.39,9.39,0,0,0,1.25-.07,16.61,16.61,0,0,0-.06,1.81v3.55c.83,1.14,1.56,1.41,3.76,1.41a63.58,63.58,0,0,0,7.68-.34,9.68,9.68,0,0,0-.55,2.26c-1.43.06-3.54.1-5.19.1-4.61,0-5.43-.21-6.68-1.69a15.61,15.61,0,0,1-2.06,1.64,2,2,0,0,0-.27.19l-.93-2.2a10.21,10.21,0,0,0,2.19-1.42V74.86h-.76a6.31,6.31,0,0,0-1.06.08Zm4.29-4.95A12.36,12.36,0,0,0,403,68h2.19V67.7a5,5,0,0,0-.08-.94h2.11a3.21,3.21,0,0,0-.08.83V68h2.61a11.93,11.93,0,0,0,1.89-.09v2a9.54,9.54,0,0,0-1.51-.08h-3v.76h2.39a13.89,13.89,0,0,0,1.55-.06c0,.45-.06.81-.06,1.44v1.64c0,.65,0,1,.06,1.48a12.69,12.69,0,0,0-1.59-.07h-1.34A9.06,9.06,0,0,0,412,77.1a8.07,8.07,0,0,0-1,2,11.09,11.09,0,0,1-2.08-1.14,9.81,9.81,0,0,1-1.87-1.59,8.38,8.38,0,0,1,.05,1v.94a4.35,4.35,0,0,0,.08,1h-2.11a5.12,5.12,0,0,0,.08-1v-1c0-.22,0-.52,0-1a11.43,11.43,0,0,1-3.29,2.57,8,8,0,0,0-1.2-1.75A11,11,0,0,0,404.28,75h-1.22a13.72,13.72,0,0,0-1.61.07,12.87,12.87,0,0,0,.07-1.46V72a12.82,12.82,0,0,0-.07-1.47,14.91,14.91,0,0,0,1.63.06h2.09v-.76h-2.55a11,11,0,0,0-1.44.06l-1.58,1.56a19,19,0,0,0-2.84-3.11l1.56-1.48a22.32,22.32,0,0,1,2.76,2.84Zm2.4,4.33v1.15h1.69V72.23Zm3.64,1.15H409V72.23h-1.85Z"/><path class="cls-10" d="M413.74,72.82a7.8,7.8,0,0,0,1.28.08h1.32a8.79,8.79,0,0,0,1.23-.07,16.19,16.19,0,0,0-.06,1.8v3.56a2.24,2.24,0,0,0,1.17,1,16.06,16.06,0,0,0,4.31.41,49.93,49.93,0,0,0,6.06-.41,12,12,0,0,0-.52,2.27c-1.88.09-3.56.12-5.55.12-4.11,0-5.2-.28-6.48-1.66a13.5,13.5,0,0,1-2.05,1.72l-1-2.14a8.63,8.63,0,0,0,2.06-1.4V74.88h-.76a5.2,5.2,0,0,0-1,.08Zm1.43-5.9a20.64,20.64,0,0,1,2.92,2.94l-1.61,1.62a16.6,16.6,0,0,0-2.87-3.08Zm6.05,3.33c-.52-.34-.78-.5-1.15-.7l1.1-.61h-1.25a11.6,11.6,0,0,0-1.72.08v-2a15.7,15.7,0,0,0,2.05.1h5.05a10.42,10.42,0,0,0,1.95-.1l1,1.14a6.79,6.79,0,0,0-.79.63,21.24,21.24,0,0,1-1.87,1.43h1a15.77,15.77,0,0,0,1.61-.06,16.08,16.08,0,0,0-.06,1.8v5.24c0,1.43-.41,1.79-2.07,1.79-.16,0-.42,0-.78,0a5,5,0,0,0-.37-1.62,5.88,5.88,0,0,0,.91.09c.28,0,.31,0,.31-.4v-.49h-2v.57a11.87,11.87,0,0,0,.09,1.82h-2.1a12,12,0,0,0,.1-1.82v-.57h-1.8v.68a8.91,8.91,0,0,0,.09,1.79h-2.15c0-.47.08-1,.08-1.79V72.09a16.4,16.4,0,0,0-.08-1.9c.5,0,1,.06,1.83.06Zm-.74,1.59v.88h1.8v-.88Zm0,3.25h1.8v-.88h-1.8ZM422,68.94c.42.29.74.53,1.39,1a14.85,14.85,0,0,0,1.37-1Zm2.2,3.78h2v-.88h-2Zm2,1.49h-2v.88h2Z"/><path class="cls-10" d="M434.34,80a12.66,12.66,0,0,0,.1,1.86H432.2a13.86,13.86,0,0,0,.09-1.88V75.45c0-.43,0-.61,0-1.74a7,7,0,0,1-1,1.44,12,12,0,0,0-.78-2.42,11,11,0,0,0,2.33-3.94,9.4,9.4,0,0,0,.59-2.21l2.11.73c-.08.25-.15.41-.26.78a19.33,19.33,0,0,1-.94,2.47ZM435,69.58a7.3,7.3,0,0,0,1.33.09h8a11.73,11.73,0,0,0,1.51-.09V71.5a10.72,10.72,0,0,0-1.51-.08h-8c-.49,0-.91,0-1.33.06Zm2.76,12.31h-2.09c0-.44.08-.93.08-1.53V78a11,11,0,0,0-.07-1.35,12.4,12.4,0,0,0,1.33,0h6.5a11.14,11.14,0,0,0,1.31,0,10.25,10.25,0,0,0-.06,1.34v2.38a10.55,10.55,0,0,0,.08,1.54h-2.13v-.69h-5Zm7-8.12a8.32,8.32,0,0,0-1.2-.06H437a8.12,8.12,0,0,0-1.09.05V72.07a10,10,0,0,0,1.09.05h6.59a8.83,8.83,0,0,0,1.22-.07Zm0,2.28a8.32,8.32,0,0,0-1.18-.07H437a9.44,9.44,0,0,0-1.09,0V74.34a9.83,9.83,0,0,0,1.09,0h6.61a10.3,10.3,0,0,0,1.2-.06Zm0-7a13.76,13.76,0,0,0-1.57-.07H437.5a11.82,11.82,0,0,0-1.47.07V67.23a12,12,0,0,0,1.69.08H443a15.69,15.69,0,0,0,1.75-.08Zm-2,10.41V78.38h-5v1.08Z"/><path class="cls-10" d="M448,71.7a12.93,12.93,0,0,0,1.74.08h11.41a12.14,12.14,0,0,0,1.72-.08v1.63a11,11,0,0,0-1.64-.08H449.71a12.6,12.6,0,0,0-1.72.08Zm3.15,6.08c-.62,0-1,0-1.48,0a8.29,8.29,0,0,0,.07-1.31V74.91a8.15,8.15,0,0,0-.07-1.23,13.49,13.49,0,0,0,1.54.06h8.44a14.4,14.4,0,0,0,1.53-.06,8.14,8.14,0,0,0-.06,1.21v1.64a8.53,8.53,0,0,0,.06,1.3c-.49,0-.89,0-1.48,0h-3.28v.51h4a8.07,8.07,0,0,0,1.34-.07v1.4a11.13,11.13,0,0,0-1.46-.07h-3.85v.51h4.5a14.33,14.33,0,0,0,1.95-.09v1.64a17.94,17.94,0,0,0-1.95-.08h-11a17.78,17.78,0,0,0-1.93.08V80a14.19,14.19,0,0,0,1.93.09h4.43v-.51h-3.72a11,11,0,0,0-1.46.07v-1.4a8.22,8.22,0,0,0,1.35.07h3.83v-.51ZM451,71.24c-.86,0-1.25,0-1.67.05a9.4,9.4,0,0,0,.07-1.36V68.45a9.9,9.9,0,0,0-.07-1.35,16.29,16.29,0,0,0,1.77.07h8.65a16.21,16.21,0,0,0,1.76-.07,9.43,9.43,0,0,0-.07,1.35v1.48a9.77,9.77,0,0,0,.07,1.36c-.43,0-.82-.05-1.68-.05Zm.39-1h8v-.46h-8Zm0-1.4h8v-.48h-8Zm.29,6v.5h2.66v-.5Zm0,1.43v.48h2.66v-.48Zm4.72-.93h2.73v-.5h-2.73Zm0,1.41h2.73v-.48h-2.73Z"/><path class="cls-10" d="M465.55,68.64a14.25,14.25,0,0,0,3,.21h.81a6.48,6.48,0,0,0,.59-1.9l2.52.23a7.45,7.45,0,0,0-.61,1.35,2,2,0,0,1-.13.29c.25,0,.3,0,1-.06a23.43,23.43,0,0,0,4.19-.54l.1,2.19-1.29.13c-1.18.15-3.29.28-4.93.33a11.23,11.23,0,0,1-1.06,1.6,4.16,4.16,0,0,1,2.24-.63,2.2,2.2,0,0,1,2.42,1.64l.86-.29c.64-.23.72-.26,1.45-.5A5.53,5.53,0,0,0,478,72.2l.87,2.21a10.82,10.82,0,0,0-1.84.42c-.39.1-.39.1-2.35.76v1.64a10.52,10.52,0,0,0,.05,1.09l-2.25.06a13,13,0,0,0,.09-1.88.85.85,0,0,0,0-.13,8.51,8.51,0,0,0-1.3.7,1.51,1.51,0,0,0-.77,1.17c0,.74.7,1,2.47,1a15,15,0,0,0,5-.73l.17,2.48c-.3,0-.37,0-.81.08a29.23,29.23,0,0,1-4.17.29c-2.39,0-3.73-.35-4.48-1.2a2.61,2.61,0,0,1-.63-1.75,3.82,3.82,0,0,1,1.88-2.91,12.85,12.85,0,0,1,2.37-1.25.74.74,0,0,0-.83-.65,5.49,5.49,0,0,0-3.2,1.61,9.86,9.86,0,0,0-1.47,1.56L465,75.07a14.58,14.58,0,0,0,3.17-3.8,3,3,0,0,1,.24-.4c-.91,0-1,0-1.51,0-.3,0-.56,0-.61,0h-.75Z"/><path class="cls-10" d="M367.8,93.59a22.56,22.56,0,0,0-.18-3.23h4a17.85,17.85,0,0,0-.18,3.23v3.69h.15a10.55,10.55,0,0,0,1.87-.11v3.55c-.66-.06-1.18-.09-1.81-.09h-.21v7.22c1-.32,1.33-.46,2.52-.95l.08,3.37c-2.6,1.16-4.62,2-7.27,3-.52.17-1,.34-1.44.54l-.7-4a19.93,19.93,0,0,0,3.21-.78v-8.37h-.61a18.08,18.08,0,0,0-2.25.15V97.14a18.25,18.25,0,0,0,2.28.14h.58Zm9.55-.35a14.77,14.77,0,0,0-1.56-2.54l3.7-.83c.63,1.09,1.12,2.1,1.7,3.37h2.57a18.65,18.65,0,0,0,1.44-3.34l3.67.86c-.61,1.21-1,1.82-1.36,2.48h.84c1.06,0,1.93,0,2.77-.08a22.68,22.68,0,0,0-.12,2.77v5.51a23.47,23.47,0,0,0,.12,2.83,22.47,22.47,0,0,0-2.77-.12H376.6a19.38,19.38,0,0,0-2.66.12,22.68,22.68,0,0,0,.12-2.77V95.9a23.63,23.63,0,0,0-.12-2.74c.84.06,1.59.08,2.63.08Zm-2.28,14.35a15.28,15.28,0,0,0-.12-2.4c.7.06,1.48.09,2.66.09h9.64c1.24,0,2.05,0,2.65-.09a21,21,0,0,0-.11,2.54V114a20.37,20.37,0,0,0,.14,3h-3.58v-1.13H378.5V117h-3.57a24.82,24.82,0,0,0,.14-3Zm2.34-10.1h3.32V96h-3.32Zm0,4h3.32V100h-3.32Zm1.09,7.76h7.85V108H378.5Zm0,3.9h7.85v-1.3H378.5Zm5.6-15.64h3.47V96H384.1Zm0,4h3.47V100H384.1Z"/><path class="cls-10" d="M401,91.43a23.54,23.54,0,0,0,1,3.4c.2.61.28,1,.6,2,2.54-.69,3.49-.92,4.74-1.15,0-.61,0-.61,0-2.17a13.46,13.46,0,0,0-.21-2.88h4.36a25,25,0,0,0-.17,4.53,13.76,13.76,0,0,1,1.5-.06c4.16,0,6.9,2.45,6.9,6.18,0,4.15-3.29,7.07-8,7.07a15.26,15.26,0,0,1-4.38-.69,14.13,14.13,0,0,0-.61-4.16,11.68,11.68,0,0,0,4.45,1c2.56,0,4.24-1.21,4.24-3.06,0-1.67-1.27-2.6-3.58-2.6-1.88,0-3.67.38-8.14,1.65l.58,2.08c1.21,4.41,1.53,5.65,3,11.74a8.56,8.56,0,0,0,.49,1.48l-4.59,1.06a59.73,59.73,0,0,0-1.53-8c-.46-2-.84-3.41-1.5-5.77-.17-.64-.32-1.16-.4-1.5a49.89,49.89,0,0,0-5,1.9l-1.29-4c.6-.12.95-.2,1.38-.32,2-.63,3.61-1.15,3.87-1.21a28.71,28.71,0,0,0-1.91-5.34Z"/><path class="cls-10" d="M431.14,91.54a32,32,0,0,0-.26,5.43c3.73-.18,3.73-.18,7.85-.35,0-.55,0-1,0-1.07a23,23,0,0,0-.17-4.41h4.21a18.86,18.86,0,0,0-.14,2.22v3.12c4.5-.18,4.5-.18,5.46-.29l.05,4.15a22.71,22.71,0,0,0-2.33-.11c-.52,0-.7,0-3.18.06,0,3.23-.29,5.22-.84,6.32a3.85,3.85,0,0,1-3.78,2,10.6,10.6,0,0,1-4.15-.9V106.4a16.79,16.79,0,0,0-.23-2.79,9.22,9.22,0,0,0,3.75,1.24c1.07,0,1.33-.81,1.38-4.48-2.71.09-5.34.2-7.9.35v3.43c0,1.68.08,4.19.14,4.85.26,2,1.47,2.57,5.77,2.57a29.49,29.49,0,0,0,8.63-1.12l.26,4.5c-1.1.08-1.1.08-2.63.26a63.23,63.23,0,0,1-6.86.37c-5.37,0-7.8-1-8.75-3.75-.49-1.38-.61-3.15-.61-8.51v-2.4a47.69,47.69,0,0,0-5.13.49l-.26-4.07c.43,0,.72.06.92.06.38,0,1.85-.09,4.47-.23V96a31.16,31.16,0,0,0-.2-4.42Z"/><path class="cls-10" d="M453.77,92a26.45,26.45,0,0,0,3.75.2c2.48,0,6.06-.15,8.74-.35a5,5,0,0,0,2-.37l2,3c-.61.34-.64.34-2.89,2.34a55.37,55.37,0,0,1-6.26,5.07,15.85,15.85,0,0,1,4.76-.69,9.18,9.18,0,0,1,6,2,5.94,5.94,0,0,1,2.11,4.8,7.28,7.28,0,0,1-4,6.55,14.58,14.58,0,0,1-7.24,1.73,10.15,10.15,0,0,1-5.86-1.44,4.35,4.35,0,0,1-1.76-3.53c0-2.48,2.25-4.35,5.31-4.35a6.4,6.4,0,0,1,5.08,2.33,7.32,7.32,0,0,1,1.33,2.49c2.05-.84,2.88-1.94,2.88-3.76,0-2.1-2.13-3.46-5.45-3.46a17.43,17.43,0,0,0-11.78,4.85l-2.3-3.72c2.71-1.3,8.74-6.09,12.81-10.16-2.37.2-2.86.23-7.1.43-.92.06-1.18.06-2.05.17Zm6.72,18.18c-.86,0-1.44.46-1.44,1.15,0,1,1.1,1.59,3,1.59a4.31,4.31,0,0,0,1.21-.14C462.8,111,461.85,110.13,460.49,110.13Z"/><path class="cls-10" d="M483.55,108.4c0-.73.06-1,.06-1.36s0-.38-.09-2.08L483,95.47c-.06-1.3-.17-2.72-.29-3.7h5.63c-.12.84-.23,2.2-.29,3.7l-.49,9.49c-.09,1.76-.09,1.76-.09,2.11s0,.6.06,1.33Zm-.46,6.86v-4.67H488v4.67Z"/><ellipse class="cls-3" cx="306.58" cy="193.68" rx="53.8" ry="15.09"/><path class="cls-4" d="M252.78,193.68c0-8.34,24.09-15.09,53.8-15.09s53.8,6.75,53.8,15.09v68.23c0,8.33-24.09,15.09-53.8,15.09s-53.8-6.76-53.8-15.09Z"/><path class="cls-5" d="M274.39,223.24a5.59,5.59,0,0,0-.08-.91h2.18a4.68,4.68,0,0,0-.09.91v.14h4.36a12.38,12.38,0,0,0,1.62-.09v1.8a12,12,0,0,0-1.6-.08H270.21a11.89,11.89,0,0,0-1.59.08v-1.8a13.39,13.39,0,0,0,1.7.09h4.07ZM278.84,234c0,.17,0,.24,0,.62.41,0,.61,0,.81,0s.41-.07.41-.32V231h-9.13v3.74a13.2,13.2,0,0,0,.07,1.72h-2.09a10.57,10.57,0,0,0,.1-1.72v-3.95c0-.49,0-.93-.06-1.38.5,0,1,.06,1.62.06h10a14.23,14.23,0,0,0,1.51-.06,11.34,11.34,0,0,0-.06,1.36v3.65c0,.89-.08,1.21-.36,1.47s-.87.42-1.91.42c-.26,0-.5,0-1.11,0a4.12,4.12,0,0,0-.21-1.38h-4.48v.59H272a7.66,7.66,0,0,0,.06-1.23v-1.84a8.12,8.12,0,0,0,0-.94c.36,0,.66,0,1.22,0h4.41c.59,0,.83,0,1.2,0a6,6,0,0,0-.05.94Zm-8-7.46a6.59,6.59,0,0,0-.06-1.06c.46,0,.82,0,1.52,0h6.58c.64,0,.95,0,1.41,0a6.45,6.45,0,0,0-.06,1.06V228a6.09,6.09,0,0,0,.06,1.07c-.43,0-.8,0-1.47,0h-6.56c-.62,0-1,0-1.48,0a6.58,6.58,0,0,0,.06-1.07Zm1.89,1.13h5.59v-.8h-5.59Zm1.19,5.92h3.2v-.68h-3.2Z"/><path class="cls-5" d="M283.65,228a7.38,7.38,0,0,0,1.23.08h1.27a10.37,10.37,0,0,0,1.17-.06,13.72,13.72,0,0,0-.07,1.68v3.31c.78,1.06,1.46,1.32,3.52,1.32a60.19,60.19,0,0,0,7.16-.32,8.84,8.84,0,0,0-.52,2.1c-1.33.06-3.3.1-4.84.1-4.3,0-5.06-.2-6.22-1.58a15.58,15.58,0,0,1-1.93,1.53,2.54,2.54,0,0,0-.25.18l-.87-2.06a8.46,8.46,0,0,0,2.05-1.32v-3.08h-.71a5.5,5.5,0,0,0-1,.07Zm4-4.62a10.71,10.71,0,0,0,1.77.09h2v-.27a5.41,5.41,0,0,0-.07-.88h2a3.28,3.28,0,0,0-.07.78v.37h2.44a10.18,10.18,0,0,0,1.75-.09v1.88a9.5,9.5,0,0,0-1.41-.07h-2.78v.71h2.22c.66,0,1,0,1.46-.06a10.34,10.34,0,0,0-.06,1.34v1.53a10.82,10.82,0,0,0,.06,1.38,11.51,11.51,0,0,0-1.49-.06h-1.25a8.59,8.59,0,0,0,3.6,1.94,7.88,7.88,0,0,0-.91,1.81,10.54,10.54,0,0,1-1.94-1.06,9.13,9.13,0,0,1-1.74-1.48,7.22,7.22,0,0,1,0,.94v.88a4.24,4.24,0,0,0,.07.93h-2a4.44,4.44,0,0,0,.07-.95v-.89c0-.2,0-.49,0-.88a10.45,10.45,0,0,1-3.07,2.39,7.15,7.15,0,0,0-1.12-1.63,10.25,10.25,0,0,0,3.33-2H289.5a12.25,12.25,0,0,0-1.5.06c0-.48.06-.77.06-1.36v-1.52c0-.6,0-.89-.06-1.37.47,0,.81.06,1.51.06h1.95v-.71h-2.37a9.71,9.71,0,0,0-1.35.06l-1.47,1.45a18.32,18.32,0,0,0-2.65-2.91l1.46-1.37a20.58,20.58,0,0,1,2.57,2.64Zm2.24,4.05v1.07h1.57v-1.07Zm3.39,1.07H295v-1.07h-1.72Z"/><path class="cls-5" d="M306.83,229.21a8.21,8.21,0,0,1-1.18,4.13,7.38,7.38,0,0,1-3.9,2.87,6.16,6.16,0,0,0-1.49-2,5.45,5.45,0,0,0,3.61-2.56,5.73,5.73,0,0,0,.56-2.43h-3.36a15.68,15.68,0,0,0-2.15.09v-2.18a18.56,18.56,0,0,0,2.18.1h8.54a15.61,15.61,0,0,0,2.24-.1v2.16a19.93,19.93,0,0,0-2.19-.07Zm2.19-3.76a17.52,17.52,0,0,0-2.21-.07h-4.19a20.07,20.07,0,0,0-2.15.07v-2.16a14.57,14.57,0,0,0,2.18.1h4.12a14.25,14.25,0,0,0,2.25-.1v.89l1.14-.39a8.93,8.93,0,0,1,1,2.12l-1.28.48a9.3,9.3,0,0,0-.86-2Zm2.6.29a9.51,9.51,0,0,0-1-2.09l1.21-.45a8.4,8.4,0,0,1,1,2Z"/><path class="cls-5" d="M313.89,228.13a19.19,19.19,0,0,0,2.77.12h7.66a20.23,20.23,0,0,0,2.77-.1v2.48c-.6,0-1.6-.08-2.78-.08h-7.65c-1.31,0-2.18,0-2.77.09Z"/><path class="cls-5" d="M335.52,223a6.92,6.92,0,0,0-.39.78c-.14.27-.18.37-.33.65l4,0a2.81,2.81,0,0,0,1.14-.2l1.18,1.17c-.21.24-.23.27-.49,1a15.17,15.17,0,0,1-8.9,10.12,6.43,6.43,0,0,0-1.49-1.91,17.33,17.33,0,0,0,2.89-1.41,11.07,11.07,0,0,0,2.39-2,16.57,16.57,0,0,0-3-2l1.38-1.62a21.83,21.83,0,0,1,2.91,1.87,12.64,12.64,0,0,0,1.48-3.15l-4.44.05a16.63,16.63,0,0,1-3.49,4.06,5.66,5.66,0,0,0-1.83-1.44,13.36,13.36,0,0,0,3.78-4.35,8.75,8.75,0,0,0,.88-2.11Z"/><path class="cls-5" d="M282.74,248.9a6.74,6.74,0,0,0,1.19.08h1.23a9.52,9.52,0,0,0,1.15-.06,14.11,14.11,0,0,0-.06,1.68v3.31a2.12,2.12,0,0,0,1.09,1,15.61,15.61,0,0,0,4,.38,46.64,46.64,0,0,0,5.65-.38,10.29,10.29,0,0,0-.48,2.12c-1.76.07-3.32.1-5.18.1-3.83,0-4.85-.26-6-1.54a12.64,12.64,0,0,1-1.91,1.6l-.94-2a7.85,7.85,0,0,0,1.93-1.3v-3h-.72a5.11,5.11,0,0,0-.93.07Zm1.33-5.49a18.88,18.88,0,0,1,2.72,2.74l-1.5,1.51a15,15,0,0,0-2.67-2.87Zm5.64,3.1a9.91,9.91,0,0,0-1.07-.65l1-.57H288.5a11.57,11.57,0,0,0-1.6.07v-1.83a15.56,15.56,0,0,0,1.91.09h4.7a10.28,10.28,0,0,0,1.82-.09l.94,1.06a5.59,5.59,0,0,0-.74.59c-.55.47-1.23,1-1.74,1.33h.95a11.59,11.59,0,0,0,1.5-.06,14.11,14.11,0,0,0-.06,1.68V253c0,1.33-.38,1.66-1.93,1.66h-.72a4.72,4.72,0,0,0-.35-1.51,5.12,5.12,0,0,0,.85.09c.26,0,.29-.05.29-.38v-.45h-1.84v.52a11.9,11.9,0,0,0,.08,1.7h-1.95a12,12,0,0,0,.09-1.7v-.52H289v.63a7.8,7.8,0,0,0,.09,1.67h-2c0-.44.07-.91.07-1.67v-4.83a14.63,14.63,0,0,0-.07-1.77,15.65,15.65,0,0,0,1.71.06ZM289,248v.81h1.68V248Zm0,3h1.68v-.82H289Zm1.41-5.73c.39.27.69.49,1.3,1a14.11,14.11,0,0,0,1.27-1Zm2.05,3.52h1.84V248h-1.84Zm1.84,1.39h-1.84V251h1.84Z"/><path class="cls-5" d="M301.19,255.61a12.52,12.52,0,0,0,.09,1.74h-2.09a13.89,13.89,0,0,0,.09-1.76v-4.24c0-.39,0-.56,0-1.61a6.13,6.13,0,0,1-1,1.34,11,11,0,0,0-.73-2.25,10.19,10.19,0,0,0,2.18-3.68,9,9,0,0,0,.55-2.06l2,.68c-.08.23-.14.38-.24.73a20.56,20.56,0,0,1-.88,2.3Zm.63-9.72a7.36,7.36,0,0,0,1.24.08h7.45a10.42,10.42,0,0,0,1.41-.08v1.79a9.33,9.33,0,0,0-1.41-.08h-7.45a12.12,12.12,0,0,0-1.24.06Zm2.58,11.47h-2a11.38,11.38,0,0,0,.08-1.42V253.7a12.1,12.1,0,0,0-.06-1.26,10.65,10.65,0,0,0,1.24.05h6.05a9.76,9.76,0,0,0,1.23-.05,9,9,0,0,0-.06,1.25v2.22a9.25,9.25,0,0,0,.08,1.44h-2v-.65H304.4Zm6.51-7.56a7.39,7.39,0,0,0-1.13-.06h-6.16a9,9,0,0,0-1,0v-1.57a8.8,8.8,0,0,0,1,0h6.15a7.85,7.85,0,0,0,1.14-.06Zm0,2.12a7.41,7.41,0,0,0-1.11-.07h-6.18a8.14,8.14,0,0,0-1,.05v-1.57a8.91,8.91,0,0,0,1,0h6.16a7.55,7.55,0,0,0,1.13-.06Zm0-6.53c-.44,0-.84-.06-1.47-.06h-5.3a12.8,12.8,0,0,0-1.38.06V243.7a12.22,12.22,0,0,0,1.57.07h4.94c.73,0,1.2,0,1.64-.07Zm-1.9,9.7v-1H304.4v1Z"/><path class="cls-5" d="M313.16,247.86a11.56,11.56,0,0,0,1.62.07h10.64a10.84,10.84,0,0,0,1.6-.07v1.53a9.43,9.43,0,0,0-1.52-.08H314.76a11,11,0,0,0-1.6.08Zm2.94,5.67c-.58,0-.94,0-1.38.05a9,9,0,0,0,.06-1.23v-1.49a8.75,8.75,0,0,0-.06-1.15,11.72,11.72,0,0,0,1.44.06H324a12.49,12.49,0,0,0,1.42-.06,8.52,8.52,0,0,0-.06,1.13v1.53a8.83,8.83,0,0,0,.06,1.21c-.45,0-.83-.05-1.38-.05H321V254h3.7a7.28,7.28,0,0,0,1.25-.06v1.31a9.68,9.68,0,0,0-1.36-.07H321v.47h4.2a14.59,14.59,0,0,0,1.81-.07v1.53a15.48,15.48,0,0,0-1.81-.08H315a15.41,15.41,0,0,0-1.8.08v-1.53a14.51,14.51,0,0,0,1.8.07h4.13v-.47h-3.46a9.65,9.65,0,0,0-1.37.07v-1.31a7.49,7.49,0,0,0,1.26.06h3.57v-.47Zm-.14-6.1c-.8,0-1.17,0-1.56,0a8.55,8.55,0,0,0,.06-1.27v-1.38a8.66,8.66,0,0,0-.06-1.25c.47,0,.88.06,1.65.06h8.07c.77,0,1.16,0,1.63-.06a9.84,9.84,0,0,0-.06,1.25v1.38a10.54,10.54,0,0,0,.06,1.27c-.39,0-.75,0-1.56,0Zm.36-1h7.47v-.42h-7.47Zm0-1.3h7.46v-.45h-7.46Zm.27,5.6v.47h2.48v-.47Zm0,1.33v.46h2.48v-.46Zm4.4-.86h2.55v-.47H321Zm0,1.32h2.55v-.46H321Z"/><path class="cls-11" d="M254.89,124.3c0-8,23.14-14.5,51.69-14.5s51.69,6.49,51.69,14.5v65.56c0,8-23.14,14.5-51.69,14.5s-51.69-6.5-51.69-14.5Z"/><path class="cls-12" d="M254.89,124.3c0-8,23.14-14.5,51.69-14.5s51.69,6.49,51.69,14.5v65.56c0,8-23.14,14.5-51.69,14.5s-51.69-6.5-51.69-14.5Z"/><path class="cls-13" d="M254.89,124.3c0-8,23.14-14.5,51.69-14.5s51.69,6.49,51.69,14.5v65.56c0,8-23.14,14.5-51.69,14.5s-51.69-6.5-51.69-14.5Z"/><ellipse class="cls-14" cx="306.58" cy="124.32" rx="51.69" ry="14.5"/><path class="cls-7" d="M268.57,156.86c-.06.23-.08.29-.33,1.42A21.62,21.62,0,0,1,267,162a15.12,15.12,0,0,1-1.68,3,10.6,10.6,0,0,0-2.63-1.38,14.78,14.78,0,0,0,2.65-5.21,11.24,11.24,0,0,0,.46-2.18Zm1.56-5.13a17.87,17.87,0,0,0-.11-2.24h3.09a19.38,19.38,0,0,0-.11,2.22v.76H277a17.8,17.8,0,0,0,2.79-.13v2.79A17.81,17.81,0,0,0,277,155h-4v8.71c0,1,0,2,.09,2.61H270a22.76,22.76,0,0,0,.11-2.61V155h-3.8a23.33,23.33,0,0,0-2.74.1v-2.77a17.3,17.3,0,0,0,2.74.13h3.8Zm7.09,4.45a13.19,13.19,0,0,0,.63,2.13,19.34,19.34,0,0,0,2.59,5.16,22.55,22.55,0,0,0-2.61,1.52,26.59,26.59,0,0,1-3.08-7.52,2.61,2.61,0,0,0-.21-.61Zm-.16-7a10.08,10.08,0,0,1,1.36,2.44l-1.7.59a10.67,10.67,0,0,0-1.32-2.48Zm2.29-.67a10.88,10.88,0,0,1,1.4,2.44l-1.62.62a12.16,12.16,0,0,0-1.36-2.52Z"/><path class="cls-7" d="M286.39,149.93a22.63,22.63,0,0,0-.11,2.6v3.74c0,1.18,0,2.12.09,2.64h-3.13a22.44,22.44,0,0,0,.12-2.68v-3.7a19.52,19.52,0,0,0-.1-2.6Zm8.75,0a18.66,18.66,0,0,0-.1,2.54v2a21.5,21.5,0,0,1-.38,5.49,7.63,7.63,0,0,1-3.93,4.81,15.87,15.87,0,0,1-3.84,1.51,7.28,7.28,0,0,0-1.64-2.73,12.85,12.85,0,0,0,3.72-1.22,4.94,4.94,0,0,0,2.92-3.82,31,31,0,0,0,.21-4.22v-1.81A18.17,18.17,0,0,0,292,150Z"/><path class="cls-7" d="M309.83,163.2a13.75,13.75,0,0,0,2.23-.11v2.52a21.52,21.52,0,0,0-2.25-.08h-9.2a21.64,21.64,0,0,0-2.25.08v-2.52a14.11,14.11,0,0,0,2.25.11h5.08c.4-2.18.69-4,.88-5.92h-4.13a19.94,19.94,0,0,0-2.17.08v-2.52a13.88,13.88,0,0,0,2.25.11h4.62a3,3,0,0,0,1.26-.19l1.24,1.07a3.12,3.12,0,0,0-.35,1.28c-.24,2-.53,3.93-.91,6.09Z"/><path class="cls-7" d="M314.79,156.25a23.11,23.11,0,0,0,3.49.15h9.66a24.23,24.23,0,0,0,3.49-.13v3.13c-.76-.06-2-.09-3.51-.09h-9.64c-1.66,0-2.75,0-3.49.11Z"/><path class="cls-7" d="M342.06,150.18a7.14,7.14,0,0,0-.49,1.4c-1.27,4.19-2.49,7.8-3.67,10.7a67,67,0,0,0,7.29-.85c-.19-.42-.38-.81-.78-1.59a24,24,0,0,0-1.78-3.07l2.58-1a42.7,42.7,0,0,1,4.58,9L347,166.18a14.85,14.85,0,0,0-.8-2.25,108.79,108.79,0,0,1-11.35,1.45,10.3,10.3,0,0,0-1.82.24l-.4-3.07.52,0c.4,0,.76,0,1.62-.06a97.53,97.53,0,0,0,3.23-9.43,19.86,19.86,0,0,0,.8-3.51Z"/><path class="cls-7" d="M286,172.75c-.42.11-.42.11-1.05.32a25.33,25.33,0,0,1-3.74,1c0,1.64,0,2.27-.06,2.9h3.55a15.8,15.8,0,0,0,2.71-.14v2.7a23.49,23.49,0,0,0-2.65-.1h-3.78a9.72,9.72,0,0,1-1.28,4.1,10.07,10.07,0,0,1-3.13,3.06,14.63,14.63,0,0,1-1.82.95,7.67,7.67,0,0,0-2-2.42,9.67,9.67,0,0,0,2.94-1.53,5.57,5.57,0,0,0,2.39-4.16h-4.19a24.25,24.25,0,0,0-2.71.1v-2.7a16.12,16.12,0,0,0,2.75.14h4.39c0-.5,0-1.47,0-2.18v-.32c-1.53.19-2.31.25-5.17.38a8.86,8.86,0,0,0-.84-2.46l1.22,0a35.39,35.39,0,0,0,8.25-1.06,10.16,10.16,0,0,0,2.36-.9Z"/><path class="cls-7" d="M292.72,175.48a8.46,8.46,0,0,0-.42-1.7l2.69-.4a13.63,13.63,0,0,0,.21,1.73l.23,1.13,5.48-.92a3.84,3.84,0,0,0,1.39-.38l1.55,1.41a3.64,3.64,0,0,0-.48,1,11.6,11.6,0,0,1-3.78,5.19,6.32,6.32,0,0,0-2.1-1.58,8.52,8.52,0,0,0,3.07-3.25l-4.71.82,1.2,6.36a14.17,14.17,0,0,0,.56,2.19l-2.83.5a20.43,20.43,0,0,0-.3-2.21l-1.15-6.42-1.22.21a12.7,12.7,0,0,0-2,.46l-.45-2.52a12.51,12.51,0,0,0,2.13-.25l1.15-.17Z"/><path class="cls-7" d="M306.31,177.25a23.11,23.11,0,0,0,3.49.15h9.66a24.32,24.32,0,0,0,3.49-.13v3.13c-.76-.06-2-.09-3.51-.09H309.8c-1.66,0-2.75,0-3.49.11Z"/><path class="cls-7" d="M326.69,175.59a26.27,26.27,0,0,1,5.19,2.64l-1.39,2.55a22.58,22.58,0,0,0-5.31-2.88Zm-1,8.46a17.17,17.17,0,0,0,5.68-1.26,11.43,11.43,0,0,0,5.43-4.16,14.28,14.28,0,0,0,2.17-4.22,10.44,10.44,0,0,0,2.39,2,17.33,17.33,0,0,1-2.92,4.89c-2.54,2.92-5.71,4.54-10.6,5.46-.59.11-.95.21-1.35.32Zm2.48-13.12a31.87,31.87,0,0,1,5.27,2.49l-1.45,2.5a23,23,0,0,0-5.27-2.68Zm10.27.25a10.45,10.45,0,0,1,1.58,2.58l-1.64.78a11.77,11.77,0,0,0-1.56-2.65Zm2.19-1a10.34,10.34,0,0,1,1.59,2.48l-1.61.78a14.79,14.79,0,0,0-1.54-2.58Z"/><path class="cls-15" d="M153.63,235.21h28.2a9.44,9.44,0,0,1,9.44,9.44v28.18a0,0,0,0,1,0,0H144.18a0,0,0,0,1,0,0V244.65A9.44,9.44,0,0,1,153.63,235.21Z"/><rect class="cls-15" x="128.39" y="246.09" width="34.31" height="11.57" rx="5.79" transform="matrix(0.5, -0.87, 0.87, 0.5, -145.35, 251.99)"/><path class="cls-16" d="M147.79,251.8a13,13,0,0,1,4-1.16c1.7-.31,3.75-.51,4.9.8a3.57,3.57,0,0,1,.76,1.77,7.37,7.37,0,0,1-3.48,7.14,12.23,12.23,0,0,1-8.1,1.52c-1.11-.14-2.74-.49-3.18-1.7-.39-1.05.37-2.06.82-3C144.48,255.05,145.68,252.94,147.79,251.8Z"/><path class="cls-16" d="M151.32,250.59c2.45-.83,5.12-1.53,7.59-.77a1.93,1.93,0,0,1,.86.45.84.84,0,0,1,.21.9,1.2,1.2,0,0,1-.57.49A24.28,24.28,0,0,1,156,253l-2.1.72a10.33,10.33,0,0,1-1.51.43c-1.05.19-3.56.19-4-1.08C147.78,251.63,150.32,250.92,151.32,250.59Z"/><rect class="cls-4" x="159.97" y="239.93" width="15.53" height="24.97" rx="2.15"/><circle class="cls-5" cx="163.19" cy="243.43" r="1.73"/><path class="cls-16" d="M178.11,259.21c-1.33,3-5.52,3.91-10.16,1.84s-5.21-5.69-4.74-7.9c1.33-3,3.21-2.84,7.63-1,1,.18,2,1.19,4.18.6C179.9,250.11,179.64,256.79,178.11,259.21Z"/><path class="cls-16" d="M176.54,259.05h0c-.82-.09-2.79,0-1.85-2.53a39.39,39.39,0,0,0,1.48-6.79c.1-.91.73-2.53,1.55-2.45h0c.82.08,1.39,1.24,1.3,2.15a49.35,49.35,0,0,0,.16,6.81C179,259,177.35,259.13,176.54,259.05Z"/><path class="cls-15" d="M177,256.24h13.3a5.75,5.75,0,0,1,5.75,5.75v.08a5.75,5.75,0,0,1-5.75,5.75H177a0,0,0,0,1,0,0V256.24a0,0,0,0,1,0,0Z" transform="translate(124.11 -53.51) rotate(24.25)"/><path class="cls-15" d="M132.8,255.26h9.76a5.79,5.79,0,0,1,5.79,5.79v0a5.79,5.79,0,0,1-5.79,5.79H132.8a0,0,0,0,1,0,0V255.26A0,0,0,0,1,132.8,255.26Z" transform="translate(383.26 431.37) rotate(153.37)"/><rect class="cls-15" x="170.02" y="246.49" width="34.31" height="11.57" rx="5.79" transform="translate(-15.99 491.86) rotate(-103.13)"/><path class="cls-10" d="M195.77,202.06c0-6.83-1.94-13.37-8-17.2.14,0,.27,0,.39,0,3.35.21,5.21.22,5.21.22a3.94,3.94,0,0,0-4.53-3.53,9.3,9.3,0,0,0-4.09,1.23c-6.32-6.33-13.5-6.25-17.49-6.25a26.8,26.8,0,0,0-15.58,5.17c-5.55,2.06-12.34,2.05-11.91,3.5.2.68,2.48,2.11,5.24,3.18a26.89,26.89,0,0,0-4.8,12c-.41,1.56-2,7-4.31,8.3a2,2,0,0,0,1.1,1.42c.81.43,1.92.82,3.58-.62,1.94,8.76,10.44,16.84,14.1,19.15s12.62-.18,12.62-.18,9.84.55,14.09-.6,12.06-8.87,13.68-18.19v0c1.57,1.28,2.62.9,3.4.48a2,2,0,0,0,1.11-1.42C197.83,207.68,196.49,204.32,195.77,202.06Z"/><ellipse class="cls-16" cx="167.73" cy="208.25" rx="25.17" ry="29.1"/><circle class="cls-16" cx="142.95" cy="215.15" r="6.32"/><circle class="cls-16" cx="192.48" cy="215.15" r="6.32"/><circle class="cls-8" cx="159.95" cy="215.51" r="2.51"/><circle class="cls-8" cx="175.24" cy="215.5" r="2.51"/><path class="cls-8" d="M167.67,224.54a5.18,5.18,0,0,0-3.67,1.52.92.92,0,0,0,0,1.32.94.94,0,0,0,1.32,0,3.33,3.33,0,0,1,4.71,0,.93.93,0,0,0,1.32-1.32A5.22,5.22,0,0,0,167.67,224.54Z"/><path class="cls-10" d="M146.4,213.2s-2.12-12.38,15.27-22c0,0-4.06,8.89-2.89,9.81,0,0,7.1.25,13.08-9,0,0-3,7-2.08,8.72a14.59,14.59,0,0,0,9.63-8.85s4,10,10.2,14.86c0,0,1.51,3.78.25,6.3,0,0,4.28-3.53,4.28-7.56s-.5-14.12-6-18.91-15.63-12.1-25.21-8.83S144,187.88,142,198.72,146.4,213.2,146.4,213.2Z"/><path class="cls-16" d="M382.24,210.28s.15-7-1.47-9.66-2.44-1-2.44-1l.24,2.56s-2.18-6.37-5.76-6.48-7.79,4-6.52,8S375.13,215,375.13,215Z"/><path class="cls-10" d="M457.12,198.89c0-7.12-2-14-8.36-17.95a2.84,2.84,0,0,1,.41,0c3.49.22,5.44.23,5.44.23a4.11,4.11,0,0,0-4.73-3.69,9.68,9.68,0,0,0-4.28,1.29c-6.6-6.61-14.09-6.53-18.27-6.53a28.07,28.07,0,0,0-16.28,5.4c-5.79,2.15-12.89,2.15-12.43,3.65.21.71,2.58,2.21,5.47,3.33a28.12,28.12,0,0,0-5,12.49c-.43,1.63-2.09,7.35-4.51,8.67a2.05,2.05,0,0,0,1.16,1.48c.84.46,2,.86,3.73-.65,2,9.16,10.91,17.6,14.73,20s13.18-.2,13.18-.2,10.29.58,14.73-.62,12.6-9.27,14.29-19v0c1.64,1.33,2.75.94,3.56.49a2.05,2.05,0,0,0,1.15-1.48C459.28,204.77,457.88,201.26,457.12,198.89Z"/><path class="cls-15" d="M417.66,233.36c7.4,1.24,16.65.17,23.93.17,13,0,11.06,7.46,11.06,16.59v22.71H407.12c-.11-7.12,0-12.33,0-13.18,0-2.53.54-5.36,0-7.78-.84-3.52-10.84-9.08-13.29-11.83-2.74-3.09-2-4.8-2.07-8.81a3.24,3.24,0,0,1,.4-1.93c.61-.92,1.56-2.79,2.72-2.91,5.82-.56,8.05,3.59,16.91,6C413.61,232.88,415.68,233,417.66,233.36Z"/><ellipse class="cls-16" cx="427.83" cy="205.36" rx="26.29" ry="30.4"/><circle class="cls-16" cx="401.95" cy="212.57" r="6.6"/><circle class="cls-16" cx="453.69" cy="212.57" r="6.6"/><circle class="cls-8" cx="416.5" cy="205.95" r="2.62"/><circle class="cls-8" cx="432.46" cy="205.95" r="2.62"/><path class="cls-10" d="M405.55,210.54s-2.22-12.94,16-22.95c0,0-4.25,9.3-3,10.26,0,0,7.42.25,13.67-9.39,0,0-3.13,7.31-2.17,9.1A15.24,15.24,0,0,0,440,188.32s4.22,10.44,10.65,15.52c0,0,1.58,3.95.26,6.58,0,0,4.48-3.68,4.48-7.9s-.53-14.75-6.32-19.75-16.33-12.64-26.34-9.22S403,184.08,400.91,195.41,405.55,210.54,405.55,210.54Z"/><path class="cls-8" d="M424.64,218.63c1.52,0,4.19-2,4.19-4.39a9.71,9.71,0,0,1-8.37,0A4.83,4.83,0,0,0,424.64,218.63Z"/><rect class="cls-15" x="384.53" y="230.09" width="33.55" height="15.14" rx="4.4" transform="translate(591.43 663.54) rotate(-144.69)"/><path class="cls-15" d="M378.38,215.82h23a0,0,0,0,1,0,0V230.6a0,0,0,0,1,0,0h-23a6.9,6.9,0,0,1-6.9-6.9v-1A6.9,6.9,0,0,1,378.38,215.82Z" transform="translate(430.71 667.25) rotate(-125.71)"/><rect class="cls-4" x="418.64" y="240.25" width="15.99" height="25.72" rx="2.21"/><circle class="cls-5" cx="421.96" cy="243.86" r="1.78"/><path class="cls-16" d="M437.33,260.11c-1.37,3.07-5.69,4-10.47,1.89s-5.37-5.86-4.88-8.13c1.37-3.07,3.3-2.93,7.86-1,1,.19,2.09,1.22,4.3.62C439.16,250.74,438.9,257.62,437.33,260.11Z"/><path class="cls-16" d="M435.71,259.94h0c-.84-.08-2.88,0-1.91-2.6a39.71,39.71,0,0,0,1.53-7c.09-.93.75-2.6,1.59-2.51h0c.84.08,1.43,1.27,1.34,2.2a49.67,49.67,0,0,0,.17,7C438.18,259.89,436.55,260,435.71,259.94Z"/><path class="cls-15" d="M436.23,257h13.86a5.75,5.75,0,0,1,5.75,5.75v.42a5.75,5.75,0,0,1-5.75,5.75H436.23a0,0,0,0,1,0,0V257A0,0,0,0,1,436.23,257Z" transform="translate(147.41 -160.01) rotate(24.25)"/><rect class="cls-15" x="431.05" y="247.01" width="35.34" height="11.91" rx="5.79" transform="matrix(-0.16, -0.99, 0.99, -0.16, 268.94, 735.7)"/><path class="cls-17" d="M375.64,172.65l7.93,2.1a.56.56,0,0,1,.42.42l2.09,7.92a.51.51,0,0,0,1,0l2.09-7.92a.53.53,0,0,1,.42-.42l7.93-2.1a.5.5,0,0,0,0-1l-7.93-2.1a.55.55,0,0,1-.42-.42l-2.09-7.93a.51.51,0,0,0-1,0L384,169.15a.58.58,0,0,1-.42.42l-7.93,2.1a.5.5,0,0,0,0,1Z"/><path class="cls-17" d="M466.52,188.24l5.41,1.44a.38.38,0,0,1,.29.28l1.43,5.41a.34.34,0,0,0,.34.27.35.35,0,0,0,.34-.27l1.42-5.41a.38.38,0,0,1,.29-.28l5.41-1.44a.34.34,0,0,0,0-.66L476,186.14a.38.38,0,0,1-.29-.28l-1.42-5.41a.35.35,0,0,0-.34-.27.34.34,0,0,0-.34.27l-1.43,5.41a.38.38,0,0,1-.29.28l-5.41,1.44a.34.34,0,0,0,0,.66Z"/></svg>