<svg id="レイヤー_1" data-name="レイヤー 1" xmlns="http://www.w3.org/2000/svg" width="40.55" height="40.55" viewBox="0 0 40.55 40.55"><defs><style>.cls-1{fill:#f5f5f5;}.cls-2{fill:#3176d5;}</style></defs><rect class="cls-1" width="40.55" height="40.55" rx="4.55"/><path class="cls-2" d="M29.75,31.56A2.5,2.5,0,0,1,28,30.82L10.41,13.26A2.5,2.5,0,0,1,14,9.72L31.51,27.29a2.49,2.49,0,0,1,0,3.53A2.46,2.46,0,0,1,29.75,31.56Z"/><path class="cls-2" d="M12.18,31.56a2.51,2.51,0,0,1-1.77-4.27L28,9.72a2.5,2.5,0,0,1,3.53,3.54L14,30.82A2.5,2.5,0,0,1,12.18,31.56Z"/></svg>