<?xml version="1.0" encoding="UTF-8"?><svg id="_イヤー_1" xmlns="http://www.w3.org/2000/svg" width="61.36" height="47.19" xmlns:xlink="http://www.w3.org/1999/xlink" viewBox="0 0 61.36 47.19"><defs><style>.cls-1{clip-path:url(#clippath);}.cls-2{fill:none;}.cls-3{fill:#35318f;}.cls-4{fill:#f39801;}</style><clipPath id="clippath"><path id="SVGID" class="cls-2" d="M61.34,34.53c-.29-3.1-4.11-8.28-4.11-8.28,.05-.58,.09-1.18,.09-1.82C57.32,10.94,45.39,0,30.68,0S4.04,10.94,4.04,24.44c0,.63,.03,1.23,.09,1.82,0,0-3.83,5.18-4.11,8.28-.35,3.77,4.96,7.23,7.9,8.58,6.18,2.82,12.87,3.56,19.55,4.03,1.03,.07,2.11,.07,3.22,.01,1.11,.05,2.19,.06,3.22-.01,6.67-.47,13.37-1.2,19.55-4.03,2.94-1.34,8.24-4.8,7.9-8.58Z"/></clipPath></defs><g class="cls-1"><g><path class="cls-4" d="M61.34,34.53c-.29-3.1-4.11-8.28-4.11-8.28,.05-.58,.09-1.18,.09-1.82C57.32,10.94,45.39,0,30.68,0S4.04,10.94,4.04,24.44c0,.63,.03,1.23,.09,1.82,0,0-3.83,5.18-4.11,8.28-.35,3.77,4.96,7.23,7.9,8.58,6.18,2.82,12.87,3.56,19.55,4.03,1.03,.07,2.11,.07,3.22,.01,1.11,.05,2.19,.06,3.22-.01,6.67-.47,13.37-1.2,19.55-4.03,2.94-1.34,8.24-4.8,7.9-8.58Z"/><path class="cls-3" d="M18.1,31.84c-9.47-.95-15.96-5.23-17.44-6.54-.35-.31-.34-.86,.02-1.16l2.28-1.94c.27-.23,.67-.25,.95-.03,1.15,.88,6.9,4.42,14.59,5.2,.42,.04,.74,.41,.7,.83l-.25,2.94c-.04,.43-.42,.75-.85,.7Z"/><path class="cls-3" d="M37.12,27.29h-3.99v-3.99c0-.62-.51-1.12-1.12-1.12h-2.65c-.62,0-1.12,.5-1.12,1.12v3.99h-3.99c-.62,0-1.12,.51-1.12,1.12v2.65c0,.62,.5,1.12,1.12,1.12h3.99v3.99c0,.62,.51,1.12,1.12,1.12h2.65c.62,0,1.12-.51,1.12-1.12v-3.99h3.99c.62,0,1.12-.51,1.12-1.12v-2.65c0-.62-.51-1.12-1.12-1.12Z"/><path class="cls-3" d="M43.26,31.84c9.47-.95,15.96-5.23,17.44-6.54,.35-.31,.34-.86-.02-1.16l-2.28-1.94c-.27-.23-.67-.25-.95-.03-1.15,.88-6.9,4.42-14.59,5.2-.42,.04-.74,.41-.7,.83l.25,2.94c.04,.43,.42,.75,.85,.7Z"/></g></g></svg>