<?xml version="1.0" encoding="UTF-8"?><svg id="_イヤー_1" xmlns="http://www.w3.org/2000/svg" width="61.88" height="49.54" viewBox="0 0 61.88 49.54"><defs><style>.cls-1{fill:#03aae6;}.cls-2{fill:#999;}</style></defs><g><path class="cls-1" d="M37.9,41.06c-1.8-1.94-4.37-2.97-7.01-2.8-2.62-.03-5.14,.98-7.01,2.8-.42,.59-.42,1.38,0,1.96l5.89,5.89c.84,.84,1.12,.84,1.96,0l5.89-5.89h0c.44-.56,.55-1.31,.28-1.96Z"/><path class="cls-1" d="M5.78,24.75c.03,.2,.22,.35,.42,.32h.42c.42,0,.84,0,.84-.42,6.07-6.43,14.58-9.99,23.42-9.82,.23,0,.45,0,.68,.01l9.31-9.31C26.73,2.25,11.27,6.15,.32,17.22c-.42,.59-.42,1.38,0,1.96l5.47,5.47s0,.07,0,.1Z"/><path class="cls-1" d="M12.38,29.42c-.84,.84-.84,1.12,0,1.96l1.32,1.32,10.11-10.11c-4.3,1.24-8.25,3.57-11.43,6.83Z"/><path class="cls-1" d="M61.73,17.22l-.28-.28-.04-.04c-4-3.96-8.59-6.97-13.48-9.05l-8.16,8.16c5.47,1.52,10.51,4.47,14.52,8.64,0,.42,.42,.42,.84,.42h.43s0-.07,0-.1c.03-.2,.22-.35,.42-.32l5.47-5.47c.44-.56,.54-1.31,.28-1.96Z"/><path class="cls-1" d="M49.96,29.42c-4.24-4.39-9.87-7.1-15.88-7.71l-15.56,15.56h.17c.34,.04,.67-.12,.84-.42,3.04-2.97,7.11-4.63,11.36-4.63,4.28-.16,8.41,1.53,11.36,4.63,0,.42,.42,.42,.84,.42h.42s0-.07,0-.1c.03-.2,.22-.35,.42-.32l5.47-5.47h0c.58-.47,.8-1.25,.57-1.96Z"/></g><rect class="cls-2" x="0" y="21.09" width="63.57" height="6.64" rx="1" ry="1" transform="translate(-7.95 29.63) rotate(-45)"/></svg>