<?xml version="1.0" encoding="UTF-8"?><svg id="_レイヤー_1" xmlns="http://www.w3.org/2000/svg" width="241.47" height="211.31" viewBox="0 0 241.47 211.31"><defs><style>.cls-1{fill:#fff;}.cls-2{stroke-width:2.55px;}.cls-2,.cls-3,.cls-4,.cls-5,.cls-6{stroke-linecap:round;}.cls-2,.cls-3,.cls-4,.cls-5,.cls-6,.cls-7{fill:none;}.cls-2,.cls-3,.cls-5{stroke:#8fc31f;stroke-linejoin:round;}.cls-3{stroke-width:3px;}.cls-8{fill:#35318f;}.cls-4{stroke-width:1.7px;}.cls-4,.cls-6{stroke:#f39800;}.cls-4,.cls-6,.cls-7{stroke-miterlimit:10;}.cls-5{stroke-width:3.32px;}.cls-6{stroke-width:2.22px;}.cls-9{fill:#f39800;}.cls-10{fill:#666;}.cls-7{stroke:#ccc;stroke-width:2.98px;}</style></defs><rect class="cls-9" x="69.55" y="80.46" width="28.09" height="15.7" rx="1" ry="1" transform="translate(203.16 66.15) rotate(122.93)"/><path class="cls-9" d="m71.5,107.8l15.43-2.52c.6-.1.76-.88.25-1.21l-19.44-12.59c-.51-.33-1.15.14-1,.73l4.01,15.11c.09.33.41.54.75.48Z"/><rect class="cls-9" x="143.06" y="80.08" width="28.09" height="15.7" rx="1" ry="1" transform="translate(145.5 -91.73) rotate(57.07)"/><path class="cls-9" d="m169.2,107.42l-15.43-2.52c-.6-.1-.76-.88-.25-1.21l19.44-12.59c.51-.33,1.15.14,1,.73l-4.01,15.11c-.09.33-.41.54-.75.48Z"/><circle class="cls-7" cx="120.23" cy="37.9" r="36.41"/><rect class="cls-1" x="85.05" y="52.26" width="69.52" height="16.09"/><path class="cls-10" d="m93,64.84h-2.12l-2.1-9.39h2.45l1.02,5.61,1.66-5.61h1.97l1.7,5.65,1.02-5.65h2.45l-2.1,9.39h-2.14l-1.92-6.07-1.91,6.07Z"/><path class="cls-10" d="m101.98,55.45h2.18v1.91h-2.18v-1.91Zm.07,2.59h2.04v6.81h-2.04v-6.81Z"/><path class="cls-10" d="m110.26,60.21l2.53-4.76h2.11v9.39h-2.12v-5.31l-1.93,3.76h-1.21l-1.89-3.72v5.27h-2.12v-9.39h2.1l2.54,4.76Z"/><path class="cls-10" d="m115.86,64.84l3.27-9.39h2.18l3.27,9.39h-2.41l-.5-1.61h-2.9l-.49,1.61h-2.41Zm3.48-3.48h1.73l-.86-2.78-.87,2.78Z"/><path class="cls-10" d="m125.17,64.84l2.56-4.85-2.27-4.55h2.44l1.31,2.75,1.31-2.75h2.44l-2.29,4.55,2.57,4.85h-2.44l-1.59-2.95-1.59,2.95h-2.44Z"/><path class="cls-10" d="m143.48,64.84h-5.92v-1.33l3.06-3.61c.56-.65.78-1.18.78-1.77,0-.65-.46-.97-.99-.97-.56,0-.94.34-.99.97h-1.95c0-1.63,1.37-2.82,3.08-2.82s3.1,1.27,3.1,2.8c0,1.29-.82,2.29-1.43,2.99l-1.61,1.85h2.87v1.88Z"/><path class="cls-10" d="m144.95,59.16h1.77v-1.8h1.73v1.8h1.8v1.71h-1.8v1.78h-1.73v-1.78h-1.77v-1.71Z"/><polyline class="cls-2" points="127.93 46.99 120.15 29.87 112.38 46.99"/><circle class="cls-9" cx="120.15" cy="23.17" r="3.43"/><path class="cls-4" d="m112.13,31.27c-4.47-4.47-4.47-11.73,0-16.2"/><path class="cls-4" d="m128.33,15.07c4.47,4.47,4.47,11.73,0,16.2"/><path class="cls-4" d="m115.3,28.02c-2.68-2.68-2.68-7.02,0-9.7"/><path class="cls-4" d="m125.01,18.31c2.56,2.56,2.67,6.65.33,9.35"/><line class="cls-2" x1="117.06" y1="37.52" x2="123.41" y2="37.52"/><line class="cls-2" x1="115.42" y1="42.14" x2="125.05" y2="42.14"/><rect class="cls-9" x="110.26" y="150.4" width="15.15" height="15.7" rx="1" ry="1"/><path class="cls-9" d="m134.27,157.8l-10.5-11.58c-.41-.45-1.15-.16-1.15.44v23.16c0,.61.75.89,1.15.44l10.5-11.58c.23-.25.23-.64,0-.89Z"/><circle class="cls-3" cx="191.66" cy="157.85" r="45.47"/><rect class="cls-1" x="139.76" y="176.37" width="101.71" height="34.94"/><path class="cls-8" d="m150.9,193.83h-3.13l-3.09-13.83h3.61l1.5,8.26,2.45-8.26h2.91l2.51,8.32,1.5-8.32h3.61l-3.09,13.83h-3.15l-2.83-8.94-2.81,8.94Z"/><path class="cls-8" d="m164.1,179.99h3.21v2.81h-3.21v-2.81Zm.1,3.81h3.01v10.02h-3.01v-10.02Z"/><path class="cls-8" d="m176.25,187.01l3.73-7.02h3.11v13.83h-3.13v-7.82l-2.85,5.53h-1.78l-2.79-5.47v7.76h-3.13v-13.83h3.09l3.75,7.02Z"/><path class="cls-8" d="m184.47,193.83l4.81-13.83h3.21l4.81,13.83h-3.55l-.74-2.37h-4.27l-.72,2.37h-3.55Zm5.13-5.13h2.55l-1.26-4.09-1.28,4.09Z"/><path class="cls-8" d="m198.16,193.83l3.77-7.14-3.35-6.7h3.59l1.92,4.05,1.92-4.05h3.59l-3.37,6.7,3.79,7.14h-3.59l-2.35-4.35-2.35,4.35h-3.59Z"/><path class="cls-8" d="m219.71,187.99h-2.99v-8h8.28v2.93h-5.01v1.76c.36-.28.92-.64,1.96-.64,1.9,0,3.55,1.48,3.55,4.89s-1.5,5.09-4.47,5.09c-2.41,0-4.51-1.22-4.77-3.91h3.29c.18.72.58,1.14,1.38,1.14s1.24-.74,1.24-2.12c0-1.46-.38-2.17-1.24-2.17-.62,0-.96.36-1.22,1.02Z"/><path class="cls-8" d="m237.82,186.51v1.48c0,4.13-1.94,6.04-5.09,6.04s-5.45-1.91-5.45-6.04v-1.88c0-4.45,2.31-6.32,5.45-6.32s4.69,1.76,5.09,4.47h-3.17c-.14-.86-.72-1.7-1.92-1.7-1.38,0-2.13,1-2.13,3.27v2.17c0,2.27.74,3.27,2.13,3.27s1.78-.84,1.9-1.98h-1.84v-2.77h5.03Z"/><path class="cls-8" d="m151.3,200.3q-.18-1-.33-1.4l1.89-.29c.01.37.06.72.18,1.37l.14.71,2.12-.32c.78-.12,1.06-.18,1.53-.33l.29,1.74q-.53.05-1.52.21l-2.12.32.33,1.76,2.41-.37c.8-.13,1.12-.21,1.62-.36l.3,1.74q-.42.04-1.58.22l-2.45.38.34,1.8c.17.94.23,1.19.39,1.68l-1.95.33c-.01-.34-.08-.92-.23-1.69l-.34-1.83-2.6.4c-.75.12-1.02.18-1.52.31l-.29-1.75c.49-.01.8-.05,1.59-.17l2.53-.4-.31-1.76-1.88.29c-.84.13-.98.16-1.64.31l-.28-1.75c.53-.02.75-.05,1.63-.18l1.88-.29-.13-.67Zm4.64-2c.4.57.61.96.83,1.53l-1.11.37c-.22-.6-.41-.98-.8-1.55l1.07-.35Zm1.51-.4c.35.47.64.98.84,1.52l-1.06.41c-.22-.55-.47-1.05-.83-1.59l1.05-.34Z"/><path class="cls-8" d="m162.54,200.8c.04-.52.06-1.15.06-1.71,0-.18,0-.29-.02-.51l1.92.05q-.06.4-.11,1.45c-.01.25-.02.33-.05.71h2.65c.45,0,.58-.03.88-.12l.81.71c-.11.23-.13.35-.14.83-.07,2.48-.28,4.61-.55,5.41-.33.99-.86,1.34-2.07,1.34-.47,0-.76-.02-1.52-.13-.04-.88-.08-1.13-.35-1.81.65.18,1.18.26,1.58.26.57,0,.72-.24.9-1.4.13-.87.23-2.36.23-3.51h-2.57c-.18,1.53-.42,2.39-.94,3.41-.66,1.27-1.75,2.38-3.31,3.39-.51-.77-.7-.99-1.31-1.53,1.57-.82,2.52-1.74,3.13-2.98.3-.62.47-1.18.58-1.93l.06-.35h-1.57c-1.19,0-1.22,0-1.65.07v-1.76c.45.08.75.1,1.68.1h1.7Zm4.75-2.15c.43.57.68.96.95,1.58l-1.07.42c-.28-.63-.54-1.09-.94-1.62l1.06-.39Zm1.43-.51c.41.49.75,1.03.96,1.54l-1.02.45c-.27-.58-.51-.98-.95-1.59l1.01-.4Z"/><path class="cls-8" d="m181.66,201.48c-.27-.02-.4-.04-.78-.05-.07,1.19-.13,1.63-.3,2.36-.22.89-.48,1.57-.92,2.3.71.75,1.3,1.17,2.28,1.65-.42.62-.59.94-.83,1.68-1.02-.6-1.72-1.16-2.47-2-.81.84-1.6,1.45-2.69,2.04-.19-.47-.39-.81-.68-1.22-.24.86-.61,1.1-1.71,1.1-.17,0-.43-.01-.77-.04-.02-.59-.07-.9-.27-1.51.29.06.58.1.81.1.36,0,.47-.06.55-.3.14-.45.24-1.64.24-3.17v-.54h-.93c-.13,1.37-.23,2.08-.42,2.86-.29,1.16-.65,1.93-1.28,2.76-.37-.66-.69-1.06-1.11-1.42.7-.92,1.01-1.75,1.23-3.3.14-.95.18-1.76.2-3.41h-.12c-.55,0-.8.01-1.1.06v-1.53c.36.06.66.07,1.27.07h.71v-.64c0-.46-.01-.7-.07-1.04h1.7c-.06.33-.07.55-.07,1.04v.64h.58c.54,0,.82-.01,1.17-.06v1.51c-.47-.04-.76-.05-1.12-.05h-1.42q-.04.93-.05,1.12h1.29c.45,0,.64,0,.84-.02.53-.75.87-1.46,1.19-2.54.22-.75.33-1.24.34-1.74l1.65.28c-.05.15-.05.17-.13.53s-.17.67-.28,1.05h2.1c.52,0,1.02-.02,1.36-.07v1.52Zm-4.01,4.6c-.47-.77-.78-1.48-1.1-2.47-.19.27-.23.31-.46.6-.17-.31-.23-.4-.52-.72-.01,2.48-.06,3.44-.21,4.32.82-.39,1.59-.96,2.28-1.72Zm.07-4.65c-.08.21-.12.3-.22.51.23,1.1.53,1.86,1.11,2.81.45-.88.65-1.76.76-3.31h-1.65Z"/><path class="cls-8" d="m185.18,204.38h-1.27c-.63,0-.81.01-1.15.05v-1.41c.33.05.53.06,1.15.06h3.5c.42,0,.66-.01.95-.06v1.41c-.33-.04-.53-.05-1.1-.05h-.66v.81h.57c.4,0,.68-.01.96-.04v1.36c-.27-.04-.54-.05-.98-.05h-.55v1.11c.46.13.92.19,1.8.24-.24-.3-.35-.42-.65-.7.77-.28,1.29-.58,1.72-1.03-.39,0-.54.01-.82.04.02-.28.04-.59.04-.96v-3.64c0-.4-.01-.66-.04-.98.29.04.43.04.99.04h.46c.13-.28.19-.46.27-.65h-.88c-.43,0-.83.01-1.18.05v-1.36c.36.05.75.06,1.33.06h2.94c.66,0,1.04-.02,1.33-.07v1.39c-.33-.04-.75-.06-1.17-.06h-.9c-.07.19-.17.42-.28.65h.93c.52,0,.69-.01.98-.04-.02.27-.04.54-.04.99v3.46c0,.42.01.79.05,1.13-.29-.02-.51-.04-.98-.04h-.08c.47.39.98.65,1.7.89-.25.28-.35.41-.57.74.24-.02.34-.04.61-.06-.23.59-.33.94-.41,1.58-.35.02-2.37.06-3.07.06-2.21,0-3.41-.08-4.22-.3-.82-.23-1.51-.68-2.06-1.35-.21.77-.4,1.24-.72,1.78-.46-.53-.49-.55-1.15-1.01.35-.51.58-1.07.72-1.77.1-.41.16-1.11.16-1.63,0-.1-.01-.18-.02-.33l1.35.19c-.02.17-.02.19-.02.4-.01.25-.02.45-.06.88.16.23.27.35.54.62v-2.4Zm-1.86-4.75c0-.45-.01-.73-.05-1.02.24.02.49.04,1.05.04h2.58c.6,0,.8-.01,1.06-.04-.02.3-.04.48-.04,1.02v2.09c0,.54.01.75.04,1.01-.33-.02-.64-.04-1.04-.04h-2.6c-.41,0-.72.01-1.04.04.02-.32.04-.47.04-1.02v-2.07Zm1.41.58h1.81v-.48h-1.81v.48Zm0,1.47h1.81v-.51h-1.81v.51Zm6.04,4.95c-.46.54-.8.84-1.39,1.22h.72c.63,0,1.49-.02,2.47-.06-.6-.35-.9-.59-1.47-1.17l.76-.53h-1.97l.87.54Zm-.7-4.52h1.95v-.46h-1.95v.46Zm0,1.45h1.95v-.46h-1.95v.46Zm0,1.44h1.95v-.47h-1.95v.47Z"/><path class="cls-8" d="m202.62,199.6c.14,0,.29,0,.52-.03.05-.7.63-1.24,1.33-1.24.75,0,1.34.6,1.34,1.34s-.59,1.34-1.33,1.34h-.05l-.05.17c-.51,2.03-1.28,3.59-2.39,4.88-1.11,1.3-2.47,2.24-4.54,3.17-.4-.77-.59-1.04-1.28-1.72,1.05-.33,1.71-.64,2.59-1.19,1.86-1.18,3.04-2.83,3.59-5.03h-5.28c-.99,0-1.37.01-1.87.07v-1.84c.52.07.89.08,1.89.08h5.52Zm1.25.07c0,.32.27.59.59.59s.59-.27.59-.59-.27-.59-.59-.59-.59.27-.59.59Z"/><path class="cls-8" d="m206.57,201.83c.52.07.75.08,1.82.08h5.81c.7,0,.82-.01,1.17-.12l.81.89c-.13.22-.18.34-.34.76-.61,1.77-1.54,3.16-2.74,4.12-.82.66-1.64,1.09-3.29,1.74-.33-.71-.49-.96-1.13-1.68,1.46-.37,2.37-.79,3.27-1.49.88-.7,1.42-1.45,1.9-2.62h-5.48c-.99,0-1.35.01-1.8.06v-1.75Zm1.01-2.97c.43.07.83.1,1.66.1h3.95c.98,0,1.21-.01,1.64-.1v1.75c-.41-.05-.59-.06-1.62-.06h-4.01c-.77,0-1.25.02-1.63.06v-1.75Z"/><path class="cls-8" d="m225.61,209.1c-1.02-1.28-2.23-2.46-3.58-3.51-1.07,1.28-2.66,2.47-4.5,3.36-.4-.76-.57-.99-1.16-1.6,1.06-.42,1.77-.81,2.68-1.47,1.33-.96,2.39-2.13,3.16-3.48.16-.26.36-.7.64-1.31l-3.52.06c-1,.02-1.23.04-1.69.11l-.02-1.83c.39.06.72.07,1.47.07h.23l4.11-.07c.66,0,.72-.01,1.01-.14l.93.96c-.16.17-.25.33-.4.67-.58,1.35-1.12,2.33-1.82,3.28,1.55,1.11,1.86,1.38,3.92,3.34l-1.46,1.57Z"/><path class="cls-8" d="m230.04,205.59c.05.49.12.72.33.98.33.42.89.65,1.6.65,1.05,0,1.71-.48,1.71-1.25,0-.37-.16-.67-.47-.87-.37-.24-.75-.36-2.06-.66-1.02-.24-1.42-.4-1.88-.72-.68-.51-1.04-1.24-1.04-2.13,0-1.77,1.41-2.89,3.64-2.89,1.43,0,2.52.43,3.15,1.25.3.41.46.76.61,1.47l-2.12.23c-.06-.37-.15-.55-.31-.77-.28-.33-.76-.51-1.34-.51-.94,0-1.57.46-1.57,1.15,0,.33.14.59.41.78.27.17.51.25,1.13.4,1.31.28,1.89.43,2.37.65.49.22.94.59,1.22,1.05.24.4.36.88.36,1.46,0,1.96-1.37,3.09-3.78,3.09-1.56,0-2.72-.43-3.36-1.24-.4-.49-.57-.95-.7-1.89l2.1-.21Z"/><polyline class="cls-5" points="201.69 168.59 191.55 146.3 181.42 168.59"/><circle class="cls-9" cx="191.55" cy="137.56" r="4.46"/><path class="cls-6" d="m181.11,148.12c-5.83-5.83-5.83-15.27,0-21.1"/><path class="cls-6" d="m202.21,127.02c5.83,5.83,5.83,15.27,0,21.1"/><path class="cls-6" d="m185.24,143.88c-3.49-3.49-3.49-9.15,0-12.64"/><path class="cls-6" d="m197.87,131.24c3.34,3.34,3.48,8.66.43,12.17"/><line class="cls-5" x1="187.52" y1="156.25" x2="195.79" y2="156.25"/><line class="cls-5" x1="185.39" y1="162.27" x2="197.93" y2="162.27"/><circle class="cls-3" cx="51.9" cy="157.85" r="45.47"/><rect class="cls-1" y="176.37" width="101.71" height="34.94"/><path class="cls-8" d="m11.15,193.83h-3.13l-3.09-13.83h3.61l1.5,8.26,2.45-8.26h2.91l2.51,8.32,1.5-8.32h3.61l-3.09,13.83h-3.15l-2.83-8.94-2.81,8.94Z"/><path class="cls-8" d="m24.35,179.99h3.21v2.81h-3.21v-2.81Zm.1,3.81h3.01v10.03h-3.01v-10.03Z"/><path class="cls-8" d="m36.5,187.01l3.73-7.02h3.11v13.83h-3.13v-7.82l-2.85,5.53h-1.78l-2.79-5.47v7.76h-3.13v-13.83h3.09l3.75,7.02Z"/><path class="cls-8" d="m44.71,193.83l4.81-13.83h3.21l4.81,13.83h-3.55l-.74-2.37h-4.27l-.72,2.37h-3.55Zm5.13-5.13h2.55l-1.26-4.09-1.28,4.09Z"/><path class="cls-8" d="m58.4,193.83l3.77-7.14-3.35-6.7h3.59l1.92,4.05,1.92-4.05h3.59l-3.37,6.7,3.79,7.14h-3.59l-2.35-4.35-2.35,4.35h-3.59Z"/><path class="cls-8" d="m79.96,187.99h-2.99v-8h8.28v2.93h-5.01v1.76c.36-.28.92-.64,1.96-.64,1.9,0,3.55,1.48,3.55,4.89s-1.5,5.09-4.47,5.09c-2.41,0-4.51-1.22-4.77-3.91h3.29c.18.72.58,1.14,1.38,1.14s1.24-.74,1.24-2.13c0-1.46-.38-2.17-1.24-2.17-.62,0-.96.36-1.22,1.02Z"/><path class="cls-8" d="m98.07,186.51v1.48c0,4.13-1.94,6.04-5.09,6.04s-5.45-1.91-5.45-6.04v-1.88c0-4.45,2.31-6.32,5.45-6.32s4.69,1.76,5.09,4.47h-3.17c-.14-.86-.72-1.7-1.92-1.7-1.38,0-2.13,1-2.13,3.27v2.17c0,2.27.74,3.27,2.13,3.27s1.78-.84,1.9-1.99h-1.84v-2.77h5.03Z"/><path class="cls-8" d="m15.84,200.3q-.18-1-.33-1.4l1.89-.29c.01.37.06.72.18,1.38l.14.71,2.12-.33c.78-.12,1.06-.18,1.53-.33l.29,1.74q-.53.05-1.52.21l-2.12.33.33,1.76,2.41-.37c.8-.13,1.12-.2,1.62-.36l.3,1.74q-.42.04-1.58.22l-2.45.39.34,1.8c.17.94.23,1.19.39,1.68l-1.95.33c-.01-.34-.08-.92-.23-1.69l-.34-1.83-2.6.4c-.75.12-1.02.18-1.52.31l-.29-1.75c.49-.01.8-.05,1.59-.17l2.53-.4-.31-1.76-1.88.29c-.84.13-.98.16-1.64.31l-.28-1.75c.53-.02.75-.05,1.63-.18l1.88-.29-.13-.67Zm4.64-2c.4.57.61.96.83,1.53l-1.11.37c-.22-.6-.41-.98-.8-1.56l1.07-.35Zm1.51-.4c.35.47.64.98.84,1.52l-1.06.41c-.22-.55-.47-1.05-.83-1.59l1.05-.34Z"/><path class="cls-8" d="m27.08,200.8c.04-.52.06-1.15.06-1.71,0-.18,0-.29-.02-.51l1.92.05q-.06.4-.11,1.45c-.01.25-.02.33-.05.71h2.65c.45,0,.58-.02.88-.12l.81.71c-.11.23-.13.35-.14.83-.07,2.48-.28,4.61-.55,5.41-.33.99-.86,1.34-2.07,1.34-.47,0-.76-.02-1.52-.13-.04-.88-.08-1.13-.35-1.81.65.18,1.18.27,1.58.27.57,0,.72-.24.9-1.4.13-.87.23-2.36.23-3.51h-2.57c-.18,1.53-.42,2.39-.94,3.41-.66,1.27-1.75,2.38-3.31,3.39-.51-.77-.7-.99-1.31-1.53,1.57-.82,2.52-1.74,3.13-2.98.3-.61.47-1.18.58-1.93l.06-.35h-1.57c-1.19,0-1.22,0-1.65.07v-1.76c.45.08.75.1,1.68.1h1.7Zm4.75-2.15c.43.57.68.96.95,1.58l-1.07.42c-.28-.63-.54-1.08-.94-1.62l1.06-.39Zm1.43-.51c.41.49.75,1.03.96,1.54l-1.02.45c-.27-.58-.51-.98-.95-1.59l1.01-.4Z"/><path class="cls-8" d="m46.2,201.48c-.27-.02-.4-.04-.78-.05-.07,1.19-.13,1.63-.3,2.36-.22.89-.48,1.57-.92,2.3.71.75,1.3,1.17,2.28,1.65-.42.62-.59.94-.83,1.68-1.02-.6-1.72-1.16-2.47-2-.81.84-1.6,1.45-2.69,2.04-.19-.47-.39-.81-.67-1.22-.24.86-.61,1.1-1.71,1.1-.17,0-.43-.01-.77-.04-.02-.59-.07-.9-.27-1.51.29.06.58.1.81.1.36,0,.47-.06.55-.3.14-.45.24-1.64.24-3.17v-.54h-.93c-.13,1.37-.23,2.08-.42,2.86-.29,1.16-.65,1.93-1.28,2.76-.37-.66-.69-1.06-1.11-1.42.7-.92,1.01-1.75,1.23-3.3.14-.95.18-1.76.2-3.41h-.12c-.55,0-.8.01-1.1.06v-1.53c.36.06.66.07,1.27.07h.71v-.64c0-.46-.01-.7-.07-1.04h1.7c-.06.33-.07.55-.07,1.04v.64h.58c.54,0,.82-.01,1.17-.06v1.51c-.47-.04-.76-.05-1.12-.05h-1.42q-.04.93-.05,1.12h1.29c.45,0,.64,0,.84-.02.53-.75.87-1.46,1.19-2.54.22-.75.33-1.24.34-1.74l1.65.28c-.05.14-.05.17-.13.53s-.17.67-.28,1.05h2.1c.52,0,1.02-.02,1.36-.07v1.52Zm-4.01,4.61c-.47-.77-.78-1.48-1.1-2.47-.19.27-.23.31-.46.6-.17-.31-.23-.4-.52-.72-.01,2.48-.06,3.44-.2,4.32.82-.39,1.59-.96,2.28-1.72Zm.07-4.65c-.08.21-.12.3-.22.51.23,1.1.53,1.86,1.11,2.81.45-.88.65-1.76.76-3.31h-1.65Z"/><path class="cls-8" d="m49.71,204.38h-1.27c-.63,0-.81.01-1.15.05v-1.41c.33.05.53.06,1.15.06h3.5c.42,0,.66-.01.95-.06v1.41c-.33-.04-.53-.05-1.1-.05h-.66v.81h.57c.4,0,.68-.01.96-.04v1.36c-.27-.04-.54-.05-.98-.05h-.55v1.11c.46.13.92.19,1.8.24-.24-.3-.35-.42-.65-.7.77-.28,1.29-.58,1.72-1.02-.39,0-.54.01-.82.04.02-.28.04-.59.04-.96v-3.64c0-.4-.01-.66-.04-.98.29.04.43.04.99.04h.46c.13-.28.19-.46.27-.65h-.88c-.43,0-.83.01-1.18.05v-1.36c.36.05.75.06,1.33.06h2.94c.66,0,1.04-.02,1.33-.07v1.39c-.33-.04-.75-.06-1.17-.06h-.9c-.07.19-.17.42-.28.65h.93c.52,0,.69-.01.98-.04-.02.26-.04.54-.04.99v3.46c0,.42.01.79.05,1.13-.29-.02-.51-.04-.98-.04h-.08c.47.39.98.65,1.7.89-.25.28-.35.41-.57.74.24-.02.34-.04.62-.06-.23.59-.33.94-.41,1.58-.35.02-2.37.06-3.07.06-2.21,0-3.41-.08-4.22-.3-.82-.23-1.51-.68-2.06-1.35-.21.77-.4,1.24-.72,1.78-.46-.53-.49-.55-1.15-1.01.35-.51.58-1.07.72-1.77.1-.41.16-1.11.16-1.63,0-.1-.01-.18-.02-.33l1.35.19c-.02.17-.02.19-.02.4-.01.25-.02.45-.06.88.16.23.27.35.54.61v-2.4Zm-1.86-4.75c0-.45-.01-.74-.05-1.03.24.02.49.04,1.05.04h2.58c.6,0,.8-.01,1.06-.04-.02.3-.04.48-.04,1.03v2.08c0,.54.01.75.04,1.01-.33-.02-.64-.04-1.04-.04h-2.6c-.41,0-.72.01-1.04.04.02-.33.04-.47.04-1.02v-2.07Zm1.41.58h1.81v-.48h-1.81v.48Zm0,1.47h1.81v-.51h-1.81v.51Zm6.04,4.95c-.46.54-.8.84-1.39,1.22h.72c.63,0,1.49-.02,2.47-.06-.6-.35-.9-.59-1.47-1.17l.76-.53h-1.96l.87.54Zm-.7-4.52h1.95v-.46h-1.95v.46Zm0,1.45h1.95v-.46h-1.95v.46Zm0,1.43h1.95v-.47h-1.95v.47Z"/><path class="cls-8" d="m67.16,199.6c.14,0,.29,0,.52-.02.05-.7.63-1.24,1.33-1.24.75,0,1.34.6,1.34,1.34s-.59,1.34-1.33,1.34h-.05l-.05.17c-.51,2.02-1.28,3.59-2.39,4.88-1.11,1.3-2.47,2.24-4.54,3.17-.4-.77-.59-1.04-1.28-1.72,1.05-.33,1.71-.64,2.59-1.19,1.86-1.18,3.04-2.83,3.59-5.03h-5.28c-.99,0-1.37.01-1.87.07v-1.84c.52.07.89.08,1.89.08h5.52Zm1.25.07c0,.33.27.59.59.59s.59-.27.59-.59-.27-.59-.59-.59-.59.26-.59.59Z"/><path class="cls-8" d="m71.11,201.83c.52.07.75.08,1.82.08h5.81c.7,0,.82-.01,1.17-.12l.81.89c-.13.22-.18.34-.34.76-.61,1.77-1.54,3.16-2.74,4.12-.82.66-1.64,1.08-3.29,1.74-.33-.71-.49-.96-1.13-1.67,1.46-.37,2.37-.8,3.27-1.5.88-.7,1.42-1.45,1.9-2.62h-5.48c-.99,0-1.35.01-1.8.06v-1.75Zm1.01-2.96c.43.07.83.1,1.66.1h3.95c.98,0,1.21-.01,1.64-.1v1.75c-.41-.05-.59-.06-1.62-.06h-4.01c-.77,0-1.25.02-1.63.06v-1.75Z"/><path class="cls-8" d="m90.15,209.1c-1.02-1.28-2.23-2.46-3.58-3.51-1.07,1.28-2.66,2.47-4.5,3.36-.4-.76-.57-.99-1.16-1.6,1.06-.42,1.77-.81,2.68-1.47,1.33-.96,2.39-2.13,3.16-3.48.16-.26.36-.7.64-1.31l-3.52.06c-1,.02-1.23.04-1.69.11l-.02-1.83c.39.06.72.07,1.47.07h.23l4.11-.07c.66,0,.72-.01,1.01-.14l.93.96c-.16.17-.25.33-.4.67-.58,1.35-1.12,2.33-1.82,3.28,1.55,1.11,1.86,1.37,3.92,3.34l-1.46,1.57Z"/><polyline class="cls-5" points="61.93 168.59 51.8 146.3 41.66 168.59"/><circle class="cls-9" cx="51.8" cy="137.56" r="4.46"/><path class="cls-6" d="m41.35,148.12c-5.83-5.83-5.83-15.27,0-21.1"/><path class="cls-6" d="m62.45,127.02c5.83,5.83,5.83,15.27,0,21.1"/><path class="cls-6" d="m45.48,143.88c-3.49-3.49-3.49-9.15,0-12.64"/><path class="cls-6" d="m58.12,131.24c3.34,3.34,3.48,8.66.43,12.17"/><line class="cls-5" x1="47.77" y1="156.25" x2="56.03" y2="156.25"/><line class="cls-5" x1="45.63" y1="162.27" x2="58.17" y2="162.27"/></svg>