<?xml version="1.0" encoding="utf-8"?>
<!-- Generator: Adobe Illustrator 25.4.1, SVG Export Plug-In . SVG Version: 6.00 Build 0)  -->
<svg version="1.1" id="レイヤー_1" xmlns="http://www.w3.org/2000/svg" xmlns:xlink="http://www.w3.org/1999/xlink" x="0px"
	 y="0px" width="604px" height="260px" viewBox="0 0 604 260" style="enable-background:new 0 0 604 260;" xml:space="preserve">
<style type="text/css">
	.st0{fill:#F2A638;}
	.st1{fill:#FFE2CC;}
	.st2{fill:#CCCCCC;}
	.st3{fill:#FFFFFF;}
	.st4{fill:#313131;}
	.st5{fill:none;stroke:#313131;stroke-width:2.9855;}
	.st6{fill:#35318F;}
	.st7{fill:#3A3A3A;}
	.st8{fill:#313131;stroke:#313131;stroke-width:1.0952;stroke-miterlimit:10;}
	.st9{fill:#C1272D;}
</style>
<g>
	<g>
		<path class="st0" d="M88.7,156.7c-2.9,4.6-10.8,6.8-17.7,2.8c-7-3.9-55.5-32.9-55.5-32.9c-4.6-2.9,7.5-22.2,12.2-19.3l55.3,34.8
			L88.7,156.7z"/>
		<path class="st0" d="M138.8,192.5c0,0-6.2-51.6-19-66.6s-69.2-3.3-66.6,9.4c6.4,31.1,37.4,48.7,41.6,51.5S138.8,192.5,138.8,192.5
			z"/>
		<g>
			
				<ellipse transform="matrix(0.6792 -0.7339 0.7339 0.6792 -76.5862 45.1295)" class="st1" cx="13.3" cy="110.2" rx="11.5" ry="13.1"/>
			<path class="st1" d="M15.5,111.8l-0.2,0.1c-2.2,0.9-4.8-0.1-5.7-2.3L2.1,91.9c-0.9-2.2,0.1-4.8,2.3-5.7l0.2-0.1
				c2.2-0.9,4.8,0.1,5.7,2.3l7.5,17.7C18.7,108.3,17.7,110.9,15.5,111.8z"/>
		</g>
	</g>
	<g>
		<path class="st2" d="M490.3,181c-2.1-11.7,19.4-38.7,19.4-38.7s37.3,8.8,35,16c-4.3,13.4-11.4,18.6-23.7,24.6
			C506.8,189.8,490.3,181,490.3,181z"/>
		<g>
			<path class="st2" d="M564.8,134.7l6.6-17.2c0.3-0.8-0.3-1.7-1.2-1.7l-24.2,0.4L564.8,134.7z"/>
			<polygon class="st3" points="561.2,131.1 564.9,121.2 551.2,121.4 			"/>
			<path class="st2" d="M516.3,112.3l9-16.1c0.4-0.8,1.5-0.9,2.1-0.2l15.2,18.8L516.3,112.3z"/>
			<polygon class="st3" points="521.6,112.5 526.8,103.2 535.4,113.9 			"/>
			<path class="st2" d="M508.3,122.2c-6.8,14.7,1.1,29.4,16,36.3c15,7,31.3,3.6,38.1-11.1c6.8-14.7-1.1-29.2-16.1-36.2
				C531.5,104.3,515.2,107.5,508.3,122.2z"/>
			<g>
				<circle class="st4" cx="543.9" cy="132.8" r="3.3"/>
				<circle class="st4" cx="533.9" cy="132.1" r="2.8"/>
				<circle class="st4" cx="527.3" cy="124.9" r="3.3"/>
			</g>
			<path class="st5" d="M538.9,139.7c-3.6,0.7-7.6-2.4-4.7-7c-4,6.1-8.1,2-8.7-1"/>
		</g>
	</g>
	<path class="st3" d="M519.2,129.5c0,86.4-51.8,129.6-215.7,129.6S89.2,215.9,89.2,129.5S139.6,0,303.5,0S519.2,43.1,519.2,129.5z"
		/>
	<g>
		<path class="st2" d="M524.2,159.2c1.6,0.2,3.2-0.2,4.6-1.2c2.9-2.1,2.6-5.4,0.4-8.4c0,0-10.1-16-11.8-17.8
			c-2.7-2.9-5.9-4.7-8.9-2.5c-2.9,2.1-4,6.9-1.8,9.9l12.9,18.1C520.8,158.8,522.5,159,524.2,159.2z"/>
	</g>
	<g>
		<g>
			<path class="st6" d="M25.8,104.6c4.3,17.3,14.5,24.6,21.1,25.7c6.6,1.1,28.5-6.4,28.5-6.4s18.4,2.3,21.4-3.6
				c7.3-0.7,16.2-18.2,14.9-32c-2.8-30-18.5-45.4-45.4-44.5c-8.1,0.8-22.6,4-26.7,16.4C24.4,66.6,22.3,91.4,25.8,104.6z"/>
		</g>
		<path class="st6" d="M59.3,135.4c-1.1,5.2-2.1,12.2-3.7,12.9c-2.4,2-10-2.3-14.1-11.9c-7.2-18.6,3.1-21.5,6.8-16.2
			C55.9,129.9,60.3,128.4,59.3,135.4z"/>
		<g>
			<path class="st1" d="M36.2,92.6c2.3,24.4,20.7,42.7,41.3,40.8s33.3-23.1,31-47.5s-18.1-36-38.6-34.1S33.9,68.2,36.2,92.6z"/>
			<circle class="st1" cx="40.3" cy="107.3" r="9.6"/>
			<path class="st6" d="M61.4,51.4c-41.2,17-21.7,53.8-20.7,55.2c0.1,0.2,0.3,0.3,0.5,0.2c0.2-0.1,0.4-0.2,0.4-0.4
				c0-3.9,4.7-10.6,10.2-16.7c1.7-2.5-1-7,5.1-16.3c-1.4,5.9-1.1,13.6-0.3,13.2c2.2-1.2,2.9-2,5.5-3c1.4-0.5,9-17.8,9.8-17.1
				c-4.5,10.9-3.5,14.7-2.8,14.5c0.8-0.2,5.4-1.4,10-1.8c0.6-0.2,7.1-10.2,7.3-11.9c1.2,4.3,0,9.7-0.2,11.1
				c16.5-1.8,23.6,8.5,24.5,7.9C111.7,85.6,101.7,34.7,61.4,51.4z"/>
			<g>
				<circle class="st7" cx="88.7" cy="93.9" r="3.8"/>
				<circle class="st7" cx="67.2" cy="97.7" r="3.8"/>
				<path class="st8" d="M86.5,106.4c-1.1,2.3-3,4-5.6,4.6c-2.5,0.6-5.8,0.3-7.8-2.2c-0.2-0.3,0-0.7,0.3-0.7c0,0,2.8,1.7,6.1,1.3
					c3.3-0.4,6.5-3.6,6.5-3.6C86.4,105.6,86.7,106,86.5,106.4z"/>
			</g>
		</g>
	</g>
	<g>
		<g>
			<g>
				<path class="st4" d="M200.1,56.3v19.3c0,0.8-0.1,1.4-0.4,1.8c-0.4,0.5-1.2,0.7-2.5,0.7c-1.6,0-3.1-0.1-4.7-0.2l-0.5-2.6
					c1.9,0.2,3.5,0.3,4.7,0.3c0.4,0,0.6-0.1,0.7-0.2c0-0.1,0.1-0.2,0.1-0.4v-4.9h-10.3c-0.1,1.3-0.3,2.4-0.6,3.6
					c-0.5,1.7-1.5,3.3-2.9,4.8l-2.1-2c1.3-1.5,2.2-3,2.6-4.6c0.3-1,0.4-2.2,0.4-3.4v-12H200.1z M187.2,58.6v3.4h10.3v-3.4H187.2z
					 M187.2,64.2v3.6h10.3v-3.6H187.2z"/>
				<path class="st4" d="M214.6,61.8l1,0.9c-0.7,1.3-1.5,2.6-2.5,3.7c1.5,1,2.9,1.9,4.1,2.8l-1.4,1.8l-0.5-0.4v6.4h-5.7v1.3h-2.3V71
					c-0.2,0.1-0.6,0.3-1.3,0.7l-1.1-1.9c1.8-0.7,3.4-1.8,5.1-3.1c-0.8-0.5-1.4-0.9-1.9-1.2c-0.6,0.6-1.1,1-1.6,1.4l-1.4-1.5
					c1.9-1.4,3.3-3.3,4.4-5.6l2.1,0.6c-0.3,0.5-0.5,0.9-0.7,1.2h3.6v-2h-7v2.6h-2.1v-4.5h4.5v-2.2h2.4v2.2h4.2v-1.2h11.3v2.1h-4.7
					c-0.2,0.8-0.5,1.5-0.7,2.1h4.4v12.7h-9.4V60.7h2.8c0.2-0.6,0.3-1.3,0.5-2.1h-4.1v3.2H214.6z M208.4,70.2h6.3
					c-0.1,0-0.1-0.1-0.2-0.1c-0.7-0.6-1.7-1.3-3-2.2C210.6,68.7,209.6,69.5,208.4,70.2z M209.6,63.5c-0.1,0.2-0.3,0.4-0.4,0.6
					c0.8,0.4,1.5,0.9,2.1,1.3c0.5-0.6,1-1.2,1.4-1.8H209.6z M212.9,72h-3.5v3.1h3.5V72z M215.4,76.9c1.5-0.9,2.8-2,3.9-3.4l1.9,1.2
					c-1.3,1.6-2.7,2.9-4.2,3.8L215.4,76.9z M219.6,62.5v1.8h4.9v-1.8H219.6z M219.6,66.1v1.8h4.9v-1.8H219.6z M219.6,69.6v1.9h4.9
					v-1.9H219.6z M226.2,78.4c-1.1-1.4-2.3-2.6-3.5-3.6l1.7-1.3c1.4,1,2.7,2,3.8,3.2L226.2,78.4z"/>
				<path class="st4" d="M233.7,70.5c-0.8,1.9-1.9,3.5-3,4.9l-1.4-2.4c1.8-1.8,3.2-4.1,4.3-6.7h-3.8v-2.3h4v-8.4h2.5v8.4h3.3v2.3
					h-3.3v1.5c1.4,1.3,2.5,2.4,3.4,3.5l-1.4,2.5c-0.7-1.1-1.3-2.1-2-3v7.6h-2.5V70.5z M230.8,63c-0.5-2.5-0.9-4.3-1.3-5.3l2.3-0.7
					c0.5,1.3,0.9,3.1,1.3,5.4L230.8,63z M236.5,62.4c0.7-2,1.1-3.8,1.4-5.6l2.3,0.6c-0.3,1.8-0.9,3.6-1.7,5.6L236.5,62.4z M249.4,71
					v7.3h-2.6v-6.8l-6.8,1.3l-0.4-2.3l7.2-1.4V55.5h2.6v13.2l2.8-0.5l0.2,2.3L249.4,71z M243.9,68.2c-1.2-1.4-2.5-2.6-3.9-3.6
					l1.5-1.7c1.4,1,2.7,2.2,4,3.5L243.9,68.2z M244.4,62.7c-1.1-1.3-2.4-2.5-4-3.7l1.6-1.8c1.5,1,2.8,2.2,4,3.5L244.4,62.7z"/>
				<path class="st4" d="M266.6,64.2v2.7h8.9v2.2h-8.9v6h4.3l-1.9-0.8c0.8-1.4,1.5-3,2.2-4.8l2.6,0.9c-0.8,1.9-1.6,3.4-2.5,4.7h5
					v2.3h-21.6v-2.3h4.4c-0.5-1.5-1.1-3.1-2-4.5l2.3-0.9c0.8,1.3,1.5,2.8,2.2,4.6l-2.4,0.8h4.8v-6h-8.7v-2.2h8.7v-2.7h-4.7V63
					c-1.1,0.7-2.5,1.4-4.2,2.2l-1.4-2.1c2.5-1,4.6-2.1,6.3-3.4c1.4-1.1,2.7-2.5,3.9-4.1h2.9c1.5,1.9,3.3,3.5,5.6,4.8
					c1.4,0.8,3,1.5,4.8,2.1l-1.5,2.3c-1.5-0.6-2.9-1.3-4.3-2.1v1.6H266.6z M270.3,62c-2-1.4-3.7-2.9-5-4.5c-1.2,1.7-2.7,3.2-4.5,4.5
					H270.3z"/>
				<path class="st4" d="M283.1,61v17.3h-2.4v-12c-0.5,0.9-1,1.8-1.7,2.8l-1.1-2.7c1.1-1.6,2-3.6,2.8-6c0.5-1.4,1-3.1,1.5-5.1
					l2.5,0.6C284.2,58,283.6,59.7,283.1,61z M287.1,75h14.4v2.1h-14.4v1.2h-2.4V63.5h2.4V75z M293.9,61.4h5.4v12h-10.6v-12h2.7
					l0.2-1.1l0-0.3l0-0.3H285v-2h7c0.1-0.5,0.2-1.3,0.3-2.3l2.6,0.2c0,0.3-0.1,1-0.3,2.1h6.4v2h-6.8c0,0.1,0,0.1,0,0.2
					C294.1,60.4,294,60.9,293.9,61.4z M296.9,63.3H291v1.6h5.9V63.3z M291,66.6v1.6h5.9v-1.6H291z M291,69.8v1.7h5.9v-1.7H291z"/>
				<path class="st4" d="M316.3,67.3c-0.1,4.5-0.4,7.4-0.9,8.7c-0.3,0.9-0.9,1.5-1.7,1.7c-0.4,0.1-1,0.2-1.9,0.2
					c-1.4,0-2.9-0.1-4.5-0.2l-0.5-2.6c1.8,0.2,3.3,0.4,4.5,0.4c0.6,0,1-0.1,1.2-0.4c0.4-0.5,0.7-2.4,0.9-5.5h-6.7
					c-0.1,0.4-0.2,1-0.4,1.7l-2.6-0.4c0.6-2.8,1.1-5.8,1.4-8.8h8v-2.9h-8.8v-2.3h11.4v7.3h-8.2l0,0.2c-0.1,0.9-0.2,1.9-0.4,3H316.3z
					 M320.8,56.2h2.6V78h-2.6V56.2z"/>
				<path class="st4" d="M329.2,58.7h7.1c-0.3-0.7-0.5-1.6-0.8-2.6l2.6-0.1c0.3,1,0.6,1.9,0.9,2.7h8.2V61h-7.3
					c0.4,1.1,0.9,2.2,1.5,3.4h7.4v2.3h-6.2c0.8,1.4,1.6,2.7,2.5,3.8l-2.6,0.8c-0.9-1.3-1.8-2.8-2.7-4.6h-10.8v-2.3h9.7
					c-0.5-1-0.9-2.1-1.4-3.4h-7.9V58.7z M344.8,77.1c-1.5,0.1-2.9,0.2-4.2,0.2c-3.4,0-5.8-0.3-7.3-0.9c-2.1-0.9-3.2-2.3-3.2-4.2
					c0-1.1,0.3-1.9,0.9-2.6l2.1,1.1c-0.2,0.5-0.4,1-0.4,1.5c0,1,0.7,1.7,2,2.1c1.2,0.4,3,0.6,5.5,0.6c1.2,0,2.7-0.1,4.4-0.2
					L344.8,77.1z"/>
				<path class="st4" d="M355,60.3h1v-4.8h2.4v4.8h2v2.3h-2v4c0.9-0.3,1.7-0.6,2.3-0.8l0.1,1.8h8.2v-2.5H360v-2.2h6v-2.7h-4.9v-2.1
					h4.9v-2.6h2.5v2.6h5v2.1h-5v2.7h6.3v2.2h-3.2v2.5h2.7v2.2h-2.7v6.3c0,0.9-0.2,1.5-0.7,1.8c-0.4,0.3-1,0.4-1.9,0.4
					c-1.1,0-2,0-2.8-0.1l-0.5-2.3c1.1,0.1,2,0.2,2.6,0.2c0.4,0,0.6-0.1,0.7-0.2c0.1-0.1,0.1-0.3,0.1-0.5v-5.4h-8.7v-1.7
					c-0.7,0.3-1.4,0.6-2,0.8v9.4H356v-8.5c-1.2,0.4-2.5,0.8-3.7,1.1l-0.6-2.4c1.6-0.4,3.1-0.8,4.3-1.1v-4.8h-1.3
					c-0.2,1.3-0.6,2.6-1,3.9l-2.1-1.3c0.8-2.2,1.3-4.8,1.5-7.9l2.1,0.2C355.2,58.7,355.1,59.6,355,60.3z M364.4,75.3
					c-0.8-1.6-1.6-3-2.4-4.2l2.2-1.2c1,1.3,1.8,2.6,2.5,4.1L364.4,75.3z"/>
				<path class="st4" d="M383.9,58.6v-3.1h2.4v3.1h3v-3.1h2.4v3.1h5.5v11.5h2.1v2.2h-22.8v-2.2h2.1V58.6H383.9z M376.4,76.4
					c2.7-0.8,5-2.1,7.1-3.8l2,1.4c-2.2,1.9-4.7,3.4-7.3,4.5L376.4,76.4z M380.9,60.6v3.5h3v-3.5H380.9z M380.9,66.2v3.9h3v-3.9
					H380.9z M386.2,60.6v3.5h3v-3.5H386.2z M386.2,66.2v3.9h3v-3.9H386.2z M397,78.3c-2.2-1.6-4.6-3-7.3-4.2l1.9-1.5
					c2.7,1.1,5.1,2.3,7.3,3.8L397,78.3z M394.7,64.2v-3.5h-3.1v3.5H394.7z M394.7,70.1v-3.9h-3.1v3.9H394.7z"/>
				<path class="st4" d="M194,113.1c1.7,2.5,4.8,4,9.3,4.7l-1.6,2.4c-2.7-0.6-4.9-1.5-6.4-2.7c-1.3-1-2.3-2-3.1-3.2
					c-0.8,1.6-1.9,2.9-3.5,3.8c-1.6,0.9-3.7,1.7-6.3,2.2l-1.5-2.2c2.8-0.4,5-1,6.4-1.9c1.3-0.8,2.3-1.8,2.8-3.1h-9.6v-2.1h10v-2h2.6
					v2h10.2v2.1H194z M185.5,99.7v-2.2h2.4v2.2h3.8v1.9h-3.8v1.7h3.3v1.8h-3.3v1.8c1.4-0.2,2.8-0.4,4-0.6v1.7
					c-3.3,0.8-6.7,1.4-10.4,1.8l-0.6-2c2.2-0.2,3.7-0.4,4.6-0.5V105h-3.3v-1.8h3.3v-1.7h-4v-1.9H185.5z M197.4,101
					c-0.3,3.7-1.6,6.4-3.9,8.2l-1.5-1.7c1.1-0.8,1.9-2,2.4-3.4c0.3-0.8,0.5-1.8,0.6-3.1h-2.6v-2.1h9.7c0,4.6-0.2,7.4-0.4,8.6
					c-0.2,0.7-0.5,1.2-1,1.5c-0.4,0.2-0.9,0.3-1.7,0.3c-0.6,0-1.4-0.1-2.4-0.2l-0.4-2.3c0.9,0.2,1.6,0.3,2.1,0.3
					c0.5,0,0.8-0.1,0.9-0.4c0.2-0.4,0.4-2.4,0.5-5.8H197.4z"/>
				<path class="st4" d="M208.5,106.3c-1-1.4-2.1-2.7-3.4-3.9l1.4-1.7c0.2,0.2,0.3,0.3,0.5,0.5l0.2,0.2c0.8-1.2,1.6-2.5,2.4-3.9
					l2.1,1.2c-0.9,1.4-1.9,2.8-3.1,4.3c0.6,0.8,1.1,1.4,1.4,1.8c1.2-1.5,2.3-3,3.4-4.5l1.9,1.3c-1.8,2.4-3.6,4.6-5.5,6.5
					c1.6-0.1,2.8-0.2,3.6-0.3c-0.2-0.6-0.4-1.2-0.8-1.9l1.9-0.6c0.7,1.5,1.4,3.1,1.9,4.9l-2,0.9c-0.1-0.5-0.2-1-0.4-1.6
					c-0.4,0.1-1,0.2-1.8,0.3l-0.3,0v10.6h-2.3V110c-1,0.1-2.3,0.2-3.8,0.3l-0.5-2.2l0.8,0c0.4,0,0.7,0,1.1,0
					C207.4,107.5,207.9,107,208.5,106.3z M205.1,117.6c0.5-1.8,0.9-3.9,1-6.1l2.2,0.3c-0.1,2.7-0.4,5-1,6.9L205.1,117.6z
					 M213.5,117.2c-0.3-2-0.7-3.8-1.2-5.5l2-0.5c0.7,1.6,1.1,3.3,1.5,5.1L213.5,117.2z M227.1,101.1v1.5v0.2c0,7.6-0.3,12.5-1,14.9
					c-0.2,0.9-0.6,1.5-1.2,1.9c-0.5,0.3-1.2,0.5-2,0.5c-1.1,0-2.3-0.1-3.6-0.2l-0.5-2.6c1.3,0.2,2.4,0.4,3.5,0.4
					c0.5,0,0.9-0.1,1-0.3c0.7-0.7,1.1-5.1,1.3-13.1l0-0.8h-6c-0.6,1.4-1.3,2.7-2.2,3.8l-1.8-1.6c1.5-2.1,2.5-4.8,3.1-8.2l2.5,0.4
					c-0.3,1.3-0.6,2.4-0.8,3.3H227.1z M220.4,113.5c-0.9-2.3-2-4.4-3.2-6.2l2-1.3c1.4,2,2.6,4,3.4,6L220.4,113.5z"/>
				<path class="st4" d="M237.8,103h2.8v15.2c0,0.6-0.1,1.1-0.4,1.4c-0.3,0.4-0.9,0.5-1.7,0.5c-0.9,0-1.8-0.1-2.8-0.2l-0.4-2.2
					c1,0.1,1.8,0.2,2.5,0.2c0.3,0,0.5-0.1,0.6-0.2c0.1-0.1,0.1-0.2,0.1-0.5v-3.7h-5.2c-0.2,2.7-0.9,5-2.1,6.7l-1.9-1.6
					c0.8-1.2,1.3-2.3,1.5-3.4c0.2-1,0.4-2.1,0.4-3.4v-7.2c-0.2,0.2-0.5,0.5-0.8,0.8l-1.2-2c1.9-1.7,3.3-3.7,4.1-6.1l1.7,0.9h3.8l1,1
					C239.1,100.7,238.5,101.9,237.8,103z M235.4,103c0.6-0.9,1.1-1.8,1.4-2.5h-2.6c-0.5,0.9-1,1.7-1.6,2.5H235.4z M234.9,104.9h-1.7
					v2.4h1.7V104.9z M233.3,111.8h1.7v-2.5h-1.7V111.8z M236.8,104.9v2.4h1.7v-2.4H236.8z M236.8,111.8h1.7v-2.5h-1.7V111.8z
					 M245.8,109.3v-1.9h2.4v1.9h3.4v2h-3.4v2.3h4.1v2.2h-4.1v4.5h-2.4v-4.5h-4.6v-2.2h4.6v-2.3h-2c0,0,0,0.1-0.1,0.2
					c-0.2,0.6-0.5,1.3-0.9,1.9l-1.9-1.3c0.7-1.4,1.3-3,1.5-4.8l2.1,0.3c-0.1,0.6-0.2,1.2-0.2,1.6H245.8z M246.6,100.6
					c-0.1,1-0.3,1.8-0.6,2.5c-0.6,1.6-1.8,2.9-3.6,3.9l-1.5-1.6c1.1-0.6,1.9-1.3,2.4-2.1c0.4-0.7,0.7-1.6,0.9-2.8h-3.1v-2h10.4
					c0,3.5-0.2,5.7-0.5,6.7c-0.2,0.6-0.5,0.9-0.9,1.1c-0.3,0.1-0.7,0.2-1.3,0.2c-0.7,0-1.5,0-2.5-0.1l-0.4-2.1
					c0.8,0.2,1.5,0.2,2,0.2c0.4,0,0.6-0.1,0.7-0.2c0.2-0.3,0.3-1.6,0.4-3.8H246.6z"/>
				<path class="st4" d="M259.6,106c1.2,1.6,1.8,3.6,1.8,5.8c0,1.4-0.2,2.4-0.6,2.9c-0.4,0.5-1.1,0.7-2.1,0.7c-0.4,0-0.8,0-1.2-0.1
					L257,113c0.5,0.1,0.9,0.1,1.3,0.1c0.4,0,0.7-0.1,0.7-0.3c0.1-0.2,0.1-0.7,0.1-1.4c0-2-0.6-3.7-1.7-5.1c0.9-2,1.5-3.9,1.9-5.6
					h-2.4v19.7h-2.4V98.4h6.1l1.2,1C261.1,102.3,260.3,104.5,259.6,106z M260.4,117.4c1.3-1.4,2.3-3.2,3-5.2l2.1,1
					c-0.9,2.6-2,4.5-3.2,5.9L260.4,117.4z M264.5,105.3c-0.8,0.7-1.5,1.3-2.4,1.8l-1.4-2c2.9-1.6,5.1-4.1,6.7-7.4h2.7
					c0.9,1.6,2,3,3.1,4c1,0.9,2.3,1.8,3.9,2.8l-1.2,2.3c-0.9-0.6-1.8-1.1-2.5-1.7v1.6h-3.2v2.6h6.4v2.2h-6.4v7
					c0,0.6-0.1,1.1-0.4,1.4c-0.3,0.4-0.9,0.6-1.8,0.6c-0.9,0-1.9-0.1-2.8-0.2l-0.4-2.4c1,0.1,1.8,0.2,2.4,0.2c0.3,0,0.5-0.1,0.5-0.2
					c0-0.1,0.1-0.3,0.1-0.5v-6h-6.2v-2.2h6.2v-2.6h-3.3V105.3z M265.5,104.3h7.2c-1.7-1.5-2.9-3-3.8-4.4
					C268,101.6,266.8,103.1,265.5,104.3z M274.9,118.5c-1-2.3-2-4.1-2.9-5.4l2-1.1c1.2,1.5,2.2,3.2,3,5.1L274.9,118.5z"/>
				<path class="st4" d="M282.6,112.5c-0.8,1.9-1.9,3.5-3,4.9l-1.4-2.4c1.8-1.8,3.2-4.1,4.3-6.7h-3.8v-2.3h4v-8.4h2.5v8.4h3.3v2.3
					h-3.3v1.5c1.4,1.3,2.5,2.4,3.4,3.5l-1.4,2.5c-0.7-1.1-1.3-2.1-2-3v7.6h-2.5V112.5z M279.8,105c-0.5-2.5-0.9-4.3-1.3-5.3l2.3-0.7
					c0.5,1.3,0.9,3.1,1.3,5.4L279.8,105z M285.4,104.4c0.7-2,1.1-3.8,1.4-5.6l2.3,0.6c-0.3,1.8-0.9,3.6-1.7,5.6L285.4,104.4z
					 M298.3,113v7.3h-2.6v-6.8l-6.8,1.3l-0.4-2.3l7.2-1.4V97.5h2.6v13.2l2.8-0.5l0.2,2.3L298.3,113z M292.9,110.2
					c-1.2-1.4-2.5-2.6-3.9-3.6l1.5-1.7c1.4,1,2.7,2.2,4,3.5L292.9,110.2z M293.4,104.7c-1.1-1.3-2.4-2.5-4-3.7l1.6-1.8
					c1.5,1,2.8,2.2,4,3.5L293.4,104.7z"/>
				<path class="st4" d="M322.7,119.1c-0.6-0.4-1.6-1.3-3.2-2.5l-0.3-0.2c-1.7,1.8-3.9,2.6-6.6,2.6c-1.6,0-3-0.4-4.1-1.2
					c-1.6-1.1-2.4-2.5-2.4-4.3c0-1.6,0.6-2.9,1.9-4.1c0.7-0.6,1.5-1.1,2.5-1.5c-1.5-1.7-2.2-3.3-2.2-4.6c0-1.4,0.6-2.5,1.7-3.4
					c1-0.8,2.3-1.2,3.7-1.2c1.3,0,2.5,0.4,3.5,1.1c1.3,0.9,1.9,2.1,1.9,3.5c0,2.4-1.4,4.1-4.3,5.3c1,0.9,2.4,2.1,4.2,3.7
					c0.6-0.9,1.1-2.2,1.5-4.1l2.7,1.1c-0.4,1.3-0.9,2.5-1.4,3.6c-0.3,0.5-0.5,0.9-0.7,1.2c1.1,0.9,2.3,1.8,3.5,2.6L322.7,119.1z
					 M312.3,109.8c-0.9,0.4-1.5,0.9-2,1.5c-0.6,0.7-0.9,1.4-0.9,2.1c0,0.9,0.4,1.6,1.1,2.2c0.7,0.5,1.5,0.8,2.4,0.8
					c1.3,0,2.4-0.3,3.4-0.9c0.4-0.2,0.7-0.5,1-0.9C315.1,112.6,313.4,111,312.3,109.8z M313.3,106.9c2-0.9,3-2.1,3-3.5
					c0-0.6-0.2-1-0.6-1.4c-0.5-0.5-1.1-0.7-1.8-0.7c-0.6,0-1.1,0.2-1.5,0.5c-0.6,0.4-0.9,1-0.9,1.7c0,0.6,0.2,1.3,0.7,2
					c0.2,0.3,0.4,0.6,0.7,1C313.1,106.7,313.3,106.9,313.3,106.9z"/>
				<path class="st4" d="M344.2,117.6h6.4c-0.3,0.6-0.6,1.3-0.8,2.2h-9.6c-2.6,0-4.6-0.3-6-1c-0.8-0.4-1.6-1-2.3-1.8l-0.1,0.1
					c-1.1,1.3-2.2,2.4-3.2,3.3l-1.3-2.4c1-0.6,2.1-1.4,3.2-2.3v-6.1h-3v-2.3h5.4v7.8c0.6,0.6,1.3,1.2,2.1,1.6
					c0.5,0.3,1.3,0.5,2.3,0.6c1,0.2,2,0.3,3.1,0.3h1.4v-2.4h-8.1v-1.8h2.8v-1.6h-1.8v-1.7h7.1v-1.3h-6v-4.2h12.1v4.2h-3.6v1.3h4.6
					v1.7h-4.6v1.6h5.5v1.8h-5.5V117.6z M331.4,103.7c-1-1.7-2.1-3.3-3.5-4.7l1.9-1.4c1.2,1.2,2.4,2.7,3.6,4.5L331.4,103.7z
					 M338.4,102c0.2-0.5,0.3-1,0.5-1.4h-3.1v-1.7h3.6c0.1-0.3,0.2-0.8,0.4-1.6l2.4,0.3c-0.1,0.6-0.2,1.1-0.3,1.3h5.3v3.1h2.6v1.7
					H334V102H338.4z M338.1,106.2v1.3h7.4v-1.3H338.1z M341.7,113.4v-1.6h-3v1.6H341.7z M341.3,100.5c-0.1,0.4-0.3,0.9-0.5,1.4h3.9
					v-1.4H341.3z"/>
				<path class="st4" d="M355.3,106.3c-1-1.4-2.1-2.7-3.4-3.9l1.4-1.7c0.2,0.2,0.3,0.3,0.5,0.5l0.2,0.2c0.8-1.2,1.6-2.5,2.4-3.9
					l2.1,1.2c-0.9,1.4-1.9,2.8-3.1,4.3c0.6,0.8,1.1,1.4,1.4,1.8c1.2-1.5,2.3-3,3.4-4.5l1.9,1.3c-1.8,2.4-3.6,4.6-5.5,6.5
					c1.6-0.1,2.8-0.2,3.6-0.3c-0.2-0.6-0.4-1.2-0.8-1.9l1.9-0.6c0.7,1.5,1.4,3.1,1.9,4.9l-2,0.9c-0.1-0.5-0.2-1-0.4-1.6
					c-0.4,0.1-1,0.2-1.8,0.3l-0.3,0v10.6h-2.3V110c-1,0.1-2.3,0.2-3.8,0.3l-0.5-2.2l0.8,0c0.4,0,0.7,0,1.1,0
					C354.3,107.5,354.8,107,355.3,106.3z M352,117.6c0.5-1.8,0.9-3.9,1-6.1l2.2,0.3c-0.1,2.7-0.4,5-1,6.9L352,117.6z M360.4,117.2
					c-0.3-2-0.7-3.8-1.2-5.5l2-0.5c0.7,1.6,1.1,3.3,1.5,5.1L360.4,117.2z M374,101.1v1.5v0.2c0,7.6-0.3,12.5-1,14.9
					c-0.2,0.9-0.6,1.5-1.2,1.9c-0.5,0.3-1.2,0.5-2,0.5c-1.1,0-2.3-0.1-3.6-0.2l-0.5-2.6c1.3,0.2,2.4,0.4,3.5,0.4
					c0.5,0,0.9-0.1,1-0.3c0.7-0.7,1.1-5.1,1.3-13.1l0-0.8h-6c-0.6,1.4-1.3,2.7-2.2,3.8l-1.8-1.6c1.5-2.1,2.5-4.8,3.1-8.2l2.5,0.4
					c-0.3,1.3-0.6,2.4-0.8,3.3H374z M367.3,113.5c-0.9-2.3-2-4.4-3.2-6.2l2-1.3c1.4,2,2.6,4,3.4,6L367.3,113.5z"/>
				<path class="st4" d="M389,106.2v2.7h8.9v2.2H389v6h4.3l-1.9-0.8c0.8-1.4,1.5-3,2.2-4.8l2.6,0.9c-0.8,1.9-1.6,3.4-2.5,4.7h5v2.3
					H377v-2.3h4.4c-0.5-1.5-1.1-3.1-2-4.5l2.3-0.9c0.8,1.3,1.5,2.8,2.2,4.6l-2.4,0.8h4.8v-6h-8.7v-2.2h8.7v-2.7h-4.7V105
					c-1.1,0.7-2.5,1.4-4.2,2.2l-1.4-2.1c2.5-1,4.6-2.1,6.3-3.4c1.4-1.1,2.7-2.5,3.9-4.1h2.9c1.5,1.9,3.3,3.5,5.6,4.8
					c1.4,0.8,3,1.5,4.8,2.1l-1.5,2.3c-1.5-0.6-2.9-1.3-4.3-2.1v1.6H389z M392.7,104c-2-1.4-3.7-2.9-5-4.5c-1.2,1.7-2.7,3.2-4.5,4.5
					H392.7z"/>
				<path class="st4" d="M414.4,103.3h7.1v8.4h-5.2v4.8c0,0.4,0.1,0.7,0.4,0.8c0.3,0.1,0.9,0.2,1.6,0.2c1.3,0,2-0.2,2.3-0.5
					c0.2-0.3,0.3-1.4,0.4-3.2l2.6,0.7c-0.1,2.4-0.4,3.9-0.8,4.4c-0.3,0.4-0.8,0.7-1.6,0.8c-0.7,0.1-1.6,0.2-2.8,0.2
					c-2,0-3.3-0.2-3.8-0.5c-0.5-0.3-0.8-1-0.8-2v-5.7h-2.4c-0.3,2.5-1.1,4.4-2.5,5.8c-1.4,1.3-3.6,2.3-6.5,2.8l-1.4-2.3
					c2.7-0.3,4.7-1.1,5.9-2.2c1.1-1,1.7-2.4,2-4.1h-4.9v-6.5c-0.4,0.3-0.9,0.6-1.5,0.9l-1.5-1.9c3.1-1.5,5.5-3.7,7.2-6.7l2,0.9h6.4
					l1.2,1.1C416.6,101,415.5,102.2,414.4,103.3z M406.3,105.4v4.3h4.9v-4.3H406.3z M411.6,103.3c1-1,1.8-2,2.3-2.8H409
					c-0.8,1-1.7,1.9-2.7,2.8H411.6z M419,109.7v-4.3h-5.2v4.3H419z"/>
				<path class="st4" d="M431,106c1.2,1.6,1.8,3.6,1.8,5.8c0,1.4-0.2,2.4-0.6,2.9c-0.4,0.5-1.1,0.7-2.1,0.7c-0.4,0-0.8,0-1.2-0.1
					l-0.5-2.4c0.5,0.1,0.9,0.1,1.3,0.1c0.4,0,0.7-0.1,0.7-0.3c0.1-0.2,0.1-0.7,0.1-1.4c0-2-0.6-3.7-1.7-5.1c0.9-2,1.5-3.9,1.9-5.6
					h-2.4v19.7h-2.4V98.4h6.1l1.2,1C432.5,102.3,431.7,104.5,431,106z M431.7,117.4c1.3-1.4,2.3-3.2,3-5.2l2.1,1
					c-0.9,2.6-2,4.5-3.2,5.9L431.7,117.4z M435.9,105.3c-0.8,0.7-1.5,1.3-2.4,1.8l-1.4-2c2.9-1.6,5.1-4.1,6.7-7.4h2.7
					c0.9,1.6,2,3,3.1,4c1,0.9,2.3,1.8,3.9,2.8l-1.2,2.3c-0.9-0.6-1.8-1.1-2.5-1.7v1.6h-3.2v2.6h6.4v2.2h-6.4v7
					c0,0.6-0.1,1.1-0.4,1.4c-0.3,0.4-0.9,0.6-1.8,0.6c-0.9,0-1.9-0.1-2.8-0.2l-0.4-2.4c1,0.1,1.8,0.2,2.4,0.2c0.3,0,0.5-0.1,0.5-0.2
					c0-0.1,0.1-0.3,0.1-0.5v-6H433v-2.2h6.2v-2.6h-3.3V105.3z M436.9,104.3h7.2c-1.7-1.5-2.9-3-3.8-4.4
					C439.3,101.6,438.2,103.1,436.9,104.3z M446.2,118.5c-1-2.3-2-4.1-2.9-5.4l2-1.1c1.2,1.5,2.2,3.2,3,5.1L446.2,118.5z"/>
				<path class="st4" d="M193.2,144.5v13.1h10.1v2.5h-22.8v-2.5h10v-13.1h-8.6v-2.4H202v2.4H193.2z"/>
				<path class="st4" d="M215.1,144.2v-1.1h-9.5v-1.9h9.5v-1.7h2.5v1.7h9.6v1.9h-9.6v1.1h7.8v4.8h-7.8v1.2h8.3v3.1h1.9v1.9h-1.9v4.2
					h-2.5v-1h-5.8v1.8c0,0.7-0.1,1.2-0.4,1.6c-0.3,0.4-1,0.6-2.1,0.6c-1.2,0-2.3-0.1-3.3-0.2l-0.4-2.1c1.1,0.1,2.1,0.2,3.1,0.2
					c0.3,0,0.4-0.1,0.5-0.2c0-0.1,0.1-0.2,0.1-0.4v-1.3h-8.2v-1.8h8.2v-1.4H205v-1.9h10.1V152h-8.2v-1.8h8.2v-1.2h-7.6v-4.8H215.1z
					 M215.1,145.8h-5.2v1.6h5.2V145.8z M217.6,145.8v1.6h5.3v-1.6H217.6z M217.6,153.3h5.8V152h-5.8V153.3z M217.6,156.6h5.8v-1.4
					h-5.8V156.6z"/>
				<path class="st4" d="M235.1,154.3c-0.8-0.9-1.7-1.7-2.6-2.4c-0.5,1-1.2,2-1.9,2.9l-1.5-2.1c1.1-1.5,2-3.2,2.6-5.2
					c0.4-1.4,0.8-3,1-4.9h-3.1v-2.3h10.2v2.3h-4.7c-0.1,1-0.3,1.9-0.5,2.9h3.4l1.1,0.9c-0.3,3.7-0.9,6.7-1.9,9
					c-1.2,2.8-3.1,5.2-5.6,6.9l-1.7-2C232.3,159,234,156.9,235.1,154.3z M235.9,151.9c0.3-1.2,0.6-2.6,0.8-4.3h-2.6
					c-0.2,0.8-0.5,1.6-0.8,2.4C234.4,150.7,235.3,151.4,235.9,151.9z M247,155.6c1.1-0.9,2.1-1.8,3.1-2.9l1.7,1.4
					c-1.4,1.3-2.7,2.5-3.9,3.4c0.4,0.7,0.8,1.2,1.1,1.6c0.3,0.3,0.6,0.5,0.8,0.5s0.3-0.2,0.4-0.6c0-0.1,0.2-1,0.4-2.6l1.9,1
					c-0.2,1.5-0.4,2.5-0.5,3.1c-0.4,1.2-1,1.8-1.9,1.8c-0.6,0-1.3-0.3-2-0.9c-0.8-0.7-1.5-1.5-2.1-2.5c-1.9,1.3-3.9,2.4-6.1,3.2
					l-1.3-1.9c2.4-0.8,4.5-1.8,6.3-3l0.2-0.1c-0.5-1.2-1-2.5-1.3-4l-4.3,0.4l-0.2-2.1l4.2-0.4c-0.1-0.6-0.2-1.2-0.2-1.8l-3.2,0.3
					l-0.1-1.9l3.2-0.3c0-0.7-0.1-1.3-0.1-1.8l-3.5,0.3l-0.2-2.1l3.6-0.3l0-0.9c0-0.5,0-1.5,0-3h2.4c0,1.4,0.1,2.6,0.1,3.7l6.2-0.5
					l0.2,2.1l-6.3,0.5l0,0.6l0,0.6l0,0.6l5.4-0.4l0.2,1.9l-5.4,0.4l0.1,0.6l0.1,0.6l0.1,0.6l6.4-0.6l0.2,2l-6.2,0.6
					C246.3,153.8,246.6,154.7,247,155.6z M248.7,143c-1-1.2-2-2.1-2.8-2.7l1.6-1.1c1.1,0.8,2,1.6,2.9,2.6L248.7,143z"/>
				<path class="st4" d="M259.1,145v17.3h-2.4V150c-0.5,0.9-1.1,1.8-1.9,3l-1.1-2.7c1.2-1.7,2.3-3.7,3.1-6c0.5-1.4,1.1-3.1,1.6-5.1
					l2.4,0.6C260.3,141.8,259.7,143.4,259.1,145z M272,158.3c1.2,0.5,2.7,1.1,4.4,2l0.6,0.3l-1.8,1.7c-1.9-1.2-3.8-2.1-5.6-2.9
					l1.3-1.1h-5.7l1.5,1.1c-2,1.4-4,2.4-5.9,3.1l-1.5-1.8c1.9-0.5,3.7-1.3,5.3-2.4h-2.9v-9.5H275v9.5H272z M269.5,140.9h6.7v1.6
					h-6.7v1h5.8v1.6h-5.8v1h7.4v1.7h-17v-1.7h7.1v-1h-5.5v-1.6h5.5v-1h-6.4v-1.6h6.4v-1.4h2.4V140.9z M264.1,150.4v1.1h8.4v-1.1
					H264.1z M264.1,152.9v1.1h8.4v-1.1H264.1z M264.1,155.5v1.2h8.4v-1.2H264.1z"/>
				<path class="st4" d="M289.6,150.8c-0.2,2.5-0.8,4.6-1.7,6.1c-1.3,2.3-3.5,4.1-6.6,5.4l-1.7-2.2c2.2-0.6,3.9-1.7,5.1-3.3
					c1.2-1.4,1.9-3.4,2.1-6.1h-4.1v-1.7c-0.9,0.9-1.8,1.7-2.9,2.5l-1.7-2c3.4-2.4,5.9-5.7,7.3-9.9l2.5,0.9c-1.1,3-2.6,5.6-4.6,7.9
					h13.3c-2.3-2.2-4.3-4.9-5.8-8l2.4-1c2,4,4.7,7,8.1,9.1l-1.6,2.3c-1-0.7-2-1.5-2.7-2.2l0,0.5c-0.1,4.1-0.3,7.3-0.6,9.7
					c-0.2,1.3-0.5,2.1-1.1,2.5c-0.5,0.4-1.4,0.5-2.7,0.5c-1,0-2.1,0-3.6-0.1l-0.5-2.5c1.3,0.2,2.4,0.3,3.5,0.3c0.6,0,1-0.1,1.2-0.3
					s0.4-0.6,0.5-1.4c0.3-1.7,0.5-4.2,0.5-7.3H289.6z"/>
				<path class="st4" d="M307.6,145v17.3h-2.4v-12c-0.5,0.9-1,1.8-1.7,2.8l-1.1-2.7c1.1-1.6,2-3.6,2.8-6c0.5-1.4,1-3.1,1.5-5.1
					l2.5,0.6C308.7,142,308.1,143.7,307.6,145z M311.6,159H326v2.1h-14.4v1.2h-2.4v-14.8h2.4V159z M318.4,145.4h5.4v12h-10.6v-12
					h2.7l0.2-1.1l0-0.3l0-0.3h-6.7v-2h7c0.1-0.5,0.2-1.3,0.3-2.3l2.6,0.2c0,0.3-0.1,1-0.3,2.1h6.4v2h-6.8c0,0.1,0,0.1,0,0.2
					C318.6,144.4,318.5,144.9,318.4,145.4z M321.4,147.3h-5.9v1.6h5.9V147.3z M315.5,150.6v1.6h5.9v-1.6H315.5z M315.5,153.8v1.7
					h5.9v-1.7H315.5z"/>
				<path class="st4" d="M340.7,151.3c-0.1,4.5-0.4,7.4-0.9,8.7c-0.3,0.9-0.9,1.5-1.7,1.7c-0.4,0.1-1,0.2-1.9,0.2
					c-1.4,0-2.9-0.1-4.5-0.2l-0.5-2.6c1.8,0.2,3.3,0.4,4.5,0.4c0.6,0,1-0.1,1.2-0.4c0.4-0.5,0.7-2.4,0.9-5.5h-6.7
					c-0.1,0.4-0.2,1-0.4,1.7l-2.6-0.4c0.6-2.8,1.1-5.8,1.4-8.8h8v-2.9h-8.8v-2.3h11.4v7.3h-8.2l0,0.2c-0.1,0.9-0.2,1.9-0.4,3H340.7z
					 M345.3,140.2h2.6V162h-2.6V140.2z"/>
				<path class="st4" d="M353.7,142.7h7.1c-0.3-0.7-0.5-1.6-0.8-2.6l2.6-0.1c0.3,1,0.6,1.9,0.9,2.7h8.2v2.3h-7.3
					c0.4,1.1,0.9,2.2,1.5,3.4h7.4v2.3h-6.2c0.8,1.4,1.6,2.7,2.5,3.8l-2.6,0.8c-0.9-1.3-1.8-2.8-2.7-4.6h-10.8v-2.3h9.7
					c-0.5-1-0.9-2.1-1.4-3.4h-7.9V142.7z M369.3,161.1c-1.5,0.1-2.9,0.2-4.2,0.2c-3.4,0-5.8-0.3-7.3-0.9c-2.1-0.9-3.2-2.3-3.2-4.2
					c0-1.1,0.3-1.9,0.9-2.6l2.1,1.1c-0.2,0.5-0.4,1-0.4,1.5c0,1,0.7,1.7,2,2.1c1.2,0.4,3,0.6,5.5,0.6c1.2,0,2.7-0.1,4.4-0.2
					L369.3,161.1z"/>
				<path class="st4" d="M193.4,184.8v3.8h8.5v2.3h-8.5v3.2h9.9v2.4h-9.9v5.3c0,0.9-0.3,1.6-0.8,1.9c-0.4,0.3-1.1,0.4-2,0.4
					c-1.5,0-3-0.1-4.5-0.2l-0.5-2.5c1.8,0.2,3.2,0.4,4.1,0.4c0.4,0,0.7-0.1,0.8-0.2c0.1-0.1,0.1-0.3,0.1-0.6v-4.4h-10.2v-2.4h10.2
					v-3.2h-9v-2.3h9v-3.4l-0.6,0.1c-2.2,0.2-4.6,0.4-7,0.6l-1-2.2c6.2-0.3,11.8-0.9,16.9-2.1l1.5,2
					C198.2,184,195.9,184.5,193.4,184.8z"/>
				<path class="st4" d="M208.1,190.2c-0.9-1.3-1.9-2.6-3.2-3.9l1.4-1.7c0.2,0.3,0.5,0.5,0.6,0.7c0.8-1.2,1.5-2.5,2.1-3.9l2.1,1.1
					c-0.7,1.3-1.7,2.7-2.9,4.3c0.4,0.5,0.8,1.1,1.2,1.7c1.5-2.1,2.5-3.5,3-4.4l1.8,1.3c-1.6,2.3-3.3,4.5-5.1,6.5
					c1.4-0.1,2.5-0.2,3.2-0.3c0-0.1-0.1-0.4-0.2-0.7c-0.1-0.2-0.2-0.6-0.4-1l1.7-0.7c0.6,1.1,1.1,2.6,1.4,4.3V191h12.7v4.9h-2.2V193
					H217v3.1h-2.2v-2.1l-1.6,0.8c-0.1-0.6-0.2-1.1-0.4-1.5c-0.4,0.1-0.8,0.1-1.2,0.2c-0.3,0-0.5,0.1-0.6,0.1v10.7h-2.3v-10.4
					c-1.1,0.1-2.2,0.2-3.4,0.3l-0.5-2.2c0.3,0,0.7,0,1,0l0.7,0C207.1,191.5,207.5,190.9,208.1,190.2z M204.9,201.5
					c0.6-1.9,0.9-4,0.9-6.1l2.1,0.3c-0.1,2.8-0.4,5.1-0.9,6.9L204.9,201.5z M212.6,200.3c-0.3-1.8-0.7-3.3-1.1-4.6l1.8-0.5
					c0.5,1.3,0.9,2.7,1.3,4.3L212.6,200.3z M213.1,202.5c2-0.5,3.4-1.4,4-2.7c0.5-0.9,0.7-2.8,0.7-5.5h2.3c0,2.5-0.1,4.3-0.4,5.3
					c-0.3,1.2-1,2.3-2,3.1c-0.7,0.6-1.8,1.2-3,1.7L213.1,202.5z M219.8,183.7v-2.2h2.4v2.2h5.5v2.1h-5.5v1.7h4.8v2h-11.7v-2h4.5
					v-1.7h-5.2v-2.1H219.8z M221.5,194.3h2.3v6.9c0,0.3,0.1,0.5,0.2,0.5c0.1,0,0.3,0.1,0.5,0.1c0.7,0,1.1-0.2,1.2-0.5
					c0.1-0.4,0.2-1.4,0.3-2.9l2.1,0.8c0,2.2-0.3,3.6-0.8,4.1c-0.4,0.5-1.4,0.7-2.9,0.7c-1.3,0-2.1-0.2-2.4-0.6
					c-0.2-0.3-0.3-0.7-0.3-1.3V194.3z"/>
				<path class="st4" d="M231.3,184.7h7.1c-0.3-0.7-0.5-1.6-0.8-2.6l2.6-0.1c0.3,1,0.6,1.9,0.9,2.7h8.2v2.3h-7.3
					c0.4,1.1,0.9,2.2,1.5,3.4h7.4v2.3h-6.2c0.8,1.4,1.6,2.7,2.5,3.8l-2.6,0.8c-0.9-1.3-1.8-2.8-2.7-4.6h-10.8v-2.3h9.7
					c-0.5-1-0.9-2.1-1.4-3.4h-7.9V184.7z M246.9,203.1c-1.5,0.1-2.9,0.2-4.2,0.2c-3.4,0-5.8-0.3-7.3-0.9c-2.1-0.9-3.2-2.3-3.2-4.2
					c0-1.1,0.3-1.9,0.9-2.6l2.1,1.1c-0.2,0.5-0.4,1-0.4,1.5c0,1,0.7,1.7,2,2.1c1.2,0.4,3,0.6,5.5,0.6c1.2,0,2.7-0.1,4.4-0.2
					L246.9,203.1z"/>
				<path class="st4" d="M258.8,183.2c0.6,1.3,1.3,2.8,2.1,4.7c0.8-0.3,1.8-0.6,3-1c0.7-0.2,1.2-0.4,1.5-0.5
					c-0.5-1.3-1.1-2.5-1.7-3.5l2.2-0.8c0.7,1.2,1.4,2.4,1.9,3.8c1-0.2,1.9-0.3,2.6-0.3c1.5,0,2.7,0.4,3.6,1.1
					c0.1,0.1,0.3,0.2,0.4,0.3c1.1,1.1,1.6,2.5,1.6,4c0,2.4-0.9,4.1-2.8,5.1c-1.1,0.6-2.8,1.1-5.2,1.3l-1-2.2
					c2.2-0.2,3.8-0.6,4.8-1.2c0.9-0.6,1.4-1.6,1.4-3.1c0-1-0.3-1.7-0.8-2.3c-0.5-0.6-1.2-0.8-2.2-0.8c-0.4,0-1,0.1-1.7,0.2
					c0.4,1,0.7,2,1.1,3.2l-2.3,1.1c-0.4-1.4-0.8-2.6-1.2-3.7c-1.4,0.4-2.9,0.9-4.4,1.5c1.9,4.6,3.4,8.9,4.6,12.8l-2.4,0.8
					c-1.3-4.2-2.8-8.4-4.6-12.7l-0.4,0.2c-1.8,0.7-3.1,1.2-3.8,1.5l-0.9-2.3l0.3-0.1c1.8-0.7,3.1-1.1,3.9-1.4
					c-0.7-1.7-1.5-3.3-2.1-4.7L258.8,183.2z"/>
				<path class="st4" d="M278.5,185.8h9.8v2.1h-9.8V185.8z M287.8,196.2v6.9h-6.1v1.2h-2.3v-8.1H287.8z M279.9,182.4h7.4v2h-7.4
					V182.4z M279.9,189.4h7.4v1.9h-7.4V189.4z M279.9,192.8h7.4v1.9h-7.4V192.8z M281.7,198.2v2.9h3.8v-2.9H281.7z M296.3,199.1
					c1.5,1.1,3.2,2,5.2,2.8l-1.4,2.3c-2.4-1.1-4.3-2.2-5.6-3.4c-1.8,1.5-3.5,2.6-5.3,3.4l-1.4-2.1c1.7-0.6,3.4-1.5,5-2.9
					c-1.5-1.6-2.6-3.2-3.3-5h-1.2v-2.2h10.5l1.3,1.1C299.1,195.6,297.8,197.5,296.3,199.1z M290,182.3h7.5v5.7c0,0.3,0,0.4,0.1,0.5
					c0.1,0.1,0.3,0.1,0.5,0.1c0.3,0,0.6,0,0.7-0.1c0.1-0.1,0.1-0.3,0.2-0.6c0.1-0.9,0.1-1.6,0.1-2.1l2.2,0.7c0,0.9-0.1,1.8-0.2,2.6
					c-0.1,1-0.6,1.5-1.5,1.7c-0.4,0.1-1,0.1-1.7,0.1c-1.1,0-1.8-0.1-2.2-0.4c-0.3-0.2-0.5-0.7-0.5-1.3v-4.7h-2.9v0.2
					c0,1.6-0.2,2.9-0.5,3.9c-0.4,1.1-1.1,2.1-2.1,2.9l-1.7-1.7c1-0.7,1.6-1.7,1.8-3c0.1-0.6,0.2-1.4,0.2-2.3V182.3z M294.6,197.7
					c1.1-1.2,1.8-2.4,2.3-3.4h-4.9c0.6,1.2,1.5,2.2,2.5,3.2L294.6,197.7z"/>
				<path class="st4" d="M315.6,200.9c1.3,0.2,2.8,0.3,4.3,0.3h6.1c-0.4,0.8-0.7,1.6-0.9,2.5h-5.2c-3.2,0-5.7-0.4-7.5-1.1
					c-1.8-0.7-3.3-1.9-4.4-3.6c-0.9,2.2-2.1,4-3.4,5.5l-1.8-2.2c2.2-2.4,3.6-5.5,4.1-9.3l2.7,0.4c-0.3,1.2-0.5,2.3-0.7,3.1
					c0.9,1.7,2.3,2.9,4.2,3.7v-9.1h-6.5v-1.6H304v-5.4h9v-2.6h2.6v2.6h9.2v5.4h-2.5v1.6h-6.6v3.6h8v2.2h-8V200.9z M306.5,186.3v2.6
					h15.6v-2.6H306.5z"/>
				<path class="st4" d="M329.5,203.2c-0.3-2.6-0.4-5.3-0.4-8.1c0-4.4,0.3-8.7,0.9-12.7l2.6,0.4c-0.6,3.5-0.9,7.2-0.9,11.3
					c0,3,0.1,5.9,0.4,8.8L329.5,203.2z M342.2,182.4h2.6v4.2h4.8v2.3h-4.8v7.2c1.9,0.9,3.7,2,5.5,3.6L349,202
					c-1.5-1.3-2.9-2.4-4.2-3.2c-0.1,1.9-0.8,3.2-2,3.8c-0.7,0.4-1.6,0.5-2.8,0.5c-1.3,0-2.4-0.2-3.3-0.7c-1.4-0.7-2.1-1.9-2.1-3.5
					c0-1.3,0.5-2.3,1.6-3c1-0.7,2.3-1,3.8-1c0.7,0,1.5,0.1,2.3,0.3v-6.3h-7.5v-2.3h7.5V182.4z M342.2,197.6
					c-0.9-0.3-1.7-0.4-2.4-0.4c-0.7,0-1.3,0.1-1.7,0.3c-0.8,0.3-1.1,0.8-1.1,1.6c0,0.6,0.3,1.1,0.8,1.4c0.5,0.3,1.2,0.5,2.1,0.5
					c1.6,0,2.3-0.9,2.3-2.6V197.6z"/>
				<path class="st4" d="M359.2,196.2c1.1,0.6,2.4,1.5,3.8,2.6l-1.3,2.2c-0.9-1-1.7-1.8-2.4-2.4v5.7h-2.4V198
					c-1.1,1.9-2.3,3.6-3.8,4.9l-1.4-2.2c1.7-1.2,3.2-2.8,4.3-4.6h-3.7V194h4.5v-2.3h-4.9v-2.2h2.6c-0.2-1-0.5-2.1-0.9-3.2h-1.3v-2.2
					h4.4v-2.7h2.5v2.7h4.3v2.2h-1.3c-0.3,1.2-0.6,2.3-1.1,3.2h2.7v2.2h-4.7v2.3h4.2v2.1h-4.2V196.2z M355.9,186.3
					c0.3,1,0.6,2.1,0.8,3.2h2.3c0.4-1,0.7-2.1,0.9-3.2H355.9z M366.9,192c0,2.4-0.2,4.7-0.6,6.7c-0.4,2.1-1.1,4.1-2.1,5.8l-1.9-1.8
					c0.9-1.4,1.5-3.1,1.8-5.2c0.3-1.8,0.4-4,0.4-6.7v-7.3c0.2,0,0.4,0,0.7-0.1c2.5-0.2,5-0.8,7.5-1.6l1.5,2
					c-2.1,0.7-4.5,1.2-7.3,1.6v4.1h7.9v2.4h-2.7v12.3h-2.4V192H366.9z"/>
				<path class="st4" d="M380.3,185.4v-3.7h2.4v3.7h3.1v2.1h-3.1v3.3h3.5v2.2h-3.5c0,0.9-0.1,1.6-0.2,2.2c1.3,1,2.6,2.2,3.8,3.6
					l-1.5,2c-0.9-1.2-1.8-2.3-2.8-3.4c-0.7,2.4-2.1,4.5-4.2,6.4l-1.7-1.8c1.6-1.4,2.7-2.9,3.4-4.7c0.4-1.2,0.7-2.6,0.8-4.2h-3.9
					v-2.2h4v-3.3h-3.4v-2.1H380.3z M394.9,196.1v5c0,0.3,0.1,0.4,0.2,0.5c0.1,0,0.3,0.1,0.8,0.1c0.5,0,0.9,0,0.9-0.1
					c0.3-0.1,0.4-1.2,0.5-3.3l2.1,0.6c-0.1,1.7-0.2,2.9-0.4,3.5c-0.2,0.7-0.6,1.1-1.3,1.3c-0.5,0.1-1.3,0.2-2.4,0.2
					c-0.8,0-1.3,0-1.6-0.1c-0.8-0.2-1.2-0.7-1.2-1.6v-6.2h-1.4c-0.1,1.4-0.2,2.5-0.5,3.3c-0.3,1.1-0.9,2-1.8,2.8
					c-1.1,1-2.5,1.7-4,2.1l-1.4-2c2.1-0.4,3.5-1.2,4.3-2.4c0.5-0.8,0.9-2.1,1-3.8h-2v-13.7h10.6v13.7H394.9z M389.2,184.5v2h5.8v-2
					H389.2z M389.2,188.3v2h5.8v-2H389.2z M389.2,192.1v2.1h5.8v-2.1H389.2z"/>
				<path class="st9" d="M406,185.8l-0.8-4c0-0.1,0-0.3,0-0.4c0-0.4,0.1-0.7,0.3-0.9c0.3-0.3,0.6-0.4,1-0.4c0.3,0,0.6,0.1,0.9,0.3
					c0.3,0.2,0.5,0.6,0.5,1c0,0.1,0,0.3,0,0.4l-0.8,4l2.6-3c0.3-0.4,0.7-0.6,1.1-0.6c0.4,0,0.7,0.1,0.9,0.4c0.3,0.3,0.4,0.6,0.4,0.9
					c0,0.5-0.3,1-0.9,1.3l-3.7,1.8l3.7,1.8c0.6,0.3,0.9,0.7,0.9,1.3c0,0.3-0.1,0.6-0.3,0.8c-0.3,0.4-0.6,0.6-1,0.6
					c-0.4,0-0.8-0.2-1.1-0.6l-2.6-3l0.8,4c0,0.1,0,0.3,0,0.4c0,0.4-0.1,0.7-0.3,0.9c-0.3,0.3-0.6,0.4-1,0.4c-0.3,0-0.6-0.1-0.9-0.3
					c-0.3-0.2-0.5-0.6-0.5-1c0-0.2,0-0.3,0-0.4l0.8-4l-2.6,3c-0.3,0.4-0.7,0.6-1.1,0.6c-0.4,0-0.7-0.1-0.9-0.4
					c-0.3-0.3-0.4-0.6-0.4-0.9c0-0.5,0.3-1,0.9-1.3l3.7-1.8l-3.7-1.8c-0.6-0.3-0.9-0.7-0.9-1.3c0-0.3,0.1-0.6,0.3-0.8
					c0.3-0.4,0.6-0.6,1-0.6c0.4,0,0.8,0.2,1.1,0.6L406,185.8z"/>
				<path class="st4" d="M417.5,182h2.6v4.6h7.7v2.3h-7.7v6.3c2.8,1,5.6,2.5,8.4,4.4L427,202c-2.4-1.8-4.7-3.2-6.9-4.2
					c-0.1,2.1-0.6,3.5-1.6,4.4c-0.9,0.7-2.2,1.1-3.8,1.1c-1.4,0-2.6-0.3-3.6-0.8c-1.6-0.8-2.4-2-2.4-3.6c0-1.6,0.8-2.8,2.5-3.6
					c1.1-0.5,2.6-0.8,4.4-0.8c0.6,0,1.2,0,1.9,0.1V182z M417.5,196.9c-0.8-0.2-1.6-0.3-2.4-0.3c-1,0-1.9,0.2-2.6,0.5
					c-0.8,0.4-1.3,0.9-1.3,1.6c0,0.7,0.3,1.3,1,1.7c0.6,0.4,1.3,0.6,2.3,0.6c1.4,0,2.3-0.5,2.7-1.4c0.2-0.5,0.3-1.3,0.3-2.3V196.9z"
					/>
				<path class="st4" d="M439.9,192.2c-0.8,1.5-1.6,2.6-2.4,3.3c-0.7,0.6-1.3,0.9-1.9,0.9c-0.8,0-1.4-0.5-1.8-1.5
					c-0.5-1.1-0.7-2.7-0.7-5c0-2.3,0.3-4.8,0.8-7.4l2.6,0.4c-0.5,2.6-0.8,4.9-0.8,6.7c0,2.5,0.2,3.7,0.5,3.7c0.1,0,0.4-0.2,0.7-0.6
					c0.5-0.6,1-1.4,1.6-2.5L439.9,192.2z M438.1,201.4c2.4-0.7,4.2-1.7,5.4-3c1.5-1.6,2.2-4.1,2.2-7.4c0-2.5-0.2-5.3-0.7-8.4
					l2.7-0.3c0.5,3.2,0.8,6.1,0.8,8.8c0,4.4-1.1,7.6-3.4,9.6c-1.4,1.2-3.2,2.2-5.6,3L438.1,201.4z"/>
				<path class="st4" d="M463.2,193.4h-3.6v-9.8h3.1c0.2-0.7,0.4-1.4,0.6-2.2l2.6,0.3c-0.2,0.5-0.4,1.2-0.7,1.9h4.4v9.8h-3.8v1.7
					H476v2.2h-7.7c2.1,1.5,4.7,2.9,7.9,3.9l-1.5,2.2c-3.7-1.5-6.7-3.4-8.9-5.8v6.6h-2.5v-6.6c-2.1,2.6-5,4.6-8.7,6.1l-1.5-2.1
					c3.2-1.1,5.9-2.5,8-4.5h-7.9v-2.2h10.1V193.4z M453.1,192c1.7-0.9,3.4-2,5.2-3.5l0.9,2.1c-1.6,1.4-3.2,2.5-4.7,3.4L453.1,192z
					 M457.2,187.1c-1.1-1.3-2.3-2.4-3.4-3.2l1.8-1.7c1.4,1,2.5,2.1,3.5,3.2L457.2,187.1z M462,185.4v2h5.1v-2H462z M462,189.3v2.3
					h5.1v-2.3H462z M474.4,193.6c-1.4-1.4-2.8-2.6-4.5-3.7l1.6-1.6c1.5,0.9,3,2.1,4.5,3.4L474.4,193.6z M470.1,185.6
					c1-0.8,2.1-2,3.2-3.5l2.1,1.4c-1.3,1.5-2.5,2.7-3.7,3.6L470.1,185.6z"/>
			</g>
		</g>
		<g>
			<g>
				<path class="st0" d="M169.1,186.4L169.1,186.4c-1.6-1.6-3.5-2.4-5.5-0.4l-8.1,8.3c-0.3,0.3-0.5,0.7-0.6,1.1l-1.7,5.8
					c-0.1,0.7,0.4,1.3,1.1,1.2l5.9-1.5c0.4-0.1,0.8-0.3,1.1-0.6l8.1-8.3C171.4,189.9,170.7,188,169.1,186.4z M159.8,199.3
					c-0.8,0.2-4,1.1-4,1.1l-0.8-0.8c0,0,1-3.2,1.1-3.9c0-0.1,0.2-0.1,0.2-0.1l3.5,3.5C159.9,199.1,159.9,199.3,159.8,199.3z"/>
			</g>
			<path class="st0" d="M168.5,67.3v-2.5c0-0.3-0.2-0.5-0.5-0.5H165c-0.3,0-0.6-0.3-0.4-0.6l3.6-6.1c0.1-0.3-0.1-0.6-0.4-0.6h-3.1
				c-0.2,0-0.3,0.1-0.4,0.3l-1.7,3.1c-0.2,0.4-0.7,0.4-0.8,0l-1.7-3.1c-0.1-0.2-0.2-0.3-0.4-0.3h-3.4c-0.3,0-0.6,0.3-0.4,0.6
				l3.5,6.1c0.1,0.3-0.1,0.6-0.4,0.6h-3.1c-0.3,0-0.5,0.2-0.5,0.5v2.5c0,0.3,0.2,0.5,0.5,0.5h4.3v1.9h-4.3c-0.3,0-0.5,0.2-0.5,0.5
				v2.5c0,0.3,0.2,0.5,0.5,0.5h3.8c0.3,0,0.5,0.2,0.5,0.5v2.9c0,0.3,0.2,0.5,0.5,0.5h3.1c0.3,0,0.5-0.2,0.5-0.5v-2.9
				c0-0.3,0.2-0.5,0.5-0.5h3.7c0.3,0,0.5-0.2,0.5-0.5v-2.5c0-0.3-0.2-0.5-0.5-0.5h-4.1v-1.9h4.1C168.3,67.7,168.5,67.5,168.5,67.3z"
				/>
			<path class="st0" d="M168.5,109.7v-2.5c0-0.3-0.2-0.5-0.5-0.5H165c-0.3,0-0.6-0.3-0.4-0.6l3.6-6.1c0.1-0.3-0.1-0.6-0.4-0.6h-3.1
				c-0.2,0-0.3,0.1-0.4,0.3l-1.7,3.1c-0.2,0.4-0.7,0.4-0.8,0l-1.7-3.1c-0.1-0.2-0.2-0.3-0.4-0.3h-3.4c-0.3,0-0.6,0.3-0.4,0.6
				l3.5,6.1c0.1,0.3-0.1,0.6-0.4,0.6h-3.1c-0.3,0-0.5,0.2-0.5,0.5v2.5c0,0.3,0.2,0.5,0.5,0.5h4.3v1.9h-4.3c-0.3,0-0.5,0.2-0.5,0.5
				v2.5c0,0.3,0.2,0.5,0.5,0.5h3.8c0.3,0,0.5,0.2,0.5,0.5v2.9c0,0.3,0.2,0.5,0.5,0.5h3.1c0.3,0,0.5-0.2,0.5-0.5v-2.9
				c0-0.3,0.2-0.5,0.5-0.5h3.7c0.3,0,0.5-0.2,0.5-0.5v-2.5c0-0.3-0.2-0.5-0.5-0.5h-4.1v-1.9h4.1
				C168.3,110.1,168.5,109.9,168.5,109.7z"/>
			<path class="st0" d="M168.5,152.1v-2.5c0-0.3-0.2-0.5-0.5-0.5H165c-0.3,0-0.6-0.3-0.4-0.6l3.6-6.1c0.1-0.3-0.1-0.6-0.4-0.6h-3.1
				c-0.2,0-0.3,0.1-0.4,0.3l-1.7,3.1c-0.2,0.4-0.7,0.4-0.8,0l-1.7-3.1c-0.1-0.2-0.2-0.3-0.4-0.3h-3.4c-0.3,0-0.6,0.3-0.4,0.6
				l3.5,6.1c0.1,0.3-0.1,0.6-0.4,0.6h-3.1c-0.3,0-0.5,0.2-0.5,0.5v2.5c0,0.3,0.2,0.5,0.5,0.5h4.3v1.9h-4.3c-0.3,0-0.5,0.2-0.5,0.5
				v2.5c0,0.3,0.2,0.5,0.5,0.5h3.8c0.3,0,0.5,0.2,0.5,0.5v2.9c0,0.3,0.2,0.5,0.5,0.5h3.1c0.3,0,0.5-0.2,0.5-0.5v-2.9
				c0-0.3,0.2-0.5,0.5-0.5h3.7c0.3,0,0.5-0.2,0.5-0.5V155c0-0.3-0.2-0.5-0.5-0.5h-4.1v-1.9h4.1C168.3,152.6,168.5,152.4,168.5,152.1
				z"/>
		</g>
	</g>
</g>
</svg>
