<?xml version="1.0" encoding="UTF-8"?><svg id="_イヤー_1" xmlns="http://www.w3.org/2000/svg" width="185" height="90.24" viewBox="0 0 185 90.24"><defs><style>.cls-1{fill:#fff;}.cls-2{fill:#00aae7;}.cls-3{fill:#b9b9b9;}</style></defs><path class="cls-2" d="M14.39,67.5c-.1,1.42-.37,2.41-.94,3.27-.64,1.01-1.51,1.64-3.08,2.28-.38-.74-.56-1-1.19-1.59,1.49-.46,2.38-1.08,2.87-2.03,.25-.48,.41-1.14,.44-1.93h-2.66c-.8,0-1.22,.01-1.7,.07v-1.73c.55,.06,.91,.08,1.73,.08h6.76c.85,0,1.2-.01,1.77-.08v1.72c-.55-.05-.75-.06-1.74-.06h-2.27Zm1.74-2.97c-.44-.05-.66-.06-1.75-.06h-3.32c-.79,0-1.27,.01-1.7,.06v-1.71c.55,.07,.88,.08,1.73,.08h3.26c.95,0,1.28-.01,1.79-.08v.71l.9-.31c.41,.66,.6,1.08,.79,1.68l-1.01,.38c-.17-.55-.42-1.12-.68-1.56v.82Zm2.06,.23c-.22-.64-.38-.98-.78-1.66l.96-.36c.4,.61,.6,1.02,.8,1.61l-.98,.41Z"/><path class="cls-2" d="M20.06,66.65c.54,.07,.97,.1,2.19,.1h6.07c1.21,0,1.64-.01,2.19-.08v1.97c-.48-.04-1.27-.06-2.21-.06h-6.06c-1.04,0-1.73,.02-2.19,.07v-1.99Z"/><path class="cls-2" d="M37.57,62.55c-.12,.2-.16,.26-.31,.61-.11,.22-.14,.3-.26,.52l3.17-.02c.42-.01,.62-.04,.9-.16l.94,.92c-.17,.19-.18,.22-.38,.82-.79,2.31-1.71,3.93-2.99,5.25-1.06,1.09-2.36,1.98-4.07,2.76-.41-.72-.61-.97-1.19-1.51,1-.4,1.58-.68,2.29-1.12,.8-.52,1.29-.91,1.89-1.56-.82-.68-1.45-1.12-2.35-1.61l1.09-1.28c1.05,.59,1.62,.96,2.3,1.49,.52-.79,.88-1.56,1.17-2.5l-3.51,.04c-.73,1.2-1.57,2.18-2.77,3.21-.49-.55-.73-.73-1.45-1.14,1.37-1.07,2.25-2.08,3-3.44,.35-.64,.58-1.19,.7-1.68l1.83,.4Z"/><path class="cls-2" d="M44.8,69.37c.05,.49,.12,.72,.32,.97,.32,.42,.89,.65,1.6,.65,1.04,0,1.7-.48,1.7-1.25,0-.37-.16-.67-.47-.86-.37-.24-.74-.36-2.05-.66-1.02-.24-1.42-.4-1.87-.72-.67-.5-1.03-1.24-1.03-2.12,0-1.76,1.4-2.88,3.62-2.88,1.43,0,2.51,.43,3.13,1.25,.3,.41,.46,.76,.61,1.46l-2.11,.23c-.06-.37-.14-.55-.31-.77-.28-.32-.75-.5-1.33-.5-.94,0-1.56,.46-1.56,1.14,0,.32,.14,.59,.41,.78,.26,.17,.5,.25,1.13,.4,1.31,.28,1.88,.43,2.36,.65,.49,.22,.94,.59,1.21,1.04,.24,.4,.36,.88,.36,1.45,0,1.96-1.37,3.07-3.77,3.07-1.55,0-2.71-.43-3.35-1.24-.4-.49-.56-.95-.7-1.88l2.09-.2Z"/><path class="cls-2" d="M54.56,62.72c-.07,.48-.1,.85-.1,1.66v6.44c0,.77,.02,1.19,.1,1.66h-2.21c.07-.47,.1-.91,.1-1.66v-6.44c0-.83-.02-1.14-.1-1.66h2.21Z"/><path class="cls-2" d="M60.99,72.48c-.06-.41-.23-.97-.52-1.69l-1.46-3.73c-.14-.37-.31-.92-.56-1.82,.07,1.16,.1,1.64,.1,1.94v3.49c0,.84,.02,1.33,.1,1.81h-2c.07-.5,.1-1,.1-1.81v-6.12c0-.76-.02-1.32-.1-1.82h2.66c.07,.44,.22,.95,.44,1.55l2.13,5.59,2.12-5.59c.24-.61,.37-1.09,.44-1.55h2.66c-.07,.58-.1,1.02-.1,1.82v6.12c0,.9,.02,1.36,.1,1.81h-2c.07-.54,.1-.97,.1-1.81v-3.53c0-.29,.02-.77,.1-1.91q-.06,.23-.19,.76c-.06,.2-.26,.85-.33,1.03l-1.51,3.78c-.24,.62-.46,1.29-.52,1.68h-1.75Z"/><path class="cls-2" d="M20.12,78.55c-.12,.2-.16,.26-.31,.61-.11,.22-.14,.3-.26,.52l3.17-.02c.42-.01,.62-.04,.9-.16l.94,.92c-.17,.19-.18,.22-.38,.82-.79,2.31-1.71,3.93-2.99,5.25-1.06,1.09-2.36,1.98-4.07,2.76-.41-.72-.61-.97-1.19-1.51,1-.4,1.58-.68,2.29-1.12,.8-.52,1.29-.91,1.89-1.56-.82-.68-1.45-1.12-2.35-1.61l1.09-1.28c1.05,.59,1.62,.96,2.3,1.49,.52-.79,.88-1.56,1.17-2.5l-3.51,.04c-.73,1.2-1.57,2.18-2.77,3.21-.49-.55-.73-.73-1.45-1.14,1.37-1.07,2.25-2.08,3-3.44,.35-.64,.58-1.19,.7-1.68l1.83,.4Z"/><path class="cls-2" d="M36.62,79.52c-.25,.22-.28,.24-.46,.43-.91,.95-1.82,1.74-2.81,2.45v4.73c0,.96,.01,1.37,.06,1.78h-1.98c.06-.46,.07-.76,.07-1.74v-3.65c-1.25,.74-1.93,1.06-4.1,1.86-.32-.74-.47-.98-.97-1.63,2.42-.67,4.43-1.66,6.32-3.12,1.06-.82,1.86-1.62,2.22-2.22l1.64,1.12Z"/><path class="cls-2" d="M46.4,79.41c.14,0,.29,0,.52-.02,.05-.7,.62-1.24,1.32-1.24,.74,0,1.33,.6,1.33,1.33s-.59,1.33-1.32,1.33h-.05l-.05,.17c-.5,2.01-1.27,3.57-2.38,4.86-1.1,1.29-2.46,2.23-4.52,3.15-.4-.77-.59-1.03-1.27-1.71,1.04-.32,1.7-.64,2.58-1.19,1.85-1.18,3.02-2.82,3.57-5h-5.25c-.98,0-1.37,.01-1.86,.07v-1.83c.52,.07,.89,.08,1.88,.08h5.49Zm1.25,.07c0,.32,.26,.59,.59,.59s.59-.26,.59-.59-.26-.59-.59-.59-.59,.26-.59,.59Z"/><path class="cls-2" d="M52.31,80.34c0-.74-.02-1.12-.11-1.66,.48,.02,.78,.04,1.64,.04h2.34c1.48,0,2.57,.36,3.35,1.12,.88,.85,1.33,2.1,1.33,3.67s-.48,2.95-1.4,3.85c-.79,.75-1.85,1.12-3.26,1.12h-2.35c-.82,0-1.14,.01-1.63,.04,.07-.52,.1-.89,.1-1.66v-6.51Zm3.73,6.39c.89,0,1.49-.22,1.94-.7,.54-.56,.83-1.43,.83-2.5s-.25-1.88-.77-2.41c-.46-.47-1.06-.67-2.01-.67h-1.74v6.27h1.75Z"/><path class="cls-2" d="M124.2,67.5c-.1,1.42-.37,2.41-.94,3.27-.64,1.01-1.51,1.64-3.08,2.28-.38-.74-.56-1-1.19-1.59,1.49-.46,2.38-1.08,2.87-2.03,.25-.48,.41-1.14,.44-1.93h-2.66c-.8,0-1.22,.01-1.7,.07v-1.73c.55,.06,.91,.08,1.73,.08h6.76c.85,0,1.2-.01,1.77-.08v1.72c-.55-.05-.75-.06-1.74-.06h-2.27Zm1.74-2.97c-.44-.05-.66-.06-1.75-.06h-3.32c-.79,0-1.27,.01-1.7,.06v-1.71c.55,.07,.88,.08,1.73,.08h3.26c.95,0,1.28-.01,1.79-.08v.71l.9-.31c.41,.66,.6,1.08,.79,1.68l-1.01,.38c-.17-.55-.42-1.12-.68-1.56v.82Zm2.06,.23c-.22-.64-.38-.98-.78-1.66l.96-.36c.4,.61,.6,1.02,.8,1.61l-.98,.41Z"/><path class="cls-2" d="M129.87,66.65c.54,.07,.97,.1,2.19,.1h6.07c1.21,0,1.64-.01,2.19-.08v1.97c-.48-.04-1.27-.06-2.21-.06h-6.06c-1.04,0-1.73,.02-2.19,.07v-1.99Z"/><path class="cls-2" d="M147.38,62.55c-.12,.2-.16,.26-.31,.61-.11,.22-.14,.3-.26,.52l3.17-.02c.42-.01,.62-.04,.9-.16l.94,.92c-.17,.19-.18,.22-.38,.82-.79,2.31-1.71,3.93-2.99,5.25-1.06,1.09-2.36,1.98-4.07,2.76-.41-.72-.61-.97-1.19-1.51,1-.4,1.58-.68,2.29-1.12,.8-.52,1.29-.91,1.89-1.56-.82-.68-1.45-1.12-2.35-1.61l1.09-1.28c1.05,.59,1.62,.96,2.3,1.49,.52-.79,.88-1.56,1.17-2.5l-3.51,.04c-.73,1.2-1.57,2.18-2.77,3.21-.49-.55-.73-.73-1.45-1.14,1.37-1.07,2.25-2.08,3-3.44,.35-.64,.58-1.19,.7-1.68l1.83,.4Z"/><path class="cls-2" d="M154.61,69.37c.05,.49,.12,.72,.32,.97,.32,.42,.89,.65,1.6,.65,1.04,0,1.7-.48,1.7-1.25,0-.37-.16-.67-.47-.86-.37-.24-.74-.36-2.05-.66-1.02-.24-1.42-.4-1.87-.72-.67-.5-1.03-1.24-1.03-2.12,0-1.76,1.4-2.88,3.62-2.88,1.43,0,2.51,.43,3.13,1.25,.3,.41,.46,.76,.61,1.46l-2.11,.23c-.06-.37-.14-.55-.31-.77-.28-.32-.75-.5-1.33-.5-.94,0-1.56,.46-1.56,1.14,0,.32,.14,.59,.41,.78,.26,.17,.5,.25,1.13,.4,1.31,.28,1.88,.43,2.36,.65,.49,.22,.94,.59,1.21,1.04,.24,.4,.36,.88,.36,1.45,0,1.96-1.37,3.07-3.77,3.07-1.55,0-2.71-.43-3.35-1.24-.4-.49-.56-.95-.7-1.88l2.09-.2Z"/><path class="cls-2" d="M164.37,62.72c-.07,.48-.1,.85-.1,1.66v6.44c0,.77,.02,1.19,.1,1.66h-2.21c.07-.47,.1-.91,.1-1.66v-6.44c0-.83-.02-1.14-.1-1.66h2.21Z"/><path class="cls-2" d="M170.8,72.48c-.06-.41-.23-.97-.52-1.69l-1.46-3.73c-.14-.37-.31-.92-.56-1.82,.07,1.16,.1,1.64,.1,1.94v3.49c0,.84,.02,1.33,.1,1.81h-2c.07-.5,.1-1,.1-1.81v-6.12c0-.76-.02-1.32-.1-1.82h2.66c.07,.44,.22,.95,.44,1.55l2.13,5.59,2.12-5.59c.24-.61,.37-1.09,.44-1.55h2.66c-.07,.58-.1,1.02-.1,1.82v6.12c0,.9,.02,1.36,.1,1.81h-2c.07-.54,.1-.97,.1-1.81v-3.53c0-.29,.02-.77,.1-1.91q-.06,.23-.19,.76c-.06,.2-.26,.85-.33,1.03l-1.51,3.78c-.24,.62-.46,1.29-.52,1.68h-1.75Z"/><path class="cls-2" d="M129.93,78.55c-.12,.2-.16,.26-.31,.61-.11,.22-.14,.3-.26,.52l3.17-.02c.42-.01,.62-.04,.9-.16l.94,.92c-.17,.19-.18,.22-.38,.82-.79,2.31-1.71,3.93-2.99,5.25-1.06,1.09-2.36,1.98-4.07,2.76-.41-.72-.61-.97-1.19-1.51,1-.4,1.58-.68,2.29-1.12,.8-.52,1.29-.91,1.89-1.56-.82-.68-1.45-1.12-2.35-1.61l1.09-1.28c1.05,.59,1.62,.96,2.3,1.49,.52-.79,.88-1.56,1.17-2.5l-3.51,.04c-.73,1.2-1.57,2.18-2.77,3.21-.49-.55-.73-.73-1.45-1.14,1.37-1.07,2.25-2.08,3-3.44,.35-.64,.58-1.19,.7-1.68l1.83,.4Z"/><path class="cls-2" d="M146.43,79.52c-.25,.22-.28,.24-.46,.43-.91,.95-1.82,1.74-2.81,2.45v4.73c0,.96,.01,1.37,.06,1.78h-1.98c.06-.46,.07-.76,.07-1.74v-3.65c-1.25,.74-1.93,1.06-4.1,1.86-.32-.74-.47-.98-.97-1.63,2.42-.67,4.43-1.66,6.32-3.12,1.06-.82,1.86-1.62,2.22-2.22l1.64,1.12Z"/><path class="cls-2" d="M156.21,79.41c.14,0,.29,0,.52-.02,.05-.7,.62-1.24,1.32-1.24,.74,0,1.33,.6,1.33,1.33s-.59,1.33-1.32,1.33h-.05l-.05,.17c-.5,2.01-1.27,3.57-2.38,4.86-1.1,1.29-2.46,2.23-4.52,3.15-.4-.77-.59-1.03-1.27-1.71,1.04-.32,1.7-.64,2.58-1.19,1.85-1.18,3.02-2.82,3.57-5h-5.25c-.98,0-1.37,.01-1.86,.07v-1.83c.52,.07,.89,.08,1.88,.08h5.49Zm1.25,.07c0,.32,.26,.59,.59,.59s.59-.26,.59-.59-.26-.59-.59-.59-.59,.26-.59,.59Z"/><path class="cls-2" d="M162.12,80.34c0-.74-.02-1.12-.11-1.66,.48,.02,.78,.04,1.64,.04h2.34c1.48,0,2.57,.36,3.35,1.12,.88,.85,1.33,2.1,1.33,3.67s-.48,2.95-1.4,3.85c-.79,.75-1.85,1.12-3.26,1.12h-2.35c-.82,0-1.14,.01-1.63,.04,.07-.52,.1-.89,.1-1.66v-6.51Zm3.73,6.39c.89,0,1.49-.22,1.94-.7,.54-.56,.83-1.43,.83-2.5s-.25-1.88-.77-2.41c-.46-.47-1.06-.67-2.01-.67h-1.74v6.27h1.75Z"/><g><path class="cls-2" d="M53.4,11.34L43.06,1c-.64-.64-1.51-1-2.42-1H23.07c-1.26,0-2.28,1.02-2.28,2.28V47.85c0,1.26,1.02,2.28,2.28,2.28h29.05c1.26,0,2.28-1.02,2.28-2.28V13.76c0-.91-.36-1.78-1-2.42Z"/><path class="cls-1" d="M31.49,21.38c0-1.12-.04-1.68-.16-2.49,.72,.04,1.17,.05,2.47,.05h3.51c2.22,0,3.86,.54,5.03,1.68,1.32,1.28,2,3.15,2,5.51s-.72,4.43-2.11,5.78c-1.19,1.14-2.78,1.68-4.9,1.68h-3.53c-1.23,0-1.71,.02-2.45,.05,.11-.78,.14-1.33,.14-2.49v-9.79Zm5.6,9.61c1.33,0,2.23-.32,2.92-1.04,.81-.85,1.24-2.14,1.24-3.75s-.38-2.83-1.15-3.62c-.68-.7-1.59-1.01-3.03-1.01h-2.61v9.42h2.63Z"/><path class="cls-2" d="M163.21,11.34l-10.34-10.34c-.64-.64-1.51-1-2.42-1h-17.57c-1.26,0-2.28,1.02-2.28,2.28V47.85c0,1.26,1.02,2.28,2.28,2.28h29.05c1.26,0,2.28-1.02,2.28-2.28V13.76c0-.91-.36-1.78-1-2.42Z"/><path class="cls-1" d="M141.29,21.38c0-1.12-.04-1.68-.16-2.49,.72,.04,1.17,.05,2.47,.05h3.51c2.22,0,3.86,.54,5.03,1.68,1.32,1.28,2,3.15,2,5.51s-.72,4.43-2.11,5.78c-1.19,1.14-2.78,1.68-4.9,1.68h-3.53c-1.23,0-1.71,.02-2.45,.05,.11-.78,.14-1.33,.14-2.49v-9.79Zm5.6,9.61c1.33,0,2.23-.32,2.92-1.04,.81-.85,1.24-2.14,1.24-3.75s-.38-2.83-1.15-3.62c-.68-.7-1.59-1.01-3.03-1.01h-2.61v9.42h2.63Z"/><rect class="cls-3" x="78.3" y="20.9" width="27.28" height="8.17"/><polygon class="cls-3" points="110.32 25.06 101.2 14.88 101.2 35.24 110.32 25.06"/><polygon class="cls-3" points="70.68 25.06 79.8 35.24 79.8 14.88 70.68 25.06"/></g></svg>