<svg id="レイヤー_1" data-name="レイヤー 1" xmlns="http://www.w3.org/2000/svg" xmlns:xlink="http://www.w3.org/1999/xlink" width="44" height="24" viewBox="0 0 44 24"><defs><style>.cls-1{fill:url(#名称未設定グラデーション_243);}.cls-2{fill:#141236;}.cls-3{fill:#42cdf7;}.cls-4{fill:none;}</style><radialGradient id="名称未設定グラデーション_243" cx="21.57" cy="12.07" r="11.86" gradientUnits="userSpaceOnUse"><stop offset="0.02" stop-color="#7de1ff"/><stop offset="0.26" stop-color="#79e0fe"/><stop offset="0.52" stop-color="#6cdbfd"/><stop offset="0.78" stop-color="#57d4fa"/><stop offset="1" stop-color="#40ccf7"/></radialGradient></defs><circle class="cls-1" cx="21.57" cy="12.07" r="11.86"/><path class="cls-2" d="M28.84,9.63a.74.74,0,0,1-.56.49C27.45,10.32,27,9,26,9s-1.3,1.29-2.14,1.13a.81.81,0,0,1-.66-.55c-.14-.7,1.34-2,2.85-1.94S29,8.94,28.84,9.63Z"/><path class="cls-2" d="M19.71,9.63a.74.74,0,0,1-.55.49c-.83.2-1.27-1.16-2.24-1.15s-1.31,1.29-2.15,1.13a.82.82,0,0,1-.66-.55c-.13-.7,1.34-2,2.85-1.94S19.87,8.94,19.71,9.63Z"/><path class="cls-2" d="M21.41,19.67A5.42,5.42,0,0,1,18,18.26a7.33,7.33,0,0,1-2.25-3.67.63.63,0,0,1,.55-.83H26.53a.62.62,0,0,1,.57.77A6.83,6.83,0,0,1,25,18.33,5.43,5.43,0,0,1,21.41,19.67Z"/><path class="cls-3" d="M33.93,5c0,.41,2.22.1,3.55,1.47s1,3.47,1.38,3.47.14-2.06,1.45-3.4S43.8,5.44,43.8,5s-2-.19-3.39-1.52S39.29.06,38.86.07s-.15,2.09-1.48,3.44S33.92,4.61,33.93,5Z"/><path class="cls-3" d="M.83,19.26c0,.31,1.73.07,2.77,1.13s.78,2.7,1.08,2.71.1-1.61,1.12-2.65,2.72-.86,2.72-1.19-1.59-.15-2.64-1.19S5,15.41,4.68,15.41s-.12,1.64-1.16,2.68S.83,19,.83,19.26Z"/><rect class="cls-4" width="44" height="24"/></svg>