<?xml version="1.0" encoding="UTF-8"?><svg id="_レイヤー_1" xmlns="http://www.w3.org/2000/svg" width="384" height="85" xmlns:xlink="http://www.w3.org/1999/xlink" viewBox="0 0 384 85"><defs><style>.cls-1{fill:url(#_新規グラデーションスウォッチ_1);}.cls-2{fill:#313131;}</style><linearGradient id="_新規グラデーションスウォッチ_1" x1="0" y1="42.5" x2="384" y2="42.5" gradientUnits="userSpaceOnUse"><stop offset=".05" stop-color="#f7dd49"/><stop offset=".08" stop-color="#f7dd49"/><stop offset=".14" stop-color="#8ed5b9"/><stop offset=".18" stop-color="#55d2f8"/><stop offset=".44" stop-color="#55d2f8"/><stop offset=".47" stop-color="#91d4ae"/><stop offset=".53" stop-color="#f6d934"/><stop offset=".56" stop-color="#f6d937"/><stop offset=".59" stop-color="#f6db42"/><stop offset=".6" stop-color="#f7dd49"/><stop offset=".62" stop-color="#f8d155"/><stop offset=".65" stop-color="#fbb477"/><stop offset=".67" stop-color="#ff9898"/><stop offset=".79" stop-color="#ff8c8c"/><stop offset=".83" stop-color="#f7dd49"/><stop offset=".91" stop-color="#f7dd49"/><stop offset=".92" stop-color="#f7dd49"/><stop offset=".95" stop-color="#fda884"/><stop offset=".96" stop-color="#ff9898"/></linearGradient></defs><rect class="cls-1" width="384" height="85"/><g><g><path class="cls-2" d="m10.27,41.83c.07-.47.1-.94.1-1.56v-6.61h-.58c-.44,0-.79.02-1.24.07v-1.52c.37.06.64.07,1.2.07h1.1c.61,0,.79-.01,1.22-.06-.07.71-.1,1.26-.1,1.98v6.07c0,.63.02,1.07.1,1.56h-1.81Z"/><path class="cls-2" d="m14.39,36.91c.37-.45.55-.61.99-.89.61-.38,1.06-.52,1.64-.52.46,0,.86.09,1.29.3q.26.13.91.55c.76.49,1.29.7,1.77.7.21,0,.5-.08.74-.19.43-.22.69-.44,1.04-.91l.8.8c-.41.52-.62.73-.95.97-.51.38-1.08.57-1.73.57-.3,0-.61-.05-.88-.14-.39-.13-.59-.23-1.37-.74-.88-.56-1.19-.68-1.72-.68-.65,0-1.11.24-1.74.92l-.79-.74Z"/><path class="cls-2" d="m25.54,39.23c.16.55.26.74.56.98.4.31.88.47,1.45.47,1.19,0,1.94-.61,1.94-1.56,0-.55-.24-1.01-.67-1.26-.29-.17-.85-.29-1.38-.29s-.88.01-1.28.06v-1.49c.38.05.65.06,1.16.06,1.2,0,1.91-.55,1.91-1.47,0-.83-.56-1.29-1.58-1.29-.59,0-1.02.13-1.31.37-.24.23-.36.43-.5.92l-1.71-.29c.3-.89.58-1.31,1.14-1.71.61-.44,1.39-.66,2.35-.66,2,0,3.3,1.01,3.3,2.57,0,.72-.31,1.38-.83,1.76-.26.21-.53.3-1.16.47.85.13,1.29.34,1.71.8.4.44.58.95.58,1.66,0,.65-.28,1.31-.72,1.75-.66.64-1.67.97-2.95.97-1.4,0-2.36-.36-3.05-1.14-.3-.34-.46-.65-.67-1.34l1.71-.34Z"/><path class="cls-2" d="m15.13,46.41c0-.47-.02-.89-.06-1.28.38.05.78.06,1.33.06h5.8c.56,0,.94-.01,1.29-.06-.05.46-.06.8-.06,1.22v7.75c0,.62.02,1.02.07,1.45h-1.45v-.72h-5.58v.72h-1.43c.05-.41.07-.89.07-1.45v-7.69Zm1.36,2.83h5.58v-2.78h-5.58v2.78Zm0,4.33h5.58v-3.07h-5.58v3.07Z"/></g><g><path class="cls-2" d="m258.76,41.83c-.93,0-1.13.01-1.55.06.07-.68.16-1.1.31-1.54.32-.88.86-1.64,1.64-2.35.42-.37.78-.65,1.98-1.45,1.1-.76,1.44-1.15,1.44-1.76,0-.81-.64-1.32-1.66-1.32-.7,0-1.22.24-1.52.71-.2.29-.29.55-.37,1.1l-1.71-.2c.17-.91.38-1.4.83-1.92.6-.7,1.55-1.07,2.75-1.07,2.1,0,3.39,1.01,3.39,2.65,0,.79-.26,1.37-.85,1.92-.34.31-.46.41-2.01,1.48-.53.37-1.13.88-1.43,1.2-.36.38-.5.62-.68,1.08h3.36c.76,0,1.36-.04,1.75-.1v1.58c-.56-.05-1.04-.07-1.81-.07h-3.85Z"/><path class="cls-2" d="m266.68,41.05c-.36-.36-.64-.78-.79-1.21-.31-.85-.47-1.79-.47-2.76,0-1.27.29-2.59.73-3.32.65-1.08,1.73-1.67,3.06-1.67,1.02,0,1.9.34,2.53.97.36.36.64.78.79,1.21.31.84.47,1.8.47,2.78,0,1.47-.32,2.77-.89,3.55-.67.94-1.67,1.41-2.91,1.41-1.02,0-1.88-.34-2.52-.97Zm3.83-.92c.54-.56.84-1.68.84-3.08s-.3-2.48-.84-3.07c-.29-.32-.77-.5-1.31-.5-.58,0-1,.19-1.34.61-.53.62-.79,1.61-.79,2.91s.23,2.3.61,2.86c.37.53.88.78,1.54.78.53,0,1-.18,1.3-.5Z"/><path class="cls-2" d="m273.99,36.91c.37-.45.55-.61.99-.89.61-.38,1.06-.52,1.64-.52.46,0,.86.09,1.29.3q.26.13.91.55c.76.49,1.29.7,1.77.7.21,0,.5-.08.74-.19.43-.22.69-.44,1.04-.91l.8.8c-.41.52-.62.73-.95.97-.51.38-1.08.57-1.73.57-.3,0-.61-.05-.88-.14-.39-.13-.59-.23-1.37-.74-.88-.56-1.19-.68-1.72-.68-.65,0-1.11.24-1.74.92l-.79-.74Z"/><path class="cls-2" d="m284.87,41.83c-.93,0-1.13.01-1.55.06.07-.68.16-1.1.31-1.54.32-.88.86-1.64,1.64-2.35.42-.37.78-.65,1.98-1.45,1.1-.76,1.44-1.15,1.44-1.76,0-.81-.64-1.32-1.66-1.32-.7,0-1.22.24-1.52.71-.2.29-.29.55-.37,1.1l-1.71-.2c.17-.91.38-1.4.83-1.92.6-.7,1.55-1.07,2.75-1.07,2.1,0,3.39,1.01,3.39,2.65,0,.79-.26,1.37-.85,1.92-.34.31-.46.41-2.01,1.48-.53.37-1.13.88-1.43,1.2-.36.38-.5.62-.68,1.08h3.36c.76,0,1.36-.04,1.75-.1v1.58c-.56-.05-1.04-.07-1.81-.07h-3.85Z"/><path class="cls-2" d="m293.33,39.35c.11.35.19.5.36.7.34.41.84.61,1.47.61,1.19,0,1.97-.79,1.97-1.98s-.74-1.93-1.88-1.93c-.59,0-1.12.19-1.49.55-.17.17-.25.28-.36.54l-1.5-.14c.12-.85.13-.91.16-1.25l.28-2.97c.01-.22.04-.62.05-1.22.36.02.64.04,1.27.04h2.95c.83,0,1.13-.01,1.67-.1v1.51c-.53-.07-1-.1-1.66-.1h-2.82l-.19,2.1c-.01.1-.04.26-.07.5.59-.5,1.22-.73,2.05-.73.97,0,1.75.29,2.34.9.59.58.85,1.29.85,2.25,0,2.11-1.38,3.42-3.61,3.42-1.19,0-2.07-.33-2.73-1.04-.32-.35-.49-.63-.75-1.31l1.65-.35Z"/><path class="cls-2" d="m273.87,46.41c0-.47-.02-.89-.06-1.28.38.05.78.06,1.33.06h5.8c.56,0,.94-.01,1.29-.06-.05.46-.06.8-.06,1.22v7.75c0,.62.02,1.02.07,1.45h-1.45v-.72h-5.58v.72h-1.43c.05-.41.07-.89.07-1.45v-7.69Zm1.36,2.83h5.58v-2.78h-5.58v2.78Zm0,4.33h5.58v-3.07h-5.58v3.07Z"/></g><g><path class="cls-2" d="m201.54,41.83c.07-.47.1-.94.1-1.56v-6.61h-.58c-.44,0-.79.02-1.24.07v-1.52c.37.06.64.07,1.2.07h1.1c.61,0,.79-.01,1.22-.06-.07.71-.1,1.26-.1,1.98v6.07c0,.63.02,1.07.1,1.56h-1.81Z"/><path class="cls-2" d="m211.45,34.63c-.31-.88-.75-1.21-1.61-1.21s-1.48.42-1.88,1.25c-.3.62-.43,1.2-.49,2.12.65-.88,1.36-1.2,2.57-1.2s2.25.53,2.78,1.43c.29.47.43,1.09.43,1.8,0,1.89-1.44,3.24-3.48,3.24-.96,0-1.85-.29-2.43-.79-.89-.77-1.39-2.21-1.39-4.02,0-1.47.37-2.89.98-3.71.71-.96,1.67-1.43,2.93-1.43,1.03,0,1.88.31,2.46.91.31.32.49.6.75,1.22l-1.62.38Zm-3.74,4.19c0,1.09.85,1.89,2.03,1.89.7,0,1.31-.31,1.64-.84.18-.28.28-.67.28-1.09,0-1.19-.71-1.88-1.89-1.88s-2.05.82-2.05,1.92Z"/><path class="cls-2" d="m214.27,36.91c.37-.45.55-.61.99-.89.61-.38,1.06-.52,1.64-.52.46,0,.86.09,1.29.3q.26.13.91.55c.76.49,1.29.7,1.77.7.21,0,.5-.08.74-.19.43-.22.69-.44,1.04-.91l.8.8c-.41.52-.62.73-.95.97-.51.38-1.08.57-1.73.57-.3,0-.61-.05-.88-.14-.39-.13-.59-.23-1.37-.74-.88-.56-1.19-.68-1.72-.68-.65,0-1.11.24-1.74.92l-.79-.74Z"/><path class="cls-2" d="m225.94,41.83c.07-.47.1-.94.1-1.56v-6.61h-.58c-.44,0-.79.02-1.24.07v-1.52c.37.06.64.07,1.2.07h1.1c.61,0,.79-.01,1.22-.06-.07.71-.1,1.26-.1,1.98v6.07c0,.63.02,1.07.1,1.56h-1.81Z"/><path class="cls-2" d="m232.07,39.52c.14.35.23.5.37.66.3.32.77.49,1.38.49.58,0,1.02-.16,1.36-.49.6-.58.88-1.44.94-2.86-.23.34-.36.48-.64.68-.54.37-1.15.55-1.94.55-1.99,0-3.26-1.22-3.26-3.15,0-1.22.54-2.22,1.52-2.82.55-.35,1.27-.53,2.1-.53,1.54,0,2.79.9,3.3,2.36.23.65.35,1.5.35,2.48,0,1.81-.48,3.39-1.27,4.16-.63.63-1.42.91-2.55.91-1.01,0-1.71-.22-2.31-.7-.41-.32-.64-.63-.98-1.33l1.66-.43Zm3.77-4.21c0-1.13-.83-1.93-2.01-1.93s-1.96.81-1.96,1.97.74,1.92,1.91,1.92,2.06-.84,2.06-1.96Z"/><path class="cls-2" d="m213.94,46.41c0-.47-.02-.89-.06-1.28.38.05.78.06,1.33.06h5.8c.56,0,.94-.01,1.29-.06-.05.46-.06.8-.06,1.22v7.75c0,.62.02,1.02.07,1.45h-1.45v-.72h-5.58v.72h-1.43c.05-.41.07-.89.07-1.45v-7.69Zm1.36,2.83h5.58v-2.78h-5.58v2.78Zm0,4.33h5.58v-3.07h-5.58v3.07Z"/></g><g><path class="cls-2" d="m102.65,39.7c-.44-.06-.7-.07-1.2-.08h-.43v.85c0,.61.02.92.1,1.37h-1.7c.07-.42.1-.79.1-1.39v-.83h-3.32c-.71,0-1.09.01-1.5.05v-1.47c.41-.44.54-.6.96-1.1l2.84-3.48c.53-.63.72-.89,1-1.32h1.62c-.07.7-.08,1.12-.08,2.03v3.93h.42c.48,0,.77-.02,1.21-.08v1.54Zm-3.13-3.92c0-.56.01-.95.06-1.44-.24.35-.38.54-.82,1.07l-2.3,2.85h3.06v-2.48Z"/><path class="cls-2" d="m103.49,36.91c.37-.45.55-.61.99-.89.61-.38,1.06-.52,1.64-.52.46,0,.86.09,1.29.3q.26.13.91.55c.76.49,1.29.7,1.77.7.21,0,.5-.08.74-.19.43-.22.69-.44,1.04-.91l.8.8c-.41.52-.62.73-.95.97-.51.38-1.08.57-1.73.57-.3,0-.61-.05-.88-.14-.39-.13-.59-.23-1.37-.74-.88-.56-1.19-.68-1.72-.68-.65,0-1.11.24-1.74.92l-.79-.74Z"/><path class="cls-2" d="m115.16,41.83c.07-.47.1-.94.1-1.56v-6.61h-.58c-.44,0-.79.02-1.24.07v-1.52c.37.06.64.07,1.2.07h1.1c.61,0,.79-.01,1.22-.06-.07.71-.1,1.26-.1,1.98v6.07c0,.63.02,1.07.1,1.56h-1.81Z"/><path class="cls-2" d="m121.16,39.35c.11.35.19.5.36.7.34.41.84.61,1.47.61,1.19,0,1.97-.79,1.97-1.98s-.74-1.93-1.88-1.93c-.59,0-1.12.19-1.49.55-.17.17-.25.28-.36.54l-1.5-.14c.12-.85.13-.91.16-1.25l.28-2.97c.01-.22.04-.62.05-1.22.36.02.63.04,1.27.04h2.95c.83,0,1.13-.01,1.67-.1v1.51c-.53-.07-1-.1-1.66-.1h-2.82l-.19,2.1c-.01.1-.04.26-.07.5.59-.5,1.22-.73,2.05-.73.97,0,1.75.29,2.34.9.59.58.85,1.29.85,2.25,0,2.11-1.38,3.42-3.61,3.42-1.19,0-2.07-.33-2.73-1.04-.32-.35-.49-.63-.75-1.31l1.65-.35Z"/><path class="cls-2" d="m106.71,46.41c0-.47-.02-.89-.06-1.28.38.05.78.06,1.33.06h5.8c.56,0,.94-.01,1.29-.06-.05.46-.06.8-.06,1.22v7.75c0,.62.02,1.02.07,1.45h-1.45v-.72h-5.58v.72h-1.43c.05-.41.07-.89.07-1.45v-7.69Zm1.36,2.83h5.58v-2.78h-5.58v2.78Zm0,4.33h5.58v-3.07h-5.58v3.07Z"/></g><g><path class="cls-2" d="m315.93,41.83c-.93,0-1.13.01-1.55.06.07-.68.16-1.1.31-1.54.32-.88.86-1.64,1.64-2.35.42-.37.78-.65,1.98-1.45,1.1-.76,1.44-1.15,1.44-1.76,0-.81-.64-1.32-1.66-1.32-.7,0-1.22.24-1.52.71-.2.29-.29.55-.37,1.1l-1.71-.2c.17-.91.38-1.4.83-1.92.6-.7,1.55-1.07,2.75-1.07,2.1,0,3.39,1.01,3.39,2.65,0,.79-.26,1.37-.85,1.92-.34.31-.46.41-2.01,1.48-.53.37-1.13.88-1.43,1.2-.36.38-.5.62-.68,1.08h3.36c.76,0,1.36-.04,1.75-.1v1.58c-.56-.05-1.04-.07-1.81-.07h-3.85Z"/><path class="cls-2" d="m328.14,34.63c-.31-.88-.75-1.21-1.61-1.21s-1.48.42-1.88,1.25c-.3.62-.43,1.2-.49,2.12.65-.88,1.36-1.2,2.57-1.2s2.25.53,2.78,1.43c.29.47.43,1.09.43,1.8,0,1.89-1.44,3.24-3.48,3.24-.96,0-1.85-.29-2.43-.79-.89-.77-1.39-2.21-1.39-4.02,0-1.47.37-2.89.98-3.71.71-.96,1.67-1.43,2.93-1.43,1.03,0,1.88.31,2.46.91.31.32.49.6.75,1.22l-1.62.38Zm-3.74,4.19c0,1.09.85,1.89,2.03,1.89.7,0,1.31-.31,1.64-.84.18-.28.28-.67.28-1.09,0-1.19-.71-1.88-1.89-1.88s-2.05.82-2.05,1.92Z"/><path class="cls-2" d="m330.96,36.91c.37-.45.55-.61.99-.89.61-.38,1.06-.52,1.64-.52.46,0,.86.09,1.29.3q.26.13.91.55c.76.49,1.29.7,1.77.7.21,0,.5-.08.74-.19.43-.22.69-.44,1.04-.91l.8.8c-.41.52-.62.73-.95.97-.51.38-1.08.57-1.73.57-.3,0-.61-.05-.88-.14-.39-.13-.59-.23-1.37-.74-.88-.56-1.19-.68-1.72-.68-.65,0-1.11.24-1.74.92l-.79-.74Z"/><path class="cls-2" d="m341.85,41.83c-.93,0-1.13.01-1.55.06.07-.68.16-1.1.31-1.54.32-.88.86-1.64,1.64-2.35.42-.37.78-.65,1.98-1.45,1.1-.76,1.44-1.15,1.44-1.76,0-.81-.64-1.32-1.66-1.32-.7,0-1.22.24-1.52.71-.2.29-.29.55-.37,1.1l-1.71-.2c.17-.91.38-1.4.83-1.92.6-.7,1.55-1.07,2.75-1.07,2.1,0,3.39,1.01,3.39,2.65,0,.79-.26,1.37-.85,1.92-.34.31-.46.41-2.01,1.48-.53.37-1.13.88-1.43,1.2-.36.38-.5.62-.68,1.08h3.36c.76,0,1.36-.04,1.75-.1v1.58c-.56-.05-1.04-.07-1.81-.07h-3.85Z"/><path class="cls-2" d="m349.59,36.17c-.37-.38-.59-.97-.59-1.58,0-1.54,1.29-2.51,3.35-2.51,1.45,0,2.52.47,3.03,1.31.2.34.32.77.32,1.2,0,1.12-.64,1.93-1.73,2.24.54.07.9.23,1.3.56.56.46.84,1.08.84,1.87,0,1.79-1.34,2.77-3.8,2.77-1.39,0-2.35-.3-3.03-.96-.44-.43-.7-1.08-.7-1.8,0-.84.32-1.5.98-1.97.4-.28.7-.4,1.19-.48-.5-.13-.82-.31-1.16-.66Zm4.83,2.97c0-.99-.78-1.59-2.08-1.59s-2.09.61-2.09,1.61.77,1.56,2.06,1.56,2.1-.56,2.1-1.57Zm-3.81-4.39c0,.88.67,1.43,1.76,1.43s1.71-.54,1.71-1.42-.67-1.39-1.74-1.39-1.74.54-1.74,1.38Z"/><path class="cls-2" d="m331.01,46.41c0-.47-.02-.89-.06-1.28.38.05.78.06,1.33.06h5.8c.56,0,.94-.01,1.29-.06-.05.46-.06.8-.06,1.22v7.75c0,.62.02,1.02.07,1.45h-1.45v-.72h-5.58v.72h-1.43c.05-.41.07-.89.07-1.45v-7.69Zm1.36,2.83h5.58v-2.78h-5.58v2.78Zm0,4.33h5.58v-3.07h-5.58v3.07Z"/></g><g><path class="cls-2" d="m371.1,38.92c-.11.61-.2,1.01-.35,1.43-.32.91-.73,1.61-1.42,2.37-.35-.47-.65-.77-1.12-1.1.67-.67,1.01-1.21,1.28-2.11.36-1.12.48-2.52.48-5.64,0-.87-.01-1.39-.06-1.81.47.05.79.06,1.4.06h5c.66,0,.98-.01,1.39-.06-.05.32-.06.65-.06,1.36v7.77c0,.6-.13.95-.43,1.14-.26.18-.6.24-1.39.24-.38,0-.78-.01-1.39-.05-.07-.58-.14-.85-.35-1.34.61.1,1.27.14,1.76.14.36,0,.44-.06.44-.32v-2.07h-5.21Zm5.21-1.22v-1.61h-4.96c0,.37-.02.63-.1,1.61h5.06Zm0-2.83v-1.5h-4.95v1.5h4.95Z"/><path class="cls-2" d="m377.48,46.22c.78,0,1.14-.02,1.45-.08v1.38c-.37-.06-.76-.07-1.44-.07h-3.29v1.62h2.66c.77,0,1.15-.02,1.45-.07v1.34c-.4-.05-.85-.07-1.45-.07h-2.1c.59.84.95,1.24,1.7,1.87.89.73,1.81,1.32,2.81,1.75-.34.42-.56.78-.82,1.29-.97-.5-1.69-1.01-2.5-1.74-.79-.73-1.22-1.25-1.8-2.13.02.68.04.88.04,1.12v2c0,.47.02.9.08,1.28h-1.51c.06-.39.08-.74.08-1.28v-1.99c0-.38,0-.55.04-1.12-.98,1.57-2.22,2.72-4.11,3.81-.28-.53-.44-.79-.8-1.22,1.92-.96,3.25-2.09,4.29-3.65h-1.88c-.56,0-.98.03-1.43.07v-1.34c.42.06.74.07,1.43.07h2.47v-1.62h-3.03c-.65,0-1.03.01-1.44.07v-1.38c.4.06.74.08,1.43.08h3.05v-.78c0-.36-.01-.59-.06-.85h1.46c-.05.26-.06.43-.06.86v.77h3.27Z"/></g></g></svg>