<?xml version="1.0" encoding="UTF-8"?><svg id="_レイヤー_1" xmlns="http://www.w3.org/2000/svg" width="720" height="85" xmlns:xlink="http://www.w3.org/1999/xlink" viewBox="0 0 720 85"><defs><style>.cls-1{fill:url(#_新規グラデーションスウォッチ_1);}.cls-2{fill:#313131;}</style><linearGradient id="_新規グラデーションスウォッチ_1" x1="0" y1="42.5" x2="720" y2="42.5" gradientUnits="userSpaceOnUse"><stop offset=".05" stop-color="#f7dd49"/><stop offset=".08" stop-color="#f7dd49"/><stop offset=".14" stop-color="#8ed5b9"/><stop offset=".18" stop-color="#55d2f8"/><stop offset=".44" stop-color="#55d2f8"/><stop offset=".47" stop-color="#91d4ae"/><stop offset=".53" stop-color="#f6d934"/><stop offset=".56" stop-color="#f6d937"/><stop offset=".59" stop-color="#f6db42"/><stop offset=".6" stop-color="#f7dd49"/><stop offset=".62" stop-color="#f8d155"/><stop offset=".65" stop-color="#fbb477"/><stop offset=".67" stop-color="#ff9898"/><stop offset=".79" stop-color="#ff8c8c"/><stop offset=".83" stop-color="#f7dd49"/><stop offset=".91" stop-color="#f7dd49"/><stop offset=".92" stop-color="#f7dd49"/><stop offset=".95" stop-color="#fda884"/><stop offset=".96" stop-color="#ff9898"/></linearGradient></defs><rect class="cls-1" width="720" height="85"/><g><path class="cls-2" d="m18.72,50.01c.08-.54.11-1.08.11-1.8v-7.63h-.67c-.51,0-.91.03-1.42.08v-1.76c.43.07.73.08,1.38.08h1.27c.71,0,.91-.01,1.41-.07-.08.82-.11,1.45-.11,2.28v7c0,.73.03,1.23.11,1.8h-2.09Z"/><path class="cls-2" d="m23.44,44.42c.46-.55.68-.75,1.22-1.1.75-.47,1.3-.64,2.02-.64.57,0,1.06.11,1.59.37q.32.16,1.12.68c.94.6,1.59.86,2.18.86.26,0,.62-.1.91-.23.53-.27.85-.54,1.28-1.12l.99.99c-.5.64-.76.9-1.17,1.19-.63.47-1.33.7-2.13.7-.37,0-.75-.06-1.08-.17-.48-.16-.73-.28-1.69-.91-1.08-.69-1.46-.84-2.12-.84-.8,0-1.37.29-2.14,1.13l-.97-.91Z"/><path class="cls-2" d="m36.82,47c.18.64.3.86.65,1.13.46.36,1.01.54,1.67.54,1.37,0,2.24-.71,2.24-1.8,0-.64-.28-1.16-.78-1.45-.33-.19-.98-.33-1.59-.33s-1.01.01-1.48.07v-1.72c.44.05.75.07,1.34.07,1.38,0,2.2-.64,2.2-1.7,0-.96-.65-1.49-1.83-1.49-.68,0-1.18.15-1.51.43-.28.26-.42.5-.58,1.07l-1.98-.33c.35-1.02.66-1.51,1.31-1.98.71-.51,1.61-.76,2.71-.76,2.31,0,3.81,1.16,3.81,2.96,0,.83-.36,1.59-.96,2.03-.3.24-.61.35-1.34.54.98.15,1.5.39,1.98.93.46.51.66,1.09.66,1.91,0,.75-.32,1.51-.83,2.02-.76.73-1.92,1.12-3.4,1.12-1.62,0-2.73-.42-3.52-1.31-.35-.39-.53-.75-.78-1.55l1.98-.39Z"/><path class="cls-2" d="m45.48,41.34c0-.48-.02-.91-.06-1.32.39.05.8.06,1.37.06h5.96c.58,0,.96-.01,1.33-.06-.05.47-.06.83-.06,1.26v7.96c0,.64.02,1.05.07,1.49h-1.49v-.74h-5.73v.74h-1.46c.05-.42.07-.91.07-1.49v-7.89Zm1.39,2.91h5.73v-2.86h-5.73v2.86Zm0,4.45h5.73v-3.15h-5.73v3.15Z"/></g><g><path d="m495.84,50.01c-1.08,0-1.3.01-1.79.07.08-.79.18-1.27.36-1.77.37-1.01,1-1.9,1.9-2.71.48-.43.9-.75,2.28-1.67,1.27-.87,1.66-1.33,1.66-2.03,0-.94-.73-1.52-1.91-1.52-.8,0-1.41.28-1.76.82-.23.33-.33.64-.43,1.27l-1.98-.24c.19-1.05.44-1.62.95-2.21.69-.8,1.79-1.23,3.17-1.23,2.42,0,3.92,1.16,3.92,3.06,0,.91-.3,1.58-.98,2.21-.39.36-.53.47-2.32,1.7-.61.43-1.3,1.01-1.65,1.38-.42.44-.58.72-.79,1.25h3.88c.87,0,1.56-.04,2.02-.11v1.83c-.65-.06-1.2-.08-2.09-.08h-4.44Z"/><path d="m504.97,49.11c-.42-.42-.73-.9-.91-1.4-.36-.98-.54-2.06-.54-3.18,0-1.47.33-2.99.84-3.83.75-1.25,1.99-1.92,3.53-1.92,1.18,0,2.19.39,2.92,1.12.42.42.73.9.91,1.4.36.97.54,2.08.54,3.21,0,1.7-.37,3.2-1.02,4.1-.78,1.08-1.92,1.63-3.36,1.63-1.18,0-2.17-.39-2.91-1.12Zm4.41-1.07c.62-.65.97-1.94.97-3.56s-.35-2.86-.97-3.54c-.33-.37-.88-.58-1.51-.58-.66,0-1.15.22-1.55.71-.61.72-.91,1.85-.91,3.36s.26,2.66.71,3.29c.43.61,1.01.9,1.77.9.61,0,1.15-.21,1.49-.58Z"/><path d="m513.41,44.42c.46-.55.68-.75,1.22-1.1.75-.47,1.31-.64,2.02-.64.57,0,1.06.11,1.59.37q.32.16,1.12.68c.94.6,1.59.86,2.18.86.26,0,.62-.1.91-.23.53-.27.85-.54,1.28-1.12l.99.99c-.5.64-.76.9-1.17,1.19-.63.47-1.33.7-2.13.7-.37,0-.75-.06-1.08-.17-.48-.16-.73-.28-1.69-.91-1.08-.69-1.47-.84-2.12-.84-.8,0-1.37.29-2.14,1.13l-.97-.91Z"/><path d="m526.63,50.01c-1.08,0-1.3.01-1.79.07.08-.79.18-1.27.36-1.77.37-1.01,1-1.9,1.9-2.71.48-.43.9-.75,2.28-1.67,1.27-.87,1.66-1.33,1.66-2.03,0-.94-.73-1.52-1.91-1.52-.8,0-1.41.28-1.76.82-.23.33-.33.64-.43,1.27l-1.98-.24c.19-1.05.44-1.62.96-2.21.69-.8,1.79-1.23,3.17-1.23,2.42,0,3.92,1.16,3.92,3.06,0,.91-.3,1.58-.98,2.21-.39.36-.53.47-2.33,1.7-.61.43-1.3,1.01-1.65,1.38-.41.44-.58.72-.79,1.25h3.88c.87,0,1.56-.04,2.02-.11v1.83c-.65-.06-1.2-.08-2.09-.08h-4.44Z"/><path d="m536.38,47.14c.12.4.22.58.42.8.39.47.97.71,1.7.71,1.37,0,2.27-.91,2.27-2.28s-.86-2.23-2.17-2.23c-.68,0-1.29.22-1.72.64-.19.19-.29.32-.41.62l-1.73-.17c.14-.98.15-1.05.18-1.44l.32-3.43c.01-.25.04-.72.06-1.41.42.03.73.04,1.47.04h3.41c.95,0,1.3-.01,1.92-.11v1.74c-.61-.08-1.15-.11-1.91-.11h-3.25l-.22,2.42c-.01.11-.04.3-.08.58.68-.58,1.41-.84,2.37-.84,1.12,0,2.02.33,2.7,1.04.68.66.98,1.49.98,2.6,0,2.44-1.59,3.94-4.17,3.94-1.37,0-2.39-.39-3.15-1.2-.37-.4-.57-.73-.87-1.51l1.91-.4Z"/><path d="m544.71,41.34c0-.48-.02-.91-.06-1.32.39.05.8.06,1.37.06h5.96c.58,0,.96-.01,1.33-.06-.05.47-.06.83-.06,1.26v7.96c0,.64.03,1.05.07,1.49h-1.49v-.74h-5.73v.74h-1.47c.05-.42.07-.91.07-1.49v-7.89Zm1.39,2.91h5.73v-2.86h-5.73v2.86Zm0,4.45h5.73v-3.15h-5.73v3.15Z"/></g><g><path d="m603.23,50.01c-1.08,0-1.3.01-1.79.07.08-.79.18-1.27.36-1.77.37-1.01,1-1.9,1.9-2.71.48-.43.9-.75,2.28-1.67,1.27-.87,1.66-1.33,1.66-2.03,0-.94-.73-1.52-1.91-1.52-.8,0-1.41.28-1.76.82-.24.33-.33.64-.43,1.27l-1.98-.24c.19-1.05.44-1.62.96-2.21.69-.8,1.79-1.23,3.17-1.23,2.42,0,3.92,1.16,3.92,3.06,0,.91-.3,1.58-.98,2.21-.39.36-.53.47-2.33,1.7-.61.43-1.3,1.01-1.65,1.38-.42.44-.58.72-.79,1.25h3.88c.87,0,1.56-.04,2.02-.11v1.83c-.65-.06-1.2-.08-2.09-.08h-4.44Z"/><path d="m617.32,41.69c-.36-1.01-.87-1.4-1.85-1.4s-1.7.48-2.17,1.44c-.35.72-.5,1.38-.57,2.45.75-1.01,1.56-1.38,2.96-1.38s2.6.61,3.21,1.65c.33.54.5,1.26.5,2.08,0,2.19-1.66,3.74-4.01,3.74-1.11,0-2.13-.33-2.81-.91-1.02-.89-1.61-2.55-1.61-4.64,0-1.7.43-3.33,1.13-4.28.82-1.11,1.92-1.65,3.38-1.65,1.19,0,2.17.36,2.84,1.05.36.37.57.69.87,1.41l-1.87.44Zm-4.32,4.83c0,1.26.98,2.19,2.34,2.19.8,0,1.51-.36,1.9-.97.21-.32.32-.78.32-1.26,0-1.37-.82-2.17-2.19-2.17s-2.37.94-2.37,2.21Z"/><path d="m620.54,44.42c.46-.55.68-.75,1.22-1.1.75-.47,1.3-.64,2.02-.64.57,0,1.06.11,1.59.37q.32.16,1.12.68c.94.6,1.59.86,2.18.86.26,0,.62-.1.91-.23.53-.27.85-.54,1.28-1.12l.99.99c-.5.64-.76.9-1.17,1.19-.63.47-1.33.7-2.13.7-.37,0-.75-.06-1.08-.17-.48-.16-.73-.28-1.69-.91-1.08-.69-1.46-.84-2.12-.84-.8,0-1.37.29-2.14,1.13l-.97-.91Z"/><path d="m633.76,50.01c-1.08,0-1.3.01-1.79.07.08-.79.18-1.27.36-1.77.37-1.01,1-1.9,1.9-2.71.48-.43.9-.75,2.28-1.67,1.27-.87,1.66-1.33,1.66-2.03,0-.94-.73-1.52-1.91-1.52-.8,0-1.41.28-1.76.82-.24.33-.33.64-.43,1.27l-1.98-.24c.19-1.05.44-1.62.96-2.21.69-.8,1.79-1.23,3.17-1.23,2.42,0,3.92,1.16,3.92,3.06,0,.91-.3,1.58-.98,2.21-.39.36-.53.47-2.33,1.7-.61.43-1.3,1.01-1.65,1.38-.42.44-.58.72-.79,1.25h3.88c.87,0,1.56-.04,2.02-.11v1.83c-.65-.06-1.2-.08-2.09-.08h-4.44Z"/><path d="m642.68,43.47c-.43-.44-.68-1.12-.68-1.83,0-1.77,1.5-2.89,3.86-2.89,1.67,0,2.91.54,3.5,1.51.24.39.37.89.37,1.38,0,1.29-.73,2.23-1.99,2.59.62.08,1.04.26,1.5.65.65.53.97,1.25.97,2.16,0,2.06-1.55,3.2-4.39,3.2-1.61,0-2.71-.35-3.5-1.11-.51-.5-.8-1.25-.8-2.08,0-.97.37-1.73,1.13-2.27.46-.32.8-.46,1.37-.55-.58-.15-.94-.36-1.34-.76Zm5.58,3.43c0-1.15-.9-1.84-2.39-1.84s-2.41.71-2.41,1.85.89,1.8,2.38,1.8,2.42-.65,2.42-1.81Zm-4.4-5.07c0,1.01.78,1.65,2.03,1.65s1.98-.62,1.98-1.63-.78-1.61-2.01-1.61-2.01.62-2.01,1.59Z"/><path d="m652.21,41.34c0-.48-.02-.91-.06-1.32.39.05.8.06,1.37.06h5.96c.58,0,.96-.01,1.33-.06-.05.47-.06.83-.06,1.26v7.96c0,.64.02,1.05.07,1.49h-1.49v-.74h-5.73v.74h-1.46c.05-.42.07-.91.07-1.49v-7.89Zm1.39,2.91h5.73v-2.86h-5.73v2.86Zm0,4.45h5.73v-3.15h-5.73v3.15Z"/></g><g><path class="cls-2" d="m203.16,47.54c-.51-.07-.8-.08-1.38-.1h-.5v.98c0,.71.03,1.07.11,1.58h-1.96c.08-.48.11-.91.11-1.61v-.96h-3.83c-.82,0-1.26.01-1.73.06v-1.7c.47-.51.62-.69,1.11-1.27l3.28-4.01c.61-.73.83-1.02,1.15-1.52h1.87c-.08.8-.1,1.29-.1,2.34v4.54h.48c.55,0,.89-.03,1.4-.1v1.77Zm-3.61-4.53c0-.65.01-1.09.07-1.66-.28.4-.44.62-.94,1.23l-2.66,3.29h3.53v-2.87Z"/><path class="cls-2" d="m204,44.42c.46-.55.68-.75,1.22-1.1.75-.47,1.31-.64,2.02-.64.57,0,1.06.11,1.59.37q.32.16,1.12.68c.94.6,1.59.86,2.18.86.26,0,.62-.1.91-.23.53-.27.85-.54,1.28-1.12l.99.99c-.5.64-.76.9-1.17,1.19-.63.47-1.33.7-2.13.7-.37,0-.75-.06-1.08-.17-.48-.16-.73-.28-1.69-.91-1.08-.69-1.47-.84-2.12-.84-.8,0-1.37.29-2.14,1.13l-.97-.91Z"/><path class="cls-2" d="m218.09,50.01c.08-.54.11-1.08.11-1.8v-7.63h-.66c-.51,0-.91.03-1.43.08v-1.76c.43.07.73.08,1.38.08h1.27c.71,0,.91-.01,1.41-.07-.08.82-.11,1.45-.11,2.28v7c0,.73.03,1.23.11,1.8h-2.09Z"/><path class="cls-2" d="m225,47.14c.12.4.22.58.42.8.39.47.97.71,1.7.71,1.37,0,2.27-.91,2.27-2.28s-.86-2.23-2.17-2.23c-.68,0-1.29.22-1.72.64-.19.19-.29.32-.42.62l-1.73-.17c.14-.98.15-1.05.18-1.44l.32-3.43c.01-.25.04-.72.06-1.41.42.03.73.04,1.47.04h3.41c.95,0,1.3-.01,1.92-.11v1.74c-.61-.08-1.15-.11-1.91-.11h-3.25l-.22,2.42c-.01.11-.04.3-.08.58.68-.58,1.41-.84,2.37-.84,1.12,0,2.02.33,2.7,1.04.68.66.98,1.49.98,2.6,0,2.44-1.59,3.94-4.17,3.94-1.37,0-2.39-.39-3.16-1.2-.37-.4-.57-.73-.87-1.51l1.91-.4Z"/><path class="cls-2" d="m233.33,41.34c0-.48-.02-.91-.06-1.32.39.05.8.06,1.37.06h5.96c.58,0,.96-.01,1.33-.06-.05.47-.06.83-.06,1.26v7.96c0,.64.02,1.05.07,1.49h-1.49v-.74h-5.73v.74h-1.46c.05-.42.07-.91.07-1.49v-7.89Zm1.39,2.91h5.73v-2.86h-5.73v2.86Zm0,4.45h5.73v-3.15h-5.73v3.15Z"/></g><g><path class="cls-2" d="m388.32,50.01c.08-.54.11-1.08.11-1.8v-7.63h-.67c-.51,0-.91.03-1.42.08v-1.76c.43.07.73.08,1.38.08h1.27c.71,0,.91-.01,1.41-.07-.08.82-.11,1.45-.11,2.28v7c0,.73.03,1.23.11,1.8h-2.09Z"/><path class="cls-2" d="m399.75,41.69c-.36-1.01-.87-1.4-1.85-1.4s-1.7.48-2.17,1.44c-.35.72-.5,1.38-.57,2.45.75-1.01,1.56-1.38,2.96-1.38s2.6.61,3.21,1.65c.33.54.5,1.26.5,2.08,0,2.19-1.66,3.74-4.01,3.74-1.11,0-2.13-.33-2.81-.91-1.02-.89-1.61-2.55-1.61-4.64,0-1.7.43-3.33,1.13-4.28.82-1.11,1.92-1.65,3.38-1.65,1.19,0,2.17.36,2.84,1.05.36.37.57.69.87,1.41l-1.87.44Zm-4.32,4.83c0,1.26.98,2.19,2.34,2.19.8,0,1.51-.36,1.9-.97.21-.32.32-.78.32-1.26,0-1.37-.82-2.17-2.19-2.17s-2.37.94-2.37,2.21Z"/><path class="cls-2" d="m402.97,44.42c.46-.55.68-.75,1.22-1.1.75-.47,1.31-.64,2.02-.64.57,0,1.06.11,1.59.37q.32.16,1.12.68c.94.6,1.59.86,2.18.86.26,0,.62-.1.91-.23.53-.27.85-.54,1.28-1.12l.99.99c-.5.64-.76.9-1.17,1.19-.63.47-1.33.7-2.13.7-.37,0-.75-.06-1.08-.17-.48-.16-.73-.28-1.69-.91-1.08-.69-1.47-.84-2.12-.84-.8,0-1.37.29-2.14,1.13l-.97-.91Z"/><path class="cls-2" d="m417.07,50.01c.08-.54.11-1.08.11-1.8v-7.63h-.67c-.51,0-.91.03-1.42.08v-1.76c.43.07.73.08,1.38.08h1.27c.71,0,.91-.01,1.41-.07-.08.82-.11,1.45-.11,2.28v7c0,.73.03,1.23.11,1.8h-2.09Z"/><path class="cls-2" d="m424.13,47.33c.17.4.26.58.43.76.35.37.88.57,1.59.57.66,0,1.18-.18,1.56-.57.69-.66,1.01-1.66,1.08-3.29-.26.39-.42.55-.73.79-.62.43-1.33.64-2.24.64-2.3,0-3.76-1.41-3.76-3.64,0-1.41.62-2.56,1.76-3.25.64-.4,1.47-.61,2.42-.61,1.77,0,3.22,1.04,3.81,2.73.26.75.4,1.73.4,2.86,0,2.09-.55,3.92-1.47,4.8-.73.73-1.63,1.05-2.95,1.05-1.16,0-1.98-.25-2.67-.8-.47-.37-.73-.73-1.13-1.54l1.91-.5Zm4.35-4.86c0-1.3-.96-2.23-2.32-2.23s-2.26.94-2.26,2.27.86,2.21,2.2,2.21,2.38-.97,2.38-2.26Z"/><path class="cls-2" d="m432.64,41.34c0-.48-.02-.91-.06-1.32.39.05.8.06,1.37.06h5.96c.58,0,.96-.01,1.33-.06-.05.47-.06.83-.06,1.26v7.96c0,.64.02,1.05.07,1.49h-1.49v-.74h-5.73v.74h-1.47c.05-.42.07-.91.07-1.49v-7.89Zm1.39,2.91h5.73v-2.86h-5.73v2.86Zm0,4.45h5.73v-3.15h-5.73v3.15Z"/></g><g><path class="cls-2" d="m690.84,46.64c-.12.71-.24,1.16-.4,1.65-.37,1.05-.84,1.85-1.63,2.74-.4-.54-.75-.89-1.29-1.27.77-.78,1.16-1.4,1.48-2.44.42-1.29.55-2.91.55-6.5,0-1-.01-1.61-.07-2.09.54.06.91.07,1.62.07h5.77c.76,0,1.13-.01,1.61-.07-.06.37-.07.75-.07,1.56v8.97c0,.69-.15,1.09-.5,1.31-.3.21-.69.28-1.61.28-.44,0-.9-.01-1.61-.06-.08-.66-.17-.98-.4-1.55.71.11,1.47.17,2.03.17.42,0,.51-.07.51-.37v-2.39h-6.01Zm6.01-1.41v-1.85h-5.73c0,.43-.03.73-.11,1.85h5.84Zm0-3.27v-1.73h-5.72v1.73h5.72Z"/><path class="cls-2" d="m712.16,40.07c.9,0,1.32-.03,1.67-.1v1.59c-.43-.07-.87-.08-1.66-.08h-3.79v1.87h3.07c.89,0,1.33-.03,1.67-.08v1.55c-.46-.06-.98-.08-1.67-.08h-2.42c.68.97,1.09,1.42,1.97,2.16,1.02.84,2.09,1.52,3.24,2.02-.39.49-.65.9-.94,1.5-1.12-.58-1.95-1.16-2.88-2.01-.91-.84-1.41-1.44-2.08-2.46.03.79.04,1.01.04,1.29v2.31c0,.54.03,1.04.1,1.48h-1.74c.07-.46.1-.86.1-1.48v-2.3c0-.44,0-.64.04-1.29-1.14,1.81-2.56,3.14-4.75,4.4-.32-.61-.51-.91-.93-1.41,2.21-1.11,3.75-2.41,4.96-4.21h-2.17c-.65,0-1.13.03-1.65.08v-1.55c.48.07.86.08,1.65.08h2.85v-1.87h-3.5c-.75,0-1.19.01-1.66.08v-1.59c.46.07.86.1,1.65.1h3.52v-.9c0-.42-.01-.68-.07-.98h1.69c-.06.3-.07.5-.07,1v.89h3.78Z"/></g></svg>