<svg id="レイヤー_1" data-name="レイヤー 1" xmlns="http://www.w3.org/2000/svg" xmlns:xlink="http://www.w3.org/1999/xlink" width="44" height="24" viewBox="0 0 44 24"><defs><style>.cls-1{fill:#ff8c8c;}.cls-2{fill:url(#名称未設定グラデーション_283);}.cls-3{fill:#141236;}.cls-4{fill:none;}</style><radialGradient id="名称未設定グラデーション_283" cx="21.02" cy="12.03" r="12.05" gradientUnits="userSpaceOnUse"><stop offset="0.01" stop-color="#ffa3a3"/><stop offset="0.43" stop-color="#ff9191"/><stop offset="1" stop-color="#ff7d7d"/></radialGradient></defs><path class="cls-1" d="M35.94.11a2.54,2.54,0,0,1,2.65,1,2.57,2.57,0,0,1-.35,2.71c-1,1.38-3.61,2.09-6.07,1.27C32.43,2.48,34.24.42,35.94.11Z"/><path class="cls-1" d="M39.38,7.48A2,2,0,0,1,41.1,8.86a2,2,0,0,1-.9,1.93,4.38,4.38,0,0,1-4.78-.5C36.23,8.4,38.05,7.31,39.38,7.48Z"/><path class="cls-2" d="M21.6,2.1,23,.4A.75.75,0,0,1,24.3.7l.5,2.13a.75.75,0,0,0,1.05.51l2-.94a.76.76,0,0,1,1.06.85l-.47,2.13a.75.75,0,0,0,.73.92h2.18a.76.76,0,0,1,.59,1.22L30.57,9.25a.75.75,0,0,0,.26,1.14l2,1a.76.76,0,0,1,0,1.36l-2,1a.75.75,0,0,0-.26,1.14l1.35,1.72a.76.76,0,0,1-.59,1.22H29.15a.75.75,0,0,0-.73.92l.47,2.13a.76.76,0,0,1-1.06.85l-2-.94a.76.76,0,0,0-1.05.51l-.5,2.13a.75.75,0,0,1-1.32.3L21.6,22a.76.76,0,0,0-1.17,0l-1.37,1.7a.75.75,0,0,1-1.32-.3l-.5-2.13a.77.77,0,0,0-1.06-.51l-2,.94a.75.75,0,0,1-1-.85l.47-2.13a.76.76,0,0,0-.73-.92H10.7a.76.76,0,0,1-.59-1.22l1.35-1.72a.75.75,0,0,0-.26-1.14l-2-1a.76.76,0,0,1,0-1.36l2-1a.75.75,0,0,0,.26-1.14L10.11,7.53a.76.76,0,0,1,.59-1.22h2.19a.76.76,0,0,0,.73-.92l-.47-2.13a.75.75,0,0,1,1-.85l2,.94a.76.76,0,0,0,1.06-.51L17.74.7A.75.75,0,0,1,19.06.4l1.37,1.7A.76.76,0,0,0,21.6,2.1Z"/><path class="cls-3" d="M26.42,7.09a.48.48,0,0,1,.19.23.58.58,0,0,1-.1.52,1,1,0,0,1-.3.28c-.66.36-2.29.78-2.29,1s.75.25,2.07.73c.29.1.6.22.69.5a.67.67,0,0,1-.19.68.74.74,0,0,1-.61.14c-.45,0-3.39-.52-3.45-1.94S25.36,7.07,25.57,7A1,1,0,0,1,26.42,7.09Z"/><path class="cls-3" d="M15.61,7.09a.56.56,0,0,0-.19.23.66.66,0,0,0,.1.52.87.87,0,0,0,.31.28c.65.36,2.29.78,2.28,1s-.75.25-2.07.73c-.28.1-.6.22-.69.5a.65.65,0,0,0,.2.68.7.7,0,0,0,.6.14c.45,0,3.4-.52,3.45-1.94S16.67,7.07,16.46,7A1,1,0,0,0,15.61,7.09Z"/><path class="cls-3" d="M21,12.22a4.46,4.46,0,0,0-2.82,1.16,6,6,0,0,0-1.86,3,.53.53,0,0,0,.46.69h8.46a.51.51,0,0,0,.46-.64A5.59,5.59,0,0,0,24,13.32,4.45,4.45,0,0,0,21,12.22Z"/><rect class="cls-4" width="44" height="24"/></svg>