<?xml version="1.0" encoding="utf-8"?>
<!-- Generator: Adobe Illustrator 26.0.3, SVG Export Plug-In . SVG Version: 6.00 Build 0)  -->
<svg version="1.1" id="レイヤー_1" xmlns="http://www.w3.org/2000/svg" xmlns:xlink="http://www.w3.org/1999/xlink" x="0px"
	 y="0px" width="380px" height="294px" viewBox="0 0 380 294" style="enable-background:new 0 0 380 294;" xml:space="preserve">
<style type="text/css">
	.st0{fill:none;}
	.st1{fill:none;stroke:#E6E6E6;stroke-width:4;stroke-miterlimit:10;}
	.st2{fill:#F2F2F2;}
	.st3{fill:#313131;}
	.st4{fill:#222222;}
	.st5{fill:#333333;}
	.st6{fill:#7DE1AD;}
	.st7{fill:#13C96A;}
	.st8{fill:#808080;}
	.st9{fill:#FFFFFF;}
	.st10{fill:#35318F;}
	.st11{fill:#FFE2CC;}
	.st12{fill:#3A3A3A;}
	.st13{fill:#313131;stroke:#313131;stroke-width:0.503;stroke-linecap:round;stroke-linejoin:round;stroke-miterlimit:10;}
	.st14{fill:#35318D;}
	.st15{fill:#FFFFFF;stroke:#FFFFFF;stroke-width:3.7039;stroke-linecap:round;stroke-linejoin:round;stroke-miterlimit:10;}
	.st16{fill:none;stroke:#35318F;stroke-width:1.0095;stroke-linecap:round;stroke-linejoin:round;stroke-miterlimit:10;}
</style>
<rect class="st0" width="380" height="294"/>
<line class="st1" x1="190.7" y1="127" x2="190.7" y2="162.3"/>
<path class="st2" d="M337.7,138.5h-296c-1.1,0-2-0.9-2-2v-82c0-1.1,0.9-2,2-2h296c1.1,0,2,0.9,2,2v82
	C339.7,137.6,338.8,138.5,337.7,138.5z"/>
<g>
	<g>
		<path class="st3" d="M29.6,239.8c0.9,0.8,1.6,2.5,1.6,4.2c0,0.7-0.1,1.2-0.3,1.5c-0.2,0.2-0.5,0.3-1,0.3c-0.3,0-0.8,0-1.3-0.1
			c0-0.3-0.1-0.5-0.2-0.7c0.5,0.1,1,0.2,1.4,0.2c0.6,0,0.7-0.3,0.7-1.3c0-0.3,0-0.5,0-0.8c-1.2,1-2.6,1.7-4.6,2.3
			c-0.1-0.3-0.2-0.4-0.4-0.6c2-0.5,3.7-1.3,4.9-2.4c-0.1-0.4-0.2-0.6-0.3-0.9c-1.1,0.8-2.5,1.4-4.1,1.9c-0.1-0.3-0.2-0.4-0.4-0.6
			c1-0.2,1.6-0.4,2.5-0.8c0.7-0.3,1.2-0.6,1.7-1c-0.2-0.4-0.4-0.6-0.6-0.8c-0.8,0.5-1.6,0.8-2.9,1.1c-0.2-0.3-0.2-0.4-0.4-0.6
			c1.7-0.4,2.8-0.8,3.8-1.5H28c-0.4,0-0.7,0-1.1,0.1v-0.7c0.3,0,0.6,0.1,1.1,0.1h4.7c0.5,0,0.8,0,1.1-0.1v0.7
			c-0.3,0-0.7-0.1-1.1-0.1h-1.2c0.2,1,0.4,1.4,0.7,2.1c0.8-0.6,1.5-1.2,1.7-1.6l0.6,0.5c-0.2,0.2-0.2,0.2-0.7,0.6
			c-0.4,0.3-0.7,0.6-1.3,1.1c0.7,1.2,1.5,2,2.9,2.8c-0.2,0.2-0.3,0.3-0.5,0.6c-0.9-0.6-1.3-1-1.8-1.5c-0.8-0.9-1.5-2.1-1.9-3.5
			c-0.1-0.3-0.1-0.5-0.3-1.1h-0.3C30.2,239.5,30,239.6,29.6,239.8L29.6,239.8z M29.8,236.6c0-0.2,0-0.4-0.1-0.7h0.9
			c0,0.2-0.1,0.4-0.1,0.7v0.4h3.3c0.5,0,0.8,0,1.1,0c0,0.2,0,0.4,0,0.7v0.7c0,0.3,0,0.5,0,0.7h-0.7v-1.5h-7.8v1.5h-0.7
			c0-0.3,0-0.4,0-0.8v-0.7c0-0.3,0-0.5,0-0.7c0.4,0,0.6,0,1.1,0h3V236.6z"/>
		<path class="st3" d="M38.1,237c0-0.4,0-0.7-0.1-1h0.8c-0.1,0.3-0.1,0.6-0.1,1v0.7h0.6c0.4,0,0.6,0,1-0.1v0.7c-0.3,0-0.5,0-1,0
			h-1.1v0.4c0,0.4,0,0.4,0,1.1h1.1c0.4,0,0.5,0,0.8,0c0,0.2,0,0.2,0,1.2c0,1.3-0.2,2.9-0.3,3.6c-0.2,0.9-0.4,1-1.2,1
			c-0.2,0-0.4,0-0.8-0.1c0-0.3,0-0.5-0.1-0.7c0.4,0.1,0.6,0.1,0.9,0.1c0.4,0,0.5-0.1,0.6-1c0.2-1,0.2-2.3,0.3-3.6h-1.2
			c-0.1,1.4-0.1,1.9-0.3,2.6c-0.2,1-0.6,1.9-1.3,2.7c-0.2-0.3-0.3-0.4-0.5-0.6c0.9-1.1,1.2-1.9,1.4-3.5c0.1-0.9,0.2-1.9,0.2-3.4
			h-0.3c-0.4,0-0.6,0-0.9,0.1v-0.7c0.3,0,0.6,0.1,1,0.1h0.9V237z M41.6,238c-0.3,0.7-0.6,1.1-1.2,1.7c-0.1-0.2-0.3-0.3-0.6-0.4
			c0.7-0.8,1.3-1.8,1.7-2.7c0.1-0.2,0.1-0.4,0.1-0.4c0-0.1,0-0.1,0-0.2l0.7,0.2c-0.1,0.3-0.1,0.3-0.2,0.4c-0.2,0.4-0.2,0.5-0.4,0.9
			H45c0.5,0,0.9,0,1.1-0.1v0.7c-0.3,0-0.6,0-1.1,0H41.6z M42,240.1c-0.3,0.5-0.5,0.7-0.9,1.2c-0.2-0.2-0.3-0.3-0.5-0.4
			c0.6-0.6,1-1.1,1.3-1.8c0.1-0.3,0.2-0.5,0.2-0.8l0.7,0.2c-0.1,0.1-0.2,0.4-0.3,0.7c0,0.1-0.1,0.1-0.1,0.2h2.4c0.4,0,0.6,0,0.9-0.1
			v0.7c-0.3,0-0.5-0.1-0.9-0.1h-1.1c0,1.1-0.1,1.1-0.1,1.6h1.6c0.4,0,0.7,0,1-0.1v0.7c-0.3,0-0.6-0.1-1-0.1h-1.5
			c0.3,0.7,0.5,1.1,1,1.6c0.5,0.6,1,0.9,1.9,1.3c-0.2,0.2-0.3,0.4-0.5,0.7c-0.9-0.5-1.4-0.9-2-1.6c-0.4-0.5-0.5-0.8-0.7-1.3
			c-0.2,0.6-0.4,1-0.8,1.5c-0.5,0.6-1.1,1.1-2.1,1.5c-0.1-0.3-0.2-0.4-0.4-0.6c0.9-0.3,1.7-0.9,2.2-1.6c0.3-0.4,0.4-0.8,0.5-1.3
			h-1.2c-0.4,0-0.7,0-1,0.1v-0.7c0.3,0,0.5,0.1,1,0.1h1.3c0.1-0.5,0.1-0.8,0.1-1.6H42z"/>
		<path class="st3" d="M52.6,236c0.5,0.8,1,1.3,1.8,2c1,0.8,2,1.4,3,1.8c-0.2,0.3-0.3,0.5-0.4,0.7c-1.1-0.5-2.2-1.2-3.1-1.9
			c-0.7-0.6-1.2-1.2-1.8-1.9c-0.5,0.7-1,1.2-1.7,1.8c-1,0.8-1.9,1.4-3,1.9c-0.1-0.2-0.3-0.5-0.5-0.6c1.1-0.5,2-1,2.9-1.8
			c0.8-0.6,1.3-1.2,1.7-2H52.6z M48.9,242.2c-0.5,0-0.9,0-1.3,0.1v-0.8c0.3,0,0.7,0.1,1.3,0.1h6.8c0.6,0,0.9,0,1.3-0.1v0.8
			c-0.3,0-0.7-0.1-1.3-0.1h-3.9c-0.6,1.3-0.8,1.7-1.4,2.6c1.5-0.1,2.7-0.2,4.3-0.4c-0.7-0.7-0.9-0.9-1.3-1.4l0.6-0.4
			c1.1,1,1.8,1.8,2.7,2.9l-0.6,0.5c-0.4-0.6-0.6-0.8-0.8-1.1c-2,0.3-3.6,0.4-5.3,0.6c-1.4,0.1-1.6,0.1-1.9,0.2l-0.1-0.8
			c0.2,0,0.4,0,0.6,0c0.2,0,0.2,0,1.2-0.1c0.6-1,1-1.6,1.4-2.7H48.9z M49.6,239.4c0.2,0,0.5,0,0.9,0H54c0.4,0,0.7,0,0.9,0v0.7
			c-0.2,0-0.5,0-0.9,0h-3.6c-0.3,0-0.6,0-0.9,0V239.4z"/>
		<path class="st3" d="M62,244.6c-0.6,0.4-0.9,0.6-1.6,0.9c-0.4,0.2-0.7,0.3-1.7,0.6c-0.2-0.3-0.3-0.4-0.5-0.6
			c1.4-0.2,2.4-0.7,3.2-1.3L62,244.6z M59.3,240.4c0-0.6,0-0.9,0-1.2c0.3,0,0.7,0,1.2,0H66c0.6,0,0.9,0,1.2,0c0,0.3,0,0.6,0,1.2v2.6
			l0,0.6v0.2c0,0.1,0,0.2,0,0.4c-0.3,0-0.7,0-1.2,0h-5.5c-0.6,0-0.9,0-1.2,0c0-0.2,0-0.2,0-1.2V240.4z M66.8,237.8
			c0,0.3,0,0.5,0,0.8c-0.3,0-0.7,0-1.2,0h-4.7c-0.5,0-0.9,0-1.2,0c0-0.3,0-0.5,0-0.8v-0.7c0-0.3,0-0.5,0-0.8c0.3,0,0.6,0.1,1.3,0.1
			h4.7c0.6,0,0.9,0,1.3-0.1c0,0.3,0,0.5,0,0.8V237.8z M60,240.7h6.5v-0.8H60V240.7z M60,242.1h6.5v-0.9H60V242.1z M60,243.5h6.5
			v-0.9H60V243.5z M60.4,237v1h5.7v-1H60.4z M65,244.1c0.9,0.6,1.9,1,3.3,1.3c-0.2,0.2-0.4,0.4-0.5,0.6c-1.7-0.5-2.3-0.7-3.3-1.5
			L65,244.1z"/>
		<path class="st3" d="M19.7,259c-0.8-0.9-1.2-1.5-1.5-2.4c-0.4-0.9-0.5-1.7-0.5-2.7s0.2-1.8,0.5-2.7c0.4-0.9,0.7-1.4,1.5-2.4h1
			c-0.9,0.9-1.3,1.4-1.7,2.3c-0.4,0.9-0.6,1.8-0.6,2.8s0.2,1.9,0.6,2.8c0.4,0.8,0.7,1.3,1.7,2.3H19.7z"/>
		<path class="st3" d="M22.7,252.3c1,0.4,1.8,0.8,2.8,1.4l-0.4,0.7c-0.8-0.6-1.8-1.1-2.8-1.5L22.7,252.3z M22.4,257.3
			c0.7,0,1.9-0.3,3-0.7c1.4-0.5,2.4-1.3,3.3-2.5c0.6-0.8,1-1.5,1.3-2.5c0.3,0.3,0.4,0.4,0.7,0.6c-1,2.3-2.3,3.8-4.2,4.7
			c-0.8,0.4-1.9,0.8-2.8,0.9c-0.2,0-0.4,0.1-0.6,0.1c-0.2,0-0.3,0.1-0.4,0.1L22.4,257.3z M23.6,249.7c1.1,0.4,1.8,0.8,2.7,1.4
			l-0.5,0.7c-0.8-0.6-1.9-1.2-2.7-1.5L23.6,249.7z"/>
		<path class="st3" d="M36.2,257.4h2.4c0.5,0,0.7,0,1-0.1v0.8c-0.3,0-0.6,0-1,0h-5.3c-0.5,0-0.7,0-1,0v-0.8c0.3,0.1,0.5,0.1,1,0.1
			h2.2v-3.8h-1.6c-0.5,0-0.7,0-1,0v-0.8c0.3,0,0.5,0.1,1,0.1h4c0.5,0,0.7,0,1-0.1v0.8c-0.3,0-0.4,0-1,0h-1.7V257.4z"/>
		<path class="st3" d="M45.7,251.9c0,0.2,0,0.2,0,0.8c0,1.8-0.3,2.9-1.1,3.9c-0.7,0.8-1.5,1.4-2.8,1.9c-0.2-0.4-0.2-0.5-0.5-0.7
			c0.9-0.3,1.4-0.5,2-1c1.2-0.9,1.6-2.1,1.6-4.2c0-0.3,0-0.4,0-0.6H45.7z M50.1,250.5c-0.1,0.1-0.1,0.2-0.3,0.4
			c-0.8,1.5-1.8,2.5-3.2,3.1c-0.2-0.3-0.3-0.4-0.5-0.6c0.8-0.3,1.2-0.6,1.7-1c0.5-0.5,0.9-1,1.2-1.6h-6.2c-0.6,0-0.9,0-1.3,0.1V250
			c0.4,0.1,0.7,0.1,1.3,0.1h5.9c0.7,0,0.7,0,0.9-0.1L50.1,250.5z"/>
		<path class="st3" d="M56.5,249c0.5,0.8,1,1.3,1.8,2c1,0.8,2,1.4,3,1.8c-0.2,0.3-0.3,0.5-0.4,0.7c-1.1-0.5-2.2-1.2-3.1-1.9
			c-0.7-0.6-1.2-1.2-1.8-1.9c-0.5,0.7-1,1.2-1.7,1.8c-1,0.8-1.9,1.4-3,1.9c-0.1-0.2-0.3-0.5-0.5-0.6c1.1-0.5,2-1,2.9-1.8
			c0.8-0.6,1.3-1.2,1.7-2H56.5z M52.8,255.2c-0.5,0-0.9,0-1.3,0.1v-0.8c0.3,0,0.7,0.1,1.3,0.1h6.8c0.6,0,0.9,0,1.3-0.1v0.8
			c-0.3,0-0.7-0.1-1.3-0.1h-3.9c-0.6,1.3-0.8,1.7-1.4,2.6c1.5-0.1,2.7-0.2,4.3-0.4c-0.7-0.7-0.9-0.9-1.3-1.4l0.6-0.4
			c1.1,1,1.8,1.8,2.7,2.9l-0.6,0.5c-0.4-0.6-0.6-0.8-0.8-1.1c-2,0.3-3.6,0.4-5.3,0.6c-1.4,0.1-1.6,0.1-1.9,0.2l-0.1-0.8
			c0.2,0,0.4,0,0.6,0c0.2,0,0.2,0,1.2-0.1c0.6-1,1-1.6,1.4-2.7H52.8z M53.5,252.4c0.2,0,0.5,0,0.9,0h3.6c0.4,0,0.7,0,0.9,0v0.7
			c-0.2,0-0.5,0-0.9,0h-3.6c-0.3,0-0.6,0-0.9,0V252.4z"/>
		<path class="st3" d="M66,257.6c-0.6,0.4-0.9,0.6-1.6,0.9c-0.4,0.2-0.7,0.3-1.7,0.6c-0.2-0.3-0.3-0.4-0.5-0.6
			c1.4-0.2,2.4-0.7,3.2-1.3L66,257.6z M63.4,253.4c0-0.6,0-0.9,0-1.2c0.3,0,0.7,0,1.2,0h5.5c0.6,0,0.9,0,1.2,0c0,0.3,0,0.6,0,1.2
			v2.6l0,0.6v0.2c0,0.1,0,0.2,0,0.4c-0.3,0-0.7,0-1.2,0h-5.5c-0.6,0-0.9,0-1.2,0c0-0.2,0-0.2,0-1.2V253.4z M70.9,250.8
			c0,0.3,0,0.5,0,0.8c-0.3,0-0.7,0-1.2,0H65c-0.5,0-0.9,0-1.2,0c0-0.3,0-0.5,0-0.8v-0.7c0-0.3,0-0.5,0-0.8c0.3,0,0.6,0.1,1.3,0.1
			h4.7c0.6,0,0.9,0,1.3-0.1c0,0.3,0,0.5,0,0.8V250.8z M64.1,253.7h6.5v-0.8h-6.5V253.7z M64.1,255.1h6.5v-0.9h-6.5V255.1z
			 M64.1,256.5h6.5v-0.9h-6.5V256.5z M64.5,250v1h5.7v-1H64.5z M69.1,257.1c0.9,0.6,1.9,1,3.3,1.3c-0.2,0.2-0.4,0.4-0.5,0.6
			c-1.7-0.5-2.3-0.7-3.3-1.5L69.1,257.1z"/>
		<path class="st3" d="M72.8,259c0.9-0.9,1.3-1.4,1.7-2.3c0.4-0.9,0.6-1.8,0.6-2.8s-0.2-1.9-0.6-2.8c-0.4-0.8-0.7-1.4-1.7-2.3h1
			c0.8,0.9,1.2,1.5,1.5,2.4c0.4,0.9,0.5,1.7,0.5,2.7s-0.2,1.8-0.5,2.7c-0.4,0.9-0.7,1.4-1.5,2.4H72.8z"/>
	</g>
</g>
<g>
	<g>
		<path class="st3" d="M126.8,239.8c0.9,0.8,1.6,2.5,1.6,4.2c0,0.7-0.1,1.2-0.3,1.5c-0.2,0.2-0.5,0.3-1,0.3c-0.3,0-0.8,0-1.3-0.1
			c0-0.3-0.1-0.5-0.2-0.7c0.5,0.1,1,0.2,1.4,0.2c0.6,0,0.7-0.3,0.7-1.3c0-0.3,0-0.5,0-0.8c-1.2,1-2.6,1.7-4.6,2.3
			c-0.1-0.3-0.2-0.4-0.4-0.6c2-0.5,3.7-1.3,4.9-2.4c-0.1-0.4-0.2-0.6-0.3-0.9c-1.1,0.8-2.5,1.4-4.1,1.9c-0.1-0.3-0.2-0.4-0.4-0.6
			c1-0.2,1.6-0.4,2.5-0.8c0.7-0.3,1.2-0.6,1.7-1c-0.2-0.4-0.4-0.6-0.6-0.8c-0.8,0.5-1.6,0.8-2.9,1.1c-0.2-0.3-0.2-0.4-0.4-0.6
			c1.7-0.4,2.8-0.8,3.8-1.5h-1.6c-0.4,0-0.7,0-1.1,0.1v-0.7c0.3,0,0.6,0.1,1.1,0.1h4.7c0.5,0,0.8,0,1.1-0.1v0.7
			c-0.3,0-0.7-0.1-1.1-0.1h-1.2c0.2,1,0.4,1.4,0.7,2.1c0.8-0.6,1.5-1.2,1.7-1.6l0.6,0.5c-0.2,0.2-0.2,0.2-0.7,0.6
			c-0.4,0.3-0.7,0.6-1.3,1.1c0.7,1.2,1.5,2,2.9,2.8c-0.2,0.2-0.3,0.3-0.5,0.6c-0.9-0.6-1.3-1-1.8-1.5c-0.8-0.9-1.5-2.1-1.9-3.5
			c-0.1-0.3-0.1-0.5-0.3-1.1h-0.3C127.4,239.5,127.3,239.6,126.8,239.8L126.8,239.8z M127,236.6c0-0.2,0-0.4-0.1-0.7h0.9
			c0,0.2-0.1,0.4-0.1,0.7v0.4h3.3c0.5,0,0.8,0,1.1,0c0,0.2,0,0.4,0,0.7v0.7c0,0.3,0,0.5,0,0.7h-0.7v-1.5h-7.8v1.5h-0.7
			c0-0.3,0-0.4,0-0.8v-0.7c0-0.3,0-0.5,0-0.7c0.4,0,0.6,0,1.1,0h3V236.6z"/>
		<path class="st3" d="M135.4,237c0-0.4,0-0.7-0.1-1h0.8c-0.1,0.3-0.1,0.6-0.1,1v0.7h0.6c0.4,0,0.6,0,1-0.1v0.7c-0.3,0-0.5,0-1,0
			h-1.1v0.4c0,0.4,0,0.4,0,1.1h1.1c0.4,0,0.5,0,0.8,0c0,0.2,0,0.2,0,1.2c0,1.3-0.2,2.9-0.3,3.6c-0.2,0.9-0.4,1-1.2,1
			c-0.2,0-0.4,0-0.8-0.1c0-0.3,0-0.5-0.1-0.7c0.4,0.1,0.6,0.1,0.9,0.1c0.4,0,0.5-0.1,0.6-1c0.2-1,0.2-2.3,0.3-3.6h-1.2
			c-0.1,1.4-0.1,1.9-0.3,2.6c-0.2,1-0.6,1.9-1.3,2.7c-0.2-0.3-0.3-0.4-0.5-0.6c0.9-1.1,1.2-1.9,1.4-3.5c0.1-0.9,0.2-1.9,0.2-3.4
			h-0.3c-0.4,0-0.6,0-0.9,0.1v-0.7c0.3,0,0.6,0.1,1,0.1h0.9V237z M138.8,238c-0.3,0.7-0.6,1.1-1.2,1.7c-0.1-0.2-0.3-0.3-0.6-0.4
			c0.7-0.8,1.3-1.8,1.7-2.7c0.1-0.2,0.1-0.4,0.1-0.4c0-0.1,0-0.1,0-0.2l0.7,0.2c-0.1,0.3-0.1,0.3-0.2,0.4c-0.2,0.4-0.2,0.5-0.4,0.9
			h3.1c0.5,0,0.9,0,1.1-0.1v0.7c-0.3,0-0.6,0-1.1,0H138.8z M139.2,240.1c-0.3,0.5-0.5,0.7-0.9,1.2c-0.2-0.2-0.3-0.3-0.5-0.4
			c0.6-0.6,1-1.1,1.3-1.8c0.1-0.3,0.2-0.5,0.2-0.8l0.7,0.2c-0.1,0.1-0.2,0.4-0.3,0.7c0,0.1-0.1,0.1-0.1,0.2h2.4c0.4,0,0.6,0,0.9-0.1
			v0.7c-0.3,0-0.5-0.1-0.9-0.1h-1.1c0,1.1-0.1,1.1-0.1,1.6h1.6c0.4,0,0.7,0,1-0.1v0.7c-0.3,0-0.6-0.1-1-0.1h-1.5
			c0.3,0.7,0.5,1.1,1,1.6c0.5,0.6,1,0.9,1.9,1.3c-0.2,0.2-0.3,0.4-0.5,0.7c-0.9-0.5-1.4-0.9-2-1.6c-0.4-0.5-0.5-0.8-0.7-1.3
			c-0.2,0.6-0.4,1-0.8,1.5c-0.5,0.6-1.1,1.1-2.1,1.5c-0.1-0.3-0.2-0.4-0.4-0.6c0.9-0.3,1.7-0.9,2.2-1.6c0.3-0.4,0.4-0.8,0.5-1.3
			h-1.2c-0.4,0-0.7,0-1,0.1v-0.7c0.3,0,0.5,0.1,1,0.1h1.3c0.1-0.5,0.1-0.8,0.1-1.6H139.2z"/>
		<path class="st3" d="M149.9,236c0.5,0.8,1,1.3,1.8,2c1,0.8,2,1.4,3,1.8c-0.2,0.3-0.3,0.5-0.4,0.7c-1.1-0.5-2.2-1.2-3.1-1.9
			c-0.7-0.6-1.2-1.2-1.8-1.9c-0.5,0.7-1,1.2-1.7,1.8c-1,0.8-1.9,1.4-3,1.9c-0.1-0.2-0.3-0.5-0.5-0.6c1.1-0.5,2-1,2.9-1.8
			c0.8-0.6,1.3-1.2,1.7-2H149.9z M146.1,242.2c-0.5,0-0.9,0-1.3,0.1v-0.8c0.3,0,0.7,0.1,1.3,0.1h6.8c0.6,0,0.9,0,1.3-0.1v0.8
			c-0.3,0-0.7-0.1-1.3-0.1H149c-0.6,1.3-0.8,1.7-1.4,2.6c1.5-0.1,2.7-0.2,4.3-0.4c-0.7-0.7-0.9-0.9-1.3-1.4l0.6-0.4
			c1.1,1,1.8,1.8,2.7,2.9l-0.6,0.5c-0.4-0.6-0.6-0.8-0.8-1.1c-2,0.3-3.6,0.4-5.3,0.6c-1.4,0.1-1.6,0.1-1.9,0.2l-0.1-0.8
			c0.2,0,0.4,0,0.6,0c0.2,0,0.2,0,1.2-0.1c0.6-1,1-1.6,1.4-2.7H146.1z M146.8,239.4c0.2,0,0.5,0,0.9,0h3.6c0.4,0,0.7,0,0.9,0v0.7
			c-0.2,0-0.5,0-0.9,0h-3.6c-0.3,0-0.6,0-0.9,0V239.4z"/>
		<path class="st3" d="M159.2,244.6c-0.6,0.4-0.9,0.6-1.6,0.9c-0.4,0.2-0.7,0.3-1.7,0.6c-0.2-0.3-0.3-0.4-0.5-0.6
			c1.4-0.2,2.4-0.7,3.2-1.3L159.2,244.6z M156.5,240.4c0-0.6,0-0.9,0-1.2c0.3,0,0.7,0,1.2,0h5.5c0.6,0,0.9,0,1.2,0
			c0,0.3,0,0.6,0,1.2v2.6l0,0.6v0.2c0,0.1,0,0.2,0,0.4c-0.3,0-0.7,0-1.2,0h-5.5c-0.6,0-0.9,0-1.2,0c0-0.2,0-0.2,0-1.2V240.4z
			 M164,237.8c0,0.3,0,0.5,0,0.8c-0.3,0-0.7,0-1.2,0h-4.7c-0.5,0-0.9,0-1.2,0c0-0.3,0-0.5,0-0.8v-0.7c0-0.3,0-0.5,0-0.8
			c0.3,0,0.6,0.1,1.3,0.1h4.7c0.6,0,0.9,0,1.3-0.1c0,0.3,0,0.5,0,0.8V237.8z M157.2,240.7h6.5v-0.8h-6.5V240.7z M157.2,242.1h6.5
			v-0.9h-6.5V242.1z M157.2,243.5h6.5v-0.9h-6.5V243.5z M157.6,237v1h5.7v-1H157.6z M162.2,244.1c0.9,0.6,1.9,1,3.3,1.3
			c-0.2,0.2-0.4,0.4-0.5,0.6c-1.7-0.5-2.3-0.7-3.3-1.5L162.2,244.1z"/>
		<path class="st3" d="M117,259c-0.8-0.9-1.2-1.5-1.5-2.4c-0.4-0.9-0.5-1.7-0.5-2.7s0.2-1.8,0.5-2.7c0.4-0.9,0.7-1.4,1.5-2.4h1
			c-0.9,0.9-1.3,1.4-1.7,2.3c-0.4,0.9-0.6,1.8-0.6,2.8s0.2,1.9,0.6,2.8c0.4,0.8,0.7,1.3,1.7,2.3H117z"/>
		<path class="st3" d="M119.9,252.3c1,0.4,1.8,0.8,2.8,1.4l-0.4,0.7c-0.8-0.6-1.8-1.1-2.8-1.5L119.9,252.3z M119.6,257.3
			c0.7,0,1.9-0.3,3-0.7c1.4-0.5,2.4-1.3,3.3-2.5c0.6-0.8,1-1.5,1.3-2.5c0.3,0.3,0.4,0.4,0.7,0.6c-1,2.3-2.3,3.8-4.2,4.7
			c-0.8,0.4-1.9,0.8-2.8,0.9c-0.2,0-0.4,0.1-0.6,0.1c-0.2,0-0.3,0.1-0.4,0.1L119.6,257.3z M120.8,249.7c1.1,0.4,1.8,0.8,2.7,1.4
			l-0.5,0.7c-0.8-0.6-1.9-1.2-2.7-1.5L120.8,249.7z"/>
		<path class="st3" d="M133.4,257.4h2.4c0.5,0,0.7,0,1-0.1v0.8c-0.3,0-0.6,0-1,0h-5.3c-0.5,0-0.7,0-1,0v-0.8c0.3,0.1,0.5,0.1,1,0.1
			h2.2v-3.8h-1.6c-0.5,0-0.7,0-1,0v-0.8c0.3,0,0.5,0.1,1,0.1h4c0.5,0,0.7,0,1-0.1v0.8c-0.3,0-0.4,0-1,0h-1.7V257.4z"/>
		<path class="st3" d="M143,251.9c0,0.2,0,0.2,0,0.8c0,1.8-0.3,2.9-1.1,3.9c-0.7,0.8-1.5,1.4-2.8,1.9c-0.2-0.4-0.2-0.5-0.5-0.7
			c0.9-0.3,1.4-0.5,2-1c1.2-0.9,1.6-2.1,1.6-4.2c0-0.3,0-0.4,0-0.6H143z M147.3,250.5c-0.1,0.1-0.1,0.2-0.3,0.4
			c-0.8,1.5-1.8,2.5-3.2,3.1c-0.2-0.3-0.3-0.4-0.5-0.6c0.8-0.3,1.2-0.6,1.7-1c0.5-0.5,0.9-1,1.2-1.6H140c-0.6,0-0.9,0-1.3,0.1V250
			c0.4,0.1,0.7,0.1,1.3,0.1h5.9c0.7,0,0.7,0,0.9-0.1L147.3,250.5z"/>
		<path class="st3" d="M153.7,249c0.5,0.8,1,1.3,1.8,2c1,0.8,2,1.4,3,1.8c-0.2,0.3-0.3,0.5-0.4,0.7c-1.1-0.5-2.2-1.2-3.1-1.9
			c-0.7-0.6-1.2-1.2-1.8-1.9c-0.5,0.7-1,1.2-1.7,1.8c-1,0.8-1.9,1.4-3,1.9c-0.1-0.2-0.3-0.5-0.5-0.6c1.1-0.5,2-1,2.9-1.8
			c0.8-0.6,1.3-1.2,1.7-2H153.7z M150,255.2c-0.5,0-0.9,0-1.3,0.1v-0.8c0.3,0,0.7,0.1,1.3,0.1h6.8c0.6,0,0.9,0,1.3-0.1v0.8
			c-0.3,0-0.7-0.1-1.3-0.1h-3.9c-0.6,1.3-0.8,1.7-1.4,2.6c1.5-0.1,2.7-0.2,4.3-0.4c-0.7-0.7-0.9-0.9-1.3-1.4l0.6-0.4
			c1.1,1,1.8,1.8,2.7,2.9L157,259c-0.4-0.6-0.6-0.8-0.8-1.1c-2,0.3-3.6,0.4-5.3,0.6c-1.4,0.1-1.6,0.1-1.9,0.2l-0.1-0.8
			c0.2,0,0.4,0,0.6,0c0.2,0,0.2,0,1.2-0.1c0.6-1,1-1.6,1.4-2.7H150z M150.7,252.4c0.2,0,0.5,0,0.9,0h3.6c0.4,0,0.7,0,0.9,0v0.7
			c-0.2,0-0.5,0-0.9,0h-3.6c-0.3,0-0.6,0-0.9,0V252.4z"/>
		<path class="st3" d="M163.3,257.6c-0.6,0.4-0.9,0.6-1.6,0.9c-0.4,0.2-0.7,0.3-1.7,0.6c-0.2-0.3-0.3-0.4-0.5-0.6
			c1.4-0.2,2.4-0.7,3.2-1.3L163.3,257.6z M160.6,253.4c0-0.6,0-0.9,0-1.2c0.3,0,0.7,0,1.2,0h5.5c0.6,0,0.9,0,1.2,0
			c0,0.3,0,0.6,0,1.2v2.6l0,0.6v0.2c0,0.1,0,0.2,0,0.4c-0.3,0-0.7,0-1.2,0h-5.5c-0.6,0-0.9,0-1.2,0c0-0.2,0-0.2,0-1.2V253.4z
			 M168.1,250.8c0,0.3,0,0.5,0,0.8c-0.3,0-0.7,0-1.2,0h-4.7c-0.5,0-0.9,0-1.2,0c0-0.3,0-0.5,0-0.8v-0.7c0-0.3,0-0.5,0-0.8
			c0.3,0,0.6,0.1,1.3,0.1h4.7c0.6,0,0.9,0,1.3-0.1c0,0.3,0,0.5,0,0.8V250.8z M161.3,253.7h6.5v-0.8h-6.5V253.7z M161.3,255.1h6.5
			v-0.9h-6.5V255.1z M161.3,256.5h6.5v-0.9h-6.5V256.5z M161.7,250v1h5.7v-1H161.7z M166.3,257.1c0.9,0.6,1.9,1,3.3,1.3
			c-0.2,0.2-0.4,0.4-0.5,0.6c-1.7-0.5-2.3-0.7-3.3-1.5L166.3,257.1z"/>
		<path class="st3" d="M170,259c0.9-0.9,1.3-1.4,1.7-2.3c0.4-0.9,0.6-1.8,0.6-2.8s-0.2-1.9-0.6-2.8c-0.4-0.8-0.7-1.4-1.7-2.3h1
			c0.8,0.9,1.2,1.5,1.5,2.4c0.4,0.9,0.5,1.7,0.5,2.7s-0.2,1.8-0.5,2.7c-0.4,0.9-0.7,1.4-1.5,2.4H170z"/>
	</g>
</g>
<g>
	<g>
		<path class="st3" d="M224,239.8c0.9,0.8,1.6,2.5,1.6,4.2c0,0.7-0.1,1.2-0.3,1.5c-0.2,0.2-0.5,0.3-1,0.3c-0.3,0-0.8,0-1.3-0.1
			c0-0.3-0.1-0.5-0.2-0.7c0.5,0.1,1,0.2,1.4,0.2c0.6,0,0.7-0.3,0.7-1.3c0-0.3,0-0.5,0-0.8c-1.2,1-2.6,1.7-4.6,2.3
			c-0.1-0.3-0.2-0.4-0.4-0.6c2-0.5,3.7-1.3,4.9-2.4c-0.1-0.4-0.2-0.6-0.3-0.9c-1.1,0.8-2.5,1.4-4.1,1.9c-0.1-0.3-0.2-0.4-0.4-0.6
			c1-0.2,1.6-0.4,2.5-0.8c0.7-0.3,1.2-0.6,1.7-1c-0.2-0.4-0.4-0.6-0.6-0.8c-0.8,0.5-1.6,0.8-2.9,1.1c-0.2-0.3-0.2-0.4-0.4-0.6
			c1.7-0.4,2.8-0.8,3.8-1.5h-1.6c-0.4,0-0.7,0-1.1,0.1v-0.7c0.3,0,0.6,0.1,1.1,0.1h4.7c0.5,0,0.8,0,1.1-0.1v0.7
			c-0.3,0-0.7-0.1-1.1-0.1h-1.2c0.2,1,0.4,1.4,0.7,2.1c0.8-0.6,1.5-1.2,1.7-1.6l0.6,0.5c-0.2,0.2-0.2,0.2-0.7,0.6
			c-0.4,0.3-0.7,0.6-1.3,1.1c0.7,1.2,1.5,2,2.9,2.8c-0.2,0.2-0.3,0.3-0.5,0.6c-0.9-0.6-1.3-1-1.8-1.5c-0.8-0.9-1.5-2.1-1.9-3.5
			c-0.1-0.3-0.1-0.5-0.3-1.1h-0.3C224.6,239.5,224.5,239.6,224,239.8L224,239.8z M224.3,236.6c0-0.2,0-0.4-0.1-0.7h0.9
			c0,0.2-0.1,0.4-0.1,0.7v0.4h3.3c0.5,0,0.8,0,1.1,0c0,0.2,0,0.4,0,0.7v0.7c0,0.3,0,0.5,0,0.7h-0.7v-1.5h-7.8v1.5h-0.7
			c0-0.3,0-0.4,0-0.8v-0.7c0-0.3,0-0.5,0-0.7c0.4,0,0.6,0,1.1,0h3V236.6z"/>
		<path class="st3" d="M232.6,237c0-0.4,0-0.7-0.1-1h0.8c-0.1,0.3-0.1,0.6-0.1,1v0.7h0.5c0.4,0,0.6,0,1-0.1v0.7c-0.3,0-0.5,0-1,0
			h-1.1v0.4c0,0.4,0,0.4,0,1.1h1.1c0.4,0,0.5,0,0.8,0c0,0.2,0,0.2,0,1.2c0,1.3-0.2,2.9-0.3,3.6c-0.2,0.9-0.4,1-1.2,1
			c-0.2,0-0.4,0-0.8-0.1c0-0.3,0-0.5-0.1-0.7c0.4,0.1,0.6,0.1,0.9,0.1c0.4,0,0.5-0.1,0.6-1c0.2-1,0.2-2.3,0.3-3.6h-1.2
			c-0.1,1.4-0.1,1.9-0.3,2.6c-0.2,1-0.6,1.9-1.3,2.7c-0.2-0.3-0.3-0.4-0.5-0.6c0.9-1.1,1.2-1.9,1.4-3.5c0.1-0.9,0.2-1.9,0.2-3.4
			h-0.3c-0.4,0-0.6,0-0.9,0.1v-0.7c0.3,0,0.6,0.1,1,0.1h0.9V237z M236,238c-0.3,0.7-0.6,1.1-1.2,1.7c-0.1-0.2-0.3-0.3-0.5-0.4
			c0.7-0.8,1.3-1.8,1.7-2.7c0.1-0.2,0.1-0.4,0.1-0.4c0-0.1,0-0.1,0-0.2l0.7,0.2c-0.1,0.3-0.1,0.3-0.2,0.4c-0.2,0.4-0.2,0.5-0.4,0.9
			h3.1c0.5,0,0.9,0,1.1-0.1v0.7c-0.3,0-0.6,0-1.1,0H236z M236.5,240.1c-0.3,0.5-0.5,0.7-0.9,1.2c-0.2-0.2-0.3-0.3-0.5-0.4
			c0.6-0.6,1-1.1,1.3-1.8c0.1-0.3,0.2-0.5,0.2-0.8l0.7,0.2c-0.1,0.1-0.2,0.4-0.3,0.7c0,0.1-0.1,0.1-0.1,0.2h2.4c0.4,0,0.6,0,0.9-0.1
			v0.7c-0.3,0-0.5-0.1-0.9-0.1h-1.1c0,1.1-0.1,1.1-0.1,1.6h1.6c0.4,0,0.7,0,1-0.1v0.7c-0.3,0-0.6-0.1-1-0.1h-1.5
			c0.3,0.7,0.5,1.1,1,1.6c0.5,0.6,1,0.9,1.9,1.3c-0.2,0.2-0.3,0.4-0.5,0.7c-0.9-0.5-1.4-0.9-2-1.6c-0.4-0.5-0.5-0.8-0.7-1.3
			c-0.2,0.6-0.4,1-0.8,1.5c-0.5,0.6-1.1,1.1-2.1,1.5c-0.1-0.3-0.2-0.4-0.4-0.6c0.9-0.3,1.7-0.9,2.2-1.6c0.3-0.4,0.4-0.8,0.5-1.3
			h-1.2c-0.4,0-0.7,0-1,0.1v-0.7c0.3,0,0.5,0.1,1,0.1h1.3c0.1-0.5,0.1-0.8,0.1-1.6H236.5z"/>
		<path class="st3" d="M247.1,236c0.5,0.8,1,1.3,1.8,2c1,0.8,2,1.4,3,1.8c-0.2,0.3-0.3,0.5-0.4,0.7c-1.1-0.5-2.2-1.2-3.1-1.9
			c-0.7-0.6-1.2-1.2-1.8-1.9c-0.5,0.7-1,1.2-1.7,1.8c-1,0.8-1.9,1.4-3,1.9c-0.1-0.2-0.3-0.5-0.5-0.6c1.1-0.5,2-1,2.9-1.8
			c0.8-0.6,1.3-1.2,1.8-2H247.1z M243.4,242.2c-0.5,0-0.9,0-1.3,0.1v-0.8c0.3,0,0.7,0.1,1.3,0.1h6.8c0.6,0,0.9,0,1.3-0.1v0.8
			c-0.3,0-0.7-0.1-1.3-0.1h-3.9c-0.6,1.3-0.8,1.7-1.4,2.6c1.5-0.1,2.7-0.2,4.3-0.4c-0.7-0.7-0.9-0.9-1.3-1.4l0.6-0.4
			c1.1,1,1.8,1.8,2.7,2.9l-0.6,0.5c-0.4-0.6-0.6-0.8-0.8-1.1c-2,0.3-3.6,0.4-5.3,0.6c-1.4,0.1-1.6,0.1-1.9,0.2l-0.1-0.8
			c0.2,0,0.4,0,0.6,0c0.2,0,0.2,0,1.2-0.1c0.6-1,1-1.6,1.4-2.7H243.4z M244.1,239.4c0.2,0,0.5,0,0.9,0h3.6c0.4,0,0.7,0,0.9,0v0.7
			c-0.2,0-0.5,0-0.9,0h-3.6c-0.3,0-0.6,0-0.9,0V239.4z"/>
		<path class="st3" d="M256.4,244.6c-0.6,0.4-0.9,0.6-1.6,0.9c-0.4,0.2-0.7,0.3-1.7,0.6c-0.2-0.3-0.3-0.4-0.5-0.6
			c1.4-0.2,2.4-0.7,3.2-1.3L256.4,244.6z M253.7,240.4c0-0.6,0-0.9,0-1.2c0.3,0,0.7,0,1.2,0h5.5c0.5,0,0.9,0,1.2,0
			c0,0.3,0,0.6,0,1.2v2.6l0,0.6v0.2c0,0.1,0,0.2,0,0.4c-0.3,0-0.7,0-1.2,0h-5.5c-0.6,0-0.9,0-1.2,0c0-0.2,0-0.2,0-1.2V240.4z
			 M261.3,237.8c0,0.3,0,0.5,0,0.8c-0.3,0-0.7,0-1.2,0h-4.7c-0.5,0-0.9,0-1.2,0c0-0.3,0-0.5,0-0.8v-0.7c0-0.3,0-0.5,0-0.8
			c0.3,0,0.6,0.1,1.3,0.1h4.7c0.6,0,0.9,0,1.3-0.1c0,0.3,0,0.5,0,0.8V237.8z M254.4,240.7h6.5v-0.8h-6.5V240.7z M254.4,242.1h6.5
			v-0.9h-6.5V242.1z M254.4,243.5h6.5v-0.9h-6.5V243.5z M254.9,237v1h5.7v-1H254.9z M259.4,244.1c0.9,0.6,1.9,1,3.3,1.3
			c-0.2,0.2-0.4,0.4-0.5,0.6c-1.7-0.5-2.3-0.7-3.3-1.5L259.4,244.1z"/>
		<path class="st3" d="M214.2,259c-0.8-0.9-1.2-1.5-1.5-2.4c-0.4-0.9-0.5-1.7-0.5-2.7s0.2-1.8,0.5-2.7c0.4-0.9,0.7-1.4,1.5-2.4h1
			c-0.9,0.9-1.3,1.4-1.7,2.3c-0.4,0.9-0.6,1.8-0.6,2.8s0.2,1.9,0.6,2.8c0.4,0.8,0.7,1.3,1.7,2.3H214.2z"/>
		<path class="st3" d="M217.2,252.3c1,0.4,1.8,0.8,2.8,1.4l-0.4,0.7c-0.8-0.6-1.8-1.1-2.8-1.5L217.2,252.3z M216.9,257.3
			c0.7,0,1.9-0.3,3-0.7c1.4-0.5,2.4-1.3,3.3-2.5c0.6-0.8,1-1.5,1.3-2.5c0.3,0.3,0.4,0.4,0.7,0.6c-1,2.3-2.3,3.8-4.2,4.7
			c-0.8,0.4-1.9,0.8-2.8,0.9c-0.2,0-0.4,0.1-0.6,0.1s-0.3,0.1-0.4,0.1L216.9,257.3z M218,249.7c1.1,0.4,1.8,0.8,2.7,1.4l-0.5,0.7
			c-0.8-0.6-1.9-1.2-2.7-1.5L218,249.7z"/>
		<path class="st3" d="M230.6,257.4h2.4c0.5,0,0.7,0,1-0.1v0.8c-0.3,0-0.5,0-1,0h-5.3c-0.5,0-0.7,0-1,0v-0.8c0.3,0.1,0.5,0.1,1,0.1
			h2.2v-3.8h-1.6c-0.5,0-0.7,0-1,0v-0.8c0.3,0,0.5,0.1,1,0.1h4c0.5,0,0.7,0,1-0.1v0.8c-0.3,0-0.4,0-1,0h-1.7V257.4z"/>
		<path class="st3" d="M240.2,251.9c0,0.2,0,0.2,0,0.8c0,1.8-0.3,2.9-1.1,3.9c-0.7,0.8-1.5,1.4-2.8,1.9c-0.2-0.4-0.2-0.5-0.5-0.7
			c0.9-0.3,1.4-0.5,2-1c1.2-0.9,1.6-2.1,1.6-4.2c0-0.3,0-0.4,0-0.6H240.2z M244.5,250.5c-0.1,0.1-0.1,0.2-0.3,0.4
			c-0.8,1.5-1.8,2.5-3.2,3.1c-0.2-0.3-0.3-0.4-0.5-0.6c0.8-0.3,1.2-0.6,1.7-1c0.5-0.5,0.9-1,1.2-1.6h-6.2c-0.6,0-0.9,0-1.3,0.1V250
			c0.4,0.1,0.7,0.1,1.3,0.1h5.9c0.7,0,0.7,0,0.9-0.1L244.5,250.5z"/>
		<path class="st3" d="M250.9,249c0.5,0.8,1,1.3,1.8,2c1,0.8,2,1.4,3,1.8c-0.2,0.3-0.3,0.5-0.4,0.7c-1.1-0.5-2.2-1.2-3.1-1.9
			c-0.7-0.6-1.2-1.2-1.8-1.9c-0.5,0.7-1,1.2-1.7,1.8c-1,0.8-1.9,1.4-3,1.9c-0.1-0.2-0.3-0.5-0.5-0.6c1.1-0.5,2-1,2.9-1.8
			c0.8-0.6,1.3-1.2,1.7-2H250.9z M247.2,255.2c-0.5,0-0.9,0-1.3,0.1v-0.8c0.3,0,0.7,0.1,1.3,0.1h6.8c0.6,0,0.9,0,1.3-0.1v0.8
			c-0.3,0-0.7-0.1-1.3-0.1H250c-0.6,1.3-0.8,1.7-1.4,2.6c1.5-0.1,2.7-0.2,4.3-0.4c-0.7-0.7-0.9-0.9-1.3-1.4l0.6-0.4
			c1.1,1,1.8,1.8,2.7,2.9l-0.6,0.5c-0.4-0.6-0.6-0.8-0.8-1.1c-2,0.3-3.6,0.4-5.3,0.6c-1.4,0.1-1.6,0.1-1.9,0.2l-0.1-0.8
			c0.2,0,0.4,0,0.6,0c0.2,0,0.2,0,1.2-0.1c0.6-1,1-1.6,1.4-2.7H247.2z M247.9,252.4c0.2,0,0.5,0,0.9,0h3.6c0.4,0,0.7,0,0.9,0v0.7
			c-0.2,0-0.5,0-0.9,0h-3.6c-0.3,0-0.6,0-0.9,0V252.4z"/>
		<path class="st3" d="M260.5,257.6c-0.6,0.4-0.9,0.6-1.6,0.9c-0.4,0.2-0.7,0.3-1.7,0.6c-0.2-0.3-0.3-0.4-0.5-0.6
			c1.4-0.2,2.4-0.7,3.2-1.3L260.5,257.6z M257.8,253.4c0-0.6,0-0.9,0-1.2c0.3,0,0.7,0,1.2,0h5.5c0.5,0,0.9,0,1.2,0
			c0,0.3,0,0.6,0,1.2v2.6l0,0.6v0.2c0,0.1,0,0.2,0,0.4c-0.3,0-0.7,0-1.2,0H259c-0.6,0-0.9,0-1.2,0c0-0.2,0-0.2,0-1.2V253.4z
			 M265.3,250.8c0,0.3,0,0.5,0,0.8c-0.3,0-0.7,0-1.2,0h-4.7c-0.5,0-0.9,0-1.2,0c0-0.3,0-0.5,0-0.8v-0.7c0-0.3,0-0.5,0-0.8
			c0.3,0,0.6,0.1,1.3,0.1h4.7c0.6,0,0.9,0,1.3-0.1c0,0.3,0,0.5,0,0.8V250.8z M258.5,253.7h6.5v-0.8h-6.5V253.7z M258.5,255.1h6.5
			v-0.9h-6.5V255.1z M258.5,256.5h6.5v-0.9h-6.5V256.5z M258.9,250v1h5.7v-1H258.9z M263.5,257.1c0.9,0.6,1.9,1,3.3,1.3
			c-0.2,0.2-0.4,0.4-0.5,0.6c-1.7-0.5-2.3-0.7-3.3-1.5L263.5,257.1z"/>
		<path class="st3" d="M267.2,259c0.9-0.9,1.3-1.4,1.7-2.3c0.4-0.9,0.6-1.8,0.6-2.8s-0.2-1.9-0.6-2.8c-0.4-0.8-0.7-1.4-1.7-2.3h1
			c0.8,0.9,1.2,1.5,1.5,2.4c0.4,0.9,0.5,1.7,0.5,2.7s-0.2,1.8-0.5,2.7c-0.4,0.9-0.7,1.4-1.5,2.4H267.2z"/>
	</g>
</g>
<g>
	<g>
		<path class="st3" d="M321.3,239.8c0.9,0.8,1.6,2.5,1.6,4.2c0,0.7-0.1,1.2-0.3,1.5c-0.2,0.2-0.5,0.3-1,0.3c-0.3,0-0.8,0-1.3-0.1
			c0-0.3-0.1-0.5-0.2-0.7c0.5,0.1,1,0.2,1.4,0.2c0.6,0,0.7-0.3,0.7-1.3c0-0.3,0-0.5,0-0.8c-1.2,1-2.6,1.7-4.6,2.3
			c-0.1-0.3-0.2-0.4-0.4-0.6c2-0.5,3.7-1.3,4.9-2.4c-0.1-0.4-0.2-0.6-0.3-0.9c-1.1,0.8-2.5,1.4-4.1,1.9c-0.1-0.3-0.2-0.4-0.4-0.6
			c1-0.2,1.6-0.4,2.5-0.8c0.7-0.3,1.2-0.6,1.7-1c-0.2-0.4-0.4-0.6-0.6-0.8c-0.8,0.5-1.6,0.8-2.9,1.1c-0.2-0.3-0.2-0.4-0.4-0.6
			c1.7-0.4,2.8-0.8,3.8-1.5h-1.6c-0.4,0-0.7,0-1.1,0.1v-0.7c0.3,0,0.6,0.1,1.1,0.1h4.7c0.5,0,0.8,0,1.1-0.1v0.7
			c-0.3,0-0.7-0.1-1.1-0.1h-1.2c0.2,1,0.4,1.4,0.7,2.1c0.8-0.6,1.5-1.2,1.7-1.6l0.6,0.5c-0.2,0.2-0.2,0.2-0.7,0.6
			c-0.4,0.3-0.7,0.6-1.3,1.1c0.7,1.2,1.5,2,2.9,2.8c-0.2,0.2-0.3,0.3-0.5,0.6c-0.9-0.6-1.3-1-1.8-1.5c-0.8-0.9-1.5-2.1-1.9-3.5
			c-0.1-0.3-0.1-0.5-0.3-1.1h-0.3C321.8,239.5,321.7,239.6,321.3,239.8L321.3,239.8z M321.5,236.6c0-0.2,0-0.4-0.1-0.7h0.9
			c0,0.2-0.1,0.4-0.1,0.7v0.4h3.3c0.5,0,0.8,0,1.1,0c0,0.2,0,0.4,0,0.7v0.7c0,0.3,0,0.5,0,0.7h-0.7v-1.5h-7.8v1.5h-0.7
			c0-0.3,0-0.4,0-0.8v-0.7c0-0.3,0-0.5,0-0.7c0.4,0,0.6,0,1.1,0h3V236.6z"/>
		<path class="st3" d="M329.8,237c0-0.4,0-0.7-0.1-1h0.8c-0.1,0.3-0.1,0.6-0.1,1v0.7h0.6c0.4,0,0.6,0,1-0.1v0.7c-0.3,0-0.5,0-1,0
			h-1.1v0.4c0,0.4,0,0.4,0,1.1h1.1c0.4,0,0.5,0,0.8,0c0,0.2,0,0.2,0,1.2c0,1.3-0.2,2.9-0.3,3.6c-0.2,0.9-0.4,1-1.2,1
			c-0.2,0-0.4,0-0.8-0.1c0-0.3,0-0.5-0.1-0.7c0.4,0.1,0.6,0.1,0.9,0.1c0.4,0,0.5-0.1,0.6-1c0.2-1,0.2-2.3,0.3-3.6h-1.2
			c-0.1,1.4-0.1,1.9-0.3,2.6c-0.2,1-0.6,1.9-1.3,2.7c-0.2-0.3-0.3-0.4-0.5-0.6c0.9-1.1,1.2-1.9,1.4-3.5c0.1-0.9,0.2-1.9,0.2-3.4
			h-0.3c-0.4,0-0.6,0-0.9,0.1v-0.7c0.3,0,0.6,0.1,1,0.1h0.9V237z M333.3,238c-0.3,0.7-0.6,1.1-1.2,1.7c-0.1-0.2-0.3-0.3-0.6-0.4
			c0.7-0.8,1.3-1.8,1.7-2.7c0.1-0.2,0.1-0.4,0.1-0.4c0-0.1,0-0.1,0-0.2l0.7,0.2c-0.1,0.3-0.1,0.3-0.2,0.4c-0.2,0.4-0.2,0.5-0.4,0.9
			h3.1c0.5,0,0.9,0,1.1-0.1v0.7c-0.3,0-0.6,0-1.1,0H333.3z M333.7,240.1c-0.3,0.5-0.5,0.7-0.9,1.2c-0.2-0.2-0.3-0.3-0.5-0.4
			c0.6-0.6,1-1.1,1.3-1.8c0.1-0.3,0.2-0.5,0.2-0.8l0.7,0.2c-0.1,0.1-0.2,0.4-0.3,0.7c0,0.1-0.1,0.1-0.1,0.2h2.4c0.4,0,0.6,0,0.9-0.1
			v0.7c-0.3,0-0.5-0.1-0.9-0.1h-1.1c0,1.1-0.1,1.1-0.1,1.6h1.6c0.4,0,0.7,0,1-0.1v0.7c-0.3,0-0.6-0.1-1-0.1h-1.5
			c0.3,0.7,0.5,1.1,1,1.6c0.5,0.6,1,0.9,1.9,1.3c-0.2,0.2-0.3,0.4-0.5,0.7c-0.9-0.5-1.4-0.9-2-1.6c-0.4-0.5-0.5-0.8-0.7-1.3
			c-0.2,0.6-0.4,1-0.8,1.5c-0.5,0.6-1.1,1.1-2.1,1.5c-0.1-0.3-0.2-0.4-0.4-0.6c0.9-0.3,1.7-0.9,2.2-1.6c0.3-0.4,0.4-0.8,0.5-1.3
			h-1.2c-0.4,0-0.7,0-1,0.1v-0.7c0.3,0,0.5,0.1,1,0.1h1.3c0.1-0.5,0.1-0.8,0.1-1.6H333.7z"/>
		<path class="st3" d="M344.3,236c0.5,0.8,1,1.3,1.8,2c1,0.8,2,1.4,3,1.8c-0.2,0.3-0.3,0.5-0.4,0.7c-1.1-0.5-2.2-1.2-3.1-1.9
			c-0.7-0.6-1.2-1.2-1.8-1.9c-0.5,0.7-1,1.2-1.7,1.8c-1,0.8-1.9,1.4-3,1.9c-0.1-0.2-0.3-0.5-0.5-0.6c1.1-0.5,2-1,2.9-1.8
			c0.8-0.6,1.3-1.2,1.7-2H344.3z M340.6,242.2c-0.5,0-0.9,0-1.3,0.1v-0.8c0.3,0,0.7,0.1,1.3,0.1h6.8c0.6,0,0.9,0,1.3-0.1v0.8
			c-0.3,0-0.7-0.1-1.3-0.1h-3.9c-0.6,1.3-0.8,1.7-1.4,2.6c1.5-0.1,2.7-0.2,4.3-0.4c-0.7-0.7-0.9-0.9-1.3-1.4l0.6-0.4
			c1.1,1,1.8,1.8,2.7,2.9l-0.6,0.5c-0.4-0.6-0.6-0.8-0.8-1.1c-2,0.3-3.6,0.4-5.3,0.6c-1.4,0.1-1.6,0.1-1.9,0.2l-0.1-0.8
			c0.2,0,0.4,0,0.6,0c0.2,0,0.2,0,1.2-0.1c0.6-1,1-1.6,1.4-2.7H340.6z M341.3,239.4c0.2,0,0.5,0,0.9,0h3.6c0.4,0,0.7,0,0.9,0v0.7
			c-0.2,0-0.5,0-0.9,0h-3.6c-0.3,0-0.6,0-0.9,0V239.4z"/>
		<path class="st3" d="M353.6,244.6c-0.6,0.4-0.9,0.6-1.6,0.9c-0.4,0.2-0.7,0.3-1.7,0.6c-0.2-0.3-0.3-0.4-0.5-0.6
			c1.4-0.2,2.4-0.7,3.2-1.3L353.6,244.6z M351,240.4c0-0.6,0-0.9,0-1.2c0.3,0,0.7,0,1.2,0h5.5c0.6,0,0.9,0,1.2,0c0,0.3,0,0.6,0,1.2
			v2.6l0,0.6v0.2c0,0.1,0,0.2,0,0.4c-0.3,0-0.7,0-1.2,0h-5.5c-0.6,0-0.9,0-1.2,0c0-0.2,0-0.2,0-1.2V240.4z M358.5,237.8
			c0,0.3,0,0.5,0,0.8c-0.3,0-0.7,0-1.2,0h-4.7c-0.5,0-0.9,0-1.2,0c0-0.3,0-0.5,0-0.8v-0.7c0-0.3,0-0.5,0-0.8c0.3,0,0.6,0.1,1.3,0.1
			h4.7c0.6,0,0.9,0,1.3-0.1c0,0.3,0,0.5,0,0.8V237.8z M351.7,240.7h6.5v-0.8h-6.5V240.7z M351.7,242.1h6.5v-0.9h-6.5V242.1z
			 M351.7,243.5h6.5v-0.9h-6.5V243.5z M352.1,237v1h5.7v-1H352.1z M356.7,244.1c0.9,0.6,1.9,1,3.3,1.3c-0.2,0.2-0.4,0.4-0.5,0.6
			c-1.7-0.5-2.3-0.7-3.3-1.5L356.7,244.1z"/>
		<path class="st3" d="M311.4,259c-0.8-0.9-1.2-1.5-1.5-2.4c-0.4-0.9-0.5-1.7-0.5-2.7s0.2-1.8,0.5-2.7c0.4-0.9,0.7-1.4,1.5-2.4h1
			c-0.9,0.9-1.3,1.4-1.7,2.3c-0.4,0.9-0.6,1.8-0.6,2.8s0.2,1.9,0.6,2.8c0.4,0.8,0.7,1.3,1.7,2.3H311.4z"/>
		<path class="st3" d="M314.4,252.3c1,0.4,1.8,0.8,2.8,1.4l-0.4,0.7c-0.8-0.6-1.8-1.1-2.8-1.5L314.4,252.3z M314.1,257.3
			c0.7,0,1.9-0.3,3-0.7c1.4-0.5,2.4-1.3,3.3-2.5c0.6-0.8,1-1.5,1.3-2.5c0.3,0.3,0.4,0.4,0.7,0.6c-1,2.3-2.3,3.8-4.2,4.7
			c-0.8,0.4-1.9,0.8-2.8,0.9c-0.2,0-0.4,0.1-0.6,0.1c-0.2,0-0.3,0.1-0.4,0.1L314.1,257.3z M315.2,249.7c1.1,0.4,1.8,0.8,2.7,1.4
			l-0.5,0.7c-0.8-0.6-1.9-1.2-2.7-1.5L315.2,249.7z"/>
		<path class="st3" d="M327.8,257.4h2.4c0.5,0,0.7,0,1-0.1v0.8c-0.3,0-0.6,0-1,0h-5.3c-0.5,0-0.7,0-1,0v-0.8c0.3,0.1,0.5,0.1,1,0.1
			h2.2v-3.8h-1.6c-0.5,0-0.7,0-1,0v-0.8c0.3,0,0.5,0.1,1,0.1h4c0.5,0,0.7,0,1-0.1v0.8c-0.3,0-0.4,0-1,0h-1.7V257.4z"/>
		<path class="st3" d="M337.4,251.9c0,0.2,0,0.2,0,0.8c0,1.8-0.3,2.9-1.1,3.9c-0.7,0.8-1.5,1.4-2.8,1.9c-0.2-0.4-0.2-0.5-0.5-0.7
			c0.9-0.3,1.4-0.5,2-1c1.2-0.9,1.6-2.1,1.6-4.2c0-0.3,0-0.4,0-0.6H337.4z M341.7,250.5c-0.1,0.1-0.1,0.2-0.3,0.4
			c-0.8,1.5-1.8,2.5-3.2,3.1c-0.2-0.3-0.3-0.4-0.5-0.6c0.8-0.3,1.2-0.6,1.7-1c0.5-0.5,0.9-1,1.2-1.6h-6.2c-0.6,0-0.9,0-1.3,0.1V250
			c0.4,0.1,0.7,0.1,1.3,0.1h5.9c0.7,0,0.7,0,0.9-0.1L341.7,250.5z"/>
		<path class="st3" d="M348.1,249c0.5,0.8,1,1.3,1.8,2c1,0.8,2,1.4,3,1.8c-0.2,0.3-0.3,0.5-0.4,0.7c-1.1-0.5-2.2-1.2-3.1-1.9
			c-0.7-0.6-1.2-1.2-1.8-1.9c-0.5,0.7-1,1.2-1.7,1.8c-1,0.8-1.9,1.4-3,1.9c-0.1-0.2-0.3-0.5-0.5-0.6c1.1-0.5,2-1,2.9-1.8
			c0.8-0.6,1.3-1.2,1.7-2H348.1z M344.4,255.2c-0.5,0-0.9,0-1.3,0.1v-0.8c0.3,0,0.7,0.1,1.3,0.1h6.8c0.6,0,0.9,0,1.3-0.1v0.8
			c-0.3,0-0.7-0.1-1.3-0.1h-3.9c-0.6,1.3-0.8,1.7-1.4,2.6c1.5-0.1,2.7-0.2,4.3-0.4c-0.7-0.7-0.9-0.9-1.3-1.4l0.6-0.4
			c1.1,1,1.8,1.8,2.7,2.9l-0.6,0.5c-0.4-0.6-0.6-0.8-0.8-1.1c-2,0.3-3.6,0.4-5.3,0.6c-1.4,0.1-1.6,0.1-1.9,0.2l-0.1-0.8
			c0.2,0,0.4,0,0.6,0c0.2,0,0.2,0,1.2-0.1c0.6-1,1-1.6,1.4-2.7H344.4z M345.1,252.4c0.2,0,0.5,0,0.9,0h3.6c0.4,0,0.7,0,0.9,0v0.7
			c-0.2,0-0.5,0-0.9,0H346c-0.3,0-0.6,0-0.9,0V252.4z"/>
		<path class="st3" d="M357.7,257.6c-0.6,0.4-0.9,0.6-1.6,0.9c-0.4,0.2-0.7,0.3-1.7,0.6c-0.2-0.3-0.3-0.4-0.5-0.6
			c1.4-0.2,2.4-0.7,3.2-1.3L357.7,257.6z M355,253.4c0-0.6,0-0.9,0-1.2c0.3,0,0.7,0,1.2,0h5.5c0.6,0,0.9,0,1.2,0c0,0.3,0,0.6,0,1.2
			v2.6l0,0.6v0.2c0,0.1,0,0.2,0,0.4c-0.3,0-0.7,0-1.2,0h-5.5c-0.6,0-0.9,0-1.2,0c0-0.2,0-0.2,0-1.2V253.4z M362.5,250.8
			c0,0.3,0,0.5,0,0.8c-0.3,0-0.7,0-1.2,0h-4.7c-0.5,0-0.9,0-1.2,0c0-0.3,0-0.5,0-0.8v-0.7c0-0.3,0-0.5,0-0.8c0.3,0,0.6,0.1,1.3,0.1
			h4.7c0.6,0,0.9,0,1.3-0.1c0,0.3,0,0.5,0,0.8V250.8z M355.7,253.7h6.5v-0.8h-6.5V253.7z M355.7,255.1h6.5v-0.9h-6.5V255.1z
			 M355.7,256.5h6.5v-0.9h-6.5V256.5z M356.2,250v1h5.7v-1H356.2z M360.7,257.1c0.9,0.6,1.9,1,3.3,1.3c-0.2,0.2-0.4,0.4-0.5,0.6
			c-1.7-0.5-2.3-0.7-3.3-1.5L360.7,257.1z"/>
		<path class="st3" d="M364.5,259c0.9-0.9,1.3-1.4,1.7-2.3c0.4-0.9,0.6-1.8,0.6-2.8s-0.2-1.9-0.6-2.8c-0.4-0.8-0.7-1.4-1.7-2.3h1
			c0.8,0.9,1.2,1.5,1.5,2.4c0.4,0.9,0.5,1.7,0.5,2.7s-0.2,1.8-0.5,2.7c-0.4,0.9-0.7,1.4-1.5,2.4H364.5z"/>
	</g>
</g>
<g>
	<g>
		<path class="st4" d="M151.5,7.9c-0.3,0.3-0.5,0.4-1,0.7c0.9,1.1,1.2,1.7,1.7,2.7c0.7,1.7,1.1,3.4,1.1,5.1c0,1.4-0.3,2.3-1,2.8
			c-0.5,0.4-1.2,0.5-2.4,0.5c-0.5,0-1.3,0-1.9-0.1c-0.1-1-0.2-1.5-0.6-2.3c-1.5,0.8-2.6,1.3-4.3,2c-0.6-1.1-0.8-1.5-1.5-2.2
			c3.3-0.9,6.3-2.3,8.5-4c-0.2-0.5-0.2-0.6-0.3-0.9c-1.9,1.3-4.2,2.3-6.8,3.2c-0.3-0.8-0.7-1.3-1.3-2c3.2-0.9,5.2-1.6,7.2-2.8
			c-0.2-0.3-0.3-0.4-0.5-0.7c-1.5,0.8-2.9,1.3-5.1,1.9c-0.3-0.7-0.6-1.3-1.2-2c2.5-0.4,4.4-1,5.8-1.8h-1.5c-0.7,0-1.4,0-2,0.1V6.9
			H142c0.1-0.5,0.1-0.8,0.1-1.5V4c0-0.6,0-1-0.1-1.4c0.6,0.1,1.2,0.1,2.3,0.1h5V2.3c0-0.5,0-0.8-0.1-1.2h2.9
			c-0.1,0.4-0.1,0.7-0.1,1.2v0.3h5.3c1.1,0,1.7,0,2.3-0.1c-0.1,0.4-0.1,0.8-0.1,1.4v1.5c0,0.6,0,1,0.1,1.4h-2.4V8
			c-0.6-0.1-1.2-0.1-2-0.1h-1c0.2,1.1,0.3,1.5,0.5,2.4c1-0.9,1.6-1.5,2.1-2.2l2.2,1.8c-0.1,0.1-0.1,0.1-0.3,0.2
			c-0.3,0.2-0.4,0.3-1,0.8c-0.6,0.5-1.7,1.4-2.1,1.6c1,1.7,2.3,2.8,4.4,3.9c-0.7,0.8-1.2,1.4-1.8,2.4c-2.7-2-3.9-3.5-5-5.8
			c-0.7-1.6-1.2-3.2-1.6-5.2H151.5z M157.2,4.9h-12.6v0.9c0.5,0,0.8,0.1,1.8,0.1h9c1.1,0,1.4,0,1.8-0.1V4.9z M147.6,17.3
			c1.3,0.2,1.3,0.2,1.8,0.2c1.1,0,1.3-0.3,1.3-1.7v-0.5C149.7,16,148.8,16.6,147.6,17.3z"/>
		<path class="st4" d="M176,9.6c0,0.8-0.1,1.2-0.1,1.7h2.2c0.8,0,1.3,0,1.8-0.1v2.5c-0.6-0.1-1-0.1-1.7-0.1H176
			c0.5,1,1.2,1.7,2.1,2.4c0.7,0.5,1.3,0.7,2.4,1.1c-0.7,1-1,1.5-1.2,2.7c-1.4-0.7-2.2-1.2-3.2-2.1c-0.8-0.7-1.2-1.3-1.6-2.1
			c-1.1,2-2.3,3.1-4.8,4.2c-0.4-1-0.7-1.6-1.3-2.3c-0.4,1.5-0.9,1.9-2.6,1.9c-0.2,0-0.6,0-1.1,0c0-1-0.2-1.7-0.4-2.5
			c-0.5,1.3-0.8,1.9-1.5,2.9c-0.6-1-1.1-1.5-1.8-2.2c1.6-2.5,2-4.7,2.1-11.5c-0.8,0-1.2,0-1.7,0.1V3.7c0.6,0.1,1.1,0.1,1.9,0.1h0.9
			V3c0-0.7,0-1.2-0.1-1.7h2.8c-0.1,0.5-0.1,0.9-0.1,1.7v0.8h0.6c0.6,0,1.1,0,1.7-0.1v1.5c1.1-1.4,1.9-2.9,2.2-4.1l2.6,0.4
			c-0.2,0.5-0.5,1.2-0.8,1.7h4.8c0.8,0,1.5,0,2.1-0.1v2.6c-0.6-0.1-1.1-0.1-1.9-0.1h-6.3c-0.7,1.1-1.2,1.7-2.1,2.6
			c-0.6-0.7-1.1-1-2-1.6c0.2-0.2,0.3-0.2,0.5-0.4c-0.3,0-0.5,0-0.8,0h-1.8c0,0.9,0,1.6,0,1.9h1.9c0.6,0,1.1,0,1.6-0.1
			c0,0.5,0,0.5-0.1,2.9c0,2.8-0.2,5.1-0.5,6.6c1-0.4,1.5-0.6,2.1-1c1-0.7,1.7-1.7,2.2-2.8h-1.4c-0.7,0-1.3,0-1.8,0.1v-2.5
			c0.4,0.1,0.6,0.1,1.3,0.1c-0.5-0.6-1.1-1.3-1.6-1.7c1.3-1.1,1.8-1.7,2.4-2.7c0.3-0.5,0.5-1.1,0.6-1.4l2.3,0.6
			c-0.3,0.7-0.4,0.8-0.6,1.2h3.9c0.7,0,1,0,1.6-0.1v2.5c-0.5-0.1-0.9-0.1-1.6-0.1H176z M165.5,10.3c-0.2,2.8-0.5,5-1.1,6.6
			c0.4,0.1,0.9,0.1,1.1,0.1c0.6,0,0.7-0.1,0.9-1.2c0.2-1.3,0.3-3.3,0.3-5.5H165.5z M172.5,9.6c-0.6,0.7-0.8,1-1.6,1.7h0.6h1.9
			c0.1-0.6,0.1-1,0.1-1.7H172.5z"/>
		<path class="st4" d="M182.1,3.8c0.5,0,0.7,0,0.8,0c0.4,0,0.5,0,3.3-0.2c1.4-0.1,4.8-0.3,10.3-0.5c1.8-0.1,1.9-0.1,2.2-0.2L199,6
			c-0.2,0-0.3,0-0.5,0c-1.3,0-2.9,0.5-4.3,1.2c-2.3,1.3-3.6,3.1-3.6,5c0,1.5,0.9,2.6,2.6,3c0.9,0.3,2.2,0.5,3,0.5c0.1,0,0.3,0,0.5,0
			l-0.4,3.2c-0.3-0.1-0.3-0.1-0.7-0.1c-2.2-0.3-3.6-0.6-4.8-1.2c-2.1-1.1-3.2-2.8-3.2-5.1c0-2.7,1.4-4.9,4.2-6.5
			c-2,0.2-2.1,0.2-6.5,0.6c-1.1,0.1-2.2,0.2-2.9,0.4L182.1,3.8z M196.1,10.8c-0.5-1.1-1-1.9-1.7-2.8l1.7-0.8
			c0.7,0.8,1.1,1.5,1.7,2.7L196.1,10.8z M198.4,9.7c-0.5-1.1-0.9-1.8-1.6-2.7l1.7-0.7c0.7,0.9,1,1.3,1.7,2.6L198.4,9.7z"/>
		<path class="st4" d="M204.4,6.9c2.2,0.9,3.7,1.6,5.4,2.8l-1.5,2.7c-1.6-1.2-3.4-2.2-5.6-3L204.4,6.9z M203.3,15.8
			c1.8,0,3.9-0.5,6-1.3c2.5-1,4.1-2.2,5.7-4.4c1.1-1.4,1.7-2.6,2.3-4.4c1.1,1.2,1.5,1.5,2.5,2.1c-1,2.4-1.8,3.7-3.1,5.1
			c-2.7,3-6,4.7-11.1,5.7c-0.6,0.1-1,0.2-1.4,0.3L203.3,15.8z M205.9,2c2.2,0.8,3.8,1.6,5.5,2.6l-1.5,2.6c-2-1.3-3.7-2.1-5.5-2.8
			L205.9,2z"/>
		<path class="st4" d="M232.1,16h3.1c1.3,0,1.9,0,2.7-0.1v2.7c-0.7-0.1-1.5-0.1-2.8-0.1h-9c-1.5,0-1.6,0-2.5,0.1v-2.7
			c0.7,0.1,1.1,0.1,2.5,0.1h3.2V9.8h-2c-1.2,0-1.9,0-2.5,0.1V7.3c0.7,0.1,1.3,0.1,2.5,0.1h6.7c1.2,0,1.7,0,2.6-0.1v2.6
			c-0.8-0.1-1.4-0.1-2.6-0.1h-2V16z"/>
		<path class="st4" d="M259.8,4.4c-0.3,0.3-0.3,0.4-0.6,1c-1.4,3-3,4.9-5.7,6.4c-0.7-1-1.2-1.4-2.1-2c-0.1,2.2-0.4,3.5-1.2,4.9
			c-1.1,2.1-2.9,3.5-5.9,4.8c-0.6-1.3-0.9-1.7-1.9-2.7c2.2-0.7,3.6-1.6,4.7-2.9c1-1.3,1.4-2.8,1.4-5.5c0-0.7,0-0.9-0.1-1.3h3.2
			c-0.1,0.4-0.1,0.5-0.1,1.7c0,0.1,0,0.4,0,0.9c2.2-1,3.4-2.1,4.4-4H246c-1.2,0-2.2,0-3.1,0.1v-3c1,0.1,1.5,0.2,3.1,0.2h10.3
			c1.1,0,1.3,0,1.8-0.2L259.8,4.4z"/>
	</g>
</g>
<g>
	<path class="st1" d="M45.2,189.4v-23c0-1.7,1.3-3,3-3h283c1.7,0,3,1.3,3,3v23"/>
	<line class="st1" x1="145.3" y1="189.4" x2="145.3" y2="163.4"/>
	<line class="st1" x1="245.4" y1="189.4" x2="245.4" y2="163.4"/>
</g>
<g>
	<path class="st5" d="M179.3,85.6c1.2,1.1,2,3.2,2,5.4c0,0.9-0.1,1.5-0.4,1.9c-0.3,0.3-0.6,0.4-1.3,0.4c-0.4,0-1,0-1.7-0.1
		c0-0.4-0.1-0.6-0.2-0.9c0.7,0.1,1.3,0.2,1.8,0.2c0.7,0,0.9-0.3,0.9-1.7c0-0.4,0-0.6-0.1-1.1c-1.5,1.2-3.3,2.1-5.9,3
		c-0.2-0.3-0.3-0.5-0.5-0.8c2.5-0.6,4.7-1.7,6.3-3.1c-0.1-0.5-0.2-0.8-0.4-1.2c-1.4,1-3.2,1.8-5.2,2.4c-0.2-0.3-0.3-0.5-0.5-0.8
		c1.3-0.3,2-0.6,3.2-1.1c0.9-0.4,1.5-0.7,2.2-1.2c-0.3-0.4-0.5-0.7-0.8-1c-1,0.6-2.1,1-3.7,1.4c-0.2-0.4-0.3-0.5-0.5-0.7
		c2.2-0.5,3.6-1,4.9-1.9h-2.1c-0.5,0-0.9,0-1.4,0.1v-0.9c0.4,0.1,0.7,0.1,1.4,0.1h5.9c0.7,0,1,0,1.4-0.1v0.9c-0.4,0-0.8-0.1-1.4-0.1
		h-1.5c0.3,1.3,0.4,1.8,0.8,2.6c1-0.7,1.8-1.6,2.1-2.1l0.8,0.6c-0.3,0.3-0.3,0.3-0.8,0.8c-0.4,0.4-0.8,0.8-1.7,1.4
		c0.9,1.6,1.9,2.5,3.7,3.6c-0.2,0.2-0.4,0.4-0.7,0.8c-1.1-0.8-1.7-1.3-2.3-1.9c-1.1-1.2-1.9-2.7-2.4-4.4c-0.1-0.4-0.2-0.6-0.4-1.3
		h-0.4c-0.4,0.3-0.6,0.5-1,0.8L179.3,85.6z M179.5,81.5c0-0.3,0-0.6-0.1-0.9h1.1c-0.1,0.3-0.1,0.5-0.1,0.9v0.4h4.1
		c0.6,0,1,0,1.4-0.1c0,0.3-0.1,0.5-0.1,0.9v0.9c0,0.4,0,0.7,0.1,1h-0.9v-1.9h-9.9v1.9h-0.9c0-0.3,0.1-0.5,0.1-1v-0.9
		c0-0.4,0-0.6-0.1-0.9c0.4,0,0.8,0.1,1.4,0.1h3.9V81.5z"/>
	<path class="st5" d="M189.9,82c0-0.5,0-0.9-0.1-1.3h1c-0.1,0.4-0.1,0.8-0.1,1.3v0.9h0.7c0.5,0,0.8,0,1.2-0.1v0.9
		c-0.4,0-0.7-0.1-1.2-0.1H190v0.5c0,0.5,0,0.5-0.1,1.4h1.4c0.4,0,0.7,0,1-0.1c0,0.2,0,0.3-0.1,1.5c0,1.7-0.2,3.7-0.4,4.6
		c-0.2,1.1-0.4,1.3-1.5,1.3c-0.2,0-0.6,0-1-0.1c0-0.4-0.1-0.6-0.1-0.9c0.4,0.1,0.8,0.2,1.1,0.2c0.5,0,0.6-0.1,0.8-1.2
		c0.2-1.3,0.3-2.9,0.3-4.5h-1.6c-0.1,1.7-0.2,2.4-0.4,3.3c-0.3,1.2-0.8,2.4-1.7,3.5c-0.3-0.4-0.4-0.5-0.7-0.7
		c1.1-1.4,1.5-2.5,1.7-4.5c0.1-1.2,0.2-2.4,0.2-4.3h-0.4c-0.5,0-0.8,0-1.2,0.1v-0.9c0.4,0.1,0.7,0.1,1.2,0.1h1.1V82z M194.3,83.3
		c-0.4,0.8-0.8,1.4-1.5,2.2c-0.2-0.2-0.4-0.4-0.7-0.5c0.9-1,1.7-2.2,2.1-3.5c0.1-0.2,0.1-0.4,0.2-0.5c0-0.2,0-0.2,0-0.3l1,0.2
		c-0.1,0.3-0.1,0.4-0.2,0.5c-0.2,0.5-0.3,0.6-0.5,1.2h3.9c0.7,0,1.1,0,1.4-0.1v0.9c-0.4,0-0.8-0.1-1.4-0.1H194.3z M194.8,86
		c-0.4,0.6-0.6,1-1.1,1.5c-0.2-0.2-0.4-0.3-0.7-0.5c0.8-0.8,1.2-1.3,1.6-2.2c0.2-0.4,0.3-0.7,0.3-1l0.9,0.2c-0.1,0.2-0.3,0.6-0.4,1
		c0,0.1-0.1,0.2-0.1,0.3h3.1c0.5,0,0.8,0,1.1-0.1V86c-0.4-0.1-0.6-0.1-1.1-0.1h-1.5c-0.1,1.4-0.1,1.4-0.1,2h2c0.5,0,0.9,0,1.3-0.1v1
		c-0.4-0.1-0.7-0.1-1.3-0.1h-1.9c0.4,1,0.7,1.4,1.2,2c0.7,0.7,1.3,1.1,2.4,1.6c-0.3,0.3-0.4,0.5-0.6,0.9c-1.1-0.6-1.8-1.2-2.5-2.1
		c-0.5-0.6-0.7-1-1-1.7c-0.3,0.8-0.5,1.3-1,1.9c-0.7,0.8-1.4,1.4-2.6,1.9c-0.1-0.3-0.3-0.5-0.5-0.8c1.2-0.4,2.1-1.1,2.8-2.1
		c0.3-0.5,0.5-1,0.7-1.7h-1.6c-0.6,0-0.9,0-1.3,0.1v-0.9c0.4,0.1,0.7,0.1,1.3,0.1h1.7c0.1-0.7,0.1-1,0.1-2H194.8z"/>
	<path class="st5" d="M208,80.7c0.7,1,1.3,1.7,2.4,2.5c1.2,1,2.6,1.7,3.9,2.2c-0.3,0.3-0.4,0.6-0.5,0.9c-1.4-0.7-2.8-1.5-3.9-2.4
		c-0.9-0.8-1.6-1.5-2.2-2.4c-0.7,1-1.2,1.5-2.1,2.3c-1.2,1.1-2.4,1.8-3.8,2.5c-0.1-0.3-0.4-0.6-0.6-0.8c1.4-0.6,2.5-1.3,3.7-2.3
		c1-0.8,1.6-1.5,2.2-2.5H208z M203.3,88.6c-0.7,0-1.2,0-1.6,0.1v-1c0.4,0.1,0.9,0.1,1.6,0.1h8.6c0.7,0,1.2,0,1.6-0.1v1
		c-0.4-0.1-0.9-0.1-1.6-0.1h-5c-0.8,1.7-1,2.2-1.8,3.3c1.9-0.1,3.4-0.3,5.5-0.5c-0.8-0.9-1.1-1.2-1.7-1.7l0.7-0.4
		c1.4,1.3,2.3,2.4,3.4,3.7l-0.8,0.6c-0.5-0.8-0.7-1-1-1.4c-2.5,0.3-4.6,0.6-6.8,0.7c-1.7,0.1-2,0.2-2.4,0.3l-0.2-1.1
		c0.2,0,0.5,0,0.7,0c0.2,0,0.2,0,1.5-0.1c0.8-1.2,1.2-2.1,1.8-3.4H203.3z M204.2,85.1c0.3,0,0.6,0.1,1.1,0.1h4.5
		c0.5,0,0.9,0,1.2-0.1V86c-0.3,0-0.7-0.1-1.2-0.1h-4.5c-0.4,0-0.8,0-1.1,0.1V85.1z"/>
	<path class="st5" d="M219.6,91.6c-0.7,0.5-1.2,0.8-2,1.1c-0.5,0.2-0.9,0.3-2.1,0.7c-0.2-0.4-0.3-0.5-0.6-0.8c1.7-0.3,3.1-0.8,4-1.6
		L219.6,91.6z M216.2,86.3c0-0.7,0-1.1-0.1-1.5c0.4,0,0.9,0.1,1.6,0.1h7c0.7,0,1.2,0,1.6-0.1c0,0.4-0.1,0.8-0.1,1.5v3.3l0,0.8v0.2
		c0,0.1,0,0.2,0,0.5c-0.4,0-0.8-0.1-1.6-0.1h-7c-0.7,0-1.1,0-1.6,0.1c0-0.3,0-0.3,0.1-1.5V86.3z M225.8,83c0,0.4,0,0.7,0.1,1
		c-0.4,0-0.9,0-1.6,0h-6c-0.6,0-1.1,0-1.6,0c0-0.3,0.1-0.6,0.1-1v-0.9c0-0.4,0-0.6-0.1-1c0.4,0.1,0.8,0.1,1.6,0.1h5.9
		c0.8,0,1.1,0,1.6-0.1c0,0.4-0.1,0.6-0.1,1V83z M217.1,86.7h8.3v-1.1h-8.3V86.7z M217.1,88.5h8.3v-1.1h-8.3V88.5z M217.1,90.3h8.3
		v-1.1h-8.3V90.3z M217.6,81.9v1.3h7.2v-1.3H217.6z M223.5,91.1c1.1,0.8,2.5,1.3,4.2,1.7c-0.3,0.3-0.4,0.5-0.6,0.8
		c-2.1-0.6-2.9-1-4.2-1.9L223.5,91.1z"/>
	<path class="st5" d="M231.8,81.6c-0.2,0.6-0.4,1.3-0.6,2.2c-0.3,1.5-0.4,2.7-0.4,4.4c0,1.1,0,1.9,0.1,2.7c0.2-0.9,0.5-1.7,0.9-2.7
		l0.7,0.3c-0.6,1.4-1.1,3.1-1.1,3.9v0.2l-1,0.1c0-0.2,0-0.3-0.1-0.6c-0.3-1.5-0.4-2.5-0.4-4c0-2,0.2-3.5,0.6-5.5
		c0.1-0.7,0.2-0.8,0.2-1.1L231.8,81.6z M235.4,87.2c-0.7,0.8-1.1,1.4-1.1,2.1c0,1,0.9,1.5,2.7,1.5c1.3,0,2.5-0.2,3.2-0.5l0.1,1.1
		c-0.2,0-0.2,0-0.5,0.1c-1,0.2-1.9,0.3-2.9,0.3c-1.6,0-2.6-0.3-3.2-1.1c-0.3-0.3-0.4-0.8-0.4-1.3c0-0.9,0.4-1.6,1.2-2.6L235.4,87.2z
		 M233.6,83.1c0.6,0.2,1.3,0.2,2.4,0.2c1.6,0,2.8-0.1,3.8-0.4l0.1,1c0,0-0.3,0-1,0.1c-0.8,0.1-1.9,0.2-3,0.2c-0.8,0-1.3,0-2.2-0.1
		L233.6,83.1z"/>
	<path class="st5" d="M243.6,86.7c0.6,0.3,1.4,0.4,2.5,0.6c0.1-0.7,0.2-1.8,0.3-2.5c-0.7-0.1-1.3-0.2-2.1-0.4
		c-0.2,0-0.2-0.1-0.4-0.1l0.1-0.9c0.6,0.3,1.5,0.5,2.5,0.5c0.2-1.3,0.3-2.3,0.3-2.6v-0.1l1.1,0.1c-0.1,0.3-0.1,0.4-0.2,0.9
		c0,0.1,0,0.1-0.1,0.9c0,0.3-0.1,0.4-0.1,0.8c0.4,0,0.6,0,0.8,0c1,0,1.9-0.1,2.6-0.2l0,1c-0.3,0-0.3,0-1,0.1c-0.4,0-0.9,0.1-1.3,0.1
		c-0.2,0-0.5,0-1.2,0c-0.2,1.6-0.2,1.8-0.3,2.5c0.5,0,0.7,0,0.9,0c1,0,2-0.1,2.6-0.2l0,0.9c-0.1,0-0.2,0-0.4,0
		c-0.7,0.1-1.3,0.1-2,0.1c-0.4,0-0.6,0-1.2,0c0,0.1,0,0.1,0,0.3c0,0.3-0.1,0.8-0.1,1c0,0.8,0.2,1.3,0.6,1.7c0.4,0.4,1.1,0.6,2,0.6
		c1.9,0,3.1-1,3.1-2.5c0-0.9-0.4-1.7-1.3-2.4c0.5-0.1,0.6-0.1,1-0.3c1,1.1,1.3,1.8,1.3,2.8c0,2-1.7,3.3-4.1,3.3
		c-1.5,0-2.6-0.5-3.1-1.4c-0.3-0.5-0.4-1.1-0.4-1.9c0-0.3,0-0.6,0.1-0.9c0-0.2,0-0.2,0-0.3c-0.8-0.1-1.5-0.2-2.1-0.4
		c-0.2-0.1-0.3-0.1-0.4-0.1L243.6,86.7z"/>
	<path class="st5" d="M256,86.2c0.3,0.1,0.5,0.1,1,0.1h0.6c0.4,0,0.7,0,1.1-0.1c-0.1,0.4-0.1,0.8-0.1,1.5v2.7
		c0.3,0.6,0.5,0.9,1.1,1.2c0.6,0.4,1.5,0.5,3.5,0.5c2.2,0,3.9-0.1,5.6-0.3c-0.2,0.4-0.3,0.7-0.3,1c-1.5,0.1-3.2,0.1-4.5,0.1
		c-2.8,0-3.6-0.1-4.5-0.6c-0.5-0.3-0.9-0.6-1.3-1.2c-0.4,0.5-0.6,0.7-1,1c-0.2,0.2-0.3,0.3-0.5,0.5c-0.2,0.1-0.2,0.2-0.4,0.3
		l-0.5-0.9c0.5-0.2,1.3-0.9,2-1.6v-3.4H257c-0.4,0-0.7,0-0.9,0.1V86.2z M256.8,80.9c1,0.9,1.5,1.5,2.2,2.5l-0.7,0.6
		c-0.7-1-1.2-1.7-2.2-2.5L256.8,80.9z M263.6,83.8c-0.5-0.4-1.2-0.8-1.9-1.2l0.6-0.4c0.7,0.4,1.1,0.7,1.9,1.2
		c1.1-0.6,1.4-0.8,2.2-1.5h-5.2c-0.6,0-1,0-1.4,0.1v-0.9c0.4,0.1,0.8,0.1,1.5,0.1h4.9c0.8,0,1.1,0,1.4-0.1l0.4,0.5
		c-0.1,0.1-0.2,0.1-0.4,0.3c-0.9,0.7-1.8,1.3-2.8,1.9h1.8c0.8,0,1.2,0,1.5-0.1c0,0.4-0.1,0.9-0.1,1.7V90c0,0.9-0.2,1.1-1.2,1.1
		c-0.3,0-0.6,0-1,0c0-0.3-0.1-0.5-0.2-0.8c0.5,0.1,0.8,0.1,1.2,0.1c0.3,0,0.4-0.1,0.4-0.4v-1.4h-2.9v0.9c0,0.7,0,1.1,0.1,1.5h-1
		c0.1-0.4,0.1-0.8,0.1-1.5v-0.9h-2.6v1.1c0,0.7,0,1.1,0.1,1.5h-1c0.1-0.3,0.1-0.8,0.1-1.5v-4.4c0-0.8,0-1.2-0.1-1.6
		c0.4,0.1,0.9,0.1,1.5,0.1H263.6z M260.9,84.5v1.4h2.6v-1.4H260.9z M260.9,87.9h2.6v-1.4h-2.6V87.9z M264.4,85.8h2.9v-1.4h-2.9V85.8
		z M267.3,86.5h-2.9v1.4h2.9V86.5z"/>
	<path class="st5" d="M272.2,91.7c0,0.6,0,1.2,0.1,1.6h-1c0.1-0.5,0.1-1,0.1-1.7V87c0-0.7,0-0.9,0-1.7c-0.4,0.8-0.6,1.2-1.3,2.1
		c-0.2-0.4-0.3-0.4-0.6-0.8c1-1.2,1.8-2.4,2.4-4c0.3-0.9,0.4-1.3,0.5-2l1,0.3c-0.1,0.2-0.2,0.4-0.3,0.8c-0.2,0.7-0.5,1.4-0.9,2.3
		V91.7z M273.2,83.2c0.4,0.1,0.7,0.1,1.2,0.1h6.7c0.6,0,1,0,1.3-0.1v1c-0.4-0.1-0.8-0.1-1.4-0.1h-6.7c-0.4,0-0.8,0-1.2,0.1V83.2z
		 M275,93.3h-0.9c0-0.3,0.1-0.8,0.1-1.3v-1.7c0-0.5,0-1-0.1-1.3c0.3,0,0.7,0.1,1.2,0.1h4.6c0.6,0,1,0,1.3-0.1c0,0.4-0.1,0.8-0.1,1.3
		v1.7c0,0.5,0,0.9,0.1,1.3h-0.9v-0.7H275V93.3z M281.2,86.1c-0.3-0.1-0.7-0.1-1.2-0.1h-4.7c-0.5,0-0.8,0-1.1,0.1v-0.9
		c0.3,0.1,0.6,0.1,1.1,0.1h4.6c0.5,0,0.9,0,1.2-0.1V86.1z M281.2,88c-0.4-0.1-0.7-0.1-1.2-0.1h-4.7c-0.5,0-0.8,0-1.1,0.1v-0.9
		c0.3,0.1,0.6,0.1,1.1,0.1h4.7c0.6,0,0.9,0,1.2-0.1V88z M281.2,82.2c-0.3,0-0.8-0.1-1.4-0.1h-4.3c-0.5,0-0.9,0-1.2,0.1v-0.9
		c0.4,0.1,0.7,0.1,1.2,0.1h4.3c0.7,0,1.1,0,1.4-0.1V82.2z M280.3,91.8v-1.9H275v1.9H280.3z"/>
	<path class="st5" d="M286.1,89c-0.1,0.1-0.1,0.1-0.3,0.2c-0.3,0.2-0.7,0.4-1.6,0.9c-0.2-0.4-0.3-0.6-0.5-0.8c1.3-0.5,2.3-1.1,3.4-2
		c1.1-0.9,1.8-1.6,2.4-2.6h0.9c0.7,1,1.4,1.8,2.7,2.7c1,0.7,1.8,1.2,3.2,1.8c-0.2,0.3-0.4,0.5-0.5,0.9c-0.9-0.5-1.4-0.8-2-1.2v3.2
		c0,0.4,0,0.9,0.1,1.2h-1v-0.7h-5.9v0.7h-1c0.1-0.4,0.1-0.8,0.1-1.3V89z M289.3,81.4c0-0.3,0-0.6-0.1-0.9h1.1
		c-0.1,0.3-0.1,0.5-0.1,0.9v0.4h4.2c0.5,0,1,0,1.4-0.1c0,0.3-0.1,0.6-0.1,1v0.9c0,0.4,0,0.7,0.1,1h-0.9v-1.9H285v1.9h-0.9
		c0-0.3,0.1-0.6,0.1-1v-0.9c0-0.4,0-0.7-0.1-1c0.4,0,0.9,0.1,1.4,0.1h3.8V81.4z M288.4,83.8c-0.7,0.8-1,1.2-1.7,1.8
		c-0.6,0.5-1,0.8-1.8,1.2c-0.2-0.3-0.3-0.4-0.7-0.7c0.7-0.3,1.1-0.5,1.7-1c0.7-0.5,1.1-0.9,1.7-1.8L288.4,83.8z M292.9,88.4
		c-1.4-1.1-2-1.6-2.9-2.9c-0.6,0.8-1,1.2-1.8,1.9c-0.5,0.4-0.5,0.5-1.3,1H292.9z M286.9,91.9h5.9v-2.7h-5.9V91.9z M291.9,83.3
		c1.2,1.3,1.9,1.9,3.6,2.6c-0.3,0.3-0.3,0.4-0.5,0.8c-1.7-0.9-2.4-1.4-3.8-2.9L291.9,83.3z"/>
	<path class="st5" d="M297.4,85c0.4,0.1,0.8,0.1,1.4,0.1h9.7c0.6,0,1,0,1.4-0.1v0.8c-0.4-0.1-0.7-0.1-1.4-0.1h-9.7
		c-0.7,0-1,0-1.4,0.1V85z M300.4,90c-0.6,0-0.9,0-1.3,0.1c0-0.4,0-0.5,0-1.1v-1.5c0-0.4,0-0.6,0-1c0.3,0,0.7,0.1,1.3,0.1h6.4
		c0.5,0,0.9,0,1.3-0.1c0,0.3,0,0.5,0,0.9v1.5c0,0.5,0,0.9,0,1.1c-0.5,0-0.9-0.1-1.3-0.1h-2.9v0.8h3.7c0.6,0,0.9,0,1.2-0.1v0.8
		c-0.4-0.1-0.7-0.1-1.2-0.1h-3.7v0.8h4.4c0.6,0,1,0,1.4-0.1V93c-0.4-0.1-0.8-0.1-1.4-0.1h-9.6c-0.6,0-1,0-1.4,0.1v-0.8
		c0.4,0.1,0.8,0.1,1.4,0.1h4.3v-0.8h-3.4c-0.6,0-0.9,0-1.2,0.1v-0.8c0.3,0.1,0.6,0.1,1.2,0.1h3.5V90H300.4z M300.2,84.4
		c-0.8,0-1,0-1.4,0c0-0.3,0.1-0.6,0.1-1.1v-1.3c0-0.4,0-0.7-0.1-1c0.4,0,0.8,0.1,1.4,0.1h6.8c0.6,0,1,0,1.4-0.1c0,0.3-0.1,0.6-0.1,1
		v1.3c0,0.4,0,0.7,0.1,1.1c-0.4,0-0.6,0-1.4,0H300.2z M299.7,82.4h7.8v-0.7h-7.8V82.4z M299.7,83.8h7.8v-0.7h-7.8V83.8z M299.9,87.1
		v0.8h3.2v-0.8H299.9z M299.9,88.5v0.8h3.2v-0.8H299.9z M303.9,87.9h3.4v-0.8h-3.4V87.9z M303.9,89.3h3.4v-0.8h-3.4V89.3z"/>
	<path class="st5" d="M179.5,107.6c-0.8,1.8-1.6,2.7-2.6,2.7c-1.3,0-2.3-1.5-2.3-3.4c0-1.4,0.5-2.8,1.5-3.9c1.1-1.2,2.6-1.9,4.5-1.9
		c1.6,0,2.9,0.5,3.9,1.4c0.9,0.9,1.4,2.1,1.4,3.4c0,2.2-1.2,4-3.2,4.8c-0.6,0.3-1.2,0.4-2.1,0.6c-0.1-0.5-0.2-0.6-0.5-0.9
		c1-0.2,1.7-0.3,2.3-0.7c1.5-0.7,2.5-2.2,2.5-3.9c0-1.6-0.8-2.9-2.2-3.5c-0.5-0.2-0.9-0.3-1.6-0.4
		C180.6,104,180.1,106.1,179.5,107.6z M177.8,102.7c-1.4,0.9-2.3,2.4-2.3,4.2c0,1.3,0.6,2.4,1.3,2.4c0.6,0,1.1-0.7,1.8-2
		c0.6-1.3,1.1-3.4,1.3-5.2C179,102.1,178.4,102.3,177.8,102.7z"/>
	<path class="st5" d="M189.4,103.9c1.3,0.5,2.3,1.1,3.6,1.8l-0.5,0.9c-1-0.7-2.3-1.4-3.6-1.9L189.4,103.9z M189,110.3
		c0.9,0,2.4-0.3,3.8-0.9c1.7-0.7,3.1-1.7,4.2-3.1c0.8-1,1.2-1.9,1.7-3.1c0.4,0.4,0.5,0.5,0.9,0.7c-1.2,2.9-2.9,4.8-5.4,6
		c-1,0.5-2.4,1-3.5,1.2c-0.2,0-0.5,0.1-0.8,0.2c-0.3,0.1-0.3,0.1-0.5,0.2L189,110.3z M190.5,100.6c1.4,0.6,2.3,1,3.5,1.8l-0.6,0.9
		c-1-0.7-2.4-1.5-3.4-1.8L190.5,100.6z"/>
	<path class="st5" d="M207.9,110.5h3c0.7,0,0.9,0,1.3-0.1v1c-0.3,0-0.7-0.1-1.3-0.1h-6.8c-0.6,0-0.9,0-1.3,0.1v-1
		c0.4,0.1,0.6,0.1,1.3,0.1h2.8v-4.8h-2c-0.6,0-0.9,0-1.2,0.1v-1c0.4,0.1,0.7,0.1,1.2,0.1h5.1c0.6,0,0.9,0,1.2-0.1v1
		c-0.4-0.1-0.5-0.1-1.2-0.1h-2.2V110.5z"/>
	<path class="st5" d="M221.5,103.4c0,0.3,0,0.3-0.1,1c0,2.3-0.4,3.7-1.4,4.9c-0.9,1.1-1.9,1.8-3.6,2.4c-0.2-0.4-0.3-0.6-0.6-0.9
		c1.1-0.3,1.8-0.7,2.6-1.3c1.5-1.2,2-2.6,2-5.4c0-0.4,0-0.5-0.1-0.8H221.5z M227,101.7c-0.1,0.2-0.2,0.2-0.3,0.6
		c-1,1.9-2.3,3.2-4.1,4c-0.2-0.4-0.3-0.5-0.7-0.8c1-0.4,1.6-0.7,2.2-1.3c0.6-0.6,1.2-1.3,1.6-2.1h-8c-0.8,0-1.1,0-1.7,0.1V101
		c0.5,0.1,0.9,0.1,1.7,0.1h7.5c0.9,0,0.9,0,1.2-0.1L227,101.7z"/>
	<path class="st5" d="M229,103.6c0.5,0,1-0.1,3.1-0.4c0.2-1,0.4-2.4,0.4-3v-0.2l1.1,0.1c-0.1,0.3-0.2,0.6-0.3,1.3
		c-0.1,0.4-0.2,1-0.3,1.6c0.3,0,0.5,0,0.8,0c1,0,1.6,0.2,2,0.6c0.5,0.5,0.7,1.1,0.7,2.3c0,2.1-0.4,4-0.9,4.8
		c-0.3,0.5-0.7,0.7-1.4,0.7c-0.6,0-1.2-0.2-2.1-0.5c0-0.2,0-0.3,0-0.5c0-0.2,0-0.3,0-0.5c0.8,0.4,1.6,0.6,2.1,0.6
		c0.4,0,0.6-0.2,0.8-0.7c0.4-0.9,0.6-2.3,0.6-3.9c0-1.5-0.4-2-1.7-2c-0.3,0-0.5,0-1,0.1c-0.6,2.6-1.6,5.1-3,7.6l-1-0.6
		c1.2-1.5,2.4-4.3,3-7c-1.8,0.3-2.2,0.3-2.8,0.5L229,103.6z M238.2,102.3c1.4,1.5,2.3,3.1,2.9,5l-0.9,0.5c-0.5-1.8-1.6-3.8-2.9-5
		L238.2,102.3z M238.9,100c0.6,0.8,1,1.3,1.4,2.2l-0.7,0.4c-0.4-0.7-1-1.8-1.4-2.2L238.9,100z M240.5,99.2c0.6,0.8,1,1.3,1.4,2.2
		l-0.7,0.4c-0.3-0.7-0.9-1.6-1.4-2.2L240.5,99.2z"/>
	<path class="st5" d="M243,102.1c0.3,0,0.4,0,0.5,0c0.2,0,0.4,0,0.8,0c0.8-0.1,0.9-0.1,2.6-0.2l2.2-0.1c1.7-0.1,1.9-0.1,2.4-0.1
		l0.8,0c1.2-0.1,1.5-0.1,1.7-0.2l0.1,1c-0.6,0-1,0.1-1.6,0.2c-0.9,0.2-1.9,0.7-2.7,1.4c-1.1,0.9-1.7,2.1-1.7,3.2
		c0,1.2,0.7,2.1,2,2.6c0.7,0.3,1.6,0.4,2.1,0.4h0.1l-0.2,1.1c-0.2,0-0.2,0-0.4-0.1c-1.4-0.2-2.2-0.5-3-1.1c-1-0.7-1.6-1.7-1.6-2.9
		c0-1.6,1-3.2,2.6-4.3c0.4-0.3,0.8-0.5,1.3-0.7c-0.8,0.1-1.6,0.2-3.1,0.3c-2.8,0.2-4.3,0.3-4.8,0.5L243,102.1z M252.3,104.1
		c0.6,0.8,1,1.3,1.4,2.2l-0.7,0.4c-0.3-0.7-1-1.8-1.4-2.2L252.3,104.1z M253.9,103.4c0.6,0.8,1,1.3,1.4,2.2l-0.7,0.4
		c-0.3-0.7-0.9-1.6-1.4-2.2L253.9,103.4z"/>
	<path class="st5" d="M257.5,102.3c0.3,0,0.6,0,1.1,0c1.2,0,2-0.1,3.3-0.2c-0.4-1.1-0.7-1.7-0.8-1.9l1-0.2c0.1,0.5,0.4,1.2,0.7,2
		c1.6-0.3,3-0.6,3.7-0.9l0.1,0.9c-1.2,0.3-2.7,0.7-3.5,0.8c0.2,0.5,0.6,1.2,0.8,1.6c1.8-0.4,2.6-0.6,3.2-0.9l0.1,0.9
		c-0.2,0.1-0.3,0.1-0.8,0.2c-1,0.3-1.7,0.4-2.2,0.5c0.8,1.3,1,1.5,2.1,2.8l-0.8,0.6c-0.5-0.3-0.9-0.4-1.5-0.5
		c-0.5-0.1-1.2-0.1-1.8-0.1c-2,0-3.3,0.6-3.3,1.6c0,0.9,1.1,1.4,3,1.4c1.5,0,3.3-0.4,4.1-0.9l0.2,1.1c-0.2,0-0.2,0-0.8,0.2
		c-1.1,0.3-2.3,0.5-3.6,0.5c-1.3,0-2.2-0.2-2.9-0.6c-0.7-0.4-1.1-1-1.1-1.7c0-1.5,1.6-2.4,4.3-2.4c1.2,0,1.9,0.1,2.8,0.4
		c-0.4-0.5-1-1.3-1.5-2.2c-1.4,0.3-2.3,0.3-4.9,0.4c-0.7,0-0.7,0-1,0.1l0-0.9c0.3,0,0.6,0,1.1,0c1.5,0,3.3-0.1,4.4-0.3
		c-0.4-0.7-0.4-0.8-0.8-1.6c-1.1,0.2-2.2,0.2-3.8,0.3c-0.6,0-0.6,0-0.9,0L257.5,102.3z"/>
	<path class="st5" d="M280.8,111.2c-0.6-0.7-1.7-1.4-2.9-2c-0.2-0.1-0.6-0.3-0.9-0.4c0,0.3,0,0.3,0,0.5c0,0.7-0.1,1.2-0.4,1.5
		c-0.4,0.6-1.3,0.9-2.4,0.9c-0.9,0-1.7-0.2-2.2-0.6c-0.5-0.4-0.8-0.9-0.8-1.5c0-0.9,0.7-1.7,2-1.9c0.4-0.1,0.8-0.1,1.5-0.1
		c0.5,0,0.7,0,1.3,0.1c0,0,0,0,0-0.2c0,0,0-0.1,0-0.2c0-0.1,0-0.4,0-0.8c0-0.2,0-0.4,0-0.8c-0.5,0-1.2,0-1.7,0c-0.8,0-1.5,0-2.4-0.1
		c-0.2,0-0.3,0-0.3,0h-0.1l0-0.9c0.6,0.1,1.8,0.2,3.2,0.2c0.4,0,0.9,0,1.2,0l0-1.9c-0.4,0-0.6,0-1,0c-1,0-2.2,0-3.4-0.1
		c-0.1,0-0.2,0-0.3,0c0,0-0.1,0-0.2,0l0-1c0.6,0.2,2.1,0.3,3.6,0.3c0.3,0,0.8,0,1.2,0c0-1.7,0-1.7-0.1-2h1.1c-0.1,0.3-0.1,1-0.1,2
		c1.9-0.1,3.4-0.3,4.1-0.6l0.1,1c-0.2,0-0.2,0-1,0.1c-1.3,0.2-1.7,0.2-3.3,0.3c0,1.1,0,1.1,0,1.9c1.9-0.1,3.1-0.3,3.9-0.6l0.1,1
		c-0.2,0-0.3,0-0.8,0.1c-1,0.2-2.1,0.3-3.1,0.3c0,0.8,0,0.8,0.1,2.1c1.2,0.3,2.4,1,3.9,2c0.2,0.2,0.3,0.2,0.5,0.3L280.8,111.2z
		 M276.1,108.5c-0.5-0.1-0.8-0.2-1.4-0.2c-1.4,0-2.3,0.5-2.3,1.2c0,0.7,0.7,1.2,1.9,1.2c0.7,0,1.3-0.2,1.5-0.5
		c0.2-0.2,0.3-0.6,0.3-1.3L276.1,108.5z"/>
	<path class="st5" d="M290.6,100.9c0-0.4,0-0.5-0.1-0.8h1.1c-0.1,0.4-0.1,0.7-0.1,1.8v0.2c2.6,0,3.7,0,4.2-0.1v1
		c-0.5-0.1-1-0.1-2.7-0.1c-0.2,0-0.4,0-1.5,0v2.8c0.2,0.6,0.3,1,0.3,1.7c0,1.5-0.7,2.7-1.9,3.7c-0.6,0.4-1.2,0.7-2.2,1.1
		c-0.2-0.4-0.3-0.6-0.6-0.9c1.1-0.3,1.7-0.6,2.3-1.1c1-0.8,1.5-1.7,1.6-3c-0.1,0.3-0.2,0.5-0.4,0.7c-0.4,0.5-1,0.8-1.8,0.8
		c-1.3,0-2.3-0.9-2.3-2.2c0-1.3,1.1-2.3,2.5-2.3c0.7,0,1.3,0.2,1.6,0.6c0-0.2,0-0.3,0-0.8c0-0.1,0-0.2,0-0.4v-0.7
		c-2.8,0.1-5.6,0.2-6.6,0.4l0-1c0.3,0,0.3,0,0.6,0c0.4,0,0.4,0,2.7-0.1c1.3-0.1,2.4-0.1,3.4-0.1L290.6,100.9z M290,105.1
		c-0.3-0.2-0.6-0.2-0.9-0.2c-0.9,0-1.6,0.6-1.6,1.5c0,0.8,0.6,1.4,1.4,1.4c1,0,1.6-0.7,1.6-1.7C290.6,105.6,290.4,105.3,290,105.1z"
		/>
</g>
<g>
	<path class="st5" d="M67.3,122.1c-0.8,0-1.1,0-1.6,0c0.1-0.5,0.1-0.9,0.1-1.7V114c0-0.6,0-1.1-0.1-1.6c0.6,0,0.7,0,1.5,0h2.8
		c1.8,0,2.8,0.9,2.8,2.4c0,0.8-0.2,1.3-0.6,1.7c-0.2,0.2-0.4,0.3-0.9,0.5c0.5,0.1,0.8,0.3,1.1,0.6c0.5,0.5,0.7,1.1,0.7,1.9
		c0,1.7-1.1,2.7-3,2.7H67.3z M69.9,116.3c0.8,0,1.2-0.4,1.2-1.1c0-0.7-0.4-1.1-1.2-1.1h-2.2v2.2H69.9z M67.7,120.5H70
		c0.9,0,1.4-0.5,1.4-1.3c0-0.8-0.5-1.3-1.4-1.3h-2.2V120.5z"/>
	<path class="st5" d="M76.7,112.4c-0.1,0.5-0.1,0.9-0.1,1.7v6.4c0,0.8,0,1.2,0.1,1.7h-2.1c0.1-0.5,0.1-0.9,0.1-1.7V114
		c0-0.8,0-1.1-0.1-1.7H76.7z"/>
	<path class="st5" d="M83.7,118.4c-0.6,0-0.8,0-1.2,0.1v-1.8c0.4,0.1,0.7,0.1,1.4,0.1h0.8c0.5,0,0.9,0,1.4-0.1
		c-0.1,0.5-0.1,0.8-0.1,1.6v1.3c0,0.8,0,1.1,0.1,1.7c-0.8,0.5-1.2,0.7-1.8,0.9c-0.5,0.2-1.2,0.3-1.8,0.3c-1.5,0-2.7-0.5-3.4-1.4
		c-0.7-0.9-1.1-2.2-1.1-3.7c0-2,0.8-3.7,2.2-4.5c0.6-0.4,1.4-0.6,2.4-0.6c1.2,0,2.1,0.4,2.8,1.1c0.4,0.4,0.6,0.8,0.8,1.5l-1.9,0.5
		c-0.2-0.6-0.4-0.8-0.7-1c-0.3-0.2-0.7-0.3-1.2-0.3c-0.6,0-1.2,0.2-1.6,0.7c-0.5,0.6-0.8,1.5-0.8,2.6c0,1.2,0.3,2.1,0.8,2.7
		c0.4,0.5,1,0.7,1.8,0.7c0.7,0,1.2-0.1,1.8-0.5v-1.7H83.7z"/>
	<path class="st5" d="M89,122.1c-0.7,0-1.1,0-1.5,0c0.1-0.4,0.1-0.9,0.1-1.7v-6.3c0-0.8,0-1.3-0.1-1.8h2.1c-0.1,0.7-0.1,0.9-0.1,1.8
		v6.2h3.1c0.8,0,1.2,0,1.7-0.1v1.9c-0.3,0-1-0.1-1.7-0.1H89z"/>
	<path class="st5" d="M102.3,113.4c0.9,0.9,1.3,2.2,1.3,3.8c0,3.1-1.8,5.1-4.4,5.1c-2.7,0-4.4-2-4.4-5.1c0-3.1,1.7-5.1,4.4-5.1
		C100.5,112.2,101.5,112.6,102.3,113.4z M101.6,117.2c0-1.2-0.3-2.1-0.8-2.7c-0.4-0.4-1-0.7-1.6-0.7c-1.5,0-2.5,1.3-2.5,3.3
		c0,2.1,1,3.4,2.5,3.4C100.7,120.6,101.6,119.3,101.6,117.2z"/>
	<path class="st5" d="M106.4,122.1c-0.8,0-1.1,0-1.6,0c0.1-0.5,0.1-0.9,0.1-1.7V114c0-0.6,0-1.1-0.1-1.6c0.6,0,0.7,0,1.5,0h2.8
		c1.8,0,2.8,0.9,2.8,2.4c0,0.8-0.2,1.3-0.6,1.7c-0.2,0.2-0.4,0.3-0.9,0.5c0.5,0.1,0.8,0.3,1.1,0.6c0.5,0.5,0.7,1.1,0.7,1.9
		c0,1.7-1.1,2.7-3,2.7H106.4z M109,116.3c0.8,0,1.2-0.4,1.2-1.1c0-0.7-0.4-1.1-1.2-1.1h-2.2v2.2H109z M106.8,120.5h2.3
		c0.9,0,1.4-0.5,1.4-1.3c0-0.8-0.5-1.3-1.4-1.3h-2.2V120.5z"/>
	<path class="st5" d="M120.5,122.2c-0.4-0.1-0.8-0.1-1.6-0.1h-3.6c-0.8,0-1.1,0-1.6,0c0.1-0.5,0.1-0.9,0.1-1.7V114
		c0-0.7,0-1.1-0.1-1.6c0.5,0,0.8,0,1.5,0h3.5c0.6,0,1,0,1.6-0.1v1.9c-0.5-0.1-0.9-0.1-1.6-0.1h-3.1v2.1h2.6c0.6,0,1.1,0,1.6-0.1v1.9
		c-0.5-0.1-0.8-0.1-1.6-0.1h-2.6v2.4h3.3c0.7,0,1.1,0,1.6-0.1V122.2z"/>
	<path class="st5" d="M125,115.9c-0.7,0.4-1,0.6-1.7,0.9c-0.2-0.7-0.4-1-0.8-1.5c1.1-0.4,1.8-0.8,2.7-1.5c0.8-0.6,1.4-1.2,1.9-2h1.6
		c0.6,0.8,1,1.3,1.9,1.9c1,0.7,1.8,1.1,2.8,1.5c-0.3,0.6-0.5,1-0.7,1.6c-0.7-0.3-1.1-0.5-1.8-1v0.8c-0.3,0-0.6,0-1.1,0H126
		c-0.4,0-0.7,0-1,0V115.9z M124.4,118.9c-0.6,0-1,0-1.4,0.1v-1.6c0.4,0,0.8,0.1,1.4,0.1h7.1c0.5,0,1,0,1.4-0.1v1.6
		c-0.4,0-0.8-0.1-1.4-0.1h-3.9c-0.3,0.7-0.7,1.5-1.1,2.1c2.3-0.1,2.3-0.1,3.3-0.2c-0.4-0.4-0.5-0.6-1.1-1.2l1.4-0.6
		c1.2,1.3,1.7,1.9,2.6,3.2l-1.3,0.9c-0.3-0.5-0.4-0.7-0.6-1c-1.1,0.2-1.1,0.2-1.7,0.2c-0.6,0.1-3.9,0.4-4.3,0.4
		c-0.5,0-1,0.1-1.3,0.1l-0.2-1.7c0.3,0,0.5,0,0.8,0c0.1,0,0.4,0,0.8,0c0.4-0.7,0.8-1.5,1.1-2.2H124.4z M129.9,115.2
		c-0.9-0.7-1.4-1.2-2-2c-0.6,0.8-1.1,1.3-2,2H129.9z"/>
	<path class="st5" d="M136.2,120.8c-0.6,0-0.9,0-1.3,0c0-0.3,0-0.6,0-1.3v-3.1c0-0.6,0-0.9,0-1.3c0.3,0,0.7,0,1.3,0h6.2
		c0.6,0,0.8,0,1.3,0c0,0.3,0,0.6,0,1.3v3.1c0,1,0,1,0,1.3c-0.4,0-0.7,0-1.3,0h-0.9c1,0.5,1.9,0.7,3.2,0.9c-0.4,0.6-0.6,0.9-0.8,1.4
		c-1.8-0.4-2.6-0.7-3.9-1.6l0.7-0.7h-2.9l0.8,0.7c-1.3,0.8-2.1,1.1-4,1.5c-0.2-0.6-0.4-0.9-0.8-1.4c1.5-0.2,2.3-0.4,3.2-0.9H136.2z
		 M143.2,113.9c0,0.3,0,0.6,0,0.9c-0.3,0-0.7,0-1.2,0h-5.5c-0.5,0-0.9,0-1.2,0c0-0.3,0-0.6,0-0.9v-1c0-0.4,0-0.6-0.1-0.9
		c0.4,0,0.7,0,1.3,0h5.3c0.6,0,0.9,0,1.3,0c0,0.3,0,0.5,0,0.9V113.9z M136.4,116.9h5.8v-0.5h-5.8V116.9z M136.4,118.2h5.8v-0.5h-5.8
		V118.2z M136.4,119.7h5.8v-0.5h-5.8V119.7z M136.9,113.2v0.6h4.8v-0.6H136.9z"/>
</g>
<g>
	<g>
		<ellipse class="st6" cx="46.7" cy="269.3" rx="18.9" ry="7"/>
		<path class="st7" d="M27.8,286.7c0,3.9,8.5,7,18.9,7s18.9-3.1,18.9-7v-17.4c0,3.9-8.5,7-18.9,7s-18.9-3.1-18.9-7V286.7z"/>
	</g>
</g>
<g>
	<g>
		<ellipse class="st6" cx="145.8" cy="271.3" rx="18.9" ry="7"/>
		<path class="st7" d="M126.9,286.8c0,3.9,8.5,7,18.9,7c10.4,0,18.9-3.1,18.9-7v-15.5c0,3.9-8.5,7-18.9,7c-10.4,0-18.9-3.1-18.9-7
			V286.8z"/>
	</g>
</g>
<g>
	<g>
		<ellipse class="st6" cx="244.9" cy="276.7" rx="18.9" ry="7"/>
		<path class="st7" d="M226,286.9c0,3.9,8.5,7,18.9,7c10.4,0,18.9-3.1,18.9-7v-10.3c0,3.9-8.5,7-18.9,7c-10.4,0-18.9-3.1-18.9-7
			V286.9z"/>
	</g>
</g>
<g>
	<g>
		<ellipse class="st6" cx="338.1" cy="281.9" rx="18.9" ry="7"/>
		<path class="st7" d="M319.1,286.9c0,3.9,8.5,7,18.9,7s18.9-3.1,18.9-7v-5c0,3.9-8.5,7-18.9,7s-18.9-3.1-18.9-7V286.9z"/>
	</g>
</g>
<g>
	<path class="st8" d="M34.5,189.3H16.6c-1.4,0-2.5,1.1-2.5,2.5v31.9c0,1.4,1.1,2.5,2.5,2.5h17.9c1.4,0,2.5-1.1,2.5-2.5v-31.9
		C37.1,190.4,35.9,189.3,34.5,189.3z"/>
	<g>
		<path class="st9" d="M35.2,192.3c0-0.6-0.5-1.1-1.1-1.1h-3.3l-0.4,1.5c-0.1,0.4-0.5,0.7-0.9,0.7H22c-0.4,0-0.8-0.3-0.9-0.7
			l-0.4-1.5H17c-0.6,0-1,0.5-1,1v30.1l19.1-19.1V192.3z"/>
		<path class="st2" d="M17.7,224.3h16.5c0.6,0,1-0.5,1-1v-20.2L16,222.2v0.4C16,223.5,16.8,224.3,17.7,224.3z"/>
	</g>
</g>
<g>
	<path class="st8" d="M131.7,189.3h-17.9c-1.4,0-2.5,1.1-2.5,2.5v31.9c0,1.4,1.1,2.5,2.5,2.5h17.9c1.4,0,2.5-1.1,2.5-2.5v-31.9
		C134.2,190.4,133.1,189.3,131.7,189.3z"/>
	<g>
		<path class="st9" d="M132.4,192.3c0-0.6-0.5-1.1-1.1-1.1H128l-0.4,1.5c-0.1,0.4-0.5,0.7-0.9,0.7h-7.5c-0.4,0-0.8-0.3-0.9-0.7
			l-0.4-1.5h-3.6c-0.6,0-1,0.5-1,1v30.1l19.1-19.1V192.3z"/>
		<path class="st2" d="M114.9,224.3h16.5c0.6,0,1-0.5,1-1v-20.2l-19.1,19.1v0.4C113.2,223.5,114,224.3,114.9,224.3z"/>
	</g>
</g>
<g>
	<path class="st8" d="M234.9,189.3H217c-1.4,0-2.5,1.1-2.5,2.5v31.9c0,1.4,1.1,2.5,2.5,2.5h17.9c1.4,0,2.5-1.1,2.5-2.5v-31.9
		C237.4,190.4,236.3,189.3,234.9,189.3z"/>
	<g>
		<path class="st9" d="M235.5,192.3c0-0.6-0.5-1.1-1.1-1.1h-3.3l-0.4,1.5c-0.1,0.4-0.5,0.7-0.9,0.7h-7.5c-0.4,0-0.8-0.3-0.9-0.7
			l-0.4-1.5h-3.6c-0.6,0-1,0.5-1,1v30.1l19.1-19.1V192.3z"/>
		<path class="st2" d="M218.1,224.3h16.5c0.6,0,1-0.5,1-1v-20.2l-19.1,19.1v0.4C216.4,223.5,217.1,224.3,218.1,224.3z"/>
	</g>
</g>
<g>
	<path class="st8" d="M330.1,189.3h-17.9c-1.4,0-2.5,1.1-2.5,2.5v31.9c0,1.4,1.1,2.5,2.5,2.5h17.9c1.4,0,2.5-1.1,2.5-2.5v-31.9
		C332.6,190.4,331.5,189.3,330.1,189.3z"/>
	<g>
		<path class="st9" d="M330.7,192.3c0-0.6-0.5-1.1-1.1-1.1h-3.3l-0.4,1.5c-0.1,0.4-0.5,0.7-0.9,0.7h-7.5c-0.4,0-0.8-0.3-0.9-0.7
			l-0.4-1.5h-3.6c-0.6,0-1,0.5-1,1v30.1l19.1-19.1V192.3z"/>
		<path class="st2" d="M313.2,224.3h16.5c0.6,0,1-0.5,1-1v-20.2l-19.1,19.1v0.4C311.6,223.5,312.3,224.3,313.2,224.3z"/>
	</g>
</g>
<g>
	<g>
		<path class="st10" d="M232.9,208.6c0.7,8.1,5,12.7,7.9,13.7c2.9,1,13.4,0.1,13.4,0.1s8.2,2.3,10-0.1c3.4,0.2,8.6-7.1,9-13.5
			c0.9-13.8-5.2-21.9-17.4-23.4c-3.7-0.2-10.5,0.2-13.3,5.6C235,192.8,232.3,202.4,232.9,208.6z"/>
	</g>
	<path class="st10" d="M247.8,224.4c-0.6,2.4-1.2,5.5-1.9,5.8c-1.2,0.9-4.6-1.2-6.3-5.7c-3-8.7,1.8-9.8,3.4-7.3
		C246.4,221.9,248.4,221.2,247.8,224.4z"/>
	<g>
		<path class="st11" d="M238.5,205.5c-0.7,11.2,6.4,20.8,15.9,21.4c9.5,0.6,16.7-8.1,17.4-19.4c0.7-11.2-5.7-17.6-15.1-18.2
			C247.3,188.7,239.2,194.2,238.5,205.5z"/>
		<circle class="st11" cx="239.7" cy="212.1" r="4.4"/>
		<path class="st10" d="M252.9,188.5c-19.9,4.8-13.6,22.9-13.3,23.6c0,0.1,0.1,0.1,0.2,0.1c0.1,0,0.2-0.1,0.2-0.2
			c0.3-1.8,2.9-4.5,5.8-6.9c1-1,0-3.3,3.5-7.1c-1,2.6-1.4,6.1-1.1,6c1.1-0.4,1.5-0.7,2.7-1c0.7-0.1,5.3-7.4,5.6-7.1
			c-2.8,4.6-2.6,6.4-2.3,6.4c0.4,0,2.6-0.2,4.7-0.1c0.3-0.1,3.9-4.1,4.1-4.9c0.2,2-0.7,4.4-0.9,5c7.6,0.3,10.1,5.5,10.6,5.3
			S272.4,183.8,252.9,188.5z"/>
		<g>
			<circle class="st12" cx="261.3" cy="210.7" r="1.7"/>
			<circle class="st12" cx="251.3" cy="210.9" r="1.7"/>
			<path class="st13" d="M259.5,216.2c-0.7,1-1.6,1.6-2.9,1.7c-1.2,0.1-2.6-0.3-3.4-1.6c-0.1-0.1,0-0.3,0.2-0.3c0,0,1.2,1,2.7,1
				c1.5,0.1,3.2-1.2,3.2-1.2C259.4,215.9,259.6,216.1,259.5,216.2z"/>
		</g>
	</g>
</g>
<g>
	<path class="st10" d="M135.3,212.5c2.2,4.3,2.3,6.9,1,9.1c-0.6,0.9-1.8,1.8-3.2,2.4c-0.6,0.3-0.6,0.9,0.3,1
		c1.7,0.1,5.3,0.3,7.5,0.1c5.1-0.4,7.7-3.3,7.7-3.3s-7.4-9.4-9.1-10.6C137.6,210.1,135.3,212.5,135.3,212.5z"/>
	<path class="st10" d="M175.4,212.5c-2.2,4.3-2.3,6.9-1,9.1c0.6,0.9,1.8,1.8,3.2,2.4c0.6,0.3,0.6,0.9-0.3,1
		c-1.7,0.1-5.3,0.3-7.5,0.1c-5.1-0.4-7.7-3.3-7.7-3.3s7.4-9.4,9.1-10.6C173.1,210.1,175.4,212.5,175.4,212.5z"/>
	<circle class="st11" cx="155.2" cy="208.1" r="17.4"/>
	<path class="st10" d="M176.2,205.9c0-10.7-4.1-16.9-7.5-19.5c-2.7-2.1-6.6-2.3-6.6-2.3c-1.4-1.4-5.6-1.7-8.1-1.7
		c-11.4,0-20.3,10.6-19.9,24.1c0,0,12.8-1,18.5-4.6c5.6-3.6,8.4-9.2,8.4-9.2s-0.9,4.1,4.7,8.7C171.2,206,176.2,205.9,176.2,205.9z"
		/>
	<circle class="st12" cx="149.6" cy="207.4" r="1.8"/>
	<circle class="st12" cx="160.7" cy="207.4" r="1.8"/>
	<path class="st12" d="M158.2,213.5c0-0.2-0.1-0.3-0.3-0.3c-0.5,0.2-1.7,0.6-2.8,0.6c-1,0-2.3-0.4-2.8-0.6c-0.2-0.1-0.3,0.1-0.3,0.3
		c0.1,0.8,1,2.7,2.7,2.9c0.1,0,0.2,0,0.3,0c0,0,0.1,0,0.1,0c0,0,0.1,0,0.1,0c0.1,0,0.2,0,0.3,0C157.2,216.2,158,214.4,158.2,213.5z"
		/>
	<circle class="st11" cx="137.2" cy="209.7" r="4.5"/>
	<circle class="st11" cx="173.2" cy="209.7" r="4.5"/>
</g>
<g>
	<path class="st14" d="M368.4,204.4c0-4.9-1.4-9.5-5.8-12.2c0.1,0,0.2,0,0.3,0c2.4,0.2,3.8,0.2,3.8,0.2s-0.3-2.8-3.3-2.5
		c-1.3,0.1-2.3,0.5-3,0.9c-4.6-4.5-9.7-4.4-12.6-4.4c-4.1,0-6.8,1-10,3c-4,1.5-8.5,1.7-8.2,2.7c0.1,0.5,1.5,0.9,3.5,1.7
		c-3,2.6-4.4,6.4-4.8,9.6c-0.3,1.1-0.3,5-2,5.9c0,0,0,0.8,0.8,1c0.7,0.2,1.8,0.1,2.8-0.7c1.4,6.2,6.1,12.2,8.8,13.8
		c2.7,1.7,9.1-0.1,9.1-0.1s4,1.1,7.1,0.3c3.1-0.8,6.3-0.8,7.5-7.5c0,0,5.8-6,5.8-6c1,0.4,1.6,0.4,2.2,0.1c0.7-0.4,0.8-1,0.8-1
		C369.8,208.4,368.9,206,368.4,204.4z"/>
	<g>
		<g>
			<path class="st11" d="M364.9,204.9l2,7.4l-1.6,0c0,8.9-7.5,16.1-16.8,16.1c-9.3,0-16.8-7.2-16.8-16.1l-3-1.4l7.5-13.1l8.1-2.8
				l13.8,0L364.9,204.9z"/>
			<circle class="st12" cx="343.2" cy="211.3" r="1.7"/>
			<circle class="st12" cx="353.7" cy="211.3" r="1.7"/>
			<circle class="st11" cx="331.5" cy="213.2" r="4.6"/>
			<circle class="st11" cx="365.6" cy="213.2" r="4.6"/>
		</g>
	</g>
	<path class="st10" d="M356.2,192.5c0,0-2.5-2.9-8.2-1c-6.4,2.1-15.7,1.8-16.9,9.1c-1.6,9.3,1.9,11.6,1.9,11.6s1.1-10.7,11.2-15.4
		c0,0-3.7,7.1-2.4,7.4c0,0,6-1,10-7.1c0,0-2.4,5.6-1.1,6.3c0,0,4.8-1.4,6.6-6.2c0,0,1.8,6,5.9,9.3c0,0,2.4,1.1,1.2,5.5
		c0,0,2.7-1.3,3-5L356.2,192.5z"/>
	<path class="st3" d="M351.8,218c-0.1-0.2-0.3-0.4-0.6-0.4l-0.1,0l-0.1,0.1c0,0-1.4,0.9-2.5,0.9c-1.1-0.1-2-0.9-2-0.9l-0.1-0.1
		l-0.2,0c0,0,0,0,0,0c-0.2,0-0.4,0.1-0.6,0.3c-0.1,0.2-0.1,0.4,0,0.6c0.6,1.1,1.7,1.7,3.1,1.7c0.1,0,0.1,0,0.2,0
		c1.2-0.1,2.2-0.6,2.9-1.6C351.9,218.5,352,218.2,351.8,218z"/>
</g>
<g>
	<g>
		<path class="st11" d="M73,210.6c0,9.3-7.9,16.8-17.5,16.8s-17.5-7.5-17.5-16.8l-3.1-1.5l1.1-8.7l30.7-10.5l8.1,12v8.7L73,210.6z"
			/>
		<path class="st10" d="M76.2,207c0.6-8.8,0.6-13.7-3-17c-2.4-2.2-3.9-2.5-3.9-2.5c-4.2-5.9-12.3-5.8-14.7-5.8
			c-11,0-21.5,10.5-19.7,23.9c0,0,7.3-6.4,13.8-8.1c14.4-3.8,20.5-2.5,20.5-2.5s-1.4,4.7,1.7,7.7C74,205.7,76.2,207,76.2,207z"/>
		<circle class="st12" cx="49.3" cy="208.5" r="2.1"/>
		<circle class="st12" cx="61.5" cy="208.5" r="2.1"/>
		<circle class="st11" cx="36.7" cy="210.7" r="4.7"/>
		<circle class="st11" cx="74.3" cy="210.7" r="4.7"/>
	</g>
	<path class="st3" d="M58.1,216.2c-0.1-0.2-0.3-0.3-0.5-0.3l-0.1,0l-0.1,0.1c0,0-1.3,0.8-2.4,0.7c-1-0.1-1.9-0.7-1.9-0.7l-0.1-0.1
		l-0.2,0c0,0,0,0,0,0c-0.2,0-0.4,0.1-0.5,0.3c-0.1,0.2-0.1,0.4,0,0.5c0.5,0.9,1.6,1.5,2.9,1.5c0.1,0,0.1,0,0.2,0
		c1.1,0,2.1-0.5,2.7-1.3C58.2,216.6,58.2,216.4,58.1,216.2z"/>
</g>
<g>
	<g>
		<g>
			<ellipse class="st6" cx="86" cy="78.5" rx="18" ry="6.7"/>
			<path class="st7" d="M68,99.4c0,3.7,8,6.7,18,6.7s18-3,18-6.7V78.5c0,3.7-8,6.7-18,6.7s-18-3-18-6.7V99.4z"/>
		</g>
	</g>
	<g>
		<path class="st8" d="M107.1,70.2h-17c-1.3,0-2.4,1.1-2.4,2.4V103c0,1.3,1.1,2.4,2.4,2.4h17c1.3,0,2.4-1.1,2.4-2.4V72.6
			C109.5,71.3,108.4,70.2,107.1,70.2z"/>
		<g>
			<path class="st9" d="M107.7,73.1c0-0.6-0.5-1.1-1-1.1h-3.1l-0.4,1.4c-0.1,0.4-0.5,0.7-0.9,0.7h-7.1c-0.4,0-0.8-0.3-0.9-0.7
				L93.9,72h-3.4c-0.5,0-1,0.4-1,1v28.6l18.2-18.2V73.1z"/>
			<path class="st2" d="M91.1,103.5h15.6c0.5,0,1-0.4,1-1V83.4l-18.2,18.2v0.3C89.5,102.8,90.2,103.5,91.1,103.5z"/>
		</g>
	</g>
	<g>
		<path class="st15" d="M142.9,87.5c0.5-7.5,0.4-11.7-2.7-14.6c-2.1-2-3.5-2.2-3.5-2.2c-3.7-5.3-10.8-5.1-13-5.1
			c-9.8,0-19,9.2-17.4,21.1c0,0,0.1-0.1,0.3-0.3l-0.1,0.9c-1.7,0.5-2.8,2.1-2.8,3.9c0,2.3,1.9,4.1,4.1,4.1c0.6,0,1.2-0.1,1.7-0.4
			c1.8,6.3,7.8,10.9,14.9,10.9c7.1,0,13.1-4.6,14.9-10.9c0.5,0.2,1.1,0.4,1.7,0.4c2.3,0,4.1-1.9,4.1-4.1
			C145.3,89.6,144.4,88.2,142.9,87.5z M141.6,87.1c0,0,0.1,0.1,0.1,0.1C141.7,87.2,141.6,87.1,141.6,87.1L141.6,87.1z"/>
		<g>
			<g>
				<path class="st11" d="M140.1,91.1c0,8.2-6.9,14.8-15.5,14.8s-15.5-6.6-15.5-14.8l-2.7-1.3l1-7.7l27.1-9.3l7.1,10.6v7.7
					L140.1,91.1z"/>
				<path class="st10" d="M142.9,88c0.5-7.8,0.5-12.1-2.6-15c-2.1-2-3.5-2.2-3.5-2.2c-3.7-5.3-10.8-5.1-13-5.1
					c-9.7,0-19,9.2-17.4,21.1c0,0,4.5-3.2,9.8-5.9c7.4-3.8,18.1-5.8,18.1-5.8s-0.2,4.6,3.9,9.2C140.7,87,142.9,88,142.9,88z"/>
				<circle class="st12" cx="119.2" cy="89.3" r="1.7"/>
				<circle class="st12" cx="129.9" cy="89.3" r="1.7"/>
				<circle class="st11" cx="108" cy="91.3" r="4.1"/>
				<circle class="st11" cx="141.2" cy="91.3" r="4.1"/>
			</g>
			<g>
				<circle class="st16" cx="119.2" cy="89.3" r="4.4"/>
				<circle class="st16" cx="129.9" cy="89.3" r="4.4"/>
				<line class="st16" x1="123.8" y1="89.3" x2="125.2" y2="89.3"/>
				<line class="st16" x1="134.5" y1="88.9" x2="142.3" y2="86.8"/>
				<line class="st16" x1="114.5" y1="88.9" x2="106.7" y2="86.8"/>
			</g>
			<path class="st3" d="M126.9,96.1c-0.1-0.2-0.3-0.3-0.5-0.3l-0.1,0l-0.1,0.1c0,0-1.2,0.7-2.1,0.6c-0.9-0.1-1.7-0.6-1.7-0.6
				l-0.1-0.1l-0.1,0c0,0,0,0,0,0c-0.2,0-0.4,0.1-0.5,0.2c-0.1,0.1-0.1,0.3,0,0.5c0.5,0.8,1.4,1.3,2.6,1.3c0.1,0,0.1,0,0.2,0
				c1,0,1.8-0.5,2.4-1.2C127,96.4,127,96.2,126.9,96.1z"/>
		</g>
	</g>
</g>
</svg>
