<?xml version="1.0" encoding="utf-8"?>
<!-- Generator: Adobe Illustrator 26.0.3, SVG Export Plug-In . SVG Version: 6.00 Build 0)  -->
<svg version="1.1" id="レイヤー_1" xmlns="http://www.w3.org/2000/svg" xmlns:xlink="http://www.w3.org/1999/xlink" x="0px"
	 y="0px" width="380px" height="294px" viewBox="0 0 380 294" style="enable-background:new 0 0 380 294;" xml:space="preserve">
<style type="text/css">
	.st0{fill:none;stroke:#E6E6E6;stroke-width:4;stroke-miterlimit:10;}
	.st1{fill:#222222;}
	.st2{fill:#F2F2F2;}
	.st3{fill:#7DE1AD;}
	.st4{fill:#13C96A;}
	.st5{fill:#F39800;}
	.st6{fill:#FFFFFF;}
	.st7{fill:#00AAE7;}
	.st8{fill:#999999;}
	.st9{fill:#333333;}
	.st10{fill:#808080;}
	.st11{fill:#FFFFFF;stroke:#FFFFFF;stroke-width:3.7039;stroke-linecap:round;stroke-linejoin:round;stroke-miterlimit:10;}
	.st12{fill:#FFE2CC;}
	.st13{fill:#35318F;}
	.st14{fill:#3A3A3A;}
	.st15{fill:none;stroke:#35318F;stroke-width:1.0095;stroke-linecap:round;stroke-linejoin:round;stroke-miterlimit:10;}
	.st16{fill:#313131;}
	.st17{fill:none;}
</style>
<line class="st0" x1="190.3" y1="125" x2="190.3" y2="193.9"/>
<g>
	<g>
		<path class="st1" d="M107.4,13.6c-1.4,1.6-1.8,2-3.1,2.9c1.3,0.4,2.8,0.7,4.3,0.8c-0.5,0.9-0.8,1.5-1,2.5
			c-2.1-0.3-3.9-0.9-5.7-1.8c-2,1-3.6,1.5-6,1.9c-0.3-0.8-0.5-1.3-1.1-2.2c1.9-0.2,3.3-0.5,4.9-1.1c-0.6-0.5-0.9-0.7-1.4-1.2
			c-0.7,0.5-1.1,0.8-2.2,1.3c-0.6-0.9-0.9-1.3-1.4-1.8c2.1-1,3.4-1.9,4.4-3.1c-0.9,0-1.5,0-1.7,0c0-0.7,0.1-1.2,0.1-1.8V7.3
			c-0.7-0.7-0.8-0.8-1.3-1.1c-0.6,1.2-1.2,2.3-2,3.6c0.3,0.3,0.3,0.3,0.4,0.5c0.5-0.6,0.9-1.2,1.4-2l1.4,1.1c-0.5,0.7-1,1.3-1.6,2
			c0.4,0.3,0.5,0.4,1,0.8c-0.5,0.8-0.7,1.1-1.1,2c-0.5-0.4-0.9-0.7-1.6-1.5v4.9c0,1,0,1.7,0.1,2.3h-2.7c0.1-0.7,0.1-1.5,0.1-2.4
			v-4.6c-0.5,0.6-0.8,0.9-1.6,1.5c-0.3-1.2-0.5-1.9-0.9-2.6c1.8-1.3,3.2-3.1,4.2-5.3h-1.9c-0.8,0-1.2,0-1.7,0.1V4.2
			c0.4,0.1,0.9,0.1,1.8,0.1h0.2V2.8c0-0.7,0-1.1-0.1-1.6h2.8c-0.1,0.4-0.1,0.9-0.1,1.6v1.5c0.6,0,0.9,0,1.2-0.1l0.8,0.7
			c1-1,2-2.7,2.2-3.8l2.6,0.5c-0.1,0.2-0.1,0.3-0.3,0.5c-0.1,0.2-0.1,0.3-0.2,0.5h5.5c1,0,1.4,0,2-0.1v2.4c-0.6-0.1-0.9-0.1-2-0.1
			h-6.8c-0.2,0.3-0.2,0.4-0.5,0.8h6.3c0.8,0,1.5,0,2-0.1c-0.1,0.4-0.1,1-0.1,2v2.4c0,1.1,0,1.5,0.1,2c-0.5,0-0.9-0.1-1.9-0.1h-3.7
			c-0.2,0.3-0.3,0.4-0.5,0.7h3.4c0.7,0,1.2,0,1.5-0.1L107.4,13.6z M99.9,7.9h4.9V7.2h-4.9V7.9z M99.9,10.2h4.9V9.4h-4.9V10.2z
			 M100.3,14.4c0.5,0.5,1,0.8,1.6,1.2c0.6-0.4,0.9-0.6,1.7-1.2H100.3z"/>
		<path class="st1" d="M116.5,3.9c0.6-0.9,1.1-1.7,1.4-2.6l2.1,0.9c-0.7,1.3-0.9,1.7-1.5,2.6h0.1c0.6,0,1,0,1.2-0.1v2.2
			c-0.3,0-0.6-0.1-1.3-0.1h-1.1c0.4,0.5,0.9,0.8,1.6,1.2c-0.5,0.6-0.8,1.1-1.2,1.9c-1-0.8-1.1-0.9-1.7-1.8c0,0.2,0.1,0.6,0.1,0.7
			v0.6c0,0.2,0,0.5,0,0.7h-2.5c0-0.2,0.1-0.4,0.1-0.6V8.9c0-0.2,0-0.5,0-0.8c-1.1,1.4-1.6,1.9-3,2.8c-0.5-0.8-0.7-1.2-1.4-1.9
			c1.4-0.6,2.2-1.2,3-2.2h-0.8c-0.7,0-1.2,0-1.7,0.1V4.7c0.5,0.1,0.9,0.1,1.7,0.1h2.3V2.5c0-0.6,0-1-0.1-1.3h2.5
			c-0.1,0.4-0.1,0.7-0.1,1.3v2.3h2L116.5,3.9z M128.5,6.8c-0.4-0.1-0.5-0.1-1.2-0.1c-0.3,3.5-0.8,5.6-2,7.8c1,1.2,2.1,2.1,3.5,2.8
			c-0.6,0.8-1,1.5-1.4,2.5c-1.4-0.8-2.6-1.9-3.7-3.2c-1.2,1.4-2.6,2.4-4.1,3.2c-0.4-0.9-0.8-1.5-1.4-2l-0.7,1.1
			c-0.7-0.6-1-0.7-1.9-1.3c-1.3,1.1-2.7,1.8-4.8,2.3c-0.3-0.9-0.7-1.5-1.2-2.2c1.7-0.2,2.6-0.5,3.7-1.2c-1-0.4-1.5-0.6-2.9-1.1
			c0.7-0.9,0.9-1.2,1.3-2h-0.4c-0.7,0-1.2,0-1.6,0.1v-2.4c0.5,0.1,0.9,0.1,1.6,0.1h1.4c0.2-0.4,0.2-0.7,0.5-1.3l2.5,0.4
			c-0.2,0.4-0.2,0.5-0.4,0.8h2.9c0.6,0,1,0,1.3-0.1c-0.5-0.7-0.8-1.1-1.3-1.6c1.4-1.6,2.4-3.8,3-6.8c0.1-0.7,0.2-1.4,0.2-1.7
			l2.6,0.5c0,0.1-0.1,0.5-0.4,1.7c-0.1,0.4-0.1,0.5-0.3,1.2h3.2c1,0,1.4,0,1.9-0.1V6.8z M112.2,1.3c0.8,1,1.1,1.5,1.5,2.5l-2,0.9
			c-0.5-1.1-0.8-1.7-1.5-2.5L112.2,1.3z M114.4,13.4c-0.2,0.3-0.3,0.5-0.6,0.9c0.7,0.3,1,0.3,1.4,0.5c0.4-0.5,0.5-0.9,0.7-1.5H114.4
			z M118.5,17.5c1.6-0.8,2.8-1.7,3.8-2.9c-0.8-1.4-1.2-2.5-1.5-4.2c-0.3,0.5-0.4,0.7-0.9,1.2v2c-0.4,0-0.9-0.1-1.5-0.1
			c-0.3,1-0.6,1.6-1.1,2.4c0.6,0.3,0.9,0.4,1.7,0.9L118.5,17.5z M122.7,6.7c-0.1,0.3-0.1,0.4-0.2,0.6c0.3,2.1,0.6,3.1,1.4,4.8
			c0.6-1.5,0.9-3.2,1-5.4H122.7z"/>
		<path class="st1" d="M130.1,7c0.4,0.1,1.1,0.1,2.1,0.1c0.1,0,0.2,0,0.8,0c0.9-1.3,1.9-3,2.8-4.7c0.2-0.5,0.4-0.8,0.5-1.3l3,0.8
			c-0.1,0.2-0.1,0.2-0.4,0.8c-0.9,1.6-1.8,3.1-2.7,4.3c4.2-0.1,4.5-0.1,6.9-0.3c-0.9-1.1-1.4-1.6-2.5-2.7l2.3-1.3
			c2.3,2.2,3.5,3.6,5.5,6.5l-2.3,1.5c-0.6-1-0.8-1.3-1.3-1.9c-3.5,0.4-6.3,0.6-12.9,0.8c-0.5,0-0.8,0-1.2,0.1L130.1,7z M131.9,19.7
			c0.1-0.8,0.1-1.5,0.1-2.5v-4.5c0-0.8,0-1.3-0.1-1.9c0.4,0,1.1,0.1,2.1,0.1h10c1,0,1.6,0,2.1-0.1c-0.1,0.6-0.1,1-0.1,1.9v4.5
			c0,1.1,0,1.7,0.1,2.5h-2.7v-0.9h-8.8v0.9H131.9z M134.6,16.4h8.8v-3.1h-8.8V16.4z"/>
		<path class="st1" d="M158.7,13.7c-1.1,2.5-2.4,3.7-4.2,3.7c-2.5,0-4.2-2.4-4.2-5.9c0-2.3,0.8-4.4,2.2-5.9c1.7-1.9,4.2-2.9,7-2.9
			c5,0,8.2,3,8.2,7.7c0,3.6-1.8,6.5-5,7.7c-1,0.4-1.8,0.6-3.2,0.8c-0.4-1.3-0.7-1.8-1.5-2.8c1.8-0.1,3-0.5,4-1
			c1.7-0.9,2.8-2.8,2.8-4.9c0-1.8-0.8-3.3-2.1-4.2c-0.6-0.4-1.1-0.5-1.9-0.6C160.4,8.8,159.7,11.4,158.7,13.7z M155.5,6.5
			c-1.5,1.2-2.5,3.1-2.5,5.1c0,1.5,0.6,2.7,1.4,2.7c0.6,0,1.2-0.8,1.8-2.4c0.7-1.8,1.4-4.3,1.6-6.4C156.9,5.6,156.3,5.9,155.5,6.5z"
			/>
		<path class="st1" d="M169.6,15.9c0.5,0,1.4-0.2,3-0.6c0.1-0.3,0.1-0.3,0.2-0.8c0-0.1,0.1-0.3,0.2-0.7l-2,0.7
			c-0.2-2.7-0.4-4.8-0.9-7l2.1-0.4c0.4,1.9,0.8,4.2,1,6.3c0.5-2.3,0.9-5.2,0.9-6.5l2.3,0.7c-0.1,0.3-0.1,0.5-0.2,1.1
			c-0.5,3-0.7,4.2-1.2,6.1c0.4-0.1,0.7-0.2,1.4-0.5l0,2.4c-2,0.7-3.8,1.3-5.3,1.7c-0.3,0.1-0.6,0.2-0.8,0.3L169.6,15.9z M172.1,2.8
			c0-0.6,0-1.1-0.1-1.4h2.6c-0.1,0.3-0.1,0.7-0.1,1.4v1.3h0.5c0.6,0,1,0,1.3-0.1v2.5c-0.3,0-0.9-0.1-1.4-0.1h-3.6
			c-0.5,0-1,0-1.5,0.1V4c0.3,0.1,0.7,0.1,1.3,0.1h0.9V2.8z M178.5,9.8c-0.8,0-1.4,0-2,0.1V7.5c0.5,0.1,1.1,0.1,2,0.1h7.6
			c0.9,0,1.6,0,2.1-0.1v2.5c-0.6-0.1-1.1-0.1-2-0.1h-2.7c-0.2,0.5-0.3,0.7-0.6,1.2h3.1c0.9,0,1.3,0,1.9-0.1
			c-0.1,0.5-0.1,1.1-0.1,1.9v5.1c0,1.5-0.4,1.8-2.3,1.8h-0.4c0-1.3-0.1-1.6-0.5-2.4c0.2,0,0.5,0.1,0.6,0.1c0.3,0,0.3-0.1,0.3-0.3
			v-3.9h-0.9v4.4c0,0.9,0,1.3,0.1,1.8h-2.1c0.1-0.7,0.1-0.9,0.1-1.8v-4.3h-0.8v4.4c0,0.9,0,1.3,0.1,1.8h-2.1c0.1-0.6,0.1-1,0.1-1.8
			v-4.3H179v4.6c0,1.2,0,1.7,0.1,2.2h-2.4c0.1-0.7,0.1-1.2,0.1-2.3v-4.9c0-0.9,0-1.3-0.1-1.7c0.6,0,1,0.1,1.8,0.1h1.8
			c0.2-0.5,0.3-0.7,0.5-1.2H178.5z M181,2.6c0-0.6,0-1-0.1-1.4h2.7c-0.1,0.4-0.1,0.8-0.1,1.4v2h1.6V3.2c0-0.5,0-0.8-0.1-1.2h2.5
			c-0.1,0.3-0.1,0.7-0.1,1.3v1.9c0,0.7,0,0.9,0.1,1.3c-0.7,0-0.7,0-1.4,0h-7.6c-0.6,0-0.9,0-1.4,0c0-0.4,0-0.6,0-1.2V3.4
			c0-0.5,0-0.9-0.1-1.3h2.5c0,0.3-0.1,0.7-0.1,1.2v1.3h1.5V2.6z"/>
		<path class="st1" d="M205.4,3.7c1.3,0,1.9,0,2.5-0.1v2.7c-0.7-0.1-1.2-0.1-2.5-0.1h-5.3v2.4h4.3c1.3,0,2,0,2.5-0.1V11
			c-0.7-0.1-1.4-0.1-2.5-0.1h-3.2c0.9,1.2,1.6,1.9,2.8,2.9c1.3,1.1,2.7,1.9,4.5,2.7c-0.7,1-1.1,1.6-1.6,2.6c-2.8-1.5-5-3.3-6.9-6.1
			c0,0.5,0.1,1.5,0.1,1.8v2.8c0,0.8,0,1.5,0.1,2.2h-2.9c0.1-0.7,0.1-1.3,0.1-2.2v-2.8c0-1,0.1-1.6,0.1-1.8c-1.2,1.8-1.7,2.3-2.9,3.4
			c-1.1,1-2.3,1.8-3.7,2.6c-0.5-1-0.9-1.7-1.6-2.5c1.8-0.9,3.1-1.7,4.5-2.9c1-0.8,1.6-1.6,2.5-2.8h-2.9c-1.1,0-1.7,0-2.5,0.1V8.3
			c0.7,0.1,1.2,0.1,2.5,0.1h4V6.1h-4.9c-1.2,0-1.8,0-2.5,0.1V3.5c0.6,0.1,1.2,0.1,2.5,0.1h4.9V2.5c0-0.6,0-0.9-0.1-1.3h2.8
			c-0.1,0.4-0.1,0.7-0.1,1.3v1.2H205.4z"/>
		<path class="st1" d="M210.3,3.8c0.5,0,0.7,0,0.8,0c0.4,0,0.5,0,3.3-0.2c1.4-0.1,4.8-0.3,10.3-0.5c1.8-0.1,1.9-0.1,2.2-0.2l0.2,3.1
			c-0.2,0-0.3,0-0.5,0c-1.3,0-2.9,0.5-4.3,1.2c-2.3,1.3-3.6,3.1-3.6,5c0,1.5,0.9,2.6,2.6,3c0.9,0.3,2.2,0.5,3,0.5c0.1,0,0.3,0,0.5,0
			l-0.4,3.2c-0.3-0.1-0.3-0.1-0.7-0.1c-2.2-0.3-3.6-0.6-4.8-1.2c-2.1-1.1-3.2-2.8-3.2-5.1c0-2.7,1.4-4.9,4.2-6.5
			c-2,0.2-2.1,0.2-6.5,0.6c-1.1,0.1-2.2,0.2-2.9,0.4L210.3,3.8z M224.3,10.8c-0.5-1.1-1-1.9-1.7-2.8l1.7-0.8
			c0.7,0.8,1.1,1.5,1.7,2.7L224.3,10.8z M226.6,9.7c-0.5-1.1-0.9-1.8-1.6-2.7l1.7-0.7c0.7,0.9,1,1.3,1.7,2.6L226.6,9.7z"/>
		<path class="st1" d="M232.5,6.9c2.2,0.9,3.7,1.6,5.4,2.8l-1.5,2.7c-1.6-1.2-3.4-2.2-5.6-3L232.5,6.9z M231.5,15.8
			c1.8,0,3.9-0.5,6-1.3c2.5-1,4.1-2.2,5.7-4.4c1.1-1.4,1.7-2.6,2.3-4.4c1.1,1.2,1.5,1.5,2.5,2.1c-1,2.4-1.8,3.7-3.1,5.1
			c-2.7,3-6,4.7-11.1,5.7c-0.6,0.1-1,0.2-1.4,0.3L231.5,15.8z M234.1,2c2.2,0.8,3.8,1.6,5.5,2.6l-1.5,2.6c-2-1.3-3.7-2.1-5.5-2.8
			L234.1,2z"/>
		<path class="st1" d="M260.3,16h3.1c1.3,0,1.9,0,2.7-0.1v2.7c-0.7-0.1-1.5-0.1-2.8-0.1h-9c-1.5,0-1.6,0-2.5,0.1v-2.7
			c0.7,0.1,1.1,0.1,2.5,0.1h3.2V9.8h-2c-1.2,0-1.9,0-2.5,0.1V7.3c0.7,0.1,1.3,0.1,2.5,0.1h6.7c1.2,0,1.7,0,2.6-0.1v2.6
			c-0.8-0.1-1.4-0.1-2.6-0.1h-2V16z"/>
		<path class="st1" d="M287.9,4.4c-0.3,0.3-0.3,0.4-0.6,1c-1.4,3-3,4.9-5.7,6.4c-0.7-1-1.2-1.4-2.1-2c-0.1,2.2-0.4,3.5-1.2,4.9
			c-1.1,2.1-2.9,3.5-5.9,4.8c-0.6-1.3-0.9-1.7-1.9-2.7c2.2-0.7,3.6-1.6,4.7-2.9c1-1.3,1.4-2.8,1.4-5.5c0-0.7,0-0.9-0.1-1.3h3.2
			c-0.1,0.4-0.1,0.5-0.1,1.7c0,0.1,0,0.4,0,0.9c2.2-1,3.4-2.1,4.4-4h-9.9c-1.2,0-2.2,0-3.1,0.1v-3c1,0.1,1.5,0.2,3.1,0.2h10.3
			c1.1,0,1.3,0,1.8-0.2L287.9,4.4z"/>
	</g>
</g>
<g>
	<path class="st0" d="M67.6,194.4v-28c0-1.7,1.3-3,3-3h239c1.7,0,3,1.3,3,3v28"/>
</g>
<circle class="st2" cx="66.6" cy="231" r="47.5"/>
<circle class="st2" cx="189.5" cy="231" r="47.5"/>
<circle class="st2" cx="310.4" cy="231" r="47.5"/>
<g>
	<g>
		<ellipse class="st3" cx="56.4" cy="217.2" rx="18.9" ry="7"/>
		<path class="st4" d="M37.5,248.7c0,3.9,8.5,7,18.9,7s18.9-3.1,18.9-7v-31.5c0,3.9-8.5,7-18.9,7s-18.9-3.1-18.9-7V248.7z"/>
	</g>
</g>
<g>
	<path class="st5" d="M88.6,207.1H65.4c-1.8,0-3.3,1.5-3.3,3.3v41.4c0,1.8,1.5,3.3,3.3,3.3h23.2c1.8,0,3.3-1.5,3.3-3.3v-41.4
		C91.9,208.6,90.4,207.1,88.6,207.1z"/>
	<g>
		<path class="st6" d="M89.5,211c0-0.8-0.6-1.4-1.4-1.4h-4.2l-0.6,1.9c-0.2,0.5-0.7,0.9-1.2,0.9h-9.8c-0.6,0-1.1-0.4-1.2-0.9
			l-0.5-1.9h-4.7c-0.7,0-1.3,0.6-1.3,1.3v39l24.8-24.8V211z"/>
		<path class="st2" d="M66.8,252.6h21.4c0.7,0,1.3-0.6,1.3-1.3v-26.2l-24.8,24.8v0.5C64.6,251.6,65.6,252.6,66.8,252.6z"/>
	</g>
</g>
<g>
	<g>
		<ellipse class="st3" cx="179.4" cy="231.7" rx="18.9" ry="7"/>
		<path class="st4" d="M160.5,249.1c0,3.9,8.5,7,18.9,7s18.9-3.1,18.9-7v-17.4c0,3.9-8.5,7-18.9,7s-18.9-3.1-18.9-7V249.1z"/>
	</g>
</g>
<g>
	<path class="st7" d="M209.7,207.1h-23.2c-1.8,0-3.3,1.5-3.3,3.3v41.4c0,1.8,1.5,3.3,3.3,3.3h23.2c1.8,0,3.3-1.5,3.3-3.3v-41.4
		C213,208.6,211.5,207.1,209.7,207.1z"/>
	<g>
		<path class="st6" d="M210.5,211c0-0.8-0.6-1.4-1.4-1.4h-4.2l-0.6,1.9c-0.2,0.5-0.7,0.9-1.2,0.9h-9.8c-0.6,0-1.1-0.4-1.2-0.9
			l-0.5-1.9H187c-0.7,0-1.3,0.6-1.3,1.3v39l24.8-24.8V211z"/>
		<path class="st2" d="M187.9,252.6h21.4c0.7,0,1.3-0.6,1.3-1.3v-26.2l-24.8,24.8v0.5C185.7,251.6,186.7,252.6,187.9,252.6z"/>
	</g>
</g>
<g>
	<g>
		<ellipse class="st3" cx="300.5" cy="221.8" rx="18.9" ry="7"/>
		<path class="st4" d="M281.6,248.8c0,3.9,8.5,7,18.9,7c10.4,0,18.9-3.1,18.9-7v-27c0,3.9-8.5,7-18.9,7c-10.4,0-18.9-3.1-18.9-7
			V248.8z"/>
	</g>
</g>
<g>
	<path class="st8" d="M332.7,207.1h-23.2c-1.8,0-3.3,1.5-3.3,3.3v41.4c0,1.8,1.5,3.3,3.3,3.3h23.2c1.8,0,3.3-1.5,3.3-3.3v-41.4
		C336,208.6,334.5,207.1,332.7,207.1z"/>
	<g>
		<path class="st6" d="M333.6,211c0-0.8-0.6-1.4-1.4-1.4h-4.2l-0.6,1.9c-0.2,0.5-0.7,0.9-1.2,0.9h-9.8c-0.6,0-1.1-0.4-1.2-0.9
			l-0.5-1.9H310c-0.7,0-1.3,0.6-1.3,1.3v39l24.8-24.8V211z"/>
		<path class="st2" d="M310.9,252.6h21.4c0.7,0,1.3-0.6,1.3-1.3v-26.2l-24.8,24.8v0.5C308.7,251.6,309.7,252.6,310.9,252.6z"/>
	</g>
</g>
<path class="st2" d="M338.5,138.5h-296c-1.1,0-2-0.9-2-2v-82c0-1.1,0.9-2,2-2h296c1.1,0,2,0.9,2,2v82
	C340.5,137.6,339.6,138.5,338.5,138.5z"/>
<g>
	<path class="st9" d="M174.5,92.2c-0.9,0-1.1,0-1.5,0.1c0.2-1.1,0.2-1.3,0.4-1.8c0.4-0.9,0.9-1.7,1.8-2.4c0.5-0.4,0.5-0.4,2.1-1.5
		c1.4-0.9,1.8-1.6,1.8-2.4c0-1.1-0.9-1.8-2.3-1.8c-0.9,0-1.6,0.3-2,0.9c-0.3,0.4-0.4,0.7-0.5,1.4l-1.2-0.2c0.2-1,0.4-1.5,0.9-2
		c0.6-0.7,1.6-1.1,2.8-1.1c2.1,0,3.5,1.1,3.5,2.7c0,0.7-0.3,1.4-0.8,2c-0.4,0.5-0.8,0.7-2.4,1.8c-1.1,0.7-1.6,1.1-2,1.7
		c-0.4,0.6-0.6,1-0.8,1.6h4.5c0.7,0,1.2,0,1.7-0.1v1.2c-0.6-0.1-1-0.1-1.7-0.1H174.5z"/>
	<path class="st9" d="M184,92.2c0,1-0.2,1.4-0.9,1.8l-0.4-0.5c0.6-0.3,0.7-0.5,0.7-1.3h-0.8v-1.4h1.4V92.2z"/>
	<path class="st9" d="M187.1,89.6c0.2,0.7,0.4,1,0.9,1.3c0.5,0.3,1.1,0.5,1.8,0.5c1.6,0,2.6-0.8,2.6-2.2c0-1.4-1-2.1-2.9-2.1
		c-0.4,0-0.7,0-1.1,0.1v-1.1c0.3,0.1,0.7,0.1,1,0.1c0.9,0,1.6-0.2,2-0.6c0.3-0.3,0.6-0.9,0.6-1.4c0-1.2-0.8-1.9-2.3-1.9
		c-0.9,0-1.5,0.2-1.9,0.7c-0.2,0.3-0.3,0.5-0.4,1l-1.2-0.3c0.2-0.7,0.4-1,0.8-1.4c0.6-0.7,1.6-1,2.8-1c2,0,3.3,1.1,3.3,2.7
		c0,0.9-0.4,1.6-1,2c-0.4,0.3-0.7,0.4-1.3,0.5c0.8,0.1,1.2,0.2,1.7,0.6c0.6,0.5,0.9,1.2,0.9,2.1c0,1.9-1.5,3.1-3.8,3.1
		c-1.4,0-2.5-0.4-3.1-1.1c-0.3-0.3-0.5-0.6-0.7-1.4L187.1,89.6z"/>
	<path class="st9" d="M198,85.2c1.3-1.7,2.3-3.5,2.6-4.5l1,0.4c0,0.1,0,0.1-0.2,0.3c-0.8,1.5-1.6,2.7-2.5,3.8c3.7-0.1,4-0.1,6.4-0.3
		c-1-1-1.3-1.3-2.3-2.2l0.8-0.5c1.6,1.4,2.5,2.3,4.1,4.2l-0.8,0.6c-0.5-0.7-0.7-1-1.1-1.5c-1.9,0.2-2.6,0.3-5,0.4
		c-1.4,0.1-2.1,0.1-3.2,0.1c-0.3,0-0.7,0-1.2,0c-0.2,0-0.2,0-0.7,0.1l-0.2-1c0.3,0,0.7,0.1,1.1,0.1l0.3,0H198z M197.4,93.3
		c0.1-0.5,0.1-0.9,0.1-1.3v-3.3c0-0.4,0-0.8-0.1-1.1c0.3,0,0.6,0.1,1.1,0.1h6.8c0.5,0,0.8,0,1.1-0.1c-0.1,0.4-0.1,0.7-0.1,1.1V92
		c0,0.5,0,0.9,0.1,1.3h-1v-0.9h-7.1v0.9H197.4z M198.4,91.6h7.1v-3.2h-7.1V91.6z"/>
	<path class="st9" d="M218.2,81.4c0.7,0,1,0,1.5-0.1c-0.1,0.4-0.1,0.8-0.1,1.3v9.1c0,0.7,0,1.1,0.1,1.5h-1v-0.9h-7.2v0.9h-1
		c0.1-0.4,0.1-0.8,0.1-1.4v-9.1c0-0.6,0-1-0.1-1.4c0.4,0.1,0.9,0.1,1.5,0.1H218.2z M218.7,84.7v-2.4h-7.2v2.4H218.7z M211.4,88h7.2
		v-2.5h-7.2V88z M211.4,91.5h7.2v-2.6h-7.2V91.5z"/>
	<path class="st9" d="M228.2,88.6c-0.8,1.8-1.6,2.7-2.6,2.7c-1.3,0-2.3-1.5-2.3-3.4c0-1.4,0.5-2.8,1.5-3.9c1.1-1.2,2.6-1.9,4.5-1.9
		c1.6,0,2.9,0.5,3.9,1.4c0.9,0.9,1.4,2.1,1.4,3.4c0,2.2-1.2,4-3.2,4.8c-0.6,0.3-1.2,0.4-2.1,0.6c-0.1-0.5-0.2-0.6-0.5-0.9
		c1-0.2,1.7-0.3,2.3-0.7c1.5-0.7,2.5-2.2,2.5-3.9c0-1.6-0.8-2.9-2.2-3.5c-0.5-0.2-0.9-0.3-1.6-0.4C229.3,85,228.8,87.1,228.2,88.6z
		 M226.5,83.7c-1.4,0.9-2.3,2.4-2.3,4.2c0,1.3,0.6,2.4,1.3,2.4c0.6,0,1.1-0.7,1.8-2c0.6-1.3,1.1-3.4,1.3-5.2
		C227.7,83.1,227.1,83.3,226.5,83.7z"/>
	<path class="st9" d="M236.1,91.1c0.4,0,1.2-0.2,2.3-0.5c0.5-2.2,0.7-3.1,0.9-4.7c0.1-0.6,0.1-1,0.1-1.3l0.9,0.2
		c0,0.2-0.1,0.4-0.3,1.9c-0.2,1.2-0.4,2-0.7,3.6c0.4-0.2,0.7-0.2,1.3-0.5v0.8c-1.2,0.5-2.6,0.9-3.6,1.2c-0.2,0.1-0.4,0.1-0.5,0.2
		L236.1,91.1z M238.1,81.8c0-0.4,0-0.9-0.1-1h1c-0.1,0.3-0.1,0.5-0.1,1v1.3h0.7c0.4,0,0.7,0,0.9-0.1v0.9c-0.2,0-0.5-0.1-0.9-0.1
		h-2.4c-0.4,0-0.7,0-1,0.1v-0.9c0.2,0,0.5,0.1,0.9,0.1h0.8V81.8z M237.5,84.6c0.4,1.7,0.5,2.8,0.7,4.9l-0.8,0.2
		c-0.1-1.9-0.3-3.5-0.6-5L237.5,84.6z M242,86.1c-0.7,0-1,0-1.4,0.1v-0.9c0.3,0.1,0.6,0.1,1.4,0.1h5.3c0.7,0,1.1,0,1.4-0.1v0.9
		c-0.3,0-0.8-0.1-1.4-0.1h-2.3c-0.3,0.6-0.4,0.8-0.7,1.5h2.7c0.6,0,1,0,1.4-0.1c0,0.3-0.1,0.7-0.1,1.4v3.4c0,0.7-0.3,0.9-1,0.9
		c-0.2,0-0.5,0-0.8,0c0-0.3-0.1-0.5-0.2-0.9c0.3,0.1,0.7,0.1,0.9,0.1c0.2,0,0.3-0.1,0.3-0.3v-3.8h-1.4v3.2c0,0.6,0,1,0.1,1.3h-0.9
		c0.1-0.4,0.1-0.7,0.1-1.3v-3.2H244v3.2c0,0.6,0,1,0.1,1.3h-1c0.1-0.4,0.1-0.7,0.1-1.3v-3.2h-1.3v3.5c0,0.8,0,1.2,0.1,1.5h-1
		c0.1-0.4,0.1-0.8,0.1-1.5v-3c0-0.5,0-1,0-1.3c0.6,0,1,0.1,1.4,0.1h1c0.3-0.6,0.5-1,0.7-1.5H242z M244.2,81.7c0-0.5,0-0.7-0.1-1h1
		c-0.1,0.3-0.1,0.6-0.1,1v1.7h2.2v-1.2c0-0.4,0-0.7-0.1-1h1c-0.1,0.2-0.1,0.5-0.1,1v1.1c0,0.4,0,0.6,0,0.8c-0.1,0-0.1,0-0.4,0
		c-0.1,0-0.4,0-0.6,0h-4.8c-0.6,0-0.7,0-1,0c0-0.3,0-0.5,0-0.8v-1.1c0-0.4,0-0.7-0.1-1h1c0,0.2-0.1,0.5-0.1,1v1.1h2V81.7z"/>
	<path class="st9" d="M260.7,82.9c0.8,0,1.2,0,1.6-0.1v1c-0.4-0.1-0.9-0.1-1.6-0.1h-4.2v2.4h3.4c0.8,0,1.2,0,1.6-0.1v1
		c-0.4-0.1-0.9-0.1-1.6-0.1H257c0.7,1.1,1.3,1.8,2.1,2.5c1.1,1,2.2,1.7,3.5,2.3c-0.3,0.3-0.4,0.5-0.6,0.9c-1.3-0.7-2.3-1.4-3.3-2.4
		c-1-0.9-1.5-1.6-2.3-2.9c0.1,0.6,0.1,1.1,0.1,1.6V92c0,0.6,0,1,0.1,1.4h-1.1c0.1-0.4,0.1-0.8,0.1-1.4v-3c0-0.5,0-0.9,0.1-1.6
		c-0.6,1-1.1,1.8-2,2.6c-1,0.9-2.1,1.8-3.3,2.5c-0.2-0.3-0.3-0.5-0.6-0.8c2.3-1.2,4-2.7,5.4-4.8h-2.7c-0.6,0-1,0-1.5,0.1v-1
		c0.5,0.1,0.9,0.1,1.5,0.1h3.1v-2.4h-3.9c-0.6,0-1,0-1.5,0.1v-1c0.5,0.1,0.9,0.1,1.5,0.1h3.9v-1.1c0-0.5,0-0.8-0.1-1.1h1.1
		c-0.1,0.3-0.1,0.6-0.1,1.1v1.1H260.7z"/>
	<path class="st9" d="M264.8,86.7c0.6,0.3,1.4,0.4,2.5,0.6c0.1-0.7,0.2-1.8,0.3-2.5c-0.7-0.1-1.3-0.2-2.1-0.4
		c-0.2,0-0.2-0.1-0.4-0.1l0.1-0.9c0.6,0.3,1.5,0.5,2.5,0.5c0.2-1.3,0.3-2.3,0.3-2.6v-0.1l1.1,0.1c-0.1,0.3-0.1,0.4-0.2,0.9
		c0,0.1,0,0.1-0.1,0.9c0,0.3-0.1,0.4-0.1,0.8c0.4,0,0.6,0,0.8,0c1,0,1.9-0.1,2.6-0.2l0,1c-0.3,0-0.3,0-1,0.1c-0.4,0-0.9,0.1-1.3,0.1
		c-0.2,0-0.5,0-1.2,0c-0.2,1.6-0.2,1.8-0.3,2.5c0.5,0,0.7,0,0.9,0c1,0,2-0.1,2.6-0.2l0,0.9c-0.1,0-0.2,0-0.4,0
		c-0.7,0.1-1.3,0.1-2,0.1c-0.4,0-0.6,0-1.2,0c0,0.1,0,0.1,0,0.3c0,0.3-0.1,0.8-0.1,1c0,0.8,0.2,1.3,0.6,1.7c0.4,0.4,1.1,0.6,2,0.6
		c1.9,0,3.1-1,3.1-2.5c0-0.9-0.4-1.7-1.3-2.4c0.5-0.1,0.6-0.1,1-0.3c1,1.1,1.3,1.8,1.3,2.8c0,2-1.7,3.3-4.1,3.3
		c-1.5,0-2.6-0.5-3.1-1.4c-0.3-0.5-0.4-1.1-0.4-1.9c0-0.3,0-0.6,0.1-0.9c0-0.2,0-0.2,0-0.3c-0.8-0.1-1.5-0.2-2.1-0.4
		c-0.2-0.1-0.3-0.1-0.4-0.1L264.8,86.7z"/>
	<path class="st9" d="M278.1,84.9c1.3,0.5,2.3,1.1,3.6,1.8l-0.5,0.9c-1-0.7-2.3-1.4-3.6-1.9L278.1,84.9z M277.8,91.3
		c0.9,0,2.4-0.3,3.8-0.9c1.7-0.7,3.1-1.7,4.2-3.1c0.8-1,1.2-1.9,1.7-3.1c0.4,0.4,0.5,0.5,0.9,0.7c-1.2,2.9-2.9,4.8-5.4,6
		c-1,0.5-2.4,1-3.5,1.2c-0.2,0-0.5,0.1-0.8,0.2c-0.3,0.1-0.3,0.1-0.5,0.2L277.8,91.3z M279.2,81.6c1.4,0.6,2.3,1,3.5,1.8l-0.6,0.9
		c-1-0.7-2.4-1.5-3.4-1.8L279.2,81.6z"/>
	<path class="st9" d="M294.7,91.5h3c0.7,0,0.9,0,1.3-0.1v1c-0.3,0-0.7-0.1-1.3-0.1h-6.8c-0.6,0-0.9,0-1.3,0.1v-1
		c0.4,0.1,0.6,0.1,1.3,0.1h2.8v-4.8h-2c-0.6,0-0.9,0-1.2,0.1v-1c0.4,0.1,0.7,0.1,1.2,0.1h5.1c0.6,0,0.9,0,1.2-0.1v1
		c-0.4-0.1-0.5-0.1-1.2-0.1h-2.2V91.5z"/>
	<path class="st9" d="M307.4,84.4c0,0.3,0,0.3-0.1,1c0,2.3-0.4,3.7-1.4,4.9c-0.9,1.1-1.9,1.8-3.6,2.4c-0.2-0.4-0.3-0.6-0.6-0.9
		c1.1-0.3,1.8-0.7,2.6-1.3c1.5-1.2,2-2.6,2-5.4c0-0.4,0-0.5-0.1-0.8H307.4z M313,82.7c-0.1,0.2-0.2,0.2-0.3,0.6
		c-1,1.9-2.3,3.2-4.1,4c-0.2-0.4-0.3-0.5-0.7-0.8c1-0.4,1.6-0.7,2.2-1.3c0.6-0.6,1.2-1.3,1.6-2.1h-8c-0.8,0-1.1,0-1.7,0.1V82
		c0.5,0.1,0.9,0.1,1.7,0.1h7.5c0.9,0,0.9,0,1.2-0.1L313,82.7z"/>
	<path class="st9" d="M173.4,102.1c0.3,0,0.4,0,0.5,0c0.2,0,0.4,0,0.8,0c0.8-0.1,0.9-0.1,2.6-0.2l2.2-0.1c1.7-0.1,1.9-0.1,2.4-0.1
		l0.8,0c1.2-0.1,1.5-0.1,1.7-0.2l0.1,1c-0.6,0-1,0.1-1.6,0.2c-0.9,0.2-1.9,0.7-2.7,1.4c-1.1,0.9-1.7,2.1-1.7,3.2
		c0,1.2,0.7,2.1,2,2.6c0.7,0.3,1.6,0.4,2.1,0.4h0.1l-0.2,1.1c-0.2,0-0.2,0-0.4-0.1c-1.4-0.2-2.2-0.5-3-1.1c-1-0.7-1.6-1.7-1.6-2.9
		c0-1.6,1-3.2,2.6-4.3c0.4-0.3,0.8-0.5,1.3-0.7c-0.8,0.1-1.6,0.2-3.1,0.3c-2.8,0.2-4.3,0.3-4.8,0.5L173.4,102.1z M182.8,104.1
		c0.6,0.8,1,1.3,1.4,2.2l-0.7,0.4c-0.3-0.7-1-1.8-1.4-2.2L182.8,104.1z M184.4,103.4c0.6,0.8,1,1.3,1.4,2.2l-0.7,0.4
		c-0.3-0.7-0.9-1.6-1.4-2.2L184.4,103.4z"/>
	<path class="st9" d="M188,102.3c0.3,0,0.6,0,1.1,0c1.2,0,2-0.1,3.3-0.2c-0.4-1.1-0.7-1.7-0.8-1.9l1.1-0.2c0.1,0.5,0.4,1.2,0.7,2
		c1.6-0.3,3-0.6,3.7-0.9l0.1,0.9c-1.2,0.3-2.7,0.7-3.5,0.8c0.2,0.5,0.6,1.2,0.8,1.6c1.8-0.4,2.6-0.6,3.2-0.9l0.1,0.9
		c-0.2,0.1-0.3,0.1-0.8,0.2c-1,0.3-1.7,0.4-2.2,0.5c0.8,1.3,1,1.5,2.1,2.8l-0.8,0.6c-0.5-0.3-0.9-0.4-1.5-0.5
		c-0.5-0.1-1.2-0.1-1.8-0.1c-2,0-3.3,0.6-3.3,1.6c0,0.9,1.1,1.4,3,1.4c1.5,0,3.3-0.4,4.1-0.9l0.2,1.1c-0.2,0-0.2,0-0.8,0.2
		c-1.1,0.3-2.3,0.5-3.6,0.5c-1.3,0-2.2-0.2-2.9-0.6c-0.7-0.4-1.1-1-1.1-1.7c0-1.5,1.6-2.4,4.3-2.4c1.2,0,1.9,0.1,2.8,0.4
		c-0.4-0.5-1-1.3-1.5-2.2c-1.4,0.3-2.3,0.3-4.9,0.4c-0.7,0-0.7,0-1,0.1l0-0.9c0.3,0,0.6,0,1.1,0c1.5,0,3.3-0.1,4.4-0.3
		c-0.4-0.7-0.4-0.8-0.8-1.6c-1.1,0.2-2.2,0.2-3.8,0.3c-0.6,0-0.6,0-0.9,0L188,102.3z"/>
	<path class="st9" d="M211.3,111.2c-0.6-0.7-1.7-1.4-2.9-2c-0.2-0.1-0.6-0.3-0.9-0.4c0,0.3,0,0.3,0,0.5c0,0.7-0.1,1.2-0.4,1.5
		c-0.4,0.6-1.3,0.9-2.4,0.9c-0.9,0-1.7-0.2-2.2-0.6c-0.5-0.4-0.8-0.9-0.8-1.5c0-0.9,0.7-1.7,2-1.9c0.4-0.1,0.8-0.1,1.5-0.1
		c0.5,0,0.7,0,1.3,0.1c0,0,0,0,0-0.2c0,0,0-0.1,0-0.2c0-0.1,0-0.4,0-0.8c0-0.2,0-0.4,0-0.8c-0.5,0-1.2,0-1.7,0c-0.8,0-1.5,0-2.4-0.1
		c-0.2,0-0.3,0-0.3,0H202l0-0.9c0.6,0.1,1.8,0.2,3.2,0.2c0.4,0,0.9,0,1.2,0l0-1.9c-0.4,0-0.6,0-1,0c-1,0-2.2,0-3.4-0.1
		c-0.1,0-0.2,0-0.3,0c0,0-0.1,0-0.2,0l0-1c0.6,0.2,2.1,0.3,3.6,0.3c0.3,0,0.8,0,1.2,0c0-1.7,0-1.7-0.1-2h1.1c-0.1,0.3-0.1,1-0.1,2
		c1.9-0.1,3.4-0.3,4.1-0.6l0.1,1c-0.2,0-0.2,0-1,0.1c-1.3,0.2-1.7,0.2-3.3,0.3c0,1.1,0,1.1,0,1.9c1.9-0.1,3.1-0.3,3.9-0.6l0.1,1
		c-0.2,0-0.3,0-0.8,0.1c-1,0.2-2.1,0.3-3.1,0.3c0,0.8,0,0.8,0.1,2.1c1.2,0.3,2.4,1,3.9,2c0.2,0.2,0.3,0.2,0.5,0.3L211.3,111.2z
		 M206.6,108.5c-0.5-0.1-0.8-0.2-1.4-0.2c-1.4,0-2.3,0.5-2.3,1.2c0,0.7,0.7,1.2,1.9,1.2c0.7,0,1.3-0.2,1.5-0.5
		c0.2-0.2,0.3-0.6,0.3-1.3L206.6,108.5z"/>
	<path class="st9" d="M221.1,100.9c0-0.4,0-0.5-0.1-0.8h1.1c-0.1,0.4-0.1,0.7-0.1,1.8v0.2c2.6,0,3.7,0,4.2-0.1v1
		c-0.5-0.1-1-0.1-2.7-0.1c-0.2,0-0.4,0-1.5,0v2.8c0.2,0.6,0.3,1,0.3,1.7c0,1.5-0.7,2.7-1.9,3.7c-0.6,0.4-1.2,0.7-2.2,1.1
		c-0.2-0.4-0.3-0.6-0.6-0.9c1.1-0.3,1.7-0.6,2.3-1.1c1-0.8,1.5-1.7,1.6-3c-0.1,0.3-0.2,0.5-0.4,0.7c-0.4,0.5-1,0.8-1.8,0.8
		c-1.3,0-2.3-0.9-2.3-2.2c0-1.3,1.1-2.3,2.5-2.3c0.7,0,1.3,0.2,1.6,0.6c0-0.2,0-0.3,0-0.8c0-0.1,0-0.2,0-0.4v-0.7
		c-2.8,0.1-5.6,0.2-6.6,0.4l0-1c0.3,0,0.3,0,0.6,0c0.4,0,0.4,0,2.7-0.1c1.3-0.1,2.4-0.1,3.4-0.1L221.1,100.9z M220.5,105.1
		c-0.3-0.2-0.6-0.2-0.9-0.2c-0.9,0-1.6,0.6-1.6,1.5c0,0.8,0.6,1.4,1.4,1.4c1,0,1.6-0.7,1.6-1.7C221,105.6,220.9,105.3,220.5,105.1z"
		/>
</g>
<g>
	<path class="st9" d="M68.1,122.1c-0.8,0-1.1,0-1.6,0c0.1-0.5,0.1-0.9,0.1-1.7V114c0-0.6,0-1.1-0.1-1.6c0.6,0,0.7,0,1.6,0H71
		c1.8,0,2.8,0.9,2.8,2.4c0,0.8-0.2,1.3-0.6,1.7c-0.2,0.2-0.4,0.3-0.9,0.5c0.5,0.1,0.8,0.3,1.1,0.6c0.5,0.5,0.7,1.1,0.7,1.9
		c0,1.7-1.1,2.7-3,2.7H68.1z M70.7,116.3c0.8,0,1.2-0.4,1.2-1.1c0-0.7-0.4-1.1-1.2-1.1h-2.2v2.2H70.7z M68.5,120.5h2.3
		c0.9,0,1.4-0.5,1.4-1.3c0-0.8-0.5-1.3-1.4-1.3h-2.2V120.5z"/>
	<path class="st9" d="M77.5,112.4c-0.1,0.5-0.1,0.9-0.1,1.7v6.4c0,0.8,0,1.2,0.1,1.7h-2.1c0.1-0.5,0.1-0.9,0.1-1.7V114
		c0-0.8,0-1.1-0.1-1.7H77.5z"/>
	<path class="st9" d="M84.5,118.4c-0.6,0-0.8,0-1.2,0.1v-1.8c0.4,0.1,0.7,0.1,1.4,0.1h0.8c0.5,0,0.9,0,1.4-0.1
		c-0.1,0.5-0.1,0.8-0.1,1.6v1.3c0,0.8,0,1.1,0.1,1.7c-0.8,0.5-1.2,0.7-1.8,0.9c-0.5,0.2-1.2,0.3-1.8,0.3c-1.5,0-2.7-0.5-3.4-1.4
		c-0.7-0.9-1.1-2.2-1.1-3.7c0-2,0.8-3.7,2.2-4.5c0.6-0.4,1.4-0.6,2.4-0.6c1.2,0,2.1,0.4,2.8,1.1c0.4,0.4,0.6,0.8,0.8,1.5l-1.9,0.5
		c-0.2-0.6-0.4-0.8-0.7-1c-0.3-0.2-0.7-0.3-1.2-0.3c-0.6,0-1.2,0.2-1.6,0.7c-0.5,0.6-0.8,1.5-0.8,2.6c0,1.2,0.3,2.1,0.8,2.7
		c0.4,0.5,1,0.7,1.8,0.7c0.7,0,1.2-0.1,1.8-0.5v-1.7H84.5z"/>
	<path class="st9" d="M89.8,122.1c-0.7,0-1.1,0-1.6,0c0.1-0.4,0.1-0.9,0.1-1.7v-6.3c0-0.8,0-1.3-0.1-1.8h2.1
		c-0.1,0.7-0.1,0.9-0.1,1.8v6.2h3.1c0.8,0,1.2,0,1.7-0.1v1.9c-0.3,0-1-0.1-1.7-0.1H89.8z"/>
	<path class="st9" d="M103.1,113.4c0.9,0.9,1.3,2.2,1.3,3.8c0,3.1-1.8,5.1-4.4,5.1c-2.7,0-4.4-2-4.4-5.1c0-3.1,1.7-5.1,4.4-5.1
		C101.3,112.2,102.3,112.6,103.1,113.4z M102.4,117.2c0-1.2-0.3-2.1-0.8-2.7c-0.4-0.4-1-0.7-1.6-0.7c-1.5,0-2.5,1.3-2.5,3.3
		c0,2.1,1,3.4,2.5,3.4C101.5,120.6,102.4,119.3,102.4,117.2z"/>
	<path class="st9" d="M107.2,122.1c-0.8,0-1.1,0-1.6,0c0.1-0.5,0.1-0.9,0.1-1.7V114c0-0.6,0-1.1-0.1-1.6c0.6,0,0.7,0,1.6,0h2.8
		c1.8,0,2.8,0.9,2.8,2.4c0,0.8-0.2,1.3-0.6,1.7c-0.2,0.2-0.4,0.3-0.9,0.5c0.5,0.1,0.8,0.3,1.1,0.6c0.5,0.5,0.7,1.1,0.7,1.9
		c0,1.7-1.1,2.7-3,2.7H107.2z M109.8,116.3c0.8,0,1.2-0.4,1.2-1.1c0-0.7-0.4-1.1-1.2-1.1h-2.2v2.2H109.8z M107.6,120.5h2.3
		c0.9,0,1.4-0.5,1.4-1.3c0-0.8-0.5-1.3-1.4-1.3h-2.2V120.5z"/>
	<path class="st9" d="M121.3,122.2c-0.4-0.1-0.8-0.1-1.6-0.1H116c-0.8,0-1.1,0-1.6,0c0.1-0.5,0.1-0.9,0.1-1.7V114
		c0-0.7,0-1.1-0.1-1.6c0.5,0,0.8,0,1.6,0h3.5c0.6,0,1,0,1.6-0.1v1.9c-0.5-0.1-0.9-0.1-1.6-0.1h-3.1v2.1h2.6c0.6,0,1.1,0,1.6-0.1v1.9
		c-0.5-0.1-0.8-0.1-1.6-0.1h-2.6v2.4h3.3c0.7,0,1.1,0,1.6-0.1V122.2z"/>
	<path class="st9" d="M125.8,115.9c-0.7,0.4-1,0.6-1.7,0.9c-0.2-0.7-0.4-1-0.8-1.5c1.1-0.4,1.8-0.8,2.7-1.5c0.8-0.6,1.4-1.2,1.9-2
		h1.6c0.6,0.8,1,1.3,1.9,1.9c1,0.7,1.8,1.1,2.8,1.5c-0.3,0.6-0.5,1-0.7,1.6c-0.7-0.3-1.1-0.5-1.8-1v0.8c-0.3,0-0.6,0-1.1,0h-3.9
		c-0.4,0-0.7,0-1,0V115.9z M125.2,118.9c-0.6,0-1,0-1.4,0.1v-1.6c0.4,0,0.8,0.1,1.4,0.1h7.1c0.5,0,1,0,1.4-0.1v1.6
		c-0.4,0-0.8-0.1-1.4-0.1h-3.9c-0.3,0.7-0.7,1.5-1.1,2.1c2.3-0.1,2.3-0.1,3.3-0.2c-0.4-0.4-0.5-0.6-1.1-1.2l1.4-0.6
		c1.2,1.3,1.7,1.9,2.6,3.2l-1.3,0.9c-0.3-0.5-0.4-0.7-0.6-1c-1.1,0.2-1.1,0.2-1.7,0.2c-0.6,0.1-3.9,0.4-4.3,0.4
		c-0.5,0-1,0.1-1.3,0.1l-0.2-1.7c0.3,0,0.5,0,0.8,0c0.1,0,0.4,0,0.8,0c0.4-0.7,0.8-1.5,1.1-2.2H125.2z M130.7,115.2
		c-0.9-0.7-1.4-1.2-2-2c-0.6,0.8-1.1,1.3-2,2H130.7z"/>
	<path class="st9" d="M137,120.8c-0.6,0-0.9,0-1.3,0c0-0.3,0-0.6,0-1.3v-3.1c0-0.6,0-0.9,0-1.3c0.3,0,0.7,0,1.3,0h6.2
		c0.6,0,0.8,0,1.3,0c0,0.3,0,0.6,0,1.3v3.1c0,1,0,1,0,1.3c-0.4,0-0.7,0-1.3,0h-0.9c1,0.5,1.9,0.7,3.2,0.9c-0.4,0.6-0.6,0.9-0.8,1.4
		c-1.8-0.4-2.6-0.7-3.9-1.6l0.7-0.7h-2.9l0.8,0.7c-1.3,0.8-2.1,1.1-4,1.5c-0.2-0.6-0.4-0.9-0.8-1.4c1.5-0.2,2.3-0.4,3.2-0.9H137z
		 M144,113.9c0,0.3,0,0.6,0,0.9c-0.3,0-0.7,0-1.2,0h-5.5c-0.5,0-0.9,0-1.2,0c0-0.3,0-0.6,0-0.9v-1c0-0.4,0-0.6-0.1-0.9
		c0.4,0,0.7,0,1.3,0h5.3c0.6,0,0.9,0,1.3,0c0,0.3,0,0.5,0,0.9V113.9z M137.2,116.9h5.8v-0.5h-5.8V116.9z M137.2,118.2h5.8v-0.5h-5.8
		V118.2z M137.2,119.7h5.8v-0.5h-5.8V119.7z M137.7,113.2v0.6h4.8v-0.6H137.7z"/>
</g>
<g>
	<g>
		<g>
			<ellipse class="st3" cx="87.8" cy="78.5" rx="18" ry="6.7"/>
			<path class="st4" d="M69.8,99.4c0,3.7,8,6.7,18,6.7s18-3,18-6.7V78.5c0,3.7-8,6.7-18,6.7s-18-3-18-6.7V99.4z"/>
		</g>
	</g>
	<g>
		<path class="st10" d="M109.9,70.2h-17c-1.3,0-2.4,1.1-2.4,2.4V103c0,1.3,1.1,2.4,2.4,2.4h17c1.3,0,2.4-1.1,2.4-2.4V72.6
			C112.3,71.3,111.2,70.2,109.9,70.2z"/>
		<g>
			<path class="st6" d="M110.5,73.1c0-0.6-0.5-1.1-1-1.1h-3.1l-0.4,1.4c-0.1,0.4-0.5,0.7-0.9,0.7h-7.1c-0.4,0-0.8-0.3-0.9-0.7
				L96.7,72h-3.4c-0.5,0-1,0.4-1,1v28.6l18.2-18.2V73.1z"/>
			<path class="st2" d="M93.9,103.5h15.6c0.5,0,1-0.4,1-1V83.4l-18.2,18.2v0.3C92.3,102.8,93,103.5,93.9,103.5z"/>
		</g>
	</g>
	<g>
		<path class="st11" d="M144.7,86.5c0.5-7.5,0.4-11.7-2.7-14.6c-2.1-2-3.5-2.2-3.5-2.2c-3.7-5.3-10.8-5.1-13-5.1
			c-9.8,0-19,9.2-17.4,21.1c0,0,0.1-0.1,0.3-0.3l-0.1,0.9c-1.7,0.5-2.8,2.1-2.8,3.9c0,2.3,1.9,4.1,4.1,4.1c0.6,0,1.2-0.1,1.7-0.4
			c1.8,6.3,7.8,10.9,14.9,10.9c7.1,0,13.1-4.6,14.9-10.9c0.5,0.2,1.1,0.4,1.7,0.4c2.3,0,4.1-1.9,4.1-4.1
			C147.1,88.6,146.2,87.2,144.7,86.5z M143.4,86.1c0,0,0.1,0.1,0.1,0.1C143.5,86.2,143.4,86.1,143.4,86.1L143.4,86.1z"/>
		<g>
			<g>
				<path class="st12" d="M141.9,90.1c0,8.2-6.9,14.8-15.5,14.8s-15.5-6.6-15.5-14.8l-2.7-1.3l1-7.7l27.1-9.3l7.1,10.6v7.7
					L141.9,90.1z"/>
				<path class="st13" d="M144.7,87c0.5-7.8,0.5-12.1-2.6-15c-2.1-2-3.5-2.2-3.5-2.2c-3.7-5.3-10.8-5.1-13-5.1
					c-9.7,0-19,9.2-17.4,21.1c0,0,4.5-3.2,9.8-5.9c7.4-3.8,18.1-5.8,18.1-5.8s-0.2,4.6,3.9,9.2C142.5,86,144.7,87,144.7,87z"/>
				<circle class="st14" cx="121" cy="88.3" r="1.7"/>
				<circle class="st14" cx="131.7" cy="88.3" r="1.7"/>
				<circle class="st12" cx="109.8" cy="90.3" r="4.1"/>
				<circle class="st12" cx="143" cy="90.3" r="4.1"/>
			</g>
			<g>
				<circle class="st15" cx="121" cy="88.3" r="4.4"/>
				<circle class="st15" cx="131.7" cy="88.3" r="4.4"/>
				<line class="st15" x1="125.6" y1="88.3" x2="127" y2="88.3"/>
				<line class="st15" x1="136.3" y1="87.9" x2="144.1" y2="85.8"/>
				<line class="st15" x1="116.3" y1="87.9" x2="108.6" y2="85.8"/>
			</g>
			<path class="st16" d="M128.7,95.1c-0.1-0.2-0.3-0.3-0.5-0.3l-0.1,0l-0.1,0.1c0,0-1.2,0.7-2.1,0.6c-0.9-0.1-1.7-0.6-1.7-0.6
				l-0.1-0.1l-0.1,0c0,0,0,0,0,0c-0.2,0-0.4,0.1-0.5,0.2c-0.1,0.1-0.1,0.3,0,0.5c0.5,0.8,1.4,1.3,2.6,1.3c0.1,0,0.1,0,0.2,0
				c1,0,1.8-0.5,2.4-1.2C128.8,95.4,128.8,95.2,128.7,95.1z"/>
		</g>
	</g>
</g>
<rect class="st17" width="380" height="294"/>
</svg>
