<?xml version="1.0" encoding="utf-8"?>
<!-- Generator: Adobe Illustrator 26.0.3, SVG Export Plug-In . SVG Version: 6.00 Build 0)  -->
<svg version="1.1" id="レイヤー_1" xmlns="http://www.w3.org/2000/svg" xmlns:xlink="http://www.w3.org/1999/xlink" x="0px"
	 y="0px" width="168px" height="96px" viewBox="0 0 168 96" style="enable-background:new 0 0 168 96;" xml:space="preserve">
<style type="text/css">
	.st0{fill:#F2F2F2;}
	.st1{fill:#F2B975;}
	.st2{opacity:0.7;}
	.st3{fill:#B3B3B3;}
	.st4{fill:none;}
</style>
<g>
	<g>
		<g>
			<g>
				<path class="st0" d="M63,21.7L43,1.9C41.8,0.7,40.1,0,38.4,0H4.5C2.1,0,0.1,2,0.1,4.4v87.2c0,2.4,2,4.4,4.4,4.4h56
					c2.4,0,4.4-2,4.4-4.4V26.4C64.9,24.6,64.2,23,63,21.7z"/>
			</g>
		</g>
		<path class="st1" d="M22.3,83.1c0,0.8-0.7,1.5-1.5,1.5H12c-0.8,0-1.5-0.7-1.5-1.5v-7.8c0-0.8,0.7-1.5,1.5-1.5h8.8
			c0.8,0,1.5,0.7,1.5,1.5V83.1z"/>
		<path class="st1" d="M22.3,67.4c0,0.8-0.7,1.5-1.5,1.5H12c-0.8,0-1.5-0.7-1.5-1.5v-7.8c0-0.8,0.7-1.5,1.5-1.5h8.8
			c0.8,0,1.5,0.7,1.5,1.5V67.4z"/>
		<path class="st1" d="M37,83.3c0,0.8-0.7,1.5-1.5,1.5H29c-0.8,0-1.5-0.7-1.5-1.5V53.7c0-0.8-0.7-1.5-1.5-1.5H12
			c-0.8,0-1.5-0.7-1.5-1.5v-6.7c0-0.8,0.7-1.5,1.5-1.5l23.4-0.1c0.9,0,1.5,0.7,1.5,1.5V83.3z"/>
		<path class="st1" d="M54.3,83.1c0,0.8-0.7,1.5-1.5,1.5h-8.8c-0.8,0-1.5-0.7-1.5-1.5v-7.8c0-0.8,0.7-1.5,1.5-1.5h8.8
			c0.8,0,1.5,0.7,1.5,1.5V83.1z"/>
		<path class="st1" d="M54.3,67.4c0,0.8-0.7,1.5-1.5,1.5h-8.8c-0.8,0-1.5-0.7-1.5-1.5v-7.8c0-0.8,0.7-1.5,1.5-1.5h8.8
			c0.8,0,1.5,0.7,1.5,1.5V67.4z"/>
		<path class="st1" d="M54.3,51.7c0,0.8-0.7,1.5-1.5,1.5h-8.8c-0.8,0-1.5-0.7-1.5-1.5v-7.8c0-0.8,0.7-1.5,1.5-1.5h8.8
			c0.8,0,1.5,0.7,1.5,1.5V51.7z"/>
	</g>
	<g>
		<g>
			<path class="st0" d="M114.5,21.7L94.6,1.9C93.3,0.7,91.7,0,89.9,0H56c-2.4,0-4.4,2-4.4,4.4v87.2c0,2.4,2,4.4,4.4,4.4h56
				c2.4,0,4.4-2,4.4-4.4V26.4C116.5,24.6,115.8,23,114.5,21.7z"/>
		</g>
		<path class="st1" d="M73.9,83.1c0,0.8-0.7,1.5-1.5,1.5h-8.8c-0.8,0-1.5-0.7-1.5-1.5v-7.8c0-0.8,0.7-1.5,1.5-1.5h8.8
			c0.8,0,1.5,0.7,1.5,1.5V83.1z"/>
		<path class="st1" d="M73.9,67.4c0,0.8-0.7,1.5-1.5,1.5h-8.8c-0.8,0-1.5-0.7-1.5-1.5v-7.8c0-0.8,0.7-1.5,1.5-1.5h8.8
			c0.8,0,1.5,0.7,1.5,1.5V67.4z"/>
		<path class="st1" d="M88.6,83.3c0,0.8-0.7,1.5-1.5,1.5h-6.5c-0.8,0-1.5-0.7-1.5-1.5V53.7c0-0.8-0.7-1.5-1.5-1.5H63.6
			c-0.8,0-1.5-0.7-1.5-1.5v-6.7c0-0.8,0.7-1.5,1.5-1.5L87,42.3c0.9,0,1.5,0.7,1.5,1.5V83.3z"/>
		<path class="st1" d="M105.9,83.1c0,0.8-0.7,1.5-1.5,1.5h-8.8c-0.8,0-1.5-0.7-1.5-1.5v-7.8c0-0.8,0.7-1.5,1.5-1.5h8.8
			c0.8,0,1.5,0.7,1.5,1.5V83.1z"/>
		<path class="st1" d="M105.9,67.4c0,0.8-0.7,1.5-1.5,1.5h-8.8c-0.8,0-1.5-0.7-1.5-1.5v-7.8c0-0.8,0.7-1.5,1.5-1.5h8.8
			c0.8,0,1.5,0.7,1.5,1.5V67.4z"/>
		<path class="st1" d="M105.9,51.7c0,0.8-0.7,1.5-1.5,1.5h-8.8c-0.8,0-1.5-0.7-1.5-1.5v-7.8c0-0.8,0.7-1.5,1.5-1.5h8.8
			c0.8,0,1.5,0.7,1.5,1.5V51.7z"/>
	</g>
	<g>
		<g>
			<path class="st0" d="M166.1,21.7L146.1,1.9c-1.2-1.2-2.9-1.9-4.7-1.9h-33.9c-2.4,0-4.4,2-4.4,4.4v87.2c0,2.4,2,4.4,4.4,4.4h56
				c2.4,0,4.4-2,4.4-4.4V26.4C168,24.6,167.3,23,166.1,21.7z"/>
		</g>
		<g class="st2">
			<g>
				<path class="st3" d="M103.2,91.6V10.5l-1.9-1.9v83.1c0,2.4,2,4.4,4.4,4.4h1.9C105.1,96,103.2,94,103.2,91.6z"/>
			</g>
		</g>
		<g class="st2">
			<g>
				<path class="st3" d="M51.6,91.6V10.5l-1.9-1.9v83.1c0,2.4,2,4.4,4.4,4.4H56C53.6,96,51.6,94,51.6,91.6z"/>
			</g>
		</g>
		<path class="st1" d="M125.4,83.1c0,0.8-0.7,1.5-1.5,1.5h-8.8c-0.8,0-1.5-0.7-1.5-1.5v-7.8c0-0.8,0.7-1.5,1.5-1.5h8.8
			c0.8,0,1.5,0.7,1.5,1.5V83.1z"/>
		<path class="st1" d="M125.4,67.4c0,0.8-0.7,1.5-1.5,1.5h-8.8c-0.8,0-1.5-0.7-1.5-1.5v-7.8c0-0.8,0.7-1.5,1.5-1.5h8.8
			c0.8,0,1.5,0.7,1.5,1.5V67.4z"/>
		<path class="st1" d="M140.1,83.3c0,0.8-0.7,1.5-1.5,1.5h-6.5c-0.8,0-1.5-0.7-1.5-1.5V53.7c0-0.8-0.7-1.5-1.5-1.5h-13.9
			c-0.8,0-1.5-0.7-1.5-1.5v-6.7c0-0.8,0.7-1.5,1.5-1.5l23.4-0.1c0.9,0,1.5,0.7,1.5,1.5V83.3z"/>
		<path class="st1" d="M157.4,83.1c0,0.8-0.7,1.5-1.5,1.5h-8.8c-0.8,0-1.5-0.7-1.5-1.5v-7.8c0-0.8,0.7-1.5,1.5-1.5h8.8
			c0.8,0,1.5,0.7,1.5,1.5V83.1z"/>
		<path class="st1" d="M157.4,67.4c0,0.8-0.7,1.5-1.5,1.5h-8.8c-0.8,0-1.5-0.7-1.5-1.5v-7.8c0-0.8,0.7-1.5,1.5-1.5h8.8
			c0.8,0,1.5,0.7,1.5,1.5V67.4z"/>
		<path class="st1" d="M157.4,51.7c0,0.8-0.7,1.5-1.5,1.5h-8.8c-0.8,0-1.5-0.7-1.5-1.5v-7.8c0-0.8,0.7-1.5,1.5-1.5h8.8
			c0.8,0,1.5,0.7,1.5,1.5V51.7z"/>
	</g>
</g>
<rect class="st4" width="167.9" height="96"/>
</svg>
