<?xml version="1.0" encoding="utf-8"?>
<!-- Generator: Adobe Illustrator 26.0.1, SVG Export Plug-In . SVG Version: 6.00 Build 0)  -->
<svg version="1.1" id="レイヤー_1" xmlns="http://www.w3.org/2000/svg" xmlns:xlink="http://www.w3.org/1999/xlink" x="0px"
	 y="0px" width="120px" height="108px" viewBox="0 0 120 108" style="enable-background:new 0 0 120 108;" xml:space="preserve">
<style type="text/css">
	.st0{fill:#F0A438;}
	.st1{fill:#FFE0CA;}
	.st2{fill:#3FA8F4;}
	.st3{fill:#0071BB;}
	.st4{fill:#008DD2;}
	.st5{opacity:0.63;fill:#0071BB;}
	.st6{fill:#3F3F3F;}
	.st7{opacity:0.9;fill:#989898;}
	.st8{fill:#35318D;}
	.st9{fill:#3A3A3A;}
	.st10{fill:none;}
</style>
<g>
	<path class="st0" d="M92.6,41.3l-14.5-2.9c-4.4,0-9.6,2.1-9.6,6.5v27.5l16.2,4.6c0,0,31.6,5.9,22.6-24.8
		C104.5,42.5,97,41.3,92.6,41.3z"/>
</g>
<path class="st1" d="M91,53.3c-4.5-0.7-8.4,3.3-5.1,5.4s6.5,1.5,7.6,1.1c1.1-0.4,3.7-4.7,1.4-6.4C92.5,51.6,91,53.3,91,53.3z"/>
<path class="st1" d="M66.3,42.6c-4.5-0.7-8.4,3.3-5.1,5.4c3.2,2,6.5,1.5,7.6,1.1c1.1-0.4,3.7-4.7,1.4-6.4
	C67.8,40.9,66.3,42.6,66.3,42.6z"/>
<polygon class="st2" points="104.2,67.6 104.2,107.7 42.1,73.5 42.1,37.9 "/>
<polygon class="st3" points="104.2,67.6 104.2,107.7 111.2,105.3 111.2,66.4 "/>
<polygon class="st4" points="104.2,67.6 111.2,66.4 49,36.7 42.1,37.9 "/>
<path class="st1" d="M66.3,40.1c-3.5-1.6-10,2.3-6.6,4.9c3.4,2.6,5.7,2.7,7.2,2.7c1.5,0,5.2-2.6,3.2-5.1
	C69,41.1,66.3,40.1,66.3,40.1z"/>
<path class="st1" d="M91.7,51.1c-4.7-1.9-10.7,1.1-8,3.8c2.7,2.7,6.5,3.2,7.8,3.2c1.4,0,5.6-2.6,3.7-4.8
	C93.3,51.2,91.7,51.1,91.7,51.1z"/>
<polygon class="st5" points="55,48.7 56.7,54.7 61.2,53.5 59.6,58.6 64.1,61 59.7,62.7 64.1,68.8 57.6,64 55.2,69.7 53.7,62.8 
	48.1,60.9 51.4,57.6 47,51.1 53.3,55.2 "/>
<path class="st6" d="M21.9,23.6l-2.4-2.6l1.8-3l-3.4-0.8l-0.2-3.5l-3.3,1.1l-2-2.9l-2.2,2.8l-3.3-1.3l-0.3,3.5l-3.5,0.7l1.6,3.1
	l-2.6,2.4l3,1.8l-0.8,3.4l3.5-0.2L9,31.5l2.9-2l2.8,2.2l1.3-3.3l3.5,0.3l-0.7-3.5L21.9,23.6z M7.4,23.8c-0.7-0.8-0.6-2.2,0.3-3.2
	c0.9-1,2.3-1.3,3.1-0.6L7.4,23.8z M15.2,18.4c1.3,0.4,2.1,1.5,2,2.5l-4.9-1.4C12.6,18.5,13.9,18,15.2,18.4z M16.4,25.7l-3.2-1.3
	l-1.9,2.7l-1.1-0.6l2.5-3.4l4.1,1.3L16.4,25.7z"/>
<path class="st6" d="M27.7,75.8l-3.1-1.7l0.7-3.5l-3.5,0.3l-1.2-3.3l-2.8,2.1l-2.8-2.1L13.7,71l-3.5-0.2l0.8,3.4l-3.1,1.7l2.5,2.5
	l-1.7,3.1l3.5,0.7l0.3,3.5l3.3-1.2l2.1,2.8l2.1-2.8l3.3,1.2l0.2-3.5l3.4-0.8l-1.7-3.1L27.7,75.8z M13.9,80.4
	c-0.9-0.6-1.3-1.9-0.7-3.1c0.5-1.2,1.7-1.9,2.8-1.6L13.9,80.4z M19.6,72.9c1.3-0.1,2.5,0.7,2.6,1.8l-5.1,0.2
	C17.2,73.8,18.3,72.9,19.6,72.9z M23.1,79.4l-3.4-0.2l-1,3.2l-1.2-0.3l1.3-4l4.3,0L23.1,79.4z"/>
<path class="st6" d="M57.5,60.3c-22.5-2.5-40.7-25.9-40.7-25.9l7.5-1.1c0,0,8.5,17.2,31.6,26.1L57.5,60.3z"/>
<path class="st7" d="M36.1,65.8l-4.4-4.9c0.1,0,10.2,1.5,23.3-2.4l0.4-0.1l2.5,0.5l-0.6,2.9l-1.8-0.4C49.7,63,36.4,65.9,36.1,65.8z"
	/>
<path class="st7" d="M72.3,96.5l-6-3.3c0,0,4.1-3.8,16.2-11.4l2.4,0.8C76.5,89.4,72.3,96.4,72.3,96.5z"/>
<polygon class="st5" points="83,71.4 84.7,77.4 89.3,76.2 87.6,81.3 92.2,83.7 87.8,85.4 92.2,91.5 85.6,86.8 83.3,92.5 81.7,85.6 
	76.1,83.6 79.4,80.4 75.1,73.9 81.4,78 "/>
<path class="st6" d="M85,82.7c-19.7,11.2-59,2.7-59,2.7l5.4-5.3c0,0,28.5,11.2,51.1,1.9L85,82.7z"/>
<g>
	<g>
		<path class="st8" d="M98.2,46.1c0.1,0-0.9-0.1-0.8-0.2c0.6-0.4,2.2-0.9,2.7-1.4c0.4-0.4,1.2-1.1,1.1-1.1c1.6-1.7,3.1-3.6,4.3-5.7
			c0.1,0.6,0.3,1.1,0.5,1.6c-0.4,0.4-0.7,0.8-1.1,1.1c1.2,0.6,2.2,3.8,1.4,8.2c-0.3,1.6-1,2.8-1.9,3.6c-1.7,1.7-3.9,2.3-5.3,2.8
			c0.9-4.1-2.9-3.1-3.5-5.3C95.2,48,97,47.1,98.2,46.1z"/>
		<path class="st8" d="M115.1,29.7c-0.7,8-9.3,15.1-13.1,15.7c-3.8,0.7-15.6-1.5-15.6-1.5s-11.2,1.9-14.2-0.4s-8.4-10.1-8.4-17.7
			c-0.1-15.5,12-25.7,24.7-25.5c3.7,0,8.6,0.8,10.4,3.6C111.8,6.1,116,18.7,115.1,29.7z"/>
		<ellipse transform="matrix(0.1053 -0.9944 0.9944 0.1053 50.9757 109.4445)" class="st1" cx="86.3" cy="26.4" rx="24" ry="22"/>
		
			<ellipse transform="matrix(8.205560e-02 -0.9966 0.9966 8.205560e-02 58.3942 140.7731)" class="st1" cx="105.6" cy="38.7" rx="5.3" ry="5.5"/>
		
			<ellipse transform="matrix(8.205560e-02 -0.9966 0.9966 8.205560e-02 33.3059 93.9995)" class="st1" cx="67.7" cy="28.9" rx="5.3" ry="5.5"/>
		<path class="st8" d="M111.9,28.9c1-2.9,0.5-6.2-0.3-8.9c-0.3-0.9-0.7-1.9-1.1-2.8c-2.9-6.1-8.3-12.4-15.5-14.8
			C88,0.1,80.2,1.1,75,4.9C66.5,11.1,63.2,20,64.3,27.4c0,0,1.1-2.5,3.3-4.1c1.6-1.2,3.5-1.7,5.5-2c1.9-1.1,2-3.4,9.7-7.4
			c-3.8,3.5-6.4,7.7-5.8,7.7c1.7,0,2.6,0.1,4.5,0.4c1,0.1,12.3-9.1,12.5-8.3c-6.8,6.1-8.6,9-8.1,9.2c0.5,0.1,3.8,0.9,6.6,2.4
			c0.4,0.1,4.6-2.8,5.4-4c-1,3.5-1.8,4.4-2.5,5.3c5.7,3.5,8.2,11.5,7.9,12C103.3,38.5,109.4,36,111.9,28.9z"/>
		<g id="女子ol2_00000101788295780644839150000005280197124887403921_">
			<ellipse transform="matrix(0.2033 -0.9791 0.9791 0.2033 27.7079 95.1956)" class="st9" cx="72.4" cy="30.6" rx="2.1" ry="2.2"/>
			
				<ellipse transform="matrix(0.2033 -0.9791 0.9791 0.2033 33.5232 108.7147)" class="st9" cx="83.6" cy="33.8" rx="2.1" ry="2.2"/>
			<path class="st9" d="M76.7,40c1.1,0.3,2.4,0.3,3.4-0.3c0.4-0.2,0.5-0.7,0.3-1.1c-0.2-0.4-0.7-0.5-1.1-0.3
				c-1.4,0.7-3.2,0.2-3.9-1.2c-0.2-0.4-0.7-0.5-1.1-0.3s-0.5,0.7-0.3,1.1C74.6,38.9,75.6,39.7,76.7,40z"/>
		</g>
	</g>
</g>
<rect class="st10" width="120" height="108"/>
</svg>
