<?xml version="1.0" encoding="utf-8"?>
<!-- Generator: Adobe Illustrator 26.0.1, SVG Export Plug-In . SVG Version: 6.00 Build 0)  -->
<svg version="1.1" id="レイヤー_1" xmlns="http://www.w3.org/2000/svg" xmlns:xlink="http://www.w3.org/1999/xlink" x="0px"
	 y="0px" width="120px" height="90px" viewBox="0 0 120 90" style="enable-background:new 0 0 120 90;" xml:space="preserve">
<style type="text/css">
	.st0{fill:#3FA8F4;}
	.st1{fill:#58CBDE;}
	.st2{fill:#3F3F3F;}
	.st3{fill:#FFE0CA;}
	.st4{fill:#35318D;}
	.st5{fill:#3A3A3A;}
	.st6{fill:#313131;stroke:#313131;stroke-width:0.5748;stroke-miterlimit:10;}
	.st7{fill:#FFFFFF;}
	.st8{opacity:0.8;fill:#FFFFFF;}
	.st9{fill:none;}
</style>
<circle class="st0" cx="31.9" cy="57.9" r="31.3"/>
<path class="st1" d="M64.2,85.5l-0.2-0.2c-2.5-1.8-3.1-5.2-1.4-7.7l13.3-19c1.8-2.5,5.2-3.1,7.7-1.4l0.2,0.2
	c2.5,1.8,3.1,5.2,1.4,7.7l-13.3,19C70.2,86.6,66.7,87.2,64.2,85.5z"/>
<g>
	<path class="st1" d="M116.9,87.2c2.2-1.9,3.4-3.9,2.4-9c-0.6-2.9-1.3-6.2-3.1-10.5c-2-5.1-6.5-10.8-14.2-10.8l-14.4-0.3
		c-10.7,0-10.1,3.9-8.8,13.6l3.5,19.1h28C112.1,89.4,115.6,88.3,116.9,87.2z"/>
</g>
<g>
	<g>
		<path class="st2" d="M96.1,83.8H51.2c-1.6,0-2.8,1.3-2.8,2.8v0.3c0,1.6,1.3,2.8,2.8,2.8h44.9c1.6,0,2.8-1.3,2.8-2.8v-0.3
			C98.9,85,97.7,83.8,96.1,83.8z"/>
	</g>
	<path class="st3" d="M81.7,85.5c0,0,0-5.8,3.8-6.5c3.8-0.8,7.1,0.5,8.1,1.9c1.3,1.9,2.6,4.7-0.7,4.9C89.6,85.9,81.7,85.5,81.7,85.5
		z"/>
</g>
<g>
	<path class="st4" d="M116.6,30.1c0-5.9-1.7-11.5-6.9-14.8c0.1,0,0.2,0,0.3,0c2.9,0.2,4.5,0.2,4.5,0.2s-0.3-3.4-3.9-3
		c-1.6,0.2-2.7,0.6-3.5,1.1c-5.4-5.4-11.6-5.4-15-5.4c-4.8,0-8.1,1.2-11.9,3.7c-4.8,1.8-10.1,2-9.8,3.3c0.2,0.6,1.8,1.1,4.2,2
		c-3.6,3.1-5.2,7.8-5.7,11.5c-0.4,1.3-0.3,6-2.3,7.1c0,0,0,1,1,1.2c0.8,0.2,2.2,0.1,3.3-0.8c1.7,7.5,7.3,14.7,10.5,16.7
		c3.2,2,10.8-0.2,10.8-0.2s5.6,4.3,9.3,3.3c3.7-1,13.6-8.2,15-16.2c0,0-0.1-3.1-0.1-3.1c1.2,0.5,1.9,0.5,2.6,0.2
		c0.9-0.5,1-1.2,1-1.2C118.4,34.9,117.2,32,116.6,30.1z"/>
	<path class="st3" d="M112.7,35.1c0,13.7-9.6,24.8-21.4,24.8S70.8,48.8,70.8,35.1s9.6-24.8,21.4-24.8S112.7,21.4,112.7,35.1z"/>
	<circle class="st3" cx="74.3" cy="40.3" r="5.4"/>
	<circle class="st3" cx="110.3" cy="41.4" r="5.4"/>
	<path class="st4" d="M113,21.9c-0.3-0.4-0.5-0.7-0.8-1c-0.4-1.4-1.1-2.7-2.1-3.7c-0.4-0.4-1.6-1.5-1.6-1.5s-12.6-8.8-20-6.4
		c-8.3,2.7-16.5,8.4-18.2,17.8c-1.4,8.1,1.4,10.5,1.4,10.5s0.5-12.7,10.6-15.9c0,0-3.5,9.5-1.8,10c0,0,7.3-1.7,12.5-9.6
		c0,0-4.3,7.6-2.7,8.5c0,0,7-1.4,9.4-7.5c0,0,2.4,7.3,7.6,11.6c0,0,0,6.9-1.2,9c0,0,5.6-3.1,6-7.8l2.8,1.2
		C114.8,37.2,115.6,25.5,113,21.9z"/>
	<g>
		<circle class="st5" cx="79.8" cy="37.8" r="2.2"/>
		<circle class="st5" cx="90.5" cy="39.9" r="2.2"/>
		<path class="st6" d="M88.1,47.5c-0.9,1-2.1,1.5-3.6,1.4c-1.3-0.1-2.9-0.8-3.5-2.4c-0.1-0.2,0.1-0.3,0.3-0.3c0,0,1.1,1.3,2.8,1.6
			c1.7,0.3,3.8-0.8,3.8-0.8C88.1,47.1,88.2,47.3,88.1,47.5z"/>
	</g>
</g>
<g>
	<path class="st2" d="M48.5,13.6l2.9-2.4l-3.5-1.4l1.7-3.3l-3.7,0.2L46.1,3l-3.4,1.7l-1.3-3.5L39,4.1l-2.7-2.7l-1,3.6l-3.5-1.3
		l0.6,3.7l-3.7,0.2l2,3.2l-3.3,1.7l3.1,2.1l-2.4,2.9l3.7,0.6l-1,3.6l3.6-0.9l0.6,3.7l2.9-2.3l2,3.1l1.7-3.3l3.1,2l0.2-3.7l3.7,0.6
		l-1.3-3.5l3.6-1L48.5,13.6z"/>
	<g>
		<path class="st7" d="M34.9,13.1c-1.4-0.7-2.1-2.2-1.6-3.4l5.4,2.9C37.9,13.6,36.3,13.9,34.9,13.1z"/>
		<path class="st7" d="M43.5,14.9c-1.6,0.2-3-0.6-3.3-1.8l6-0.8C46.2,13.5,45,14.7,43.5,14.9z"/>
	</g>
</g>
<g>
	<path class="st2" d="M18,20.7l-2.5-1.6l0.9-2.9l-3,0l-0.8-2.9L10,14.9l-2.2-2l-1.3,2.7l-2.9-0.5l0.4,3l-2.7,1.2l1.9,2.3l-1.6,2.5
		l2.9,0.9l0,3l2.9-0.8l1.6,2.5l2-2.2l2.7,1.3l0.5-3l3-0.4l-1.2-2.7L18,20.7z"/>
	<g>
		<path class="st7" d="M6.4,22.6c-1.1-0.2-1.9-1.1-1.9-2l4.3,0.8C8.6,22.2,7.5,22.8,6.4,22.6z"/>
		<path class="st7" d="M13,21.7c-1,0.5-2.2,0.3-2.7-0.5l3.9-1.9C14.5,20.1,14,21.2,13,21.7z"/>
	</g>
</g>
<circle class="st7" cx="31.9" cy="57.9" r="19.3"/>
<path class="st2" d="M73.3,89.7H46.8c-1.7,0-3.3-1.4-3.7-3l-7.4-36.2c-0.4-2.1,1.4-3,3-3H65c1.7,0,3.3,0.7,3.9,3l7.4,36.2
	C76.6,88.4,74.9,89.7,73.3,89.7z"/>
<g>
	<circle class="st8" cx="31.9" cy="57.9" r="19.3"/>
	<g>
		<g>
			<path class="st4" d="M39.1,55.6l-1.6,0v-5.4c0-3-2.6-5.5-5.9-5.5c-3.2,0-5.9,2.5-5.9,5.5v5.4l-1.3,0c-0.9,0-1.7,0.7-1.8,1.6v10.6
				c0.1,0.9,0.9,1.6,1.8,1.6h14.6c0.9,0,1.7-0.7,1.8-1.6V57.2C40.8,56.3,40,55.6,39.1,55.6z M32.8,63.6c-0.1,0.1-0.2,0.2-0.2,0.4
				v1.1c0,0.2-0.2,0.4-0.4,0.4h-1c-0.2,0-0.4-0.2-0.4-0.4v-1.1c0-0.1-0.1-0.3-0.2-0.4c-0.8-0.5-1.3-1.4-1.1-2.4
				c0.2-0.9,0.9-1.6,1.7-1.8c1.5-0.3,2.8,0.8,2.8,2.2C33.9,62.4,33.4,63.2,32.8,63.6z M34.9,55.6h-6.6v-5.4c0-1.6,1.5-2.9,3.3-2.9
				c1.8,0,3.3,1.3,3.3,2.9V55.6z"/>
		</g>
	</g>
</g>
<rect class="st9" width="120" height="90"/>
</svg>
