<?xml version="1.0" encoding="utf-8"?>
<!-- Generator: Adobe Illustrator 26.0.1, SVG Export Plug-In . SVG Version: 6.00 Build 0)  -->
<svg version="1.1" id="レイヤー_1" xmlns="http://www.w3.org/2000/svg" xmlns:xlink="http://www.w3.org/1999/xlink" x="0px"
	 y="0px" width="120px" height="108px" viewBox="0 0 120 108" style="enable-background:new 0 0 120 108;" xml:space="preserve">
<style type="text/css">
	.st0{fill:#C6575E;}
	.st1{fill:#F1F1F1;}
	.st2{fill:#B43547;}
	.st3{fill:#D2D0D0;}
	.st4{fill:none;}
</style>
<g>
	<g>
		<g>
			<path class="st0" d="M96.9,58.5c-0.3-4-3-40.9-3-40.9l-33.9-3l-33.9,3c0,0-2.7,36.9-3,40.9c-1,12,5,21.9,14,26.9
				c11.7,6.5,22.9,9,22.9,9s11.2-2.5,22.9-9C91.9,80.5,97.9,70.5,96.9,58.5z"/>
			<path class="st1" d="M60,14.7l33.9,3c0,0,2.7,36.9,3,40.9c1,12-5,21.9-14,26.9c-11.7,6.5-22.9,9-22.9,9s-11.2-2.5-22.9-9
				c-9-5-15-15-14-26.9c0.3-4,3-40.9,3-40.9L60,14.7 M60,6.7l-0.7,0.1l-33.9,3l-6.8,0.6l-0.5,6.8c0,0.4-2.7,36.9-3,40.8
				c-1.2,14.5,5.7,27.7,18,34.6c12.6,7,24.6,9.7,25.1,9.8l1.7,0.4l1.7-0.4c0.5-0.1,12.5-2.8,25.1-9.8c12.3-6.8,19.2-20.1,18-34.6
				c-0.3-3.9-3-40.4-3-40.8l-0.5-6.8l-6.8-0.6l-33.9-3L60,6.7L60,6.7z"/>
		</g>
		<g>
			<path class="st1" d="M47.8,35.1h36.1v-7.5H47.8c-6.3,0-11.5,5-11.7,11.3c0,0.2,0,0.3,0,0.5c0,1.5,0.3,2.9,0.8,4.2
				c1.2,3.1,3.6,5.5,6.7,6.7c1.3,0.5,2.7,0.8,4.2,0.8h24.4c2.3,0,4.2,1.9,4.2,4.2c0,2.3-1.9,4.2-4.2,4.2H43.6v-5.2l-1.4-0.5
				c-2.4-0.9-4.5-2.5-6.1-4.4v10.1V67v8.4h7.5V67h28.6c6.5,0,11.7-5.3,11.7-11.7c0-1.5-0.3-2.9-0.8-4.2c-1.7-4.4-6-7.5-10.9-7.5
				H47.8c-2.3,0-4.2-1.9-4.2-4.2S45.5,35.1,47.8,35.1z"/>
		</g>
	</g>
	<g>
		<path class="st2" d="M76.4,55.3c0-2.3-1.9-4.2-4.2-4.2H59.5v8.4h12.7C74.5,59.5,76.4,57.6,76.4,55.3z"/>
		<path class="st2" d="M83.9,27.6v7.5H59.5v8.4h12.7c5,0,9.2,3.1,10.9,7.5c0.5,1.3,0.8,2.7,0.8,4.2c0,6.5-5.3,11.7-11.7,11.7H59.5
			v27.3c0.3,0.1,0.5,0.1,0.5,0.1s11.2-2.5,22.9-9c9-5,15-15,14-26.9c-0.3-4-3-40.9-3-40.9l-33.9-3l-0.5,0v12.9H83.9z"/>
		<path class="st3" d="M104.8,57.9c-0.3-3.9-3-40.4-3-40.8l-0.5-6.8l-6.8-0.6l-33.9-3L60,6.7l-0.5,0v8l0.5,0l33.9,3
			c0,0,2.7,36.9,3,40.9c1,12-5,21.9-14,26.9c-11.7,6.5-22.9,9-22.9,9s-0.2,0-0.5-0.1v8.2l0.5,0.1l1.7-0.4c0.5-0.1,12.5-2.8,25.1-9.8
			C99.1,85.6,106,72.3,104.8,57.9z"/>
		<path class="st3" d="M83.9,55.3c0-1.5-0.3-2.9-0.8-4.2c-1.7-4.4-6-7.5-10.9-7.5H59.5v7.5h12.7c2.3,0,4.2,1.9,4.2,4.2
			c0,2.3-1.9,4.2-4.2,4.2H59.5V67h12.7C78.7,67,83.9,61.8,83.9,55.3z"/>
		<rect x="59.5" y="27.6" class="st3" width="24.4" height="7.5"/>
	</g>
</g>
<rect class="st4" width="120" height="108"/>
</svg>
