<?xml version="1.0" encoding="utf-8"?>
<!-- Generator: Adobe Illustrator 26.0.1, SVG Export Plug-In . SVG Version: 6.00 Build 0)  -->
<svg version="1.1" id="レイヤー_1" xmlns="http://www.w3.org/2000/svg" xmlns:xlink="http://www.w3.org/1999/xlink" x="0px"
	 y="0px" width="120px" height="108px" viewBox="0 0 120 108" style="enable-background:new 0 0 120 108;" xml:space="preserve">
<style type="text/css">
	.st0{fill:#3FA8F4;}
	.st1{fill:#0071BB;}
	.st2{fill:none;}
</style>
<g>
	<path class="st0" d="M76.4,61.9c-0.9-1.4-2.8-1.7-4.2-0.8c-9.6,5.6-21.7,4.3-29.4-3.3c0,0,0,0,0,0c-4.4-4.5-6.7-10.6-6.5-17
		l7.6-0.2c2.4,0,2.8-1.6,1.3-3.1L31.8,21c-0.1-0.1-0.1-0.1-0.2-0.2c-0.8-0.7-2.1-0.6-2.9,0.2L14.7,38c-1.6,1.5-1.3,3.1,1.1,3
		l8.2-0.1c0,9.6,3.7,18.5,10.2,25.2c0.1,0.1,0.2,0.2,0.3,0.3C46,77.9,64.3,79.6,78.4,71c1.6-1,2-3.1,1-4.6L76.4,61.9z"/>
	<path class="st1" d="M44.1,19.8c0.9,1.4,2.8,1.7,4.2,0.8c9.6-5.6,21.7-4.3,29.4,3.3c0,0,0,0,0,0c4.4,4.5,6.7,10.6,6.5,17l-7.6,0.2
		c-2.4,0-2.8,1.6-1.3,3.1l13.4,16.4c0.1,0.1,0.1,0.1,0.2,0.2c0.8,0.7,2.1,0.6,2.9-0.2l14-16.9c1.6-1.5,1.3-3.1-1.1-3l-8.2,0.1
		c0-9.6-3.7-18.5-10.2-25.2c-0.1-0.1-0.2-0.2-0.3-0.3C74.6,3.8,56.3,2,42.1,10.7c-1.6,1-2,3.1-1,4.6L44.1,19.8z"/>
</g>
<g>
	<path class="st1" d="M21.1,95.8v-8.2h3.5v8.6c0,3,0.9,4.1,2.7,4.1c1.7,0,2.7-1,2.7-4.1v-8.6h3.4v8.2c0,5.2-2.1,7.4-6.1,7.4
		C23.2,103.2,21.1,101,21.1,95.8z"/>
	<path class="st1" d="M36.8,87.6h5.3c3.4,0,6.1,1.2,6.1,4.9c0,3.6-2.8,5.2-6,5.2h-1.9v5.2h-3.5V87.6z M42,95c1.9,0,2.8-0.9,2.8-2.5
		c0-1.6-1-2.2-2.9-2.2h-1.6V95H42z"/>
	<path class="st1" d="M50.9,87.6h4.3c4.7,0,7.7,2.3,7.7,7.6c0,5.3-3,7.8-7.5,7.8h-4.5V87.6z M55,100.2c2.6,0,4.4-1.3,4.4-5
		c0-3.7-1.8-4.8-4.4-4.8h-0.7v9.8H55z"/>
	<path class="st1" d="M68.7,87.6h4.2l4.8,15.4h-3.7l-2-7.8c-0.4-1.5-0.8-3.4-1.2-5h-0.1c-0.4,1.6-0.8,3.4-1.2,5l-2,7.8h-3.6
		L68.7,87.6z M67.1,96.6h7.4v2.7h-7.4V96.6z"/>
	<path class="st1" d="M82.4,90.5h-4.2v-2.9h11.9v2.9h-4.2V103h-3.5V90.5z"/>
	<path class="st1" d="M92.5,87.6h9.6v2.9H96v3.1h5.2v2.9H96v3.5h6.4v2.9h-9.9V87.6z"/>
</g>
<rect class="st2" width="120" height="108"/>
</svg>
