<?xml version="1.0" encoding="UTF-8"?><svg id="_レイヤー_1" xmlns="http://www.w3.org/2000/svg" width="55.42" height="55.42" viewBox="0 0 55.42 55.42"><defs><style>.cls-1{fill:#00a600;}.cls-2{fill:none;}.cls-3{fill:#fff;}.cls-3,.cls-4{stroke:#333;stroke-miterlimit:10;stroke-width:2px;}.cls-4{fill:#bfe9bf;stroke-linecap:round;}</style></defs><rect class="cls-2" width="55.42" height="55.42"/><path class="cls-4" d="m35.03,34.61h6.62c.39,0,.76.2.97.53l4.27,6.7c.49.76-.06,1.77-.97,1.77H9.5c-.91,0-1.46-1-.97-1.77l4.27-6.7c.21-.33.58-.53.97-.53h6.39"/><path class="cls-3" d="m39.24,19.38c0,6.39-11.57,19-11.57,19,0,0-11.57-12.61-11.57-19s5.18-11.57,11.57-11.57,11.57,5.18,11.57,11.57Z"/><circle class="cls-1" cx="27.67" cy="19.38" r="3.74"/></svg>