<?xml version="1.0" encoding="UTF-8"?><svg id="_レイヤー_1" xmlns="http://www.w3.org/2000/svg" width="23.5" height="18.74" viewBox="0 0 23.5 18.74"><defs><style>.cls-1{fill:#00a600;}</style></defs><path class="cls-1" d="m9.4,13.33c0-.71.58-1.31,1.29-1.31s1.28.59,1.28,1.31-.57,1.31-1.28,1.31-1.29-.61-1.29-1.31Zm.54-2.29l-.34-6.93h2.24l-.32,6.93h-1.58Z"/><path class="cls-1" d="m10.69,18.74C4.8,18.74,0,14.54,0,9.37S4.8,0,10.69,0s10.69,4.2,10.69,9.37c0,.66-.09,1.34-.26,2.02l2.38,3.3-4.39.45c-2.04,2.3-5.1,3.61-8.42,3.61Zm0-17.54C5.46,1.2,1.2,4.87,1.2,9.37s4.26,8.17,9.49,8.17c3.01,0,5.87-1.26,7.66-3.37l.16-.18,2.8-.28-1.5-2.08.08-.28c.19-.67.29-1.33.29-1.97,0-4.51-4.26-8.17-9.49-8.17Z"/></svg>