<?xml version="1.0" encoding="UTF-8"?><svg id="_レイヤー_1" xmlns="http://www.w3.org/2000/svg" width="81.86" height="81.86" viewBox="0 0 81.86 81.86"><defs><style>.cls-1{fill:#fff;}.cls-2{fill:#bfe9bf;}.cls-3{fill:#00a600;}.cls-4{fill:#333;}.cls-5{fill:none;}</style></defs><rect class="cls-5" width="81.86" height="81.86"/><path class="cls-1" d="m68.86,75.03V18.17c0-1.24-1.18-2.25-2.62-2.25H15.61c-1.44,0-2.62,1.01-2.62,2.25v56.86"/><path class="cls-4" d="m68.86,76.58c-.86,0-1.55-.7-1.55-1.55V18.17c0-.33-.46-.7-1.07-.7H15.61c-.61,0-1.06.37-1.06.7v56.86c0,.86-.7,1.55-1.55,1.55s-1.55-.7-1.55-1.55V18.17c0-2.1,1.87-3.81,4.17-3.81h50.63c2.3,0,4.17,1.71,4.17,3.81v56.86c0,.86-.7,1.55-1.55,1.55Z"/><path class="cls-2" d="m21.35,75.03v-42.97c0-1.4,1.18-2.54,2.62-2.54h34.89c1.44,0,2.62,1.14,2.62,2.54v42.97"/><path class="cls-4" d="m61.48,76.64c-.89,0-1.61-.72-1.61-1.61v-42.97c0-.5-.46-.93-1.01-.93H23.97c-.55,0-1.01.43-1.01.93v42.97c0,.89-.72,1.61-1.61,1.61s-1.61-.72-1.61-1.61v-42.97c0-2.29,1.9-4.15,4.23-4.15h34.89c2.33,0,4.23,1.86,4.23,4.15v42.97c0,.89-.72,1.61-1.61,1.61Z"/><rect class="cls-3" x="26.83" y="35.49" width="7.75" height="7.75" rx="2" ry="2"/><rect class="cls-3" x="37.54" y="35.49" width="7.75" height="7.75" rx="2" ry="2"/><rect class="cls-3" x="26.83" y="45.75" width="7.75" height="7.75" rx="2" ry="2"/><path class="cls-4" d="m45.01,24.09h-8.34c-.48,0-.94-.22-1.23-.61l-4.64-6.05c-.52-.68-.39-1.66.29-2.18.68-.52,1.66-.39,2.18.29l4.18,5.44h6.82l4.35-5.52c.53-.68,1.51-.79,2.18-.26.67.53.79,1.51.26,2.18l-4.81,6.12c-.29.37-.74.59-1.22.59Z"/></svg>