<?xml version="1.0" encoding="UTF-8"?><svg id="_レイヤー_1" xmlns="http://www.w3.org/2000/svg" width="22" height="22" viewBox="0 0 22 22"><defs><style>.cls-1{fill:none;}.cls-2{fill:#ff2765;}</style></defs><rect class="cls-1" width="22" height="22"/><path class="cls-2" d="m16.73,13.18c-.94-.91-1.19-2.23-1.25-3.05.11-.42.2-.86.2-1.32h0c0-2.83-2.31-5.14-5.14-5.14h-.44c-2.83,0-5.14,2.31-5.14,5.14h0c0,.46.08.9.2,1.32-.06.82-.3,2.15-1.25,3.06-1.45,1.4-1.45,1.97-1.45,2.54h15.72c0-.57,0-1.14-1.45-2.54Z"/><path class="cls-2" d="m13.15,17.55c0,1.48-1.2,2.68-2.68,2.68s-2.68-1.2-2.68-2.68"/><path class="cls-2" d="m19.54,6.9c-.33,0-.6-.27-.6-.6,0-2.53-2.06-4.58-4.58-4.58-.33,0-.6-.27-.6-.6s.27-.6.6-.6c3.19,0,5.78,2.59,5.78,5.78,0,.33-.27.6-.6.6Z"/></svg>