<?xml version="1.0" encoding="UTF-8"?><svg id="_レイヤー_1" xmlns="http://www.w3.org/2000/svg" width="55.42" height="55.42" viewBox="0 0 55.42 55.42"><defs><style>.cls-1{fill:#fff;}.cls-2{fill:#bfe9bf;}.cls-3{fill:#00a600;}.cls-4{fill:#333;}.cls-5{fill:none;}</style></defs><rect class="cls-5" width="55.42" height="55.42"/><path class="cls-1" d="m45.49,19.08v26.05c0,1.82-1.47,3.29-3.29,3.29H12.17c-1.82,0-3.29-1.47-3.29-3.29V11.26c0-1.82,1.47-3.29,3.29-3.29h22.57"/><path class="cls-4" d="m42.2,49.43H12.17c-2.37,0-4.29-1.92-4.29-4.29V11.26c0-2.37,1.92-4.29,4.29-4.29h22.57v2H12.17c-1.26,0-2.29,1.03-2.29,2.29v33.88c0,1.26,1.03,2.29,2.29,2.29h30.03c1.26,0,2.29-1.03,2.29-2.29v-26.05h2v26.05c0,2.37-1.92,4.29-4.29,4.29Z"/><path class="cls-2" d="m45.45,20h-10.77c-.6,0-1.09-.49-1.09-1.09v-10.84c0-.97,1.18-1.46,1.86-.76,2.77,2.81,7.93,8.04,10.76,10.83.69.68.21,1.86-.76,1.86Z"/><path class="cls-4" d="m35.59,10.3c2.31,2.34,5.33,5.39,7.64,7.7h-7.64v-7.7m-.9-3.31c-.56,0-1.1.43-1.1,1.09v10.84c0,.6.49,1.09,1.09,1.09h10.77c.97,0,1.46-1.18.76-1.86-2.82-2.79-7.99-8.02-10.76-10.83-.22-.23-.5-.33-.77-.33h0Z"/><path class="cls-3" d="m34.3,28.11h-14.24c-.69,0-1.25-.56-1.25-1.25s.56-1.25,1.25-1.25h14.24c.69,0,1.25.56,1.25,1.25s-.56,1.25-1.25,1.25Z"/><path class="cls-3" d="m34.3,33.67h-14.24c-.69,0-1.25-.56-1.25-1.25s.56-1.25,1.25-1.25h14.24c.69,0,1.25.56,1.25,1.25s-.56,1.25-1.25,1.25Z"/><path class="cls-3" d="m34.3,39.22h-14.24c-.69,0-1.25-.56-1.25-1.25s.56-1.25,1.25-1.25h14.24c.69,0,1.25.56,1.25,1.25s-.56,1.25-1.25,1.25Z"/></svg>