<?xml version="1.0" encoding="UTF-8"?><svg id="_レイヤー_1" xmlns="http://www.w3.org/2000/svg" width="81.86" height="81.86" viewBox="0 0 81.86 81.86"><defs><style>.cls-1{fill:#fff;}.cls-2{fill:#bfe9bf;}.cls-3{fill:#333;}.cls-4{fill:none;}</style></defs><rect class="cls-4" width="81.86" height="81.86"/><path class="cls-2" d="m40.91,77.11l22.88-21.12c.5-.47.79-1.12.79-1.81V13.21c0-2.12-2.51-3.25-4.09-1.84l-18.75,16.7c-.52.47-.82,1.13-.82,1.84v47.2Z"/><path class="cls-3" d="m40.91,78.72c-.22,0-.44-.04-.65-.14-.59-.26-.96-.84-.96-1.48V29.91c0-1.16.5-2.27,1.36-3.04l18.75-16.7c1.21-1.08,2.89-1.34,4.37-.67,1.48.67,2.4,2.09,2.4,3.71v40.97c0,1.13-.48,2.22-1.31,2.99l-22.88,21.11c-.3.28-.7.43-1.09.43ZM62.11,12.36c-.17,0-.36.05-.55.22l-18.75,16.7c-.18.16-.28.39-.28.63v43.52l20.18-18.62c.17-.16.27-.39.27-.62V13.21c0-.5-.35-.71-.5-.77-.07-.03-.2-.08-.36-.08Z"/><path class="cls-1" d="m40.95,77.11l-22.88-21.12c-.5-.47-.79-1.12-.79-1.81V13.21c0-2.12,2.51-3.25,4.09-1.84l18.75,16.7c.52.47.82,1.13.82,1.84v47.2Z"/><path class="cls-3" d="m40.95,78.72c-.4,0-.79-.15-1.09-.43l-22.88-21.12c-.83-.77-1.31-1.86-1.31-2.99V13.21c0-1.62.92-3.05,2.4-3.71,1.48-.66,3.16-.41,4.37.67l18.75,16.7c.87.77,1.36,1.88,1.36,3.04v47.2c0,.64-.38,1.22-.96,1.48-.21.09-.43.14-.65.14ZM19.75,12.36c-.16,0-.29.05-.36.08-.15.07-.5.28-.5.77v40.97c0,.24.1.46.27.62l20.18,18.62V29.91c0-.24-.1-.47-.28-.63L20.3,12.58c-.19-.17-.38-.22-.55-.22Z"/></svg>