<?xml version="1.0" encoding="UTF-8"?><svg id="_レイヤー_1" xmlns="http://www.w3.org/2000/svg" width="55.42" height="55.42" viewBox="0 0 55.42 55.42"><defs><style>.cls-1{fill:#bfe9bf;}.cls-2{fill:#00a600;}.cls-3{fill:#333;}.cls-4{fill:none;}</style></defs><rect class="cls-4" width="55.42" height="55.42"/><path class="cls-3" d="m30.28,50.21h-4.87c-.79,0-1.45-.57-1.56-1.34l-.53-3.49c-1.65-.41-3.24-1.06-4.75-1.94l-2.91,2.15c-.64.47-1.5.4-2.06-.15l-3.44-3.44c-.56-.56-.62-1.42-.15-2.06l2.1-2.84c-.89-1.47-1.56-3.05-2-4.72l-3.57-.54c-.78-.12-1.34-.77-1.34-1.56v-4.87c0-.79.57-1.45,1.34-1.56l3.49-.53c.41-1.65,1.06-3.24,1.94-4.74l-2.15-2.91c-.46-.62-.39-1.51.15-2.06l3.44-3.44c.55-.55,1.43-.62,2.06-.15l2.84,2.1c1.47-.89,3.05-1.56,4.72-2l.54-3.57c.12-.78.78-1.34,1.56-1.34h4.87c.79,0,1.45.57,1.56,1.34l.53,3.49c1.65.41,3.24,1.06,4.74,1.94l2.91-2.15c.63-.47,1.5-.4,2.06.15l3.44,3.44c.56.56.62,1.42.16,2.05l-2.1,2.85c.89,1.47,1.55,3.05,2,4.72l3.57.54c.78.12,1.34.78,1.34,1.56v4.87c0,.79-.56,1.44-1.34,1.56l-3.49.53c-.41,1.65-1.06,3.24-1.94,4.74l2.15,2.91c.46.62.39,1.51-.15,2.06l-3.44,3.44c-.55.56-1.42.62-2.05.15l-2.85-2.1c-1.47.89-3.05,1.56-4.72,2l-.54,3.57c-.12.78-.78,1.34-1.56,1.34Zm-4.5-2h4.14l.69-4.55.67-.15c1.91-.43,3.7-1.19,5.32-2.25l.58-.38,3.66,2.7,2.93-2.93-2.74-3.71.37-.58c1.06-1.67,1.79-3.47,2.18-5.35l.14-.68,4.49-.68v-4.14l-4.55-.69-.15-.67c-.43-1.91-1.19-3.7-2.25-5.32l-.38-.58,2.7-3.66-2.93-2.93-3.71,2.74-.58-.37c-1.67-1.06-3.47-1.79-5.35-2.18l-.68-.14-.68-4.49h-4.14l-.69,4.55-.67.15c-1.91.43-3.7,1.19-5.32,2.25l-.58.38-3.66-2.7-2.93,2.93,2.74,3.71-.37.58c-1.06,1.67-1.79,3.47-2.18,5.35l-.14.68-4.49.68v4.14l4.55.69.15.67c.43,1.9,1.19,3.69,2.25,5.32l.38.58-2.7,3.66,2.93,2.93,3.71-2.74.58.37c1.67,1.06,3.47,1.79,5.35,2.18l.68.14.68,4.49Zm18.21-7.28s0,0,0,0h0Zm4.58-15.38s0,0,0,0h0ZM11.44,14.48h0s0,0,0,0Z"/><circle class="cls-1" cx="27.71" cy="27.71" r="8.73"/><path class="cls-3" d="m27.71,37.44c-5.37,0-9.73-4.37-9.73-9.73s4.37-9.73,9.73-9.73,9.73,4.37,9.73,9.73-4.37,9.73-9.73,9.73Zm0-17.46c-4.26,0-7.73,3.47-7.73,7.73s3.47,7.73,7.73,7.73,7.73-3.47,7.73-7.73-3.47-7.73-7.73-7.73Z"/><circle class="cls-2" cx="27.71" cy="27.71" r="3.05"/></svg>