<?xml version="1.0" encoding="UTF-8"?><svg id="_レイヤー_1" xmlns="http://www.w3.org/2000/svg" width="55.42" height="55.42" viewBox="0 0 55.42 55.42"><defs><style>.cls-1{fill:#fff;}.cls-2{fill:#bfe9bf;}.cls-3{fill:#00a600;}.cls-4{fill:#333;}.cls-5{fill:none;}</style></defs><rect class="cls-5" width="55.42" height="55.42"/><path class="cls-2" d="m27.71,44.54c-6.08,0-11.03-4.95-11.03-11.03v-15.28c0-6.08,4.95-11.03,11.03-11.03s11.03,4.95,11.03,11.03v15.28c0,6.08-4.95,11.03-11.03,11.03Zm0-33.35c-3.88,0-7.03,3.15-7.03,7.03v15.28c0,3.88,3.15,7.03,7.03,7.03s7.03-3.15,7.03-7.03v-15.28c0-3.88-3.15-7.03-7.03-7.03Z"/><path class="cls-4" d="m27.71,7.19c6.08,0,11.03,4.95,11.03,11.03v15.28c0,6.08-4.95,11.03-11.03,11.03s-11.03-4.95-11.03-11.03v-15.28c0-6.08,4.95-11.03,11.03-11.03m0,33.35c3.88,0,7.03-3.15,7.03-7.03v-15.28c0-3.88-3.15-7.03-7.03-7.03s-7.03,3.15-7.03,7.03v15.28c0,3.88,3.15,7.03,7.03,7.03m0-35.35c-7.19,0-13.03,5.85-13.03,13.03v15.28c0,7.19,5.85,13.03,13.03,13.03s13.03-5.85,13.03-13.03v-15.28c0-7.19-5.85-13.03-13.03-13.03h0Zm0,33.35c-2.77,0-5.03-2.26-5.03-5.03v-15.28c0-2.77,2.26-5.03,5.03-5.03s5.03,2.26,5.03,5.03v15.28c0,2.77-2.26,5.03-5.03,5.03h0Z"/><rect class="cls-1" x="8.95" y="19.68" width="37.52" height="28.55" rx="3" ry="3"/><path class="cls-4" d="m43.47,49.22H11.95c-2.21,0-4-1.79-4-4v-22.55c0-2.21,1.79-4,4-4h31.52c2.21,0,4,1.79,4,4v22.55c0,2.21-1.79,4-4,4ZM11.95,20.68c-1.1,0-2,.9-2,2v22.55c0,1.1.9,2,2,2h31.52c1.1,0,2-.9,2-2v-22.55c0-1.1-.9-2-2-2H11.95Z"/><path class="cls-3" d="m31.04,31.81c0-1.84-1.49-3.33-3.33-3.33s-3.33,1.49-3.33,3.33c0,1.16.6,2.19,1.51,2.78l-1.22,5.38c-.08.37.2.72.57.72h4.95c.38,0,.65-.35.57-.72l-1.22-5.38c.91-.6,1.51-1.62,1.51-2.78Z"/></svg>