<?xml version="1.0" encoding="UTF-8"?><svg id="_レイヤー_1" xmlns="http://www.w3.org/2000/svg" width="22" height="22" viewBox="0 0 22 22"><defs><style>.cls-1{fill:none;}.cls-2{fill:#ff2765;}</style></defs><rect class="cls-1" width="22" height="22"/><path class="cls-2" d="m10.47,4.34c-.98,1.06-2.45,1.27-3.25,1.31h-3.09c-1.75,0-3.19,1.44-3.19,3.19v4.34c0,1.75,1.44,3.19,3.19,3.19h3.09c.8.03,2.27.24,3.25,1.31,1.4,1.51,1.97,1.51,2.54,1.51V2.83c-.57,0-1.14,0-2.54,1.51Z"/><path class="cls-2" d="m14.84,8.17c1.48,0,2.69,1.2,2.69,2.68s-1.2,2.68-2.69,2.68"/><path class="cls-2" d="m19.54,15.26c-.15,0-.31-.06-.42-.18-.23-.23-.23-.61,0-.85.87-.87,1.34-2.02,1.34-3.24s-.48-2.38-1.34-3.24c-.23-.23-.23-.61,0-.85.23-.23.61-.23.85,0,1.09,1.09,1.69,2.54,1.69,4.09s-.6,3-1.69,4.09c-.12.12-.27.17-.42.17Z"/></svg>