<?xml version="1.0" encoding="UTF-8"?><svg id="_レイヤー_1" xmlns="http://www.w3.org/2000/svg" width="55.42" height="55.42" viewBox="0 0 55.42 55.42"><defs><style>.cls-1{fill:#fff;}.cls-2{fill:#bfe9bf;}.cls-3{fill:#00a600;}.cls-4{fill:#333;}.cls-5{fill:none;}</style></defs><rect class="cls-5" width="55.42" height="55.42"/><path class="cls-2" d="m26.22,11.79h19.4c1.1,0,2,.9,2,2v18.09h-23.4V13.79c0-1.1.9-2,2-2Z"/><path class="cls-4" d="m48.62,32.87h-25.4V13.79c0-1.65,1.35-3,3-3h19.4c1.65,0,3,1.35,3,3v19.09Zm-23.4-2h21.4V13.79c0-.55-.45-1-1-1h-19.4c-.55,0-1,.45-1,1v17.09Z"/><path class="cls-1" d="m24.23,31.84v-14.45c0-.65-.52-1.17-1.17-1.17h-8.36c-.41,0-.79.21-1,.57l-5.74,8.03c-.11.18-.17.39-.17.6v10.88c0,1.1.9,2,2,2h35.82c1.1,0,2-.9,2-2v-4.45h-23.39Z"/><path class="cls-4" d="m45.62,39.29H9.8c-1.65,0-3-1.35-3-3v-10.88c0-.39.11-.78.31-1.12l5.78-8.09c.35-.58,1.06-.98,1.82-.98h8.36c1.2,0,2.17.97,2.17,2.17v13.45h23.39v5.45c0,1.65-1.35,3-3,3ZM14.71,17.22c-.06,0-.12.03-.14.08l-5.78,8.1.02,10.9c0,.55.45,1,1,1h35.82c.55,0,1-.45,1-1v-3.45h-23.39v-15.45c0-.09-.08-.17-.17-.17h-8.36Z"/><path class="cls-3" d="m19.93,26.03h-6.32c-.69,0-1.13-.69-.79-1.26l3.25-4.88c.16-.27.46-.44.79-.44h3.07c.5,0,.91.38.91.85v4.88c0,.47-.41.85-.91.85Z"/><circle class="cls-2" cx="18.64" cy="40.07" r="3.56"/><path class="cls-4" d="m18.64,44.63c-2.51,0-4.56-2.05-4.56-4.56s2.05-4.56,4.56-4.56,4.56,2.05,4.56,4.56-2.05,4.56-4.56,4.56Zm0-7.12c-1.41,0-2.56,1.15-2.56,2.56s1.15,2.56,2.56,2.56,2.56-1.15,2.56-2.56-1.15-2.56-2.56-2.56Z"/><circle class="cls-2" cx="36.78" cy="40.07" r="3.56"/><path class="cls-4" d="m36.78,44.63c-2.51,0-4.56-2.05-4.56-4.56s2.05-4.56,4.56-4.56,4.56,2.05,4.56,4.56-2.05,4.56-4.56,4.56Zm0-7.12c-1.41,0-2.56,1.15-2.56,2.56s1.15,2.56,2.56,2.56,2.56-1.15,2.56-2.56-1.15-2.56-2.56-2.56Z"/></svg>