<?xml version="1.0" encoding="UTF-8"?><svg id="_レイヤー_1" xmlns="http://www.w3.org/2000/svg" width="55.42" height="55.42" viewBox="0 0 55.42 55.42"><defs><style>.cls-1{fill:#47a20a;}.cls-2{fill:#fff;}.cls-3{fill:#bfe9bf;}.cls-4{fill:#333;}.cls-5{fill:none;}</style></defs><rect class="cls-2" x="8.95" y="13.44" width="37.52" height="28.55" rx="3" ry="3"/><path class="cls-1" d="m46.47,39.98c-.24,0-.48-.08-.67-.26l-13.1-11.75c-.41-.37-.45-1-.08-1.41.37-.41,1-.44,1.41-.08l13.1,11.75c.41.37.45,1,.08,1.41-.2.22-.47.33-.74.33Z"/><path class="cls-1" d="m9.15,39.98c-.27,0-.55-.11-.74-.33-.37-.41-.33-1.04.08-1.41l13.1-11.75c.41-.37,1.04-.33,1.41.08.37.41.33,1.04-.08,1.41l-13.1,11.75c-.19.17-.43.26-.67.26Z"/><path class="cls-3" d="m9.29,13.92l17.44,16.96c.52.5,1.4.5,1.91,0l17.44-16.96"/><path class="cls-4" d="m27.69,32.26c-.59,0-1.17-.2-1.62-.6l-17.44-15.56c-.41-.37-.45-1-.08-1.41.37-.41,1-.45,1.41-.08l17.44,15.56c.13.12.44.12.58,0l17.44-15.56c.41-.37,1.04-.33,1.41.08.37.41.33,1.04-.08,1.41l-17.44,15.56c-.45.4-1.04.6-1.62.6Z"/><path class="cls-4" d="m43.47,42.98H11.95c-2.21,0-4-1.79-4-4v-22.55c0-2.21,1.79-4,4-4h31.52c2.21,0,4,1.79,4,4v22.55c0,2.21-1.79,4-4,4ZM11.95,14.44c-1.1,0-2,.9-2,2v22.55c0,1.1.9,2,2,2h31.52c1.1,0,2-.9,2-2v-22.55c0-1.1-.9-2-2-2H11.95Z"/><rect class="cls-5" width="55.42" height="55.42"/></svg>