<?xml version="1.0" encoding="UTF-8"?><svg id="_レイヤー_1" xmlns="http://www.w3.org/2000/svg" width="55.42" height="55.42" viewBox="0 0 55.42 55.42"><defs><style>.cls-1{fill:#fff;}.cls-2{fill:#bfe9bf;}.cls-3{fill:#00a600;}.cls-4{fill:#333;}.cls-5{stroke:#333;stroke-miterlimit:10;stroke-width:2px;}.cls-5,.cls-6{fill:none;}</style></defs><rect class="cls-6" width="55.42" height="55.42"/><path class="cls-1" d="m43.24,27.06c-1.99-6.26-8.19-10.85-15.53-10.85s-13.55,4.59-15.53,10.85c-3.12,2.34-5.02,5.38-5.02,8.71,0,7.36,9.22,13.35,20.55,13.35s20.55-5.99,20.55-13.35c0-3.33-1.9-6.37-5.02-8.71Z"/><path class="cls-5" d="m43.24,27.06c-1.99-6.26-8.19-10.85-15.53-10.85s-13.55,4.59-15.53,10.85c-3.12,2.34-5.02,5.38-5.02,8.71,0,7.36,9.22,13.35,20.55,13.35s20.55-5.99,20.55-13.35c0-3.33-1.9-6.37-5.02-8.71Z"/><path class="cls-3" d="m26.17,40.03c-.11,0-.2-.09-.2-.2v-2.92h-3.15c-.11,0-.2-.09-.2-.2v-1.48c0-.11.09-.2.2-.2h3.17v-1.17h-3.17c-.11,0-.2-.09-.2-.2v-1.48c0-.11.09-.2.2-.2h2.14l-3.76-6.63c-.04-.06-.04-.14,0-.2s.1-.1.17-.1h3.52c.08,0,.15.04.18.11l2.7,5.43,2.69-5.43c.03-.07.1-.11.18-.11h3.39c.07,0,.14.04.17.1.04.06.04.14,0,.2l-3.86,6.63h2.23c.11,0,.2.09.2.2v1.48c0,.11-.09.2-.2.2h-3.17v1.17h3.17c.11,0,.2.09.2.2v1.48c0,.11-.09.2-.2.2h-3.15v2.92c0,.11-.09.2-.2.2h-3.06Z"/><path class="cls-4" d="m9.91,26.36c-.1,0-.2-.02-.3-.05-.53-.17-.82-.73-.65-1.25,2.44-7.74,10.17-13.14,18.8-13.14s16.12,5.15,18.7,12.82c.18.52-.1,1.09-.63,1.27-.53.18-1.09-.11-1.27-.63-2.31-6.86-9.06-11.46-16.8-11.46s-14.71,4.83-16.89,11.74c-.13.43-.53.7-.95.7Z"/><circle class="cls-2" cx="24.76" cy="10.16" r="2.87"/><path class="cls-4" d="m24.76,14.03c-2.13,0-3.87-1.73-3.87-3.87s1.74-3.87,3.87-3.87,3.87,1.73,3.87,3.87-1.74,3.87-3.87,3.87Zm0-5.74c-1.03,0-1.87.84-1.87,1.87s.84,1.87,1.87,1.87,1.87-.84,1.87-1.87-.84-1.87-1.87-1.87Z"/><circle class="cls-2" cx="30.66" cy="10.16" r="2.87"/><path class="cls-4" d="m30.66,14.03c-2.13,0-3.87-1.73-3.87-3.87s1.74-3.87,3.87-3.87,3.87,1.73,3.87,3.87-1.73,3.87-3.87,3.87Zm0-5.74c-1.03,0-1.87.84-1.87,1.87s.84,1.87,1.87,1.87,1.87-.84,1.87-1.87-.84-1.87-1.87-1.87Z"/></svg>