<?xml version="1.0" encoding="UTF-8"?><svg id="_レイヤー_1" xmlns="http://www.w3.org/2000/svg" width="35.72" height="38.92" viewBox="0 0 35.72 38.92"><defs><style>.cls-1{fill:#fff;}.cls-2{fill:#bfe9bf;}.cls-3{fill:#333;}</style></defs><path class="cls-1" d="m31.45,30.69l-5.8-6.8c2.03-2.42,3.25-5.54,3.25-8.94,0-7.69-6.26-13.95-13.95-13.95S1,7.26,1,14.95s6.26,13.95,13.95,13.95c2.4,0,4.65-.61,6.63-1.68l5.86,6.88c.52.61,1.26.93,2,.93.6,0,1.21-.21,1.71-.63,1.11-.94,1.24-2.6.3-3.71ZM7.69,14.95c0-4.01,3.26-7.27,7.27-7.27s7.27,3.26,7.27,7.27-3.26,7.27-7.27,7.27-7.27-3.26-7.27-7.27Z"/><path class="cls-3" d="m29.44,36.03c-1.07,0-2.08-.47-2.77-1.28l-5.35-6.28c-1.98.94-4.17,1.43-6.38,1.43C6.71,29.9,0,23.2,0,14.95S6.71,0,14.95,0s14.95,6.71,14.95,14.95c0,3.21-1.05,6.35-2.96,8.92l5.26,6.18c1.3,1.53,1.11,3.82-.41,5.12-.66.56-1.49.87-2.35.87Zm-7.63-10.07l6.39,7.5c.56.66,1.64.75,2.3.18.68-.58.77-1.61.18-2.3l-6.34-7.45.54-.65c1.95-2.33,3.02-5.27,3.02-8.3,0-7.14-5.81-12.95-12.95-12.95S2,7.81,2,14.95s5.81,12.95,12.95,12.95c2.14,0,4.27-.54,6.15-1.56l.71-.39Zm-6.86-2.74c-4.56,0-8.27-3.71-8.27-8.27s3.71-8.27,8.27-8.27,8.27,3.71,8.27,8.27-3.71,8.27-8.27,8.27Zm0-14.53c-3.46,0-6.27,2.81-6.27,6.27s2.81,6.27,6.27,6.27,6.27-2.81,6.27-6.27-2.81-6.27-6.27-6.27Z"/><path class="cls-2" d="m29.97,27.76h0c2.17,0,3.93,1.76,3.93,3.93v6.53h-7.85v-6.53c0-2.17,1.76-3.93,3.93-3.93Z" transform="translate(74.08 39.33) rotate(140.43)"/><path class="cls-3" d="m30.8,38.92c-1.42,0-2.83-.61-3.8-1.79l-4.79-5.8,7.6-6.28,4.79,5.8c1.73,2.09,1.44,5.21-.66,6.94-.92.76-2.03,1.13-3.13,1.13Zm-5.78-7.32l3.52,4.26c.5.6,1.2.97,1.98,1.04.79.07,1.54-.16,2.14-.65.6-.5.97-1.2,1.04-1.98.07-.78-.16-1.54-.65-2.14l-3.52-4.26-4.51,3.73Z"/></svg>