<?xml version="1.0" encoding="UTF-8"?><svg id="_レイヤー_1" xmlns="http://www.w3.org/2000/svg" width="200" height="35" viewBox="0 0 200 35"><defs><style>.cls-1{fill:#fff;}.cls-2{fill:#ffe400;}.cls-3{fill:#00c0f1;}.cls-4{isolation:isolate;}.cls-4,.cls-5{fill:none;}.cls-6{fill:#faa323;}.cls-7{fill:#002b83;}.cls-8{fill:#3176d5;}</style></defs><rect class="cls-5" width="200" height="35"/><g id="_テキストリンク-2" class="cls-4"><g class="cls-4"><path class="cls-8" d="m116.06,10.91c-.2.35-.26.48-.42,1.1-1.04,4.1-2.34,6.85-4.45,9.3-2.03,2.38-4.52,4.1-8.31,5.79-.73-1.41-1.08-1.89-2.33-3.15,1.92-.6,3.13-1.17,4.74-2.18,3.39-2.16,5.55-5.18,6.57-9.19h-9.65c-1.81,0-2.51.02-3.42.13v-3.37c.95.13,1.63.15,3.46.15h10.09c.97,0,1.41-.04,2.01-.24l1.72,1.65Z"/><path class="cls-8" d="m124.29,8.33c-.11.84-.15,1.52-.15,2.73l-.13,11.85c2.36-.48,4.16-1.26,5.88-2.49,1.87-1.34,3.2-2.89,4.27-4.98.97,1.34,1.32,1.72,2.51,2.69-3.13,4.83-6.92,7.21-13.33,8.37-.68.13-.93.2-1.32.37l-1.67-1.98c.18-.51.22-.84.22-2.03l.09-11.79c.02-.11.02-.2.02-.31,0-1.06-.04-1.89-.13-2.49l3.75.04Z"/><path class="cls-8" d="m142.5,12.91c.97,1.81,1.41,2.91,2.18,5.4l-2.95.9c-.59-2.4-1.01-3.55-1.98-5.51l2.75-.79Zm12.76.26c-.13.37-.15.44-.33,1.23-.64,2.97-1.59,5.4-2.89,7.29-1.56,2.25-3.53,3.81-7.01,5.58-.68-1.17-.99-1.56-2.09-2.62,1.67-.64,2.62-1.15,3.88-2.03,2.56-1.85,4.01-4.12,4.91-7.65.26-1.08.37-1.81.4-2.53l3.13.73Zm-7.98-1.17c1.17,2.23,1.59,3.22,2.14,5.22l-2.89.88c-.42-1.74-1.12-3.64-1.98-5.35l2.73-.75Z"/><path class="cls-8" d="m161.58,9.81c1.15,2.07,1.83,3.75,2.67,6.65l-3.24.99c-.64-2.62-1.48-4.94-2.49-6.79l3.06-.86Zm15.71.26c-.18.57-.24.77-.51,2.12-.9,4.32-2.6,7.73-5.09,10.38-1.74,1.81-3.83,3.26-6.74,4.67-.68-1.26-1.04-1.74-2.31-2.97,2.6-.95,4.47-2.09,6.28-3.83,1.81-1.7,2.93-3.48,3.79-6.04.66-1.87,1.01-3.61,1.04-5.13l3.55.82Zm-9.87-1.32c1.06,1.83,1.87,3.81,2.62,6.41l-3.19,1.01c-.66-2.49-1.32-4.27-2.47-6.59l3.04-.84Z"/><path class="cls-8" d="m187.79,9.76c0-.86-.04-1.61-.13-2.31h3.2c-.09.57-.13,1.37-.13,2.34v5.2h3.88l-2.38-1.37c1.32-1.61,2.2-3.11,3.17-5.31l2.78,1.21c-1.12,2.29-2.09,3.86-3.35,5.46h1.76c.9,0,1.76-.04,2.64-.13v2.91c-.73-.09-1.46-.13-2.6-.13h-3.55v6.61c0,.51.15.57,1.59.57,1.34,0,1.7-.09,1.87-.51.2-.51.26-1.15.31-3.15,1.06.57,1.52.75,2.75,1.04-.18,2.89-.51,4.03-1.34,4.69-.62.49-1.48.62-4.03.62-3.5,0-4.05-.29-4.05-2.12v-7.76h-2.27c-.09,2.09-.2,2.95-.55,4.08-.55,1.7-1.54,3.11-3,4.23-1.1.86-2.05,1.32-3.66,1.85-.57-1.12-.97-1.74-1.74-2.67,2.14-.51,3.5-1.28,4.52-2.53.71-.86,1.17-2.05,1.37-3.48.04-.4.07-.68.11-1.48h-2.75c-.93,0-1.72.04-2.6.13v-2.91c.79.09,1.7.13,2.64.13h5.55v-5.22Zm-4.76-1.43c1.39,1.78,2,2.78,3.2,5.11l-2.6,1.45c-1.19-2.49-1.81-3.5-3.19-5.29l2.6-1.28Z"/></g></g><g id="_レイヤー_2"><g id="_レイヤー_1-2"><rect class="cls-3" x="1.27" y="2.47" width="85.88" height="30.05"/><rect class="cls-7" x="1.27" y="17.54" width="85.88" height="14.99"/><rect class="cls-1" x=".4" y="16.99" width="87.62" height="1.1"/><polygon class="cls-1" points="27.4 21 18.44 21 17.58 23.23 24.09 23.23 18.22 29.96 21.36 29.96 26.76 23.42 27.4 21"/><polygon class="cls-1" points="29.32 27.62 31.74 21 29.32 21 26.26 30.11 29.83 30.11 35.31 26.12 33.81 24.7 29.32 27.62"/><polygon class="cls-1" points="37.23 22.92 36.16 25.99 38.08 25.99 39.07 22.92 37.23 22.92"/><polygon class="cls-1" points="41.7 22.92 39.85 22.92 38.79 25.99 40.71 25.99 41.7 22.92"/><polygon class="cls-1" points="40.28 30.11 42.49 30.11 45.05 22.92 42.92 22.92 40.28 30.11"/><polygon class="cls-1" points="47.33 21 45.97 24.89 48.41 24.89 49.68 21 47.33 21"/><polygon class="cls-1" points="52.97 21 50.61 21 49.26 24.89 51.7 24.89 52.97 21"/><polygon class="cls-1" points="54.33 21 50.99 30.13 53.79 30.13 57.04 21 54.33 21"/><polygon class="cls-6" points="61.44 23.63 61.2 21 59.02 21 59.26 23.63 61.44 23.63"/><polygon class="cls-6" points="64.71 21 62.53 21 61.56 24.03 57.83 24.03 57.22 26 59.6 26 59.13 27.46 56.41 30.11 58.88 30.11 61.11 28.09 61.79 26 62.55 26 61.25 30.11 61.44 30.11 63.43 30.11 64 30.11 64.86 30.11 66.18 30.11 67.08 27.16 64.9 27.16 64.55 28.3 64 28.3 64.74 26 67.42 26 68.03 24.03 63.74 24.03 64.71 21"/><polygon class="cls-6" points="66.61 23.63 68.32 21 66 21 64.29 23.63 66.61 23.63"/><polygon class="cls-2" points="74.09 10.35 75.06 8.2 73.56 8.2 75.97 5.52 72.86 5.52 70.5 8.26 71.57 5.52 68.45 5.52 67.66 8.15 67.1 5.52 64.15 5.52 64.69 8.2 63.08 8.2 62.11 10.35 64.8 10.35 60.87 14.33 64.15 14.33 68.08 10.35 68.36 10.35 66.95 14.33 70.06 14.33 73.93 14.33 74.74 12.18 70.83 12.18 71.48 10.35 74.09 10.35"/><polygon class="cls-1" points="25.89 6.14 22.32 6.14 19.99 13.43 21.19 13.43 23.42 13.43 27.9 13.43 28.35 12.26 23.82 12.26 25.89 6.14"/><polygon class="cls-1" points="20.43 9.15 16.24 9.15 16.77 7.58 21.01 7.58 21.58 6.14 17.26 6.14 14.73 6.14 13.69 6.14 11.36 13.43 14.78 13.43 15.85 10.31 19.98 10.31 20.43 9.15"/><polygon class="cls-1" points="31.8 6.14 31.01 6.14 28.68 13.43 29.83 13.43 32.11 13.43 36.54 13.43 36.99 12.26 32.51 12.26 33.13 10.42 37.12 10.42 37.58 9.25 33.52 9.25 34.19 7.3 38.19 7.3 38.64 6.14 34.59 6.14 31.8 6.14"/><polygon class="cls-1" points="48.48 6.14 45.79 6.14 42.22 6.14 39.36 6.14 39.05 7.3 41.84 7.3 39.88 13.43 43.32 13.43 45.39 7.3 48.02 7.3 48.48 6.14"/><polygon class="cls-1" points="51.62 6.32 49.36 6.32 48.34 8.72 49.76 8.72 51.62 6.32"/><path class="cls-1" d="m57.72,9.68c-1.03-.3-2.05-.68-3.03-1.13-.57-.38-.53-1.2,1.22-1.26.91-.1,1.81.3,2.34,1.05l1.34-.79c-.72-.9-1.81-1.42-2.96-1.42-1.84,0-3.07-.18-4.72,1.26-.88.74-1.1,1.92-.09,2.51,1.15.69,3.45,1.26,3.45,1.79,0,.44-1.26.88-2.1.74-.71-.15-1.35-.53-1.83-1.07l-1.63.78c.35.57.87,1.03,1.48,1.31,1.2.69,4.27.79,6.29-.73,1.74-1.3,1.67-2.48.23-3.05Z"/></g></g></svg>