<?xml version="1.0" encoding="UTF-8"?><svg id="_レイヤー_1" xmlns="http://www.w3.org/2000/svg" width="200" height="35" viewBox="0 0 200 35"><defs><style>.cls-1{fill:#c5162d;}.cls-2{fill:#f4b719;}.cls-3{fill:none;}.cls-4{fill:#eeb619;}</style></defs><rect class="cls-3" width="200" height="35"/><g id="_レイヤー_2"><g id="_レイヤー_1-2"><path class="cls-1" d="m79.06,21.3h-12.39l-1.44,4.37h22.38l5.76-17.72h-22.35l-1.39,4.28h12.92c.61-.07,1.16.36,1.23.97.02.2,0,.41-.09.59l-1.78,5.57c-.48,1.16-1.6,1.92-2.85,1.94Z"/><path class="cls-1" d="m110.23,14.19h9.61l-1.26,3.78h-10.09s-1.85,2.45-1.07,3.3h12.68l-1.4,4.37h-20.8l2.09-6.34c.24-.74-.13-1.3-.57-1.3h-5.19l1.26-3.78h5.23c1.89-1.07,1.08-2.21.86-2.48h-5.32l1.26-3.78h24.41l-1.26,3.78h-9.56c-.49,0-2.3,1.75-.93,2.68"/><polygon class="cls-1" points="60.38 11.65 56.96 11.65 58.62 6.54 62.05 6.54 60.38 11.65"/><path class="cls-1" d="m49.72,18.5l13.81,2.06,1.63-5.04-13.98-2.08c-.47-.09-.68-.45-.5-1.01l1.46-4.49h-8.16l-5.76,17.75h8.16l2.05-6.25c.14-.58.69-.98,1.29-.92Z"/><polygon class="cls-1" points="65.6 11.65 62.09 11.65 63.75 6.54 67.26 6.54 65.6 11.65"/><path class="cls-2" d="m150.38,12.74h10.17l-1.61,5.01h-6.66c-.49-.03-.94.26-1.13.71l-1.53,4.7c-.08.25-.15.63.63.63h9.41l-1.53,4.7h-17.07l3-9.21c.11-.21.03-.47-.18-.58-.05-.03-.12-.05-.18-.05-.19,0-.63.37-.63.4l-9.58,9.47h-8.38l10.21-10.04c.23-.26.33-.72,0-.72h-6.14l1.63-5.01h10.63c.43-.04.79-.34.92-.74l3.11-9.54h7.56l-3.08,9.56c-.16.31-.13.71.42.71Z"/><path class="cls-4" d="m136.29,12.41c.29-.88-1.73-4.59-3.1-4.59,1.36,0,5.89-3.78,6.16-4.65-.28.84,2.12,4.59,3.1,4.59-.98,0-5.88,3.77-6.16,4.65Z"/><path class="cls-4" d="m155.62,12.41c.29-.88-1.73-4.59-3.1-4.59,1.36,0,5.89-3.78,6.16-4.65-.28.84,2.12,4.59,3.1,4.59-.98,0-5.84,3.77-6.16,4.65Z"/></g></g></svg>