<?xml version="1.0" encoding="UTF-8"?><svg id="_レイヤー_1" xmlns="http://www.w3.org/2000/svg" width="200" height="35" viewBox="0 0 200 35"><defs><style>.cls-1{isolation:isolate;}.cls-1,.cls-2{fill:none;}.cls-3{fill:#3176d5;}</style></defs><rect class="cls-2" width="200" height="35"/><g id="_テキストリンク-2"><g class="cls-1"><path class="cls-3" d="m77.68,26.86c-.16-.94-.37-1.75-.6-2.44l-.78-2.23h-6.94l-.78,2.23c-.37,1.03-.51,1.66-.62,2.44h-4.55c.37-.69.69-1.45,1.17-2.76l5.01-13.54c.41-1.15.6-1.75.74-2.39h4.94c.14.6.28,1.08.78,2.39l5.06,13.54c.44,1.17.85,2.18,1.13,2.76h-4.55Zm-4.53-14.42c-.07-.21-.16-.44-.34-1.06-.14.48-.16.6-.32,1.06l-2.16,6.51h5.01l-2.18-6.51Z"/><path class="cls-3" d="m84.72,11.27c0-1.43-.05-2.14-.21-3.17.92.05,1.49.07,3.15.07h4.48c2.83,0,4.92.69,6.42,2.14,1.68,1.63,2.55,4.02,2.55,7.04s-.92,5.66-2.69,7.38c-1.52,1.45-3.54,2.14-6.25,2.14h-4.51c-1.56,0-2.18.02-3.13.07.14-.99.18-1.7.18-3.17v-12.49Zm7.15,12.26c1.7,0,2.85-.41,3.72-1.33,1.04-1.08,1.59-2.74,1.59-4.78s-.48-3.61-1.47-4.62c-.87-.9-2.02-1.29-3.86-1.29h-3.33v12.03h3.36Z"/><path class="cls-3" d="m107.69,20.9c.09.94.23,1.38.62,1.86.62.8,1.7,1.24,3.06,1.24,2,0,3.26-.92,3.26-2.39,0-.71-.3-1.29-.9-1.66-.71-.46-1.43-.69-3.93-1.26-1.95-.46-2.71-.76-3.59-1.38-1.29-.97-1.98-2.37-1.98-4.07,0-3.38,2.69-5.52,6.94-5.52,2.74,0,4.81.83,6,2.39.58.78.87,1.45,1.17,2.81l-4.05.44c-.12-.71-.28-1.06-.6-1.47-.53-.62-1.45-.97-2.55-.97-1.79,0-2.99.87-2.99,2.18,0,.62.28,1.13.78,1.5.51.32.97.48,2.16.76,2.51.53,3.61.83,4.53,1.24.94.41,1.79,1.13,2.32,2,.46.76.69,1.68.69,2.78,0,3.75-2.62,5.89-7.22,5.89-2.97,0-5.2-.83-6.42-2.37-.76-.94-1.08-1.82-1.33-3.61l4-.39Z"/><path class="cls-3" d="m125.54,26.86c-1.43,0-2.28.02-3.13.07.14-.85.18-1.75.18-3.2v-12.03c0-1.59-.05-2.48-.18-3.54h4.18c-.16,1.4-.18,1.7-.18,3.5v11.8h6.16c1.59,0,2.39-.05,3.4-.16v3.72c-.67-.09-1.95-.16-3.4-.16h-7.04Z"/></g></g></svg>