<?xml version="1.0" encoding="UTF-8"?><svg id="_レイヤー_1" xmlns="http://www.w3.org/2000/svg" width="200" height="35" viewBox="0 0 200 35"><defs><style>.cls-1{fill:#fff;}.cls-2{fill:#35308e;}.cls-3{fill:#008bd5;}.cls-4{fill:none;}</style></defs><rect class="cls-4" width="200" height="35"/><path class="cls-3" d="m84.63,17.5c0,5.57-4.51,10.08-10.08,10.08-5.57,0-10.08-4.51-10.08-10.08,0-5.57,4.51-10.08,10.08-10.08,0,0,0,0,0,0,5.57,0,10.08,4.51,10.08,10.08h0"/><path class="cls-1" d="m80.01,11.72c0,1.12-.91,2.03-2.03,2.03-1.12,0-2.03-.91-2.03-2.03s.91-2.02,2.03-2.03,2.03.91,2.03,2.02h0"/><path class="cls-2" d="m79.05,11.72c0,.59-.48,1.07-1.07,1.07s-1.07-.48-1.07-1.07.48-1.07,1.07-1.07c.59,0,1.07.48,1.07,1.07h0"/><path class="cls-1" d="m72.98,11.72c0,1.12-.91,2.03-2.03,2.03-1.12,0-2.02-.91-2.02-2.03s.91-2.02,2.02-2.03,2.03.91,2.03,2.02h0"/><path class="cls-2" d="m72.03,11.72c0,.59-.48,1.07-1.07,1.07s-1.07-.48-1.07-1.07.48-1.07,1.07-1.07c.59,0,1.07.48,1.07,1.07h0"/><rect class="cls-3" x="24.37" y="7.76" width="1.67" height="19.49"/><polygon class="cls-3" points="54.91 7.76 53.24 7.76 53.24 27.26 63.34 27.26 63.34 25.66 54.91 25.66 54.91 7.76"/><polygon class="cls-3" points="113.54 9.36 113.54 7.76 103.43 7.76 103.43 27.26 113.54 27.26 113.54 25.66 105.11 25.66 105.11 18.23 113.54 18.23 113.54 16.64 105.11 16.64 105.11 9.36 113.54 9.36"/><path class="cls-3" d="m18.11,16.81c2.21-1.69,2.63-4.86.93-7.07-.96-1.25-2.44-1.98-4.01-1.98h-5.82v19.49h6.52c3.03,0,5.49-2.46,5.5-5.49,0-2.11-1.21-4.04-3.12-4.96Zm-7.23-7.45h4.15c1.91.05,3.41,1.63,3.37,3.53-.04,1.84-1.53,3.32-3.37,3.37h-4.15v-6.9Zm4.85,16.3h-4.85v-7.8h4.85c2.15,0,3.9,1.75,3.9,3.9,0,2.15-1.75,3.9-3.9,3.9Z"/><path class="cls-3" d="m97.17,16.81c2.21-1.7,2.63-4.86.93-7.07-.96-1.24-2.43-1.97-4-1.97h-5.82v19.49h6.52c3.03,0,5.49-2.46,5.5-5.49,0-2.11-1.21-4.04-3.12-4.96Zm-7.23-7.45h4.15c1.91-.05,3.49,1.46,3.53,3.37.05,1.91-1.46,3.49-3.37,3.53-.06,0-.11,0-.17,0h-4.15v-6.9Zm4.85,16.3h-4.85v-7.8h4.85c2.15,0,3.9,1.75,3.9,3.9,0,2.15-1.75,3.9-3.9,3.9h0Z"/><path class="cls-3" d="m39.52,18.26v1.6h8.24c-1.3,4.5-6,7.09-10.49,5.79-4.5-1.3-7.09-6-5.79-10.49,1.3-4.5,6-7.09,10.49-5.79,2.07.6,3.83,1.96,4.93,3.8h1.84c-2.39-5.02-8.4-7.16-13.43-4.77s-7.16,8.4-4.77,13.43,8.4,7.16,13.43,4.77c3.26-1.55,5.44-4.74,5.72-8.34h-10.17Z"/><path class="cls-2" d="m139.38,11.59l-4.48,15.99h-1.77l-3.65-13.28-3.62,13.29h-1.72l-4.53-16h2.03l3.51,12.83,3.47-12.83h1.86l3.47,12.95,3.5-12.95h1.93Z"/><path class="cls-2" d="m143.34,13.19h-2.11v-1.94h2.11v1.94Zm-.12,14.39h-1.87v-11.99h1.87v11.99Z"/><path class="cls-2" d="m160.34,27.58h-1.97v-13.73l-4.62,9.38h-1.08l-4.62-9.38v13.73h-1.84v-15.99h2.53l4.53,9.2,4.52-9.2h2.55v15.99Z"/><path class="cls-2" d="m174.22,27.58l-1.65-4.56h-6.94l-1.65,4.56h-2l5.92-15.99h2.52l5.91,15.99h-2.12Zm-2.24-6.21l-2.88-7.89-2.87,7.89h5.74Z"/><path class="cls-2" d="m190.79,11.59l-5.55,7.91,5.54,8.09h-2.3l-4.44-6.7-4.55,6.7h-2.15l5.6-7.99-5.48-8h2.29l4.38,6.61,4.49-6.61h2.17Z"/></svg>