<?xml version="1.0" encoding="UTF-8"?><svg id="_レイヤー_1" xmlns="http://www.w3.org/2000/svg" width="200" height="35" viewBox="0 0 200 35"><defs><style>.cls-1{fill:#35318d;}.cls-2{fill:none;}.cls-3{fill:#00a9e7;}</style></defs><rect class="cls-2" width="200" height="35"/><g id="A"><g id="biglobe-hikari"><path class="cls-1" d="m23.83,23.4c0,1.8.78,2.36,2.88,2.36h4.74c1.84-.06,3.67-.25,5.49-.56l.15,3.74c-1.77.22-3.56.33-5.34.34h-5.16c-4.52,0-6.46-1.82-6.46-5.91v-14.04l4.52.2c0,.29-.22.54-.82.6v6.89c3.41-1.17,6.71-2.61,9.89-4.3l2.45,3.45c-.13.07-.29.11-.44.1-.14,0-.28-.02-.42-.05-3.72,1.68-7.56,3.11-11.48,4.26v2.92Zm11.03-10.5c-.72-1.2-1.56-2.32-2.5-3.35l1.58-1.18c.98,1,1.86,2.09,2.62,3.27l-1.7,1.27Zm3.62-1.09c-.76-1.15-1.6-2.24-2.52-3.27l1.56-1.22c1,1,1.89,2.09,2.67,3.27l-1.71,1.22Z"/><path class="cls-1" d="m43.98,15.02c.7,1.65,1.25,3.35,1.63,5.1l-2.83.82c-.36-1.75-.89-3.46-1.58-5.11l2.78-.8Zm13.97.82c-.12.24-.38.37-.65.34-2.02,7.19-5.91,11.36-11.25,13.56-.59-.86-1.29-1.65-2.07-2.34,4.9-1.77,8.72-5.59,10.27-12.78l3.7,1.21Zm-8.25-1.76c.56,1.72.95,3.48,1.18,5.27l-2.98.65c-.24-1.8-.64-3.58-1.18-5.32l2.98-.6Z"/><path class="cls-1" d="m80.15,14.29c-.15.22-.36.4-.6.51-2.96,8.5-6.65,12.63-12.69,15.69-.79-1.09-1.73-2.06-2.8-2.88,5.51-2.55,8.79-5.95,10.68-11.44h-6.07c-1.34,1.94-2.97,3.67-4.83,5.12-.92-.89-1.93-1.68-3.01-2.36,3.13-2.07,6.09-6.29,7.43-10.46l4.62,1.02c-.15.31-.47.5-.82.48l-1.29,2.74h5.82l.54-.25,3.03,1.82Zm-4-6.36c1.11.89,2.13,1.89,3.04,2.98l-1.63,1.44c-.88-1.11-1.86-2.14-2.94-3.06l1.54-1.36Zm4.03-.6c1.11.87,2.12,1.87,3.01,2.97l-1.63,1.38c-.86-1.09-1.82-2.1-2.87-3.01l1.49-1.34Z"/><path class="cls-1" d="m101.4,11.81v16.53h-3.79v-1.29h-10.19v1.37h-3.69V11.81h17.68Zm-3.81,11.8v-8.4h-10.19v8.4h10.19Z"/><path class="cls-1" d="m103.78,17.2h20.25v3.68h-19.18c-.22.26-.53.43-.87.46l-.2-4.14Z"/><path class="cls-1" d="m140.52,7.64c1.03.92,1.96,1.96,2.77,3.08l-.68.54,2.84,1.36c-.13.21-.33.38-.56.48-2.28,9.04-6.24,14.09-14.21,17.29-.77-1.09-1.64-2.11-2.57-3.06,7.41-2.58,10.9-7.29,12.05-12.36h-13.6v-3.5h14.7c-.69-.96-1.45-1.87-2.28-2.72l1.54-1.12Zm5.42,4.08c-.79-1.13-1.69-2.19-2.67-3.16l1.53-1.24c1.05.92,1.98,1.97,2.79,3.1l-1.65,1.3Z"/><path class="cls-3" d="m162.92,18.79c-.2.38-.59.63-1.02.65-2.12,5.06-4.26,9.54-12.91,12.1-.22-1.36-.75-2.65-1.55-3.77,7.42-1.85,8.75-5.09,10.28-9.45l5.21.47Zm5.1,7.24c-.29,1.12-.22,1.29.65,1.29h2.06c.82,0,1.17-.65,2.36-4.52,1.01.81,2.17,1.4,3.42,1.74-1.84,5.29-3.27,6.77-6.49,6.77h-3.12c-3.71,0-4.27-1.32-3.27-5.24l2.15-8.04h-14.84l1.08-4.03h11.07l2.83-10.54,5.17.26c-.12.35-.45.56-1.09.65l-2.59,9.61h11.35l-1.08,4.03h-7.01c-.17.07-.35.12-.54.15l-2.12,7.86Zm-7.68-21.43c.74,2.28,1.16,4.66,1.23,7.07l-4.63,1.68c.03-2.45-.26-4.89-.86-7.27l4.26-1.48Zm9.85,7.07c1.96-2.24,3.71-4.65,5.23-7.21l4.46,1.93c-.29.29-.7.43-1.1.38-1.62,2.3-3.4,4.49-5.33,6.53l-3.25-1.63Z"/></g></g></svg>