<?xml version="1.0" encoding="UTF-8"?><svg id="_レイヤー_1" xmlns="http://www.w3.org/2000/svg" width="200" height="35" viewBox="0 0 200 35"><defs><style>.cls-1{fill:#fff;}.cls-2{fill:none;}.cls-3{fill:#35318f;}.cls-4{fill:#008cd7;}</style></defs><rect class="cls-2" width="200" height="35"/><g id="showtalk-widget-banner-minimized-icon_画像"><rect class="cls-3" x="168.66" y="15.94" width="1.49" height="11.36"/><rect class="cls-3" x="168.66" y="11.82" width="1.49" height="2.33"/><rect class="cls-3" x="173.37" y="11.82" width="1.49" height="15.48"/><path class="cls-3" d="m145.4,15.69c-3.28,0-5.93,2.65-5.93,5.93s2.65,5.93,5.93,5.93,5.93-2.65,5.93-5.93h0c0-3.27-2.66-5.92-5.93-5.93Zm4.48,5.93c0,2.47-2.01,4.48-4.48,4.48-2.47,0-4.48-2.01-4.48-4.48s2.01-4.48,4.48-4.48h0c2.47,0,4.47,2.01,4.48,4.48Z"/><path class="cls-3" d="m160.02,15.69c-1.71-.02-3.35.71-4.48,2v-5.87h-1.49v15.48h1.46v-1.8c2.14,2.48,5.89,2.75,8.36.6s2.75-5.89.6-8.36c-1.13-1.3-2.77-2.05-4.49-2.05h.03Zm4.49,5.93c0,2.49-2.01,4.5-4.5,4.5s-4.5-2.01-4.5-4.5h0c0-2.49,2.01-4.5,4.5-4.5s4.5,2.01,4.5,4.5Z"/><path class="cls-3" d="m135.45,27.3h1.49v-7.13c0-2.45-1.98-4.45-4.43-4.48-1.51-.01-2.91.74-3.74,2-.82-1.26-2.23-2.01-3.73-2-1.11,0-2.18.41-3,1.15v-.86h-1.53v11.32h1.49v-7.13c0-1.66,1.34-3,3-3s3,1.34,3,3v7.13h1.51v-7.13c0-1.66,1.34-3,3-3s3,1.34,3,3l-.06,7.13Z"/><path class="cls-3" d="m187.4,23.81c-1.2,2.15-3.91,2.93-6.07,1.73-1.26-.7-2.1-1.97-2.26-3.4h10.35c.01-.17.01-.35,0-.52.02-3.31-2.65-6.02-5.96-6.04-3.31-.02-6.02,2.65-6.04,5.96-.02,3.31,2.65,6.02,5.96,6.04,2.47.02,4.69-1.48,5.61-3.77h-1.59Zm-3.89-6.67c2.1,0,3.91,1.46,4.37,3.51h-8.74c.45-2.05,2.27-3.51,4.37-3.51Z"/><rect class="cls-4" x="25.64" y="7.75" width="1.92" height="19.48"/><polygon class="cls-4" points="56.29 7.75 54.36 7.75 54.36 27.23 64.59 27.23 64.59 25.38 56.29 25.38 56.29 7.75"/><polygon class="cls-4" points="114.45 9.6 114.45 7.75 104.23 7.75 104.23 27.23 114.45 27.23 114.45 25.38 106.15 25.38 106.15 18.34 114.45 18.34 114.45 16.49 106.15 16.49 106.15 9.6 114.45 9.6"/><path class="cls-4" d="m19.73,16.78c2.15-1.83,2.41-5.06.58-7.2-.96-1.13-2.37-1.79-3.86-1.8h-5.88v19.45h6.56c3.06.02,5.56-2.45,5.57-5.51.01-2.08-1.14-3.98-2.97-4.94Zm-3.28-.65h-3.94v-6.53h4c1.8.1,3.18,1.64,3.08,3.45-.09,1.66-1.42,2.99-3.08,3.08h-.06Zm.68,1.85c2.04,0,3.7,1.66,3.7,3.7,0,2.04-1.66,3.7-3.7,3.7h-4.62v-7.4h4.62Z"/><path class="cls-4" d="m98.31,16.78c2.15-1.83,2.41-5.06.58-7.2-.96-1.13-2.37-1.79-3.86-1.8h-5.88v19.45h6.56c3.06.02,5.56-2.45,5.57-5.51.01-2.08-1.14-3.98-2.97-4.94Zm-3.28-.65h-4v-6.53h4c1.8.1,3.18,1.64,3.08,3.45-.09,1.66-1.42,2.99-3.08,3.08Zm.68,1.85c2.04,0,3.7,1.66,3.7,3.7s-1.66,3.7-3.7,3.7h-4.63v-7.4h4.63Z"/><path class="cls-4" d="m85.7,17.48c0,5.56-4.51,10.07-10.07,10.07s-10.07-4.51-10.07-10.07,4.51-10.07,10.07-10.07c5.56,0,10.07,4.51,10.07,10.07h0"/><path class="cls-1" d="m81.08,11.71c0,1.1-.9,2-2,2s-2-.9-2-2,.9-2,2-2,2,.9,2,2"/><path class="cls-3" d="m80.13,11.71c0,.59-.48,1.07-1.07,1.07-.59,0-1.07-.48-1.07-1.07s.48-1.07,1.07-1.07h0c.59,0,1.07.48,1.07,1.07"/><path class="cls-1" d="m74.07,11.71c0,1.1-.9,2-2,2s-2-.9-2-2,.9-2,2-2,2,.9,2,2"/><path class="cls-3" d="m73.11,11.71c0,.59-.48,1.07-1.07,1.07-.59,0-1.07-.48-1.07-1.07,0-.59.48-1.07,1.07-1.07,0,0,0,0,0,0,.59,0,1.06.47,1.06,1.06,0,0,0,0,0,.01"/><path class="cls-4" d="m40.71,18.09v1.89h8.07c-1.35,4.33-5.96,6.75-10.3,5.4s-6.75-5.96-5.4-10.3c1.35-4.33,5.96-6.75,10.3-5.4,1.91.59,3.53,1.86,4.57,3.57h2.13c-2.36-5.04-8.35-7.21-13.39-4.86-5.04,2.36-7.21,8.35-4.86,13.39,2.36,5.04,8.35,7.21,13.39,4.86,3.34-1.56,5.56-4.83,5.79-8.52l-10.3-.03Z"/></g></svg>