<?xml version="1.0" encoding="UTF-8"?><svg id="_レイヤー_1" xmlns="http://www.w3.org/2000/svg" width="200" height="35" viewBox="0 0 200 35"><defs><style>.cls-1{fill:#fff;}.cls-2{fill:#ffe400;}.cls-3{fill:#00c0f1;}.cls-4{isolation:isolate;}.cls-4,.cls-5{fill:none;}.cls-6{fill:#faa323;}.cls-7{fill:#002b83;}.cls-8{fill:#3176d5;}</style></defs><rect class="cls-5" width="200" height="35"/><g id="_テキストリンク-2" class="cls-4"><g class="cls-4"><path class="cls-8" d="m128.22,13.36c-.16.29-.21.39-.34.89-.84,3.32-1.89,5.54-3.6,7.52-1.64,1.93-3.65,3.32-6.72,4.69-.59-1.14-.87-1.53-1.89-2.55,1.55-.48,2.53-.95,3.83-1.76,2.74-1.75,4.49-4.19,5.31-7.43h-7.81c-1.46,0-2.03.02-2.76.11v-2.73c.77.11,1.32.12,2.8.12h8.16c.78,0,1.14-.04,1.62-.2l1.39,1.34Z"/><path class="cls-8" d="m134.95,11.27c-.09.68-.12,1.23-.12,2.21l-.11,9.59c1.91-.39,3.37-1.02,4.76-2.01,1.52-1.09,2.58-2.33,3.46-4.03.78,1.09,1.07,1.39,2.03,2.17-2.53,3.9-5.6,5.83-10.78,6.77-.55.11-.75.16-1.07.3l-1.35-1.6c.14-.41.18-.68.18-1.64l.07-9.54c.02-.09.02-.16.02-.25,0-.86-.04-1.53-.11-2.01l3.03.04Z"/><path class="cls-8" d="m149.75,14.98c.78,1.46,1.14,2.35,1.76,4.37l-2.39.73c-.48-1.94-.82-2.87-1.6-4.46l2.23-.64Zm10.32.21c-.11.3-.12.36-.27,1-.52,2.41-1.28,4.37-2.33,5.9-1.27,1.82-2.85,3.08-5.67,4.51-.55-.95-.8-1.27-1.69-2.12,1.35-.52,2.12-.93,3.14-1.64,2.07-1.5,3.24-3.33,3.97-6.18.21-.87.3-1.46.32-2.05l2.53.59Zm-6.45-.95c.95,1.8,1.28,2.6,1.73,4.22l-2.33.71c-.34-1.41-.91-2.94-1.6-4.33l2.21-.61Z"/><path class="cls-8" d="m165.25,12.46c.93,1.68,1.48,3.03,2.16,5.38l-2.62.8c-.52-2.12-1.2-3.99-2.01-5.49l2.48-.7Zm12.71.21c-.14.46-.2.62-.41,1.71-.73,3.49-2.1,6.26-4.12,8.39-1.41,1.46-3.1,2.64-5.45,3.78-.55-1.02-.84-1.41-1.87-2.4,2.1-.77,3.62-1.69,5.08-3.1,1.46-1.37,2.37-2.82,3.07-4.88.53-1.52.82-2.92.84-4.15l2.87.66Zm-7.98-1.07c.86,1.48,1.51,3.08,2.12,5.19l-2.58.82c-.54-2.01-1.07-3.46-2-5.33l2.46-.68Z"/><path class="cls-8" d="m186.51,12.43c0-.7-.04-1.3-.11-1.87h2.58c-.07.46-.11,1.11-.11,1.89v4.21h3.14l-1.92-1.11c1.07-1.3,1.78-2.51,2.57-4.29l2.25.98c-.91,1.85-1.69,3.12-2.71,4.42h1.43c.73,0,1.43-.04,2.14-.11v2.35c-.59-.07-1.18-.11-2.1-.11h-2.87v5.35c0,.41.12.46,1.28.46,1.09,0,1.37-.07,1.52-.41.16-.41.21-.93.25-2.55.86.46,1.23.61,2.23.84-.14,2.33-.41,3.26-1.09,3.8-.5.39-1.19.5-3.26.5-2.83,0-3.28-.23-3.28-1.71v-6.27h-1.84c-.07,1.69-.16,2.39-.45,3.3-.45,1.37-1.25,2.51-2.42,3.42-.89.7-1.66,1.07-2.96,1.5-.46-.91-.79-1.41-1.41-2.16,1.73-.41,2.83-1.03,3.65-2.05.57-.7.95-1.66,1.11-2.82.04-.32.05-.55.09-1.19h-2.23c-.75,0-1.39.04-2.1.11v-2.35c.64.07,1.37.11,2.14.11h4.49v-4.22Zm-3.85-1.16c1.12,1.44,1.62,2.25,2.58,4.14l-2.1,1.18c-.96-2.01-1.46-2.83-2.58-4.28l2.1-1.03Z"/></g></g><g id="_レイヤー_2"><g id="_レイヤー_1-2"><rect class="cls-3" x="3.82" y=".17" width="99.05" height="34.67"/><rect class="cls-7" x="3.82" y="17.54" width="99.05" height="17.29"/><rect class="cls-1" x="2.81" y="16.91" width="101.07" height="1.26"/><polygon class="cls-1" points="33.96 21.54 23.62 21.54 22.62 24.11 30.13 24.11 23.37 31.88 26.98 31.88 33.22 24.33 33.96 21.54"/><polygon class="cls-1" points="36.17 29.17 38.96 21.54 36.17 21.54 32.64 32.05 36.75 32.05 43.07 27.45 41.34 25.81 36.17 29.17"/><polygon class="cls-1" points="45.29 23.75 44.05 27.29 46.27 27.29 47.42 23.75 45.29 23.75"/><polygon class="cls-1" points="50.45 23.75 48.32 23.75 47.09 27.29 49.3 27.29 50.45 23.75"/><polygon class="cls-1" points="48.81 32.05 51.36 32.05 54.31 23.75 51.85 23.75 48.81 32.05"/><polygon class="cls-1" points="56.94 21.54 55.37 26.03 58.19 26.03 59.65 21.54 56.94 21.54"/><polygon class="cls-1" points="63.44 21.54 60.73 21.54 59.17 26.03 61.98 26.03 63.44 21.54"/><polygon class="cls-1" points="65.01 21.54 61.16 32.07 64.39 32.07 68.14 21.54 65.01 21.54"/><polygon class="cls-6" points="73.22 24.57 72.94 21.54 70.42 21.54 70.7 24.57 73.22 24.57"/><polygon class="cls-6" points="76.99 21.54 74.47 21.54 73.35 25.03 69.06 25.03 68.35 27.3 71.1 27.3 70.55 28.99 67.42 32.05 70.27 32.05 72.83 29.72 73.62 27.3 74.5 27.3 73 32.05 73.22 32.05 75.52 32.05 76.17 32.05 77.16 32.05 78.69 32.05 79.72 28.65 77.2 28.65 76.8 29.96 76.17 29.96 77.02 27.3 80.11 27.3 80.82 25.03 75.87 25.03 76.99 21.54"/><polygon class="cls-6" points="79.18 24.57 81.15 21.54 78.47 21.54 76.51 24.57 79.18 24.57"/><polygon class="cls-2" points="87.81 9.26 88.93 6.78 87.19 6.78 89.98 3.68 86.39 3.68 83.66 6.84 84.9 3.68 81.3 3.68 80.39 6.71 79.74 3.68 76.34 3.68 76.96 6.78 75.11 6.78 73.98 9.26 77.09 9.26 72.56 13.85 76.34 13.85 80.87 9.26 81.2 9.26 79.57 13.85 83.16 13.85 87.62 13.85 88.56 11.37 84.05 11.37 84.79 9.26 87.81 9.26"/><polygon class="cls-1" points="32.21 4.4 28.1 4.4 25.41 12.8 26.8 12.8 29.36 12.8 34.53 12.8 35.05 11.46 29.82 11.46 32.21 4.4"/><polygon class="cls-1" points="25.92 7.87 21.08 7.87 21.69 6.06 26.59 6.06 27.23 4.4 22.26 4.4 19.34 4.4 18.13 4.4 15.45 12.8 19.4 12.8 20.62 9.21 25.4 9.21 25.92 7.87"/><polygon class="cls-1" points="39.02 4.4 38.12 4.4 35.43 12.8 36.76 12.8 39.38 12.8 44.49 12.8 45.02 11.46 39.84 11.46 40.56 9.34 45.16 9.34 45.69 7.99 41.02 7.99 41.79 5.74 46.4 5.74 46.92 4.4 42.24 4.4 39.02 4.4"/><polygon class="cls-1" points="58.27 4.4 55.16 4.4 51.05 4.4 47.75 4.4 47.39 5.74 50.61 5.74 48.35 12.8 52.31 12.8 54.71 5.74 57.74 5.74 58.27 4.4"/><polygon class="cls-1" points="61.89 4.61 59.28 4.61 58.11 7.38 59.75 7.38 61.89 4.61"/><path class="cls-1" d="m68.93,8.47c-1.19-.35-2.36-.78-3.49-1.3-.66-.43-.61-1.38,1.41-1.45,1.05-.12,2.09.35,2.7,1.21l1.55-.91c-.83-1.03-2.08-1.64-3.41-1.63-2.12,0-3.54-.2-5.45,1.45-1.01.85-1.26,2.22-.1,2.9,1.33.79,3.98,1.45,3.98,2.07,0,.51-1.45,1.01-2.43.85-.82-.18-1.56-.61-2.11-1.24l-1.88.89c.41.66,1,1.19,1.7,1.52,1.38.79,4.92.91,7.26-.84,2.01-1.5,1.93-2.86.27-3.52Z"/></g></g></svg>