<?xml version="1.0" encoding="UTF-8"?><svg id="_レイヤー_1" xmlns="http://www.w3.org/2000/svg" width="200" height="35" viewBox="0 0 200 35"><defs><style>.cls-1{fill:#595757;}.cls-2{fill:none;}.cls-3{fill:#eb5505;}</style></defs><rect class="cls-2" width="200" height="35"/><path class="cls-3" d="m89.47,13.71c-2.62,4-5.63,8.21-8.08,10.52-1.61,1.51-4.99,3.67-3.63-1.41l4.46-16.68c-1.09,0-6.54-.29-8.36,6.49,0,0-1.16,4.31-1.65,6.13-.31,1.06-.77,2.08-1.37,3.01-1.95,2.99-4.54,4.14-6.34,4.24h0c-1.06-.05-1.56-.42-1.75-1.19-.06-1.01.07-2.03.38-2.99.17-.62,4.2-15.69,4.2-15.69-.58,0-6.47-.55-8.36,6.49l-2,7.39c-.24.78-.59,1.52-1.04,2.19-1.27,1.84-3.54,3.79-4.74,3.79-.85,0-1.19-.98-.6-3.18l4.46-16.68h-1.98c-7,0-11.99,1.13-15.69,3.55-6.21,4.06-7.78,12.09-7.78,13.74,0,1.76.54,5.45,6.66,5.45,3.15-.03,6.12-1.44,8.14-3.86.06-.07.12-.14.19-.21.11.94.49,1.84,1.08,2.58,1.01,1,2.38,1.53,3.79,1.49,3.22,0,5.98-2.16,7.44-4.06h0c.38,1.83,1.76,4.07,6.53,4.07,3.15-.03,6.12-1.44,8.14-3.86.06-.07.12-.14.18-.21.11.94.49,1.83,1.08,2.58.02.03.05.05.07.08l.02.02c1,.9,2.3,1.4,3.65,1.39,2.77,0,5.5-1.58,7.79-4.01,2.98-3.14,6.9-8.81,8.48-11.17h-3.37Zm-44.3,4.66c-.31,1.2-.81,2.35-1.49,3.39-1.95,2.99-4.54,4.14-6.34,4.24-1.95-.09-2.16-1.25-1.37-4.18,2.72-10.16,8.84-12.45,11.77-13.06l-2.57,9.61Zm26.58,6.45"/><path class="cls-1" d="m116.88,14.15c.35,1.3.54,2.64.57,3.98,0,6.29-3.75,10.19-9.34,10.19s-8.8-3.23-8.8-8.15c0-5.22,3.54-9.18,5.77-11.15h-6.54v-2.12h9.6v2.12c-3.62,2.95-6.54,6.57-6.54,11.1s3.31,6,6.29,6c4.4,0,7.45-2.85,7.45-8.61,0-3.16-1.24-7.53-2.69-10.84h2.38c1.63,4.22,3.78,7.32,6.34,9.47v3.1c-1.72-1.49-3.22-3.2-4.48-5.1Z"/><path class="cls-1" d="m135.09,28.61c-1.48-.02-2.95-.3-4.32-.85v-2.35c1.28.6,2.66.94,4.06,1.01,2.56,0,3.93-2.56,3.93-8.41,0-4.27-.62-5.12-3.98-5.12h-3.47c-1.01,5.43-2.59,10.73-4.71,15.83h-2.69c2.4-5.03,4.11-10.35,5.09-15.83h-5.23v-2.1h5.61c.21-1.47.41-2.97.57-4.5h2.38c-.18,1.55-.41,3.05-.65,4.5h3.03c4.63,0,6.37.85,6.37,7.22,0,7.79-1.99,10.61-6,10.61Zm10.32-8.56c-.8-4.1-2.44-7.99-4.81-11.43h2.72c2.16,3.52,3.68,7.39,4.5,11.43h-2.41Z"/><path class="cls-1" d="m155.88,28.56v-2.23c7.61-.21,12.11-2.79,12.11-10.12,0-3.44-1.24-7.66-5.33-7.66-4.47,0-7.35,6.31-8.23,12.62h-2.15c.1-4.11.23-9.8.47-14.46h2.33c-.21,1.71-.36,5.35-.52,7.48.57-2.17,3.08-7.76,8.36-7.76,4.89,0,7.48,4.29,7.48,9.73,0,8.41-4.94,12.32-14.51,12.4Z"/></svg>