<?xml version="1.0" encoding="UTF-8"?><svg id="_レイヤー_1" xmlns="http://www.w3.org/2000/svg" width="185.62" height="144.74" xmlns:xlink="http://www.w3.org/1999/xlink" viewBox="0 0 185.62 144.74"><defs><style>.cls-1{fill:#fff;}.cls-2{fill:#bc9b56;}.cls-3{fill:#040000;}.cls-4{fill:#73c5bc;}.cls-5{fill:#f0ea3a;}.cls-6{fill:#8fc31f;}.cls-7{fill:#333;}.cls-8,.cls-9{fill:none;}.cls-10{fill:#125fa8;}.cls-9{clip-path:url(#clippath);}.cls-11{fill:#c1e4eb;}.cls-12{fill:#1f9a80;}.cls-13{fill:#fce9dc;}</style><clipPath id="clippath"><rect class="cls-8" y="36.97" width="85.14" height="107.77"/></clipPath></defs><path class="cls-1" d="m138.9,10.33c8.98,3.03,16.82,7.54,22.28,13.05,5.45,5.52,6.29,11.91,6.02,18.35-.33,6.48-1.77,12.97-6.75,19.04-4.92,6.06-11.17,11.87-19.88,15.71-8.64,3.83-19.75,5.64-30.59,5.43-3.92-.08-8.28-.03-12.1-1.06-3.58-.96-6.88-.65-10.58-.12-2.88.41-5.72,1.05-8.51,1.92,1.63-2.2,2.16-5.78-.19-7.19-2.64-1.58-5.58-2.62-8.24-4.24-4.54-2.77-8.8-6.17-12.44-10.2-5.32-5.89-8.64-12.42-8.98-19.12-.33-6.65,2.39-13.47,7.98-19.03,5.59-5.52,14.03-9.85,23.34-12.76,9.24-2.86,19.42-4.34,29.52-4.29,10.11,0,20.15,1.52,29.13,4.51Z"/><path class="cls-6" d="m78.77,83.66c-.32,0-.62-.15-.81-.42-.25-.35-.25-.83,0-1.17.93-1.26,1.39-2.94,1.14-4.19-.14-.7-.49-1.22-1.04-1.54-1.25-.75-2.54-1.36-3.92-2.01-1.43-.68-2.92-1.38-4.33-2.24-4.87-2.97-9.13-6.47-12.66-10.39-5.71-6.33-8.91-13.16-9.23-19.74-.36-7.1,2.58-14.13,8.27-19.79,5.42-5.35,13.63-9.85,23.75-13,9.3-2.88,19.58-4.38,29.83-4.34,10.31,0,20.49,1.58,29.44,4.56,0,0,0,0,0,0,9.35,3.16,17.19,7.76,22.67,13.3,6.01,6.08,6.56,13.06,6.31,19.1-.28,5.54-1.33,12.76-6.98,19.63-6.01,7.4-12.64,12.63-20.25,15.99-8.53,3.78-19.54,5.73-31.01,5.52l-1.27-.02c-3.53-.06-7.54-.12-11.08-1.07-3.48-.94-6.8-.58-10.18-.09-2.81.4-5.62,1.04-8.35,1.89-.1.03-.2.04-.3.04ZM109.36,6.83c-9.88,0-19.83,1.47-28.82,4.25-9.81,3.06-17.74,7.39-22.93,12.51-5.28,5.25-8.01,11.74-7.68,18.27.3,6.11,3.32,12.51,8.72,18.5,3.41,3.77,7.52,7.15,12.22,10.02,1.32.8,2.75,1.48,4.14,2.13,1.36.64,2.76,1.3,4.09,2.1,1.04.62,1.72,1.61,1.97,2.87.22,1.09.09,2.36-.33,3.57,2.11-.56,4.26-1,6.41-1.31,3.59-.51,7.14-.89,10.98.14,3.3.89,7,.94,10.59,1l1.27.02c11.19.22,21.9-1.68,30.16-5.35,7.32-3.22,13.7-8.27,19.51-15.42,5.28-6.42,6.26-13.24,6.53-18.46.23-5.59-.27-12.07-5.73-17.6-5.26-5.32-12.83-9.75-21.88-12.81h0c-8.87-2.95-18.96-4.47-29.22-4.46Z"/><path class="cls-7" d="m79.67,30.12c1.3-.11,1.75-.14,6.01-.36,0-.2-.04-1.13-.04-1.31-1.69.07-4.52.16-6.72.14v-1.82c1.84-.16,4.5-.34,6.63-.41-.09-1.6-.16-2.23-.22-2.74l1.93-.25c.11.52.25,1.19.43,2.92,1.91-.07,3.06-.07,4.16-.05v1.87c-.7.07-1.03.09-4,.23.04.45.05.79.07,1.33,1.24-.05,2.5-.09,3.75-.09v1.85c-1.19.11-2.54.18-3.73.23-.02.49-.05,1.66-.18,2.57,1.78.5,4,1.6,5.22,2.68l-1.21,1.57c-1.42-.83-2.92-1.57-4.52-2-.27.83-.59,1.76-1.78,2.56-.77.5-1.58.68-2.25.68-1.71,0-2.83-1.08-2.83-2.36,0-2.16,2.3-3.6,5.17-3.49.05-.41.09-.92.11-2.09-3.47.14-4.05.18-6.01.16v-1.84Zm3.04,7.11c0,.23.22.43.63.43,1.15,0,1.69-1.26,1.8-1.55-1.8-.04-2.43.72-2.43,1.12Z"/><path class="cls-7" d="m98.43,24.02c.05,1.26.05,2.59.05,3.89,0,1.64-.07,4.75-.22,6.59h-2.11c-.04-.58-.11-1.6-.11-3.78,0-1.42.07-4.99.23-6.7h2.14Zm1.62,2.39c1.22-1.17,2.52-1.84,3.8-1.84,1.62,0,2.36,1.15,2.59,1.58.43.81.72,1.75.72,3.6,0,5.01-2.25,9.16-3.04,10.42l-1.85-.83c1.67-3.58,2.54-6.73,2.54-9.61,0-.5,0-2.9-1.31-2.9-.77,0-1.96.94-2.21,1.13l-1.22-1.57Z"/><path class="cls-7" d="m123.72,38.78c-.61.09-2.02.13-3.04.16-.09,0-3.17.05-3.76.05.49-2.12.7-3.19.7-4.23,0-.49-.02-1.94-1.55-1.94-1.17,0-2.18.79-2.36.94-1.04,2.83-1.39,3.75-2.3,5.83l-1.82-.59c.74-2.43,2.56-7.65,3.29-9.69.72-1.93,1.35-3.58,2.2-5.65l1.87.61c-.65,2.16-.92,2.93-2.27,6.82.83-.36,1.48-.43,1.93-.43,1.37,0,3.44.85,3.44,3.73,0,.68-.13,1.78-.27,2.43,2.23-.11,2.57-.11,3.94-.07v2.03Z"/><path class="cls-7" d="m131.53,31.36c-.01,1.96-.32,3.12-.69,3.98-.57,1.32-1.62,2.13-2.7,2.13-.52,0-1.25-.31-1.64-.87-.45-.64-.56-1.44-.56-2.1,0-3.42,2.93-6.3,6.44-6.3,3.33,0,5.24,2.61,5.24,5.46,0,1.85-.83,3.95-2.66,5.8l-1.19-.94c1.47-1.86,2.06-3.49,2.06-4.8,0-2.23-1.44-3.85-3.43-3.85-2.72,0-4.74,2.51-4.74,4.61,0,1.02.52,1.16.67,1.16.63,0,.99-1.06,1.06-1.25.39-1.16.48-1.83.62-3.03h1.51Z"/><path class="cls-7" d="m84.86,52.98c-.16.31-.31.58-.86,1.4.2-.02,1.08-.07,1.26-.07.02-.52.04-1.3.05-1.57h1.93c.04.34.05.58.07,1.49,1.3-.04,1.51-.04,2.05-.04v1.67c-.43.05-.92.11-2.03.16v1.08c2.14-.04,2.39-.04,2.75-.04v1.73c-.56.04-1.15.09-2.81.16-.02.34-.02,1.84-.04,2.14,0,.18-.02.32-.04.61h-1.93c-.05-.72-.07-1.35-.07-2.7-.52,0-2.79.04-3.26.04v-1.69c.59-.05,1.33-.14,3.28-.22l.02-1.06c-.56.02-1.57.04-1.76.04v-.99c-.79,1.1-.92,1.22-1.15,1.48l-.74-.54c0,.38-.04,2.23-.04,2.36-.04,2.45-.05,2.72-.07,3.08-.52,0-2.11-.04-3.37-.23l.11-1.67c.34-.04,1.4-.04,1.53-.04,0-.2,0-1.13-.02-1.33-1.53.09-1.57.09-3.83.14-.2,1.28-.31,2.03-.61,3.31l-1.69-.2c.38-3.53.86-7.02,1.39-10.5-.49.61-.67.77-.9,1.03l-1.44-1.03c.88-1.58,3.22-4.83,4.57-6.18l1.39,1.04c-.18.32-.21.41-.7,1.15,1.08-.07,1.82-.09,3.06-.09-.34,1.39-1.3,3.76-1.31,3.82,1.19-.04,1.49-.04,1.89-.04.02.05.02.27.02.38.52-.77,1.75-2.41,2.56-3.29-.41.02-2.3.07-2.7.07v-1.78c2.83-.31,5.64-.34,8.46-.34-.16,1.73-.77,4.99-1.39,6.66-.81-.02-2.74-.34-3.21-.45l.32-1.62c.58.04.65.04,1.37.11.16-.97.2-1.15.52-2.79-.3.02-.41.02-1.4.07l-1.1.05.85.56c-1.21,2.25-2.54,3.62-3.35,4.39l-.92-.67c0,1.21,0,1.37.02,2.86.21-.34.9-1.42,2.12-2.81l1.15.86Zm-6-.11c.02.23.04.41.04.94h.83v-1.42c-.65.07-2.48.14-2.84.14v-1.58c.43-.05.56-.07.76-.09.47-1.37.56-1.57.72-1.89-.14.02-1.01.05-1.4.04v-.63c-.4.54-.72.97-1.75,2.32l1.37.07c-.02.47-.14,2.61-.16,2.88-.02.13-.02.22-.02.29.11,0,.68-.04.83-.05.02-.41.02-.63.05-.99l1.58-.02Zm-2.75,3.76c.16,0,.94-.04,1.12-.05-.02-.27-.04-.59-.02-1.15-.23.02-.52.02-.95.05-.04.16-.13.97-.14,1.15Zm3.6-1.39c-.38.04-.58.05-.79.07-.02.18-.02,1.03-.02,1.21.11,0,.68-.02.81-.02v-1.26Z"/><path class="cls-7" d="m107.97,54.96c-2.2.13-5.89.34-7.92.43-.88,2.3-1.84,4.59-3.13,6.72l-1.82-.76c1.01-2.32,1.03-2.39,2.43-5.85-2.05.07-2.27.09-2.63.09l1.13.81c-.85,1.42-2.36,3.67-3.78,5.35l-1.5-1.01c1.13-1.98,2.25-3.6,3.8-5.38l.32.22-.02-1.89c.96-.07,2.49-.18,3.46-.25.05-.16.09-.29.22-.63.36-1.12.4-1.24.72-2.23-1.19.05-1.24.05-3.15.11l.02-1.96c1.69-.13,1.89-.13,3.82-.25.86-2.74.97-3.04,1.1-3.47l1.86.45c-.09.4-.16.65-.72,2.92,1.62-.07,2.32-.09,4-.13-.16,2.27-.25,3.19-.45,4.92,1.62-.04,1.78-.04,2.25-.04v1.85Zm-13.58-3.04c0,.54-.54,1.28-1.46,1.28-.74,0-1.48-.52-1.48-1.39,0-.56.4-1.39,1.35-1.39,1.15,0,1.58,1.03,1.58,1.49Zm1.06-4.57c0,.74-.61,1.37-1.33,1.37-.81,0-1.51-.76-1.51-1.51,0-.41.31-1.33,1.33-1.33.68,0,1.51.59,1.51,1.48Zm6.45,8.01c2.09,1.91,2.9,2.74,5.17,5.28l-1.35,1.3c-2.47-2.2-3.31-3.1-5.2-5.33l1.39-1.24Zm1.93-5.06c-.95.07-1.62.11-2.2.14-.09.27-.16.54-.85,2.84.14,0,.29-.02.72-.04.67-.02,1.35-.04,2.02-.05.09-.81.2-2.09.31-2.9Z"/><path class="cls-7" d="m120.52,45.8c-.11,2.36-.36,4.45-.4,4.79,1.3-.04,1.58-.04,2.36-.04.99,0,1.69.02,2.41.02v2.02c-1.8.14-2.63.18-5.11.27-.14.83-.54,2.77-1.22,4.99-.72,2.34-1.33,3.67-1.66,4.34l-2.05-.52c.34-1.04,1.77-5.73,2.3-8.71-3.8.07-4.25.07-7.06.05v-2.02c.32-.02.61-.05,1.06-.07,1.69-.09,2.81-.14,6.43-.29.22-1.13.25-1.37.27-1.44.47-2.79.52-3.1.61-3.55l2.05.16Z"/><path class="cls-7" d="m130.17,46.66c.07,1.55.07,4.88.07,6.57,0,1.51-.04,4.11-.07,5.6,3.37-.22,8.79-.27,10.6-.22v2.05c-.97.07-2.67.13-3.69.16-2.79.09-4.29.13-7.85.13-.5,0-.88-.02-1.22-.04-.11-1.73-.11-3.28-.11-6.1,0-1.91.02-6.5.14-8.16h2.12Zm9.81,3.96c-1.53,1.08-5.31,3.17-8.89,4.14l-.79-1.78c1.15-.59,3.03-1.44,4.18-1.98,1.19-.58,3.08-1.49,4.27-2.03.11-.05.31-.14.36-.16l.88,1.82Zm1.12-3.76c0,.4-.36,1.12-1.08,1.12-.52,0-1.13-.52-1.13-1.17,0-.5.41-1.06,1.01-1.06.68,0,1.21.65,1.21,1.12Zm1.55,2.18c0,.38-.23.99-.97.99-.38,0-1.08-.27-1.08-1.1,0-.7.56-1.04.96-1.04.68,0,1.1.68,1.1,1.15Z"/><g class="cls-9"><path class="cls-11" d="m23.6,104.95l-1.46,22.2s-1.34-6.71-3.09-9.34c-1.75-2.62-3.34-4.48-3.34-4.48,0,0,1.22-4.29,2.97-5.51,1.75-1.22,4.93-2.86,4.93-2.86Z"/><path class="cls-13" d="m65.49,104.25l-8.26,33.55-3.86-19.1-1.79,5.72.21,7.3,3.21,14.34c1.76,3.37,4-.6,4-.6l8.87-40.5s.9-.85,1.98-1.14c1.07-.29,4,.1,4.49-.49.49-.58.2-1.17.2-1.17,0,0,1.27-.29,1.27-1.07s1.46-.39.88-1.76l3.61.29s2.05-.1,1.95-1.17c-.1-1.07-.88-1.17-1.66-1.17s-4.98.39-6.73-.29c-1.76-.68,0-1.76,0-1.76,0,0,2.15-2.54,0-2.24-2.15.29-3.51,2.05-3.51,3.02,0,0-2.93.1-3.9,2.54-.98,2.44-.95,5.71-.95,5.71"/><path class="cls-3" d="m57.02,138.71s-.06,0-.08-.01c-.18-.05-.29-.23-.24-.41l8.65-33.99c.04-.18.23-.29.41-.24.18.05.29.23.24.41l-8.65,33.99c-.04.15-.18.25-.33.25Z"/><path class="cls-3" d="m57.18,148.06c-1.32,0-2.49-1.44-2.62-1.61-.04-.05-.07-.12-.09-.19l-5.44-26.27c-.02-.08-.01-.17.02-.25l3.27-8.79c.07-.19.26-.31.46-.29.2.02.37.17.4.37l4.59,27.06c.04.25-.12.48-.37.52-.24.04-.48-.12-.52-.37l-4.3-25.4-2.64,7.09,5.39,26.04c.37.44,1.29,1.32,2.02,1.17.63-.13,1.02-1.05,1.23-1.8l8.87-40.48c.02-.1.07-.18.15-.25.1-.09,2.56-2.17,4.99-1.6.58.14,1,.11,1.21-.09.26-.24.21-.72.21-.73-.02-.13.02-.26.11-.35.08-.1.21-.16.34-.16,0,0,.87-.02.87-.47,0-.63.43-.95.72-1.15.08-.06.23-.16.24-.21h0s0-.07-.1-.24c-.21-.33-.09-.59-.03-.68.28-.43.92-.34,2.22-.16,1.04.14,2.8.39,3.29-.01.07-.05.09-.11.1-.21.02-.24-.05-.33-.1-.39-.36-.37-1.65-.34-2.89-.31-1.12.03-2.38.06-3.6-.14-1.54-.25-2.29-.6-2.5-1.17-.2-.56.21-1.03.48-1.34.06-.06.11-.12.15-.18.48-.64.91-1.57.85-1.81-.02.02-.26-.02-.97.27-2.48,1.02-2.36,2.36-2.35,2.41.03.24-.14.47-.39.51-.15.02-3.6.53-3.95,3.55-.37,3.17-.16,3.99-.15,4.02.06.24-.07.48-.3.56-.24.07-.48-.05-.56-.28-.03-.09-.28-.98.11-4.4.35-3.06,3.29-4.02,4.35-4.26.09-.68.58-1.99,2.9-2.94.66-.27,1.59-.56,2.03.02.65.85-.69,2.69-.85,2.9-.05.07-.12.15-.19.23-.09.11-.31.35-.31.45h0s.16.32,1.79.58c1.13.18,2.35.15,3.43.13,1.63-.04,2.93-.07,3.56.59.26.27.38.64.35,1.07-.02.34-.17.63-.43.85-.79.65-2.49.41-3.98.21-.36-.05-.8-.11-1.12-.13.21.69-.3,1.06-.56,1.25-.27.2-.35.27-.35.42,0,.85-.71,1.21-1.32,1.33-.03.32-.15.73-.5,1.04-.45.41-1.13.51-2.03.3-1.72-.4-3.61.94-4.09,1.31l-8.84,40.35c-.41,1.47-1.06,2.3-1.93,2.47-.11.02-.23.03-.34.03Z"/><path class="cls-3" d="m53.82,117.95l-.68,1.55s1.05,5.56,3.6,19.82c.31-.07.62-1.54.93-1.62l-3.85-19.75Z"/><path class="cls-13" d="m39.12,79.93s-1.94,8.58-.41,13.89c1.53,5.31,5.21,11.54,5.21,11.54,0,0-4.5,2.86-8.28,2.86s-6.95-2.86-6.95-2.86c0,0,5.62-5.41,5.72-11.95.1-6.54-1.94-13.38-1.94-13.38"/><path class="cls-3" d="m39.33,79.98s-.71,1.15-1.16,5.1c-.2,1.96-.25,5.55.66,8.39.95,2.82,2.21,4.99,2.18,5,.01,0,.41.66,1.17,1.9.36.63.83,1.39,1.35,2.3.27.45.54.94.85,1.46l.23.39.11.2.06.1h0s0,.02,0,.02c-.15.61.33-1.36-.33,1.36h0s-.03.02-.03.02l-.06.04-.92.52c-2.5,1.28-5.54,2.31-8.31,1.9-2.74-.43-4.55-1.88-5.61-2.61-1.91-.73.58-1.81.92-2.75.77-1.05,1.57-2.27,2.15-3.98,1.39-3.41.99-7.62.67-11.89-.23-4.25-1.01-7.38-.99-7.37l.85-.25s.28,1.54.78,4.8c.31,1.93.56,4.36.82,6.82,1.11,5.63-3.43,11.68-4.58,12.93-.13.04-1.04,1.65-.94.76.61.46,1.39.95,2.3,1.36,1.8.9,4.06,1.27,6.18.62,1.07-.25,2.23-.69,3.39-1.16l1.73-.78c.14.25.88-1.15.51.45l-.42-.87c-1.08-2.29-1.86-4.42-2.26-5.67-.8-2.47-2.84-5.83-3.31-9.44-.69-3.62,1.09-9.91,1.15-9.88l.86.2Z"/><path class="cls-3" d="m37.94,84.49s-.43,6.44,1.09,10.13c1.51,3.69,2.65,7.38,2.65,7.38l2.98.05s-4.5-6.01-5.11-10.08c-.61-4.07-.61-7.81-.61-7.81l-.99.33Z"/><path class="cls-11" d="m46.35,103.98l4.74,22.52s2.03-8.11,3.6-10.91c1.57-2.8,2.17-3.88,2.17-3.88,0,0-1.57-3.32-2.97-3.67-1.4-.35-7.54-4.06-7.54-4.06Z"/><path class="cls-3" d="m23.7,106.73s-.42.81-.59,3.41c-.17,2.6.07,9.21.07,9.21,0,0,.41,2.08.1,5.66l-.15,1.36-.1.69v.09s-.02.04-.02.04h0c.38,0-3.28.23-1.73.13h0s0-.03,0-.03l-.02-.17-.04-.34c-.1-.9-.2-1.8-.31-2.64-.2-1.68-.46-3.12-.76-3.92-.55-1.62-1.2-2.89-2.93-4.56l-1.37-1.3c-.26-.52-.42.2-.76-1.33l.24-1.04c.39-1.37.95-2.8,2.08-3.96,2.61-1.92,4.54-2.3,4.54-2.44l.43.78s-.98.27-2.86,1.3c-1.16.52-2.06,1.79-2.57,3.31-.29.6-.51,2.11-.84,2.07.61.71,1.17,1.44,1.66,2.13.99,1.39,1.75,2.57,2.06,3.16.7,1.08,2,4.19,2.81,7.22l.29,1.19.03.16v.04s.01.02.01.02h0c.36-.02-3.15.21-1.66.11h0s0-.01,0-.01v-.08s.04-.31.04-.31l.07-.63.37-2.53c.28-1.63.59-3.09.79-3.93.38-1.69,0-4.25-.32-6.51-.32-2.3.58-6.4.58-6.4l.88.06Z"/><path class="cls-11" d="m27.69,101.73l18.5.97,5.58,5.19,1.12,66.62,8.96,31.91s-11.76,10.08-24.63,10.64c-12.88.56-21.83-7.84-21.83-7.84l6.72-31.91-.56-70.53c.05-1.82,3.89-5.08,6.16-5.04Z"/><path class="cls-3" d="m51.3,107.75s-.89-.95-3.26-3.28c-.64-.5-1.17-1.45-2.17-1.82-1.09-.08-2.32-.16-3.7-.25-2.76-.18-6.11-.38-10.15-.59-1.93.15-4.61-.92-6.98.73-2.52,1.23-4.23,4.12-3.52,7.28.11,6.12.25,12.76.38,18.89.27,12.27.52,22.51.52,22.51,0,0,.16,3.18.33,9.17-.35,5.74,1.74,15.16-1.54,25.97-1.17,5.47-2.43,11.12-3.69,16.69l-.95,4.15-.47,2.05c-.17-.81.83.54,1.21.68,2.14,1.67,4.46,3.05,6.81,4.12,9.56,4.6,19.21,2.52,23.97.44,4.93-2.01,9.15-4.46,13.35-7.74-.36-4.79-2.77-10.66-4.73-17.66-6.36-13.78-4.66-32.78-5.15-50.11.04-17.57,0-30.65,0-30.65h.89s-.11,6.2,0,19.62c.07,7.92.17,17.91.47,27.89.16,5.34.3,11.07.41,16.77.56,5.39,2.81,10.93,3.99,15.97,1.41,5.06,2.69,9.71,3.75,13.54.03,1.97,2.12,3.51.3,5.22-1.21.94-2.24,1.68-3.03,2.21-3.14,2.05-9.18,6.18-17.75,7.74-8.24,1.16-19.93-.34-25.82-9.23,1.92-9.45,4.37-20.5,6.64-30.49.23-9.97.27-19.34.4-24.61.19-10.68-.49-26.37-1.06-40.28-.07-1.77-.13-3.71-.18-5.77.56-3.04,2.63-4.2,4.69-5.5,5.22-1.3,9.18.07,13.47,0,2.05.13,4,.26,5.76.38l1.28.09.31.02c.28.1-.4-.22.66.24l.11.11.43.41c.56.54,1.08,1.05,1.56,1.51,1.9,1.84,3.06,2.97,3.06,2.97l-.61.64Z"/><path class="cls-11" d="m46.35,103.98l4.74,22.52s2.03-8.11,3.6-10.91c1.57-2.8,2.17-3.88,2.17-3.88,0,0-1.57-3.32-2.97-3.67-1.4-.35-7.54-4.06-7.54-4.06Z"/><path class="cls-3" d="m47.04,106.2s-.18.92.37,3.55c.55,2.63,2.62,9.15,2.62,9.15,0,0,.96,1.96,1.66,5.61l.23,1.39.05.35v.04s0,.01,0,.01h0c-.79,0,1.77.04-1.77-.03h0s0-.02,0-.02l.03-.09.06-.17.24-.68c.34-.9.69-1.77,1.05-2.58.7-1.62,1.38-2.98,1.67-3.82.58-1.68,1.3-2.92,2.21-5.23l.69-1.84c.44.45-.51-.83-.74-1.15-1.07-1.33-1.14-1.67-2.93-2.45-2.53-1.63-4.24-2.93-4.26-2.92l.45-.76s.77.71,2.66,1.88c1.03.9,2.71,1.01,4.09,2.34.67.66,1.21,1.48,1.67,2.34.32,1.75-.7,1.91-.97,2.87-.91,1.51-1.59,2.74-1.77,3.33-.44,1.16-1.29,4.43-1.98,7.54l-.3,1.2-.17.62h0s0,.01,0,.01h0c-3.23-.06-.9-.02-1.62-.03v-.02s-.01-.04-.01-.04v-.08s-.04-.16-.04-.16l-.05-.33-.35-2.61c-.18-1.7-.28-3.23-.33-4.13-.1-1.79-1.17-4.23-2.11-6.39-.95-2.2-1.21-6.53-1.21-6.53l.86-.18Z"/><path class="cls-4" d="m36.23,102.28l-5.46-.74s-3.01,19.49,1.89,23.86c4.9,4.37,18.89,1.75,18.89,1.75l-.65-19.3c-.36-3.18-3.76-5-5.23-5.62l-9.44.05"/><path class="cls-3" d="m56.53,111.61l-4.86,11.54-.23-2.09s4.01-9.19,4.59-9.72c.58-.54.5.27.5.27Z"/><path class="cls-3" d="m47.48,122.25s1.45.49,1.51,1.48c.06.98-.58,1.65-1.48,1.71,0,0,1.13-.72,1.1-1.62-.03-.9-1.13-1.56-1.13-1.56Z"/><path class="cls-12" d="m45.79,102.67s3.58,1.22,4.36,5.15c.79,3.93.93,15.74.43,18.88l-2.43.72s.64-1.36.72-6.37c.07-5.01,1.14-14.38-3.08-18.38Z"/><path class="cls-3" d="m31.05,101.85s-.66,1.46-1.08,6.25c-.98,4.86,1.28,17.01,2.51,16.26-.16.08,2.58,2.52,9.17,2.61,1.61.07,3.29.09,4.96.04,1.12-.14,4.54.07,3.61-.54.26-3.11.51-5.79.52-7.37.03-3.17.26-5.72-.1-10.11.07-2.23-1.51-4.06-3.62-5.2-1.99-1.53-4.49-.45-7.2-1.12-5.19-.58-9.05-.94-9.05-.94l.05-.89s1.83.29,5.79.59c2.34.18,5.3.38,8.26.38,3.28.31,6.88,3.52,6.49,7.07-.06,3.11-.14,5.72-.12,6.84.02,1.12.07,3.21.12,5.72.03,1.26.05,2.62.08,4.03-.4.93.95.91-.89,2.65l-2.16.35c-5.63.98-14.13-.25-16.05-3.37-1.97-2.57-2.76-7.35-3.27-11.51-.57-4.29,1.06-11.93,1.12-11.91l.87.14Z"/><path class="cls-3" d="m45.42,102.5s3.82,1.39,4.71,3.24c.89,1.85,1.2,5.17,1.2,5.17l.66,10,.08,5.87-.58.5-1.31.19s.54-6.71.31-9.65c-.23-2.93-.31-6.21-.39-7.1-.08-.89-.58-4.01-1.43-5.25-.85-1.24-3.24-2.97-3.24-2.97Z"/><path class="cls-5" d="m49.27,123.91c0,1.01-.82,1.84-1.84,1.84s-1.84-.82-1.84-1.84.82-1.84,1.84-1.84,1.84.82,1.84,1.84Z"/><path class="cls-3" d="m47.43,126.5c-1.43,0-2.59-1.16-2.59-2.59s1.16-2.59,2.59-2.59,2.59,1.16,2.59,2.59-1.16,2.59-2.59,2.59Zm0-3.67c-.6,0-1.08.49-1.08,1.08s.49,1.08,1.08,1.08,1.08-.49,1.08-1.08-.49-1.08-1.08-1.08Z"/><path class="cls-3" d="m51.76,126.3l.94,30.42s.34,14.45,1.45,19.12c1.1,4.67,7.48,30.34,7.48,30.34l-1.19,1.1s-6.63-23.71-7.48-28.22c-.85-4.5-1.95-52.1-1.95-52.1l.76-.68Z"/><path class="cls-2" d="m47.91,56.1s7.66-6.88,16.27,5.77c8.6,12.65-4.36,22.13-8.88,22.05-4.52-.08-7.57-1.91-7.57-1.91"/><path class="cls-3" d="m47.76,55.93c.05.08.92-.68,3.92-1.41,3.36-1.59,10.51,3.3,10.17,3.61-.05.04,2.34,1.34,4.49,5.45,2.34,4.31.82,9.79-.22,11.47-.83,1.93-1.86,3.24-3.69,5.53-1.71,2.09-5.29,5.11-9.13,3.91-3.51-.78-5.68-2.31-5.68-2.3l.46-.76s.84.83,3.3,1.6c1.4.37,3.46.94,5.19.33,3.87-1.27,7.58-5.28,8.14-6.59.76-1.18,2.23-4.97,1.32-8.46-.63-3.44-3.14-7.83-4.39-9.52-1.15-1.74-4.06-3.39-6.58-3.52-2.51-.59-6.84,1.09-6.7,1.31l-.59-.66Z"/><path class="cls-3" d="m47.76,55.93c.05.08.92-.68,3.92-1.41,3.36-1.59,10.51,3.3,10.17,3.61-.05.04,2.34,1.34,4.49,5.45,2.34,4.31.82,9.79-.22,11.47-.83,1.93-1.86,3.24-3.69,5.53-1.71,2.09-5.29,5.11-9.13,3.91-3.51-.78-5.68-2.31-5.68-2.3l.46-.76s.84.83,3.3,1.6c1.4.37,3.46.94,5.19.33,3.87-1.27,7.58-5.28,8.14-6.59.76-1.18,2.23-4.97,1.32-8.46-.63-3.44-3.14-7.83-4.39-9.52-1.15-1.74-4.06-3.39-6.58-3.52-2.51-.59-6.84,1.09-6.7,1.31l-.59-.66Z"/><path class="cls-2" d="m16.89,59.66s-7.33-1.27-11.43,4.62c-4.1,5.89-6.48,19.69,6.46,24,12.93,4.31,13.65-4.87,13.65-4.87"/><path class="cls-3" d="m16.86,59.88c.03.07-1.01-.74-4.35-.21-1.66.24-4.45,1.63-5.92,3.64-1.61,1.89-2.1,3.98-2.14,3.93.08.02-.78,2.48-1.17,6.8-.63,4.31,1.07,9.4,2.9,10.84,1.61,1.42,3.09,2.6,6.06,3.22,2.97.49,6.71.95,9.65-.29,3.12-1.35,3.5-4.6,3.48-4.42l.88.07c-.08,0-.11,1.56-2,3.8-1.14,1.32-3.18,2.23-5.27,2.46-4.62.63-10-2.06-11.25-3.01-1.38-.69-4.98-3.72-5.93-7.96-1.2-4.19.76-9.64,1.96-11.43,1.05-1.87,2.24-5.01,4.81-6.95,2.61-2.31,8.53-1.6,8.45-1.37l-.15.87Z"/><path class="cls-13" d="m32.9,44.13c7.87-.6,18.59,11.37,17.99,25.76-.6,14.38-9.36,18.3-14.82,18.92-5.46.61-17.53-5.28-20.4-16-2.86-10.72,2.98-27.59,17.22-28.67Z"/><path class="cls-2" d="m21.82,49.55s1.15,10.27,9.04,12.48c7.89,2.2,17.6-3.93,17.6-3.93,0,0-6.31-12.78-14.15-13.04-7.83-.26-12.54,4.42-12.54,4.42l.04.08Z"/><path class="cls-3" d="m24.19,47.56s-.33.6.16,2.26c.34,1.78,3.12,5.13,3.24,4.96.03-.01,1.14.73,2.8,1.99,1.55,1.04,4.32,1.99,5.43,1.91,1.11-.04,2.05.08,3.53-.53,1.48-.62,3.22-1.4,5.06-1.52,1.85-.13,3.22-.38,3.21-.38l.28.84s-.7.01-2.09.28c-.83.16-1.86.36-2.86.71-2.14.8-5.11.91-5.9.99-.79.14-2.98.49-5.16.18-2.41-.3-4.29-2.97-4.65-3.98-.53-1-1.79-2.12-2.84-3.36-1.1-1.28-1.13-4.24-1.07-4.25l.87-.12Z"/><path class="cls-3" d="m26.99,46.59s-.13.55.56,1.68c.64,1.2,3.25,3.39,3.25,3.35,0,0,1.05.45,2.28,1.52,1.05,1.19,2.84,2.24,3.81,2.22.86,0,1.59.2,2.75-.34,1.15-.52,2.5-1.17,3.95-1.12,1.45.03,2.53-.08,2.52-.08l.24.85s-.56-.06-1.66.08c-.65.09-1.46.18-2.24.47-1.68.61-4,.56-4.62.6-.62.03-2.35.47-4.11-.19-1.85-.57-2.92-2.73-3.29-3.51-.34-.85-1.58-1.49-2.61-2.2-1.08-.71-1.63-2.92-1.61-2.93l.78-.41Z"/><path class="cls-3" d="m31.79,45.33s-.26.38.11,1.16c.32.85,2.12,2.17,2.12,2.12,0,.02.8.15,1.49.8.62.63,1.58,1.71,2.24,1.71.55.05,1.01.23,1.76-.19.75-.46,1.57-.94,2.49-.79.93.17,1.63.14,1.62.14l.28.84s-.41-.08-1.12-.04c-.43.02-.95.07-1.46.27-1.09.48-2.6.21-2.99.27-.41.05-1.48.26-2.74-.05-1.2-.4-1.9-1.92-1.99-2.51-.13-.6-1.05-.92-1.84-1.38-.82-.46-.83-2.05-.8-2.06l.83-.3Z"/><path class="cls-3" d="m48.72,56.1s.29.64,1.73,1.87c1.48,1.15,5.28,4.24,5.21,4.36-.03,0,1.52.77,2.66,3.46,1,2.88.11,5.84.24,7.13.08,1.28-.16,2.24-.44,4.01-.21,1.76-.94,4.1-2.77,5.49-1.85,1.36-3.56,1.46-3.49,1.56l-.25-.85s.69,0,2.03-.69c.77-.46,1.62-1.25,2.18-2.26,1.12-2.12,2.43-5.15,2.28-5.94,0-.86-.36-3.22-.85-5.4-.35-2.11-1.22-4.81-1.94-5.98-.54-1.18-2.22-2.19-3.7-2.94-1.46-.8-3.39-3.13-3.4-3.11l.52-.71Z"/><path class="cls-3" d="m57.86,64.81s-.27.35-.15,1.1c.2.72.68,2.79.62,2.83.01-.01.47.78-.1,1.95-.64,1.21-2.25,1.56-2.66,1.79-.4.36-.85.38-1.3,1.08-.43.71-1.15,1.52-2.26,1.42-1.19.02-1.8-1.05-1.63-1.09l.88-.13c.03-.17-.44-.02.11.2.3.09.8.02,1.18-.25.81-.61,2.06-1.03,2.33-1.27.17-.34.95-.9,1.2-1.71.39-.64,1.3-1.51,1.64-2.01.39-.47-.11-1.31-.6-1.89-.49-.57-.07-1.78-.1-1.77l.85-.25Z"/><path class="cls-3" d="m14.81,64.95c0,.14-.13-1.11-2.53-1.37-3.02-.28-5.56,5.31-5.32,5.22.04.02-.33,1.72-.83,4.56-.59,2.82-.47,6.36.54,7.61.88,1.16,1.52,2.27,3.38,3.22,1.85.95,4.09,1.81,6.18,2.9,2.12,1.07,3.93,1.38,3.92,1.42l-.09.88s-.88-.28-2.69-.84c-1.07-.33-2.35-.88-3.68-1.35-2.93-.98-5.7-3.89-6.41-4.67-.75-.67-2.81-3.17-3.03-6.11-.47-2.9,1.19-6.48,2.07-7.66.94-1.16,1.45-3.39,3.12-4.93.78-.77,2.58-1.42,4-.89,1.38.46,1.99,1.38,2.03,1.4l-.64.61Z"/><path class="cls-3" d="m14.97,70.53s-.2-.59-1.43-.47c-1.47.03-2.99,2.61-2.85,2.67.05.02-.23,1-.98,2.19-.92,1.06-1.84,2.62-1.79,3.45-.01.72-.07,1.45.75,2.21.79.76,1.8,1.5,2.29,2.64.5,1.15,1.02,1.94,1.02,1.94l-.63.63s-.19-.47-.73-1.28c-.32-.48-.73-1.06-1.25-1.57-1.2-1.06-1.78-3.12-1.88-3.7-.09-.54-.54-2.1-.12-3.64.36-1.57,2.07-2.79,2.76-3.16.65-.45.97-1.58,1.8-2.58.96-1.19,3.45-.33,3.38-.15l-.34.82Z"/><path class="cls-3" d="m17,76.61s-.41-.5-1.63,0c-1.58.4-2.33,3.57-2.12,3.55.04,0,.19,1.02.3,2.37-.09,1.23,1.05,2.98,1.9,3.29.73.32,1.37.71,2.52.46,1.29-.29,1.97-.84,3.22-1.36,1.24-.41,2.04-1.06,2.01-1.05l.72.52s-.51.36-1.42.91c-.52.37-1.23.69-1.86,1.2-1.68,1.08-4.01.23-4.52.08-.58-.13-2.31-.4-3.57-1.8-1.36-1.63-.44-4.04.08-4.65.49-.7.33-2.02,1.05-3.24.67-1.47,3.39-1.33,3.37-1.17l-.06.88Z"/><path class="cls-3" d="m31.65,66.05c.43,1.26.57,2.59.72,3.91.04.39.64.28.6-.11-.16-1.38-.32-2.75-.77-4.07-.13-.37-.68-.11-.55.26h0Z"/><path class="cls-3" d="m31.68,44.99s-.26.38.11,1.16c.32.85,2.12,2.17,2.12,2.12,0,.02.8.15,1.49.8.61.63,1.58,1.71,2.24,1.71.55.05,1.01.23,1.76-.19.75-.45,1.57-.94,2.49-.79.93.17,1.63.14,1.63.14l.28.84s-.41-.08-1.12-.04c-.43.02-.95.07-1.45.27-1.09.48-2.6.21-2.99.28-.41.05-1.48.26-2.74-.05-1.2-.4-1.89-1.92-1.99-2.51-.13-.6-1.05-.92-1.84-1.38-.82-.46-.83-2.05-.8-2.06l.83-.3Z"/><path class="cls-3" d="m48.77,58.53s3.31,7.58,2.57,13.93c-.74,6.35-3.59,12.83-10.68,15.53,0,0,7.57-4.32,8.86-13.76,1.29-9.43-1.62-15.37-1.62-15.37l.86-.32Z"/><path class="cls-3" d="m47.94,56.16s5.47-4.08,11.98,0c6.5,4.08,6.68,6.64,7.52,11.13.84,4.5-1.2,13.23-9.12,16.47l-.1-.88s9.19-5.85,7.55-15.51c-1.65-9.66-11.03-14.43-17.82-11.21Z"/><path class="cls-3" d="m32.92,44.19c-.16.3,2.87-.75,8.47,3.79,2.84,2.14,6.74,7.32,8.43,12.55,1.85,5.19,1.58,9.93,1.61,9.9-.61-.23,1.93,6.23-4.19,15.24-3.98,4.07-9.96,4.57-14.64,3.61-4.63-1.32-7.83-3.93-9.65-5.39-3.51-3.08-6.15-6.2-7.87-12.59-1.5-6.37-.2-15.53,5.53-21.42,5.79-6.06,12.55-5.51,12.31-5.69l.06.88c.11.25-2.91-.61-7.97,2.4-2.95,1.75-5.93,5.22-7.47,9.32-1.75,4.32-2.46,9.74-1.78,14.24.69,4.53,2.96,7.77,4.01,9,1.81,2.32,9.39,9.33,17.71,8.04,4.2-.28,8.69-2.38,10.54-6.55,1.98-3.93,2.49-8.06,2.76-10.37.8-4.7-1.12-11.8-4.73-16.61-1.7-2.51-4.5-5.78-7.42-7.63-2.93-1.93-5.67-1.84-5.64-1.85l-.06-.88Z"/><path class="cls-3" d="m22.04,49.53c.06-.04-.4,1.33,1,4.98.66,1.81,2.67,4.8,5.25,6.17,2.58,1.35,5.03,1.2,5.01,1.23,0,0,2.96-.05,7.87-1.57,2.19-.53,5.69-2.27,6.72-2.28-.95-2.29-2-4.19-2.74-5.22-1.53-1.98-2.68-3.85-5.74-5.61-3.04-2-7.22-1.48-11.15-.55-3.93.78-6.56,3.28-6.24,2.78l-.78.42c.07-1.61,1.24-1.53,4.21-3.23,1.73-.86,4.1-1.41,6.47-1.83,5.77-1.61,10.99,4.45,11.91,5.6.62.67,1.74,1.94,2.93,3.61.6.83,1.21,1.76,1.81,2.75l.44.76.11.2c-.49,2.01-.25.63-.41,1.11l-.38.24-1.54.89c-4.09,2.42-10.63,3.24-13.15,2.59-2.47-.3-6.38-1.06-8.92-3.76-2.95-2.54-3.75-9.18-3.57-9.16l.88-.1Z"/><path class="cls-3" d="m48.35,55.71s.61.38,2.51.78c1.93.21,6.79,1.64,6.77,1.79-.04.03,1.77.22,3.81,2.4,2.19,2.26,2.04,5.87,2.14,7.04.29,1.28.07,2.31.53,4.13.32,1.81.43,4.25-.65,6.24-1,1.99-2.01,3.26-2.03,3.27l-.74-.49s.58-.44,1.29-1.89c.4-.85.89-1.96.98-3.17.39-2.52.51-5.77.38-6.68-.29-.85-.63-3.36-1.8-5.16-1-1.86-2.99-4.2-4.04-5.06-.99-.89-2.99-1.2-4.68-1.21-1.68-.09-4.55-1.17-4.55-1.12l.07-.88Z"/><path class="cls-3" d="m31.98,44.79s-.26.38.11,1.16c.32.85,2.12,2.17,2.12,2.12,0,.02.8.15,1.49.8.62.63,1.58,1.71,2.24,1.71.55.05,1.01.23,1.76-.19.75-.45,1.57-.94,2.49-.79.93.17,1.63.14,1.62.14l.28.84s-.41-.08-1.12-.04c-.43.02-.95.07-1.45.27-1.09.48-2.6.21-2.99.27-.41.05-1.48.26-2.74-.05-1.2-.4-1.9-1.92-1.99-2.51-.13-.6-1.05-.92-1.84-1.38-.82-.46-.83-2.05-.81-2.06l.83-.3Z"/><path class="cls-11" d="m40.81,55.37c3.8.54,6.63.22,6.63.22l3.43-7.75-22.21-9.17-3.87,7.96s4.27,5.2,10.5,7.42c1.93.68,3.82,1.09,5.52,1.33"/><path class="cls-3" d="m40.84,55.15c0-.06,1.13.67,4.92.67.47-.01,1.03-.03,1.66-.11.47-.65.55-1.23.86-1.9.52-1.32,1.06-2.76,1.56-4.1.25-.67.49-1.31.7-1.89.05.51-.95-.19-1.26-.18-.9-.3-1.47-.49-1.47-.49,0,0-2.94-.63-7.71-2.67-4.57-1.61-10.34-6.07-11.74-5.09-1.08,2.23-2.14,3.93-3.27,7.2,2.1,1.79,5.83,4.5,9.18,6.23,3.51,1.84,6.6,2.3,6.56,2.35l-.13.88c.02-.08-1.46-.3-4.44-1.35-1.79-.53-3.88-1.63-5.92-2.78-2.18-1.47-4.42-2.64-5.95-5.58,1.09-2.18,2.03-3.98,2.38-4.79.18-.4.43-.98.73-1.67l.5-1.14.14-.31c1.53-.51.61-.07,1.04-.16l.68.25c1.85.68,4.01,1.48,6.1,2.27,4.18,1.58,9.52,4.44,11.71,5.64.55.3,1.18.58,1.87.84.64.15,1.81.5,1.12,1.46-.51,1.55-.97,3.22-1.41,4.79-.65.98.37,1.3-1.94,3.08-1.08.09-2.16.06-3.15-.02-1.96-.17-3.46-.57-3.46-.55l.13-.87Z"/><path class="cls-3" d="m40.2,55.17s5.31,1.4,7.74.99l2.65-8.15-.12-.27-1.03-.26s-.33,1.97-1.33,4.51c-1,2.54-.95,3.2-.95,3.2,0,0-.73.34-7.42-.29"/><path class="cls-10" d="m41.44,46.58s3.92,1.53,5.93,1.77c0,0-.57,6.67-4.67,5.51-4.1-1.16-1.26-7.28-1.26-7.28Z"/><path class="cls-1" d="m41.19,52.58l.96-4.43,1.66.36c.34.07.6.18.79.31.19.13.32.31.39.52.08.21.09.42.05.62-.04.19-.13.36-.27.5-.14.15-.32.25-.55.3.25.14.43.31.53.54s.13.46.07.72c-.04.21-.13.39-.26.55-.13.16-.26.27-.41.34-.15.07-.33.11-.53.11-.21,0-.45-.02-.73-.08l-1.69-.36Zm.7-.4l1.1.24c.19.04.32.06.4.07.14,0,.26-.01.36-.05.1-.04.19-.1.28-.2.08-.1.14-.21.17-.35.04-.17.02-.32-.03-.46-.06-.14-.16-.25-.3-.33-.14-.08-.35-.15-.63-.21l-1.02-.22-.33,1.52Zm.44-2.05l.96.21c.26.06.45.08.57.07.16-.01.29-.06.38-.15.1-.09.16-.21.2-.36.03-.15.02-.28-.02-.41s-.13-.23-.25-.3c-.12-.07-.34-.14-.66-.21l-.89-.19-.29,1.34Z"/><path class="cls-3" d="m22.66,65.61c1.28-.62,2.86-.81,4.16-.18.17.08.27-.19.1-.28-1.37-.66-3.05-.46-4.39.19-.17.08-.04.35.13.27h0Z"/><path class="cls-3" d="m42.69,62.07c-1.48-.15-3.14.23-4.19,1.33-.13.14.06.36.19.22,1-1.04,2.56-1.4,3.97-1.26.19.02.22-.27.03-.29h0Z"/><path class="cls-1" d="m38.53,74.85s-3.51,2.32-6.89,1.41c0,0,5.23,10.33,6.89-1.41Z"/><path class="cls-3" d="m38.4,74.58c-1.96,1.27-4.43,1.91-6.73,1.39-.23-.05-.4.25-.31.44.76,1.49,1.8,3.14,3.25,4.03,3.06,1.87,3.96-3.81,4.22-5.55.06-.39-.55-.45-.61-.06-.27,1.84-1.08,7.03-3.9,4.63-1.02-.87-1.8-2.14-2.41-3.32-.1.15-.2.29-.31.44,2.39.54,5.01-.12,7.05-1.44.33-.21.07-.77-.26-.55Z"/><polyline class="cls-13" points="25.71 151.45 21.39 117.67 16.53 114.81 21.63 152.65"/><path class="cls-3" d="m22.27,153.84c-.29,0-.54-.06-.75-.19-.53-.31-.63-.92-.6-1.23l-4.84-37.56c-.02-.17.06-.34.2-.43.14-.1.33-.1.48-.01l4.86,2.87c.12.07.2.19.22.33l4.32,33.78c.03.25-.14.47-.39.5-.24.03-.47-.14-.5-.39l-4.29-33.56-3.88-2.29,4.72,36.73c0,.09,0,.38.17.49.14.08.73.26,2.58-.9.21-.13.49-.07.62.14.13.21.07.49-.14.62-1.17.74-2.09,1.1-2.78,1.1Z"/><path class="cls-3" d="m21.54,117.96l3.04,24.26s.69,6.29.31,4.59c-.38-1.7-4.23-29.09-4.23-29.09l.88.25Z"/><path class="cls-13" d="m25.23,146.59l27.05-9.06s1.37-1.76,4.89-1.96c3.52-.2,7.23-1.37,7.82.2.59,1.56-2.83,1.51-4.69,1.56,0,0,.78,1.17-.39,1.96-1.17.78-.39,1.95-1.76,2.35-1.37.39-2.93,1.37-5.67-.59,0,0-27.76,11.39-29.32,11.97-1.56.59-1.54.92-1.54-1.03"/><path class="cls-3" d="m22,154.13c-.22,0-.42-.05-.59-.17-.46-.32-.55-.97-.55-1.99,0-.25.2-.45.45-.45s.45.2.45.45c0,1.08.14,1.23.17,1.25.09.06.49-.04,1.18-.3,1.54-.58,29.03-11.86,29.31-11.97.14-.06.31-.04.43.05,2.18,1.56,3.46,1.12,4.69.71.2-.07.4-.13.59-.19.49-.14.54-.35.67-.8.12-.43.28-1.03.97-1.48.73-.49.39-1.14.26-1.33-.09-.14-.1-.31-.02-.46.08-.14.22-.24.38-.24h.46c1.2-.04,3.44-.09,3.82-.66.02-.03.07-.1,0-.3-.29-.77-2.33-.5-4.3-.24-1,.13-2.03.27-3.07.33-3.24.18-4.55,1.77-4.56,1.78-.05.07-.13.12-.21.15l-27.05,9.06c-.23.08-.49-.05-.57-.28-.08-.24.05-.49.28-.57l26.93-9.02c.38-.42,1.92-1.84,5.12-2.02,1.01-.06,2.02-.19,3-.32,2.53-.34,4.72-.63,5.26.81.2.52.06.89-.09,1.12-.58.85-2.3.99-4.36,1.04.13.61,0,1.36-.8,1.9-.41.27-.49.58-.6.97-.14.51-.31,1.15-1.29,1.43-.18.05-.36.11-.55.18-1.21.41-2.86.97-5.3-.69-2.84,1.16-27.61,11.33-29.11,11.89-.57.21-1.03.37-1.42.37Z"/><path class="cls-3" d="m71.33,103.45c-.41-.12-.67-.47-.7-.93-.04-.55.27-1.1.73-1.31.73-.33,2.69.36,3.07.5l-.21.57c-.86-.32-2.24-.68-2.62-.52-.26.11-.39.46-.38.72,0,.15.06.33.27.39l-.17.58Z"/><path class="cls-3" d="m72.23,101.68c-.29-.15-.46-.41-.46-.73,0-.45.35-.96.83-1.2.64-.32,2.73.24,3.35.42l-.17.58c-1.17-.33-2.62-.6-2.92-.46-.29.15-.49.46-.49.66,0,.09.04.14.13.19l-.27.54Z"/><path class="cls-3" d="m73.29,100.33c-.37-.03-.52-.25-.58-.38-.13-.27-.05-.65.19-.99.27-.38.65-.58,1.03-.54.73.07,2.63.29,2.63.29l-.07.6s-1.89-.22-2.62-.29c-.15-.01-.34.1-.48.29-.13.19-.15.35-.13.39,0,0,.04.02.09.03l-.05.6Z"/><path class="cls-3" d="m41.49,68.17c-3.41.08-1.98-4.89,1.24-3.17,1.72.93.74,3.28-1.31,3.19"/><path class="cls-3" d="m24.45,70.68c-3.4.08-1.98-4.89,1.24-3.17,1.73.94.74,3.28-1.31,3.19"/><path class="cls-1" d="m42.74,65.93c.05.4-.23.76-.63.81-.39.05-.76-.23-.81-.62s.23-.76.63-.81c.4-.05.76.23.81.62Z"/><path class="cls-1" d="m25.53,68.34c.05.4-.23.76-.63.81-.39.05-.76-.23-.81-.62-.05-.4.23-.76.62-.81.4-.05.76.23.81.63Z"/></g><path class="cls-6" d="m185.62,11.48c-9.04,1.34-10.13,2.43-11.48,11.48-1.34-9.04-2.43-10.13-11.48-11.48,9.04-1.34,10.13-2.43,11.48-11.48,1.34,9.04,2.43,10.13,11.48,11.48Z"/><path class="cls-6" d="m33.62,18.29c.97,6.56,1.77,7.35,8.32,8.32-6.56.97-7.35,1.77-8.32,8.32-.97-6.56-1.77-7.35-8.32-8.32,6.56-.97,7.35-1.77,8.32-8.32Z"/></svg>