<?xml version="1.0" encoding="utf-8"?>
<!-- Generator: Adobe Illustrator 27.6.1, SVG Export Plug-In . SVG Version: 6.00 Build 0)  -->
<svg version="1.1" id="レイヤー_1" xmlns="http://www.w3.org/2000/svg" xmlns:xlink="http://www.w3.org/1999/xlink" x="0px"
	 y="0px" width="96.6px" height="100.5px" viewBox="0 0 96.6 100.5" style="enable-background:new 0 0 96.6 100.5;"
	 xml:space="preserve">
<style type="text/css">
	.st0{fill:#FFFFFF;}
	.st1{fill:#F39800;}
	.st2{enable-background:new    ;}
</style>
<g id="グループ_12" transform="translate(-262.441 -1429.463)">
	<g id="多角形_5" transform="translate(262.441 1429.463)">
		<path class="st0" d="M79.7,84.7H16.8c-1.1,0-2.1-0.3-3-0.8c-0.9-0.5-1.6-1.2-2.1-2.1c-0.5-0.9-0.8-1.9-0.9-2.9
			c0-1.1,0.2-2.1,0.7-3.1L43,18c1.1-2,3-3.1,5.3-3.1s4.2,1.2,5.3,3.1L85,75.8c0.5,1,0.8,2,0.7,3.1c0,1-0.3,2-0.9,2.9
			c-0.5,0.9-1.3,1.6-2.1,2.1C81.9,84.4,80.8,84.7,79.7,84.7z"/>
		<path class="st1" d="M48.3,18.9c-0.5,0-1.3,0.2-1.8,1L15.1,77.7c-0.4,0.8-0.2,1.5,0,2c0.3,0.4,0.8,1,1.7,1h62.9
			c0.9,0,1.5-0.5,1.7-1c0.3-0.4,0.5-1.2,0-2L50,20C49.6,19.1,48.8,18.9,48.3,18.9 M48.3,10.9c3.4,0,6.9,1.7,8.8,5.2l31.4,57.7
			c3.6,6.7-1.2,14.8-8.8,14.8H16.8c-7.6,0-12.4-8.1-8.8-14.8l31.4-57.7C41.4,12.6,44.8,10.9,48.3,10.9z"/>
	</g>
	<g class="st2">
		<path class="st1" d="M315.4,1463.8l-1.1,29.2h-7.7l-1.1-29.2H315.4z M315.2,1505h-9.4v-7.1h9.4V1505z"/>
	</g>
</g>
</svg>
