<?xml version="1.0" encoding="UTF-8"?>
<svg id="_レイヤー_2" data-name="レイヤー 2" xmlns="http://www.w3.org/2000/svg" viewBox="0 0 354 118">
  <defs>
    <style>
      .cls-1 {
        fill: #706758;
      }

      .cls-2 {
        fill: #14257e;
      }

      .cls-3 {
        fill: #fff;
      }

      .cls-4 {
        fill: #6c614e;
      }

      .cls-5 {
        fill: #c1ac8e;
      }

      .cls-6 {
        fill: #a89a83;
      }

      .cls-7 {
        fill: #e0cdaf;
      }

      .cls-8 {
        fill: #d8c19b;
      }

      .cls-9 {
        fill: #3a3a3a;
      }

      .cls-10 {
        fill: #a29174;
      }

      .cls-11 {
        fill: none;
      }

      .cls-12 {
        fill: #007ccf;
      }

      .cls-13 {
        fill: #3176d5;
      }
    </style>
  </defs>
  <g id="_レイヤー_3" data-name="レイヤー 3">
    <g>
      <rect class="cls-11" width="354" height="118"/>
      <g>
        <g>
          <ellipse class="cls-3" cx="148.7" cy="104.89" rx="61.32" ry="12.16"/>
          <ellipse class="cls-3" cx="250.76" cy="98.47" rx="66.2" ry="18.59"/>
          <g>
            <g>
              <path class="cls-10" d="m124.43,87.86l43.04,5.44v-24.01l-47.11-3.62,4.08,22.2Z"/>
              <path class="cls-4" d="m124.43,87.86l-28.99,14.95v-30.35l24.92-6.8,4.08,22.2Z"/>
              <path class="cls-5" d="m148.9,110.51v-33.52l18.57-7.7v24.46l-18.57,16.76Z"/>
              <path class="cls-8" d="m148.9,76.99l-53.45-4.53v30.35l53.45,7.7v-33.52Z"/>
              <g>
                <path class="cls-7" d="m167.47,69.28l-47.11-3.62-9.51,2.59,47.93,4.37,8.7-3.34Z"/>
                <path class="cls-7" d="m148.9,76.99l9.43-3.91-48.84-4.37-14.04,3.75,53.45,4.53Z"/>
              </g>
              <path class="cls-6" d="m161.13,71.72l-46.39-4.53-7.66,2.09,49.03,4.88,5.02-2.44Z"/>
              <path class="cls-1" d="m161.13,71.72v7.08l-4.53,3.17-.5-7.8,5.03-2.44Z"/>
              <path class="cls-1" d="m161.13,95.28v3.91l-4.53,4.53-.5-5.99,5.03-2.45Z"/>
            </g>
            <g>
              <path class="cls-10" d="m173.25,70.92l36.31,23.74,10.52-21.58-40.77-23.89-6.06,21.74Z"/>
              <path class="cls-4" d="m173.25,70.92l-32.61.74,13.29-27.29,25.38,4.8-6.06,21.74Z"/>
              <path class="cls-5" d="m185.32,102l14.68-30.14,20.07,1.21-10.71,21.99-24.04,6.93Z"/>
              <path class="cls-8" d="m200.01,71.87l-46.07-27.49-13.29,27.29,44.68,30.34,14.68-30.14Z"/>
              <g>
                <path class="cls-7" d="m220.08,73.08l-40.77-23.89-9.69-1.84,41.18,24.92,9.28.81Z"/>
                <path class="cls-7" d="m200.01,71.87l10.19.62-41.99-25.32-14.27-2.78,46.07,27.49Z"/>
              </g>
              <path class="cls-6" d="m213.31,72.49l-39.73-24.39-7.8-1.48,41.94,25.86h5.59Z"/>
              <path class="cls-1" d="m213.31,72.49l-3.1,6.36-5.46.87,2.97-7.23h5.59Z"/>
              <path class="cls-1" d="m202.99,93.67l-1.71,3.51-6.06,2.09,2.18-5.6h5.59Z"/>
            </g>
          </g>
          <g>
            <g>
              <path class="cls-10" d="m255.01,85.36l55.19,6.97v-30.79l-55.19-5.81v29.63Z"/>
              <path class="cls-4" d="m255.01,85.36l-37.18,19.17v-42.99l37.18-5.81v29.63Z"/>
              <path class="cls-7" d="m270.7,40.64l56.93,2.32-17.43,18.59-55.19-5.81,15.68-15.1Z"/>
              <path class="cls-7" d="m240.49,52.25l-38.34,6.39,15.68,2.9,37.18-5.81-14.52-3.49Z"/>
            </g>
            <g>
              <path class="cls-12" d="m295.14,61.86c0,16.86-13.66,30.52-30.52,30.52s-30.52-13.66-30.52-30.52c0-16.86,13.66-30.52,30.52-30.52h0c16.86,0,30.52,13.66,30.52,30.52h0"/>
              <path class="cls-3" d="m281.16,44.38c0,3.39-2.74,6.13-6.13,6.13-3.39,0-6.13-2.74-6.13-6.13,0-3.39,2.74-6.13,6.13-6.13h0c3.39,0,6.13,2.74,6.13,6.13h0"/>
              <path class="cls-2" d="m278.26,44.38c0,1.79-1.45,3.23-3.23,3.23s-3.23-1.45-3.23-3.23c0-1.79,1.45-3.23,3.23-3.23h0c1.79,0,3.23,1.45,3.23,3.23"/>
              <path class="cls-3" d="m259.89,44.38c0,3.39-2.74,6.13-6.13,6.13-3.39,0-6.13-2.74-6.13-6.13,0-3.39,2.74-6.13,6.13-6.13h0c3.39,0,6.13,2.74,6.13,6.13h0"/>
              <path class="cls-2" d="m257,44.38c0,1.79-1.45,3.24-3.23,3.24-1.79,0-3.24-1.45-3.24-3.23s1.45-3.24,3.23-3.24h0c1.79,0,3.23,1.45,3.24,3.23"/>
            </g>
            <g>
              <path class="cls-5" d="m286.38,114.99v-42.99l23.82-9.88v31.37l-23.82,21.49Z"/>
              <path class="cls-8" d="m286.38,72l-68.55-9.88v42.99l68.55,9.88v-42.99Z"/>
              <path class="cls-7" d="m310.2,80.72l-23.82-8.71,23.82-9.88,22.07,7.55-22.07,11.04Z"/>
              <path class="cls-7" d="m286.38,72l-68.55-9.88-15.68,18.59,68.55,9.88,15.68-18.59Z"/>
              <path class="cls-1" d="m302.06,95.46v5.01l-5.81,5.81-.64-7.68,6.45-3.13Z"/>
            </g>
          </g>
        </g>
        <g>
          <path class="cls-9" d="m51.46,86.01c-.51.67-1.21.73-1.95.16-.72-.55-.84-1.24-.33-1.91l4.9-6.38c.96-1.25,1.48-1.35,2.57-.51l3.12,2.4c1.1.84,1.13,1.37.17,2.62l-3.06,3.98c-.16.2-.15.3.1.58.77.79.85.86.9.9.11.09.2.04.32-.11l3.29-4.28c.89-1.15,1.74-1.35,2.66-.65.25.19,1.07.94,1.93,1.78,2.6,2.5,3.48,3.56.95,6.85-2.01,2.62-2.72,3.27-3.93,2.34-.79-.6-.96-1.36-.47-1.99.07-.09.17-.22.81-.85.31-.3.87-.96,1.15-1.33.61-.8.64-.9-.67-2.2-.35-.36-.63-.6-.79-.73-.29-.23-.49-.17-.82.26l-2.81,3.66c-.83,1.08-1,1.24-1.55,1.38-.44.13-.85.03-1.26-.29-.46-.35-2.23-2.27-2.78-2.87-.83-.84-1.3-1.32.09-3.12l2.57-3.35c.24-.32.23-.47-.05-.68l-.72-.55c-.28-.21-.43-.18-.67.13l-3.67,4.78Zm7.07-12.69c-.65-.5-.61-1.3.1-2.23.71-.93,1.47-1.17,2.13-.67l13.15,10.08c.65.5.61,1.3-.1,2.23-.71.93-1.49,1.16-2.13.67l-13.15-10.08Z"/>
          <path class="cls-9" d="m79.06,71.36c1.63-.64,3.08-1.34,7.97-5.76.75-.68,1.33-1.23,1.73-1.65.27-.3.51-.55.67-.69.64-.58,1.35-.53,1.96.14.75.83.65,1.49-.36,2.47-.5.46-1.43,1.35-2.08,1.93-6.8,6.15-8.83,6.81-12.3,7.07.7,1.09,1.03,1.91,1.13,2.65.05.4-.08.71-.46,1.06-.71.65-1.57.75-2.04.23-.15-.17-.18-.23-.43-.97-.96-2.5-3.18-4.99-3.22-5.03-.58-.67-.52-1.17.28-1.89.83-.75,1.31-.68,2.22.33.26.29.47.55.68.89.2.01.53,0,.75,0l-2.86-3.17-2.24,2.03c-.61.55-1.29.5-1.9-.17s-.59-1.35.02-1.9l2.14-1.94-1.06-1.18-1.51,1.37c-.59.54-1.25.47-1.83-.17-.59-.66-.58-1.31,0-1.84l1.51-1.37c-.64-.7-1.15-1.27.05-2.35,1.2-1.09,1.73-.5,2.35.18l.96-.87c.57-.52,1.24-.45,1.82.19.58.64.58,1.31,0,1.83l-.96.87,1.06,1.18.94-.85c.61-.55,1.29-.5,1.9.17s.59,1.35-.02,1.9l-.94.85.9.99.68-.61c.57-.52,1.21-.45,1.77.18.58.64.58,1.28.01,1.8l-.68.61,1.38,1.53Zm1.04-14.2c.45.57.95.98,1.72,1.66-.08-.34-.18-.62-.28-.91-.32-.77-.27-1.03.22-1.47.64-.58,1.47-.69,1.88-.23.06.06.72.83,1.28,4.57.12.06.9.44.99.36.04-.03-.02-.23-.12-.45-.46-.86-.47-1.19-.02-1.59.57-.52,1.33-.62,1.69-.22.33.37.95,1.67,1.15,2.43.27,1.07.09,1.81-.63,2.46-.76.69-1.49.76-2.95.3-.08,1.27-.33,3.13-.96,3.7-.59.54-1.66.5-2.17-.06-.26-.29-.27-.62-.03-1.33.36-1.14.51-2.1.55-3.52-1.47-.79-2.58-1.67-4.64-3.59l-.61.55c-.26.24-.28.42-.05.68l2.34,2.58c.06-.14.12-.22.28-.36.59-.54,1.55-.49,2.08.09.64.7-.53,4.31-1.08,4.82-.47.42-1.58.32-2.06-.22-.28-.31-.31-.55-.14-.96l-4.52-5c-.93-1.02-.86-1.58.27-2.61l1.69-1.53-.9-.99c-.47-.52-.31-1.19.42-1.85.75-.68,1.43-.76,1.9-.24l.9.99.99-.9c-.26-.01-.31-.03-1.01-.06-.14.02-.27-.06-.37-.17-.33-.37-.34-1.25.22-1.75.61-.55,2.07-.26,2.33.03.14.15.21.45.19.8.57-.24.99-.09,1.45.41.57.63.57,1.26,0,1.78l-1.98,1.79Z"/>
          <path class="cls-9" d="m90.47,46.86c.81,1.2,3.95,6.68,4.66,7.74.92,1.37,1.97,2.92,4.34,1.32,2.55-1.72,3.36-4.03,2.63-7.5-.23-1.06-.06-1.55.7-2.06,1.05-.71,2.17-.69,2.67.06.47.7.76,2.84.59,4.52-.3,3.11-1.9,5.61-4.89,7.63-2.37,1.6-4.48,2-6.26,1.17-.99-.45-1.72-1.2-2.81-2.82-.14-.21-3.43-5.67-4.13-6.71-.2-.29-1.13-1.55-1.32-1.82-.54-.8-.27-1.58.85-2.34,1.22-.83,2-.6,2.96.81Z"/>
          <path class="cls-9" d="m111.16,36.56c-.4,2.71-1.38,3.21-1.71,3.39-.85.44-1.89.23-2.22-.43-.24-.46-.11-.87.31-2.16.44-1.29.32-2.65.25-3.47-.03-.52.3-1.01.9-1.32.98-.5,1.9-.4,2.24.26.08.15.14.37.2.64l2-1.03-.6-1.17c-.36-.7,0-1.37,1.01-1.89.98-.5,1.74-.41,2.1.29l.6,1.17,4.86-2.5c.71-.37,1.33-.13,1.74.66.41.79.24,1.43-.47,1.8l-4.86,2.5,1.24,2.4,6.71-3.46c.75-.39,1.38-.13,1.8.67s.25,1.47-.5,1.86l-4.96,2.56,2.15,4.18c.35.68.64.53,2.25-.3.75-.39.91-.63.61-1.48-.47-1.27-.36-1.62.58-2.11.94-.48,1.8-.4,2.11.21.16.31.38.99.61,1.91.48,1.79-.08,2.5-3.25,4.13-3.61,1.86-4.56,2.1-5.72-.16l-2.46-4.78-1.98,1.02c.92,2.19,1.14,4.26.69,6.05-.52,1.96-2.06,4.1-3.5,4.84-.75.39-1.66.06-2.09-.78-.28-.55-.13-.97.59-1.77,2.41-2.59,2-4.77,1.28-6.78l-4.04,2.08c-.73.38-1.36.12-1.78-.68-.42-.81-.25-1.47.47-1.84l7.32-3.77-1.24-2.4-3.23,1.67Z"/>
          <path class="cls-9" d="m133.78,26.39c-1.48.86-1.95,1.13-2.26,1.32-.43.25-.81.45-1.07.55-.9.35-1.88-.11-2.25-1.05-.28-.73-.13-1.43.4-1.81,1.23-.92,13.4-6.84,15.37-7.61,1.4-.54,2.1-.31,2.55.87.48,1.23-.18,1.55-1.09,1.99-1.49.71-2.34,1.31-3.05,2.12-.45.53-3.35,3.94-2.08,7.2.9,2.31,2.95,2.86,6.46,1.73,1.08-.33,1.12-.35,1.44-.32.54.03.98.37,1.2.95.41,1.06-.09,1.89-1.43,2.41-4.04,1.57-9.12,1.53-10.9-3.04-1.01-2.59-.42-5.74,1.46-7.91-1.56.85-3.09,1.64-4.75,2.6Zm11.9-2.92c.96.47,1.54.91,1.66,1.23.2.52-.21,1.21-.89,1.47-.37.14-.56.11-1.13-.25-.33-.2-1.06-.6-1.62-.87-.35-.2-.47-.3-.55-.52-.19-.48.23-1.22.84-1.46.42-.16.72-.08,1.68.38Zm2.15-2.23c.93.46,1.44.86,1.57,1.18.2.52-.21,1.21-.87,1.46-.37.14-.56.11-1.12-.23-.3-.19-1.1-.63-1.59-.86-.34-.17-.46-.28-.54-.5-.19-.5.24-1.2.87-1.45.42-.16.71-.1,1.68.38Z"/>
          <path class="cls-9" d="m162.63,14.4c.95-.26,1.61.12,1.86,1.03.22.82-.07,1.43-.85,1.79-.65.3-2,.78-2.95,1.04.1.72.24,1.51.33,2.28.49-.17,2.81-1,3.04-1.06.88-.24,1.55.16,1.78,1.01.33,1.21-.08,1.77-3.76,2.88-.36.12-.47.15-.61.19.03.27.07.52.17.87.32,1.17.8,2.96,4.02,2.09,2.42-.66,3.78-2.2,3.33-3.83-.21-.76-.47-1.03-1.32-1.82-.26-.23-.42-.46-.48-.7-.21-.78.52-1.68,1.56-1.96.88-.24,1.44.02,2.37,1.13.64.75,1.12,1.64,1.38,2.59.91,3.36-1.53,6.27-6.37,7.58-2.29.62-3.85.59-5.3-.1-1.22-.57-2.12-1.71-2.52-3.18-.1-.38-.21-.97-.35-1.66-2.04.55-3.38.79-3.89.71-.48-.08-.88-.47-1.05-1.08-.26-.96.18-1.65,1.2-1.93.5-.13,2.82-.62,3.3-.74-.11-.78-.19-1.51-.31-2.31-3.62.98-4.46,1.04-4.82-.32-.25-.94.21-1.66,1.25-1.94.47-.13,2.63-.59,3.09-.71-.11-.59-.27-1.27-.4-1.92-.26-1.21.13-1.83,1.38-2.17.52-.14,1.86-.48,2.26.99.13.5.25,1.19.34,2.04.8-.28,1.65-.62,2.33-.8Z"/>
          <path class="cls-13" d="m180.56,13.53c3.16-1.24,5.75-2.7,8.04-4.42.46-.36.68-.46,1.07-.53,1.06-.19,2.08.54,2.28,1.66.16.89-.34,1.42-2.47,2.67-4.05,2.35-7.16,3.46-8.33,3.84l.48,2.64c.24,1.32.44,1.64,1.09,1.77.49.1,2.07-.04,3.7-.34.74-.13,1.9-.41,3.43-.81.55-.14,2.92-.87,3.42-.96,1.06-.19,1.87.31,2.04,1.28.32,1.76-1.03,2.09-3.84,2.75-1.51.36-3.34.75-4.54.97-6,1.09-8.2,1.03-8.96-3.11l-2.1-11.52c-.16-.85.45-1.46,1.65-1.68,1.29-.24,2,.14,2.18,1.09l.85,4.68Zm10.96-7.88c1.02.9,1.36,1.32,1.42,1.65.08.45-.56,1.11-1.18,1.22-.42.08-.6-.04-1.22-.68-.18-.2-.38-.39-.6-.56-.82-.73-.88-.76-.93-1.03-.1-.53.46-1.13,1.15-1.26.46-.08.64,0,1.36.65Zm1.33-1.98c.46-.08.7.04,1.64.9.63.56.91.92.96,1.23.1.55-.42,1.12-1.13,1.25-.42.08-.6,0-1.04-.5-.23-.23-.46-.46-.86-.79-.62-.54-.71-.65-.76-.89-.1-.53.45-1.07,1.19-1.2Z"/>
          <path class="cls-13" d="m204.16,15.47c-.89.07-1.24-.21-1.73-1.3-.23-.52-.86-1.65-1.1-1.98-.75-1.1-.83-1.21-.86-1.56-.06-.76.79-1.51,1.85-1.6.91-.07,1.29.21,2.2,1.62.84,1.32,1.44,2.63,1.49,3.23.06.78-.79,1.51-1.85,1.6Zm12.44-3.59c-.74,3.29-2.3,5.85-4.85,7.99-1.61,1.35-3.16,2.2-4.14,2.28-.98.08-1.89-.65-1.97-1.62-.06-.68.2-.99,1.15-1.48,3.05-1.57,6.19-3.8,6.54-10.38.02-.87.59-1.39,1.62-1.48,1.24-.1,2.03.37,2.1,1.25.04.55-.15,2.18-.45,3.43Zm-7.51,2.31c-.89.07-1.44-.29-1.66-1.06-.57-2.1-.86-2.7-1.14-3.3-.15-.34-.24-.6-.25-.81-.06-.72.76-1.39,1.81-1.47.98-.08,1.46.27,1.98,1.49.44,1.02.99,2.86,1.04,3.45.08.94-.62,1.6-1.77,1.7Z"/>
          <path class="cls-13" d="m230.83,8.14c-.94,1.21-1.86,2.2-2.89,3.11-1.32,1.18-1.96,1.54-2.76,1.52-1.03-.03-1.93-.89-1.9-1.82.02-.7.4-1,1.69-1.98,1.55-1.18,2.98-2.88,4.03-4.77.22-.39.44-.81.66-1.2.34-.61.77-.85,1.45-.83,1.22.03,2.21.71,2.19,1.52,0,.25-.04.54-.48,1.39l6.38.15c-.32-.48-.52-.78-.75-1.05-.27-.36-.34-.48-.34-.69.01-.54.68-1.04,1.36-1.02.54.01.7.14,1.29.92.71.95.98,1.43.97,1.76,0,.39-.23.65-.65.85.2.36.33.75.33,1.12-.01.52-.25,1.58-.53,2.54-1.09,3.6-3.08,6.32-6.21,8.45-2.58,1.77-5.85,3.14-7.44,3.1-1.1-.03-1.95-.89-1.92-1.94.02-.76.45-1.17,1.47-1.45,3.17-.91,8.18-2.73,10.1-8.32.18-.51.25-.78.26-.92,0-.23-.13-.29-.6-.3l-5.7-.14Zm12.53-2.71c-.47-.01-.63-.12-1.01-.79-.16-.27-.66-1.07-.93-1.45-.23-.29-.27-.42-.27-.62.01-.54.68-.99,1.38-.98.47.01.72.2,1.27.96.61.84.95,1.51.94,1.84-.01.6-.66,1.06-1.39,1.04Z"/>
          <path class="cls-13" d="m248.39,6.75c.24-1.67,1.08-2.22,3.01-1.94l12.95,1.88c1.9.28,2.55,1.04,2.31,2.71l-1.62,11.18c-.24,1.67-1.08,2.22-2.98,1.94l-12.95-1.88c-1.93-.28-2.57-1.04-2.33-2.71l1.62-11.18Zm14.23,3.55c.07-.49-.01-.58-.57-.67l-9.31-1.35c-.56-.08-.66-.01-.73.48l-1.2,8.28c-.07.49,0,.58.57.67l9.31,1.35c.56.08.66.01.73-.48l1.2-8.28Z"/>
          <path class="cls-13" d="m271.08,17.76c-.94-.28-1.29-1.01-.99-2.03.31-1.05,1-1.47,1.94-1.19l17.31,5.13c.94.28,1.29,1.01.98,2.05-.3,1.03-.99,1.45-1.94,1.17l-17.31-5.13Z"/>
          <path class="cls-13" d="m311.09,23.53c-.23-1.19-.27-1.32-.15-1.56.23-.44,1.08-.56,1.72-.22.42.21.56.45.73,1.19.17.74.21,1.34.08,1.59-.12.24-.31.35-.63.4.32.56.32,1.16,0,1.81-.28.55-4.69,7.83-16.18,7.45-1.32-.05-2.24-.21-2.85-.52-.98-.5-1.42-1.75-.95-2.67.38-.73.93-.89,2.54-.73,3.99.41,7.09-.13,9.7-1.68,1.07-.63,2.71-1.83,3.08-2.54.08-.17,0-.27-.32-.45l-11.29-5.81c-.86-.44-1.06-1.22-.57-2.17.48-.93,1.23-1.22,2.09-.78l13,6.69Zm3.8,3.12c-.42-.21-.49-.39-.56-1.17-.03-.41-.12-1.2-.21-1.69-.06-.35-.05-.51.03-.68.25-.48,1.06-.62,1.68-.29.42.21.55.52.72,1.42.19,1.02.19,1.79.04,2.08-.26.51-1.03.67-1.7.33Z"/>
          <path class="cls-13" d="m323.4,38.37l3.82-4.24c.55-.61,1.36-.53,2.23.26.89.8,1.07,1.58.51,2.21l-3.82,4.24,5.61,5.06c.63.57.63,1.26,0,1.95s-1.33.77-1.96.21l-3.76-3.39-3.53,3.92c-.36.4-.37.41.95,1.61.61.55.94.57,1.43.13,1.01-.95,1.44-1,2.23-.3.91.82,1.07,1.55.5,2.17-.61.67-1.6,1.36-2.35,1.63-1.05.36-1.86.21-4.28-1.97-2.88-2.59-3.2-3.25-1.57-5.05l4.03-4.47-1.74-1.57c-2.29,2.19-4.3,3.06-6.96,3.03-1.77-.04-3.88-.64-4.68-1.36-.64-.58-.64-1.77-.02-2.46.34-.38.76-.39,1.67-.03,2.01.78,4.27.69,5.72-.25.64-.43,1.16-.87,1.62-1.31l-3.36-3.03c-.63-.57-.62-1.28,0-1.97.62-.69,1.31-.76,1.94-.19l5.77,5.2Zm.83-5.72c-.14,1.1-.34,2.66-.74,3.13-.51.57-1.83.38-2.66-.37-.4-.36-.49-.69-.38-1.37.11-.65.2-1.07.27-1.81.13-1.72.18-1.95.45-2.26.51-.57,1.81-.4,2.64.36.56.5.61.83.41,2.31Zm10.75,9.76c-.34.38-.79.56-2.7,1-1.41.34-2.21.28-2.72-.17-.77-.69-1.06-2.04-.57-2.59.19-.21.42-.29,1.14-.39,1.03-.13,2.14-.52,2.95-.75.48-.12.85-.04,1.27.34.85.77,1.15,1.98.63,2.56Z"/>
        </g>
      </g>
    </g>
  </g>
</svg>