<svg xmlns="http://www.w3.org/2000/svg" viewBox="0 0 140 150"><defs><style>.cls-1{fill:#47a20a;}.cls-2{fill:#fff;}.cls-3{fill:none;stroke:#fff;stroke-miterlimit:10;stroke-width:0.5px;}</style></defs><rect class="cls-1" y="107.273" width="140" height="42.727" rx="3"/><path class="cls-2" d="M70.145,113.888a54.694,54.694,0,1,1,54.694-54.694A54.756,54.756,0,0,1,70.145,113.888Z"/><path class="cls-1" d="M70.145,9A50.194,50.194,0,1,1,19.951,59.194,50.251,50.251,0,0,1,70.145,9m0-9a59.194,59.194,0,1,0,59.194,59.194A59.194,59.194,0,0,0,70.145,0Z"/><path class="cls-1" d="M69.927,79.031a7.5,7.5,0,0,0-5.479,2.256,7.173,7.173,0,0,0-2.256,5.318,6.688,6.688,0,0,0,.644,2.9,7.161,7.161,0,0,0,1.693,2.337,8.258,8.258,0,0,0,5.479,2.095,7.491,7.491,0,0,0,5.479-2.256,7.173,7.173,0,0,0,2.256-5.318,6.767,6.767,0,0,0-2.337-5.238A8.056,8.056,0,0,0,69.927,79.031Z"/><rect class="cls-1" x="64.126" y="24.642" width="11.603" height="46.976" rx="0.953"/><path class="cls-2" d="M38.833,117.452a11.219,11.219,0,0,0-1.184.384,44.852,44.852,0,0,1-6.85,1.825c-.032,3.36-.064,5.281-.064,5.761h6.594a21.29,21.29,0,0,0,4.225-.224v3.329a32.7,32.7,0,0,0-4.193-.161h-6.85a16.311,16.311,0,0,1-2.112,6.979,16.776,16.776,0,0,1-5.186,5.089A22.738,22.738,0,0,1,20.3,142a8.846,8.846,0,0,0-2.368-2.817,15.46,15.46,0,0,0,5.025-2.753,11.071,11.071,0,0,0,4.162-8.066H19.468a28.027,28.027,0,0,0-4.353.161V125.2a23.468,23.468,0,0,0,4.385.224h7.874c.064-1.12.1-2.912.1-5.25a75.13,75.13,0,0,1-9.122.8A9.424,9.424,0,0,0,17.324,118c.96.032,1.44.064,1.952.064a53.738,53.738,0,0,0,13.6-1.92,15.041,15.041,0,0,0,3.777-1.537Z"/><path class="cls-2" d="M59.587,137.841h6.3a18.332,18.332,0,0,0,3.3-.192v3.1a22.018,22.018,0,0,0-3.3-.16H50.464a27.852,27.852,0,0,0-3.264.128v-3.105a16.673,16.673,0,0,0,3.264.224h6.018v-10.6H52.417a24.78,24.78,0,0,0-3.233.161v-3.1a18.544,18.544,0,0,0,3.2.224H63.94a18.709,18.709,0,0,0,3.233-.224v3.073a27.092,27.092,0,0,0-3.233-.129H59.587Z"/><path class="cls-2" d="M78.206,122.253a35.888,35.888,0,0,1,3.168,7.394l-3.04.992a28.77,28.77,0,0,0-2.945-7.49Zm18.245.064a6.972,6.972,0,0,0-.417,1.537,26.611,26.611,0,0,1-4.545,10.69c-2.273,3.041-5.025,5.185-9.443,7.394a9.061,9.061,0,0,0-2.175-2.624,21.063,21.063,0,0,0,5.345-2.913c3.745-2.721,5.922-6.05,7.329-11.171a13.051,13.051,0,0,0,.641-3.649Zm-11.524-1.344a32.412,32.412,0,0,1,3.106,7.169l-2.977.961a32.5,32.5,0,0,0-2.913-7.3Z"/><path class="cls-2" d="M115.432,114.892a5.47,5.47,0,0,0-.672,1.216,26.811,26.811,0,0,1-1.312,2.688c.256-.031.7-.064,1.377-.1l7.618-.1a5.142,5.142,0,0,0,2.048-.256l1.793,1.729a4.231,4.231,0,0,0-.737,1.76,33.743,33.743,0,0,1-6.5,12.227,31.387,31.387,0,0,1-11.3,8.066,8.126,8.126,0,0,0-2.241-2.753,27.023,27.023,0,0,0,11.075-7.649,27.945,27.945,0,0,0,5.441-10.179l-10.114.16a32.394,32.394,0,0,1-7.523,8.194,7.038,7.038,0,0,0-2.592-2.3,24.579,24.579,0,0,0,8.194-9.091,13.235,13.235,0,0,0,1.792-4.417Z"/><path class="cls-3" d="M38.833,117.452a11.219,11.219,0,0,0-1.184.384,44.852,44.852,0,0,1-6.85,1.825c-.032,3.36-.064,5.281-.064,5.761h6.594a21.29,21.29,0,0,0,4.225-.224v3.329a32.7,32.7,0,0,0-4.193-.161h-6.85a16.311,16.311,0,0,1-2.112,6.979,16.776,16.776,0,0,1-5.186,5.089A22.738,22.738,0,0,1,20.3,142a8.846,8.846,0,0,0-2.368-2.817,15.46,15.46,0,0,0,5.025-2.753,11.071,11.071,0,0,0,4.162-8.066H19.468a28.027,28.027,0,0,0-4.353.161V125.2a23.468,23.468,0,0,0,4.385.224h7.874c.064-1.12.1-2.912.1-5.25a75.13,75.13,0,0,1-9.122.8A9.424,9.424,0,0,0,17.324,118c.96.032,1.44.064,1.952.064a53.738,53.738,0,0,0,13.6-1.92,15.041,15.041,0,0,0,3.777-1.537Z"/><path class="cls-3" d="M59.587,137.841h6.3a18.332,18.332,0,0,0,3.3-.192v3.1a22.018,22.018,0,0,0-3.3-.16H50.464a27.852,27.852,0,0,0-3.264.128v-3.105a16.673,16.673,0,0,0,3.264.224h6.018v-10.6H52.417a24.78,24.78,0,0,0-3.233.161v-3.1a18.544,18.544,0,0,0,3.2.224H63.94a18.709,18.709,0,0,0,3.233-.224v3.073a27.092,27.092,0,0,0-3.233-.129H59.587Z"/><path class="cls-3" d="M78.206,122.253a35.888,35.888,0,0,1,3.168,7.394l-3.04.992a28.77,28.77,0,0,0-2.945-7.49Zm18.245.064a6.972,6.972,0,0,0-.417,1.537,26.611,26.611,0,0,1-4.545,10.69c-2.273,3.041-5.025,5.185-9.443,7.394a9.061,9.061,0,0,0-2.175-2.624,21.063,21.063,0,0,0,5.345-2.913c3.745-2.721,5.922-6.05,7.329-11.171a13.051,13.051,0,0,0,.641-3.649Zm-11.524-1.344a32.412,32.412,0,0,1,3.106,7.169l-2.977.961a32.5,32.5,0,0,0-2.913-7.3Z"/><path class="cls-3" d="M115.432,114.892a5.47,5.47,0,0,0-.672,1.216,26.811,26.811,0,0,1-1.312,2.688c.256-.031.7-.064,1.377-.1l7.618-.1a5.142,5.142,0,0,0,2.048-.256l1.793,1.729a4.231,4.231,0,0,0-.737,1.76,33.743,33.743,0,0,1-6.5,12.227,31.387,31.387,0,0,1-11.3,8.066,8.126,8.126,0,0,0-2.241-2.753,27.023,27.023,0,0,0,11.075-7.649,27.945,27.945,0,0,0,5.441-10.179l-10.114.16a32.394,32.394,0,0,1-7.523,8.194,7.038,7.038,0,0,0-2.592-2.3,24.579,24.579,0,0,0,8.194-9.091,13.235,13.235,0,0,0,1.792-4.417Z"/></svg>