<?xml version="1.0" encoding="UTF-8"?><svg id="_レイヤー_2" xmlns="http://www.w3.org/2000/svg" width="84" height="78" viewBox="0 0 84 78"><defs><style>.cls-1{fill:none;}.cls-1,.cls-2,.cls-3{stroke-width:0px;}.cls-2{fill:#ccc;}.cls-3{fill:#fff;}</style></defs><ellipse class="cls-3" cx="42" cy="39" rx="39" ry="38"/><rect class="cls-2" x="18" y="12.04" width="48" height="65.96"/><rect class="cls-3" x="23" y="18" width="9" height="11"/><rect class="cls-1" width="84" height="78"/><path class="cls-3" d="m39,19v4h-2v-4h2m1-1h-4v6h4v-6h0Z"/><path class="cls-3" d="m42,19v4h-2v-4h2m1-1h-4v6h4v-6h0Z"/><path class="cls-3" d="m45,19v4h-2v-4h2m1-1h-4v6h4v-6h0Z"/><path class="cls-3" d="m51,19v4h-2v-4h2m1-1h-4v6h4v-6h0Z"/><path class="cls-3" d="m54,19v4h-2v-4h2m1-1h-4v6h4v-6h0Z"/><path class="cls-3" d="m57,19v4h-2v-4h2m1-1h-4v6h4v-6h0Z"/><path class="cls-3" d="m60,19v4h-2v-4h2m1-1h-4v6h4v-6h0Z"/></svg>