<?xml version="1.0" encoding="utf-8"?>
<!-- Generator: Adobe Illustrator 25.4.1, SVG Export Plug-In . SVG Version: 6.00 Build 0)  -->
<svg version="1.1" id="レイヤー_1" xmlns="http://www.w3.org/2000/svg" xmlns:xlink="http://www.w3.org/1999/xlink" x="0px"
	 y="0px" width="150px" height="150px" viewBox="0 0 150 150" style="enable-background:new 0 0 150 150;" xml:space="preserve">
<style type="text/css">
	.st0{fill:none;}
	.st1{fill:#35318F;}
	.st2{fill:#FFFFFF;}
	.st3{fill:#01AAE7;}
	.st4{fill:#F39800;}
</style>
<rect class="st0" width="150" height="150"/>
<g>
	<g>
		<g>
			<path class="st1" d="M112,0H39.4c-5.6,0-10.2,4.6-10.2,10.2v129.5c0,5.6,4.6,10.2,10.2,10.2H112c5.6,0,10.2-4.6,10.2-10.2V10.2
				C122.2,4.6,117.6,0,112,0z"/>
			<path class="st2" d="M114.6,138c0,2.3-1.8,4.2-4.1,4.2H43.8c-3.7,0-6.8-3.1-6.8-6.9V11.9c0-2.3,1.8-4.2,4.1-4.2h14.6l1.6,5.9
				c0.5,1.7,2,2.9,3.8,2.9h30.5c1.7,0,3.3-1.2,3.8-2.9l1.7-6h13.2c2.4,0,4.4,2,4.4,4.5V138z"/>
		</g>
	</g>
</g>
<path class="st3" d="M98.6,84.4H86.7c-1.6,0-3,1.3-3,3c0,0,0,0,0,0v3c-11.4,0.2-20.8-9-20.9-20.3c0-0.2,0-0.4,0-0.6h3
	c1.6,0,3-1.3,3-3c0,0,0,0,0,0V54.6c0-1.6-1.3-3-3-3c0,0,0,0,0,0H53.8c-1.6,0-3,1.3-3,3c0,0,0,0,0,0v14.9c0,18.2,14.7,32.9,32.9,32.9
	h0h14.9c1.6,0,3-1.3,3-3c0,0,0,0,0,0V87.5C101.7,85.8,100.4,84.5,98.6,84.4C98.7,84.4,98.7,84.4,98.6,84.4z"/>
<g>
	<path class="st4" d="M108.3,73.5c0-16.9-13.8-30.7-30.7-30.7l-0.7,0v5.3l0.7,0c14,0,25.3,11.4,25.3,25.3l0,0.7h5.3L108.3,73.5z"/>
	<path class="st4" d="M77.6,52.1l-0.7,0v5.3h0.7c8.8,0,16,7.2,16,16v0.7H99l0-0.7C99,61.7,89.4,52.1,77.6,52.1z"/>
	<path class="st4" d="M77.7,61.5l-0.7,0v5.3l0.7,0c3.7,0,6.7,3,6.7,6.7v0.7h5.3v-0.7C89.6,66.9,84.3,61.5,77.7,61.5z"/>
</g>
</svg>
