<?xml version="1.0" encoding="utf-8"?>
<!-- Generator: Adobe Illustrator 25.4.1, SVG Export Plug-In . SVG Version: 6.00 Build 0)  -->
<svg version="1.1" id="レイヤー_1" xmlns="http://www.w3.org/2000/svg" xmlns:xlink="http://www.w3.org/1999/xlink" x="0px"
	 y="0px" width="150px" height="150px" viewBox="0 0 150 150" style="enable-background:new 0 0 150 150;" xml:space="preserve">
<style type="text/css">
	.st0{fill:none;}
	.st1{fill:#FFFFFF;}
	.st2{fill:#35318F;}
	.st3{fill:#01AAE7;}
	.st4{fill:#F39800;}
</style>
<rect class="st0" width="150" height="150"/>
<polygon class="st1" points="134.1,43.3 74.4,43.3 74.4,28.1 97.3,28.1 97.3,15.1 122.4,7.6 122.4,28.1 134.1,28.1 "/>
<path class="st2" d="M139.8,28.1h-6.4v12c0,8.2-6.7,14.8-14.8,14.8c-7.1,0-13.1-5-14.5-11.7V46c0,8.2-6.7,14.8-14.8,14.8
	S74.3,54.2,74.3,46c0-7.1,5-13.1,11.7-14.5v-3.4H10.2C4.6,28.1,0,32.7,0,38.4V111c0,5.6,4.6,10.2,10.2,10.2h129.5
	c5.6,0,10.2-4.6,10.2-10.2V38.4C150,32.7,145.4,28.1,139.8,28.1z"/>
<path class="st1" d="M11.9,113.6c-2.3,0-4.2-1.8-4.2-4.1V42.8c0-3.7,3.1-6.8,6.9-6.8H138c2.3,0,4.2,1.8,4.2,4.1v14.6l-5.9,1.6
	c-1.7,0.5-2.9,2-2.9,3.8v30.5c0,1.7,1.2,3.3,2.9,3.8l6,1.7v13.2c0,2.4-2,4.4-4.5,4.4H11.9z"/>
<path class="st3" d="M64.1,94.6l29.3-18.3c0.9-0.6,0.9-1.8,0-2.4L64.1,55.6c-0.9-0.6-2.2,0.1-2.2,1.2v36.7
	C61.9,94.5,63.1,95.2,64.1,94.6z"/>
<path class="st4" d="M126.9,1.4c-1.1-0.8-2.6-1.1-3.9-0.7L93.6,9.5c-1.9,0.6-3.1,2.3-3.1,4.2v22.1c-0.5-0.1-1-0.1-1.5-0.1
	c-5.7,0-10.3,4.6-10.3,10.3S83.3,56.3,89,56.3c5.7,0,10.3-4.6,10.3-10.3V17l20.5-6.2V30c-0.5-0.1-1-0.1-1.5-0.1
	c-5.7,0-10.3,4.6-10.3,10.3c0,5.7,4.6,10.3,10.3,10.3c5.7,0,10.3-4.6,10.3-10.2V4.9C128.6,3.6,128,2.3,126.9,1.4z"/>
</svg>
