<?xml version="1.0" encoding="utf-8"?>
<!-- Generator: Adobe Illustrator 25.4.1, SVG Export Plug-In . SVG Version: 6.00 Build 0)  -->
<svg version="1.1" id="レイヤー_1" xmlns="http://www.w3.org/2000/svg" xmlns:xlink="http://www.w3.org/1999/xlink" x="0px"
	 y="0px" width="150px" height="150px" viewBox="0 0 150 150" style="enable-background:new 0 0 150 150;" xml:space="preserve">
<style type="text/css">
	.st0{fill:none;}
	.st1{fill:#35318F;}
	.st2{fill:#F39800;}
	.st3{fill:#FFFFFF;}
	.st4{fill:#01AAE7;}
</style>
<rect class="st0" width="150" height="150"/>
<g>
	<path class="st1" d="M58,150v-1.6c0-11.3-11.9-19.2-29-19.2s-29,7.9-29,19.2v1.6H58z"/>
	<path class="st1" d="M150,150v-1.6c0-11.3-11.9-19.2-29-19.2s-29,7.9-29,19.2v1.6H150z"/>
	<path class="st1" d="M104,48.6V47c0-11.3-11.9-19.2-29-19.2S46,35.7,46,47v1.6H104z"/>
	<path class="st2" d="M51.7,99.7h38.8c0.6,0,1.2-0.3,1.6-0.7l7-7.9c0.4-0.4,0.6-1,0.6-1.5V63.2c0-1.2-1-2.2-2.2-2.2H51.7
		c-1.2,0-2.2,1-2.2,2.3l0,34.2C49.5,98.7,50.5,99.7,51.7,99.7z"/>
	<g>
		<rect x="67" y="67.4" class="st3" width="6.8" height="6.4"/>
		<path class="st3" d="M56.8,68.2l0,5.6h6.7v-6.4h-5.9C57.2,67.4,56.8,67.8,56.8,68.2z"/>
		<path class="st3" d="M83.2,67.4h-6.1v6.4h6.9v-5.6C84.1,67.8,83.7,67.4,83.2,67.4z"/>
		<path class="st3" d="M57.8,93.2h5.8v-9.9h20.5v-6.1H56.9l0.1,15.3C56.9,92.9,57.3,93.2,57.8,93.2z"/>
		<path class="st3" d="M83.2,93c0.5,0,0.9-0.3,0.9-0.8v-5.6h-6.9l0.1,6.4H83.2z"/>
		<polygon class="st3" points="67,93.2 73.8,93 73.8,86.6 67,86.6 		"/>
	</g>
	<circle class="st1" cx="29" cy="115.8" r="14.5"/>
	<path class="st1" d="M121,101.3c8,0,14.5,6.5,14.5,14.5s-6.5,14.5-14.5,14.5c-8,0-14.5-6.5-14.5-14.5S113,101.3,121,101.3"/>
	<path class="st1" d="M75,0c8,0,14.5,6.5,14.5,14.5S83,29,75,29c-8,0-14.5-6.5-14.5-14.5S67,0,75,0"/>
	<g>
		<path class="st4" d="M126.3,73.1c0,8.4-2,16.4-5.6,23.4c0.1,0,0.2,0,0.3,0c2.8,0,5.4,0.6,7.8,1.6c3.5-7.6,5.5-16.1,5.5-25.1
			c0-26.1-16.7-48.5-40.1-56.8c-0.3,2.8-1.1,5.3-2.4,7.6C111.9,31.3,126.3,50.5,126.3,73.1z"/>
		<path class="st4" d="M21.7,73.1c0-23.2,15.2-42.9,36.2-49.7c-1.2-2.3-2-4.9-2.1-7.7c-24.3,7.7-42,30.6-42,57.4
			c0,9.3,2.1,18,5.9,25.9c2.3-1.3,5-2.1,7.8-2.4C23.8,89.5,21.7,81.6,21.7,73.1z"/>
		<path class="st4" d="M74,125.4c-9.4,0-18.3-2.5-25.9-6.9c-0.4,2.8-1.4,5.4-2.8,7.6c8.5,4.6,18.3,7.3,28.7,7.3h0h0
			c11,0,21.3-3,30.1-8.2c-1.3-2.4-2.2-5.1-2.4-7.9C93.7,122.4,84.2,125.4,74,125.4z"/>
	</g>
</g>
</svg>
