<?xml version="1.0" encoding="utf-8"?>
<!-- Generator: Adobe Illustrator 25.4.1, SVG Export Plug-In . SVG Version: 6.00 Build 0)  -->
<svg version="1.1" id="レイヤー_1" xmlns="http://www.w3.org/2000/svg" xmlns:xlink="http://www.w3.org/1999/xlink" x="0px"
	 y="0px" width="150px" height="150px" viewBox="0 0 150 150" style="enable-background:new 0 0 150 150;" xml:space="preserve">
<style type="text/css">
	.st0{fill:none;}
	.st1{fill:#35318F;}
	.st2{fill:#FFFFFF;}
	.st3{fill:#F39800;}
	.st4{fill:#01AAE7;}
</style>
<rect class="st0" width="150" height="150"/>
<g>
	<g>
		<g>
			<g>
				<path class="st1" d="M102.9,0H30.2C24.6,0,20,4.6,20,10.2v129.5c0,5.6,4.6,10.2,10.2,10.2h72.7c5.6,0,10.2-4.6,10.2-10.2V10.2
					C113.1,4.6,108.5,0,102.9,0z"/>
				<path class="st2" d="M105.5,138c0,2.3-1.8,4.2-4.1,4.2H34.6c-3.7,0-6.8-3.1-6.8-6.9V11.9c0-2.3,1.8-4.2,4.1-4.2h14.6l1.6,5.9
					c0.5,1.7,2,2.9,3.8,2.9h30.5c1.7,0,3.3-1.2,3.8-2.9l1.7-6h13.2c2.4,0,4.4,2,4.4,4.5V138z"/>
			</g>
		</g>
	</g>
	<g>
		<circle class="st3" cx="119.2" cy="51.1" r="30.5"/>
		<polygon class="st2" points="135.8,47.3 122.6,47.3 122.6,34.2 115.6,34.2 115.6,47.3 102.4,47.3 102.4,54.3 115.6,54.3 
			115.6,67.5 122.6,67.5 122.6,54.3 135.8,54.3 		"/>
	</g>
	<path class="st4" d="M89.5,84.4H77.6c-1.6,0-3,1.3-3,3c0,0,0,0,0,0v3c-11.4,0.2-20.8-9-20.9-20.3c0-0.2,0-0.4,0-0.6h3
		c1.6,0,3-1.3,3-3c0,0,0,0,0,0V54.6c0-1.6-1.3-3-3-3c0,0,0,0,0,0H44.7c-1.6,0-3,1.3-3,3c0,0,0,0,0,0v14.9
		c0,18.2,14.7,32.9,32.9,32.9l0,0h14.9c1.6,0,3-1.3,3-3c0,0,0,0,0,0V87.5C92.6,85.8,91.2,84.5,89.5,84.4
		C89.6,84.4,89.5,84.4,89.5,84.4z"/>
</g>
</svg>
