<?xml version="1.0" encoding="utf-8"?>
<!-- Generator: Adobe Illustrator 25.4.1, SVG Export Plug-In . SVG Version: 6.00 Build 0)  -->
<svg version="1.1" id="レイヤー_1" xmlns="http://www.w3.org/2000/svg" xmlns:xlink="http://www.w3.org/1999/xlink" x="0px"
	 y="0px" width="150px" height="150px" viewBox="0 0 150 150" style="enable-background:new 0 0 150 150;" xml:space="preserve">
<style type="text/css">
	.st0{fill:none;}
	.st1{fill:#01AAE7;}
	.st2{fill:#35318F;}
	.st3{fill:#F39800;}
	.st4{fill:#FFFFFF;}
</style>
<rect class="st0" width="150" height="150"/>
<g>
	<g>
		<g>
			<rect x="22.5" y="43.2" transform="matrix(0.8222 -0.5692 0.5692 0.8222 -22.6304 23.0198)" class="st1" width="6" height="9"/>
			<rect x="70.1" y="8.5" transform="matrix(0.8223 -0.5691 0.5691 0.8223 6.0369 45.3778)" class="st1" width="11.2" height="9"/>
			
				<rect x="30.8" y="35.7" transform="matrix(0.8223 -0.5691 0.5691 0.8223 -16.3813 27.8858)" class="st1" width="11.2" height="9"/>
			
				<rect x="43.9" y="26.6" transform="matrix(0.8223 -0.5691 0.5691 0.8223 -8.9085 33.7164)" class="st1" width="11.2" height="9"/>
			<rect x="57" y="17.6" transform="matrix(0.8222 -0.5692 0.5692 0.8222 -1.4332 39.5568)" class="st1" width="11.2" height="9"/>
			<rect x="83.6" y="1" transform="matrix(0.8222 -0.5692 0.5692 0.8222 12.2863 50.2577)" class="st1" width="6" height="9"/>
		</g>
	</g>
	<polygon class="st2" points="63.3,45.9 63.3,45.8 20.5,45.8 20.5,145.7 63.3,145.7 	"/>
	<polygon class="st2" points="129.1,45.9 129,45.8 86.2,45.8 86.2,145.7 129.1,145.7 	"/>
	<polygon class="st3" points="129.1,45.9 129,45.8 86.2,45.8 86.2,0.1 129.1,0.1 	"/>
	<polygon class="st4" points="119.6,20.7 110.4,20.7 110.4,11.5 105.5,11.5 105.5,20.7 96.2,20.7 96.2,25.7 105.5,25.7 105.5,34.9 
		110.4,34.9 110.4,25.7 119.6,25.7 	"/>
	<path class="st2" d="M140,150.1H10v-6c0-1.1,0.9-2,2-2h126c1.1,0,2,0.9,2,2V150.1z"/>
</g>
</svg>
