<svg xmlns="http://www.w3.org/2000/svg" viewBox="0 0 325 180"><defs><style>.cls-1{fill:#f39800;}.cls-2{fill:#3176d5;}.cls-3{fill:none;}.cls-4{fill:#fff;}.cls-5{fill:#47a20a;}</style></defs><path d="M17.056,133.272a5.476,5.476,0,0,0,.16,1.506H15.822a3.42,3.42,0,0,1-.08-.724c-.286.5-.663.816-2.161.816-1.348,0-2.514-.23-2.514-2.035a1.8,1.8,0,0,1,1.806-2.114l2.263-.138c.3-.023.537-.035.537-.6,0-.679-.309-.805-1.486-.805-1.211,0-1.451.207-1.451.931H11.3c.012-1.781,1.132-2.195,2.812-2.195,1.863,0,2.949.287,2.949,2.207Zm-1.372-1.759c-.091.138-.24.253-.628.276l-1.669.1c-.891.057-.914.482-.914.908,0,.609.343.816,1.417.816,1.257,0,1.794-.38,1.794-1.265Z"/><path d="M22.928,134.778l-.046-.759a2.207,2.207,0,0,1-2.068.851c-1.6,0-2.389-.713-2.389-2.219v-4.643h1.463v4.379c0,.518.114,1.149,1.394,1.149,1.486,0,1.577-.873,1.577-1.5v-4.023h1.463v6.77Z"/><path d="M37.411,126.134c-.2,2.92-.879,7.862-7.577,9.139l-.652-1.449c5.384-.885,6.07-4.046,6.423-6.207H28.269v-1.483Z"/><path d="M48.373,128.491c-.388,3.6-1.566,6.333-7.555,6.85l-.446-1.425c5.03-.23,5.83-2.3,6.2-3.989H39.035v-1.436Zm-.663-2.725V127.2H39.847v-1.436Z"/><path d="M51.4,131.422a11.147,11.147,0,0,0-.892-2.794l1.234-.356a11.136,11.136,0,0,1,1,2.816Zm0,2.861c3.851-.838,4.891-2.333,5.657-6.345l1.475.3c-.618,2.529-1.052,4.243-2.914,5.668a9.1,9.1,0,0,1-3.566,1.609Zm2.491-3.367a10.694,10.694,0,0,0-.766-2.782l1.246-.288a9.254,9.254,0,0,1,.835,2.747Z"/><path d="M63.493,125.341v2.851a22.844,22.844,0,0,1,5.624,2.448l-.777,1.6a22.5,22.5,0,0,0-4.847-2.424v5.666H61.86V125.341Z"/><path d="M76.764,126.157a1.585,1.585,0,0,0,1.588,1.505c-.445,2.828-1.268,6.357-7.292,7.622l-.743-1.483c4.036-.621,5.887-2.288,6.39-6.15H69.461v-1.494Zm2.881-.184a1.223,1.223,0,1,1-1.223-1.23A1.22,1.22,0,0,1,79.645,125.973Zm-1.75,0a.533.533,0,0,0,.527.528.525.525,0,0,0,.525-.528.519.519,0,0,0-.525-.529A.527.527,0,0,0,77.9,125.973Z"/><path d="M89.817,128.491c-.389,3.6-1.566,6.333-7.555,6.85l-.446-1.425c5.03-.23,5.83-2.3,6.195-3.989H80.479v-1.436Zm-.663-2.725V127.2H81.291v-1.436Z"/><path d="M94.76,129.054a15.205,15.205,0,0,0-3.486-1.713l.709-1.322a13.57,13.57,0,0,1,3.589,1.586Zm-3.349,4.472c3.716-.277,6.618-1.45,8.23-6.771l1.486.713c-1.783,5.505-4.7,7.149-9.213,7.747Z"/><path d="M5.6,144.974H8.55v.978A6.356,6.356,0,0,1,6.1,149.647l-.69-.986a4.459,4.459,0,0,0,2.027-2.647H5.6ZM10.24,143.8a6.1,6.1,0,0,0,.656,1.935,10.121,10.121,0,0,0,1.884-2.131l.965.675a14.6,14.6,0,0,1-2.266,2.354,7.27,7.27,0,0,0,2.434,1.955l-.69,1.056a7.483,7.483,0,0,1-2.983-3.233v2.727a.826.826,0,0,1-.832.88H7.789l-.221-1.129H8.931c.159,0,.212-.044.212-.2v-4.371H6.71v-1h3.53Zm-2.574-2.168a15.306,15.306,0,0,1,3.946.728l-.407,1.12a10.116,10.116,0,0,0-3.876-.845Z"/><path d="M16.008,144.673a6,6,0,0,1-.655.622l-.735-.96a5.187,5.187,0,0,0,1.9-2.727l1.15.2a5.049,5.049,0,0,1-.23.657h5.3v1.057H19.981v1.048h2.47v1.031h-2.47v1.421H23.07v1.057H19.981v1.937H18.857v-1.937H14.734v-1.057h1.274Zm2.849-.1v-1.048H16.866a10.5,10.5,0,0,1-.769,1.048Zm-1.752,1.031v1.421h1.752v-1.421Z"/><path class="cls-1" d="M29.745,141.008v9.337H28.1v-7.832H26.257v-1.5Z"/><path class="cls-1" d="M34.359,148.556v1.895c0,1.115-1.024,1.269-1.731,1.293v-.807c.79-.023.79-.32.778-.592h-.778v-1.789Z"/><path class="cls-1" d="M39.428,140.912c3.146,0,3.876,1.115,3.876,4.764,0,3.626-.706,4.763-3.876,4.763s-3.888-1.125-3.888-4.763C35.54,142.062,36.247,140.912,39.428,140.912Zm-1.873,2.063a10.153,10.153,0,0,0,0,5.4c.365.533,1.272.569,1.956.569.412,0,1.414-.024,1.79-.569a10.485,10.485,0,0,0,0-5.4c-.376-.546-1.39-.57-1.873-.57C38.922,142.405,37.931,142.429,37.555,142.975Z"/><path class="cls-1" d="M48.493,140.912c3.146,0,3.876,1.115,3.876,4.764,0,3.626-.706,4.763-3.876,4.763s-3.888-1.125-3.888-4.763C44.605,142.062,45.312,140.912,48.493,140.912Zm-1.873,2.063a10.153,10.153,0,0,0,0,5.4c.365.533,1.272.569,1.956.569.412,0,1.414-.024,1.79-.569a10.485,10.485,0,0,0,0-5.4c-.376-.546-1.39-.57-1.873-.57C47.987,142.405,47,142.429,46.62,142.975Z"/><path class="cls-1" d="M57.558,140.912c3.146,0,3.876,1.115,3.876,4.764,0,3.626-.706,4.763-3.876,4.763s-3.888-1.125-3.888-4.763C53.67,142.062,54.377,140.912,57.558,140.912Zm-1.873,2.063a10.153,10.153,0,0,0,0,5.4c.365.533,1.272.569,1.956.569.412,0,1.414-.024,1.79-.569a10.485,10.485,0,0,0,0-5.4c-.376-.546-1.39-.57-1.873-.57C57.052,142.405,56.061,142.429,55.685,142.975Z"/><path d="M71.581,146.671h-5.39v3.358H65.059v-8.11h7.646v7.249a.811.811,0,0,1-.85.861H70.182l-.194-1.119h1.318c.23,0,.275-.115.275-.257Zm-5.39-1.021h2.132v-2.674H66.191Zm3.239,0h2.151v-2.674H69.43Z"/><path d="M78.316,142.221l-3.07,7h-1l3.071-7Z"/><path d="M84.614,147.178H80.623a7.112,7.112,0,0,1-1.2,2.878l-1-.818a5.284,5.284,0,0,0,1.133-3.437V141.99h6.212v6.964c0,.8-.1,1.075-1.124,1.075H83.065l-.177-1.173H84.34c.265,0,.274-.1.274-.31Zm-3.921-3.127h3.921v-1.012H80.693Zm0,2.105h3.921v-1.093H80.693Z"/><path d="M88.859,143.9h-.627v-2.06h2.03v-.69h1.214v.69h2.179v2.06h-.627v.381H91.437v.45h1.83v.85h-1.83v.47h2.328v.971H88.033v-.971h2.309v-.47H88.62v-.85h1.722v-.45H88.859Zm-.3,3.521h4.717v2.7H89.744v.409H88.56Zm1.782-3.99v-.4h1.095v.4H92.57v-.61H89.3v.61Zm-.6,4.9v.861H92.1v-.861Zm4.289-6.65h1.095v6.481H94.033Zm1.762-.531H97v8.333c0,.28,0,1.049-.865,1.049H94.551l-.239-1.29h1.194c.269,0,.289-.09.289-.29Z"/><path d="M98.282,141.442h5.2v3.39H99.825c-.05.3-.081.51-.19,1.07h3.881c-.11,4.362-.676,4.671-1.94,4.671H99.3l-.238-1.28H101.2c.717,0,.876,0,1.025-2.21h-4.05a18.557,18.557,0,0,0,.558-3.412h3.533v-1.06H98.282Zm7.344-.331h1.313v9.442h-1.313Z"/><path d="M153.509,91.593h8.659v3a19.637,19.637,0,0,1-7.181,11.35l-2.022-3.028a13.632,13.632,0,0,0,5.937-8.131h-5.393Zm13.611-3.6a19.312,19.312,0,0,0,1.919,5.947,30.665,30.665,0,0,0,5.521-6.547l2.826,2.073a44.071,44.071,0,0,1-6.636,7.23,21.474,21.474,0,0,0,7.128,6l-2.022,3.247a22.616,22.616,0,0,1-8.736-9.931v8.376a2.49,2.49,0,0,1-2.437,2.7h-4.744l-.648-3.465h3.992c.467,0,.622-.137.622-.628V89.574h-7.129V86.491H167.12Zm-7.544-6.657a42.959,42.959,0,0,1,11.562,2.237l-1.192,3.438c-3.137-1.474-5.081-1.992-11.356-2.592Z"/><path d="M183.5,90.666a17.721,17.721,0,0,1-1.918,1.909l-2.151-2.946a15.992,15.992,0,0,0,5.548-8.376l3.37.627a16.187,16.187,0,0,1-.675,2.019h15.53v3.247h-8.063v3.219h7.232V93.53h-7.232V97.9h9.048v3.246h-9.048v5.948h-3.293v-5.948h-12.08V97.9H183.5Zm8.348-.3V87.146h-5.833a32.252,32.252,0,0,1-2.255,3.219Zm-5.133,3.165V97.9h5.133V93.53Z"/><path d="M206.11,102.834h1.634V93.912h-1.531V91.293h24.578v2.619H218.139v13.123h-2.981v-2.019c-2.93.382-5.833.628-8.763.737ZM208.366,82.1h20.247v8.075H208.366Zm2.307,11.813v1.419h4.485V93.912Zm0,3.547v1.446h4.485V97.459Zm4.485,3.547h-4.485v1.746c1.089-.055,2.489-.109,4.485-.328Zm-3.552-16.725v1.146h13.767V84.281Zm0,2.729v1.173h13.767V87.01Zm10.629,10.968a10.206,10.206,0,0,0,2.2,3,10.53,10.53,0,0,0,2.229-3.3h-7.829V95.194h10.993v2.538a12.922,12.922,0,0,1-2.982,4.883,21.1,21.1,0,0,0,4.07,1.474l-1.633,2.974a18.25,18.25,0,0,1-4.873-2.374,16.519,16.519,0,0,1-4.979,2.346l-1.218-2.865a16.476,16.476,0,0,0,3.811-1.5,12.27,12.27,0,0,1-2.488-3.929Z"/><path d="M233.251,103.461a15.549,15.549,0,0,0,10.343-12.3h-9.98V87.665h10.214v-6.3H247.3v5.757c0,.082-.025.409-.025.546h10.6v3.492H247.743c1.5,7.311,5.625,10.394,10.706,12.413l-2,3.52a17.871,17.871,0,0,1-10.6-11.65A18.5,18.5,0,0,1,235.3,106.953Z"/><path class="cls-1" d="M175.464,117.929v19.844h4.67v6.15h-4.67v6.314h-5.947v-6.314h-17V137.24l14.593-19.311Zm-5.947,5.576-10.872,14.268h10.872Z"/><path class="cls-1" d="M190.026,143.308v7.463c0,4.632-4.451,4.8-6.166,4.837v-3.28c2.517,0,2.7-.943,2.7-2.091h-2.7v-6.929Z"/><path class="cls-1" d="M207.685,150.565c-10.763,0-13.243-2.173-13.243-16.482,0-13.9,2.262-16.482,12.951-16.482,10.8,0,13.244,2.173,13.244,16.482C220.637,147.982,218.412,150.565,207.685,150.565Zm-7.224-16.4c0,10,.621,10.25,7.516,10.25,5.91,0,6.64-.738,6.64-9.676,0-1.927-.11-7.052-.62-8.61-.73-2.173-2.882-2.378-6.457-2.378C201.082,123.751,200.461,124.12,200.461,134.165Z"/><path class="cls-1" d="M237.424,150.565c-10.762,0-13.244-2.173-13.244-16.482,0-13.9,2.263-16.482,12.952-16.482,10.8,0,13.244,2.173,13.244,16.482C250.376,147.982,248.15,150.565,237.424,150.565Zm-7.223-16.4c0,10,.62,10.25,7.515,10.25,5.91,0,6.64-.738,6.64-9.676,0-1.927-.109-7.052-.62-8.61-.73-2.173-2.883-2.378-6.458-2.378C230.821,123.751,230.2,124.12,230.2,134.165Z"/><path class="cls-1" d="M267.164,150.565c-10.763,0-13.245-2.173-13.245-16.482,0-13.9,2.263-16.482,12.953-16.482,10.8,0,13.243,2.173,13.243,16.482C280.115,147.982,277.889,150.565,267.164,150.565Zm-7.224-16.4c0,10,.62,10.25,7.516,10.25,5.91,0,6.639-.738,6.639-9.676,0-1.927-.109-7.052-.62-8.61-.729-2.173-2.883-2.378-6.458-2.378C260.56,123.751,259.94,124.12,259.94,134.165Z"/><path d="M298.378,124.9H288.5v6.131h-2.077V116.218h14.015v13.236a1.485,1.485,0,0,1-1.558,1.573h-3.065l-.356-2.044h2.417c.421,0,.5-.211.5-.47ZM288.5,123.03h3.909v-4.882H288.5Zm5.936,0h3.942v-4.882h-3.942Z"/><path d="M309.167,116.77l-5.628,12.781h-1.833l5.628-12.781Z"/><path d="M320.9,125.82H313.58a12.973,12.973,0,0,1-2.206,5.256l-1.833-1.493a9.634,9.634,0,0,0,2.076-6.277v-6.958H323v12.716c0,1.46-.178,1.963-2.059,1.963h-2.888l-.324-2.141h2.66c.486,0,.5-.178.5-.568Zm-7.186-5.709H320.9v-1.849h-7.186Zm0,3.844H320.9v-2h-7.186Z"/><path d="M287.218,139.167H286.2v-3.341h3.308v-1.119h1.98v1.119h3.552v3.341h-1.022v.617h-2.6v.73H294.4v1.378h-2.985v.762h3.8v1.574h-9.342v-1.574h3.762v-.762H286.83v-1.378h2.805v-.73h-2.417Zm-.486,5.709h7.688v4.38h-5.757v.665h-1.931Zm2.9-6.471v-.649h1.784v.649h1.85v-.989h-5.337v.989Zm-.972,7.948v1.395h3.843v-1.395Zm6.99-10.787h1.784v10.511h-1.784Zm2.871-.859h1.963v13.511c0,.454,0,1.7-1.411,1.7H296.5l-.39-2.092h1.946c.439,0,.471-.146.471-.471Z"/><path d="M302.29,135.177h8.483v5.5H304.8c-.081.486-.129.827-.307,1.735h6.326c-.179,7.072-1.1,7.575-3.163,7.575h-3.715l-.389-2.076h3.488c1.166,0,1.426,0,1.669-3.585h-6.6a29.832,29.832,0,0,0,.908-5.531h5.759v-1.719H302.29Zm11.97-.535H316.4v15.312H314.26Z"/><path d="M322.616,146.959l-.3,2.459-2.407-.3.3-2.459Zm1.434-11.278-1.511,9.746-1.884-.231.885-9.823Z"/><path class="cls-2" d="M69.833,81.144l2.143,8.188a.789.789,0,0,1-.46.929l-4,1.65,3.085,3.1a.791.791,0,0,1,.148.905L60.262,117.3h23.1a1.848,1.848,0,0,0,1.843-1.852C85.2,96.579,80.388,85.623,69.833,81.144Z"/><path class="cls-2" d="M41.928,95.917a.79.79,0,0,1,.149-.905l3.084-3.1-4-1.65a.789.789,0,0,1-.46-.929l2.147-8.2c-10.563,4.473-15.373,15.425-15.373,34.316a1.848,1.848,0,0,0,1.844,1.852h23.1Z"/><path class="cls-2" d="M69.093,95.726l-3.519-3.538A.789.789,0,0,1,65.83,90.9l4.457-1.838-2.253-8.6a32.168,32.168,0,0,0-6.851-1.452,1.829,1.829,0,0,0-1.4.442L56.142,82.62l-3.6-3.133a1.847,1.847,0,0,0-1.419-.44,31.853,31.853,0,0,0-6.482,1.413l-2.254,8.606L46.844,90.9a.788.788,0,0,1,.257,1.284l-3.52,3.538L54.159,117.3h4.357ZM58.165,92.814l1.516-2.644,2.172,2.53-2.181,8.4Zm-5.172-2.643,1.516,2.643L53,101.1l-2.181-8.4Zm8.586-7.383c.945.124,1.849.287,2.722.486L62.333,90.85,58.05,85.861Zm-10.827.042,3.7,3.226L50.341,90.85l-1.97-7.586Q49.52,83,50.752,82.83Z"/><path class="cls-2" d="M69.273,59.218a1.159,1.159,0,0,0-.845-.368,1.147,1.147,0,0,0-.792.316,15.441,15.441,0,0,1-11.3,4.594,15.8,15.8,0,0,1-11.259-4.554,1.153,1.153,0,0,0-1.638-.029,1.169,1.169,0,0,0-.028,1.646,18.159,18.159,0,0,0,12.925,5.265A17.593,17.593,0,0,0,69.22,60.863a1.167,1.167,0,0,0,.053-1.645Z"/><path class="cls-2" d="M56.337,78.93A33.573,33.573,0,0,0,79.859,21.593c-2.951-4.72-6.6-8.4-9.4-16.959a.541.541,0,0,0-.886-.34,44.281,44.281,0,0,0-3.218,5.58A31.427,31.427,0,0,0,63.121.439c-.154-.4-.438-.5-.756-.175s-4.689,4.82-6.517,7.969c.326-2.952.261-4.592.5-5.947.1-.283-.184-.437-.42-.3C51.408,4.6,37.408,14.763,31.274,23.251A33.563,33.563,0,0,0,56.337,78.93Zm0-3.706a29.862,29.862,0,0,1-20.2-51.7,34.031,34.031,0,0,1,10.011-3.4,24,24,0,0,0,3.109,5.59c.108.143.318.125.328-.071.07-1.29.595-2.4,1.41-4.978a15.379,15.379,0,0,0,5.069,8.094c.139.117.4-.05.4-.257a20.383,20.383,0,0,1,1.292-6.575c.876,2.444,1.62,4.413,3.2,5.963a.351.351,0,0,0,.557-.265c.713-2.359,1.459-4.325,1.983-6.112.453,1.308,1.42,3.81,1.662,4.331.228.492.751.492,1.012-.032l1.63-3.278a45.966,45.966,0,0,1,15.086,9.474,29.856,29.856,0,0,1-26.54,43.211Z"/><path class="cls-2" d="M71.005,44.66a2.546,2.546,0,1,0,2.533,2.546A2.54,2.54,0,0,0,71.005,44.66Z"/><path class="cls-2" d="M44.2,47.206a2.532,2.532,0,1,0-2.533,2.546A2.54,2.54,0,0,0,44.2,47.206Z"/><path class="cls-2" d="M57.61,53.469H55.065a.822.822,0,0,0,0,1.644H57.61a.822.822,0,0,0,0-1.644Z"/><rect class="cls-3" width="325" height="180"/><circle cx="128.245" cy="47.502" r="22.5"/><path class="cls-4" d="M113.936,55.537l2.931,5.078-1.293.747-2.951-5.111c-.036.381-.058.6-.12,1.015l-1.573-1.659a9.855,9.855,0,0,0-.919-5.2l1.37-.671a19.188,19.188,0,0,1,.949,3.024l1.522,2.635a7.311,7.311,0,0,0-.7-4.565l-.7.4-.754-1.306,3.929-2.268.754,1.3-2.015,1.164A11.361,11.361,0,0,1,114.9,51.4l2.025-1.17c1.994,3.608,2.291,7.009,1.047,9.769l-1.517-.626a7.016,7.016,0,0,0,.8-3.688,12.034,12.034,0,0,0-1.76-.4,6.511,6.511,0,0,1-.173,1Zm1.371-2.7a6.144,6.144,0,0,1,.175,1.084,13.371,13.371,0,0,1,1.551.216,10,10,0,0,0-.646-1.924Zm.752-5.043,1.249-.721,4.354,7.543-1.248.721Zm1.5-1.75,1.328-.767,5.513,9.548c.422.732.319,1.256-.39,1.665l-1.486.859-1.081-1.223,1.171-.675c.282-.163.236-.242.106-.468Z"/><path class="cls-4" d="M129.035,42.452a26,26,0,0,0-5.851,2.447l-.6-1.368a28.683,28.683,0,0,1,5.9-2.607Zm.274.577L130,44.223c-.206.449-.838,2.135-1.234,3.219a1.589,1.589,0,0,1,.433-.369c.81-.468,1.436-.034,1.963.878l.24.416c.455.788.6.943,1.944.169.541-.312,1.142-.75,1.5-1l.867,1.452a15.421,15.421,0,0,1-1.312.847c-1.78,1.027-2.459,1.149-3.122.887a2.353,2.353,0,0,1-1-1.041l-.26-.451c-.2-.349-.462-.8-1.026-.474a2.1,2.1,0,0,0-.843.982c-.3.863-1.048,3.984-1.116,4.308l-1.71-.649c.114-.322.972-3.023,1.31-4.074.676-2.132.949-2.906,1.217-3.691l-4.4,2.734-.824-1.43Z"/><path class="cls-4" d="M133.572,37.581a25.633,25.633,0,0,0,2.223,4.917,26.1,26.1,0,0,0,3.1,4.426l-1.415,1.058a39.606,39.606,0,0,1-3.242-4.809,28.918,28.918,0,0,1-2.31-4.835Zm4.861-.449L137.314,35.3l1.463-.845,1.129,1.826,2.073-1.2.812,1.408-2.038,1.176,1.586,2.643a9.682,9.682,0,0,1,3.309.324l-.24,1.9a10.4,10.4,0,0,0-2.178-.546c.283.514,1.114,2.031-1.126,3.324-1.9,1.1-3.233.3-3.747-.584-.578-1-.412-2.614,1.332-3.621a4.117,4.117,0,0,1,.93-.417l-1.33-2.175-3.22,1.86-.812-1.408Zm1.661-1.725a9.545,9.545,0,0,0-1.428-1.458l.8-.671a11.389,11.389,0,0,1,1.445,1.387Zm1.3,6.573a2.6,2.6,0,0,0-1.044.349c-.721.416-1.038,1.064-.712,1.626.28.485.885.6,1.639.164,1.014-.585.7-1.126.521-1.44Zm.057-7.493a8.123,8.123,0,0,0-1.447-1.416l.745-.685a9.143,9.143,0,0,1,1.481,1.4Z"/><path class="cls-5" d="M169.527,50.615V64.031h3.593v3.428h-3.593v4.427h-4.058V67.459H152.56V63.545l11.477-12.93Zm-4.058,3.294-8.791,10.122h8.791Z"/><path class="cls-5" d="M183.746,49.986h3.363v2.745a20.36,20.36,0,0,0,2.112,8.759c2.135,4.311,6.6,6.353,8.077,7.033l-2.087,2.723c-4.935-2.382-8.691-6.943-9.8-11.368-1.866,6.422-6.358,9.576-9.8,11.391l-2.185-2.678a16.4,16.4,0,0,0,8.2-7.26,18.491,18.491,0,0,0,2.111-8.509Z"/><path d="M221.7,59.455a28.649,28.649,0,0,1-4.6,3.334,17.561,17.561,0,0,0,5.2,5.5l-2.362,2.277A23.641,23.641,0,0,1,212.4,57.385h-.671a6.559,6.559,0,0,1-1.541,1.38,10.108,10.108,0,0,1,3.506,8.025c0,.736,0,4.507-3.382,4.507h-3.906l-.547-2.529h3.358c.746,0,1.642,0,1.642-2.231,0-.276-.025-.643-.025-.919a31.176,31.176,0,0,1-10.969,4.9L198.7,67.963a32.948,32.948,0,0,0,11.764-4.484,7.579,7.579,0,0,0-.423-1.058,29.353,29.353,0,0,1-9.475,3.794l-1.17-2.414a28.1,28.1,0,0,0,9.55-2.967c-.173-.207-.373-.39-.87-.873a27.548,27.548,0,0,1-7.71,2.368l-1.045-2.483c4.676-.391,6.715-1.288,8.581-2.461h-4.8V55.2h15.046v2.184h-3.257a21.372,21.372,0,0,0,1.044,3.174,19.944,19.944,0,0,0,3.606-2.944Zm-12.635-7.933V49.889h3.084v1.633h9.4v5.1h-3.009V53.913H202.7v2.713h-3.035v-5.1Z"/><path d="M232.724,56.235c.4-.367.6-.551.92-.9h-4.7v2.276h4.527a89.463,89.463,0,0,1-.5,11.935c-.4,1.816-1.915,1.909-2.91,1.909h-2.089l-.449-2.76h1.666c.822,0,.946-.253,1.045-.621a69.554,69.554,0,0,0,.349-7.818h-1.642v.483A30.843,30.843,0,0,1,228.3,66.1a11.836,11.836,0,0,1-2.413,5.334L223.77,69c.771-1.127,2.288-3.334,2.288-8V55.339h-1.866V52.648h3.433V49.8h3.06v2.851h3.233v2.369a12.389,12.389,0,0,0,2.462-5.289l3.109.368a12.934,12.934,0,0,1-.548,2.115H247.8v2.737H237.673a12.877,12.877,0,0,1-2.586,3.173Zm5.72,3.5a11.154,11.154,0,0,1-2.014,2.437l-2.388-1.586a10.391,10.391,0,0,0,3.308-5.013l2.786.483c-.175.552-.225.759-.323,1.057h7.436v2.622h-4.527a24.307,24.307,0,0,1-.224,2.575h5.3v2.668h-4.2a8.276,8.276,0,0,0,4.5,4.047l-1.817,2.6a12.118,12.118,0,0,1-5-5.265c-.547,1.1-1.815,3.5-6.441,5.127l-1.492-2.529c2.487-.782,4.426-2,5.471-3.978h-4.476V62.306h5.222a24.349,24.349,0,0,0,.2-2.575Z"/><path d="M260.359,67.48c4.453-.184,8.606-1.356,8.606-6.99,0-2.6-1.02-5.841-5.87-6.186-.248,2.759-.721,7.979-2.785,11.2-.423.667-2.015,3.082-4.875,3.082-3.358,0-5.049-3.472-5.049-6.807,0-6.024,4.725-10.324,11.739-10.324,6.441,0,10.421,3.426,10.421,9.2,0,6.807-4.626,9.36-11.143,9.773Zm-6.715-5.45c0,2.9,1.392,3.427,1.99,3.427,1.84,0,3.581-3.841,4.153-11.015A7.239,7.239,0,0,0,253.644,62.03Z"/><path d="M285.557,64.353a12.867,12.867,0,0,1-3.284,1.862l-.422-.62a67.622,67.622,0,0,1-6.741,2.322l-.323-2.989c.746-.161,1.417-.3,2.536-.621V57.362h-2.238V54.626h2.238V49.82h2.96v4.806h1.642v2.736h-1.642V63.41a14.945,14.945,0,0,0,1.642-.621L282,63.87a9.156,9.156,0,0,0,3.756-2.76H281.9V58.949h16.739V61.11H288.565c-.3.437-.447.69-.77,1.1h10.222c0,.138-.1,6.393-.8,7.865a2.23,2.23,0,0,1-2.388,1.333h-3.581l-.448-2.506h2.96c.8,0,.895-.391,1-.92a31.422,31.422,0,0,0,.323-3.633h-1.045a14.166,14.166,0,0,1-7.859,7.335l-1.79-1.908a13.548,13.548,0,0,0,7.113-5.427h-1.468a14.58,14.58,0,0,1-8.456,5.427l-1.144-2a14.864,14.864,0,0,0,6.764-3.426ZM283.02,50.487h14.1V57.96h-14.1ZM285.9,52.35v1.218h8.308V52.35Zm0,2.667v1.242h8.308V55.017Z"/><path d="M305.928,56.971a37.1,37.1,0,0,1-3.98,1.84l-1.641-2.9a22.3,22.3,0,0,0,10.322-6.163h3.383c1.392,1.5,3.78,3.863,10.321,6.163l-1.716,2.9a40.313,40.313,0,0,1-3.78-1.77V58.7H305.928Zm-3.084,3.7h18.878V71.435h-3.134v-.851h-12.61v.851h-3.134Zm3.134,2.6v4.737h12.61V63.272ZM317.17,56.1a24.641,24.641,0,0,1-4.925-3.955,19.443,19.443,0,0,1-4.8,3.955Z"/></svg>