<svg xmlns="http://www.w3.org/2000/svg" viewBox="0 0 325 180"><defs><style>.cls-1{fill:none;}.cls-2{fill:#f39800;}.cls-3{fill:#3176d5;}</style></defs><rect class="cls-1" width="325" height="180"/><path d="M6.328,133.325a5.482,5.482,0,0,0,.16,1.506h-1.4a3.556,3.556,0,0,1-.08-.724c-.286.494-.663.815-2.16.815-1.349,0-2.515-.229-2.515-2.034a1.807,1.807,0,0,1,1.806-2.115l2.263-.137c.3-.024.538-.035.538-.6,0-.679-.309-.805-1.485-.805-1.213,0-1.453.207-1.453.931H.567c.012-1.782,1.132-2.195,2.813-2.195,1.863,0,2.948.287,2.948,2.207Zm-1.372-1.759c-.091.138-.24.253-.629.276l-1.668.1c-.892.057-.915.482-.915.907,0,.61.343.817,1.418.817,1.258,0,1.794-.38,1.794-1.265Z"/><path d="M12.2,134.831l-.045-.759a2.206,2.206,0,0,1-2.068.85c-1.6,0-2.389-.712-2.389-2.218V128.06H9.16v4.38c0,.517.114,1.149,1.394,1.149,1.486,0,1.578-.874,1.578-1.5V128.06H13.6v6.771Z"/><path d="M19.958,125.865v3.356a18.918,18.918,0,0,0,5.235-2.058l1.12,1.276a27.37,27.37,0,0,1-6.355,2.311v2.3c0,.38.057.529.573.529h4.411a9.734,9.734,0,0,0,1.806-.195l.092,1.609a9,9,0,0,1-1.853.149H20.5c-.547,0-2.1,0-2.1-1.644v-7.632Zm7.955.367A1.223,1.223,0,1,1,26.69,125,1.227,1.227,0,0,1,27.913,126.232Zm-1.76,0a.532.532,0,1,0,.527-.528A.528.528,0,0,0,26.153,126.232Z"/><path d="M32.306,129.359a9.615,9.615,0,0,1,2.526,1.494,7.171,7.171,0,0,0,1.235-2.713H32.386a9.832,9.832,0,0,1-3.051,2.76l-1-1.127a7.756,7.756,0,0,0,3.852-4.495l1.635.265a9.882,9.882,0,0,1-.538,1.184h4.675A9.892,9.892,0,0,1,29.9,135.52l-.845-1.367A9.365,9.365,0,0,0,33.735,132a10.891,10.891,0,0,0-2.469-1.6Z"/><path d="M40.646,131.474a11.088,11.088,0,0,0-.89-2.793l1.233-.357a11.1,11.1,0,0,1,1,2.817Zm0,2.862C44.5,133.5,45.538,132,46.3,127.991l1.475.3c-.618,2.529-1.052,4.242-2.915,5.667a9.072,9.072,0,0,1-3.565,1.609Zm2.492-3.368a10.75,10.75,0,0,0-.766-2.782l1.246-.287a9.247,9.247,0,0,1,.834,2.747Z"/><path d="M52.739,125.393v2.851a22.906,22.906,0,0,1,5.622,2.448l-.776,1.6a22.544,22.544,0,0,0-4.846-2.425v5.667H51.1V125.393Z"/><path d="M66.009,126.21a1.585,1.585,0,0,0,1.588,1.505c-.445,2.828-1.268,6.357-7.292,7.622l-.743-1.483c4.034-.621,5.887-2.288,6.39-6.151H58.706V126.21Zm2.879-.184a1.223,1.223,0,1,1-1.222-1.231A1.22,1.22,0,0,1,68.888,126.026Zm-1.748,0a.533.533,0,0,0,.526.528.526.526,0,0,0,.526-.528.52.52,0,0,0-.526-.53A.527.527,0,0,0,67.14,126.026Z"/><path d="M79.062,128.543c-.389,3.6-1.566,6.334-7.555,6.851l-.446-1.425c5.03-.231,5.829-2.3,6.195-3.989H69.724v-1.437Zm-.663-2.725v1.437H70.536v-1.437Z"/><path d="M84.005,129.106a15.218,15.218,0,0,0-3.486-1.712l.709-1.322a13.538,13.538,0,0,1,3.589,1.586Zm-3.349,4.472c3.715-.276,6.618-1.449,8.23-6.77l1.486.712c-1.783,5.506-4.7,7.15-9.213,7.748Z"/><path d="M9.219,145.508h2.956v.977a6.363,6.363,0,0,1-2.452,3.7l-.69-.987a4.459,4.459,0,0,0,2.027-2.647H9.219Zm4.646-1.172a6.066,6.066,0,0,0,.654,1.936,10.138,10.138,0,0,0,1.886-2.131l.964.674a14.547,14.547,0,0,1-2.265,2.354,7.278,7.278,0,0,0,2.433,1.955l-.69,1.057a7.477,7.477,0,0,1-2.982-3.234v2.727a.827.827,0,0,1-.832.88H11.414l-.222-1.128h1.363c.16,0,.213-.045.213-.2V144.85H10.334v-1h3.531Zm-2.575-2.168a15.318,15.318,0,0,1,3.947.728l-.408,1.12a10.1,10.1,0,0,0-3.875-.844Z"/><path d="M19.632,145.206a5.924,5.924,0,0,1-.654.622l-.735-.959a5.191,5.191,0,0,0,1.894-2.728l1.15.205a5.049,5.049,0,0,1-.23.658h5.3v1.056H23.606v1.048h2.469v1.031H23.606v1.421H26.7v1.057H23.606v1.937H22.483v-1.937H18.358V147.56h1.274Zm2.851-.1V144.06H20.491a10.444,10.444,0,0,1-.771,1.048Zm-1.754,1.031v1.421h1.754v-1.421Z"/><path class="cls-2" d="M37.467,141.389v1.552H31.949l-.073,2.311a3.587,3.587,0,0,1,2.613-.71c2.65,0,3.368,1.272,3.368,3.264,0,2.3-.9,3.312-3.9,3.312-3.051,0-3.938-.868-3.975-3.153h1.689c0,.867,0,1.614,2.236,1.614,1.691,0,2.261-.38,2.261-1.688,0-1.137-.219-1.833-2.126-1.833s-2.116.538-2.224.831H30.247l.134-5.5Z"/><path class="cls-2" d="M43.2,141.292c3.246,0,4,1.148,4,4.912,0,3.741-.729,4.914-4,4.914s-4.011-1.161-4.011-4.914C39.193,142.476,39.923,141.292,43.2,141.292Zm-1.932,2.126a10.49,10.49,0,0,0,0,5.574c.376.55,1.313.587,2.017.587.426,0,1.46-.025,1.848-.587a10.851,10.851,0,0,0,0-5.574c-.388-.562-1.434-.587-1.933-.587C42.682,142.831,41.661,142.856,41.272,143.418Z"/><path class="cls-2" d="M52.539,141.292c3.246,0,4,1.148,4,4.912,0,3.741-.729,4.914-4,4.914s-4.012-1.161-4.012-4.914C48.527,142.476,49.258,141.292,52.539,141.292Zm-1.933,2.126a10.517,10.517,0,0,0,0,5.574c.377.55,1.313.587,2.017.587.426,0,1.46-.025,1.849-.587a10.823,10.823,0,0,0,0-5.574c-.389-.562-1.434-.587-1.933-.587C52.016,142.831,51,142.856,50.606,143.418Z"/><path d="M66.7,147.205h-5.39v3.358H60.179v-8.111h7.647V149.7a.812.812,0,0,1-.851.862H65.3l-.194-1.12h1.318c.23,0,.275-.115.275-.257Zm-5.39-1.021h2.133v-2.675H61.312Zm3.239,0H66.7v-2.675H64.551Z"/><path d="M73.437,142.754l-3.071,7h-1l3.07-7Z"/><path d="M79.735,147.711H75.743a7.12,7.12,0,0,1-1.2,2.879l-1-.818a5.288,5.288,0,0,0,1.133-3.438v-3.811h6.213v6.964c0,.8-.1,1.076-1.124,1.076H78.185l-.177-1.173H79.46c.265,0,.275-.1.275-.311Zm-3.921-3.127h3.921v-1.012H75.814Zm0,2.1h3.921V145.6H75.814Z"/><path d="M34.9,156.363v-.87h1.323v.87h3.105v1.19H36.221v.89h2.906V159.6H36.221v1.209a10.933,10.933,0,0,1,2.886,1.841l-.866,1.16a14.007,14.007,0,0,0-2.02-1.62v.189c0,.451,0,1.761-2.2,1.761-1.931,0-2.487-1.03-2.487-1.851,0-1.319,1.253-1.909,2.567-1.909a3.077,3.077,0,0,1,.8.079V159.6H31.455v-1.161H34.9v-.89H31.266v-1.19Zm.02,5.28a2.607,2.607,0,0,0-.906-.169c-.507,0-1.233.169-1.233.79,0,.6.686.71,1.144.71.925,0,.995-.43.995-.84Z"/><path d="M43.9,155.552c-.039.351-.079.66-.149,1.15h2.458v1.231H43.562a32.285,32.285,0,0,1-1.571,6.231l-1.285-.44a26.309,26.309,0,0,0,1.573-5.791H40.945V156.7h1.5c.06-.469.079-.849.1-1.159Zm2.02,5.532a1.516,1.516,0,0,0-.537,1.019c0,.761,1.174.761,1.822.761a19.839,19.839,0,0,0,2.109-.1v1.29c-.4.031-.577.04-1.692.04s-3.463,0-3.463-1.84A2.725,2.725,0,0,1,45,160.463Zm3.275-1.791c-.269-.009-.547-.03-.966-.03a7.141,7.141,0,0,0-2.875.441l-.4-1.091a9.019,9.019,0,0,1,4.229-.62Z"/><path d="M52.436,155.662a19.423,19.423,0,0,0-.408,4.191,21.252,21.252,0,0,0,.338,4.071l-1.333.161a27.384,27.384,0,0,1-.3-4.322,24.124,24.124,0,0,1,.35-4.23Zm3.442,1.51v-1.62h1.3v1.62h1.8v1.251H57.2l.03,2.411a8.154,8.154,0,0,1,2.03,1.44l-.845,1.15a7.945,7.945,0,0,0-1.235-1.15c-.009.55-.039,1.811-2.02,1.811-2,0-2.3-1.3-2.3-1.831a2.029,2.029,0,0,1,2.279-1.9,3.176,3.176,0,0,1,.8.081l-.04-2.011H53.023v-1.251Zm.08,4.452a1.835,1.835,0,0,0-.785-.17c-.707,0-1.115.36-1.115.789,0,.211.109.731,1.054.731.836,0,.846-.51.846-.911Z"/><path class="cls-2" d="M4.92,168.325v9.631h-1.7v-8.08h-1.9v-1.551Z"/><path class="cls-2" d="M9.657,176.111v1.955c0,1.149-1.056,1.308-1.786,1.332v-.831c.814-.024.814-.33.8-.611h-.8v-1.845Z"/><path class="cls-2" d="M14.868,168.227c3.246,0,4,1.149,4,4.913,0,3.741-.729,4.914-4,4.914s-4.011-1.161-4.011-4.914C10.857,169.412,11.586,168.227,14.868,168.227Zm-1.932,2.127a10.486,10.486,0,0,0,0,5.573c.377.55,1.313.587,2.018.587.426,0,1.458-.025,1.847-.587a10.848,10.848,0,0,0,0-5.573c-.389-.562-1.435-.587-1.933-.587C14.347,169.767,13.325,169.792,12.936,170.354Z"/><path class="cls-2" d="M24.2,168.227c3.246,0,4,1.149,4,4.913,0,3.741-.729,4.914-4,4.914s-4.011-1.161-4.011-4.914C20.192,169.412,20.922,168.227,24.2,168.227Zm-1.932,2.127a10.486,10.486,0,0,0,0,5.573c.376.55,1.313.587,2.017.587.426,0,1.46-.025,1.848-.587a10.819,10.819,0,0,0,0-5.573c-.388-.562-1.434-.587-1.933-.587C23.681,169.767,22.66,169.792,22.271,170.354Z"/><path class="cls-2" d="M33.538,168.227c3.246,0,4,1.149,4,4.913,0,3.741-.729,4.914-4,4.914s-4.011-1.161-4.011-4.914C29.527,169.412,30.257,168.227,33.538,168.227Zm-1.933,2.127a10.513,10.513,0,0,0,0,5.573c.377.55,1.313.587,2.017.587.426,0,1.46-.025,1.849-.587a10.819,10.819,0,0,0,0-5.573c-.389-.562-1.434-.587-1.933-.587C33.015,169.767,32,169.792,31.605,170.354Z"/><path d="M47.7,174.14H42.312V177.5H41.179v-8.11h7.646v7.249a.811.811,0,0,1-.85.861H46.3l-.2-1.12h1.32c.23,0,.273-.115.273-.257Zm-5.389-1.021h2.133v-2.674H42.312Zm3.238,0H47.7v-2.674H45.55Z"/><path d="M54.436,169.69l-3.07,7h-1l3.07-7Z"/><path d="M60.734,174.647H56.743a7.111,7.111,0,0,1-1.2,2.878l-1-.818a5.291,5.291,0,0,0,1.132-3.437v-3.811h6.213v6.964c0,.8-.1,1.075-1.124,1.075H59.185l-.176-1.173H60.46c.265,0,.274-.1.274-.31Zm-3.919-3.127h3.919v-1.012H56.815Zm0,2.1h3.919v-1.093H56.815Z"/><path d="M64.85,171.591h-.558v-1.83H66.1v-.613h1.08v.613h1.938v1.83h-.558v.338H67.143v.4h1.628v.755H67.143v.418h2.07v.862h-5.1V173.5h2.052v-.418H64.637v-.755h1.532v-.4H64.85Zm-.265,3.126h4.2v2.4H65.638v.365H64.585Zm1.584-3.543v-.356h.974v.356h1.009v-.543H65.24v.543Zm-.531,4.352v.765h2.1v-.765Zm3.814-5.907h.974v5.756h-.974Zm1.566-.471h1.071v7.4c0,.248,0,.933-.77.933H69.913l-.213-1.147h1.062c.239,0,.256-.079.256-.257Z"/><path d="M73.268,169.405H77.9v3.012H74.64c-.044.266-.071.453-.168.951h3.451c-.1,3.873-.6,4.148-1.725,4.148H74.171l-.213-1.138h1.9c.637,0,.779,0,.912-1.962h-3.6a16.519,16.519,0,0,0,.5-3.029h3.142v-.942H73.268Zm6.531-.293h1.168V177.5H79.8Z"/><path d="M83.037,173.11l2.448-1.014-2.456-1,.552-.957,2.1,1.607-.347-2.629h1.1l-.339,2.629,2.1-1.623.544.964L86.293,172.1l2.456,1.006-.552.956-2.1-1.607.347,2.629h-1.1l.339-2.638-2.1,1.632Z"/><path d="M118.136,133.325a5.44,5.44,0,0,0,.16,1.506H116.9a3.42,3.42,0,0,1-.08-.724c-.287.494-.663.815-2.161.815-1.348,0-2.514-.229-2.514-2.034a1.805,1.805,0,0,1,1.806-2.115l2.262-.137c.3-.024.538-.035.538-.6,0-.679-.309-.805-1.486-.805-1.211,0-1.451.207-1.451.931h-1.441c.012-1.782,1.132-2.195,2.812-2.195,1.863,0,2.949.287,2.949,2.207Zm-1.372-1.759c-.091.138-.24.253-.629.276l-1.668.1c-.891.057-.914.482-.914.907,0,.61.343.817,1.417.817,1.257,0,1.794-.38,1.794-1.265Z"/><path d="M124.008,134.831l-.046-.759a2.207,2.207,0,0,1-2.068.85c-1.6,0-2.39-.712-2.39-2.218V128.06h1.463v4.38c0,.517.115,1.149,1.395,1.149,1.486,0,1.577-.874,1.577-1.5V128.06H125.4v6.771Z"/><path d="M131.765,125.865v3.356A18.942,18.942,0,0,0,137,127.163l1.12,1.276a27.353,27.353,0,0,1-6.355,2.311v2.3c0,.38.058.529.571.529h4.412a9.716,9.716,0,0,0,1.806-.195l.092,1.609a9,9,0,0,1-1.852.149H132.3c-.55,0-2.1,0-2.1-1.644v-7.632Zm7.955.367A1.223,1.223,0,1,1,138.5,125,1.227,1.227,0,0,1,139.72,126.232Zm-1.76,0a.532.532,0,1,0,.526-.528A.529.529,0,0,0,137.96,126.232Z"/><path d="M144.114,129.359a9.663,9.663,0,0,1,2.526,1.494,7.213,7.213,0,0,0,1.234-2.713h-3.68a9.843,9.843,0,0,1-3.052,2.76l-.994-1.127A7.758,7.758,0,0,0,144,125.278l1.634.265a9.7,9.7,0,0,1-.536,1.184h4.674a9.891,9.891,0,0,1-8.069,8.793l-.846-1.367a9.367,9.367,0,0,0,4.686-2.15,10.87,10.87,0,0,0-2.468-1.6Z"/><path d="M152.454,131.474a11.189,11.189,0,0,0-.893-2.793l1.235-.357a11.123,11.123,0,0,1,.994,2.817Zm0,2.862c3.851-.839,4.89-2.333,5.657-6.345l1.474.3c-.618,2.529-1.051,4.242-2.914,5.667a9.065,9.065,0,0,1-3.567,1.609Zm2.491-3.368a10.792,10.792,0,0,0-.766-2.782l1.246-.287a9.247,9.247,0,0,1,.834,2.747Z"/><path d="M164.543,125.393v2.851a22.886,22.886,0,0,1,5.624,2.448l-.777,1.6a22.529,22.529,0,0,0-4.847-2.425v5.667H162.91V125.393Z"/><path d="M177.814,126.21a1.585,1.585,0,0,0,1.588,1.505c-.445,2.828-1.268,6.357-7.291,7.622l-.743-1.483c4.035-.621,5.886-2.288,6.389-6.151h-7.246V126.21Zm2.88-.184a1.223,1.223,0,1,1-1.222-1.231A1.22,1.22,0,0,1,180.694,126.026Zm-1.748,0a.533.533,0,0,0,.526.528.525.525,0,0,0,.525-.528.519.519,0,0,0-.525-.53A.526.526,0,0,0,178.946,126.026Z"/><path d="M190.866,128.543c-.388,3.6-1.566,6.334-7.555,6.851l-.446-1.425c5.03-.231,5.83-2.3,6.195-3.989h-7.532v-1.437Zm-.663-2.725v1.437H182.34v-1.437Z"/><path d="M195.81,129.106a15.218,15.218,0,0,0-3.486-1.712l.708-1.322a13.538,13.538,0,0,1,3.589,1.586Zm-3.349,4.472c3.715-.276,6.618-1.449,8.229-6.77l1.486.712c-1.783,5.506-4.7,7.15-9.212,7.748Z"/><path d="M121.8,145.319h2.955v.977a6.361,6.361,0,0,1-2.451,3.7l-.69-.986a4.464,4.464,0,0,0,2.027-2.648H121.8Zm4.645-1.172a6.11,6.11,0,0,0,.656,1.936,10.121,10.121,0,0,0,1.884-2.131l.965.675a14.6,14.6,0,0,1-2.266,2.353,7.27,7.27,0,0,0,2.434,1.955l-.69,1.057a7.489,7.489,0,0,1-2.983-3.233v2.726a.826.826,0,0,1-.832.88H124l-.221-1.128h1.363c.159,0,.212-.045.212-.2v-4.372h-2.433v-1h3.53Zm-2.574-2.168a15.35,15.35,0,0,1,3.946.728l-.407,1.12a10.12,10.12,0,0,0-3.876-.844Z"/><path d="M132.217,145.017a6,6,0,0,1-.655.622l-.734-.959a5.2,5.2,0,0,0,1.894-2.728l1.15.205a5,5,0,0,1-.23.658h5.3v1.057H136.19v1.048h2.47v1.03h-2.47v1.422h3.089v1.056H136.19v1.937h-1.124v-1.937h-4.123v-1.056h1.274Zm2.849-.1v-1.048h-1.991a10.613,10.613,0,0,1-.769,1.048Zm-1.752,1.03v1.422h1.752V145.95Z"/><path class="cls-2" d="M149.815,141.352v1.5h-5.35l-.07,2.24a3.477,3.477,0,0,1,2.533-.688c2.568,0,3.264,1.232,3.264,3.165,0,2.227-.872,3.21-3.782,3.21-2.958,0-3.817-.841-3.853-3.056H144.2c0,.84,0,1.563,2.168,1.563,1.637,0,2.192-.367,2.192-1.635,0-1.1-.213-1.777-2.063-1.777s-2.049.521-2.156.805h-1.52l.129-5.332Z"/><path class="cls-2" d="M155.393,141.257c3.146,0,3.876,1.114,3.876,4.764,0,3.626-.707,4.763-3.876,4.763s-3.888-1.125-3.888-4.763C151.505,142.407,152.212,141.257,155.393,141.257Zm-1.873,2.062a10.153,10.153,0,0,0,0,5.4c.365.533,1.272.569,1.956.569.412,0,1.413-.024,1.79-.569a10.485,10.485,0,0,0,0-5.4c-.377-.545-1.39-.569-1.873-.569C154.887,142.75,153.9,142.774,153.52,143.319Z"/><path class="cls-2" d="M164.458,141.257c3.146,0,3.876,1.114,3.876,4.764,0,3.626-.707,4.763-3.876,4.763s-3.888-1.125-3.888-4.763C160.57,142.407,161.277,141.257,164.458,141.257Zm-1.874,2.062a10.18,10.18,0,0,0,0,5.4c.366.533,1.273.569,1.957.569.412,0,1.413-.024,1.79-.569a10.485,10.485,0,0,0,0-5.4c-.377-.545-1.39-.569-1.873-.569C163.952,142.75,162.961,142.774,162.584,143.319Z"/><path d="M178.48,147.016h-5.389v3.358h-1.132v-8.11H179.6v7.248a.811.811,0,0,1-.849.862h-1.673l-.194-1.12h1.318c.23,0,.274-.115.274-.257ZM173.091,146h2.132V143.32h-2.132Zm3.239,0h2.15V143.32h-2.15Z"/><path d="M185.216,142.565l-3.071,7h-1l3.071-7Z"/><path d="M191.514,147.523h-3.991a7.124,7.124,0,0,1-1.2,2.878l-1-.818a5.284,5.284,0,0,0,1.133-3.437v-3.812h6.212V149.3c0,.8-.1,1.075-1.124,1.075h-1.575l-.177-1.173h1.452c.264,0,.274-.1.274-.31Zm-3.921-3.127h3.921v-1.013h-3.921Zm0,2.1h3.921v-1.092h-3.921Z"/><path d="M147.079,156.363v-.87H148.4v.87h3.105v1.19H148.4v.89h2.905V159.6H148.4v1.209a10.95,10.95,0,0,1,2.886,1.841l-.866,1.16a14.117,14.117,0,0,0-2.02-1.62v.189c0,.451,0,1.761-2.2,1.761-1.931,0-2.488-1.03-2.488-1.851,0-1.319,1.254-1.909,2.568-1.909a3.073,3.073,0,0,1,.8.079V159.6h-3.443v-1.161h3.443v-.89h-3.631v-1.19Zm.021,5.28a2.612,2.612,0,0,0-.906-.169c-.508,0-1.234.169-1.234.79,0,.6.687.71,1.145.71.925,0,1-.43,1-.84Z"/><path d="M156.081,155.552c-.04.351-.08.66-.15,1.15h2.459v1.231h-2.647a32.212,32.212,0,0,1-1.573,6.231l-1.283-.44a26.349,26.349,0,0,0,1.572-5.791h-1.333V156.7h1.5c.06-.469.08-.849.1-1.159Zm2.02,5.532a1.514,1.514,0,0,0-.538,1.019c0,.761,1.175.761,1.822.761a19.819,19.819,0,0,0,2.109-.1v1.29c-.4.031-.577.04-1.691.04s-3.464,0-3.464-1.84a2.721,2.721,0,0,1,.837-1.791Zm3.274-1.791c-.268-.009-.547-.03-.965-.03a7.152,7.152,0,0,0-2.876.441l-.4-1.091a9.013,9.013,0,0,1,4.229-.62Z"/><path d="M164.617,155.662a19.423,19.423,0,0,0-.408,4.191,21.252,21.252,0,0,0,.338,4.071l-1.333.161a27.379,27.379,0,0,1-.3-4.322,24.008,24.008,0,0,1,.349-4.23Zm3.442,1.51v-1.62h1.3v1.62h1.8v1.251h-1.781l.03,2.411a8.135,8.135,0,0,1,2.03,1.44l-.846,1.15a7.854,7.854,0,0,0-1.234-1.15c-.009.55-.04,1.811-2.02,1.811-2,0-2.3-1.3-2.3-1.831a2.03,2.03,0,0,1,2.28-1.9,3.166,3.166,0,0,1,.795.081l-.039-2.011H165.2v-1.251Zm.081,4.452a1.842,1.842,0,0,0-.787-.17c-.706,0-1.114.36-1.114.789,0,.211.109.731,1.054.731.837,0,.847-.51.847-.911Z"/><path class="cls-2" d="M117.1,168.325v9.631h-1.7v-8.08h-1.9v-1.551Z"/><path class="cls-2" d="M121.836,176.111v1.955c0,1.149-1.057,1.308-1.787,1.332v-.831c.815-.024.815-.33.8-.611h-.8v-1.845Z"/><path class="cls-2" d="M127.046,168.227c3.245,0,4,1.149,4,4.913,0,3.741-.73,4.914-4,4.914s-4.011-1.161-4.011-4.914C123.035,169.412,123.764,168.227,127.046,168.227Zm-1.932,2.127a10.486,10.486,0,0,0,0,5.573c.376.55,1.313.587,2.018.587.425,0,1.458-.025,1.847-.587a10.819,10.819,0,0,0,0-5.573c-.389-.562-1.434-.587-1.933-.587C126.523,169.767,125.5,169.792,125.114,170.354Z"/><path class="cls-2" d="M136.381,168.227c3.246,0,4,1.149,4,4.913,0,3.741-.729,4.914-4,4.914s-4.011-1.161-4.011-4.914C132.37,169.412,133.1,168.227,136.381,168.227Zm-1.932,2.127a10.513,10.513,0,0,0,0,5.573c.377.55,1.313.587,2.018.587.425,0,1.458-.025,1.847-.587a10.819,10.819,0,0,0,0-5.573c-.389-.562-1.433-.587-1.933-.587C135.858,169.767,134.838,169.792,134.449,170.354Z"/><path class="cls-2" d="M145.715,168.227c3.246,0,4,1.149,4,4.913,0,3.741-.729,4.914-4,4.914s-4.011-1.161-4.011-4.914C141.7,169.412,142.433,168.227,145.715,168.227Zm-1.932,2.127a10.513,10.513,0,0,0,0,5.573c.377.55,1.313.587,2.018.587.425,0,1.458-.025,1.847-.587a10.819,10.819,0,0,0,0-5.573c-.389-.562-1.433-.587-1.933-.587C145.193,169.767,144.172,169.792,143.783,170.354Z"/><path d="M159.879,174.14H154.49V177.5h-1.133v-8.11H161v7.249a.811.811,0,0,1-.85.861H158.48l-.194-1.12H159.6c.23,0,.275-.115.275-.257Zm-5.389-1.021h2.132v-2.674H154.49Zm3.238,0h2.151v-2.674h-2.151Z"/><path d="M166.614,169.69l-3.07,7h-1l3.071-7Z"/><path d="M172.913,174.647h-3.992a7.111,7.111,0,0,1-1.2,2.878l-1-.818a5.284,5.284,0,0,0,1.133-3.437v-3.811h6.213v6.964c0,.8-.1,1.075-1.124,1.075h-1.576l-.177-1.173h1.452c.265,0,.275-.1.275-.31Zm-3.922-3.127h3.922v-1.012h-3.922Zm0,2.1h3.922v-1.093h-3.922Z"/><path d="M177.028,171.591h-.558v-1.83h1.806v-.613h1.079v.613h1.939v1.83h-.558v.338H179.32v.4h1.629v.755H179.32v.418h2.071v.862h-5.1V173.5h2.054v-.418h-1.531v-.755h1.531v-.4h-1.319Zm-.265,3.126h4.195v2.4h-3.142v.365h-1.053Zm1.584-3.543v-.356h.973v.356h1.009v-.543h-2.912v.543Zm-.531,4.352v.765h2.1v-.765Zm3.814-5.907h.974v5.756h-.974Zm1.566-.471h1.071v7.4c0,.248,0,.933-.771.933H182.09l-.212-1.147h1.062c.239,0,.256-.079.256-.257Z"/><path d="M185.447,169.405h4.629v3.012h-3.257c-.044.266-.071.453-.169.951H190.1c-.1,3.873-.6,4.148-1.725,4.148H186.35l-.213-1.138h1.9c.637,0,.779,0,.912-1.962h-3.6a16.358,16.358,0,0,0,.5-3.029h3.143v-.942h-3.541Zm6.532-.293h1.167V177.5h-1.167Z"/><path d="M195.216,173.11l2.448-1.014-2.456-1,.552-.957,2.1,1.607-.347-2.629h1.1l-.339,2.629,2.1-1.623.545.964-2.448,1.014,2.456,1.006-.553.956-2.1-1.607.347,2.629h-1.1l.339-2.638-2.1,1.632Z"/><path d="M229.557,133.325a5.44,5.44,0,0,0,.16,1.506h-1.4a3.487,3.487,0,0,1-.08-.724c-.286.494-.663.815-2.16.815-1.349,0-2.515-.229-2.515-2.034a1.806,1.806,0,0,1,1.806-2.115l2.263-.137c.3-.024.538-.035.538-.6,0-.679-.31-.805-1.486-.805-1.212,0-1.452.207-1.452.931H223.8c.011-1.782,1.131-2.195,2.812-2.195,1.863,0,2.949.287,2.949,2.207Zm-1.373-1.759c-.09.138-.24.253-.628.276l-1.668.1c-.892.057-.915.482-.915.907,0,.61.343.817,1.417.817,1.258,0,1.794-.38,1.794-1.265Z"/><path d="M235.429,134.831l-.047-.759a2.206,2.206,0,0,1-2.068.85c-1.6,0-2.389-.712-2.389-2.218V128.06h1.463v4.38c0,.517.115,1.149,1.395,1.149,1.486,0,1.576-.874,1.576-1.5V128.06h1.463v6.771Z"/><path d="M249.912,126.187c-.205,2.919-.88,7.862-7.578,9.138l-.651-1.449c5.383-.884,6.069-4.046,6.423-6.206h-7.337v-1.483Z"/><path d="M260.874,128.543c-.389,3.6-1.567,6.334-7.555,6.851l-.446-1.425c5.029-.231,5.829-2.3,6.194-3.989h-7.531v-1.437Zm-.664-2.725v1.437h-7.863v-1.437Z"/><path d="M263.9,131.474a11.189,11.189,0,0,0-.893-2.793l1.235-.357a11.123,11.123,0,0,1,.994,2.817Zm0,2.862c3.851-.839,4.891-2.333,5.657-6.345l1.474.3c-.618,2.529-1.051,4.242-2.914,5.667a9.069,9.069,0,0,1-3.566,1.609Zm2.491-3.368a10.792,10.792,0,0,0-.766-2.782l1.246-.287a9.247,9.247,0,0,1,.834,2.747Z"/><path d="M275.994,125.393v2.851a22.9,22.9,0,0,1,5.623,2.448l-.777,1.6a22.544,22.544,0,0,0-4.846-2.425v5.667H274.36V125.393Z"/><path d="M289.264,126.21a1.585,1.585,0,0,0,1.588,1.505c-.445,2.828-1.268,6.357-7.291,7.622l-.743-1.483c4.035-.621,5.886-2.288,6.389-6.151h-7.246V126.21Zm2.881-.184a1.223,1.223,0,1,1-1.223-1.231A1.221,1.221,0,0,1,292.145,126.026Zm-1.749,0a.533.533,0,0,0,.526.528.525.525,0,0,0,.525-.528.519.519,0,0,0-.525-.53A.526.526,0,0,0,290.4,126.026Z"/><path d="M302.317,128.543c-.388,3.6-1.566,6.334-7.555,6.851l-.446-1.425c5.03-.231,5.83-2.3,6.2-3.989H292.98v-1.437Zm-.663-2.725v1.437h-7.863v-1.437Z"/><path d="M307.261,129.106a15.218,15.218,0,0,0-3.486-1.712l.708-1.322a13.522,13.522,0,0,1,3.589,1.586Zm-3.349,4.472c3.715-.276,6.618-1.449,8.229-6.77l1.486.712c-1.783,5.506-4.7,7.15-9.212,7.748Z"/><path d="M217.726,145.319h2.955v.977a6.356,6.356,0,0,1-2.451,3.7l-.69-.986a4.464,4.464,0,0,0,2.027-2.648h-1.841Zm4.646-1.172a6.075,6.075,0,0,0,.655,1.936,10.116,10.116,0,0,0,1.885-2.131l.964.675a14.588,14.588,0,0,1-2.265,2.353,7.278,7.278,0,0,0,2.433,1.955l-.69,1.057a7.48,7.48,0,0,1-2.982-3.233v2.726a.827.827,0,0,1-.833.88h-1.618l-.222-1.128h1.363c.16,0,.213-.045.213-.2v-4.372h-2.434v-1h3.531Zm-2.575-2.168a15.343,15.343,0,0,1,3.946.728l-.407,1.12a10.119,10.119,0,0,0-3.875-.844Z"/><path d="M228.139,145.017a5.822,5.822,0,0,1-.655.622l-.735-.959a5.193,5.193,0,0,0,1.9-2.728l1.15.205a5,5,0,0,1-.23.658h5.3v1.057h-2.753v1.048h2.47v1.03h-2.47v1.422H235.2v1.056h-3.089v1.937h-1.124v-1.937h-4.122v-1.056h1.273Zm2.849-.1v-1.048H229a10.645,10.645,0,0,1-.77,1.048Zm-1.752,1.03v1.422h1.752V145.95Z"/><path class="cls-2" d="M241.876,141.352v9.338h-1.65v-7.833h-1.838v-1.5Z"/><path class="cls-2" d="M246.491,148.9v1.9c0,1.114-1.025,1.268-1.732,1.292v-.806c.79-.024.79-.32.778-.592h-.778V148.9Z"/><path class="cls-2" d="M251.56,141.257c3.145,0,3.875,1.114,3.875,4.764,0,3.626-.706,4.763-3.875,4.763s-3.889-1.125-3.889-4.763C247.671,142.407,248.378,141.257,251.56,141.257Zm-1.874,2.062a10.153,10.153,0,0,0,0,5.4c.365.533,1.273.569,1.956.569.412,0,1.414-.024,1.79-.569a10.485,10.485,0,0,0,0-5.4c-.376-.545-1.39-.569-1.872-.569C251.053,142.75,250.062,142.774,249.686,143.319Z"/><path class="cls-2" d="M260.625,141.257c3.145,0,3.875,1.114,3.875,4.764,0,3.626-.706,4.763-3.875,4.763s-3.889-1.125-3.889-4.763C256.736,142.407,257.443,141.257,260.625,141.257Zm-1.874,2.062a10.153,10.153,0,0,0,0,5.4c.365.533,1.272.569,1.956.569.412,0,1.414-.024,1.79-.569a10.485,10.485,0,0,0,0-5.4c-.376-.545-1.39-.569-1.872-.569C260.118,142.75,259.127,142.774,258.751,143.319Z"/><path class="cls-2" d="M269.69,141.257c3.145,0,3.875,1.114,3.875,4.764,0,3.626-.706,4.763-3.875,4.763s-3.889-1.125-3.889-4.763C265.8,142.407,266.508,141.257,269.69,141.257Zm-1.874,2.062a10.153,10.153,0,0,0,0,5.4c.365.533,1.272.569,1.956.569.412,0,1.414-.024,1.79-.569a10.485,10.485,0,0,0,0-5.4c-.376-.545-1.39-.569-1.872-.569C269.183,142.75,268.192,142.774,267.816,143.319Z"/><path d="M283.712,147.016h-5.389v3.358H277.19v-8.11h7.646v7.248a.812.812,0,0,1-.85.862h-1.673l-.194-1.12h1.318c.23,0,.275-.115.275-.257ZM278.323,146h2.132V143.32h-2.132Zm3.238,0h2.151V143.32h-2.151Z"/><path d="M290.447,142.565l-3.07,7h-1l3.071-7Z"/><path d="M296.746,147.523h-3.992a7.122,7.122,0,0,1-1.2,2.878l-1-.818a5.284,5.284,0,0,0,1.133-3.437v-3.812H297.9V149.3c0,.8-.1,1.075-1.124,1.075H295.2l-.177-1.173h1.452c.265,0,.275-.1.275-.31Zm-3.922-3.127h3.922v-1.013h-3.922Zm0,2.1h3.922v-1.092h-3.922Z"/><path d="M300.99,144.246h-.627v-2.06h2.03V141.5h1.214v.691h2.18v2.06h-.627v.381h-1.592v.45h1.83v.85h-1.83v.469H305.9v.971h-5.732V146.4h2.309v-.469h-1.722v-.85h1.722v-.45H300.99Zm-.3,3.521h4.716v2.7h-3.533v.409h-1.183Zm1.781-3.991v-.4h1.095v.4H304.7v-.61h-3.274v.61Zm-.6,4.9v.86h2.359v-.86Zm4.289-6.651h1.1v6.482h-1.1Zm1.762-.531h1.2v8.333c0,.28,0,1.049-.866,1.049h-1.583l-.239-1.29h1.195c.269,0,.288-.09.288-.289Z"/><path d="M310.413,141.786h5.2v3.391h-3.662c-.05.3-.08.51-.19,1.07h3.881c-.11,4.361-.676,4.67-1.94,4.67h-2.28l-.238-1.28h2.139c.717,0,.876,0,1.026-2.21H310.3a18.56,18.56,0,0,0,.558-3.411h3.533v-1.06h-3.981Zm7.344-.331h1.313V150.9h-1.313Z"/><path class="cls-3" d="M58.285,49.482a2.546,2.546,0,1,0-2.532-2.546A2.54,2.54,0,0,0,58.285,49.482Z"/><path class="cls-3" d="M32.242,54.322c4.533,0,8.231-3.157,8.407-7.094a7.373,7.373,0,0,1,9.231,0c.176,3.938,3.873,7.1,8.4,7.1,4.645,0,8.425-3.312,8.425-7.386s-3.78-7.387-8.425-7.387c-4,0-7.344,2.458-8.2,5.738a8.962,8.962,0,0,0-9.635,0c-.858-3.28-4.208-5.738-8.205-5.738-4.644,0-8.422,3.314-8.422,7.387S27.6,54.322,32.242,54.322Zm26.042-12.99c3.668,0,6.652,2.515,6.652,5.6s-2.984,5.6-6.652,5.6c-3.56,0-6.466-2.372-6.632-5.338l0-.581C51.851,43.678,54.745,41.332,58.284,41.332Zm-26.042,0c3.541,0,6.437,2.347,6.632,5.291l0,.578c-.165,2.967-3.074,5.339-6.635,5.339-3.666,0-6.648-2.513-6.648-5.6S28.576,41.332,32.242,41.332Z"/><path class="cls-3" d="M32.243,49.482a2.546,2.546,0,1,0-2.532-2.546A2.54,2.54,0,0,0,32.243,49.482Z"/><path class="cls-3" d="M45.264,78.623A33.554,33.554,0,1,0,11.885,45.07,33.5,33.5,0,0,0,45.264,78.623ZM17.488,34.532c21.094-6.233,34-5.965,45.4-9.743,0,0,5.468,6.349,11.042,12.5a29.692,29.692,0,1,1-56.441-2.761Z"/><path class="cls-3" d="M46.537,53.951H43.992a.822.822,0,0,0,0,1.643h2.545a.822.822,0,0,0,0-1.643Z"/><path class="cls-3" d="M56.837,58.371l-.2-.24a.779.779,0,0,0-1.1-.085.789.789,0,0,0-.085,1.109l.2.237c.281.332.589.7.931,1.079a15.545,15.545,0,0,1-11.311,4.561,15.961,15.961,0,0,1-11.316-4.557c.344-.386.652-.749.935-1.083l.2-.237A.789.789,0,0,0,35,58.046a.78.78,0,0,0-1.1.085l-.2.24a25.255,25.255,0,0,1-4.929,4.679.792.792,0,0,0-.193,1.1.779.779,0,0,0,1.091.193,20.6,20.6,0,0,0,2.7-2.253,18.487,18.487,0,0,0,12.9,5.181A17.876,17.876,0,0,0,58.16,62.086a20.839,20.839,0,0,0,2.707,2.254.779.779,0,0,0,1.091-.193.79.79,0,0,0-.193-1.1A25.216,25.216,0,0,1,56.837,58.371Z"/><path class="cls-3" d="M58.566,80.417,60.9,89.345a.789.789,0,0,1-.46.929l-4,1.65,3.085,3.1a.792.792,0,0,1,.149.905l-10.485,21.55h23.1a1.847,1.847,0,0,0,1.843-1.852C74.129,97.865,71.3,84.792,58.566,80.417Z"/><path class="cls-3" d="M30.855,95.929A.792.792,0,0,1,31,95.024l3.084-3.1-4-1.65a.789.789,0,0,1-.461-.929L31.967,80.4C19.22,84.764,16.4,97.846,16.4,115.627a1.847,1.847,0,0,0,1.843,1.852h23.1Z"/><path class="cls-3" d="M58.02,95.739,54.5,92.2a.788.788,0,0,1,.257-1.284l4.456-1.838-2.409-9.2a31.589,31.589,0,0,0-4.727-.854,1.822,1.822,0,0,0-1.162.266l-5.849,3.62L39.26,79.322a1.857,1.857,0,0,0-1.178-.262,31.158,31.158,0,0,0-4.357.816l-2.41,9.2,4.456,1.838a.788.788,0,0,1,.257,1.284l-3.52,3.538,10.578,21.74h4.357ZM47.092,92.826l1.516-2.642,2.172,2.528-2.181,8.4ZM41.92,90.184l1.517,2.642-1.507,8.286-2.181-8.4Zm10.385-7.405c.346.043.682.094,1.017.146l-2.061,7.938-4.17-4.855Zm-14.424.04L43.3,86.167l-4.032,4.7-2.062-7.939C37.43,82.888,37.652,82.85,37.881,82.819Z"/><path class="cls-3" d="M301.516,47.006c.02-.482.036-.965.036-1.451a33.38,33.38,0,1,0-66.759,0c0,.486.016.969.037,1.451-1.252,14.288-6.7,43.426,6.531,44.784a24.4,24.4,0,0,1,17.6-13.992,33.017,33.017,0,0,0,18.423,0,24.4,24.4,0,0,1,17.6,13.992C308.218,90.432,302.767,61.294,301.516,47.006Zm-63.037-1.451a30.08,30.08,0,0,1,.313-4.3c7.558-2.751,14.17-7.678,24.516-15.388-2.436,4.008-8.065,9.392-11.073,12.489-.538.554-.125,1.055.518.829,8.379-2.936,21.148-10.531,24.131-16.335,9.492,5.583,16.949,15.288,20.875,20.27.066.8.108,1.616.108,2.438a29.694,29.694,0,1,1-59.388,0Z"/><path class="cls-3" d="M273.019,79.189a1.823,1.823,0,0,0-1.4.442l-3.64,3.168-3.6-3.133a1.843,1.843,0,0,0-1.419-.44c-16.357,1.908-23.651,13.134-23.651,36.4a1.847,1.847,0,0,0,1.843,1.852h54.043a1.848,1.848,0,0,0,1.844-1.852C297.038,92.207,289.63,80.969,273.019,79.189Zm-4.846,31.11-3.842-9.98,2.886-9.513h1.913l2.885,9.512Zm-.161-23.2a1.832,1.832,0,0,0,.286-.026l.066.048h-.383Zm-6.377,6.2,0,0,0,0Zm13.077,0,0,0v0Zm-1.3-10.332a27.348,27.348,0,0,1,4.867,1.07l-.467,1.214a19.726,19.726,0,0,0-7.121,1.622l-.962-.7ZM266.4,86.328l-.749.544a19.721,19.721,0,0,0-7.12-1.622l-.47-1.22a26.918,26.918,0,0,1,4.527-1.021Zm-23.39,27.446c.282-16.042,4.305-25.174,13.055-28.99l.915,1.493a19.1,19.1,0,0,0,1.335,7.992c.653-.165,1.254-.328,1.818-.493l.364.946-3.465,4.335,6.235,2.86,4.175,10.849a.142.142,0,0,1,.011.018.661.661,0,0,0,.036.062.7.7,0,0,0,.117.169.687.687,0,0,0,.063.058.773.773,0,0,0,.179.116c.016.007.026.021.042.026s.016,0,.023,0a.712.712,0,0,0,.519,0c.008,0,.016,0,.023,0s.027-.019.042-.026a.773.773,0,0,0,.179-.116.5.5,0,0,0,.063-.058.73.73,0,0,0,.118-.169c.011-.022.026-.04.036-.062s.008-.012.01-.018l4.176-10.848,6.234-2.861-3.464-4.335.364-.946c.564.165,1.164.328,1.817.493a19.093,19.093,0,0,0,1.336-7.992l.913-1.49c8.75,3.821,12.774,12.965,13.056,28.987Z"/><path class="cls-3" d="M278.667,58.545a1.172,1.172,0,0,0-1.507.7c-1.417,3.878-5.571,5.261-8.986,5.261s-7.571-1.383-8.987-5.261a1.176,1.176,0,1,0-2.206.813c1.833,5.021,6.984,6.81,11.193,6.81s9.358-1.789,11.191-6.81A1.182,1.182,0,0,0,278.667,58.545Z"/><path class="cls-3" d="M282.84,44.838a2.546,2.546,0,1,0,2.533,2.547A2.54,2.54,0,0,0,282.84,44.838Z"/><path class="cls-3" d="M253.505,44.838a2.546,2.546,0,1,0,2.533,2.547A2.539,2.539,0,0,0,253.505,44.838Z"/><path class="cls-3" d="M269.445,53.648H266.9a.822.822,0,0,0,0,1.643h2.545a.822.822,0,0,0,0-1.643Z"/><path class="cls-3" d="M268.173,98.31a1.67,1.67,0,1,0-1.662-1.67A1.665,1.665,0,0,0,268.173,98.31Z"/><path class="cls-3" d="M268.173,101.662a1.67,1.67,0,1,0,1.661,1.67A1.666,1.666,0,0,0,268.173,101.662Z"/><path class="cls-3" d="M172.712,63.119c-2.7-1.747-4.771-4.361-5.167-5.5a.781.781,0,0,0-1-.484.789.789,0,0,0-.482,1,2.489,2.489,0,0,1-.065.905c-1.416,3.88-5.57,5.262-8.985,5.262s-7.57-1.382-8.986-5.262a2.489,2.489,0,0,1-.065-.905.784.784,0,1,0-1.48-.519c-.4,1.14-2.463,3.754-5.166,5.5a.791.791,0,0,0-.236,1.088.783.783,0,0,0,.66.362.774.774,0,0,0,.423-.125,19.006,19.006,0,0,0,4.075-3.62c2.108,4.283,6.849,5.842,10.775,5.842s8.666-1.558,10.775-5.841a18.975,18.975,0,0,0,4.074,3.619.774.774,0,0,0,.423.125.788.788,0,0,0,.424-1.45Z"/><path class="cls-3" d="M171.683,44.634a2.547,2.547,0,1,0,2.533,2.546A2.54,2.54,0,0,0,171.683,44.634Z"/><path class="cls-3" d="M144.88,47.18a2.533,2.533,0,1,0-2.533,2.547A2.54,2.54,0,0,0,144.88,47.18Z"/><path class="cls-3" d="M158.288,53.444h-2.545a.822.822,0,0,0,0,1.644h2.545a.822.822,0,0,0,0-1.644Z"/><path class="cls-3" d="M195.817,59.058c-1.1-4.432-4.789-4.534-5.726-9.242a33.9,33.9,0,0,0,.3-4.465,33.38,33.38,0,1,0-66.759,0,33.9,33.9,0,0,0,.3,4.465c-.937,4.708-4.624,4.81-5.726,9.242-1.025,4.122,4.112,9.054,6.853,7.676-1.1,4.8,7.446,10.64,13.358,6.471a33.171,33.171,0,0,0,37.181,0c5.912,4.169,14.459-1.671,13.357-6.471C191.705,68.112,196.842,63.18,195.817,59.058ZM127.322,45.351c0-.935.048-1.858.132-2.771,3.537-5.207,9.62-15.059,17.878-20.593,11.578,11.092,30.029,17.2,40.964,18.432a29.705,29.705,0,1,1-58.974,4.932Z"/><path class="cls-3" d="M163.307,79.526a.619.619,0,0,0-.615.326,6.083,6.083,0,0,1-11.353,0,.62.62,0,0,0-.615-.326,30.272,30.272,0,0,0-3.108.652V92.847h18.8V80.178A30.2,30.2,0,0,0,163.307,79.526Z"/><path class="cls-3" d="M130.13,112.21a.639.639,0,0,0,.006.134q-.1,1.457-.13,2.971a2.14,2.14,0,0,0,2.09,2.164h10.038v-35.1C134.5,86.713,130.854,98.944,130.13,112.21Z"/><path class="cls-3" d="M183.9,112.21a.714.714,0,0,1-.006.134q.1,1.457.13,2.971a2.141,2.141,0,0,1-2.091,2.164H171.9v-35.1C179.529,86.713,183.176,98.944,183.9,112.21Z"/></svg>