<svg xmlns="http://www.w3.org/2000/svg" width="142.8" height="117.4" viewBox="0 0 142.8 117.4"><defs><style>.a{fill:none;}.b{fill:#00aae7;}.c{fill:#35318f;}</style></defs><rect class="a" x="7.8" width="135" height="117.4"/><path class="b" d="M30,38.5h90.3a1.94,1.94,0,0,1,1.8,1.8v63.3a1.94,1.94,0,0,1-1.8,1.8H30a1.94,1.94,0,0,1-1.8-1.8V40.3A1.73,1.73,0,0,1,30,38.5Z" transform="translate(0)"/><path class="c" d="M116.1,44.5V99.7H34.2V44.5h81.9m4.2-6H30a1.94,1.94,0,0,0-1.8,1.8h0v63.3a1.94,1.94,0,0,0,1.8,1.8h90.3a1.94,1.94,0,0,0,1.8-1.8V40.3a1.73,1.73,0,0,0-1.8-1.8Z" transform="translate(0)"/><path class="c" d="M132.9,109.9H17.4a4.5,4.5,0,1,1,0-9H132.9a4.5,4.5,0,0,1,0,9Z" transform="translate(0)"/><path class="c" d="M3,34.3H2.7A3.52,3.52,0,0,1,0,31H0A29.86,29.86,0,0,1,33.9,5.5h0a3.22,3.22,0,0,1,2.7,3.3c0,1.5-1.8,2.7-3.6,2.4A24,24,0,0,0,6,31.6,2.93,2.93,0,0,1,3,34.3Z" transform="translate(0)"/><path class="c" d="M12,35.5h-.6A3,3,0,0,1,9,32.2a21,21,0,0,1,23.7-18h0a3.22,3.22,0,0,1,2.7,3.3c0,1.5-1.8,2.7-3.3,2.7A15,15,0,0,0,15,32.8,3.19,3.19,0,0,1,12,35.5Z" transform="translate(0)"/><path class="c" d="M20.7,36.7h-.3A3.11,3.11,0,0,1,18,33.1h0A12.12,12.12,0,0,1,31.5,22.9a3.22,3.22,0,0,1,2.7,3.3c0,1.5-1.8,2.7-3.3,2.7A6.08,6.08,0,0,0,24,33.7V34A3.52,3.52,0,0,1,20.7,36.7Z" transform="translate(0)"/></svg>