<?xml version="1.0" encoding="utf-8"?>
<!-- Generator: Adobe Illustrator 24.0.2, SVG Export Plug-In . SVG Version: 6.00 Build 0)  -->
<svg version="1.1" id="レイヤー_1" xmlns="http://www.w3.org/2000/svg" xmlns:xlink="http://www.w3.org/1999/xlink" x="0px"
	 y="0px" viewBox="0 0 82.6 85.6" style="enable-background:new 0 0 82.6 85.6;" xml:space="preserve">
<style type="text/css">
	.st0{fill:#FFFFFF;}
	.st1{fill:#F39800;}
	.st2{fill:#35318F;}
	.st3{fill:#00AAE7;}
</style>
<circle class="st0" cx="41.3" cy="42.8" r="41.4"/>
<title>search-icon</title>
<g>
	<path class="st1" d="M12.3,52.9h58c0.9,0,1.6,0.7,1.6,1.6v4.8c0,0.9-0.7,1.6-1.6,1.6h-58c-0.9,0-1.6-0.7-1.6-1.6v-4.8
		C10.7,53.6,11.5,52.9,12.3,52.9z"/>
	<path class="st1" d="M31.7,61H12.3c-0.9,0-1.6-0.7-1.6-1.6V28.8c0-0.9,0.7-1.6,1.6-1.6l19.3-4.8c0.9,0,1.6,0.7,1.6,1.6v35.4
		C33.3,60.2,32.6,61,31.7,61z"/>
	<path class="st2" d="M14,41.6V31.3c0-0.8,0.5-1.4,1.2-1.6l12.9-3.2c0.9-0.2,1.7,0.3,1.9,1.2c0,0.1,0.1,0.3,0,0.4v13.5
		c0,0.9-0.7,1.6-1.6,1.6H15.6C14.7,43.3,14,42.5,14,41.6z"/>
	<path class="st3" d="M38.3,18.1h31.9c0.9,0,1.6,0.7,1.6,1.6v28.2c0,0.9-0.7,1.6-1.6,1.6H38.3c-0.9,0-1.6-0.7-1.6-1.6V19.8
		C36.7,18.9,37.4,18.1,38.3,18.1z"/>
	<circle class="st2" cx="22" cy="62.6" r="4.8"/>
	<circle class="st2" cx="60.6" cy="62.6" r="4.8"/>
</g>
</svg>
