<?xml version="1.0" encoding="UTF-8"?><svg id="_レイヤー_1" xmlns="http://www.w3.org/2000/svg" width="76.53" height="90.5" xmlns:xlink="http://www.w3.org/1999/xlink" viewBox="0 0 76.53 90.5"><defs><style>.cls-1{fill:#fff;}.cls-2{fill:#bc9b56;}.cls-3{fill:#040000;}.cls-4{fill:#73c5bc;}.cls-5{fill:#f0ea3a;}.cls-6{stroke-linecap:round;stroke-linejoin:round;stroke-width:.75px;}.cls-6,.cls-7{stroke:#040000;}.cls-6,.cls-7,.cls-8,.cls-9{fill:none;}.cls-7{stroke-width:1.39px;}.cls-10{fill:#125fa8;}.cls-9{clip-path:url(#clippath);}.cls-11{fill:#c1e4eb;}.cls-12{fill:#1f9a80;}.cls-13{fill:#fce9dc;}</style><clipPath id="clippath"><rect class="cls-8" width="76.53" height="90.5"/></clipPath></defs><g class="cls-9"><path class="cls-13" d="m50.69,98.32c1.59,3.05,3.62-.54,3.62-.54l8.02-36.62s12.9-12.22,11.8-12.93c-.71-.46-11.81,8.79-11.81,8.79,0,0,2.03-.1,2.86-.99,0,0,.29-4.91-.81-5.42-1.1-.51-2.05,5.56-2.99,6.32-.93.77-1.03,2.52-1.2,3.6l-7.46,30.33-3.49-17.27-1.62,5.17.19,6.6,2.9,12.97Z"/><line class="cls-6" x1="60.33" y1="60.63" x2="52.51" y2="91.36"/><path class="cls-6" d="m52.79,91.18l-4.15-24.46-2.96,7.95,4.92,23.75s2.6,3.32,3.71-.64l8.02-36.62s12.9-12.22,11.8-12.93c-.73-.48-7.36,5.93-8.8,7.4,0,0,.3-5.28-.21-5.8-.51-.51-2.39,5.3-3.41,6.49-1.02,1.19-1.28,1.92-1.54,4.19"/><path class="cls-13" d="m37.96,38.53s-1.76,7.76-.37,12.56c1.39,4.8,4.71,10.44,4.71,10.44,0,0-4.06,2.59-7.48,2.59s-6.28-2.59-6.28-2.59c0,0,5.08-4.9,5.17-10.81.09-5.91-1.75-12.1-1.75-12.1"/><path class="cls-3" d="m38.15,38.57s-.65,1.04-1.04,4.61c-.18,1.77-.22,5.02.6,7.59.86,2.55,1.99,4.52,1.97,4.52.01,0,.37.6,1.06,1.72.33.57.75,1.26,1.22,2.08.24.41.49.85.76,1.32l.21.36.1.18.05.09h0s0,.02,0,.02c-.13.55.3-1.23-.29,1.23h0s-.03.02-.03.02l-.05.03-.83.47c-2.26,1.16-5.01,2.09-7.52,1.71-2.48-.39-4.11-1.7-5.07-2.36-1.72-.66.52-1.63.83-2.48.69-.95,1.42-2.05,1.94-3.59,1.26-3.08.89-6.89.6-10.76-.21-3.84-.91-6.68-.9-6.67l.77-.23s.25,1.39.71,4.34c.28,1.74.51,3.95.74,6.16,1.01,5.09-3.1,10.56-4.14,11.69-.12.04-.94,1.49-.85.68.56.41,1.26.86,2.08,1.23,1.63.81,3.67,1.15,5.59.56.97-.23,2.01-.63,3.06-1.05l1.56-.7c.13.22.79-1.04.46.41l-.38-.79c-.97-2.07-1.68-3.99-2.04-5.13-.72-2.23-2.57-5.27-2.99-8.54-.63-3.27.98-8.96,1.04-8.93l.78.18Z"/><path class="cls-11" d="m42.86,60.27l4.29,20.36s1.84-7.33,3.26-9.86c1.42-2.53,1.97-3.51,1.97-3.51,0,0-1.42-3-2.69-3.32-1.26-.32-6.82-3.67-6.82-3.67Z"/><path class="cls-11" d="m27.63,58.05l16.72.87,5.04,4.69,1.01,60.23,5.64,28.85s-8.18,9.11-19.82,9.62c-11.64.51-19.74-7.08-19.74-7.08l6.07-28.85.65-63.65c.04-1.65,2.36-4.71,4.42-4.68Z"/><path class="cls-3" d="m49.02,64.25c-.37.89-1.38-7.15-16.77-5.91-1.78.19-3.99-.83-6.29.33-2.19,1.28-3.22,4.07-2.82,6.8,0,5.45.02,11.38.04,16.84.04,10.94.1,20.07.1,20.07,0,0,.09,2.84.15,8.18.03,2.67.05,5.96.05,9.83-.02,2.01.02,3.84-.06,6.41-.45,2.17-.94,4.48-1.46,6.92-1.04,4.88-2.17,9.92-3.29,14.88-.47,2.16-1.34,5.66-1.47,6.63,1.81,1.58,3.84,2.89,5.88,3.95,8.29,4.43,17.02,3.41,21.28,1.49,4.41-1.77,8.07-4.21,11.44-7.55-.33-4.5-1.8-9.74-3.12-16.14-4.12-12.71-3.16-29.4-3.49-44.92.05-15.66.02-27.33.02-27.33h.8s-.1,5.53,0,17.49c.06,7.06.14,15.97.41,24.87.14,4.76.26,9.87.36,14.95.28,4.91,1.76,9.94,2.49,14.52.89,4.6,1.69,8.82,2.36,12.3.01,1.81,1.35,3.15.18,4.78-.98.97-1.84,1.7-2.5,2.24-2.59,2.08-7.94,6.12-15.72,7.03-3.84.43-8.12-.05-12.18-1.54-2.04-.73-4.02-1.7-5.9-2.85-.94-.58-1.85-1.2-2.72-1.9l-.65-.54c-.76-1.54-.12-.88-.25-1.43l.32-1.58c1.65-8.38,4.02-18.38,5.8-27.09.24-9.13.53-17.3.7-22.06.34-9.52-.01-23.52-.31-35.93-.03-1.59-.07-3.28-.05-5.18.42-2.38,1.71-4.04,3.88-5.17,4.64-.54,8.18.24,12,.31,1.83.12,3.56.23,5.13.34,2.71.26,2.48,1.94,3.65,2.61,1.6,1.73,2.58,2.8,2.58,2.8l-.58.55Z"/><path class="cls-11" d="m42.86,60.27l4.29,20.36s1.84-7.33,3.26-9.86c1.42-2.53,1.97-3.51,1.97-3.51,0,0-1.42-3-2.69-3.32-1.26-.32-6.82-3.67-6.82-3.67Z"/><path class="cls-3" d="m43.48,62.27s-.16.83.34,3.21c.5,2.38,2.37,8.27,2.37,8.27,0,0,.87,1.77,1.5,5.07l.21,1.26.05.32v.04s0,.01,0,.01h0c-.72,0,1.6.04-1.6-.02h0s0-.02,0-.02l.03-.08.05-.16.22-.61c.3-.81.63-1.6.95-2.33.63-1.47,1.25-2.7,1.51-3.45.53-1.52,1.18-2.64,2-4.73l.63-1.66c.4.41-.46-.75-.67-1.04-.97-1.21-1.03-1.51-2.65-2.21-2.28-1.47-3.83-2.65-3.85-2.64l.4-.69s.7.64,2.41,1.7c.93.82,2.45.92,3.69,2.12.6.6,1.09,1.34,1.51,2.12.29,1.58-.64,1.73-.88,2.59-.82,1.37-1.44,2.48-1.6,3.01-.39,1.05-1.17,4.01-1.79,6.82l-.27,1.09-.16.56h0s0,.01,0,.01h0c-2.92-.05-.81-.01-1.46-.03v-.02s-.01-.04-.01-.04v-.07s-.04-.15-.04-.15l-.05-.3-.31-2.36c-.17-1.54-.26-2.92-.3-3.73-.09-1.62-1.06-3.82-1.9-5.78-.85-1.99-1.1-5.91-1.1-5.91l.78-.16Z"/><path class="cls-4" d="m38.62,58.73l-6.88-.67s-.78,17.62,3.65,21.58c4.43,3.95,13.81,1.58,13.81,1.58l-.58-17.45c-.33-2.87-3.4-4.52-4.73-5.08l-5.26.05"/><path class="cls-3" d="m52.07,67.17l-4.4,10.43-.21-1.89s3.63-8.3,4.15-8.79c.52-.49.45.24.45.24Z"/><path class="cls-3" d="m45.52,76.79s1.31.45,1.36,1.34c.05.89-.52,1.49-1.33,1.54,0,0,1.02-.65.99-1.47-.03-.81-1.02-1.41-1.02-1.41Z"/><path class="cls-12" d="m43.99,59.09s3.23,1.1,3.95,4.66c.71,3.56.84,14.23.39,17.08l-2.2.65s.58-1.23.65-5.76c.07-4.53,1.03-13-2.78-16.62Z"/><path class="cls-3" d="m32,58.33s-.44,1.3-.37,5.4c-.3,4.19,2.28,14.29,2.92,13.93-.03-.04,1.53,2.97,7.09,3.37,1.33.13,2.75.14,4.15.06l2.07-.19c-.02,1.19.09-.86.13-1.1.23-2.65.45-4.94.47-6.28.03-2.7.23-4.87-.1-8.62.06-1.91-1.18-3.5-2.91-4.55-1.67-1.37-3.62-.77-6.01-1.22-4.42-.53-7.71-.87-7.71-.87l.04-.8s1.56.27,4.94.55c2,.16,4.51.35,7.04.36,2.73.74,5.72,3.37,5.27,6.45-.05,2.65-.12,4.87-.1,5.83.02.96.06,2.73.11,4.88.02,1.07.05,2.24.07,3.44l.03,1.82v.46s0,.12,0,.12c-.25.32.55-.64-.55.74l-.06.02-.24.06-.93.2c-4.84,1.38-12.36-.83-13.09-4.07-1.18-2.43-2.28-6.3-3.01-9.81-.81-3.59-.11-10.2-.07-10.19l.8.04Z"/><path class="cls-3" d="m43.65,58.93s3.45,1.26,4.26,2.93c.8,1.67,1.08,4.68,1.08,4.68l.59,9.04.07,5.3-.52.45-1.18.18s.49-6.07.28-8.72c-.21-2.65-.28-5.62-.35-6.42-.07-.8-.52-3.63-1.29-4.75-.77-1.12-2.93-2.69-2.93-2.69Z"/><path class="cls-5" d="m46.72,78.29c0,.92-.56,1.66-1.24,1.66s-1.25-.74-1.25-1.66.56-1.66,1.25-1.66,1.24.74,1.24,1.66Z"/><path class="cls-7" d="m46.72,78.29c0,.92-.56,1.66-1.24,1.66s-1.25-.74-1.25-1.66.56-1.66,1.25-1.66,1.24.74,1.24,1.66Z"/><path class="cls-3" d="m49.39,80.45l.85,27.51s.31,13.06,1.31,17.29,4.31,27.43,4.31,27.43l-1.07,1s-3.54-21.44-4.31-25.51c-.77-4.07-1.77-47.1-1.77-47.1l.69-.62Z"/><path class="cls-11" d="m23.92,61.14l-1.32,20.07s-1.22-6.07-2.8-8.44c-1.58-2.37-3.02-4.05-3.02-4.05,0,0,1.1-3.88,2.68-4.99,1.58-1.11,4.46-2.59,4.46-2.59Z"/><path class="cls-3" d="m22.41,81.25s.19-.91-.51-3.5c-.24-2.9-4.71-8.06-4.84-7.93.09-.31-.63.37-.9-1.7.11-1.03.19-2.53,1.32-4.4,1.62-1.98,3.55-2.12,5.21-2.82,2.18-.9,3.15,1.37,3.39,1.94.67,1.69-.12,3.14.24,5.59.05,2.4.63,5.65-1.12,8.39-1.43,2.54-2.43,4.46-2.43,4.46l-.74-.32s.58-.86,1.55-2.85c.48-1.17,1.5-2.67,1.6-4.22.29-3.47.74-7.99.75-9.23.17-1.06-1.21-4.93-4.38-1.89-1.51.82-2.88,1.34-3.45,2.92-.45,1.36-1.69,3.14-.79,3.56.86,1.57,2.95,3.17,4.2,5.35,1.32,2.12,1.7,6.49,1.68,6.49l-.78.16Z"/><path class="cls-3" d="m23.17,79.1s.45-.42.67-2.07c.58-1.81-1.28-5.6-1.47-5.42-.05.05-.95-.95-2.39-2.51-.72-.84-1.49-1.53-2.39-1.51-1.21-.04-.89,1.16-.45,1.51.66.87,1.08,1.64,2.15,2.74,1.04,1.11,2.28,2.65,2.67,4.5.48,1.79.36,3.2.43,3.17l-.59.05s.03-.6-.15-1.94c-.25-.75-.45-1.76-1.03-2.6-1.07-1.86-2.52-4.23-3.04-4.81-.25-.34-.69-.74-1.31-1.59-.5-1.56,1.41-2.31,2.49-1.85,2.36.82,3.29,3.57,3.84,4.47.43.98,1.44,2.32,1.75,3.85.5,1.56-.57,4.22-.63,4.19l-.56-.19Z"/><path class="cls-13" d="m23.95,76.92l-13.98,68.02s4.84,10.04,3.54,10.23c-1.29.19-2.8-5.43-2.8-5.43,0,0,2,6.35.34,6.9-1.66.55-2.19-6.53-2.19-6.53,0,0-.64,6.31-2.3,6.31s-.11-8.26-.11-8.26c0,0-2.05,7.18-3.53,6.26-1.48-.92,1.89-6.59,1.89-6.59,0,0-5.42,3.95-6.35,2.85-.92-1.11,9.47-6.11,9.47-6.11l12.58-75.35s3.12,3.06,3.43,7.7Z"/><path class="cls-6" d="m20.37,69.03l-12.86,75.92s-9.75,4.67-8.83,5.78c.92,1.11,6.14-2.89,6.14-2.89,0,0-3.37,5.67-1.89,6.59,1.48.92,3.52-6.38,3.52-6.38,0,0-1.12,8.41.54,8.41s1.24-7.56,1.24-7.56c0,0,1.16,8.29,2.83,7.74,1.66-.55-.9-8.03-.9-8.03,0,0,1.83,6.55,3.12,6.37,1.29-.19-3.74-9.66-3.74-9.66l14.23-68.72s-.65-4.55-3.39-7.56Z"/><path class="cls-3" d="m23.86,77.57l-14.55,67.51s.02.6.16-.97c-.08.91.89-6.57,13.84-69l.55,2.46Z"/><path class="cls-2" d="m43.98,16.05s6.58-6.59,14.97,4.41c8.39,10.99-2.85,20.19-6.93,20.34-4.08.15-6.92-1.35-6.92-1.35"/><path class="cls-3" d="m43.85,15.91c.05.07.79-.66,3.47-1.46,2.96-1.6,9.65,2.46,9.36,2.76-.05.04,2.18,1.09,4.32,4.7,2.32,3.77,1.23,8.8.37,10.37-.66,1.78-1.52,3.02-3.06,5.18-1.44,1.97-4.52,4.87-8.05,3.98-3.21-.53-5.24-1.81-5.24-1.8l.38-.71s.8.71,3.05,1.28c1.28.26,3.17.68,4.7.05,3.43-1.33,6.58-5.14,7.03-6.35.63-1.1,1.77-4.6.78-7.7-.73-3.08-3.22-6.92-4.44-8.37-1.12-1.52-3.84-2.86-6.12-2.85-2.29-.41-6.12,1.32-5.98,1.51l-.56-.57Z"/><path class="cls-3" d="m43.85,15.91c.05.07.79-.66,3.47-1.46,2.96-1.6,9.65,2.46,9.36,2.76-.05.04,2.18,1.09,4.32,4.7,2.32,3.77,1.23,8.8.37,10.37-.66,1.78-1.52,3.02-3.06,5.18-1.44,1.97-4.52,4.87-8.05,3.98-3.21-.53-5.24-1.81-5.24-1.8l.38-.71s.8.71,3.05,1.28c1.28.26,3.17.68,4.7.05,3.43-1.33,6.58-5.14,7.03-6.35.63-1.1,1.77-4.6.78-7.7-.73-3.08-3.22-6.92-4.44-8.37-1.12-1.52-3.84-2.86-6.12-2.85-2.29-.41-6.12,1.32-5.98,1.51l-.56-.57Z"/><path class="cls-2" d="m16.16,20.8s-6.68-.78-10.09,4.74c-3.41,5.52-4.87,18.1,7.01,21.35,11.89,3.25,12.08-5.08,12.08-5.08"/><path class="cls-3" d="m16.14,21c.03.06-.95-.62-3.94.03-1.49.3-3.93,1.69-5.17,3.58-1.36,1.78-1.7,3.69-1.74,3.66.07.02-.58,2.28-.72,6.2-.35,3.92,1.43,8.44,3.16,9.65,1.52,1.2,2.92,2.2,5.63,2.61,2.7.3,6.1.52,8.7-.74,2.75-1.38,2.93-4.33,2.93-4.16l.8.02c-.07,0-.02,1.42-1.62,3.53-.96,1.25-2.76,2.17-4.64,2.48-4.14.79-9.13-1.37-10.3-2.16-1.28-.56-4.68-3.11-5.75-6.89-1.29-3.72.21-8.74,1.2-10.42.86-1.74,1.77-4.63,4-6.51,2.24-2.21,7.62-1.86,7.56-1.65l-.09.79Z"/><path class="cls-13" d="m29.84,5.99c7.07-.93,17.34,9.35,17.52,22.36.17,13.02-7.55,16.99-12.44,17.81-4.89.82-16.09-3.9-19.2-13.44-3.11-9.54,1.32-25.06,14.13-26.74Z"/><path class="cls-2" d="m20.11,11.43s1.55,9.22,8.78,10.82c7.23,1.6,15.7-4.42,15.7-4.42,0,0-6.33-11.23-13.42-11.07-7.08.15-11.1,4.61-11.1,4.61l.04.07Z"/><path class="cls-3" d="m22.15,9.52s-.27.56.25,2.03c.39,1.59,3.07,4.48,3.17,4.32.03-.01,1.07.6,2.63,1.66,1.45.86,4,1.59,5,1.46,1-.09,1.86-.03,3.16-.65,1.3-.63,2.84-1.42,4.5-1.62,1.66-.2,2.88-.5,2.88-.5l.29.75s-.63.05-1.88.36c-.74.18-1.66.41-2.55.79-1.9.83-4.56,1.07-5.28,1.19-.71.17-2.67.59-4.65.42-2.19-.16-4.03-2.47-4.4-3.36-.53-.87-1.72-1.83-2.73-2.9-1.05-1.1-1.23-3.77-1.18-3.79l.78-.15Z"/><path class="cls-3" d="m24.63,8.5s-.09.5.59,1.49c.64,1.05,3.1,2.9,3.1,2.87,0,0,.97.36,2.13,1.26,1.01,1.03,2.67,1.88,3.55,1.82.78-.04,1.45.11,2.46-.44,1.02-.53,2.2-1.18,3.51-1.21,1.31-.04,2.28-.19,2.28-.19l.26.76s-.51-.02-1.49.16c-.58.11-1.31.24-2,.53-1.49.63-3.58.7-4.14.77-.56.05-2.1.54-3.72.03-1.7-.43-2.77-2.32-3.14-3.01-.35-.75-1.5-1.26-2.47-1.86-1.01-.59-1.62-2.55-1.6-2.57l.68-.41Z"/><path class="cls-3" d="m28.9,7.12s-.22.36.16,1.04c.33.75,2.02,1.85,2.02,1.81,0,.01.73.1,1.39.65.59.54,1.51,1.46,2.11,1.43.5.02.93.16,1.58-.26.65-.45,1.37-.93,2.21-.83.85.11,1.48.04,1.47.04l.29.75s-.37-.05-1.01.02c-.38.04-.86.11-1.3.32-.96.49-2.33.32-2.69.4-.36.06-1.32.31-2.48.09-1.11-.3-1.81-1.64-1.92-2.17-.15-.54-.99-.78-1.73-1.15-.76-.37-.85-1.81-.83-1.82l.74-.31Z"/><path class="cls-3" d="m44.72,16.01s.29.57,1.65,1.61c1.4.96,4.98,3.56,4.92,3.67-.03,0,1.41.62,2.57,2.99,1.04,2.55.39,5.27.57,6.43.13,1.15-.03,2.03-.2,3.64-.1,1.6-.64,3.75-2.23,5.09-1.6,1.32-3.14,1.5-3.08,1.58l-.27-.76s.62-.03,1.8-.72c.67-.45,1.4-1.2,1.86-2.15.91-1.97,1.94-4.77,1.76-5.47-.04-.78-.48-2.89-1.04-4.83-.42-1.88-1.34-4.28-2.05-5.3-.54-1.04-2.11-1.87-3.49-2.47-1.36-.65-3.22-2.66-3.23-2.64l.44-.67Z"/><path class="cls-3" d="m53.4,23.42s-.23.33-.09,1c.22.64.75,2.49.7,2.53,0-.01.47.68,0,1.77-.51,1.12-1.95,1.52-2.31,1.75-.34.34-.75.39-1.12,1.04-.35.66-.97,1.43-1.97,1.39-1.07.07-1.68-.86-1.52-.91l.79-.16c.02-.15-.4,0,.11.17.27.07.72-.02,1.05-.28.7-.59,1.81-1.03,2.05-1.27.14-.31.81-.86.99-1.6.32-.59,1.1-1.43,1.38-1.9.33-.44-.17-1.18-.64-1.68-.48-.49-.16-1.6-.18-1.59l.75-.27Z"/><path class="cls-3" d="m14.54,25.68c.01.12-.17-.99-2.35-1.11-2.74-.1-4.75,5.07-4.54,4.98.03.02-.22,1.57-.53,4.15-.39,2.57-.11,5.77.86,6.85.85,1,1.49,1.97,3.21,2.74,1.72.77,3.78,1.43,5.72,2.31,1.97.86,3.61,1.05,3.6,1.09l-.04.8s-.81-.21-2.47-.63c-.99-.25-2.17-.68-3.39-1.04-2.69-.74-5.34-3.23-6.02-3.9-.71-.57-2.7-2.72-3.04-5.37-.57-2.6.75-5.91,1.49-7.01.79-1.09,1.14-3.13,2.57-4.61.67-.74,2.26-1.41,3.56-1,1.27.35,1.87,1.14,1.9,1.17l-.55.58Z"/><path class="cls-3" d="m14.96,30.71s-.21-.52-1.32-.35c-1.32.1-2.57,2.51-2.44,2.55.04.01-.16.92-.77,2.03-.78,1-1.54,2.46-1.45,3.2.03.65.01,1.31.79,1.96.75.65,1.7,1.26,2.2,2.27.51,1.02,1.02,1.7,1.02,1.7l-.53.6s-.19-.42-.72-1.12c-.31-.42-.71-.92-1.2-1.36-1.13-.9-1.76-2.73-1.88-3.25-.11-.49-.59-1.87-.29-3.28.25-1.44,1.73-2.62,2.33-2.99.56-.43.8-1.47,1.5-2.42.81-1.12,3.1-.47,3.04-.3l-.27.75Z"/><path class="cls-3" d="m17.1,36.1s-.39-.43-1.47.09c-1.41.44-1.93,3.33-1.74,3.31.04,0,.22.91.39,2.12-.02,1.11,1.1,2.64,1.88,2.88.67.25,1.27.58,2.3.29,1.15-.32,1.73-.85,2.84-1.39,1.1-.44,1.79-1.05,1.76-1.05l.67.44s-.44.35-1.23.89c-.45.36-1.07.68-1.62,1.17-1.46,1.06-3.61.4-4.08.29-.53-.09-2.1-.25-3.31-1.45-1.3-1.41-.59-3.62-.16-4.2.41-.65.2-1.84.79-2.97.53-1.36,3-1.37,2.99-1.22v.8Z"/><path class="cls-3" d="m29.8,25.83c.45,1.12.65,2.31.85,3.49.06.35.6.25.54-.1-.21-1.23-.43-2.47-.89-3.63-.13-.33-.63-.09-.5.24h0Z"/><path class="cls-3" d="m28.79,6.83s-.22.36.16,1.04c.33.75,2.02,1.85,2.02,1.81,0,.01.73.1,1.39.65.59.54,1.51,1.46,2.11,1.43.5.02.92.16,1.58-.26.65-.45,1.37-.93,2.21-.83.85.1,1.48.04,1.47.04l.29.75s-.37-.05-1.01.02c-.38.04-.85.11-1.3.32-.96.49-2.33.32-2.69.4-.36.06-1.32.31-2.48.09-1.11-.3-1.81-1.64-1.92-2.17-.15-.54-.99-.78-1.73-1.15-.76-.37-.85-1.81-.83-1.82l.74-.31Z"/><path class="cls-3" d="m44.88,18.2s3.37,6.68,3.01,12.45c-.36,5.77-2.61,11.76-8.88,14.54,0,0,6.62-4.28,7.32-12.86.7-8.58-2.22-13.8-2.22-13.8l.76-.33Z"/><path class="cls-3" d="m44.02,16.11s4.74-3.96,10.81-.59c6.07,3.36,6.36,5.66,7.34,9.68.98,4.02-.43,12-7.42,15.32l-.13-.79s8.01-5.73,6.05-14.38c-1.96-8.65-10.66-12.48-16.64-9.23Z"/><path class="cls-3" d="m29.86,6.04c-.13.28,2.54-.81,7.79,2.97,2.66,1.77,6.42,6.22,8.23,10.81,1.93,4.56,1.95,8.82,1.99,8.79-.51-.27,2.01,5.77-3.77,13.64-3.09,3.57-8.36,5.65-12.68,4.45-4.18-1.06-7.16-3.25-8.84-4.51-3.26-2.64-5.76-5.32-7.54-11.01-1.57-5.65-.85-13.92,4.04-19.47,4.92-5.7,11-5.53,10.78-5.68l.1.8c.11.21-2.64-.4-7.04,2.53-2.56,1.72-5.09,4.95-6.28,8.7-1.38,3.95-1.78,8.84-.99,12.86.8,4.03,2.93,6.88,3.93,7.93,1.69,2.01,8.83,7.99,16.13,6.63,3.55-.82,7.27-3.41,9.12-6.93,1.91-3.46,2.36-7.18,2.48-9.26.45-4.26-1.64-10.52-5.14-14.63-1.66-2.15-4.34-4.94-7.05-6.45-2.73-1.58-5.18-1.36-5.15-1.38l-.1-.79Z"/><path class="cls-3" d="m20.31,11.4c.05-.04-.3,1.22,1.15,4.44.69,1.6,2.65,4.2,5.04,5.31,2.39,1.1,4.6.84,4.58.86,0,0,2.67-.19,7.03-1.81,1.95-.59,5.02-2.33,5.95-2.39-.97-2.02-2.01-3.69-2.73-4.58-1.48-1.71-2.61-3.35-5.46-4.78-2.84-1.65-6.59-.98-10.09.05-3.51.9-5.76,3.29-5.5,2.82l-.69.41c-.01-1.46,1.04-1.45,3.64-3.13,1.52-.86,3.63-1.48,5.76-1.97,5.13-1.74,10.14,3.48,11.03,4.47.59.58,1.67,1.67,2.83,3.12.58.72,1.18,1.53,1.77,2.39l.44.66.11.17c-.34,1.84-.2.58-.31,1.02l-.33.23-1.34.88c-3.57,2.39-9.44,3.45-11.74,2.99-2.24-.15-5.81-.64-8.24-2.96-2.79-2.15-3.84-8.1-3.67-8.1l.79-.13Z"/><path class="cls-3" d="m44.37,15.68s.56.31,2.3.58c1.75.09,6.21,1.14,6.2,1.28-.04.03,1.61.11,3.56,1.98,2.09,1.93,2.13,5.2,2.28,6.25.33,1.14.18,2.09.68,3.7.38,1.61.6,3.81-.28,5.67-.81,1.85-1.66,3.05-1.67,3.05l-.69-.4s.5-.43,1.07-1.77c.32-.78.71-1.82.73-2.91.23-2.3.18-5.24.01-6.05-.3-.75-.73-3-1.88-4.57-1-1.63-2.91-3.64-3.9-4.36-.94-.76-2.76-.93-4.28-.86-1.52,0-4.17-.83-4.16-.78l.02-.8Z"/><path class="cls-3" d="m29.05,6.63s-.22.36.16,1.04c.33.75,2.02,1.85,2.02,1.81,0,.01.73.1,1.39.65.59.54,1.51,1.46,2.11,1.43.5.02.92.16,1.58-.26.65-.45,1.37-.93,2.21-.83.85.1,1.48.04,1.47.04l.29.75s-.37-.05-1.01.02c-.38.04-.85.11-1.3.32-.96.49-2.33.32-2.69.4-.36.06-1.32.31-2.48.09-1.11-.3-1.81-1.64-1.92-2.17-.15-.54-.99-.78-1.73-1.15-.76-.37-.85-1.81-.83-1.82l.74-.31Z"/><path class="cls-11" d="m37.54,15.74c3.46.3,6-.13,6-.13l2.71-7.17L25.74,1.26l-3.1,7.37s4.11,4.48,9.85,6.18c1.77.52,3.5.8,5.05.93"/><path class="cls-3" d="m37.56,15.55c0-.05,1.05.55,4.47.36.42-.03.93-.08,1.49-.18.4-.61.44-1.13.68-1.76.4-1.22.82-2.55,1.2-3.78.19-.62.37-1.2.54-1.74.07.46-.87-.12-1.14-.1-.83-.23-1.35-.37-1.35-.37,0,0-2.68-.42-7.09-2.03-4.21-1.23-9.63-4.97-10.85-4.02-.87,2.06-1.73,3.66-2.6,6.66,1.98,1.52,5.49,3.78,8.6,5.17,3.26,1.49,6.07,1.75,6.04,1.8l-.07.8c.01-.07-1.33-.2-4.07-1-1.64-.39-3.58-1.28-5.48-2.21-2.04-1.22-4.12-2.16-5.65-4.75.88-2.02,1.63-3.7,1.91-4.44.14-.37.34-.9.58-1.55l.39-1.05.11-.29c1.35-.53.55-.1.93-.19l.62.19c1.7.52,3.69,1.14,5.62,1.75,3.86,1.22,8.82,3.54,10.85,4.51.51.24,1.09.46,1.73.67.59.11,1.66.37,1.08,1.26-.38,1.42-.72,2.96-1.04,4.4-.54.92.4,1.15-1.6,2.88-.97.14-1.95.16-2.84.14-1.78-.05-3.15-.34-3.15-.33l.07-.79Z"/><path class="cls-3" d="m36.99,15.6s4.86,1,7.03.51l1.99-7.49-.13-.24-.94-.19s-.2,1.79-.98,4.14c-.78,2.34-.69,2.94-.69,2.94,0,0-.64.34-6.71.1"/><path class="cls-10" d="m37.68,7.77s3.61,1.19,5.44,1.3c0,0-.19,6.05-3.95,5.21-3.76-.85-1.5-6.51-1.5-6.51Z"/><path class="cls-3" d="m21.66,25.79c1.15-.57,2.58-.74,3.76-.18.16.07.25-.18.09-.25-1.24-.6-2.75-.41-3.97.19-.15.08-.04.32.11.24h0Z"/><path class="cls-3" d="m39.54,21.58c-1.36.03-2.81.56-3.64,1.67-.1.14.12.29.22.15.76-1.03,2.13-1.53,3.4-1.56.17,0,.2-.27.02-.27h0Z"/><path class="cls-3" d="m36.31,33.51c-1.31,2.94-5.1,2.53-7.54,1.59-.33-.13-.53.39-.19.52,2.76,1.07,6.81,1.32,8.25-1.92.15-.33-.38-.52-.52-.19h0Z"/><path class="cls-3" d="m38.91,27.01c-3.07.21-2-4.33.99-2.91,1.6.77.8,2.93-1.05,2.93"/><path class="cls-3" d="m23.63,29.99c-3.07.21-1.99-4.33.99-2.91,1.6.77.8,2.93-1.05,2.93"/><path class="cls-1" d="m39.95,24.93c.06.36-.18.69-.53.75-.35.06-.69-.18-.75-.53-.06-.36.18-.69.53-.75.35-.06.69.18.75.53Z"/><path class="cls-1" d="m24.51,27.83c.06.36-.17.69-.53.75-.35.06-.69-.17-.75-.53-.06-.36.18-.69.53-.75.36-.06.69.17.75.53Z"/></g></svg>