<?xml version="1.0" encoding="utf-8"?>
<!-- Generator: Adobe Illustrator 27.6.1, SVG Export Plug-In . SVG Version: 6.00 Build 0)  -->
<svg version="1.1" id="レイヤー_1" xmlns="http://www.w3.org/2000/svg" xmlns:xlink="http://www.w3.org/1999/xlink" x="0px"
	 y="0px" width="207.3px" height="218.8px" viewBox="0 0 207.3 218.8" style="enable-background:new 0 0 207.3 218.8;"
	 xml:space="preserve">
<style type="text/css">
	.st0{fill:#58CDE0;}
	.st1{fill:#FFFFFF;}
	.st2{fill:none;stroke:#CCCCCC;stroke-width:1.5;stroke-linecap:round;stroke-miterlimit:10;}
	.st3{fill:#FFE2CC;}
	.st4{fill:#35318F;}
	.st5{fill:#3A3A3A;}
	.st6{fill:#999999;}
	.st7{fill:#F2A638;}
	.st8{fill:none;stroke:#8FC31F;stroke-width:3;stroke-miterlimit:10;}
	.st9{enable-background:new    ;}
	.st10{fill:#8FC31F;}
</style>
<path class="st0" d="M182.4,173.7h-27.3c-5.2,0-9.4,4.2-9.4,9.4v35.5h47l-0.8-35.5C191.8,177.9,187.6,173.7,182.4,173.7z"/>
<path class="st0" d="M128.3,203.8l15.9-24.1c2.7-4.1,8.2-5.2,12.3-2.5l0,0c4.1,2.7,5.2,8.2,2.5,12.3l-15.9,24.1
	c-2.7,4.1-8.2,5.2-12.3,2.5v0C126.7,213.4,125.6,207.9,128.3,203.8z"/>
<path class="st1" d="M145.2,184.9H170c1.4,0,2.6,1.2,2.6,2.6v13.4c0,1.4-1.2,2.6-2.6,2.6h-24.7c-1.4,0-2.6-1.2-2.6-2.6v-13.4
	C142.7,186.1,143.8,184.9,145.2,184.9z"/>
<line class="st2" x1="147.4" y1="189.8" x2="168.1" y2="189.8"/>
<path class="st3" d="M145.6,198.5c0.6-1.3,1-2.8,1.1-4.2c0.3-1.8,0.4-4-1-5.1c-0.5-0.4-1.2-0.7-1.9-0.8c-3-0.3-5.9,1.2-7.4,3.9
	c-1.4,2.6-1.9,5.7-1.4,8.6c0.2,1.2,0.6,2.9,1.9,3.3c1.1,0.4,2.2-0.4,3.2-1C142.3,202.1,144.4,200.8,145.6,198.5z"/>
<path class="st0" d="M143.4,203.3l-4.1,8.8c-1.4,2.9-4.8,4.1-7.7,2.8l-2-1c-2.9-1.4-4.1-4.8-2.8-7.7l4.1-8.8l0,0L143.4,203.3
	C143.4,203.3,143.4,203.3,143.4,203.3z"/>
<path class="st0" d="M187,211.3l-9-28.7c-1-3.1,0.7-6.3,3.8-7.3l2.1-0.7c3.1-1,6.3,0.7,7.3,3.8l9,28.7c1,3.1-0.7,6.3-3.8,7.3
	l-2.1,0.7C191.2,216.1,187.9,214.4,187,211.3z"/>
<rect x="160.4" y="192.8" class="st0" width="8" height="8"/>
<path class="st3" d="M172.2,200.5c-1.2-0.8-2.3-1.8-3.2-3c-1.2-1.4-2.5-3.1-1.9-4.9c0.2-0.7,0.7-1.2,1.2-1.6
	c2.4-1.8,5.7-2.1,8.4-0.7c2.6,1.5,4.6,3.8,5.7,6.6c0.5,1.1,1,2.8,0.2,3.8c-0.7,0.9-2.1,0.8-3.2,0.9
	C177,201.8,174.4,201.8,172.2,200.5z"/>
<path class="st0" d="M182.4,192.6l14,9c2.7,1.7,3.5,5.3,1.7,8l-1.2,1.9c-1.7,2.7-5.3,3.5-8,1.7l-14-9l0,0L182.4,192.6L182.4,192.6z"
	/>
<path class="st4" d="M202.6,135.1c0-8.4-2.4-16.5-9.9-21.2c0.2,0,0.3,0,0.5,0c4.1,0.3,6.4,0.3,6.4,0.3c-0.2-2.7-2.6-4.6-5.3-4.4
	c-0.1,0-0.2,0-0.3,0c-1.8,0.1-3.5,0.6-5,1.5c-7.8-7.8-16.7-7.7-21.6-7.7c-6.9,0.1-13.7,2.3-19.2,6.4c-6.9,2.6-15.2,2.6-14.7,4.3
	c0.2,0.8,3.1,2.6,6.5,3.9c-3.2,4.4-5.2,9.5-6,14.8c-0.5,1.9-2.5,8.7-5.3,10.2c0.1,0.8,0.6,1.4,1.3,1.8c1,0.5,2.4,1,4.4-0.8
	c2.4,10.8,12.9,20.8,17.4,23.7s15.6-0.2,15.6-0.2s12.2,0.7,17.4-0.7s14.9-11,16.9-22.5l0,0c1.9,1.6,3.2,1.1,4.2,0.6
	c0.7-0.3,1.2-1,1.4-1.8C205.2,142,203.5,137.9,202.6,135.1z"/>
<ellipse class="st3" cx="164.7" cy="141.4" rx="30.1" ry="34.8"/>
<circle class="st3" cx="194.3" cy="149.7" r="7.6"/>
<circle class="st5" cx="150.4" cy="147.1" r="3"/>
<circle class="st5" cx="168.7" cy="147.1" r="3"/>
<path class="st5" d="M159.6,161.6c1.6,0,3.2-0.7,4.4-1.8c0.4-0.4,0.4-1.1,0-1.6c-0.4-0.4-1.1-0.4-1.6,0l0,0c-1.6,1.5-4.1,1.5-5.6,0
	c-0.4-0.4-1.1-0.4-1.6,0c-0.4,0.4-0.4,1.1,0,1.6l0,0C156.4,161,158,161.6,159.6,161.6z"/>
<path class="st4" d="M138.2,147.4c0,0-2.5-14.8,18.2-26.2c0,0-4.9,10.6-3.5,11.7c0,0,8.5,0.3,15.6-10.7c0,0-3.6,8.4-2.5,10.4
	c5.3-1.5,9.6-5.4,11.5-10.6c0,0,4.8,12,12.2,17.8c0,0,1.8,4.5,0.3,7.5c0,0,5.1-4.2,5.1-9s-0.6-16.9-7.2-22.6s-18.7-14.5-30.1-10.6
	s-22.6,12.1-25,25S138.2,147.4,138.2,147.4z"/>
<path class="st4" d="M22.4,142.4c1.1,11.3,6.9,21.7,15.9,28.6c4.5,3.3,18.3-1.2,18.3-1.2s13.1,4.2,16.4-0.5
	c6.1,0.3,14.4-14.1,15.1-26c1.3-26-7-40.5-29.1-43c-6.7-0.3-19,0.7-23.8,10.7C21.7,114.7,21.2,130.8,22.4,142.4z"/>
<path class="st6" d="M41.3,173.7h30.9c4.8,0,8.8,3.9,8.8,8.7c0,0,0,0,0,0.1v36.2l0,0H32.6l0,0v-36.2
	C32.6,177.6,36.5,173.7,41.3,173.7z"/>
<polygon class="st1" points="58.5,202.8 68,173.3 49.1,173.3 "/>
<path class="st6" d="M55.3,180.1L55.3,180.1C55.3,180,55.2,180.1,55.3,180.1z"/>
<path class="st6" d="M61.3,180L61.3,180C61.4,180.1,61.4,180.1,61.3,180z"/>
<path class="st6" d="M60.9,184l1.3-4.7c-1-0.5-2-1-3-1.6c-1,0.6-2,1.1-3.1,1.6l1.2,4.7l-3.5,19.9h10.7L60.9,184z"/>
<ellipse class="st3" cx="58.8" cy="141.4" rx="30.1" ry="34.8"/>
<circle class="st3" cx="29.1" cy="149.7" r="7.6"/>
<circle class="st5" cx="56.5" cy="147.1" r="3"/>
<circle class="st5" cx="74.7" cy="147.1" r="3"/>
<path class="st5" d="M65.2,160.4c1.8,0,4.8-2.3,4.8-5.1c-3.1,1.5-6.6,1.5-9.7,0C60.4,158.3,63.5,160.4,65.2,160.4z"/>
<path class="st6" d="M17.5,198l16-21.2c2.3-3,6.6-3.6,9.6-1.3l0.1,0c3,2.3,3.6,6.6,1.3,9.6l-16,21.2c-2.3,3-6.6,3.6-9.6,1.3l-0.1,0
	C15.8,205.3,15.2,201,17.5,198z"/>
<path class="st6" d="M83.2,208.3L70,185.3c-1.9-3.3-0.8-7.5,2.5-9.5h0c3.3-1.9,7.5-0.8,9.4,2.5l13.2,22.9c1.9,3.3,0.8,7.5-2.5,9.5h0
	C89.4,212.7,85.1,211.6,83.2,208.3z"/>
<rect x="30.2" y="186.8" transform="matrix(0.3595 -0.9331 0.9331 0.3595 -156.5718 170.7053)" class="st7" width="31.8" height="25.2"/>
<path class="st3" d="M35.4,202.1c3,0.3,5.9,0.9,8.8,1.8c2.9,1,5.3,3,6.8,5.6c0.6,1.1,0.9,2.4,0.7,3.6c-0.6,3.5-6.6,3.4-9,1.8
	c-0.8-0.6-1.5-1.3-2.1-2.1c-1.2-1.4-2.5-2.6-3.9-3.7c-1.3-1-3-1.6-3.8-2.9C31.5,203.7,32.5,201.7,35.4,202.1z"/>
<path class="st6" d="M43.4,202.2l-5.2,13.5c-0.1,0.2-0.3,0.3-0.4,0.2l-16.7-6.4c-3.5-1.3-5.2-5.2-3.9-8.7l0.6-1.6
	c1.3-3.5,5.2-5.2,8.7-3.9l16.7,6.5C43.4,201.8,43.5,202,43.4,202.2z"/>
<path class="st3" d="M113.8,183.6c2.3,0.2,4.5,0.8,6.7,1.6c0.5,0.9-0.5,1.9-1.4,2.5l-6,3.8c-1.7,1.2-3.5,2.2-5.5,3
	c-3.9,1.5-8.5-3.4-6.8-7.1c1.3-2.9,2.2-3.1,5.2-3.2C108.6,184.1,111.2,183.5,113.8,183.6z"/>
<path class="st3" d="M101.3,187.8c0-1.6,1.2-2.9,2.1-4.2c1.4-2.1,2.4-3.6,3-3.6c1.6,0,0.7,2.4,0.7,3.4c-0.2,1.1-0.6,2.1-1.2,2.9
	c-0.5,1-0.2,0.5-1.2,0.8c-1.1,0.2-2.2,0.2-3.3,0.1"/>
<path class="st6" d="M96.3,187.2l10.1,8.4l0,0l-11.8,14.2c-2.3,2.8-6.5,3.2-9.3,0.9h0l0,0c-2.8-2.3-3.2-6.5-0.9-9.3l0,0L96.3,187.2
	L96.3,187.2z"/>
<path class="st4" d="M77.3,121.2c0.7,8.3-1.8,12-5.4,15c-3.2,2.6-7,2.5-11.1,2.9c1-1.4,1.6-3.3,1.4-7.1c-3.4,6.1-9.5,7.1-16.4,7.9
	c1.4-2.9,1.6-4.5,2-7.8c-4.8,7.3-12.6,12.3-21,9.9c2.5-10.1,2.3-22,10.7-29.5c4-3.5,9.3-4.9,14.5-5.8c9-1.6,18.6-2,26.7,2.2
	c11.2,5.9,13.7,21.3,10.2,32.7c-0.5-4.3-1.9-8.4-3.9-12.2c-2.2-4-4.7-7.2-7.8-8.3L77.3,121.2z"/>
<path class="st1" d="M111.1,41.3c0-22-24.5-39.8-54.8-39.8S1.5,19.3,1.5,41.3c0,20.7,21.8,37.8,49.6,39.7l5.2,9.1l5.2-9.1
	C89.4,79.1,111.1,62.1,111.1,41.3z"/>
<path class="st8" d="M111.1,41.3c0-22-24.5-39.8-54.8-39.8S1.5,19.3,1.5,41.3c0,20.7,21.8,37.8,49.6,39.7l5.2,9.1l5.2-9.1
	C89.4,79.1,111.1,62.1,111.1,41.3z"/>
<g class="st9">
	<path class="st10" d="M20.7,33.9c-0.8,0.6-1.2,1.2-1.2,1.7c0,0.7,0.9,1.1,2.9,1.1c1.6,0,3.3-0.2,4.2-0.6l0.1,2.1
		c-0.3,0-0.3,0-1.2,0.1c-1.1,0.2-2,0.2-2.9,0.2c-1.5,0-2.6-0.1-3.4-0.4c-1.2-0.4-1.7-1.2-1.7-2.2c0-1,0.5-1.9,1.7-2.9L20.7,33.9z
		 M18.5,28.3c0.8,0.2,2.3,0.3,4.1,0.3c1.5,0,2.7-0.1,3.4-0.2l0.1,1.7c-0.8,0.3-2.3,1.3-3.5,2.2l-1.3-1c0.4-0.3,1.3-0.8,1.7-1
		c-0.6,0.1-0.9,0.1-1.5,0.1c-0.9,0-1.9-0.1-2.6-0.2c-0.3,0-0.3,0-0.4,0L18.5,28.3z M25.1,31.2c0.5,0.5,0.8,0.9,1.1,1.6l-1,0.6
		c-0.3-0.7-0.7-1.1-1.1-1.6L25.1,31.2z M26.6,30.4c0.5,0.5,0.8,1,1.1,1.5l-1,0.6C26.4,32,26,31.5,25.6,31L26.6,30.4z"/>
</g>
<g class="st9">
	<path class="st10" d="M37.2,31c0.6,1.1,1.2,1.9,2,2.7c0.9,0.9,1.6,1.4,2.6,1.9c-0.5,0.6-0.6,0.9-1,1.7c-0.8-0.5-1.3-0.9-2.1-1.7
		v1.3c-0.4,0-0.8-0.1-1.3-0.1h-1v0.8c0,0.6,0,1.2,0.1,1.6h-1.9c0.1-0.5,0.1-1,0.1-1.6v-0.8h-0.9c-0.5,0-0.9,0-1.3,0.1v-1.3
		c-0.7,0.7-1.2,1.2-2,1.7c-0.3-0.8-0.5-1-0.9-1.6c1-0.6,1.8-1.3,2.6-2.1c0.7-0.8,1.3-1.7,1.8-2.5h-2.4c-0.6,0-1,0-1.6,0.1v-1.8
		c0.5,0.1,1,0.1,1.6,0.1h3.2v-0.8c0-0.5,0-0.8-0.1-1.2h1.9c-0.1,0.3-0.1,0.7-0.1,1.2v0.8h3.3c0.7,0,1.1,0,1.6-0.1v1.8
		c-0.5-0.1-1-0.1-1.6-0.1H37.2z M34.7,33.7c0-0.4,0-0.8,0.1-1.3c-0.5,1.1-1.1,1.9-2,2.9c0.2,0,0.4,0,0.9,0h1V33.7z M37.6,35.3
		c0.4,0,0.6,0,0.8,0c-0.9-0.9-1.4-1.7-2.1-2.9c0.1,0.7,0.1,1,0.1,1.3v1.6H37.6z"/>
	<path class="st10" d="M49.6,27.5c-0.1,0.2-0.1,0.7-0.1,1.1c0,2.3,0.4,3.9,1.4,5.5c0.6,0.9,1.1,1.5,2.1,2.3c0.7,0.6,1,0.8,1.7,1.1
		c-0.5,0.6-0.8,0.9-1.1,1.7c-1.5-1-2.4-1.8-3.2-2.8c-0.8-1-1.3-2-1.7-3.3c-0.4,1.7-0.9,2.6-2,3.8c-0.9,1-1.7,1.6-2.9,2.4
		c-0.3-0.7-0.6-1.1-1.1-1.6c1-0.5,1.6-1,2.4-1.8c1.1-1,1.8-2.3,2.2-3.7c0.2-1,0.4-2.3,0.4-3.6c0-0.5,0-0.7-0.1-1.1H49.6z"/>
	<path class="st10" d="M63.7,29.8c-0.3,0.7-0.4,1-0.8,1.7h1c0.2-0.4,0.4-0.8,0.5-1.3l1.5,0.3c-0.2,0.4-0.3,0.7-0.5,1h0.8
		c0.5,0,0.7,0,1-0.1v1.4c-0.3,0-0.6-0.1-1-0.1h-1.1v0.7h0.8c0.6,0,0.7,0,1-0.1v1.3c-0.3,0-0.6-0.1-1-0.1h-0.8v0.7h0.8
		c0.5,0,0.7,0,1-0.1v1.3c-0.3,0-0.5-0.1-1-0.1h-0.8v0.7h1.1c0.6,0,0.9,0,1.2-0.1v1.5c-0.4-0.1-0.8-0.1-1.2-0.1h-3.9v0.5h-1.6
		c0.1-0.4,0.1-0.8,0.1-1.5v-3.1c0-0.4,0-0.7,0-0.7c-0.2,0.2-0.3,0.4-0.4,0.5c-0.1-0.4-0.2-0.6-0.4-0.9v3.8c0,0.5,0,0.7,0,1h-1.4
		v-0.5H58V39h-1.5c0-0.4,0.1-0.8,0.1-1.4v-2.5c0-0.2,0-0.5,0-0.8c-0.3,0.5-0.3,0.5-0.6,0.9c-0.1-0.9-0.2-1.4-0.5-2
		c0.9-1,1.5-2.5,1.7-4.1H57c-0.5,0-0.7,0-1.1,0.1v-1.6c0.4,0,0.8,0.1,1.3,0.1h1.5c0.5,0,0.9,0,1.3-0.1v0.7c0.2,0,0.3,0,0.7,0h1.8
		c0.1-0.5,0.2-0.7,0.2-1.2l1.7,0.2c-0.1,0.3-0.1,0.5-0.3,1h2.2c0.4,0,0.8,0,1.1-0.1c0,0.2,0,0.5,0,1v0.8c0,0.4,0,0.6,0.1,0.9H66
		v-1.2H63.7z M58,36.4h0.7v-3.1H58V36.4z M61.4,29.8v1.3h-1.5c0-0.3,0.1-0.6,0.1-0.9v-0.9c-0.2,0-0.3,0-0.6,0h-0.6
		c-0.2,1.1-0.3,1.6-0.7,2.6h1.2c0.3,0,0.5,0,0.8,0c0,0.3,0,0.5,0,0.9v0.2c0.5-0.5,1.1-1.1,1.5-1.9c0.2-0.4,0.3-0.6,0.6-1.2H61.4z
		 M63.7,33.5v-0.7h-1.3v0.7H63.7z M62.4,35.5h1.3v-0.7h-1.3V35.5z M62.4,37.4h1.3v-0.7h-1.3V37.4z"/>
</g>
<g class="st9">
	<path class="st10" d="M69,29.5c0.3,0.1,0.5,0.1,1,0.1h2.5c0.5,0,0.8,0,1-0.1V31c-0.3,0-0.4,0-1,0h-2.6c-0.4,0-0.7,0-1,0.1V29.5z
		 M73.3,38.1c0,0.5,0,0.8,0,1h-1.4v-0.4h-1v0.6h-1.5c0.1-0.5,0.1-0.8,0.1-1.2v-2c0-0.4,0-0.6-0.1-1c0.3,0,0.5,0,1,0h2.1
		c0.5,0,0.6,0,0.8,0c0,0.2,0,0.4,0,0.9v1.3c0.4-0.8,0.5-1.4,0.7-2.7l1.2,0.4c-0.2,1.6-0.4,2.3-0.9,3.6l-1-0.7V38.1z M69.5,27.7
		c0.3,0,0.5,0.1,1.1,0.1h1.7c0.5,0,0.7,0,1.1-0.1v1.4c-0.4,0-0.6,0-1.1,0h-1.7c-0.5,0-0.7,0-1.1,0V27.7z M77.3,32.5
		c-0.4-0.3-0.5-0.3-0.8-0.5c-0.6,0.9-1.3,1.4-2.4,2.1c-0.2-0.6-0.4-0.8-0.8-1.3v0.1c-0.3,0-0.4,0-0.8,0h-2.3c-0.4,0-0.6,0-0.8,0
		v-1.3c0.2,0,0.4,0,0.8,0h2.3c0.4,0,0.6,0,0.8,0v1.3c0.9-0.4,1.4-0.8,1.9-1.4c-0.5-0.2-0.7-0.3-1.4-0.5l0.7-1.1
		c0.6,0.2,0.8,0.3,1.3,0.5c0.1-0.3,0.1-0.5,0.2-0.9h-0.8c-0.7,0-1,0-1.4,0.1v-1.6c0.4,0.1,0.9,0.1,1.4,0.1h4.1c0.5,0,0.9,0,1.2-0.1
		c0,0.2,0,0.2-0.1,1c-0.1,2.5-0.3,3.7-0.7,4.2c-0.2,0.3-0.7,0.5-1.4,0.5c-0.1,0-0.1,0-0.3,0c-0.2,0-0.2,0-0.4,0
		c-0.1-0.5-0.1-0.7-0.3-1.1L77.3,32.5z M69.5,33.3c0.2,0,0.4,0,0.8,0h2.3c0.4,0,0.6,0,0.8,0v1.3c-0.2,0-0.4,0-0.8,0h-2.3
		c-0.4,0-0.5,0-0.8,0V33.3z M70.9,37.4h1v-1.1h-1V37.4z M77.7,35.6c-0.3-0.4-0.4-0.6-0.9-1c0,0.2,0,0.3,0,0.5v2.2
		c0,0.3,0.1,0.3,0.4,0.3c0.6,0,0.7,0,0.8-0.2c0.1-0.1,0.1-0.7,0.1-1.3c0.5,0.2,0.8,0.3,1.3,0.4c-0.2-0.6-0.4-0.9-0.7-1.5l1.2-0.7
		c0.5,1,1,1.9,1.3,3.1l-1.3,0.8c-0.2-0.7-0.3-1-0.5-1.6c-0.1,2.1-0.4,2.4-2.2,2.4c-0.8,0-1.2-0.1-1.5-0.2c-0.3-0.1-0.4-0.3-0.4-0.8
		v-2.8c0-0.3,0-0.5-0.1-0.9h1.3c-0.2-0.2-0.4-0.3-0.8-0.6l1.1-0.8c1.1,0.8,1.3,1,2,1.7L77.7,35.6z M77.5,29.3
		c-0.1,0.8-0.2,1-0.4,1.5c0.3,0.2,0.5,0.3,0.9,0.5L77.6,32c0.3,0,0.4,0,0.5,0c0.3,0,0.4-0.1,0.5-0.5c0.1-0.4,0.2-1.1,0.2-2.3H77.5z"
		/>
</g>
<g class="st9">
	<path class="st10" d="M82.3,28.8c0.5,0.1,1.3,0.2,2.3,0.2h0.3h0.3h0.1c0.3-0.8,0.4-1.1,0.5-1.5l2,0.2c-0.1,0.1-0.1,0.1-0.5,1.1
		c-0.1,0.1-0.1,0.1-0.1,0.2c0.2,0,0.2,0,0.8-0.1c1.5-0.1,2.6-0.2,3.3-0.4l0.1,1.7c-0.4,0-0.4,0-1,0.1c-0.9,0.1-2.6,0.2-3.9,0.3
		c-0.2,0.4-0.4,0.7-0.8,1.3c0.7-0.4,1.1-0.5,1.8-0.5c1,0,1.7,0.4,1.9,1.3c0.1,0,0.3-0.1,0.7-0.2c0.5-0.2,0.6-0.2,1.1-0.4
		c0.7-0.2,0.8-0.3,1-0.4l0.7,1.7c-0.4,0.1-0.8,0.1-1.4,0.3c-0.3,0.1-0.3,0.1-1.9,0.6l0,0.4V35v0.4v0.3c0,0.4,0,0.6,0,0.9l-1.8,0.1
		c0.1-0.2,0.1-0.8,0.1-1.5c0,0,0-0.1,0-0.1c-0.5,0.2-0.8,0.4-1,0.5c-0.4,0.3-0.6,0.6-0.6,0.9c0,0.6,0.5,0.8,1.9,0.8
		c1.5,0,2.9-0.2,3.9-0.6l0.1,2c-0.2,0-0.3,0-0.6,0.1c-1.1,0.2-2.2,0.2-3.3,0.2c-1.9,0-2.9-0.3-3.5-0.9c-0.3-0.4-0.5-0.9-0.5-1.4
		c0-0.8,0.5-1.6,1.5-2.3c0.4-0.3,1-0.6,1.9-1c-0.1-0.3-0.3-0.5-0.7-0.5c-0.7,0-1.6,0.4-2.5,1.3c-0.5,0.5-0.8,0.8-1.2,1.2l-1.4-1.4
		c0.7-0.5,1.8-1.9,2.5-3c0.1-0.2,0.1-0.2,0.2-0.3c-0.7,0-0.8,0-1.2,0c-0.2,0-0.4,0-0.5,0c-0.1,0-0.2,0-0.2,0h-0.2
		c-0.1,0-0.1,0-0.2,0L82.3,28.8z"/>
</g>
<g class="st9">
	<path class="st10" d="M14,47.9c0.4,0,0.9,0.1,1.4,0.1c0.9,0,2.3-0.1,3.3-0.2c-0.2-0.6-0.7-1.7-0.8-1.9l2-0.2c0.1,0.5,0.2,1,0.6,1.9
		c1.4-0.2,2.4-0.5,3.1-0.7l0.2,1.8c-0.3,0-0.3,0-1,0.2c-0.8,0.2-0.8,0.2-1.7,0.3c0.4,0.8,0.7,1.4,0.9,1.6c0.4,0.6,0.9,1.4,1.3,2
		l-1.8,0.8c-0.3-0.3-0.5-0.4-0.9-0.6c-0.5-0.2-1.2-0.3-1.9-0.3c-1.6,0-2.6,0.5-2.6,1.3c0,0.3,0.1,0.5,0.3,0.7
		c0.4,0.3,1.2,0.5,2.2,0.5c1.4,0,2.9-0.3,3.9-0.9l0.2,1.9l-1.1,0.3c-1,0.3-2,0.4-3.1,0.4c-1.7,0-3-0.3-3.7-0.9
		c-0.5-0.5-0.8-1.2-0.8-1.9c0-0.7,0.3-1.4,0.8-1.9c0.7-0.7,1.9-1,3.4-1c0.8,0,1.5,0.1,2.1,0.3c-0.3-0.4-0.3-0.4-0.6-0.9
		c-0.2-0.3-0.3-0.5-0.4-0.8c-0.1-0.2-0.1-0.2-0.2-0.3c-1.4,0.2-2.3,0.2-4.5,0.3c-0.3,0-0.4,0-0.6,0L14,47.9z"/>
</g>
<g class="st9">
	<path class="st10" d="M29.9,46c-0.1,0.5-0.1,0.6-0.1,2.4c1.6-0.1,1.6-0.1,3.5-0.2c0-0.2,0-0.4,0-0.5c0-1.4,0-1.4-0.1-2H35
		c0,0.3-0.1,0.7-0.1,1v1.1v0.3c2-0.1,2-0.1,2.4-0.1l0,1.8c-0.4,0-0.6-0.1-1-0.1c-0.2,0-0.3,0-1.4,0c0,1.4-0.1,2.3-0.4,2.8
		c-0.3,0.6-0.9,0.9-1.7,0.9c-0.6,0-1.1-0.1-1.8-0.4v-0.6c0-0.4,0-0.7-0.1-1.2c0.7,0.4,1.3,0.5,1.7,0.5c0.5,0,0.6-0.4,0.6-2
		c-1.2,0-2.4,0.1-3.5,0.2v0.3v0.3v0.9c0,0.7,0,1.9,0.1,2.1c0.1,0.9,0.7,1.1,2.6,1.1c1.5,0,2.9-0.2,3.8-0.5l0.1,2
		c-0.5,0-0.5,0-1.2,0.1c-1.1,0.1-2.1,0.2-3,0.2c-2.4,0-3.5-0.5-3.9-1.7C28,54.4,28,53.6,28,51.2v-1.1c-1.1,0.1-1.7,0.1-2.3,0.2
		l-0.1-1.8c0.2,0,0.3,0,0.4,0c0.2,0,0.8,0,2-0.1V48c0-1,0-1.5-0.1-2H29.9z"/>
</g>
<g class="st9">
	<path class="st10" d="M38.3,47.1c0.3,0,0.4,0,0.5,0c0.2,0,0.3,0,2.1-0.1c0.9-0.1,3.1-0.2,6.6-0.3c1.1-0.1,1.2-0.1,1.4-0.1l0.1,2
		c-0.2,0-0.2,0-0.3,0c-0.8,0-1.9,0.3-2.7,0.8c-1.4,0.8-2.3,2-2.3,3.2c0,0.9,0.6,1.6,1.7,1.9c0.6,0.2,1.4,0.3,1.9,0.3
		c0.1,0,0.2,0,0.3,0l-0.3,2.1c-0.2,0-0.2-0.1-0.4-0.1c-1.4-0.2-2.3-0.4-3.1-0.8c-1.3-0.7-2-1.8-2-3.3c0-1.7,0.9-3.1,2.7-4.1
		c-1.3,0.1-1.3,0.1-4.2,0.4c-0.7,0.1-1.4,0.2-1.9,0.2L38.3,47.1z"/>
</g>
<g class="st9">
	<path class="st10" d="M57.5,46.7c-0.3,0.2-0.3,0.2-1.6,1.4c-0.7,0.6-1.6,1.4-3.1,2.5c-0.4,0.3-0.5,0.4-0.5,0.5c0,0.2,0,0.2,1.2,1.1
		c1.2,0.9,2,1.5,3.9,3.2c0.1,0.1,0.2,0.2,0.4,0.3l-1.6,1.6c-0.3-0.5-0.8-0.9-1.7-1.8c-0.9-0.9-1.3-1.2-3.3-2.7c-0.6-0.5-0.8-0.7-1-1
		c-0.1-0.2-0.2-0.5-0.2-0.8c0-0.4,0.2-0.8,0.4-1.1c0.2-0.2,0.4-0.3,1.1-0.9c1.4-1.1,2.1-1.7,3-2.5c0.6-0.6,0.8-0.7,1-1.1L57.5,46.7z
		"/>
</g>
<g class="st9">
	<path class="st10" d="M61.1,47.7c0.5,0.1,1.1,0.1,1.8,0.1h0.4c0.1-0.6,0.2-1.5,0.2-1.9v-0.2l2,0.2c-0.1,0.3-0.1,0.3-0.3,1.2
		c-0.1,0.3-0.1,0.4-0.1,0.6c0.9-0.1,1.5-0.2,2.1-0.4l0.1,1.8c-0.2,0-0.2,0-0.7,0.1c-0.6,0.1-1.1,0.2-1.8,0.2
		c-0.2,1.1-0.4,1.9-0.7,3.2c-0.4,1.4-0.5,1.8-1.1,3.5c-0.1,0.4-0.2,0.7-0.3,0.9l-2-0.7c0.9-1.6,1.8-4.4,2.2-6.8h-0.4l-1.4,0h-0.2
		L61.1,47.7z M67.8,52.8c-0.5,0.7-0.7,1-0.7,1.4c0,0.6,0.6,0.9,1.8,0.9c0.9,0,2.1-0.2,2.9-0.5l0.1,1.9c-0.2,0-0.3,0-0.7,0.1
		c-1.1,0.2-1.7,0.2-2.4,0.2c-1.2,0-2-0.2-2.6-0.5c-0.6-0.3-0.9-1-0.9-1.7s0.3-1.3,1-2.3L67.8,52.8z M71.5,51.3
		c-0.6-0.1-1-0.1-1.6-0.1c-1.3,0-2.2,0.1-3.5,0.4l-0.1-1.7c1.9-0.3,2.5-0.4,4-0.4c0.3,0,0.4,0,1.2,0L71.5,51.3z M69.3,46
		c0.4,0.6,0.7,1,1,1.8l-1.2,0.5c-0.3-0.8-0.6-1.3-1-1.8L69.3,46z M70.9,45.5c0.4,0.5,0.7,1,1,1.7l-1.1,0.5c-0.3-0.7-0.6-1.2-1-1.8
		L70.9,45.5z"/>
</g>
<g class="st9">
	<path class="st10" d="M73.8,47.9c0.4,0,0.9,0.1,1.4,0.1c0.9,0,2.3-0.1,3.3-0.2c-0.2-0.6-0.7-1.7-0.8-1.9l2-0.2
		c0.1,0.5,0.2,1,0.6,1.9c1.4-0.2,2.4-0.5,3.1-0.7l0.2,1.8c-0.3,0-0.3,0-1,0.2c-0.8,0.2-0.8,0.2-1.7,0.3c0.4,0.8,0.7,1.4,0.9,1.6
		c0.4,0.6,0.9,1.4,1.3,2l-1.8,0.8c-0.3-0.3-0.5-0.4-0.9-0.6c-0.5-0.2-1.2-0.3-1.9-0.3c-1.6,0-2.6,0.5-2.6,1.3c0,0.3,0.1,0.5,0.3,0.7
		c0.4,0.3,1.2,0.5,2.2,0.5c1.4,0,2.9-0.3,3.9-0.9l0.2,1.9l-1.1,0.3c-1,0.3-2,0.4-3.1,0.4c-1.7,0-3-0.3-3.7-0.9
		c-0.5-0.5-0.8-1.2-0.8-1.9c0-0.7,0.3-1.4,0.8-1.9c0.7-0.7,1.9-1,3.4-1c0.8,0,1.5,0.1,2.1,0.3c-0.3-0.4-0.3-0.4-0.6-0.9
		c-0.2-0.3-0.3-0.5-0.4-0.8c-0.1-0.2-0.1-0.2-0.2-0.3c-1.4,0.2-2.3,0.2-4.5,0.3c-0.3,0-0.4,0-0.6,0L73.8,47.9z"/>
</g>
<g class="st9">
	<path class="st10" d="M88,46.6c-0.1,0.5-0.1,1.2-0.1,2.1c0,3.1,0.5,5.3,1.1,5.3c0.2,0,0.3-0.2,0.5-0.5c0.3-0.7,0.5-1.5,0.7-2.3
		c0.5,0.6,0.8,0.9,1.5,1.4c-0.7,2.5-1.5,3.6-2.7,3.6c-0.9,0-1.7-0.7-2.2-2C86.2,53,86,51.3,86,47.5c0-0.5,0-0.6-0.1-0.9L88,46.6z
		 M94,47.1c1.6,2,2.6,4.2,2.9,7.1L94.9,55c-0.1-1.2-0.3-2.6-0.8-3.8c-0.4-1.2-1-2.3-1.8-3.3L94,47.1z"/>
</g>
<path class="st1" d="M197.4,56.4c0-13.8-13.9-24.9-31.1-24.9s-31.1,11.2-31.1,24.9c0,12.2,10.8,22.3,25.2,24.5l5.9,10.2l5.9-10.2
	C186.6,78.7,197.4,68.6,197.4,56.4z"/>
<path class="st8" d="M197.4,56.4c0-13.8-13.9-24.9-31.1-24.9s-31.1,11.2-31.1,24.9c0,12.2,10.8,22.3,25.2,24.5l5.9,10.2l5.9-10.2
	C186.6,78.7,197.4,68.6,197.4,56.4z"/>
<g class="st9">
	<path class="st10" d="M153.3,52.1c-0.3,0.5-0.7,2.4-0.8,3.9c-0.1,0.8-0.2,1.7-0.2,2.5c0,0.3,0,0.8,0,1c0.3-0.7,0.4-0.9,0.6-1.3
		l1.1,0.4c-0.7,1.3-1.2,2.9-1.2,3.9c0,0.1,0,0.2,0,0.4l-1.8,0.1c0-0.2,0-0.2-0.1-0.5c-0.3-1.7-0.3-2.8-0.3-4.2
		c0-1.2,0.1-2.3,0.2-3.4c0.1-0.4,0.1-0.4,0.3-1.8c0.1-0.5,0.1-0.8,0.2-1.1L153.3,52.1z M154,54.2c0.6,0.1,1.3,0.2,2.4,0.2
		c0.4,0,0.6,0,1,0c0-0.9,0-0.9,0-1.8c0-0.2,0-0.5-0.1-0.7h1.9c-0.1,0.4-0.1,0.9-0.1,2.3c0.8-0.1,1.5-0.2,2.1-0.4l0.1,1.7
		c-0.2,0-0.2,0-0.5,0.1c-0.4,0.1-0.9,0.2-1.6,0.3c0,1,0,1.3,0.1,3c0.9,0.4,1.3,0.7,2,1.1c0.2,0.1,0.2,0.2,0.4,0.2l-0.7,1.8
		c-0.3-0.4-0.9-0.8-1.6-1.3c0,0.1,0,0.1,0,0.2c0,1.1-1,1.8-2.6,1.8c-1.8,0-2.8-0.8-2.8-2.2c0-1.4,1.1-2.3,2.8-2.3
		c0.3,0,0.6,0,0.9,0.1c0-0.4,0-1-0.1-2.4c-0.4,0-0.6,0-0.9,0c-0.5,0-1.6,0-2.1-0.1c-0.2,0-0.2,0-0.4,0c0,0,0,0-0.1,0L154,54.2z
		 M156.6,59.9c-0.7,0-1.1,0.3-1.1,0.7c0,0.4,0.4,0.7,1,0.7c0.7,0,1.1-0.3,1.1-0.9c0-0.1,0-0.3,0-0.3C157.2,59.9,157,59.9,156.6,59.9
		z"/>
</g>
<g class="st9">
	<path class="st10" d="M166.2,52.6c-0.1,0.5-0.1,1.2-0.1,2.1c0,3.1,0.5,5.3,1.1,5.3c0.2,0,0.3-0.2,0.5-0.5c0.3-0.7,0.5-1.5,0.7-2.3
		c0.5,0.6,0.8,0.9,1.5,1.4c-0.7,2.5-1.5,3.6-2.7,3.6c-0.9,0-1.7-0.7-2.2-2c-0.5-1.3-0.7-2.9-0.8-6.8c0-0.5,0-0.6-0.1-0.9L166.2,52.6
		z M172.1,53.1c1.6,2,2.6,4.2,2.9,7.1l-1.9,0.7c-0.1-1.2-0.3-2.6-0.8-3.8c-0.4-1.2-1-2.3-1.8-3.3L172.1,53.1z"/>
</g>
<g class="st9">
	<path class="st10" d="M177.1,59.4c0-0.3,0-0.5,0-0.6c0-0.2,0-0.2,0-0.9l-0.2-4.2c0-0.6-0.1-1.2-0.1-1.6h2.5c-0.1,0.4-0.1,1-0.1,1.6
		l-0.2,4.2c0,0.8,0,0.8,0,0.9c0,0.1,0,0.3,0,0.6H177.1z M176.9,62.5v-2.1h2.2v2.1H176.9z"/>
</g>
</svg>
